<?xml version="1.0" encoding="UTF-8" standalone="no"?>
<!DOCTYPE svg PUBLIC "-//W3C//DTD SVG 1.1//EN"
 "http://www.w3.org/Graphics/SVG/1.1/DTD/svg11.dtd">
<!-- Generated by graphviz version 2.49.3 (20211027.1534)
 -->
<!-- Title: CUDA/inc/balanced_texture_gpuNUFFT_operator.hpp Pages: 1 -->
<svg width="759pt" height="375pt"
 viewBox="0.00 0.00 759.37 375.00" xmlns="http://www.w3.org/2000/svg" xmlns:xlink="http://www.w3.org/1999/xlink">
<g id="graph0" class="graph" transform="scale(1 1) rotate(0) translate(4 371)">
<title>CUDA/inc/balanced_texture_gpuNUFFT_operator.hpp</title>
<!-- Node1 -->
<g id="node1" class="node">
<title>Node1</title>
<g id="a_node1"><a xlink:title=" ">
<polygon fill="#bfbfbf" stroke="black" points="0.37,-336.5 0.37,-366.5 137.37,-366.5 137.37,-336.5 0.37,-336.5"/>
<text text-anchor="start" x="8.37" y="-354.5" font-family="FreeSans.ttf" font-size="10.00">CUDA/inc/balanced_texture</text>
<text text-anchor="middle" x="68.87" y="-343.5" font-family="FreeSans.ttf" font-size="10.00">_gpuNUFFT_operator.hpp</text>
</a>
</g>
</g>
<!-- Node2 -->
<g id="node2" class="node">
<title>Node2</title>
<g id="a_node2"><a xlink:href="gpuNUFFT__types_8hpp.html" target="_top" xlink:title="Definition of gpuNUFFT defined types.">
<polygon fill="none" stroke="black" points="62.87,-168.5 62.87,-187.5 174.87,-187.5 174.87,-168.5 62.87,-168.5"/>
<text text-anchor="middle" x="118.87" y="-175.5" font-family="FreeSans.ttf" font-size="10.00">gpuNUFFT_types.hpp</text>
</a>
</g>
</g>
<!-- Node1&#45;&gt;Node2 -->
<g id="edge1" class="edge">
<title>Node1&#45;&gt;Node2</title>
<path fill="none" stroke="midnightblue" d="M39.57,-336.37C17.55,-323.58 -7.22,-303.22 2.87,-280 20.55,-239.29 64.17,-208.87 92.59,-192.54"/>
<polygon fill="midnightblue" stroke="midnightblue" points="94.55,-195.46 101.59,-187.54 91.15,-189.34 94.55,-195.46"/>
</g>
<!-- Node6 -->
<g id="node6" class="node">
<title>Node6</title>
<g id="a_node6"><a xlink:href="texture__gpuNUFFT__operator_8hpp.html" target="_top" xlink:title=" ">
<polygon fill="none" stroke="black" points="143.87,-280.5 143.87,-299.5 301.87,-299.5 301.87,-280.5 143.87,-280.5"/>
<text text-anchor="middle" x="222.87" y="-287.5" font-family="FreeSans.ttf" font-size="10.00">texture_gpuNUFFT_operator.hpp</text>
</a>
</g>
</g>
<!-- Node1&#45;&gt;Node6 -->
<g id="edge5" class="edge">
<title>Node1&#45;&gt;Node6</title>
<path fill="none" stroke="midnightblue" d="M105.36,-336.4C131.43,-326.33 166.16,-312.91 191.09,-303.28"/>
<polygon fill="midnightblue" stroke="midnightblue" points="192.39,-306.53 200.46,-299.66 189.87,-300 192.39,-306.53"/>
</g>
<!-- Node23 -->
<g id="node23" class="node">
<title>Node23</title>
<g id="a_node23"><a xlink:href="balanced__operator_8hpp.html" target="_top" xlink:title=" ">
<polygon fill="none" stroke="black" points="11.87,-280.5 11.87,-299.5 125.87,-299.5 125.87,-280.5 11.87,-280.5"/>
<text text-anchor="middle" x="68.87" y="-287.5" font-family="FreeSans.ttf" font-size="10.00">balanced_operator.hpp</text>
</a>
</g>
</g>
<!-- Node1&#45;&gt;Node23 -->
<g id="edge33" class="edge">
<title>Node1&#45;&gt;Node23</title>
<path fill="none" stroke="midnightblue" d="M68.87,-336.4C68.87,-328.47 68.87,-318.46 68.87,-309.86"/>
<polygon fill="midnightblue" stroke="midnightblue" points="72.37,-309.66 68.87,-299.66 65.37,-309.66 72.37,-309.66"/>
</g>
<!-- Node3 -->
<g id="node3" class="node">
<title>Node3</title>
<g id="a_node3"><a xlink:title=" ">
<polygon fill="none" stroke="#bfbfbf" points="219.37,-112.5 219.37,-131.5 264.37,-131.5 264.37,-112.5 219.37,-112.5"/>
<text text-anchor="middle" x="241.87" y="-119.5" font-family="FreeSans.ttf" font-size="10.00">cstdlib</text>
</a>
</g>
</g>
<!-- Node2&#45;&gt;Node3 -->
<g id="edge2" class="edge">
<title>Node2&#45;&gt;Node3</title>
<path fill="none" stroke="midnightblue" d="M138.36,-168.44C158.51,-159.6 190.19,-145.69 213.2,-135.59"/>
<polygon fill="midnightblue" stroke="midnightblue" points="214.72,-138.74 222.47,-131.52 211.9,-132.33 214.72,-138.74"/>
</g>
<!-- Node4 -->
<g id="node4" class="node">
<title>Node4</title>
<g id="a_node4"><a xlink:title=" ">
<polygon fill="none" stroke="#bfbfbf" points="146.87,-112.5 146.87,-131.5 200.87,-131.5 200.87,-112.5 146.87,-112.5"/>
<text text-anchor="middle" x="173.87" y="-119.5" font-family="FreeSans.ttf" font-size="10.00">iostream</text>
</a>
</g>
</g>
<!-- Node2&#45;&gt;Node4 -->
<g id="edge3" class="edge">
<title>Node2&#45;&gt;Node4</title>
<path fill="none" stroke="midnightblue" d="M127.95,-168.08C136.04,-160.14 148.06,-148.34 157.78,-138.8"/>
<polygon fill="midnightblue" stroke="midnightblue" points="160.27,-141.25 164.95,-131.75 155.37,-136.26 160.27,-141.25"/>
</g>
<!-- Node5 -->
<g id="node5" class="node">
<title>Node5</title>
<g id="a_node5"><a xlink:title=" ">
<polygon fill="none" stroke="#bfbfbf" points="202.87,-0.5 202.87,-19.5 262.87,-19.5 262.87,-0.5 202.87,-0.5"/>
<text text-anchor="middle" x="232.87" y="-7.5" font-family="FreeSans.ttf" font-size="10.00">config.hpp</text>
</a>
</g>
</g>
<!-- Node2&#45;&gt;Node5 -->
<g id="edge4" class="edge">
<title>Node2&#45;&gt;Node5</title>
<path fill="none" stroke="midnightblue" d="M120.12,-168.07C122.23,-155.04 127.36,-130.37 137.87,-112 158.02,-76.77 192.84,-44.13 214.26,-25.95"/>
<polygon fill="midnightblue" stroke="midnightblue" points="216.56,-28.59 222.02,-19.51 212.09,-23.21 216.56,-28.59"/>
</g>
<!-- Node6&#45;&gt;Node2 -->
<g id="edge8" class="edge">
<title>Node6&#45;&gt;Node2</title>
<path fill="none" stroke="midnightblue" d="M224.99,-280.09C227.65,-266.64 230.56,-240.93 218.87,-224 207.82,-208.01 189.68,-197.62 171.86,-190.9"/>
<polygon fill="midnightblue" stroke="midnightblue" points="172.63,-187.47 162.04,-187.53 170.36,-194.09 172.63,-187.47"/>
</g>
<!-- Node7 -->
<g id="node7" class="node">
<title>Node7</title>
<g id="a_node7"><a xlink:title=" ">
<polygon fill="none" stroke="#bfbfbf" points="81.87,-224.5 81.87,-243.5 131.87,-243.5 131.87,-224.5 81.87,-224.5"/>
<text text-anchor="middle" x="106.87" y="-231.5" font-family="FreeSans.ttf" font-size="10.00">typeinfo</text>
</a>
</g>
</g>
<!-- Node6&#45;&gt;Node7 -->
<g id="edge6" class="edge">
<title>Node6&#45;&gt;Node7</title>
<path fill="none" stroke="midnightblue" d="M204.49,-280.44C185.65,-271.68 156.13,-257.94 134.49,-247.86"/>
<polygon fill="midnightblue" stroke="midnightblue" points="135.7,-244.56 125.16,-243.52 132.75,-250.91 135.7,-244.56"/>
</g>
<!-- Node8 -->
<g id="node8" class="node">
<title>Node8</title>
<g id="a_node8"><a xlink:title=" ">
<polygon fill="none" stroke="#bfbfbf" points="150.37,-224.5 150.37,-243.5 209.37,-243.5 209.37,-224.5 150.37,-224.5"/>
<text text-anchor="middle" x="179.87" y="-231.5" font-family="FreeSans.ttf" font-size="10.00">stdexcept</text>
</a>
</g>
</g>
<!-- Node6&#45;&gt;Node8 -->
<g id="edge7" class="edge">
<title>Node6&#45;&gt;Node8</title>
<path fill="none" stroke="midnightblue" d="M215.77,-280.08C209.63,-272.38 200.6,-261.03 193.13,-251.65"/>
<polygon fill="midnightblue" stroke="midnightblue" points="195.8,-249.39 186.83,-243.75 190.33,-253.75 195.8,-249.39"/>
</g>
<!-- Node9 -->
<g id="node9" class="node">
<title>Node9</title>
<g id="a_node9"><a xlink:href="gpuNUFFT__operator_8hpp.html" target="_top" xlink:title=" ">
<polygon fill="none" stroke="black" points="265.87,-224.5 265.87,-243.5 389.87,-243.5 389.87,-224.5 265.87,-224.5"/>
<text text-anchor="middle" x="327.87" y="-231.5" font-family="FreeSans.ttf" font-size="10.00">gpuNUFFT_operator.hpp</text>
</a>
</g>
</g>
<!-- Node6&#45;&gt;Node9 -->
<g id="edge9" class="edge">
<title>Node6&#45;&gt;Node9</title>
<path fill="none" stroke="midnightblue" d="M239.74,-280.32C256.57,-271.66 282.67,-258.24 302.1,-248.25"/>
<polygon fill="midnightblue" stroke="midnightblue" points="303.75,-251.34 311.04,-243.65 300.54,-245.12 303.75,-251.34"/>
</g>
<!-- Node9&#45;&gt;Node2 -->
<g id="edge10" class="edge">
<title>Node9&#45;&gt;Node2</title>
<path fill="none" stroke="midnightblue" d="M294.75,-224.44C258.75,-215.14 201.1,-200.25 161.68,-190.06"/>
<polygon fill="midnightblue" stroke="midnightblue" points="162.39,-186.63 151.83,-187.52 160.63,-193.41 162.39,-186.63"/>
</g>
<!-- Node9&#45;&gt;Node3 -->
<g id="edge30" class="edge">
<title>Node9&#45;&gt;Node3</title>
<path fill="none" stroke="midnightblue" d="M308.08,-224.36C293.04,-216.82 272.95,-204.51 260.87,-188 250.99,-174.51 246.23,-155.95 243.94,-142.12"/>
<polygon fill="midnightblue" stroke="midnightblue" points="247.35,-141.26 242.54,-131.83 240.42,-142.21 247.35,-141.26"/>
</g>
<!-- Node9&#45;&gt;Node4 -->
<g id="edge31" class="edge">
<title>Node9&#45;&gt;Node4</title>
<path fill="none" stroke="midnightblue" d="M309.56,-224.49C292.44,-216.18 266.51,-202.68 245.87,-188 224.99,-173.15 203.49,-153 189.49,-139.08"/>
<polygon fill="midnightblue" stroke="midnightblue" points="191.7,-136.34 182.17,-131.7 186.73,-141.27 191.7,-136.34"/>
</g>
<!-- Node9&#45;&gt;Node5 -->
<g id="edge29" class="edge">
<title>Node9&#45;&gt;Node5</title>
<path fill="none" stroke="midnightblue" d="M331.57,-224.41C336.47,-211.81 343.84,-187.67 337.87,-168 320.25,-109.96 273.27,-53.82 248.56,-27.14"/>
<polygon fill="midnightblue" stroke="midnightblue" points="250.79,-24.42 241.38,-19.55 245.71,-29.22 250.79,-24.42"/>
</g>
<!-- Node10 -->
<g id="node10" class="node">
<title>Node10</title>
<g id="a_node10"><a xlink:href="gpuNUFFT__kernels_8hpp.html" target="_top" xlink:title="gpuNUFFT CUDA function prototypes">
<polygon fill="none" stroke="black" points="384.87,-168.5 384.87,-187.5 504.87,-187.5 504.87,-168.5 384.87,-168.5"/>
<text text-anchor="middle" x="444.87" y="-175.5" font-family="FreeSans.ttf" font-size="10.00">gpuNUFFT_kernels.hpp</text>
</a>
</g>
</g>
<!-- Node9&#45;&gt;Node10 -->
<g id="edge11" class="edge">
<title>Node9&#45;&gt;Node10</title>
<path fill="none" stroke="midnightblue" d="M346.4,-224.44C365.49,-215.64 395.44,-201.81 417.3,-191.72"/>
<polygon fill="midnightblue" stroke="midnightblue" points="418.8,-194.88 426.41,-187.52 415.87,-188.53 418.8,-194.88"/>
</g>
<!-- Node22 -->
<g id="node22" class="node">
<title>Node22</title>
<g id="a_node22"><a xlink:title=" ">
<polygon fill="none" stroke="#bfbfbf" points="269.37,-168.5 269.37,-187.5 328.37,-187.5 328.37,-168.5 269.37,-168.5"/>
<text text-anchor="middle" x="298.87" y="-175.5" font-family="FreeSans.ttf" font-size="10.00">functional</text>
</a>
</g>
</g>
<!-- Node9&#45;&gt;Node22 -->
<g id="edge32" class="edge">
<title>Node9&#45;&gt;Node22</title>
<path fill="none" stroke="midnightblue" d="M323.08,-224.08C319.11,-216.69 313.34,-205.95 308.43,-196.81"/>
<polygon fill="midnightblue" stroke="midnightblue" points="311.38,-194.91 303.57,-187.75 305.21,-198.22 311.38,-194.91"/>
</g>
<!-- Node11 -->
<g id="node11" class="node">
<title>Node11</title>
<g id="a_node11"><a xlink:href="gpuNUFFT__utils_8hpp.html" target="_top" xlink:title="Definition of util functions used in gridding operations.">
<polygon fill="none" stroke="black" points="385.37,-56.5 385.37,-75.5 492.37,-75.5 492.37,-56.5 385.37,-56.5"/>
<text text-anchor="middle" x="438.87" y="-63.5" font-family="FreeSans.ttf" font-size="10.00">gpuNUFFT_utils.hpp</text>
</a>
</g>
</g>
<!-- Node10&#45;&gt;Node11 -->
<g id="edge12" class="edge">
<title>Node10&#45;&gt;Node11</title>
<path fill="none" stroke="midnightblue" d="M444.4,-168.37C443.43,-150.62 441.19,-109.67 439.88,-85.6"/>
<polygon fill="midnightblue" stroke="midnightblue" points="443.37,-85.39 439.33,-75.59 436.38,-85.77 443.37,-85.39"/>
</g>
<!-- Node19 -->
<g id="node19" class="node">
<title>Node19</title>
<g id="a_node19"><a xlink:href="cuda__utils_8hpp.html" target="_top" xlink:title="Util functions for CUDA memory and texture management.">
<polygon fill="none" stroke="black" points="523.37,-112.5 523.37,-131.5 602.37,-131.5 602.37,-112.5 523.37,-112.5"/>
<text text-anchor="middle" x="562.87" y="-119.5" font-family="FreeSans.ttf" font-size="10.00">cuda_utils.hpp</text>
</a>
</g>
</g>
<!-- Node10&#45;&gt;Node19 -->
<g id="edge21" class="edge">
<title>Node10&#45;&gt;Node19</title>
<path fill="none" stroke="midnightblue" d="M463.56,-168.44C482.81,-159.64 513.02,-145.81 535.07,-135.72"/>
<polygon fill="midnightblue" stroke="midnightblue" points="536.62,-138.86 544.26,-131.52 533.71,-132.5 536.62,-138.86"/>
</g>
<!-- Node11&#45;&gt;Node5 -->
<g id="edge17" class="edge">
<title>Node11&#45;&gt;Node5</title>
<path fill="none" stroke="midnightblue" d="M406.22,-56.44C370.09,-46.97 311.81,-31.7 272.94,-21.5"/>
<polygon fill="midnightblue" stroke="midnightblue" points="273.57,-18.05 263.01,-18.9 271.79,-24.82 273.57,-18.05"/>
</g>
<!-- Node12 -->
<g id="node12" class="node">
<title>Node12</title>
<g id="a_node12"><a xlink:title=" ">
<polygon fill="none" stroke="#bfbfbf" points="350.37,-0.5 350.37,-19.5 397.37,-19.5 397.37,-0.5 350.37,-0.5"/>
<text text-anchor="middle" x="373.87" y="-7.5" font-family="FreeSans.ttf" font-size="10.00">stdlib.h</text>
</a>
</g>
</g>
<!-- Node11&#45;&gt;Node12 -->
<g id="edge13" class="edge">
<title>Node11&#45;&gt;Node12</title>
<path fill="none" stroke="midnightblue" d="M428.42,-56.32C418.72,-48.26 404.05,-36.08 392.37,-26.37"/>
<polygon fill="midnightblue" stroke="midnightblue" points="394.43,-23.53 384.5,-19.83 389.95,-28.92 394.43,-23.53"/>
</g>
<!-- Node13 -->
<g id="node13" class="node">
<title>Node13</title>
<g id="a_node13"><a xlink:title=" ">
<polygon fill="none" stroke="#bfbfbf" points="542.37,-0.5 542.37,-19.5 587.37,-19.5 587.37,-0.5 542.37,-0.5"/>
<text text-anchor="middle" x="564.87" y="-7.5" font-family="FreeSans.ttf" font-size="10.00">stdio.h</text>
</a>
</g>
</g>
<!-- Node11&#45;&gt;Node13 -->
<g id="edge14" class="edge">
<title>Node11&#45;&gt;Node13</title>
<path fill="none" stroke="midnightblue" d="M458.83,-56.44C479.48,-47.6 511.93,-33.69 535.5,-23.59"/>
<polygon fill="midnightblue" stroke="midnightblue" points="537.18,-26.67 544.99,-19.52 534.42,-20.24 537.18,-26.67"/>
</g>
<!-- Node14 -->
<g id="node14" class="node">
<title>Node14</title>
<g id="a_node14"><a xlink:title=" ">
<polygon fill="none" stroke="#bfbfbf" points="605.37,-0.5 605.37,-19.5 650.37,-19.5 650.37,-0.5 605.37,-0.5"/>
<text text-anchor="middle" x="627.87" y="-7.5" font-family="FreeSans.ttf" font-size="10.00">cuda.h</text>
</a>
</g>
</g>
<!-- Node11&#45;&gt;Node14 -->
<g id="edge15" class="edge">
<title>Node11&#45;&gt;Node14</title>
<path fill="none" stroke="midnightblue" d="M469.17,-56.42C499,-47.96 546.1,-34.58 595.32,-20.44"/>
<polygon fill="midnightblue" stroke="midnightblue" points="596.54,-23.73 605.18,-17.6 594.61,-17 596.54,-23.73"/>
</g>
<!-- Node15 -->
<g id="node15" class="node">
<title>Node15</title>
<g id="a_node15"><a xlink:title=" ">
<polygon fill="none" stroke="#bfbfbf" points="668.37,-0.5 668.37,-19.5 751.37,-19.5 751.37,-0.5 668.37,-0.5"/>
<text text-anchor="middle" x="709.87" y="-7.5" font-family="FreeSans.ttf" font-size="10.00">cuda_runtime.h</text>
</a>
</g>
</g>
<!-- Node11&#45;&gt;Node15 -->
<g id="edge16" class="edge">
<title>Node11&#45;&gt;Node15</title>
<path fill="none" stroke="midnightblue" d="M481.81,-56.44C529.66,-46.91 607.01,-31.49 658.15,-21.3"/>
<polygon fill="midnightblue" stroke="midnightblue" points="658.89,-24.73 668.02,-19.34 657.53,-17.86 658.89,-24.73"/>
</g>
<!-- Node16 -->
<g id="node16" class="node">
<title>Node16</title>
<g id="a_node16"><a xlink:title=" ">
<polygon fill="none" stroke="#bfbfbf" points="415.87,-0.5 415.87,-19.5 459.87,-19.5 459.87,-0.5 415.87,-0.5"/>
<text text-anchor="middle" x="437.87" y="-7.5" font-family="FreeSans.ttf" font-size="10.00">cmath</text>
</a>
</g>
</g>
<!-- Node11&#45;&gt;Node16 -->
<g id="edge18" class="edge">
<title>Node11&#45;&gt;Node16</title>
<path fill="none" stroke="midnightblue" d="M438.7,-56.08C438.57,-49.01 438.38,-38.86 438.22,-29.99"/>
<polygon fill="midnightblue" stroke="midnightblue" points="441.71,-29.68 438.03,-19.75 434.71,-29.81 441.71,-29.68"/>
</g>
<!-- Node17 -->
<g id="node17" class="node">
<title>Node17</title>
<g id="a_node17"><a xlink:title=" ">
<polygon fill="none" stroke="#bfbfbf" points="477.87,-0.5 477.87,-19.5 523.87,-19.5 523.87,-0.5 477.87,-0.5"/>
<text text-anchor="middle" x="500.87" y="-7.5" font-family="FreeSans.ttf" font-size="10.00">math.h</text>
</a>
</g>
</g>
<!-- Node11&#45;&gt;Node17 -->
<g id="edge19" class="edge">
<title>Node11&#45;&gt;Node17</title>
<path fill="none" stroke="midnightblue" d="M448.83,-56.32C457.99,-48.34 471.8,-36.31 482.89,-26.65"/>
<polygon fill="midnightblue" stroke="midnightblue" points="485.48,-29.04 490.72,-19.83 480.88,-23.76 485.48,-29.04"/>
</g>
<!-- Node18 -->
<g id="node18" class="node">
<title>Node18</title>
<g id="a_node18"><a xlink:title=" ">
<polygon fill="none" stroke="#bfbfbf" points="281.37,-0.5 281.37,-19.5 332.37,-19.5 332.37,-0.5 281.37,-0.5"/>
<text text-anchor="middle" x="306.87" y="-7.5" font-family="FreeSans.ttf" font-size="10.00">assert.h</text>
</a>
</g>
</g>
<!-- Node11&#45;&gt;Node18 -->
<g id="edge20" class="edge">
<title>Node11&#45;&gt;Node18</title>
<path fill="none" stroke="midnightblue" d="M417.95,-56.44C396.13,-47.52 361.72,-33.44 336.97,-23.32"/>
<polygon fill="midnightblue" stroke="midnightblue" points="338.26,-20.06 327.68,-19.52 335.61,-26.54 338.26,-20.06"/>
</g>
<!-- Node19&#45;&gt;Node9 -->
<g id="edge27" class="edge">
<title>Node19&#45;&gt;Node9</title>
<path fill="none" stroke="midnightblue" d="M558.81,-131.69C551.75,-145.8 535.84,-173.57 513.87,-188 480.23,-210.09 436.79,-221.35 400.35,-227.08"/>
<polygon fill="midnightblue" stroke="midnightblue" points="399.66,-223.65 390.27,-228.56 400.68,-230.57 399.66,-223.65"/>
</g>
<!-- Node19&#45;&gt;Node11 -->
<g id="edge26" class="edge">
<title>Node19&#45;&gt;Node11</title>
<path fill="none" stroke="midnightblue" d="M543.22,-112.44C522.9,-103.6 490.96,-89.69 467.77,-79.59"/>
<polygon fill="midnightblue" stroke="midnightblue" points="468.99,-76.3 458.42,-75.52 466.19,-82.72 468.99,-76.3"/>
</g>
<!-- Node19&#45;&gt;Node13 -->
<g id="edge24" class="edge">
<title>Node19&#45;&gt;Node13</title>
<path fill="none" stroke="midnightblue" d="M564.85,-112.43C566.83,-103.42 569.74,-88.8 570.87,-76 572.24,-60.46 570.4,-42.83 568.41,-29.86"/>
<polygon fill="midnightblue" stroke="midnightblue" points="571.83,-29.1 566.69,-19.83 564.93,-30.28 571.83,-29.1"/>
</g>
<!-- Node19&#45;&gt;Node14 -->
<g id="edge22" class="edge">
<title>Node19&#45;&gt;Node14</title>
<path fill="none" stroke="midnightblue" d="M567.97,-112.37C578.65,-94.3 603.53,-52.18 617.64,-28.31"/>
<polygon fill="midnightblue" stroke="midnightblue" points="620.72,-29.98 622.79,-19.59 614.69,-26.42 620.72,-29.98"/>
</g>
<!-- Node19&#45;&gt;Node15 -->
<g id="edge23" class="edge">
<title>Node19&#45;&gt;Node15</title>
<path fill="none" stroke="midnightblue" d="M574.4,-112.37C599.41,-93.65 658.88,-49.15 690.04,-25.83"/>
<polygon fill="midnightblue" stroke="midnightblue" points="692.48,-28.39 698.38,-19.59 688.28,-22.78 692.48,-28.39"/>
</g>
<!-- Node20 -->
<g id="node20" class="node">
<title>Node20</title>
<g id="a_node20"><a xlink:title=" ">
<polygon fill="none" stroke="#bfbfbf" points="694.37,-56.5 694.37,-75.5 737.37,-75.5 737.37,-56.5 694.37,-56.5"/>
<text text-anchor="middle" x="715.87" y="-63.5" font-family="FreeSans.ttf" font-size="10.00">cufft.h</text>
</a>
</g>
</g>
<!-- Node19&#45;&gt;Node20 -->
<g id="edge25" class="edge">
<title>Node19&#45;&gt;Node20</title>
<path fill="none" stroke="midnightblue" d="M587.11,-112.44C613.49,-103.13 655.75,-88.22 684.61,-78.03"/>
<polygon fill="midnightblue" stroke="midnightblue" points="685.94,-81.27 694.21,-74.64 683.61,-74.67 685.94,-81.27"/>
</g>
<!-- Node21 -->
<g id="node21" class="node">
<title>Node21</title>
<g id="a_node21"><a xlink:title=" ">
<polygon fill="none" stroke="#bfbfbf" points="510.37,-56.5 510.37,-75.5 561.37,-75.5 561.37,-56.5 510.37,-56.5"/>
<text text-anchor="middle" x="535.87" y="-63.5" font-family="FreeSans.ttf" font-size="10.00">stdarg.h</text>
</a>
</g>
</g>
<!-- Node19&#45;&gt;Node21 -->
<g id="edge28" class="edge">
<title>Node19&#45;&gt;Node21</title>
<path fill="none" stroke="midnightblue" d="M558.41,-112.08C554.71,-104.69 549.34,-93.95 544.77,-84.81"/>
<polygon fill="midnightblue" stroke="midnightblue" points="547.84,-83.13 540.24,-75.75 541.58,-86.26 547.84,-83.13"/>
</g>
<!-- Node23&#45;&gt;Node2 -->
<g id="edge34" class="edge">
<title>Node23&#45;&gt;Node2</title>
<path fill="none" stroke="midnightblue" d="M67.48,-280.11C65.86,-267.12 64.4,-242.51 72.87,-224 78.33,-212.06 88.47,-201.59 97.85,-193.77"/>
<polygon fill="midnightblue" stroke="midnightblue" points="100.02,-196.51 105.76,-187.6 95.72,-190.99 100.02,-196.51"/>
</g>
</g>
</svg>
