<?xml version="1.0" encoding="UTF-8" standalone="no"?>
<!DOCTYPE svg PUBLIC "-//W3C//DTD SVG 1.1//EN"
 "http://www.w3.org/Graphics/SVG/1.1/DTD/svg11.dtd">
<!-- Generated by graphviz version 2.49.3 (20211027.1534)
 -->
<!-- Title: CUDA/inc/balanced_gpuNUFFT_operator.hpp Pages: 1 -->
<svg width="1270pt" height="229pt"
 viewBox="0.00 0.00 1269.69 229.00" xmlns="http://www.w3.org/2000/svg" xmlns:xlink="http://www.w3.org/1999/xlink">
<g id="graph0" class="graph" transform="scale(1 1) rotate(0) translate(4 225)">
<title>CUDA/inc/balanced_gpuNUFFT_operator.hpp</title>
<!-- Node1 -->
<g id="node1" class="node">
<title>Node1</title>
<g id="a_node1"><a xlink:title=" ">
<polygon fill="#bfbfbf" stroke="black" points="719.5,-190.5 719.5,-220.5 875.5,-220.5 875.5,-190.5 719.5,-190.5"/>
<text text-anchor="start" x="727.5" y="-208.5" font-family="FreeSans.ttf" font-size="10.00">CUDA/inc/balanced_gpuNUFFT</text>
<text text-anchor="middle" x="797.5" y="-197.5" font-family="FreeSans.ttf" font-size="10.00">_operator.hpp</text>
</a>
</g>
</g>
<!-- Node2 -->
<g id="node2" class="node">
<title>Node2</title>
<g id="a_node2"><a xlink:href="gpuNUFFT__operator__factory_8hpp.html" target="_top" xlink:title=" ">
<polygon fill="none" stroke="black" points="635.5,-123.5 635.5,-153.5 787.5,-153.5 787.5,-123.5 635.5,-123.5"/>
<text text-anchor="start" x="643.5" y="-141.5" font-family="FreeSans.ttf" font-size="10.00">CUDA/inc/gpuNUFFT_operator</text>
<text text-anchor="middle" x="711.5" y="-130.5" font-family="FreeSans.ttf" font-size="10.00">_factory.hpp</text>
</a>
</g>
</g>
<!-- Node1&#45;&gt;Node2 -->
<g id="edge1" class="edge">
<title>Node1&#45;&gt;Node2</title>
<path fill="none" stroke="midnightblue" d="M770.6,-184.17C757.45,-174.23 741.95,-162.51 730.12,-153.58"/>
<polygon fill="midnightblue" stroke="midnightblue" points="768.75,-187.16 778.84,-190.4 772.97,-181.57 768.75,-187.16"/>
</g>
<!-- Node13 -->
<g id="node13" class="node">
<title>Node13</title>
<g id="a_node13"><a xlink:href="balanced__gpuNUFFT__operator_8cpp.html" target="_top" xlink:title=" ">
<polygon fill="none" stroke="black" points="806,-123.5 806,-153.5 963,-153.5 963,-123.5 806,-123.5"/>
<text text-anchor="start" x="814" y="-141.5" font-family="FreeSans.ttf" font-size="10.00">CUDA/src/balanced_gpuNUFFT</text>
<text text-anchor="middle" x="884.5" y="-130.5" font-family="FreeSans.ttf" font-size="10.00">_operator.cpp</text>
</a>
</g>
</g>
<!-- Node1&#45;&gt;Node13 -->
<g id="edge15" class="edge">
<title>Node1&#45;&gt;Node13</title>
<path fill="none" stroke="midnightblue" d="M824.71,-184.17C838.02,-174.23 853.7,-162.51 865.66,-153.58"/>
<polygon fill="midnightblue" stroke="midnightblue" points="822.29,-181.61 816.38,-190.4 826.48,-187.21 822.29,-181.61"/>
</g>
<!-- Node3 -->
<g id="node3" class="node">
<title>Node3</title>
<g id="a_node3"><a xlink:href="gpuNUFFT__operator__factory_8cpp.html" target="_top" xlink:title=" ">
<polygon fill="none" stroke="black" points="0,-56.5 0,-86.5 153,-86.5 153,-56.5 0,-56.5"/>
<text text-anchor="start" x="8" y="-74.5" font-family="FreeSans.ttf" font-size="10.00">CUDA/src/gpuNUFFT_operator</text>
<text text-anchor="middle" x="76.5" y="-63.5" font-family="FreeSans.ttf" font-size="10.00">_factory.cpp</text>
</a>
</g>
</g>
<!-- Node2&#45;&gt;Node3 -->
<g id="edge2" class="edge">
<title>Node2&#45;&gt;Node3</title>
<path fill="none" stroke="midnightblue" d="M624.98,-131.64C516.45,-123.8 324.75,-108.39 161.5,-87 158.83,-86.65 156.11,-86.28 153.37,-85.89"/>
<polygon fill="midnightblue" stroke="midnightblue" points="625,-135.15 635.22,-132.37 625.5,-128.16 625,-135.15"/>
</g>
<!-- Node4 -->
<g id="node4" class="node">
<title>Node4</title>
<g id="a_node4"><a xlink:href="gpuNUFFT__forward__tests_8cpp.html" target="_top" xlink:title=" ">
<polygon fill="none" stroke="black" points="171,-56.5 171,-86.5 322,-86.5 322,-56.5 171,-56.5"/>
<text text-anchor="start" x="179" y="-74.5" font-family="FreeSans.ttf" font-size="10.00">CUDA/test/gpu/forward</text>
<text text-anchor="middle" x="246.5" y="-63.5" font-family="FreeSans.ttf" font-size="10.00">/gpuNUFFT_forward_tests.cpp</text>
</a>
</g>
</g>
<!-- Node2&#45;&gt;Node4 -->
<g id="edge3" class="edge">
<title>Node2&#45;&gt;Node4</title>
<path fill="none" stroke="midnightblue" d="M625.17,-126.95C548.07,-117.3 432.1,-102.26 331.5,-87 328.39,-86.53 325.22,-86.04 322.02,-85.53"/>
<polygon fill="midnightblue" stroke="midnightblue" points="624.96,-130.45 635.32,-128.21 625.83,-123.5 624.96,-130.45"/>
</g>
<!-- Node5 -->
<g id="node5" class="node">
<title>Node5</title>
<g id="a_node5"><a xlink:href="gpuNUFFT__2D__conv__tests_8cpp.html" target="_top" xlink:title=" ">
<polygon fill="none" stroke="black" points="340.5,-56.5 340.5,-86.5 474.5,-86.5 474.5,-56.5 340.5,-56.5"/>
<text text-anchor="start" x="348.5" y="-74.5" font-family="FreeSans.ttf" font-size="10.00">CUDA/test/gpu/gpuNUFFT</text>
<text text-anchor="middle" x="407.5" y="-63.5" font-family="FreeSans.ttf" font-size="10.00">_2D_conv_tests.cpp</text>
</a>
</g>
</g>
<!-- Node2&#45;&gt;Node5 -->
<g id="edge4" class="edge">
<title>Node2&#45;&gt;Node5</title>
<path fill="none" stroke="midnightblue" d="M636.12,-121.38C586.12,-110.69 521.13,-96.8 473.23,-86.55"/>
<polygon fill="midnightblue" stroke="midnightblue" points="635.4,-124.81 645.91,-123.48 636.86,-117.96 635.4,-124.81"/>
</g>
<!-- Node6 -->
<g id="node6" class="node">
<title>Node6</title>
<g id="a_node6"><a xlink:href="gpuNUFFT__conv__tests_8cpp.html" target="_top" xlink:title=" ">
<polygon fill="none" stroke="black" points="492.5,-56.5 492.5,-86.5 626.5,-86.5 626.5,-56.5 492.5,-56.5"/>
<text text-anchor="start" x="500.5" y="-74.5" font-family="FreeSans.ttf" font-size="10.00">CUDA/test/gpu/gpuNUFFT</text>
<text text-anchor="middle" x="559.5" y="-63.5" font-family="FreeSans.ttf" font-size="10.00">_conv_tests.cpp</text>
</a>
</g>
</g>
<!-- Node2&#45;&gt;Node6 -->
<g id="edge5" class="edge">
<title>Node2&#45;&gt;Node6</title>
<path fill="none" stroke="midnightblue" d="M669.19,-119.41C644.92,-109.03 614.91,-96.2 592.42,-86.58"/>
<polygon fill="midnightblue" stroke="midnightblue" points="667.95,-122.68 678.52,-123.4 670.7,-116.25 667.95,-122.68"/>
</g>
<!-- Node7 -->
<g id="node7" class="node">
<title>Node7</title>
<g id="a_node7"><a xlink:href="gpuNUFFT__deapo__tests_8cpp.html" target="_top" xlink:title=" ">
<polygon fill="none" stroke="black" points="644.5,-56.5 644.5,-86.5 778.5,-86.5 778.5,-56.5 644.5,-56.5"/>
<text text-anchor="start" x="652.5" y="-74.5" font-family="FreeSans.ttf" font-size="10.00">CUDA/test/gpu/gpuNUFFT</text>
<text text-anchor="middle" x="711.5" y="-63.5" font-family="FreeSans.ttf" font-size="10.00">_deapo_tests.cpp</text>
</a>
</g>
</g>
<!-- Node2&#45;&gt;Node7 -->
<g id="edge6" class="edge">
<title>Node2&#45;&gt;Node7</title>
<path fill="none" stroke="midnightblue" d="M711.5,-113.11C711.5,-104.15 711.5,-94.32 711.5,-86.58"/>
<polygon fill="midnightblue" stroke="midnightblue" points="708,-113.4 711.5,-123.4 715,-113.4 708,-113.4"/>
</g>
<!-- Node8 -->
<g id="node8" class="node">
<title>Node8</title>
<g id="a_node8"><a xlink:href="gpuNUFFT__fft__tests_8cpp.html" target="_top" xlink:title=" ">
<polygon fill="none" stroke="black" points="796.5,-56.5 796.5,-86.5 930.5,-86.5 930.5,-56.5 796.5,-56.5"/>
<text text-anchor="start" x="804.5" y="-74.5" font-family="FreeSans.ttf" font-size="10.00">CUDA/test/gpu/gpuNUFFT</text>
<text text-anchor="middle" x="863.5" y="-63.5" font-family="FreeSans.ttf" font-size="10.00">_fft_tests.cpp</text>
</a>
</g>
</g>
<!-- Node2&#45;&gt;Node8 -->
<g id="edge7" class="edge">
<title>Node2&#45;&gt;Node8</title>
<path fill="none" stroke="midnightblue" d="M753.81,-119.41C778.08,-109.03 808.09,-96.2 830.58,-86.58"/>
<polygon fill="midnightblue" stroke="midnightblue" points="752.3,-116.25 744.48,-123.4 755.05,-122.68 752.3,-116.25"/>
</g>
<!-- Node9 -->
<g id="node9" class="node">
<title>Node9</title>
<g id="a_node9"><a xlink:href="python__factory_8hpp.html" target="_top" xlink:title=" ">
<polygon fill="none" stroke="black" points="1101,-62 1101,-81 1246,-81 1246,-62 1101,-62"/>
<text text-anchor="middle" x="1173.5" y="-69" font-family="FreeSans.ttf" font-size="10.00">python/inc/python_factory.hpp</text>
</a>
</g>
</g>
<!-- Node2&#45;&gt;Node9 -->
<g id="edge8" class="edge">
<title>Node2&#45;&gt;Node9</title>
<path fill="none" stroke="midnightblue" d="M797.94,-122.83C928.9,-104 964.05,-106.03 1091.5,-87 1103.22,-85.25 1115.85,-83.13 1127.6,-81.06"/>
<polygon fill="midnightblue" stroke="midnightblue" points="797.32,-119.39 787.93,-124.29 798.33,-126.31 797.32,-119.39"/>
</g>
<!-- Node11 -->
<g id="node11" class="node">
<title>Node11</title>
<g id="a_node11"><a xlink:href="python__factory_8cpp.html" target="_top" xlink:title=" ">
<polygon fill="none" stroke="black" points="1109.5,-0.5 1109.5,-19.5 1255.5,-19.5 1255.5,-0.5 1109.5,-0.5"/>
<text text-anchor="middle" x="1182.5" y="-7.5" font-family="FreeSans.ttf" font-size="10.00">python/src/python_factory.cpp</text>
</a>
</g>
</g>
<!-- Node2&#45;&gt;Node11 -->
<g id="edge14" class="edge">
<title>Node2&#45;&gt;Node11</title>
<path fill="none" stroke="midnightblue" d="M798,-123.2C880.84,-117.32 1222.36,-122.84 1255.5,-87 1264.85,-76.88 1262.22,-68.03 1255.5,-56 1245.56,-38.19 1225.35,-26.56 1208.71,-19.59"/>
<polygon fill="midnightblue" stroke="midnightblue" points="797.54,-119.72 787.91,-124.13 798.19,-126.69 797.54,-119.72"/>
</g>
<!-- Node12 -->
<g id="node12" class="node">
<title>Node12</title>
<g id="a_node12"><a xlink:href="python__utils_8hpp.html" target="_top" xlink:title=" ">
<polygon fill="none" stroke="black" points="948.5,-62 948.5,-81 1082.5,-81 1082.5,-62 948.5,-62"/>
<text text-anchor="middle" x="1015.5" y="-69" font-family="FreeSans.ttf" font-size="10.00">python/inc/python_utils.hpp</text>
</a>
</g>
</g>
<!-- Node2&#45;&gt;Node12 -->
<g id="edge11" class="edge">
<title>Node2&#45;&gt;Node12</title>
<path fill="none" stroke="midnightblue" d="M787.23,-121.31C846.96,-108.54 927.89,-91.23 975.61,-81.03"/>
<polygon fill="midnightblue" stroke="midnightblue" points="786.14,-117.96 777.09,-123.48 787.6,-124.81 786.14,-117.96"/>
</g>
<!-- Node10 -->
<g id="node10" class="node">
<title>Node10</title>
<g id="a_node10"><a xlink:href="python__bindings_8cpp.html" target="_top" xlink:title=" ">
<polygon fill="none" stroke="black" points="939.5,-0.5 939.5,-19.5 1091.5,-19.5 1091.5,-0.5 939.5,-0.5"/>
<text text-anchor="middle" x="1015.5" y="-7.5" font-family="FreeSans.ttf" font-size="10.00">python/src/python_bindings.cpp</text>
</a>
</g>
</g>
<!-- Node9&#45;&gt;Node10 -->
<g id="edge9" class="edge">
<title>Node9&#45;&gt;Node10</title>
<path fill="none" stroke="midnightblue" d="M1141.46,-58.43C1110.75,-46.87 1065.18,-29.71 1038.1,-19.51"/>
<polygon fill="midnightblue" stroke="midnightblue" points="1140.27,-61.73 1150.86,-61.98 1142.74,-55.18 1140.27,-61.73"/>
</g>
<!-- Node9&#45;&gt;Node11 -->
<g id="edge10" class="edge">
<title>Node9&#45;&gt;Node11</title>
<path fill="none" stroke="midnightblue" d="M1176.33,-51.82C1177.96,-41 1179.94,-27.9 1181.21,-19.51"/>
<polygon fill="midnightblue" stroke="midnightblue" points="1172.82,-51.56 1174.79,-61.98 1179.75,-52.61 1172.82,-51.56"/>
</g>
<!-- Node12&#45;&gt;Node10 -->
<g id="edge12" class="edge">
<title>Node12&#45;&gt;Node10</title>
<path fill="none" stroke="midnightblue" d="M1015.5,-51.82C1015.5,-41 1015.5,-27.9 1015.5,-19.51"/>
<polygon fill="midnightblue" stroke="midnightblue" points="1012,-51.98 1015.5,-61.98 1019,-51.98 1012,-51.98"/>
</g>
<!-- Node12&#45;&gt;Node11 -->
<g id="edge13" class="edge">
<title>Node12&#45;&gt;Node11</title>
<path fill="none" stroke="midnightblue" d="M1048.95,-58.58C1081.41,-47.02 1129.87,-29.75 1158.62,-19.51"/>
<polygon fill="midnightblue" stroke="midnightblue" points="1047.67,-55.32 1039.43,-61.98 1050.02,-61.92 1047.67,-55.32"/>
</g>
</g>
</svg>
