<?xml version="1.0" encoding="UTF-8" standalone="no"?>
<!DOCTYPE svg PUBLIC "-//W3C//DTD SVG 1.1//EN"
 "http://www.w3.org/Graphics/SVG/1.1/DTD/svg11.dtd">
<!-- Generated by graphviz version 2.49.3 (20211027.1534)
 -->
<!-- Title: CUDA/src/balanced_texture_gpuNUFFT_operator.cpp Pages: 1 -->
<svg width="749pt" height="442pt"
 viewBox="0.00 0.00 748.50 442.00" xmlns="http://www.w3.org/2000/svg" xmlns:xlink="http://www.w3.org/1999/xlink">
<g id="graph0" class="graph" transform="scale(1 1) rotate(0) translate(4 438)">
<title>CUDA/src/balanced_texture_gpuNUFFT_operator.cpp</title>
<!-- Node1 -->
<g id="node1" class="node">
<title>Node1</title>
<g id="a_node1"><a xlink:title=" ">
<polygon fill="#bfbfbf" stroke="black" points="3.5,-403.5 3.5,-433.5 140.5,-433.5 140.5,-403.5 3.5,-403.5"/>
<text text-anchor="start" x="11.5" y="-421.5" font-family="FreeSans.ttf" font-size="10.00">CUDA/src/balanced_texture</text>
<text text-anchor="middle" x="72" y="-410.5" font-family="FreeSans.ttf" font-size="10.00">_gpuNUFFT_operator.cpp</text>
</a>
</g>
</g>
<!-- Node2 -->
<g id="node2" class="node">
<title>Node2</title>
<g id="a_node2"><a xlink:href="balanced__texture__gpuNUFFT__operator_8hpp.html" target="_top" xlink:title=" ">
<polygon fill="none" stroke="black" points="0,-336.5 0,-366.5 144,-366.5 144,-336.5 0,-336.5"/>
<text text-anchor="start" x="8" y="-354.5" font-family="FreeSans.ttf" font-size="10.00">balanced_texture_gpuNUFFT</text>
<text text-anchor="middle" x="72" y="-343.5" font-family="FreeSans.ttf" font-size="10.00">_operator.hpp</text>
</a>
</g>
</g>
<!-- Node1&#45;&gt;Node2 -->
<g id="edge1" class="edge">
<title>Node1&#45;&gt;Node2</title>
<path fill="none" stroke="midnightblue" d="M72,-403.4C72,-395.64 72,-385.81 72,-376.86"/>
<polygon fill="midnightblue" stroke="midnightblue" points="75.5,-376.58 72,-366.58 68.5,-376.58 75.5,-376.58"/>
</g>
<!-- Node3 -->
<g id="node3" class="node">
<title>Node3</title>
<g id="a_node3"><a xlink:href="gpuNUFFT__types_8hpp.html" target="_top" xlink:title="Definition of gpuNUFFT defined types.">
<polygon fill="none" stroke="black" points="66,-168.5 66,-187.5 178,-187.5 178,-168.5 66,-168.5"/>
<text text-anchor="middle" x="122" y="-175.5" font-family="FreeSans.ttf" font-size="10.00">gpuNUFFT_types.hpp</text>
</a>
</g>
</g>
<!-- Node2&#45;&gt;Node3 -->
<g id="edge2" class="edge">
<title>Node2&#45;&gt;Node3</title>
<path fill="none" stroke="midnightblue" d="M42.71,-336.37C20.69,-323.58 -4.09,-303.22 6,-280 23.69,-239.29 67.31,-208.87 95.73,-192.54"/>
<polygon fill="midnightblue" stroke="midnightblue" points="97.68,-195.46 104.72,-187.54 94.28,-189.34 97.68,-195.46"/>
</g>
<!-- Node7 -->
<g id="node7" class="node">
<title>Node7</title>
<g id="a_node7"><a xlink:href="texture__gpuNUFFT__operator_8hpp.html" target="_top" xlink:title=" ">
<polygon fill="none" stroke="black" points="147,-280.5 147,-299.5 305,-299.5 305,-280.5 147,-280.5"/>
<text text-anchor="middle" x="226" y="-287.5" font-family="FreeSans.ttf" font-size="10.00">texture_gpuNUFFT_operator.hpp</text>
</a>
</g>
</g>
<!-- Node2&#45;&gt;Node7 -->
<g id="edge6" class="edge">
<title>Node2&#45;&gt;Node7</title>
<path fill="none" stroke="midnightblue" d="M108.5,-336.4C134.57,-326.33 169.29,-312.91 194.22,-303.28"/>
<polygon fill="midnightblue" stroke="midnightblue" points="195.53,-306.53 203.59,-299.66 193,-300 195.53,-306.53"/>
</g>
<!-- Node24 -->
<g id="node24" class="node">
<title>Node24</title>
<g id="a_node24"><a xlink:href="balanced__operator_8hpp.html" target="_top" xlink:title=" ">
<polygon fill="none" stroke="black" points="15,-280.5 15,-299.5 129,-299.5 129,-280.5 15,-280.5"/>
<text text-anchor="middle" x="72" y="-287.5" font-family="FreeSans.ttf" font-size="10.00">balanced_operator.hpp</text>
</a>
</g>
</g>
<!-- Node2&#45;&gt;Node24 -->
<g id="edge34" class="edge">
<title>Node2&#45;&gt;Node24</title>
<path fill="none" stroke="midnightblue" d="M72,-336.4C72,-328.47 72,-318.46 72,-309.86"/>
<polygon fill="midnightblue" stroke="midnightblue" points="75.5,-309.66 72,-299.66 68.5,-309.66 75.5,-309.66"/>
</g>
<!-- Node4 -->
<g id="node4" class="node">
<title>Node4</title>
<g id="a_node4"><a xlink:title=" ">
<polygon fill="none" stroke="#bfbfbf" points="222.5,-112.5 222.5,-131.5 267.5,-131.5 267.5,-112.5 222.5,-112.5"/>
<text text-anchor="middle" x="245" y="-119.5" font-family="FreeSans.ttf" font-size="10.00">cstdlib</text>
</a>
</g>
</g>
<!-- Node3&#45;&gt;Node4 -->
<g id="edge3" class="edge">
<title>Node3&#45;&gt;Node4</title>
<path fill="none" stroke="midnightblue" d="M141.49,-168.44C161.64,-159.6 193.32,-145.69 216.33,-135.59"/>
<polygon fill="midnightblue" stroke="midnightblue" points="217.85,-138.74 225.6,-131.52 215.04,-132.33 217.85,-138.74"/>
</g>
<!-- Node5 -->
<g id="node5" class="node">
<title>Node5</title>
<g id="a_node5"><a xlink:title=" ">
<polygon fill="none" stroke="#bfbfbf" points="150,-112.5 150,-131.5 204,-131.5 204,-112.5 150,-112.5"/>
<text text-anchor="middle" x="177" y="-119.5" font-family="FreeSans.ttf" font-size="10.00">iostream</text>
</a>
</g>
</g>
<!-- Node3&#45;&gt;Node5 -->
<g id="edge4" class="edge">
<title>Node3&#45;&gt;Node5</title>
<path fill="none" stroke="midnightblue" d="M131.08,-168.08C139.17,-160.14 151.2,-148.34 160.91,-138.8"/>
<polygon fill="midnightblue" stroke="midnightblue" points="163.4,-141.25 168.09,-131.75 158.5,-136.26 163.4,-141.25"/>
</g>
<!-- Node6 -->
<g id="node6" class="node">
<title>Node6</title>
<g id="a_node6"><a xlink:title=" ">
<polygon fill="none" stroke="#bfbfbf" points="187,-0.5 187,-19.5 247,-19.5 247,-0.5 187,-0.5"/>
<text text-anchor="middle" x="217" y="-7.5" font-family="FreeSans.ttf" font-size="10.00">config.hpp</text>
</a>
</g>
</g>
<!-- Node3&#45;&gt;Node6 -->
<g id="edge5" class="edge">
<title>Node3&#45;&gt;Node6</title>
<path fill="none" stroke="midnightblue" d="M123.52,-168.22C125.98,-155.37 131.52,-130.92 141,-112 157.45,-79.19 184.84,-46.14 201.86,-27.17"/>
<polygon fill="midnightblue" stroke="midnightblue" points="204.51,-29.46 208.67,-19.72 199.34,-24.74 204.51,-29.46"/>
</g>
<!-- Node7&#45;&gt;Node3 -->
<g id="edge9" class="edge">
<title>Node7&#45;&gt;Node3</title>
<path fill="none" stroke="midnightblue" d="M228.12,-280.09C230.78,-266.64 233.7,-240.93 222,-224 210.95,-208.01 192.81,-197.62 174.99,-190.9"/>
<polygon fill="midnightblue" stroke="midnightblue" points="175.77,-187.47 165.17,-187.53 173.5,-194.09 175.77,-187.47"/>
</g>
<!-- Node8 -->
<g id="node8" class="node">
<title>Node8</title>
<g id="a_node8"><a xlink:title=" ">
<polygon fill="none" stroke="#bfbfbf" points="85,-224.5 85,-243.5 135,-243.5 135,-224.5 85,-224.5"/>
<text text-anchor="middle" x="110" y="-231.5" font-family="FreeSans.ttf" font-size="10.00">typeinfo</text>
</a>
</g>
</g>
<!-- Node7&#45;&gt;Node8 -->
<g id="edge7" class="edge">
<title>Node7&#45;&gt;Node8</title>
<path fill="none" stroke="midnightblue" d="M207.62,-280.44C188.78,-271.68 159.27,-257.94 137.62,-247.86"/>
<polygon fill="midnightblue" stroke="midnightblue" points="138.84,-244.56 128.29,-243.52 135.88,-250.91 138.84,-244.56"/>
</g>
<!-- Node9 -->
<g id="node9" class="node">
<title>Node9</title>
<g id="a_node9"><a xlink:title=" ">
<polygon fill="none" stroke="#bfbfbf" points="153.5,-224.5 153.5,-243.5 212.5,-243.5 212.5,-224.5 153.5,-224.5"/>
<text text-anchor="middle" x="183" y="-231.5" font-family="FreeSans.ttf" font-size="10.00">stdexcept</text>
</a>
</g>
</g>
<!-- Node7&#45;&gt;Node9 -->
<g id="edge8" class="edge">
<title>Node7&#45;&gt;Node9</title>
<path fill="none" stroke="midnightblue" d="M218.9,-280.08C212.76,-272.38 203.73,-261.03 196.26,-251.65"/>
<polygon fill="midnightblue" stroke="midnightblue" points="198.94,-249.39 189.97,-243.75 193.46,-253.75 198.94,-249.39"/>
</g>
<!-- Node10 -->
<g id="node10" class="node">
<title>Node10</title>
<g id="a_node10"><a xlink:href="gpuNUFFT__operator_8hpp.html" target="_top" xlink:title=" ">
<polygon fill="none" stroke="black" points="269,-224.5 269,-243.5 393,-243.5 393,-224.5 269,-224.5"/>
<text text-anchor="middle" x="331" y="-231.5" font-family="FreeSans.ttf" font-size="10.00">gpuNUFFT_operator.hpp</text>
</a>
</g>
</g>
<!-- Node7&#45;&gt;Node10 -->
<g id="edge10" class="edge">
<title>Node7&#45;&gt;Node10</title>
<path fill="none" stroke="midnightblue" d="M242.87,-280.32C259.71,-271.66 285.81,-258.24 305.24,-248.25"/>
<polygon fill="midnightblue" stroke="midnightblue" points="306.88,-251.34 314.17,-243.65 303.68,-245.12 306.88,-251.34"/>
</g>
<!-- Node10&#45;&gt;Node3 -->
<g id="edge11" class="edge">
<title>Node10&#45;&gt;Node3</title>
<path fill="none" stroke="midnightblue" d="M297.88,-224.44C261.88,-215.14 204.23,-200.25 164.81,-190.06"/>
<polygon fill="midnightblue" stroke="midnightblue" points="165.52,-186.63 154.96,-187.52 163.77,-193.41 165.52,-186.63"/>
</g>
<!-- Node10&#45;&gt;Node4 -->
<g id="edge31" class="edge">
<title>Node10&#45;&gt;Node4</title>
<path fill="none" stroke="midnightblue" d="M311.21,-224.36C296.18,-216.82 276.08,-204.51 264,-188 254.13,-174.51 249.36,-155.95 247.07,-142.12"/>
<polygon fill="midnightblue" stroke="midnightblue" points="250.49,-141.26 245.68,-131.83 243.55,-142.21 250.49,-141.26"/>
</g>
<!-- Node10&#45;&gt;Node5 -->
<g id="edge32" class="edge">
<title>Node10&#45;&gt;Node5</title>
<path fill="none" stroke="midnightblue" d="M312.69,-224.49C295.58,-216.18 269.65,-202.68 249,-188 228.12,-173.15 206.63,-153 192.63,-139.08"/>
<polygon fill="midnightblue" stroke="midnightblue" points="194.83,-136.34 185.31,-131.7 189.86,-141.27 194.83,-136.34"/>
</g>
<!-- Node10&#45;&gt;Node6 -->
<g id="edge30" class="edge">
<title>Node10&#45;&gt;Node6</title>
<path fill="none" stroke="midnightblue" d="M334.9,-224.35C340.06,-211.66 347.74,-187.41 341,-168 319.84,-107.08 264.15,-51.94 235.14,-26.24"/>
<polygon fill="midnightblue" stroke="midnightblue" points="237.24,-23.43 227.39,-19.52 232.65,-28.71 237.24,-23.43"/>
</g>
<!-- Node11 -->
<g id="node11" class="node">
<title>Node11</title>
<g id="a_node11"><a xlink:href="gpuNUFFT__kernels_8hpp.html" target="_top" xlink:title="gpuNUFFT CUDA function prototypes">
<polygon fill="none" stroke="black" points="388,-168.5 388,-187.5 508,-187.5 508,-168.5 388,-168.5"/>
<text text-anchor="middle" x="448" y="-175.5" font-family="FreeSans.ttf" font-size="10.00">gpuNUFFT_kernels.hpp</text>
</a>
</g>
</g>
<!-- Node10&#45;&gt;Node11 -->
<g id="edge12" class="edge">
<title>Node10&#45;&gt;Node11</title>
<path fill="none" stroke="midnightblue" d="M349.54,-224.44C368.62,-215.64 398.57,-201.81 420.44,-191.72"/>
<polygon fill="midnightblue" stroke="midnightblue" points="421.93,-194.88 429.55,-187.52 419,-188.53 421.93,-194.88"/>
</g>
<!-- Node23 -->
<g id="node23" class="node">
<title>Node23</title>
<g id="a_node23"><a xlink:title=" ">
<polygon fill="none" stroke="#bfbfbf" points="272.5,-168.5 272.5,-187.5 331.5,-187.5 331.5,-168.5 272.5,-168.5"/>
<text text-anchor="middle" x="302" y="-175.5" font-family="FreeSans.ttf" font-size="10.00">functional</text>
</a>
</g>
</g>
<!-- Node10&#45;&gt;Node23 -->
<g id="edge33" class="edge">
<title>Node10&#45;&gt;Node23</title>
<path fill="none" stroke="midnightblue" d="M326.21,-224.08C322.24,-216.69 316.47,-205.95 311.57,-196.81"/>
<polygon fill="midnightblue" stroke="midnightblue" points="314.51,-194.91 306.7,-187.75 308.35,-198.22 314.51,-194.91"/>
</g>
<!-- Node12 -->
<g id="node12" class="node">
<title>Node12</title>
<g id="a_node12"><a xlink:href="cuda__utils_8hpp.html" target="_top" xlink:title="Util functions for CUDA memory and texture management.">
<polygon fill="none" stroke="black" points="526.5,-112.5 526.5,-131.5 605.5,-131.5 605.5,-112.5 526.5,-112.5"/>
<text text-anchor="middle" x="566" y="-119.5" font-family="FreeSans.ttf" font-size="10.00">cuda_utils.hpp</text>
</a>
</g>
</g>
<!-- Node11&#45;&gt;Node12 -->
<g id="edge13" class="edge">
<title>Node11&#45;&gt;Node12</title>
<path fill="none" stroke="midnightblue" d="M466.7,-168.44C485.94,-159.64 516.15,-145.81 538.2,-135.72"/>
<polygon fill="midnightblue" stroke="midnightblue" points="539.75,-138.86 547.39,-131.52 536.84,-132.5 539.75,-138.86"/>
</g>
<!-- Node17 -->
<g id="node17" class="node">
<title>Node17</title>
<g id="a_node17"><a xlink:href="gpuNUFFT__utils_8hpp.html" target="_top" xlink:title="Definition of util functions used in gridding operations.">
<polygon fill="none" stroke="black" points="388.5,-56.5 388.5,-75.5 495.5,-75.5 495.5,-56.5 388.5,-56.5"/>
<text text-anchor="middle" x="442" y="-63.5" font-family="FreeSans.ttf" font-size="10.00">gpuNUFFT_utils.hpp</text>
</a>
</g>
</g>
<!-- Node11&#45;&gt;Node17 -->
<g id="edge29" class="edge">
<title>Node11&#45;&gt;Node17</title>
<path fill="none" stroke="midnightblue" d="M447.53,-168.37C446.56,-150.62 444.33,-109.67 443.01,-85.6"/>
<polygon fill="midnightblue" stroke="midnightblue" points="446.51,-85.39 442.47,-75.59 439.52,-85.77 446.51,-85.39"/>
</g>
<!-- Node12&#45;&gt;Node10 -->
<g id="edge27" class="edge">
<title>Node12&#45;&gt;Node10</title>
<path fill="none" stroke="midnightblue" d="M561.94,-131.69C554.88,-145.8 538.97,-173.57 517,-188 483.37,-210.09 439.93,-221.35 403.49,-227.08"/>
<polygon fill="midnightblue" stroke="midnightblue" points="402.8,-223.65 393.41,-228.56 403.81,-230.57 402.8,-223.65"/>
</g>
<!-- Node13 -->
<g id="node13" class="node">
<title>Node13</title>
<g id="a_node13"><a xlink:title=" ">
<polygon fill="none" stroke="#bfbfbf" points="526.5,-0.5 526.5,-19.5 571.5,-19.5 571.5,-0.5 526.5,-0.5"/>
<text text-anchor="middle" x="549" y="-7.5" font-family="FreeSans.ttf" font-size="10.00">cuda.h</text>
</a>
</g>
</g>
<!-- Node12&#45;&gt;Node13 -->
<g id="edge14" class="edge">
<title>Node12&#45;&gt;Node13</title>
<path fill="none" stroke="midnightblue" d="M569.05,-112.45C573.09,-99.9 579.13,-75.81 574,-56 571.45,-46.18 566.25,-36.21 561.24,-28.17"/>
<polygon fill="midnightblue" stroke="midnightblue" points="564.08,-26.11 555.63,-19.73 558.25,-29.99 564.08,-26.11"/>
</g>
<!-- Node14 -->
<g id="node14" class="node">
<title>Node14</title>
<g id="a_node14"><a xlink:title=" ">
<polygon fill="none" stroke="#bfbfbf" points="589.5,-0.5 589.5,-19.5 672.5,-19.5 672.5,-0.5 589.5,-0.5"/>
<text text-anchor="middle" x="631" y="-7.5" font-family="FreeSans.ttf" font-size="10.00">cuda_runtime.h</text>
</a>
</g>
</g>
<!-- Node12&#45;&gt;Node14 -->
<g id="edge15" class="edge">
<title>Node12&#45;&gt;Node14</title>
<path fill="none" stroke="midnightblue" d="M571.1,-112.37C581.78,-94.3 606.67,-52.18 620.77,-28.31"/>
<polygon fill="midnightblue" stroke="midnightblue" points="623.85,-29.98 625.92,-19.59 617.82,-26.42 623.85,-29.98"/>
</g>
<!-- Node15 -->
<g id="node15" class="node">
<title>Node15</title>
<g id="a_node15"><a xlink:title=" ">
<polygon fill="none" stroke="#bfbfbf" points="690.5,-0.5 690.5,-19.5 735.5,-19.5 735.5,-0.5 690.5,-0.5"/>
<text text-anchor="middle" x="713" y="-7.5" font-family="FreeSans.ttf" font-size="10.00">stdio.h</text>
</a>
</g>
</g>
<!-- Node12&#45;&gt;Node15 -->
<g id="edge16" class="edge">
<title>Node12&#45;&gt;Node15</title>
<path fill="none" stroke="midnightblue" d="M577.53,-112.37C602.55,-93.65 662.02,-49.15 693.18,-25.83"/>
<polygon fill="midnightblue" stroke="midnightblue" points="695.61,-28.39 701.52,-19.59 691.42,-22.78 695.61,-28.39"/>
</g>
<!-- Node16 -->
<g id="node16" class="node">
<title>Node16</title>
<g id="a_node16"><a xlink:title=" ">
<polygon fill="none" stroke="#bfbfbf" points="697.5,-56.5 697.5,-75.5 740.5,-75.5 740.5,-56.5 697.5,-56.5"/>
<text text-anchor="middle" x="719" y="-63.5" font-family="FreeSans.ttf" font-size="10.00">cufft.h</text>
</a>
</g>
</g>
<!-- Node12&#45;&gt;Node16 -->
<g id="edge17" class="edge">
<title>Node12&#45;&gt;Node16</title>
<path fill="none" stroke="midnightblue" d="M590.24,-112.44C616.62,-103.13 658.89,-88.22 687.74,-78.03"/>
<polygon fill="midnightblue" stroke="midnightblue" points="689.08,-81.27 697.34,-74.64 686.75,-74.67 689.08,-81.27"/>
</g>
<!-- Node12&#45;&gt;Node17 -->
<g id="edge18" class="edge">
<title>Node12&#45;&gt;Node17</title>
<path fill="none" stroke="midnightblue" d="M546.35,-112.44C526.04,-103.6 494.1,-89.69 470.9,-79.59"/>
<polygon fill="midnightblue" stroke="midnightblue" points="472.12,-76.3 461.56,-75.52 469.33,-82.72 472.12,-76.3"/>
</g>
<!-- Node22 -->
<g id="node22" class="node">
<title>Node22</title>
<g id="a_node22"><a xlink:title=" ">
<polygon fill="none" stroke="#bfbfbf" points="513.5,-56.5 513.5,-75.5 564.5,-75.5 564.5,-56.5 513.5,-56.5"/>
<text text-anchor="middle" x="539" y="-63.5" font-family="FreeSans.ttf" font-size="10.00">stdarg.h</text>
</a>
</g>
</g>
<!-- Node12&#45;&gt;Node22 -->
<g id="edge28" class="edge">
<title>Node12&#45;&gt;Node22</title>
<path fill="none" stroke="midnightblue" d="M561.54,-112.08C557.85,-104.69 552.48,-93.95 547.91,-84.81"/>
<polygon fill="midnightblue" stroke="midnightblue" points="550.98,-83.13 543.38,-75.75 544.72,-86.26 550.98,-83.13"/>
</g>
<!-- Node17&#45;&gt;Node6 -->
<g id="edge23" class="edge">
<title>Node17&#45;&gt;Node6</title>
<path fill="none" stroke="midnightblue" d="M406.35,-56.44C365.71,-46.69 299.44,-30.79 257.05,-20.61"/>
<polygon fill="midnightblue" stroke="midnightblue" points="257.63,-17.15 247.08,-18.22 255.99,-23.96 257.63,-17.15"/>
</g>
<!-- Node17&#45;&gt;Node13 -->
<g id="edge21" class="edge">
<title>Node17&#45;&gt;Node13</title>
<path fill="none" stroke="midnightblue" d="M459.19,-56.32C476.35,-47.66 502.95,-34.24 522.75,-24.25"/>
<polygon fill="midnightblue" stroke="midnightblue" points="524.5,-27.28 531.85,-19.65 521.35,-21.04 524.5,-27.28"/>
</g>
<!-- Node17&#45;&gt;Node14 -->
<g id="edge22" class="edge">
<title>Node17&#45;&gt;Node14</title>
<path fill="none" stroke="midnightblue" d="M471.95,-56.44C504.16,-47.24 555.53,-32.56 591.14,-22.39"/>
<polygon fill="midnightblue" stroke="midnightblue" points="592.54,-25.63 601.19,-19.52 590.62,-18.9 592.54,-25.63"/>
</g>
<!-- Node17&#45;&gt;Node15 -->
<g id="edge20" class="edge">
<title>Node17&#45;&gt;Node15</title>
<path fill="none" stroke="midnightblue" d="M495.69,-56.47C542.25,-48.73 611.62,-36.36 680.26,-20.25"/>
<polygon fill="midnightblue" stroke="midnightblue" points="681.46,-23.56 690.38,-17.84 679.84,-16.75 681.46,-23.56"/>
</g>
<!-- Node18 -->
<g id="node18" class="node">
<title>Node18</title>
<g id="a_node18"><a xlink:title=" ">
<polygon fill="none" stroke="#bfbfbf" points="398.5,-0.5 398.5,-19.5 445.5,-19.5 445.5,-0.5 398.5,-0.5"/>
<text text-anchor="middle" x="422" y="-7.5" font-family="FreeSans.ttf" font-size="10.00">stdlib.h</text>
</a>
</g>
</g>
<!-- Node17&#45;&gt;Node18 -->
<g id="edge19" class="edge">
<title>Node17&#45;&gt;Node18</title>
<path fill="none" stroke="midnightblue" d="M438.7,-56.08C436.02,-48.85 432.15,-38.41 428.81,-29.4"/>
<polygon fill="midnightblue" stroke="midnightblue" points="432,-27.91 425.24,-19.75 425.43,-30.34 432,-27.91"/>
</g>
<!-- Node19 -->
<g id="node19" class="node">
<title>Node19</title>
<g id="a_node19"><a xlink:title=" ">
<polygon fill="none" stroke="#bfbfbf" points="464,-0.5 464,-19.5 508,-19.5 508,-0.5 464,-0.5"/>
<text text-anchor="middle" x="486" y="-7.5" font-family="FreeSans.ttf" font-size="10.00">cmath</text>
</a>
</g>
</g>
<!-- Node17&#45;&gt;Node19 -->
<g id="edge24" class="edge">
<title>Node17&#45;&gt;Node19</title>
<path fill="none" stroke="midnightblue" d="M449.27,-56.08C455.54,-48.38 464.79,-37.03 472.43,-27.65"/>
<polygon fill="midnightblue" stroke="midnightblue" points="475.27,-29.71 478.87,-19.75 469.84,-25.29 475.27,-29.71"/>
</g>
<!-- Node20 -->
<g id="node20" class="node">
<title>Node20</title>
<g id="a_node20"><a xlink:title=" ">
<polygon fill="none" stroke="#bfbfbf" points="265,-0.5 265,-19.5 311,-19.5 311,-0.5 265,-0.5"/>
<text text-anchor="middle" x="288" y="-7.5" font-family="FreeSans.ttf" font-size="10.00">math.h</text>
</a>
</g>
</g>
<!-- Node17&#45;&gt;Node20 -->
<g id="edge25" class="edge">
<title>Node17&#45;&gt;Node20</title>
<path fill="none" stroke="midnightblue" d="M417.6,-56.44C391.5,-47.29 349.96,-32.73 320.97,-22.56"/>
<polygon fill="midnightblue" stroke="midnightblue" points="321.87,-19.17 311.28,-19.16 319.56,-25.77 321.87,-19.17"/>
</g>
<!-- Node21 -->
<g id="node21" class="node">
<title>Node21</title>
<g id="a_node21"><a xlink:title=" ">
<polygon fill="none" stroke="#bfbfbf" points="329.5,-0.5 329.5,-19.5 380.5,-19.5 380.5,-0.5 329.5,-0.5"/>
<text text-anchor="middle" x="355" y="-7.5" font-family="FreeSans.ttf" font-size="10.00">assert.h</text>
</a>
</g>
</g>
<!-- Node17&#45;&gt;Node21 -->
<g id="edge26" class="edge">
<title>Node17&#45;&gt;Node21</title>
<path fill="none" stroke="midnightblue" d="M428.02,-56.32C414.45,-47.9 393.62,-34.97 377.68,-25.07"/>
<polygon fill="midnightblue" stroke="midnightblue" points="379.29,-21.95 368.94,-19.65 375.59,-27.9 379.29,-21.95"/>
</g>
<!-- Node24&#45;&gt;Node3 -->
<g id="edge35" class="edge">
<title>Node24&#45;&gt;Node3</title>
<path fill="none" stroke="midnightblue" d="M70.61,-280.11C69,-267.12 67.54,-242.51 76,-224 81.46,-212.06 91.61,-201.59 100.99,-193.77"/>
<polygon fill="midnightblue" stroke="midnightblue" points="103.16,-196.51 108.89,-187.6 98.85,-190.99 103.16,-196.51"/>
</g>
</g>
</svg>
