<?xml version="1.0" encoding="UTF-8" standalone="no"?>
<!DOCTYPE svg PUBLIC "-//W3C//DTD SVG 1.1//EN"
 "http://www.w3.org/Graphics/SVG/1.1/DTD/svg11.dtd">
<!-- Generated by graphviz version 2.49.3 (20211027.1534)
 -->
<!-- Title: CUDA/src/balanced_gpuNUFFT_operator.cpp Pages: 1 -->
<svg width="684pt" height="375pt"
 viewBox="0.00 0.00 683.50 375.00" xmlns="http://www.w3.org/2000/svg" xmlns:xlink="http://www.w3.org/1999/xlink">
<g id="graph0" class="graph" transform="scale(1 1) rotate(0) translate(4 371)">
<title>CUDA/src/balanced_gpuNUFFT_operator.cpp</title>
<!-- Node1 -->
<g id="node1" class="node">
<title>Node1</title>
<g id="a_node1"><a xlink:title=" ">
<polygon fill="#bfbfbf" stroke="black" points="63.5,-336.5 63.5,-366.5 220.5,-366.5 220.5,-336.5 63.5,-336.5"/>
<text text-anchor="start" x="71.5" y="-354.5" font-family="FreeSans.ttf" font-size="10.00">CUDA/src/balanced_gpuNUFFT</text>
<text text-anchor="middle" x="142" y="-343.5" font-family="FreeSans.ttf" font-size="10.00">_operator.cpp</text>
</a>
</g>
</g>
<!-- Node2 -->
<g id="node2" class="node">
<title>Node2</title>
<g id="a_node2"><a xlink:href="balanced__gpuNUFFT__operator_8hpp.html" target="_top" xlink:title=" ">
<polygon fill="none" stroke="black" points="58,-280.5 58,-299.5 226,-299.5 226,-280.5 58,-280.5"/>
<text text-anchor="middle" x="142" y="-287.5" font-family="FreeSans.ttf" font-size="10.00">balanced_gpuNUFFT_operator.hpp</text>
</a>
</g>
</g>
<!-- Node1&#45;&gt;Node2 -->
<g id="edge1" class="edge">
<title>Node1&#45;&gt;Node2</title>
<path fill="none" stroke="midnightblue" d="M142,-336.4C142,-328.47 142,-318.46 142,-309.86"/>
<polygon fill="midnightblue" stroke="midnightblue" points="145.5,-309.66 142,-299.66 138.5,-309.66 145.5,-309.66"/>
</g>
<!-- Node3 -->
<g id="node3" class="node">
<title>Node3</title>
<g id="a_node3"><a xlink:href="gpuNUFFT__types_8hpp.html" target="_top" xlink:title="Definition of gpuNUFFT defined types.">
<polygon fill="none" stroke="black" points="1,-168.5 1,-187.5 113,-187.5 113,-168.5 1,-168.5"/>
<text text-anchor="middle" x="57" y="-175.5" font-family="FreeSans.ttf" font-size="10.00">gpuNUFFT_types.hpp</text>
</a>
</g>
</g>
<!-- Node2&#45;&gt;Node3 -->
<g id="edge2" class="edge">
<title>Node2&#45;&gt;Node3</title>
<path fill="none" stroke="midnightblue" d="M141.31,-280.19C139.88,-266.86 135.58,-241.31 123,-224 113.26,-210.6 98.25,-199.91 84.99,-192.31"/>
<polygon fill="midnightblue" stroke="midnightblue" points="86.65,-189.23 76.19,-187.56 83.32,-195.39 86.65,-189.23"/>
</g>
<!-- Node7 -->
<g id="node7" class="node">
<title>Node7</title>
<g id="a_node7"><a xlink:href="gpuNUFFT__operator_8hpp.html" target="_top" xlink:title=" ">
<polygon fill="none" stroke="black" points="172,-224.5 172,-243.5 296,-243.5 296,-224.5 172,-224.5"/>
<text text-anchor="middle" x="234" y="-231.5" font-family="FreeSans.ttf" font-size="10.00">gpuNUFFT_operator.hpp</text>
</a>
</g>
</g>
<!-- Node2&#45;&gt;Node7 -->
<g id="edge6" class="edge">
<title>Node2&#45;&gt;Node7</title>
<path fill="none" stroke="midnightblue" d="M156.78,-280.32C171.27,-271.82 193.57,-258.73 210.49,-248.8"/>
<polygon fill="midnightblue" stroke="midnightblue" points="212.4,-251.74 219.26,-243.65 208.86,-245.7 212.4,-251.74"/>
</g>
<!-- Node21 -->
<g id="node21" class="node">
<title>Node21</title>
<g id="a_node21"><a xlink:href="balanced__operator_8hpp.html" target="_top" xlink:title=" ">
<polygon fill="none" stroke="black" points="0,-224.5 0,-243.5 114,-243.5 114,-224.5 0,-224.5"/>
<text text-anchor="middle" x="57" y="-231.5" font-family="FreeSans.ttf" font-size="10.00">balanced_operator.hpp</text>
</a>
</g>
</g>
<!-- Node2&#45;&gt;Node21 -->
<g id="edge30" class="edge">
<title>Node2&#45;&gt;Node21</title>
<path fill="none" stroke="midnightblue" d="M128.34,-280.32C115.08,-271.9 94.73,-258.97 79.15,-249.07"/>
<polygon fill="midnightblue" stroke="midnightblue" points="80.94,-246.06 70.62,-243.65 77.19,-251.97 80.94,-246.06"/>
</g>
<!-- Node4 -->
<g id="node4" class="node">
<title>Node4</title>
<g id="a_node4"><a xlink:title=" ">
<polygon fill="none" stroke="#bfbfbf" points="157.5,-112.5 157.5,-131.5 202.5,-131.5 202.5,-112.5 157.5,-112.5"/>
<text text-anchor="middle" x="180" y="-119.5" font-family="FreeSans.ttf" font-size="10.00">cstdlib</text>
</a>
</g>
</g>
<!-- Node3&#45;&gt;Node4 -->
<g id="edge3" class="edge">
<title>Node3&#45;&gt;Node4</title>
<path fill="none" stroke="midnightblue" d="M76.49,-168.44C96.64,-159.6 128.32,-145.69 151.33,-135.59"/>
<polygon fill="midnightblue" stroke="midnightblue" points="152.85,-138.74 160.6,-131.52 150.04,-132.33 152.85,-138.74"/>
</g>
<!-- Node5 -->
<g id="node5" class="node">
<title>Node5</title>
<g id="a_node5"><a xlink:title=" ">
<polygon fill="none" stroke="#bfbfbf" points="85,-112.5 85,-131.5 139,-131.5 139,-112.5 85,-112.5"/>
<text text-anchor="middle" x="112" y="-119.5" font-family="FreeSans.ttf" font-size="10.00">iostream</text>
</a>
</g>
</g>
<!-- Node3&#45;&gt;Node5 -->
<g id="edge4" class="edge">
<title>Node3&#45;&gt;Node5</title>
<path fill="none" stroke="midnightblue" d="M66.08,-168.08C74.17,-160.14 86.2,-148.34 95.91,-138.8"/>
<polygon fill="midnightblue" stroke="midnightblue" points="98.4,-141.25 103.09,-131.75 93.5,-136.26 98.4,-141.25"/>
</g>
<!-- Node6 -->
<g id="node6" class="node">
<title>Node6</title>
<g id="a_node6"><a xlink:title=" ">
<polygon fill="none" stroke="#bfbfbf" points="122,-0.5 122,-19.5 182,-19.5 182,-0.5 122,-0.5"/>
<text text-anchor="middle" x="152" y="-7.5" font-family="FreeSans.ttf" font-size="10.00">config.hpp</text>
</a>
</g>
</g>
<!-- Node3&#45;&gt;Node6 -->
<g id="edge5" class="edge">
<title>Node3&#45;&gt;Node6</title>
<path fill="none" stroke="midnightblue" d="M58.52,-168.22C60.98,-155.37 66.52,-130.92 76,-112 92.45,-79.19 119.84,-46.14 136.86,-27.17"/>
<polygon fill="midnightblue" stroke="midnightblue" points="139.51,-29.46 143.67,-19.72 134.34,-24.74 139.51,-29.46"/>
</g>
<!-- Node7&#45;&gt;Node3 -->
<g id="edge7" class="edge">
<title>Node7&#45;&gt;Node3</title>
<path fill="none" stroke="midnightblue" d="M205.95,-224.44C175.92,-215.28 128.09,-200.69 94.76,-190.52"/>
<polygon fill="midnightblue" stroke="midnightblue" points="95.5,-187.09 84.91,-187.52 93.46,-193.78 95.5,-187.09"/>
</g>
<!-- Node7&#45;&gt;Node4 -->
<g id="edge27" class="edge">
<title>Node7&#45;&gt;Node4</title>
<path fill="none" stroke="midnightblue" d="M225.37,-224.45C217.22,-215.92 205.19,-202.08 198,-188 190.51,-173.34 185.81,-155.17 183.11,-141.77"/>
<polygon fill="midnightblue" stroke="midnightblue" points="186.53,-141.03 181.28,-131.82 179.64,-142.29 186.53,-141.03"/>
</g>
<!-- Node7&#45;&gt;Node5 -->
<g id="edge28" class="edge">
<title>Node7&#45;&gt;Node5</title>
<path fill="none" stroke="midnightblue" d="M224.43,-224.37C203.85,-205.81 155.16,-161.91 129.12,-138.44"/>
<polygon fill="midnightblue" stroke="midnightblue" points="131.3,-135.69 121.53,-131.59 126.61,-140.89 131.3,-135.69"/>
</g>
<!-- Node7&#45;&gt;Node6 -->
<g id="edge26" class="edge">
<title>Node7&#45;&gt;Node6</title>
<path fill="none" stroke="midnightblue" d="M245.54,-224.49C255.48,-216.38 269.12,-203.18 275,-188 278.21,-179.71 277.9,-176.4 275,-168 254.03,-107.23 198.78,-52.02 170,-26.28"/>
<polygon fill="midnightblue" stroke="midnightblue" points="172.14,-23.5 162.31,-19.54 167.52,-28.76 172.14,-23.5"/>
</g>
<!-- Node8 -->
<g id="node8" class="node">
<title>Node8</title>
<g id="a_node8"><a xlink:href="gpuNUFFT__kernels_8hpp.html" target="_top" xlink:title="gpuNUFFT CUDA function prototypes">
<polygon fill="none" stroke="black" points="323,-168.5 323,-187.5 443,-187.5 443,-168.5 323,-168.5"/>
<text text-anchor="middle" x="383" y="-175.5" font-family="FreeSans.ttf" font-size="10.00">gpuNUFFT_kernels.hpp</text>
</a>
</g>
</g>
<!-- Node7&#45;&gt;Node8 -->
<g id="edge8" class="edge">
<title>Node7&#45;&gt;Node8</title>
<path fill="none" stroke="midnightblue" d="M257.61,-224.44C282.46,-215.44 321.77,-201.19 349.75,-191.05"/>
<polygon fill="midnightblue" stroke="midnightblue" points="351.29,-194.21 359.5,-187.52 348.91,-187.63 351.29,-194.21"/>
</g>
<!-- Node20 -->
<g id="node20" class="node">
<title>Node20</title>
<g id="a_node20"><a xlink:title=" ">
<polygon fill="none" stroke="#bfbfbf" points="207.5,-168.5 207.5,-187.5 266.5,-187.5 266.5,-168.5 207.5,-168.5"/>
<text text-anchor="middle" x="237" y="-175.5" font-family="FreeSans.ttf" font-size="10.00">functional</text>
</a>
</g>
</g>
<!-- Node7&#45;&gt;Node20 -->
<g id="edge29" class="edge">
<title>Node7&#45;&gt;Node20</title>
<path fill="none" stroke="midnightblue" d="M234.5,-224.08C234.89,-217.01 235.45,-206.86 235.95,-197.99"/>
<polygon fill="midnightblue" stroke="midnightblue" points="239.45,-197.93 236.51,-187.75 232.46,-197.54 239.45,-197.93"/>
</g>
<!-- Node9 -->
<g id="node9" class="node">
<title>Node9</title>
<g id="a_node9"><a xlink:href="cuda__utils_8hpp.html" target="_top" xlink:title="Util functions for CUDA memory and texture management.">
<polygon fill="none" stroke="black" points="461.5,-112.5 461.5,-131.5 540.5,-131.5 540.5,-112.5 461.5,-112.5"/>
<text text-anchor="middle" x="501" y="-119.5" font-family="FreeSans.ttf" font-size="10.00">cuda_utils.hpp</text>
</a>
</g>
</g>
<!-- Node8&#45;&gt;Node9 -->
<g id="edge9" class="edge">
<title>Node8&#45;&gt;Node9</title>
<path fill="none" stroke="midnightblue" d="M401.7,-168.44C420.94,-159.64 451.15,-145.81 473.2,-135.72"/>
<polygon fill="midnightblue" stroke="midnightblue" points="474.75,-138.86 482.39,-131.52 471.84,-132.5 474.75,-138.86"/>
</g>
<!-- Node14 -->
<g id="node14" class="node">
<title>Node14</title>
<g id="a_node14"><a xlink:href="gpuNUFFT__utils_8hpp.html" target="_top" xlink:title="Definition of util functions used in gridding operations.">
<polygon fill="none" stroke="black" points="323.5,-56.5 323.5,-75.5 430.5,-75.5 430.5,-56.5 323.5,-56.5"/>
<text text-anchor="middle" x="377" y="-63.5" font-family="FreeSans.ttf" font-size="10.00">gpuNUFFT_utils.hpp</text>
</a>
</g>
</g>
<!-- Node8&#45;&gt;Node14 -->
<g id="edge25" class="edge">
<title>Node8&#45;&gt;Node14</title>
<path fill="none" stroke="midnightblue" d="M382.53,-168.37C381.56,-150.62 379.33,-109.67 378.01,-85.6"/>
<polygon fill="midnightblue" stroke="midnightblue" points="381.51,-85.39 377.47,-75.59 374.52,-85.77 381.51,-85.39"/>
</g>
<!-- Node9&#45;&gt;Node7 -->
<g id="edge23" class="edge">
<title>Node9&#45;&gt;Node7</title>
<path fill="none" stroke="midnightblue" d="M496.99,-131.77C490.01,-146 474.21,-173.94 452,-188 408.43,-215.57 351.07,-226.63 306.12,-230.89"/>
<polygon fill="midnightblue" stroke="midnightblue" points="305.81,-227.41 296.15,-231.75 306.41,-234.38 305.81,-227.41"/>
</g>
<!-- Node10 -->
<g id="node10" class="node">
<title>Node10</title>
<g id="a_node10"><a xlink:title=" ">
<polygon fill="none" stroke="#bfbfbf" points="461.5,-0.5 461.5,-19.5 506.5,-19.5 506.5,-0.5 461.5,-0.5"/>
<text text-anchor="middle" x="484" y="-7.5" font-family="FreeSans.ttf" font-size="10.00">cuda.h</text>
</a>
</g>
</g>
<!-- Node9&#45;&gt;Node10 -->
<g id="edge10" class="edge">
<title>Node9&#45;&gt;Node10</title>
<path fill="none" stroke="midnightblue" d="M504.05,-112.45C508.09,-99.9 514.13,-75.81 509,-56 506.45,-46.18 501.25,-36.21 496.24,-28.17"/>
<polygon fill="midnightblue" stroke="midnightblue" points="499.08,-26.11 490.63,-19.73 493.25,-29.99 499.08,-26.11"/>
</g>
<!-- Node11 -->
<g id="node11" class="node">
<title>Node11</title>
<g id="a_node11"><a xlink:title=" ">
<polygon fill="none" stroke="#bfbfbf" points="524.5,-0.5 524.5,-19.5 607.5,-19.5 607.5,-0.5 524.5,-0.5"/>
<text text-anchor="middle" x="566" y="-7.5" font-family="FreeSans.ttf" font-size="10.00">cuda_runtime.h</text>
</a>
</g>
</g>
<!-- Node9&#45;&gt;Node11 -->
<g id="edge11" class="edge">
<title>Node9&#45;&gt;Node11</title>
<path fill="none" stroke="midnightblue" d="M506.1,-112.37C516.78,-94.3 541.67,-52.18 555.77,-28.31"/>
<polygon fill="midnightblue" stroke="midnightblue" points="558.85,-29.98 560.92,-19.59 552.82,-26.42 558.85,-29.98"/>
</g>
<!-- Node12 -->
<g id="node12" class="node">
<title>Node12</title>
<g id="a_node12"><a xlink:title=" ">
<polygon fill="none" stroke="#bfbfbf" points="625.5,-0.5 625.5,-19.5 670.5,-19.5 670.5,-0.5 625.5,-0.5"/>
<text text-anchor="middle" x="648" y="-7.5" font-family="FreeSans.ttf" font-size="10.00">stdio.h</text>
</a>
</g>
</g>
<!-- Node9&#45;&gt;Node12 -->
<g id="edge12" class="edge">
<title>Node9&#45;&gt;Node12</title>
<path fill="none" stroke="midnightblue" d="M512.53,-112.37C537.55,-93.65 597.02,-49.15 628.18,-25.83"/>
<polygon fill="midnightblue" stroke="midnightblue" points="630.61,-28.39 636.52,-19.59 626.42,-22.78 630.61,-28.39"/>
</g>
<!-- Node13 -->
<g id="node13" class="node">
<title>Node13</title>
<g id="a_node13"><a xlink:title=" ">
<polygon fill="none" stroke="#bfbfbf" points="632.5,-56.5 632.5,-75.5 675.5,-75.5 675.5,-56.5 632.5,-56.5"/>
<text text-anchor="middle" x="654" y="-63.5" font-family="FreeSans.ttf" font-size="10.00">cufft.h</text>
</a>
</g>
</g>
<!-- Node9&#45;&gt;Node13 -->
<g id="edge13" class="edge">
<title>Node9&#45;&gt;Node13</title>
<path fill="none" stroke="midnightblue" d="M525.24,-112.44C551.62,-103.13 593.89,-88.22 622.74,-78.03"/>
<polygon fill="midnightblue" stroke="midnightblue" points="624.08,-81.27 632.34,-74.64 621.75,-74.67 624.08,-81.27"/>
</g>
<!-- Node9&#45;&gt;Node14 -->
<g id="edge14" class="edge">
<title>Node9&#45;&gt;Node14</title>
<path fill="none" stroke="midnightblue" d="M481.35,-112.44C461.04,-103.6 429.1,-89.69 405.9,-79.59"/>
<polygon fill="midnightblue" stroke="midnightblue" points="407.12,-76.3 396.56,-75.52 404.33,-82.72 407.12,-76.3"/>
</g>
<!-- Node19 -->
<g id="node19" class="node">
<title>Node19</title>
<g id="a_node19"><a xlink:title=" ">
<polygon fill="none" stroke="#bfbfbf" points="448.5,-56.5 448.5,-75.5 499.5,-75.5 499.5,-56.5 448.5,-56.5"/>
<text text-anchor="middle" x="474" y="-63.5" font-family="FreeSans.ttf" font-size="10.00">stdarg.h</text>
</a>
</g>
</g>
<!-- Node9&#45;&gt;Node19 -->
<g id="edge24" class="edge">
<title>Node9&#45;&gt;Node19</title>
<path fill="none" stroke="midnightblue" d="M496.54,-112.08C492.85,-104.69 487.48,-93.95 482.91,-84.81"/>
<polygon fill="midnightblue" stroke="midnightblue" points="485.98,-83.13 478.38,-75.75 479.72,-86.26 485.98,-83.13"/>
</g>
<!-- Node14&#45;&gt;Node6 -->
<g id="edge19" class="edge">
<title>Node14&#45;&gt;Node6</title>
<path fill="none" stroke="midnightblue" d="M341.35,-56.44C300.71,-46.69 234.44,-30.79 192.05,-20.61"/>
<polygon fill="midnightblue" stroke="midnightblue" points="192.63,-17.15 182.08,-18.22 190.99,-23.96 192.63,-17.15"/>
</g>
<!-- Node14&#45;&gt;Node10 -->
<g id="edge17" class="edge">
<title>Node14&#45;&gt;Node10</title>
<path fill="none" stroke="midnightblue" d="M394.19,-56.32C411.35,-47.66 437.95,-34.24 457.75,-24.25"/>
<polygon fill="midnightblue" stroke="midnightblue" points="459.5,-27.28 466.85,-19.65 456.35,-21.04 459.5,-27.28"/>
</g>
<!-- Node14&#45;&gt;Node11 -->
<g id="edge18" class="edge">
<title>Node14&#45;&gt;Node11</title>
<path fill="none" stroke="midnightblue" d="M406.95,-56.44C439.16,-47.24 490.53,-32.56 526.14,-22.39"/>
<polygon fill="midnightblue" stroke="midnightblue" points="527.54,-25.63 536.19,-19.52 525.62,-18.9 527.54,-25.63"/>
</g>
<!-- Node14&#45;&gt;Node12 -->
<g id="edge16" class="edge">
<title>Node14&#45;&gt;Node12</title>
<path fill="none" stroke="midnightblue" d="M430.69,-56.47C477.25,-48.73 546.62,-36.36 615.26,-20.25"/>
<polygon fill="midnightblue" stroke="midnightblue" points="616.46,-23.56 625.38,-17.84 614.84,-16.75 616.46,-23.56"/>
</g>
<!-- Node15 -->
<g id="node15" class="node">
<title>Node15</title>
<g id="a_node15"><a xlink:title=" ">
<polygon fill="none" stroke="#bfbfbf" points="333.5,-0.5 333.5,-19.5 380.5,-19.5 380.5,-0.5 333.5,-0.5"/>
<text text-anchor="middle" x="357" y="-7.5" font-family="FreeSans.ttf" font-size="10.00">stdlib.h</text>
</a>
</g>
</g>
<!-- Node14&#45;&gt;Node15 -->
<g id="edge15" class="edge">
<title>Node14&#45;&gt;Node15</title>
<path fill="none" stroke="midnightblue" d="M373.7,-56.08C371.02,-48.85 367.15,-38.41 363.81,-29.4"/>
<polygon fill="midnightblue" stroke="midnightblue" points="367,-27.91 360.24,-19.75 360.43,-30.34 367,-27.91"/>
</g>
<!-- Node16 -->
<g id="node16" class="node">
<title>Node16</title>
<g id="a_node16"><a xlink:title=" ">
<polygon fill="none" stroke="#bfbfbf" points="399,-0.5 399,-19.5 443,-19.5 443,-0.5 399,-0.5"/>
<text text-anchor="middle" x="421" y="-7.5" font-family="FreeSans.ttf" font-size="10.00">cmath</text>
</a>
</g>
</g>
<!-- Node14&#45;&gt;Node16 -->
<g id="edge20" class="edge">
<title>Node14&#45;&gt;Node16</title>
<path fill="none" stroke="midnightblue" d="M384.27,-56.08C390.54,-48.38 399.79,-37.03 407.43,-27.65"/>
<polygon fill="midnightblue" stroke="midnightblue" points="410.27,-29.71 413.87,-19.75 404.84,-25.29 410.27,-29.71"/>
</g>
<!-- Node17 -->
<g id="node17" class="node">
<title>Node17</title>
<g id="a_node17"><a xlink:title=" ">
<polygon fill="none" stroke="#bfbfbf" points="200,-0.5 200,-19.5 246,-19.5 246,-0.5 200,-0.5"/>
<text text-anchor="middle" x="223" y="-7.5" font-family="FreeSans.ttf" font-size="10.00">math.h</text>
</a>
</g>
</g>
<!-- Node14&#45;&gt;Node17 -->
<g id="edge21" class="edge">
<title>Node14&#45;&gt;Node17</title>
<path fill="none" stroke="midnightblue" d="M352.6,-56.44C326.5,-47.29 284.96,-32.73 255.97,-22.56"/>
<polygon fill="midnightblue" stroke="midnightblue" points="256.87,-19.17 246.28,-19.16 254.56,-25.77 256.87,-19.17"/>
</g>
<!-- Node18 -->
<g id="node18" class="node">
<title>Node18</title>
<g id="a_node18"><a xlink:title=" ">
<polygon fill="none" stroke="#bfbfbf" points="264.5,-0.5 264.5,-19.5 315.5,-19.5 315.5,-0.5 264.5,-0.5"/>
<text text-anchor="middle" x="290" y="-7.5" font-family="FreeSans.ttf" font-size="10.00">assert.h</text>
</a>
</g>
</g>
<!-- Node14&#45;&gt;Node18 -->
<g id="edge22" class="edge">
<title>Node14&#45;&gt;Node18</title>
<path fill="none" stroke="midnightblue" d="M363.02,-56.32C349.45,-47.9 328.62,-34.97 312.68,-25.07"/>
<polygon fill="midnightblue" stroke="midnightblue" points="314.29,-21.95 303.94,-19.65 310.59,-27.9 314.29,-21.95"/>
</g>
<!-- Node21&#45;&gt;Node3 -->
<g id="edge31" class="edge">
<title>Node21&#45;&gt;Node3</title>
<path fill="none" stroke="midnightblue" d="M57,-224.08C57,-217.01 57,-206.86 57,-197.99"/>
<polygon fill="midnightblue" stroke="midnightblue" points="60.5,-197.75 57,-187.75 53.5,-197.75 60.5,-197.75"/>
</g>
</g>
</svg>
