<?xml version="1.0" encoding="UTF-8" standalone="no"?>
<!DOCTYPE svg PUBLIC "-//W3C//DTD SVG 1.1//EN"
 "http://www.w3.org/Graphics/SVG/1.1/DTD/svg11.dtd">
<!-- Generated by graphviz version 2.49.3 (20211027.1534)
 -->
<!-- Title: CUDA/inc/balanced_gpuNUFFT_operator.hpp Pages: 1 -->
<svg width="1094pt" height="173pt"
 viewBox="0.00 0.00 1094.00 173.00" xmlns="http://www.w3.org/2000/svg" xmlns:xlink="http://www.w3.org/1999/xlink">
<g id="graph0" class="graph" transform="scale(1 1) rotate(0) translate(4 169)">
<title>CUDA/inc/balanced_gpuNUFFT_operator.hpp</title>
<!-- Node1 -->
<g id="node1" class="node">
<title>Node1</title>
<g id="a_node1"><a xlink:title=" ">
<polygon fill="#bfbfbf" stroke="black" points="567.5,-134.5 567.5,-164.5 723.5,-164.5 723.5,-134.5 567.5,-134.5"/>
<text text-anchor="start" x="575.5" y="-152.5" font-family="FreeSans.ttf" font-size="10.00">CUDA/inc/balanced_gpuNUFFT</text>
<text text-anchor="middle" x="645.5" y="-141.5" font-family="FreeSans.ttf" font-size="10.00">_operator.hpp</text>
</a>
</g>
</g>
<!-- Node2 -->
<g id="node2" class="node">
<title>Node2</title>
<g id="a_node2"><a xlink:href="gpuNUFFT__operator__factory_8hpp.html" target="_top" xlink:title=" ">
<polygon fill="none" stroke="black" points="483.5,-67.5 483.5,-97.5 635.5,-97.5 635.5,-67.5 483.5,-67.5"/>
<text text-anchor="start" x="491.5" y="-85.5" font-family="FreeSans.ttf" font-size="10.00">CUDA/inc/gpuNUFFT_operator</text>
<text text-anchor="middle" x="559.5" y="-74.5" font-family="FreeSans.ttf" font-size="10.00">_factory.hpp</text>
</a>
</g>
</g>
<!-- Node1&#45;&gt;Node2 -->
<g id="edge1" class="edge">
<title>Node1&#45;&gt;Node2</title>
<path fill="none" stroke="midnightblue" d="M618.6,-128.17C605.45,-118.23 589.95,-106.51 578.12,-97.58"/>
<polygon fill="midnightblue" stroke="midnightblue" points="616.75,-131.16 626.84,-134.4 620.97,-125.57 616.75,-131.16"/>
</g>
<!-- Node10 -->
<g id="node10" class="node">
<title>Node10</title>
<g id="a_node10"><a xlink:href="balanced__gpuNUFFT__operator_8cpp.html" target="_top" xlink:title=" ">
<polygon fill="none" stroke="black" points="654,-67.5 654,-97.5 811,-97.5 811,-67.5 654,-67.5"/>
<text text-anchor="start" x="662" y="-85.5" font-family="FreeSans.ttf" font-size="10.00">CUDA/src/balanced_gpuNUFFT</text>
<text text-anchor="middle" x="732.5" y="-74.5" font-family="FreeSans.ttf" font-size="10.00">_operator.cpp</text>
</a>
</g>
</g>
<!-- Node1&#45;&gt;Node10 -->
<g id="edge9" class="edge">
<title>Node1&#45;&gt;Node10</title>
<path fill="none" stroke="midnightblue" d="M672.71,-128.17C686.02,-118.23 701.7,-106.51 713.66,-97.58"/>
<polygon fill="midnightblue" stroke="midnightblue" points="670.29,-125.61 664.38,-134.4 674.48,-131.21 670.29,-125.61"/>
</g>
<!-- Node3 -->
<g id="node3" class="node">
<title>Node3</title>
<g id="a_node3"><a xlink:href="gpuNUFFT__operator__factory_8cpp.html" target="_top" xlink:title=" ">
<polygon fill="none" stroke="black" points="0,-0.5 0,-30.5 153,-30.5 153,-0.5 0,-0.5"/>
<text text-anchor="start" x="8" y="-18.5" font-family="FreeSans.ttf" font-size="10.00">CUDA/src/gpuNUFFT_operator</text>
<text text-anchor="middle" x="76.5" y="-7.5" font-family="FreeSans.ttf" font-size="10.00">_factory.cpp</text>
</a>
</g>
</g>
<!-- Node2&#45;&gt;Node3 -->
<g id="edge2" class="edge">
<title>Node2&#45;&gt;Node3</title>
<path fill="none" stroke="midnightblue" d="M473.32,-71.64C392.61,-62.16 268.7,-46.94 161.5,-31 158.83,-30.6 156.12,-30.19 153.39,-29.77"/>
<polygon fill="midnightblue" stroke="midnightblue" points="473.1,-75.14 483.44,-72.83 473.91,-68.19 473.1,-75.14"/>
</g>
<!-- Node4 -->
<g id="node4" class="node">
<title>Node4</title>
<g id="a_node4"><a xlink:href="gpuNUFFT__forward__tests_8cpp.html" target="_top" xlink:title=" ">
<polygon fill="none" stroke="black" points="171,-0.5 171,-30.5 322,-30.5 322,-0.5 171,-0.5"/>
<text text-anchor="start" x="179" y="-18.5" font-family="FreeSans.ttf" font-size="10.00">CUDA/test/gpu/forward</text>
<text text-anchor="middle" x="246.5" y="-7.5" font-family="FreeSans.ttf" font-size="10.00">/gpuNUFFT_forward_tests.cpp</text>
</a>
</g>
</g>
<!-- Node2&#45;&gt;Node4 -->
<g id="edge3" class="edge">
<title>Node2&#45;&gt;Node4</title>
<path fill="none" stroke="midnightblue" d="M481.89,-65.38C430.4,-54.69 363.5,-40.8 314.18,-30.55"/>
<polygon fill="midnightblue" stroke="midnightblue" points="481.47,-68.87 491.97,-67.48 482.89,-62.02 481.47,-68.87"/>
</g>
<!-- Node5 -->
<g id="node5" class="node">
<title>Node5</title>
<g id="a_node5"><a xlink:href="gpuNUFFT__2D__conv__tests_8cpp.html" target="_top" xlink:title=" ">
<polygon fill="none" stroke="black" points="340.5,-0.5 340.5,-30.5 474.5,-30.5 474.5,-0.5 340.5,-0.5"/>
<text text-anchor="start" x="348.5" y="-18.5" font-family="FreeSans.ttf" font-size="10.00">CUDA/test/gpu/gpuNUFFT</text>
<text text-anchor="middle" x="407.5" y="-7.5" font-family="FreeSans.ttf" font-size="10.00">_2D_conv_tests.cpp</text>
</a>
</g>
</g>
<!-- Node2&#45;&gt;Node5 -->
<g id="edge4" class="edge">
<title>Node2&#45;&gt;Node5</title>
<path fill="none" stroke="midnightblue" d="M517.19,-63.41C492.92,-53.03 462.91,-40.2 440.42,-30.58"/>
<polygon fill="midnightblue" stroke="midnightblue" points="515.95,-66.68 526.52,-67.4 518.7,-60.25 515.95,-66.68"/>
</g>
<!-- Node6 -->
<g id="node6" class="node">
<title>Node6</title>
<g id="a_node6"><a xlink:href="gpuNUFFT__conv__tests_8cpp.html" target="_top" xlink:title=" ">
<polygon fill="none" stroke="black" points="492.5,-0.5 492.5,-30.5 626.5,-30.5 626.5,-0.5 492.5,-0.5"/>
<text text-anchor="start" x="500.5" y="-18.5" font-family="FreeSans.ttf" font-size="10.00">CUDA/test/gpu/gpuNUFFT</text>
<text text-anchor="middle" x="559.5" y="-7.5" font-family="FreeSans.ttf" font-size="10.00">_conv_tests.cpp</text>
</a>
</g>
</g>
<!-- Node2&#45;&gt;Node6 -->
<g id="edge5" class="edge">
<title>Node2&#45;&gt;Node6</title>
<path fill="none" stroke="midnightblue" d="M559.5,-57.11C559.5,-48.15 559.5,-38.32 559.5,-30.58"/>
<polygon fill="midnightblue" stroke="midnightblue" points="556,-57.4 559.5,-67.4 563,-57.4 556,-57.4"/>
</g>
<!-- Node7 -->
<g id="node7" class="node">
<title>Node7</title>
<g id="a_node7"><a xlink:href="gpuNUFFT__deapo__tests_8cpp.html" target="_top" xlink:title=" ">
<polygon fill="none" stroke="black" points="644.5,-0.5 644.5,-30.5 778.5,-30.5 778.5,-0.5 644.5,-0.5"/>
<text text-anchor="start" x="652.5" y="-18.5" font-family="FreeSans.ttf" font-size="10.00">CUDA/test/gpu/gpuNUFFT</text>
<text text-anchor="middle" x="711.5" y="-7.5" font-family="FreeSans.ttf" font-size="10.00">_deapo_tests.cpp</text>
</a>
</g>
</g>
<!-- Node2&#45;&gt;Node7 -->
<g id="edge6" class="edge">
<title>Node2&#45;&gt;Node7</title>
<path fill="none" stroke="midnightblue" d="M601.81,-63.41C626.08,-53.03 656.09,-40.2 678.58,-30.58"/>
<polygon fill="midnightblue" stroke="midnightblue" points="600.3,-60.25 592.48,-67.4 603.05,-66.68 600.3,-60.25"/>
</g>
<!-- Node8 -->
<g id="node8" class="node">
<title>Node8</title>
<g id="a_node8"><a xlink:href="gpuNUFFT__fft__tests_8cpp.html" target="_top" xlink:title=" ">
<polygon fill="none" stroke="black" points="796.5,-0.5 796.5,-30.5 930.5,-30.5 930.5,-0.5 796.5,-0.5"/>
<text text-anchor="start" x="804.5" y="-18.5" font-family="FreeSans.ttf" font-size="10.00">CUDA/test/gpu/gpuNUFFT</text>
<text text-anchor="middle" x="863.5" y="-7.5" font-family="FreeSans.ttf" font-size="10.00">_fft_tests.cpp</text>
</a>
</g>
</g>
<!-- Node2&#45;&gt;Node8 -->
<g id="edge7" class="edge">
<title>Node2&#45;&gt;Node8</title>
<path fill="none" stroke="midnightblue" d="M634.88,-65.38C684.88,-54.69 749.87,-40.8 797.77,-30.55"/>
<polygon fill="midnightblue" stroke="midnightblue" points="634.14,-61.96 625.09,-67.48 635.6,-68.81 634.14,-61.96"/>
</g>
<!-- Node9 -->
<g id="node9" class="node">
<title>Node9</title>
<g id="a_node9"><a xlink:href="gpuNUFFT__operator__python__factory_8cpp.html" target="_top" xlink:title=" ">
<polygon fill="none" stroke="black" points="949,-0.5 949,-30.5 1086,-30.5 1086,-0.5 949,-0.5"/>
<text text-anchor="start" x="957" y="-18.5" font-family="FreeSans.ttf" font-size="10.00">python/gpuNUFFT_operator</text>
<text text-anchor="middle" x="1017.5" y="-7.5" font-family="FreeSans.ttf" font-size="10.00">_python_factory.cpp</text>
</a>
</g>
</g>
<!-- Node2&#45;&gt;Node9 -->
<g id="edge8" class="edge">
<title>Node2&#45;&gt;Node9</title>
<path fill="none" stroke="midnightblue" d="M645.96,-66.98C777.47,-48.18 812.57,-50.55 939.5,-31 942.49,-30.54 945.55,-30.05 948.64,-29.54"/>
<polygon fill="midnightblue" stroke="midnightblue" points="645.3,-63.54 635.9,-68.43 646.3,-70.47 645.3,-63.54"/>
</g>
</g>
</svg>
