<?xml version="1.0" encoding="UTF-8" standalone="no"?>
<!DOCTYPE svg PUBLIC "-//W3C//DTD SVG 1.1//EN"
 "http://www.w3.org/Graphics/SVG/1.1/DTD/svg11.dtd">
<!-- Generated by graphviz version 2.49.3 (20211027.1534)
 -->
<!-- Title: CUDA/inc/balanced_gpuNUFFT_operator.hpp Pages: 1 -->
<svg width="698pt" height="319pt"
 viewBox="0.00 0.00 697.50 319.00" xmlns="http://www.w3.org/2000/svg" xmlns:xlink="http://www.w3.org/1999/xlink">
<g id="graph0" class="graph" transform="scale(1 1) rotate(0) translate(4 315)">
<title>CUDA/inc/balanced_gpuNUFFT_operator.hpp</title>
<!-- Node1 -->
<g id="node1" class="node">
<title>Node1</title>
<g id="a_node1"><a xlink:title=" ">
<polygon fill="#bfbfbf" stroke="black" points="64,-280.5 64,-310.5 220,-310.5 220,-280.5 64,-280.5"/>
<text text-anchor="start" x="72" y="-298.5" font-family="FreeSans.ttf" font-size="10.00">CUDA/inc/balanced_gpuNUFFT</text>
<text text-anchor="middle" x="142" y="-287.5" font-family="FreeSans.ttf" font-size="10.00">_operator.hpp</text>
</a>
</g>
</g>
<!-- Node2 -->
<g id="node2" class="node">
<title>Node2</title>
<g id="a_node2"><a xlink:href="gpuNUFFT__types_8hpp.html" target="_top" xlink:title="Definition of gpuNUFFT defined types.">
<polygon fill="none" stroke="black" points="1,-168.5 1,-187.5 113,-187.5 113,-168.5 1,-168.5"/>
<text text-anchor="middle" x="57" y="-175.5" font-family="FreeSans.ttf" font-size="10.00">gpuNUFFT_types.hpp</text>
</a>
</g>
</g>
<!-- Node1&#45;&gt;Node2 -->
<g id="edge1" class="edge">
<title>Node1&#45;&gt;Node2</title>
<path fill="none" stroke="midnightblue" d="M141.07,-280.29C139.45,-265.11 135.04,-240.95 123,-224 113.56,-210.72 98.89,-200.15 85.77,-192.6"/>
<polygon fill="midnightblue" stroke="midnightblue" points="87.05,-189.32 76.59,-187.64 83.72,-195.48 87.05,-189.32"/>
</g>
<!-- Node6 -->
<g id="node6" class="node">
<title>Node6</title>
<g id="a_node6"><a xlink:href="gpuNUFFT__operator_8hpp.html" target="_top" xlink:title=" ">
<polygon fill="none" stroke="black" points="172,-224.5 172,-243.5 296,-243.5 296,-224.5 172,-224.5"/>
<text text-anchor="middle" x="234" y="-231.5" font-family="FreeSans.ttf" font-size="10.00">gpuNUFFT_operator.hpp</text>
</a>
</g>
</g>
<!-- Node1&#45;&gt;Node6 -->
<g id="edge5" class="edge">
<title>Node1&#45;&gt;Node6</title>
<path fill="none" stroke="midnightblue" d="M163.8,-280.4C178.41,-270.95 197.57,-258.56 212.18,-249.11"/>
<polygon fill="midnightblue" stroke="midnightblue" points="214.12,-252.03 220.61,-243.66 210.32,-246.15 214.12,-252.03"/>
</g>
<!-- Node20 -->
<g id="node20" class="node">
<title>Node20</title>
<g id="a_node20"><a xlink:href="balanced__operator_8hpp.html" target="_top" xlink:title=" ">
<polygon fill="none" stroke="black" points="0,-224.5 0,-243.5 114,-243.5 114,-224.5 0,-224.5"/>
<text text-anchor="middle" x="57" y="-231.5" font-family="FreeSans.ttf" font-size="10.00">balanced_operator.hpp</text>
</a>
</g>
</g>
<!-- Node1&#45;&gt;Node20 -->
<g id="edge29" class="edge">
<title>Node1&#45;&gt;Node20</title>
<path fill="none" stroke="midnightblue" d="M121.86,-280.4C108.61,-271.13 91.32,-259.03 77.92,-249.65"/>
<polygon fill="midnightblue" stroke="midnightblue" points="79.57,-246.53 69.37,-243.66 75.55,-252.26 79.57,-246.53"/>
</g>
<!-- Node3 -->
<g id="node3" class="node">
<title>Node3</title>
<g id="a_node3"><a xlink:title=" ">
<polygon fill="none" stroke="#bfbfbf" points="157.5,-112.5 157.5,-131.5 202.5,-131.5 202.5,-112.5 157.5,-112.5"/>
<text text-anchor="middle" x="180" y="-119.5" font-family="FreeSans.ttf" font-size="10.00">cstdlib</text>
</a>
</g>
</g>
<!-- Node2&#45;&gt;Node3 -->
<g id="edge2" class="edge">
<title>Node2&#45;&gt;Node3</title>
<path fill="none" stroke="midnightblue" d="M76.49,-168.44C96.64,-159.6 128.32,-145.69 151.33,-135.59"/>
<polygon fill="midnightblue" stroke="midnightblue" points="152.85,-138.74 160.6,-131.52 150.04,-132.33 152.85,-138.74"/>
</g>
<!-- Node4 -->
<g id="node4" class="node">
<title>Node4</title>
<g id="a_node4"><a xlink:title=" ">
<polygon fill="none" stroke="#bfbfbf" points="85,-112.5 85,-131.5 139,-131.5 139,-112.5 85,-112.5"/>
<text text-anchor="middle" x="112" y="-119.5" font-family="FreeSans.ttf" font-size="10.00">iostream</text>
</a>
</g>
</g>
<!-- Node2&#45;&gt;Node4 -->
<g id="edge3" class="edge">
<title>Node2&#45;&gt;Node4</title>
<path fill="none" stroke="midnightblue" d="M66.08,-168.08C74.17,-160.14 86.2,-148.34 95.91,-138.8"/>
<polygon fill="midnightblue" stroke="midnightblue" points="98.4,-141.25 103.09,-131.75 93.5,-136.26 98.4,-141.25"/>
</g>
<!-- Node5 -->
<g id="node5" class="node">
<title>Node5</title>
<g id="a_node5"><a xlink:title=" ">
<polygon fill="none" stroke="#bfbfbf" points="141,-0.5 141,-19.5 201,-19.5 201,-0.5 141,-0.5"/>
<text text-anchor="middle" x="171" y="-7.5" font-family="FreeSans.ttf" font-size="10.00">config.hpp</text>
</a>
</g>
</g>
<!-- Node2&#45;&gt;Node5 -->
<g id="edge4" class="edge">
<title>Node2&#45;&gt;Node5</title>
<path fill="none" stroke="midnightblue" d="M58.25,-168.07C60.37,-155.04 65.49,-130.37 76,-112 96.15,-76.77 130.97,-44.13 152.39,-25.95"/>
<polygon fill="midnightblue" stroke="midnightblue" points="154.7,-28.59 160.15,-19.51 150.22,-23.21 154.7,-28.59"/>
</g>
<!-- Node6&#45;&gt;Node2 -->
<g id="edge6" class="edge">
<title>Node6&#45;&gt;Node2</title>
<path fill="none" stroke="midnightblue" d="M205.95,-224.44C175.92,-215.28 128.09,-200.69 94.76,-190.52"/>
<polygon fill="midnightblue" stroke="midnightblue" points="95.5,-187.09 84.91,-187.52 93.46,-193.78 95.5,-187.09"/>
</g>
<!-- Node6&#45;&gt;Node3 -->
<g id="edge26" class="edge">
<title>Node6&#45;&gt;Node3</title>
<path fill="none" stroke="midnightblue" d="M225.37,-224.45C217.22,-215.92 205.19,-202.08 198,-188 190.51,-173.34 185.81,-155.17 183.11,-141.77"/>
<polygon fill="midnightblue" stroke="midnightblue" points="186.53,-141.03 181.28,-131.82 179.64,-142.29 186.53,-141.03"/>
</g>
<!-- Node6&#45;&gt;Node4 -->
<g id="edge27" class="edge">
<title>Node6&#45;&gt;Node4</title>
<path fill="none" stroke="midnightblue" d="M224.43,-224.37C203.85,-205.81 155.16,-161.91 129.12,-138.44"/>
<polygon fill="midnightblue" stroke="midnightblue" points="131.3,-135.69 121.53,-131.59 126.61,-140.89 131.3,-135.69"/>
</g>
<!-- Node6&#45;&gt;Node5 -->
<g id="edge25" class="edge">
<title>Node6&#45;&gt;Node5</title>
<path fill="none" stroke="midnightblue" d="M245.54,-224.49C255.48,-216.38 269.12,-203.18 275,-188 278.21,-179.71 277.56,-176.51 275,-168 257.56,-110.09 211.02,-53.9 186.54,-27.17"/>
<polygon fill="midnightblue" stroke="midnightblue" points="188.82,-24.49 179.44,-19.57 183.71,-29.27 188.82,-24.49"/>
</g>
<!-- Node7 -->
<g id="node7" class="node">
<title>Node7</title>
<g id="a_node7"><a xlink:href="gpuNUFFT__kernels_8hpp.html" target="_top" xlink:title="gpuNUFFT CUDA function prototypes">
<polygon fill="none" stroke="black" points="323,-168.5 323,-187.5 443,-187.5 443,-168.5 323,-168.5"/>
<text text-anchor="middle" x="383" y="-175.5" font-family="FreeSans.ttf" font-size="10.00">gpuNUFFT_kernels.hpp</text>
</a>
</g>
</g>
<!-- Node6&#45;&gt;Node7 -->
<g id="edge7" class="edge">
<title>Node6&#45;&gt;Node7</title>
<path fill="none" stroke="midnightblue" d="M257.61,-224.44C282.46,-215.44 321.77,-201.19 349.75,-191.05"/>
<polygon fill="midnightblue" stroke="midnightblue" points="351.29,-194.21 359.5,-187.52 348.91,-187.63 351.29,-194.21"/>
</g>
<!-- Node19 -->
<g id="node19" class="node">
<title>Node19</title>
<g id="a_node19"><a xlink:title=" ">
<polygon fill="none" stroke="#bfbfbf" points="207.5,-168.5 207.5,-187.5 266.5,-187.5 266.5,-168.5 207.5,-168.5"/>
<text text-anchor="middle" x="237" y="-175.5" font-family="FreeSans.ttf" font-size="10.00">functional</text>
</a>
</g>
</g>
<!-- Node6&#45;&gt;Node19 -->
<g id="edge28" class="edge">
<title>Node6&#45;&gt;Node19</title>
<path fill="none" stroke="midnightblue" d="M234.5,-224.08C234.89,-217.01 235.45,-206.86 235.95,-197.99"/>
<polygon fill="midnightblue" stroke="midnightblue" points="239.45,-197.93 236.51,-187.75 232.46,-197.54 239.45,-197.93"/>
</g>
<!-- Node8 -->
<g id="node8" class="node">
<title>Node8</title>
<g id="a_node8"><a xlink:href="gpuNUFFT__utils_8hpp.html" target="_top" xlink:title="Definition of util functions used in gridding operations.">
<polygon fill="none" stroke="black" points="323.5,-56.5 323.5,-75.5 430.5,-75.5 430.5,-56.5 323.5,-56.5"/>
<text text-anchor="middle" x="377" y="-63.5" font-family="FreeSans.ttf" font-size="10.00">gpuNUFFT_utils.hpp</text>
</a>
</g>
</g>
<!-- Node7&#45;&gt;Node8 -->
<g id="edge8" class="edge">
<title>Node7&#45;&gt;Node8</title>
<path fill="none" stroke="midnightblue" d="M382.53,-168.37C381.56,-150.62 379.33,-109.67 378.01,-85.6"/>
<polygon fill="midnightblue" stroke="midnightblue" points="381.51,-85.39 377.47,-75.59 374.52,-85.77 381.51,-85.39"/>
</g>
<!-- Node16 -->
<g id="node16" class="node">
<title>Node16</title>
<g id="a_node16"><a xlink:href="cuda__utils_8hpp.html" target="_top" xlink:title="Util functions for CUDA memory and texture management.">
<polygon fill="none" stroke="black" points="461.5,-112.5 461.5,-131.5 540.5,-131.5 540.5,-112.5 461.5,-112.5"/>
<text text-anchor="middle" x="501" y="-119.5" font-family="FreeSans.ttf" font-size="10.00">cuda_utils.hpp</text>
</a>
</g>
</g>
<!-- Node7&#45;&gt;Node16 -->
<g id="edge17" class="edge">
<title>Node7&#45;&gt;Node16</title>
<path fill="none" stroke="midnightblue" d="M401.7,-168.44C420.94,-159.64 451.15,-145.81 473.2,-135.72"/>
<polygon fill="midnightblue" stroke="midnightblue" points="474.75,-138.86 482.39,-131.52 471.84,-132.5 474.75,-138.86"/>
</g>
<!-- Node8&#45;&gt;Node5 -->
<g id="edge13" class="edge">
<title>Node8&#45;&gt;Node5</title>
<path fill="none" stroke="midnightblue" d="M344.36,-56.44C308.22,-46.97 249.95,-31.7 211.07,-21.5"/>
<polygon fill="midnightblue" stroke="midnightblue" points="211.7,-18.05 201.14,-18.9 209.93,-24.82 211.7,-18.05"/>
</g>
<!-- Node9 -->
<g id="node9" class="node">
<title>Node9</title>
<g id="a_node9"><a xlink:title=" ">
<polygon fill="none" stroke="#bfbfbf" points="288.5,-0.5 288.5,-19.5 335.5,-19.5 335.5,-0.5 288.5,-0.5"/>
<text text-anchor="middle" x="312" y="-7.5" font-family="FreeSans.ttf" font-size="10.00">stdlib.h</text>
</a>
</g>
</g>
<!-- Node8&#45;&gt;Node9 -->
<g id="edge9" class="edge">
<title>Node8&#45;&gt;Node9</title>
<path fill="none" stroke="midnightblue" d="M366.56,-56.32C356.85,-48.26 342.18,-36.08 330.5,-26.37"/>
<polygon fill="midnightblue" stroke="midnightblue" points="332.56,-23.53 322.63,-19.83 328.09,-28.92 332.56,-23.53"/>
</g>
<!-- Node10 -->
<g id="node10" class="node">
<title>Node10</title>
<g id="a_node10"><a xlink:title=" ">
<polygon fill="none" stroke="#bfbfbf" points="480.5,-0.5 480.5,-19.5 525.5,-19.5 525.5,-0.5 480.5,-0.5"/>
<text text-anchor="middle" x="503" y="-7.5" font-family="FreeSans.ttf" font-size="10.00">stdio.h</text>
</a>
</g>
</g>
<!-- Node8&#45;&gt;Node10 -->
<g id="edge10" class="edge">
<title>Node8&#45;&gt;Node10</title>
<path fill="none" stroke="midnightblue" d="M396.97,-56.44C417.61,-47.6 450.06,-33.69 473.63,-23.59"/>
<polygon fill="midnightblue" stroke="midnightblue" points="475.32,-26.67 483.13,-19.52 472.56,-20.24 475.32,-26.67"/>
</g>
<!-- Node11 -->
<g id="node11" class="node">
<title>Node11</title>
<g id="a_node11"><a xlink:title=" ">
<polygon fill="none" stroke="#bfbfbf" points="543.5,-0.5 543.5,-19.5 588.5,-19.5 588.5,-0.5 543.5,-0.5"/>
<text text-anchor="middle" x="566" y="-7.5" font-family="FreeSans.ttf" font-size="10.00">cuda.h</text>
</a>
</g>
</g>
<!-- Node8&#45;&gt;Node11 -->
<g id="edge11" class="edge">
<title>Node8&#45;&gt;Node11</title>
<path fill="none" stroke="midnightblue" d="M407.3,-56.42C437.13,-47.96 484.24,-34.58 533.45,-20.44"/>
<polygon fill="midnightblue" stroke="midnightblue" points="534.67,-23.73 543.32,-17.6 532.74,-17 534.67,-23.73"/>
</g>
<!-- Node12 -->
<g id="node12" class="node">
<title>Node12</title>
<g id="a_node12"><a xlink:title=" ">
<polygon fill="none" stroke="#bfbfbf" points="606.5,-0.5 606.5,-19.5 689.5,-19.5 689.5,-0.5 606.5,-0.5"/>
<text text-anchor="middle" x="648" y="-7.5" font-family="FreeSans.ttf" font-size="10.00">cuda_runtime.h</text>
</a>
</g>
</g>
<!-- Node8&#45;&gt;Node12 -->
<g id="edge12" class="edge">
<title>Node8&#45;&gt;Node12</title>
<path fill="none" stroke="midnightblue" d="M419.94,-56.44C467.79,-46.91 545.15,-31.49 596.29,-21.3"/>
<polygon fill="midnightblue" stroke="midnightblue" points="597.03,-24.73 606.15,-19.34 595.66,-17.86 597.03,-24.73"/>
</g>
<!-- Node13 -->
<g id="node13" class="node">
<title>Node13</title>
<g id="a_node13"><a xlink:title=" ">
<polygon fill="none" stroke="#bfbfbf" points="354,-0.5 354,-19.5 398,-19.5 398,-0.5 354,-0.5"/>
<text text-anchor="middle" x="376" y="-7.5" font-family="FreeSans.ttf" font-size="10.00">cmath</text>
</a>
</g>
</g>
<!-- Node8&#45;&gt;Node13 -->
<g id="edge14" class="edge">
<title>Node8&#45;&gt;Node13</title>
<path fill="none" stroke="midnightblue" d="M376.83,-56.08C376.7,-49.01 376.52,-38.86 376.35,-29.99"/>
<polygon fill="midnightblue" stroke="midnightblue" points="379.85,-29.68 376.16,-19.75 372.85,-29.81 379.85,-29.68"/>
</g>
<!-- Node14 -->
<g id="node14" class="node">
<title>Node14</title>
<g id="a_node14"><a xlink:title=" ">
<polygon fill="none" stroke="#bfbfbf" points="416,-0.5 416,-19.5 462,-19.5 462,-0.5 416,-0.5"/>
<text text-anchor="middle" x="439" y="-7.5" font-family="FreeSans.ttf" font-size="10.00">math.h</text>
</a>
</g>
</g>
<!-- Node8&#45;&gt;Node14 -->
<g id="edge15" class="edge">
<title>Node8&#45;&gt;Node14</title>
<path fill="none" stroke="midnightblue" d="M386.96,-56.32C396.13,-48.34 409.94,-36.31 421.03,-26.65"/>
<polygon fill="midnightblue" stroke="midnightblue" points="423.62,-29.04 428.86,-19.83 419.02,-23.76 423.62,-29.04"/>
</g>
<!-- Node15 -->
<g id="node15" class="node">
<title>Node15</title>
<g id="a_node15"><a xlink:title=" ">
<polygon fill="none" stroke="#bfbfbf" points="219.5,-0.5 219.5,-19.5 270.5,-19.5 270.5,-0.5 219.5,-0.5"/>
<text text-anchor="middle" x="245" y="-7.5" font-family="FreeSans.ttf" font-size="10.00">assert.h</text>
</a>
</g>
</g>
<!-- Node8&#45;&gt;Node15 -->
<g id="edge16" class="edge">
<title>Node8&#45;&gt;Node15</title>
<path fill="none" stroke="midnightblue" d="M356.08,-56.44C334.26,-47.52 299.85,-33.44 275.11,-23.32"/>
<polygon fill="midnightblue" stroke="midnightblue" points="276.4,-20.06 265.82,-19.52 273.75,-26.54 276.4,-20.06"/>
</g>
<!-- Node16&#45;&gt;Node6 -->
<g id="edge23" class="edge">
<title>Node16&#45;&gt;Node6</title>
<path fill="none" stroke="midnightblue" d="M496.99,-131.77C490.01,-146 474.21,-173.94 452,-188 408.43,-215.57 351.07,-226.63 306.12,-230.89"/>
<polygon fill="midnightblue" stroke="midnightblue" points="305.81,-227.41 296.15,-231.75 306.41,-234.38 305.81,-227.41"/>
</g>
<!-- Node16&#45;&gt;Node8 -->
<g id="edge22" class="edge">
<title>Node16&#45;&gt;Node8</title>
<path fill="none" stroke="midnightblue" d="M481.35,-112.44C461.04,-103.6 429.1,-89.69 405.9,-79.59"/>
<polygon fill="midnightblue" stroke="midnightblue" points="407.12,-76.3 396.56,-75.52 404.33,-82.72 407.12,-76.3"/>
</g>
<!-- Node16&#45;&gt;Node10 -->
<g id="edge20" class="edge">
<title>Node16&#45;&gt;Node10</title>
<path fill="none" stroke="midnightblue" d="M502.99,-112.43C504.97,-103.42 507.87,-88.8 509,-76 510.37,-60.46 508.53,-42.83 506.54,-29.86"/>
<polygon fill="midnightblue" stroke="midnightblue" points="509.96,-29.1 504.83,-19.83 503.06,-30.28 509.96,-29.1"/>
</g>
<!-- Node16&#45;&gt;Node11 -->
<g id="edge18" class="edge">
<title>Node16&#45;&gt;Node11</title>
<path fill="none" stroke="midnightblue" d="M506.1,-112.37C516.78,-94.3 541.67,-52.18 555.77,-28.31"/>
<polygon fill="midnightblue" stroke="midnightblue" points="558.85,-29.98 560.92,-19.59 552.82,-26.42 558.85,-29.98"/>
</g>
<!-- Node16&#45;&gt;Node12 -->
<g id="edge19" class="edge">
<title>Node16&#45;&gt;Node12</title>
<path fill="none" stroke="midnightblue" d="M512.53,-112.37C537.55,-93.65 597.02,-49.15 628.18,-25.83"/>
<polygon fill="midnightblue" stroke="midnightblue" points="630.61,-28.39 636.52,-19.59 626.42,-22.78 630.61,-28.39"/>
</g>
<!-- Node17 -->
<g id="node17" class="node">
<title>Node17</title>
<g id="a_node17"><a xlink:title=" ">
<polygon fill="none" stroke="#bfbfbf" points="632.5,-56.5 632.5,-75.5 675.5,-75.5 675.5,-56.5 632.5,-56.5"/>
<text text-anchor="middle" x="654" y="-63.5" font-family="FreeSans.ttf" font-size="10.00">cufft.h</text>
</a>
</g>
</g>
<!-- Node16&#45;&gt;Node17 -->
<g id="edge21" class="edge">
<title>Node16&#45;&gt;Node17</title>
<path fill="none" stroke="midnightblue" d="M525.24,-112.44C551.62,-103.13 593.89,-88.22 622.74,-78.03"/>
<polygon fill="midnightblue" stroke="midnightblue" points="624.08,-81.27 632.34,-74.64 621.75,-74.67 624.08,-81.27"/>
</g>
<!-- Node18 -->
<g id="node18" class="node">
<title>Node18</title>
<g id="a_node18"><a xlink:title=" ">
<polygon fill="none" stroke="#bfbfbf" points="448.5,-56.5 448.5,-75.5 499.5,-75.5 499.5,-56.5 448.5,-56.5"/>
<text text-anchor="middle" x="474" y="-63.5" font-family="FreeSans.ttf" font-size="10.00">stdarg.h</text>
</a>
</g>
</g>
<!-- Node16&#45;&gt;Node18 -->
<g id="edge24" class="edge">
<title>Node16&#45;&gt;Node18</title>
<path fill="none" stroke="midnightblue" d="M496.54,-112.08C492.85,-104.69 487.48,-93.95 482.91,-84.81"/>
<polygon fill="midnightblue" stroke="midnightblue" points="485.98,-83.13 478.38,-75.75 479.72,-86.26 485.98,-83.13"/>
</g>
<!-- Node20&#45;&gt;Node2 -->
<g id="edge30" class="edge">
<title>Node20&#45;&gt;Node2</title>
<path fill="none" stroke="midnightblue" d="M57,-224.08C57,-217.01 57,-206.86 57,-197.99"/>
<polygon fill="midnightblue" stroke="midnightblue" points="60.5,-197.75 57,-187.75 53.5,-197.75 60.5,-197.75"/>
</g>
</g>
</svg>
