<?xml version="1.0" encoding="UTF-8" standalone="no"?>
<!DOCTYPE svg PUBLIC "-//W3C//DTD SVG 1.1//EN"
 "http://www.w3.org/Graphics/SVG/1.1/DTD/svg11.dtd">
<!-- Generated by graphviz version 2.49.3 (20211027.1534)
 -->
<!-- Title: GpuNUFFTPythonOperator::data_consistency Pages: 1 -->
<svg width="494pt" height="431pt"
 viewBox="0.00 0.00 494.00 431.00" xmlns="http://www.w3.org/2000/svg" xmlns:xlink="http://www.w3.org/1999/xlink">
<g id="graph0" class="graph" transform="scale(1 1) rotate(0) translate(4 427)">
<title>GpuNUFFTPythonOperator::data_consistency</title>
<!-- Node1 -->
<g id="node1" class="node">
<title>Node1</title>
<g id="a_node1"><a xlink:title=" ">
<polygon fill="#bfbfbf" stroke="black" points="0,-208 0,-238 135,-238 135,-208 0,-208"/>
<text text-anchor="start" x="8" y="-226" font-family="FreeSans.ttf" font-size="10.00">GpuNUFFTPythonOperator</text>
<text text-anchor="middle" x="67.5" y="-215" font-family="FreeSans.ttf" font-size="10.00">::data_consistency</text>
</a>
</g>
</g>
<!-- Node2 -->
<g id="node2" class="node">
<title>Node2</title>
<g id="a_node2"><a xlink:href="cuda__utils_8hpp.html#a18413e749218eb97bc61578b50a57787" target="_top" xlink:title="CUDA memory allocation and memcpy call to copy data from host to device.">
<polygon fill="none" stroke="black" points="174,-403.5 174,-422.5 326,-422.5 326,-403.5 174,-403.5"/>
<text text-anchor="middle" x="250" y="-410.5" font-family="FreeSans.ttf" font-size="10.00">allocateAndCopyToDeviceMem</text>
</a>
</g>
</g>
<!-- Node1&#45;&gt;Node2 -->
<g id="edge1" class="edge">
<title>Node1&#45;&gt;Node2</title>
<path fill="none" stroke="midnightblue" d="M73.07,-238.07C84.05,-271.67 115.26,-352.94 171,-394 173.64,-395.94 176.45,-397.69 179.38,-399.26"/>
<polygon fill="midnightblue" stroke="midnightblue" points="177.92,-402.44 188.47,-403.45 180.86,-396.09 177.92,-402.44"/>
</g>
<!-- Node3 -->
<g id="node3" class="node">
<title>Node3</title>
<g id="a_node3"><a xlink:href="cuda__utils_8hpp.html#a5fb34b1c5f091a495c7ac4237257d7b1" target="_top" xlink:title="Allocation of device memory of the given extent for the defined type.">
<polygon fill="none" stroke="black" points="199,-365.5 199,-384.5 301,-384.5 301,-365.5 199,-365.5"/>
<text text-anchor="middle" x="250" y="-372.5" font-family="FreeSans.ttf" font-size="10.00">allocateDeviceMem</text>
</a>
</g>
</g>
<!-- Node1&#45;&gt;Node3 -->
<g id="edge2" class="edge">
<title>Node1&#45;&gt;Node3</title>
<path fill="none" stroke="midnightblue" d="M75.72,-238.06C89.88,-265.93 124.08,-325.49 171,-356 176.44,-359.54 182.49,-362.42 188.74,-364.77"/>
<polygon fill="midnightblue" stroke="midnightblue" points="188.08,-368.23 198.67,-368.03 190.26,-361.58 188.08,-368.23"/>
</g>
<!-- Node4 -->
<g id="node4" class="node">
<title>Node4</title>
<g id="a_node4"><a xlink:href="cuda__utils_8hpp.html#a0e734eacdc00ba553d77aa057e02059b" target="_top" xlink:title="Copy CUDA memory from device to host asynchronously.">
<polygon fill="none" stroke="black" points="192,-327.5 192,-346.5 308,-346.5 308,-327.5 192,-327.5"/>
<text text-anchor="middle" x="250" y="-334.5" font-family="FreeSans.ttf" font-size="10.00">copyFromDeviceAsync</text>
</a>
</g>
</g>
<!-- Node1&#45;&gt;Node4 -->
<g id="edge3" class="edge">
<title>Node1&#45;&gt;Node4</title>
<path fill="none" stroke="midnightblue" d="M80.36,-238.03C97.87,-259.18 132.75,-297.44 171,-318 175.3,-320.31 179.88,-322.35 184.59,-324.14"/>
<polygon fill="midnightblue" stroke="midnightblue" points="183.79,-327.56 194.39,-327.48 186.05,-320.94 183.79,-327.56"/>
</g>
<!-- Node5 -->
<g id="node5" class="node">
<title>Node5</title>
<g id="a_node5"><a xlink:href="python__utils_8hpp.html#a6fc45707d1f047d4232b16582576b2e6" target="_top" xlink:title=" ">
<polygon fill="none" stroke="black" points="205,-289.5 205,-308.5 295,-308.5 295,-289.5 205,-289.5"/>
<text text-anchor="middle" x="250" y="-296.5" font-family="FreeSans.ttf" font-size="10.00">copyNumpyArray</text>
</a>
</g>
</g>
<!-- Node1&#45;&gt;Node5 -->
<g id="edge4" class="edge">
<title>Node1&#45;&gt;Node5</title>
<path fill="none" stroke="midnightblue" d="M91.64,-238.24C111.85,-250.97 142.37,-268.79 171,-280 178.57,-282.96 186.73,-285.56 194.83,-287.81"/>
<polygon fill="midnightblue" stroke="midnightblue" points="194.07,-291.23 204.63,-290.37 195.84,-284.46 194.07,-291.23"/>
</g>
<!-- Node6 -->
<g id="node6" class="node">
<title>Node6</title>
<g id="a_node6"><a xlink:href="cuda__utils_8hpp.html#a52e9a7f2a2d5bed73e0e9e7d367b1198" target="_top" xlink:title="CUDA memcpy call to copy data from host to device.">
<polygon fill="none" stroke="black" points="211,-251.5 211,-270.5 289,-270.5 289,-251.5 211,-251.5"/>
<text text-anchor="middle" x="250" y="-258.5" font-family="FreeSans.ttf" font-size="10.00">copyToDevice</text>
</a>
</g>
</g>
<!-- Node1&#45;&gt;Node6 -->
<g id="edge5" class="edge">
<title>Node1&#45;&gt;Node6</title>
<path fill="none" stroke="midnightblue" d="M135.2,-237.04C157.02,-241.64 180.82,-246.65 200.98,-250.89"/>
<polygon fill="midnightblue" stroke="midnightblue" points="200.36,-254.34 210.86,-252.97 201.8,-247.49 200.36,-254.34"/>
</g>
<!-- Node7 -->
<g id="node7" class="node">
<title>Node7</title>
<g id="a_node7"><a xlink:href="structgpuNUFFT_1_1Array.html#af426f56b5d7e05b6143acbdd51bac188" target="_top" xlink:title=" ">
<polygon fill="none" stroke="black" points="189.5,-213.5 189.5,-232.5 310.5,-232.5 310.5,-213.5 189.5,-213.5"/>
<text text-anchor="middle" x="250" y="-220.5" font-family="FreeSans.ttf" font-size="10.00">gpuNUFFT::Array::count</text>
</a>
</g>
</g>
<!-- Node1&#45;&gt;Node7 -->
<g id="edge6" class="edge">
<title>Node1&#45;&gt;Node7</title>
<path fill="none" stroke="midnightblue" d="M135.2,-223C149.5,-223 164.65,-223 179.08,-223"/>
<polygon fill="midnightblue" stroke="midnightblue" points="179.43,-226.5 189.43,-223 179.43,-219.5 179.43,-226.5"/>
</g>
<!-- Node9 -->
<g id="node9" class="node">
<title>Node9</title>
<g id="a_node9"><a xlink:href="gpuNUFFT__kernels_8hpp.html#a7ea425f71e9b13006582e6280512f11c" target="_top" xlink:title="Perform data1 = data1 &#45; data2.">
<polygon fill="none" stroke="black" points="219,-175.5 219,-194.5 281,-194.5 281,-175.5 219,-175.5"/>
<text text-anchor="middle" x="250" y="-182.5" font-family="FreeSans.ttf" font-size="10.00">diffInPlace</text>
</a>
</g>
</g>
<!-- Node1&#45;&gt;Node9 -->
<g id="edge8" class="edge">
<title>Node1&#45;&gt;Node9</title>
<path fill="none" stroke="midnightblue" d="M135.2,-208.96C159.99,-203.74 187.34,-197.98 209.01,-193.42"/>
<polygon fill="midnightblue" stroke="midnightblue" points="209.78,-196.83 218.84,-191.35 208.34,-189.98 209.78,-196.83"/>
</g>
<!-- Node10 -->
<g id="node10" class="node">
<title>Node10</title>
<g id="a_node10"><a xlink:href="cuda__utils_8hpp.html#aaa83ead29bc50e65ae4298d9206a760b" target="_top" xlink:title="Free variable list of device pointers. Use NULL as stopping element.">
<polygon fill="none" stroke="black" points="190.5,-137.5 190.5,-156.5 309.5,-156.5 309.5,-137.5 190.5,-137.5"/>
<text text-anchor="middle" x="250" y="-144.5" font-family="FreeSans.ttf" font-size="10.00">freeTotalDeviceMemory</text>
</a>
</g>
</g>
<!-- Node1&#45;&gt;Node10 -->
<g id="edge9" class="edge">
<title>Node1&#45;&gt;Node10</title>
<path fill="none" stroke="midnightblue" d="M91.64,-207.76C111.85,-195.03 142.37,-177.21 171,-166 177.37,-163.51 184.15,-161.27 190.97,-159.29"/>
<polygon fill="midnightblue" stroke="midnightblue" points="192.21,-162.58 200.93,-156.56 190.36,-155.83 192.21,-162.58"/>
</g>
<!-- Node12 -->
<g id="node12" class="node">
<title>Node12</title>
<g id="a_node12"><a xlink:href="classgpuNUFFT_1_1GpuNUFFTOperator.html#a10d565529aa2c7778c15edb8a820b417" target="_top" xlink:title="Perform forward gridding operation on given kspaceData.">
<polygon fill="none" stroke="black" points="171,-88 171,-118 329,-118 329,-88 171,-88"/>
<text text-anchor="start" x="179" y="-106" font-family="FreeSans.ttf" font-size="10.00">gpuNUFFT::GpuNUFFTOperator</text>
<text text-anchor="middle" x="250" y="-95" font-family="FreeSans.ttf" font-size="10.00">::performForwardGpuNUFFT</text>
</a>
</g>
</g>
<!-- Node1&#45;&gt;Node12 -->
<g id="edge11" class="edge">
<title>Node1&#45;&gt;Node12</title>
<path fill="none" stroke="midnightblue" d="M80.86,-207.98C98.72,-187.21 133.71,-149.79 171,-128 174.66,-125.86 178.53,-123.88 182.5,-122.05"/>
<polygon fill="midnightblue" stroke="midnightblue" points="184.08,-125.18 191.92,-118.06 181.35,-118.74 184.08,-125.18"/>
</g>
<!-- Node13 -->
<g id="node13" class="node">
<title>Node13</title>
<g id="a_node13"><a xlink:href="classgpuNUFFT_1_1GpuNUFFTOperator.html#a38a45507d840b8d3d97de7fc79b4fa8a" target="_top" xlink:title="Perform Adjoint gridding operation on given kspaceData.">
<polygon fill="none" stroke="black" points="171,-39 171,-69 329,-69 329,-39 171,-39"/>
<text text-anchor="start" x="179" y="-57" font-family="FreeSans.ttf" font-size="10.00">gpuNUFFT::GpuNUFFTOperator</text>
<text text-anchor="middle" x="250" y="-46" font-family="FreeSans.ttf" font-size="10.00">::performGpuNUFFTAdj</text>
</a>
</g>
</g>
<!-- Node1&#45;&gt;Node13 -->
<g id="edge12" class="edge">
<title>Node1&#45;&gt;Node13</title>
<path fill="none" stroke="midnightblue" d="M75.1,-207.78C88.68,-178.27 122.57,-113.09 171,-78 173.06,-76.51 175.21,-75.11 177.43,-73.79"/>
<polygon fill="midnightblue" stroke="midnightblue" points="179.08,-76.88 186.32,-69.14 175.83,-70.68 179.08,-76.88"/>
</g>
<!-- Node14 -->
<g id="node14" class="node">
<title>Node14</title>
<g id="a_node14"><a xlink:href="python__utils_8hpp.html#aeb74d2cb99381f659a6890373021e833" target="_top" xlink:title=" ">
<polygon fill="none" stroke="black" points="205.5,-0.5 205.5,-19.5 294.5,-19.5 294.5,-0.5 205.5,-0.5"/>
<text text-anchor="middle" x="250" y="-7.5" font-family="FreeSans.ttf" font-size="10.00">readNumpyArray</text>
</a>
</g>
</g>
<!-- Node1&#45;&gt;Node14 -->
<g id="edge13" class="edge">
<title>Node1&#45;&gt;Node14</title>
<path fill="none" stroke="midnightblue" d="M71.95,-207.88C81.15,-171.13 109.85,-76.64 171,-29 178.11,-23.46 186.6,-19.51 195.33,-16.69"/>
<polygon fill="midnightblue" stroke="midnightblue" points="196.51,-20 205.22,-13.98 194.65,-13.25 196.51,-20"/>
</g>
<!-- Node8 -->
<g id="node8" class="node">
<title>Node8</title>
<g id="a_node8"><a xlink:href="structgpuNUFFT_1_1Dimensions.html#a4c589934c5444910fbcd890d128229c9" target="_top" xlink:title="Compute total count of array length.">
<polygon fill="none" stroke="black" points="365,-208 365,-238 486,-238 486,-208 365,-208"/>
<text text-anchor="start" x="373" y="-226" font-family="FreeSans.ttf" font-size="10.00">gpuNUFFT::Dimensions</text>
<text text-anchor="middle" x="425.5" y="-215" font-family="FreeSans.ttf" font-size="10.00">::count</text>
</a>
</g>
</g>
<!-- Node7&#45;&gt;Node8 -->
<g id="edge7" class="edge">
<title>Node7&#45;&gt;Node8</title>
<path fill="none" stroke="midnightblue" d="M310.71,-223C324.96,-223 340.3,-223 354.96,-223"/>
<polygon fill="midnightblue" stroke="midnightblue" points="354.98,-226.5 364.98,-223 354.98,-219.5 354.98,-226.5"/>
</g>
<!-- Node11 -->
<g id="node11" class="node">
<title>Node11</title>
<g id="a_node11"><a xlink:href="cuda__utils_8hpp.html#a6ffa821f98a8c2b391c12c01308ff1db" target="_top" xlink:title="Free of device memory.">
<polygon fill="none" stroke="black" points="383,-137.5 383,-156.5 468,-156.5 468,-137.5 383,-137.5"/>
<text text-anchor="middle" x="425.5" y="-144.5" font-family="FreeSans.ttf" font-size="10.00">freeDeviceMem</text>
</a>
</g>
</g>
<!-- Node10&#45;&gt;Node11 -->
<g id="edge10" class="edge">
<title>Node10&#45;&gt;Node11</title>
<path fill="none" stroke="midnightblue" d="M309.74,-147C330.17,-147 352.91,-147 372.73,-147"/>
<polygon fill="midnightblue" stroke="midnightblue" points="372.8,-150.5 382.8,-147 372.8,-143.5 372.8,-150.5"/>
</g>
</g>
</svg>
