<?xml version="1.0" encoding="UTF-8" standalone="no"?>
<!DOCTYPE svg PUBLIC "-//W3C//DTD SVG 1.1//EN"
 "http://www.w3.org/Graphics/SVG/1.1/DTD/svg11.dtd">
<!-- Generated by graphviz version 2.49.3 (20211027.1534)
 -->
<!-- Title: gpuNUFFT::TextureGpuNUFFTOperator::initLookupTable Pages: 1 -->
<svg width="467pt" height="94pt"
 viewBox="0.00 0.00 467.00 94.00" xmlns="http://www.w3.org/2000/svg" xmlns:xlink="http://www.w3.org/1999/xlink">
<g id="graph0" class="graph" transform="scale(1 1) rotate(0) translate(4 90)">
<title>gpuNUFFT::TextureGpuNUFFTOperator::initLookupTable</title>
<!-- Node1 -->
<g id="node1" class="node">
<title>Node1</title>
<g id="a_node1"><a xlink:title="Virtual method to allow different methods of generation of the lookup table.">
<polygon fill="#bfbfbf" stroke="black" points="0,-42 0,-72 191,-72 191,-42 0,-42"/>
<text text-anchor="start" x="8" y="-60" font-family="FreeSans.ttf" font-size="10.00">gpuNUFFT::TextureGpuNUFFTOperator</text>
<text text-anchor="middle" x="95.5" y="-49" font-family="FreeSans.ttf" font-size="10.00">::initLookupTable</text>
</a>
</g>
</g>
<!-- Node2 -->
<g id="node2" class="node">
<title>Node2</title>
<g id="a_node2"><a xlink:href="cuda__utils_8hpp.html#a678cac189436fb6c0c82ec51703def04" target="_top" xlink:title="Initialize texture memory on device.">
<polygon fill="none" stroke="black" points="227,-66.5 227,-85.5 289,-85.5 289,-66.5 227,-66.5"/>
<text text-anchor="middle" x="258" y="-73.5" font-family="FreeSans.ttf" font-size="10.00">initTexture</text>
</a>
</g>
</g>
<!-- Node1&#45;&gt;Node2 -->
<g id="edge1" class="edge">
<title>Node1&#45;&gt;Node2</title>
<path fill="none" stroke="midnightblue" d="M191.26,-68.22C200.22,-69.28 208.94,-70.31 216.94,-71.26"/>
<polygon fill="midnightblue" stroke="midnightblue" points="216.66,-74.75 227,-72.45 217.48,-67.8 216.66,-74.75"/>
</g>
<!-- Node3 -->
<g id="node3" class="node">
<title>Node3</title>
<g id="a_node3"><a xlink:href="gpuNUFFT__utils_8hpp.html#a18dd3c6c4b8ac5f6947f3dc1c59651bc" target="_top" xlink:title="Interpolation Kernel evaluation for radius.">
<polygon fill="none" stroke="black" points="236.5,-28.5 236.5,-47.5 279.5,-47.5 279.5,-28.5 236.5,-28.5"/>
<text text-anchor="middle" x="258" y="-35.5" font-family="FreeSans.ttf" font-size="10.00">kernel</text>
</a>
</g>
</g>
<!-- Node1&#45;&gt;Node3 -->
<g id="edge2" class="edge">
<title>Node1&#45;&gt;Node3</title>
<path fill="none" stroke="midnightblue" d="M191.26,-45.78C203.85,-44.29 215.95,-42.86 226.26,-41.64"/>
<polygon fill="midnightblue" stroke="midnightblue" points="226.78,-45.1 236.3,-40.45 225.96,-38.15 226.78,-45.1"/>
</g>
<!-- Node4 -->
<g id="node4" class="node">
<title>Node4</title>
<g id="a_node4"><a xlink:href="gpuNUFFT__utils_8hpp.html#aa7b00d423ae0e06388b55594fe1adb93" target="_top" xlink:title="beta function used in interpolation function. See Beatty et al.">
<polygon fill="none" stroke="black" points="417,-47.5 417,-66.5 459,-66.5 459,-47.5 417,-47.5"/>
<text text-anchor="middle" x="438" y="-54.5" font-family="FreeSans.ttf" font-size="10.00">BETA</text>
</a>
</g>
</g>
<!-- Node3&#45;&gt;Node4 -->
<g id="edge3" class="edge">
<title>Node3&#45;&gt;Node4</title>
<path fill="none" stroke="midnightblue" d="M279.78,-45.61C292.61,-49.89 309.53,-54.82 325,-57 352.43,-60.87 384.01,-60.43 406.63,-59.28"/>
<polygon fill="midnightblue" stroke="midnightblue" points="406.87,-62.78 416.65,-58.7 406.46,-55.79 406.87,-62.78"/>
</g>
<!-- Node5 -->
<g id="node5" class="node">
<title>Node5</title>
<g id="a_node5"><a xlink:href="gpuNUFFT__utils_8cpp.html#a5472cb661dea68a2ab2b52df187b6291" target="_top" xlink:title="Modified Kaiser Bessel function of zero&#45;th order.">
<polygon fill="none" stroke="black" points="423.5,-0.5 423.5,-19.5 452.5,-19.5 452.5,-0.5 423.5,-0.5"/>
<text text-anchor="middle" x="438" y="-7.5" font-family="FreeSans.ttf" font-size="10.00">i0</text>
</a>
</g>
</g>
<!-- Node3&#45;&gt;Node5 -->
<g id="edge4" class="edge">
<title>Node3&#45;&gt;Node5</title>
<path fill="none" stroke="midnightblue" d="M279.55,-30.93C292.45,-26.78 309.52,-21.82 325,-19 355.18,-13.5 390.55,-11.36 413.34,-10.53"/>
<polygon fill="midnightblue" stroke="midnightblue" points="413.55,-14.02 423.44,-10.22 413.34,-7.03 413.55,-14.02"/>
</g>
<!-- Node6 -->
<g id="node6" class="node">
<title>Node6</title>
<g id="a_node6"><a xlink:href="gpuNUFFT__utils_8hpp.html#ab1456ac35fe51fc4dac2e0054f6d9a50" target="_top" xlink:title="I_0 function used in interpolation function. See Beatty et al.">
<polygon fill="none" stroke="black" points="325,-28.5 325,-47.5 381,-47.5 381,-28.5 325,-28.5"/>
<text text-anchor="middle" x="353" y="-35.5" font-family="FreeSans.ttf" font-size="10.00">I0_BETA</text>
</a>
</g>
</g>
<!-- Node3&#45;&gt;Node6 -->
<g id="edge5" class="edge">
<title>Node3&#45;&gt;Node6</title>
<path fill="none" stroke="midnightblue" d="M279.64,-38C289.9,-38 302.63,-38 314.54,-38"/>
<polygon fill="midnightblue" stroke="midnightblue" points="314.71,-41.5 324.71,-38 314.71,-34.5 314.71,-41.5"/>
</g>
<!-- Node6&#45;&gt;Node4 -->
<g id="edge6" class="edge">
<title>Node6&#45;&gt;Node4</title>
<path fill="none" stroke="midnightblue" d="M381.18,-44.22C389.45,-46.11 398.58,-48.2 407.02,-50.14"/>
<polygon fill="midnightblue" stroke="midnightblue" points="406.34,-53.57 416.87,-52.39 407.9,-46.75 406.34,-53.57"/>
</g>
<!-- Node6&#45;&gt;Node5 -->
<g id="edge7" class="edge">
<title>Node6&#45;&gt;Node5</title>
<path fill="none" stroke="midnightblue" d="M381.18,-28.83C391.56,-25.33 403.31,-21.36 413.35,-17.98"/>
<polygon fill="midnightblue" stroke="midnightblue" points="414.69,-21.22 423.05,-14.71 412.46,-14.59 414.69,-21.22"/>
</g>
</g>
</svg>
