<?xml version="1.0" encoding="UTF-8" standalone="no"?>
<!DOCTYPE svg PUBLIC "-//W3C//DTD SVG 1.1//EN"
 "http://www.w3.org/Graphics/SVG/1.1/DTD/svg11.dtd">
<!-- Generated by graphviz version 2.49.3 (20211027.1534)
 -->
<!-- Title: gpuNUFFT::BalancedGpuNUFFTOperator::performGpuNUFFTAdj Pages: 1 -->
<svg width="522pt" height="78pt"
 viewBox="0.00 0.00 522.00 77.50" xmlns="http://www.w3.org/2000/svg" xmlns:xlink="http://www.w3.org/1999/xlink">
<g id="graph0" class="graph" transform="scale(1 1) rotate(0) translate(4 73.5)">
<title>gpuNUFFT::BalancedGpuNUFFTOperator::performGpuNUFFTAdj</title>
<!-- Node1 -->
<g id="node1" class="node">
<title>Node1</title>
<g id="a_node1"><a xlink:title="Perform Adjoint gridding operation on given kspaceData.">
<polygon fill="#bfbfbf" stroke="black" points="0,-22.5 0,-52.5 199,-52.5 199,-22.5 0,-22.5"/>
<text text-anchor="start" x="8" y="-40.5" font-family="FreeSans.ttf" font-size="10.00">gpuNUFFT::BalancedGpuNUFFTOperator</text>
<text text-anchor="middle" x="99.5" y="-29.5" font-family="FreeSans.ttf" font-size="10.00">::performGpuNUFFTAdj</text>
</a>
</g>
</g>
<!-- Node2 -->
<g id="node2" class="node">
<title>Node2</title>
<g id="a_node2"><a xlink:href="cuda__utils_8hpp.html#aaa83ead29bc50e65ae4298d9206a760b" target="_top" xlink:title="Free variable list of device pointers. Use NULL as stopping element.">
<polygon fill="none" stroke="black" points="254.5,-50 254.5,-69 373.5,-69 373.5,-50 254.5,-50"/>
<text text-anchor="middle" x="314" y="-57" font-family="FreeSans.ttf" font-size="10.00">freeTotalDeviceMemory</text>
</a>
</g>
</g>
<!-- Node1&#45;&gt;Node2 -->
<g id="edge1" class="edge">
<title>Node1&#45;&gt;Node2</title>
<path fill="none" stroke="midnightblue" d="M199.28,-47.73C214.46,-49.3 229.84,-50.89 244.18,-52.37"/>
<polygon fill="midnightblue" stroke="midnightblue" points="244.11,-55.89 254.41,-53.43 244.83,-48.92 244.11,-55.89"/>
</g>
<!-- Node4 -->
<g id="node4" class="node">
<title>Node4</title>
<g id="a_node4"><a xlink:href="classgpuNUFFT_1_1GpuNUFFTOperator.html#a38a45507d840b8d3d97de7fc79b4fa8a" target="_top" xlink:title="Perform Adjoint gridding operation on given kspaceData.">
<polygon fill="none" stroke="black" points="235,-0.5 235,-30.5 393,-30.5 393,-0.5 235,-0.5"/>
<text text-anchor="start" x="243" y="-18.5" font-family="FreeSans.ttf" font-size="10.00">gpuNUFFT::GpuNUFFTOperator</text>
<text text-anchor="middle" x="314" y="-7.5" font-family="FreeSans.ttf" font-size="10.00">::performGpuNUFFTAdj</text>
</a>
</g>
</g>
<!-- Node1&#45;&gt;Node4 -->
<g id="edge3" class="edge">
<title>Node1&#45;&gt;Node4</title>
<path fill="none" stroke="midnightblue" d="M199.28,-27.27C207.76,-26.4 216.3,-25.51 224.69,-24.64"/>
<polygon fill="midnightblue" stroke="midnightblue" points="225.24,-28.1 234.83,-23.59 224.52,-21.14 225.24,-28.1"/>
</g>
<!-- Node3 -->
<g id="node3" class="node">
<title>Node3</title>
<g id="a_node3"><a xlink:href="cuda__utils_8hpp.html#a6ffa821f98a8c2b391c12c01308ff1db" target="_top" xlink:title="Free of device memory.">
<polygon fill="none" stroke="black" points="429,-50 429,-69 514,-69 514,-50 429,-50"/>
<text text-anchor="middle" x="471.5" y="-57" font-family="FreeSans.ttf" font-size="10.00">freeDeviceMem</text>
</a>
</g>
</g>
<!-- Node2&#45;&gt;Node3 -->
<g id="edge2" class="edge">
<title>Node2&#45;&gt;Node3</title>
<path fill="none" stroke="midnightblue" d="M373.79,-59.5C388.46,-59.5 404.09,-59.5 418.41,-59.5"/>
<polygon fill="midnightblue" stroke="midnightblue" points="418.58,-63 428.58,-59.5 418.58,-56 418.58,-63"/>
</g>
</g>
</svg>
