<?xml version="1.0" encoding="UTF-8" standalone="no"?>
<!DOCTYPE svg PUBLIC "-//W3C//DTD SVG 1.1//EN"
 "http://www.w3.org/Graphics/SVG/1.1/DTD/svg11.dtd">
<!-- Generated by graphviz version 2.49.3 (20211027.1534)
 -->
<!-- Title: gpuNUFFT::GpuNUFFTOperator::performGpuNUFFTAdj Pages: 1 -->
<svg width="558pt" height="372pt"
 viewBox="0.00 0.00 558.00 371.50" xmlns="http://www.w3.org/2000/svg" xmlns:xlink="http://www.w3.org/1999/xlink">
<g id="graph0" class="graph" transform="scale(1 1) rotate(0) translate(4 367.5)">
<title>gpuNUFFT::GpuNUFFTOperator::performGpuNUFFTAdj</title>
<!-- Node1 -->
<g id="node1" class="node">
<title>Node1</title>
<g id="a_node1"><a xlink:title="Perform Adjoint gridding operation on given kspaceData.">
<polygon fill="#bfbfbf" stroke="black" points="392,-161 392,-191 550,-191 550,-161 392,-161"/>
<text text-anchor="start" x="400" y="-179" font-family="FreeSans.ttf" font-size="10.00">gpuNUFFT::GpuNUFFTOperator</text>
<text text-anchor="middle" x="471" y="-168" font-family="FreeSans.ttf" font-size="10.00">::performGpuNUFFTAdj</text>
</a>
</g>
</g>
<!-- Node2 -->
<g id="node2" class="node">
<title>Node2</title>
<g id="a_node2"><a xlink:href="classGpuNUFFTPythonOperator.html#a9d5913daa75877d952160c6e126bbe07" target="_top" xlink:title="Adjoint operator (kspace to Image)">
<polygon fill="none" stroke="black" points="184.5,-333 184.5,-363 319.5,-363 319.5,-333 184.5,-333"/>
<text text-anchor="start" x="192.5" y="-351" font-family="FreeSans.ttf" font-size="10.00">GpuNUFFTPythonOperator</text>
<text text-anchor="middle" x="252" y="-340" font-family="FreeSans.ttf" font-size="10.00">::adj_op</text>
</a>
</g>
</g>
<!-- Node1&#45;&gt;Node2 -->
<g id="edge1" class="edge">
<title>Node1&#45;&gt;Node2</title>
<path fill="none" stroke="midnightblue" d="M458.07,-200.44C440.49,-233.76 404.41,-292.86 356,-324 345.11,-331 332.41,-335.97 319.72,-339.49"/>
<polygon fill="midnightblue" stroke="midnightblue" points="461.27,-201.87 462.73,-191.38 455.04,-198.67 461.27,-201.87"/>
</g>
<!-- Node4 -->
<g id="node4" class="node">
<title>Node4</title>
<g id="a_node4"><a xlink:href="classgpuNUFFT_1_1GpuNUFFTOperatorFactory.html#a82e185db6eda1edb359df5a580be7b37" target="_top" xlink:title="Computation of the deapodization function.">
<polygon fill="none" stroke="black" points="157.5,-284 157.5,-314 346.5,-314 346.5,-284 157.5,-284"/>
<text text-anchor="start" x="165.5" y="-302" font-family="FreeSans.ttf" font-size="10.00">gpuNUFFT::GpuNUFFTOperator</text>
<text text-anchor="middle" x="252" y="-291" font-family="FreeSans.ttf" font-size="10.00">Factory::computeDeapodizationFunction</text>
</a>
</g>
</g>
<!-- Node1&#45;&gt;Node4 -->
<g id="edge3" class="edge">
<title>Node1&#45;&gt;Node4</title>
<path fill="none" stroke="midnightblue" d="M450.09,-198.85C428.99,-221.6 393.59,-255.81 356,-275 349.21,-278.46 341.92,-281.44 334.46,-283.98"/>
<polygon fill="midnightblue" stroke="midnightblue" points="452.79,-201.08 456.93,-191.32 447.62,-196.36 452.79,-201.08"/>
</g>
<!-- Node5 -->
<g id="node5" class="node">
<title>Node5</title>
<g id="a_node5"><a xlink:href="classGpuNUFFTPythonOperator.html#a564644dc7ea9b8306cd6296ea6f1fca6" target="_top" xlink:title=" ">
<polygon fill="none" stroke="black" points="184.5,-235 184.5,-265 319.5,-265 319.5,-235 184.5,-235"/>
<text text-anchor="start" x="192.5" y="-253" font-family="FreeSans.ttf" font-size="10.00">GpuNUFFTPythonOperator</text>
<text text-anchor="middle" x="252" y="-242" font-family="FreeSans.ttf" font-size="10.00">::data_consistency</text>
</a>
</g>
</g>
<!-- Node1&#45;&gt;Node5 -->
<g id="edge4" class="edge">
<title>Node1&#45;&gt;Node5</title>
<path fill="none" stroke="midnightblue" d="M430.45,-195.5C408.83,-205.61 381.37,-217.56 356,-226 344.41,-229.85 331.9,-233.33 319.71,-236.35"/>
<polygon fill="midnightblue" stroke="midnightblue" points="432.1,-198.59 439.64,-191.15 429.1,-192.27 432.1,-198.59"/>
</g>
<!-- Node6 -->
<g id="node6" class="node">
<title>Node6</title>
<g id="a_node6"><a xlink:href="classGpuNUFFTPythonOperator.html#a47e427fafc08d705d834940e1229742f" target="_top" xlink:title="Estimate density Compensation array using gpu&#45;only functions.">
<polygon fill="none" stroke="black" points="184.5,-186 184.5,-216 319.5,-216 319.5,-186 184.5,-186"/>
<text text-anchor="start" x="192.5" y="-204" font-family="FreeSans.ttf" font-size="10.00">GpuNUFFTPythonOperator</text>
<text text-anchor="middle" x="252" y="-193" font-family="FreeSans.ttf" font-size="10.00">::estimate_density_comp</text>
</a>
</g>
</g>
<!-- Node1&#45;&gt;Node6 -->
<g id="edge6" class="edge">
<title>Node1&#45;&gt;Node6</title>
<path fill="none" stroke="midnightblue" d="M381.86,-186.15C361.07,-188.55 339.25,-191.06 319.6,-193.33"/>
<polygon fill="midnightblue" stroke="midnightblue" points="382.43,-189.61 391.96,-184.99 381.63,-182.66 382.43,-189.61"/>
</g>
<!-- Node7 -->
<g id="node7" class="node">
<title>Node7</title>
<g id="a_node7"><a xlink:href="classGpuNUFFTPythonOperator.html#aff247734503217d39bc2a2144032324f" target="_top" xlink:title="Estimate the spectral radius using gpu&#45;only functions.">
<polygon fill="none" stroke="black" points="184.5,-137 184.5,-167 319.5,-167 319.5,-137 184.5,-137"/>
<text text-anchor="start" x="192.5" y="-155" font-family="FreeSans.ttf" font-size="10.00">GpuNUFFTPythonOperator</text>
<text text-anchor="middle" x="252" y="-144" font-family="FreeSans.ttf" font-size="10.00">::get_spectral_radius</text>
</a>
</g>
</g>
<!-- Node1&#45;&gt;Node7 -->
<g id="edge8" class="edge">
<title>Node1&#45;&gt;Node7</title>
<path fill="none" stroke="midnightblue" d="M381.86,-166.25C361.07,-163.95 339.25,-161.54 319.6,-159.37"/>
<polygon fill="midnightblue" stroke="midnightblue" points="381.64,-169.75 391.96,-167.37 382.41,-162.79 381.64,-169.75"/>
</g>
<!-- Node8 -->
<g id="node8" class="node">
<title>Node8</title>
<g id="a_node8"><a xlink:href="classgpuNUFFT_1_1BalancedGpuNUFFTOperator.html#ada71d183719d9375226352e90ff22194" target="_top" xlink:title="Perform Adjoint gridding operation on given kspaceData.">
<polygon fill="none" stroke="black" points="152.5,-88 152.5,-118 351.5,-118 351.5,-88 152.5,-88"/>
<text text-anchor="start" x="160.5" y="-106" font-family="FreeSans.ttf" font-size="10.00">gpuNUFFT::BalancedGpuNUFFTOperator</text>
<text text-anchor="middle" x="252" y="-95" font-family="FreeSans.ttf" font-size="10.00">::performGpuNUFFTAdj</text>
</a>
</g>
</g>
<!-- Node1&#45;&gt;Node8 -->
<g id="edge10" class="edge">
<title>Node1&#45;&gt;Node8</title>
<path fill="none" stroke="midnightblue" d="M428.96,-156.84C407.53,-147.32 380.7,-136.14 356,-128 344.99,-124.37 333.16,-121.02 321.58,-118.02"/>
<polygon fill="midnightblue" stroke="midnightblue" points="427.54,-160.03 438.09,-160.94 430.41,-153.65 427.54,-160.03"/>
</g>
<!-- Node9 -->
<g id="node9" class="node">
<title>Node9</title>
<g id="a_node9"><a xlink:href="classgpuNUFFT_1_1BalancedTextureGpuNUFFTOperator.html#a1bbc427b1d73850b6025eb52b417174b" target="_top" xlink:title="Perform Adjoint gridding operation on given kspaceData.">
<polygon fill="none" stroke="black" points="148,-39 148,-69 356,-69 356,-39 148,-39"/>
<text text-anchor="start" x="156" y="-57" font-family="FreeSans.ttf" font-size="10.00">gpuNUFFT::BalancedTexture</text>
<text text-anchor="middle" x="252" y="-46" font-family="FreeSans.ttf" font-size="10.00">GpuNUFFTOperator::performGpuNUFFTAdj</text>
</a>
</g>
</g>
<!-- Node1&#45;&gt;Node9 -->
<g id="edge11" class="edge">
<title>Node1&#45;&gt;Node9</title>
<path fill="none" stroke="midnightblue" d="M449.6,-153.33C428.37,-131.11 393.07,-97.9 356,-79 348.38,-75.11 340.13,-71.81 331.72,-69.02"/>
<polygon fill="midnightblue" stroke="midnightblue" points="447.12,-155.79 456.51,-160.69 452.22,-151 447.12,-155.79"/>
</g>
<!-- Node10 -->
<g id="node10" class="node">
<title>Node10</title>
<g id="a_node10"><a xlink:href="gpuNUFFT__2D__conv__tests_8cpp.html#aaa68ca62ef9f76180f0da723f0da1dfb" target="_top" xlink:title=" ">
<polygon fill="none" stroke="black" points="231.5,-0.5 231.5,-19.5 272.5,-19.5 272.5,-0.5 231.5,-0.5"/>
<text text-anchor="middle" x="252" y="-7.5" font-family="FreeSans.ttf" font-size="10.00">TEST</text>
</a>
</g>
</g>
<!-- Node1&#45;&gt;Node10 -->
<g id="edge12" class="edge">
<title>Node1&#45;&gt;Node10</title>
<path fill="none" stroke="midnightblue" d="M458.14,-151.64C440.65,-118.47 404.66,-59.82 356,-30 330.22,-14.2 294.56,-10.48 272.68,-9.82"/>
<polygon fill="midnightblue" stroke="midnightblue" points="455.09,-153.37 462.77,-160.66 461.32,-150.17 455.09,-153.37"/>
</g>
<!-- Node3 -->
<g id="node3" class="node">
<title>Node3</title>
<g id="a_node3"><a xlink:href="python__bindings_8cpp.html#ad1a7eaf0d60c015a4df3da44ddf58e27" target="_top" xlink:title=" ">
<polygon fill="none" stroke="black" points="0,-215.5 0,-234.5 112,-234.5 112,-215.5 0,-215.5"/>
<text text-anchor="middle" x="56" y="-222.5" font-family="FreeSans.ttf" font-size="10.00">PYBIND11_MODULE</text>
</a>
</g>
</g>
<!-- Node2&#45;&gt;Node3 -->
<g id="edge2" class="edge">
<title>Node2&#45;&gt;Node3</title>
<path fill="none" stroke="midnightblue" d="M174.71,-335.73C165.38,-332.65 156.24,-328.81 148,-324 108.28,-300.82 75.8,-254.69 62.94,-234.66"/>
<polygon fill="midnightblue" stroke="midnightblue" points="173.89,-339.14 184.47,-338.66 175.9,-332.43 173.89,-339.14"/>
</g>
<!-- Node5&#45;&gt;Node3 -->
<g id="edge5" class="edge">
<title>Node5&#45;&gt;Node3</title>
<path fill="none" stroke="midnightblue" d="M174.2,-240.1C153.52,-237.44 131.55,-234.61 112.3,-232.13"/>
<polygon fill="midnightblue" stroke="midnightblue" points="173.87,-243.59 184.24,-241.4 174.77,-236.65 173.87,-243.59"/>
</g>
<!-- Node6&#45;&gt;Node3 -->
<g id="edge7" class="edge">
<title>Node6&#45;&gt;Node3</title>
<path fill="none" stroke="midnightblue" d="M174.2,-210.5C153.52,-213.06 131.55,-215.78 112.3,-218.16"/>
<polygon fill="midnightblue" stroke="midnightblue" points="174.74,-213.96 184.24,-209.26 173.88,-207.01 174.74,-213.96"/>
</g>
<!-- Node7&#45;&gt;Node3 -->
<g id="edge9" class="edge">
<title>Node7&#45;&gt;Node3</title>
<path fill="none" stroke="midnightblue" d="M174.53,-168.31C165.49,-170.9 156.47,-173.8 148,-177 120.1,-187.56 89.88,-204.77 72.23,-215.46"/>
<polygon fill="midnightblue" stroke="midnightblue" points="175.61,-171.64 184.33,-165.62 173.76,-164.89 175.61,-171.64"/>
</g>
</g>
</svg>
