<?xml version="1.0" encoding="UTF-8" standalone="no"?>
<!DOCTYPE svg PUBLIC "-//W3C//DTD SVG 1.1//EN"
 "http://www.w3.org/Graphics/SVG/1.1/DTD/svg11.dtd">
<!-- Generated by graphviz version 2.49.3 (20211027.1534)
 -->
<!-- Title: gpuNUFFT::GpuNUFFTOperator::~GpuNUFFTOperator Pages: 1 -->
<svg width="636pt" height="102pt"
 viewBox="0.00 0.00 636.00 101.50" xmlns="http://www.w3.org/2000/svg" xmlns:xlink="http://www.w3.org/1999/xlink">
<g id="graph0" class="graph" transform="scale(1 1) rotate(0) translate(4 97.5)">
<title>gpuNUFFT::GpuNUFFTOperator::~GpuNUFFTOperator</title>
<!-- Node1 -->
<g id="node1" class="node">
<title>Node1</title>
<g id="a_node1"><a xlink:title=" ">
<polygon fill="#bfbfbf" stroke="black" points="0,-24.5 0,-54.5 158,-54.5 158,-24.5 0,-24.5"/>
<text text-anchor="start" x="8" y="-42.5" font-family="FreeSans.ttf" font-size="10.00">gpuNUFFT::GpuNUFFTOperator</text>
<text text-anchor="middle" x="79" y="-31.5" font-family="FreeSans.ttf" font-size="10.00">::~GpuNUFFTOperator</text>
</a>
</g>
</g>
<!-- Node2 -->
<g id="node2" class="node">
<title>Node2</title>
<g id="a_node2"><a xlink:href="classgpuNUFFT_1_1GpuNUFFTOperator.html#a065bb3f71daa7a8eea80f786d0626f59" target="_top" xlink:title="Function to free the neccessary device memory used by the GriddingOperator.">
<polygon fill="none" stroke="black" points="194,-49.5 194,-79.5 352,-79.5 352,-49.5 194,-49.5"/>
<text text-anchor="start" x="202" y="-67.5" font-family="FreeSans.ttf" font-size="10.00">gpuNUFFT::GpuNUFFTOperator</text>
<text text-anchor="middle" x="273" y="-56.5" font-family="FreeSans.ttf" font-size="10.00">::freeDeviceMemory</text>
</a>
</g>
</g>
<!-- Node1&#45;&gt;Node2 -->
<g id="edge1" class="edge">
<title>Node1&#45;&gt;Node2</title>
<path fill="none" stroke="midnightblue" d="M158.09,-49.67C166.6,-50.78 175.3,-51.91 183.92,-53.03"/>
<polygon fill="midnightblue" stroke="midnightblue" points="183.61,-56.52 193.98,-54.34 184.51,-49.58 183.61,-56.52"/>
</g>
<!-- Node6 -->
<g id="node6" class="node">
<title>Node6</title>
<g id="a_node6"><a xlink:href="classgpuNUFFT_1_1GpuNUFFTOperator.html#a6b89e60117097b42a7e53761e1c3f2bc" target="_top" xlink:title=" ">
<polygon fill="none" stroke="black" points="194,-0.5 194,-30.5 352,-30.5 352,-0.5 194,-0.5"/>
<text text-anchor="start" x="202" y="-18.5" font-family="FreeSans.ttf" font-size="10.00">gpuNUFFT::GpuNUFFTOperator</text>
<text text-anchor="middle" x="273" y="-7.5" font-family="FreeSans.ttf" font-size="10.00">::freeLocalMemberArray</text>
</a>
</g>
</g>
<!-- Node1&#45;&gt;Node6 -->
<g id="edge5" class="edge">
<title>Node1&#45;&gt;Node6</title>
<path fill="none" stroke="midnightblue" d="M158.09,-29.74C166.6,-28.67 175.3,-27.59 183.92,-26.51"/>
<polygon fill="midnightblue" stroke="midnightblue" points="184.49,-29.97 193.98,-25.25 183.62,-23.02 184.49,-29.97"/>
</g>
<!-- Node3 -->
<g id="node3" class="node">
<title>Node3</title>
<g id="a_node3"><a xlink:href="cuda__utils_8hpp.html#aaa83ead29bc50e65ae4298d9206a760b" target="_top" xlink:title="Free variable list of device pointers. Use NULL as stopping element.">
<polygon fill="none" stroke="black" points="388,-74 388,-93 507,-93 507,-74 388,-74"/>
<text text-anchor="middle" x="447.5" y="-81" font-family="FreeSans.ttf" font-size="10.00">freeTotalDeviceMemory</text>
</a>
</g>
</g>
<!-- Node2&#45;&gt;Node3 -->
<g id="edge2" class="edge">
<title>Node2&#45;&gt;Node3</title>
<path fill="none" stroke="midnightblue" d="M352.17,-73.11C360.73,-74.05 369.39,-75.01 377.82,-75.94"/>
<polygon fill="midnightblue" stroke="midnightblue" points="377.64,-79.44 387.96,-77.05 378.41,-72.48 377.64,-79.44"/>
</g>
<!-- Node5 -->
<g id="node5" class="node">
<title>Node5</title>
<g id="a_node5"><a xlink:href="cuda__utils_8hpp.html#ad9458f074da29c52d203d541be58971a" target="_top" xlink:title="Debug short device memory information (free/total) to stream if DEBUG flag is set to true.">
<polygon fill="none" stroke="black" points="402,-36 402,-55 493,-55 493,-36 402,-36"/>
<text text-anchor="middle" x="447.5" y="-43" font-family="FreeSans.ttf" font-size="10.00">showMemoryInfo</text>
</a>
</g>
</g>
<!-- Node2&#45;&gt;Node5 -->
<g id="edge4" class="edge">
<title>Node2&#45;&gt;Node5</title>
<path fill="none" stroke="midnightblue" d="M352.17,-55.89C365.41,-54.43 378.89,-52.95 391.38,-51.57"/>
<polygon fill="midnightblue" stroke="midnightblue" points="392.04,-55.02 401.6,-50.45 391.28,-48.06 392.04,-55.02"/>
</g>
<!-- Node4 -->
<g id="node4" class="node">
<title>Node4</title>
<g id="a_node4"><a xlink:href="cuda__utils_8hpp.html#a6ffa821f98a8c2b391c12c01308ff1db" target="_top" xlink:title="Free of device memory.">
<polygon fill="none" stroke="black" points="543,-74 543,-93 628,-93 628,-74 543,-74"/>
<text text-anchor="middle" x="585.5" y="-81" font-family="FreeSans.ttf" font-size="10.00">freeDeviceMem</text>
</a>
</g>
</g>
<!-- Node3&#45;&gt;Node4 -->
<g id="edge3" class="edge">
<title>Node3&#45;&gt;Node4</title>
<path fill="none" stroke="midnightblue" d="M507.36,-83.5C515.74,-83.5 524.31,-83.5 532.54,-83.5"/>
<polygon fill="midnightblue" stroke="midnightblue" points="532.76,-87 542.76,-83.5 532.76,-80 532.76,-87"/>
</g>
</g>
</svg>
