<?xml version="1.0" encoding="UTF-8" standalone="no"?>
<!DOCTYPE svg PUBLIC "-//W3C//DTD SVG 1.1//EN"
 "http://www.w3.org/Graphics/SVG/1.1/DTD/svg11.dtd">
<!-- Generated by graphviz version 2.49.3 (20211027.1534)
 -->
<!-- Title: GpuNUFFTPythonOperator Pages: 1 -->
<svg width="419pt" height="195pt"
 viewBox="0.00 0.00 419.00 195.00" xmlns="http://www.w3.org/2000/svg" xmlns:xlink="http://www.w3.org/1999/xlink">
<g id="graph0" class="graph" transform="scale(1 1) rotate(0) translate(4 191)">
<title>GpuNUFFTPythonOperator</title>
<!-- Node1 -->
<g id="node1" class="node">
<title>Node1</title>
<g id="a_node1"><a xlink:title="Create the bindings for Python module.">
<polygon fill="#bfbfbf" stroke="black" points="126.5,-0.5 126.5,-19.5 261.5,-19.5 261.5,-0.5 126.5,-0.5"/>
<text text-anchor="middle" x="194" y="-7.5" font-family="FreeSans.ttf" font-size="10.00">GpuNUFFTPythonOperator</text>
</a>
</g>
</g>
<!-- Node2 -->
<g id="node2" class="node">
<title>Node2</title>
<g id="a_node2"><a xlink:href="classgpuNUFFT_1_1GpuNUFFTOperatorFactory.html" target="_top" xlink:title="Manages the initialization of the GpuNUFFT Operator and its sub classes.">
<polygon fill="none" stroke="black" points="0,-67.5 0,-97.5 158,-97.5 158,-67.5 0,-67.5"/>
<text text-anchor="start" x="8" y="-85.5" font-family="FreeSans.ttf" font-size="10.00">gpuNUFFT::GpuNUFFTOperator</text>
<text text-anchor="middle" x="79" y="-74.5" font-family="FreeSans.ttf" font-size="10.00">Factory</text>
</a>
</g>
</g>
<!-- Node2&#45;&gt;Node1 -->
<g id="edge1" class="edge">
<title>Node2&#45;&gt;Node1</title>
<path fill="none" stroke="#9a32cd" stroke-dasharray="5,2" d="M109.65,-61.89C121.57,-54.33 135.37,-45.68 148,-38 158.28,-31.74 169.99,-24.88 179.01,-19.64"/>
<polygon fill="#9a32cd" stroke="#9a32cd" points="107.52,-59.09 100.95,-67.41 111.27,-65 107.52,-59.09"/>
<text text-anchor="middle" x="164" y="-41" font-family="FreeSans.ttf" font-size="10.00"> factory</text>
</g>
<!-- Node3 -->
<g id="node3" class="node">
<title>Node3</title>
<g id="a_node3"><a xlink:href="classgpuNUFFT_1_1GpuNUFFTOperator.html" target="_top" xlink:title="Main &quot;Operator&quot; used for gridding operations.">
<polygon fill="none" stroke="black" points="253,-73 253,-92 411,-92 411,-73 253,-73"/>
<text text-anchor="middle" x="332" y="-80" font-family="FreeSans.ttf" font-size="10.00">gpuNUFFT::GpuNUFFTOperator</text>
</a>
</g>
</g>
<!-- Node3&#45;&gt;Node1 -->
<g id="edge2" class="edge">
<title>Node3&#45;&gt;Node1</title>
<path fill="none" stroke="#9a32cd" stroke-dasharray="5,2" d="M306.18,-68.31C278.23,-54.03 234.46,-31.67 210.71,-19.53"/>
<polygon fill="#9a32cd" stroke="#9a32cd" points="304.86,-71.56 315.35,-73 308.04,-65.33 304.86,-71.56"/>
<text text-anchor="middle" x="300" y="-41" font-family="FreeSans.ttf" font-size="10.00"> gpuNUFFTOp</text>
</g>
<!-- Node4 -->
<g id="node4" class="node">
<title>Node4</title>
<g id="a_node4"><a xlink:href="structgpuNUFFT_1_1Dimensions.html" target="_top" xlink:title="Data dimension struct.">
<polygon fill="none" stroke="black" points="133.5,-167.5 133.5,-186.5 254.5,-186.5 254.5,-167.5 133.5,-167.5"/>
<text text-anchor="middle" x="194" y="-174.5" font-family="FreeSans.ttf" font-size="10.00">gpuNUFFT::Dimensions</text>
</a>
</g>
</g>
<!-- Node4&#45;&gt;Node1 -->
<g id="edge5" class="edge">
<title>Node4&#45;&gt;Node1</title>
<path fill="none" stroke="#9a32cd" stroke-dasharray="5,2" d="M194,-157.04C194,-121.25 194,-45.03 194,-19.52"/>
<polygon fill="#9a32cd" stroke="#9a32cd" points="190.5,-157.13 194,-167.13 197.5,-157.13 190.5,-157.13"/>
<text text-anchor="middle" x="214.5" y="-80" font-family="FreeSans.ttf" font-size="10.00"> imgDims</text>
</g>
<!-- Node4&#45;&gt;Node3 -->
<g id="edge3" class="edge">
<title>Node4&#45;&gt;Node3</title>
<path fill="none" stroke="#9a32cd" stroke-dasharray="5,2" d="M209.4,-160.06C222.53,-147.07 242.35,-128.84 262,-116 276.92,-106.25 295.23,-97.86 309.38,-92.05"/>
<polygon fill="#9a32cd" stroke="#9a32cd" points="206.7,-157.81 202.15,-167.37 211.67,-162.74 206.7,-157.81"/>
<text text-anchor="middle" x="297" y="-141" font-family="FreeSans.ttf" font-size="10.00"> gridSectorDims</text>
<text text-anchor="middle" x="297" y="-130" font-family="FreeSans.ttf" font-size="10.00">imgDims</text>
<text text-anchor="middle" x="297" y="-119" font-family="FreeSans.ttf" font-size="10.00">sectorDims</text>
</g>
<!-- Node5 -->
<g id="node5" class="node">
<title>Node5</title>
<g id="a_node5"><a xlink:href="structgpuNUFFT_1_1GpuNUFFTInfo.html" target="_top" xlink:title="Struct containing meta information of the current Gridding Problem. Used in most GPU operations.">
<polygon fill="none" stroke="black" points="272.5,-167.5 272.5,-186.5 409.5,-186.5 409.5,-167.5 272.5,-167.5"/>
<text text-anchor="middle" x="341" y="-174.5" font-family="FreeSans.ttf" font-size="10.00">gpuNUFFT::GpuNUFFTInfo</text>
</a>
</g>
</g>
<!-- Node5&#45;&gt;Node3 -->
<g id="edge4" class="edge">
<title>Node5&#45;&gt;Node3</title>
<path fill="none" stroke="#9a32cd" stroke-dasharray="5,2" d="M339.19,-157.44C337.26,-137.54 334.27,-106.8 332.83,-92.02"/>
<polygon fill="#9a32cd" stroke="#9a32cd" points="335.72,-157.85 340.17,-167.46 342.68,-157.17 335.72,-157.85"/>
<text text-anchor="middle" x="356" y="-130" font-family="FreeSans.ttf" font-size="10.00"> gi_host</text>
</g>
</g>
</svg>
