<?xml version="1.0" encoding="UTF-8" standalone="no"?>
<!DOCTYPE svg PUBLIC "-//W3C//DTD SVG 1.1//EN"
 "http://www.w3.org/Graphics/SVG/1.1/DTD/svg11.dtd">
<!-- Generated by graphviz version 2.49.3 (20211027.1534)
 -->
<!-- Title: gpuNUFFT::BalancedTextureGpuNUFFTOperator Pages: 1 -->
<svg width="366pt" height="151pt"
 viewBox="0.00 0.00 365.50 151.00" xmlns="http://www.w3.org/2000/svg" xmlns:xlink="http://www.w3.org/1999/xlink">
<g id="graph0" class="graph" transform="scale(1 1) rotate(0) translate(4 147)">
<title>gpuNUFFT::BalancedTextureGpuNUFFTOperator</title>
<!-- Node1 -->
<g id="node1" class="node">
<title>Node1</title>
<g id="a_node1"><a xlink:title="GpuNUFFTOperator with load balancing and texture memory lookup.">
<polygon fill="#bfbfbf" stroke="black" points="118,-0.5 118,-30.5 261,-30.5 261,-0.5 118,-0.5"/>
<text text-anchor="start" x="126" y="-18.5" font-family="FreeSans.ttf" font-size="10.00">gpuNUFFT::BalancedTexture</text>
<text text-anchor="middle" x="189.5" y="-7.5" font-family="FreeSans.ttf" font-size="10.00">GpuNUFFTOperator</text>
</a>
</g>
</g>
<!-- Node2 -->
<g id="node2" class="node">
<title>Node2</title>
<g id="a_node2"><a xlink:href="classgpuNUFFT_1_1TextureGpuNUFFTOperator.html" target="_top" xlink:title="GpuNUFFTOperator with texture memory lookup.">
<polygon fill="none" stroke="black" points="0,-67.5 0,-86.5 191,-86.5 191,-67.5 0,-67.5"/>
<text text-anchor="middle" x="95.5" y="-74.5" font-family="FreeSans.ttf" font-size="10.00">gpuNUFFT::TextureGpuNUFFTOperator</text>
</a>
</g>
</g>
<!-- Node2&#45;&gt;Node1 -->
<g id="edge1" class="edge">
<title>Node2&#45;&gt;Node1</title>
<path fill="none" stroke="midnightblue" d="M117.6,-62.01C132.6,-52.52 152.34,-40.02 167.35,-30.52"/>
<polygon fill="midnightblue" stroke="midnightblue" points="115.55,-59.17 108.97,-67.48 119.29,-65.08 115.55,-59.17"/>
</g>
<!-- Node3 -->
<g id="node3" class="node">
<title>Node3</title>
<g id="a_node3"><a xlink:href="classgpuNUFFT_1_1GpuNUFFTOperator.html" target="_top" xlink:title="Main &quot;Operator&quot; used for gridding operations.">
<polygon fill="none" stroke="black" points="16.5,-123.5 16.5,-142.5 174.5,-142.5 174.5,-123.5 16.5,-123.5"/>
<text text-anchor="middle" x="95.5" y="-130.5" font-family="FreeSans.ttf" font-size="10.00">gpuNUFFT::GpuNUFFTOperator</text>
</a>
</g>
</g>
<!-- Node3&#45;&gt;Node2 -->
<g id="edge2" class="edge">
<title>Node3&#45;&gt;Node2</title>
<path fill="none" stroke="midnightblue" d="M95.5,-112.8C95.5,-103.91 95.5,-93.78 95.5,-86.75"/>
<polygon fill="midnightblue" stroke="midnightblue" points="92,-113.08 95.5,-123.08 99,-113.08 92,-113.08"/>
</g>
<!-- Node4 -->
<g id="node4" class="node">
<title>Node4</title>
<g id="a_node4"><a xlink:href="classgpuNUFFT_1_1BalancedOperator.html" target="_top" xlink:title="Interface defined for balanced gpuNUFFT Operators.">
<polygon fill="none" stroke="black" points="209.5,-67.5 209.5,-86.5 357.5,-86.5 357.5,-67.5 209.5,-67.5"/>
<text text-anchor="middle" x="283.5" y="-74.5" font-family="FreeSans.ttf" font-size="10.00">gpuNUFFT::BalancedOperator</text>
</a>
</g>
</g>
<!-- Node4&#45;&gt;Node1 -->
<g id="edge3" class="edge">
<title>Node4&#45;&gt;Node1</title>
<path fill="none" stroke="midnightblue" d="M261.4,-62.01C246.4,-52.52 226.66,-40.02 211.65,-30.52"/>
<polygon fill="midnightblue" stroke="midnightblue" points="259.71,-65.08 270.03,-67.48 263.45,-59.17 259.71,-65.08"/>
</g>
</g>
</svg>
