<?xml version="1.0" encoding="UTF-8" standalone="no"?>
<!DOCTYPE svg PUBLIC "-//W3C//DTD SVG 1.1//EN"
 "http://www.w3.org/Graphics/SVG/1.1/DTD/svg11.dtd">
<!-- Generated by graphviz version 2.49.3 (20211027.1534)
 -->
<!-- Title: gpuNUFFT::GpuNUFFTOperator::getGridDims Pages: 1 -->
<svg width="420pt" height="186pt"
 viewBox="0.00 0.00 420.00 186.00" xmlns="http://www.w3.org/2000/svg" xmlns:xlink="http://www.w3.org/1999/xlink">
<g id="graph0" class="graph" transform="scale(1 1) rotate(0) translate(4 182)">
<title>gpuNUFFT::GpuNUFFTOperator::getGridDims</title>
<!-- Node1 -->
<g id="node1" class="node">
<title>Node1</title>
<g id="a_node1"><a xlink:title=" ">
<polygon fill="#bfbfbf" stroke="black" points="254,-73.5 254,-103.5 412,-103.5 412,-73.5 254,-73.5"/>
<text text-anchor="start" x="262" y="-91.5" font-family="FreeSans.ttf" font-size="10.00">gpuNUFFT::GpuNUFFTOperator</text>
<text text-anchor="middle" x="333" y="-80.5" font-family="FreeSans.ttf" font-size="10.00">::getGridDims</text>
</a>
</g>
</g>
<!-- Node2 -->
<g id="node2" class="node">
<title>Node2</title>
<g id="a_node2"><a xlink:href="classgpuNUFFT_1_1GpuNUFFTOperatorFactory.html#afa72b607029c78d61b6e01d45077998e" target="_top" xlink:title="Assign the samples on the k&#45;space trajectory to its corresponding sector.">
<polygon fill="none" stroke="black" points="30,-147.5 30,-177.5 188,-177.5 188,-147.5 30,-147.5"/>
<text text-anchor="start" x="38" y="-165.5" font-family="FreeSans.ttf" font-size="10.00">gpuNUFFT::GpuNUFFTOperator</text>
<text text-anchor="middle" x="109" y="-154.5" font-family="FreeSans.ttf" font-size="10.00">Factory::assignSectors</text>
</a>
</g>
</g>
<!-- Node1&#45;&gt;Node2 -->
<g id="edge1" class="edge">
<title>Node1&#45;&gt;Node2</title>
<path fill="none" stroke="midnightblue" d="M292.94,-107.89C271.27,-118.07 243.59,-130.13 218,-138.5 207.87,-141.81 197.05,-144.82 186.33,-147.49"/>
<polygon fill="midnightblue" stroke="midnightblue" points="294.62,-110.97 302.14,-103.51 291.61,-104.65 294.62,-110.97"/>
</g>
<!-- Node3 -->
<g id="node3" class="node">
<title>Node3</title>
<g id="a_node3"><a xlink:href="classgpuNUFFT_1_1GpuNUFFTOperatorFactory.html#a82e185db6eda1edb359df5a580be7b37" target="_top" xlink:title="Computation of the deapodization function.">
<polygon fill="none" stroke="black" points="14.5,-98.5 14.5,-128.5 203.5,-128.5 203.5,-98.5 14.5,-98.5"/>
<text text-anchor="start" x="22.5" y="-116.5" font-family="FreeSans.ttf" font-size="10.00">gpuNUFFT::GpuNUFFTOperator</text>
<text text-anchor="middle" x="109" y="-105.5" font-family="FreeSans.ttf" font-size="10.00">Factory::computeDeapodizationFunction</text>
</a>
</g>
</g>
<!-- Node1&#45;&gt;Node3 -->
<g id="edge2" class="edge">
<title>Node1&#45;&gt;Node3</title>
<path fill="none" stroke="midnightblue" d="M243.73,-98.44C230.52,-99.93 216.85,-101.47 203.54,-102.97"/>
<polygon fill="midnightblue" stroke="midnightblue" points="244.19,-101.91 253.73,-97.31 243.4,-94.96 244.19,-101.91"/>
</g>
<!-- Node4 -->
<g id="node4" class="node">
<title>Node4</title>
<g id="a_node4"><a xlink:href="classgpuNUFFT_1_1GpuNUFFTOperator.html#a3afe5838f69b6b22db8336e57e2e540d" target="_top" xlink:title="Return Grid Width (ImageWidth * osf)">
<polygon fill="none" stroke="black" points="30,-49.5 30,-79.5 188,-79.5 188,-49.5 30,-49.5"/>
<text text-anchor="start" x="38" y="-67.5" font-family="FreeSans.ttf" font-size="10.00">gpuNUFFT::GpuNUFFTOperator</text>
<text text-anchor="middle" x="109" y="-56.5" font-family="FreeSans.ttf" font-size="10.00">::getGridWidth</text>
</a>
</g>
</g>
<!-- Node1&#45;&gt;Node4 -->
<g id="edge3" class="edge">
<title>Node1&#45;&gt;Node4</title>
<path fill="none" stroke="midnightblue" d="M243.67,-78.95C225.37,-76.97 206.22,-74.9 188.31,-72.97"/>
<polygon fill="midnightblue" stroke="midnightblue" points="243.41,-82.44 253.73,-80.04 244.17,-75.48 243.41,-82.44"/>
</g>
<!-- Node5 -->
<g id="node5" class="node">
<title>Node5</title>
<g id="a_node5"><a xlink:href="classgpuNUFFT_1_1GpuNUFFTOperatorFactory.html#aa5cecffe2b150073fd71145317ae308b" target="_top" xlink:title="Load GpuNUFFT Operator from previously computed mappings.">
<polygon fill="none" stroke="black" points="0,-0.5 0,-30.5 218,-30.5 218,-0.5 0,-0.5"/>
<text text-anchor="start" x="8" y="-18.5" font-family="FreeSans.ttf" font-size="10.00">gpuNUFFT::GpuNUFFTOperator</text>
<text text-anchor="middle" x="109" y="-7.5" font-family="FreeSans.ttf" font-size="10.00">Factory::loadPrecomputedGpuNUFFTOperator</text>
</a>
</g>
</g>
<!-- Node1&#45;&gt;Node5 -->
<g id="edge4" class="edge">
<title>Node1&#45;&gt;Node5</title>
<path fill="none" stroke="midnightblue" d="M291,-69.23C269.58,-59.68 242.74,-48.51 218,-40.5 206.74,-36.86 194.66,-33.52 182.79,-30.55"/>
<polygon fill="midnightblue" stroke="midnightblue" points="289.57,-72.42 300.13,-73.35 292.45,-66.04 289.57,-72.42"/>
</g>
</g>
</svg>
