<?xml version="1.0" encoding="UTF-8" standalone="no"?>
<!DOCTYPE svg PUBLIC "-//W3C//DTD SVG 1.1//EN"
 "http://www.w3.org/Graphics/SVG/1.1/DTD/svg11.dtd">
<!-- Generated by graphviz version 2.49.3 (20211027.1534)
 -->
<!-- Title: gpuNUFFT::GpuNUFFTOperator Pages: 1 -->
<svg width="416pt" height="151pt"
 viewBox="0.00 0.00 416.00 151.00" xmlns="http://www.w3.org/2000/svg" xmlns:xlink="http://www.w3.org/1999/xlink">
<g id="graph0" class="graph" transform="scale(1 1) rotate(0) translate(4 147)">
<title>gpuNUFFT::GpuNUFFTOperator</title>
<!-- Node1 -->
<g id="node1" class="node">
<title>Node1</title>
<g id="a_node1"><a xlink:title="Main &quot;Operator&quot; used for gridding operations.">
<polygon fill="#bfbfbf" stroke="black" points="126.5,-123.5 126.5,-142.5 284.5,-142.5 284.5,-123.5 126.5,-123.5"/>
<text text-anchor="middle" x="205.5" y="-130.5" font-family="FreeSans.ttf" font-size="10.00">gpuNUFFT::GpuNUFFTOperator</text>
</a>
</g>
</g>
<!-- Node2 -->
<g id="node2" class="node">
<title>Node2</title>
<g id="a_node2"><a xlink:href="classgpuNUFFT_1_1BalancedGpuNUFFTOperator.html" target="_top" xlink:title="Balanced GpuNUFFTOperator inherited from gpuNUFFT::GpuNUFFTOperator.">
<polygon fill="none" stroke="black" points="0,-67.5 0,-86.5 199,-86.5 199,-67.5 0,-67.5"/>
<text text-anchor="middle" x="99.5" y="-74.5" font-family="FreeSans.ttf" font-size="10.00">gpuNUFFT::BalancedGpuNUFFTOperator</text>
</a>
</g>
</g>
<!-- Node1&#45;&gt;Node2 -->
<g id="edge1" class="edge">
<title>Node1&#45;&gt;Node2</title>
<path fill="none" stroke="midnightblue" d="M179.44,-118.73C159.82,-108.73 133.47,-95.31 116.49,-86.65"/>
<polygon fill="midnightblue" stroke="midnightblue" points="177.97,-121.9 188.47,-123.32 181.15,-115.67 177.97,-121.9"/>
</g>
<!-- Node3 -->
<g id="node3" class="node">
<title>Node3</title>
<g id="a_node3"><a xlink:href="classgpuNUFFT_1_1TextureGpuNUFFTOperator.html" target="_top" xlink:title="GpuNUFFTOperator with texture memory lookup.">
<polygon fill="none" stroke="black" points="217,-67.5 217,-86.5 408,-86.5 408,-67.5 217,-67.5"/>
<text text-anchor="middle" x="312.5" y="-74.5" font-family="FreeSans.ttf" font-size="10.00">gpuNUFFT::TextureGpuNUFFTOperator</text>
</a>
</g>
</g>
<!-- Node1&#45;&gt;Node3 -->
<g id="edge2" class="edge">
<title>Node1&#45;&gt;Node3</title>
<path fill="none" stroke="midnightblue" d="M231.8,-118.73C251.61,-108.73 278.21,-95.31 295.35,-86.65"/>
<polygon fill="midnightblue" stroke="midnightblue" points="230.04,-115.69 222.69,-123.32 233.2,-121.94 230.04,-115.69"/>
</g>
<!-- Node4 -->
<g id="node4" class="node">
<title>Node4</title>
<g id="a_node4"><a xlink:href="classgpuNUFFT_1_1BalancedTextureGpuNUFFTOperator.html" target="_top" xlink:title="GpuNUFFTOperator with load balancing and texture memory lookup.">
<polygon fill="none" stroke="black" points="241,-0.5 241,-30.5 384,-30.5 384,-0.5 241,-0.5"/>
<text text-anchor="start" x="249" y="-18.5" font-family="FreeSans.ttf" font-size="10.00">gpuNUFFT::BalancedTexture</text>
<text text-anchor="middle" x="312.5" y="-7.5" font-family="FreeSans.ttf" font-size="10.00">GpuNUFFTOperator</text>
</a>
</g>
</g>
<!-- Node3&#45;&gt;Node4 -->
<g id="edge3" class="edge">
<title>Node3&#45;&gt;Node4</title>
<path fill="none" stroke="midnightblue" d="M312.5,-57.23C312.5,-48.59 312.5,-38.5 312.5,-30.52"/>
<polygon fill="midnightblue" stroke="midnightblue" points="309,-57.48 312.5,-67.48 316,-57.48 309,-57.48"/>
</g>
</g>
</svg>
