<?xml version="1.0" encoding="UTF-8" standalone="no"?>
<!DOCTYPE svg PUBLIC "-//W3C//DTD SVG 1.1//EN"
 "http://www.w3.org/Graphics/SVG/1.1/DTD/svg11.dtd">
<!-- Generated by graphviz version 2.49.3 (20211027.1534)
 -->
<!-- Title: gpuNUFFT::BalancedGpuNUFFTOperator::initAndCopyGpuNUFFTInfo Pages: 1 -->
<svg width="728pt" height="113pt"
 viewBox="0.00 0.00 728.00 113.00" xmlns="http://www.w3.org/2000/svg" xmlns:xlink="http://www.w3.org/1999/xlink">
<g id="graph0" class="graph" transform="scale(1 1) rotate(0) translate(4 109)">
<title>gpuNUFFT::BalancedGpuNUFFTOperator::initAndCopyGpuNUFFTInfo</title>
<!-- Node1 -->
<g id="node1" class="node">
<title>Node1</title>
<g id="a_node1"><a xlink:title="Virtual method to perform precomputation of all neccessary meta information used in the gridding step...">
<polygon fill="#bfbfbf" stroke="black" points="0,-58 0,-88 199,-88 199,-58 0,-58"/>
<text text-anchor="start" x="8" y="-76" font-family="FreeSans.ttf" font-size="10.00">gpuNUFFT::BalancedGpuNUFFTOperator</text>
<text text-anchor="middle" x="99.5" y="-65" font-family="FreeSans.ttf" font-size="10.00">::initAndCopyGpuNUFFTInfo</text>
</a>
</g>
</g>
<!-- Node2 -->
<g id="node2" class="node">
<title>Node2</title>
<g id="a_node2"><a xlink:href="cuda__utils_8hpp.html#a7ac606afbf03e74f64780e01d12aa64b" target="_top" xlink:title="Initialize constant symbol on device.">
<polygon fill="none" stroke="black" points="270.5,-85.5 270.5,-104.5 357.5,-104.5 357.5,-85.5 270.5,-85.5"/>
<text text-anchor="middle" x="314" y="-92.5" font-family="FreeSans.ttf" font-size="10.00">initConstSymbol</text>
</a>
</g>
</g>
<!-- Node1&#45;&gt;Node2 -->
<g id="edge1" class="edge">
<title>Node1&#45;&gt;Node2</title>
<path fill="none" stroke="midnightblue" d="M199.28,-83.23C220.41,-85.41 241.93,-87.64 260.48,-89.56"/>
<polygon fill="midnightblue" stroke="midnightblue" points="260.16,-93.05 270.46,-90.6 260.88,-86.09 260.16,-93.05"/>
</g>
<!-- Node3 -->
<g id="node3" class="node">
<title>Node3</title>
<g id="a_node3"><a xlink:href="classgpuNUFFT_1_1GpuNUFFTOperator.html#a1d1ee62639349d3409ad96366b082c07" target="_top" xlink:title="Compute all neccessary meta information used in the gridding steps.">
<polygon fill="none" stroke="black" points="235,-36 235,-66 393,-66 393,-36 235,-36"/>
<text text-anchor="start" x="243" y="-54" font-family="FreeSans.ttf" font-size="10.00">gpuNUFFT::GpuNUFFTOperator</text>
<text text-anchor="middle" x="314" y="-43" font-family="FreeSans.ttf" font-size="10.00">::initGpuNUFFTInfo</text>
</a>
</g>
</g>
<!-- Node1&#45;&gt;Node3 -->
<g id="edge2" class="edge">
<title>Node1&#45;&gt;Node3</title>
<path fill="none" stroke="midnightblue" d="M199.28,-62.77C207.76,-61.9 216.3,-61.01 224.69,-60.14"/>
<polygon fill="midnightblue" stroke="midnightblue" points="225.24,-63.6 234.83,-59.09 224.52,-56.64 225.24,-63.6"/>
</g>
<!-- Node4 -->
<g id="node4" class="node">
<title>Node4</title>
<g id="a_node4"><a xlink:href="structgpuNUFFT_1_1Dimensions.html#a4c589934c5444910fbcd890d128229c9" target="_top" xlink:title="Compute total count of array length.">
<polygon fill="none" stroke="black" points="429,-58 429,-88 550,-88 550,-58 429,-58"/>
<text text-anchor="start" x="437" y="-76" font-family="FreeSans.ttf" font-size="10.00">gpuNUFFT::Dimensions</text>
<text text-anchor="middle" x="489.5" y="-65" font-family="FreeSans.ttf" font-size="10.00">::count</text>
</a>
</g>
</g>
<!-- Node3&#45;&gt;Node4 -->
<g id="edge3" class="edge">
<title>Node3&#45;&gt;Node4</title>
<path fill="none" stroke="midnightblue" d="M393.12,-60.91C401.63,-61.98 410.24,-63.08 418.64,-64.14"/>
<polygon fill="midnightblue" stroke="midnightblue" points="418.39,-67.64 428.75,-65.42 419.27,-60.69 418.39,-67.64"/>
</g>
<!-- Node5 -->
<g id="node5" class="node">
<title>Node5</title>
<g id="a_node5"><a xlink:href="gpuNUFFT__utils_8hpp.html#a18dd3c6c4b8ac5f6947f3dc1c59651bc" target="_top" xlink:title="Interpolation Kernel evaluation for radius.">
<polygon fill="none" stroke="black" points="468,-19.5 468,-38.5 511,-38.5 511,-19.5 468,-19.5"/>
<text text-anchor="middle" x="489.5" y="-26.5" font-family="FreeSans.ttf" font-size="10.00">kernel</text>
</a>
</g>
</g>
<!-- Node3&#45;&gt;Node5 -->
<g id="edge4" class="edge">
<title>Node3&#45;&gt;Node5</title>
<path fill="none" stroke="midnightblue" d="M393.12,-41.09C416.13,-38.18 439.95,-35.16 458.04,-32.86"/>
<polygon fill="midnightblue" stroke="midnightblue" points="458.49,-36.33 467.97,-31.6 457.61,-29.39 458.49,-36.33"/>
</g>
<!-- Node6 -->
<g id="node6" class="node">
<title>Node6</title>
<g id="a_node6"><a xlink:href="gpuNUFFT__utils_8hpp.html#aa7b00d423ae0e06388b55594fe1adb93" target="_top" xlink:title="beta function used in interpolation function. See Beatty et al.">
<polygon fill="none" stroke="black" points="678,-47.5 678,-66.5 720,-66.5 720,-47.5 678,-47.5"/>
<text text-anchor="middle" x="699" y="-54.5" font-family="FreeSans.ttf" font-size="10.00">BETA</text>
</a>
</g>
</g>
<!-- Node5&#45;&gt;Node6 -->
<g id="edge5" class="edge">
<title>Node5&#45;&gt;Node6</title>
<path fill="none" stroke="midnightblue" d="M511.25,-33.85C530.51,-38.18 560.05,-44.39 586,-48 613.52,-51.83 645.09,-54.18 667.68,-55.52"/>
<polygon fill="midnightblue" stroke="midnightblue" points="667.51,-59.02 677.69,-56.08 667.9,-52.03 667.51,-59.02"/>
</g>
<!-- Node7 -->
<g id="node7" class="node">
<title>Node7</title>
<g id="a_node7"><a xlink:href="gpuNUFFT__utils_8cpp.html#a5472cb661dea68a2ab2b52df187b6291" target="_top" xlink:title="Modified Kaiser Bessel function of zero&#45;th order.">
<polygon fill="none" stroke="black" points="684.5,-0.5 684.5,-19.5 713.5,-19.5 713.5,-0.5 684.5,-0.5"/>
<text text-anchor="middle" x="699" y="-7.5" font-family="FreeSans.ttf" font-size="10.00">i0</text>
</a>
</g>
</g>
<!-- Node5&#45;&gt;Node7 -->
<g id="edge6" class="edge">
<title>Node5&#45;&gt;Node7</title>
<path fill="none" stroke="midnightblue" d="M511.19,-23.66C530.41,-18.99 559.92,-12.57 586,-10 616.27,-7.02 651.36,-7.68 674.08,-8.65"/>
<polygon fill="midnightblue" stroke="midnightblue" points="674.01,-12.15 684.16,-9.13 674.34,-5.15 674.01,-12.15"/>
</g>
<!-- Node8 -->
<g id="node8" class="node">
<title>Node8</title>
<g id="a_node8"><a xlink:href="gpuNUFFT__utils_8hpp.html#ab1456ac35fe51fc4dac2e0054f6d9a50" target="_top" xlink:title="I_0 function used in interpolation function. See Beatty et al.">
<polygon fill="none" stroke="black" points="586,-19.5 586,-38.5 642,-38.5 642,-19.5 586,-19.5"/>
<text text-anchor="middle" x="614" y="-26.5" font-family="FreeSans.ttf" font-size="10.00">I0_BETA</text>
</a>
</g>
</g>
<!-- Node5&#45;&gt;Node8 -->
<g id="edge7" class="edge">
<title>Node5&#45;&gt;Node8</title>
<path fill="none" stroke="midnightblue" d="M511,-29C528.68,-29 554.64,-29 575.95,-29"/>
<polygon fill="midnightblue" stroke="midnightblue" points="575.98,-32.5 585.98,-29 575.98,-25.5 575.98,-32.5"/>
</g>
<!-- Node8&#45;&gt;Node6 -->
<g id="edge8" class="edge">
<title>Node8&#45;&gt;Node6</title>
<path fill="none" stroke="midnightblue" d="M642.18,-38.17C650.54,-40.99 659.78,-44.11 668.3,-46.98"/>
<polygon fill="midnightblue" stroke="midnightblue" points="667.28,-50.33 677.87,-50.21 669.52,-43.7 667.28,-50.33"/>
</g>
<!-- Node8&#45;&gt;Node7 -->
<g id="edge9" class="edge">
<title>Node8&#45;&gt;Node7</title>
<path fill="none" stroke="midnightblue" d="M642.18,-22.78C652.45,-20.43 664.07,-17.77 674.03,-15.49"/>
<polygon fill="midnightblue" stroke="midnightblue" points="675.08,-18.84 684.05,-13.19 673.52,-12.01 675.08,-18.84"/>
</g>
</g>
</svg>
