<?xml version="1.0" encoding="UTF-8" standalone="no"?>
<!DOCTYPE svg PUBLIC "-//W3C//DTD SVG 1.1//EN"
 "http://www.w3.org/Graphics/SVG/1.1/DTD/svg11.dtd">
<!-- Generated by graphviz version 2.49.3 (20211027.1534)
 -->
<!-- Title: gpuNUFFT::GpuNUFFTOperator::getGridSectorDims Pages: 1 -->
<svg width="367pt" height="186pt"
 viewBox="0.00 0.00 367.00 186.00" xmlns="http://www.w3.org/2000/svg" xmlns:xlink="http://www.w3.org/1999/xlink">
<g id="graph0" class="graph" transform="scale(1 1) rotate(0) translate(4 182)">
<title>gpuNUFFT::GpuNUFFTOperator::getGridSectorDims</title>
<!-- Node1 -->
<g id="node1" class="node">
<title>Node1</title>
<g id="a_node1"><a xlink:title=" ">
<polygon fill="#bfbfbf" stroke="black" points="201,-73.5 201,-103.5 359,-103.5 359,-73.5 201,-73.5"/>
<text text-anchor="start" x="209" y="-91.5" font-family="FreeSans.ttf" font-size="10.00">gpuNUFFT::GpuNUFFTOperator</text>
<text text-anchor="middle" x="280" y="-80.5" font-family="FreeSans.ttf" font-size="10.00">::getGridSectorDims</text>
</a>
</g>
</g>
<!-- Node2 -->
<g id="node2" class="node">
<title>Node2</title>
<g id="a_node2"><a xlink:href="classgpuNUFFT_1_1GpuNUFFTOperatorFactory.html#afa72b607029c78d61b6e01d45077998e" target="_top" xlink:title="Assign the samples on the k&#45;space trajectory to its corresponding sector.">
<polygon fill="none" stroke="black" points="3.5,-147.5 3.5,-177.5 161.5,-177.5 161.5,-147.5 3.5,-147.5"/>
<text text-anchor="start" x="11.5" y="-165.5" font-family="FreeSans.ttf" font-size="10.00">gpuNUFFT::GpuNUFFTOperator</text>
<text text-anchor="middle" x="82.5" y="-154.5" font-family="FreeSans.ttf" font-size="10.00">Factory::assignSectors</text>
</a>
</g>
</g>
<!-- Node1&#45;&gt;Node2 -->
<g id="edge1" class="edge">
<title>Node1&#45;&gt;Node2</title>
<path fill="none" stroke="midnightblue" d="M238.33,-107.84C216.8,-117.69 189.76,-129.47 165,-138.5 156.41,-141.63 147.2,-144.66 138.17,-147.44"/>
<polygon fill="midnightblue" stroke="midnightblue" points="239.89,-110.98 247.5,-103.61 236.95,-104.62 239.89,-110.98"/>
</g>
<!-- Node3 -->
<g id="node3" class="node">
<title>Node3</title>
<g id="a_node3"><a xlink:href="classgpuNUFFT_1_1GpuNUFFTOperatorFactory.html#a62c51a180bf592a0fa82343ed7b4daed" target="_top" xlink:title="Compute sector centers array.">
<polygon fill="none" stroke="black" points="3.5,-98.5 3.5,-128.5 161.5,-128.5 161.5,-98.5 3.5,-98.5"/>
<text text-anchor="start" x="11.5" y="-116.5" font-family="FreeSans.ttf" font-size="10.00">gpuNUFFT::GpuNUFFTOperator</text>
<text text-anchor="middle" x="82.5" y="-105.5" font-family="FreeSans.ttf" font-size="10.00">Factory::computeSectorCenters</text>
</a>
</g>
</g>
<!-- Node1&#45;&gt;Node3 -->
<g id="edge2" class="edge">
<title>Node1&#45;&gt;Node3</title>
<path fill="none" stroke="midnightblue" d="M190.86,-99.77C181.17,-101.01 171.36,-102.26 161.8,-103.49"/>
<polygon fill="midnightblue" stroke="midnightblue" points="191.42,-103.23 200.89,-98.49 190.53,-96.29 191.42,-103.23"/>
</g>
<!-- Node4 -->
<g id="node4" class="node">
<title>Node4</title>
<g id="a_node4"><a xlink:href="classgpuNUFFT_1_1GpuNUFFTOperatorFactory.html#a65d596418c34d74d383addd455469b5a" target="_top" xlink:title="Compute 2&#45;d sector centers array.">
<polygon fill="none" stroke="black" points="0,-49.5 0,-79.5 165,-79.5 165,-49.5 0,-49.5"/>
<text text-anchor="start" x="8" y="-67.5" font-family="FreeSans.ttf" font-size="10.00">gpuNUFFT::GpuNUFFTOperator</text>
<text text-anchor="middle" x="82.5" y="-56.5" font-family="FreeSans.ttf" font-size="10.00">Factory::computeSectorCenters2D</text>
</a>
</g>
</g>
<!-- Node1&#45;&gt;Node4 -->
<g id="edge3" class="edge">
<title>Node1&#45;&gt;Node4</title>
<path fill="none" stroke="midnightblue" d="M190.85,-77.68C182.25,-76.62 173.54,-75.55 165.01,-74.51"/>
<polygon fill="midnightblue" stroke="midnightblue" points="190.54,-81.17 200.89,-78.91 191.39,-74.22 190.54,-81.17"/>
</g>
<!-- Node5 -->
<g id="node5" class="node">
<title>Node5</title>
<g id="a_node5"><a xlink:href="classgpuNUFFT_1_1GpuNUFFTOperatorFactory.html#ad915537942d302c8d192b964e6114f28" target="_top" xlink:title="Compute the boundaries of the assigned dataIndices per sector element.">
<polygon fill="none" stroke="black" points="0,-0.5 0,-30.5 165,-30.5 165,-0.5 0,-0.5"/>
<text text-anchor="start" x="8" y="-18.5" font-family="FreeSans.ttf" font-size="10.00">gpuNUFFT::GpuNUFFTOperator</text>
<text text-anchor="middle" x="82.5" y="-7.5" font-family="FreeSans.ttf" font-size="10.00">Factory::computeSectorDataCount</text>
</a>
</g>
</g>
<!-- Node1&#45;&gt;Node5 -->
<g id="edge4" class="edge">
<title>Node1&#45;&gt;Node5</title>
<path fill="none" stroke="midnightblue" d="M236.07,-69.21C214.87,-60.01 188.81,-49.14 165,-40.5 155.54,-37.07 145.35,-33.69 135.5,-30.59"/>
<polygon fill="midnightblue" stroke="midnightblue" points="234.87,-72.51 245.43,-73.31 237.68,-66.1 234.87,-72.51"/>
</g>
</g>
</svg>
