<?xml version="1.0" encoding="UTF-8" standalone="no"?>
<!DOCTYPE svg PUBLIC "-//W3C//DTD SVG 1.1//EN"
 "http://www.w3.org/Graphics/SVG/1.1/DTD/svg11.dtd">
<!-- Generated by graphviz version 2.49.3 (20211027.1534)
 -->
<!-- Title: gpuNUFFT::GpuNUFFTOperator::performForwardGpuNUFFT Pages: 1 -->
<svg width="505pt" height="446pt"
 viewBox="0.00 0.00 505.00 446.00" xmlns="http://www.w3.org/2000/svg" xmlns:xlink="http://www.w3.org/1999/xlink">
<g id="graph0" class="graph" transform="scale(1 1) rotate(0) translate(4 442)">
<title>gpuNUFFT::GpuNUFFTOperator::performForwardGpuNUFFT</title>
<!-- Node1 -->
<g id="node1" class="node">
<title>Node1</title>
<g id="a_node1"><a xlink:title="Perform forward gridding operation on kspaceData already residing in GPU memory.">
<polygon fill="#bfbfbf" stroke="black" points="0,-204 0,-234 158,-234 158,-204 0,-204"/>
<text text-anchor="start" x="8" y="-222" font-family="FreeSans.ttf" font-size="10.00">gpuNUFFT::GpuNUFFTOperator</text>
<text text-anchor="middle" x="79" y="-211" font-family="FreeSans.ttf" font-size="10.00">::performForwardGpuNUFFT</text>
</a>
</g>
</g>
<!-- Node2 -->
<g id="node2" class="node">
<title>Node2</title>
<g id="a_node2"><a xlink:href="cuda__utils_8hpp.html#a130580818f5be50503003961ad9f8852" target="_top" xlink:title="CUDA memcpy call to copy data from device ptr to device ptr.">
<polygon fill="none" stroke="black" points="213,-418.5 213,-437.5 321,-437.5 321,-418.5 213,-418.5"/>
<text text-anchor="middle" x="267" y="-425.5" font-family="FreeSans.ttf" font-size="10.00">copyDeviceToDevice</text>
</a>
</g>
</g>
<!-- Node1&#45;&gt;Node2 -->
<g id="edge1" class="edge">
<title>Node1&#45;&gt;Node2</title>
<path fill="none" stroke="midnightblue" d="M84.61,-234.03C96.46,-270.11 131.56,-362.1 194,-409 196.97,-411.23 200.17,-413.19 203.52,-414.93"/>
<polygon fill="midnightblue" stroke="midnightblue" points="202.13,-418.14 212.69,-419.01 204.97,-411.74 202.13,-418.14"/>
</g>
<!-- Node3 -->
<g id="node3" class="node">
<title>Node3</title>
<g id="a_node3"><a xlink:href="cuda__utils_8hpp.html#a9983a1d89d0258fabd5343a8fd48214e" target="_top" xlink:title="CUDA memcpy call to copy data from device ptr to device ptr.">
<polygon fill="none" stroke="black" points="199.5,-380.5 199.5,-399.5 334.5,-399.5 334.5,-380.5 199.5,-380.5"/>
<text text-anchor="middle" x="267" y="-387.5" font-family="FreeSans.ttf" font-size="10.00">copyDeviceToDeviceAsync</text>
</a>
</g>
</g>
<!-- Node1&#45;&gt;Node3 -->
<g id="edge2" class="edge">
<title>Node1&#45;&gt;Node3</title>
<path fill="none" stroke="midnightblue" d="M87.01,-234.18C102.04,-264.97 140.37,-334.89 194,-371 197.08,-373.07 200.37,-374.92 203.79,-376.56"/>
<polygon fill="midnightblue" stroke="midnightblue" points="202.5,-379.82 213.08,-380.46 205.21,-373.36 202.5,-379.82"/>
</g>
<!-- Node4 -->
<g id="node4" class="node">
<title>Node4</title>
<g id="a_node4"><a xlink:href="cuda__utils_8hpp.html#a1f04840b22a32448d0069e89cacd0950" target="_top" xlink:title="CUDA memcpy call to copy data from host to device.">
<polygon fill="none" stroke="black" points="214.5,-342.5 214.5,-361.5 319.5,-361.5 319.5,-342.5 214.5,-342.5"/>
<text text-anchor="middle" x="267" y="-349.5" font-family="FreeSans.ttf" font-size="10.00">copyToDeviceAsync</text>
</a>
</g>
</g>
<!-- Node1&#45;&gt;Node4 -->
<g id="edge3" class="edge">
<title>Node1&#45;&gt;Node4</title>
<path fill="none" stroke="midnightblue" d="M90.79,-234.09C109.14,-258.63 148.86,-307.06 194,-333 197.89,-335.23 202.04,-337.21 206.32,-338.96"/>
<polygon fill="midnightblue" stroke="midnightblue" points="205.24,-342.29 215.84,-342.44 207.65,-335.72 205.24,-342.29"/>
</g>
<!-- Node5 -->
<g id="node5" class="node">
<title>Node5</title>
<g id="a_node5"><a xlink:href="structgpuNUFFT_1_1Array.html#af426f56b5d7e05b6143acbdd51bac188" target="_top" xlink:title=" ">
<polygon fill="none" stroke="black" points="206.5,-304.5 206.5,-323.5 327.5,-323.5 327.5,-304.5 206.5,-304.5"/>
<text text-anchor="middle" x="267" y="-311.5" font-family="FreeSans.ttf" font-size="10.00">gpuNUFFT::Array::count</text>
</a>
</g>
</g>
<!-- Node1&#45;&gt;Node5 -->
<g id="edge4" class="edge">
<title>Node1&#45;&gt;Node5</title>
<path fill="none" stroke="midnightblue" d="M98.62,-234.26C120.3,-251.32 157.78,-278.69 194,-295 199.36,-297.41 205.09,-299.57 210.89,-301.48"/>
<polygon fill="midnightblue" stroke="midnightblue" points="210.07,-304.89 220.66,-304.48 212.12,-298.2 210.07,-304.89"/>
</g>
<!-- Node7 -->
<g id="node7" class="node">
<title>Node7</title>
<g id="a_node7"><a xlink:href="cuda__utils_8hpp.html#aaa83ead29bc50e65ae4298d9206a760b" target="_top" xlink:title="Free variable list of device pointers. Use NULL as stopping element.">
<polygon fill="none" stroke="black" points="207.5,-266.5 207.5,-285.5 326.5,-285.5 326.5,-266.5 207.5,-266.5"/>
<text text-anchor="middle" x="267" y="-273.5" font-family="FreeSans.ttf" font-size="10.00">freeTotalDeviceMemory</text>
</a>
</g>
</g>
<!-- Node1&#45;&gt;Node7 -->
<g id="edge6" class="edge">
<title>Node1&#45;&gt;Node7</title>
<path fill="none" stroke="midnightblue" d="M123.1,-234.09C144.35,-241.34 170.41,-249.96 194,-257 201.84,-259.34 210.2,-261.68 218.35,-263.88"/>
<polygon fill="midnightblue" stroke="midnightblue" points="217.57,-267.3 228.13,-266.49 219.37,-260.53 217.57,-267.3"/>
</g>
<!-- Node9 -->
<g id="node9" class="node">
<title>Node9</title>
<g id="a_node9"><a xlink:href="gpuNUFFT__kernels_8hpp.html#a282ad0ccb6ee40ae92d4acec00f7cebb" target="_top" xlink:title="Scale each element by the total number of elements.">
<polygon fill="none" stroke="black" points="217,-228.5 217,-247.5 317,-247.5 317,-228.5 217,-228.5"/>
<text text-anchor="middle" x="267" y="-235.5" font-family="FreeSans.ttf" font-size="10.00">performFFTScaling</text>
</a>
</g>
</g>
<!-- Node1&#45;&gt;Node9 -->
<g id="edge8" class="edge">
<title>Node1&#45;&gt;Node9</title>
<path fill="none" stroke="midnightblue" d="M158.07,-226.98C174.38,-228.64 191.32,-230.37 206.81,-231.95"/>
<polygon fill="midnightblue" stroke="midnightblue" points="206.46,-235.44 216.76,-232.97 207.17,-228.47 206.46,-235.44"/>
</g>
<!-- Node10 -->
<g id="node10" class="node">
<title>Node10</title>
<g id="a_node10"><a xlink:href="gpuNUFFT__kernels_8hpp.html#ad5fef14609b81092079ee30422bbae64" target="_top" xlink:title="FFT shift the grid data.">
<polygon fill="none" stroke="black" points="223,-190.5 223,-209.5 311,-209.5 311,-190.5 223,-190.5"/>
<text text-anchor="middle" x="267" y="-197.5" font-family="FreeSans.ttf" font-size="10.00">performFFTShift</text>
</a>
</g>
</g>
<!-- Node1&#45;&gt;Node10 -->
<g id="edge9" class="edge">
<title>Node1&#45;&gt;Node10</title>
<path fill="none" stroke="midnightblue" d="M158.07,-211.02C176.43,-209.15 195.59,-207.19 212.58,-205.46"/>
<polygon fill="midnightblue" stroke="midnightblue" points="213.26,-208.91 222.85,-204.41 212.55,-201.94 213.26,-208.91"/>
</g>
<!-- Node11 -->
<g id="node11" class="node">
<title>Node11</title>
<g id="a_node11"><a xlink:href="gpuNUFFT__kernels_8hpp.html#adad65803e7273d52704591b5ed5aa3aa" target="_top" xlink:title="Apply the deapodization function to the image in the forward transformation.">
<polygon fill="none" stroke="black" points="194,-152.5 194,-171.5 340,-171.5 340,-152.5 194,-152.5"/>
<text text-anchor="middle" x="267" y="-159.5" font-family="FreeSans.ttf" font-size="10.00">performForwardDeapodization</text>
</a>
</g>
</g>
<!-- Node1&#45;&gt;Node11 -->
<g id="edge10" class="edge">
<title>Node1&#45;&gt;Node11</title>
<path fill="none" stroke="midnightblue" d="M123.1,-203.91C144.35,-196.66 170.41,-188.04 194,-181 201.84,-178.66 210.2,-176.32 218.35,-174.12"/>
<polygon fill="midnightblue" stroke="midnightblue" points="219.37,-177.47 228.13,-171.51 217.57,-170.7 219.37,-177.47"/>
</g>
<!-- Node12 -->
<g id="node12" class="node">
<title>Node12</title>
<g id="a_node12"><a xlink:href="gpuNUFFT__kernels_8hpp.html#a2bd4ebbd73b92546a551980a7df3d38c" target="_top" xlink:title="Perform the padding of the input image to the oversampled grid.">
<polygon fill="none" stroke="black" points="224.5,-114.5 224.5,-133.5 309.5,-133.5 309.5,-114.5 224.5,-114.5"/>
<text text-anchor="middle" x="267" y="-121.5" font-family="FreeSans.ttf" font-size="10.00">performPadding</text>
</a>
</g>
</g>
<!-- Node1&#45;&gt;Node12 -->
<g id="edge11" class="edge">
<title>Node1&#45;&gt;Node12</title>
<path fill="none" stroke="midnightblue" d="M98.62,-203.74C120.3,-186.68 157.78,-159.31 194,-143 200.56,-140.04 207.68,-137.48 214.8,-135.27"/>
<polygon fill="midnightblue" stroke="midnightblue" points="215.82,-138.61 224.45,-132.47 213.87,-131.89 215.82,-138.61"/>
</g>
<!-- Node13 -->
<g id="node13" class="node">
<title>Node13</title>
<g id="a_node13"><a xlink:href="gpuNUFFT__kernels_8hpp.html#ae4b6d76d21fb2ed317d056a93b8cbec8" target="_top" xlink:title="Multiply each image element with the coil sensitivity.">
<polygon fill="none" stroke="black" points="223,-76.5 223,-95.5 311,-95.5 311,-76.5 223,-76.5"/>
<text text-anchor="middle" x="267" y="-83.5" font-family="FreeSans.ttf" font-size="10.00">performSensMul</text>
</a>
</g>
</g>
<!-- Node1&#45;&gt;Node13 -->
<g id="edge12" class="edge">
<title>Node1&#45;&gt;Node13</title>
<path fill="none" stroke="midnightblue" d="M90.79,-203.91C109.14,-179.37 148.86,-130.94 194,-105 199.87,-101.62 206.36,-98.83 212.96,-96.53"/>
<polygon fill="midnightblue" stroke="midnightblue" points="214.16,-99.82 222.66,-93.49 212.07,-93.14 214.16,-99.82"/>
</g>
<!-- Node14 -->
<g id="node14" class="node">
<title>Node14</title>
<g id="a_node14"><a xlink:href="cuda__utils_8hpp.html#ad9458f074da29c52d203d541be58971a" target="_top" xlink:title="Debug short device memory information (free/total) to stream if DEBUG flag is set to true.">
<polygon fill="none" stroke="black" points="221.5,-38.5 221.5,-57.5 312.5,-57.5 312.5,-38.5 221.5,-38.5"/>
<text text-anchor="middle" x="267" y="-45.5" font-family="FreeSans.ttf" font-size="10.00">showMemoryInfo</text>
</a>
</g>
</g>
<!-- Node1&#45;&gt;Node14 -->
<g id="edge13" class="edge">
<title>Node1&#45;&gt;Node14</title>
<path fill="none" stroke="midnightblue" d="M87.01,-203.82C102.04,-173.03 140.37,-103.11 194,-67 199.35,-63.4 205.35,-60.48 211.54,-58.11"/>
<polygon fill="midnightblue" stroke="midnightblue" points="212.98,-61.32 221.36,-54.83 210.76,-54.68 212.98,-61.32"/>
</g>
<!-- Node15 -->
<g id="node15" class="node">
<title>Node15</title>
<g id="a_node15"><a xlink:href="precomp__kernels_8hpp.html#a738b63c0ebcc9b273d467f9c1c7d74f6" target="_top" xlink:title="Write from sorted input array to unsorted data array.">
<polygon fill="none" stroke="black" points="220,-0.5 220,-19.5 314,-19.5 314,-0.5 220,-0.5"/>
<text text-anchor="middle" x="267" y="-7.5" font-family="FreeSans.ttf" font-size="10.00">writeOrderedGPU</text>
</a>
</g>
</g>
<!-- Node1&#45;&gt;Node15 -->
<g id="edge14" class="edge">
<title>Node1&#45;&gt;Node15</title>
<path fill="none" stroke="midnightblue" d="M84.61,-203.97C96.46,-167.89 131.56,-75.9 194,-29 198.83,-25.37 204.3,-22.43 210.02,-20.05"/>
<polygon fill="midnightblue" stroke="midnightblue" points="211.56,-23.22 219.79,-16.56 209.2,-16.63 211.56,-23.22"/>
</g>
<!-- Node6 -->
<g id="node6" class="node">
<title>Node6</title>
<g id="a_node6"><a xlink:href="structgpuNUFFT_1_1Dimensions.html#a4c589934c5444910fbcd890d128229c9" target="_top" xlink:title="Compute total count of array length.">
<polygon fill="none" stroke="black" points="376,-302 376,-332 497,-332 497,-302 376,-302"/>
<text text-anchor="start" x="384" y="-320" font-family="FreeSans.ttf" font-size="10.00">gpuNUFFT::Dimensions</text>
<text text-anchor="middle" x="436.5" y="-309" font-family="FreeSans.ttf" font-size="10.00">::count</text>
</a>
</g>
</g>
<!-- Node5&#45;&gt;Node6 -->
<g id="edge5" class="edge">
<title>Node5&#45;&gt;Node6</title>
<path fill="none" stroke="midnightblue" d="M327.53,-315.07C339.92,-315.29 353.08,-315.52 365.8,-315.75"/>
<polygon fill="midnightblue" stroke="midnightblue" points="365.82,-319.25 375.88,-315.93 365.95,-312.25 365.82,-319.25"/>
</g>
<!-- Node8 -->
<g id="node8" class="node">
<title>Node8</title>
<g id="a_node8"><a xlink:href="cuda__utils_8hpp.html#a6ffa821f98a8c2b391c12c01308ff1db" target="_top" xlink:title="Free of device memory.">
<polygon fill="none" stroke="black" points="394,-263.5 394,-282.5 479,-282.5 479,-263.5 394,-263.5"/>
<text text-anchor="middle" x="436.5" y="-270.5" font-family="FreeSans.ttf" font-size="10.00">freeDeviceMem</text>
</a>
</g>
</g>
<!-- Node7&#45;&gt;Node8 -->
<g id="edge7" class="edge">
<title>Node7&#45;&gt;Node8</title>
<path fill="none" stroke="midnightblue" d="M326.58,-274.95C345.2,-274.62 365.65,-274.25 383.75,-273.93"/>
<polygon fill="midnightblue" stroke="midnightblue" points="383.89,-277.43 393.82,-273.75 383.76,-270.43 383.89,-277.43"/>
</g>
</g>
</svg>
