<?xml version="1.0" encoding="UTF-8" standalone="no"?>
<!DOCTYPE svg PUBLIC "-//W3C//DTD SVG 1.1//EN"
 "http://www.w3.org/Graphics/SVG/1.1/DTD/svg11.dtd">
<!-- Generated by graphviz version 2.49.3 (20211027.1534)
 -->
<!-- Title: gpuNUFFT::GpuNUFFTOperatorFactory::computeSectorCenters2D Pages: 1 -->
<svg width="755pt" height="225pt"
 viewBox="0.00 0.00 755.00 224.50" xmlns="http://www.w3.org/2000/svg" xmlns:xlink="http://www.w3.org/1999/xlink">
<g id="graph0" class="graph" transform="scale(1 1) rotate(0) translate(4 220.5)">
<title>gpuNUFFT::GpuNUFFTOperatorFactory::computeSectorCenters2D</title>
<!-- Node1 -->
<g id="node1" class="node">
<title>Node1</title>
<g id="a_node1"><a xlink:title="Compute 2&#45;d sector centers array.">
<polygon fill="#bfbfbf" stroke="black" points="0,-98.5 0,-128.5 165,-128.5 165,-98.5 0,-98.5"/>
<text text-anchor="start" x="8" y="-116.5" font-family="FreeSans.ttf" font-size="10.00">gpuNUFFT::GpuNUFFTOperator</text>
<text text-anchor="middle" x="82.5" y="-105.5" font-family="FreeSans.ttf" font-size="10.00">Factory::computeSectorCenters2D</text>
</a>
</g>
</g>
<!-- Node2 -->
<g id="node2" class="node">
<title>Node2</title>
<g id="a_node2"><a xlink:href="precomp__utils_8hpp.html#a3d5b89e5c4e05c3a558f66dc5b3442f8" target="_top" xlink:title="Compute linear index from 2&#45;d point in grid defined by dim.">
<polygon fill="none" stroke="black" points="237,-197 237,-216 323,-216 323,-197 237,-197"/>
<text text-anchor="middle" x="280" y="-204" font-family="FreeSans.ttf" font-size="10.00">computeXY2Lin</text>
</a>
</g>
</g>
<!-- Node1&#45;&gt;Node2 -->
<g id="edge1" class="edge">
<title>Node1&#45;&gt;Node2</title>
<path fill="none" stroke="midnightblue" d="M103.19,-128.72C125.68,-145.42 164.15,-171.9 201,-187.5 209.21,-190.97 218.18,-193.9 227.02,-196.33"/>
<polygon fill="midnightblue" stroke="midnightblue" points="226.35,-199.77 236.91,-198.87 228.09,-192.99 226.35,-199.77"/>
</g>
<!-- Node3 -->
<g id="node3" class="node">
<title>Node3</title>
<g id="a_node3"><a xlink:href="structgpuNUFFT_1_1Dimensions.html#a4c589934c5444910fbcd890d128229c9" target="_top" xlink:title="Compute total count of array length.">
<polygon fill="none" stroke="black" points="219.5,-147.5 219.5,-177.5 340.5,-177.5 340.5,-147.5 219.5,-147.5"/>
<text text-anchor="start" x="227.5" y="-165.5" font-family="FreeSans.ttf" font-size="10.00">gpuNUFFT::Dimensions</text>
<text text-anchor="middle" x="280" y="-154.5" font-family="FreeSans.ttf" font-size="10.00">::count</text>
</a>
</g>
</g>
<!-- Node1&#45;&gt;Node3 -->
<g id="edge2" class="edge">
<title>Node1&#45;&gt;Node3</title>
<path fill="none" stroke="midnightblue" d="M143.49,-128.53C164.41,-133.78 188.07,-139.71 209.69,-145.13"/>
<polygon fill="midnightblue" stroke="midnightblue" points="208.91,-148.54 219.46,-147.58 210.62,-141.75 208.91,-148.54"/>
</g>
<!-- Node4 -->
<g id="node4" class="node">
<title>Node4</title>
<g id="a_node4"><a xlink:href="classgpuNUFFT_1_1GpuNUFFTOperator.html#a827308da49fcedc4725cf9509dd2a3c0" target="_top" xlink:title=" ">
<polygon fill="none" stroke="black" points="201,-98.5 201,-128.5 359,-128.5 359,-98.5 201,-98.5"/>
<text text-anchor="start" x="209" y="-116.5" font-family="FreeSans.ttf" font-size="10.00">gpuNUFFT::GpuNUFFTOperator</text>
<text text-anchor="middle" x="280" y="-105.5" font-family="FreeSans.ttf" font-size="10.00">::getGridSectorDims</text>
</a>
</g>
</g>
<!-- Node1&#45;&gt;Node4 -->
<g id="edge3" class="edge">
<title>Node1&#45;&gt;Node4</title>
<path fill="none" stroke="midnightblue" d="M165.28,-113.5C173.68,-113.5 182.25,-113.5 190.72,-113.5"/>
<polygon fill="midnightblue" stroke="midnightblue" points="190.99,-117 200.99,-113.5 190.99,-110 190.99,-117"/>
</g>
<!-- Node5 -->
<g id="node5" class="node">
<title>Node5</title>
<g id="a_node5"><a xlink:href="classgpuNUFFT_1_1GpuNUFFTOperator.html#a26762c7cb13205226b6f77c37a57d8a9" target="_top" xlink:title=" ">
<polygon fill="none" stroke="black" points="201,-49.5 201,-79.5 359,-79.5 359,-49.5 201,-49.5"/>
<text text-anchor="start" x="209" y="-67.5" font-family="FreeSans.ttf" font-size="10.00">gpuNUFFT::GpuNUFFTOperator</text>
<text text-anchor="middle" x="280" y="-56.5" font-family="FreeSans.ttf" font-size="10.00">::getSectorWidth</text>
</a>
</g>
</g>
<!-- Node1&#45;&gt;Node5 -->
<g id="edge4" class="edge">
<title>Node1&#45;&gt;Node5</title>
<path fill="none" stroke="midnightblue" d="M143.49,-98.47C164.31,-93.24 187.85,-87.35 209.39,-81.95"/>
<polygon fill="midnightblue" stroke="midnightblue" points="210.28,-85.33 219.13,-79.51 208.58,-78.54 210.28,-85.33"/>
</g>
<!-- Node6 -->
<g id="node6" class="node">
<title>Node6</title>
<g id="a_node6"><a xlink:href="classgpuNUFFT_1_1GpuNUFFTOperatorFactory.html#af28b53802fd66b755083507e1fe99311" target="_top" xlink:title="Initialization method for the sector centers array.">
<polygon fill="none" stroke="black" points="201,-0.5 201,-30.5 359,-30.5 359,-0.5 201,-0.5"/>
<text text-anchor="start" x="209" y="-18.5" font-family="FreeSans.ttf" font-size="10.00">gpuNUFFT::GpuNUFFTOperator</text>
<text text-anchor="middle" x="280" y="-7.5" font-family="FreeSans.ttf" font-size="10.00">Factory::initSectorCenters</text>
</a>
</g>
</g>
<!-- Node1&#45;&gt;Node6 -->
<g id="edge5" class="edge">
<title>Node1&#45;&gt;Node6</title>
<path fill="none" stroke="midnightblue" d="M104.27,-98.4C127.08,-82.34 165.25,-57.03 201,-40.5 205.92,-38.22 211.11,-36.07 216.37,-34.06"/>
<polygon fill="midnightblue" stroke="midnightblue" points="217.69,-37.3 225.88,-30.58 215.29,-30.73 217.69,-37.3"/>
</g>
<!-- Node7 -->
<g id="node7" class="node">
<title>Node7</title>
<g id="a_node7"><a xlink:href="classgpuNUFFT_1_1GpuNUFFTOperator.html#a10c8eb392c0a61a80ec1bf8784e20303" target="_top" xlink:title="Return dimension of problem. Either 2&#45;d or 3&#45;d.">
<polygon fill="none" stroke="black" points="395,-0.5 395,-30.5 553,-30.5 553,-0.5 395,-0.5"/>
<text text-anchor="start" x="403" y="-18.5" font-family="FreeSans.ttf" font-size="10.00">gpuNUFFT::GpuNUFFTOperator</text>
<text text-anchor="middle" x="474" y="-7.5" font-family="FreeSans.ttf" font-size="10.00">::getImageDimensionCount</text>
</a>
</g>
</g>
<!-- Node6&#45;&gt;Node7 -->
<g id="edge6" class="edge">
<title>Node6&#45;&gt;Node7</title>
<path fill="none" stroke="midnightblue" d="M359.09,-15.5C367.6,-15.5 376.3,-15.5 384.92,-15.5"/>
<polygon fill="midnightblue" stroke="midnightblue" points="384.98,-19 394.98,-15.5 384.98,-12 384.98,-19"/>
</g>
<!-- Node8 -->
<g id="node8" class="node">
<title>Node8</title>
<g id="a_node8"><a xlink:href="classgpuNUFFT_1_1GpuNUFFTOperator.html#a635c1cf91573264cafb1f3df27fdf976" target="_top" xlink:title=" ">
<polygon fill="none" stroke="black" points="589,-0.5 589,-30.5 747,-30.5 747,-0.5 589,-0.5"/>
<text text-anchor="start" x="597" y="-18.5" font-family="FreeSans.ttf" font-size="10.00">gpuNUFFT::GpuNUFFTOperator</text>
<text text-anchor="middle" x="668" y="-7.5" font-family="FreeSans.ttf" font-size="10.00">::is2DProcessing</text>
</a>
</g>
</g>
<!-- Node7&#45;&gt;Node8 -->
<g id="edge7" class="edge">
<title>Node7&#45;&gt;Node8</title>
<path fill="none" stroke="midnightblue" d="M553.09,-15.5C561.6,-15.5 570.3,-15.5 578.92,-15.5"/>
<polygon fill="midnightblue" stroke="midnightblue" points="578.98,-19 588.98,-15.5 578.98,-12 578.98,-19"/>
</g>
</g>
</svg>
