<?xml version="1.0" encoding="UTF-8" standalone="no"?>
<!DOCTYPE svg PUBLIC "-//W3C//DTD SVG 1.1//EN"
 "http://www.w3.org/Graphics/SVG/1.1/DTD/svg11.dtd">
<!-- Generated by graphviz version 2.49.3 (20211027.1534)
 -->
<!-- Title: gpuNUFFT::GpuNUFFTOperator::setDeapodizationFunction Pages: 1 -->
<svg width="420pt" height="88pt"
 viewBox="0.00 0.00 420.00 88.00" xmlns="http://www.w3.org/2000/svg" xmlns:xlink="http://www.w3.org/1999/xlink">
<g id="graph0" class="graph" transform="scale(1 1) rotate(0) translate(4 84)">
<title>gpuNUFFT::GpuNUFFTOperator::setDeapodizationFunction</title>
<!-- Node1 -->
<g id="node1" class="node">
<title>Node1</title>
<g id="a_node1"><a xlink:title=" ">
<polygon fill="#bfbfbf" stroke="black" points="254,-24.5 254,-54.5 412,-54.5 412,-24.5 254,-24.5"/>
<text text-anchor="start" x="262" y="-42.5" font-family="FreeSans.ttf" font-size="10.00">gpuNUFFT::GpuNUFFTOperator</text>
<text text-anchor="middle" x="333" y="-31.5" font-family="FreeSans.ttf" font-size="10.00">::setDeapodizationFunction</text>
</a>
</g>
</g>
<!-- Node2 -->
<g id="node2" class="node">
<title>Node2</title>
<g id="a_node2"><a xlink:href="classgpuNUFFT_1_1GpuNUFFTOperatorFactory.html#a0e941d590a7e5effed76f909dfa72bcc" target="_top" xlink:title="Create GpuNUFFT Operator.">
<polygon fill="none" stroke="black" points="24.5,-49.5 24.5,-79.5 193.5,-79.5 193.5,-49.5 24.5,-49.5"/>
<text text-anchor="start" x="32.5" y="-67.5" font-family="FreeSans.ttf" font-size="10.00">gpuNUFFT::GpuNUFFTOperator</text>
<text text-anchor="middle" x="109" y="-56.5" font-family="FreeSans.ttf" font-size="10.00">Factory::createGpuNUFFTOperator</text>
</a>
</g>
</g>
<!-- Node1&#45;&gt;Node2 -->
<g id="edge1" class="edge">
<title>Node1&#45;&gt;Node2</title>
<path fill="none" stroke="midnightblue" d="M243.57,-49.46C227.09,-51.31 209.92,-53.25 193.59,-55.09"/>
<polygon fill="midnightblue" stroke="midnightblue" points="244.19,-52.91 253.73,-48.31 243.4,-45.96 244.19,-52.91"/>
</g>
<!-- Node3 -->
<g id="node3" class="node">
<title>Node3</title>
<g id="a_node3"><a xlink:href="classgpuNUFFT_1_1GpuNUFFTOperatorFactory.html#aa5cecffe2b150073fd71145317ae308b" target="_top" xlink:title="Load GpuNUFFT Operator from previously computed mappings.">
<polygon fill="none" stroke="black" points="0,-0.5 0,-30.5 218,-30.5 218,-0.5 0,-0.5"/>
<text text-anchor="start" x="8" y="-18.5" font-family="FreeSans.ttf" font-size="10.00">gpuNUFFT::GpuNUFFTOperator</text>
<text text-anchor="middle" x="109" y="-7.5" font-family="FreeSans.ttf" font-size="10.00">Factory::loadPrecomputedGpuNUFFTOperator</text>
</a>
</g>
</g>
<!-- Node1&#45;&gt;Node3 -->
<g id="edge2" class="edge">
<title>Node1&#45;&gt;Node3</title>
<path fill="none" stroke="midnightblue" d="M243.66,-29.95C235.31,-29.05 226.79,-28.13 218.29,-27.21"/>
<polygon fill="midnightblue" stroke="midnightblue" points="243.41,-33.44 253.73,-31.04 244.17,-26.48 243.41,-33.44"/>
</g>
</g>
</svg>
