<?xml version="1.0" encoding="UTF-8" standalone="no"?>
<!DOCTYPE svg PUBLIC "-//W3C//DTD SVG 1.1//EN"
 "http://www.w3.org/Graphics/SVG/1.1/DTD/svg11.dtd">
<!-- Generated by graphviz version 2.49.3 (20211027.1534)
 -->
<!-- Title: gpuNUFFT::GpuNUFFTOperator::initGpuNUFFTInfo Pages: 1 -->
<svg width="493pt" height="97pt"
 viewBox="0.00 0.00 493.00 96.50" xmlns="http://www.w3.org/2000/svg" xmlns:xlink="http://www.w3.org/1999/xlink">
<g id="graph0" class="graph" transform="scale(1 1) rotate(0) translate(4 92.5)">
<title>gpuNUFFT::GpuNUFFTOperator::initGpuNUFFTInfo</title>
<!-- Node1 -->
<g id="node1" class="node">
<title>Node1</title>
<g id="a_node1"><a xlink:title="Compute all neccessary meta information used in the gridding steps.">
<polygon fill="#bfbfbf" stroke="black" points="0,-36 0,-66 158,-66 158,-36 0,-36"/>
<text text-anchor="start" x="8" y="-54" font-family="FreeSans.ttf" font-size="10.00">gpuNUFFT::GpuNUFFTOperator</text>
<text text-anchor="middle" x="79" y="-43" font-family="FreeSans.ttf" font-size="10.00">::initGpuNUFFTInfo</text>
</a>
</g>
</g>
<!-- Node2 -->
<g id="node2" class="node">
<title>Node2</title>
<g id="a_node2"><a xlink:href="structgpuNUFFT_1_1Dimensions.html#a4c589934c5444910fbcd890d128229c9" target="_top" xlink:title="Compute total count of array length.">
<polygon fill="none" stroke="black" points="194,-58 194,-88 315,-88 315,-58 194,-58"/>
<text text-anchor="start" x="202" y="-76" font-family="FreeSans.ttf" font-size="10.00">gpuNUFFT::Dimensions</text>
<text text-anchor="middle" x="254.5" y="-65" font-family="FreeSans.ttf" font-size="10.00">::count</text>
</a>
</g>
</g>
<!-- Node1&#45;&gt;Node2 -->
<g id="edge1" class="edge">
<title>Node1&#45;&gt;Node2</title>
<path fill="none" stroke="midnightblue" d="M158.12,-60.91C166.63,-61.98 175.24,-63.08 183.64,-64.14"/>
<polygon fill="midnightblue" stroke="midnightblue" points="183.39,-67.64 193.75,-65.42 184.27,-60.69 183.39,-67.64"/>
</g>
<!-- Node3 -->
<g id="node3" class="node">
<title>Node3</title>
<g id="a_node3"><a xlink:href="gpuNUFFT__utils_8hpp.html#a18dd3c6c4b8ac5f6947f3dc1c59651bc" target="_top" xlink:title="Interpolation Kernel evaluation for radius.">
<polygon fill="none" stroke="black" points="233,-19.5 233,-38.5 276,-38.5 276,-19.5 233,-19.5"/>
<text text-anchor="middle" x="254.5" y="-26.5" font-family="FreeSans.ttf" font-size="10.00">kernel</text>
</a>
</g>
</g>
<!-- Node1&#45;&gt;Node3 -->
<g id="edge2" class="edge">
<title>Node1&#45;&gt;Node3</title>
<path fill="none" stroke="midnightblue" d="M158.12,-41.09C181.13,-38.18 204.95,-35.16 223.04,-32.86"/>
<polygon fill="midnightblue" stroke="midnightblue" points="223.49,-36.33 232.97,-31.6 222.61,-29.39 223.49,-36.33"/>
</g>
<!-- Node4 -->
<g id="node4" class="node">
<title>Node4</title>
<g id="a_node4"><a xlink:href="gpuNUFFT__utils_8hpp.html#aa7b00d423ae0e06388b55594fe1adb93" target="_top" xlink:title="beta function used in interpolation function. See Beatty et al.">
<polygon fill="none" stroke="black" points="443,-47.5 443,-66.5 485,-66.5 485,-47.5 443,-47.5"/>
<text text-anchor="middle" x="464" y="-54.5" font-family="FreeSans.ttf" font-size="10.00">BETA</text>
</a>
</g>
</g>
<!-- Node3&#45;&gt;Node4 -->
<g id="edge3" class="edge">
<title>Node3&#45;&gt;Node4</title>
<path fill="none" stroke="midnightblue" d="M276.25,-33.85C295.51,-38.18 325.05,-44.39 351,-48 378.52,-51.83 410.09,-54.18 432.68,-55.52"/>
<polygon fill="midnightblue" stroke="midnightblue" points="432.51,-59.02 442.69,-56.08 432.9,-52.03 432.51,-59.02"/>
</g>
<!-- Node5 -->
<g id="node5" class="node">
<title>Node5</title>
<g id="a_node5"><a xlink:href="gpuNUFFT__utils_8cpp.html#a5472cb661dea68a2ab2b52df187b6291" target="_top" xlink:title="Modified Kaiser Bessel function of zero&#45;th order.">
<polygon fill="none" stroke="black" points="449.5,-0.5 449.5,-19.5 478.5,-19.5 478.5,-0.5 449.5,-0.5"/>
<text text-anchor="middle" x="464" y="-7.5" font-family="FreeSans.ttf" font-size="10.00">i0</text>
</a>
</g>
</g>
<!-- Node3&#45;&gt;Node5 -->
<g id="edge4" class="edge">
<title>Node3&#45;&gt;Node5</title>
<path fill="none" stroke="midnightblue" d="M276.19,-23.66C295.41,-18.99 324.92,-12.57 351,-10 381.27,-7.02 416.36,-7.68 439.08,-8.65"/>
<polygon fill="midnightblue" stroke="midnightblue" points="439.01,-12.15 449.16,-9.13 439.34,-5.15 439.01,-12.15"/>
</g>
<!-- Node6 -->
<g id="node6" class="node">
<title>Node6</title>
<g id="a_node6"><a xlink:href="gpuNUFFT__utils_8hpp.html#ab1456ac35fe51fc4dac2e0054f6d9a50" target="_top" xlink:title="I_0 function used in interpolation function. See Beatty et al.">
<polygon fill="none" stroke="black" points="351,-19.5 351,-38.5 407,-38.5 407,-19.5 351,-19.5"/>
<text text-anchor="middle" x="379" y="-26.5" font-family="FreeSans.ttf" font-size="10.00">I0_BETA</text>
</a>
</g>
</g>
<!-- Node3&#45;&gt;Node6 -->
<g id="edge5" class="edge">
<title>Node3&#45;&gt;Node6</title>
<path fill="none" stroke="midnightblue" d="M276,-29C293.68,-29 319.64,-29 340.95,-29"/>
<polygon fill="midnightblue" stroke="midnightblue" points="340.98,-32.5 350.98,-29 340.98,-25.5 340.98,-32.5"/>
</g>
<!-- Node6&#45;&gt;Node4 -->
<g id="edge6" class="edge">
<title>Node6&#45;&gt;Node4</title>
<path fill="none" stroke="midnightblue" d="M407.18,-38.17C415.54,-40.99 424.78,-44.11 433.3,-46.98"/>
<polygon fill="midnightblue" stroke="midnightblue" points="432.28,-50.33 442.87,-50.21 434.52,-43.7 432.28,-50.33"/>
</g>
<!-- Node6&#45;&gt;Node5 -->
<g id="edge7" class="edge">
<title>Node6&#45;&gt;Node5</title>
<path fill="none" stroke="midnightblue" d="M407.18,-22.78C417.45,-20.43 429.07,-17.77 439.03,-15.49"/>
<polygon fill="midnightblue" stroke="midnightblue" points="440.08,-18.84 449.05,-13.19 438.52,-12.01 440.08,-18.84"/>
</g>
</g>
</svg>
