<?xml version="1.0" encoding="UTF-8" standalone="no"?>
<!DOCTYPE svg PUBLIC "-//W3C//DTD SVG 1.1//EN"
 "http://www.w3.org/Graphics/SVG/1.1/DTD/svg11.dtd">
<!-- Generated by graphviz version 2.49.3 (20211027.1534)
 -->
<!-- Title: gpuNUFFT::GpuNUFFTOperator::performGpuNUFFTAdj Pages: 1 -->
<svg width="503pt" height="484pt"
 viewBox="0.00 0.00 503.00 484.00" xmlns="http://www.w3.org/2000/svg" xmlns:xlink="http://www.w3.org/1999/xlink">
<g id="graph0" class="graph" transform="scale(1 1) rotate(0) translate(4 480)">
<title>gpuNUFFT::GpuNUFFTOperator::performGpuNUFFTAdj</title>
<!-- Node1 -->
<g id="node1" class="node">
<title>Node1</title>
<g id="a_node1"><a xlink:title="Perform Adjoint gridding operation on kspaceData already residing in GPU memory.">
<polygon fill="#bfbfbf" stroke="black" points="0,-223 0,-253 158,-253 158,-223 0,-223"/>
<text text-anchor="start" x="8" y="-241" font-family="FreeSans.ttf" font-size="10.00">gpuNUFFT::GpuNUFFTOperator</text>
<text text-anchor="middle" x="79" y="-230" font-family="FreeSans.ttf" font-size="10.00">::performGpuNUFFTAdj</text>
</a>
</g>
</g>
<!-- Node2 -->
<g id="node2" class="node">
<title>Node2</title>
<g id="a_node2"><a xlink:href="cuda__utils_8hpp.html#a9983a1d89d0258fabd5343a8fd48214e" target="_top" xlink:title="CUDA memcpy call to copy data from device ptr to device ptr.">
<polygon fill="none" stroke="black" points="198.5,-456.5 198.5,-475.5 333.5,-475.5 333.5,-456.5 198.5,-456.5"/>
<text text-anchor="middle" x="266" y="-463.5" font-family="FreeSans.ttf" font-size="10.00">copyDeviceToDeviceAsync</text>
</a>
</g>
</g>
<!-- Node1&#45;&gt;Node2 -->
<g id="edge1" class="edge">
<title>Node1&#45;&gt;Node2</title>
<path fill="none" stroke="midnightblue" d="M83.76,-253.06C94.2,-291.61 127.24,-394.49 194,-447 196.3,-448.81 198.77,-450.45 201.34,-451.94"/>
<polygon fill="midnightblue" stroke="midnightblue" points="199.93,-455.14 210.45,-456.4 203.01,-448.86 199.93,-455.14"/>
</g>
<!-- Node3 -->
<g id="node3" class="node">
<title>Node3</title>
<g id="a_node3"><a xlink:href="cuda__utils_8hpp.html#a1f04840b22a32448d0069e89cacd0950" target="_top" xlink:title="CUDA memcpy call to copy data from host to device.">
<polygon fill="none" stroke="black" points="213.5,-418.5 213.5,-437.5 318.5,-437.5 318.5,-418.5 213.5,-418.5"/>
<text text-anchor="middle" x="266" y="-425.5" font-family="FreeSans.ttf" font-size="10.00">copyToDeviceAsync</text>
</a>
</g>
</g>
<!-- Node1&#45;&gt;Node3 -->
<g id="edge2" class="edge">
<title>Node1&#45;&gt;Node3</title>
<path fill="none" stroke="midnightblue" d="M85.75,-253.25C99.23,-286.84 136.16,-367.52 194,-409 197.08,-411.21 200.41,-413.17 203.88,-414.89"/>
<polygon fill="midnightblue" stroke="midnightblue" points="202.77,-418.22 213.34,-418.95 205.53,-411.79 202.77,-418.22"/>
</g>
<!-- Node4 -->
<g id="node4" class="node">
<title>Node4</title>
<g id="a_node4"><a xlink:href="structgpuNUFFT_1_1Array.html#af426f56b5d7e05b6143acbdd51bac188" target="_top" xlink:title=" ">
<polygon fill="none" stroke="black" points="205.5,-380.5 205.5,-399.5 326.5,-399.5 326.5,-380.5 205.5,-380.5"/>
<text text-anchor="middle" x="266" y="-387.5" font-family="FreeSans.ttf" font-size="10.00">gpuNUFFT::Array::count</text>
</a>
</g>
</g>
<!-- Node1&#45;&gt;Node4 -->
<g id="edge3" class="edge">
<title>Node1&#45;&gt;Node4</title>
<path fill="none" stroke="midnightblue" d="M88.81,-253.38C105.58,-281.25 144.84,-340.06 194,-371 197.37,-373.12 200.97,-375 204.69,-376.68"/>
<polygon fill="midnightblue" stroke="midnightblue" points="203.56,-380 214.15,-380.43 206.14,-373.49 203.56,-380"/>
</g>
<!-- Node6 -->
<g id="node6" class="node">
<title>Node6</title>
<g id="a_node6"><a xlink:href="cuda__utils_8hpp.html#aaa83ead29bc50e65ae4298d9206a760b" target="_top" xlink:title="Free variable list of device pointers. Use NULL as stopping element.">
<polygon fill="none" stroke="black" points="206.5,-342.5 206.5,-361.5 325.5,-361.5 325.5,-342.5 206.5,-342.5"/>
<text text-anchor="middle" x="266" y="-349.5" font-family="FreeSans.ttf" font-size="10.00">freeTotalDeviceMemory</text>
</a>
</g>
</g>
<!-- Node1&#45;&gt;Node6 -->
<g id="edge5" class="edge">
<title>Node1&#45;&gt;Node6</title>
<path fill="none" stroke="midnightblue" d="M93.96,-253.21C114.07,-274.21 153.28,-311.9 194,-333 198.49,-335.33 203.29,-337.39 208.19,-339.21"/>
<polygon fill="midnightblue" stroke="midnightblue" points="207.11,-342.54 217.71,-342.43 209.35,-335.91 207.11,-342.54"/>
</g>
<!-- Node8 -->
<g id="node8" class="node">
<title>Node8</title>
<g id="a_node8"><a xlink:href="gpuNUFFT__kernels_8hpp.html#a9c8fce91e8db3c2970f0fe6b9e75687f" target="_top" xlink:title="Crop the oversampled grid according to the oversampling factor.">
<polygon fill="none" stroke="black" points="231,-304.5 231,-323.5 301,-323.5 301,-304.5 231,-304.5"/>
<text text-anchor="middle" x="266" y="-311.5" font-family="FreeSans.ttf" font-size="10.00">performCrop</text>
</a>
</g>
</g>
<!-- Node1&#45;&gt;Node8 -->
<g id="edge7" class="edge">
<title>Node1&#45;&gt;Node8</title>
<path fill="none" stroke="midnightblue" d="M106.49,-253.17C129.16,-265.68 162.97,-283.23 194,-295 202.67,-298.29 212.15,-301.24 221.27,-303.79"/>
<polygon fill="midnightblue" stroke="midnightblue" points="220.4,-307.18 230.97,-306.38 222.21,-300.42 220.4,-307.18"/>
</g>
<!-- Node9 -->
<g id="node9" class="node">
<title>Node9</title>
<g id="a_node9"><a xlink:href="gpuNUFFT__kernels_8hpp.html#af0e6938e27180cc16d3094543e2919c8" target="_top" xlink:title="Apply the deapodization function to the image.">
<polygon fill="none" stroke="black" points="211,-266.5 211,-285.5 321,-285.5 321,-266.5 211,-266.5"/>
<text text-anchor="middle" x="266" y="-273.5" font-family="FreeSans.ttf" font-size="10.00">performDeapodization</text>
</a>
</g>
</g>
<!-- Node1&#45;&gt;Node9 -->
<g id="edge8" class="edge">
<title>Node1&#45;&gt;Node9</title>
<path fill="none" stroke="midnightblue" d="M153.12,-253.02C171.61,-256.82 191.18,-260.84 208.69,-264.43"/>
<polygon fill="midnightblue" stroke="midnightblue" points="208.25,-267.92 218.75,-266.5 209.65,-261.06 208.25,-267.92"/>
</g>
<!-- Node10 -->
<g id="node10" class="node">
<title>Node10</title>
<g id="a_node10"><a xlink:href="gpuNUFFT__kernels_8hpp.html#a0b3ea272baf7252f5303c7fb9353e855" target="_top" xlink:title="Scale each element of the input data by the value of the density compensation function for the corres...">
<polygon fill="none" stroke="black" points="194,-228.5 194,-247.5 338,-247.5 338,-228.5 194,-228.5"/>
<text text-anchor="middle" x="266" y="-235.5" font-family="FreeSans.ttf" font-size="10.00">performDensityCompensation</text>
</a>
</g>
</g>
<!-- Node1&#45;&gt;Node10 -->
<g id="edge9" class="edge">
<title>Node1&#45;&gt;Node10</title>
<path fill="none" stroke="midnightblue" d="M158.19,-238C166.6,-238 175.18,-238 183.63,-238"/>
<polygon fill="midnightblue" stroke="midnightblue" points="183.85,-241.5 193.85,-238 183.85,-234.5 183.85,-241.5"/>
</g>
<!-- Node11 -->
<g id="node11" class="node">
<title>Node11</title>
<g id="a_node11"><a xlink:href="gpuNUFFT__kernels_8hpp.html#a282ad0ccb6ee40ae92d4acec00f7cebb" target="_top" xlink:title="Scale each element by the total number of elements.">
<polygon fill="none" stroke="black" points="216,-190.5 216,-209.5 316,-209.5 316,-190.5 216,-190.5"/>
<text text-anchor="middle" x="266" y="-197.5" font-family="FreeSans.ttf" font-size="10.00">performFFTScaling</text>
</a>
</g>
</g>
<!-- Node1&#45;&gt;Node11 -->
<g id="edge10" class="edge">
<title>Node1&#45;&gt;Node11</title>
<path fill="none" stroke="midnightblue" d="M153.12,-222.98C171.61,-219.18 191.18,-215.16 208.69,-211.57"/>
<polygon fill="midnightblue" stroke="midnightblue" points="209.65,-214.94 218.75,-209.5 208.25,-208.08 209.65,-214.94"/>
</g>
<!-- Node12 -->
<g id="node12" class="node">
<title>Node12</title>
<g id="a_node12"><a xlink:href="gpuNUFFT__kernels_8hpp.html#ad5fef14609b81092079ee30422bbae64" target="_top" xlink:title="FFT shift the grid data.">
<polygon fill="none" stroke="black" points="222,-152.5 222,-171.5 310,-171.5 310,-152.5 222,-152.5"/>
<text text-anchor="middle" x="266" y="-159.5" font-family="FreeSans.ttf" font-size="10.00">performFFTShift</text>
</a>
</g>
</g>
<!-- Node1&#45;&gt;Node12 -->
<g id="edge11" class="edge">
<title>Node1&#45;&gt;Node12</title>
<path fill="none" stroke="midnightblue" d="M106.49,-222.83C129.16,-210.32 162.97,-192.77 194,-181 200.33,-178.6 207.09,-176.38 213.83,-174.36"/>
<polygon fill="midnightblue" stroke="midnightblue" points="214.97,-177.67 223.63,-171.56 213.05,-170.94 214.97,-177.67"/>
</g>
<!-- Node13 -->
<g id="node13" class="node">
<title>Node13</title>
<g id="a_node13"><a xlink:href="gpuNUFFT__kernels_8hpp.html#ae4b6d76d21fb2ed317d056a93b8cbec8" target="_top" xlink:title="Multiply each image element with the coil sensitivity.">
<polygon fill="none" stroke="black" points="222,-114.5 222,-133.5 310,-133.5 310,-114.5 222,-114.5"/>
<text text-anchor="middle" x="266" y="-121.5" font-family="FreeSans.ttf" font-size="10.00">performSensMul</text>
</a>
</g>
</g>
<!-- Node1&#45;&gt;Node13 -->
<g id="edge12" class="edge">
<title>Node1&#45;&gt;Node13</title>
<path fill="none" stroke="midnightblue" d="M93.96,-222.79C114.07,-201.79 153.28,-164.1 194,-143 199.65,-140.07 205.79,-137.56 212.02,-135.42"/>
<polygon fill="midnightblue" stroke="midnightblue" points="213.33,-138.68 221.83,-132.35 211.24,-132 213.33,-138.68"/>
</g>
<!-- Node14 -->
<g id="node14" class="node">
<title>Node14</title>
<g id="a_node14"><a xlink:href="gpuNUFFT__kernels_8hpp.html#a4fb7267c2c5a30df881bd052430ebb59" target="_top" xlink:title="Perform a element&#45;wise summation over multiple coil images.">
<polygon fill="none" stroke="black" points="220,-76.5 220,-95.5 312,-95.5 312,-76.5 220,-76.5"/>
<text text-anchor="middle" x="266" y="-83.5" font-family="FreeSans.ttf" font-size="10.00">performSensSum</text>
</a>
</g>
</g>
<!-- Node1&#45;&gt;Node14 -->
<g id="edge13" class="edge">
<title>Node1&#45;&gt;Node14</title>
<path fill="none" stroke="midnightblue" d="M88.81,-222.62C105.58,-194.75 144.84,-135.94 194,-105 198.98,-101.86 204.47,-99.24 210.13,-97.05"/>
<polygon fill="midnightblue" stroke="midnightblue" points="211.42,-100.31 219.74,-93.75 209.14,-93.69 211.42,-100.31"/>
</g>
<!-- Node15 -->
<g id="node15" class="node">
<title>Node15</title>
<g id="a_node15"><a xlink:href="precomp__kernels_8hpp.html#ae97a9a33d8405c1fd7bb673114667f14" target="_top" xlink:title="Select input array in order defined by data_indices.">
<polygon fill="none" stroke="black" points="216.5,-38.5 216.5,-57.5 315.5,-57.5 315.5,-38.5 216.5,-38.5"/>
<text text-anchor="middle" x="266" y="-45.5" font-family="FreeSans.ttf" font-size="10.00">selectOrderedGPU</text>
</a>
</g>
</g>
<!-- Node1&#45;&gt;Node15 -->
<g id="edge14" class="edge">
<title>Node1&#45;&gt;Node15</title>
<path fill="none" stroke="midnightblue" d="M85.75,-222.75C99.23,-189.16 136.16,-108.48 194,-67 197.94,-64.17 202.28,-61.77 206.8,-59.72"/>
<polygon fill="midnightblue" stroke="midnightblue" points="208.26,-62.91 216.29,-56 205.71,-56.39 208.26,-62.91"/>
</g>
<!-- Node16 -->
<g id="node16" class="node">
<title>Node16</title>
<g id="a_node16"><a xlink:href="cuda__utils_8hpp.html#ad9458f074da29c52d203d541be58971a" target="_top" xlink:title="Debug short device memory information (free/total) to stream if DEBUG flag is set to true.">
<polygon fill="none" stroke="black" points="220.5,-0.5 220.5,-19.5 311.5,-19.5 311.5,-0.5 220.5,-0.5"/>
<text text-anchor="middle" x="266" y="-7.5" font-family="FreeSans.ttf" font-size="10.00">showMemoryInfo</text>
</a>
</g>
</g>
<!-- Node1&#45;&gt;Node16 -->
<g id="edge15" class="edge">
<title>Node1&#45;&gt;Node16</title>
<path fill="none" stroke="midnightblue" d="M83.76,-222.94C94.2,-184.39 127.24,-81.51 194,-29 199,-25.07 204.75,-21.94 210.76,-19.47"/>
<polygon fill="midnightblue" stroke="midnightblue" points="212.1,-22.71 220.36,-16.08 209.77,-16.11 212.1,-22.71"/>
</g>
<!-- Node5 -->
<g id="node5" class="node">
<title>Node5</title>
<g id="a_node5"><a xlink:href="structgpuNUFFT_1_1Dimensions.html#a4c589934c5444910fbcd890d128229c9" target="_top" xlink:title="Compute total count of array length.">
<polygon fill="none" stroke="black" points="374,-378 374,-408 495,-408 495,-378 374,-378"/>
<text text-anchor="start" x="382" y="-396" font-family="FreeSans.ttf" font-size="10.00">gpuNUFFT::Dimensions</text>
<text text-anchor="middle" x="434.5" y="-385" font-family="FreeSans.ttf" font-size="10.00">::count</text>
</a>
</g>
</g>
<!-- Node4&#45;&gt;Node5 -->
<g id="edge4" class="edge">
<title>Node4&#45;&gt;Node5</title>
<path fill="none" stroke="midnightblue" d="M326.64,-391.07C338.67,-391.29 351.41,-391.52 363.75,-391.74"/>
<polygon fill="midnightblue" stroke="midnightblue" points="363.94,-395.25 374,-391.93 364.06,-388.25 363.94,-395.25"/>
</g>
<!-- Node7 -->
<g id="node7" class="node">
<title>Node7</title>
<g id="a_node7"><a xlink:href="cuda__utils_8hpp.html#a6ffa821f98a8c2b391c12c01308ff1db" target="_top" xlink:title="Free of device memory.">
<polygon fill="none" stroke="black" points="392,-339.5 392,-358.5 477,-358.5 477,-339.5 392,-339.5"/>
<text text-anchor="middle" x="434.5" y="-346.5" font-family="FreeSans.ttf" font-size="10.00">freeDeviceMem</text>
</a>
</g>
</g>
<!-- Node6&#45;&gt;Node7 -->
<g id="edge6" class="edge">
<title>Node6&#45;&gt;Node7</title>
<path fill="none" stroke="midnightblue" d="M325.7,-350.94C343.94,-350.61 363.9,-350.25 381.63,-349.93"/>
<polygon fill="midnightblue" stroke="midnightblue" points="381.85,-353.43 391.79,-349.75 381.73,-346.43 381.85,-353.43"/>
</g>
</g>
</svg>
