<?xml version="1.0" encoding="UTF-8" standalone="no"?>
<!DOCTYPE svg PUBLIC "-//W3C//DTD SVG 1.1//EN"
 "http://www.w3.org/Graphics/SVG/1.1/DTD/svg11.dtd">
<!-- Generated by graphviz version 2.49.3 (20211027.1534)
 -->
<!-- Title: gpuNUFFT::GpuNUFFTOperator::performGpuNUFFTAdj Pages: 1 -->
<svg width="503pt" height="522pt"
 viewBox="0.00 0.00 503.00 522.00" xmlns="http://www.w3.org/2000/svg" xmlns:xlink="http://www.w3.org/1999/xlink">
<g id="graph0" class="graph" transform="scale(1 1) rotate(0) translate(4 518)">
<title>gpuNUFFT::GpuNUFFTOperator::performGpuNUFFTAdj</title>
<!-- Node1 -->
<g id="node1" class="node">
<title>Node1</title>
<g id="a_node1"><a xlink:title="Perform Adjoint gridding operation on kspaceData already residing in GPU memory.">
<polygon fill="#bfbfbf" stroke="black" points="0,-242 0,-272 158,-272 158,-242 0,-242"/>
<text text-anchor="start" x="8" y="-260" font-family="FreeSans.ttf" font-size="10.00">gpuNUFFT::GpuNUFFTOperator</text>
<text text-anchor="middle" x="79" y="-249" font-family="FreeSans.ttf" font-size="10.00">::performGpuNUFFTAdj</text>
</a>
</g>
</g>
<!-- Node2 -->
<g id="node2" class="node">
<title>Node2</title>
<g id="a_node2"><a xlink:href="cuda__utils_8hpp.html#a130580818f5be50503003961ad9f8852" target="_top" xlink:title="CUDA memcpy call to copy data from device ptr to device ptr.">
<polygon fill="none" stroke="black" points="212,-494.5 212,-513.5 320,-513.5 320,-494.5 212,-494.5"/>
<text text-anchor="middle" x="266" y="-501.5" font-family="FreeSans.ttf" font-size="10.00">copyDeviceToDevice</text>
</a>
</g>
</g>
<!-- Node1&#45;&gt;Node2 -->
<g id="edge1" class="edge">
<title>Node1&#45;&gt;Node2</title>
<path fill="none" stroke="midnightblue" d="M83.06,-272.2C92.14,-313.21 122.85,-426.95 194,-485 196.62,-487.14 199.46,-489.04 202.44,-490.72"/>
<polygon fill="midnightblue" stroke="midnightblue" points="201.22,-494.02 211.75,-495.17 204.24,-487.7 201.22,-494.02"/>
</g>
<!-- Node3 -->
<g id="node3" class="node">
<title>Node3</title>
<g id="a_node3"><a xlink:href="cuda__utils_8hpp.html#a52e9a7f2a2d5bed73e0e9e7d367b1198" target="_top" xlink:title="CUDA memcpy call to copy data from host to device.">
<polygon fill="none" stroke="black" points="227,-456.5 227,-475.5 305,-475.5 305,-456.5 227,-456.5"/>
<text text-anchor="middle" x="266" y="-463.5" font-family="FreeSans.ttf" font-size="10.00">copyToDevice</text>
</a>
</g>
</g>
<!-- Node1&#45;&gt;Node3 -->
<g id="edge2" class="edge">
<title>Node1&#45;&gt;Node3</title>
<path fill="none" stroke="midnightblue" d="M84.62,-272.02C96.5,-308.06 131.64,-399.99 194,-447 200.81,-452.13 208.91,-455.88 217.15,-458.62"/>
<polygon fill="midnightblue" stroke="midnightblue" points="216.25,-462 226.83,-461.39 218.18,-455.27 216.25,-462"/>
</g>
<!-- Node4 -->
<g id="node4" class="node">
<title>Node4</title>
<g id="a_node4"><a xlink:href="structgpuNUFFT_1_1Array.html#af426f56b5d7e05b6143acbdd51bac188" target="_top" xlink:title=" ">
<polygon fill="none" stroke="black" points="205.5,-418.5 205.5,-437.5 326.5,-437.5 326.5,-418.5 205.5,-418.5"/>
<text text-anchor="middle" x="266" y="-425.5" font-family="FreeSans.ttf" font-size="10.00">gpuNUFFT::Array::count</text>
</a>
</g>
</g>
<!-- Node1&#45;&gt;Node4 -->
<g id="edge3" class="edge">
<title>Node1&#45;&gt;Node4</title>
<path fill="none" stroke="midnightblue" d="M87.02,-272.17C102.07,-302.93 140.44,-372.79 194,-409 196.94,-410.99 200.09,-412.77 203.35,-414.37"/>
<polygon fill="midnightblue" stroke="midnightblue" points="202.24,-417.7 212.81,-418.39 204.97,-411.25 202.24,-417.7"/>
</g>
<!-- Node6 -->
<g id="node6" class="node">
<title>Node6</title>
<g id="a_node6"><a xlink:href="gpuNUFFT__fft__tests_8cpp.html#a1267fc514127315f25ad48e26de77b8c" target="_top" xlink:title=" ">
<polygon fill="none" stroke="black" points="244.5,-380.5 244.5,-399.5 287.5,-399.5 287.5,-380.5 244.5,-380.5"/>
<text text-anchor="middle" x="266" y="-387.5" font-family="FreeSans.ttf" font-size="10.00">debug</text>
</a>
</g>
</g>
<!-- Node1&#45;&gt;Node6 -->
<g id="edge5" class="edge">
<title>Node1&#45;&gt;Node6</title>
<path fill="none" stroke="midnightblue" d="M90.8,-272.07C109.16,-296.59 148.91,-344.98 194,-371 206.3,-378.1 221.31,-382.61 234.37,-385.45"/>
<polygon fill="midnightblue" stroke="midnightblue" points="233.84,-388.92 244.32,-387.39 235.17,-382.04 233.84,-388.92"/>
</g>
<!-- Node8 -->
<g id="node8" class="node">
<title>Node8</title>
<g id="a_node8"><a xlink:href="cuda__utils_8hpp.html#aaa83ead29bc50e65ae4298d9206a760b" target="_top" xlink:title="Free variable list of device pointers. Use NULL as stopping element.">
<polygon fill="none" stroke="black" points="206.5,-342.5 206.5,-361.5 325.5,-361.5 325.5,-342.5 206.5,-342.5"/>
<text text-anchor="middle" x="266" y="-349.5" font-family="FreeSans.ttf" font-size="10.00">freeTotalDeviceMemory</text>
</a>
</g>
</g>
<!-- Node1&#45;&gt;Node8 -->
<g id="edge7" class="edge">
<title>Node1&#45;&gt;Node8</title>
<path fill="none" stroke="midnightblue" d="M98.63,-272.23C120.32,-289.28 157.81,-316.63 194,-333 199.29,-335.39 204.94,-337.53 210.66,-339.44"/>
<polygon fill="midnightblue" stroke="midnightblue" points="209.7,-342.81 220.29,-342.42 211.77,-336.12 209.7,-342.81"/>
</g>
<!-- Node10 -->
<g id="node10" class="node">
<title>Node10</title>
<g id="a_node10"><a xlink:href="gpuNUFFT__kernels_8hpp.html#a9c8fce91e8db3c2970f0fe6b9e75687f" target="_top" xlink:title="Crop the oversampled grid according to the oversampling factor.">
<polygon fill="none" stroke="black" points="231,-304.5 231,-323.5 301,-323.5 301,-304.5 231,-304.5"/>
<text text-anchor="middle" x="266" y="-311.5" font-family="FreeSans.ttf" font-size="10.00">performCrop</text>
</a>
</g>
</g>
<!-- Node1&#45;&gt;Node10 -->
<g id="edge9" class="edge">
<title>Node1&#45;&gt;Node10</title>
<path fill="none" stroke="midnightblue" d="M123.11,-272.05C144.36,-279.3 170.42,-287.92 194,-295 202.7,-297.61 212.06,-300.24 221.03,-302.68"/>
<polygon fill="midnightblue" stroke="midnightblue" points="220.37,-306.12 230.93,-305.33 222.18,-299.36 220.37,-306.12"/>
</g>
<!-- Node11 -->
<g id="node11" class="node">
<title>Node11</title>
<g id="a_node11"><a xlink:href="gpuNUFFT__kernels_8hpp.html#af0e6938e27180cc16d3094543e2919c8" target="_top" xlink:title="Apply the deapodization function to the image.">
<polygon fill="none" stroke="black" points="211,-266.5 211,-285.5 321,-285.5 321,-266.5 211,-266.5"/>
<text text-anchor="middle" x="266" y="-273.5" font-family="FreeSans.ttf" font-size="10.00">performDeapodization</text>
</a>
</g>
</g>
<!-- Node1&#45;&gt;Node11 -->
<g id="edge10" class="edge">
<title>Node1&#45;&gt;Node11</title>
<path fill="none" stroke="midnightblue" d="M158.19,-265.03C172.33,-266.48 186.94,-267.98 200.63,-269.39"/>
<polygon fill="midnightblue" stroke="midnightblue" points="200.6,-272.9 210.9,-270.44 201.31,-265.94 200.6,-272.9"/>
</g>
<!-- Node12 -->
<g id="node12" class="node">
<title>Node12</title>
<g id="a_node12"><a xlink:href="gpuNUFFT__kernels_8hpp.html#a0b3ea272baf7252f5303c7fb9353e855" target="_top" xlink:title="Scale each element of the input data by the value of the density compensation function for the corres...">
<polygon fill="none" stroke="black" points="194,-228.5 194,-247.5 338,-247.5 338,-228.5 194,-228.5"/>
<text text-anchor="middle" x="266" y="-235.5" font-family="FreeSans.ttf" font-size="10.00">performDensityCompensation</text>
</a>
</g>
</g>
<!-- Node1&#45;&gt;Node12 -->
<g id="edge11" class="edge">
<title>Node1&#45;&gt;Node12</title>
<path fill="none" stroke="midnightblue" d="M158.19,-248.97C166.6,-248.11 175.18,-247.23 183.63,-246.36"/>
<polygon fill="midnightblue" stroke="midnightblue" points="184.26,-249.81 193.85,-245.31 183.55,-242.85 184.26,-249.81"/>
</g>
<!-- Node13 -->
<g id="node13" class="node">
<title>Node13</title>
<g id="a_node13"><a xlink:href="gpuNUFFT__kernels_8hpp.html#a282ad0ccb6ee40ae92d4acec00f7cebb" target="_top" xlink:title="Scale each element by the total number of elements.">
<polygon fill="none" stroke="black" points="216,-190.5 216,-209.5 316,-209.5 316,-190.5 216,-190.5"/>
<text text-anchor="middle" x="266" y="-197.5" font-family="FreeSans.ttf" font-size="10.00">performFFTScaling</text>
</a>
</g>
</g>
<!-- Node1&#45;&gt;Node13 -->
<g id="edge12" class="edge">
<title>Node1&#45;&gt;Node13</title>
<path fill="none" stroke="midnightblue" d="M123.11,-241.95C144.36,-234.7 170.42,-226.08 194,-219 201.65,-216.7 209.8,-214.4 217.75,-212.22"/>
<polygon fill="midnightblue" stroke="midnightblue" points="218.92,-215.53 227.66,-209.54 217.1,-208.77 218.92,-215.53"/>
</g>
<!-- Node14 -->
<g id="node14" class="node">
<title>Node14</title>
<g id="a_node14"><a xlink:href="gpuNUFFT__kernels_8hpp.html#ad5fef14609b81092079ee30422bbae64" target="_top" xlink:title="FFT shift the grid data.">
<polygon fill="none" stroke="black" points="222,-152.5 222,-171.5 310,-171.5 310,-152.5 222,-152.5"/>
<text text-anchor="middle" x="266" y="-159.5" font-family="FreeSans.ttf" font-size="10.00">performFFTShift</text>
</a>
</g>
</g>
<!-- Node1&#45;&gt;Node14 -->
<g id="edge13" class="edge">
<title>Node1&#45;&gt;Node14</title>
<path fill="none" stroke="midnightblue" d="M98.63,-241.77C120.32,-224.72 157.81,-197.37 194,-181 199.72,-178.41 205.87,-176.12 212.06,-174.1"/>
<polygon fill="midnightblue" stroke="midnightblue" points="213.23,-177.4 221.79,-171.15 211.2,-170.7 213.23,-177.4"/>
</g>
<!-- Node15 -->
<g id="node15" class="node">
<title>Node15</title>
<g id="a_node15"><a xlink:href="gpuNUFFT__kernels_8hpp.html#ae4b6d76d21fb2ed317d056a93b8cbec8" target="_top" xlink:title="Multiply each image element with the coil sensitivity.">
<polygon fill="none" stroke="black" points="222,-114.5 222,-133.5 310,-133.5 310,-114.5 222,-114.5"/>
<text text-anchor="middle" x="266" y="-121.5" font-family="FreeSans.ttf" font-size="10.00">performSensMul</text>
</a>
</g>
</g>
<!-- Node1&#45;&gt;Node15 -->
<g id="edge14" class="edge">
<title>Node1&#45;&gt;Node15</title>
<path fill="none" stroke="midnightblue" d="M90.8,-241.93C109.16,-217.41 148.91,-169.02 194,-143 199.58,-139.78 205.73,-137.09 212,-134.84"/>
<polygon fill="midnightblue" stroke="midnightblue" points="213.43,-138.06 221.89,-131.67 211.3,-131.39 213.43,-138.06"/>
</g>
<!-- Node16 -->
<g id="node16" class="node">
<title>Node16</title>
<g id="a_node16"><a xlink:href="gpuNUFFT__kernels_8hpp.html#a4fb7267c2c5a30df881bd052430ebb59" target="_top" xlink:title="Perform a element&#45;wise summation over multiple coil images.">
<polygon fill="none" stroke="black" points="220,-76.5 220,-95.5 312,-95.5 312,-76.5 220,-76.5"/>
<text text-anchor="middle" x="266" y="-83.5" font-family="FreeSans.ttf" font-size="10.00">performSensSum</text>
</a>
</g>
</g>
<!-- Node1&#45;&gt;Node16 -->
<g id="edge15" class="edge">
<title>Node1&#45;&gt;Node16</title>
<path fill="none" stroke="midnightblue" d="M87.02,-241.83C102.07,-211.07 140.44,-141.21 194,-105 198.94,-101.66 204.45,-98.9 210.15,-96.63"/>
<polygon fill="midnightblue" stroke="midnightblue" points="211.57,-99.85 219.86,-93.25 209.26,-93.24 211.57,-99.85"/>
</g>
<!-- Node17 -->
<g id="node17" class="node">
<title>Node17</title>
<g id="a_node17"><a xlink:href="precomp__kernels_8hpp.html#ae97a9a33d8405c1fd7bb673114667f14" target="_top" xlink:title="Select input array in order defined by data_indices.">
<polygon fill="none" stroke="black" points="216.5,-38.5 216.5,-57.5 315.5,-57.5 315.5,-38.5 216.5,-38.5"/>
<text text-anchor="middle" x="266" y="-45.5" font-family="FreeSans.ttf" font-size="10.00">selectOrderedGPU</text>
</a>
</g>
</g>
<!-- Node1&#45;&gt;Node17 -->
<g id="edge16" class="edge">
<title>Node1&#45;&gt;Node17</title>
<path fill="none" stroke="midnightblue" d="M84.62,-241.98C96.5,-205.94 131.64,-114.01 194,-67 197.93,-64.04 202.29,-61.53 206.86,-59.42"/>
<polygon fill="midnightblue" stroke="midnightblue" points="208.46,-62.55 216.47,-55.61 205.88,-56.04 208.46,-62.55"/>
</g>
<!-- Node18 -->
<g id="node18" class="node">
<title>Node18</title>
<g id="a_node18"><a xlink:href="cuda__utils_8hpp.html#ad9458f074da29c52d203d541be58971a" target="_top" xlink:title="Debug short device memory information (free/total) to stream if DEBUG flag is set to true.">
<polygon fill="none" stroke="black" points="220.5,-0.5 220.5,-19.5 311.5,-19.5 311.5,-0.5 220.5,-0.5"/>
<text text-anchor="middle" x="266" y="-7.5" font-family="FreeSans.ttf" font-size="10.00">showMemoryInfo</text>
</a>
</g>
</g>
<!-- Node1&#45;&gt;Node18 -->
<g id="edge17" class="edge">
<title>Node1&#45;&gt;Node18</title>
<path fill="none" stroke="midnightblue" d="M83.06,-241.8C92.14,-200.79 122.85,-87.05 194,-29 198.93,-24.98 204.64,-21.8 210.63,-19.29"/>
<polygon fill="midnightblue" stroke="midnightblue" points="211.96,-22.53 220.2,-15.88 209.61,-15.94 211.96,-22.53"/>
</g>
<!-- Node5 -->
<g id="node5" class="node">
<title>Node5</title>
<g id="a_node5"><a xlink:href="structgpuNUFFT_1_1Dimensions.html#a4c589934c5444910fbcd890d128229c9" target="_top" xlink:title="Compute total count of array length.">
<polygon fill="none" stroke="black" points="374,-419 374,-449 495,-449 495,-419 374,-419"/>
<text text-anchor="start" x="382" y="-437" font-family="FreeSans.ttf" font-size="10.00">gpuNUFFT::Dimensions</text>
<text text-anchor="middle" x="434.5" y="-426" font-family="FreeSans.ttf" font-size="10.00">::count</text>
</a>
</g>
</g>
<!-- Node4&#45;&gt;Node5 -->
<g id="edge4" class="edge">
<title>Node4&#45;&gt;Node5</title>
<path fill="none" stroke="midnightblue" d="M326.64,-430.15C338.67,-430.58 351.41,-431.04 363.75,-431.49"/>
<polygon fill="midnightblue" stroke="midnightblue" points="363.88,-434.99 374,-431.86 364.13,-428 363.88,-434.99"/>
</g>
<!-- Node7 -->
<g id="node7" class="node">
<title>Node7</title>
<g id="a_node7"><a xlink:href="precomp__utils_8hpp.html#abe84080342fe3565651b846659b1faba" target="_top" xlink:title="Compute linear index from 3&#45;d point in grid defined by dim.">
<polygon fill="none" stroke="black" points="388.5,-380.5 388.5,-399.5 480.5,-399.5 480.5,-380.5 388.5,-380.5"/>
<text text-anchor="middle" x="434.5" y="-387.5" font-family="FreeSans.ttf" font-size="10.00">computeXYZ2Lin</text>
</a>
</g>
</g>
<!-- Node6&#45;&gt;Node7 -->
<g id="edge6" class="edge">
<title>Node6&#45;&gt;Node7</title>
<path fill="none" stroke="midnightblue" d="M287.75,-390C310.23,-390 347.03,-390 378.03,-390"/>
<polygon fill="midnightblue" stroke="midnightblue" points="378.29,-393.5 388.29,-390 378.29,-386.5 378.29,-393.5"/>
</g>
<!-- Node9 -->
<g id="node9" class="node">
<title>Node9</title>
<g id="a_node9"><a xlink:href="cuda__utils_8hpp.html#a6ffa821f98a8c2b391c12c01308ff1db" target="_top" xlink:title="Free of device memory.">
<polygon fill="none" stroke="black" points="392,-342.5 392,-361.5 477,-361.5 477,-342.5 392,-342.5"/>
<text text-anchor="middle" x="434.5" y="-349.5" font-family="FreeSans.ttf" font-size="10.00">freeDeviceMem</text>
</a>
</g>
</g>
<!-- Node8&#45;&gt;Node9 -->
<g id="edge8" class="edge">
<title>Node8&#45;&gt;Node9</title>
<path fill="none" stroke="midnightblue" d="M325.7,-352C343.94,-352 363.9,-352 381.63,-352"/>
<polygon fill="midnightblue" stroke="midnightblue" points="381.79,-355.5 391.79,-352 381.79,-348.5 381.79,-355.5"/>
</g>
</g>
</svg>
