<?xml version="1.0" encoding="UTF-8" standalone="no"?>
<!DOCTYPE svg PUBLIC "-//W3C//DTD SVG 1.1//EN"
 "http://www.w3.org/Graphics/SVG/1.1/DTD/svg11.dtd">
<!-- Generated by graphviz version 2.49.3 (20211027.1534)
 -->
<!-- Title: gpuNUFFT::GpuNUFFTOperatorFactory::computeSectorCenters Pages: 1 -->
<svg width="748pt" height="225pt"
 viewBox="0.00 0.00 748.00 224.50" xmlns="http://www.w3.org/2000/svg" xmlns:xlink="http://www.w3.org/1999/xlink">
<g id="graph0" class="graph" transform="scale(1 1) rotate(0) translate(4 220.5)">
<title>gpuNUFFT::GpuNUFFTOperatorFactory::computeSectorCenters</title>
<!-- Node1 -->
<g id="node1" class="node">
<title>Node1</title>
<g id="a_node1"><a xlink:title="Compute sector centers array.">
<polygon fill="#bfbfbf" stroke="black" points="0,-98.5 0,-128.5 158,-128.5 158,-98.5 0,-98.5"/>
<text text-anchor="start" x="8" y="-116.5" font-family="FreeSans.ttf" font-size="10.00">gpuNUFFT::GpuNUFFTOperator</text>
<text text-anchor="middle" x="79" y="-105.5" font-family="FreeSans.ttf" font-size="10.00">Factory::computeSectorCenters</text>
</a>
</g>
</g>
<!-- Node2 -->
<g id="node2" class="node">
<title>Node2</title>
<g id="a_node2"><a xlink:href="precomp__utils_8hpp.html#abe84080342fe3565651b846659b1faba" target="_top" xlink:title="Compute linear index from 3&#45;d point in grid defined by dim.">
<polygon fill="none" stroke="black" points="227,-197 227,-216 319,-216 319,-197 227,-197"/>
<text text-anchor="middle" x="273" y="-204" font-family="FreeSans.ttf" font-size="10.00">computeXYZ2Lin</text>
</a>
</g>
</g>
<!-- Node1&#45;&gt;Node2 -->
<g id="edge1" class="edge">
<title>Node1&#45;&gt;Node2</title>
<path fill="none" stroke="midnightblue" d="M99.03,-128.75C120.78,-145.47 158.04,-171.98 194,-187.5 201.2,-190.61 209,-193.26 216.79,-195.52"/>
<polygon fill="midnightblue" stroke="midnightblue" points="216.04,-198.94 226.61,-198.17 217.86,-192.19 216.04,-198.94"/>
</g>
<!-- Node3 -->
<g id="node3" class="node">
<title>Node3</title>
<g id="a_node3"><a xlink:href="structgpuNUFFT_1_1Dimensions.html#a4c589934c5444910fbcd890d128229c9" target="_top" xlink:title="Compute total count of array length.">
<polygon fill="none" stroke="black" points="212.5,-147.5 212.5,-177.5 333.5,-177.5 333.5,-147.5 212.5,-147.5"/>
<text text-anchor="start" x="220.5" y="-165.5" font-family="FreeSans.ttf" font-size="10.00">gpuNUFFT::Dimensions</text>
<text text-anchor="middle" x="273" y="-154.5" font-family="FreeSans.ttf" font-size="10.00">::count</text>
</a>
</g>
</g>
<!-- Node1&#45;&gt;Node3 -->
<g id="edge2" class="edge">
<title>Node1&#45;&gt;Node3</title>
<path fill="none" stroke="midnightblue" d="M138.91,-128.53C159.28,-133.73 182.27,-139.6 203.35,-144.98"/>
<polygon fill="midnightblue" stroke="midnightblue" points="202.65,-148.41 213.2,-147.49 204.38,-141.63 202.65,-148.41"/>
</g>
<!-- Node4 -->
<g id="node4" class="node">
<title>Node4</title>
<g id="a_node4"><a xlink:href="classgpuNUFFT_1_1GpuNUFFTOperator.html#a827308da49fcedc4725cf9509dd2a3c0" target="_top" xlink:title=" ">
<polygon fill="none" stroke="black" points="194,-98.5 194,-128.5 352,-128.5 352,-98.5 194,-98.5"/>
<text text-anchor="start" x="202" y="-116.5" font-family="FreeSans.ttf" font-size="10.00">gpuNUFFT::GpuNUFFTOperator</text>
<text text-anchor="middle" x="273" y="-105.5" font-family="FreeSans.ttf" font-size="10.00">::getGridSectorDims</text>
</a>
</g>
</g>
<!-- Node1&#45;&gt;Node4 -->
<g id="edge3" class="edge">
<title>Node1&#45;&gt;Node4</title>
<path fill="none" stroke="midnightblue" d="M158.09,-113.5C166.6,-113.5 175.3,-113.5 183.92,-113.5"/>
<polygon fill="midnightblue" stroke="midnightblue" points="183.98,-117 193.98,-113.5 183.98,-110 183.98,-117"/>
</g>
<!-- Node5 -->
<g id="node5" class="node">
<title>Node5</title>
<g id="a_node5"><a xlink:href="classgpuNUFFT_1_1GpuNUFFTOperator.html#a26762c7cb13205226b6f77c37a57d8a9" target="_top" xlink:title=" ">
<polygon fill="none" stroke="black" points="194,-49.5 194,-79.5 352,-79.5 352,-49.5 194,-49.5"/>
<text text-anchor="start" x="202" y="-67.5" font-family="FreeSans.ttf" font-size="10.00">gpuNUFFT::GpuNUFFTOperator</text>
<text text-anchor="middle" x="273" y="-56.5" font-family="FreeSans.ttf" font-size="10.00">::getSectorWidth</text>
</a>
</g>
</g>
<!-- Node1&#45;&gt;Node5 -->
<g id="edge4" class="edge">
<title>Node1&#45;&gt;Node5</title>
<path fill="none" stroke="midnightblue" d="M138.91,-98.47C159.28,-93.27 182.27,-87.4 203.35,-82.02"/>
<polygon fill="midnightblue" stroke="midnightblue" points="204.38,-85.37 213.2,-79.51 202.65,-78.59 204.38,-85.37"/>
</g>
<!-- Node6 -->
<g id="node6" class="node">
<title>Node6</title>
<g id="a_node6"><a xlink:href="classgpuNUFFT_1_1GpuNUFFTOperatorFactory.html#af28b53802fd66b755083507e1fe99311" target="_top" xlink:title="Initialization method for the sector centers array.">
<polygon fill="none" stroke="black" points="194,-0.5 194,-30.5 352,-30.5 352,-0.5 194,-0.5"/>
<text text-anchor="start" x="202" y="-18.5" font-family="FreeSans.ttf" font-size="10.00">gpuNUFFT::GpuNUFFTOperator</text>
<text text-anchor="middle" x="273" y="-7.5" font-family="FreeSans.ttf" font-size="10.00">Factory::initSectorCenters</text>
</a>
</g>
</g>
<!-- Node1&#45;&gt;Node6 -->
<g id="edge5" class="edge">
<title>Node1&#45;&gt;Node6</title>
<path fill="none" stroke="midnightblue" d="M100.08,-98.35C122.15,-82.26 159.13,-56.91 194,-40.5 198.7,-38.29 203.66,-36.19 208.69,-34.24"/>
<polygon fill="midnightblue" stroke="midnightblue" points="210.26,-37.39 218.42,-30.63 207.83,-30.82 210.26,-37.39"/>
</g>
<!-- Node7 -->
<g id="node7" class="node">
<title>Node7</title>
<g id="a_node7"><a xlink:href="classgpuNUFFT_1_1GpuNUFFTOperator.html#a10c8eb392c0a61a80ec1bf8784e20303" target="_top" xlink:title="Return dimension of problem. Either 2&#45;d or 3&#45;d.">
<polygon fill="none" stroke="black" points="388,-0.5 388,-30.5 546,-30.5 546,-0.5 388,-0.5"/>
<text text-anchor="start" x="396" y="-18.5" font-family="FreeSans.ttf" font-size="10.00">gpuNUFFT::GpuNUFFTOperator</text>
<text text-anchor="middle" x="467" y="-7.5" font-family="FreeSans.ttf" font-size="10.00">::getImageDimensionCount</text>
</a>
</g>
</g>
<!-- Node6&#45;&gt;Node7 -->
<g id="edge6" class="edge">
<title>Node6&#45;&gt;Node7</title>
<path fill="none" stroke="midnightblue" d="M352.09,-15.5C360.6,-15.5 369.3,-15.5 377.92,-15.5"/>
<polygon fill="midnightblue" stroke="midnightblue" points="377.98,-19 387.98,-15.5 377.98,-12 377.98,-19"/>
</g>
<!-- Node8 -->
<g id="node8" class="node">
<title>Node8</title>
<g id="a_node8"><a xlink:href="classgpuNUFFT_1_1GpuNUFFTOperator.html#a635c1cf91573264cafb1f3df27fdf976" target="_top" xlink:title=" ">
<polygon fill="none" stroke="black" points="582,-0.5 582,-30.5 740,-30.5 740,-0.5 582,-0.5"/>
<text text-anchor="start" x="590" y="-18.5" font-family="FreeSans.ttf" font-size="10.00">gpuNUFFT::GpuNUFFTOperator</text>
<text text-anchor="middle" x="661" y="-7.5" font-family="FreeSans.ttf" font-size="10.00">::is2DProcessing</text>
</a>
</g>
</g>
<!-- Node7&#45;&gt;Node8 -->
<g id="edge7" class="edge">
<title>Node7&#45;&gt;Node8</title>
<path fill="none" stroke="midnightblue" d="M546.09,-15.5C554.6,-15.5 563.3,-15.5 571.92,-15.5"/>
<polygon fill="midnightblue" stroke="midnightblue" points="571.98,-19 581.98,-15.5 571.98,-12 571.98,-19"/>
</g>
</g>
</svg>
