<?xml version="1.0" encoding="UTF-8" standalone="no"?>
<!DOCTYPE svg PUBLIC "-//W3C//DTD SVG 1.1//EN"
 "http://www.w3.org/Graphics/SVG/1.1/DTD/svg11.dtd">
<!-- Generated by graphviz version 2.49.3 (20211027.1534)
 -->
<!-- Title: GpuNUFFTPythonOperator::op Pages: 1 -->
<svg width="352pt" height="78pt"
 viewBox="0.00 0.00 352.00 77.50" xmlns="http://www.w3.org/2000/svg" xmlns:xlink="http://www.w3.org/1999/xlink">
<g id="graph0" class="graph" transform="scale(1 1) rotate(0) translate(4 73.5)">
<title>GpuNUFFTPythonOperator::op</title>
<!-- Node1 -->
<g id="node1" class="node">
<title>Node1</title>
<g id="a_node1"><a xlink:title="Forward operator (Image to kspace)">
<polygon fill="#bfbfbf" stroke="black" points="0,-28 0,-47 150,-47 150,-28 0,-28"/>
<text text-anchor="middle" x="75" y="-35" font-family="FreeSans.ttf" font-size="10.00">GpuNUFFTPythonOperator::op</text>
</a>
</g>
</g>
<!-- Node2 -->
<g id="node2" class="node">
<title>Node2</title>
<g id="a_node2"><a xlink:href="python__utils_8hpp.html#a6fc45707d1f047d4232b16582576b2e6" target="_top" xlink:title=" ">
<polygon fill="none" stroke="black" points="220,-50 220,-69 310,-69 310,-50 220,-50"/>
<text text-anchor="middle" x="265" y="-57" font-family="FreeSans.ttf" font-size="10.00">copyNumpyArray</text>
</a>
</g>
</g>
<!-- Node1&#45;&gt;Node2 -->
<g id="edge1" class="edge">
<title>Node1&#45;&gt;Node2</title>
<path fill="none" stroke="midnightblue" d="M150.03,-46.16C169.97,-48.5 191.17,-50.98 209.81,-53.16"/>
<polygon fill="midnightblue" stroke="midnightblue" points="209.53,-56.65 219.87,-54.34 210.35,-49.7 209.53,-56.65"/>
</g>
<!-- Node3 -->
<g id="node3" class="node">
<title>Node3</title>
<g id="a_node3"><a xlink:href="classgpuNUFFT_1_1GpuNUFFTOperator.html#a10d565529aa2c7778c15edb8a820b417" target="_top" xlink:title="Perform forward gridding operation on given kspaceData.">
<polygon fill="none" stroke="black" points="186,-0.5 186,-30.5 344,-30.5 344,-0.5 186,-0.5"/>
<text text-anchor="start" x="194" y="-18.5" font-family="FreeSans.ttf" font-size="10.00">gpuNUFFT::GpuNUFFTOperator</text>
<text text-anchor="middle" x="265" y="-7.5" font-family="FreeSans.ttf" font-size="10.00">::performForwardGpuNUFFT</text>
</a>
</g>
</g>
<!-- Node1&#45;&gt;Node3 -->
<g id="edge2" class="edge">
<title>Node1&#45;&gt;Node3</title>
<path fill="none" stroke="midnightblue" d="M150.03,-28.84C158.45,-27.85 167.1,-26.84 175.68,-25.84"/>
<polygon fill="midnightblue" stroke="midnightblue" points="176.18,-29.3 185.7,-24.66 175.36,-22.35 176.18,-29.3"/>
</g>
</g>
</svg>
