<?xml version="1.0" encoding="UTF-8" standalone="no"?>
<!DOCTYPE svg PUBLIC "-//W3C//DTD SVG 1.1//EN"
 "http://www.w3.org/Graphics/SVG/1.1/DTD/svg11.dtd">
<!-- Generated by graphviz version 2.49.3 (20211027.1534)
 -->
<!-- Title: gpuNUFFT::GpuNUFFTOperatorFactory::computeProcessingOrder Pages: 1 -->
<svg width="523pt" height="132pt"
 viewBox="0.00 0.00 523.00 132.00" xmlns="http://www.w3.org/2000/svg" xmlns:xlink="http://www.w3.org/1999/xlink">
<g id="graph0" class="graph" transform="scale(1 1) rotate(0) translate(4 128)">
<title>gpuNUFFT::GpuNUFFTOperatorFactory::computeProcessingOrder</title>
<!-- Node1 -->
<g id="node1" class="node">
<title>Node1</title>
<g id="a_node1"><a xlink:title="Method to compute the sector processing order.">
<polygon fill="#bfbfbf" stroke="black" points="0,-49.5 0,-79.5 164,-79.5 164,-49.5 0,-49.5"/>
<text text-anchor="start" x="8" y="-67.5" font-family="FreeSans.ttf" font-size="10.00">gpuNUFFT::GpuNUFFTOperator</text>
<text text-anchor="middle" x="82" y="-56.5" font-family="FreeSans.ttf" font-size="10.00">Factory::computeProcessingOrder</text>
</a>
</g>
</g>
<!-- Node2 -->
<g id="node2" class="node">
<title>Node2</title>
<g id="a_node2"><a xlink:href="structgpuNUFFT_1_1Array.html#af426f56b5d7e05b6143acbdd51bac188" target="_top" xlink:title=" ">
<polygon fill="none" stroke="black" points="218.5,-99 218.5,-118 339.5,-118 339.5,-99 218.5,-99"/>
<text text-anchor="middle" x="279" y="-106" font-family="FreeSans.ttf" font-size="10.00">gpuNUFFT::Array::count</text>
</a>
</g>
</g>
<!-- Node1&#45;&gt;Node2 -->
<g id="edge1" class="edge">
<title>Node1&#45;&gt;Node2</title>
<path fill="none" stroke="midnightblue" d="M149.56,-79.52C174.57,-85.16 202.6,-91.49 226.08,-96.78"/>
<polygon fill="midnightblue" stroke="midnightblue" points="225.32,-100.2 235.84,-98.99 226.86,-93.37 225.32,-100.2"/>
</g>
<!-- Node4 -->
<g id="node4" class="node">
<title>Node4</title>
<g id="a_node4"><a xlink:href="classgpuNUFFT_1_1GpuNUFFTOperator.html#a363ead61b541115bb6056de9d4597e05" target="_top" xlink:title=" ">
<polygon fill="none" stroke="black" points="200,-49.5 200,-79.5 358,-79.5 358,-49.5 200,-49.5"/>
<text text-anchor="start" x="208" y="-67.5" font-family="FreeSans.ttf" font-size="10.00">gpuNUFFT::GpuNUFFTOperator</text>
<text text-anchor="middle" x="279" y="-56.5" font-family="FreeSans.ttf" font-size="10.00">::getSectorDataCount</text>
</a>
</g>
</g>
<!-- Node1&#45;&gt;Node4 -->
<g id="edge3" class="edge">
<title>Node1&#45;&gt;Node4</title>
<path fill="none" stroke="midnightblue" d="M164,-64.5C172.5,-64.5 181.17,-64.5 189.75,-64.5"/>
<polygon fill="midnightblue" stroke="midnightblue" points="189.75,-68 199.75,-64.5 189.75,-61 189.75,-68"/>
</g>
<!-- Node5 -->
<g id="node5" class="node">
<title>Node5</title>
<g id="a_node5"><a xlink:href="classgpuNUFFT_1_1GpuNUFFTOperator.html#a3c1a8d920315e2659872571adaa4f868" target="_top" xlink:title="Return type of GriddingOperator.">
<polygon fill="none" stroke="black" points="200,-0.5 200,-30.5 358,-30.5 358,-0.5 200,-0.5"/>
<text text-anchor="start" x="208" y="-18.5" font-family="FreeSans.ttf" font-size="10.00">gpuNUFFT::GpuNUFFTOperator</text>
<text text-anchor="middle" x="279" y="-7.5" font-family="FreeSans.ttf" font-size="10.00">::getType</text>
</a>
</g>
</g>
<!-- Node1&#45;&gt;Node5 -->
<g id="edge4" class="edge">
<title>Node1&#45;&gt;Node5</title>
<path fill="none" stroke="midnightblue" d="M142.83,-49.47C163.61,-44.24 187.08,-38.35 208.57,-32.95"/>
<polygon fill="midnightblue" stroke="midnightblue" points="209.44,-36.34 218.28,-30.51 207.73,-29.55 209.44,-36.34"/>
</g>
<!-- Node3 -->
<g id="node3" class="node">
<title>Node3</title>
<g id="a_node3"><a xlink:href="structgpuNUFFT_1_1Dimensions.html#a4c589934c5444910fbcd890d128229c9" target="_top" xlink:title="Compute total count of array length.">
<polygon fill="none" stroke="black" points="394,-93.5 394,-123.5 515,-123.5 515,-93.5 394,-93.5"/>
<text text-anchor="start" x="402" y="-111.5" font-family="FreeSans.ttf" font-size="10.00">gpuNUFFT::Dimensions</text>
<text text-anchor="middle" x="454.5" y="-100.5" font-family="FreeSans.ttf" font-size="10.00">::count</text>
</a>
</g>
</g>
<!-- Node2&#45;&gt;Node3 -->
<g id="edge2" class="edge">
<title>Node2&#45;&gt;Node3</title>
<path fill="none" stroke="midnightblue" d="M339.71,-108.5C353.96,-108.5 369.3,-108.5 383.96,-108.5"/>
<polygon fill="midnightblue" stroke="midnightblue" points="383.98,-112 393.98,-108.5 383.98,-105 383.98,-112"/>
</g>
</g>
</svg>
