<?xml version="1.0" encoding="UTF-8" standalone="no"?>
<!DOCTYPE svg PUBLIC "-//W3C//DTD SVG 1.1//EN"
 "http://www.w3.org/Graphics/SVG/1.1/DTD/svg11.dtd">
<!-- Generated by graphviz version 2.49.3 (20211027.1534)
 -->
<!-- Title: gpuNUFFT::GpuNUFFTOperator::initKernel Pages: 1 -->
<svg width="576pt" height="122pt"
 viewBox="0.00 0.00 576.00 122.00" xmlns="http://www.w3.org/2000/svg" xmlns:xlink="http://www.w3.org/1999/xlink">
<g id="graph0" class="graph" transform="scale(1 1) rotate(0) translate(4 118)">
<title>gpuNUFFT::GpuNUFFTOperator::initKernel</title>
<!-- Node1 -->
<g id="node1" class="node">
<title>Node1</title>
<g id="a_node1"><a xlink:title="Precompute interpolation kernel lookup table.">
<polygon fill="#bfbfbf" stroke="black" points="0,-33 0,-63 158,-63 158,-33 0,-33"/>
<text text-anchor="start" x="8" y="-51" font-family="FreeSans.ttf" font-size="10.00">gpuNUFFT::GpuNUFFTOperator</text>
<text text-anchor="middle" x="79" y="-40" font-family="FreeSans.ttf" font-size="10.00">::initKernel</text>
</a>
</g>
</g>
<!-- Node2 -->
<g id="node2" class="node">
<title>Node2</title>
<g id="a_node2"><a xlink:href="gpuNUFFT__utils_8cpp.html#ac57bf34370dd28161430ed9f8a1d9664" target="_top" xlink:title=" ">
<polygon fill="none" stroke="black" points="194,-76.5 194,-95.5 319,-95.5 319,-76.5 194,-76.5"/>
<text text-anchor="middle" x="256.5" y="-83.5" font-family="FreeSans.ttf" font-size="10.00">calculateGrid3KernelSize</text>
</a>
</g>
</g>
<!-- Node1&#45;&gt;Node2 -->
<g id="edge1" class="edge">
<title>Node1&#45;&gt;Node2</title>
<path fill="none" stroke="midnightblue" d="M149.36,-63.02C166.74,-66.78 185.12,-70.76 201.62,-74.33"/>
<polygon fill="midnightblue" stroke="midnightblue" points="201.11,-77.8 211.62,-76.5 202.59,-70.96 201.11,-77.8"/>
</g>
<!-- Node3 -->
<g id="node3" class="node">
<title>Node3</title>
<g id="a_node3"><a xlink:href="gpuNUFFT__utils_8hpp.html#a18dd3c6c4b8ac5f6947f3dc1c59651bc" target="_top" xlink:title="Interpolation Kernel evaluation for radius.">
<polygon fill="none" stroke="black" points="355,-19.5 355,-38.5 398,-38.5 398,-19.5 355,-19.5"/>
<text text-anchor="middle" x="376.5" y="-26.5" font-family="FreeSans.ttf" font-size="10.00">kernel</text>
</a>
</g>
</g>
<!-- Node1&#45;&gt;Node3 -->
<g id="edge3" class="edge">
<title>Node1&#45;&gt;Node3</title>
<path fill="none" stroke="midnightblue" d="M158.03,-42.98C219.16,-39.05 300.96,-33.79 344.75,-30.98"/>
<polygon fill="midnightblue" stroke="midnightblue" points="345.02,-34.47 354.77,-30.33 344.57,-27.48 345.02,-34.47"/>
</g>
<!-- Node7 -->
<g id="node7" class="node">
<title>Node7</title>
<g id="a_node7"><a xlink:href="gpuNUFFT__utils_8cpp.html#a6683a749816745e9e10c65ac77ebd1c6" target="_top" xlink:title="Loads a radius of the circularly symmetric kernel into a 1&#45;d array, with respect to the kernel radius...">
<polygon fill="none" stroke="black" points="219.5,-0.5 219.5,-19.5 293.5,-19.5 293.5,-0.5 219.5,-0.5"/>
<text text-anchor="middle" x="256.5" y="-7.5" font-family="FreeSans.ttf" font-size="10.00">load1DKernel</text>
</a>
</g>
</g>
<!-- Node1&#45;&gt;Node7 -->
<g id="edge9" class="edge">
<title>Node1&#45;&gt;Node7</title>
<path fill="none" stroke="midnightblue" d="M149.36,-32.98C169.57,-28.61 191.15,-23.93 209.53,-19.95"/>
<polygon fill="midnightblue" stroke="midnightblue" points="210.35,-23.36 219.38,-17.82 208.87,-16.52 210.35,-23.36"/>
</g>
<!-- Node2&#45;&gt;Node2 -->
<g id="edge2" class="edge">
<title>Node2&#45;&gt;Node2</title>
<path fill="none" stroke="midnightblue" d="M238,-95.76C229.01,-104.57 235.17,-114 256.5,-114 270.16,-114 277.6,-110.13 278.82,-105.03"/>
<polygon fill="midnightblue" stroke="midnightblue" points="282.05,-103.67 275,-95.76 275.57,-106.34 282.05,-103.67"/>
</g>
<!-- Node4 -->
<g id="node4" class="node">
<title>Node4</title>
<g id="a_node4"><a xlink:href="gpuNUFFT__utils_8hpp.html#aa7b00d423ae0e06388b55594fe1adb93" target="_top" xlink:title="beta function used in interpolation function. See Beatty et al.">
<polygon fill="none" stroke="black" points="526,-47.5 526,-66.5 568,-66.5 568,-47.5 526,-47.5"/>
<text text-anchor="middle" x="547" y="-54.5" font-family="FreeSans.ttf" font-size="10.00">BETA</text>
</a>
</g>
</g>
<!-- Node3&#45;&gt;Node4 -->
<g id="edge4" class="edge">
<title>Node3&#45;&gt;Node4</title>
<path fill="none" stroke="midnightblue" d="M398.09,-37.28C408.66,-41.17 421.83,-45.5 434,-48 461.38,-53.62 493.21,-55.77 515.92,-56.57"/>
<polygon fill="midnightblue" stroke="midnightblue" points="515.87,-60.07 525.97,-56.86 516.07,-53.07 515.87,-60.07"/>
</g>
<!-- Node5 -->
<g id="node5" class="node">
<title>Node5</title>
<g id="a_node5"><a xlink:href="gpuNUFFT__utils_8cpp.html#a5472cb661dea68a2ab2b52df187b6291" target="_top" xlink:title="Modified Kaiser Bessel function of zero&#45;th order.">
<polygon fill="none" stroke="black" points="532.5,-0.5 532.5,-19.5 561.5,-19.5 561.5,-0.5 532.5,-0.5"/>
<text text-anchor="middle" x="547" y="-7.5" font-family="FreeSans.ttf" font-size="10.00">i0</text>
</a>
</g>
</g>
<!-- Node3&#45;&gt;Node5 -->
<g id="edge5" class="edge">
<title>Node3&#45;&gt;Node5</title>
<path fill="none" stroke="midnightblue" d="M398.02,-20.31C408.56,-16.31 421.74,-12.01 434,-10 464.18,-5.06 499.55,-6.19 522.34,-7.8"/>
<polygon fill="midnightblue" stroke="midnightblue" points="522.19,-11.3 532.44,-8.6 522.75,-4.32 522.19,-11.3"/>
</g>
<!-- Node6 -->
<g id="node6" class="node">
<title>Node6</title>
<g id="a_node6"><a xlink:href="gpuNUFFT__utils_8hpp.html#ab1456ac35fe51fc4dac2e0054f6d9a50" target="_top" xlink:title="I_0 function used in interpolation function. See Beatty et al.">
<polygon fill="none" stroke="black" points="434,-19.5 434,-38.5 490,-38.5 490,-19.5 434,-19.5"/>
<text text-anchor="middle" x="462" y="-26.5" font-family="FreeSans.ttf" font-size="10.00">I0_BETA</text>
</a>
</g>
</g>
<!-- Node3&#45;&gt;Node6 -->
<g id="edge6" class="edge">
<title>Node3&#45;&gt;Node6</title>
<path fill="none" stroke="midnightblue" d="M398.14,-29C405.92,-29 415.02,-29 423.84,-29"/>
<polygon fill="midnightblue" stroke="midnightblue" points="423.98,-32.5 433.98,-29 423.98,-25.5 423.98,-32.5"/>
</g>
<!-- Node6&#45;&gt;Node4 -->
<g id="edge7" class="edge">
<title>Node6&#45;&gt;Node4</title>
<path fill="none" stroke="midnightblue" d="M490.18,-38.17C498.54,-40.99 507.78,-44.11 516.3,-46.98"/>
<polygon fill="midnightblue" stroke="midnightblue" points="515.28,-50.33 525.87,-50.21 517.52,-43.7 515.28,-50.33"/>
</g>
<!-- Node6&#45;&gt;Node5 -->
<g id="edge8" class="edge">
<title>Node6&#45;&gt;Node5</title>
<path fill="none" stroke="midnightblue" d="M490.18,-22.78C500.45,-20.43 512.07,-17.77 522.03,-15.49"/>
<polygon fill="midnightblue" stroke="midnightblue" points="523.08,-18.84 532.05,-13.19 521.52,-12.01 523.08,-18.84"/>
</g>
<!-- Node7&#45;&gt;Node3 -->
<g id="edge10" class="edge">
<title>Node7&#45;&gt;Node3</title>
<path fill="none" stroke="midnightblue" d="M293.55,-15.8C309.85,-18.43 328.92,-21.5 344.56,-24.02"/>
<polygon fill="midnightblue" stroke="midnightblue" points="344.33,-27.53 354.76,-25.66 345.44,-20.62 344.33,-27.53"/>
</g>
</g>
</svg>
