<?xml version="1.0" encoding="UTF-8" standalone="no"?>
<!DOCTYPE svg PUBLIC "-//W3C//DTD SVG 1.1//EN"
 "http://www.w3.org/Graphics/SVG/1.1/DTD/svg11.dtd">
<!-- Generated by graphviz version 2.49.3 (20211027.1534)
 -->
<!-- Title: gpuNUFFT::GpuNUFFTOperator::initDeviceMemory Pages: 1 -->
<svg width="415pt" height="75pt"
 viewBox="0.00 0.00 415.00 75.00" xmlns="http://www.w3.org/2000/svg" xmlns:xlink="http://www.w3.org/1999/xlink">
<g id="graph0" class="graph" transform="scale(1 1) rotate(0) translate(4 71)">
<title>gpuNUFFT::GpuNUFFTOperator::initDeviceMemory</title>
<!-- Node1 -->
<g id="node1" class="node">
<title>Node1</title>
<g id="a_node1"><a xlink:title="Function to allocate all neccessary device memory used by the GriddingOperator.">
<polygon fill="#bfbfbf" stroke="black" points="0,-23 0,-53 158,-53 158,-23 0,-23"/>
<text text-anchor="start" x="8" y="-41" font-family="FreeSans.ttf" font-size="10.00">gpuNUFFT::GpuNUFFTOperator</text>
<text text-anchor="middle" x="79" y="-30" font-family="FreeSans.ttf" font-size="10.00">::initDeviceMemory</text>
</a>
</g>
</g>
<!-- Node2 -->
<g id="node2" class="node">
<title>Node2</title>
<g id="a_node2"><a xlink:href="gpuNUFFT__utils_8hpp.html#a18dd3c6c4b8ac5f6947f3dc1c59651bc" target="_top" xlink:title="Interpolation Kernel evaluation for radius.">
<polygon fill="none" stroke="black" points="194,-28.5 194,-47.5 237,-47.5 237,-28.5 194,-28.5"/>
<text text-anchor="middle" x="215.5" y="-35.5" font-family="FreeSans.ttf" font-size="10.00">kernel</text>
</a>
</g>
</g>
<!-- Node1&#45;&gt;Node2 -->
<g id="edge1" class="edge">
<title>Node1&#45;&gt;Node2</title>
<path fill="none" stroke="midnightblue" d="M158.24,-38C167.3,-38 176.08,-38 183.91,-38"/>
<polygon fill="midnightblue" stroke="midnightblue" points="183.94,-41.5 193.94,-38 183.94,-34.5 183.94,-41.5"/>
</g>
<!-- Node3 -->
<g id="node3" class="node">
<title>Node3</title>
<g id="a_node3"><a xlink:href="gpuNUFFT__utils_8hpp.html#aa7b00d423ae0e06388b55594fe1adb93" target="_top" xlink:title="beta function used in interpolation function. See Beatty et al.">
<polygon fill="none" stroke="black" points="365,-47.5 365,-66.5 407,-66.5 407,-47.5 365,-47.5"/>
<text text-anchor="middle" x="386" y="-54.5" font-family="FreeSans.ttf" font-size="10.00">BETA</text>
</a>
</g>
</g>
<!-- Node2&#45;&gt;Node3 -->
<g id="edge2" class="edge">
<title>Node2&#45;&gt;Node3</title>
<path fill="none" stroke="midnightblue" d="M237.02,-46.69C247.56,-50.69 260.74,-54.99 273,-57 300.33,-61.47 331.92,-60.97 354.57,-59.64"/>
<polygon fill="midnightblue" stroke="midnightblue" points="354.87,-63.13 364.61,-58.96 354.39,-56.14 354.87,-63.13"/>
</g>
<!-- Node4 -->
<g id="node4" class="node">
<title>Node4</title>
<g id="a_node4"><a xlink:href="gpuNUFFT__utils_8cpp.html#a5472cb661dea68a2ab2b52df187b6291" target="_top" xlink:title="Modified Kaiser Bessel function of zero&#45;th order.">
<polygon fill="none" stroke="black" points="371.5,-0.5 371.5,-19.5 400.5,-19.5 400.5,-0.5 371.5,-0.5"/>
<text text-anchor="middle" x="386" y="-7.5" font-family="FreeSans.ttf" font-size="10.00">i0</text>
</a>
</g>
</g>
<!-- Node2&#45;&gt;Node4 -->
<g id="edge3" class="edge">
<title>Node2&#45;&gt;Node4</title>
<path fill="none" stroke="midnightblue" d="M237.09,-29.72C247.66,-25.83 260.83,-21.5 273,-19 303.05,-12.84 338.45,-10.85 361.28,-10.23"/>
<polygon fill="midnightblue" stroke="midnightblue" points="361.48,-13.73 371.4,-10.03 361.33,-6.73 361.48,-13.73"/>
</g>
<!-- Node5 -->
<g id="node5" class="node">
<title>Node5</title>
<g id="a_node5"><a xlink:href="gpuNUFFT__utils_8hpp.html#ab1456ac35fe51fc4dac2e0054f6d9a50" target="_top" xlink:title="I_0 function used in interpolation function. See Beatty et al.">
<polygon fill="none" stroke="black" points="273,-28.5 273,-47.5 329,-47.5 329,-28.5 273,-28.5"/>
<text text-anchor="middle" x="301" y="-35.5" font-family="FreeSans.ttf" font-size="10.00">I0_BETA</text>
</a>
</g>
</g>
<!-- Node2&#45;&gt;Node5 -->
<g id="edge4" class="edge">
<title>Node2&#45;&gt;Node5</title>
<path fill="none" stroke="midnightblue" d="M237.14,-38C244.92,-38 254.02,-38 262.84,-38"/>
<polygon fill="midnightblue" stroke="midnightblue" points="262.98,-41.5 272.98,-38 262.98,-34.5 262.98,-41.5"/>
</g>
<!-- Node5&#45;&gt;Node3 -->
<g id="edge5" class="edge">
<title>Node5&#45;&gt;Node3</title>
<path fill="none" stroke="midnightblue" d="M329.18,-44.22C337.45,-46.11 346.58,-48.2 355.02,-50.14"/>
<polygon fill="midnightblue" stroke="midnightblue" points="354.34,-53.57 364.87,-52.39 355.9,-46.75 354.34,-53.57"/>
</g>
<!-- Node5&#45;&gt;Node4 -->
<g id="edge6" class="edge">
<title>Node5&#45;&gt;Node4</title>
<path fill="none" stroke="midnightblue" d="M329.18,-28.83C339.56,-25.33 351.31,-21.36 361.35,-17.98"/>
<polygon fill="midnightblue" stroke="midnightblue" points="362.69,-21.22 371.05,-14.71 360.46,-14.59 362.69,-21.22"/>
</g>
</g>
</svg>
