<?xml version="1.0" encoding="UTF-8" standalone="no"?>
<!DOCTYPE svg PUBLIC "-//W3C//DTD SVG 1.1//EN"
 "http://www.w3.org/Graphics/SVG/1.1/DTD/svg11.dtd">
<!-- Generated by graphviz version 2.49.3 (20211027.1534)
 -->
<!-- Title: gpuNUFFT::BalancedGpuNUFFTOperator Pages: 1 -->
<svg width="332pt" height="84pt"
 viewBox="0.00 0.00 332.00 84.00" xmlns="http://www.w3.org/2000/svg" xmlns:xlink="http://www.w3.org/1999/xlink">
<g id="graph0" class="graph" transform="scale(1 1) rotate(0) translate(4 80)">
<title>gpuNUFFT::BalancedGpuNUFFTOperator</title>
<!-- Node1 -->
<g id="node1" class="node">
<title>Node1</title>
<g id="a_node1"><a xlink:title="Balanced GpuNUFFTOperator inherited from gpuNUFFT::GpuNUFFTOperator.">
<polygon fill="#bfbfbf" stroke="black" points="64.5,-0.5 64.5,-19.5 263.5,-19.5 263.5,-0.5 64.5,-0.5"/>
<text text-anchor="middle" x="164" y="-7.5" font-family="FreeSans.ttf" font-size="10.00">gpuNUFFT::BalancedGpuNUFFTOperator</text>
</a>
</g>
</g>
<!-- Node2 -->
<g id="node2" class="node">
<title>Node2</title>
<g id="a_node2"><a xlink:href="classgpuNUFFT_1_1GpuNUFFTOperator.html" target="_top" xlink:title="Main &quot;Operator&quot; used for gridding operations.">
<polygon fill="none" stroke="black" points="0,-56.5 0,-75.5 158,-75.5 158,-56.5 0,-56.5"/>
<text text-anchor="middle" x="79" y="-63.5" font-family="FreeSans.ttf" font-size="10.00">gpuNUFFT::GpuNUFFTOperator</text>
</a>
</g>
</g>
<!-- Node2&#45;&gt;Node1 -->
<g id="edge1" class="edge">
<title>Node2&#45;&gt;Node1</title>
<path fill="none" stroke="midnightblue" d="M101.19,-50.9C116.78,-41 137.13,-28.07 150.38,-19.65"/>
<polygon fill="midnightblue" stroke="midnightblue" points="99.22,-48.01 92.66,-56.32 102.97,-53.92 99.22,-48.01"/>
</g>
<!-- Node3 -->
<g id="node3" class="node">
<title>Node3</title>
<g id="a_node3"><a xlink:href="classgpuNUFFT_1_1BalancedOperator.html" target="_top" xlink:title="Interface defined for balanced gpuNUFFT Operators.">
<polygon fill="none" stroke="black" points="176,-56.5 176,-75.5 324,-75.5 324,-56.5 176,-56.5"/>
<text text-anchor="middle" x="250" y="-63.5" font-family="FreeSans.ttf" font-size="10.00">gpuNUFFT::BalancedOperator</text>
</a>
</g>
</g>
<!-- Node3&#45;&gt;Node1 -->
<g id="edge2" class="edge">
<title>Node3&#45;&gt;Node1</title>
<path fill="none" stroke="midnightblue" d="M227.55,-50.9C211.78,-41 191.19,-28.07 177.78,-19.65"/>
<polygon fill="midnightblue" stroke="midnightblue" points="225.85,-53.97 236.18,-56.32 229.57,-48.04 225.85,-53.97"/>
</g>
</g>
</svg>
