<?xml version="1.0" encoding="UTF-8" standalone="no"?>
<!DOCTYPE svg PUBLIC "-//W3C//DTD SVG 1.1//EN"
 "http://www.w3.org/Graphics/SVG/1.1/DTD/svg11.dtd">
<!-- Generated by graphviz version 2.49.3 (20211027.1534)
 -->
<!-- Title: gpuNUFFT::BalancedTextureGpuNUFFTOperator::performGpuNUFFTAdj Pages: 1 -->
<svg width="531pt" height="78pt"
 viewBox="0.00 0.00 531.00 77.50" xmlns="http://www.w3.org/2000/svg" xmlns:xlink="http://www.w3.org/1999/xlink">
<g id="graph0" class="graph" transform="scale(1 1) rotate(0) translate(4 73.5)">
<title>gpuNUFFT::BalancedTextureGpuNUFFTOperator::performGpuNUFFTAdj</title>
<!-- Node1 -->
<g id="node1" class="node">
<title>Node1</title>
<g id="a_node1"><a xlink:title="Perform Adjoint gridding operation on kspaceData already residing in GPU memory.">
<polygon fill="#bfbfbf" stroke="black" points="0,-22.5 0,-52.5 208,-52.5 208,-22.5 0,-22.5"/>
<text text-anchor="start" x="8" y="-40.5" font-family="FreeSans.ttf" font-size="10.00">gpuNUFFT::BalancedTexture</text>
<text text-anchor="middle" x="104" y="-29.5" font-family="FreeSans.ttf" font-size="10.00">GpuNUFFTOperator::performGpuNUFFTAdj</text>
</a>
</g>
</g>
<!-- Node2 -->
<g id="node2" class="node">
<title>Node2</title>
<g id="a_node2"><a xlink:href="cuda__utils_8hpp.html#aaa83ead29bc50e65ae4298d9206a760b" target="_top" xlink:title="Free variable list of device pointers. Use NULL as stopping element.">
<polygon fill="none" stroke="black" points="263.5,-50 263.5,-69 382.5,-69 382.5,-50 263.5,-50"/>
<text text-anchor="middle" x="323" y="-57" font-family="FreeSans.ttf" font-size="10.00">freeTotalDeviceMemory</text>
</a>
</g>
</g>
<!-- Node1&#45;&gt;Node2 -->
<g id="edge1" class="edge">
<title>Node1&#45;&gt;Node2</title>
<path fill="none" stroke="midnightblue" d="M208.1,-47.95C223.41,-49.5 238.86,-51.07 253.24,-52.53"/>
<polygon fill="midnightblue" stroke="midnightblue" points="253.2,-56.04 263.5,-53.57 253.9,-49.08 253.2,-56.04"/>
</g>
<!-- Node4 -->
<g id="node4" class="node">
<title>Node4</title>
<g id="a_node4"><a xlink:href="classgpuNUFFT_1_1GpuNUFFTOperator.html#a38a45507d840b8d3d97de7fc79b4fa8a" target="_top" xlink:title="Perform Adjoint gridding operation on given kspaceData.">
<polygon fill="none" stroke="black" points="244,-0.5 244,-30.5 402,-30.5 402,-0.5 244,-0.5"/>
<text text-anchor="start" x="252" y="-18.5" font-family="FreeSans.ttf" font-size="10.00">gpuNUFFT::GpuNUFFTOperator</text>
<text text-anchor="middle" x="323" y="-7.5" font-family="FreeSans.ttf" font-size="10.00">::performGpuNUFFTAdj</text>
</a>
</g>
</g>
<!-- Node1&#45;&gt;Node4 -->
<g id="edge3" class="edge">
<title>Node1&#45;&gt;Node4</title>
<path fill="none" stroke="midnightblue" d="M208.1,-27.05C216.65,-26.18 225.25,-25.31 233.68,-24.45"/>
<polygon fill="midnightblue" stroke="midnightblue" points="234.26,-27.91 243.86,-23.42 233.56,-20.95 234.26,-27.91"/>
</g>
<!-- Node3 -->
<g id="node3" class="node">
<title>Node3</title>
<g id="a_node3"><a xlink:href="cuda__utils_8hpp.html#a6ffa821f98a8c2b391c12c01308ff1db" target="_top" xlink:title="Free of device memory.">
<polygon fill="none" stroke="black" points="438,-50 438,-69 523,-69 523,-50 438,-50"/>
<text text-anchor="middle" x="480.5" y="-57" font-family="FreeSans.ttf" font-size="10.00">freeDeviceMem</text>
</a>
</g>
</g>
<!-- Node2&#45;&gt;Node3 -->
<g id="edge2" class="edge">
<title>Node2&#45;&gt;Node3</title>
<path fill="none" stroke="midnightblue" d="M382.79,-59.5C397.46,-59.5 413.09,-59.5 427.41,-59.5"/>
<polygon fill="midnightblue" stroke="midnightblue" points="427.58,-63 437.58,-59.5 427.58,-56 427.58,-63"/>
</g>
</g>
</svg>
