<?xml version="1.0" encoding="UTF-8" standalone="no"?>
<!DOCTYPE svg PUBLIC "-//W3C//DTD SVG 1.1//EN"
 "http://www.w3.org/Graphics/SVG/1.1/DTD/svg11.dtd">
<!-- Generated by graphviz version 2.49.3 (20211027.1534)
 -->
<!-- Title: gpuNUFFT::GpuNUFFTOperator::getImageDimensionCount Pages: 1 -->
<svg width="561pt" height="112pt"
 viewBox="0.00 0.00 561.00 112.00" xmlns="http://www.w3.org/2000/svg" xmlns:xlink="http://www.w3.org/1999/xlink">
<g id="graph0" class="graph" transform="scale(1 1) rotate(0) translate(4 108)">
<title>gpuNUFFT::GpuNUFFTOperator::getImageDimensionCount</title>
<!-- Node1 -->
<g id="node1" class="node">
<title>Node1</title>
<g id="a_node1"><a xlink:title="Return dimension of problem. Either 2&#45;d or 3&#45;d.">
<polygon fill="#bfbfbf" stroke="black" points="395,-48.5 395,-78.5 553,-78.5 553,-48.5 395,-48.5"/>
<text text-anchor="start" x="403" y="-66.5" font-family="FreeSans.ttf" font-size="10.00">gpuNUFFT::GpuNUFFTOperator</text>
<text text-anchor="middle" x="474" y="-55.5" font-family="FreeSans.ttf" font-size="10.00">::getImageDimensionCount</text>
</a>
</g>
</g>
<!-- Node2 -->
<g id="node2" class="node">
<title>Node2</title>
<g id="a_node2"><a xlink:href="classgpuNUFFT_1_1GpuNUFFTOperatorFactory.html#a3bb929391f61a14ecb6be08ccccf29cb" target="_top" xlink:title="Initialization method for the coords array.">
<polygon fill="none" stroke="black" points="201,-73.5 201,-103.5 359,-103.5 359,-73.5 201,-73.5"/>
<text text-anchor="start" x="209" y="-91.5" font-family="FreeSans.ttf" font-size="10.00">gpuNUFFT::GpuNUFFTOperator</text>
<text text-anchor="middle" x="280" y="-80.5" font-family="FreeSans.ttf" font-size="10.00">Factory::initCoordsData</text>
</a>
</g>
</g>
<!-- Node1&#45;&gt;Node2 -->
<g id="edge1" class="edge">
<title>Node1&#45;&gt;Node2</title>
<path fill="none" stroke="midnightblue" d="M384.85,-74.98C376.23,-76.1 367.53,-77.23 359.02,-78.34"/>
<polygon fill="midnightblue" stroke="midnightblue" points="385.44,-78.43 394.91,-73.67 384.54,-71.49 385.44,-78.43"/>
</g>
<!-- Node3 -->
<g id="node3" class="node">
<title>Node3</title>
<g id="a_node3"><a xlink:href="classgpuNUFFT_1_1GpuNUFFTOperatorFactory.html#af28b53802fd66b755083507e1fe99311" target="_top" xlink:title="Initialization method for the sector centers array.">
<polygon fill="none" stroke="black" points="201,-24.5 201,-54.5 359,-54.5 359,-24.5 201,-24.5"/>
<text text-anchor="start" x="209" y="-42.5" font-family="FreeSans.ttf" font-size="10.00">gpuNUFFT::GpuNUFFTOperator</text>
<text text-anchor="middle" x="280" y="-31.5" font-family="FreeSans.ttf" font-size="10.00">Factory::initSectorCenters</text>
</a>
</g>
</g>
<!-- Node1&#45;&gt;Node3 -->
<g id="edge2" class="edge">
<title>Node1&#45;&gt;Node3</title>
<path fill="none" stroke="midnightblue" d="M384.85,-52.48C376.23,-51.4 367.53,-50.32 359.02,-49.25"/>
<polygon fill="midnightblue" stroke="midnightblue" points="384.55,-55.97 394.91,-53.74 385.42,-49.02 384.55,-55.97"/>
</g>
<!-- Node4 -->
<g id="node4" class="node">
<title>Node4</title>
<g id="a_node4"><a xlink:href="classgpuNUFFT_1_1GpuNUFFTOperatorFactory.html#a62c51a180bf592a0fa82343ed7b4daed" target="_top" xlink:title="Compute sector centers array.">
<polygon fill="none" stroke="black" points="3.5,-49.5 3.5,-79.5 161.5,-79.5 161.5,-49.5 3.5,-49.5"/>
<text text-anchor="start" x="11.5" y="-67.5" font-family="FreeSans.ttf" font-size="10.00">gpuNUFFT::GpuNUFFTOperator</text>
<text text-anchor="middle" x="82.5" y="-56.5" font-family="FreeSans.ttf" font-size="10.00">Factory::computeSectorCenters</text>
</a>
</g>
</g>
<!-- Node3&#45;&gt;Node4 -->
<g id="edge3" class="edge">
<title>Node3&#45;&gt;Node4</title>
<path fill="none" stroke="midnightblue" d="M190.86,-50.77C181.17,-52.01 171.36,-53.26 161.8,-54.49"/>
<polygon fill="midnightblue" stroke="midnightblue" points="191.42,-54.23 200.89,-49.49 190.53,-47.29 191.42,-54.23"/>
</g>
<!-- Node5 -->
<g id="node5" class="node">
<title>Node5</title>
<g id="a_node5"><a xlink:href="classgpuNUFFT_1_1GpuNUFFTOperatorFactory.html#a65d596418c34d74d383addd455469b5a" target="_top" xlink:title="Compute 2&#45;d sector centers array.">
<polygon fill="none" stroke="black" points="0,-0.5 0,-30.5 165,-30.5 165,-0.5 0,-0.5"/>
<text text-anchor="start" x="8" y="-18.5" font-family="FreeSans.ttf" font-size="10.00">gpuNUFFT::GpuNUFFTOperator</text>
<text text-anchor="middle" x="82.5" y="-7.5" font-family="FreeSans.ttf" font-size="10.00">Factory::computeSectorCenters2D</text>
</a>
</g>
</g>
<!-- Node3&#45;&gt;Node5 -->
<g id="edge4" class="edge">
<title>Node3&#45;&gt;Node5</title>
<path fill="none" stroke="midnightblue" d="M190.85,-28.68C182.25,-27.62 173.54,-26.55 165.01,-25.51"/>
<polygon fill="midnightblue" stroke="midnightblue" points="190.54,-32.17 200.89,-29.91 191.39,-25.22 190.54,-32.17"/>
</g>
</g>
</svg>
