<?xml version="1.0" encoding="UTF-8" standalone="no"?>
<!DOCTYPE svg PUBLIC "-//W3C//DTD SVG 1.1//EN"
 "http://www.w3.org/Graphics/SVG/1.1/DTD/svg11.dtd">
<!-- Generated by graphviz version 2.49.3 (20211027.1534)
 -->
<!-- Title: gpuNUFFT::GpuNUFFTOperator::initGpuNUFFTInfo Pages: 1 -->
<svg width="401pt" height="99pt"
 viewBox="0.00 0.00 401.00 98.50" xmlns="http://www.w3.org/2000/svg" xmlns:xlink="http://www.w3.org/1999/xlink">
<g id="graph0" class="graph" transform="scale(1 1) rotate(0) translate(4 94.5)">
<title>gpuNUFFT::GpuNUFFTOperator::initGpuNUFFTInfo</title>
<!-- Node1 -->
<g id="node1" class="node">
<title>Node1</title>
<g id="a_node1"><a xlink:title="Compute all neccessary meta information used in the gridding steps.">
<polygon fill="#bfbfbf" stroke="black" points="235,-33 235,-63 393,-63 393,-33 235,-33"/>
<text text-anchor="start" x="243" y="-51" font-family="FreeSans.ttf" font-size="10.00">gpuNUFFT::GpuNUFFTOperator</text>
<text text-anchor="middle" x="314" y="-40" font-family="FreeSans.ttf" font-size="10.00">::initGpuNUFFTInfo</text>
</a>
</g>
</g>
<!-- Node2 -->
<g id="node2" class="node">
<title>Node2</title>
<g id="a_node2"><a xlink:href="classgpuNUFFT_1_1BalancedGpuNUFFTOperator.html#aebed0b033d85b71c1e48132203b7caed" target="_top" xlink:title="Virtual method to perform precomputation of all neccessary meta information used in the gridding step...">
<polygon fill="none" stroke="black" points="0,-60 0,-90 199,-90 199,-60 0,-60"/>
<text text-anchor="start" x="8" y="-78" font-family="FreeSans.ttf" font-size="10.00">gpuNUFFT::BalancedGpuNUFFTOperator</text>
<text text-anchor="middle" x="99.5" y="-67" font-family="FreeSans.ttf" font-size="10.00">::initAndCopyGpuNUFFTInfo</text>
</a>
</g>
</g>
<!-- Node1&#45;&gt;Node2 -->
<g id="edge1" class="edge">
<title>Node1&#45;&gt;Node2</title>
<path fill="none" stroke="midnightblue" d="M224.62,-59.23C216.21,-60.3 207.65,-61.39 199.15,-62.47"/>
<polygon fill="midnightblue" stroke="midnightblue" points="225.3,-62.67 234.78,-57.94 224.42,-55.73 225.3,-62.67"/>
</g>
<!-- Node3 -->
<g id="node3" class="node">
<title>Node3</title>
<g id="a_node3"><a xlink:href="classgpuNUFFT_1_1BalancedTextureGpuNUFFTOperator.html#a4cfe8965eea8ee447fbffc138eefe588" target="_top" xlink:title="Virtual method to perform precomputation of all neccessary meta information used in the gridding step...">
<polygon fill="none" stroke="black" points="10,-0.5 10,-41.5 189,-41.5 189,-0.5 10,-0.5"/>
<text text-anchor="start" x="18" y="-29.5" font-family="FreeSans.ttf" font-size="10.00">gpuNUFFT::BalancedTexture</text>
<text text-anchor="start" x="18" y="-18.5" font-family="FreeSans.ttf" font-size="10.00">GpuNUFFTOperator::initAndCopyGpu</text>
<text text-anchor="middle" x="99.5" y="-7.5" font-family="FreeSans.ttf" font-size="10.00">NUFFTInfo</text>
</a>
</g>
</g>
<!-- Node1&#45;&gt;Node3 -->
<g id="edge2" class="edge">
<title>Node1&#45;&gt;Node3</title>
<path fill="none" stroke="midnightblue" d="M224.62,-36.77C212.95,-35.29 200.99,-33.77 189.32,-32.29"/>
<polygon fill="midnightblue" stroke="midnightblue" points="224.42,-40.27 234.78,-38.06 225.3,-33.33 224.42,-40.27"/>
</g>
</g>
</svg>
