<?xml version="1.0" encoding="UTF-8" standalone="no"?>
<!DOCTYPE svg PUBLIC "-//W3C//DTD SVG 1.1//EN"
 "http://www.w3.org/Graphics/SVG/1.1/DTD/svg11.dtd">
<!-- Generated by graphviz version 2.49.3 (20211027.1534)
 -->
<!-- Title: gpuNUFFT::TextureGpuNUFFTOperator::TextureGpuNUFFTOperator Pages: 1 -->
<svg width="948pt" height="198pt"
 viewBox="0.00 0.00 948.00 198.00" xmlns="http://www.w3.org/2000/svg" xmlns:xlink="http://www.w3.org/1999/xlink">
<g id="graph0" class="graph" transform="scale(1 1) rotate(0) translate(4 194)">
<title>gpuNUFFT::TextureGpuNUFFTOperator::TextureGpuNUFFTOperator</title>
<!-- Node1 -->
<g id="node1" class="node">
<title>Node1</title>
<g id="a_node1"><a xlink:title=" ">
<polygon fill="#bfbfbf" stroke="black" points="0,-71 0,-101 191,-101 191,-71 0,-71"/>
<text text-anchor="start" x="8" y="-89" font-family="FreeSans.ttf" font-size="10.00">gpuNUFFT::TextureGpuNUFFTOperator</text>
<text text-anchor="middle" x="95.5" y="-78" font-family="FreeSans.ttf" font-size="10.00">::TextureGpuNUFFTOperator</text>
</a>
</g>
</g>
<!-- Node2 -->
<g id="node2" class="node">
<title>Node2</title>
<g id="a_node2"><a xlink:href="classgpuNUFFT_1_1TextureGpuNUFFTOperator.html#a3125b2b6c409e1d52050f9e3859f4f12" target="_top" xlink:title="Precompute interpolation kernel lookup table.">
<polygon fill="none" stroke="black" points="227,-71 227,-101 418,-101 418,-71 227,-71"/>
<text text-anchor="start" x="235" y="-89" font-family="FreeSans.ttf" font-size="10.00">gpuNUFFT::TextureGpuNUFFTOperator</text>
<text text-anchor="middle" x="322.5" y="-78" font-family="FreeSans.ttf" font-size="10.00">::initKernel</text>
</a>
</g>
</g>
<!-- Node1&#45;&gt;Node2 -->
<g id="edge1" class="edge">
<title>Node1&#45;&gt;Node2</title>
<path fill="none" stroke="midnightblue" d="M191.27,-86C199.64,-86 208.14,-86 216.58,-86"/>
<polygon fill="midnightblue" stroke="midnightblue" points="216.84,-89.5 226.84,-86 216.84,-82.5 216.84,-89.5"/>
</g>
<!-- Node3 -->
<g id="node3" class="node">
<title>Node3</title>
<g id="a_node3"><a xlink:href="gpuNUFFT__utils_8cpp.html#ac57bf34370dd28161430ed9f8a1d9664" target="_top" xlink:title=" ">
<polygon fill="none" stroke="black" points="455,-152.5 455,-171.5 580,-171.5 580,-152.5 455,-152.5"/>
<text text-anchor="middle" x="517.5" y="-159.5" font-family="FreeSans.ttf" font-size="10.00">calculateGrid3KernelSize</text>
</a>
</g>
</g>
<!-- Node2&#45;&gt;Node3 -->
<g id="edge2" class="edge">
<title>Node2&#45;&gt;Node3</title>
<path fill="none" stroke="midnightblue" d="M355.25,-101.11C381.42,-113.26 419.67,-130.33 454,-143 460,-145.22 466.4,-147.38 472.72,-149.4"/>
<polygon fill="midnightblue" stroke="midnightblue" points="471.94,-152.82 482.53,-152.46 474.02,-146.14 471.94,-152.82"/>
</g>
<!-- Node4 -->
<g id="node4" class="node">
<title>Node4</title>
<g id="a_node4"><a xlink:href="gpuNUFFT__utils_8cpp.html#af646ac63e61d6cb83841391c13c3bfd8" target="_top" xlink:title=" ">
<polygon fill="none" stroke="black" points="454,-114.5 454,-133.5 581,-133.5 581,-114.5 454,-114.5"/>
<text text-anchor="middle" x="517.5" y="-121.5" font-family="FreeSans.ttf" font-size="10.00">calculateKernelSizeLinInt</text>
</a>
</g>
</g>
<!-- Node2&#45;&gt;Node4 -->
<g id="edge4" class="edge">
<title>Node2&#45;&gt;Node4</title>
<path fill="none" stroke="midnightblue" d="M399.78,-101.02C419.25,-104.85 439.87,-108.91 458.27,-112.54"/>
<polygon fill="midnightblue" stroke="midnightblue" points="457.76,-116 468.25,-114.5 459.11,-109.13 457.76,-116"/>
</g>
<!-- Node5 -->
<g id="node5" class="node">
<title>Node5</title>
<g id="a_node5"><a xlink:href="gpuNUFFT__utils_8cpp.html#a6683a749816745e9e10c65ac77ebd1c6" target="_top" xlink:title="Loads a radius of the circularly symmetric kernel into a 1&#45;d array, with respect to the kernel radius...">
<polygon fill="none" stroke="black" points="617,-38.5 617,-57.5 691,-57.5 691,-38.5 617,-38.5"/>
<text text-anchor="middle" x="654" y="-45.5" font-family="FreeSans.ttf" font-size="10.00">load1DKernel</text>
</a>
</g>
</g>
<!-- Node2&#45;&gt;Node5 -->
<g id="edge5" class="edge">
<title>Node2&#45;&gt;Node5</title>
<path fill="none" stroke="midnightblue" d="M418.17,-83.19C467.05,-80.69 527.5,-75.95 581,-67 591.14,-65.3 601.92,-62.83 611.97,-60.22"/>
<polygon fill="midnightblue" stroke="midnightblue" points="612.98,-63.57 621.73,-57.6 611.16,-56.81 612.98,-63.57"/>
</g>
<!-- Node10 -->
<g id="node10" class="node">
<title>Node10</title>
<g id="a_node10"><a xlink:href="gpuNUFFT__utils_8cpp.html#a03ba0850f7bccde81a06b55be0d6adb8" target="_top" xlink:title="Loads a radius of the circularly symmetric kernel into a 2&#45;d array, with respect to the kernel radius...">
<polygon fill="none" stroke="black" points="480.5,-38.5 480.5,-57.5 554.5,-57.5 554.5,-38.5 480.5,-38.5"/>
<text text-anchor="middle" x="517.5" y="-45.5" font-family="FreeSans.ttf" font-size="10.00">load2DKernel</text>
</a>
</g>
</g>
<!-- Node2&#45;&gt;Node10 -->
<g id="edge12" class="edge">
<title>Node2&#45;&gt;Node10</title>
<path fill="none" stroke="midnightblue" d="M399.78,-70.98C423.68,-66.27 449.32,-61.23 470.46,-57.06"/>
<polygon fill="midnightblue" stroke="midnightblue" points="471.32,-60.46 480.45,-55.1 469.97,-53.6 471.32,-60.46"/>
</g>
<!-- Node11 -->
<g id="node11" class="node">
<title>Node11</title>
<g id="a_node11"><a xlink:href="gpuNUFFT__utils_8cpp.html#a4603fff4bc63b96eea4500784a77fc48" target="_top" xlink:title="Loads a radius of the circularly symmetric kernel into a 3&#45;d array, with respect to the kernel radius...">
<polygon fill="none" stroke="black" points="480.5,-0.5 480.5,-19.5 554.5,-19.5 554.5,-0.5 480.5,-0.5"/>
<text text-anchor="middle" x="517.5" y="-7.5" font-family="FreeSans.ttf" font-size="10.00">load3DKernel</text>
</a>
</g>
</g>
<!-- Node2&#45;&gt;Node11 -->
<g id="edge14" class="edge">
<title>Node2&#45;&gt;Node11</title>
<path fill="none" stroke="midnightblue" d="M355.25,-70.89C381.42,-58.74 419.67,-41.67 454,-29 460,-26.78 466.4,-24.62 472.72,-22.6"/>
<polygon fill="midnightblue" stroke="midnightblue" points="474.02,-25.86 482.53,-19.54 471.94,-19.18 474.02,-25.86"/>
</g>
<!-- Node3&#45;&gt;Node3 -->
<g id="edge3" class="edge">
<title>Node3&#45;&gt;Node3</title>
<path fill="none" stroke="midnightblue" d="M496.54,-171.76C486.34,-180.57 493.33,-190 517.5,-190 532.99,-190 541.42,-186.13 542.8,-181.03"/>
<polygon fill="midnightblue" stroke="midnightblue" points="545.87,-179.33 538.46,-171.76 539.53,-182.3 545.87,-179.33"/>
</g>
<!-- Node6 -->
<g id="node6" class="node">
<title>Node6</title>
<g id="a_node6"><a xlink:href="gpuNUFFT__utils_8hpp.html#a18dd3c6c4b8ac5f6947f3dc1c59651bc" target="_top" xlink:title="Interpolation Kernel evaluation for radius.">
<polygon fill="none" stroke="black" points="727,-38.5 727,-57.5 770,-57.5 770,-38.5 727,-38.5"/>
<text text-anchor="middle" x="748.5" y="-45.5" font-family="FreeSans.ttf" font-size="10.00">kernel</text>
</a>
</g>
</g>
<!-- Node5&#45;&gt;Node6 -->
<g id="edge6" class="edge">
<title>Node5&#45;&gt;Node6</title>
<path fill="none" stroke="midnightblue" d="M691.03,-48C699.49,-48 708.44,-48 716.65,-48"/>
<polygon fill="midnightblue" stroke="midnightblue" points="716.93,-51.5 726.93,-48 716.93,-44.5 716.93,-51.5"/>
</g>
<!-- Node7 -->
<g id="node7" class="node">
<title>Node7</title>
<g id="a_node7"><a xlink:href="gpuNUFFT__utils_8hpp.html#aa7b00d423ae0e06388b55594fe1adb93" target="_top" xlink:title="beta function used in interpolation function. See Beatty et al.">
<polygon fill="none" stroke="black" points="898,-66.5 898,-85.5 940,-85.5 940,-66.5 898,-66.5"/>
<text text-anchor="middle" x="919" y="-73.5" font-family="FreeSans.ttf" font-size="10.00">BETA</text>
</a>
</g>
</g>
<!-- Node6&#45;&gt;Node7 -->
<g id="edge7" class="edge">
<title>Node6&#45;&gt;Node7</title>
<path fill="none" stroke="midnightblue" d="M770.09,-56.28C780.66,-60.17 793.83,-64.5 806,-67 833.38,-72.62 865.21,-74.77 887.92,-75.57"/>
<polygon fill="midnightblue" stroke="midnightblue" points="887.87,-79.07 897.97,-75.86 888.07,-72.07 887.87,-79.07"/>
</g>
<!-- Node8 -->
<g id="node8" class="node">
<title>Node8</title>
<g id="a_node8"><a xlink:href="gpuNUFFT__utils_8cpp.html#a5472cb661dea68a2ab2b52df187b6291" target="_top" xlink:title="Modified Kaiser Bessel function of zero&#45;th order.">
<polygon fill="none" stroke="black" points="904.5,-19.5 904.5,-38.5 933.5,-38.5 933.5,-19.5 904.5,-19.5"/>
<text text-anchor="middle" x="919" y="-26.5" font-family="FreeSans.ttf" font-size="10.00">i0</text>
</a>
</g>
</g>
<!-- Node6&#45;&gt;Node8 -->
<g id="edge8" class="edge">
<title>Node6&#45;&gt;Node8</title>
<path fill="none" stroke="midnightblue" d="M770.02,-39.31C780.56,-35.31 793.74,-31.01 806,-29 836.18,-24.06 871.55,-25.19 894.34,-26.8"/>
<polygon fill="midnightblue" stroke="midnightblue" points="894.19,-30.3 904.44,-27.6 894.75,-23.32 894.19,-30.3"/>
</g>
<!-- Node9 -->
<g id="node9" class="node">
<title>Node9</title>
<g id="a_node9"><a xlink:href="gpuNUFFT__utils_8hpp.html#ab1456ac35fe51fc4dac2e0054f6d9a50" target="_top" xlink:title="I_0 function used in interpolation function. See Beatty et al.">
<polygon fill="none" stroke="black" points="806,-38.5 806,-57.5 862,-57.5 862,-38.5 806,-38.5"/>
<text text-anchor="middle" x="834" y="-45.5" font-family="FreeSans.ttf" font-size="10.00">I0_BETA</text>
</a>
</g>
</g>
<!-- Node6&#45;&gt;Node9 -->
<g id="edge9" class="edge">
<title>Node6&#45;&gt;Node9</title>
<path fill="none" stroke="midnightblue" d="M770.14,-48C777.92,-48 787.02,-48 795.84,-48"/>
<polygon fill="midnightblue" stroke="midnightblue" points="795.98,-51.5 805.98,-48 795.98,-44.5 795.98,-51.5"/>
</g>
<!-- Node9&#45;&gt;Node7 -->
<g id="edge10" class="edge">
<title>Node9&#45;&gt;Node7</title>
<path fill="none" stroke="midnightblue" d="M862.18,-57.17C870.54,-59.99 879.78,-63.11 888.3,-65.98"/>
<polygon fill="midnightblue" stroke="midnightblue" points="887.28,-69.33 897.87,-69.21 889.52,-62.7 887.28,-69.33"/>
</g>
<!-- Node9&#45;&gt;Node8 -->
<g id="edge11" class="edge">
<title>Node9&#45;&gt;Node8</title>
<path fill="none" stroke="midnightblue" d="M862.18,-41.78C872.45,-39.43 884.07,-36.77 894.03,-34.49"/>
<polygon fill="midnightblue" stroke="midnightblue" points="895.08,-37.84 904.05,-32.19 893.52,-31.01 895.08,-37.84"/>
</g>
<!-- Node10&#45;&gt;Node5 -->
<g id="edge13" class="edge">
<title>Node10&#45;&gt;Node5</title>
<path fill="none" stroke="midnightblue" d="M554.54,-48C570.52,-48 589.53,-48 606.55,-48"/>
<polygon fill="midnightblue" stroke="midnightblue" points="606.86,-51.5 616.86,-48 606.86,-44.5 606.86,-51.5"/>
</g>
<!-- Node11&#45;&gt;Node5 -->
<g id="edge15" class="edge">
<title>Node11&#45;&gt;Node5</title>
<path fill="none" stroke="midnightblue" d="M552.44,-19.59C569.72,-24.47 590.93,-30.46 609.41,-35.68"/>
<polygon fill="midnightblue" stroke="midnightblue" points="608.5,-39.06 619.07,-38.41 610.4,-32.33 608.5,-39.06"/>
</g>
</g>
</svg>
