<?xml version="1.0" encoding="UTF-8" standalone="no"?>
<!DOCTYPE svg PUBLIC "-//W3C//DTD SVG 1.1//EN"
 "http://www.w3.org/Graphics/SVG/1.1/DTD/svg11.dtd">
<!-- Generated by graphviz version 2.49.3 (20211027.1534)
 -->
<!-- Title: gpuNUFFT::GpuNUFFTOperator::performGpuNUFFTAdj Pages: 1 -->
<svg width="558pt" height="225pt"
 viewBox="0.00 0.00 558.00 224.50" xmlns="http://www.w3.org/2000/svg" xmlns:xlink="http://www.w3.org/1999/xlink">
<g id="graph0" class="graph" transform="scale(1 1) rotate(0) translate(4 220.5)">
<title>gpuNUFFT::GpuNUFFTOperator::performGpuNUFFTAdj</title>
<!-- Node1 -->
<g id="node1" class="node">
<title>Node1</title>
<g id="a_node1"><a xlink:title="Perform Adjoint gridding operation on given kspaceData.">
<polygon fill="#bfbfbf" stroke="black" points="392,-88 392,-118 550,-118 550,-88 392,-88"/>
<text text-anchor="start" x="400" y="-106" font-family="FreeSans.ttf" font-size="10.00">gpuNUFFT::GpuNUFFTOperator</text>
<text text-anchor="middle" x="471" y="-95" font-family="FreeSans.ttf" font-size="10.00">::performGpuNUFFTAdj</text>
</a>
</g>
</g>
<!-- Node2 -->
<g id="node2" class="node">
<title>Node2</title>
<g id="a_node2"><a xlink:href="classGpuNUFFTPythonOperator.html#a9d5913daa75877d952160c6e126bbe07" target="_top" xlink:title=" ">
<polygon fill="none" stroke="black" points="184.5,-186 184.5,-216 319.5,-216 319.5,-186 184.5,-186"/>
<text text-anchor="start" x="192.5" y="-204" font-family="FreeSans.ttf" font-size="10.00">GpuNUFFTPythonOperator</text>
<text text-anchor="middle" x="252" y="-193" font-family="FreeSans.ttf" font-size="10.00">::adj_op</text>
</a>
</g>
</g>
<!-- Node1&#45;&gt;Node2 -->
<g id="edge1" class="edge">
<title>Node1&#45;&gt;Node2</title>
<path fill="none" stroke="midnightblue" d="M443.15,-124.29C420.96,-140.9 388.01,-163.38 356,-177 344.6,-181.85 332.05,-185.82 319.74,-189.02"/>
<polygon fill="midnightblue" stroke="midnightblue" points="445.55,-126.86 451.39,-118.02 441.31,-121.29 445.55,-126.86"/>
</g>
<!-- Node4 -->
<g id="node4" class="node">
<title>Node4</title>
<g id="a_node4"><a xlink:href="classgpuNUFFT_1_1GpuNUFFTOperatorFactory.html#a82e185db6eda1edb359df5a580be7b37" target="_top" xlink:title="Computation of the deapodization function.">
<polygon fill="none" stroke="black" points="157.5,-137 157.5,-167 346.5,-167 346.5,-137 157.5,-137"/>
<text text-anchor="start" x="165.5" y="-155" font-family="FreeSans.ttf" font-size="10.00">gpuNUFFT::GpuNUFFTOperator</text>
<text text-anchor="middle" x="252" y="-144" font-family="FreeSans.ttf" font-size="10.00">Factory::computeDeapodizationFunction</text>
</a>
</g>
</g>
<!-- Node1&#45;&gt;Node4 -->
<g id="edge3" class="edge">
<title>Node1&#45;&gt;Node4</title>
<path fill="none" stroke="midnightblue" d="M393.57,-120.26C369.39,-125.72 342.88,-131.71 319.46,-136.99"/>
<polygon fill="midnightblue" stroke="midnightblue" points="394.43,-123.65 403.42,-118.03 392.89,-116.82 394.43,-123.65"/>
</g>
<!-- Node5 -->
<g id="node5" class="node">
<title>Node5</title>
<g id="a_node5"><a xlink:href="classgpuNUFFT_1_1BalancedGpuNUFFTOperator.html#ada71d183719d9375226352e90ff22194" target="_top" xlink:title="Perform Adjoint gridding operation on given kspaceData.">
<polygon fill="none" stroke="black" points="152.5,-88 152.5,-118 351.5,-118 351.5,-88 152.5,-88"/>
<text text-anchor="start" x="160.5" y="-106" font-family="FreeSans.ttf" font-size="10.00">gpuNUFFT::BalancedGpuNUFFTOperator</text>
<text text-anchor="middle" x="252" y="-95" font-family="FreeSans.ttf" font-size="10.00">::performGpuNUFFTAdj</text>
</a>
</g>
</g>
<!-- Node1&#45;&gt;Node5 -->
<g id="edge4" class="edge">
<title>Node1&#45;&gt;Node5</title>
<path fill="none" stroke="midnightblue" d="M381.7,-103C371.76,-103 361.58,-103 351.51,-103"/>
<polygon fill="midnightblue" stroke="midnightblue" points="381.96,-106.5 391.96,-103 381.96,-99.5 381.96,-106.5"/>
</g>
<!-- Node6 -->
<g id="node6" class="node">
<title>Node6</title>
<g id="a_node6"><a xlink:href="classgpuNUFFT_1_1BalancedTextureGpuNUFFTOperator.html#a1bbc427b1d73850b6025eb52b417174b" target="_top" xlink:title="Perform Adjoint gridding operation on given kspaceData.">
<polygon fill="none" stroke="black" points="148,-39 148,-69 356,-69 356,-39 148,-39"/>
<text text-anchor="start" x="156" y="-57" font-family="FreeSans.ttf" font-size="10.00">gpuNUFFT::BalancedTexture</text>
<text text-anchor="middle" x="252" y="-46" font-family="FreeSans.ttf" font-size="10.00">GpuNUFFTOperator::performGpuNUFFTAdj</text>
</a>
</g>
</g>
<!-- Node1&#45;&gt;Node6 -->
<g id="edge5" class="edge">
<title>Node1&#45;&gt;Node6</title>
<path fill="none" stroke="midnightblue" d="M393.57,-85.74C369.39,-80.28 342.88,-74.29 319.46,-69.01"/>
<polygon fill="midnightblue" stroke="midnightblue" points="392.89,-89.18 403.42,-87.97 394.43,-82.35 392.89,-89.18"/>
</g>
<!-- Node7 -->
<g id="node7" class="node">
<title>Node7</title>
<g id="a_node7"><a xlink:href="gpuNUFFT__2D__conv__tests_8cpp.html#aaa68ca62ef9f76180f0da723f0da1dfb" target="_top" xlink:title=" ">
<polygon fill="none" stroke="black" points="231.5,-0.5 231.5,-19.5 272.5,-19.5 272.5,-0.5 231.5,-0.5"/>
<text text-anchor="middle" x="252" y="-7.5" font-family="FreeSans.ttf" font-size="10.00">TEST</text>
</a>
</g>
</g>
<!-- Node1&#45;&gt;Node7 -->
<g id="edge6" class="edge">
<title>Node1&#45;&gt;Node7</title>
<path fill="none" stroke="midnightblue" d="M443.24,-81.69C421.09,-65.13 388.17,-42.87 356,-30 328.26,-18.9 293.79,-13.81 272.6,-11.59"/>
<polygon fill="midnightblue" stroke="midnightblue" points="441.38,-84.68 451.46,-87.95 445.62,-79.11 441.38,-84.68"/>
</g>
<!-- Node3 -->
<g id="node3" class="node">
<title>Node3</title>
<g id="a_node3"><a xlink:href="python__bindings_8cpp.html#ad1a7eaf0d60c015a4df3da44ddf58e27" target="_top" xlink:title=" ">
<polygon fill="none" stroke="black" points="0,-191.5 0,-210.5 112,-210.5 112,-191.5 0,-191.5"/>
<text text-anchor="middle" x="56" y="-198.5" font-family="FreeSans.ttf" font-size="10.00">PYBIND11_MODULE</text>
</a>
</g>
</g>
<!-- Node2&#45;&gt;Node3 -->
<g id="edge2" class="edge">
<title>Node2&#45;&gt;Node3</title>
<path fill="none" stroke="midnightblue" d="M174.2,-201C153.52,-201 131.55,-201 112.3,-201"/>
<polygon fill="midnightblue" stroke="midnightblue" points="174.24,-204.5 184.24,-201 174.24,-197.5 174.24,-204.5"/>
</g>
</g>
</svg>
