<?xml version="1.0" encoding="UTF-8" standalone="no"?>
<!DOCTYPE svg PUBLIC "-//W3C//DTD SVG 1.1//EN"
 "http://www.w3.org/Graphics/SVG/1.1/DTD/svg11.dtd">
<!-- Generated by graphviz version 2.49.3 (20211027.1534)
 -->
<!-- Title: gpuNUFFT::GpuNUFFTOperator::performForwardGpuNUFFT Pages: 1 -->
<svg width="549pt" height="175pt"
 viewBox="0.00 0.00 549.00 175.00" xmlns="http://www.w3.org/2000/svg" xmlns:xlink="http://www.w3.org/1999/xlink">
<g id="graph0" class="graph" transform="scale(1 1) rotate(0) translate(4 171)">
<title>gpuNUFFT::GpuNUFFTOperator::performForwardGpuNUFFT</title>
<!-- Node1 -->
<g id="node1" class="node">
<title>Node1</title>
<g id="a_node1"><a xlink:title="Perform forward gridding operation on given kspaceData.">
<polygon fill="#bfbfbf" stroke="black" points="383,-71 383,-101 541,-101 541,-71 383,-71"/>
<text text-anchor="start" x="391" y="-89" font-family="FreeSans.ttf" font-size="10.00">gpuNUFFT::GpuNUFFTOperator</text>
<text text-anchor="middle" x="462" y="-78" font-family="FreeSans.ttf" font-size="10.00">::performForwardGpuNUFFT</text>
</a>
</g>
</g>
<!-- Node2 -->
<g id="node2" class="node">
<title>Node2</title>
<g id="a_node2"><a xlink:href="classGpuNUFFTPythonOperator.html#a790d6c1885f30c640064a26f618e64ea" target="_top" xlink:title=" ">
<polygon fill="none" stroke="black" points="172.5,-147.5 172.5,-166.5 322.5,-166.5 322.5,-147.5 172.5,-147.5"/>
<text text-anchor="middle" x="247.5" y="-154.5" font-family="FreeSans.ttf" font-size="10.00">GpuNUFFTPythonOperator::op</text>
</a>
</g>
</g>
<!-- Node1&#45;&gt;Node2 -->
<g id="edge1" class="edge">
<title>Node1&#45;&gt;Node2</title>
<path fill="none" stroke="midnightblue" d="M423.76,-105.71C401.91,-116.58 373.47,-129.54 347,-138 335.22,-141.76 322.4,-144.9 310.02,-147.47"/>
<polygon fill="midnightblue" stroke="midnightblue" points="425.35,-108.83 432.7,-101.2 422.2,-102.58 425.35,-108.83"/>
</g>
<!-- Node4 -->
<g id="node4" class="node">
<title>Node4</title>
<g id="a_node4"><a xlink:href="classgpuNUFFT_1_1BalancedGpuNUFFTOperator.html#a3b8fe03dd1e0e8b68eba22e42e1e032b" target="_top" xlink:title="Perform forward gridding operation on given kspaceData.">
<polygon fill="none" stroke="black" points="148,-98 148,-128 347,-128 347,-98 148,-98"/>
<text text-anchor="start" x="156" y="-116" font-family="FreeSans.ttf" font-size="10.00">gpuNUFFT::BalancedGpuNUFFTOperator</text>
<text text-anchor="middle" x="247.5" y="-105" font-family="FreeSans.ttf" font-size="10.00">::performForwardGpuNUFFT</text>
</a>
</g>
</g>
<!-- Node1&#45;&gt;Node4 -->
<g id="edge3" class="edge">
<title>Node1&#45;&gt;Node4</title>
<path fill="none" stroke="midnightblue" d="M372.62,-97.23C364.21,-98.3 355.65,-99.39 347.15,-100.47"/>
<polygon fill="midnightblue" stroke="midnightblue" points="373.3,-100.67 382.78,-95.94 372.42,-93.73 373.3,-100.67"/>
</g>
<!-- Node5 -->
<g id="node5" class="node">
<title>Node5</title>
<g id="a_node5"><a xlink:href="classgpuNUFFT_1_1BalancedTextureGpuNUFFTOperator.html#a8e0514f6dea51134ad49aaeb6c29ac5b" target="_top" xlink:title="Perform forward gridding operation on given kspaceData.">
<polygon fill="none" stroke="black" points="158.5,-38.5 158.5,-79.5 336.5,-79.5 336.5,-38.5 158.5,-38.5"/>
<text text-anchor="start" x="166.5" y="-67.5" font-family="FreeSans.ttf" font-size="10.00">gpuNUFFT::BalancedTexture</text>
<text text-anchor="start" x="166.5" y="-56.5" font-family="FreeSans.ttf" font-size="10.00">GpuNUFFTOperator::performForward</text>
<text text-anchor="middle" x="247.5" y="-45.5" font-family="FreeSans.ttf" font-size="10.00">GpuNUFFT</text>
</a>
</g>
</g>
<!-- Node1&#45;&gt;Node5 -->
<g id="edge4" class="edge">
<title>Node1&#45;&gt;Node5</title>
<path fill="none" stroke="midnightblue" d="M372.81,-74.8C360.85,-73.27 348.56,-71.71 336.6,-70.19"/>
<polygon fill="midnightblue" stroke="midnightblue" points="372.42,-78.27 382.78,-76.06 373.3,-71.33 372.42,-78.27"/>
</g>
<!-- Node6 -->
<g id="node6" class="node">
<title>Node6</title>
<g id="a_node6"><a xlink:href="gpuNUFFT__forward__tests_8cpp.html#a6e7e337161ef805951437dbf21112e43" target="_top" xlink:title=" ">
<polygon fill="none" stroke="black" points="227,-0.5 227,-19.5 268,-19.5 268,-0.5 227,-0.5"/>
<text text-anchor="middle" x="247.5" y="-7.5" font-family="FreeSans.ttf" font-size="10.00">TEST</text>
</a>
</g>
</g>
<!-- Node1&#45;&gt;Node6 -->
<g id="edge5" class="edge">
<title>Node1&#45;&gt;Node6</title>
<path fill="none" stroke="midnightblue" d="M426.64,-65.72C404.55,-53.47 374.87,-38.46 347,-29 320.45,-19.99 288.33,-14.8 268.16,-12.19"/>
<polygon fill="midnightblue" stroke="midnightblue" points="425.18,-68.91 435.61,-70.77 428.62,-62.82 425.18,-68.91"/>
</g>
<!-- Node3 -->
<g id="node3" class="node">
<title>Node3</title>
<g id="a_node3"><a xlink:href="gpuNUFFT__operator__python__factory_8cpp.html#ad1a7eaf0d60c015a4df3da44ddf58e27" target="_top" xlink:title=" ">
<polygon fill="none" stroke="black" points="0,-147.5 0,-166.5 112,-166.5 112,-147.5 0,-147.5"/>
<text text-anchor="middle" x="56" y="-154.5" font-family="FreeSans.ttf" font-size="10.00">PYBIND11_MODULE</text>
</a>
</g>
</g>
<!-- Node2&#45;&gt;Node3 -->
<g id="edge2" class="edge">
<title>Node2&#45;&gt;Node3</title>
<path fill="none" stroke="midnightblue" d="M161.99,-157C145.13,-157 127.82,-157 112.25,-157"/>
<polygon fill="midnightblue" stroke="midnightblue" points="162.42,-160.5 172.42,-157 162.42,-153.5 162.42,-160.5"/>
</g>
</g>
</svg>
