<?xml version="1.0" encoding="UTF-8" standalone="no"?>
<!DOCTYPE svg PUBLIC "-//W3C//DTD SVG 1.1//EN"
 "http://www.w3.org/Graphics/SVG/1.1/DTD/svg11.dtd">
<!-- Generated by graphviz version 2.49.3 (20211027.1534)
 -->
<!-- Title: gpuNUFFT::GpuNUFFTOperator::estimate_density_comp Pages: 1 -->
<svg width="511pt" height="142pt"
 viewBox="0.00 0.00 511.00 142.00" xmlns="http://www.w3.org/2000/svg" xmlns:xlink="http://www.w3.org/1999/xlink">
<g id="graph0" class="graph" transform="scale(1 1) rotate(0) translate(4 138)">
<title>gpuNUFFT::GpuNUFFTOperator::estimate_density_comp</title>
<!-- Node1 -->
<g id="node1" class="node">
<title>Node1</title>
<g id="a_node1"><a xlink:title=" ">
<polygon fill="#bfbfbf" stroke="black" points="0,-52 0,-82 158,-82 158,-52 0,-52"/>
<text text-anchor="start" x="8" y="-70" font-family="FreeSans.ttf" font-size="10.00">gpuNUFFT::GpuNUFFTOperator</text>
<text text-anchor="middle" x="79" y="-59" font-family="FreeSans.ttf" font-size="10.00">::estimate_density_comp</text>
</a>
</g>
</g>
<!-- Node2 -->
<g id="node2" class="node">
<title>Node2</title>
<g id="a_node2"><a xlink:href="cuda__utils_8hpp.html#a18413e749218eb97bc61578b50a57787" target="_top" xlink:title="CUDA memory allocation and memcpy call to copy data from host to device.">
<polygon fill="none" stroke="black" points="194,-114.5 194,-133.5 346,-133.5 346,-114.5 194,-114.5"/>
<text text-anchor="middle" x="270" y="-121.5" font-family="FreeSans.ttf" font-size="10.00">allocateAndCopyToDeviceMem</text>
</a>
</g>
</g>
<!-- Node1&#45;&gt;Node2 -->
<g id="edge1" class="edge">
<title>Node1&#45;&gt;Node2</title>
<path fill="none" stroke="midnightblue" d="M122.53,-82C143.87,-89.32 170.17,-98.02 194,-105 202.15,-107.39 210.86,-109.76 219.34,-111.97"/>
<polygon fill="midnightblue" stroke="midnightblue" points="218.59,-115.39 229.15,-114.48 220.33,-108.61 218.59,-115.39"/>
</g>
<!-- Node3 -->
<g id="node3" class="node">
<title>Node3</title>
<g id="a_node3"><a xlink:href="cuda__utils_8hpp.html#a5fb34b1c5f091a495c7ac4237257d7b1" target="_top" xlink:title="Allocation of device memory of the given extent for the defined type.">
<polygon fill="none" stroke="black" points="219,-76.5 219,-95.5 321,-95.5 321,-76.5 219,-76.5"/>
<text text-anchor="middle" x="270" y="-83.5" font-family="FreeSans.ttf" font-size="10.00">allocateDeviceMem</text>
</a>
</g>
</g>
<!-- Node1&#45;&gt;Node3 -->
<g id="edge2" class="edge">
<title>Node1&#45;&gt;Node3</title>
<path fill="none" stroke="midnightblue" d="M158.24,-74.87C175.07,-76.56 192.6,-78.32 208.63,-79.93"/>
<polygon fill="midnightblue" stroke="midnightblue" points="208.62,-83.45 218.92,-80.97 209.32,-76.48 208.62,-83.45"/>
</g>
<!-- Node4 -->
<g id="node4" class="node">
<title>Node4</title>
<g id="a_node4"><a xlink:href="structgpuNUFFT_1_1Array.html#af426f56b5d7e05b6143acbdd51bac188" target="_top" xlink:title=" ">
<polygon fill="none" stroke="black" points="209.5,-38.5 209.5,-57.5 330.5,-57.5 330.5,-38.5 209.5,-38.5"/>
<text text-anchor="middle" x="270" y="-45.5" font-family="FreeSans.ttf" font-size="10.00">gpuNUFFT::Array::count</text>
</a>
</g>
</g>
<!-- Node1&#45;&gt;Node4 -->
<g id="edge3" class="edge">
<title>Node1&#45;&gt;Node4</title>
<path fill="none" stroke="midnightblue" d="M158.24,-59.13C171.83,-57.77 185.89,-56.35 199.24,-55.01"/>
<polygon fill="midnightblue" stroke="midnightblue" points="199.69,-58.49 209.29,-54 198.99,-51.52 199.69,-58.49"/>
</g>
<!-- Node6 -->
<g id="node6" class="node">
<title>Node6</title>
<g id="a_node6"><a xlink:href="gpuNUFFT__kernels_8hpp.html#a8431363d47100f4911c3dfd4c8cd833f" target="_top" xlink:title="Perform the Density compensation method.">
<polygon fill="none" stroke="black" points="200.5,-0.5 200.5,-19.5 339.5,-19.5 339.5,-0.5 200.5,-0.5"/>
<text text-anchor="middle" x="270" y="-7.5" font-family="FreeSans.ttf" font-size="10.00">performUpdateDensityComp</text>
</a>
</g>
</g>
<!-- Node1&#45;&gt;Node6 -->
<g id="edge5" class="edge">
<title>Node1&#45;&gt;Node6</title>
<path fill="none" stroke="midnightblue" d="M122.53,-52C143.87,-44.68 170.17,-35.98 194,-29 202.15,-26.61 210.86,-24.24 219.34,-22.03"/>
<polygon fill="midnightblue" stroke="midnightblue" points="220.33,-25.39 229.15,-19.52 218.59,-18.61 220.33,-25.39"/>
</g>
<!-- Node5 -->
<g id="node5" class="node">
<title>Node5</title>
<g id="a_node5"><a xlink:href="structgpuNUFFT_1_1Dimensions.html#a4c589934c5444910fbcd890d128229c9" target="_top" xlink:title="Compute total count of array length.">
<polygon fill="none" stroke="black" points="382,-33 382,-63 503,-63 503,-33 382,-33"/>
<text text-anchor="start" x="390" y="-51" font-family="FreeSans.ttf" font-size="10.00">gpuNUFFT::Dimensions</text>
<text text-anchor="middle" x="442.5" y="-40" font-family="FreeSans.ttf" font-size="10.00">::count</text>
</a>
</g>
</g>
<!-- Node4&#45;&gt;Node5 -->
<g id="edge4" class="edge">
<title>Node4&#45;&gt;Node5</title>
<path fill="none" stroke="midnightblue" d="M330.63,-48C343.87,-48 358.02,-48 371.63,-48"/>
<polygon fill="midnightblue" stroke="midnightblue" points="371.9,-51.5 381.9,-48 371.9,-44.5 371.9,-51.5"/>
</g>
</g>
</svg>
