<?xml version="1.0" encoding="UTF-8" standalone="no"?>
<!DOCTYPE svg PUBLIC "-//W3C//DTD SVG 1.1//EN"
 "http://www.w3.org/Graphics/SVG/1.1/DTD/svg11.dtd">
<!-- Generated by graphviz version 2.49.3 (20211027.1534)
 -->
<!-- Title: gpuNUFFT::GpuNUFFTOperator::getGridSectorDims Pages: 1 -->
<svg width="367pt" height="137pt"
 viewBox="0.00 0.00 367.00 137.00" xmlns="http://www.w3.org/2000/svg" xmlns:xlink="http://www.w3.org/1999/xlink">
<g id="graph0" class="graph" transform="scale(1 1) rotate(0) translate(4 133)">
<title>gpuNUFFT::GpuNUFFTOperator::getGridSectorDims</title>
<!-- Node1 -->
<g id="node1" class="node">
<title>Node1</title>
<g id="a_node1"><a xlink:title=" ">
<polygon fill="#bfbfbf" stroke="black" points="201,-49.5 201,-79.5 359,-79.5 359,-49.5 201,-49.5"/>
<text text-anchor="start" x="209" y="-67.5" font-family="FreeSans.ttf" font-size="10.00">gpuNUFFT::GpuNUFFTOperator</text>
<text text-anchor="middle" x="280" y="-56.5" font-family="FreeSans.ttf" font-size="10.00">::getGridSectorDims</text>
</a>
</g>
</g>
<!-- Node2 -->
<g id="node2" class="node">
<title>Node2</title>
<g id="a_node2"><a xlink:href="classgpuNUFFT_1_1GpuNUFFTOperatorFactory.html#a62c51a180bf592a0fa82343ed7b4daed" target="_top" xlink:title="Compute sector centers array.">
<polygon fill="none" stroke="black" points="3.5,-98.5 3.5,-128.5 161.5,-128.5 161.5,-98.5 3.5,-98.5"/>
<text text-anchor="start" x="11.5" y="-116.5" font-family="FreeSans.ttf" font-size="10.00">gpuNUFFT::GpuNUFFTOperator</text>
<text text-anchor="middle" x="82.5" y="-105.5" font-family="FreeSans.ttf" font-size="10.00">Factory::computeSectorCenters</text>
</a>
</g>
</g>
<!-- Node1&#45;&gt;Node2 -->
<g id="edge1" class="edge">
<title>Node1&#45;&gt;Node2</title>
<path fill="none" stroke="midnightblue" d="M209.27,-81.98C187.72,-87.38 164.19,-93.28 143.37,-98.49"/>
<polygon fill="midnightblue" stroke="midnightblue" points="210.17,-85.36 219.01,-79.53 208.46,-78.57 210.17,-85.36"/>
</g>
<!-- Node3 -->
<g id="node3" class="node">
<title>Node3</title>
<g id="a_node3"><a xlink:href="classgpuNUFFT_1_1GpuNUFFTOperatorFactory.html#a65d596418c34d74d383addd455469b5a" target="_top" xlink:title="Compute 2&#45;d sector centers array.">
<polygon fill="none" stroke="black" points="0,-49.5 0,-79.5 165,-79.5 165,-49.5 0,-49.5"/>
<text text-anchor="start" x="8" y="-67.5" font-family="FreeSans.ttf" font-size="10.00">gpuNUFFT::GpuNUFFTOperator</text>
<text text-anchor="middle" x="82.5" y="-56.5" font-family="FreeSans.ttf" font-size="10.00">Factory::computeSectorCenters2D</text>
</a>
</g>
</g>
<!-- Node1&#45;&gt;Node3 -->
<g id="edge2" class="edge">
<title>Node1&#45;&gt;Node3</title>
<path fill="none" stroke="midnightblue" d="M190.85,-64.5C182.25,-64.5 173.54,-64.5 165.01,-64.5"/>
<polygon fill="midnightblue" stroke="midnightblue" points="190.89,-68 200.89,-64.5 190.89,-61 190.89,-68"/>
</g>
<!-- Node4 -->
<g id="node4" class="node">
<title>Node4</title>
<g id="a_node4"><a xlink:href="classgpuNUFFT_1_1GpuNUFFTOperatorFactory.html#ad915537942d302c8d192b964e6114f28" target="_top" xlink:title="Compute the boundaries of the assigned dataIndices per sector element.">
<polygon fill="none" stroke="black" points="0,-0.5 0,-30.5 165,-30.5 165,-0.5 0,-0.5"/>
<text text-anchor="start" x="8" y="-18.5" font-family="FreeSans.ttf" font-size="10.00">gpuNUFFT::GpuNUFFTOperator</text>
<text text-anchor="middle" x="82.5" y="-7.5" font-family="FreeSans.ttf" font-size="10.00">Factory::computeSectorDataCount</text>
</a>
</g>
</g>
<!-- Node1&#45;&gt;Node4 -->
<g id="edge3" class="edge">
<title>Node1&#45;&gt;Node4</title>
<path fill="none" stroke="midnightblue" d="M209.27,-47.02C187.72,-41.62 164.19,-35.72 143.37,-30.51"/>
<polygon fill="midnightblue" stroke="midnightblue" points="208.46,-50.43 219.01,-49.47 210.17,-43.64 208.46,-50.43"/>
</g>
</g>
</svg>
