<?xml version="1.0" encoding="UTF-8" standalone="no"?>
<!DOCTYPE svg PUBLIC "-//W3C//DTD SVG 1.1//EN"
 "http://www.w3.org/Graphics/SVG/1.1/DTD/svg11.dtd">
<!-- Generated by graphviz version 2.49.3 (20211027.1534)
 -->
<!-- Title: gpuNUFFT::BalancedTextureGpuNUFFTOperator::performForwardGpuNUFFT Pages: 1 -->
<svg width="501pt" height="78pt"
 viewBox="0.00 0.00 501.00 77.50" xmlns="http://www.w3.org/2000/svg" xmlns:xlink="http://www.w3.org/1999/xlink">
<g id="graph0" class="graph" transform="scale(1 1) rotate(0) translate(4 73.5)">
<title>gpuNUFFT::BalancedTextureGpuNUFFTOperator::performForwardGpuNUFFT</title>
<!-- Node1 -->
<g id="node1" class="node">
<title>Node1</title>
<g id="a_node1"><a xlink:title="Perform forward gridding operation on given kspaceData.">
<polygon fill="#bfbfbf" stroke="black" points="0,-17 0,-58 178,-58 178,-17 0,-17"/>
<text text-anchor="start" x="8" y="-46" font-family="FreeSans.ttf" font-size="10.00">gpuNUFFT::BalancedTexture</text>
<text text-anchor="start" x="8" y="-35" font-family="FreeSans.ttf" font-size="10.00">GpuNUFFTOperator::performForward</text>
<text text-anchor="middle" x="89" y="-24" font-family="FreeSans.ttf" font-size="10.00">GpuNUFFT</text>
</a>
</g>
</g>
<!-- Node2 -->
<g id="node2" class="node">
<title>Node2</title>
<g id="a_node2"><a xlink:href="cuda__utils_8hpp.html#aaa83ead29bc50e65ae4298d9206a760b" target="_top" xlink:title="Free variable list of device pointers. Use NULL as stopping element.">
<polygon fill="none" stroke="black" points="233.5,-50 233.5,-69 352.5,-69 352.5,-50 233.5,-50"/>
<text text-anchor="middle" x="293" y="-57" font-family="FreeSans.ttf" font-size="10.00">freeTotalDeviceMemory</text>
</a>
</g>
</g>
<!-- Node1&#45;&gt;Node2 -->
<g id="edge1" class="edge">
<title>Node1&#45;&gt;Node2</title>
<path fill="none" stroke="midnightblue" d="M178.01,-47.09C193.07,-48.73 208.52,-50.41 222.99,-51.98"/>
<polygon fill="midnightblue" stroke="midnightblue" points="223.02,-55.51 233.34,-53.11 223.77,-48.55 223.02,-55.51"/>
</g>
<!-- Node4 -->
<g id="node4" class="node">
<title>Node4</title>
<g id="a_node4"><a xlink:href="classgpuNUFFT_1_1GpuNUFFTOperator.html#a10d565529aa2c7778c15edb8a820b417" target="_top" xlink:title="Perform forward gridding operation on given kspaceData.">
<polygon fill="none" stroke="black" points="214,-0.5 214,-30.5 372,-30.5 372,-0.5 214,-0.5"/>
<text text-anchor="start" x="222" y="-18.5" font-family="FreeSans.ttf" font-size="10.00">gpuNUFFT::GpuNUFFTOperator</text>
<text text-anchor="middle" x="293" y="-7.5" font-family="FreeSans.ttf" font-size="10.00">::performForwardGpuNUFFT</text>
</a>
</g>
</g>
<!-- Node1&#45;&gt;Node4 -->
<g id="edge3" class="edge">
<title>Node1&#45;&gt;Node4</title>
<path fill="none" stroke="midnightblue" d="M178.01,-27.91C186.57,-26.98 195.26,-26.04 203.82,-25.1"/>
<polygon fill="midnightblue" stroke="midnightblue" points="204.23,-28.58 213.79,-24.02 203.47,-21.62 204.23,-28.58"/>
</g>
<!-- Node3 -->
<g id="node3" class="node">
<title>Node3</title>
<g id="a_node3"><a xlink:href="cuda__utils_8hpp.html#a6ffa821f98a8c2b391c12c01308ff1db" target="_top" xlink:title="Free of device memory.">
<polygon fill="none" stroke="black" points="408,-50 408,-69 493,-69 493,-50 408,-50"/>
<text text-anchor="middle" x="450.5" y="-57" font-family="FreeSans.ttf" font-size="10.00">freeDeviceMem</text>
</a>
</g>
</g>
<!-- Node2&#45;&gt;Node3 -->
<g id="edge2" class="edge">
<title>Node2&#45;&gt;Node3</title>
<path fill="none" stroke="midnightblue" d="M352.79,-59.5C367.46,-59.5 383.09,-59.5 397.41,-59.5"/>
<polygon fill="midnightblue" stroke="midnightblue" points="397.58,-63 407.58,-59.5 397.58,-56 397.58,-63"/>
</g>
</g>
</svg>
