<?xml version="1.0" encoding="UTF-8" standalone="no"?>
<!DOCTYPE svg PUBLIC "-//W3C//DTD SVG 1.1//EN"
 "http://www.w3.org/Graphics/SVG/1.1/DTD/svg11.dtd">
<!-- Generated by graphviz version 2.49.3 (20211027.1534)
 -->
<!-- Title: gpuNUFFT::GpuNUFFTOperator::performForwardGpuNUFFT Pages: 1 -->
<svg width="505pt" height="408pt"
 viewBox="0.00 0.00 505.00 408.00" xmlns="http://www.w3.org/2000/svg" xmlns:xlink="http://www.w3.org/1999/xlink">
<g id="graph0" class="graph" transform="scale(1 1) rotate(0) translate(4 404)">
<title>gpuNUFFT::GpuNUFFTOperator::performForwardGpuNUFFT</title>
<!-- Node1 -->
<g id="node1" class="node">
<title>Node1</title>
<g id="a_node1"><a xlink:title="Perform forward gridding operation on kspaceData already residing in GPU memory.">
<polygon fill="#bfbfbf" stroke="black" points="0,-185 0,-215 158,-215 158,-185 0,-185"/>
<text text-anchor="start" x="8" y="-203" font-family="FreeSans.ttf" font-size="10.00">gpuNUFFT::GpuNUFFTOperator</text>
<text text-anchor="middle" x="79" y="-192" font-family="FreeSans.ttf" font-size="10.00">::performForwardGpuNUFFT</text>
</a>
</g>
</g>
<!-- Node2 -->
<g id="node2" class="node">
<title>Node2</title>
<g id="a_node2"><a xlink:href="cuda__utils_8hpp.html#a130580818f5be50503003961ad9f8852" target="_top" xlink:title="CUDA memcpy call to copy data from device ptr to device ptr.">
<polygon fill="none" stroke="black" points="213,-380.5 213,-399.5 321,-399.5 321,-380.5 213,-380.5"/>
<text text-anchor="middle" x="267" y="-387.5" font-family="FreeSans.ttf" font-size="10.00">copyDeviceToDevice</text>
</a>
</g>
</g>
<!-- Node1&#45;&gt;Node2 -->
<g id="edge1" class="edge">
<title>Node1&#45;&gt;Node2</title>
<path fill="none" stroke="midnightblue" d="M85.64,-215.01C99.02,-248.48 135.94,-329.51 194,-371 197.02,-373.16 200.26,-375.07 203.65,-376.76"/>
<polygon fill="midnightblue" stroke="midnightblue" points="202.3,-379.99 212.87,-380.76 205.09,-373.57 202.3,-379.99"/>
</g>
<!-- Node3 -->
<g id="node3" class="node">
<title>Node3</title>
<g id="a_node3"><a xlink:href="cuda__utils_8hpp.html#a52e9a7f2a2d5bed73e0e9e7d367b1198" target="_top" xlink:title="CUDA memcpy call to copy data from host to device.">
<polygon fill="none" stroke="black" points="228,-342.5 228,-361.5 306,-361.5 306,-342.5 228,-342.5"/>
<text text-anchor="middle" x="267" y="-349.5" font-family="FreeSans.ttf" font-size="10.00">copyToDevice</text>
</a>
</g>
</g>
<!-- Node1&#45;&gt;Node3 -->
<g id="edge2" class="edge">
<title>Node1&#45;&gt;Node3</title>
<path fill="none" stroke="midnightblue" d="M88.8,-215.4C105.55,-243.29 144.79,-302.14 194,-333 201.32,-337.59 209.73,-341.08 218.15,-343.73"/>
<polygon fill="midnightblue" stroke="midnightblue" points="217.42,-347.16 227.99,-346.47 219.3,-340.41 217.42,-347.16"/>
</g>
<!-- Node4 -->
<g id="node4" class="node">
<title>Node4</title>
<g id="a_node4"><a xlink:href="structgpuNUFFT_1_1Array.html#af426f56b5d7e05b6143acbdd51bac188" target="_top" xlink:title=" ">
<polygon fill="none" stroke="black" points="206.5,-304.5 206.5,-323.5 327.5,-323.5 327.5,-304.5 206.5,-304.5"/>
<text text-anchor="middle" x="267" y="-311.5" font-family="FreeSans.ttf" font-size="10.00">gpuNUFFT::Array::count</text>
</a>
</g>
</g>
<!-- Node1&#45;&gt;Node4 -->
<g id="edge3" class="edge">
<title>Node1&#45;&gt;Node4</title>
<path fill="none" stroke="midnightblue" d="M93.95,-215.23C114.05,-236.26 153.25,-273.97 194,-295 198.55,-297.35 203.42,-299.42 208.39,-301.26"/>
<polygon fill="midnightblue" stroke="midnightblue" points="207.44,-304.63 218.04,-304.49 209.67,-297.99 207.44,-304.63"/>
</g>
<!-- Node6 -->
<g id="node6" class="node">
<title>Node6</title>
<g id="a_node6"><a xlink:href="cuda__utils_8hpp.html#aaa83ead29bc50e65ae4298d9206a760b" target="_top" xlink:title="Free variable list of device pointers. Use NULL as stopping element.">
<polygon fill="none" stroke="black" points="207.5,-266.5 207.5,-285.5 326.5,-285.5 326.5,-266.5 207.5,-266.5"/>
<text text-anchor="middle" x="267" y="-273.5" font-family="FreeSans.ttf" font-size="10.00">freeTotalDeviceMemory</text>
</a>
</g>
</g>
<!-- Node1&#45;&gt;Node6 -->
<g id="edge5" class="edge">
<title>Node1&#45;&gt;Node6</title>
<path fill="none" stroke="midnightblue" d="M106.48,-215.2C129.14,-227.73 162.95,-245.28 194,-257 200.42,-259.42 207.27,-261.66 214.1,-263.68"/>
<polygon fill="midnightblue" stroke="midnightblue" points="213.47,-267.14 224.04,-266.48 215.37,-260.4 213.47,-267.14"/>
</g>
<!-- Node8 -->
<g id="node8" class="node">
<title>Node8</title>
<g id="a_node8"><a xlink:href="gpuNUFFT__kernels_8hpp.html#a282ad0ccb6ee40ae92d4acec00f7cebb" target="_top" xlink:title="Scale each element by the total number of elements.">
<polygon fill="none" stroke="black" points="217,-228.5 217,-247.5 317,-247.5 317,-228.5 217,-228.5"/>
<text text-anchor="middle" x="267" y="-235.5" font-family="FreeSans.ttf" font-size="10.00">performFFTScaling</text>
</a>
</g>
</g>
<!-- Node1&#45;&gt;Node8 -->
<g id="edge7" class="edge">
<title>Node1&#45;&gt;Node8</title>
<path fill="none" stroke="midnightblue" d="M153.51,-215.02C172.1,-218.82 191.78,-222.84 209.39,-226.43"/>
<polygon fill="midnightblue" stroke="midnightblue" points="209,-229.93 219.5,-228.5 210.4,-223.07 209,-229.93"/>
</g>
<!-- Node9 -->
<g id="node9" class="node">
<title>Node9</title>
<g id="a_node9"><a xlink:href="gpuNUFFT__kernels_8hpp.html#ad5fef14609b81092079ee30422bbae64" target="_top" xlink:title="FFT shift the grid data.">
<polygon fill="none" stroke="black" points="223,-190.5 223,-209.5 311,-209.5 311,-190.5 223,-190.5"/>
<text text-anchor="middle" x="267" y="-197.5" font-family="FreeSans.ttf" font-size="10.00">performFFTShift</text>
</a>
</g>
</g>
<!-- Node1&#45;&gt;Node9 -->
<g id="edge8" class="edge">
<title>Node1&#45;&gt;Node9</title>
<path fill="none" stroke="midnightblue" d="M158.07,-200C176.43,-200 195.59,-200 212.58,-200"/>
<polygon fill="midnightblue" stroke="midnightblue" points="212.85,-203.5 222.85,-200 212.85,-196.5 212.85,-203.5"/>
</g>
<!-- Node10 -->
<g id="node10" class="node">
<title>Node10</title>
<g id="a_node10"><a xlink:href="gpuNUFFT__kernels_8hpp.html#adad65803e7273d52704591b5ed5aa3aa" target="_top" xlink:title="Apply the deapodization function to the image in the forward transformation.">
<polygon fill="none" stroke="black" points="194,-152.5 194,-171.5 340,-171.5 340,-152.5 194,-152.5"/>
<text text-anchor="middle" x="267" y="-159.5" font-family="FreeSans.ttf" font-size="10.00">performForwardDeapodization</text>
</a>
</g>
</g>
<!-- Node1&#45;&gt;Node10 -->
<g id="edge9" class="edge">
<title>Node1&#45;&gt;Node10</title>
<path fill="none" stroke="midnightblue" d="M153.51,-184.98C172.1,-181.18 191.78,-177.16 209.39,-173.57"/>
<polygon fill="midnightblue" stroke="midnightblue" points="210.4,-176.93 219.5,-171.5 209,-170.07 210.4,-176.93"/>
</g>
<!-- Node11 -->
<g id="node11" class="node">
<title>Node11</title>
<g id="a_node11"><a xlink:href="gpuNUFFT__kernels_8hpp.html#a2bd4ebbd73b92546a551980a7df3d38c" target="_top" xlink:title="Perform the padding of the input image to the oversampled grid.">
<polygon fill="none" stroke="black" points="224.5,-114.5 224.5,-133.5 309.5,-133.5 309.5,-114.5 224.5,-114.5"/>
<text text-anchor="middle" x="267" y="-121.5" font-family="FreeSans.ttf" font-size="10.00">performPadding</text>
</a>
</g>
</g>
<!-- Node1&#45;&gt;Node11 -->
<g id="edge10" class="edge">
<title>Node1&#45;&gt;Node11</title>
<path fill="none" stroke="midnightblue" d="M106.48,-184.8C129.14,-172.27 162.95,-154.72 194,-143 200.5,-140.55 207.45,-138.29 214.36,-136.25"/>
<polygon fill="midnightblue" stroke="midnightblue" points="215.74,-139.49 224.42,-133.42 213.85,-132.75 215.74,-139.49"/>
</g>
<!-- Node12 -->
<g id="node12" class="node">
<title>Node12</title>
<g id="a_node12"><a xlink:href="gpuNUFFT__kernels_8hpp.html#ae4b6d76d21fb2ed317d056a93b8cbec8" target="_top" xlink:title="Multiply each image element with the coil sensitivity.">
<polygon fill="none" stroke="black" points="223,-76.5 223,-95.5 311,-95.5 311,-76.5 223,-76.5"/>
<text text-anchor="middle" x="267" y="-83.5" font-family="FreeSans.ttf" font-size="10.00">performSensMul</text>
</a>
</g>
</g>
<!-- Node1&#45;&gt;Node12 -->
<g id="edge11" class="edge">
<title>Node1&#45;&gt;Node12</title>
<path fill="none" stroke="midnightblue" d="M93.95,-184.77C114.05,-163.74 153.25,-126.03 194,-105 200.02,-101.89 206.59,-99.26 213.24,-97.04"/>
<polygon fill="midnightblue" stroke="midnightblue" points="214.43,-100.34 222.98,-94.08 212.39,-93.64 214.43,-100.34"/>
</g>
<!-- Node13 -->
<g id="node13" class="node">
<title>Node13</title>
<g id="a_node13"><a xlink:href="cuda__utils_8hpp.html#ad9458f074da29c52d203d541be58971a" target="_top" xlink:title="Debug short device memory information (free/total) to stream if DEBUG flag is set to true.">
<polygon fill="none" stroke="black" points="221.5,-38.5 221.5,-57.5 312.5,-57.5 312.5,-38.5 221.5,-38.5"/>
<text text-anchor="middle" x="267" y="-45.5" font-family="FreeSans.ttf" font-size="10.00">showMemoryInfo</text>
</a>
</g>
</g>
<!-- Node1&#45;&gt;Node13 -->
<g id="edge12" class="edge">
<title>Node1&#45;&gt;Node13</title>
<path fill="none" stroke="midnightblue" d="M88.8,-184.6C105.55,-156.71 144.79,-97.86 194,-67 199.39,-63.62 205.37,-60.84 211.51,-58.55"/>
<polygon fill="midnightblue" stroke="midnightblue" points="212.84,-61.8 221.24,-55.34 210.64,-55.15 212.84,-61.8"/>
</g>
<!-- Node14 -->
<g id="node14" class="node">
<title>Node14</title>
<g id="a_node14"><a xlink:href="precomp__kernels_8hpp.html#a738b63c0ebcc9b273d467f9c1c7d74f6" target="_top" xlink:title="Write from sorted input array to unsorted data array.">
<polygon fill="none" stroke="black" points="220,-0.5 220,-19.5 314,-19.5 314,-0.5 220,-0.5"/>
<text text-anchor="middle" x="267" y="-7.5" font-family="FreeSans.ttf" font-size="10.00">writeOrderedGPU</text>
</a>
</g>
</g>
<!-- Node1&#45;&gt;Node14 -->
<g id="edge13" class="edge">
<title>Node1&#45;&gt;Node14</title>
<path fill="none" stroke="midnightblue" d="M85.64,-184.99C99.02,-151.52 135.94,-70.49 194,-29 198.92,-25.49 204.44,-22.62 210.19,-20.29"/>
<polygon fill="midnightblue" stroke="midnightblue" points="211.72,-23.46 220,-16.84 209.4,-16.85 211.72,-23.46"/>
</g>
<!-- Node5 -->
<g id="node5" class="node">
<title>Node5</title>
<g id="a_node5"><a xlink:href="structgpuNUFFT_1_1Dimensions.html#a4c589934c5444910fbcd890d128229c9" target="_top" xlink:title="Compute total count of array length.">
<polygon fill="none" stroke="black" points="376,-302 376,-332 497,-332 497,-302 376,-302"/>
<text text-anchor="start" x="384" y="-320" font-family="FreeSans.ttf" font-size="10.00">gpuNUFFT::Dimensions</text>
<text text-anchor="middle" x="436.5" y="-309" font-family="FreeSans.ttf" font-size="10.00">::count</text>
</a>
</g>
</g>
<!-- Node4&#45;&gt;Node5 -->
<g id="edge4" class="edge">
<title>Node4&#45;&gt;Node5</title>
<path fill="none" stroke="midnightblue" d="M327.53,-315.07C339.92,-315.29 353.08,-315.52 365.8,-315.75"/>
<polygon fill="midnightblue" stroke="midnightblue" points="365.82,-319.25 375.88,-315.93 365.95,-312.25 365.82,-319.25"/>
</g>
<!-- Node7 -->
<g id="node7" class="node">
<title>Node7</title>
<g id="a_node7"><a xlink:href="cuda__utils_8hpp.html#a6ffa821f98a8c2b391c12c01308ff1db" target="_top" xlink:title="Free of device memory.">
<polygon fill="none" stroke="black" points="394,-263.5 394,-282.5 479,-282.5 479,-263.5 394,-263.5"/>
<text text-anchor="middle" x="436.5" y="-270.5" font-family="FreeSans.ttf" font-size="10.00">freeDeviceMem</text>
</a>
</g>
</g>
<!-- Node6&#45;&gt;Node7 -->
<g id="edge6" class="edge">
<title>Node6&#45;&gt;Node7</title>
<path fill="none" stroke="midnightblue" d="M326.58,-274.95C345.2,-274.62 365.65,-274.25 383.75,-273.93"/>
<polygon fill="midnightblue" stroke="midnightblue" points="383.89,-277.43 393.82,-273.75 383.76,-270.43 383.89,-277.43"/>
</g>
</g>
</svg>
