<?xml version="1.0" encoding="UTF-8" standalone="no"?>
<!DOCTYPE svg PUBLIC "-//W3C//DTD SVG 1.1//EN"
 "http://www.w3.org/Graphics/SVG/1.1/DTD/svg11.dtd">
<!-- Generated by graphviz version 2.49.3 (20211027.1534)
 -->
<!-- Title: gpuNUFFT::GpuNUFFTOperatorFactory::createGpuNUFFTOperator Pages: 1 -->
<svg width="565pt" height="558pt"
 viewBox="0.00 0.00 565.00 557.50" xmlns="http://www.w3.org/2000/svg" xmlns:xlink="http://www.w3.org/1999/xlink">
<g id="graph0" class="graph" transform="scale(1 1) rotate(0) translate(4 553.5)">
<title>gpuNUFFT::GpuNUFFTOperatorFactory::createGpuNUFFTOperator</title>
<!-- Node1 -->
<g id="node1" class="node">
<title>Node1</title>
<g id="a_node1"><a xlink:title="Create GpuNUFFT Operator.">
<polygon fill="#bfbfbf" stroke="black" points="0,-259 0,-289 169,-289 169,-259 0,-259"/>
<text text-anchor="start" x="8" y="-277" font-family="FreeSans.ttf" font-size="10.00">gpuNUFFT::GpuNUFFTOperator</text>
<text text-anchor="middle" x="84.5" y="-266" font-family="FreeSans.ttf" font-size="10.00">Factory::createGpuNUFFTOperator</text>
</a>
</g>
</g>
<!-- Node2 -->
<g id="node2" class="node">
<title>Node2</title>
<g id="a_node2"><a xlink:href="structgpuNUFFT_1_1Dimensions.html#a4c589934c5444910fbcd890d128229c9" target="_top" xlink:title="Compute total count of array length.">
<polygon fill="none" stroke="black" points="223.5,-519 223.5,-549 344.5,-549 344.5,-519 223.5,-519"/>
<text text-anchor="start" x="231.5" y="-537" font-family="FreeSans.ttf" font-size="10.00">gpuNUFFT::Dimensions</text>
<text text-anchor="middle" x="284" y="-526" font-family="FreeSans.ttf" font-size="10.00">::count</text>
</a>
</g>
</g>
<!-- Node1&#45;&gt;Node2 -->
<g id="edge1" class="edge">
<title>Node1&#45;&gt;Node2</title>
<path fill="none" stroke="midnightblue" d="M88.88,-289.18C98.93,-330.72 132.51,-447.29 205,-509 207.88,-511.45 211,-513.66 214.28,-515.65"/>
<polygon fill="midnightblue" stroke="midnightblue" points="212.81,-518.84 223.28,-520.44 216.1,-512.66 212.81,-518.84"/>
</g>
<!-- Node3 -->
<g id="node3" class="node">
<title>Node3</title>
<g id="a_node3"><a xlink:href="gpuNUFFT__fft__tests_8cpp.html#a1267fc514127315f25ad48e26de77b8c" target="_top" xlink:title=" ">
<polygon fill="none" stroke="black" points="262.5,-480.5 262.5,-499.5 305.5,-499.5 305.5,-480.5 262.5,-480.5"/>
<text text-anchor="middle" x="284" y="-487.5" font-family="FreeSans.ttf" font-size="10.00">debug</text>
</a>
</g>
</g>
<!-- Node1&#45;&gt;Node3 -->
<g id="edge2" class="edge">
<title>Node1&#45;&gt;Node3</title>
<path fill="none" stroke="midnightblue" d="M90.14,-289.11C102.37,-326.31 139.17,-422.78 205,-471 218.61,-480.97 236.79,-485.76 252.18,-488.04"/>
<polygon fill="midnightblue" stroke="midnightblue" points="251.95,-491.54 262.29,-489.25 252.78,-484.59 251.95,-491.54"/>
</g>
<!-- Node5 -->
<g id="node5" class="node">
<title>Node5</title>
<g id="a_node5"><a xlink:href="classgpuNUFFT_1_1GpuNUFFTOperator.html#a3c1a8d920315e2659872571adaa4f868" target="_top" xlink:title="Return type of GriddingOperator.">
<polygon fill="none" stroke="black" points="205,-431 205,-461 363,-461 363,-431 205,-431"/>
<text text-anchor="start" x="213" y="-449" font-family="FreeSans.ttf" font-size="10.00">gpuNUFFT::GpuNUFFTOperator</text>
<text text-anchor="middle" x="284" y="-438" font-family="FreeSans.ttf" font-size="10.00">::getType</text>
</a>
</g>
</g>
<!-- Node1&#45;&gt;Node5 -->
<g id="edge4" class="edge">
<title>Node1&#45;&gt;Node5</title>
<path fill="none" stroke="midnightblue" d="M93.86,-289.36C110.85,-319.15 152.31,-385.01 205,-421 207.91,-422.98 210.98,-424.82 214.16,-426.51"/>
<polygon fill="midnightblue" stroke="midnightblue" points="212.83,-429.76 223.36,-430.93 215.86,-423.45 212.83,-429.76"/>
</g>
<!-- Node6 -->
<g id="node6" class="node">
<title>Node6</title>
<g id="a_node6"><a xlink:href="classgpuNUFFT_1_1GpuNUFFTOperator.html#ab63e41179a49929b7ebf3a83f76fada0" target="_top" xlink:title=" ">
<polygon fill="none" stroke="black" points="205,-382 205,-412 363,-412 363,-382 205,-382"/>
<text text-anchor="start" x="213" y="-400" font-family="FreeSans.ttf" font-size="10.00">gpuNUFFT::GpuNUFFTOperator</text>
<text text-anchor="middle" x="284" y="-389" font-family="FreeSans.ttf" font-size="10.00">::is3DProcessing</text>
</a>
</g>
</g>
<!-- Node1&#45;&gt;Node6 -->
<g id="edge5" class="edge">
<title>Node1&#45;&gt;Node6</title>
<path fill="none" stroke="midnightblue" d="M99.98,-289.03C121.2,-310.27 162.82,-349.04 205,-372 208.97,-374.16 213.16,-376.17 217.45,-378.04"/>
<polygon fill="midnightblue" stroke="midnightblue" points="216.38,-381.38 226.96,-381.88 219,-374.89 216.38,-381.38"/>
</g>
<!-- Node8 -->
<g id="node8" class="node">
<title>Node8</title>
<g id="a_node8"><a xlink:href="classgpuNUFFT_1_1GpuNUFFTOperator.html#a5dc3d4ddd0bfe7d8a75721c3ad1dc695" target="_top" xlink:title=" ">
<polygon fill="none" stroke="black" points="205,-333 205,-363 363,-363 363,-333 205,-333"/>
<text text-anchor="start" x="213" y="-351" font-family="FreeSans.ttf" font-size="10.00">gpuNUFFT::GpuNUFFTOperator</text>
<text text-anchor="middle" x="284" y="-340" font-family="FreeSans.ttf" font-size="10.00">::setDataIndices</text>
</a>
</g>
</g>
<!-- Node1&#45;&gt;Node8 -->
<g id="edge7" class="edge">
<title>Node1&#45;&gt;Node8</title>
<path fill="none" stroke="midnightblue" d="M120.25,-289.1C143.94,-299.18 176.14,-312.48 205,-323 211.28,-325.29 217.89,-327.58 224.49,-329.8"/>
<polygon fill="midnightblue" stroke="midnightblue" points="223.52,-333.17 234.12,-332.99 225.72,-326.52 223.52,-333.17"/>
</g>
<!-- Node9 -->
<g id="node9" class="node">
<title>Node9</title>
<g id="a_node9"><a xlink:href="classgpuNUFFT_1_1GpuNUFFTOperator.html#add849e387acb4ce367943ea44927cb5c" target="_top" xlink:title=" ">
<polygon fill="none" stroke="black" points="205,-284 205,-314 363,-314 363,-284 205,-284"/>
<text text-anchor="start" x="213" y="-302" font-family="FreeSans.ttf" font-size="10.00">gpuNUFFT::GpuNUFFTOperator</text>
<text text-anchor="middle" x="284" y="-291" font-family="FreeSans.ttf" font-size="10.00">::setDeapodizationFunction</text>
</a>
</g>
</g>
<!-- Node1&#45;&gt;Node9 -->
<g id="edge8" class="edge">
<title>Node1&#45;&gt;Node9</title>
<path fill="none" stroke="midnightblue" d="M169.26,-284.6C177.72,-285.67 186.33,-286.76 194.84,-287.84"/>
<polygon fill="midnightblue" stroke="midnightblue" points="194.41,-291.31 204.77,-289.1 195.28,-284.37 194.41,-291.31"/>
</g>
<!-- Node10 -->
<g id="node10" class="node">
<title>Node10</title>
<g id="a_node10"><a xlink:href="classgpuNUFFT_1_1GpuNUFFTOperator.html#ae8cae9834116d4cd2e5bb6307cb6205f" target="_top" xlink:title=" ">
<polygon fill="none" stroke="black" points="205,-235 205,-265 363,-265 363,-235 205,-235"/>
<text text-anchor="start" x="213" y="-253" font-family="FreeSans.ttf" font-size="10.00">gpuNUFFT::GpuNUFFTOperator</text>
<text text-anchor="middle" x="284" y="-242" font-family="FreeSans.ttf" font-size="10.00">::setDens</text>
</a>
</g>
</g>
<!-- Node1&#45;&gt;Node10 -->
<g id="edge9" class="edge">
<title>Node1&#45;&gt;Node10</title>
<path fill="none" stroke="midnightblue" d="M169.26,-263.82C177.63,-262.8 186.15,-261.77 194.56,-260.75"/>
<polygon fill="midnightblue" stroke="midnightblue" points="195.26,-264.19 204.77,-259.51 194.42,-257.24 195.26,-264.19"/>
</g>
<!-- Node11 -->
<g id="node11" class="node">
<title>Node11</title>
<g id="a_node11"><a xlink:href="classgpuNUFFT_1_1GpuNUFFTOperator.html#a7b31403334f5722ed8ebb25fcf8e6cbc" target="_top" xlink:title=" ">
<polygon fill="none" stroke="black" points="205,-186 205,-216 363,-216 363,-186 205,-186"/>
<text text-anchor="start" x="213" y="-204" font-family="FreeSans.ttf" font-size="10.00">gpuNUFFT::GpuNUFFTOperator</text>
<text text-anchor="middle" x="284" y="-193" font-family="FreeSans.ttf" font-size="10.00">::setKSpaceTraj</text>
</a>
</g>
</g>
<!-- Node1&#45;&gt;Node11 -->
<g id="edge10" class="edge">
<title>Node1&#45;&gt;Node11</title>
<path fill="none" stroke="midnightblue" d="M119.95,-258.9C143.65,-248.76 175.97,-235.39 205,-225 210.47,-223.04 216.19,-221.1 221.93,-219.21"/>
<polygon fill="midnightblue" stroke="midnightblue" points="223.15,-222.49 231.59,-216.09 221,-215.83 223.15,-222.49"/>
</g>
<!-- Node12 -->
<g id="node12" class="node">
<title>Node12</title>
<g id="a_node12"><a xlink:href="classgpuNUFFT_1_1GpuNUFFTOperator.html#aa1eab38f22cc6c6038a40b3e3d029c7e" target="_top" xlink:title=" ">
<polygon fill="none" stroke="black" points="205,-137 205,-167 363,-167 363,-137 205,-137"/>
<text text-anchor="start" x="213" y="-155" font-family="FreeSans.ttf" font-size="10.00">gpuNUFFT::GpuNUFFTOperator</text>
<text text-anchor="middle" x="284" y="-144" font-family="FreeSans.ttf" font-size="10.00">::setSectorCenters</text>
</a>
</g>
</g>
<!-- Node1&#45;&gt;Node12 -->
<g id="edge11" class="edge">
<title>Node1&#45;&gt;Node12</title>
<path fill="none" stroke="midnightblue" d="M99.95,-258.9C121.12,-237.58 162.68,-198.72 205,-176 208.32,-174.22 211.78,-172.55 215.34,-170.99"/>
<polygon fill="midnightblue" stroke="midnightblue" points="216.95,-174.11 224.89,-167.1 214.31,-167.63 216.95,-174.11"/>
</g>
<!-- Node13 -->
<g id="node13" class="node">
<title>Node13</title>
<g id="a_node13"><a xlink:href="classgpuNUFFT_1_1GpuNUFFTOperator.html#a3e73693f0e4985e3c40dcdd8b0a76f40" target="_top" xlink:title=" ">
<polygon fill="none" stroke="black" points="205,-88 205,-118 363,-118 363,-88 205,-88"/>
<text text-anchor="start" x="213" y="-106" font-family="FreeSans.ttf" font-size="10.00">gpuNUFFT::GpuNUFFTOperator</text>
<text text-anchor="middle" x="284" y="-95" font-family="FreeSans.ttf" font-size="10.00">::setSectorDataCount</text>
</a>
</g>
</g>
<!-- Node1&#45;&gt;Node13 -->
<g id="edge12" class="edge">
<title>Node1&#45;&gt;Node13</title>
<path fill="none" stroke="midnightblue" d="M93.82,-258.59C110.75,-228.7 152.1,-162.68 205,-127 207.29,-125.46 209.68,-124.01 212.15,-122.65"/>
<polygon fill="midnightblue" stroke="midnightblue" points="213.93,-125.68 221.35,-118.12 210.83,-119.4 213.93,-125.68"/>
</g>
<!-- Node14 -->
<g id="node14" class="node">
<title>Node14</title>
<g id="a_node14"><a xlink:href="classgpuNUFFT_1_1GpuNUFFTOperator.html#adbc6f59fc4a4998a4ad5bb65c38b1f03" target="_top" xlink:title=" ">
<polygon fill="none" stroke="black" points="205,-39 205,-69 363,-69 363,-39 205,-39"/>
<text text-anchor="start" x="213" y="-57" font-family="FreeSans.ttf" font-size="10.00">gpuNUFFT::GpuNUFFTOperator</text>
<text text-anchor="middle" x="284" y="-46" font-family="FreeSans.ttf" font-size="10.00">::setSens</text>
</a>
</g>
</g>
<!-- Node1&#45;&gt;Node14 -->
<g id="edge13" class="edge">
<title>Node1&#45;&gt;Node14</title>
<path fill="none" stroke="midnightblue" d="M90.44,-258.93C103.23,-222.27 140.97,-127.78 205,-78 206.77,-76.62 208.62,-75.32 210.54,-74.1"/>
<polygon fill="midnightblue" stroke="midnightblue" points="212.28,-77.14 219.28,-69.19 208.85,-71.03 212.28,-77.14"/>
</g>
<!-- Node15 -->
<g id="node15" class="node">
<title>Node15</title>
<g id="a_node15"><a xlink:href="precomp__kernels_8hpp.html#a8165fe02713e46634cc9f90ea16d35ac" target="_top" xlink:title="Select arrays by sort order previously computed.">
<polygon fill="none" stroke="black" points="253.5,-0.5 253.5,-19.5 314.5,-19.5 314.5,-0.5 253.5,-0.5"/>
<text text-anchor="middle" x="284" y="-7.5" font-family="FreeSans.ttf" font-size="10.00">sortArrays</text>
</a>
</g>
</g>
<!-- Node1&#45;&gt;Node15 -->
<g id="edge14" class="edge">
<title>Node1&#45;&gt;Node15</title>
<path fill="none" stroke="midnightblue" d="M88.25,-258.84C96.92,-215.67 127.78,-91.18 205,-29 215.81,-20.29 230.02,-15.48 243.34,-12.86"/>
<polygon fill="midnightblue" stroke="midnightblue" points="243.98,-16.3 253.29,-11.25 242.86,-9.39 243.98,-16.3"/>
</g>
<!-- Node4 -->
<g id="node4" class="node">
<title>Node4</title>
<g id="a_node4"><a xlink:href="precomp__utils_8hpp.html#abe84080342fe3565651b846659b1faba" target="_top" xlink:title="Compute linear index from 3&#45;d point in grid defined by dim.">
<polygon fill="none" stroke="black" points="432,-480.5 432,-499.5 524,-499.5 524,-480.5 432,-480.5"/>
<text text-anchor="middle" x="478" y="-487.5" font-family="FreeSans.ttf" font-size="10.00">computeXYZ2Lin</text>
</a>
</g>
</g>
<!-- Node3&#45;&gt;Node4 -->
<g id="edge3" class="edge">
<title>Node3&#45;&gt;Node4</title>
<path fill="none" stroke="midnightblue" d="M305.55,-490C333.08,-490 382.97,-490 421.86,-490"/>
<polygon fill="midnightblue" stroke="midnightblue" points="422,-493.5 432,-490 422,-486.5 422,-493.5"/>
</g>
<!-- Node7 -->
<g id="node7" class="node">
<title>Node7</title>
<g id="a_node7"><a xlink:href="classgpuNUFFT_1_1GpuNUFFTOperator.html#a635c1cf91573264cafb1f3df27fdf976" target="_top" xlink:title=" ">
<polygon fill="none" stroke="black" points="399,-382 399,-412 557,-412 557,-382 399,-382"/>
<text text-anchor="start" x="407" y="-400" font-family="FreeSans.ttf" font-size="10.00">gpuNUFFT::GpuNUFFTOperator</text>
<text text-anchor="middle" x="478" y="-389" font-family="FreeSans.ttf" font-size="10.00">::is2DProcessing</text>
</a>
</g>
</g>
<!-- Node6&#45;&gt;Node7 -->
<g id="edge6" class="edge">
<title>Node6&#45;&gt;Node7</title>
<path fill="none" stroke="midnightblue" d="M363.09,-397C371.6,-397 380.3,-397 388.92,-397"/>
<polygon fill="midnightblue" stroke="midnightblue" points="388.98,-400.5 398.98,-397 388.98,-393.5 388.98,-400.5"/>
</g>
</g>
</svg>
