<?xml version="1.0" encoding="UTF-8" standalone="no"?>
<!DOCTYPE svg PUBLIC "-//W3C//DTD SVG 1.1//EN"
 "http://www.w3.org/Graphics/SVG/1.1/DTD/svg11.dtd">
<!-- Generated by graphviz version 2.49.3 (20211027.1534)
 -->
<!-- Title: gpuNUFFT::GpuNUFFTOperatorFactory::assignSectors Pages: 1 -->
<svg width="517pt" height="252pt"
 viewBox="0.00 0.00 517.00 251.50" xmlns="http://www.w3.org/2000/svg" xmlns:xlink="http://www.w3.org/1999/xlink">
<g id="graph0" class="graph" transform="scale(1 1) rotate(0) translate(4 247.5)">
<title>gpuNUFFT::GpuNUFFTOperatorFactory::assignSectors</title>
<!-- Node1 -->
<g id="node1" class="node">
<title>Node1</title>
<g id="a_node1"><a xlink:title="Assign the samples on the k&#45;space trajectory to its corresponding sector.">
<polygon fill="#bfbfbf" stroke="black" points="0,-120.5 0,-150.5 158,-150.5 158,-120.5 0,-120.5"/>
<text text-anchor="start" x="8" y="-138.5" font-family="FreeSans.ttf" font-size="10.00">gpuNUFFT::GpuNUFFTOperator</text>
<text text-anchor="middle" x="79" y="-127.5" font-family="FreeSans.ttf" font-size="10.00">Factory::assignSectors</text>
</a>
</g>
</g>
<!-- Node2 -->
<g id="node2" class="node">
<title>Node2</title>
<g id="a_node2"><a xlink:href="precomp__kernels_8hpp.html#a4003dacd41020a62c76325175c9068d5" target="_top" xlink:title="Perform assign sectors operation on GPU.">
<polygon fill="none" stroke="black" points="222.5,-224 222.5,-243 323.5,-243 323.5,-224 222.5,-224"/>
<text text-anchor="middle" x="273" y="-231" font-family="FreeSans.ttf" font-size="10.00">assignSectorsGPU</text>
</a>
</g>
</g>
<!-- Node1&#45;&gt;Node2 -->
<g id="edge1" class="edge">
<title>Node1&#45;&gt;Node2</title>
<path fill="none" stroke="midnightblue" d="M97.31,-150.57C118.64,-168.39 156.66,-197.72 194,-214.5 199.84,-217.13 206.1,-219.42 212.43,-221.42"/>
<polygon fill="midnightblue" stroke="midnightblue" points="211.82,-224.89 222.4,-224.32 213.78,-218.16 211.82,-224.89"/>
</g>
<!-- Node3 -->
<g id="node3" class="node">
<title>Node3</title>
<g id="a_node3"><a xlink:href="structgpuNUFFT_1_1Array.html#af426f56b5d7e05b6143acbdd51bac188" target="_top" xlink:title=" ">
<polygon fill="none" stroke="black" points="212.5,-186 212.5,-205 333.5,-205 333.5,-186 212.5,-186"/>
<text text-anchor="middle" x="273" y="-193" font-family="FreeSans.ttf" font-size="10.00">gpuNUFFT::Array::count</text>
</a>
</g>
</g>
<!-- Node1&#45;&gt;Node3 -->
<g id="edge2" class="edge">
<title>Node1&#45;&gt;Node3</title>
<path fill="none" stroke="midnightblue" d="M118.7,-150.58C140.61,-158.82 168.62,-168.87 194,-176.5 202.15,-178.95 210.86,-181.32 219.39,-183.49"/>
<polygon fill="midnightblue" stroke="midnightblue" points="218.72,-186.94 229.27,-185.96 220.42,-180.14 218.72,-186.94"/>
</g>
<!-- Node5 -->
<g id="node5" class="node">
<title>Node5</title>
<g id="a_node5"><a xlink:href="gpuNUFFT__fft__tests_8cpp.html#a1267fc514127315f25ad48e26de77b8c" target="_top" xlink:title=" ">
<polygon fill="none" stroke="black" points="251.5,-148 251.5,-167 294.5,-167 294.5,-148 251.5,-148"/>
<text text-anchor="middle" x="273" y="-155" font-family="FreeSans.ttf" font-size="10.00">debug</text>
</a>
</g>
</g>
<!-- Node1&#45;&gt;Node5 -->
<g id="edge4" class="edge">
<title>Node1&#45;&gt;Node5</title>
<path fill="none" stroke="midnightblue" d="M158.09,-144.45C187.31,-147.8 218.82,-151.41 241.28,-153.98"/>
<polygon fill="midnightblue" stroke="midnightblue" points="240.89,-157.46 251.22,-155.12 241.69,-150.5 240.89,-157.46"/>
</g>
<!-- Node7 -->
<g id="node7" class="node">
<title>Node7</title>
<g id="a_node7"><a xlink:href="classgpuNUFFT_1_1GpuNUFFTOperator.html#a9d1a701e1bb5e75b3264f77aa597238b" target="_top" xlink:title=" ">
<polygon fill="none" stroke="black" points="194,-98.5 194,-128.5 352,-128.5 352,-98.5 194,-98.5"/>
<text text-anchor="start" x="202" y="-116.5" font-family="FreeSans.ttf" font-size="10.00">gpuNUFFT::GpuNUFFTOperator</text>
<text text-anchor="middle" x="273" y="-105.5" font-family="FreeSans.ttf" font-size="10.00">::getGridDims</text>
</a>
</g>
</g>
<!-- Node1&#45;&gt;Node7 -->
<g id="edge6" class="edge">
<title>Node1&#45;&gt;Node7</title>
<path fill="none" stroke="midnightblue" d="M158.09,-126.55C166.6,-125.58 175.3,-124.58 183.92,-123.59"/>
<polygon fill="midnightblue" stroke="midnightblue" points="184.44,-127.06 193.98,-122.44 183.64,-120.1 184.44,-127.06"/>
</g>
<!-- Node8 -->
<g id="node8" class="node">
<title>Node8</title>
<g id="a_node8"><a xlink:href="classgpuNUFFT_1_1GpuNUFFTOperator.html#a26762c7cb13205226b6f77c37a57d8a9" target="_top" xlink:title=" ">
<polygon fill="none" stroke="black" points="194,-49.5 194,-79.5 352,-79.5 352,-49.5 194,-49.5"/>
<text text-anchor="start" x="202" y="-67.5" font-family="FreeSans.ttf" font-size="10.00">gpuNUFFT::GpuNUFFTOperator</text>
<text text-anchor="middle" x="273" y="-56.5" font-family="FreeSans.ttf" font-size="10.00">::getSectorWidth</text>
</a>
</g>
</g>
<!-- Node1&#45;&gt;Node8 -->
<g id="edge7" class="edge">
<title>Node1&#45;&gt;Node8</title>
<path fill="none" stroke="midnightblue" d="M114.1,-120.47C136.59,-110.8 166.8,-98.27 194,-88.5 199.47,-86.54 205.18,-84.59 210.93,-82.7"/>
<polygon fill="midnightblue" stroke="midnightblue" points="212.15,-85.98 220.59,-79.58 210,-79.32 212.15,-85.98"/>
</g>
<!-- Node9 -->
<g id="node9" class="node">
<title>Node9</title>
<g id="a_node9"><a xlink:href="classgpuNUFFT_1_1GpuNUFFTOperator.html#a6ee83e8e5f1afd1c7d7d4dc765e78b79" target="_top" xlink:title=" ">
<polygon fill="none" stroke="black" points="194,-0.5 194,-30.5 352,-30.5 352,-0.5 194,-0.5"/>
<text text-anchor="start" x="202" y="-18.5" font-family="FreeSans.ttf" font-size="10.00">gpuNUFFT::GpuNUFFTOperator</text>
<text text-anchor="middle" x="273" y="-7.5" font-family="FreeSans.ttf" font-size="10.00">::setGridSectorDims</text>
</a>
</g>
</g>
<!-- Node1&#45;&gt;Node9 -->
<g id="edge8" class="edge">
<title>Node1&#45;&gt;Node9</title>
<path fill="none" stroke="midnightblue" d="M94.04,-120.33C114.24,-99.35 153.56,-61.55 194,-39.5 197.3,-37.7 200.76,-36.01 204.31,-34.44"/>
<polygon fill="midnightblue" stroke="midnightblue" points="205.92,-37.56 213.85,-30.52 203.27,-31.08 205.92,-37.56"/>
</g>
<!-- Node4 -->
<g id="node4" class="node">
<title>Node4</title>
<g id="a_node4"><a xlink:href="structgpuNUFFT_1_1Dimensions.html#a4c589934c5444910fbcd890d128229c9" target="_top" xlink:title="Compute total count of array length.">
<polygon fill="none" stroke="black" points="388,-183.5 388,-213.5 509,-213.5 509,-183.5 388,-183.5"/>
<text text-anchor="start" x="396" y="-201.5" font-family="FreeSans.ttf" font-size="10.00">gpuNUFFT::Dimensions</text>
<text text-anchor="middle" x="448.5" y="-190.5" font-family="FreeSans.ttf" font-size="10.00">::count</text>
</a>
</g>
</g>
<!-- Node3&#45;&gt;Node4 -->
<g id="edge3" class="edge">
<title>Node3&#45;&gt;Node4</title>
<path fill="none" stroke="midnightblue" d="M333.71,-196.53C347.96,-196.78 363.3,-197.04 377.96,-197.3"/>
<polygon fill="midnightblue" stroke="midnightblue" points="377.92,-200.8 387.98,-197.47 378.04,-193.8 377.92,-200.8"/>
</g>
<!-- Node6 -->
<g id="node6" class="node">
<title>Node6</title>
<g id="a_node6"><a xlink:href="precomp__utils_8hpp.html#abe84080342fe3565651b846659b1faba" target="_top" xlink:title="Compute linear index from 3&#45;d point in grid defined by dim.">
<polygon fill="none" stroke="black" points="402.5,-145 402.5,-164 494.5,-164 494.5,-145 402.5,-145"/>
<text text-anchor="middle" x="448.5" y="-152" font-family="FreeSans.ttf" font-size="10.00">computeXYZ2Lin</text>
</a>
</g>
</g>
<!-- Node5&#45;&gt;Node6 -->
<g id="edge5" class="edge">
<title>Node5&#45;&gt;Node6</title>
<path fill="none" stroke="midnightblue" d="M294.58,-157.14C318.5,-156.73 358.93,-156.03 392.22,-155.46"/>
<polygon fill="midnightblue" stroke="midnightblue" points="392.36,-158.95 402.29,-155.28 392.23,-151.96 392.36,-158.95"/>
</g>
</g>
</svg>
