<?xml version="1.0" encoding="UTF-8" standalone="no"?>
<!DOCTYPE svg PUBLIC "-//W3C//DTD SVG 1.1//EN"
 "http://www.w3.org/Graphics/SVG/1.1/DTD/svg11.dtd">
<!-- Generated by graphviz version 2.49.3 (20211027.1534)
 -->
<!-- Title: gpuNUFFT::GpuNUFFTOperator::performGpuNUFFTAdj Pages: 1 -->
<svg width="558pt" height="323pt"
 viewBox="0.00 0.00 558.00 322.50" xmlns="http://www.w3.org/2000/svg" xmlns:xlink="http://www.w3.org/1999/xlink">
<g id="graph0" class="graph" transform="scale(1 1) rotate(0) translate(4 318.5)">
<title>gpuNUFFT::GpuNUFFTOperator::performGpuNUFFTAdj</title>
<!-- Node1 -->
<g id="node1" class="node">
<title>Node1</title>
<g id="a_node1"><a xlink:title="Perform Adjoint gridding operation on given kspaceData.">
<polygon fill="#bfbfbf" stroke="black" points="392,-137 392,-167 550,-167 550,-137 392,-137"/>
<text text-anchor="start" x="400" y="-155" font-family="FreeSans.ttf" font-size="10.00">gpuNUFFT::GpuNUFFTOperator</text>
<text text-anchor="middle" x="471" y="-144" font-family="FreeSans.ttf" font-size="10.00">::performGpuNUFFTAdj</text>
</a>
</g>
</g>
<!-- Node2 -->
<g id="node2" class="node">
<title>Node2</title>
<g id="a_node2"><a xlink:href="classGpuNUFFTPythonOperator.html#a9d5913daa75877d952160c6e126bbe07" target="_top" xlink:title=" ">
<polygon fill="none" stroke="black" points="184.5,-284 184.5,-314 319.5,-314 319.5,-284 184.5,-284"/>
<text text-anchor="start" x="192.5" y="-302" font-family="FreeSans.ttf" font-size="10.00">GpuNUFFTPythonOperator</text>
<text text-anchor="middle" x="252" y="-291" font-family="FreeSans.ttf" font-size="10.00">::adj_op</text>
</a>
</g>
</g>
<!-- Node1&#45;&gt;Node2 -->
<g id="edge1" class="edge">
<title>Node1&#45;&gt;Node2</title>
<path fill="none" stroke="midnightblue" d="M454.73,-175.63C435.26,-203.76 398.94,-250.06 356,-275 344.89,-281.45 332.15,-286.17 319.51,-289.62"/>
<polygon fill="midnightblue" stroke="midnightblue" points="457.73,-177.43 460.44,-167.19 451.94,-173.51 457.73,-177.43"/>
</g>
<!-- Node4 -->
<g id="node4" class="node">
<title>Node4</title>
<g id="a_node4"><a xlink:href="classgpuNUFFT_1_1GpuNUFFTOperatorFactory.html#a82e185db6eda1edb359df5a580be7b37" target="_top" xlink:title="Computation of the deapodization function.">
<polygon fill="none" stroke="black" points="157.5,-235 157.5,-265 346.5,-265 346.5,-235 157.5,-235"/>
<text text-anchor="start" x="165.5" y="-253" font-family="FreeSans.ttf" font-size="10.00">gpuNUFFT::GpuNUFFTOperator</text>
<text text-anchor="middle" x="252" y="-242" font-family="FreeSans.ttf" font-size="10.00">Factory::computeDeapodizationFunction</text>
</a>
</g>
</g>
<!-- Node1&#45;&gt;Node4 -->
<g id="edge3" class="edge">
<title>Node1&#45;&gt;Node4</title>
<path fill="none" stroke="midnightblue" d="M443.15,-173.29C420.96,-189.9 388.01,-212.38 356,-226 347.97,-229.42 339.38,-232.39 330.71,-234.97"/>
<polygon fill="midnightblue" stroke="midnightblue" points="445.55,-175.86 451.39,-167.02 441.31,-170.29 445.55,-175.86"/>
</g>
<!-- Node5 -->
<g id="node5" class="node">
<title>Node5</title>
<g id="a_node5"><a xlink:href="classGpuNUFFTPythonOperator.html#a564644dc7ea9b8306cd6296ea6f1fca6" target="_top" xlink:title=" ">
<polygon fill="none" stroke="black" points="184.5,-186 184.5,-216 319.5,-216 319.5,-186 184.5,-186"/>
<text text-anchor="start" x="192.5" y="-204" font-family="FreeSans.ttf" font-size="10.00">GpuNUFFTPythonOperator</text>
<text text-anchor="middle" x="252" y="-193" font-family="FreeSans.ttf" font-size="10.00">::data_consistency</text>
</a>
</g>
</g>
<!-- Node1&#45;&gt;Node5 -->
<g id="edge4" class="edge">
<title>Node1&#45;&gt;Node5</title>
<path fill="none" stroke="midnightblue" d="M393.57,-169.26C369.39,-174.72 342.88,-180.71 319.46,-185.99"/>
<polygon fill="midnightblue" stroke="midnightblue" points="394.43,-172.65 403.42,-167.03 392.89,-165.82 394.43,-172.65"/>
</g>
<!-- Node6 -->
<g id="node6" class="node">
<title>Node6</title>
<g id="a_node6"><a xlink:href="classGpuNUFFTPythonOperator.html#aee99f5b7d79d7a40c4a2475c9a439c59" target="_top" xlink:title=" ">
<polygon fill="none" stroke="black" points="184.5,-137 184.5,-167 319.5,-167 319.5,-137 184.5,-137"/>
<text text-anchor="start" x="192.5" y="-155" font-family="FreeSans.ttf" font-size="10.00">GpuNUFFTPythonOperator</text>
<text text-anchor="middle" x="252" y="-144" font-family="FreeSans.ttf" font-size="10.00">::estimate_density_comp</text>
</a>
</g>
</g>
<!-- Node1&#45;&gt;Node6 -->
<g id="edge6" class="edge">
<title>Node1&#45;&gt;Node6</title>
<path fill="none" stroke="midnightblue" d="M381.86,-152C361.07,-152 339.25,-152 319.6,-152"/>
<polygon fill="midnightblue" stroke="midnightblue" points="381.96,-155.5 391.96,-152 381.96,-148.5 381.96,-155.5"/>
</g>
<!-- Node7 -->
<g id="node7" class="node">
<title>Node7</title>
<g id="a_node7"><a xlink:href="classgpuNUFFT_1_1BalancedGpuNUFFTOperator.html#ada71d183719d9375226352e90ff22194" target="_top" xlink:title="Perform Adjoint gridding operation on given kspaceData.">
<polygon fill="none" stroke="black" points="152.5,-88 152.5,-118 351.5,-118 351.5,-88 152.5,-88"/>
<text text-anchor="start" x="160.5" y="-106" font-family="FreeSans.ttf" font-size="10.00">gpuNUFFT::BalancedGpuNUFFTOperator</text>
<text text-anchor="middle" x="252" y="-95" font-family="FreeSans.ttf" font-size="10.00">::performGpuNUFFTAdj</text>
</a>
</g>
</g>
<!-- Node1&#45;&gt;Node7 -->
<g id="edge8" class="edge">
<title>Node1&#45;&gt;Node7</title>
<path fill="none" stroke="midnightblue" d="M393.57,-134.74C369.39,-129.28 342.88,-123.29 319.46,-118.01"/>
<polygon fill="midnightblue" stroke="midnightblue" points="392.89,-138.18 403.42,-136.97 394.43,-131.35 392.89,-138.18"/>
</g>
<!-- Node8 -->
<g id="node8" class="node">
<title>Node8</title>
<g id="a_node8"><a xlink:href="classgpuNUFFT_1_1BalancedTextureGpuNUFFTOperator.html#a1bbc427b1d73850b6025eb52b417174b" target="_top" xlink:title="Perform Adjoint gridding operation on given kspaceData.">
<polygon fill="none" stroke="black" points="148,-39 148,-69 356,-69 356,-39 148,-39"/>
<text text-anchor="start" x="156" y="-57" font-family="FreeSans.ttf" font-size="10.00">gpuNUFFT::BalancedTexture</text>
<text text-anchor="middle" x="252" y="-46" font-family="FreeSans.ttf" font-size="10.00">GpuNUFFTOperator::performGpuNUFFTAdj</text>
</a>
</g>
</g>
<!-- Node1&#45;&gt;Node8 -->
<g id="edge9" class="edge">
<title>Node1&#45;&gt;Node8</title>
<path fill="none" stroke="midnightblue" d="M442.67,-130.8C420.44,-114.49 387.67,-92.53 356,-79 347.12,-75.2 337.54,-71.91 327.94,-69.08"/>
<polygon fill="midnightblue" stroke="midnightblue" points="440.83,-133.79 450.94,-136.96 445.01,-128.18 440.83,-133.79"/>
</g>
<!-- Node9 -->
<g id="node9" class="node">
<title>Node9</title>
<g id="a_node9"><a xlink:href="gpuNUFFT__2D__conv__tests_8cpp.html#aaa68ca62ef9f76180f0da723f0da1dfb" target="_top" xlink:title=" ">
<polygon fill="none" stroke="black" points="231.5,-0.5 231.5,-19.5 272.5,-19.5 272.5,-0.5 231.5,-0.5"/>
<text text-anchor="middle" x="252" y="-7.5" font-family="FreeSans.ttf" font-size="10.00">TEST</text>
</a>
</g>
</g>
<!-- Node1&#45;&gt;Node9 -->
<g id="edge10" class="edge">
<title>Node1&#45;&gt;Node9</title>
<path fill="none" stroke="midnightblue" d="M454.83,-128.3C435.47,-100.13 399.25,-53.94 356,-30 329.7,-15.44 294.52,-11.34 272.82,-10.27"/>
<polygon fill="midnightblue" stroke="midnightblue" points="452.03,-130.41 460.51,-136.76 457.84,-126.5 452.03,-130.41"/>
</g>
<!-- Node3 -->
<g id="node3" class="node">
<title>Node3</title>
<g id="a_node3"><a xlink:href="python__bindings_8cpp.html#ad1a7eaf0d60c015a4df3da44ddf58e27" target="_top" xlink:title=" ">
<polygon fill="none" stroke="black" points="0,-191.5 0,-210.5 112,-210.5 112,-191.5 0,-191.5"/>
<text text-anchor="middle" x="56" y="-198.5" font-family="FreeSans.ttf" font-size="10.00">PYBIND11_MODULE</text>
</a>
</g>
</g>
<!-- Node2&#45;&gt;Node3 -->
<g id="edge2" class="edge">
<title>Node2&#45;&gt;Node3</title>
<path fill="none" stroke="midnightblue" d="M174.72,-285.38C165.5,-282.53 156.38,-279.11 148,-275 113.81,-258.24 81.01,-226.48 65.82,-210.58"/>
<polygon fill="midnightblue" stroke="midnightblue" points="173.77,-288.75 184.35,-288.15 175.71,-282.02 173.77,-288.75"/>
</g>
<!-- Node5&#45;&gt;Node3 -->
<g id="edge5" class="edge">
<title>Node5&#45;&gt;Node3</title>
<path fill="none" stroke="midnightblue" d="M174.2,-201C153.52,-201 131.55,-201 112.3,-201"/>
<polygon fill="midnightblue" stroke="midnightblue" points="174.24,-204.5 184.24,-201 174.24,-197.5 174.24,-204.5"/>
</g>
<!-- Node6&#45;&gt;Node3 -->
<g id="edge7" class="edge">
<title>Node6&#45;&gt;Node3</title>
<path fill="none" stroke="midnightblue" d="M178.54,-169.4C168.28,-171.92 157.87,-174.5 148,-177 129.63,-181.65 109.22,-187.02 92.39,-191.49"/>
<polygon fill="midnightblue" stroke="midnightblue" points="179.43,-172.78 188.31,-167.01 177.77,-165.98 179.43,-172.78"/>
</g>
</g>
</svg>
