<?xml version="1.0" encoding="UTF-8" standalone="no"?>
<!DOCTYPE svg PUBLIC "-//W3C//DTD SVG 1.1//EN"
 "http://www.w3.org/Graphics/SVG/1.1/DTD/svg11.dtd">
<!-- Generated by graphviz version 2.49.3 (20211027.1534)
 -->
<!-- Title: gpuNUFFT::TextureGpuNUFFTOperator::forwardConvolution Pages: 1 -->
<svg width="403pt" height="104pt"
 viewBox="0.00 0.00 403.00 104.00" xmlns="http://www.w3.org/2000/svg" xmlns:xlink="http://www.w3.org/1999/xlink">
<g id="graph0" class="graph" transform="scale(1 1) rotate(0) translate(4 100)">
<title>gpuNUFFT::TextureGpuNUFFTOperator::forwardConvolution</title>
<!-- Node1 -->
<g id="node1" class="node">
<title>Node1</title>
<g id="a_node1"><a xlink:title="Virtual forward convolution call, which can be used by sub&#45;classes to add behaviour to the gridding s...">
<polygon fill="#bfbfbf" stroke="black" points="0,-33 0,-63 191,-63 191,-33 0,-33"/>
<text text-anchor="start" x="8" y="-51" font-family="FreeSans.ttf" font-size="10.00">gpuNUFFT::TextureGpuNUFFTOperator</text>
<text text-anchor="middle" x="95.5" y="-40" font-family="FreeSans.ttf" font-size="10.00">::forwardConvolution</text>
</a>
</g>
</g>
<!-- Node2 -->
<g id="node2" class="node">
<title>Node2</title>
<g id="a_node2"><a xlink:href="cuda__utils_8hpp.html#a46dce0efc9f7cdbb81d0a48b65ce914d" target="_top" xlink:title="Bind to 1&#45;d texture on device.">
<polygon fill="none" stroke="black" points="266,-76.5 266,-95.5 356,-95.5 356,-76.5 266,-76.5"/>
<text text-anchor="middle" x="311" y="-83.5" font-family="FreeSans.ttf" font-size="10.00">bindTo1DTexture</text>
</a>
</g>
</g>
<!-- Node1&#45;&gt;Node2 -->
<g id="edge1" class="edge">
<title>Node1&#45;&gt;Node2</title>
<path fill="none" stroke="midnightblue" d="M180.88,-63.02C206.05,-67.5 232.95,-72.29 255.65,-76.33"/>
<polygon fill="midnightblue" stroke="midnightblue" points="255.31,-79.82 265.77,-78.13 256.53,-72.93 255.31,-79.82"/>
</g>
<!-- Node3 -->
<g id="node3" class="node">
<title>Node3</title>
<g id="a_node3"><a xlink:href="gpuNUFFT__kernels_8hpp.html#a2fd6b03e67db18a41056c4f7986382f4" target="_top" xlink:title="Forward gridding convolution implementation on GPU using textures .">
<polygon fill="none" stroke="black" points="227,-38.5 227,-57.5 395,-57.5 395,-38.5 227,-38.5"/>
<text text-anchor="middle" x="311" y="-45.5" font-family="FreeSans.ttf" font-size="10.00">performTextureForwardConvolution</text>
</a>
</g>
</g>
<!-- Node1&#45;&gt;Node3 -->
<g id="edge2" class="edge">
<title>Node1&#45;&gt;Node3</title>
<path fill="none" stroke="midnightblue" d="M191.08,-48C199.56,-48 208.15,-48 216.62,-48"/>
<polygon fill="midnightblue" stroke="midnightblue" points="216.89,-51.5 226.89,-48 216.89,-44.5 216.89,-51.5"/>
</g>
<!-- Node4 -->
<g id="node4" class="node">
<title>Node4</title>
<g id="a_node4"><a xlink:href="cuda__utils_8hpp.html#ab4541b0102691624bd5e29777536f1d5" target="_top" xlink:title="Unbind from device texture.">
<polygon fill="none" stroke="black" points="272.5,-0.5 272.5,-19.5 349.5,-19.5 349.5,-0.5 272.5,-0.5"/>
<text text-anchor="middle" x="311" y="-7.5" font-family="FreeSans.ttf" font-size="10.00">unbindTexture</text>
</a>
</g>
</g>
<!-- Node1&#45;&gt;Node4 -->
<g id="edge3" class="edge">
<title>Node1&#45;&gt;Node4</title>
<path fill="none" stroke="midnightblue" d="M180.88,-32.98C208.62,-28.04 238.47,-22.73 262.48,-18.46"/>
<polygon fill="midnightblue" stroke="midnightblue" points="263.15,-21.89 272.38,-16.7 261.92,-15 263.15,-21.89"/>
</g>
</g>
</svg>
