<?xml version="1.0" encoding="UTF-8" standalone="no"?>
<!DOCTYPE svg PUBLIC "-//W3C//DTD SVG 1.1//EN"
 "http://www.w3.org/Graphics/SVG/1.1/DTD/svg11.dtd">
<!-- Generated by graphviz version 2.49.3 (20211027.1534)
 -->
<!-- Title: gpuNUFFT::TextureGpuNUFFTOperator Pages: 1 -->
<svg width="284pt" height="174pt"
 viewBox="0.00 0.00 284.00 174.00" xmlns="http://www.w3.org/2000/svg" xmlns:xlink="http://www.w3.org/1999/xlink">
<g id="graph0" class="graph" transform="scale(1 1) rotate(0) translate(4 170)">
<title>gpuNUFFT::TextureGpuNUFFTOperator</title>
<!-- Node1 -->
<g id="node1" class="node">
<title>Node1</title>
<g id="a_node1"><a xlink:title="GpuNUFFTOperator with texture memory lookup.">
<polygon fill="#bfbfbf" stroke="black" points="38,-0.5 38,-19.5 229,-19.5 229,-0.5 38,-0.5"/>
<text text-anchor="middle" x="133.5" y="-7.5" font-family="FreeSans.ttf" font-size="10.00">gpuNUFFT::TextureGpuNUFFTOperator</text>
</a>
</g>
</g>
<!-- Node2 -->
<g id="node2" class="node">
<title>Node2</title>
<g id="a_node2"><a xlink:href="classgpuNUFFT_1_1GpuNUFFTOperator.html" target="_top" xlink:title="Main &quot;Operator&quot; used for gridding operations.">
<polygon fill="none" stroke="black" points="54.5,-57.5 54.5,-76.5 212.5,-76.5 212.5,-57.5 54.5,-57.5"/>
<text text-anchor="middle" x="133.5" y="-64.5" font-family="FreeSans.ttf" font-size="10.00">gpuNUFFT::GpuNUFFTOperator</text>
</a>
</g>
</g>
<!-- Node2&#45;&gt;Node1 -->
<g id="edge1" class="edge">
<title>Node2&#45;&gt;Node1</title>
<path fill="none" stroke="midnightblue" d="M133.5,-47.12C133.5,-37.82 133.5,-27.06 133.5,-19.71"/>
<polygon fill="midnightblue" stroke="midnightblue" points="130,-47.41 133.5,-57.41 137,-47.41 130,-47.41"/>
</g>
<!-- Node3 -->
<g id="node3" class="node">
<title>Node3</title>
<g id="a_node3"><a xlink:href="structgpuNUFFT_1_1Dimensions.html" target="_top" xlink:title="Data dimension struct.">
<polygon fill="none" stroke="black" points="0,-146.5 0,-165.5 121,-165.5 121,-146.5 0,-146.5"/>
<text text-anchor="middle" x="60.5" y="-153.5" font-family="FreeSans.ttf" font-size="10.00">gpuNUFFT::Dimensions</text>
</a>
</g>
</g>
<!-- Node3&#45;&gt;Node2 -->
<g id="edge2" class="edge">
<title>Node3&#45;&gt;Node2</title>
<path fill="none" stroke="#9a32cd" stroke-dasharray="5,2" d="M74.56,-138.24C90.02,-119.82 114.26,-90.93 126.26,-76.62"/>
<polygon fill="#9a32cd" stroke="#9a32cd" points="71.51,-136.43 67.77,-146.34 76.88,-140.93 71.51,-136.43"/>
<text text-anchor="middle" x="145.5" y="-120" font-family="FreeSans.ttf" font-size="10.00"> gridSectorDims</text>
<text text-anchor="middle" x="145.5" y="-109" font-family="FreeSans.ttf" font-size="10.00">imgDims</text>
<text text-anchor="middle" x="145.5" y="-98" font-family="FreeSans.ttf" font-size="10.00">sectorDims</text>
</g>
<!-- Node4 -->
<g id="node4" class="node">
<title>Node4</title>
<g id="a_node4"><a xlink:href="structgpuNUFFT_1_1GpuNUFFTInfo.html" target="_top" xlink:title="Struct containing meta information of the current Gridding Problem. Used in most GPU operations.">
<polygon fill="none" stroke="black" points="139,-146.5 139,-165.5 276,-165.5 276,-146.5 139,-146.5"/>
<text text-anchor="middle" x="207.5" y="-153.5" font-family="FreeSans.ttf" font-size="10.00">gpuNUFFT::GpuNUFFTInfo</text>
</a>
</g>
</g>
<!-- Node4&#45;&gt;Node2 -->
<g id="edge3" class="edge">
<title>Node4&#45;&gt;Node2</title>
<path fill="none" stroke="#9a32cd" stroke-dasharray="5,2" d="M203.94,-136.19C200.7,-123.35 194.8,-106.63 184.5,-95 177.33,-86.9 167.13,-80.83 157.73,-76.52"/>
<polygon fill="#9a32cd" stroke="#9a32cd" points="200.58,-137.23 206.14,-146.25 207.42,-135.73 200.58,-137.23"/>
<text text-anchor="middle" x="217.5" y="-109" font-family="FreeSans.ttf" font-size="10.00"> gi_host</text>
</g>
</g>
</svg>
