<?xml version="1.0" encoding="UTF-8" standalone="no"?>
<!DOCTYPE svg PUBLIC "-//W3C//DTD SVG 1.1//EN"
 "http://www.w3.org/Graphics/SVG/1.1/DTD/svg11.dtd">
<!-- Generated by graphviz version 2.49.3 (20211027.1534)
 -->
<!-- Title: gpuNUFFT::GpuNUFFTOperatorFactory::createNewGpuNUFFTOperator Pages: 1 -->
<svg width="404pt" height="39pt"
 viewBox="0.00 0.00 404.00 39.00" xmlns="http://www.w3.org/2000/svg" xmlns:xlink="http://www.w3.org/1999/xlink">
<g id="graph0" class="graph" transform="scale(1 1) rotate(0) translate(4 35)">
<title>gpuNUFFT::GpuNUFFTOperatorFactory::createNewGpuNUFFTOperator</title>
<!-- Node1 -->
<g id="node1" class="node">
<title>Node1</title>
<g id="a_node1"><a xlink:title="Method to create a new GpuNUFFTOperator or a sub class depending on the parameters.">
<polygon fill="#bfbfbf" stroke="black" points="0,-0.5 0,-30.5 189,-30.5 189,-0.5 0,-0.5"/>
<text text-anchor="start" x="8" y="-18.5" font-family="FreeSans.ttf" font-size="10.00">gpuNUFFT::GpuNUFFTOperator</text>
<text text-anchor="middle" x="94.5" y="-7.5" font-family="FreeSans.ttf" font-size="10.00">Factory::createNewGpuNUFFTOperator</text>
</a>
</g>
</g>
<!-- Node2 -->
<g id="node2" class="node">
<title>Node2</title>
<g id="a_node2"><a xlink:href="gpuNUFFT__fft__tests_8cpp.html#a1267fc514127315f25ad48e26de77b8c" target="_top" xlink:title=" ">
<polygon fill="none" stroke="black" points="225,-6 225,-25 268,-25 268,-6 225,-6"/>
<text text-anchor="middle" x="246.5" y="-13" font-family="FreeSans.ttf" font-size="10.00">debug</text>
</a>
</g>
</g>
<!-- Node1&#45;&gt;Node2 -->
<g id="edge1" class="edge">
<title>Node1&#45;&gt;Node2</title>
<path fill="none" stroke="midnightblue" d="M189.22,-15.5C198.32,-15.5 207.02,-15.5 214.75,-15.5"/>
<polygon fill="midnightblue" stroke="midnightblue" points="214.96,-19 224.96,-15.5 214.96,-12 214.96,-19"/>
</g>
<!-- Node3 -->
<g id="node3" class="node">
<title>Node3</title>
<g id="a_node3"><a xlink:href="precomp__utils_8hpp.html#abe84080342fe3565651b846659b1faba" target="_top" xlink:title="Compute linear index from 3&#45;d point in grid defined by dim.">
<polygon fill="none" stroke="black" points="304,-6 304,-25 396,-25 396,-6 304,-6"/>
<text text-anchor="middle" x="350" y="-13" font-family="FreeSans.ttf" font-size="10.00">computeXYZ2Lin</text>
</a>
</g>
</g>
<!-- Node2&#45;&gt;Node3 -->
<g id="edge2" class="edge">
<title>Node2&#45;&gt;Node3</title>
<path fill="none" stroke="midnightblue" d="M268.04,-15.5C275.53,-15.5 284.4,-15.5 293.48,-15.5"/>
<polygon fill="midnightblue" stroke="midnightblue" points="293.76,-19 303.76,-15.5 293.76,-12 293.76,-19"/>
</g>
</g>
</svg>
