<?xml version="1.0" encoding="UTF-8" standalone="no"?>
<!DOCTYPE svg PUBLIC "-//W3C//DTD SVG 1.1//EN"
 "http://www.w3.org/Graphics/SVG/1.1/DTD/svg11.dtd">
<!-- Generated by graphviz version 2.49.3 (20211027.1534)
 -->
<!-- Title: gpuNUFFT::GpuNUFFTOperator::performForwardGpuNUFFT Pages: 1 -->
<svg width="549pt" height="323pt"
 viewBox="0.00 0.00 549.00 322.50" xmlns="http://www.w3.org/2000/svg" xmlns:xlink="http://www.w3.org/1999/xlink">
<g id="graph0" class="graph" transform="scale(1 1) rotate(0) translate(4 318.5)">
<title>gpuNUFFT::GpuNUFFTOperator::performForwardGpuNUFFT</title>
<!-- Node1 -->
<g id="node1" class="node">
<title>Node1</title>
<g id="a_node1"><a xlink:title="Perform forward gridding operation on given kspaceData.">
<polygon fill="#bfbfbf" stroke="black" points="383,-142 383,-172 541,-172 541,-142 383,-142"/>
<text text-anchor="start" x="391" y="-160" font-family="FreeSans.ttf" font-size="10.00">gpuNUFFT::GpuNUFFTOperator</text>
<text text-anchor="middle" x="462" y="-149" font-family="FreeSans.ttf" font-size="10.00">::performForwardGpuNUFFT</text>
</a>
</g>
</g>
<!-- Node2 -->
<g id="node2" class="node">
<title>Node2</title>
<g id="a_node2"><a xlink:href="classGpuNUFFTPythonOperator.html#a564644dc7ea9b8306cd6296ea6f1fca6" target="_top" xlink:title=" ">
<polygon fill="none" stroke="black" points="180,-284 180,-314 315,-314 315,-284 180,-284"/>
<text text-anchor="start" x="188" y="-302" font-family="FreeSans.ttf" font-size="10.00">GpuNUFFTPythonOperator</text>
<text text-anchor="middle" x="247.5" y="-291" font-family="FreeSans.ttf" font-size="10.00">::data_consistency</text>
</a>
</g>
</g>
<!-- Node1&#45;&gt;Node2 -->
<g id="edge1" class="edge">
<title>Node1&#45;&gt;Node2</title>
<path fill="none" stroke="midnightblue" d="M444.83,-180.45C424.95,-207.43 388.69,-251.08 347,-275 337.23,-280.61 326.19,-284.91 315.12,-288.21"/>
<polygon fill="midnightblue" stroke="midnightblue" points="447.68,-182.48 450.69,-172.32 442,-178.38 447.68,-182.48"/>
</g>
<!-- Node4 -->
<g id="node4" class="node">
<title>Node4</title>
<g id="a_node4"><a xlink:href="classGpuNUFFTPythonOperator.html#a47e427fafc08d705d834940e1229742f" target="_top" xlink:title="Estimate density Compensation array using gpu&#45;only functions.">
<polygon fill="none" stroke="black" points="180,-235 180,-265 315,-265 315,-235 180,-235"/>
<text text-anchor="start" x="188" y="-253" font-family="FreeSans.ttf" font-size="10.00">GpuNUFFTPythonOperator</text>
<text text-anchor="middle" x="247.5" y="-242" font-family="FreeSans.ttf" font-size="10.00">::estimate_density_comp</text>
</a>
</g>
</g>
<!-- Node1&#45;&gt;Node4 -->
<g id="edge3" class="edge">
<title>Node1&#45;&gt;Node4</title>
<path fill="none" stroke="midnightblue" d="M432.27,-177.8C409.97,-193.07 377.77,-213.29 347,-226 336.91,-230.17 325.94,-233.72 315.09,-236.72"/>
<polygon fill="midnightblue" stroke="midnightblue" points="434.38,-180.59 440.6,-172 430.39,-174.84 434.38,-180.59"/>
</g>
<!-- Node5 -->
<g id="node5" class="node">
<title>Node5</title>
<g id="a_node5"><a xlink:href="classGpuNUFFTPythonOperator.html#a10bcd0d453fef0947c00cb4448398d3b" target="_top" xlink:title="Estimate the spectral radius using gpu&#45;only functions.">
<polygon fill="none" stroke="black" points="180,-186 180,-216 315,-216 315,-186 180,-186"/>
<text text-anchor="start" x="188" y="-204" font-family="FreeSans.ttf" font-size="10.00">GpuNUFFTPythonOperator</text>
<text text-anchor="middle" x="247.5" y="-193" font-family="FreeSans.ttf" font-size="10.00">::get_spectral_radius</text>
</a>
</g>
</g>
<!-- Node1&#45;&gt;Node5 -->
<g id="edge5" class="edge">
<title>Node1&#45;&gt;Node5</title>
<path fill="none" stroke="midnightblue" d="M378.62,-174.06C357.67,-178.39 335.42,-183 315.35,-187.16"/>
<polygon fill="midnightblue" stroke="midnightblue" points="379.38,-177.47 388.46,-172.02 377.96,-170.62 379.38,-177.47"/>
</g>
<!-- Node6 -->
<g id="node6" class="node">
<title>Node6</title>
<g id="a_node6"><a xlink:href="classGpuNUFFTPythonOperator.html#a790d6c1885f30c640064a26f618e64ea" target="_top" xlink:title="Forward operator (Image to kspace)">
<polygon fill="none" stroke="black" points="172.5,-147.5 172.5,-166.5 322.5,-166.5 322.5,-147.5 172.5,-147.5"/>
<text text-anchor="middle" x="247.5" y="-154.5" font-family="FreeSans.ttf" font-size="10.00">GpuNUFFTPythonOperator::op</text>
</a>
</g>
</g>
<!-- Node1&#45;&gt;Node6 -->
<g id="edge7" class="edge">
<title>Node1&#45;&gt;Node6</title>
<path fill="none" stroke="midnightblue" d="M372.54,-157C355.95,-157 338.77,-157 322.67,-157"/>
<polygon fill="midnightblue" stroke="midnightblue" points="372.78,-160.5 382.78,-157 372.78,-153.5 372.78,-160.5"/>
</g>
<!-- Node7 -->
<g id="node7" class="node">
<title>Node7</title>
<g id="a_node7"><a xlink:href="classgpuNUFFT_1_1BalancedGpuNUFFTOperator.html#a3b8fe03dd1e0e8b68eba22e42e1e032b" target="_top" xlink:title="Perform forward gridding operation on given kspaceData.">
<polygon fill="none" stroke="black" points="148,-98 148,-128 347,-128 347,-98 148,-98"/>
<text text-anchor="start" x="156" y="-116" font-family="FreeSans.ttf" font-size="10.00">gpuNUFFT::BalancedGpuNUFFTOperator</text>
<text text-anchor="middle" x="247.5" y="-105" font-family="FreeSans.ttf" font-size="10.00">::performForwardGpuNUFFT</text>
</a>
</g>
</g>
<!-- Node1&#45;&gt;Node7 -->
<g id="edge9" class="edge">
<title>Node1&#45;&gt;Node7</title>
<path fill="none" stroke="midnightblue" d="M378.65,-139.95C359.66,-136.02 339.6,-131.86 321.07,-128.03"/>
<polygon fill="midnightblue" stroke="midnightblue" points="377.96,-143.38 388.46,-141.98 379.38,-136.53 377.96,-143.38"/>
</g>
<!-- Node8 -->
<g id="node8" class="node">
<title>Node8</title>
<g id="a_node8"><a xlink:href="classgpuNUFFT_1_1BalancedTextureGpuNUFFTOperator.html#a8e0514f6dea51134ad49aaeb6c29ac5b" target="_top" xlink:title="Perform forward gridding operation on given kspaceData.">
<polygon fill="none" stroke="black" points="158.5,-38.5 158.5,-79.5 336.5,-79.5 336.5,-38.5 158.5,-38.5"/>
<text text-anchor="start" x="166.5" y="-67.5" font-family="FreeSans.ttf" font-size="10.00">gpuNUFFT::BalancedTexture</text>
<text text-anchor="start" x="166.5" y="-56.5" font-family="FreeSans.ttf" font-size="10.00">GpuNUFFTOperator::performForward</text>
<text text-anchor="middle" x="247.5" y="-45.5" font-family="FreeSans.ttf" font-size="10.00">GpuNUFFT</text>
</a>
</g>
</g>
<!-- Node1&#45;&gt;Node8 -->
<g id="edge10" class="edge">
<title>Node1&#45;&gt;Node8</title>
<path fill="none" stroke="midnightblue" d="M430.76,-136.2C408.39,-121.51 376.77,-102.18 347,-89 339.32,-85.6 331.14,-82.44 322.9,-79.54"/>
<polygon fill="midnightblue" stroke="midnightblue" points="428.89,-139.16 439.15,-141.78 432.76,-133.33 428.89,-139.16"/>
</g>
<!-- Node9 -->
<g id="node9" class="node">
<title>Node9</title>
<g id="a_node9"><a xlink:href="gpuNUFFT__forward__tests_8cpp.html#a6e7e337161ef805951437dbf21112e43" target="_top" xlink:title=" ">
<polygon fill="none" stroke="black" points="227,-0.5 227,-19.5 268,-19.5 268,-0.5 227,-0.5"/>
<text text-anchor="middle" x="247.5" y="-7.5" font-family="FreeSans.ttf" font-size="10.00">TEST</text>
</a>
</g>
</g>
<!-- Node1&#45;&gt;Node9 -->
<g id="edge11" class="edge">
<title>Node1&#45;&gt;Node9</title>
<path fill="none" stroke="midnightblue" d="M446.72,-133.05C427.81,-103.58 391.59,-54.34 347,-29 322.32,-14.97 289.14,-11.1 268.28,-10.15"/>
<polygon fill="midnightblue" stroke="midnightblue" points="443.97,-135.25 452.24,-141.87 449.9,-131.53 443.97,-135.25"/>
</g>
<!-- Node3 -->
<g id="node3" class="node">
<title>Node3</title>
<g id="a_node3"><a xlink:href="python__bindings_8cpp.html#ad1a7eaf0d60c015a4df3da44ddf58e27" target="_top" xlink:title=" ">
<polygon fill="none" stroke="black" points="0,-215.5 0,-234.5 112,-234.5 112,-215.5 0,-215.5"/>
<text text-anchor="middle" x="56" y="-222.5" font-family="FreeSans.ttf" font-size="10.00">PYBIND11_MODULE</text>
</a>
</g>
</g>
<!-- Node2&#45;&gt;Node3 -->
<g id="edge2" class="edge">
<title>Node2&#45;&gt;Node3</title>
<path fill="none" stroke="midnightblue" d="M169.93,-282.46C162.44,-280.21 155.02,-277.73 148,-275 119.6,-263.96 89.04,-245.71 71.55,-234.58"/>
<polygon fill="midnightblue" stroke="midnightblue" points="169.22,-285.9 179.79,-285.28 171.14,-279.17 169.22,-285.9"/>
</g>
<!-- Node4&#45;&gt;Node3 -->
<g id="edge4" class="edge">
<title>Node4&#45;&gt;Node3</title>
<path fill="none" stroke="midnightblue" d="M169.95,-239.9C150.59,-237.35 130.17,-234.65 112.11,-232.27"/>
<polygon fill="midnightblue" stroke="midnightblue" points="169.58,-243.38 179.96,-241.22 170.5,-236.44 169.58,-243.38"/>
</g>
<!-- Node5&#45;&gt;Node3 -->
<g id="edge6" class="edge">
<title>Node5&#45;&gt;Node3</title>
<path fill="none" stroke="midnightblue" d="M169.95,-210.7C150.59,-213.15 130.17,-215.73 112.11,-218.02"/>
<polygon fill="midnightblue" stroke="midnightblue" points="170.47,-214.16 179.96,-209.43 169.6,-207.21 170.47,-214.16"/>
</g>
<!-- Node6&#45;&gt;Node3 -->
<g id="edge8" class="edge">
<title>Node6&#45;&gt;Node3</title>
<path fill="none" stroke="midnightblue" d="M175.77,-168.81C166.32,-171.13 156.84,-173.84 148,-177 119.74,-187.09 89.38,-204.61 71.85,-215.46"/>
<polygon fill="midnightblue" stroke="midnightblue" points="176.64,-172.21 185.59,-166.54 175.06,-165.39 176.64,-172.21"/>
</g>
</g>
</svg>
