<?xml version="1.0" encoding="UTF-8" standalone="no"?>
<!DOCTYPE svg PUBLIC "-//W3C//DTD SVG 1.1//EN"
 "http://www.w3.org/Graphics/SVG/1.1/DTD/svg11.dtd">
<!-- Generated by graphviz version 2.49.3 (20211027.1534)
 -->
<!-- Title: gpuNUFFT::GpuNUFFTOperator::freeLocalMemberArray Pages: 1 -->
<svg width="401pt" height="147pt"
 viewBox="0.00 0.00 401.00 147.00" xmlns="http://www.w3.org/2000/svg" xmlns:xlink="http://www.w3.org/1999/xlink">
<g id="graph0" class="graph" transform="scale(1 1) rotate(0) translate(4 143)">
<title>gpuNUFFT::GpuNUFFTOperator::freeLocalMemberArray</title>
<!-- Node1 -->
<g id="node1" class="node">
<title>Node1</title>
<g id="a_node1"><a xlink:title=" ">
<polygon fill="#bfbfbf" stroke="black" points="235,-54.5 235,-84.5 393,-84.5 393,-54.5 235,-54.5"/>
<text text-anchor="start" x="243" y="-72.5" font-family="FreeSans.ttf" font-size="10.00">gpuNUFFT::GpuNUFFTOperator</text>
<text text-anchor="middle" x="314" y="-61.5" font-family="FreeSans.ttf" font-size="10.00">::freeLocalMemberArray</text>
</a>
</g>
</g>
<!-- Node2 -->
<g id="node2" class="node">
<title>Node2</title>
<g id="a_node2"><a xlink:href="classgpuNUFFT_1_1BalancedGpuNUFFTOperator.html#aec5c288e6008c0ed6e18c06488e8e195" target="_top" xlink:title=" ">
<polygon fill="none" stroke="black" points="0,-108.5 0,-138.5 199,-138.5 199,-108.5 0,-108.5"/>
<text text-anchor="start" x="8" y="-126.5" font-family="FreeSans.ttf" font-size="10.00">gpuNUFFT::BalancedGpuNUFFTOperator</text>
<text text-anchor="middle" x="99.5" y="-115.5" font-family="FreeSans.ttf" font-size="10.00">::~BalancedGpuNUFFTOperator</text>
</a>
</g>
</g>
<!-- Node1&#45;&gt;Node2 -->
<g id="edge1" class="edge">
<title>Node1&#45;&gt;Node2</title>
<path fill="none" stroke="midnightblue" d="M246.7,-87.17C231.07,-91.27 214.46,-95.58 199,-99.5 187.4,-102.44 175.01,-105.51 163.07,-108.44"/>
<polygon fill="midnightblue" stroke="midnightblue" points="248.03,-90.44 256.81,-84.51 246.25,-83.67 248.03,-90.44"/>
</g>
<!-- Node3 -->
<g id="node3" class="node">
<title>Node3</title>
<g id="a_node3"><a xlink:href="classgpuNUFFT_1_1BalancedTextureGpuNUFFTOperator.html#a830b6e2942810ccbf0d4d230a89c7dc0" target="_top" xlink:title=" ">
<polygon fill="none" stroke="black" points="5.5,-49 5.5,-90 193.5,-90 193.5,-49 5.5,-49"/>
<text text-anchor="start" x="13.5" y="-78" font-family="FreeSans.ttf" font-size="10.00">gpuNUFFT::BalancedTexture</text>
<text text-anchor="start" x="13.5" y="-67" font-family="FreeSans.ttf" font-size="10.00">GpuNUFFTOperator::~BalancedTexture</text>
<text text-anchor="middle" x="99.5" y="-56" font-family="FreeSans.ttf" font-size="10.00">GpuNUFFTOperator</text>
</a>
</g>
</g>
<!-- Node1&#45;&gt;Node3 -->
<g id="edge2" class="edge">
<title>Node1&#45;&gt;Node3</title>
<path fill="none" stroke="midnightblue" d="M224.64,-69.5C214.42,-69.5 203.97,-69.5 193.68,-69.5"/>
<polygon fill="midnightblue" stroke="midnightblue" points="224.78,-73 234.78,-69.5 224.78,-66 224.78,-73"/>
</g>
<!-- Node4 -->
<g id="node4" class="node">
<title>Node4</title>
<g id="a_node4"><a xlink:href="classgpuNUFFT_1_1GpuNUFFTOperator.html#acf8b3aa450f554ebd8130c11d7c8233e" target="_top" xlink:title=" ">
<polygon fill="none" stroke="black" points="20.5,-0.5 20.5,-30.5 178.5,-30.5 178.5,-0.5 20.5,-0.5"/>
<text text-anchor="start" x="28.5" y="-18.5" font-family="FreeSans.ttf" font-size="10.00">gpuNUFFT::GpuNUFFTOperator</text>
<text text-anchor="middle" x="99.5" y="-7.5" font-family="FreeSans.ttf" font-size="10.00">::~GpuNUFFTOperator</text>
</a>
</g>
</g>
<!-- Node1&#45;&gt;Node4 -->
<g id="edge3" class="edge">
<title>Node1&#45;&gt;Node4</title>
<path fill="none" stroke="midnightblue" d="M246.7,-51.83C231.07,-47.73 214.46,-43.42 199,-39.5 187.4,-36.56 175.01,-33.49 163.07,-30.56"/>
<polygon fill="midnightblue" stroke="midnightblue" points="246.25,-55.33 256.81,-54.49 248.03,-48.56 246.25,-55.33"/>
</g>
</g>
</svg>
