<?xml version="1.0" encoding="UTF-8" standalone="no"?>
<!DOCTYPE svg PUBLIC "-//W3C//DTD SVG 1.1//EN"
 "http://www.w3.org/Graphics/SVG/1.1/DTD/svg11.dtd">
<!-- Generated by graphviz version 2.49.3 (20211027.1534)
 -->
<!-- Title: GpuNUFFTPythonOperator::adj_op Pages: 1 -->
<svg width="337pt" height="78pt"
 viewBox="0.00 0.00 337.00 77.50" xmlns="http://www.w3.org/2000/svg" xmlns:xlink="http://www.w3.org/1999/xlink">
<g id="graph0" class="graph" transform="scale(1 1) rotate(0) translate(4 73.5)">
<title>GpuNUFFTPythonOperator::adj_op</title>
<!-- Node1 -->
<g id="node1" class="node">
<title>Node1</title>
<g id="a_node1"><a xlink:title="Adjoint operator (kspace to Image)">
<polygon fill="#bfbfbf" stroke="black" points="0,-22.5 0,-52.5 135,-52.5 135,-22.5 0,-22.5"/>
<text text-anchor="start" x="8" y="-40.5" font-family="FreeSans.ttf" font-size="10.00">GpuNUFFTPythonOperator</text>
<text text-anchor="middle" x="67.5" y="-29.5" font-family="FreeSans.ttf" font-size="10.00">::adj_op</text>
</a>
</g>
</g>
<!-- Node2 -->
<g id="node2" class="node">
<title>Node2</title>
<g id="a_node2"><a xlink:href="python__utils_8hpp.html#a6fc45707d1f047d4232b16582576b2e6" target="_top" xlink:title=" ">
<polygon fill="none" stroke="black" points="205,-50 205,-69 295,-69 295,-50 205,-50"/>
<text text-anchor="middle" x="250" y="-57" font-family="FreeSans.ttf" font-size="10.00">copyNumpyArray</text>
</a>
</g>
</g>
<!-- Node1&#45;&gt;Node2 -->
<g id="edge1" class="edge">
<title>Node1&#45;&gt;Node2</title>
<path fill="none" stroke="midnightblue" d="M135.2,-45.63C154.77,-48.02 175.93,-50.59 194.64,-52.87"/>
<polygon fill="midnightblue" stroke="midnightblue" points="194.4,-56.37 204.75,-54.11 195.25,-49.42 194.4,-56.37"/>
</g>
<!-- Node3 -->
<g id="node3" class="node">
<title>Node3</title>
<g id="a_node3"><a xlink:href="classgpuNUFFT_1_1GpuNUFFTOperator.html#a38a45507d840b8d3d97de7fc79b4fa8a" target="_top" xlink:title="Perform Adjoint gridding operation on given kspaceData.">
<polygon fill="none" stroke="black" points="171,-0.5 171,-30.5 329,-30.5 329,-0.5 171,-0.5"/>
<text text-anchor="start" x="179" y="-18.5" font-family="FreeSans.ttf" font-size="10.00">gpuNUFFT::GpuNUFFTOperator</text>
<text text-anchor="middle" x="250" y="-7.5" font-family="FreeSans.ttf" font-size="10.00">::performGpuNUFFTAdj</text>
</a>
</g>
</g>
<!-- Node1&#45;&gt;Node3 -->
<g id="edge2" class="edge">
<title>Node1&#45;&gt;Node3</title>
<path fill="none" stroke="midnightblue" d="M135.2,-29.37C143.57,-28.35 152.24,-27.29 160.87,-26.24"/>
<polygon fill="midnightblue" stroke="midnightblue" points="161.48,-29.69 170.98,-25.01 160.63,-22.74 161.48,-29.69"/>
</g>
</g>
</svg>
