<?xml version="1.0" encoding="UTF-8" standalone="no"?>
<!DOCTYPE svg PUBLIC "-//W3C//DTD SVG 1.1//EN"
 "http://www.w3.org/Graphics/SVG/1.1/DTD/svg11.dtd">
<!-- Generated by graphviz version 2.49.3 (20211027.1534)
 -->
<!-- Title: GpuNUFFTPythonOperator::GpuNUFFTPythonOperator Pages: 1 -->
<svg width="353pt" height="253pt"
 viewBox="0.00 0.00 353.00 252.50" xmlns="http://www.w3.org/2000/svg" xmlns:xlink="http://www.w3.org/1999/xlink">
<g id="graph0" class="graph" transform="scale(1 1) rotate(0) translate(4 248.5)">
<title>GpuNUFFTPythonOperator::GpuNUFFTPythonOperator</title>
<!-- Node1 -->
<g id="node1" class="node">
<title>Node1</title>
<g id="a_node1"><a xlink:title=" ">
<polygon fill="#bfbfbf" stroke="black" points="0,-112.5 0,-142.5 140,-142.5 140,-112.5 0,-112.5"/>
<text text-anchor="start" x="8" y="-130.5" font-family="FreeSans.ttf" font-size="10.00">GpuNUFFTPythonOperator</text>
<text text-anchor="middle" x="70" y="-119.5" font-family="FreeSans.ttf" font-size="10.00">::GpuNUFFTPythonOperator</text>
</a>
</g>
</g>
<!-- Node2 -->
<g id="node2" class="node">
<title>Node2</title>
<g id="a_node2"><a xlink:href="gpuNUFFT__operator__python__factory_8cpp.html#a5732db3eeef010cc926583da8f91fcd6" target="_top" xlink:title=" ">
<polygon fill="none" stroke="black" points="198.5,-225 198.5,-244 322.5,-244 322.5,-225 198.5,-225"/>
<text text-anchor="middle" x="260.5" y="-232" font-family="FreeSans.ttf" font-size="10.00">allocate_pinned_memory</text>
</a>
</g>
</g>
<!-- Node1&#45;&gt;Node2 -->
<g id="edge1" class="edge">
<title>Node1&#45;&gt;Node2</title>
<path fill="none" stroke="midnightblue" d="M84.69,-142.8C103.34,-162.67 138.72,-197 176,-215.5 180.91,-217.94 186.14,-220.07 191.49,-221.93"/>
<polygon fill="midnightblue" stroke="midnightblue" points="190.63,-225.32 201.22,-224.99 192.73,-218.65 190.63,-225.32"/>
</g>
<!-- Node3 -->
<g id="node3" class="node">
<title>Node3</title>
<g id="a_node3"><a xlink:href="gpuNUFFT__operator__python__factory_8cpp.html#a6fc45707d1f047d4232b16582576b2e6" target="_top" xlink:title=" ">
<polygon fill="none" stroke="black" points="215.5,-187 215.5,-206 305.5,-206 305.5,-187 215.5,-187"/>
<text text-anchor="middle" x="260.5" y="-194" font-family="FreeSans.ttf" font-size="10.00">copyNumpyArray</text>
</a>
</g>
</g>
<!-- Node1&#45;&gt;Node3 -->
<g id="edge2" class="edge">
<title>Node1&#45;&gt;Node3</title>
<path fill="none" stroke="midnightblue" d="M98.37,-142.59C119.16,-153.54 148.72,-168.03 176,-177.5 185.38,-180.75 195.54,-183.6 205.44,-186.04"/>
<polygon fill="midnightblue" stroke="midnightblue" points="204.68,-189.45 215.22,-188.33 206.28,-182.64 204.68,-189.45"/>
</g>
<!-- Node4 -->
<g id="node4" class="node">
<title>Node4</title>
<g id="a_node4"><a xlink:href="structgpuNUFFT_1_1Dimensions.html#a4c589934c5444910fbcd890d128229c9" target="_top" xlink:title="Compute total count of array length.">
<polygon fill="none" stroke="black" points="200,-137.5 200,-167.5 321,-167.5 321,-137.5 200,-137.5"/>
<text text-anchor="start" x="208" y="-155.5" font-family="FreeSans.ttf" font-size="10.00">gpuNUFFT::Dimensions</text>
<text text-anchor="middle" x="260.5" y="-144.5" font-family="FreeSans.ttf" font-size="10.00">::count</text>
</a>
</g>
</g>
<!-- Node1&#45;&gt;Node4 -->
<g id="edge3" class="edge">
<title>Node1&#45;&gt;Node4</title>
<path fill="none" stroke="midnightblue" d="M140.12,-136.67C156.3,-138.81 173.56,-141.1 189.77,-143.25"/>
<polygon fill="midnightblue" stroke="midnightblue" points="189.33,-146.72 199.71,-144.57 190.25,-139.79 189.33,-146.72"/>
</g>
<!-- Node5 -->
<g id="node5" class="node">
<title>Node5</title>
<g id="a_node5"><a xlink:href="classgpuNUFFT_1_1GpuNUFFTOperatorFactory.html#a15c06b6bd8c74d3ac0b4705c3204db23" target="_top" xlink:title="Create GpuNUFFT Operator.">
<polygon fill="none" stroke="black" points="176,-88.5 176,-118.5 345,-118.5 345,-88.5 176,-88.5"/>
<text text-anchor="start" x="184" y="-106.5" font-family="FreeSans.ttf" font-size="10.00">gpuNUFFT::GpuNUFFTOperator</text>
<text text-anchor="middle" x="260.5" y="-95.5" font-family="FreeSans.ttf" font-size="10.00">Factory::createGpuNUFFTOperator</text>
</a>
</g>
</g>
<!-- Node1&#45;&gt;Node5 -->
<g id="edge4" class="edge">
<title>Node1&#45;&gt;Node5</title>
<path fill="none" stroke="midnightblue" d="M140.12,-118.7C148.5,-117.63 157.17,-116.53 165.83,-115.43"/>
<polygon fill="midnightblue" stroke="midnightblue" points="166.51,-118.87 175.98,-114.13 165.62,-111.92 166.51,-118.87"/>
</g>
<!-- Node6 -->
<g id="node6" class="node">
<title>Node6</title>
<g id="a_node6"><a xlink:href="gpuNUFFT__operator__python__factory_8cpp.html#aeb74d2cb99381f659a6890373021e833" target="_top" xlink:title=" ">
<polygon fill="none" stroke="black" points="216,-50 216,-69 305,-69 305,-50 216,-50"/>
<text text-anchor="middle" x="260.5" y="-57" font-family="FreeSans.ttf" font-size="10.00">readNumpyArray</text>
</a>
</g>
</g>
<!-- Node1&#45;&gt;Node6 -->
<g id="edge5" class="edge">
<title>Node1&#45;&gt;Node6</title>
<path fill="none" stroke="midnightblue" d="M99.8,-112.5C120.56,-102.14 149.47,-88.64 176,-79.5 185.51,-76.22 195.81,-73.28 205.83,-70.73"/>
<polygon fill="midnightblue" stroke="midnightblue" points="206.82,-74.09 215.7,-68.31 205.16,-67.29 206.82,-74.09"/>
</g>
<!-- Node7 -->
<g id="node7" class="node">
<title>Node7</title>
<g id="a_node7"><a xlink:href="classgpuNUFFT_1_1GpuNUFFTOperatorFactory.html#a2891356395506b5046b44ba1765c818d" target="_top" xlink:title=" ">
<polygon fill="none" stroke="black" points="181.5,-0.5 181.5,-30.5 339.5,-30.5 339.5,-0.5 181.5,-0.5"/>
<text text-anchor="start" x="189.5" y="-18.5" font-family="FreeSans.ttf" font-size="10.00">gpuNUFFT::GpuNUFFTOperator</text>
<text text-anchor="middle" x="260.5" y="-7.5" font-family="FreeSans.ttf" font-size="10.00">Factory::setBalanceWorkload</text>
</a>
</g>
</g>
<!-- Node1&#45;&gt;Node7 -->
<g id="edge6" class="edge">
<title>Node1&#45;&gt;Node7</title>
<path fill="none" stroke="midnightblue" d="M85.24,-112.42C104.23,-93.14 139.68,-59.94 176,-40.5 180.2,-38.25 184.63,-36.18 189.16,-34.27"/>
<polygon fill="midnightblue" stroke="midnightblue" points="190.55,-37.49 198.59,-30.59 188.01,-30.97 190.55,-37.49"/>
</g>
</g>
</svg>
