<?xml version="1.0" encoding="UTF-8" standalone="no"?>
<!DOCTYPE svg PUBLIC "-//W3C//DTD SVG 1.1//EN"
 "http://www.w3.org/Graphics/SVG/1.1/DTD/svg11.dtd">
<!-- Generated by graphviz version 2.49.3 (20211027.1534)
 -->
<!-- Title: gpuNUFFT::TextureGpuNUFFTOperator::initKernel Pages: 1 -->
<svg width="721pt" height="198pt"
 viewBox="0.00 0.00 721.00 198.00" xmlns="http://www.w3.org/2000/svg" xmlns:xlink="http://www.w3.org/1999/xlink">
<g id="graph0" class="graph" transform="scale(1 1) rotate(0) translate(4 194)">
<title>gpuNUFFT::TextureGpuNUFFTOperator::initKernel</title>
<!-- Node1 -->
<g id="node1" class="node">
<title>Node1</title>
<g id="a_node1"><a xlink:title="Precompute interpolation kernel lookup table.">
<polygon fill="#bfbfbf" stroke="black" points="0,-71 0,-101 191,-101 191,-71 0,-71"/>
<text text-anchor="start" x="8" y="-89" font-family="FreeSans.ttf" font-size="10.00">gpuNUFFT::TextureGpuNUFFTOperator</text>
<text text-anchor="middle" x="95.5" y="-78" font-family="FreeSans.ttf" font-size="10.00">::initKernel</text>
</a>
</g>
</g>
<!-- Node2 -->
<g id="node2" class="node">
<title>Node2</title>
<g id="a_node2"><a xlink:href="gpuNUFFT__utils_8cpp.html#ac57bf34370dd28161430ed9f8a1d9664" target="_top" xlink:title=" ">
<polygon fill="none" stroke="black" points="228,-152.5 228,-171.5 353,-171.5 353,-152.5 228,-152.5"/>
<text text-anchor="middle" x="290.5" y="-159.5" font-family="FreeSans.ttf" font-size="10.00">calculateGrid3KernelSize</text>
</a>
</g>
</g>
<!-- Node1&#45;&gt;Node2 -->
<g id="edge1" class="edge">
<title>Node1&#45;&gt;Node2</title>
<path fill="none" stroke="midnightblue" d="M128.25,-101.11C154.42,-113.26 192.67,-130.33 227,-143 233,-145.22 239.4,-147.38 245.72,-149.4"/>
<polygon fill="midnightblue" stroke="midnightblue" points="244.94,-152.82 255.53,-152.46 247.02,-146.14 244.94,-152.82"/>
</g>
<!-- Node3 -->
<g id="node3" class="node">
<title>Node3</title>
<g id="a_node3"><a xlink:href="gpuNUFFT__utils_8cpp.html#af646ac63e61d6cb83841391c13c3bfd8" target="_top" xlink:title=" ">
<polygon fill="none" stroke="black" points="227,-114.5 227,-133.5 354,-133.5 354,-114.5 227,-114.5"/>
<text text-anchor="middle" x="290.5" y="-121.5" font-family="FreeSans.ttf" font-size="10.00">calculateKernelSizeLinInt</text>
</a>
</g>
</g>
<!-- Node1&#45;&gt;Node3 -->
<g id="edge3" class="edge">
<title>Node1&#45;&gt;Node3</title>
<path fill="none" stroke="midnightblue" d="M172.78,-101.02C192.25,-104.85 212.87,-108.91 231.27,-112.54"/>
<polygon fill="midnightblue" stroke="midnightblue" points="230.76,-116 241.25,-114.5 232.11,-109.13 230.76,-116"/>
</g>
<!-- Node4 -->
<g id="node4" class="node">
<title>Node4</title>
<g id="a_node4"><a xlink:href="gpuNUFFT__utils_8cpp.html#a6683a749816745e9e10c65ac77ebd1c6" target="_top" xlink:title="Loads a radius of the circularly symmetric kernel into a 1&#45;d array, with respect to the kernel radius...">
<polygon fill="none" stroke="black" points="390,-38.5 390,-57.5 464,-57.5 464,-38.5 390,-38.5"/>
<text text-anchor="middle" x="427" y="-45.5" font-family="FreeSans.ttf" font-size="10.00">load1DKernel</text>
</a>
</g>
</g>
<!-- Node1&#45;&gt;Node4 -->
<g id="edge4" class="edge">
<title>Node1&#45;&gt;Node4</title>
<path fill="none" stroke="midnightblue" d="M191.17,-83.19C240.05,-80.69 300.5,-75.95 354,-67 364.14,-65.3 374.92,-62.83 384.97,-60.22"/>
<polygon fill="midnightblue" stroke="midnightblue" points="385.98,-63.57 394.73,-57.6 384.16,-56.81 385.98,-63.57"/>
</g>
<!-- Node9 -->
<g id="node9" class="node">
<title>Node9</title>
<g id="a_node9"><a xlink:href="gpuNUFFT__utils_8cpp.html#a03ba0850f7bccde81a06b55be0d6adb8" target="_top" xlink:title="Loads a radius of the circularly symmetric kernel into a 2&#45;d array, with respect to the kernel radius...">
<polygon fill="none" stroke="black" points="253.5,-38.5 253.5,-57.5 327.5,-57.5 327.5,-38.5 253.5,-38.5"/>
<text text-anchor="middle" x="290.5" y="-45.5" font-family="FreeSans.ttf" font-size="10.00">load2DKernel</text>
</a>
</g>
</g>
<!-- Node1&#45;&gt;Node9 -->
<g id="edge11" class="edge">
<title>Node1&#45;&gt;Node9</title>
<path fill="none" stroke="midnightblue" d="M172.78,-70.98C196.68,-66.27 222.32,-61.23 243.46,-57.06"/>
<polygon fill="midnightblue" stroke="midnightblue" points="244.32,-60.46 253.45,-55.1 242.97,-53.6 244.32,-60.46"/>
</g>
<!-- Node10 -->
<g id="node10" class="node">
<title>Node10</title>
<g id="a_node10"><a xlink:href="gpuNUFFT__utils_8cpp.html#a4603fff4bc63b96eea4500784a77fc48" target="_top" xlink:title="Loads a radius of the circularly symmetric kernel into a 3&#45;d array, with respect to the kernel radius...">
<polygon fill="none" stroke="black" points="253.5,-0.5 253.5,-19.5 327.5,-19.5 327.5,-0.5 253.5,-0.5"/>
<text text-anchor="middle" x="290.5" y="-7.5" font-family="FreeSans.ttf" font-size="10.00">load3DKernel</text>
</a>
</g>
</g>
<!-- Node1&#45;&gt;Node10 -->
<g id="edge13" class="edge">
<title>Node1&#45;&gt;Node10</title>
<path fill="none" stroke="midnightblue" d="M128.25,-70.89C154.42,-58.74 192.67,-41.67 227,-29 233,-26.78 239.4,-24.62 245.72,-22.6"/>
<polygon fill="midnightblue" stroke="midnightblue" points="247.02,-25.86 255.53,-19.54 244.94,-19.18 247.02,-25.86"/>
</g>
<!-- Node2&#45;&gt;Node2 -->
<g id="edge2" class="edge">
<title>Node2&#45;&gt;Node2</title>
<path fill="none" stroke="midnightblue" d="M269.54,-171.76C259.34,-180.57 266.33,-190 290.5,-190 305.99,-190 314.42,-186.13 315.8,-181.03"/>
<polygon fill="midnightblue" stroke="midnightblue" points="318.87,-179.33 311.46,-171.76 312.53,-182.3 318.87,-179.33"/>
</g>
<!-- Node5 -->
<g id="node5" class="node">
<title>Node5</title>
<g id="a_node5"><a xlink:href="gpuNUFFT__utils_8hpp.html#a18dd3c6c4b8ac5f6947f3dc1c59651bc" target="_top" xlink:title="Interpolation Kernel evaluation for radius.">
<polygon fill="none" stroke="black" points="500,-38.5 500,-57.5 543,-57.5 543,-38.5 500,-38.5"/>
<text text-anchor="middle" x="521.5" y="-45.5" font-family="FreeSans.ttf" font-size="10.00">kernel</text>
</a>
</g>
</g>
<!-- Node4&#45;&gt;Node5 -->
<g id="edge5" class="edge">
<title>Node4&#45;&gt;Node5</title>
<path fill="none" stroke="midnightblue" d="M464.03,-48C472.49,-48 481.44,-48 489.65,-48"/>
<polygon fill="midnightblue" stroke="midnightblue" points="489.93,-51.5 499.93,-48 489.93,-44.5 489.93,-51.5"/>
</g>
<!-- Node6 -->
<g id="node6" class="node">
<title>Node6</title>
<g id="a_node6"><a xlink:href="gpuNUFFT__utils_8hpp.html#aa7b00d423ae0e06388b55594fe1adb93" target="_top" xlink:title="beta function used in interpolation function. See Beatty et al.">
<polygon fill="none" stroke="black" points="671,-66.5 671,-85.5 713,-85.5 713,-66.5 671,-66.5"/>
<text text-anchor="middle" x="692" y="-73.5" font-family="FreeSans.ttf" font-size="10.00">BETA</text>
</a>
</g>
</g>
<!-- Node5&#45;&gt;Node6 -->
<g id="edge6" class="edge">
<title>Node5&#45;&gt;Node6</title>
<path fill="none" stroke="midnightblue" d="M543.09,-56.28C553.66,-60.17 566.83,-64.5 579,-67 606.38,-72.62 638.21,-74.77 660.92,-75.57"/>
<polygon fill="midnightblue" stroke="midnightblue" points="660.87,-79.07 670.97,-75.86 661.07,-72.07 660.87,-79.07"/>
</g>
<!-- Node7 -->
<g id="node7" class="node">
<title>Node7</title>
<g id="a_node7"><a xlink:href="gpuNUFFT__utils_8cpp.html#a5472cb661dea68a2ab2b52df187b6291" target="_top" xlink:title="Modified Kaiser Bessel function of zero&#45;th order.">
<polygon fill="none" stroke="black" points="677.5,-19.5 677.5,-38.5 706.5,-38.5 706.5,-19.5 677.5,-19.5"/>
<text text-anchor="middle" x="692" y="-26.5" font-family="FreeSans.ttf" font-size="10.00">i0</text>
</a>
</g>
</g>
<!-- Node5&#45;&gt;Node7 -->
<g id="edge7" class="edge">
<title>Node5&#45;&gt;Node7</title>
<path fill="none" stroke="midnightblue" d="M543.02,-39.31C553.56,-35.31 566.74,-31.01 579,-29 609.18,-24.06 644.55,-25.19 667.34,-26.8"/>
<polygon fill="midnightblue" stroke="midnightblue" points="667.19,-30.3 677.44,-27.6 667.75,-23.32 667.19,-30.3"/>
</g>
<!-- Node8 -->
<g id="node8" class="node">
<title>Node8</title>
<g id="a_node8"><a xlink:href="gpuNUFFT__utils_8hpp.html#ab1456ac35fe51fc4dac2e0054f6d9a50" target="_top" xlink:title="I_0 function used in interpolation function. See Beatty et al.">
<polygon fill="none" stroke="black" points="579,-38.5 579,-57.5 635,-57.5 635,-38.5 579,-38.5"/>
<text text-anchor="middle" x="607" y="-45.5" font-family="FreeSans.ttf" font-size="10.00">I0_BETA</text>
</a>
</g>
</g>
<!-- Node5&#45;&gt;Node8 -->
<g id="edge8" class="edge">
<title>Node5&#45;&gt;Node8</title>
<path fill="none" stroke="midnightblue" d="M543.14,-48C550.92,-48 560.02,-48 568.84,-48"/>
<polygon fill="midnightblue" stroke="midnightblue" points="568.98,-51.5 578.98,-48 568.98,-44.5 568.98,-51.5"/>
</g>
<!-- Node8&#45;&gt;Node6 -->
<g id="edge9" class="edge">
<title>Node8&#45;&gt;Node6</title>
<path fill="none" stroke="midnightblue" d="M635.18,-57.17C643.54,-59.99 652.78,-63.11 661.3,-65.98"/>
<polygon fill="midnightblue" stroke="midnightblue" points="660.28,-69.33 670.87,-69.21 662.52,-62.7 660.28,-69.33"/>
</g>
<!-- Node8&#45;&gt;Node7 -->
<g id="edge10" class="edge">
<title>Node8&#45;&gt;Node7</title>
<path fill="none" stroke="midnightblue" d="M635.18,-41.78C645.45,-39.43 657.07,-36.77 667.03,-34.49"/>
<polygon fill="midnightblue" stroke="midnightblue" points="668.08,-37.84 677.05,-32.19 666.52,-31.01 668.08,-37.84"/>
</g>
<!-- Node9&#45;&gt;Node4 -->
<g id="edge12" class="edge">
<title>Node9&#45;&gt;Node4</title>
<path fill="none" stroke="midnightblue" d="M327.54,-48C343.52,-48 362.53,-48 379.55,-48"/>
<polygon fill="midnightblue" stroke="midnightblue" points="379.86,-51.5 389.86,-48 379.86,-44.5 379.86,-51.5"/>
</g>
<!-- Node10&#45;&gt;Node4 -->
<g id="edge14" class="edge">
<title>Node10&#45;&gt;Node4</title>
<path fill="none" stroke="midnightblue" d="M325.44,-19.59C342.72,-24.47 363.93,-30.46 382.41,-35.68"/>
<polygon fill="midnightblue" stroke="midnightblue" points="381.5,-39.06 392.07,-38.41 383.4,-32.33 381.5,-39.06"/>
</g>
</g>
</svg>
