<?xml version="1.0" encoding="UTF-8" standalone="no"?>
<!DOCTYPE svg PUBLIC "-//W3C//DTD SVG 1.1//EN"
 "http://www.w3.org/Graphics/SVG/1.1/DTD/svg11.dtd">
<!-- Generated by graphviz version 2.49.3 (20211027.1534)
 -->
<!-- Title: gpuNUFFT::GpuNUFFTOperator::is2DProcessing Pages: 1 -->
<svg width="786pt" height="186pt"
 viewBox="0.00 0.00 786.00 186.00" xmlns="http://www.w3.org/2000/svg" xmlns:xlink="http://www.w3.org/1999/xlink">
<g id="graph0" class="graph" transform="scale(1 1) rotate(0) translate(4 182)">
<title>gpuNUFFT::GpuNUFFTOperator::is2DProcessing</title>
<!-- Node1 -->
<g id="node1" class="node">
<title>Node1</title>
<g id="a_node1"><a xlink:title=" ">
<polygon fill="#bfbfbf" stroke="black" points="620,-73.5 620,-103.5 778,-103.5 778,-73.5 620,-73.5"/>
<text text-anchor="start" x="628" y="-91.5" font-family="FreeSans.ttf" font-size="10.00">gpuNUFFT::GpuNUFFTOperator</text>
<text text-anchor="middle" x="699" y="-80.5" font-family="FreeSans.ttf" font-size="10.00">::is2DProcessing</text>
</a>
</g>
</g>
<!-- Node2 -->
<g id="node2" class="node">
<title>Node2</title>
<g id="a_node2"><a xlink:href="classgpuNUFFT_1_1GpuNUFFTOperator.html#a10c8eb392c0a61a80ec1bf8784e20303" target="_top" xlink:title="Return dimension of problem. Either 2&#45;d or 3&#45;d.">
<polygon fill="none" stroke="black" points="426,-98.5 426,-128.5 584,-128.5 584,-98.5 426,-98.5"/>
<text text-anchor="start" x="434" y="-116.5" font-family="FreeSans.ttf" font-size="10.00">gpuNUFFT::GpuNUFFTOperator</text>
<text text-anchor="middle" x="505" y="-105.5" font-family="FreeSans.ttf" font-size="10.00">::getImageDimensionCount</text>
</a>
</g>
</g>
<!-- Node1&#45;&gt;Node2 -->
<g id="edge1" class="edge">
<title>Node1&#45;&gt;Node2</title>
<path fill="none" stroke="midnightblue" d="M609.85,-99.98C601.23,-101.1 592.53,-102.23 584.02,-103.34"/>
<polygon fill="midnightblue" stroke="midnightblue" points="610.44,-103.43 619.91,-98.67 609.54,-96.49 610.44,-103.43"/>
</g>
<!-- Node7 -->
<g id="node7" class="node">
<title>Node7</title>
<g id="a_node7"><a xlink:href="classgpuNUFFT_1_1GpuNUFFTOperator.html#ab63e41179a49929b7ebf3a83f76fada0" target="_top" xlink:title=" ">
<polygon fill="none" stroke="black" points="426,-49.5 426,-79.5 584,-79.5 584,-49.5 426,-49.5"/>
<text text-anchor="start" x="434" y="-67.5" font-family="FreeSans.ttf" font-size="10.00">gpuNUFFT::GpuNUFFTOperator</text>
<text text-anchor="middle" x="505" y="-56.5" font-family="FreeSans.ttf" font-size="10.00">::is3DProcessing</text>
</a>
</g>
</g>
<!-- Node1&#45;&gt;Node7 -->
<g id="edge6" class="edge">
<title>Node1&#45;&gt;Node7</title>
<path fill="none" stroke="midnightblue" d="M609.85,-77.48C601.23,-76.4 592.53,-75.32 584.02,-74.25"/>
<polygon fill="midnightblue" stroke="midnightblue" points="609.55,-80.97 619.91,-78.74 610.42,-74.02 609.55,-80.97"/>
</g>
<!-- Node3 -->
<g id="node3" class="node">
<title>Node3</title>
<g id="a_node3"><a xlink:href="classgpuNUFFT_1_1GpuNUFFTOperatorFactory.html#a3bb929391f61a14ecb6be08ccccf29cb" target="_top" xlink:title="Initialization method for the coords array.">
<polygon fill="none" stroke="black" points="216.5,-147.5 216.5,-177.5 374.5,-177.5 374.5,-147.5 216.5,-147.5"/>
<text text-anchor="start" x="224.5" y="-165.5" font-family="FreeSans.ttf" font-size="10.00">gpuNUFFT::GpuNUFFTOperator</text>
<text text-anchor="middle" x="295.5" y="-154.5" font-family="FreeSans.ttf" font-size="10.00">Factory::initCoordsData</text>
</a>
</g>
</g>
<!-- Node2&#45;&gt;Node3 -->
<g id="edge2" class="edge">
<title>Node2&#45;&gt;Node3</title>
<path fill="none" stroke="midnightblue" d="M430.3,-130.9C407.35,-136.32 382.24,-142.25 360.05,-147.49"/>
<polygon fill="midnightblue" stroke="midnightblue" points="431.41,-134.24 440.33,-128.53 429.8,-127.43 431.41,-134.24"/>
</g>
<!-- Node4 -->
<g id="node4" class="node">
<title>Node4</title>
<g id="a_node4"><a xlink:href="classgpuNUFFT_1_1GpuNUFFTOperatorFactory.html#af28b53802fd66b755083507e1fe99311" target="_top" xlink:title="Initialization method for the sector centers array.">
<polygon fill="none" stroke="black" points="216.5,-98.5 216.5,-128.5 374.5,-128.5 374.5,-98.5 216.5,-98.5"/>
<text text-anchor="start" x="224.5" y="-116.5" font-family="FreeSans.ttf" font-size="10.00">gpuNUFFT::GpuNUFFTOperator</text>
<text text-anchor="middle" x="295.5" y="-105.5" font-family="FreeSans.ttf" font-size="10.00">Factory::initSectorCenters</text>
</a>
</g>
</g>
<!-- Node2&#45;&gt;Node4 -->
<g id="edge3" class="edge">
<title>Node2&#45;&gt;Node4</title>
<path fill="none" stroke="midnightblue" d="M415.53,-113.5C401.91,-113.5 387.94,-113.5 374.58,-113.5"/>
<polygon fill="midnightblue" stroke="midnightblue" points="415.85,-117 425.85,-113.5 415.85,-110 415.85,-117"/>
</g>
<!-- Node5 -->
<g id="node5" class="node">
<title>Node5</title>
<g id="a_node5"><a xlink:href="classgpuNUFFT_1_1GpuNUFFTOperatorFactory.html#a62c51a180bf592a0fa82343ed7b4daed" target="_top" xlink:title="Compute sector centers array.">
<polygon fill="none" stroke="black" points="3.5,-122.5 3.5,-152.5 161.5,-152.5 161.5,-122.5 3.5,-122.5"/>
<text text-anchor="start" x="11.5" y="-140.5" font-family="FreeSans.ttf" font-size="10.00">gpuNUFFT::GpuNUFFTOperator</text>
<text text-anchor="middle" x="82.5" y="-129.5" font-family="FreeSans.ttf" font-size="10.00">Factory::computeSectorCenters</text>
</a>
</g>
</g>
<!-- Node4&#45;&gt;Node5 -->
<g id="edge4" class="edge">
<title>Node4&#45;&gt;Node5</title>
<path fill="none" stroke="midnightblue" d="M206.1,-123.55C191.34,-125.23 176.12,-126.96 161.64,-128.61"/>
<polygon fill="midnightblue" stroke="midnightblue" points="206.69,-127.01 216.23,-122.4 205.9,-120.06 206.69,-127.01"/>
</g>
<!-- Node6 -->
<g id="node6" class="node">
<title>Node6</title>
<g id="a_node6"><a xlink:href="classgpuNUFFT_1_1GpuNUFFTOperatorFactory.html#a65d596418c34d74d383addd455469b5a" target="_top" xlink:title="Compute 2&#45;d sector centers array.">
<polygon fill="none" stroke="black" points="0,-73.5 0,-103.5 165,-103.5 165,-73.5 0,-73.5"/>
<text text-anchor="start" x="8" y="-91.5" font-family="FreeSans.ttf" font-size="10.00">gpuNUFFT::GpuNUFFTOperator</text>
<text text-anchor="middle" x="82.5" y="-80.5" font-family="FreeSans.ttf" font-size="10.00">Factory::computeSectorCenters2D</text>
</a>
</g>
</g>
<!-- Node4&#45;&gt;Node6 -->
<g id="edge5" class="edge">
<title>Node4&#45;&gt;Node6</title>
<path fill="none" stroke="midnightblue" d="M205.98,-103.01C192.45,-101.41 178.54,-99.76 165.17,-98.18"/>
<polygon fill="midnightblue" stroke="midnightblue" points="205.89,-106.53 216.23,-104.23 206.71,-99.57 205.89,-106.53"/>
</g>
<!-- Node8 -->
<g id="node8" class="node">
<title>Node8</title>
<g id="a_node8"><a xlink:href="classgpuNUFFT_1_1GpuNUFFTOperatorFactory.html#a82e185db6eda1edb359df5a580be7b37" target="_top" xlink:title="Computation of the deapodization function.">
<polygon fill="none" stroke="black" points="201,-49.5 201,-79.5 390,-79.5 390,-49.5 201,-49.5"/>
<text text-anchor="start" x="209" y="-67.5" font-family="FreeSans.ttf" font-size="10.00">gpuNUFFT::GpuNUFFTOperator</text>
<text text-anchor="middle" x="295.5" y="-56.5" font-family="FreeSans.ttf" font-size="10.00">Factory::computeDeapodizationFunction</text>
</a>
</g>
</g>
<!-- Node7&#45;&gt;Node8 -->
<g id="edge7" class="edge">
<title>Node7&#45;&gt;Node8</title>
<path fill="none" stroke="midnightblue" d="M415.69,-64.5C407.29,-64.5 398.75,-64.5 390.3,-64.5"/>
<polygon fill="midnightblue" stroke="midnightblue" points="415.85,-68 425.85,-64.5 415.85,-61 415.85,-68"/>
</g>
<!-- Node9 -->
<g id="node9" class="node">
<title>Node9</title>
<g id="a_node9"><a xlink:href="classgpuNUFFT_1_1GpuNUFFTOperatorFactory.html#a0e941d590a7e5effed76f909dfa72bcc" target="_top" xlink:title="Create GpuNUFFT Operator.">
<polygon fill="none" stroke="black" points="211,-0.5 211,-30.5 380,-30.5 380,-0.5 211,-0.5"/>
<text text-anchor="start" x="219" y="-18.5" font-family="FreeSans.ttf" font-size="10.00">gpuNUFFT::GpuNUFFTOperator</text>
<text text-anchor="middle" x="295.5" y="-7.5" font-family="FreeSans.ttf" font-size="10.00">Factory::createGpuNUFFTOperator</text>
</a>
</g>
</g>
<!-- Node7&#45;&gt;Node9 -->
<g id="edge8" class="edge">
<title>Node7&#45;&gt;Node9</title>
<path fill="none" stroke="midnightblue" d="M430.3,-47.1C407.35,-41.68 382.24,-35.75 360.05,-30.51"/>
<polygon fill="midnightblue" stroke="midnightblue" points="429.8,-50.57 440.33,-49.47 431.41,-43.76 429.8,-50.57"/>
</g>
</g>
</svg>
