<?xml version="1.0" encoding="UTF-8" standalone="no"?>
<!DOCTYPE svg PUBLIC "-//W3C//DTD SVG 1.1//EN"
 "http://www.w3.org/Graphics/SVG/1.1/DTD/svg11.dtd">
<!-- Generated by graphviz version 2.49.3 (20211027.1534)
 -->
<!-- Title: gpuNUFFT::GpuNUFFTOperatorFactory::loadPrecomputedGpuNUFFTOperator Pages: 1 -->
<svg width="486pt" height="589pt"
 viewBox="0.00 0.00 486.00 588.50" xmlns="http://www.w3.org/2000/svg" xmlns:xlink="http://www.w3.org/1999/xlink">
<g id="graph0" class="graph" transform="scale(1 1) rotate(0) translate(4 584.5)">
<title>gpuNUFFT::GpuNUFFTOperatorFactory::loadPrecomputedGpuNUFFTOperator</title>
<!-- Node1 -->
<g id="node1" class="node">
<title>Node1</title>
<g id="a_node1"><a xlink:title="Load GpuNUFFT Operator from previously computed mappings.">
<polygon fill="#bfbfbf" stroke="black" points="0,-269.5 0,-299.5 218,-299.5 218,-269.5 0,-269.5"/>
<text text-anchor="start" x="8" y="-287.5" font-family="FreeSans.ttf" font-size="10.00">gpuNUFFT::GpuNUFFTOperator</text>
<text text-anchor="middle" x="109" y="-276.5" font-family="FreeSans.ttf" font-size="10.00">Factory::loadPrecomputedGpuNUFFTOperator</text>
</a>
</g>
</g>
<!-- Node2 -->
<g id="node2" class="node">
<title>Node2</title>
<g id="a_node2"><a xlink:href="classgpuNUFFT_1_1GpuNUFFTOperatorFactory.html#a13202f1b875cbedb1b4a1d1599d36865" target="_top" xlink:title="Compute the amount of sectors per dimension.">
<polygon fill="none" stroke="black" points="286,-539 286,-580 446,-580 446,-539 286,-539"/>
<text text-anchor="start" x="294" y="-568" font-family="FreeSans.ttf" font-size="10.00">gpuNUFFT::GpuNUFFTOperator</text>
<text text-anchor="start" x="294" y="-557" font-family="FreeSans.ttf" font-size="10.00">Factory::computeSectorCountPer</text>
<text text-anchor="middle" x="366" y="-546" font-family="FreeSans.ttf" font-size="10.00">Dimension</text>
</a>
</g>
</g>
<!-- Node1&#45;&gt;Node2 -->
<g id="edge1" class="edge">
<title>Node1&#45;&gt;Node2</title>
<path fill="none" stroke="midnightblue" d="M114.35,-299.7C127.54,-343.01 171.36,-467.89 254,-530.5 260.79,-535.64 268.41,-539.88 276.39,-543.36"/>
<polygon fill="midnightblue" stroke="midnightblue" points="275.31,-546.7 285.9,-547.12 277.88,-540.19 275.31,-546.7"/>
</g>
<!-- Node3 -->
<g id="node3" class="node">
<title>Node3</title>
<g id="a_node3"><a xlink:href="classgpuNUFFT_1_1GpuNUFFTOperator.html#a9d1a701e1bb5e75b3264f77aa597238b" target="_top" xlink:title=" ">
<polygon fill="none" stroke="black" points="287,-490.5 287,-520.5 445,-520.5 445,-490.5 287,-490.5"/>
<text text-anchor="start" x="295" y="-508.5" font-family="FreeSans.ttf" font-size="10.00">gpuNUFFT::GpuNUFFTOperator</text>
<text text-anchor="middle" x="366" y="-497.5" font-family="FreeSans.ttf" font-size="10.00">::getGridDims</text>
</a>
</g>
</g>
<!-- Node1&#45;&gt;Node3 -->
<g id="edge2" class="edge">
<title>Node1&#45;&gt;Node3</title>
<path fill="none" stroke="midnightblue" d="M116.44,-299.75C133.12,-337.27 181.53,-434.41 254,-481.5 261.13,-486.13 269.01,-489.89 277.18,-492.92"/>
<polygon fill="midnightblue" stroke="midnightblue" points="276.28,-496.32 286.88,-496.17 278.51,-489.68 276.28,-496.32"/>
</g>
<!-- Node4 -->
<g id="node4" class="node">
<title>Node4</title>
<g id="a_node4"><a xlink:href="classgpuNUFFT_1_1GpuNUFFTOperator.html#a26762c7cb13205226b6f77c37a57d8a9" target="_top" xlink:title=" ">
<polygon fill="none" stroke="black" points="287,-441.5 287,-471.5 445,-471.5 445,-441.5 287,-441.5"/>
<text text-anchor="start" x="295" y="-459.5" font-family="FreeSans.ttf" font-size="10.00">gpuNUFFT::GpuNUFFTOperator</text>
<text text-anchor="middle" x="366" y="-448.5" font-family="FreeSans.ttf" font-size="10.00">::getSectorWidth</text>
</a>
</g>
</g>
<!-- Node1&#45;&gt;Node4 -->
<g id="edge3" class="edge">
<title>Node1&#45;&gt;Node4</title>
<path fill="none" stroke="midnightblue" d="M120.22,-299.93C141.31,-330.48 192.85,-398.62 254,-432.5 261.25,-436.52 269.11,-439.86 277.19,-442.65"/>
<polygon fill="midnightblue" stroke="midnightblue" points="276.16,-445.99 286.75,-445.67 278.27,-439.32 276.16,-445.99"/>
</g>
<!-- Node5 -->
<g id="node5" class="node">
<title>Node5</title>
<g id="a_node5"><a xlink:href="classgpuNUFFT_1_1GpuNUFFTOperator.html#a3c1a8d920315e2659872571adaa4f868" target="_top" xlink:title="Return type of GriddingOperator.">
<polygon fill="none" stroke="black" points="287,-392.5 287,-422.5 445,-422.5 445,-392.5 287,-392.5"/>
<text text-anchor="start" x="295" y="-410.5" font-family="FreeSans.ttf" font-size="10.00">gpuNUFFT::GpuNUFFTOperator</text>
<text text-anchor="middle" x="366" y="-399.5" font-family="FreeSans.ttf" font-size="10.00">::getType</text>
</a>
</g>
</g>
<!-- Node1&#45;&gt;Node5 -->
<g id="edge4" class="edge">
<title>Node1&#45;&gt;Node5</title>
<path fill="none" stroke="midnightblue" d="M127.28,-299.77C153.04,-321.7 203.87,-361.85 254,-383.5 261.34,-386.67 269.13,-389.43 277.05,-391.85"/>
<polygon fill="midnightblue" stroke="midnightblue" points="276.19,-395.24 286.76,-394.62 278.11,-388.51 276.19,-395.24"/>
</g>
<!-- Node6 -->
<g id="node6" class="node">
<title>Node6</title>
<g id="a_node6"><a xlink:href="classgpuNUFFT_1_1GpuNUFFTOperator.html#a5dc3d4ddd0bfe7d8a75721c3ad1dc695" target="_top" xlink:title=" ">
<polygon fill="none" stroke="black" points="287,-343.5 287,-373.5 445,-373.5 445,-343.5 287,-343.5"/>
<text text-anchor="start" x="295" y="-361.5" font-family="FreeSans.ttf" font-size="10.00">gpuNUFFT::GpuNUFFTOperator</text>
<text text-anchor="middle" x="366" y="-350.5" font-family="FreeSans.ttf" font-size="10.00">::setDataIndices</text>
</a>
</g>
</g>
<!-- Node1&#45;&gt;Node6 -->
<g id="edge5" class="edge">
<title>Node1&#45;&gt;Node6</title>
<path fill="none" stroke="midnightblue" d="M149.32,-299.6C178.04,-310.27 218.07,-324.42 254,-334.5 262.28,-336.82 270.95,-339.05 279.65,-341.15"/>
<polygon fill="midnightblue" stroke="midnightblue" points="278.93,-344.57 289.46,-343.46 280.53,-337.76 278.93,-344.57"/>
</g>
<!-- Node7 -->
<g id="node7" class="node">
<title>Node7</title>
<g id="a_node7"><a xlink:href="classgpuNUFFT_1_1GpuNUFFTOperator.html#add849e387acb4ce367943ea44927cb5c" target="_top" xlink:title=" ">
<polygon fill="none" stroke="black" points="287,-294.5 287,-324.5 445,-324.5 445,-294.5 287,-294.5"/>
<text text-anchor="start" x="295" y="-312.5" font-family="FreeSans.ttf" font-size="10.00">gpuNUFFT::GpuNUFFTOperator</text>
<text text-anchor="middle" x="366" y="-301.5" font-family="FreeSans.ttf" font-size="10.00">::setDeapodizationFunction</text>
</a>
</g>
</g>
<!-- Node1&#45;&gt;Node7 -->
<g id="edge6" class="edge">
<title>Node1&#45;&gt;Node7</title>
<path fill="none" stroke="midnightblue" d="M218.14,-295.1C237.7,-297.02 257.89,-299 276.79,-300.85"/>
<polygon fill="midnightblue" stroke="midnightblue" points="276.56,-304.35 286.85,-301.84 277.24,-297.38 276.56,-304.35"/>
</g>
<!-- Node8 -->
<g id="node8" class="node">
<title>Node8</title>
<g id="a_node8"><a xlink:href="classgpuNUFFT_1_1GpuNUFFTOperator.html#a6ee83e8e5f1afd1c7d7d4dc765e78b79" target="_top" xlink:title=" ">
<polygon fill="none" stroke="black" points="287,-245.5 287,-275.5 445,-275.5 445,-245.5 287,-245.5"/>
<text text-anchor="start" x="295" y="-263.5" font-family="FreeSans.ttf" font-size="10.00">gpuNUFFT::GpuNUFFTOperator</text>
<text text-anchor="middle" x="366" y="-252.5" font-family="FreeSans.ttf" font-size="10.00">::setGridSectorDims</text>
</a>
</g>
</g>
<!-- Node1&#45;&gt;Node8 -->
<g id="edge7" class="edge">
<title>Node1&#45;&gt;Node8</title>
<path fill="none" stroke="midnightblue" d="M218.14,-274.32C237.7,-272.48 257.89,-270.58 276.79,-268.8"/>
<polygon fill="midnightblue" stroke="midnightblue" points="277.22,-272.28 286.85,-267.86 276.57,-265.31 277.22,-272.28"/>
</g>
<!-- Node9 -->
<g id="node9" class="node">
<title>Node9</title>
<g id="a_node9"><a xlink:href="classgpuNUFFT_1_1GpuNUFFTOperator.html#a7b31403334f5722ed8ebb25fcf8e6cbc" target="_top" xlink:title=" ">
<polygon fill="none" stroke="black" points="287,-196.5 287,-226.5 445,-226.5 445,-196.5 287,-196.5"/>
<text text-anchor="start" x="295" y="-214.5" font-family="FreeSans.ttf" font-size="10.00">gpuNUFFT::GpuNUFFTOperator</text>
<text text-anchor="middle" x="366" y="-203.5" font-family="FreeSans.ttf" font-size="10.00">::setKSpaceTraj</text>
</a>
</g>
</g>
<!-- Node1&#45;&gt;Node9 -->
<g id="edge8" class="edge">
<title>Node1&#45;&gt;Node9</title>
<path fill="none" stroke="midnightblue" d="M151.56,-269.42C180.14,-259.35 219.09,-246.22 254,-236.5 263.49,-233.86 273.5,-231.29 283.46,-228.88"/>
<polygon fill="midnightblue" stroke="midnightblue" points="284.46,-232.24 293.38,-226.52 282.84,-225.43 284.46,-232.24"/>
</g>
<!-- Node10 -->
<g id="node10" class="node">
<title>Node10</title>
<g id="a_node10"><a xlink:href="classgpuNUFFT_1_1GpuNUFFTOperator.html#aa1eab38f22cc6c6038a40b3e3d029c7e" target="_top" xlink:title=" ">
<polygon fill="none" stroke="black" points="287,-147.5 287,-177.5 445,-177.5 445,-147.5 287,-147.5"/>
<text text-anchor="start" x="295" y="-165.5" font-family="FreeSans.ttf" font-size="10.00">gpuNUFFT::GpuNUFFTOperator</text>
<text text-anchor="middle" x="366" y="-154.5" font-family="FreeSans.ttf" font-size="10.00">::setSectorCenters</text>
</a>
</g>
</g>
<!-- Node1&#45;&gt;Node10 -->
<g id="edge9" class="edge">
<title>Node1&#45;&gt;Node10</title>
<path fill="none" stroke="midnightblue" d="M127.8,-269.25C153.79,-247.78 204.46,-208.87 254,-187.5 261.35,-184.33 269.16,-181.54 277.09,-179.08"/>
<polygon fill="midnightblue" stroke="midnightblue" points="278.18,-182.41 286.8,-176.25 276.22,-175.69 278.18,-182.41"/>
</g>
<!-- Node11 -->
<g id="node11" class="node">
<title>Node11</title>
<g id="a_node11"><a xlink:href="classgpuNUFFT_1_1GpuNUFFTOperator.html#a3e73693f0e4985e3c40dcdd8b0a76f40" target="_top" xlink:title=" ">
<polygon fill="none" stroke="black" points="287,-98.5 287,-128.5 445,-128.5 445,-98.5 287,-98.5"/>
<text text-anchor="start" x="295" y="-116.5" font-family="FreeSans.ttf" font-size="10.00">gpuNUFFT::GpuNUFFTOperator</text>
<text text-anchor="middle" x="366" y="-105.5" font-family="FreeSans.ttf" font-size="10.00">::setSectorDataCount</text>
</a>
</g>
</g>
<!-- Node1&#45;&gt;Node11 -->
<g id="edge10" class="edge">
<title>Node1&#45;&gt;Node11</title>
<path fill="none" stroke="midnightblue" d="M120.29,-269.32C141.52,-239.27 193.31,-172.2 254,-138.5 261.26,-134.47 269.13,-131.09 277.22,-128.25"/>
<polygon fill="midnightblue" stroke="midnightblue" points="278.34,-131.56 286.78,-125.16 276.19,-124.9 278.34,-131.56"/>
</g>
<!-- Node12 -->
<g id="node12" class="node">
<title>Node12</title>
<g id="a_node12"><a xlink:href="classgpuNUFFT_1_1BalancedTextureGpuNUFFTOperator.html#a8561191acd6b6ddf41ee449b3080ca9b" target="_top" xlink:title=" ">
<polygon fill="none" stroke="black" points="254,-49.5 254,-79.5 478,-79.5 478,-49.5 254,-49.5"/>
<text text-anchor="start" x="262" y="-67.5" font-family="FreeSans.ttf" font-size="10.00">gpuNUFFT::BalancedTexture</text>
<text text-anchor="middle" x="366" y="-56.5" font-family="FreeSans.ttf" font-size="10.00">GpuNUFFTOperator::setSectorProcessingOrder</text>
</a>
</g>
</g>
<!-- Node1&#45;&gt;Node12 -->
<g id="edge11" class="edge">
<title>Node1&#45;&gt;Node12</title>
<path fill="none" stroke="midnightblue" d="M116.51,-269.44C133.35,-232.39 182.1,-136.41 254,-89.5 257.16,-87.44 260.47,-85.54 263.89,-83.8"/>
<polygon fill="midnightblue" stroke="midnightblue" points="265.53,-86.9 273.16,-79.55 262.61,-80.54 265.53,-86.9"/>
</g>
<!-- Node13 -->
<g id="node13" class="node">
<title>Node13</title>
<g id="a_node13"><a xlink:href="classgpuNUFFT_1_1GpuNUFFTOperator.html#adbc6f59fc4a4998a4ad5bb65c38b1f03" target="_top" xlink:title=" ">
<polygon fill="none" stroke="black" points="287,-0.5 287,-30.5 445,-30.5 445,-0.5 287,-0.5"/>
<text text-anchor="start" x="295" y="-18.5" font-family="FreeSans.ttf" font-size="10.00">gpuNUFFT::GpuNUFFTOperator</text>
<text text-anchor="middle" x="366" y="-7.5" font-family="FreeSans.ttf" font-size="10.00">::setSens</text>
</a>
</g>
</g>
<!-- Node1&#45;&gt;Node13 -->
<g id="edge12" class="edge">
<title>Node1&#45;&gt;Node13</title>
<path fill="none" stroke="midnightblue" d="M114.28,-269.28C127.3,-225.95 170.71,-101.18 254,-40.5 261.08,-35.35 269.03,-31.23 277.34,-27.94"/>
<polygon fill="midnightblue" stroke="midnightblue" points="278.6,-31.21 286.86,-24.57 276.26,-24.61 278.6,-31.21"/>
</g>
</g>
</svg>
