<?xml version="1.0" encoding="UTF-8" standalone="no"?>
<!DOCTYPE svg PUBLIC "-//W3C//DTD SVG 1.1//EN"
 "http://www.w3.org/Graphics/SVG/1.1/DTD/svg11.dtd">
<!-- Generated by graphviz version 2.49.3 (20211027.1534)
 -->
<!-- Title: GpuNUFFTPythonOperator::data_consistency Pages: 1 -->
<svg width="494pt" height="393pt"
 viewBox="0.00 0.00 494.00 393.00" xmlns="http://www.w3.org/2000/svg" xmlns:xlink="http://www.w3.org/1999/xlink">
<g id="graph0" class="graph" transform="scale(1 1) rotate(0) translate(4 389)">
<title>GpuNUFFTPythonOperator::data_consistency</title>
<!-- Node1 -->
<g id="node1" class="node">
<title>Node1</title>
<g id="a_node1"><a xlink:title=" ">
<polygon fill="#bfbfbf" stroke="black" points="0,-189 0,-219 135,-219 135,-189 0,-189"/>
<text text-anchor="start" x="8" y="-207" font-family="FreeSans.ttf" font-size="10.00">GpuNUFFTPythonOperator</text>
<text text-anchor="middle" x="67.5" y="-196" font-family="FreeSans.ttf" font-size="10.00">::data_consistency</text>
</a>
</g>
</g>
<!-- Node2 -->
<g id="node2" class="node">
<title>Node2</title>
<g id="a_node2"><a xlink:href="cuda__utils_8hpp.html#a18413e749218eb97bc61578b50a57787" target="_top" xlink:title="CUDA memory allocation and memcpy call to copy data from host to device.">
<polygon fill="none" stroke="black" points="174,-365.5 174,-384.5 326,-384.5 326,-365.5 174,-365.5"/>
<text text-anchor="middle" x="250" y="-372.5" font-family="FreeSans.ttf" font-size="10.00">allocateAndCopyToDeviceMem</text>
</a>
</g>
</g>
<!-- Node1&#45;&gt;Node2 -->
<g id="edge1" class="edge">
<title>Node1&#45;&gt;Node2</title>
<path fill="none" stroke="midnightblue" d="M74.32,-219.26C86.92,-250.19 119.8,-320.35 171,-356 173.89,-358.01 176.97,-359.81 180.17,-361.42"/>
<polygon fill="midnightblue" stroke="midnightblue" points="178.91,-364.69 189.47,-365.48 181.7,-358.27 178.91,-364.69"/>
</g>
<!-- Node3 -->
<g id="node3" class="node">
<title>Node3</title>
<g id="a_node3"><a xlink:href="cuda__utils_8hpp.html#a5fb34b1c5f091a495c7ac4237257d7b1" target="_top" xlink:title="Allocation of device memory of the given extent for the defined type.">
<polygon fill="none" stroke="black" points="199,-327.5 199,-346.5 301,-346.5 301,-327.5 199,-327.5"/>
<text text-anchor="middle" x="250" y="-334.5" font-family="FreeSans.ttf" font-size="10.00">allocateDeviceMem</text>
</a>
</g>
</g>
<!-- Node1&#45;&gt;Node3 -->
<g id="edge2" class="edge">
<title>Node1&#45;&gt;Node3</title>
<path fill="none" stroke="midnightblue" d="M77.77,-219.21C93.65,-243.93 128.51,-292.6 171,-318 176.57,-321.33 182.7,-324.08 189,-326.35"/>
<polygon fill="midnightblue" stroke="midnightblue" points="188.39,-329.83 198.98,-329.53 190.51,-323.16 188.39,-329.83"/>
</g>
<!-- Node4 -->
<g id="node4" class="node">
<title>Node4</title>
<g id="a_node4"><a xlink:href="cuda__utils_8hpp.html#a0e734eacdc00ba553d77aa057e02059b" target="_top" xlink:title="Copy CUDA memory from device to host asynchronously.">
<polygon fill="none" stroke="black" points="192,-289.5 192,-308.5 308,-308.5 308,-289.5 192,-289.5"/>
<text text-anchor="middle" x="250" y="-296.5" font-family="FreeSans.ttf" font-size="10.00">copyFromDeviceAsync</text>
</a>
</g>
</g>
<!-- Node1&#45;&gt;Node4 -->
<g id="edge3" class="edge">
<title>Node1&#45;&gt;Node4</title>
<path fill="none" stroke="midnightblue" d="M84.56,-219.17C103.69,-236.41 137.3,-264.2 171,-280 176.25,-282.46 181.86,-284.63 187.57,-286.53"/>
<polygon fill="midnightblue" stroke="midnightblue" points="186.64,-289.9 197.23,-289.48 188.69,-283.21 186.64,-289.9"/>
</g>
<!-- Node5 -->
<g id="node5" class="node">
<title>Node5</title>
<g id="a_node5"><a xlink:href="python__utils_8hpp.html#a6fc45707d1f047d4232b16582576b2e6" target="_top" xlink:title=" ">
<polygon fill="none" stroke="black" points="205,-251.5 205,-270.5 295,-270.5 295,-251.5 205,-251.5"/>
<text text-anchor="middle" x="250" y="-258.5" font-family="FreeSans.ttf" font-size="10.00">copyNumpyArray</text>
</a>
</g>
</g>
<!-- Node1&#45;&gt;Node5 -->
<g id="edge4" class="edge">
<title>Node1&#45;&gt;Node5</title>
<path fill="none" stroke="midnightblue" d="M106.11,-219.14C125.34,-226.57 149.22,-235.34 171,-242 179.05,-244.46 187.64,-246.82 196.06,-248.99"/>
<polygon fill="midnightblue" stroke="midnightblue" points="195.29,-252.4 205.84,-251.43 196.99,-245.61 195.29,-252.4"/>
</g>
<!-- Node6 -->
<g id="node6" class="node">
<title>Node6</title>
<g id="a_node6"><a xlink:href="cuda__utils_8hpp.html#a52e9a7f2a2d5bed73e0e9e7d367b1198" target="_top" xlink:title="CUDA memcpy call to copy data from host to device.">
<polygon fill="none" stroke="black" points="211,-213.5 211,-232.5 289,-232.5 289,-213.5 211,-213.5"/>
<text text-anchor="middle" x="250" y="-220.5" font-family="FreeSans.ttf" font-size="10.00">copyToDevice</text>
</a>
</g>
</g>
<!-- Node1&#45;&gt;Node6 -->
<g id="edge5" class="edge">
<title>Node1&#45;&gt;Node6</title>
<path fill="none" stroke="midnightblue" d="M135.2,-211.02C156.92,-213.31 180.6,-215.8 200.7,-217.92"/>
<polygon fill="midnightblue" stroke="midnightblue" points="200.55,-221.42 210.86,-218.99 201.29,-214.46 200.55,-221.42"/>
</g>
<!-- Node7 -->
<g id="node7" class="node">
<title>Node7</title>
<g id="a_node7"><a xlink:href="structgpuNUFFT_1_1Array.html#af426f56b5d7e05b6143acbdd51bac188" target="_top" xlink:title=" ">
<polygon fill="none" stroke="black" points="189.5,-175.5 189.5,-194.5 310.5,-194.5 310.5,-175.5 189.5,-175.5"/>
<text text-anchor="middle" x="250" y="-182.5" font-family="FreeSans.ttf" font-size="10.00">gpuNUFFT::Array::count</text>
</a>
</g>
</g>
<!-- Node1&#45;&gt;Node7 -->
<g id="edge6" class="edge">
<title>Node1&#45;&gt;Node7</title>
<path fill="none" stroke="midnightblue" d="M135.2,-196.98C149.5,-195.47 164.65,-193.88 179.08,-192.36"/>
<polygon fill="midnightblue" stroke="midnightblue" points="179.85,-195.8 189.43,-191.27 179.11,-188.84 179.85,-195.8"/>
</g>
<!-- Node9 -->
<g id="node9" class="node">
<title>Node9</title>
<g id="a_node9"><a xlink:href="gpuNUFFT__kernels_8hpp.html#a7ea425f71e9b13006582e6280512f11c" target="_top" xlink:title="Perform data1 = data1 &#45; data2.">
<polygon fill="none" stroke="black" points="219,-137.5 219,-156.5 281,-156.5 281,-137.5 219,-137.5"/>
<text text-anchor="middle" x="250" y="-144.5" font-family="FreeSans.ttf" font-size="10.00">diffInPlace</text>
</a>
</g>
</g>
<!-- Node1&#45;&gt;Node9 -->
<g id="edge8" class="edge">
<title>Node1&#45;&gt;Node9</title>
<path fill="none" stroke="midnightblue" d="M106.11,-188.86C125.34,-181.43 149.22,-172.66 171,-166 183.18,-162.27 196.61,-158.78 208.84,-155.84"/>
<polygon fill="midnightblue" stroke="midnightblue" points="209.84,-159.2 218.78,-153.5 208.24,-152.38 209.84,-159.2"/>
</g>
<!-- Node10 -->
<g id="node10" class="node">
<title>Node10</title>
<g id="a_node10"><a xlink:href="classgpuNUFFT_1_1GpuNUFFTOperator.html#a10d565529aa2c7778c15edb8a820b417" target="_top" xlink:title="Perform forward gridding operation on given kspaceData.">
<polygon fill="none" stroke="black" points="171,-88 171,-118 329,-118 329,-88 171,-88"/>
<text text-anchor="start" x="179" y="-106" font-family="FreeSans.ttf" font-size="10.00">gpuNUFFT::GpuNUFFTOperator</text>
<text text-anchor="middle" x="250" y="-95" font-family="FreeSans.ttf" font-size="10.00">::performForwardGpuNUFFT</text>
</a>
</g>
</g>
<!-- Node1&#45;&gt;Node10 -->
<g id="edge9" class="edge">
<title>Node1&#45;&gt;Node10</title>
<path fill="none" stroke="midnightblue" d="M85.12,-188.95C104.49,-172.09 138.08,-144.89 171,-128 175.28,-125.8 179.79,-123.75 184.4,-121.84"/>
<polygon fill="midnightblue" stroke="midnightblue" points="185.9,-125.01 193.95,-118.13 183.36,-118.49 185.9,-125.01"/>
</g>
<!-- Node11 -->
<g id="node11" class="node">
<title>Node11</title>
<g id="a_node11"><a xlink:href="classgpuNUFFT_1_1GpuNUFFTOperator.html#a38a45507d840b8d3d97de7fc79b4fa8a" target="_top" xlink:title="Perform Adjoint gridding operation on given kspaceData.">
<polygon fill="none" stroke="black" points="171,-39 171,-69 329,-69 329,-39 171,-39"/>
<text text-anchor="start" x="179" y="-57" font-family="FreeSans.ttf" font-size="10.00">gpuNUFFT::GpuNUFFTOperator</text>
<text text-anchor="middle" x="250" y="-46" font-family="FreeSans.ttf" font-size="10.00">::performGpuNUFFTAdj</text>
</a>
</g>
</g>
<!-- Node1&#45;&gt;Node11 -->
<g id="edge10" class="edge">
<title>Node1&#45;&gt;Node11</title>
<path fill="none" stroke="midnightblue" d="M76.87,-188.92C92.17,-162.74 127.14,-108.82 171,-79 173.91,-77.02 176.99,-75.19 180.17,-73.5"/>
<polygon fill="midnightblue" stroke="midnightblue" points="181.87,-76.57 189.38,-69.09 178.85,-70.25 181.87,-76.57"/>
</g>
<!-- Node12 -->
<g id="node12" class="node">
<title>Node12</title>
<g id="a_node12"><a xlink:href="python__utils_8hpp.html#aeb74d2cb99381f659a6890373021e833" target="_top" xlink:title=" ">
<polygon fill="none" stroke="black" points="205.5,-0.5 205.5,-19.5 294.5,-19.5 294.5,-0.5 205.5,-0.5"/>
<text text-anchor="middle" x="250" y="-7.5" font-family="FreeSans.ttf" font-size="10.00">readNumpyArray</text>
</a>
</g>
</g>
<!-- Node1&#45;&gt;Node12 -->
<g id="edge11" class="edge">
<title>Node1&#45;&gt;Node12</title>
<path fill="none" stroke="midnightblue" d="M72.94,-188.97C83.76,-155.05 114.82,-72.25 171,-30 178.23,-24.57 186.78,-20.6 195.52,-17.71"/>
<polygon fill="midnightblue" stroke="midnightblue" points="196.77,-21 205.42,-14.88 194.85,-14.27 196.77,-21"/>
</g>
<!-- Node8 -->
<g id="node8" class="node">
<title>Node8</title>
<g id="a_node8"><a xlink:href="structgpuNUFFT_1_1Dimensions.html#a4c589934c5444910fbcd890d128229c9" target="_top" xlink:title="Compute total count of array length.">
<polygon fill="none" stroke="black" points="365,-170 365,-200 486,-200 486,-170 365,-170"/>
<text text-anchor="start" x="373" y="-188" font-family="FreeSans.ttf" font-size="10.00">gpuNUFFT::Dimensions</text>
<text text-anchor="middle" x="425.5" y="-177" font-family="FreeSans.ttf" font-size="10.00">::count</text>
</a>
</g>
</g>
<!-- Node7&#45;&gt;Node8 -->
<g id="edge7" class="edge">
<title>Node7&#45;&gt;Node8</title>
<path fill="none" stroke="midnightblue" d="M310.71,-185C324.96,-185 340.3,-185 354.96,-185"/>
<polygon fill="midnightblue" stroke="midnightblue" points="354.98,-188.5 364.98,-185 354.98,-181.5 354.98,-188.5"/>
</g>
</g>
</svg>
