<?xml version="1.0" encoding="UTF-8" standalone="no"?>
<!DOCTYPE svg PUBLIC "-//W3C//DTD SVG 1.1//EN"
 "http://www.w3.org/Graphics/SVG/1.1/DTD/svg11.dtd">
<!-- Generated by graphviz version 2.49.3 (20211027.1534)
 -->
<!-- Title: gpuNUFFT::GpuNUFFTOperatorFactory::assignSectors Pages: 1 -->
<svg width="517pt" height="464pt"
 viewBox="0.00 0.00 517.00 463.50" xmlns="http://www.w3.org/2000/svg" xmlns:xlink="http://www.w3.org/1999/xlink">
<g id="graph0" class="graph" transform="scale(1 1) rotate(0) translate(4 459.5)">
<title>gpuNUFFT::GpuNUFFTOperatorFactory::assignSectors</title>
<!-- Node1 -->
<g id="node1" class="node">
<title>Node1</title>
<g id="a_node1"><a xlink:title="Assign the samples on the k&#45;space trajectory to its corresponding sector.">
<polygon fill="#bfbfbf" stroke="black" points="0,-240.5 0,-270.5 158,-270.5 158,-240.5 0,-240.5"/>
<text text-anchor="start" x="8" y="-258.5" font-family="FreeSans.ttf" font-size="10.00">gpuNUFFT::GpuNUFFTOperator</text>
<text text-anchor="middle" x="79" y="-247.5" font-family="FreeSans.ttf" font-size="10.00">Factory::assignSectors</text>
</a>
</g>
</g>
<!-- Node2 -->
<g id="node2" class="node">
<title>Node2</title>
<g id="a_node2"><a xlink:href="precomp__kernels_8hpp.html#a4003dacd41020a62c76325175c9068d5" target="_top" xlink:title="Perform assign sectors operation on GPU.">
<polygon fill="none" stroke="black" points="222.5,-436 222.5,-455 323.5,-455 323.5,-436 222.5,-436"/>
<text text-anchor="middle" x="273" y="-443" font-family="FreeSans.ttf" font-size="10.00">assignSectorsGPU</text>
</a>
</g>
</g>
<!-- Node1&#45;&gt;Node2 -->
<g id="edge1" class="edge">
<title>Node1&#45;&gt;Node2</title>
<path fill="none" stroke="midnightblue" d="M85.59,-270.59C98.85,-304.22 135.55,-385.57 194,-426.5 199.6,-430.42 205.92,-433.54 212.47,-436.01"/>
<polygon fill="midnightblue" stroke="midnightblue" points="211.59,-439.41 222.19,-439.2 213.78,-432.76 211.59,-439.41"/>
</g>
<!-- Node3 -->
<g id="node3" class="node">
<title>Node3</title>
<g id="a_node3"><a xlink:href="precomp__utils_8hpp.html#a6d36997a72f9a462f973bf06f3029dba" target="_top" xlink:title="Compute linear index from 2&#45;d point in grid defined by dim.">
<polygon fill="none" stroke="black" points="227,-398 227,-417 319,-417 319,-398 227,-398"/>
<text text-anchor="middle" x="273" y="-405" font-family="FreeSans.ttf" font-size="10.00">computeInd22Lin</text>
</a>
</g>
</g>
<!-- Node1&#45;&gt;Node3 -->
<g id="edge2" class="edge">
<title>Node1&#45;&gt;Node3</title>
<path fill="none" stroke="midnightblue" d="M88.48,-270.55C104.99,-298.41 144.24,-357.95 194,-388.5 201.01,-392.8 208.93,-396.13 216.97,-398.71"/>
<polygon fill="midnightblue" stroke="midnightblue" points="216.21,-402.13 226.79,-401.49 218.12,-395.39 216.21,-402.13"/>
</g>
<!-- Node4 -->
<g id="node4" class="node">
<title>Node4</title>
<g id="a_node4"><a xlink:href="precomp__utils_8hpp.html#a119c87536bafb310c0d75f8a5f602b54" target="_top" xlink:title="Compute linear index from 3&#45;d point in grid defined by dim.">
<polygon fill="none" stroke="black" points="227,-360 227,-379 319,-379 319,-360 227,-360"/>
<text text-anchor="middle" x="273" y="-367" font-family="FreeSans.ttf" font-size="10.00">computeInd32Lin</text>
</a>
</g>
</g>
<!-- Node1&#45;&gt;Node4 -->
<g id="edge3" class="edge">
<title>Node1&#45;&gt;Node4</title>
<path fill="none" stroke="midnightblue" d="M93.9,-270.84C113.93,-291.99 153.05,-329.86 194,-350.5 201.09,-354.07 208.88,-357 216.72,-359.38"/>
<polygon fill="midnightblue" stroke="midnightblue" points="216.05,-362.83 226.62,-362.13 217.92,-356.08 216.05,-362.83"/>
</g>
<!-- Node5 -->
<g id="node5" class="node">
<title>Node5</title>
<g id="a_node5"><a xlink:href="precomp__utils_8hpp.html#a2690913ec6a8065288eae152dd01056c" target="_top" xlink:title="Compute Sector Mapping for one coordinate based on the sector count.">
<polygon fill="none" stroke="black" points="213.5,-322 213.5,-341 332.5,-341 332.5,-322 213.5,-322"/>
<text text-anchor="middle" x="273" y="-329" font-family="FreeSans.ttf" font-size="10.00">computeSectorMapping</text>
</a>
</g>
</g>
<!-- Node1&#45;&gt;Node5 -->
<g id="edge4" class="edge">
<title>Node1&#45;&gt;Node5</title>
<path fill="none" stroke="midnightblue" d="M105.97,-270.6C128.6,-283.24 162.63,-301 194,-312.5 200.84,-315.01 208.13,-317.28 215.42,-319.31"/>
<polygon fill="midnightblue" stroke="midnightblue" points="214.73,-322.75 225.29,-321.94 216.53,-315.99 214.73,-322.75"/>
</g>
<!-- Node6 -->
<g id="node6" class="node">
<title>Node6</title>
<g id="a_node6"><a xlink:href="structgpuNUFFT_1_1Array.html#af426f56b5d7e05b6143acbdd51bac188" target="_top" xlink:title=" ">
<polygon fill="none" stroke="black" points="212.5,-284 212.5,-303 333.5,-303 333.5,-284 212.5,-284"/>
<text text-anchor="middle" x="273" y="-291" font-family="FreeSans.ttf" font-size="10.00">gpuNUFFT::Array::count</text>
</a>
</g>
</g>
<!-- Node1&#45;&gt;Node6 -->
<g id="edge5" class="edge">
<title>Node1&#45;&gt;Node6</title>
<path fill="none" stroke="midnightblue" d="M155.88,-270.52C175.25,-274.35 195.76,-278.41 214.07,-282.04"/>
<polygon fill="midnightblue" stroke="midnightblue" points="213.51,-285.49 224,-284 214.87,-278.62 213.51,-285.49"/>
</g>
<!-- Node8 -->
<g id="node8" class="node">
<title>Node8</title>
<g id="a_node8"><a xlink:href="gpuNUFFT__fft__tests_8cpp.html#a1267fc514127315f25ad48e26de77b8c" target="_top" xlink:title=" ">
<polygon fill="none" stroke="black" points="251.5,-246 251.5,-265 294.5,-265 294.5,-246 251.5,-246"/>
<text text-anchor="middle" x="273" y="-253" font-family="FreeSans.ttf" font-size="10.00">debug</text>
</a>
</g>
</g>
<!-- Node1&#45;&gt;Node8 -->
<g id="edge7" class="edge">
<title>Node1&#45;&gt;Node8</title>
<path fill="none" stroke="midnightblue" d="M158.09,-255.5C187.18,-255.5 218.54,-255.5 240.98,-255.5"/>
<polygon fill="midnightblue" stroke="midnightblue" points="241.22,-259 251.22,-255.5 241.22,-252 241.22,-259"/>
</g>
<!-- Node10 -->
<g id="node10" class="node">
<title>Node10</title>
<g id="a_node10"><a xlink:href="classgpuNUFFT_1_1GpuNUFFTOperator.html#a9d1a701e1bb5e75b3264f77aa597238b" target="_top" xlink:title=" ">
<polygon fill="none" stroke="black" points="194,-196.5 194,-226.5 352,-226.5 352,-196.5 194,-196.5"/>
<text text-anchor="start" x="202" y="-214.5" font-family="FreeSans.ttf" font-size="10.00">gpuNUFFT::GpuNUFFTOperator</text>
<text text-anchor="middle" x="273" y="-203.5" font-family="FreeSans.ttf" font-size="10.00">::getGridDims</text>
</a>
</g>
</g>
<!-- Node1&#45;&gt;Node10 -->
<g id="edge9" class="edge">
<title>Node1&#45;&gt;Node10</title>
<path fill="none" stroke="midnightblue" d="M145.54,-240.48C161.98,-236.71 179.74,-232.64 196.62,-228.78"/>
<polygon fill="midnightblue" stroke="midnightblue" points="197.47,-232.17 206.43,-226.53 195.9,-225.35 197.47,-232.17"/>
</g>
<!-- Node11 -->
<g id="node11" class="node">
<title>Node11</title>
<g id="a_node11"><a xlink:href="classgpuNUFFT_1_1GpuNUFFTOperator.html#a827308da49fcedc4725cf9509dd2a3c0" target="_top" xlink:title=" ">
<polygon fill="none" stroke="black" points="194,-147.5 194,-177.5 352,-177.5 352,-147.5 194,-147.5"/>
<text text-anchor="start" x="202" y="-165.5" font-family="FreeSans.ttf" font-size="10.00">gpuNUFFT::GpuNUFFTOperator</text>
<text text-anchor="middle" x="273" y="-154.5" font-family="FreeSans.ttf" font-size="10.00">::getGridSectorDims</text>
</a>
</g>
</g>
<!-- Node1&#45;&gt;Node11 -->
<g id="edge10" class="edge">
<title>Node1&#45;&gt;Node11</title>
<path fill="none" stroke="midnightblue" d="M101.4,-240.34C123.68,-225.1 160.01,-201.73 194,-186.5 198.3,-184.57 202.8,-182.74 207.37,-181.01"/>
<polygon fill="midnightblue" stroke="midnightblue" points="208.6,-184.29 216.82,-177.61 206.23,-177.71 208.6,-184.29"/>
</g>
<!-- Node12 -->
<g id="node12" class="node">
<title>Node12</title>
<g id="a_node12"><a xlink:href="classgpuNUFFT_1_1GpuNUFFTOperator.html#a26762c7cb13205226b6f77c37a57d8a9" target="_top" xlink:title=" ">
<polygon fill="none" stroke="black" points="194,-98.5 194,-128.5 352,-128.5 352,-98.5 194,-98.5"/>
<text text-anchor="start" x="202" y="-116.5" font-family="FreeSans.ttf" font-size="10.00">gpuNUFFT::GpuNUFFTOperator</text>
<text text-anchor="middle" x="273" y="-105.5" font-family="FreeSans.ttf" font-size="10.00">::getSectorWidth</text>
</a>
</g>
</g>
<!-- Node1&#45;&gt;Node12 -->
<g id="edge11" class="edge">
<title>Node1&#45;&gt;Node12</title>
<path fill="none" stroke="midnightblue" d="M90.49,-240.48C108.7,-215.49 148.6,-165.37 194,-137.5 196.78,-135.8 199.68,-134.2 202.68,-132.72"/>
<polygon fill="midnightblue" stroke="midnightblue" points="204.19,-135.87 211.86,-128.57 201.31,-129.49 204.19,-135.87"/>
</g>
<!-- Node13 -->
<g id="node13" class="node">
<title>Node13</title>
<g id="a_node13"><a xlink:href="classgpuNUFFT_1_1GpuNUFFTOperator.html#a635c1cf91573264cafb1f3df27fdf976" target="_top" xlink:title=" ">
<polygon fill="none" stroke="black" points="194,-49.5 194,-79.5 352,-79.5 352,-49.5 194,-49.5"/>
<text text-anchor="start" x="202" y="-67.5" font-family="FreeSans.ttf" font-size="10.00">gpuNUFFT::GpuNUFFTOperator</text>
<text text-anchor="middle" x="273" y="-56.5" font-family="FreeSans.ttf" font-size="10.00">::is2DProcessing</text>
</a>
</g>
</g>
<!-- Node1&#45;&gt;Node13 -->
<g id="edge12" class="edge">
<title>Node1&#45;&gt;Node13</title>
<path fill="none" stroke="midnightblue" d="M86.29,-240.02C100.45,-207.09 138.05,-129.74 194,-88.5 196.05,-86.99 198.19,-85.58 200.4,-84.25"/>
<polygon fill="midnightblue" stroke="midnightblue" points="202.06,-87.33 209.26,-79.56 198.78,-81.15 202.06,-87.33"/>
</g>
<!-- Node14 -->
<g id="node14" class="node">
<title>Node14</title>
<g id="a_node14"><a xlink:href="classgpuNUFFT_1_1GpuNUFFTOperator.html#a6ee83e8e5f1afd1c7d7d4dc765e78b79" target="_top" xlink:title=" ">
<polygon fill="none" stroke="black" points="194,-0.5 194,-30.5 352,-30.5 352,-0.5 194,-0.5"/>
<text text-anchor="start" x="202" y="-18.5" font-family="FreeSans.ttf" font-size="10.00">gpuNUFFT::GpuNUFFTOperator</text>
<text text-anchor="middle" x="273" y="-7.5" font-family="FreeSans.ttf" font-size="10.00">::setGridSectorDims</text>
</a>
</g>
</g>
<!-- Node1&#45;&gt;Node14 -->
<g id="edge13" class="edge">
<title>Node1&#45;&gt;Node14</title>
<path fill="none" stroke="midnightblue" d="M83.65,-240.38C93.91,-201.13 126.73,-95.22 194,-39.5 195.55,-38.21 197.18,-36.99 198.86,-35.84"/>
<polygon fill="midnightblue" stroke="midnightblue" points="200.86,-38.72 207.67,-30.6 197.28,-32.7 200.86,-38.72"/>
</g>
<!-- Node7 -->
<g id="node7" class="node">
<title>Node7</title>
<g id="a_node7"><a xlink:href="structgpuNUFFT_1_1Dimensions.html#a4c589934c5444910fbcd890d128229c9" target="_top" xlink:title="Compute total count of array length.">
<polygon fill="none" stroke="black" points="388,-281.5 388,-311.5 509,-311.5 509,-281.5 388,-281.5"/>
<text text-anchor="start" x="396" y="-299.5" font-family="FreeSans.ttf" font-size="10.00">gpuNUFFT::Dimensions</text>
<text text-anchor="middle" x="448.5" y="-288.5" font-family="FreeSans.ttf" font-size="10.00">::count</text>
</a>
</g>
</g>
<!-- Node6&#45;&gt;Node7 -->
<g id="edge6" class="edge">
<title>Node6&#45;&gt;Node7</title>
<path fill="none" stroke="midnightblue" d="M333.71,-294.53C347.96,-294.78 363.3,-295.04 377.96,-295.3"/>
<polygon fill="midnightblue" stroke="midnightblue" points="377.92,-298.8 387.98,-295.47 378.04,-291.8 377.92,-298.8"/>
</g>
<!-- Node9 -->
<g id="node9" class="node">
<title>Node9</title>
<g id="a_node9"><a xlink:href="precomp__utils_8hpp.html#abe84080342fe3565651b846659b1faba" target="_top" xlink:title="Compute linear index from 3&#45;d point in grid defined by dim.">
<polygon fill="none" stroke="black" points="402.5,-243 402.5,-262 494.5,-262 494.5,-243 402.5,-243"/>
<text text-anchor="middle" x="448.5" y="-250" font-family="FreeSans.ttf" font-size="10.00">computeXYZ2Lin</text>
</a>
</g>
</g>
<!-- Node8&#45;&gt;Node9 -->
<g id="edge8" class="edge">
<title>Node8&#45;&gt;Node9</title>
<path fill="none" stroke="midnightblue" d="M294.58,-255.14C318.5,-254.73 358.93,-254.03 392.22,-253.46"/>
<polygon fill="midnightblue" stroke="midnightblue" points="392.36,-256.95 402.29,-253.28 392.23,-249.96 392.36,-256.95"/>
</g>
</g>
</svg>
