<?xml version="1.0" encoding="UTF-8" standalone="no"?>
<!DOCTYPE svg PUBLIC "-//W3C//DTD SVG 1.1//EN"
 "http://www.w3.org/Graphics/SVG/1.1/DTD/svg11.dtd">
<!-- Generated by graphviz version 2.49.3 (20211027.1534)
 -->
<!-- Title: gpuNUFFT::GpuNUFFTOperatorFactory::computeDeapodizationFunction Pages: 1 -->
<svg width="585pt" height="545pt"
 viewBox="0.00 0.00 585.00 544.87" xmlns="http://www.w3.org/2000/svg" xmlns:xlink="http://www.w3.org/1999/xlink">
<g id="graph0" class="graph" transform="scale(1 1) rotate(0) translate(4 540.87)">
<title>gpuNUFFT::GpuNUFFTOperatorFactory::computeDeapodizationFunction</title>
<!-- Node1 -->
<g id="node1" class="node">
<title>Node1</title>
<g id="a_node1"><a xlink:title="Computation of the deapodization function.">
<polygon fill="#bfbfbf" stroke="black" points="0,-269.5 0,-299.5 189,-299.5 189,-269.5 0,-269.5"/>
<text text-anchor="start" x="8" y="-287.5" font-family="FreeSans.ttf" font-size="10.00">gpuNUFFT::GpuNUFFTOperator</text>
<text text-anchor="middle" x="94.5" y="-276.5" font-family="FreeSans.ttf" font-size="10.00">Factory::computeDeapodizationFunction</text>
</a>
</g>
</g>
<!-- Node2 -->
<g id="node2" class="node">
<title>Node2</title>
<g id="a_node2"><a xlink:href="structgpuNUFFT_1_1Dimensions.html#a4c589934c5444910fbcd890d128229c9" target="_top" xlink:title="Compute total count of array length.">
<polygon fill="none" stroke="black" points="437.5,-496.5 437.5,-526.5 558.5,-526.5 558.5,-496.5 437.5,-496.5"/>
<text text-anchor="start" x="445.5" y="-514.5" font-family="FreeSans.ttf" font-size="10.00">gpuNUFFT::Dimensions</text>
<text text-anchor="middle" x="498" y="-503.5" font-family="FreeSans.ttf" font-size="10.00">::count</text>
</a>
</g>
</g>
<!-- Node1&#45;&gt;Node2 -->
<g id="edge1" class="edge">
<title>Node1&#45;&gt;Node2</title>
<path fill="none" stroke="midnightblue" d="M98.8,-299.59C108.92,-341.81 143.94,-461.13 225,-508.5 286.86,-544.65 370.94,-539 429.17,-528.41"/>
<polygon fill="midnightblue" stroke="midnightblue" points="429.84,-531.84 439.01,-526.52 428.53,-524.97 429.84,-531.84"/>
</g>
<!-- Node3 -->
<g id="node3" class="node">
<title>Node3</title>
<g id="a_node3"><a xlink:href="structgpuNUFFT_1_1Array.html#af426f56b5d7e05b6143acbdd51bac188" target="_top" xlink:title=" ">
<polygon fill="none" stroke="black" points="243.5,-480 243.5,-499 364.5,-499 364.5,-480 243.5,-480"/>
<text text-anchor="middle" x="304" y="-487" font-family="FreeSans.ttf" font-size="10.00">gpuNUFFT::Array::count</text>
</a>
</g>
</g>
<!-- Node1&#45;&gt;Node3 -->
<g id="edge2" class="edge">
<title>Node1&#45;&gt;Node3</title>
<path fill="none" stroke="midnightblue" d="M101.49,-299.57C116.5,-335.29 159.27,-425.46 225,-470.5 227.9,-472.49 231,-474.27 234.21,-475.87"/>
<polygon fill="midnightblue" stroke="midnightblue" points="232.96,-479.14 243.53,-479.89 235.74,-472.72 232.96,-479.14"/>
</g>
<!-- Node4 -->
<g id="node4" class="node">
<title>Node4</title>
<g id="a_node4"><a xlink:href="gpuNUFFT__fft__tests_8cpp.html#a1267fc514127315f25ad48e26de77b8c" target="_top" xlink:title=" ">
<polygon fill="none" stroke="black" points="282.5,-442 282.5,-461 325.5,-461 325.5,-442 282.5,-442"/>
<text text-anchor="middle" x="304" y="-449" font-family="FreeSans.ttf" font-size="10.00">debug</text>
</a>
</g>
</g>
<!-- Node1&#45;&gt;Node4 -->
<g id="edge4" class="edge">
<title>Node1&#45;&gt;Node4</title>
<path fill="none" stroke="midnightblue" d="M104.36,-299.82C122.74,-330.17 168.08,-397.96 225,-432.5 239.33,-441.2 257.41,-445.91 272.55,-448.47"/>
<polygon fill="midnightblue" stroke="midnightblue" points="272.08,-451.94 282.48,-449.92 273.09,-445.02 272.08,-451.94"/>
</g>
<!-- Node6 -->
<g id="node6" class="node">
<title>Node6</title>
<g id="a_node6"><a xlink:href="classgpuNUFFT_1_1GpuNUFFTOperatorFactory.html#a10b3740740ac08b85221e610849193cf" target="_top" xlink:title="Debug message.">
<polygon fill="none" stroke="black" points="225,-392.5 225,-422.5 383,-422.5 383,-392.5 225,-392.5"/>
<text text-anchor="start" x="233" y="-410.5" font-family="FreeSans.ttf" font-size="10.00">gpuNUFFT::GpuNUFFTOperator</text>
<text text-anchor="middle" x="304" y="-399.5" font-family="FreeSans.ttf" font-size="10.00">Factory::debug</text>
</a>
</g>
</g>
<!-- Node1&#45;&gt;Node6 -->
<g id="edge6" class="edge">
<title>Node1&#45;&gt;Node6</title>
<path fill="none" stroke="midnightblue" d="M111.38,-299.69C134.6,-321.15 179.97,-360.31 225,-383.5 228.68,-385.4 232.54,-387.17 236.49,-388.83"/>
<polygon fill="midnightblue" stroke="midnightblue" points="235.24,-392.1 245.82,-392.49 237.79,-385.58 235.24,-392.1"/>
</g>
<!-- Node7 -->
<g id="node7" class="node">
<title>Node7</title>
<g id="a_node7"><a xlink:href="classgpuNUFFT_1_1GpuNUFFTOperator.html#a9d1a701e1bb5e75b3264f77aa597238b" target="_top" xlink:title=" ">
<polygon fill="none" stroke="black" points="225,-343.5 225,-373.5 383,-373.5 383,-343.5 225,-343.5"/>
<text text-anchor="start" x="233" y="-361.5" font-family="FreeSans.ttf" font-size="10.00">gpuNUFFT::GpuNUFFTOperator</text>
<text text-anchor="middle" x="304" y="-350.5" font-family="FreeSans.ttf" font-size="10.00">::getGridDims</text>
</a>
</g>
</g>
<!-- Node1&#45;&gt;Node7 -->
<g id="edge7" class="edge">
<title>Node1&#45;&gt;Node7</title>
<path fill="none" stroke="midnightblue" d="M133.84,-299.6C159.52,-309.57 194.14,-322.72 225,-333.5 231.4,-335.74 238.13,-338.01 244.84,-340.22"/>
<polygon fill="midnightblue" stroke="midnightblue" points="244.01,-343.64 254.6,-343.42 246.19,-336.98 244.01,-343.64"/>
</g>
<!-- Node8 -->
<g id="node8" class="node">
<title>Node8</title>
<g id="a_node8"><a xlink:href="classgpuNUFFT_1_1GpuNUFFTOperator.html#ab63e41179a49929b7ebf3a83f76fada0" target="_top" xlink:title=" ">
<polygon fill="none" stroke="black" points="225,-294.5 225,-324.5 383,-324.5 383,-294.5 225,-294.5"/>
<text text-anchor="start" x="233" y="-312.5" font-family="FreeSans.ttf" font-size="10.00">gpuNUFFT::GpuNUFFTOperator</text>
<text text-anchor="middle" x="304" y="-301.5" font-family="FreeSans.ttf" font-size="10.00">::is3DProcessing</text>
</a>
</g>
</g>
<!-- Node1&#45;&gt;Node8 -->
<g id="edge8" class="edge">
<title>Node1&#45;&gt;Node8</title>
<path fill="none" stroke="midnightblue" d="M189.23,-295.79C197.71,-296.81 206.27,-297.85 214.7,-298.86"/>
<polygon fill="midnightblue" stroke="midnightblue" points="214.55,-302.37 224.89,-300.09 215.38,-295.42 214.55,-302.37"/>
</g>
<!-- Node10 -->
<g id="node10" class="node">
<title>Node10</title>
<g id="a_node10"><a xlink:href="classgpuNUFFT_1_1GpuNUFFTOperator.html#a38a45507d840b8d3d97de7fc79b4fa8a" target="_top" xlink:title="Perform Adjoint gridding operation on given kspaceData.">
<polygon fill="none" stroke="black" points="225,-245.5 225,-275.5 383,-275.5 383,-245.5 225,-245.5"/>
<text text-anchor="start" x="233" y="-263.5" font-family="FreeSans.ttf" font-size="10.00">gpuNUFFT::GpuNUFFTOperator</text>
<text text-anchor="middle" x="304" y="-252.5" font-family="FreeSans.ttf" font-size="10.00">::performGpuNUFFTAdj</text>
</a>
</g>
</g>
<!-- Node1&#45;&gt;Node10 -->
<g id="edge10" class="edge">
<title>Node1&#45;&gt;Node10</title>
<path fill="none" stroke="midnightblue" d="M189.23,-273.66C197.71,-272.68 206.27,-271.69 214.7,-270.71"/>
<polygon fill="midnightblue" stroke="midnightblue" points="215.36,-274.16 224.89,-269.53 214.56,-267.21 215.36,-274.16"/>
</g>
<!-- Node11 -->
<g id="node11" class="node">
<title>Node11</title>
<g id="a_node11"><a xlink:href="classgpuNUFFT_1_1GpuNUFFTOperator.html#a5dc3d4ddd0bfe7d8a75721c3ad1dc695" target="_top" xlink:title=" ">
<polygon fill="none" stroke="black" points="225,-196.5 225,-226.5 383,-226.5 383,-196.5 225,-196.5"/>
<text text-anchor="start" x="233" y="-214.5" font-family="FreeSans.ttf" font-size="10.00">gpuNUFFT::GpuNUFFTOperator</text>
<text text-anchor="middle" x="304" y="-203.5" font-family="FreeSans.ttf" font-size="10.00">::setDataIndices</text>
</a>
</g>
</g>
<!-- Node1&#45;&gt;Node11 -->
<g id="edge11" class="edge">
<title>Node1&#45;&gt;Node11</title>
<path fill="none" stroke="midnightblue" d="M133.24,-269.5C158.95,-259.46 193.85,-246.18 225,-235.5 230.81,-233.51 236.88,-231.51 242.96,-229.55"/>
<polygon fill="midnightblue" stroke="midnightblue" points="244.02,-232.89 252.5,-226.53 241.91,-226.22 244.02,-232.89"/>
</g>
<!-- Node12 -->
<g id="node12" class="node">
<title>Node12</title>
<g id="a_node12"><a xlink:href="classgpuNUFFT_1_1GpuNUFFTOperator.html#a6e85fdbc19547213ec0ad690305b4795" target="_top" xlink:title="Pass debug function pointer.">
<polygon fill="none" stroke="black" points="225,-147.5 225,-177.5 383,-177.5 383,-147.5 225,-147.5"/>
<text text-anchor="start" x="233" y="-165.5" font-family="FreeSans.ttf" font-size="10.00">gpuNUFFT::GpuNUFFTOperator</text>
<text text-anchor="middle" x="304" y="-154.5" font-family="FreeSans.ttf" font-size="10.00">::setDebugFunction</text>
</a>
</g>
</g>
<!-- Node1&#45;&gt;Node12 -->
<g id="edge12" class="edge">
<title>Node1&#45;&gt;Node12</title>
<path fill="none" stroke="midnightblue" d="M111.41,-269.48C134.66,-248.25 180.08,-209.5 225,-186.5 228.69,-184.61 232.55,-182.84 236.5,-181.19"/>
<polygon fill="midnightblue" stroke="midnightblue" points="237.8,-184.44 245.84,-177.54 235.25,-177.92 237.8,-184.44"/>
</g>
<!-- Node13 -->
<g id="node13" class="node">
<title>Node13</title>
<g id="a_node13"><a xlink:href="classgpuNUFFT_1_1GpuNUFFTOperator.html#a7b31403334f5722ed8ebb25fcf8e6cbc" target="_top" xlink:title=" ">
<polygon fill="none" stroke="black" points="225,-98.5 225,-128.5 383,-128.5 383,-98.5 225,-98.5"/>
<text text-anchor="start" x="233" y="-116.5" font-family="FreeSans.ttf" font-size="10.00">gpuNUFFT::GpuNUFFTOperator</text>
<text text-anchor="middle" x="304" y="-105.5" font-family="FreeSans.ttf" font-size="10.00">::setKSpaceTraj</text>
</a>
</g>
</g>
<!-- Node1&#45;&gt;Node13 -->
<g id="edge13" class="edge">
<title>Node1&#45;&gt;Node13</title>
<path fill="none" stroke="midnightblue" d="M104.86,-269.11C123.78,-239.26 169.58,-173.3 225,-137.5 227.45,-135.91 230.02,-134.43 232.66,-133.04"/>
<polygon fill="midnightblue" stroke="midnightblue" points="234.36,-136.11 241.89,-128.66 231.36,-129.78 234.36,-136.11"/>
</g>
<!-- Node14 -->
<g id="node14" class="node">
<title>Node14</title>
<g id="a_node14"><a xlink:href="classgpuNUFFT_1_1GpuNUFFTOperator.html#aa1eab38f22cc6c6038a40b3e3d029c7e" target="_top" xlink:title=" ">
<polygon fill="none" stroke="black" points="225,-49.5 225,-79.5 383,-79.5 383,-49.5 225,-49.5"/>
<text text-anchor="start" x="233" y="-67.5" font-family="FreeSans.ttf" font-size="10.00">gpuNUFFT::GpuNUFFTOperator</text>
<text text-anchor="middle" x="304" y="-56.5" font-family="FreeSans.ttf" font-size="10.00">::setSectorCenters</text>
</a>
</g>
</g>
<!-- Node1&#45;&gt;Node14 -->
<g id="edge14" class="edge">
<title>Node1&#45;&gt;Node14</title>
<path fill="none" stroke="midnightblue" d="M101.22,-269.43C115.92,-232.76 158.56,-138.25 225,-88.5 226.84,-87.12 228.77,-85.82 230.75,-84.59"/>
<polygon fill="midnightblue" stroke="midnightblue" points="232.69,-87.52 239.81,-79.67 229.35,-81.37 232.69,-87.52"/>
</g>
<!-- Node15 -->
<g id="node15" class="node">
<title>Node15</title>
<g id="a_node15"><a xlink:href="classgpuNUFFT_1_1GpuNUFFTOperator.html#a3e73693f0e4985e3c40dcdd8b0a76f40" target="_top" xlink:title=" ">
<polygon fill="none" stroke="black" points="225,-0.5 225,-30.5 383,-30.5 383,-0.5 225,-0.5"/>
<text text-anchor="start" x="233" y="-18.5" font-family="FreeSans.ttf" font-size="10.00">gpuNUFFT::GpuNUFFTOperator</text>
<text text-anchor="middle" x="304" y="-7.5" font-family="FreeSans.ttf" font-size="10.00">::setSectorDataCount</text>
</a>
</g>
</g>
<!-- Node1&#45;&gt;Node15 -->
<g id="edge15" class="edge">
<title>Node1&#45;&gt;Node15</title>
<path fill="none" stroke="midnightblue" d="M99.16,-269.24C110.25,-226.34 147.55,-103.62 225,-39.5 226.56,-38.21 228.18,-36.99 229.86,-35.84"/>
<polygon fill="midnightblue" stroke="midnightblue" points="231.86,-38.72 238.67,-30.6 228.28,-32.71 231.86,-38.72"/>
</g>
<!-- Node3&#45;&gt;Node2 -->
<g id="edge3" class="edge">
<title>Node3&#45;&gt;Node2</title>
<path fill="none" stroke="midnightblue" d="M364.7,-496.34C384.47,-498.61 406.66,-501.15 427.13,-503.49"/>
<polygon fill="midnightblue" stroke="midnightblue" points="427.01,-507 437.34,-504.66 427.8,-500.05 427.01,-507"/>
</g>
<!-- Node5 -->
<g id="node5" class="node">
<title>Node5</title>
<g id="a_node5"><a xlink:href="precomp__utils_8hpp.html#abe84080342fe3565651b846659b1faba" target="_top" xlink:title="Compute linear index from 3&#45;d point in grid defined by dim.">
<polygon fill="none" stroke="black" points="452,-442 452,-461 544,-461 544,-442 452,-442"/>
<text text-anchor="middle" x="498" y="-449" font-family="FreeSans.ttf" font-size="10.00">computeXYZ2Lin</text>
</a>
</g>
</g>
<!-- Node4&#45;&gt;Node5 -->
<g id="edge5" class="edge">
<title>Node4&#45;&gt;Node5</title>
<path fill="none" stroke="midnightblue" d="M325.55,-451.5C353.08,-451.5 402.97,-451.5 441.86,-451.5"/>
<polygon fill="midnightblue" stroke="midnightblue" points="442,-455 452,-451.5 442,-448 442,-455"/>
</g>
<!-- Node9 -->
<g id="node9" class="node">
<title>Node9</title>
<g id="a_node9"><a xlink:href="classgpuNUFFT_1_1GpuNUFFTOperator.html#a635c1cf91573264cafb1f3df27fdf976" target="_top" xlink:title=" ">
<polygon fill="none" stroke="black" points="419,-294.5 419,-324.5 577,-324.5 577,-294.5 419,-294.5"/>
<text text-anchor="start" x="427" y="-312.5" font-family="FreeSans.ttf" font-size="10.00">gpuNUFFT::GpuNUFFTOperator</text>
<text text-anchor="middle" x="498" y="-301.5" font-family="FreeSans.ttf" font-size="10.00">::is2DProcessing</text>
</a>
</g>
</g>
<!-- Node8&#45;&gt;Node9 -->
<g id="edge9" class="edge">
<title>Node8&#45;&gt;Node9</title>
<path fill="none" stroke="midnightblue" d="M383.09,-309.5C391.6,-309.5 400.3,-309.5 408.92,-309.5"/>
<polygon fill="midnightblue" stroke="midnightblue" points="408.98,-313 418.98,-309.5 408.98,-306 408.98,-313"/>
</g>
</g>
</svg>
