<?xml version="1.0" encoding="UTF-8" standalone="no"?>
<!DOCTYPE svg PUBLIC "-//W3C//DTD SVG 1.1//EN"
 "http://www.w3.org/Graphics/SVG/1.1/DTD/svg11.dtd">
<!-- Generated by graphviz version 2.49.3 (20211027.1534)
 -->
<!-- Title: gpuNUFFT::GpuNUFFTOperatorFactory::createGpuNUFFTOperator Pages: 1 -->
<svg width="353pt" height="78pt"
 viewBox="0.00 0.00 353.00 77.50" xmlns="http://www.w3.org/2000/svg" xmlns:xlink="http://www.w3.org/1999/xlink">
<g id="graph0" class="graph" transform="scale(1 1) rotate(0) translate(4 73.5)">
<title>gpuNUFFT::GpuNUFFTOperatorFactory::createGpuNUFFTOperator</title>
<!-- Node1 -->
<g id="node1" class="node">
<title>Node1</title>
<g id="a_node1"><a xlink:title="Create GpuNUFFT Operator.">
<polygon fill="#bfbfbf" stroke="black" points="176,-17 176,-47 345,-47 345,-17 176,-17"/>
<text text-anchor="start" x="184" y="-35" font-family="FreeSans.ttf" font-size="10.00">gpuNUFFT::GpuNUFFTOperator</text>
<text text-anchor="middle" x="260.5" y="-24" font-family="FreeSans.ttf" font-size="10.00">Factory::createGpuNUFFTOperator</text>
</a>
</g>
</g>
<!-- Node2 -->
<g id="node2" class="node">
<title>Node2</title>
<g id="a_node2"><a xlink:href="classGpuNUFFTPythonOperator.html#ad9168e25f62f4e47aefb50f2ea279b0d" target="_top" xlink:title=" ">
<polygon fill="none" stroke="black" points="0,-39 0,-69 140,-69 140,-39 0,-39"/>
<text text-anchor="start" x="8" y="-57" font-family="FreeSans.ttf" font-size="10.00">GpuNUFFTPythonOperator</text>
<text text-anchor="middle" x="70" y="-46" font-family="FreeSans.ttf" font-size="10.00">::GpuNUFFTPythonOperator</text>
</a>
</g>
</g>
<!-- Node1&#45;&gt;Node2 -->
<g id="edge1" class="edge">
<title>Node1&#45;&gt;Node2</title>
<path fill="none" stroke="midnightblue" d="M165.82,-42.93C157.14,-43.95 148.45,-44.96 140.04,-45.94"/>
<polygon fill="midnightblue" stroke="midnightblue" points="166.47,-46.38 176,-41.75 165.66,-39.43 166.47,-46.38"/>
</g>
<!-- Node3 -->
<g id="node3" class="node">
<title>Node3</title>
<g id="a_node3"><a xlink:href="gpuNUFFT__forward__tests_8cpp.html#a6e7e337161ef805951437dbf21112e43" target="_top" xlink:title=" ">
<polygon fill="none" stroke="black" points="49.5,-0.5 49.5,-19.5 90.5,-19.5 90.5,-0.5 49.5,-0.5"/>
<text text-anchor="middle" x="70" y="-7.5" font-family="FreeSans.ttf" font-size="10.00">TEST</text>
</a>
</g>
</g>
<!-- Node1&#45;&gt;Node3 -->
<g id="edge2" class="edge">
<title>Node1&#45;&gt;Node3</title>
<path fill="none" stroke="midnightblue" d="M165.93,-21.08C137.4,-17.75 108.78,-14.41 90.55,-12.28"/>
<polygon fill="midnightblue" stroke="midnightblue" points="165.66,-24.57 176,-22.25 166.47,-17.62 165.66,-24.57"/>
</g>
</g>
</svg>
