<?xml version="1.0" encoding="UTF-8" standalone="no"?>
<!DOCTYPE svg PUBLIC "-//W3C//DTD SVG 1.1//EN"
 "http://www.w3.org/Graphics/SVG/1.1/DTD/svg11.dtd">
<!-- Generated by graphviz version 2.49.3 (20211027.1534)
 -->
<!-- Title: gpuNUFFT::TextureGpuNUFFTOperator::adjConvolution Pages: 1 -->
<svg width="368pt" height="104pt"
 viewBox="0.00 0.00 368.00 104.00" xmlns="http://www.w3.org/2000/svg" xmlns:xlink="http://www.w3.org/1999/xlink">
<g id="graph0" class="graph" transform="scale(1 1) rotate(0) translate(4 100)">
<title>gpuNUFFT::TextureGpuNUFFTOperator::adjConvolution</title>
<!-- Node1 -->
<g id="node1" class="node">
<title>Node1</title>
<g id="a_node1"><a xlink:title="Virtual adjoint convolution call, which can be used by sub&#45;classes to add behaviour to the gridding s...">
<polygon fill="#bfbfbf" stroke="black" points="0,-33 0,-63 191,-63 191,-33 0,-33"/>
<text text-anchor="start" x="8" y="-51" font-family="FreeSans.ttf" font-size="10.00">gpuNUFFT::TextureGpuNUFFTOperator</text>
<text text-anchor="middle" x="95.5" y="-40" font-family="FreeSans.ttf" font-size="10.00">::adjConvolution</text>
</a>
</g>
</g>
<!-- Node2 -->
<g id="node2" class="node">
<title>Node2</title>
<g id="a_node2"><a xlink:href="cuda__utils_8hpp.html#a46dce0efc9f7cdbb81d0a48b65ce914d" target="_top" xlink:title="Bind to 1&#45;d texture on device.">
<polygon fill="none" stroke="black" points="248.5,-76.5 248.5,-95.5 338.5,-95.5 338.5,-76.5 248.5,-76.5"/>
<text text-anchor="middle" x="293.5" y="-83.5" font-family="FreeSans.ttf" font-size="10.00">bindTo1DTexture</text>
</a>
</g>
</g>
<!-- Node1&#45;&gt;Node2 -->
<g id="edge1" class="edge">
<title>Node1&#45;&gt;Node2</title>
<path fill="none" stroke="midnightblue" d="M173.96,-63.02C195.57,-67.21 218.56,-71.67 238.5,-75.53"/>
<polygon fill="midnightblue" stroke="midnightblue" points="237.83,-78.97 248.32,-77.43 239.16,-72.09 237.83,-78.97"/>
</g>
<!-- Node3 -->
<g id="node3" class="node">
<title>Node3</title>
<g id="a_node3"><a xlink:href="gpuNUFFT__kernels_8hpp.html#a56fdc7e7f864e7e80e7b91192a6c7bb3" target="_top" xlink:title="Adjoint gridding convolution implementation on GPU using textures for kernel lookup.">
<polygon fill="none" stroke="black" points="227,-38.5 227,-57.5 360,-57.5 360,-38.5 227,-38.5"/>
<text text-anchor="middle" x="293.5" y="-45.5" font-family="FreeSans.ttf" font-size="10.00">performTextureConvolution</text>
</a>
</g>
</g>
<!-- Node1&#45;&gt;Node3 -->
<g id="edge2" class="edge">
<title>Node1&#45;&gt;Node3</title>
<path fill="none" stroke="midnightblue" d="M191.06,-48C199.69,-48 208.35,-48 216.78,-48"/>
<polygon fill="midnightblue" stroke="midnightblue" points="216.94,-51.5 226.94,-48 216.94,-44.5 216.94,-51.5"/>
</g>
<!-- Node4 -->
<g id="node4" class="node">
<title>Node4</title>
<g id="a_node4"><a xlink:href="cuda__utils_8hpp.html#ab4541b0102691624bd5e29777536f1d5" target="_top" xlink:title="Unbind from device texture.">
<polygon fill="none" stroke="black" points="255,-0.5 255,-19.5 332,-19.5 332,-0.5 255,-0.5"/>
<text text-anchor="middle" x="293.5" y="-7.5" font-family="FreeSans.ttf" font-size="10.00">unbindTexture</text>
</a>
</g>
</g>
<!-- Node1&#45;&gt;Node4 -->
<g id="edge3" class="edge">
<title>Node1&#45;&gt;Node4</title>
<path fill="none" stroke="midnightblue" d="M173.96,-32.98C197.87,-28.35 223.49,-23.38 244.77,-19.25"/>
<polygon fill="midnightblue" stroke="midnightblue" points="245.69,-22.64 254.84,-17.3 244.36,-15.77 245.69,-22.64"/>
</g>
</g>
</svg>
