<?xml version="1.0" encoding="UTF-8" standalone="no"?>
<!DOCTYPE svg PUBLIC "-//W3C//DTD SVG 1.1//EN"
 "http://www.w3.org/Graphics/SVG/1.1/DTD/svg11.dtd">
<!-- Generated by graphviz version 2.49.3 (20211027.1534)
 -->
<!-- Title: GpuNUFFTPythonOperator::estimate_density_comp Pages: 1 -->
<svg width="337pt" height="329pt"
 viewBox="0.00 0.00 337.00 329.00" xmlns="http://www.w3.org/2000/svg" xmlns:xlink="http://www.w3.org/1999/xlink">
<g id="graph0" class="graph" transform="scale(1 1) rotate(0) translate(4 325)">
<title>GpuNUFFTPythonOperator::estimate_density_comp</title>
<!-- Node1 -->
<g id="node1" class="node">
<title>Node1</title>
<g id="a_node1"><a xlink:title="Estimate density Compensation array using gpu&#45;only functions.">
<polygon fill="#bfbfbf" stroke="black" points="0,-154 0,-184 135,-184 135,-154 0,-154"/>
<text text-anchor="start" x="8" y="-172" font-family="FreeSans.ttf" font-size="10.00">GpuNUFFTPythonOperator</text>
<text text-anchor="middle" x="67.5" y="-161" font-family="FreeSans.ttf" font-size="10.00">::estimate_density_comp</text>
</a>
</g>
</g>
<!-- Node2 -->
<g id="node2" class="node">
<title>Node2</title>
<g id="a_node2"><a xlink:href="python__utils_8hpp.html#a5732db3eeef010cc926583da8f91fcd6" target="_top" xlink:title=" ">
<polygon fill="none" stroke="black" points="188,-301.5 188,-320.5 312,-320.5 312,-301.5 188,-301.5"/>
<text text-anchor="middle" x="250" y="-308.5" font-family="FreeSans.ttf" font-size="10.00">allocate_pinned_memory</text>
</a>
</g>
</g>
<!-- Node1&#45;&gt;Node2 -->
<g id="edge1" class="edge">
<title>Node1&#45;&gt;Node2</title>
<path fill="none" stroke="midnightblue" d="M76.73,-184.15C91.8,-210.41 126.42,-264.21 171,-292 174.43,-294.14 178.08,-296.03 181.86,-297.72"/>
<polygon fill="midnightblue" stroke="midnightblue" points="180.88,-301.09 191.47,-301.48 183.43,-294.57 180.88,-301.09"/>
</g>
<!-- Node3 -->
<g id="node3" class="node">
<title>Node3</title>
<g id="a_node3"><a xlink:href="cuda__utils_8hpp.html#a5fb34b1c5f091a495c7ac4237257d7b1" target="_top" xlink:title="Allocation of device memory of the given extent for the defined type.">
<polygon fill="none" stroke="black" points="199,-263.5 199,-282.5 301,-282.5 301,-263.5 199,-263.5"/>
<text text-anchor="middle" x="250" y="-270.5" font-family="FreeSans.ttf" font-size="10.00">allocateDeviceMem</text>
</a>
</g>
</g>
<!-- Node1&#45;&gt;Node3 -->
<g id="edge2" class="edge">
<title>Node1&#45;&gt;Node3</title>
<path fill="none" stroke="midnightblue" d="M82.25,-184.02C100.62,-203.16 135.06,-235.94 171,-254 176.64,-256.83 182.72,-259.26 188.92,-261.33"/>
<polygon fill="midnightblue" stroke="midnightblue" points="188.11,-264.75 198.7,-264.31 190.15,-258.05 188.11,-264.75"/>
</g>
<!-- Node4 -->
<g id="node4" class="node">
<title>Node4</title>
<g id="a_node4"><a xlink:href="cuda__utils_8hpp.html#a1f04840b22a32448d0069e89cacd0950" target="_top" xlink:title="CUDA memcpy call to copy data from host to device.">
<polygon fill="none" stroke="black" points="197.5,-225.5 197.5,-244.5 302.5,-244.5 302.5,-225.5 197.5,-225.5"/>
<text text-anchor="middle" x="250" y="-232.5" font-family="FreeSans.ttf" font-size="10.00">copyToDeviceAsync</text>
</a>
</g>
</g>
<!-- Node1&#45;&gt;Node4 -->
<g id="edge3" class="edge">
<title>Node1&#45;&gt;Node4</title>
<path fill="none" stroke="midnightblue" d="M97.49,-184.1C117.69,-194.17 145.48,-207.13 171,-216 178.31,-218.54 186.12,-220.87 193.87,-222.97"/>
<polygon fill="midnightblue" stroke="midnightblue" points="193.06,-226.37 203.62,-225.49 194.81,-219.6 193.06,-226.37"/>
</g>
<!-- Node5 -->
<g id="node5" class="node">
<title>Node5</title>
<g id="a_node5"><a xlink:href="structgpuNUFFT_1_1Dimensions.html#a4c589934c5444910fbcd890d128229c9" target="_top" xlink:title="Compute total count of array length.">
<polygon fill="none" stroke="black" points="189.5,-176 189.5,-206 310.5,-206 310.5,-176 189.5,-176"/>
<text text-anchor="start" x="197.5" y="-194" font-family="FreeSans.ttf" font-size="10.00">gpuNUFFT::Dimensions</text>
<text text-anchor="middle" x="250" y="-183" font-family="FreeSans.ttf" font-size="10.00">::count</text>
</a>
</g>
</g>
<!-- Node1&#45;&gt;Node5 -->
<g id="edge4" class="edge">
<title>Node1&#45;&gt;Node5</title>
<path fill="none" stroke="midnightblue" d="M135.2,-177.13C149.64,-178.89 164.95,-180.76 179.5,-182.53"/>
<polygon fill="midnightblue" stroke="midnightblue" points="179.08,-186 189.43,-183.74 179.92,-179.05 179.08,-186"/>
</g>
<!-- Node6 -->
<g id="node6" class="node">
<title>Node6</title>
<g id="a_node6"><a xlink:href="cuda__utils_8hpp.html#a6ffa821f98a8c2b391c12c01308ff1db" target="_top" xlink:title="Free of device memory.">
<polygon fill="none" stroke="black" points="207.5,-137.5 207.5,-156.5 292.5,-156.5 292.5,-137.5 207.5,-137.5"/>
<text text-anchor="middle" x="250" y="-144.5" font-family="FreeSans.ttf" font-size="10.00">freeDeviceMem</text>
</a>
</g>
</g>
<!-- Node1&#45;&gt;Node6 -->
<g id="edge5" class="edge">
<title>Node1&#45;&gt;Node6</title>
<path fill="none" stroke="midnightblue" d="M135.2,-160.87C155.71,-158.37 177.98,-155.66 197.32,-153.3"/>
<polygon fill="midnightblue" stroke="midnightblue" points="197.94,-156.75 207.45,-152.06 197.1,-149.8 197.94,-156.75"/>
</g>
<!-- Node7 -->
<g id="node7" class="node">
<title>Node7</title>
<g id="a_node7"><a xlink:href="classgpuNUFFT_1_1GpuNUFFTOperator.html#a10d565529aa2c7778c15edb8a820b417" target="_top" xlink:title="Perform forward gridding operation on given kspaceData.">
<polygon fill="none" stroke="black" points="171,-88 171,-118 329,-118 329,-88 171,-88"/>
<text text-anchor="start" x="179" y="-106" font-family="FreeSans.ttf" font-size="10.00">gpuNUFFT::GpuNUFFTOperator</text>
<text text-anchor="middle" x="250" y="-95" font-family="FreeSans.ttf" font-size="10.00">::performForwardGpuNUFFT</text>
</a>
</g>
</g>
<!-- Node1&#45;&gt;Node7 -->
<g id="edge6" class="edge">
<title>Node1&#45;&gt;Node7</title>
<path fill="none" stroke="midnightblue" d="M104.31,-153.96C123.89,-145.92 148.64,-136.05 171,-128 177.29,-125.74 183.91,-123.46 190.51,-121.25"/>
<polygon fill="midnightblue" stroke="midnightblue" points="191.74,-124.53 200.14,-118.08 189.55,-117.89 191.74,-124.53"/>
</g>
<!-- Node8 -->
<g id="node8" class="node">
<title>Node8</title>
<g id="a_node8"><a xlink:href="classgpuNUFFT_1_1GpuNUFFTOperator.html#a38a45507d840b8d3d97de7fc79b4fa8a" target="_top" xlink:title="Perform Adjoint gridding operation on given kspaceData.">
<polygon fill="none" stroke="black" points="171,-39 171,-69 329,-69 329,-39 171,-39"/>
<text text-anchor="start" x="179" y="-57" font-family="FreeSans.ttf" font-size="10.00">gpuNUFFT::GpuNUFFTOperator</text>
<text text-anchor="middle" x="250" y="-46" font-family="FreeSans.ttf" font-size="10.00">::performGpuNUFFTAdj</text>
</a>
</g>
</g>
<!-- Node1&#45;&gt;Node8 -->
<g id="edge7" class="edge">
<title>Node1&#45;&gt;Node8</title>
<path fill="none" stroke="midnightblue" d="M81.96,-153.81C100.28,-133.98 134.94,-99.42 171,-79 174.86,-76.81 178.94,-74.79 183.13,-72.91"/>
<polygon fill="midnightblue" stroke="midnightblue" points="184.53,-76.12 192.43,-69.06 181.85,-69.66 184.53,-76.12"/>
</g>
<!-- Node9 -->
<g id="node9" class="node">
<title>Node9</title>
<g id="a_node9"><a xlink:href="gpuNUFFT__kernels_8hpp.html#aeef5d0634868e22a476b5cbb3f54f6a2" target="_top" xlink:title="Perform the Density compensation method.">
<polygon fill="none" stroke="black" points="180.5,-0.5 180.5,-19.5 319.5,-19.5 319.5,-0.5 180.5,-0.5"/>
<text text-anchor="middle" x="250" y="-7.5" font-family="FreeSans.ttf" font-size="10.00">performUpdateDensityComp</text>
</a>
</g>
</g>
<!-- Node1&#45;&gt;Node9 -->
<g id="edge8" class="edge">
<title>Node1&#45;&gt;Node9</title>
<path fill="none" stroke="midnightblue" d="M75.35,-153.77C89.13,-124.93 123.02,-62.35 171,-30 174.75,-27.47 178.8,-25.26 183.02,-23.33"/>
<polygon fill="midnightblue" stroke="midnightblue" points="184.48,-26.51 192.45,-19.53 181.87,-20.02 184.48,-26.51"/>
</g>
</g>
</svg>
