<?xml version="1.0" encoding="UTF-8" standalone="no"?>
<!DOCTYPE svg PUBLIC "-//W3C//DTD SVG 1.1//EN"
 "http://www.w3.org/Graphics/SVG/1.1/DTD/svg11.dtd">
<!-- Generated by graphviz version 2.49.3 (20211027.1534)
 -->
<!-- Title: gpuNUFFT::BalancedTextureGpuNUFFTOperator Pages: 1 -->
<svg width="404pt" height="242pt"
 viewBox="0.00 0.00 403.50 242.00" xmlns="http://www.w3.org/2000/svg" xmlns:xlink="http://www.w3.org/1999/xlink">
<g id="graph0" class="graph" transform="scale(1 1) rotate(0) translate(4 238)">
<title>gpuNUFFT::BalancedTextureGpuNUFFTOperator</title>
<!-- Node1 -->
<g id="node1" class="node">
<title>Node1</title>
<g id="a_node1"><a xlink:title="GpuNUFFTOperator with load balancing and texture memory lookup.">
<polygon fill="#bfbfbf" stroke="black" points="156,-0.5 156,-30.5 299,-30.5 299,-0.5 156,-0.5"/>
<text text-anchor="start" x="164" y="-18.5" font-family="FreeSans.ttf" font-size="10.00">gpuNUFFT::BalancedTexture</text>
<text text-anchor="middle" x="227.5" y="-7.5" font-family="FreeSans.ttf" font-size="10.00">GpuNUFFTOperator</text>
</a>
</g>
</g>
<!-- Node2 -->
<g id="node2" class="node">
<title>Node2</title>
<g id="a_node2"><a xlink:href="classgpuNUFFT_1_1TextureGpuNUFFTOperator.html" target="_top" xlink:title="GpuNUFFTOperator with texture memory lookup.">
<polygon fill="none" stroke="black" points="38,-68.5 38,-87.5 229,-87.5 229,-68.5 38,-68.5"/>
<text text-anchor="middle" x="133.5" y="-75.5" font-family="FreeSans.ttf" font-size="10.00">gpuNUFFT::TextureGpuNUFFTOperator</text>
</a>
</g>
</g>
<!-- Node2&#45;&gt;Node1 -->
<g id="edge1" class="edge">
<title>Node2&#45;&gt;Node1</title>
<path fill="none" stroke="midnightblue" d="M155.67,-62.73C170.77,-53.01 190.68,-40.2 205.71,-30.53"/>
<polygon fill="midnightblue" stroke="midnightblue" points="153.48,-59.98 146.97,-68.33 157.27,-65.86 153.48,-59.98"/>
</g>
<!-- Node3 -->
<g id="node3" class="node">
<title>Node3</title>
<g id="a_node3"><a xlink:href="classgpuNUFFT_1_1GpuNUFFTOperator.html" target="_top" xlink:title="Main &quot;Operator&quot; used for gridding operations.">
<polygon fill="none" stroke="black" points="54.5,-125.5 54.5,-144.5 212.5,-144.5 212.5,-125.5 54.5,-125.5"/>
<text text-anchor="middle" x="133.5" y="-132.5" font-family="FreeSans.ttf" font-size="10.00">gpuNUFFT::GpuNUFFTOperator</text>
</a>
</g>
</g>
<!-- Node3&#45;&gt;Node2 -->
<g id="edge2" class="edge">
<title>Node3&#45;&gt;Node2</title>
<path fill="none" stroke="midnightblue" d="M133.5,-115.12C133.5,-105.82 133.5,-95.06 133.5,-87.71"/>
<polygon fill="midnightblue" stroke="midnightblue" points="130,-115.41 133.5,-125.41 137,-115.41 130,-115.41"/>
</g>
<!-- Node4 -->
<g id="node4" class="node">
<title>Node4</title>
<g id="a_node4"><a xlink:href="structgpuNUFFT_1_1Dimensions.html" target="_top" xlink:title="Data dimension struct.">
<polygon fill="none" stroke="black" points="0,-214.5 0,-233.5 121,-233.5 121,-214.5 0,-214.5"/>
<text text-anchor="middle" x="60.5" y="-221.5" font-family="FreeSans.ttf" font-size="10.00">gpuNUFFT::Dimensions</text>
</a>
</g>
</g>
<!-- Node4&#45;&gt;Node3 -->
<g id="edge3" class="edge">
<title>Node4&#45;&gt;Node3</title>
<path fill="none" stroke="#9a32cd" stroke-dasharray="5,2" d="M74.56,-206.24C90.02,-187.82 114.26,-158.93 126.26,-144.62"/>
<polygon fill="#9a32cd" stroke="#9a32cd" points="71.51,-204.43 67.77,-214.34 76.88,-208.93 71.51,-204.43"/>
<text text-anchor="middle" x="145.5" y="-188" font-family="FreeSans.ttf" font-size="10.00"> gridSectorDims</text>
<text text-anchor="middle" x="145.5" y="-177" font-family="FreeSans.ttf" font-size="10.00">imgDims</text>
<text text-anchor="middle" x="145.5" y="-166" font-family="FreeSans.ttf" font-size="10.00">sectorDims</text>
</g>
<!-- Node5 -->
<g id="node5" class="node">
<title>Node5</title>
<g id="a_node5"><a xlink:href="structgpuNUFFT_1_1GpuNUFFTInfo.html" target="_top" xlink:title="Struct containing meta information of the current Gridding Problem. Used in most GPU operations.">
<polygon fill="none" stroke="black" points="139,-214.5 139,-233.5 276,-233.5 276,-214.5 139,-214.5"/>
<text text-anchor="middle" x="207.5" y="-221.5" font-family="FreeSans.ttf" font-size="10.00">gpuNUFFT::GpuNUFFTInfo</text>
</a>
</g>
</g>
<!-- Node5&#45;&gt;Node3 -->
<g id="edge4" class="edge">
<title>Node5&#45;&gt;Node3</title>
<path fill="none" stroke="#9a32cd" stroke-dasharray="5,2" d="M203.94,-204.19C200.7,-191.35 194.8,-174.63 184.5,-163 177.33,-154.9 167.13,-148.83 157.73,-144.52"/>
<polygon fill="#9a32cd" stroke="#9a32cd" points="200.58,-205.23 206.14,-214.25 207.42,-203.73 200.58,-205.23"/>
<text text-anchor="middle" x="218.5" y="-177" font-family="FreeSans.ttf" font-size="10.00"> gi_host</text>
</g>
<!-- Node6 -->
<g id="node6" class="node">
<title>Node6</title>
<g id="a_node6"><a xlink:href="classgpuNUFFT_1_1BalancedOperator.html" target="_top" xlink:title="Interface defined for balanced gpuNUFFT Operators.">
<polygon fill="none" stroke="black" points="247.5,-68.5 247.5,-87.5 395.5,-87.5 395.5,-68.5 247.5,-68.5"/>
<text text-anchor="middle" x="321.5" y="-75.5" font-family="FreeSans.ttf" font-size="10.00">gpuNUFFT::BalancedOperator</text>
</a>
</g>
</g>
<!-- Node6&#45;&gt;Node1 -->
<g id="edge5" class="edge">
<title>Node6&#45;&gt;Node1</title>
<path fill="none" stroke="midnightblue" d="M299.33,-62.73C284.23,-53.01 264.32,-40.2 249.29,-30.53"/>
<polygon fill="midnightblue" stroke="midnightblue" points="297.73,-65.86 308.03,-68.33 301.52,-59.98 297.73,-65.86"/>
</g>
</g>
</svg>
