<?xml version="1.0" encoding="UTF-8" standalone="no"?>
<!DOCTYPE svg PUBLIC "-//W3C//DTD SVG 1.1//EN"
 "http://www.w3.org/Graphics/SVG/1.1/DTD/svg11.dtd">
<!-- Generated by graphviz version 2.49.3 (20211027.1534)
 -->
<!-- Title: gpuNUFFT::GpuNUFFTOperator::freeDeviceMemory Pages: 1 -->
<svg width="442pt" height="66pt"
 viewBox="0.00 0.00 442.00 66.00" xmlns="http://www.w3.org/2000/svg" xmlns:xlink="http://www.w3.org/1999/xlink">
<g id="graph0" class="graph" transform="scale(1 1) rotate(0) translate(4 62)">
<title>gpuNUFFT::GpuNUFFTOperator::freeDeviceMemory</title>
<!-- Node1 -->
<g id="node1" class="node">
<title>Node1</title>
<g id="a_node1"><a xlink:title="Function to free the neccessary device memory used by the GriddingOperator.">
<polygon fill="#bfbfbf" stroke="black" points="0,-14 0,-44 158,-44 158,-14 0,-14"/>
<text text-anchor="start" x="8" y="-32" font-family="FreeSans.ttf" font-size="10.00">gpuNUFFT::GpuNUFFTOperator</text>
<text text-anchor="middle" x="79" y="-21" font-family="FreeSans.ttf" font-size="10.00">::freeDeviceMemory</text>
</a>
</g>
</g>
<!-- Node2 -->
<g id="node2" class="node">
<title>Node2</title>
<g id="a_node2"><a xlink:href="cuda__utils_8hpp.html#aaa83ead29bc50e65ae4298d9206a760b" target="_top" xlink:title="Free variable list of device pointers. Use NULL as stopping element.">
<polygon fill="none" stroke="black" points="194,-38.5 194,-57.5 313,-57.5 313,-38.5 194,-38.5"/>
<text text-anchor="middle" x="253.5" y="-45.5" font-family="FreeSans.ttf" font-size="10.00">freeTotalDeviceMemory</text>
</a>
</g>
</g>
<!-- Node1&#45;&gt;Node2 -->
<g id="edge1" class="edge">
<title>Node1&#45;&gt;Node2</title>
<path fill="none" stroke="midnightblue" d="M158.17,-37.61C166.73,-38.55 175.39,-39.51 183.82,-40.44"/>
<polygon fill="midnightblue" stroke="midnightblue" points="183.64,-43.94 193.96,-41.55 184.41,-36.98 183.64,-43.94"/>
</g>
<!-- Node4 -->
<g id="node4" class="node">
<title>Node4</title>
<g id="a_node4"><a xlink:href="cuda__utils_8hpp.html#ad9458f074da29c52d203d541be58971a" target="_top" xlink:title="Debug short device memory information (free/total) to stream if DEBUG flag is set to true.">
<polygon fill="none" stroke="black" points="208,-0.5 208,-19.5 299,-19.5 299,-0.5 208,-0.5"/>
<text text-anchor="middle" x="253.5" y="-7.5" font-family="FreeSans.ttf" font-size="10.00">showMemoryInfo</text>
</a>
</g>
</g>
<!-- Node1&#45;&gt;Node4 -->
<g id="edge3" class="edge">
<title>Node1&#45;&gt;Node4</title>
<path fill="none" stroke="midnightblue" d="M158.17,-20.39C171.41,-18.93 184.89,-17.45 197.38,-16.07"/>
<polygon fill="midnightblue" stroke="midnightblue" points="198.04,-19.52 207.6,-14.95 197.28,-12.56 198.04,-19.52"/>
</g>
<!-- Node3 -->
<g id="node3" class="node">
<title>Node3</title>
<g id="a_node3"><a xlink:href="cuda__utils_8hpp.html#a6ffa821f98a8c2b391c12c01308ff1db" target="_top" xlink:title="Free of device memory.">
<polygon fill="none" stroke="black" points="349,-38.5 349,-57.5 434,-57.5 434,-38.5 349,-38.5"/>
<text text-anchor="middle" x="391.5" y="-45.5" font-family="FreeSans.ttf" font-size="10.00">freeDeviceMem</text>
</a>
</g>
</g>
<!-- Node2&#45;&gt;Node3 -->
<g id="edge2" class="edge">
<title>Node2&#45;&gt;Node3</title>
<path fill="none" stroke="midnightblue" d="M313.36,-48C321.74,-48 330.31,-48 338.54,-48"/>
<polygon fill="midnightblue" stroke="midnightblue" points="338.76,-51.5 348.76,-48 338.76,-44.5 338.76,-51.5"/>
</g>
</g>
</svg>
