<?xml version="1.0" encoding="UTF-8" standalone="no"?>
<!DOCTYPE svg PUBLIC "-//W3C//DTD SVG 1.1//EN"
 "http://www.w3.org/Graphics/SVG/1.1/DTD/svg11.dtd">
<!-- Generated by graphviz version 2.49.3 (20211027.1534)
 -->
<!-- Title: GpuNUFFTPythonOperator::estimate_density_comp Pages: 1 -->
<svg width="337pt" height="367pt"
 viewBox="0.00 0.00 337.00 367.00" xmlns="http://www.w3.org/2000/svg" xmlns:xlink="http://www.w3.org/1999/xlink">
<g id="graph0" class="graph" transform="scale(1 1) rotate(0) translate(4 363)">
<title>GpuNUFFTPythonOperator::estimate_density_comp</title>
<!-- Node1 -->
<g id="node1" class="node">
<title>Node1</title>
<g id="a_node1"><a xlink:title=" ">
<polygon fill="#bfbfbf" stroke="black" points="0,-176 0,-206 135,-206 135,-176 0,-176"/>
<text text-anchor="start" x="8" y="-194" font-family="FreeSans.ttf" font-size="10.00">GpuNUFFTPythonOperator</text>
<text text-anchor="middle" x="67.5" y="-183" font-family="FreeSans.ttf" font-size="10.00">::estimate_density_comp</text>
</a>
</g>
</g>
<!-- Node2 -->
<g id="node2" class="node">
<title>Node2</title>
<g id="a_node2"><a xlink:href="python__utils_8hpp.html#a5732db3eeef010cc926583da8f91fcd6" target="_top" xlink:title=" ">
<polygon fill="none" stroke="black" points="188,-339.5 188,-358.5 312,-358.5 312,-339.5 188,-339.5"/>
<text text-anchor="middle" x="250" y="-346.5" font-family="FreeSans.ttf" font-size="10.00">allocate_pinned_memory</text>
</a>
</g>
</g>
<!-- Node1&#45;&gt;Node2 -->
<g id="edge1" class="edge">
<title>Node1&#45;&gt;Node2</title>
<path fill="none" stroke="midnightblue" d="M75.31,-206.29C89.03,-235.22 122.82,-297.94 171,-330 174.08,-332.05 177.36,-333.88 180.77,-335.51"/>
<polygon fill="midnightblue" stroke="midnightblue" points="179.46,-338.76 190.03,-339.39 182.16,-332.3 179.46,-338.76"/>
</g>
<!-- Node3 -->
<g id="node3" class="node">
<title>Node3</title>
<g id="a_node3"><a xlink:href="cuda__utils_8hpp.html#a5fb34b1c5f091a495c7ac4237257d7b1" target="_top" xlink:title="Allocation of device memory of the given extent for the defined type.">
<polygon fill="none" stroke="black" points="199,-301.5 199,-320.5 301,-320.5 301,-301.5 199,-301.5"/>
<text text-anchor="middle" x="250" y="-308.5" font-family="FreeSans.ttf" font-size="10.00">allocateDeviceMem</text>
</a>
</g>
</g>
<!-- Node1&#45;&gt;Node3 -->
<g id="edge2" class="edge">
<title>Node1&#45;&gt;Node3</title>
<path fill="none" stroke="midnightblue" d="M79.57,-206.26C96.62,-228.61 131.5,-269.99 171,-292 176.59,-295.12 182.69,-297.73 188.93,-299.91"/>
<polygon fill="midnightblue" stroke="midnightblue" points="188.21,-303.36 198.8,-303.01 190.31,-296.68 188.21,-303.36"/>
</g>
<!-- Node4 -->
<g id="node4" class="node">
<title>Node4</title>
<g id="a_node4"><a xlink:href="cuda__utils_8hpp.html#a0e734eacdc00ba553d77aa057e02059b" target="_top" xlink:title="Copy CUDA memory from device to host asynchronously.">
<polygon fill="none" stroke="black" points="192,-263.5 192,-282.5 308,-282.5 308,-263.5 192,-263.5"/>
<text text-anchor="middle" x="250" y="-270.5" font-family="FreeSans.ttf" font-size="10.00">copyFromDeviceAsync</text>
</a>
</g>
</g>
<!-- Node1&#45;&gt;Node4 -->
<g id="edge3" class="edge">
<title>Node1&#45;&gt;Node4</title>
<path fill="none" stroke="midnightblue" d="M88.67,-206.05C108.63,-220.28 140.54,-241.3 171,-254 176.91,-256.46 183.21,-258.66 189.57,-260.59"/>
<polygon fill="midnightblue" stroke="midnightblue" points="188.99,-264.07 199.57,-263.43 190.9,-257.33 188.99,-264.07"/>
</g>
<!-- Node5 -->
<g id="node5" class="node">
<title>Node5</title>
<g id="a_node5"><a xlink:href="cuda__utils_8hpp.html#a1f04840b22a32448d0069e89cacd0950" target="_top" xlink:title="CUDA memcpy call to copy data from host to device.">
<polygon fill="none" stroke="black" points="197.5,-225.5 197.5,-244.5 302.5,-244.5 302.5,-225.5 197.5,-225.5"/>
<text text-anchor="middle" x="250" y="-232.5" font-family="FreeSans.ttf" font-size="10.00">copyToDeviceAsync</text>
</a>
</g>
</g>
<!-- Node1&#45;&gt;Node5 -->
<g id="edge4" class="edge">
<title>Node1&#45;&gt;Node5</title>
<path fill="none" stroke="midnightblue" d="M130.02,-206.01C143.52,-209.3 157.74,-212.77 171,-216 180.35,-218.28 190.32,-220.71 199.91,-223.04"/>
<polygon fill="midnightblue" stroke="midnightblue" points="199.17,-226.47 209.72,-225.43 200.83,-219.67 199.17,-226.47"/>
</g>
<!-- Node6 -->
<g id="node6" class="node">
<title>Node6</title>
<g id="a_node6"><a xlink:href="structgpuNUFFT_1_1Dimensions.html#a4c589934c5444910fbcd890d128229c9" target="_top" xlink:title="Compute total count of array length.">
<polygon fill="none" stroke="black" points="189.5,-176 189.5,-206 310.5,-206 310.5,-176 189.5,-176"/>
<text text-anchor="start" x="197.5" y="-194" font-family="FreeSans.ttf" font-size="10.00">gpuNUFFT::Dimensions</text>
<text text-anchor="middle" x="250" y="-183" font-family="FreeSans.ttf" font-size="10.00">::count</text>
</a>
</g>
</g>
<!-- Node1&#45;&gt;Node6 -->
<g id="edge5" class="edge">
<title>Node1&#45;&gt;Node6</title>
<path fill="none" stroke="midnightblue" d="M135.2,-191C149.5,-191 164.65,-191 179.08,-191"/>
<polygon fill="midnightblue" stroke="midnightblue" points="179.43,-194.5 189.43,-191 179.43,-187.5 179.43,-194.5"/>
</g>
<!-- Node7 -->
<g id="node7" class="node">
<title>Node7</title>
<g id="a_node7"><a xlink:href="cuda__utils_8hpp.html#a6ffa821f98a8c2b391c12c01308ff1db" target="_top" xlink:title="Free of device memory.">
<polygon fill="none" stroke="black" points="207.5,-137.5 207.5,-156.5 292.5,-156.5 292.5,-137.5 207.5,-137.5"/>
<text text-anchor="middle" x="250" y="-144.5" font-family="FreeSans.ttf" font-size="10.00">freeDeviceMem</text>
</a>
</g>
</g>
<!-- Node1&#45;&gt;Node7 -->
<g id="edge6" class="edge">
<title>Node1&#45;&gt;Node7</title>
<path fill="none" stroke="midnightblue" d="M130.11,-175.98C152.95,-170.41 178.51,-164.18 200.07,-158.93"/>
<polygon fill="midnightblue" stroke="midnightblue" points="201.09,-162.28 209.98,-156.51 199.43,-155.48 201.09,-162.28"/>
</g>
<!-- Node8 -->
<g id="node8" class="node">
<title>Node8</title>
<g id="a_node8"><a xlink:href="classgpuNUFFT_1_1GpuNUFFTOperator.html#a10d565529aa2c7778c15edb8a820b417" target="_top" xlink:title="Perform forward gridding operation on given kspaceData.">
<polygon fill="none" stroke="black" points="171,-88 171,-118 329,-118 329,-88 171,-88"/>
<text text-anchor="start" x="179" y="-106" font-family="FreeSans.ttf" font-size="10.00">gpuNUFFT::GpuNUFFTOperator</text>
<text text-anchor="middle" x="250" y="-95" font-family="FreeSans.ttf" font-size="10.00">::performForwardGpuNUFFT</text>
</a>
</g>
</g>
<!-- Node1&#45;&gt;Node8 -->
<g id="edge7" class="edge">
<title>Node1&#45;&gt;Node8</title>
<path fill="none" stroke="midnightblue" d="M89.65,-175.9C109.81,-162.02 141.39,-141.6 171,-128 175.93,-125.74 181.12,-123.59 186.38,-121.58"/>
<polygon fill="midnightblue" stroke="midnightblue" points="187.7,-124.83 195.9,-118.12 185.3,-118.25 187.7,-124.83"/>
</g>
<!-- Node9 -->
<g id="node9" class="node">
<title>Node9</title>
<g id="a_node9"><a xlink:href="classgpuNUFFT_1_1GpuNUFFTOperator.html#a38a45507d840b8d3d97de7fc79b4fa8a" target="_top" xlink:title="Perform Adjoint gridding operation on given kspaceData.">
<polygon fill="none" stroke="black" points="171,-39 171,-69 329,-69 329,-39 171,-39"/>
<text text-anchor="start" x="179" y="-57" font-family="FreeSans.ttf" font-size="10.00">gpuNUFFT::GpuNUFFTOperator</text>
<text text-anchor="middle" x="250" y="-46" font-family="FreeSans.ttf" font-size="10.00">::performGpuNUFFTAdj</text>
</a>
</g>
</g>
<!-- Node1&#45;&gt;Node9 -->
<g id="edge8" class="edge">
<title>Node1&#45;&gt;Node9</title>
<path fill="none" stroke="midnightblue" d="M78.57,-175.62C95.08,-151.58 130.17,-105.17 171,-79 174.18,-76.96 177.54,-75.08 181.01,-73.34"/>
<polygon fill="midnightblue" stroke="midnightblue" points="182.75,-76.39 190.39,-69.06 179.84,-70.02 182.75,-76.39"/>
</g>
<!-- Node10 -->
<g id="node10" class="node">
<title>Node10</title>
<g id="a_node10"><a xlink:href="gpuNUFFT__kernels_8hpp.html#aeef5d0634868e22a476b5cbb3f54f6a2" target="_top" xlink:title="Perform the Density compensation method.">
<polygon fill="none" stroke="black" points="180.5,-0.5 180.5,-19.5 319.5,-19.5 319.5,-0.5 180.5,-0.5"/>
<text text-anchor="middle" x="250" y="-7.5" font-family="FreeSans.ttf" font-size="10.00">performUpdateDensityComp</text>
</a>
</g>
</g>
<!-- Node1&#45;&gt;Node10 -->
<g id="edge9" class="edge">
<title>Node1&#45;&gt;Node10</title>
<path fill="none" stroke="midnightblue" d="M73.72,-175.88C85.62,-143.76 117.89,-68.52 171,-30 174.28,-27.62 177.82,-25.52 181.51,-23.68"/>
<polygon fill="midnightblue" stroke="midnightblue" points="183.18,-26.77 190.96,-19.58 180.39,-20.35 183.18,-26.77"/>
</g>
</g>
</svg>
