<?xml version="1.0" encoding="UTF-8" standalone="no"?>
<!DOCTYPE svg PUBLIC "-//W3C//DTD SVG 1.1//EN"
 "http://www.w3.org/Graphics/SVG/1.1/DTD/svg11.dtd">
<!-- Generated by graphviz version 2.49.3 (20211027.1534)
 -->
<!-- Title: gpuNUFFT::GpuNUFFTOperatorFactory::computeSectorDataCount Pages: 1 -->
<svg width="524pt" height="132pt"
 viewBox="0.00 0.00 524.00 132.00" xmlns="http://www.w3.org/2000/svg" xmlns:xlink="http://www.w3.org/1999/xlink">
<g id="graph0" class="graph" transform="scale(1 1) rotate(0) translate(4 128)">
<title>gpuNUFFT::GpuNUFFTOperatorFactory::computeSectorDataCount</title>
<!-- Node1 -->
<g id="node1" class="node">
<title>Node1</title>
<g id="a_node1"><a xlink:title="Compute the boundaries of the assigned dataIndices per sector element.">
<polygon fill="#bfbfbf" stroke="black" points="0,-49.5 0,-79.5 165,-79.5 165,-49.5 0,-49.5"/>
<text text-anchor="start" x="8" y="-67.5" font-family="FreeSans.ttf" font-size="10.00">gpuNUFFT::GpuNUFFTOperator</text>
<text text-anchor="middle" x="82.5" y="-56.5" font-family="FreeSans.ttf" font-size="10.00">Factory::computeSectorDataCount</text>
</a>
</g>
</g>
<!-- Node2 -->
<g id="node2" class="node">
<title>Node2</title>
<g id="a_node2"><a xlink:href="structgpuNUFFT_1_1Array.html#af426f56b5d7e05b6143acbdd51bac188" target="_top" xlink:title=" ">
<polygon fill="none" stroke="black" points="219.5,-99 219.5,-118 340.5,-118 340.5,-99 219.5,-99"/>
<text text-anchor="middle" x="280" y="-106" font-family="FreeSans.ttf" font-size="10.00">gpuNUFFT::Array::count</text>
</a>
</g>
</g>
<!-- Node1&#45;&gt;Node2 -->
<g id="edge1" class="edge">
<title>Node1&#45;&gt;Node2</title>
<path fill="none" stroke="midnightblue" d="M150.23,-79.52C175.3,-85.16 203.41,-91.49 226.95,-96.78"/>
<polygon fill="midnightblue" stroke="midnightblue" points="226.21,-100.21 236.73,-98.99 227.75,-93.38 226.21,-100.21"/>
</g>
<!-- Node4 -->
<g id="node4" class="node">
<title>Node4</title>
<g id="a_node4"><a xlink:href="classgpuNUFFT_1_1GpuNUFFTOperator.html#a827308da49fcedc4725cf9509dd2a3c0" target="_top" xlink:title=" ">
<polygon fill="none" stroke="black" points="201,-49.5 201,-79.5 359,-79.5 359,-49.5 201,-49.5"/>
<text text-anchor="start" x="209" y="-67.5" font-family="FreeSans.ttf" font-size="10.00">gpuNUFFT::GpuNUFFTOperator</text>
<text text-anchor="middle" x="280" y="-56.5" font-family="FreeSans.ttf" font-size="10.00">::getGridSectorDims</text>
</a>
</g>
</g>
<!-- Node1&#45;&gt;Node4 -->
<g id="edge3" class="edge">
<title>Node1&#45;&gt;Node4</title>
<path fill="none" stroke="midnightblue" d="M165.28,-64.5C173.68,-64.5 182.25,-64.5 190.72,-64.5"/>
<polygon fill="midnightblue" stroke="midnightblue" points="190.99,-68 200.99,-64.5 190.99,-61 190.99,-68"/>
</g>
<!-- Node5 -->
<g id="node5" class="node">
<title>Node5</title>
<g id="a_node5"><a xlink:href="classgpuNUFFT_1_1GpuNUFFTOperatorFactory.html#a6a1326db747f2068e520c41d3063f969" target="_top" xlink:title="Initialization method for the sector data count array.">
<polygon fill="none" stroke="black" points="201,-0.5 201,-30.5 359,-30.5 359,-0.5 201,-0.5"/>
<text text-anchor="start" x="209" y="-18.5" font-family="FreeSans.ttf" font-size="10.00">gpuNUFFT::GpuNUFFTOperator</text>
<text text-anchor="middle" x="280" y="-7.5" font-family="FreeSans.ttf" font-size="10.00">Factory::initSectorDataCount</text>
</a>
</g>
</g>
<!-- Node1&#45;&gt;Node5 -->
<g id="edge4" class="edge">
<title>Node1&#45;&gt;Node5</title>
<path fill="none" stroke="midnightblue" d="M143.49,-49.47C164.31,-44.24 187.85,-38.35 209.39,-32.95"/>
<polygon fill="midnightblue" stroke="midnightblue" points="210.28,-36.33 219.13,-30.51 208.58,-29.54 210.28,-36.33"/>
</g>
<!-- Node3 -->
<g id="node3" class="node">
<title>Node3</title>
<g id="a_node3"><a xlink:href="structgpuNUFFT_1_1Dimensions.html#a4c589934c5444910fbcd890d128229c9" target="_top" xlink:title="Compute total count of array length.">
<polygon fill="none" stroke="black" points="395,-93.5 395,-123.5 516,-123.5 516,-93.5 395,-93.5"/>
<text text-anchor="start" x="403" y="-111.5" font-family="FreeSans.ttf" font-size="10.00">gpuNUFFT::Dimensions</text>
<text text-anchor="middle" x="455.5" y="-100.5" font-family="FreeSans.ttf" font-size="10.00">::count</text>
</a>
</g>
</g>
<!-- Node2&#45;&gt;Node3 -->
<g id="edge2" class="edge">
<title>Node2&#45;&gt;Node3</title>
<path fill="none" stroke="midnightblue" d="M340.71,-108.5C354.96,-108.5 370.3,-108.5 384.96,-108.5"/>
<polygon fill="midnightblue" stroke="midnightblue" points="384.98,-112 394.98,-108.5 384.98,-105 384.98,-112"/>
</g>
</g>
</svg>
