<?xml version="1.0" encoding="UTF-8" standalone="no"?>
<!DOCTYPE svg PUBLIC "-//W3C//DTD SVG 1.1//EN"
 "http://www.w3.org/Graphics/SVG/1.1/DTD/svg11.dtd">
<!-- Generated by graphviz version 2.49.3 (20211027.1534)
 -->
<!-- Title: gpuNUFFT::GpuNUFFTOperator::GpuNUFFTOperator Pages: 1 -->
<svg width="770pt" height="122pt"
 viewBox="0.00 0.00 770.00 122.00" xmlns="http://www.w3.org/2000/svg" xmlns:xlink="http://www.w3.org/1999/xlink">
<g id="graph0" class="graph" transform="scale(1 1) rotate(0) translate(4 118)">
<title>gpuNUFFT::GpuNUFFTOperator::GpuNUFFTOperator</title>
<!-- Node1 -->
<g id="node1" class="node">
<title>Node1</title>
<g id="a_node1"><a xlink:title="GpuNUFFTOperator ctor.">
<polygon fill="#bfbfbf" stroke="black" points="0,-33 0,-63 158,-63 158,-33 0,-33"/>
<text text-anchor="start" x="8" y="-51" font-family="FreeSans.ttf" font-size="10.00">gpuNUFFT::GpuNUFFTOperator</text>
<text text-anchor="middle" x="79" y="-40" font-family="FreeSans.ttf" font-size="10.00">::GpuNUFFTOperator</text>
</a>
</g>
</g>
<!-- Node2 -->
<g id="node2" class="node">
<title>Node2</title>
<g id="a_node2"><a xlink:href="classgpuNUFFT_1_1GpuNUFFTOperator.html#a501ffa99025d9cc1f1497e354c56533b" target="_top" xlink:title="Precompute interpolation kernel lookup table.">
<polygon fill="none" stroke="black" points="194,-33 194,-63 352,-63 352,-33 194,-33"/>
<text text-anchor="start" x="202" y="-51" font-family="FreeSans.ttf" font-size="10.00">gpuNUFFT::GpuNUFFTOperator</text>
<text text-anchor="middle" x="273" y="-40" font-family="FreeSans.ttf" font-size="10.00">::initKernel</text>
</a>
</g>
</g>
<!-- Node1&#45;&gt;Node2 -->
<g id="edge1" class="edge">
<title>Node1&#45;&gt;Node2</title>
<path fill="none" stroke="midnightblue" d="M158.09,-48C166.6,-48 175.3,-48 183.92,-48"/>
<polygon fill="midnightblue" stroke="midnightblue" points="183.98,-51.5 193.98,-48 183.98,-44.5 183.98,-51.5"/>
</g>
<!-- Node3 -->
<g id="node3" class="node">
<title>Node3</title>
<g id="a_node3"><a xlink:href="gpuNUFFT__utils_8cpp.html#ac57bf34370dd28161430ed9f8a1d9664" target="_top" xlink:title=" ">
<polygon fill="none" stroke="black" points="388,-76.5 388,-95.5 513,-95.5 513,-76.5 388,-76.5"/>
<text text-anchor="middle" x="450.5" y="-83.5" font-family="FreeSans.ttf" font-size="10.00">calculateGrid3KernelSize</text>
</a>
</g>
</g>
<!-- Node2&#45;&gt;Node3 -->
<g id="edge2" class="edge">
<title>Node2&#45;&gt;Node3</title>
<path fill="none" stroke="midnightblue" d="M343.36,-63.02C360.74,-66.78 379.12,-70.76 395.62,-74.33"/>
<polygon fill="midnightblue" stroke="midnightblue" points="395.11,-77.8 405.62,-76.5 396.59,-70.96 395.11,-77.8"/>
</g>
<!-- Node4 -->
<g id="node4" class="node">
<title>Node4</title>
<g id="a_node4"><a xlink:href="gpuNUFFT__utils_8hpp.html#a18dd3c6c4b8ac5f6947f3dc1c59651bc" target="_top" xlink:title="Interpolation Kernel evaluation for radius.">
<polygon fill="none" stroke="black" points="549,-19.5 549,-38.5 592,-38.5 592,-19.5 549,-19.5"/>
<text text-anchor="middle" x="570.5" y="-26.5" font-family="FreeSans.ttf" font-size="10.00">kernel</text>
</a>
</g>
</g>
<!-- Node2&#45;&gt;Node4 -->
<g id="edge4" class="edge">
<title>Node2&#45;&gt;Node4</title>
<path fill="none" stroke="midnightblue" d="M352.03,-42.98C413.16,-39.05 494.96,-33.79 538.75,-30.98"/>
<polygon fill="midnightblue" stroke="midnightblue" points="539.02,-34.47 548.77,-30.33 538.57,-27.48 539.02,-34.47"/>
</g>
<!-- Node8 -->
<g id="node8" class="node">
<title>Node8</title>
<g id="a_node8"><a xlink:href="gpuNUFFT__utils_8cpp.html#a6683a749816745e9e10c65ac77ebd1c6" target="_top" xlink:title="Loads a radius of the circularly symmetric kernel into a 1&#45;d array, with respect to the kernel radius...">
<polygon fill="none" stroke="black" points="413.5,-0.5 413.5,-19.5 487.5,-19.5 487.5,-0.5 413.5,-0.5"/>
<text text-anchor="middle" x="450.5" y="-7.5" font-family="FreeSans.ttf" font-size="10.00">load1DKernel</text>
</a>
</g>
</g>
<!-- Node2&#45;&gt;Node8 -->
<g id="edge10" class="edge">
<title>Node2&#45;&gt;Node8</title>
<path fill="none" stroke="midnightblue" d="M343.36,-32.98C363.57,-28.61 385.15,-23.93 403.53,-19.95"/>
<polygon fill="midnightblue" stroke="midnightblue" points="404.35,-23.36 413.38,-17.82 402.87,-16.52 404.35,-23.36"/>
</g>
<!-- Node3&#45;&gt;Node3 -->
<g id="edge3" class="edge">
<title>Node3&#45;&gt;Node3</title>
<path fill="none" stroke="midnightblue" d="M432,-95.76C423.01,-104.57 429.17,-114 450.5,-114 464.16,-114 471.6,-110.13 472.82,-105.03"/>
<polygon fill="midnightblue" stroke="midnightblue" points="476.05,-103.67 469,-95.76 469.57,-106.34 476.05,-103.67"/>
</g>
<!-- Node5 -->
<g id="node5" class="node">
<title>Node5</title>
<g id="a_node5"><a xlink:href="gpuNUFFT__utils_8hpp.html#aa7b00d423ae0e06388b55594fe1adb93" target="_top" xlink:title="beta function used in interpolation function. See Beatty et al.">
<polygon fill="none" stroke="black" points="720,-47.5 720,-66.5 762,-66.5 762,-47.5 720,-47.5"/>
<text text-anchor="middle" x="741" y="-54.5" font-family="FreeSans.ttf" font-size="10.00">BETA</text>
</a>
</g>
</g>
<!-- Node4&#45;&gt;Node5 -->
<g id="edge5" class="edge">
<title>Node4&#45;&gt;Node5</title>
<path fill="none" stroke="midnightblue" d="M592.09,-37.28C602.66,-41.17 615.83,-45.5 628,-48 655.38,-53.62 687.21,-55.77 709.92,-56.57"/>
<polygon fill="midnightblue" stroke="midnightblue" points="709.87,-60.07 719.97,-56.86 710.07,-53.07 709.87,-60.07"/>
</g>
<!-- Node6 -->
<g id="node6" class="node">
<title>Node6</title>
<g id="a_node6"><a xlink:href="gpuNUFFT__utils_8cpp.html#a5472cb661dea68a2ab2b52df187b6291" target="_top" xlink:title="Modified Kaiser Bessel function of zero&#45;th order.">
<polygon fill="none" stroke="black" points="726.5,-0.5 726.5,-19.5 755.5,-19.5 755.5,-0.5 726.5,-0.5"/>
<text text-anchor="middle" x="741" y="-7.5" font-family="FreeSans.ttf" font-size="10.00">i0</text>
</a>
</g>
</g>
<!-- Node4&#45;&gt;Node6 -->
<g id="edge6" class="edge">
<title>Node4&#45;&gt;Node6</title>
<path fill="none" stroke="midnightblue" d="M592.02,-20.31C602.56,-16.31 615.74,-12.01 628,-10 658.18,-5.06 693.55,-6.19 716.34,-7.8"/>
<polygon fill="midnightblue" stroke="midnightblue" points="716.19,-11.3 726.44,-8.6 716.75,-4.32 716.19,-11.3"/>
</g>
<!-- Node7 -->
<g id="node7" class="node">
<title>Node7</title>
<g id="a_node7"><a xlink:href="gpuNUFFT__utils_8hpp.html#ab1456ac35fe51fc4dac2e0054f6d9a50" target="_top" xlink:title="I_0 function used in interpolation function. See Beatty et al.">
<polygon fill="none" stroke="black" points="628,-19.5 628,-38.5 684,-38.5 684,-19.5 628,-19.5"/>
<text text-anchor="middle" x="656" y="-26.5" font-family="FreeSans.ttf" font-size="10.00">I0_BETA</text>
</a>
</g>
</g>
<!-- Node4&#45;&gt;Node7 -->
<g id="edge7" class="edge">
<title>Node4&#45;&gt;Node7</title>
<path fill="none" stroke="midnightblue" d="M592.14,-29C599.92,-29 609.02,-29 617.84,-29"/>
<polygon fill="midnightblue" stroke="midnightblue" points="617.98,-32.5 627.98,-29 617.98,-25.5 617.98,-32.5"/>
</g>
<!-- Node7&#45;&gt;Node5 -->
<g id="edge8" class="edge">
<title>Node7&#45;&gt;Node5</title>
<path fill="none" stroke="midnightblue" d="M684.18,-38.17C692.54,-40.99 701.78,-44.11 710.3,-46.98"/>
<polygon fill="midnightblue" stroke="midnightblue" points="709.28,-50.33 719.87,-50.21 711.52,-43.7 709.28,-50.33"/>
</g>
<!-- Node7&#45;&gt;Node6 -->
<g id="edge9" class="edge">
<title>Node7&#45;&gt;Node6</title>
<path fill="none" stroke="midnightblue" d="M684.18,-22.78C694.45,-20.43 706.07,-17.77 716.03,-15.49"/>
<polygon fill="midnightblue" stroke="midnightblue" points="717.08,-18.84 726.05,-13.19 715.52,-12.01 717.08,-18.84"/>
</g>
<!-- Node8&#45;&gt;Node4 -->
<g id="edge11" class="edge">
<title>Node8&#45;&gt;Node4</title>
<path fill="none" stroke="midnightblue" d="M487.55,-15.8C503.85,-18.43 522.92,-21.5 538.56,-24.02"/>
<polygon fill="midnightblue" stroke="midnightblue" points="538.33,-27.53 548.76,-25.66 539.44,-20.62 538.33,-27.53"/>
</g>
</g>
</svg>
