<?xml version="1.0" encoding="UTF-8" standalone="no"?>
<!DOCTYPE svg PUBLIC "-//W3C//DTD SVG 1.1//EN"
 "http://www.w3.org/Graphics/SVG/1.1/DTD/svg11.dtd">
<!-- Generated by graphviz version 2.49.3 (20211027.1534)
 -->
<!-- Title: gpuNUFFT::BalancedOperator Pages: 1 -->
<svg width="368pt" height="95pt"
 viewBox="0.00 0.00 368.00 95.00" xmlns="http://www.w3.org/2000/svg" xmlns:xlink="http://www.w3.org/1999/xlink">
<g id="graph0" class="graph" transform="scale(1 1) rotate(0) translate(4 91)">
<title>gpuNUFFT::BalancedOperator</title>
<!-- Node1 -->
<g id="node1" class="node">
<title>Node1</title>
<g id="a_node1"><a xlink:title="Interface defined for balanced gpuNUFFT Operators.">
<polygon fill="#bfbfbf" stroke="black" points="119.5,-67.5 119.5,-86.5 267.5,-86.5 267.5,-67.5 119.5,-67.5"/>
<text text-anchor="middle" x="193.5" y="-74.5" font-family="FreeSans.ttf" font-size="10.00">gpuNUFFT::BalancedOperator</text>
</a>
</g>
</g>
<!-- Node2 -->
<g id="node2" class="node">
<title>Node2</title>
<g id="a_node2"><a xlink:href="classgpuNUFFT_1_1BalancedGpuNUFFTOperator.html" target="_top" xlink:title="Balanced GpuNUFFTOperator inherited from gpuNUFFT::GpuNUFFTOperator.">
<polygon fill="none" stroke="black" points="0,-6 0,-25 199,-25 199,-6 0,-6"/>
<text text-anchor="middle" x="99.5" y="-13" font-family="FreeSans.ttf" font-size="10.00">gpuNUFFT::BalancedGpuNUFFTOperator</text>
</a>
</g>
</g>
<!-- Node1&#45;&gt;Node2 -->
<g id="edge1" class="edge">
<title>Node1&#45;&gt;Node2</title>
<path fill="none" stroke="midnightblue" d="M171.27,-61.93C153.15,-50.46 128.15,-34.63 112.94,-25.01"/>
<polygon fill="midnightblue" stroke="midnightblue" points="169.71,-65.08 180.03,-67.48 173.45,-59.17 169.71,-65.08"/>
</g>
<!-- Node3 -->
<g id="node3" class="node">
<title>Node3</title>
<g id="a_node3"><a xlink:href="classgpuNUFFT_1_1BalancedTextureGpuNUFFTOperator.html" target="_top" xlink:title="GpuNUFFTOperator with load balancing and texture memory lookup.">
<polygon fill="none" stroke="black" points="217,-0.5 217,-30.5 360,-30.5 360,-0.5 217,-0.5"/>
<text text-anchor="start" x="225" y="-18.5" font-family="FreeSans.ttf" font-size="10.00">gpuNUFFT::BalancedTexture</text>
<text text-anchor="middle" x="288.5" y="-7.5" font-family="FreeSans.ttf" font-size="10.00">GpuNUFFTOperator</text>
</a>
</g>
</g>
<!-- Node1&#45;&gt;Node3 -->
<g id="edge2" class="edge">
<title>Node1&#45;&gt;Node3</title>
<path fill="none" stroke="midnightblue" d="M215.84,-62.01C230.99,-52.52 250.95,-40.02 266.11,-30.52"/>
<polygon fill="midnightblue" stroke="midnightblue" points="213.73,-59.2 207.11,-67.48 217.44,-65.13 213.73,-59.2"/>
</g>
</g>
</svg>
