<?xml version="1.0" encoding="UTF-8" standalone="no"?>
<!DOCTYPE svg PUBLIC "-//W3C//DTD SVG 1.1//EN"
 "http://www.w3.org/Graphics/SVG/1.1/DTD/svg11.dtd">
<!-- Generated by graphviz version 2.49.3 (20211027.1534)
 -->
<!-- Title: GpuNUFFTPythonOperator::get_spectral_radius Pages: 1 -->
<svg width="458pt" height="165pt"
 viewBox="0.00 0.00 458.00 164.50" xmlns="http://www.w3.org/2000/svg" xmlns:xlink="http://www.w3.org/1999/xlink">
<g id="graph0" class="graph" transform="scale(1 1) rotate(0) translate(4 160.5)">
<title>GpuNUFFTPythonOperator::get_spectral_radius</title>
<!-- Node1 -->
<g id="node1" class="node">
<title>Node1</title>
<g id="a_node1"><a xlink:title="Estimate the spectral radius using gpu&#45;only functions.">
<polygon fill="#bfbfbf" stroke="black" points="0,-71.5 0,-101.5 135,-101.5 135,-71.5 0,-71.5"/>
<text text-anchor="start" x="8" y="-89.5" font-family="FreeSans.ttf" font-size="10.00">GpuNUFFTPythonOperator</text>
<text text-anchor="middle" x="67.5" y="-78.5" font-family="FreeSans.ttf" font-size="10.00">::get_spectral_radius</text>
</a>
</g>
</g>
<!-- Node2 -->
<g id="node2" class="node">
<title>Node2</title>
<g id="a_node2"><a xlink:href="cuda__utils_8hpp.html#a5fb34b1c5f091a495c7ac4237257d7b1" target="_top" xlink:title="Allocation of device memory of the given extent for the defined type.">
<polygon fill="none" stroke="black" points="199,-137 199,-156 301,-156 301,-137 199,-137"/>
<text text-anchor="middle" x="250" y="-144" font-family="FreeSans.ttf" font-size="10.00">allocateDeviceMem</text>
</a>
</g>
</g>
<!-- Node1&#45;&gt;Node2 -->
<g id="edge1" class="edge">
<title>Node1&#45;&gt;Node2</title>
<path fill="none" stroke="midnightblue" d="M102.69,-101.59C122.41,-109.93 147.82,-120.08 171,-127.5 178.74,-129.98 187,-132.31 195.14,-134.44"/>
<polygon fill="midnightblue" stroke="midnightblue" points="194.41,-137.87 204.97,-136.93 196.13,-131.08 194.41,-137.87"/>
</g>
<!-- Node3 -->
<g id="node3" class="node">
<title>Node3</title>
<g id="a_node3"><a xlink:href="cuda__utils_8hpp.html#aaa83ead29bc50e65ae4298d9206a760b" target="_top" xlink:title="Free variable list of device pointers. Use NULL as stopping element.">
<polygon fill="none" stroke="black" points="190.5,-99 190.5,-118 309.5,-118 309.5,-99 190.5,-99"/>
<text text-anchor="middle" x="250" y="-106" font-family="FreeSans.ttf" font-size="10.00">freeTotalDeviceMemory</text>
</a>
</g>
</g>
<!-- Node1&#45;&gt;Node3 -->
<g id="edge2" class="edge">
<title>Node1&#45;&gt;Node3</title>
<path fill="none" stroke="midnightblue" d="M135.2,-94.63C149.89,-96.42 165.47,-98.32 180.23,-100.12"/>
<polygon fill="midnightblue" stroke="midnightblue" points="179.96,-103.61 190.31,-101.35 180.8,-96.66 179.96,-103.61"/>
</g>
<!-- Node5 -->
<g id="node5" class="node">
<title>Node5</title>
<g id="a_node5"><a xlink:href="classgpuNUFFT_1_1GpuNUFFTOperator.html#a10d565529aa2c7778c15edb8a820b417" target="_top" xlink:title="Perform forward gridding operation on given kspaceData.">
<polygon fill="none" stroke="black" points="171,-49.5 171,-79.5 329,-79.5 329,-49.5 171,-49.5"/>
<text text-anchor="start" x="179" y="-67.5" font-family="FreeSans.ttf" font-size="10.00">gpuNUFFT::GpuNUFFTOperator</text>
<text text-anchor="middle" x="250" y="-56.5" font-family="FreeSans.ttf" font-size="10.00">::performForwardGpuNUFFT</text>
</a>
</g>
</g>
<!-- Node1&#45;&gt;Node5 -->
<g id="edge4" class="edge">
<title>Node1&#45;&gt;Node5</title>
<path fill="none" stroke="midnightblue" d="M135.2,-78.37C143.57,-77.35 152.24,-76.29 160.87,-75.24"/>
<polygon fill="midnightblue" stroke="midnightblue" points="161.48,-78.69 170.98,-74.01 160.63,-71.74 161.48,-78.69"/>
</g>
<!-- Node6 -->
<g id="node6" class="node">
<title>Node6</title>
<g id="a_node6"><a xlink:href="classgpuNUFFT_1_1GpuNUFFTOperator.html#a38a45507d840b8d3d97de7fc79b4fa8a" target="_top" xlink:title="Perform Adjoint gridding operation on given kspaceData.">
<polygon fill="none" stroke="black" points="171,-0.5 171,-30.5 329,-30.5 329,-0.5 171,-0.5"/>
<text text-anchor="start" x="179" y="-18.5" font-family="FreeSans.ttf" font-size="10.00">gpuNUFFT::GpuNUFFTOperator</text>
<text text-anchor="middle" x="250" y="-7.5" font-family="FreeSans.ttf" font-size="10.00">::performGpuNUFFTAdj</text>
</a>
</g>
</g>
<!-- Node1&#45;&gt;Node6 -->
<g id="edge5" class="edge">
<title>Node1&#45;&gt;Node6</title>
<path fill="none" stroke="midnightblue" d="M99.52,-71.49C119.65,-62.02 146.59,-49.85 171,-40.5 176.93,-38.23 183.16,-35.99 189.4,-33.84"/>
<polygon fill="midnightblue" stroke="midnightblue" points="190.83,-37.05 199.2,-30.55 188.6,-30.42 190.83,-37.05"/>
</g>
<!-- Node4 -->
<g id="node4" class="node">
<title>Node4</title>
<g id="a_node4"><a xlink:href="cuda__utils_8hpp.html#a6ffa821f98a8c2b391c12c01308ff1db" target="_top" xlink:title="Free of device memory.">
<polygon fill="none" stroke="black" points="365,-99 365,-118 450,-118 450,-99 365,-99"/>
<text text-anchor="middle" x="407.5" y="-106" font-family="FreeSans.ttf" font-size="10.00">freeDeviceMem</text>
</a>
</g>
</g>
<!-- Node3&#45;&gt;Node4 -->
<g id="edge3" class="edge">
<title>Node3&#45;&gt;Node4</title>
<path fill="none" stroke="midnightblue" d="M309.79,-108.5C324.46,-108.5 340.09,-108.5 354.41,-108.5"/>
<polygon fill="midnightblue" stroke="midnightblue" points="354.58,-112 364.58,-108.5 354.58,-105 354.58,-112"/>
</g>
</g>
</svg>
