<?xml version="1.0" encoding="UTF-8" standalone="no"?>
<!DOCTYPE svg PUBLIC "-//W3C//DTD SVG 1.1//EN"
 "http://www.w3.org/Graphics/SVG/1.1/DTD/svg11.dtd">
<!-- Generated by graphviz version 2.49.3 (20211027.1534)
 -->
<!-- Title: gpuNUFFT::BalancedTextureGpuNUFFTOperator::adjConvolution Pages: 1 -->
<svg width="350pt" height="104pt"
 viewBox="0.00 0.00 350.00 104.00" xmlns="http://www.w3.org/2000/svg" xmlns:xlink="http://www.w3.org/1999/xlink">
<g id="graph0" class="graph" transform="scale(1 1) rotate(0) translate(4 100)">
<title>gpuNUFFT::BalancedTextureGpuNUFFTOperator::adjConvolution</title>
<!-- Node1 -->
<g id="node1" class="node">
<title>Node1</title>
<g id="a_node1"><a xlink:title="Virtual adjoint convolution call, which can be used by sub&#45;classes to add behaviour to the gridding s...">
<polygon fill="#bfbfbf" stroke="black" points="0,-33 0,-63 173,-63 173,-33 0,-33"/>
<text text-anchor="start" x="8" y="-51" font-family="FreeSans.ttf" font-size="10.00">gpuNUFFT::BalancedTexture</text>
<text text-anchor="middle" x="86.5" y="-40" font-family="FreeSans.ttf" font-size="10.00">GpuNUFFTOperator::adjConvolution</text>
</a>
</g>
</g>
<!-- Node2 -->
<g id="node2" class="node">
<title>Node2</title>
<g id="a_node2"><a xlink:href="cuda__utils_8hpp.html#a46dce0efc9f7cdbb81d0a48b65ce914d" target="_top" xlink:title="Bind to 1&#45;d texture on device.">
<polygon fill="none" stroke="black" points="230.5,-76.5 230.5,-95.5 320.5,-95.5 320.5,-76.5 230.5,-76.5"/>
<text text-anchor="middle" x="275.5" y="-83.5" font-family="FreeSans.ttf" font-size="10.00">bindTo1DTexture</text>
</a>
</g>
</g>
<!-- Node1&#45;&gt;Node2 -->
<g id="edge1" class="edge">
<title>Node1&#45;&gt;Node2</title>
<path fill="none" stroke="midnightblue" d="M161.41,-63.02C181.13,-67.03 202.08,-71.28 220.51,-75.03"/>
<polygon fill="midnightblue" stroke="midnightblue" points="219.97,-78.49 230.47,-77.05 221.37,-71.63 219.97,-78.49"/>
</g>
<!-- Node3 -->
<g id="node3" class="node">
<title>Node3</title>
<g id="a_node3"><a xlink:href="gpuNUFFT__kernels_8hpp.html#a56fdc7e7f864e7e80e7b91192a6c7bb3" target="_top" xlink:title="Adjoint gridding convolution implementation on GPU using textures for kernel lookup.">
<polygon fill="none" stroke="black" points="209,-38.5 209,-57.5 342,-57.5 342,-38.5 209,-38.5"/>
<text text-anchor="middle" x="275.5" y="-45.5" font-family="FreeSans.ttf" font-size="10.00">performTextureConvolution</text>
</a>
</g>
</g>
<!-- Node1&#45;&gt;Node3 -->
<g id="edge2" class="edge">
<title>Node1&#45;&gt;Node3</title>
<path fill="none" stroke="midnightblue" d="M173.06,-48C181.61,-48 190.25,-48 198.68,-48"/>
<polygon fill="midnightblue" stroke="midnightblue" points="198.85,-51.5 208.85,-48 198.85,-44.5 198.85,-51.5"/>
</g>
<!-- Node4 -->
<g id="node4" class="node">
<title>Node4</title>
<g id="a_node4"><a xlink:href="cuda__utils_8hpp.html#ab4541b0102691624bd5e29777536f1d5" target="_top" xlink:title="Unbind from device texture.">
<polygon fill="none" stroke="black" points="237,-0.5 237,-19.5 314,-19.5 314,-0.5 237,-0.5"/>
<text text-anchor="middle" x="275.5" y="-7.5" font-family="FreeSans.ttf" font-size="10.00">unbindTexture</text>
</a>
</g>
</g>
<!-- Node1&#45;&gt;Node4 -->
<g id="edge3" class="edge">
<title>Node1&#45;&gt;Node4</title>
<path fill="none" stroke="midnightblue" d="M161.41,-32.98C183.4,-28.51 206.91,-23.73 226.77,-19.7"/>
<polygon fill="midnightblue" stroke="midnightblue" points="227.69,-23.08 236.79,-17.66 226.29,-16.22 227.69,-23.08"/>
</g>
</g>
</svg>
