<?xml version="1.0" encoding="UTF-8" standalone="no"?>
<!DOCTYPE svg PUBLIC "-//W3C//DTD SVG 1.1//EN"
 "http://www.w3.org/Graphics/SVG/1.1/DTD/svg11.dtd">
<!-- Generated by graphviz version 2.49.3 (20211027.1534)
 -->
<!-- Title: gpuNUFFT::GpuNUFFTOperator::performForwardGpuNUFFT Pages: 1 -->
<svg width="549pt" height="274pt"
 viewBox="0.00 0.00 549.00 273.50" xmlns="http://www.w3.org/2000/svg" xmlns:xlink="http://www.w3.org/1999/xlink">
<g id="graph0" class="graph" transform="scale(1 1) rotate(0) translate(4 269.5)">
<title>gpuNUFFT::GpuNUFFTOperator::performForwardGpuNUFFT</title>
<!-- Node1 -->
<g id="node1" class="node">
<title>Node1</title>
<g id="a_node1"><a xlink:title="Perform forward gridding operation on given kspaceData.">
<polygon fill="#bfbfbf" stroke="black" points="383,-120 383,-150 541,-150 541,-120 383,-120"/>
<text text-anchor="start" x="391" y="-138" font-family="FreeSans.ttf" font-size="10.00">gpuNUFFT::GpuNUFFTOperator</text>
<text text-anchor="middle" x="462" y="-127" font-family="FreeSans.ttf" font-size="10.00">::performForwardGpuNUFFT</text>
</a>
</g>
</g>
<!-- Node2 -->
<g id="node2" class="node">
<title>Node2</title>
<g id="a_node2"><a xlink:href="classGpuNUFFTPythonOperator.html#a564644dc7ea9b8306cd6296ea6f1fca6" target="_top" xlink:title=" ">
<polygon fill="none" stroke="black" points="180,-235 180,-265 315,-265 315,-235 180,-235"/>
<text text-anchor="start" x="188" y="-253" font-family="FreeSans.ttf" font-size="10.00">GpuNUFFTPythonOperator</text>
<text text-anchor="middle" x="247.5" y="-242" font-family="FreeSans.ttf" font-size="10.00">::data_consistency</text>
</a>
</g>
</g>
<!-- Node1&#45;&gt;Node2 -->
<g id="edge1" class="edge">
<title>Node1&#45;&gt;Node2</title>
<path fill="none" stroke="midnightblue" d="M439.32,-157.19C417.77,-177.98 382.84,-208.41 347,-226 337.05,-230.89 326.03,-234.82 315.07,-237.98"/>
<polygon fill="midnightblue" stroke="midnightblue" points="441.95,-159.51 446.63,-150.01 437.04,-154.52 441.95,-159.51"/>
</g>
<!-- Node4 -->
<g id="node4" class="node">
<title>Node4</title>
<g id="a_node4"><a xlink:href="classGpuNUFFTPythonOperator.html#aee99f5b7d79d7a40c4a2475c9a439c59" target="_top" xlink:title=" ">
<polygon fill="none" stroke="black" points="180,-186 180,-216 315,-216 315,-186 180,-186"/>
<text text-anchor="start" x="188" y="-204" font-family="FreeSans.ttf" font-size="10.00">GpuNUFFTPythonOperator</text>
<text text-anchor="middle" x="247.5" y="-193" font-family="FreeSans.ttf" font-size="10.00">::estimate_density_comp</text>
</a>
</g>
</g>
<!-- Node1&#45;&gt;Node4 -->
<g id="edge3" class="edge">
<title>Node1&#45;&gt;Node4</title>
<path fill="none" stroke="midnightblue" d="M412.45,-153.63C392.34,-161.04 368.69,-169.36 347,-176 335.61,-179.48 323.38,-182.87 311.54,-185.96"/>
<polygon fill="midnightblue" stroke="midnightblue" points="413.85,-156.84 422.01,-150.08 411.41,-150.28 413.85,-156.84"/>
</g>
<!-- Node5 -->
<g id="node5" class="node">
<title>Node5</title>
<g id="a_node5"><a xlink:href="classGpuNUFFTPythonOperator.html#a790d6c1885f30c640064a26f618e64ea" target="_top" xlink:title=" ">
<polygon fill="none" stroke="black" points="172.5,-147.5 172.5,-166.5 322.5,-166.5 322.5,-147.5 172.5,-147.5"/>
<text text-anchor="middle" x="247.5" y="-154.5" font-family="FreeSans.ttf" font-size="10.00">GpuNUFFTPythonOperator::op</text>
</a>
</g>
</g>
<!-- Node1&#45;&gt;Node5 -->
<g id="edge5" class="edge">
<title>Node1&#45;&gt;Node5</title>
<path fill="none" stroke="midnightblue" d="M372.54,-144.16C355.95,-145.88 338.77,-147.65 322.67,-149.32"/>
<polygon fill="midnightblue" stroke="midnightblue" points="373.19,-147.61 382.78,-143.1 372.47,-140.65 373.19,-147.61"/>
</g>
<!-- Node6 -->
<g id="node6" class="node">
<title>Node6</title>
<g id="a_node6"><a xlink:href="classgpuNUFFT_1_1BalancedGpuNUFFTOperator.html#a3b8fe03dd1e0e8b68eba22e42e1e032b" target="_top" xlink:title="Perform forward gridding operation on given kspaceData.">
<polygon fill="none" stroke="black" points="148,-98 148,-128 347,-128 347,-98 148,-98"/>
<text text-anchor="start" x="156" y="-116" font-family="FreeSans.ttf" font-size="10.00">gpuNUFFT::BalancedGpuNUFFTOperator</text>
<text text-anchor="middle" x="247.5" y="-105" font-family="FreeSans.ttf" font-size="10.00">::performForwardGpuNUFFT</text>
</a>
</g>
</g>
<!-- Node1&#45;&gt;Node6 -->
<g id="edge7" class="edge">
<title>Node1&#45;&gt;Node6</title>
<path fill="none" stroke="midnightblue" d="M372.62,-125.85C364.21,-124.98 355.65,-124.09 347.15,-123.21"/>
<polygon fill="midnightblue" stroke="midnightblue" points="372.47,-129.35 382.78,-126.9 373.19,-122.39 372.47,-129.35"/>
</g>
<!-- Node7 -->
<g id="node7" class="node">
<title>Node7</title>
<g id="a_node7"><a xlink:href="classgpuNUFFT_1_1BalancedTextureGpuNUFFTOperator.html#a8e0514f6dea51134ad49aaeb6c29ac5b" target="_top" xlink:title="Perform forward gridding operation on given kspaceData.">
<polygon fill="none" stroke="black" points="158.5,-38.5 158.5,-79.5 336.5,-79.5 336.5,-38.5 158.5,-38.5"/>
<text text-anchor="start" x="166.5" y="-67.5" font-family="FreeSans.ttf" font-size="10.00">gpuNUFFT::BalancedTexture</text>
<text text-anchor="start" x="166.5" y="-56.5" font-family="FreeSans.ttf" font-size="10.00">GpuNUFFTOperator::performForward</text>
<text text-anchor="middle" x="247.5" y="-45.5" font-family="FreeSans.ttf" font-size="10.00">GpuNUFFT</text>
</a>
</g>
</g>
<!-- Node1&#45;&gt;Node7 -->
<g id="edge8" class="edge">
<title>Node1&#45;&gt;Node7</title>
<path fill="none" stroke="midnightblue" d="M416.59,-116.02C395.65,-107.35 370.21,-97.2 347,-89 337.9,-85.78 328.25,-82.59 318.7,-79.55"/>
<polygon fill="midnightblue" stroke="midnightblue" points="415.3,-119.28 425.87,-119.9 417.99,-112.82 415.3,-119.28"/>
</g>
<!-- Node8 -->
<g id="node8" class="node">
<title>Node8</title>
<g id="a_node8"><a xlink:href="gpuNUFFT__forward__tests_8cpp.html#a6e7e337161ef805951437dbf21112e43" target="_top" xlink:title=" ">
<polygon fill="none" stroke="black" points="227,-0.5 227,-19.5 268,-19.5 268,-0.5 227,-0.5"/>
<text text-anchor="middle" x="247.5" y="-7.5" font-family="FreeSans.ttf" font-size="10.00">TEST</text>
</a>
</g>
</g>
<!-- Node1&#45;&gt;Node8 -->
<g id="edge9" class="edge">
<title>Node1&#45;&gt;Node8</title>
<path fill="none" stroke="midnightblue" d="M443.21,-112.13C422.76,-87.53 386.84,-49.23 347,-29 321.69,-16.15 288.68,-11.96 268.03,-10.61"/>
<polygon fill="midnightblue" stroke="midnightblue" points="440.51,-114.36 449.54,-119.9 445.94,-109.94 440.51,-114.36"/>
</g>
<!-- Node3 -->
<g id="node3" class="node">
<title>Node3</title>
<g id="a_node3"><a xlink:href="python__bindings_8cpp.html#ad1a7eaf0d60c015a4df3da44ddf58e27" target="_top" xlink:title=" ">
<polygon fill="none" stroke="black" points="0,-191.5 0,-210.5 112,-210.5 112,-191.5 0,-191.5"/>
<text text-anchor="middle" x="56" y="-198.5" font-family="FreeSans.ttf" font-size="10.00">PYBIND11_MODULE</text>
</a>
</g>
</g>
<!-- Node2&#45;&gt;Node3 -->
<g id="edge2" class="edge">
<title>Node2&#45;&gt;Node3</title>
<path fill="none" stroke="midnightblue" d="M173.84,-232.55C165.13,-230.38 156.36,-228.17 148,-226 129.13,-221.11 108.14,-215.36 91.08,-210.61"/>
<polygon fill="midnightblue" stroke="midnightblue" points="173.09,-235.97 183.64,-234.97 174.77,-229.17 173.09,-235.97"/>
</g>
<!-- Node4&#45;&gt;Node3 -->
<g id="edge4" class="edge">
<title>Node4&#45;&gt;Node3</title>
<path fill="none" stroke="midnightblue" d="M169.95,-201C150.59,-201 130.17,-201 112.11,-201"/>
<polygon fill="midnightblue" stroke="midnightblue" points="169.96,-204.5 179.96,-201 169.96,-197.5 169.96,-204.5"/>
</g>
<!-- Node5&#45;&gt;Node3 -->
<g id="edge6" class="edge">
<title>Node5&#45;&gt;Node3</title>
<path fill="none" stroke="midnightblue" d="M186.68,-168.57C173.89,-171.21 160.47,-174.09 148,-177 129.22,-181.38 108.42,-186.82 91.45,-191.41"/>
<polygon fill="midnightblue" stroke="midnightblue" points="187.67,-171.94 196.77,-166.52 186.28,-165.08 187.67,-171.94"/>
</g>
</g>
</svg>
