<?xml version="1.0" encoding="UTF-8" standalone="no"?>
<!DOCTYPE svg PUBLIC "-//W3C//DTD SVG 1.1//EN"
 "http://www.w3.org/Graphics/SVG/1.1/DTD/svg11.dtd">
<!-- Generated by graphviz version 2.49.3 (20211027.1534)
 -->
<!-- Title: GpuNUFFTPythonOperator::estimate_density_comp Pages: 1 -->
<svg width="682pt" height="142pt"
 viewBox="0.00 0.00 682.00 142.00" xmlns="http://www.w3.org/2000/svg" xmlns:xlink="http://www.w3.org/1999/xlink">
<g id="graph0" class="graph" transform="scale(1 1) rotate(0) translate(4 138)">
<title>GpuNUFFTPythonOperator::estimate_density_comp</title>
<!-- Node1 -->
<g id="node1" class="node">
<title>Node1</title>
<g id="a_node1"><a xlink:title=" ">
<polygon fill="#bfbfbf" stroke="black" points="0,-52 0,-82 135,-82 135,-52 0,-52"/>
<text text-anchor="start" x="8" y="-70" font-family="FreeSans.ttf" font-size="10.00">GpuNUFFTPythonOperator</text>
<text text-anchor="middle" x="67.5" y="-59" font-family="FreeSans.ttf" font-size="10.00">::estimate_density_comp</text>
</a>
</g>
</g>
<!-- Node2 -->
<g id="node2" class="node">
<title>Node2</title>
<g id="a_node2"><a xlink:href="classgpuNUFFT_1_1GpuNUFFTOperator.html#a7ac11881773486cdca07845299688268" target="_top" xlink:title=" ">
<polygon fill="none" stroke="black" points="171,-52 171,-82 329,-82 329,-52 171,-52"/>
<text text-anchor="start" x="179" y="-70" font-family="FreeSans.ttf" font-size="10.00">gpuNUFFT::GpuNUFFTOperator</text>
<text text-anchor="middle" x="250" y="-59" font-family="FreeSans.ttf" font-size="10.00">::estimate_density_comp</text>
</a>
</g>
</g>
<!-- Node1&#45;&gt;Node2 -->
<g id="edge1" class="edge">
<title>Node1&#45;&gt;Node2</title>
<path fill="none" stroke="midnightblue" d="M135.2,-67C143.57,-67 152.24,-67 160.87,-67"/>
<polygon fill="midnightblue" stroke="midnightblue" points="160.98,-70.5 170.98,-67 160.98,-63.5 160.98,-70.5"/>
</g>
<!-- Node3 -->
<g id="node3" class="node">
<title>Node3</title>
<g id="a_node3"><a xlink:href="cuda__utils_8hpp.html#a18413e749218eb97bc61578b50a57787" target="_top" xlink:title="CUDA memory allocation and memcpy call to copy data from host to device.">
<polygon fill="none" stroke="black" points="365,-114.5 365,-133.5 517,-133.5 517,-114.5 365,-114.5"/>
<text text-anchor="middle" x="441" y="-121.5" font-family="FreeSans.ttf" font-size="10.00">allocateAndCopyToDeviceMem</text>
</a>
</g>
</g>
<!-- Node2&#45;&gt;Node3 -->
<g id="edge2" class="edge">
<title>Node2&#45;&gt;Node3</title>
<path fill="none" stroke="midnightblue" d="M293.53,-82C314.87,-89.32 341.17,-98.02 365,-105 373.15,-107.39 381.86,-109.76 390.34,-111.97"/>
<polygon fill="midnightblue" stroke="midnightblue" points="389.59,-115.39 400.15,-114.48 391.33,-108.61 389.59,-115.39"/>
</g>
<!-- Node4 -->
<g id="node4" class="node">
<title>Node4</title>
<g id="a_node4"><a xlink:href="cuda__utils_8hpp.html#a5fb34b1c5f091a495c7ac4237257d7b1" target="_top" xlink:title="Allocation of device memory of the given extent for the defined type.">
<polygon fill="none" stroke="black" points="390,-76.5 390,-95.5 492,-95.5 492,-76.5 390,-76.5"/>
<text text-anchor="middle" x="441" y="-83.5" font-family="FreeSans.ttf" font-size="10.00">allocateDeviceMem</text>
</a>
</g>
</g>
<!-- Node2&#45;&gt;Node4 -->
<g id="edge3" class="edge">
<title>Node2&#45;&gt;Node4</title>
<path fill="none" stroke="midnightblue" d="M329.24,-74.87C346.07,-76.56 363.6,-78.32 379.63,-79.93"/>
<polygon fill="midnightblue" stroke="midnightblue" points="379.62,-83.45 389.92,-80.97 380.32,-76.48 379.62,-83.45"/>
</g>
<!-- Node5 -->
<g id="node5" class="node">
<title>Node5</title>
<g id="a_node5"><a xlink:href="structgpuNUFFT_1_1Array.html#af426f56b5d7e05b6143acbdd51bac188" target="_top" xlink:title=" ">
<polygon fill="none" stroke="black" points="380.5,-38.5 380.5,-57.5 501.5,-57.5 501.5,-38.5 380.5,-38.5"/>
<text text-anchor="middle" x="441" y="-45.5" font-family="FreeSans.ttf" font-size="10.00">gpuNUFFT::Array::count</text>
</a>
</g>
</g>
<!-- Node2&#45;&gt;Node5 -->
<g id="edge4" class="edge">
<title>Node2&#45;&gt;Node5</title>
<path fill="none" stroke="midnightblue" d="M329.24,-59.13C342.83,-57.77 356.89,-56.35 370.24,-55.01"/>
<polygon fill="midnightblue" stroke="midnightblue" points="370.69,-58.49 380.29,-54 369.99,-51.52 370.69,-58.49"/>
</g>
<!-- Node7 -->
<g id="node7" class="node">
<title>Node7</title>
<g id="a_node7"><a xlink:href="gpuNUFFT__kernels_8hpp.html#a8431363d47100f4911c3dfd4c8cd833f" target="_top" xlink:title="Perform the Density compensation method.">
<polygon fill="none" stroke="black" points="371.5,-0.5 371.5,-19.5 510.5,-19.5 510.5,-0.5 371.5,-0.5"/>
<text text-anchor="middle" x="441" y="-7.5" font-family="FreeSans.ttf" font-size="10.00">performUpdateDensityComp</text>
</a>
</g>
</g>
<!-- Node2&#45;&gt;Node7 -->
<g id="edge6" class="edge">
<title>Node2&#45;&gt;Node7</title>
<path fill="none" stroke="midnightblue" d="M293.53,-52C314.87,-44.68 341.17,-35.98 365,-29 373.15,-26.61 381.86,-24.24 390.34,-22.03"/>
<polygon fill="midnightblue" stroke="midnightblue" points="391.33,-25.39 400.15,-19.52 389.59,-18.61 391.33,-25.39"/>
</g>
<!-- Node6 -->
<g id="node6" class="node">
<title>Node6</title>
<g id="a_node6"><a xlink:href="structgpuNUFFT_1_1Dimensions.html#a4c589934c5444910fbcd890d128229c9" target="_top" xlink:title="Compute total count of array length.">
<polygon fill="none" stroke="black" points="553,-33 553,-63 674,-63 674,-33 553,-33"/>
<text text-anchor="start" x="561" y="-51" font-family="FreeSans.ttf" font-size="10.00">gpuNUFFT::Dimensions</text>
<text text-anchor="middle" x="613.5" y="-40" font-family="FreeSans.ttf" font-size="10.00">::count</text>
</a>
</g>
</g>
<!-- Node5&#45;&gt;Node6 -->
<g id="edge5" class="edge">
<title>Node5&#45;&gt;Node6</title>
<path fill="none" stroke="midnightblue" d="M501.63,-48C514.87,-48 529.02,-48 542.63,-48"/>
<polygon fill="midnightblue" stroke="midnightblue" points="542.9,-51.5 552.9,-48 542.9,-44.5 542.9,-51.5"/>
</g>
</g>
</svg>
