<?xml version="1.0" encoding="UTF-8" standalone="no"?>
<!DOCTYPE svg PUBLIC "-//W3C//DTD SVG 1.1//EN"
 "http://www.w3.org/Graphics/SVG/1.1/DTD/svg11.dtd">
<!-- Generated by graphviz version 2.49.3 (20211027.1534)
 -->
<!-- Title: gpuNUFFT::GpuNUFFTOperator::setSectorCenters Pages: 1 -->
<svg width="420pt" height="137pt"
 viewBox="0.00 0.00 420.00 137.00" xmlns="http://www.w3.org/2000/svg" xmlns:xlink="http://www.w3.org/1999/xlink">
<g id="graph0" class="graph" transform="scale(1 1) rotate(0) translate(4 133)">
<title>gpuNUFFT::GpuNUFFTOperator::setSectorCenters</title>
<!-- Node1 -->
<g id="node1" class="node">
<title>Node1</title>
<g id="a_node1"><a xlink:title=" ">
<polygon fill="#bfbfbf" stroke="black" points="254,-49.5 254,-79.5 412,-79.5 412,-49.5 254,-49.5"/>
<text text-anchor="start" x="262" y="-67.5" font-family="FreeSans.ttf" font-size="10.00">gpuNUFFT::GpuNUFFTOperator</text>
<text text-anchor="middle" x="333" y="-56.5" font-family="FreeSans.ttf" font-size="10.00">::setSectorCenters</text>
</a>
</g>
</g>
<!-- Node2 -->
<g id="node2" class="node">
<title>Node2</title>
<g id="a_node2"><a xlink:href="classgpuNUFFT_1_1GpuNUFFTOperatorFactory.html#a82e185db6eda1edb359df5a580be7b37" target="_top" xlink:title="Computation of the deapodization function.">
<polygon fill="none" stroke="black" points="14.5,-98.5 14.5,-128.5 203.5,-128.5 203.5,-98.5 14.5,-98.5"/>
<text text-anchor="start" x="22.5" y="-116.5" font-family="FreeSans.ttf" font-size="10.00">gpuNUFFT::GpuNUFFTOperator</text>
<text text-anchor="middle" x="109" y="-105.5" font-family="FreeSans.ttf" font-size="10.00">Factory::computeDeapodizationFunction</text>
</a>
</g>
</g>
<!-- Node1&#45;&gt;Node2 -->
<g id="edge1" class="edge">
<title>Node1&#45;&gt;Node2</title>
<path fill="none" stroke="midnightblue" d="M253.81,-81.76C229.07,-87.22 201.95,-93.21 177.99,-98.49"/>
<polygon fill="midnightblue" stroke="midnightblue" points="254.87,-85.11 263.88,-79.53 253.36,-78.27 254.87,-85.11"/>
</g>
<!-- Node3 -->
<g id="node3" class="node">
<title>Node3</title>
<g id="a_node3"><a xlink:href="classgpuNUFFT_1_1GpuNUFFTOperatorFactory.html#a0e941d590a7e5effed76f909dfa72bcc" target="_top" xlink:title="Create GpuNUFFT Operator.">
<polygon fill="none" stroke="black" points="24.5,-49.5 24.5,-79.5 193.5,-79.5 193.5,-49.5 24.5,-49.5"/>
<text text-anchor="start" x="32.5" y="-67.5" font-family="FreeSans.ttf" font-size="10.00">gpuNUFFT::GpuNUFFTOperator</text>
<text text-anchor="middle" x="109" y="-56.5" font-family="FreeSans.ttf" font-size="10.00">Factory::createGpuNUFFTOperator</text>
</a>
</g>
</g>
<!-- Node1&#45;&gt;Node3 -->
<g id="edge2" class="edge">
<title>Node1&#45;&gt;Node3</title>
<path fill="none" stroke="midnightblue" d="M243.57,-64.5C227.09,-64.5 209.92,-64.5 193.59,-64.5"/>
<polygon fill="midnightblue" stroke="midnightblue" points="243.73,-68 253.73,-64.5 243.73,-61 243.73,-68"/>
</g>
<!-- Node4 -->
<g id="node4" class="node">
<title>Node4</title>
<g id="a_node4"><a xlink:href="classgpuNUFFT_1_1GpuNUFFTOperatorFactory.html#aa5cecffe2b150073fd71145317ae308b" target="_top" xlink:title="Load GpuNUFFT Operator from previously computed mappings.">
<polygon fill="none" stroke="black" points="0,-0.5 0,-30.5 218,-30.5 218,-0.5 0,-0.5"/>
<text text-anchor="start" x="8" y="-18.5" font-family="FreeSans.ttf" font-size="10.00">gpuNUFFT::GpuNUFFTOperator</text>
<text text-anchor="middle" x="109" y="-7.5" font-family="FreeSans.ttf" font-size="10.00">Factory::loadPrecomputedGpuNUFFTOperator</text>
</a>
</g>
</g>
<!-- Node1&#45;&gt;Node4 -->
<g id="edge3" class="edge">
<title>Node1&#45;&gt;Node4</title>
<path fill="none" stroke="midnightblue" d="M253.81,-47.24C229.07,-41.78 201.95,-35.79 177.99,-30.51"/>
<polygon fill="midnightblue" stroke="midnightblue" points="253.36,-50.73 263.88,-49.47 254.87,-43.89 253.36,-50.73"/>
</g>
</g>
</svg>
