<?xml version="1.0" encoding="UTF-8" standalone="no"?>
<!DOCTYPE svg PUBLIC "-//W3C//DTD SVG 1.1//EN"
 "http://www.w3.org/Graphics/SVG/1.1/DTD/svg11.dtd">
<!-- Generated by graphviz version 2.49.3 (20211027.1534)
 -->
<!-- Title: gpuNUFFT::BalancedTextureGpuNUFFTOperator::initAndCopyGpuNUFFTInfo Pages: 1 -->
<svg width="708pt" height="113pt"
 viewBox="0.00 0.00 708.00 113.00" xmlns="http://www.w3.org/2000/svg" xmlns:xlink="http://www.w3.org/1999/xlink">
<g id="graph0" class="graph" transform="scale(1 1) rotate(0) translate(4 109)">
<title>gpuNUFFT::BalancedTextureGpuNUFFTOperator::initAndCopyGpuNUFFTInfo</title>
<!-- Node1 -->
<g id="node1" class="node">
<title>Node1</title>
<g id="a_node1"><a xlink:title="Virtual method to perform precomputation of all neccessary meta information used in the gridding step...">
<polygon fill="#bfbfbf" stroke="black" points="0,-52.5 0,-93.5 179,-93.5 179,-52.5 0,-52.5"/>
<text text-anchor="start" x="8" y="-81.5" font-family="FreeSans.ttf" font-size="10.00">gpuNUFFT::BalancedTexture</text>
<text text-anchor="start" x="8" y="-70.5" font-family="FreeSans.ttf" font-size="10.00">GpuNUFFTOperator::initAndCopyGpu</text>
<text text-anchor="middle" x="89.5" y="-59.5" font-family="FreeSans.ttf" font-size="10.00">NUFFTInfo</text>
</a>
</g>
</g>
<!-- Node2 -->
<g id="node2" class="node">
<title>Node2</title>
<g id="a_node2"><a xlink:href="cuda__utils_8hpp.html#a7ac606afbf03e74f64780e01d12aa64b" target="_top" xlink:title="Initialize constant symbol on device.">
<polygon fill="none" stroke="black" points="250.5,-85.5 250.5,-104.5 337.5,-104.5 337.5,-85.5 250.5,-85.5"/>
<text text-anchor="middle" x="294" y="-92.5" font-family="FreeSans.ttf" font-size="10.00">initConstSymbol</text>
</a>
</g>
</g>
<!-- Node1&#45;&gt;Node2 -->
<g id="edge1" class="edge">
<title>Node1&#45;&gt;Node2</title>
<path fill="none" stroke="midnightblue" d="M179.02,-82.62C199.95,-84.89 221.61,-87.24 240.35,-89.28"/>
<polygon fill="midnightblue" stroke="midnightblue" points="240.12,-92.78 250.44,-90.38 240.88,-85.82 240.12,-92.78"/>
</g>
<!-- Node3 -->
<g id="node3" class="node">
<title>Node3</title>
<g id="a_node3"><a xlink:href="classgpuNUFFT_1_1GpuNUFFTOperator.html#a1d1ee62639349d3409ad96366b082c07" target="_top" xlink:title="Compute all neccessary meta information used in the gridding steps.">
<polygon fill="none" stroke="black" points="215,-36 215,-66 373,-66 373,-36 215,-36"/>
<text text-anchor="start" x="223" y="-54" font-family="FreeSans.ttf" font-size="10.00">gpuNUFFT::GpuNUFFTOperator</text>
<text text-anchor="middle" x="294" y="-43" font-family="FreeSans.ttf" font-size="10.00">::initGpuNUFFTInfo</text>
</a>
</g>
</g>
<!-- Node1&#45;&gt;Node3 -->
<g id="edge2" class="edge">
<title>Node1&#45;&gt;Node3</title>
<path fill="none" stroke="midnightblue" d="M179.02,-63.38C187.59,-62.45 196.28,-61.51 204.85,-60.58"/>
<polygon fill="midnightblue" stroke="midnightblue" points="205.26,-64.05 214.83,-59.49 204.51,-57.09 205.26,-64.05"/>
</g>
<!-- Node4 -->
<g id="node4" class="node">
<title>Node4</title>
<g id="a_node4"><a xlink:href="structgpuNUFFT_1_1Dimensions.html#a4c589934c5444910fbcd890d128229c9" target="_top" xlink:title="Compute total count of array length.">
<polygon fill="none" stroke="black" points="409,-58 409,-88 530,-88 530,-58 409,-58"/>
<text text-anchor="start" x="417" y="-76" font-family="FreeSans.ttf" font-size="10.00">gpuNUFFT::Dimensions</text>
<text text-anchor="middle" x="469.5" y="-65" font-family="FreeSans.ttf" font-size="10.00">::count</text>
</a>
</g>
</g>
<!-- Node3&#45;&gt;Node4 -->
<g id="edge3" class="edge">
<title>Node3&#45;&gt;Node4</title>
<path fill="none" stroke="midnightblue" d="M373.12,-60.91C381.63,-61.98 390.24,-63.08 398.64,-64.14"/>
<polygon fill="midnightblue" stroke="midnightblue" points="398.39,-67.64 408.75,-65.42 399.27,-60.69 398.39,-67.64"/>
</g>
<!-- Node5 -->
<g id="node5" class="node">
<title>Node5</title>
<g id="a_node5"><a xlink:href="gpuNUFFT__utils_8hpp.html#a18dd3c6c4b8ac5f6947f3dc1c59651bc" target="_top" xlink:title="Interpolation Kernel evaluation for radius.">
<polygon fill="none" stroke="black" points="448,-19.5 448,-38.5 491,-38.5 491,-19.5 448,-19.5"/>
<text text-anchor="middle" x="469.5" y="-26.5" font-family="FreeSans.ttf" font-size="10.00">kernel</text>
</a>
</g>
</g>
<!-- Node3&#45;&gt;Node5 -->
<g id="edge4" class="edge">
<title>Node3&#45;&gt;Node5</title>
<path fill="none" stroke="midnightblue" d="M373.12,-41.09C396.13,-38.18 419.95,-35.16 438.04,-32.86"/>
<polygon fill="midnightblue" stroke="midnightblue" points="438.49,-36.33 447.97,-31.6 437.61,-29.39 438.49,-36.33"/>
</g>
<!-- Node6 -->
<g id="node6" class="node">
<title>Node6</title>
<g id="a_node6"><a xlink:href="gpuNUFFT__utils_8hpp.html#aa7b00d423ae0e06388b55594fe1adb93" target="_top" xlink:title="beta function used in interpolation function. See Beatty et al.">
<polygon fill="none" stroke="black" points="658,-47.5 658,-66.5 700,-66.5 700,-47.5 658,-47.5"/>
<text text-anchor="middle" x="679" y="-54.5" font-family="FreeSans.ttf" font-size="10.00">BETA</text>
</a>
</g>
</g>
<!-- Node5&#45;&gt;Node6 -->
<g id="edge5" class="edge">
<title>Node5&#45;&gt;Node6</title>
<path fill="none" stroke="midnightblue" d="M491.25,-33.85C510.51,-38.18 540.05,-44.39 566,-48 593.52,-51.83 625.09,-54.18 647.68,-55.52"/>
<polygon fill="midnightblue" stroke="midnightblue" points="647.51,-59.02 657.69,-56.08 647.9,-52.03 647.51,-59.02"/>
</g>
<!-- Node7 -->
<g id="node7" class="node">
<title>Node7</title>
<g id="a_node7"><a xlink:href="gpuNUFFT__utils_8cpp.html#a5472cb661dea68a2ab2b52df187b6291" target="_top" xlink:title="Modified Kaiser Bessel function of zero&#45;th order.">
<polygon fill="none" stroke="black" points="664.5,-0.5 664.5,-19.5 693.5,-19.5 693.5,-0.5 664.5,-0.5"/>
<text text-anchor="middle" x="679" y="-7.5" font-family="FreeSans.ttf" font-size="10.00">i0</text>
</a>
</g>
</g>
<!-- Node5&#45;&gt;Node7 -->
<g id="edge6" class="edge">
<title>Node5&#45;&gt;Node7</title>
<path fill="none" stroke="midnightblue" d="M491.19,-23.66C510.41,-18.99 539.92,-12.57 566,-10 596.27,-7.02 631.36,-7.68 654.08,-8.65"/>
<polygon fill="midnightblue" stroke="midnightblue" points="654.01,-12.15 664.16,-9.13 654.34,-5.15 654.01,-12.15"/>
</g>
<!-- Node8 -->
<g id="node8" class="node">
<title>Node8</title>
<g id="a_node8"><a xlink:href="gpuNUFFT__utils_8hpp.html#ab1456ac35fe51fc4dac2e0054f6d9a50" target="_top" xlink:title="I_0 function used in interpolation function. See Beatty et al.">
<polygon fill="none" stroke="black" points="566,-19.5 566,-38.5 622,-38.5 622,-19.5 566,-19.5"/>
<text text-anchor="middle" x="594" y="-26.5" font-family="FreeSans.ttf" font-size="10.00">I0_BETA</text>
</a>
</g>
</g>
<!-- Node5&#45;&gt;Node8 -->
<g id="edge7" class="edge">
<title>Node5&#45;&gt;Node8</title>
<path fill="none" stroke="midnightblue" d="M491,-29C508.68,-29 534.64,-29 555.95,-29"/>
<polygon fill="midnightblue" stroke="midnightblue" points="555.98,-32.5 565.98,-29 555.98,-25.5 555.98,-32.5"/>
</g>
<!-- Node8&#45;&gt;Node6 -->
<g id="edge8" class="edge">
<title>Node8&#45;&gt;Node6</title>
<path fill="none" stroke="midnightblue" d="M622.18,-38.17C630.54,-40.99 639.78,-44.11 648.3,-46.98"/>
<polygon fill="midnightblue" stroke="midnightblue" points="647.28,-50.33 657.87,-50.21 649.52,-43.7 647.28,-50.33"/>
</g>
<!-- Node8&#45;&gt;Node7 -->
<g id="edge9" class="edge">
<title>Node8&#45;&gt;Node7</title>
<path fill="none" stroke="midnightblue" d="M622.18,-22.78C632.45,-20.43 644.07,-17.77 654.03,-15.49"/>
<polygon fill="midnightblue" stroke="midnightblue" points="655.08,-18.84 664.05,-13.19 653.52,-12.01 655.08,-18.84"/>
</g>
</g>
</svg>
