<?xml version="1.0" encoding="UTF-8" standalone="no"?>
<!DOCTYPE svg PUBLIC "-//W3C//DTD SVG 1.1//EN"
 "http://www.w3.org/Graphics/SVG/1.1/DTD/svg11.dtd">
<!-- Generated by graphviz version 2.49.3 (20211027.1534)
 -->
<!-- Title: gpuNUFFT::BalancedTextureGpuNUFFTOperator::forwardConvolution Pages: 1 -->
<svg width="405pt" height="104pt"
 viewBox="0.00 0.00 405.00 104.00" xmlns="http://www.w3.org/2000/svg" xmlns:xlink="http://www.w3.org/1999/xlink">
<g id="graph0" class="graph" transform="scale(1 1) rotate(0) translate(4 100)">
<title>gpuNUFFT::BalancedTextureGpuNUFFTOperator::forwardConvolution</title>
<!-- Node1 -->
<g id="node1" class="node">
<title>Node1</title>
<g id="a_node1"><a xlink:title="Virtual forward convolution call, which can be used by sub&#45;classes to add behaviour to the gridding s...">
<polygon fill="#bfbfbf" stroke="black" points="0,-33 0,-63 193,-63 193,-33 0,-33"/>
<text text-anchor="start" x="8" y="-51" font-family="FreeSans.ttf" font-size="10.00">gpuNUFFT::BalancedTexture</text>
<text text-anchor="middle" x="96.5" y="-40" font-family="FreeSans.ttf" font-size="10.00">GpuNUFFTOperator::forwardConvolution</text>
</a>
</g>
</g>
<!-- Node2 -->
<g id="node2" class="node">
<title>Node2</title>
<g id="a_node2"><a xlink:href="cuda__utils_8hpp.html#a46dce0efc9f7cdbb81d0a48b65ce914d" target="_top" xlink:title="Bind to 1&#45;d texture on device.">
<polygon fill="none" stroke="black" points="268,-76.5 268,-95.5 358,-95.5 358,-76.5 268,-76.5"/>
<text text-anchor="middle" x="313" y="-83.5" font-family="FreeSans.ttf" font-size="10.00">bindTo1DTexture</text>
</a>
</g>
</g>
<!-- Node1&#45;&gt;Node2 -->
<g id="edge1" class="edge">
<title>Node1&#45;&gt;Node2</title>
<path fill="none" stroke="midnightblue" d="M182.28,-63.02C207.78,-67.54 235.05,-72.37 257.98,-76.43"/>
<polygon fill="midnightblue" stroke="midnightblue" points="257.4,-79.88 267.86,-78.18 258.62,-72.99 257.4,-79.88"/>
</g>
<!-- Node3 -->
<g id="node3" class="node">
<title>Node3</title>
<g id="a_node3"><a xlink:href="gpuNUFFT__kernels_8hpp.html#a2fd6b03e67db18a41056c4f7986382f4" target="_top" xlink:title="Forward gridding convolution implementation on GPU using textures .">
<polygon fill="none" stroke="black" points="229,-38.5 229,-57.5 397,-57.5 397,-38.5 229,-38.5"/>
<text text-anchor="middle" x="313" y="-45.5" font-family="FreeSans.ttf" font-size="10.00">performTextureForwardConvolution</text>
</a>
</g>
</g>
<!-- Node1&#45;&gt;Node3 -->
<g id="edge2" class="edge">
<title>Node1&#45;&gt;Node3</title>
<path fill="none" stroke="midnightblue" d="M193.14,-48C201.64,-48 210.24,-48 218.72,-48"/>
<polygon fill="midnightblue" stroke="midnightblue" points="218.99,-51.5 228.99,-48 218.99,-44.5 218.99,-51.5"/>
</g>
<!-- Node4 -->
<g id="node4" class="node">
<title>Node4</title>
<g id="a_node4"><a xlink:href="cuda__utils_8hpp.html#ab4541b0102691624bd5e29777536f1d5" target="_top" xlink:title="Unbind from device texture.">
<polygon fill="none" stroke="black" points="274.5,-0.5 274.5,-19.5 351.5,-19.5 351.5,-0.5 274.5,-0.5"/>
<text text-anchor="middle" x="313" y="-7.5" font-family="FreeSans.ttf" font-size="10.00">unbindTexture</text>
</a>
</g>
</g>
<!-- Node1&#45;&gt;Node4 -->
<g id="edge3" class="edge">
<title>Node1&#45;&gt;Node4</title>
<path fill="none" stroke="midnightblue" d="M182.28,-32.98C210.25,-28.03 240.36,-22.69 264.52,-18.41"/>
<polygon fill="midnightblue" stroke="midnightblue" points="265.25,-21.84 274.49,-16.65 264.03,-14.94 265.25,-21.84"/>
</g>
</g>
</svg>
