<?xml version="1.0" encoding="UTF-8" standalone="no"?>
<!DOCTYPE svg PUBLIC "-//W3C//DTD SVG 1.1//EN"
 "http://www.w3.org/Graphics/SVG/1.1/DTD/svg11.dtd">
<!-- Generated by graphviz version 2.49.3 (20211027.1534)
 -->
<!-- Title: GpuNUFFTPythonOperator::data_consistency Pages: 1 -->
<svg width="494pt" height="355pt"
 viewBox="0.00 0.00 494.00 354.50" xmlns="http://www.w3.org/2000/svg" xmlns:xlink="http://www.w3.org/1999/xlink">
<g id="graph0" class="graph" transform="scale(1 1) rotate(0) translate(4 350.5)">
<title>GpuNUFFTPythonOperator::data_consistency</title>
<!-- Node1 -->
<g id="node1" class="node">
<title>Node1</title>
<g id="a_node1"><a xlink:title=" ">
<polygon fill="#bfbfbf" stroke="black" points="0,-169.5 0,-199.5 135,-199.5 135,-169.5 0,-169.5"/>
<text text-anchor="start" x="8" y="-187.5" font-family="FreeSans.ttf" font-size="10.00">GpuNUFFTPythonOperator</text>
<text text-anchor="middle" x="67.5" y="-176.5" font-family="FreeSans.ttf" font-size="10.00">::data_consistency</text>
</a>
</g>
</g>
<!-- Node2 -->
<g id="node2" class="node">
<title>Node2</title>
<g id="a_node2"><a xlink:href="cuda__utils_8hpp.html#a5fb34b1c5f091a495c7ac4237257d7b1" target="_top" xlink:title="Allocation of device memory of the given extent for the defined type.">
<polygon fill="none" stroke="black" points="199,-327 199,-346 301,-346 301,-327 199,-327"/>
<text text-anchor="middle" x="250" y="-334" font-family="FreeSans.ttf" font-size="10.00">allocateDeviceMem</text>
</a>
</g>
</g>
<!-- Node1&#45;&gt;Node2 -->
<g id="edge1" class="edge">
<title>Node1&#45;&gt;Node2</title>
<path fill="none" stroke="midnightblue" d="M75.72,-199.56C89.88,-227.43 124.08,-286.99 171,-317.5 176.44,-321.04 182.49,-323.92 188.74,-326.27"/>
<polygon fill="midnightblue" stroke="midnightblue" points="188.08,-329.73 198.67,-329.53 190.26,-323.08 188.08,-329.73"/>
</g>
<!-- Node3 -->
<g id="node3" class="node">
<title>Node3</title>
<g id="a_node3"><a xlink:href="cuda__utils_8hpp.html#a0e734eacdc00ba553d77aa057e02059b" target="_top" xlink:title="Copy CUDA memory from device to host asynchronously.">
<polygon fill="none" stroke="black" points="192,-289 192,-308 308,-308 308,-289 192,-289"/>
<text text-anchor="middle" x="250" y="-296" font-family="FreeSans.ttf" font-size="10.00">copyFromDeviceAsync</text>
</a>
</g>
</g>
<!-- Node1&#45;&gt;Node3 -->
<g id="edge2" class="edge">
<title>Node1&#45;&gt;Node3</title>
<path fill="none" stroke="midnightblue" d="M80.36,-199.53C97.87,-220.68 132.75,-258.94 171,-279.5 175.3,-281.81 179.88,-283.85 184.59,-285.64"/>
<polygon fill="midnightblue" stroke="midnightblue" points="183.79,-289.06 194.39,-288.98 186.05,-282.44 183.79,-289.06"/>
</g>
<!-- Node4 -->
<g id="node4" class="node">
<title>Node4</title>
<g id="a_node4"><a xlink:href="python__utils_8hpp.html#a6fc45707d1f047d4232b16582576b2e6" target="_top" xlink:title=" ">
<polygon fill="none" stroke="black" points="205,-251 205,-270 295,-270 295,-251 205,-251"/>
<text text-anchor="middle" x="250" y="-258" font-family="FreeSans.ttf" font-size="10.00">copyNumpyArray</text>
</a>
</g>
</g>
<!-- Node1&#45;&gt;Node4 -->
<g id="edge3" class="edge">
<title>Node1&#45;&gt;Node4</title>
<path fill="none" stroke="midnightblue" d="M91.64,-199.74C111.85,-212.47 142.37,-230.29 171,-241.5 178.57,-244.46 186.73,-247.06 194.83,-249.31"/>
<polygon fill="midnightblue" stroke="midnightblue" points="194.07,-252.73 204.63,-251.87 195.84,-245.96 194.07,-252.73"/>
</g>
<!-- Node5 -->
<g id="node5" class="node">
<title>Node5</title>
<g id="a_node5"><a xlink:href="cuda__utils_8hpp.html#a52e9a7f2a2d5bed73e0e9e7d367b1198" target="_top" xlink:title="CUDA memcpy call to copy data from host to device.">
<polygon fill="none" stroke="black" points="211,-213 211,-232 289,-232 289,-213 211,-213"/>
<text text-anchor="middle" x="250" y="-220" font-family="FreeSans.ttf" font-size="10.00">copyToDevice</text>
</a>
</g>
</g>
<!-- Node1&#45;&gt;Node5 -->
<g id="edge4" class="edge">
<title>Node1&#45;&gt;Node5</title>
<path fill="none" stroke="midnightblue" d="M135.2,-198.54C157.02,-203.14 180.82,-208.15 200.98,-212.39"/>
<polygon fill="midnightblue" stroke="midnightblue" points="200.36,-215.84 210.86,-214.47 201.8,-208.99 200.36,-215.84"/>
</g>
<!-- Node6 -->
<g id="node6" class="node">
<title>Node6</title>
<g id="a_node6"><a xlink:href="structgpuNUFFT_1_1Array.html#af426f56b5d7e05b6143acbdd51bac188" target="_top" xlink:title=" ">
<polygon fill="none" stroke="black" points="189.5,-175 189.5,-194 310.5,-194 310.5,-175 189.5,-175"/>
<text text-anchor="middle" x="250" y="-182" font-family="FreeSans.ttf" font-size="10.00">gpuNUFFT::Array::count</text>
</a>
</g>
</g>
<!-- Node1&#45;&gt;Node6 -->
<g id="edge5" class="edge">
<title>Node1&#45;&gt;Node6</title>
<path fill="none" stroke="midnightblue" d="M135.2,-184.5C149.5,-184.5 164.65,-184.5 179.08,-184.5"/>
<polygon fill="midnightblue" stroke="midnightblue" points="179.43,-188 189.43,-184.5 179.43,-181 179.43,-188"/>
</g>
<!-- Node8 -->
<g id="node8" class="node">
<title>Node8</title>
<g id="a_node8"><a xlink:href="gpuNUFFT__kernels_8hpp.html#a7ea425f71e9b13006582e6280512f11c" target="_top" xlink:title="Perform data1 = data1 &#45; data2.">
<polygon fill="none" stroke="black" points="219,-137 219,-156 281,-156 281,-137 219,-137"/>
<text text-anchor="middle" x="250" y="-144" font-family="FreeSans.ttf" font-size="10.00">diffInPlace</text>
</a>
</g>
</g>
<!-- Node1&#45;&gt;Node8 -->
<g id="edge7" class="edge">
<title>Node1&#45;&gt;Node8</title>
<path fill="none" stroke="midnightblue" d="M135.2,-170.46C159.99,-165.24 187.34,-159.48 209.01,-154.92"/>
<polygon fill="midnightblue" stroke="midnightblue" points="209.78,-158.33 218.84,-152.85 208.34,-151.48 209.78,-158.33"/>
</g>
<!-- Node9 -->
<g id="node9" class="node">
<title>Node9</title>
<g id="a_node9"><a xlink:href="cuda__utils_8hpp.html#aaa83ead29bc50e65ae4298d9206a760b" target="_top" xlink:title="Free variable list of device pointers. Use NULL as stopping element.">
<polygon fill="none" stroke="black" points="190.5,-99 190.5,-118 309.5,-118 309.5,-99 190.5,-99"/>
<text text-anchor="middle" x="250" y="-106" font-family="FreeSans.ttf" font-size="10.00">freeTotalDeviceMemory</text>
</a>
</g>
</g>
<!-- Node1&#45;&gt;Node9 -->
<g id="edge8" class="edge">
<title>Node1&#45;&gt;Node9</title>
<path fill="none" stroke="midnightblue" d="M91.64,-169.26C111.85,-156.53 142.37,-138.71 171,-127.5 177.37,-125.01 184.15,-122.77 190.97,-120.79"/>
<polygon fill="midnightblue" stroke="midnightblue" points="192.21,-124.08 200.93,-118.06 190.36,-117.33 192.21,-124.08"/>
</g>
<!-- Node11 -->
<g id="node11" class="node">
<title>Node11</title>
<g id="a_node11"><a xlink:href="classgpuNUFFT_1_1GpuNUFFTOperator.html#a10d565529aa2c7778c15edb8a820b417" target="_top" xlink:title="Perform forward gridding operation on given kspaceData.">
<polygon fill="none" stroke="black" points="171,-49.5 171,-79.5 329,-79.5 329,-49.5 171,-49.5"/>
<text text-anchor="start" x="179" y="-67.5" font-family="FreeSans.ttf" font-size="10.00">gpuNUFFT::GpuNUFFTOperator</text>
<text text-anchor="middle" x="250" y="-56.5" font-family="FreeSans.ttf" font-size="10.00">::performForwardGpuNUFFT</text>
</a>
</g>
</g>
<!-- Node1&#45;&gt;Node11 -->
<g id="edge10" class="edge">
<title>Node1&#45;&gt;Node11</title>
<path fill="none" stroke="midnightblue" d="M80.86,-169.48C98.72,-148.71 133.71,-111.29 171,-89.5 174.66,-87.36 178.53,-85.38 182.5,-83.55"/>
<polygon fill="midnightblue" stroke="midnightblue" points="184.08,-86.68 191.92,-79.56 181.35,-80.24 184.08,-86.68"/>
</g>
<!-- Node12 -->
<g id="node12" class="node">
<title>Node12</title>
<g id="a_node12"><a xlink:href="classgpuNUFFT_1_1GpuNUFFTOperator.html#a38a45507d840b8d3d97de7fc79b4fa8a" target="_top" xlink:title="Perform Adjoint gridding operation on given kspaceData.">
<polygon fill="none" stroke="black" points="171,-0.5 171,-30.5 329,-30.5 329,-0.5 171,-0.5"/>
<text text-anchor="start" x="179" y="-18.5" font-family="FreeSans.ttf" font-size="10.00">gpuNUFFT::GpuNUFFTOperator</text>
<text text-anchor="middle" x="250" y="-7.5" font-family="FreeSans.ttf" font-size="10.00">::performGpuNUFFTAdj</text>
</a>
</g>
</g>
<!-- Node1&#45;&gt;Node12 -->
<g id="edge11" class="edge">
<title>Node1&#45;&gt;Node12</title>
<path fill="none" stroke="midnightblue" d="M75.1,-169.28C88.68,-139.77 122.57,-74.59 171,-39.5 173.06,-38.01 175.21,-36.61 177.43,-35.29"/>
<polygon fill="midnightblue" stroke="midnightblue" points="179.08,-38.38 186.32,-30.64 175.83,-32.18 179.08,-38.38"/>
</g>
<!-- Node7 -->
<g id="node7" class="node">
<title>Node7</title>
<g id="a_node7"><a xlink:href="structgpuNUFFT_1_1Dimensions.html#a4c589934c5444910fbcd890d128229c9" target="_top" xlink:title="Compute total count of array length.">
<polygon fill="none" stroke="black" points="365,-169.5 365,-199.5 486,-199.5 486,-169.5 365,-169.5"/>
<text text-anchor="start" x="373" y="-187.5" font-family="FreeSans.ttf" font-size="10.00">gpuNUFFT::Dimensions</text>
<text text-anchor="middle" x="425.5" y="-176.5" font-family="FreeSans.ttf" font-size="10.00">::count</text>
</a>
</g>
</g>
<!-- Node6&#45;&gt;Node7 -->
<g id="edge6" class="edge">
<title>Node6&#45;&gt;Node7</title>
<path fill="none" stroke="midnightblue" d="M310.71,-184.5C324.96,-184.5 340.3,-184.5 354.96,-184.5"/>
<polygon fill="midnightblue" stroke="midnightblue" points="354.98,-188 364.98,-184.5 354.98,-181 354.98,-188"/>
</g>
<!-- Node10 -->
<g id="node10" class="node">
<title>Node10</title>
<g id="a_node10"><a xlink:href="cuda__utils_8hpp.html#a6ffa821f98a8c2b391c12c01308ff1db" target="_top" xlink:title="Free of device memory.">
<polygon fill="none" stroke="black" points="383,-99 383,-118 468,-118 468,-99 383,-99"/>
<text text-anchor="middle" x="425.5" y="-106" font-family="FreeSans.ttf" font-size="10.00">freeDeviceMem</text>
</a>
</g>
</g>
<!-- Node9&#45;&gt;Node10 -->
<g id="edge9" class="edge">
<title>Node9&#45;&gt;Node10</title>
<path fill="none" stroke="midnightblue" d="M309.74,-108.5C330.17,-108.5 352.91,-108.5 372.73,-108.5"/>
<polygon fill="midnightblue" stroke="midnightblue" points="372.8,-112 382.8,-108.5 372.8,-105 372.8,-112"/>
</g>
</g>
</svg>
