<?xml version="1.0" encoding="UTF-8" standalone="no"?>
<!DOCTYPE svg PUBLIC "-//W3C//DTD SVG 1.1//EN"
 "http://www.w3.org/Graphics/SVG/1.1/DTD/svg11.dtd">
<!-- Generated by graphviz version 2.49.3 (20211027.1534)
 -->
<!-- Title: gpuNUFFT::GpuNUFFTOperator::initLookupTable Pages: 1 -->
<svg width="459pt" height="94pt"
 viewBox="0.00 0.00 459.00 94.00" xmlns="http://www.w3.org/2000/svg" xmlns:xlink="http://www.w3.org/1999/xlink">
<g id="graph0" class="graph" transform="scale(1 1) rotate(0) translate(4 90)">
<title>gpuNUFFT::GpuNUFFTOperator::initLookupTable</title>
<!-- Node1 -->
<g id="node1" class="node">
<title>Node1</title>
<g id="a_node1"><a xlink:title="Virtual method to allow different methods of generation of the lookup table.">
<polygon fill="#bfbfbf" stroke="black" points="0,-42 0,-72 158,-72 158,-42 0,-42"/>
<text text-anchor="start" x="8" y="-60" font-family="FreeSans.ttf" font-size="10.00">gpuNUFFT::GpuNUFFTOperator</text>
<text text-anchor="middle" x="79" y="-49" font-family="FreeSans.ttf" font-size="10.00">::initLookupTable</text>
</a>
</g>
</g>
<!-- Node2 -->
<g id="node2" class="node">
<title>Node2</title>
<g id="a_node2"><a xlink:href="cuda__utils_8hpp.html#a7ac606afbf03e74f64780e01d12aa64b" target="_top" xlink:title="Initialize constant symbol on device.">
<polygon fill="none" stroke="black" points="194,-66.5 194,-85.5 281,-85.5 281,-66.5 194,-66.5"/>
<text text-anchor="middle" x="237.5" y="-73.5" font-family="FreeSans.ttf" font-size="10.00">initConstSymbol</text>
</a>
</g>
</g>
<!-- Node1&#45;&gt;Node2 -->
<g id="edge1" class="edge">
<title>Node1&#45;&gt;Node2</title>
<path fill="none" stroke="midnightblue" d="M158.25,-66.5C166.85,-67.54 175.44,-68.59 183.63,-69.58"/>
<polygon fill="midnightblue" stroke="midnightblue" points="183.39,-73.08 193.74,-70.81 184.23,-66.13 183.39,-73.08"/>
</g>
<!-- Node3 -->
<g id="node3" class="node">
<title>Node3</title>
<g id="a_node3"><a xlink:href="gpuNUFFT__utils_8hpp.html#a18dd3c6c4b8ac5f6947f3dc1c59651bc" target="_top" xlink:title="Interpolation Kernel evaluation for radius.">
<polygon fill="none" stroke="black" points="216,-28.5 216,-47.5 259,-47.5 259,-28.5 216,-28.5"/>
<text text-anchor="middle" x="237.5" y="-35.5" font-family="FreeSans.ttf" font-size="10.00">kernel</text>
</a>
</g>
</g>
<!-- Node1&#45;&gt;Node3 -->
<g id="edge2" class="edge">
<title>Node1&#45;&gt;Node3</title>
<path fill="none" stroke="midnightblue" d="M158.25,-47.5C175.01,-45.46 191.78,-43.43 205.46,-41.77"/>
<polygon fill="midnightblue" stroke="midnightblue" points="206.21,-45.2 215.72,-40.52 205.37,-38.25 206.21,-45.2"/>
</g>
<!-- Node4 -->
<g id="node4" class="node">
<title>Node4</title>
<g id="a_node4"><a xlink:href="gpuNUFFT__utils_8hpp.html#aa7b00d423ae0e06388b55594fe1adb93" target="_top" xlink:title="beta function used in interpolation function. See Beatty et al.">
<polygon fill="none" stroke="black" points="409,-47.5 409,-66.5 451,-66.5 451,-47.5 409,-47.5"/>
<text text-anchor="middle" x="430" y="-54.5" font-family="FreeSans.ttf" font-size="10.00">BETA</text>
</a>
</g>
</g>
<!-- Node3&#45;&gt;Node4 -->
<g id="edge3" class="edge">
<title>Node3&#45;&gt;Node4</title>
<path fill="none" stroke="midnightblue" d="M259.24,-44.45C274.93,-48.97 297.09,-54.62 317,-57 344.5,-60.28 376.07,-59.91 398.67,-58.94"/>
<polygon fill="midnightblue" stroke="midnightblue" points="398.87,-62.43 408.68,-58.44 398.52,-55.44 398.87,-62.43"/>
</g>
<!-- Node5 -->
<g id="node5" class="node">
<title>Node5</title>
<g id="a_node5"><a xlink:href="gpuNUFFT__utils_8cpp.html#a5472cb661dea68a2ab2b52df187b6291" target="_top" xlink:title="Modified Kaiser Bessel function of zero&#45;th order.">
<polygon fill="none" stroke="black" points="415.5,-0.5 415.5,-19.5 444.5,-19.5 444.5,-0.5 415.5,-0.5"/>
<text text-anchor="middle" x="430" y="-7.5" font-family="FreeSans.ttf" font-size="10.00">i0</text>
</a>
</g>
</g>
<!-- Node3&#45;&gt;Node5 -->
<g id="edge4" class="edge">
<title>Node3&#45;&gt;Node5</title>
<path fill="none" stroke="midnightblue" d="M259.31,-32.02C275.03,-27.73 297.2,-22.17 317,-19 347.29,-14.15 382.63,-11.86 405.39,-10.82"/>
<polygon fill="midnightblue" stroke="midnightblue" points="405.62,-14.31 415.47,-10.4 405.33,-7.32 405.62,-14.31"/>
</g>
<!-- Node6 -->
<g id="node6" class="node">
<title>Node6</title>
<g id="a_node6"><a xlink:href="gpuNUFFT__utils_8hpp.html#ab1456ac35fe51fc4dac2e0054f6d9a50" target="_top" xlink:title="I_0 function used in interpolation function. See Beatty et al.">
<polygon fill="none" stroke="black" points="317,-28.5 317,-47.5 373,-47.5 373,-28.5 317,-28.5"/>
<text text-anchor="middle" x="345" y="-35.5" font-family="FreeSans.ttf" font-size="10.00">I0_BETA</text>
</a>
</g>
</g>
<!-- Node3&#45;&gt;Node6 -->
<g id="edge5" class="edge">
<title>Node3&#45;&gt;Node6</title>
<path fill="none" stroke="midnightblue" d="M259.09,-38C272.57,-38 290.58,-38 306.54,-38"/>
<polygon fill="midnightblue" stroke="midnightblue" points="306.67,-41.5 316.67,-38 306.67,-34.5 306.67,-41.5"/>
</g>
<!-- Node6&#45;&gt;Node4 -->
<g id="edge6" class="edge">
<title>Node6&#45;&gt;Node4</title>
<path fill="none" stroke="midnightblue" d="M373.18,-44.22C381.45,-46.11 390.58,-48.2 399.02,-50.14"/>
<polygon fill="midnightblue" stroke="midnightblue" points="398.34,-53.57 408.87,-52.39 399.9,-46.75 398.34,-53.57"/>
</g>
<!-- Node6&#45;&gt;Node5 -->
<g id="edge7" class="edge">
<title>Node6&#45;&gt;Node5</title>
<path fill="none" stroke="midnightblue" d="M373.18,-28.83C383.56,-25.33 395.31,-21.36 405.35,-17.98"/>
<polygon fill="midnightblue" stroke="midnightblue" points="406.69,-21.22 415.05,-14.71 404.46,-14.59 406.69,-21.22"/>
</g>
</g>
</svg>
