<?xml version="1.0" encoding="UTF-8" standalone="no"?>
<!DOCTYPE svg PUBLIC "-//W3C//DTD SVG 1.1//EN"
 "http://www.w3.org/Graphics/SVG/1.1/DTD/svg11.dtd">
<!-- Generated by graphviz version 2.49.3 (20211027.1534)
 -->
<!-- Title: gpuNUFFT::GpuNUFFTOperator Pages: 1 -->
<svg width="284pt" height="117pt"
 viewBox="0.00 0.00 284.00 117.00" xmlns="http://www.w3.org/2000/svg" xmlns:xlink="http://www.w3.org/1999/xlink">
<g id="graph0" class="graph" transform="scale(1 1) rotate(0) translate(4 113)">
<title>gpuNUFFT::GpuNUFFTOperator</title>
<!-- Node1 -->
<g id="node1" class="node">
<title>Node1</title>
<g id="a_node1"><a xlink:title="Main &quot;Operator&quot; used for gridding operations.">
<polygon fill="#bfbfbf" stroke="black" points="54.5,-0.5 54.5,-19.5 212.5,-19.5 212.5,-0.5 54.5,-0.5"/>
<text text-anchor="middle" x="133.5" y="-7.5" font-family="FreeSans.ttf" font-size="10.00">gpuNUFFT::GpuNUFFTOperator</text>
</a>
</g>
</g>
<!-- Node2 -->
<g id="node2" class="node">
<title>Node2</title>
<g id="a_node2"><a xlink:href="structgpuNUFFT_1_1Dimensions.html" target="_top" xlink:title="Data dimension struct.">
<polygon fill="none" stroke="black" points="0,-89.5 0,-108.5 121,-108.5 121,-89.5 0,-89.5"/>
<text text-anchor="middle" x="60.5" y="-96.5" font-family="FreeSans.ttf" font-size="10.00">gpuNUFFT::Dimensions</text>
</a>
</g>
</g>
<!-- Node2&#45;&gt;Node1 -->
<g id="edge1" class="edge">
<title>Node2&#45;&gt;Node1</title>
<path fill="none" stroke="#9a32cd" stroke-dasharray="5,2" d="M74.56,-81.24C90.02,-62.82 114.26,-33.93 126.26,-19.62"/>
<polygon fill="#9a32cd" stroke="#9a32cd" points="71.51,-79.43 67.77,-89.34 76.88,-83.93 71.51,-79.43"/>
<text text-anchor="middle" x="145.5" y="-63" font-family="FreeSans.ttf" font-size="10.00"> gridSectorDims</text>
<text text-anchor="middle" x="145.5" y="-52" font-family="FreeSans.ttf" font-size="10.00">imgDims</text>
<text text-anchor="middle" x="145.5" y="-41" font-family="FreeSans.ttf" font-size="10.00">sectorDims</text>
</g>
<!-- Node3 -->
<g id="node3" class="node">
<title>Node3</title>
<g id="a_node3"><a xlink:href="structgpuNUFFT_1_1GpuNUFFTInfo.html" target="_top" xlink:title="Struct containing meta information of the current Gridding Problem. Used in most GPU operations.">
<polygon fill="none" stroke="black" points="139,-89.5 139,-108.5 276,-108.5 276,-89.5 139,-89.5"/>
<text text-anchor="middle" x="207.5" y="-96.5" font-family="FreeSans.ttf" font-size="10.00">gpuNUFFT::GpuNUFFTInfo</text>
</a>
</g>
</g>
<!-- Node3&#45;&gt;Node1 -->
<g id="edge2" class="edge">
<title>Node3&#45;&gt;Node1</title>
<path fill="none" stroke="#9a32cd" stroke-dasharray="5,2" d="M203.94,-79.19C200.7,-66.35 194.8,-49.63 184.5,-38 177.33,-29.9 167.13,-23.83 157.73,-19.52"/>
<polygon fill="#9a32cd" stroke="#9a32cd" points="200.58,-80.23 206.14,-89.25 207.42,-78.73 200.58,-80.23"/>
<text text-anchor="middle" x="217.5" y="-52" font-family="FreeSans.ttf" font-size="10.00"> gi_host</text>
</g>
</g>
</svg>
