<?xml version="1.0" encoding="UTF-8" standalone="no"?>
<!DOCTYPE svg PUBLIC "-//W3C//DTD SVG 1.1//EN"
 "http://www.w3.org/Graphics/SVG/1.1/DTD/svg11.dtd">
<!-- Generated by graphviz version 2.49.3 (20211027.1534)
 -->
<!-- Title: gpuNUFFT::GpuNUFFTOperator::setSens Pages: 1 -->
<svg width="568pt" height="137pt"
 viewBox="0.00 0.00 568.00 137.00" xmlns="http://www.w3.org/2000/svg" xmlns:xlink="http://www.w3.org/1999/xlink">
<g id="graph0" class="graph" transform="scale(1 1) rotate(0) translate(4 133)">
<title>gpuNUFFT::GpuNUFFTOperator::setSens</title>
<!-- Node1 -->
<g id="node1" class="node">
<title>Node1</title>
<g id="a_node1"><a xlink:title=" ">
<polygon fill="#bfbfbf" stroke="black" points="402,-49.5 402,-79.5 560,-79.5 560,-49.5 402,-49.5"/>
<text text-anchor="start" x="410" y="-67.5" font-family="FreeSans.ttf" font-size="10.00">gpuNUFFT::GpuNUFFTOperator</text>
<text text-anchor="middle" x="481" y="-56.5" font-family="FreeSans.ttf" font-size="10.00">::setSens</text>
</a>
</g>
</g>
<!-- Node2 -->
<g id="node2" class="node">
<title>Node2</title>
<g id="a_node2"><a xlink:href="classgpuNUFFT_1_1GpuNUFFTOperatorFactory.html#a0e941d590a7e5effed76f909dfa72bcc" target="_top" xlink:title="Create GpuNUFFT Operator.">
<polygon fill="none" stroke="black" points="172.5,-98.5 172.5,-128.5 341.5,-128.5 341.5,-98.5 172.5,-98.5"/>
<text text-anchor="start" x="180.5" y="-116.5" font-family="FreeSans.ttf" font-size="10.00">gpuNUFFT::GpuNUFFTOperator</text>
<text text-anchor="middle" x="257" y="-105.5" font-family="FreeSans.ttf" font-size="10.00">Factory::createGpuNUFFTOperator</text>
</a>
</g>
</g>
<!-- Node1&#45;&gt;Node2 -->
<g id="edge1" class="edge">
<title>Node1&#45;&gt;Node2</title>
<path fill="none" stroke="midnightblue" d="M401.81,-81.76C377.07,-87.22 349.95,-93.21 325.99,-98.49"/>
<polygon fill="midnightblue" stroke="midnightblue" points="402.87,-85.11 411.88,-79.53 401.36,-78.27 402.87,-85.11"/>
</g>
<!-- Node3 -->
<g id="node3" class="node">
<title>Node3</title>
<g id="a_node3"><a xlink:href="classgpuNUFFT_1_1GpuNUFFTOperatorFactory.html#aa5cecffe2b150073fd71145317ae308b" target="_top" xlink:title="Load GpuNUFFT Operator from previously computed mappings.">
<polygon fill="none" stroke="black" points="148,-49.5 148,-79.5 366,-79.5 366,-49.5 148,-49.5"/>
<text text-anchor="start" x="156" y="-67.5" font-family="FreeSans.ttf" font-size="10.00">gpuNUFFT::GpuNUFFTOperator</text>
<text text-anchor="middle" x="257" y="-56.5" font-family="FreeSans.ttf" font-size="10.00">Factory::loadPrecomputedGpuNUFFTOperator</text>
</a>
</g>
</g>
<!-- Node1&#45;&gt;Node3 -->
<g id="edge2" class="edge">
<title>Node1&#45;&gt;Node3</title>
<path fill="none" stroke="midnightblue" d="M391.66,-64.5C383.31,-64.5 374.79,-64.5 366.29,-64.5"/>
<polygon fill="midnightblue" stroke="midnightblue" points="391.73,-68 401.73,-64.5 391.73,-61 391.73,-68"/>
</g>
<!-- Node4 -->
<g id="node4" class="node">
<title>Node4</title>
<g id="a_node4"><a xlink:href="classGpuNUFFTPythonOperator.html#aaf1b1ce70db899390b2236ee9c350433" target="_top" xlink:title=" ">
<polygon fill="none" stroke="black" points="189.5,-0.5 189.5,-30.5 324.5,-30.5 324.5,-0.5 189.5,-0.5"/>
<text text-anchor="start" x="197.5" y="-18.5" font-family="FreeSans.ttf" font-size="10.00">GpuNUFFTPythonOperator</text>
<text text-anchor="middle" x="257" y="-7.5" font-family="FreeSans.ttf" font-size="10.00">::set_smaps</text>
</a>
</g>
</g>
<!-- Node1&#45;&gt;Node4 -->
<g id="edge3" class="edge">
<title>Node1&#45;&gt;Node4</title>
<path fill="none" stroke="midnightblue" d="M402,-47.28C376.82,-41.73 349.14,-35.62 324.84,-30.25"/>
<polygon fill="midnightblue" stroke="midnightblue" points="401.36,-50.73 411.88,-49.47 402.87,-43.89 401.36,-50.73"/>
</g>
<!-- Node5 -->
<g id="node5" class="node">
<title>Node5</title>
<g id="a_node5"><a xlink:href="gpuNUFFT__operator__python__factory_8cpp.html#ad1a7eaf0d60c015a4df3da44ddf58e27" target="_top" xlink:title=" ">
<polygon fill="none" stroke="black" points="0,-6 0,-25 112,-25 112,-6 0,-6"/>
<text text-anchor="middle" x="56" y="-13" font-family="FreeSans.ttf" font-size="10.00">PYBIND11_MODULE</text>
</a>
</g>
</g>
<!-- Node4&#45;&gt;Node5 -->
<g id="edge4" class="edge">
<title>Node4&#45;&gt;Node5</title>
<path fill="none" stroke="midnightblue" d="M179.32,-15.5C156.95,-15.5 132.96,-15.5 112.2,-15.5"/>
<polygon fill="midnightblue" stroke="midnightblue" points="179.46,-19 189.46,-15.5 179.46,-12 179.46,-19"/>
</g>
</g>
</svg>
