<?xml version="1.0" encoding="UTF-8" standalone="no"?>
<!DOCTYPE svg PUBLIC "-//W3C//DTD SVG 1.1//EN"
 "http://www.w3.org/Graphics/SVG/1.1/DTD/svg11.dtd">
<!-- Generated by graphviz version 2.49.3 (20211027.1534)
 -->
<!-- Title: CUDA/inc/cuda_utils.hpp Pages: 1 -->
<svg width="698pt" height="252pt"
 viewBox="0.00 0.00 698.00 252.00" xmlns="http://www.w3.org/2000/svg" xmlns:xlink="http://www.w3.org/1999/xlink">
<g id="graph0" class="graph" transform="scale(1 1) rotate(0) translate(4 248)">
<title>CUDA/inc/cuda_utils.hpp</title>
<!-- Node1 -->
<g id="node1" class="node">
<title>Node1</title>
<g id="a_node1"><a xlink:title="Util functions for CUDA memory and texture management.">
<polygon fill="#bfbfbf" stroke="black" points="266,-224.5 266,-243.5 391,-243.5 391,-224.5 266,-224.5"/>
<text text-anchor="middle" x="328.5" y="-231.5" font-family="FreeSans.ttf" font-size="10.00">CUDA/inc/cuda_utils.hpp</text>
</a>
</g>
</g>
<!-- Node2 -->
<g id="node2" class="node">
<title>Node2</title>
<g id="a_node2"><a xlink:title=" ">
<polygon fill="none" stroke="#bfbfbf" points="0,-0.5 0,-19.5 45,-19.5 45,-0.5 0,-0.5"/>
<text text-anchor="middle" x="22.5" y="-7.5" font-family="FreeSans.ttf" font-size="10.00">cuda.h</text>
</a>
</g>
</g>
<!-- Node1&#45;&gt;Node2 -->
<g id="edge1" class="edge">
<title>Node1&#45;&gt;Node2</title>
<path fill="none" stroke="midnightblue" d="M288.25,-224.47C260.93,-217.47 224.79,-205.78 196.5,-188 124.84,-142.95 60.7,-62.81 34.73,-27.97"/>
<polygon fill="midnightblue" stroke="midnightblue" points="37.45,-25.75 28.71,-19.77 31.81,-29.9 37.45,-25.75"/>
</g>
<!-- Node3 -->
<g id="node3" class="node">
<title>Node3</title>
<g id="a_node3"><a xlink:title=" ">
<polygon fill="none" stroke="#bfbfbf" points="63,-0.5 63,-19.5 146,-19.5 146,-0.5 63,-0.5"/>
<text text-anchor="middle" x="104.5" y="-7.5" font-family="FreeSans.ttf" font-size="10.00">cuda_runtime.h</text>
</a>
</g>
</g>
<!-- Node1&#45;&gt;Node3 -->
<g id="edge2" class="edge">
<title>Node1&#45;&gt;Node3</title>
<path fill="none" stroke="midnightblue" d="M294.9,-224.45C272.33,-217.44 242.91,-205.75 221.5,-188 166.51,-142.39 127.69,-64.31 112.1,-29.12"/>
<polygon fill="midnightblue" stroke="midnightblue" points="115.19,-27.46 108.01,-19.67 108.77,-30.23 115.19,-27.46"/>
</g>
<!-- Node4 -->
<g id="node4" class="node">
<title>Node4</title>
<g id="a_node4"><a xlink:title=" ">
<polygon fill="none" stroke="#bfbfbf" points="425,-0.5 425,-19.5 470,-19.5 470,-0.5 425,-0.5"/>
<text text-anchor="middle" x="447.5" y="-7.5" font-family="FreeSans.ttf" font-size="10.00">stdio.h</text>
</a>
</g>
</g>
<!-- Node1&#45;&gt;Node4 -->
<g id="edge3" class="edge">
<title>Node1&#45;&gt;Node4</title>
<path fill="none" stroke="midnightblue" d="M332.09,-224.24C342.99,-197.95 377.28,-117.74 414.5,-56 420.38,-46.25 427.81,-35.97 434.14,-27.7"/>
<polygon fill="midnightblue" stroke="midnightblue" points="437.04,-29.67 440.43,-19.64 431.52,-25.36 437.04,-29.67"/>
</g>
<!-- Node5 -->
<g id="node5" class="node">
<title>Node5</title>
<g id="a_node5"><a xlink:title=" ">
<polygon fill="none" stroke="#bfbfbf" points="518,-168.5 518,-187.5 561,-187.5 561,-168.5 518,-168.5"/>
<text text-anchor="middle" x="539.5" y="-175.5" font-family="FreeSans.ttf" font-size="10.00">cufft.h</text>
</a>
</g>
</g>
<!-- Node1&#45;&gt;Node5 -->
<g id="edge4" class="edge">
<title>Node1&#45;&gt;Node5</title>
<path fill="none" stroke="midnightblue" d="M364.46,-224.43C398.88,-216.14 452.48,-202.98 508.17,-188.01"/>
<polygon fill="midnightblue" stroke="midnightblue" points="509.11,-191.38 517.85,-185.4 507.28,-184.63 509.11,-191.38"/>
</g>
<!-- Node6 -->
<g id="node6" class="node">
<title>Node6</title>
<g id="a_node6"><a xlink:href="gpuNUFFT__utils_8hpp.html" target="_top" xlink:title="Definition of util functions used in gridding operations.">
<polygon fill="none" stroke="black" points="210,-56.5 210,-75.5 317,-75.5 317,-56.5 210,-56.5"/>
<text text-anchor="middle" x="263.5" y="-63.5" font-family="FreeSans.ttf" font-size="10.00">gpuNUFFT_utils.hpp</text>
</a>
</g>
</g>
<!-- Node1&#45;&gt;Node6 -->
<g id="edge5" class="edge">
<title>Node1&#45;&gt;Node6</title>
<path fill="none" stroke="midnightblue" d="M308.02,-224.43C277.36,-210.34 220.63,-179.03 197.5,-132 186.88,-110.41 211.22,-91.85 233.28,-80.16"/>
<polygon fill="midnightblue" stroke="midnightblue" points="235.1,-83.16 242.49,-75.58 231.98,-76.9 235.1,-83.16"/>
</g>
<!-- Node12 -->
<g id="node12" class="node">
<title>Node12</title>
<g id="a_node12"><a xlink:href="gpuNUFFT__operator_8hpp.html" target="_top" xlink:title=" ">
<polygon fill="none" stroke="black" points="375.5,-168.5 375.5,-187.5 499.5,-187.5 499.5,-168.5 375.5,-168.5"/>
<text text-anchor="middle" x="437.5" y="-175.5" font-family="FreeSans.ttf" font-size="10.00">gpuNUFFT_operator.hpp</text>
</a>
</g>
</g>
<!-- Node1&#45;&gt;Node12 -->
<g id="edge14" class="edge">
<title>Node1&#45;&gt;Node12</title>
<path fill="none" stroke="midnightblue" d="M346.01,-224.32C363.57,-215.62 390.83,-202.12 411.03,-192.11"/>
<polygon fill="midnightblue" stroke="midnightblue" points="412.62,-195.23 420.03,-187.65 409.52,-188.96 412.62,-195.23"/>
</g>
<!-- Node18 -->
<g id="node18" class="node">
<title>Node18</title>
<g id="a_node18"><a xlink:title=" ">
<polygon fill="none" stroke="#bfbfbf" points="579,-168.5 579,-187.5 630,-187.5 630,-168.5 579,-168.5"/>
<text text-anchor="middle" x="604.5" y="-175.5" font-family="FreeSans.ttf" font-size="10.00">stdarg.h</text>
</a>
</g>
</g>
<!-- Node1&#45;&gt;Node18 -->
<g id="edge26" class="edge">
<title>Node1&#45;&gt;Node18</title>
<path fill="none" stroke="midnightblue" d="M380.66,-224.46C427.62,-216.52 498.72,-203.84 569.02,-188.21"/>
<polygon fill="midnightblue" stroke="midnightblue" points="569.94,-191.59 578.93,-185.99 568.41,-184.76 569.94,-191.59"/>
</g>
<!-- Node6&#45;&gt;Node2 -->
<g id="edge8" class="edge">
<title>Node6&#45;&gt;Node2</title>
<path fill="none" stroke="midnightblue" d="M219.04,-56.43C178.55,-48.42 116.92,-35.68 55.06,-20.27"/>
<polygon fill="midnightblue" stroke="midnightblue" points="55.69,-16.82 45.14,-17.77 53.98,-23.61 55.69,-16.82"/>
</g>
<!-- Node6&#45;&gt;Node3 -->
<g id="edge9" class="edge">
<title>Node6&#45;&gt;Node3</title>
<path fill="none" stroke="midnightblue" d="M238.31,-56.44C211.56,-47.36 169.1,-32.94 139.19,-22.78"/>
<polygon fill="midnightblue" stroke="midnightblue" points="140.17,-19.42 129.58,-19.52 137.92,-26.05 140.17,-19.42"/>
</g>
<!-- Node6&#45;&gt;Node4 -->
<g id="edge7" class="edge">
<title>Node6&#45;&gt;Node4</title>
<path fill="none" stroke="midnightblue" d="M292.66,-56.44C326.04,-46.65 380.58,-30.64 415.22,-20.47"/>
<polygon fill="midnightblue" stroke="midnightblue" points="416.25,-23.82 424.86,-17.64 414.28,-17.1 416.25,-23.82"/>
</g>
<!-- Node7 -->
<g id="node7" class="node">
<title>Node7</title>
<g id="a_node7"><a xlink:title=" ">
<polygon fill="none" stroke="#bfbfbf" points="233,-0.5 233,-19.5 280,-19.5 280,-0.5 233,-0.5"/>
<text text-anchor="middle" x="256.5" y="-7.5" font-family="FreeSans.ttf" font-size="10.00">stdlib.h</text>
</a>
</g>
</g>
<!-- Node6&#45;&gt;Node7 -->
<g id="edge6" class="edge">
<title>Node6&#45;&gt;Node7</title>
<path fill="none" stroke="midnightblue" d="M262.34,-56.08C261.42,-48.93 260.08,-38.64 258.92,-29.69"/>
<polygon fill="midnightblue" stroke="midnightblue" points="262.39,-29.22 257.63,-19.75 255.45,-30.12 262.39,-29.22"/>
</g>
<!-- Node8 -->
<g id="node8" class="node">
<title>Node8</title>
<g id="a_node8"><a xlink:title=" ">
<polygon fill="none" stroke="#bfbfbf" points="488.5,-0.5 488.5,-19.5 548.5,-19.5 548.5,-0.5 488.5,-0.5"/>
<text text-anchor="middle" x="518.5" y="-7.5" font-family="FreeSans.ttf" font-size="10.00">config.hpp</text>
</a>
</g>
</g>
<!-- Node6&#45;&gt;Node8 -->
<g id="edge10" class="edge">
<title>Node6&#45;&gt;Node8</title>
<path fill="none" stroke="midnightblue" d="M305.77,-56.47C347.23,-48.05 412.5,-34.62 478.17,-20.26"/>
<polygon fill="midnightblue" stroke="midnightblue" points="479.26,-23.6 488.28,-18.04 477.76,-16.76 479.26,-23.6"/>
</g>
<!-- Node9 -->
<g id="node9" class="node">
<title>Node9</title>
<g id="a_node9"><a xlink:title=" ">
<polygon fill="none" stroke="#bfbfbf" points="298.5,-0.5 298.5,-19.5 342.5,-19.5 342.5,-0.5 298.5,-0.5"/>
<text text-anchor="middle" x="320.5" y="-7.5" font-family="FreeSans.ttf" font-size="10.00">cmath</text>
</a>
</g>
</g>
<!-- Node6&#45;&gt;Node9 -->
<g id="edge11" class="edge">
<title>Node6&#45;&gt;Node9</title>
<path fill="none" stroke="midnightblue" d="M272.66,-56.32C281,-48.42 293.53,-36.55 303.68,-26.94"/>
<polygon fill="midnightblue" stroke="midnightblue" points="306.32,-29.25 311.18,-19.83 301.51,-24.17 306.32,-29.25"/>
</g>
<!-- Node10 -->
<g id="node10" class="node">
<title>Node10</title>
<g id="a_node10"><a xlink:title=" ">
<polygon fill="none" stroke="#bfbfbf" points="360.5,-0.5 360.5,-19.5 406.5,-19.5 406.5,-0.5 360.5,-0.5"/>
<text text-anchor="middle" x="383.5" y="-7.5" font-family="FreeSans.ttf" font-size="10.00">math.h</text>
</a>
</g>
</g>
<!-- Node6&#45;&gt;Node10 -->
<g id="edge12" class="edge">
<title>Node6&#45;&gt;Node10</title>
<path fill="none" stroke="midnightblue" d="M282.51,-56.44C302.09,-47.64 332.81,-33.81 355.23,-23.72"/>
<polygon fill="midnightblue" stroke="midnightblue" points="356.89,-26.81 364.57,-19.52 354.02,-20.43 356.89,-26.81"/>
</g>
<!-- Node11 -->
<g id="node11" class="node">
<title>Node11</title>
<g id="a_node11"><a xlink:title=" ">
<polygon fill="none" stroke="#bfbfbf" points="164,-0.5 164,-19.5 215,-19.5 215,-0.5 164,-0.5"/>
<text text-anchor="middle" x="189.5" y="-7.5" font-family="FreeSans.ttf" font-size="10.00">assert.h</text>
</a>
</g>
</g>
<!-- Node6&#45;&gt;Node11 -->
<g id="edge13" class="edge">
<title>Node6&#45;&gt;Node11</title>
<path fill="none" stroke="midnightblue" d="M251.61,-56.32C240.35,-48.11 223.21,-35.6 209.79,-25.81"/>
<polygon fill="midnightblue" stroke="midnightblue" points="211.75,-22.9 201.61,-19.83 207.62,-28.56 211.75,-22.9"/>
</g>
<!-- Node12&#45;&gt;Node8 -->
<g id="edge22" class="edge">
<title>Node12&#45;&gt;Node8</title>
<path fill="none" stroke="midnightblue" d="M433.37,-168.26C424.03,-147.13 403.83,-92.33 426.5,-56 433.21,-45.24 461,-32.5 484.3,-23.33"/>
<polygon fill="midnightblue" stroke="midnightblue" points="485.85,-26.48 493.93,-19.63 483.34,-19.95 485.85,-26.48"/>
</g>
<!-- Node13 -->
<g id="node13" class="node">
<title>Node13</title>
<g id="a_node13"><a xlink:href="gpuNUFFT__types_8hpp.html" target="_top" xlink:title="Definition of gpuNUFFT defined types.">
<polygon fill="none" stroke="black" points="462.5,-112.5 462.5,-131.5 574.5,-131.5 574.5,-112.5 462.5,-112.5"/>
<text text-anchor="middle" x="518.5" y="-119.5" font-family="FreeSans.ttf" font-size="10.00">gpuNUFFT_types.hpp</text>
</a>
</g>
</g>
<!-- Node12&#45;&gt;Node13 -->
<g id="edge15" class="edge">
<title>Node12&#45;&gt;Node13</title>
<path fill="none" stroke="midnightblue" d="M450.51,-168.32C463.03,-159.98 482.18,-147.21 496.97,-137.35"/>
<polygon fill="midnightblue" stroke="midnightblue" points="499.14,-140.11 505.52,-131.65 495.26,-134.29 499.14,-140.11"/>
</g>
<!-- Node14 -->
<g id="node14" class="node">
<title>Node14</title>
<g id="a_node14"><a xlink:title=" ">
<polygon fill="none" stroke="#bfbfbf" points="435,-56.5 435,-75.5 480,-75.5 480,-56.5 435,-56.5"/>
<text text-anchor="middle" x="457.5" y="-63.5" font-family="FreeSans.ttf" font-size="10.00">cstdlib</text>
</a>
</g>
</g>
<!-- Node12&#45;&gt;Node14 -->
<g id="edge23" class="edge">
<title>Node12&#45;&gt;Node14</title>
<path fill="none" stroke="midnightblue" d="M439.07,-168.37C442.3,-150.62 449.74,-109.67 454.12,-85.6"/>
<polygon fill="midnightblue" stroke="midnightblue" points="457.59,-86.06 455.94,-75.59 450.71,-84.8 457.59,-86.06"/>
</g>
<!-- Node15 -->
<g id="node15" class="node">
<title>Node15</title>
<g id="a_node15"><a xlink:title=" ">
<polygon fill="none" stroke="#bfbfbf" points="560.5,-56.5 560.5,-75.5 614.5,-75.5 614.5,-56.5 560.5,-56.5"/>
<text text-anchor="middle" x="587.5" y="-63.5" font-family="FreeSans.ttf" font-size="10.00">iostream</text>
</a>
</g>
</g>
<!-- Node12&#45;&gt;Node15 -->
<g id="edge24" class="edge">
<title>Node12&#45;&gt;Node15</title>
<path fill="none" stroke="midnightblue" d="M484.79,-168.44C522.55,-160.57 571.12,-147.74 583.5,-132 593.65,-119.1 593.57,-99.92 591.61,-85.74"/>
<polygon fill="midnightblue" stroke="midnightblue" points="595.01,-84.87 589.78,-75.65 588.12,-86.12 595.01,-84.87"/>
</g>
<!-- Node16 -->
<g id="node16" class="node">
<title>Node16</title>
<g id="a_node16"><a xlink:href="gpuNUFFT__kernels_8hpp.html" target="_top" xlink:title="gpuNUFFT CUDA function prototypes">
<polygon fill="none" stroke="black" points="206.5,-112.5 206.5,-131.5 326.5,-131.5 326.5,-112.5 206.5,-112.5"/>
<text text-anchor="middle" x="266.5" y="-119.5" font-family="FreeSans.ttf" font-size="10.00">gpuNUFFT_kernels.hpp</text>
</a>
</g>
</g>
<!-- Node12&#45;&gt;Node16 -->
<g id="edge19" class="edge">
<title>Node12&#45;&gt;Node16</title>
<path fill="none" stroke="midnightblue" d="M410.4,-168.44C381.51,-159.32 335.58,-144.81 303.39,-134.65"/>
<polygon fill="midnightblue" stroke="midnightblue" points="304.06,-131.19 293.47,-131.52 301.95,-137.87 304.06,-131.19"/>
</g>
<!-- Node17 -->
<g id="node17" class="node">
<title>Node17</title>
<g id="a_node17"><a xlink:title=" ">
<polygon fill="none" stroke="#bfbfbf" points="631,-112.5 631,-131.5 690,-131.5 690,-112.5 631,-112.5"/>
<text text-anchor="middle" x="660.5" y="-119.5" font-family="FreeSans.ttf" font-size="10.00">functional</text>
</a>
</g>
</g>
<!-- Node12&#45;&gt;Node17 -->
<g id="edge25" class="edge">
<title>Node12&#45;&gt;Node17</title>
<path fill="none" stroke="midnightblue" d="M472.84,-168.44C513.11,-158.69 578.79,-142.79 620.8,-132.61"/>
<polygon fill="midnightblue" stroke="midnightblue" points="621.79,-135.98 630.68,-130.22 620.14,-129.17 621.79,-135.98"/>
</g>
<!-- Node13&#45;&gt;Node8 -->
<g id="edge18" class="edge">
<title>Node13&#45;&gt;Node8</title>
<path fill="none" stroke="midnightblue" d="M518.5,-112.37C518.5,-94.62 518.5,-53.67 518.5,-29.6"/>
<polygon fill="midnightblue" stroke="midnightblue" points="522,-29.59 518.5,-19.59 515,-29.59 522,-29.59"/>
</g>
<!-- Node13&#45;&gt;Node14 -->
<g id="edge16" class="edge">
<title>Node13&#45;&gt;Node14</title>
<path fill="none" stroke="midnightblue" d="M508.7,-112.32C499.68,-104.34 486.09,-92.31 475.18,-82.65"/>
<polygon fill="midnightblue" stroke="midnightblue" points="477.29,-79.84 467.48,-75.83 472.65,-85.08 477.29,-79.84"/>
</g>
<!-- Node13&#45;&gt;Node15 -->
<g id="edge17" class="edge">
<title>Node13&#45;&gt;Node15</title>
<path fill="none" stroke="midnightblue" d="M529.59,-112.32C539.99,-104.18 555.76,-91.84 568.22,-82.09"/>
<polygon fill="midnightblue" stroke="midnightblue" points="570.49,-84.75 576.21,-75.83 566.18,-79.24 570.49,-84.75"/>
</g>
<!-- Node16&#45;&gt;Node1 -->
<g id="edge21" class="edge">
<title>Node16&#45;&gt;Node1</title>
<path fill="none" stroke="midnightblue" d="M271.34,-131.59C281.51,-149.63 305.25,-191.74 318.72,-215.64"/>
<polygon fill="midnightblue" stroke="midnightblue" points="315.68,-217.38 323.63,-224.37 321.77,-213.94 315.68,-217.38"/>
</g>
<!-- Node16&#45;&gt;Node6 -->
<g id="edge20" class="edge">
<title>Node16&#45;&gt;Node6</title>
<path fill="none" stroke="midnightblue" d="M266,-112.08C265.61,-105.01 265.05,-94.86 264.55,-85.99"/>
<polygon fill="midnightblue" stroke="midnightblue" points="268.04,-85.54 263.99,-75.75 261.05,-85.93 268.04,-85.54"/>
</g>
</g>
</svg>
