<?xml version="1.0" encoding="UTF-8" standalone="no"?>
<!DOCTYPE svg PUBLIC "-//W3C//DTD SVG 1.1//EN"
 "http://www.w3.org/Graphics/SVG/1.1/DTD/svg11.dtd">
<!-- Generated by graphviz version 2.49.3 (20211027.1534)
 -->
<!-- Title: copyFromDeviceAsync Pages: 1 -->
<svg width="466pt" height="137pt"
 viewBox="0.00 0.00 466.00 137.00" xmlns="http://www.w3.org/2000/svg" xmlns:xlink="http://www.w3.org/1999/xlink">
<g id="graph0" class="graph" transform="scale(1 1) rotate(0) translate(4 133)">
<title>copyFromDeviceAsync</title>
<!-- Node1 -->
<g id="node1" class="node">
<title>Node1</title>
<g id="a_node1"><a xlink:title="Copy CUDA memory from device to host asynchronously.">
<polygon fill="#bfbfbf" stroke="black" points="342,-55 342,-74 458,-74 458,-55 342,-55"/>
<text text-anchor="middle" x="400" y="-62" font-family="FreeSans.ttf" font-size="10.00">copyFromDeviceAsync</text>
</a>
</g>
</g>
<!-- Node2 -->
<g id="node2" class="node">
<title>Node2</title>
<g id="a_node2"><a xlink:href="classGpuNUFFTPythonOperator.html#a564644dc7ea9b8306cd6296ea6f1fca6" target="_top" xlink:title=" ">
<polygon fill="none" stroke="black" points="159.5,-98.5 159.5,-128.5 294.5,-128.5 294.5,-98.5 159.5,-98.5"/>
<text text-anchor="start" x="167.5" y="-116.5" font-family="FreeSans.ttf" font-size="10.00">GpuNUFFTPythonOperator</text>
<text text-anchor="middle" x="227" y="-105.5" font-family="FreeSans.ttf" font-size="10.00">::data_consistency</text>
</a>
</g>
</g>
<!-- Node1&#45;&gt;Node2 -->
<g id="edge1" class="edge">
<title>Node1&#45;&gt;Node2</title>
<path fill="none" stroke="midnightblue" d="M355.85,-76.87C332.95,-83.43 304.63,-91.54 280.48,-98.46"/>
<polygon fill="midnightblue" stroke="midnightblue" points="356.97,-80.18 365.62,-74.06 355.05,-73.45 356.97,-80.18"/>
</g>
<!-- Node4 -->
<g id="node4" class="node">
<title>Node4</title>
<g id="a_node4"><a xlink:href="classGpuNUFFTPythonOperator.html#a47e427fafc08d705d834940e1229742f" target="_top" xlink:title=" ">
<polygon fill="none" stroke="black" points="159.5,-49.5 159.5,-79.5 294.5,-79.5 294.5,-49.5 159.5,-49.5"/>
<text text-anchor="start" x="167.5" y="-67.5" font-family="FreeSans.ttf" font-size="10.00">GpuNUFFTPythonOperator</text>
<text text-anchor="middle" x="227" y="-56.5" font-family="FreeSans.ttf" font-size="10.00">::estimate_density_comp</text>
</a>
</g>
</g>
<!-- Node1&#45;&gt;Node4 -->
<g id="edge3" class="edge">
<title>Node1&#45;&gt;Node4</title>
<path fill="none" stroke="midnightblue" d="M331.55,-64.5C319.44,-64.5 306.82,-64.5 294.72,-64.5"/>
<polygon fill="midnightblue" stroke="midnightblue" points="331.58,-68 341.58,-64.5 331.58,-61 331.58,-68"/>
</g>
<!-- Node5 -->
<g id="node5" class="node">
<title>Node5</title>
<g id="a_node5"><a xlink:href="classgpuNUFFT_1_1GpuNUFFTOperator.html#aec6fcb3f29894b528f1dfb8892cc017b" target="_top" xlink:title="Perform forward gridding operation on given kspaceData.">
<polygon fill="none" stroke="black" points="148,-0.5 148,-30.5 306,-30.5 306,-0.5 148,-0.5"/>
<text text-anchor="start" x="156" y="-18.5" font-family="FreeSans.ttf" font-size="10.00">gpuNUFFT::GpuNUFFTOperator</text>
<text text-anchor="middle" x="227" y="-7.5" font-family="FreeSans.ttf" font-size="10.00">::performForwardGpuNUFFT</text>
</a>
</g>
</g>
<!-- Node1&#45;&gt;Node5 -->
<g id="edge5" class="edge">
<title>Node1&#45;&gt;Node5</title>
<path fill="none" stroke="midnightblue" d="M355.85,-52.13C332.95,-45.57 304.63,-37.46 280.48,-30.54"/>
<polygon fill="midnightblue" stroke="midnightblue" points="355.05,-55.55 365.62,-54.94 356.97,-48.82 355.05,-55.55"/>
</g>
<!-- Node3 -->
<g id="node3" class="node">
<title>Node3</title>
<g id="a_node3"><a xlink:href="python__bindings_8cpp.html#ad1a7eaf0d60c015a4df3da44ddf58e27" target="_top" xlink:title=" ">
<polygon fill="none" stroke="black" points="0,-79 0,-98 112,-98 112,-79 0,-79"/>
<text text-anchor="middle" x="56" y="-86" font-family="FreeSans.ttf" font-size="10.00">PYBIND11_MODULE</text>
</a>
</g>
</g>
<!-- Node2&#45;&gt;Node3 -->
<g id="edge2" class="edge">
<title>Node2&#45;&gt;Node3</title>
<path fill="none" stroke="midnightblue" d="M149.25,-102.15C136.74,-100.3 124.01,-98.41 112.16,-96.66"/>
<polygon fill="midnightblue" stroke="midnightblue" points="148.8,-105.62 159.21,-103.62 149.83,-98.69 148.8,-105.62"/>
</g>
<!-- Node4&#45;&gt;Node3 -->
<g id="edge4" class="edge">
<title>Node4&#45;&gt;Node3</title>
<path fill="none" stroke="midnightblue" d="M149.25,-75.4C136.74,-77.18 124.01,-78.98 112.16,-80.67"/>
<polygon fill="midnightblue" stroke="midnightblue" points="149.8,-78.86 159.21,-73.99 148.81,-71.93 149.8,-78.86"/>
</g>
</g>
</svg>
