<?xml version="1.0" encoding="UTF-8" standalone="no"?>
<!DOCTYPE svg PUBLIC "-//W3C//DTD SVG 1.1//EN"
 "http://www.w3.org/Graphics/SVG/1.1/DTD/svg11.dtd">
<!-- Generated by graphviz version 2.49.3 (20211027.1534)
 -->
<!-- Title: bindTo1DTexture Pages: 1 -->
<svg width="327pt" height="186pt"
 viewBox="0.00 0.00 327.00 186.00" xmlns="http://www.w3.org/2000/svg" xmlns:xlink="http://www.w3.org/1999/xlink">
<g id="graph0" class="graph" transform="scale(1 1) rotate(0) translate(4 182)">
<title>bindTo1DTexture</title>
<!-- Node1 -->
<g id="node1" class="node">
<title>Node1</title>
<g id="a_node1"><a xlink:title="Bind to 1&#45;d texture on device.">
<polygon fill="#bfbfbf" stroke="black" points="229,-79 229,-98 319,-98 319,-79 229,-79"/>
<text text-anchor="middle" x="274" y="-86" font-family="FreeSans.ttf" font-size="10.00">bindTo1DTexture</text>
</a>
</g>
</g>
<!-- Node2 -->
<g id="node2" class="node">
<title>Node2</title>
<g id="a_node2"><a xlink:href="classgpuNUFFT_1_1BalancedTextureGpuNUFFTOperator.html#a76b6f5c49769489e41af44e5e1e8600b" target="_top" xlink:title="Virtual adjoint convolution call, which can be used by sub&#45;classes to add behaviour to the gridding s...">
<polygon fill="none" stroke="black" points="10,-147.5 10,-177.5 183,-177.5 183,-147.5 10,-147.5"/>
<text text-anchor="start" x="18" y="-165.5" font-family="FreeSans.ttf" font-size="10.00">gpuNUFFT::BalancedTexture</text>
<text text-anchor="middle" x="96.5" y="-154.5" font-family="FreeSans.ttf" font-size="10.00">GpuNUFFTOperator::adjConvolution</text>
</a>
</g>
</g>
<!-- Node1&#45;&gt;Node2 -->
<g id="edge1" class="edge">
<title>Node1&#45;&gt;Node2</title>
<path fill="none" stroke="midnightblue" d="M252.03,-104.17C236.45,-115.15 214.29,-129.44 193,-138.5 185.06,-141.88 176.53,-144.86 167.96,-147.47"/>
<polygon fill="midnightblue" stroke="midnightblue" points="254.32,-106.83 260.39,-98.14 250.23,-101.15 254.32,-106.83"/>
</g>
<!-- Node3 -->
<g id="node3" class="node">
<title>Node3</title>
<g id="a_node3"><a xlink:href="classgpuNUFFT_1_1TextureGpuNUFFTOperator.html#aeda95a2995806f8362fe135eb7e4ebdb" target="_top" xlink:title="Virtual adjoint convolution call, which can be used by sub&#45;classes to add behaviour to the gridding s...">
<polygon fill="none" stroke="black" points="1,-98.5 1,-128.5 192,-128.5 192,-98.5 1,-98.5"/>
<text text-anchor="start" x="9" y="-116.5" font-family="FreeSans.ttf" font-size="10.00">gpuNUFFT::TextureGpuNUFFTOperator</text>
<text text-anchor="middle" x="96.5" y="-105.5" font-family="FreeSans.ttf" font-size="10.00">::adjConvolution</text>
</a>
</g>
</g>
<!-- Node1&#45;&gt;Node3 -->
<g id="edge2" class="edge">
<title>Node1&#45;&gt;Node3</title>
<path fill="none" stroke="midnightblue" d="M218.64,-96.24C210.17,-97.45 201.21,-98.73 192.14,-100.02"/>
<polygon fill="midnightblue" stroke="midnightblue" points="219.31,-99.68 228.71,-94.81 218.32,-92.75 219.31,-99.68"/>
</g>
<!-- Node4 -->
<g id="node4" class="node">
<title>Node4</title>
<g id="a_node4"><a xlink:href="classgpuNUFFT_1_1BalancedTextureGpuNUFFTOperator.html#a643ed4abaf7b00027d8edec5a64ba0ea" target="_top" xlink:title="Virtual forward convolution call, which can be used by sub&#45;classes to add behaviour to the gridding s...">
<polygon fill="none" stroke="black" points="0,-49.5 0,-79.5 193,-79.5 193,-49.5 0,-49.5"/>
<text text-anchor="start" x="8" y="-67.5" font-family="FreeSans.ttf" font-size="10.00">gpuNUFFT::BalancedTexture</text>
<text text-anchor="middle" x="96.5" y="-56.5" font-family="FreeSans.ttf" font-size="10.00">GpuNUFFTOperator::forwardConvolution</text>
</a>
</g>
</g>
<!-- Node1&#45;&gt;Node4 -->
<g id="edge3" class="edge">
<title>Node1&#45;&gt;Node4</title>
<path fill="none" stroke="midnightblue" d="M218.65,-81.07C210.5,-79.95 201.89,-78.78 193.18,-77.58"/>
<polygon fill="midnightblue" stroke="midnightblue" points="218.33,-84.56 228.71,-82.44 219.28,-77.62 218.33,-84.56"/>
</g>
<!-- Node5 -->
<g id="node5" class="node">
<title>Node5</title>
<g id="a_node5"><a xlink:href="classgpuNUFFT_1_1TextureGpuNUFFTOperator.html#af111ef5824d67c6c167211285f1404b0" target="_top" xlink:title="Virtual forward convolution call, which can be used by sub&#45;classes to add behaviour to the gridding s...">
<polygon fill="none" stroke="black" points="1,-0.5 1,-30.5 192,-30.5 192,-0.5 1,-0.5"/>
<text text-anchor="start" x="9" y="-18.5" font-family="FreeSans.ttf" font-size="10.00">gpuNUFFT::TextureGpuNUFFTOperator</text>
<text text-anchor="middle" x="96.5" y="-7.5" font-family="FreeSans.ttf" font-size="10.00">::forwardConvolution</text>
</a>
</g>
</g>
<!-- Node1&#45;&gt;Node5 -->
<g id="edge4" class="edge">
<title>Node1&#45;&gt;Node5</title>
<path fill="none" stroke="midnightblue" d="M251.35,-73.19C235.74,-62.75 213.84,-49.27 193,-40.5 184.07,-36.74 174.44,-33.43 164.84,-30.54"/>
<polygon fill="midnightblue" stroke="midnightblue" points="249.52,-76.18 259.76,-78.93 253.47,-70.4 249.52,-76.18"/>
</g>
</g>
</svg>
