<?xml version="1.0" encoding="UTF-8" standalone="no"?>
<!DOCTYPE svg PUBLIC "-//W3C//DTD SVG 1.1//EN"
 "http://www.w3.org/Graphics/SVG/1.1/DTD/svg11.dtd">
<!-- Generated by graphviz version 2.49.3 (20211027.1534)
 -->
<!-- Title: freeDeviceMem Pages: 1 -->
<svg width="702pt" height="505pt"
 viewBox="0.00 0.00 702.00 505.33" xmlns="http://www.w3.org/2000/svg" xmlns:xlink="http://www.w3.org/1999/xlink">
<g id="graph0" class="graph" transform="scale(1 1) rotate(0) translate(4 501.33)">
<title>freeDeviceMem</title>
<!-- Node1 -->
<g id="node1" class="node">
<title>Node1</title>
<g id="a_node1"><a xlink:title="Free of device memory.">
<polygon fill="#bfbfbf" stroke="black" points="609,-267.5 609,-286.5 694,-286.5 694,-267.5 609,-267.5"/>
<text text-anchor="middle" x="651.5" y="-274.5" font-family="FreeSans.ttf" font-size="10.00">freeDeviceMem</text>
</a>
</g>
</g>
<!-- Node2 -->
<g id="node2" class="node">
<title>Node2</title>
<g id="a_node2"><a xlink:href="classGpuNUFFTPythonOperator.html#a47e427fafc08d705d834940e1229742f" target="_top" xlink:title="Estimate density Compensation array using gpu&#45;only functions.">
<polygon fill="none" stroke="black" points="438,-384 438,-414 573,-414 573,-384 438,-384"/>
<text text-anchor="start" x="446" y="-402" font-family="FreeSans.ttf" font-size="10.00">GpuNUFFTPythonOperator</text>
<text text-anchor="middle" x="505.5" y="-391" font-family="FreeSans.ttf" font-size="10.00">::estimate_density_comp</text>
</a>
</g>
</g>
<!-- Node1&#45;&gt;Node2 -->
<g id="edge1" class="edge">
<title>Node1&#45;&gt;Node2</title>
<path fill="none" stroke="midnightblue" d="M631.32,-293.25C603.31,-316.98 551.57,-360.81 524.34,-383.89"/>
<polygon fill="midnightblue" stroke="midnightblue" points="633.83,-295.71 639.2,-286.57 629.31,-290.37 633.83,-295.71"/>
</g>
<!-- Node4 -->
<g id="node4" class="node">
<title>Node4</title>
<g id="a_node4"><a xlink:href="cuda__utils_8hpp.html#aaa83ead29bc50e65ae4298d9206a760b" target="_top" xlink:title="Free variable list of device pointers. Use NULL as stopping element.">
<polygon fill="none" stroke="black" points="446,-245.5 446,-264.5 565,-264.5 565,-245.5 446,-245.5"/>
<text text-anchor="middle" x="505.5" y="-252.5" font-family="FreeSans.ttf" font-size="10.00">freeTotalDeviceMemory</text>
</a>
</g>
</g>
<!-- Node1&#45;&gt;Node4 -->
<g id="edge3" class="edge">
<title>Node1&#45;&gt;Node4</title>
<path fill="none" stroke="midnightblue" d="M598.68,-269.08C587.81,-267.42 576.29,-265.66 565.19,-263.97"/>
<polygon fill="midnightblue" stroke="midnightblue" points="598.44,-272.59 608.85,-270.64 599.49,-265.67 598.44,-272.59"/>
</g>
<!-- Node3 -->
<g id="node3" class="node">
<title>Node3</title>
<g id="a_node3"><a xlink:href="python__bindings_8cpp.html#ad1a7eaf0d60c015a4df3da44ddf58e27" target="_top" xlink:title=" ">
<polygon fill="none" stroke="black" points="23,-446.5 23,-465.5 135,-465.5 135,-446.5 23,-446.5"/>
<text text-anchor="middle" x="79" y="-453.5" font-family="FreeSans.ttf" font-size="10.00">PYBIND11_MODULE</text>
</a>
</g>
</g>
<!-- Node2&#45;&gt;Node3 -->
<g id="edge2" class="edge">
<title>Node2&#45;&gt;Node3</title>
<path fill="none" stroke="midnightblue" d="M484.93,-421.62C466.02,-441.58 435.41,-469.28 402,-481 298.56,-517.28 165.32,-483.57 108.12,-465.61"/>
<polygon fill="midnightblue" stroke="midnightblue" points="487.62,-423.86 491.81,-414.13 482.47,-419.12 487.62,-423.86"/>
</g>
<!-- Node5 -->
<g id="node5" class="node">
<title>Node5</title>
<g id="a_node5"><a xlink:href="classGpuNUFFTPythonOperator.html#a564644dc7ea9b8306cd6296ea6f1fca6" target="_top" xlink:title=" ">
<polygon fill="none" stroke="black" points="230.5,-441 230.5,-471 365.5,-471 365.5,-441 230.5,-441"/>
<text text-anchor="start" x="238.5" y="-459" font-family="FreeSans.ttf" font-size="10.00">GpuNUFFTPythonOperator</text>
<text text-anchor="middle" x="298" y="-448" font-family="FreeSans.ttf" font-size="10.00">::data_consistency</text>
</a>
</g>
</g>
<!-- Node4&#45;&gt;Node5 -->
<g id="edge4" class="edge">
<title>Node4&#45;&gt;Node5</title>
<path fill="none" stroke="midnightblue" d="M494.29,-273.53C469.81,-317.84 409.26,-426.62 402,-432 391.38,-439.87 378.58,-445.21 365.68,-448.82"/>
<polygon fill="midnightblue" stroke="midnightblue" points="497.42,-275.11 499.19,-264.66 491.29,-271.73 497.42,-275.11"/>
</g>
<!-- Node6 -->
<g id="node6" class="node">
<title>Node6</title>
<g id="a_node6"><a xlink:href="classgpuNUFFT_1_1GpuNUFFTOperator.html#a065bb3f71daa7a8eea80f786d0626f59" target="_top" xlink:title="Function to free the neccessary device memory used by the GriddingOperator.">
<polygon fill="none" stroke="black" points="219,-343 219,-373 377,-373 377,-343 219,-343"/>
<text text-anchor="start" x="227" y="-361" font-family="FreeSans.ttf" font-size="10.00">gpuNUFFT::GpuNUFFTOperator</text>
<text text-anchor="middle" x="298" y="-350" font-family="FreeSans.ttf" font-size="10.00">::freeDeviceMemory</text>
</a>
</g>
</g>
<!-- Node4&#45;&gt;Node6 -->
<g id="edge6" class="edge">
<title>Node4&#45;&gt;Node6</title>
<path fill="none" stroke="midnightblue" d="M487.31,-271.71C468.07,-289.49 435.21,-317.19 402,-333 393.86,-336.88 385.06,-340.18 376.16,-343"/>
<polygon fill="midnightblue" stroke="midnightblue" points="489.8,-274.17 494.68,-264.76 485,-269.07 489.8,-274.17"/>
</g>
<!-- Node8 -->
<g id="node8" class="node">
<title>Node8</title>
<g id="a_node8"><a xlink:href="classGpuNUFFTPythonOperator.html#a10bcd0d453fef0947c00cb4448398d3b" target="_top" xlink:title="Estimate the spectral radius using gpu&#45;only functions.">
<polygon fill="none" stroke="black" points="230.5,-392 230.5,-422 365.5,-422 365.5,-392 230.5,-392"/>
<text text-anchor="start" x="238.5" y="-410" font-family="FreeSans.ttf" font-size="10.00">GpuNUFFTPythonOperator</text>
<text text-anchor="middle" x="298" y="-399" font-family="FreeSans.ttf" font-size="10.00">::get_spectral_radius</text>
</a>
</g>
</g>
<!-- Node4&#45;&gt;Node8 -->
<g id="edge8" class="edge">
<title>Node4&#45;&gt;Node8</title>
<path fill="none" stroke="midnightblue" d="M494.89,-273.71C479.36,-302 445.98,-355.29 402,-383 391.05,-389.9 378.32,-394.82 365.62,-398.33"/>
<polygon fill="midnightblue" stroke="midnightblue" points="498.18,-274.98 499.8,-264.51 492,-271.69 498.18,-274.98"/>
</g>
<!-- Node9 -->
<g id="node9" class="node">
<title>Node9</title>
<g id="a_node9"><a xlink:href="classgpuNUFFT_1_1BalancedGpuNUFFTOperator.html#a3b8fe03dd1e0e8b68eba22e42e1e032b" target="_top" xlink:title="Perform forward gridding operation on given kspaceData.">
<polygon fill="none" stroke="black" points="198.5,-294 198.5,-324 397.5,-324 397.5,-294 198.5,-294"/>
<text text-anchor="start" x="206.5" y="-312" font-family="FreeSans.ttf" font-size="10.00">gpuNUFFT::BalancedGpuNUFFTOperator</text>
<text text-anchor="middle" x="298" y="-301" font-family="FreeSans.ttf" font-size="10.00">::performForwardGpuNUFFT</text>
</a>
</g>
</g>
<!-- Node4&#45;&gt;Node9 -->
<g id="edge10" class="edge">
<title>Node4&#45;&gt;Node9</title>
<path fill="none" stroke="midnightblue" d="M463.96,-267.43C445.18,-273.04 422.52,-279.61 402,-285 390.37,-288.05 377.95,-291.12 365.9,-293.98"/>
<polygon fill="midnightblue" stroke="midnightblue" points="465.11,-270.74 473.68,-264.51 463.09,-264.04 465.11,-270.74"/>
</g>
<!-- Node10 -->
<g id="node10" class="node">
<title>Node10</title>
<g id="a_node10"><a xlink:href="classgpuNUFFT_1_1BalancedTextureGpuNUFFTOperator.html#a8e0514f6dea51134ad49aaeb6c29ac5b" target="_top" xlink:title="Perform forward gridding operation on given kspaceData.">
<polygon fill="none" stroke="black" points="209,-234.5 209,-275.5 387,-275.5 387,-234.5 209,-234.5"/>
<text text-anchor="start" x="217" y="-263.5" font-family="FreeSans.ttf" font-size="10.00">gpuNUFFT::BalancedTexture</text>
<text text-anchor="start" x="217" y="-252.5" font-family="FreeSans.ttf" font-size="10.00">GpuNUFFTOperator::performForward</text>
<text text-anchor="middle" x="298" y="-241.5" font-family="FreeSans.ttf" font-size="10.00">GpuNUFFT</text>
</a>
</g>
</g>
<!-- Node4&#45;&gt;Node10 -->
<g id="edge11" class="edge">
<title>Node4&#45;&gt;Node10</title>
<path fill="none" stroke="midnightblue" d="M435.83,-255C420.25,-255 403.49,-255 387.22,-255"/>
<polygon fill="midnightblue" stroke="midnightblue" points="435.89,-258.5 445.89,-255 435.89,-251.5 435.89,-258.5"/>
</g>
<!-- Node11 -->
<g id="node11" class="node">
<title>Node11</title>
<g id="a_node11"><a xlink:href="classgpuNUFFT_1_1GpuNUFFTOperator.html#ada5bb598b923ca3e92e987982f3d0d5b" target="_top" xlink:title="Perform forward gridding operation on kspaceData already residing in GPU memory.">
<polygon fill="none" stroke="black" points="219,-186 219,-216 377,-216 377,-186 219,-186"/>
<text text-anchor="start" x="227" y="-204" font-family="FreeSans.ttf" font-size="10.00">gpuNUFFT::GpuNUFFTOperator</text>
<text text-anchor="middle" x="298" y="-193" font-family="FreeSans.ttf" font-size="10.00">::performForwardGpuNUFFT</text>
</a>
</g>
</g>
<!-- Node4&#45;&gt;Node11 -->
<g id="edge12" class="edge">
<title>Node4&#45;&gt;Node11</title>
<path fill="none" stroke="midnightblue" d="M463.96,-242.57C445.18,-236.96 422.52,-230.39 402,-225 390.37,-221.95 377.95,-218.88 365.9,-216.02"/>
<polygon fill="midnightblue" stroke="midnightblue" points="463.09,-245.96 473.68,-245.49 465.11,-239.26 463.09,-245.96"/>
</g>
<!-- Node12 -->
<g id="node12" class="node">
<title>Node12</title>
<g id="a_node12"><a xlink:href="classgpuNUFFT_1_1BalancedGpuNUFFTOperator.html#ada71d183719d9375226352e90ff22194" target="_top" xlink:title="Perform Adjoint gridding operation on given kspaceData.">
<polygon fill="none" stroke="black" points="198.5,-137 198.5,-167 397.5,-167 397.5,-137 198.5,-137"/>
<text text-anchor="start" x="206.5" y="-155" font-family="FreeSans.ttf" font-size="10.00">gpuNUFFT::BalancedGpuNUFFTOperator</text>
<text text-anchor="middle" x="298" y="-144" font-family="FreeSans.ttf" font-size="10.00">::performGpuNUFFTAdj</text>
</a>
</g>
</g>
<!-- Node4&#45;&gt;Node12 -->
<g id="edge13" class="edge">
<title>Node4&#45;&gt;Node12</title>
<path fill="none" stroke="midnightblue" d="M487.68,-238.29C468.54,-220.24 435.57,-191.92 402,-176 394.78,-172.58 387.05,-169.63 379.17,-167.08"/>
<polygon fill="midnightblue" stroke="midnightblue" points="485.37,-240.92 495,-245.34 490.22,-235.88 485.37,-240.92"/>
</g>
<!-- Node13 -->
<g id="node13" class="node">
<title>Node13</title>
<g id="a_node13"><a xlink:href="classgpuNUFFT_1_1BalancedTextureGpuNUFFTOperator.html#a1bbc427b1d73850b6025eb52b417174b" target="_top" xlink:title="Perform Adjoint gridding operation on given kspaceData.">
<polygon fill="none" stroke="black" points="194,-88 194,-118 402,-118 402,-88 194,-88"/>
<text text-anchor="start" x="202" y="-106" font-family="FreeSans.ttf" font-size="10.00">gpuNUFFT::BalancedTexture</text>
<text text-anchor="middle" x="298" y="-95" font-family="FreeSans.ttf" font-size="10.00">GpuNUFFTOperator::performGpuNUFFTAdj</text>
</a>
</g>
</g>
<!-- Node4&#45;&gt;Node13 -->
<g id="edge14" class="edge">
<title>Node4&#45;&gt;Node13</title>
<path fill="none" stroke="midnightblue" d="M494.89,-236.29C479.36,-208 445.98,-154.71 402,-127 396.49,-123.53 390.52,-120.55 384.33,-118.01"/>
<polygon fill="midnightblue" stroke="midnightblue" points="492,-238.31 499.8,-245.49 498.18,-235.02 492,-238.31"/>
</g>
<!-- Node14 -->
<g id="node14" class="node">
<title>Node14</title>
<g id="a_node14"><a xlink:href="classgpuNUFFT_1_1GpuNUFFTOperator.html#a89e40ec1b777c8033bbc933c6535078c" target="_top" xlink:title="Perform Adjoint gridding operation on kspaceData already residing in GPU memory.">
<polygon fill="none" stroke="black" points="219,-39 219,-69 377,-69 377,-39 219,-39"/>
<text text-anchor="start" x="227" y="-57" font-family="FreeSans.ttf" font-size="10.00">gpuNUFFT::GpuNUFFTOperator</text>
<text text-anchor="middle" x="298" y="-46" font-family="FreeSans.ttf" font-size="10.00">::performGpuNUFFTAdj</text>
</a>
</g>
</g>
<!-- Node4&#45;&gt;Node14 -->
<g id="edge15" class="edge">
<title>Node4&#45;&gt;Node14</title>
<path fill="none" stroke="midnightblue" d="M498.93,-235.5C487.35,-198.64 457.06,-118.78 402,-78 394.55,-72.48 386.03,-68.21 377.15,-64.9"/>
<polygon fill="midnightblue" stroke="midnightblue" points="495.58,-236.52 501.82,-245.08 502.28,-234.5 495.58,-236.52"/>
</g>
<!-- Node15 -->
<g id="node15" class="node">
<title>Node15</title>
<g id="a_node15"><a xlink:href="gpuNUFFT__fft__tests_8cpp.html#a91d5133a5dfb2043009e4af924399fba" target="_top" xlink:title=" ">
<polygon fill="none" stroke="black" points="277.5,-0.5 277.5,-19.5 318.5,-19.5 318.5,-0.5 277.5,-0.5"/>
<text text-anchor="middle" x="298" y="-7.5" font-family="FreeSans.ttf" font-size="10.00">TEST</text>
</a>
</g>
</g>
<!-- Node4&#45;&gt;Node15 -->
<g id="edge16" class="edge">
<title>Node4&#45;&gt;Node15</title>
<path fill="none" stroke="midnightblue" d="M501.74,-235.27C494.39,-190.75 470.06,-82.23 402,-29 377.94,-10.18 341.1,-7.88 318.61,-8.52"/>
<polygon fill="midnightblue" stroke="midnightblue" points="498.31,-236.01 503.29,-245.36 505.23,-234.95 498.31,-236.01"/>
</g>
<!-- Node5&#45;&gt;Node3 -->
<g id="edge5" class="edge">
<title>Node5&#45;&gt;Node3</title>
<path fill="none" stroke="midnightblue" d="M220.23,-456C192.15,-456 160.97,-456 135.15,-456"/>
<polygon fill="midnightblue" stroke="midnightblue" points="220.42,-459.5 230.42,-456 220.42,-452.5 220.42,-459.5"/>
</g>
<!-- Node7 -->
<g id="node7" class="node">
<title>Node7</title>
<g id="a_node7"><a xlink:href="classgpuNUFFT_1_1GpuNUFFTOperator.html#acf8b3aa450f554ebd8130c11d7c8233e" target="_top" xlink:title=" ">
<polygon fill="none" stroke="black" points="0,-343 0,-373 158,-373 158,-343 0,-343"/>
<text text-anchor="start" x="8" y="-361" font-family="FreeSans.ttf" font-size="10.00">gpuNUFFT::GpuNUFFTOperator</text>
<text text-anchor="middle" x="79" y="-350" font-family="FreeSans.ttf" font-size="10.00">::~GpuNUFFTOperator</text>
</a>
</g>
</g>
<!-- Node6&#45;&gt;Node7 -->
<g id="edge7" class="edge">
<title>Node6&#45;&gt;Node7</title>
<path fill="none" stroke="midnightblue" d="M208.64,-358C191.89,-358 174.48,-358 158.07,-358"/>
<polygon fill="midnightblue" stroke="midnightblue" points="208.96,-361.5 218.96,-358 208.96,-354.5 208.96,-361.5"/>
</g>
<!-- Node8&#45;&gt;Node3 -->
<g id="edge9" class="edge">
<title>Node8&#45;&gt;Node3</title>
<path fill="none" stroke="midnightblue" d="M220.33,-424.31C187.34,-431.76 150.04,-440.18 122.2,-446.47"/>
<polygon fill="midnightblue" stroke="midnightblue" points="221.43,-427.65 230.42,-422.03 219.89,-420.82 221.43,-427.65"/>
</g>
</g>
</svg>
