<?xml version="1.0" encoding="UTF-8" standalone="no"?>
<!DOCTYPE svg PUBLIC "-//W3C//DTD SVG 1.1//EN"
 "http://www.w3.org/Graphics/SVG/1.1/DTD/svg11.dtd">
<!-- Generated by graphviz version 2.49.3 (20211027.1534)
 -->
<!-- Title: unbindTexture Pages: 1 -->
<svg width="314pt" height="186pt"
 viewBox="0.00 0.00 314.00 186.00" xmlns="http://www.w3.org/2000/svg" xmlns:xlink="http://www.w3.org/1999/xlink">
<g id="graph0" class="graph" transform="scale(1 1) rotate(0) translate(4 182)">
<title>unbindTexture</title>
<!-- Node1 -->
<g id="node1" class="node">
<title>Node1</title>
<g id="a_node1"><a xlink:title="Unbind from device texture.">
<polygon fill="#bfbfbf" stroke="black" points="229,-79 229,-98 306,-98 306,-79 229,-79"/>
<text text-anchor="middle" x="267.5" y="-86" font-family="FreeSans.ttf" font-size="10.00">unbindTexture</text>
</a>
</g>
</g>
<!-- Node2 -->
<g id="node2" class="node">
<title>Node2</title>
<g id="a_node2"><a xlink:href="classgpuNUFFT_1_1BalancedTextureGpuNUFFTOperator.html#a76b6f5c49769489e41af44e5e1e8600b" target="_top" xlink:title="Virtual adjoint convolution call, which can be used by sub&#45;classes to add behaviour to the gridding s...">
<polygon fill="none" stroke="black" points="10,-147.5 10,-177.5 183,-177.5 183,-147.5 10,-147.5"/>
<text text-anchor="start" x="18" y="-165.5" font-family="FreeSans.ttf" font-size="10.00">gpuNUFFT::BalancedTexture</text>
<text text-anchor="middle" x="96.5" y="-154.5" font-family="FreeSans.ttf" font-size="10.00">GpuNUFFTOperator::adjConvolution</text>
</a>
</g>
</g>
<!-- Node1&#45;&gt;Node2 -->
<g id="edge1" class="edge">
<title>Node1&#45;&gt;Node2</title>
<path fill="none" stroke="midnightblue" d="M247.28,-104.36C233.07,-115.37 212.82,-129.61 193,-138.5 185.44,-141.89 177.31,-144.86 169.11,-147.45"/>
<polygon fill="midnightblue" stroke="midnightblue" points="249.64,-106.96 255.29,-98 245.29,-101.48 249.64,-106.96"/>
</g>
<!-- Node3 -->
<g id="node3" class="node">
<title>Node3</title>
<g id="a_node3"><a xlink:href="classgpuNUFFT_1_1TextureGpuNUFFTOperator.html#aeda95a2995806f8362fe135eb7e4ebdb" target="_top" xlink:title="Virtual adjoint convolution call, which can be used by sub&#45;classes to add behaviour to the gridding s...">
<polygon fill="none" stroke="black" points="1,-98.5 1,-128.5 192,-128.5 192,-98.5 1,-98.5"/>
<text text-anchor="start" x="9" y="-116.5" font-family="FreeSans.ttf" font-size="10.00">gpuNUFFT::TextureGpuNUFFTOperator</text>
<text text-anchor="middle" x="96.5" y="-105.5" font-family="FreeSans.ttf" font-size="10.00">::adjConvolution</text>
</a>
</g>
</g>
<!-- Node1&#45;&gt;Node3 -->
<g id="edge2" class="edge">
<title>Node1&#45;&gt;Node3</title>
<path fill="none" stroke="midnightblue" d="M219.01,-95.52C210.56,-96.78 201.48,-98.12 192.24,-99.48"/>
<polygon fill="midnightblue" stroke="midnightblue" points="219.61,-98.97 228.99,-94.05 218.59,-92.05 219.61,-98.97"/>
</g>
<!-- Node4 -->
<g id="node4" class="node">
<title>Node4</title>
<g id="a_node4"><a xlink:href="classgpuNUFFT_1_1BalancedTextureGpuNUFFTOperator.html#a643ed4abaf7b00027d8edec5a64ba0ea" target="_top" xlink:title="Virtual forward convolution call, which can be used by sub&#45;classes to add behaviour to the gridding s...">
<polygon fill="none" stroke="black" points="0,-49.5 0,-79.5 193,-79.5 193,-49.5 0,-49.5"/>
<text text-anchor="start" x="8" y="-67.5" font-family="FreeSans.ttf" font-size="10.00">gpuNUFFT::BalancedTexture</text>
<text text-anchor="middle" x="96.5" y="-56.5" font-family="FreeSans.ttf" font-size="10.00">GpuNUFFTOperator::forwardConvolution</text>
</a>
</g>
</g>
<!-- Node1&#45;&gt;Node4 -->
<g id="edge3" class="edge">
<title>Node1&#45;&gt;Node4</title>
<path fill="none" stroke="midnightblue" d="M219.01,-81.76C210.87,-80.6 202.15,-79.36 193.27,-78.1"/>
<polygon fill="midnightblue" stroke="midnightblue" points="218.6,-85.23 228.99,-83.17 219.58,-78.3 218.6,-85.23"/>
</g>
<!-- Node5 -->
<g id="node5" class="node">
<title>Node5</title>
<g id="a_node5"><a xlink:href="classgpuNUFFT_1_1TextureGpuNUFFTOperator.html#af111ef5824d67c6c167211285f1404b0" target="_top" xlink:title="Virtual forward convolution call, which can be used by sub&#45;classes to add behaviour to the gridding s...">
<polygon fill="none" stroke="black" points="1,-0.5 1,-30.5 192,-30.5 192,-0.5 1,-0.5"/>
<text text-anchor="start" x="9" y="-18.5" font-family="FreeSans.ttf" font-size="10.00">gpuNUFFT::TextureGpuNUFFTOperator</text>
<text text-anchor="middle" x="96.5" y="-7.5" font-family="FreeSans.ttf" font-size="10.00">::forwardConvolution</text>
</a>
</g>
</g>
<!-- Node1&#45;&gt;Node5 -->
<g id="edge4" class="edge">
<title>Node1&#45;&gt;Node5</title>
<path fill="none" stroke="midnightblue" d="M246.39,-72.81C232.17,-62.36 212.27,-49.04 193,-40.5 184.46,-36.71 175.23,-33.41 165.99,-30.55"/>
<polygon fill="midnightblue" stroke="midnightblue" points="244.37,-75.66 254.46,-78.87 248.57,-70.06 244.37,-75.66"/>
</g>
</g>
</svg>
