<?xml version="1.0" encoding="UTF-8" standalone="no"?>
<!DOCTYPE svg PUBLIC "-//W3C//DTD SVG 1.1//EN"
 "http://www.w3.org/Graphics/SVG/1.1/DTD/svg11.dtd">
<!-- Generated by graphviz version 2.49.3 (20211027.1534)
 -->
<!-- Title: CUDA/inc/cuda_utils.hpp Pages: 1 -->
<svg width="1353pt" height="464pt"
 viewBox="0.00 0.00 1352.50 464.00" xmlns="http://www.w3.org/2000/svg" xmlns:xlink="http://www.w3.org/1999/xlink">
<g id="graph0" class="graph" transform="scale(1 1) rotate(0) translate(4 460)">
<title>CUDA/inc/cuda_utils.hpp</title>
<!-- Node1 -->
<g id="node1" class="node">
<title>Node1</title>
<g id="a_node1"><a xlink:title="Util functions for CUDA memory and texture management.">
<polygon fill="#bfbfbf" stroke="black" points="1122.5,-436.5 1122.5,-455.5 1247.5,-455.5 1247.5,-436.5 1122.5,-436.5"/>
<text text-anchor="middle" x="1185" y="-443.5" font-family="FreeSans.ttf" font-size="10.00">CUDA/inc/cuda_utils.hpp</text>
</a>
</g>
</g>
<!-- Node2 -->
<g id="node2" class="node">
<title>Node2</title>
<g id="a_node2"><a xlink:href="gpuNUFFT__kernels_8hpp.html" target="_top" xlink:title="gpuNUFFT CUDA function prototypes">
<polygon fill="none" stroke="black" points="1046.5,-380.5 1046.5,-399.5 1213.5,-399.5 1213.5,-380.5 1046.5,-380.5"/>
<text text-anchor="middle" x="1130" y="-387.5" font-family="FreeSans.ttf" font-size="10.00">CUDA/inc/gpuNUFFT_kernels.hpp</text>
</a>
</g>
</g>
<!-- Node1&#45;&gt;Node2 -->
<g id="edge1" class="edge">
<title>Node1&#45;&gt;Node2</title>
<path fill="none" stroke="midnightblue" d="M1168.71,-429C1158.96,-419.43 1146.95,-407.64 1138.91,-399.75"/>
<polygon fill="midnightblue" stroke="midnightblue" points="1166.33,-431.57 1175.92,-436.08 1171.23,-426.58 1166.33,-431.57"/>
</g>
<!-- Node5 -->
<g id="node5" class="node">
<title>Node5</title>
<g id="a_node5"><a xlink:href="gpuNUFFT__operator__factory_8hpp.html" target="_top" xlink:title=" ">
<polygon fill="none" stroke="black" points="672,-123.5 672,-153.5 824,-153.5 824,-123.5 672,-123.5"/>
<text text-anchor="start" x="680" y="-141.5" font-family="FreeSans.ttf" font-size="10.00">CUDA/inc/gpuNUFFT_operator</text>
<text text-anchor="middle" x="748" y="-130.5" font-family="FreeSans.ttf" font-size="10.00">_factory.hpp</text>
</a>
</g>
</g>
<!-- Node1&#45;&gt;Node5 -->
<g id="edge35" class="edge">
<title>Node1&#45;&gt;Node5</title>
<path fill="none" stroke="midnightblue" d="M1112.12,-442.93C909.8,-436.23 356,-410.95 356,-335 356,-335 356,-335 356,-271.5 356,-234.31 347.37,-214.89 375,-190 422.76,-146.98 598.41,-163.35 662,-154 665.15,-153.54 668.35,-153.05 671.59,-152.55"/>
<polygon fill="midnightblue" stroke="midnightblue" points="1112.24,-446.44 1122.35,-443.26 1112.47,-439.44 1112.24,-446.44"/>
</g>
<!-- Node17 -->
<g id="node17" class="node">
<title>Node17</title>
<g id="a_node17"><a xlink:href="precomp__kernels_8hpp.html" target="_top" xlink:title="GPU Kernels for Precomputation (sector assignment)">
<polygon fill="none" stroke="black" points="1071.5,-196 1071.5,-215 1226.5,-215 1226.5,-196 1071.5,-196"/>
<text text-anchor="middle" x="1149" y="-203" font-family="FreeSans.ttf" font-size="10.00">CUDA/inc/precomp_kernels.hpp</text>
</a>
</g>
</g>
<!-- Node1&#45;&gt;Node17 -->
<g id="edge36" class="edge">
<title>Node1&#45;&gt;Node17</title>
<path fill="none" stroke="midnightblue" d="M1209.72,-430.9C1220.53,-423.28 1232.08,-412.79 1238,-400 1253.75,-365.96 1297.21,-380.36 1222,-257 1209.97,-237.26 1186.97,-223.32 1169.99,-215.15"/>
<polygon fill="midnightblue" stroke="midnightblue" points="1207.79,-427.98 1201.33,-436.39 1211.62,-433.84 1207.79,-427.98"/>
</g>
<!-- Node18 -->
<g id="node18" class="node">
<title>Node18</title>
<g id="a_node18"><a xlink:href="gpuNUFFT__operator_8cpp.html" target="_top" xlink:title=" ">
<polygon fill="none" stroke="black" points="1173.5,-129 1173.5,-148 1344.5,-148 1344.5,-129 1173.5,-129"/>
<text text-anchor="middle" x="1259" y="-136" font-family="FreeSans.ttf" font-size="10.00">CUDA/src/gpuNUFFT_operator.cpp</text>
</a>
</g>
</g>
<!-- Node1&#45;&gt;Node18 -->
<g id="edge38" class="edge">
<title>Node1&#45;&gt;Node18</title>
<path fill="none" stroke="midnightblue" d="M1220.9,-432.78C1259.99,-416.92 1317,-385.19 1317,-335 1317,-335 1317,-335 1317,-271.5 1317,-221.19 1281.24,-168.51 1265.88,-148.19"/>
<polygon fill="midnightblue" stroke="midnightblue" points="1219.45,-429.58 1211.39,-436.47 1221.98,-436.11 1219.45,-429.58"/>
</g>
<!-- Node19 -->
<g id="node19" class="node">
<title>Node19</title>
<g id="a_node19"><a xlink:href="precomp__utils_8hpp.html" target="_top" xlink:title="UTIL functions for precomputation.">
<polygon fill="none" stroke="black" points="1071,-263 1071,-282 1213,-282 1213,-263 1071,-263"/>
<text text-anchor="middle" x="1142" y="-270" font-family="FreeSans.ttf" font-size="10.00">CUDA/inc/precomp_utils.hpp</text>
</a>
</g>
</g>
<!-- Node1&#45;&gt;Node19 -->
<g id="edge37" class="edge">
<title>Node1&#45;&gt;Node19</title>
<path fill="none" stroke="midnightblue" d="M1203.11,-429.24C1210.81,-421.33 1218.94,-411.09 1223,-400 1226.05,-391.65 1225.84,-388.42 1223,-380 1208.75,-337.74 1170.31,-298.96 1151.99,-282.22"/>
<polygon fill="midnightblue" stroke="midnightblue" points="1200.53,-426.86 1195.71,-436.3 1205.36,-431.93 1200.53,-426.86"/>
</g>
<!-- Node3 -->
<g id="node3" class="node">
<title>Node3</title>
<g id="a_node3"><a xlink:href="gpuNUFFT__operator_8hpp.html" target="_top" xlink:title=" ">
<polygon fill="none" stroke="black" points="923,-324.5 923,-343.5 1093,-343.5 1093,-324.5 923,-324.5"/>
<text text-anchor="middle" x="1008" y="-331.5" font-family="FreeSans.ttf" font-size="10.00">CUDA/inc/gpuNUFFT_operator.hpp</text>
</a>
</g>
</g>
<!-- Node2&#45;&gt;Node3 -->
<g id="edge2" class="edge">
<title>Node2&#45;&gt;Node3</title>
<path fill="none" stroke="midnightblue" d="M1101.46,-376.37C1078.61,-366.26 1047.19,-352.35 1027.24,-343.52"/>
<polygon fill="midnightblue" stroke="midnightblue" points="1100.11,-379.6 1110.67,-380.44 1102.94,-373.2 1100.11,-379.6"/>
</g>
<!-- Node2&#45;&gt;Node18 -->
<g id="edge34" class="edge">
<title>Node2&#45;&gt;Node18</title>
<path fill="none" stroke="midnightblue" d="M1148.52,-373.81C1169.5,-355.6 1203.21,-323.1 1222,-288 1248.08,-239.28 1256.21,-171.7 1258.34,-148.07"/>
<polygon fill="midnightblue" stroke="midnightblue" points="1146.01,-371.36 1140.65,-380.5 1150.54,-376.69 1146.01,-371.36"/>
</g>
<!-- Node3&#45;&gt;Node1 -->
<g id="edge19" class="edge">
<title>Node3&#45;&gt;Node1</title>
<path fill="none" stroke="midnightblue" d="M1012.1,-353.42C1016.26,-368.01 1024.12,-387.88 1038,-400 1061.42,-420.45 1093.97,-431.61 1122.49,-437.69"/>
<polygon fill="midnightblue" stroke="midnightblue" points="1015.44,-352.35 1009.6,-343.51 1008.65,-354.06 1015.44,-352.35"/>
</g>
<!-- Node4 -->
<g id="node4" class="node">
<title>Node4</title>
<g id="a_node4"><a xlink:href="balanced__gpuNUFFT__operator_8hpp.html" target="_top" xlink:title=" ">
<polygon fill="none" stroke="black" points="492,-257.5 492,-287.5 648,-287.5 648,-257.5 492,-257.5"/>
<text text-anchor="start" x="500" y="-275.5" font-family="FreeSans.ttf" font-size="10.00">CUDA/inc/balanced_gpuNUFFT</text>
<text text-anchor="middle" x="570" y="-264.5" font-family="FreeSans.ttf" font-size="10.00">_operator.hpp</text>
</a>
</g>
</g>
<!-- Node3&#45;&gt;Node4 -->
<g id="edge3" class="edge">
<title>Node3&#45;&gt;Node4</title>
<path fill="none" stroke="midnightblue" d="M934.85,-323.06C855.53,-312.29 729.41,-295.15 648.18,-284.12"/>
<polygon fill="midnightblue" stroke="midnightblue" points="934.87,-326.6 945.25,-324.48 935.81,-319.66 934.87,-326.6"/>
</g>
<!-- Node3&#45;&gt;Node5 -->
<g id="edge20" class="edge">
<title>Node3&#45;&gt;Node5</title>
<path fill="none" stroke="midnightblue" d="M1002.54,-314.63C992.49,-284.09 968.18,-222.96 926,-190 896.89,-167.25 858.02,-154.75 824.02,-147.88"/>
<polygon fill="midnightblue" stroke="midnightblue" points="999.26,-315.9 1005.6,-324.39 1005.94,-313.8 999.26,-315.9"/>
</g>
<!-- Node3&#45;&gt;Node17 -->
<g id="edge21" class="edge">
<title>Node3&#45;&gt;Node17</title>
<path fill="none" stroke="midnightblue" d="M1017.8,-314.96C1027.44,-298.42 1043.38,-273.98 1062,-257 1082.26,-238.52 1110.39,-223.71 1129.12,-215.03"/>
<polygon fill="midnightblue" stroke="midnightblue" points="1014.51,-313.67 1012.65,-324.1 1020.61,-317.11 1014.51,-313.67"/>
</g>
<!-- Node3&#45;&gt;Node18 -->
<g id="edge33" class="edge">
<title>Node3&#45;&gt;Node18</title>
<path fill="none" stroke="midnightblue" d="M1009.51,-313.93C1013.05,-282.82 1024.76,-221.48 1063,-190 1093.79,-164.65 1135.81,-151.86 1173.04,-145.46"/>
<polygon fill="midnightblue" stroke="midnightblue" points="1005.99,-313.96 1008.51,-324.25 1012.96,-314.63 1005.99,-313.96"/>
</g>
<!-- Node3&#45;&gt;Node19 -->
<g id="edge24" class="edge">
<title>Node3&#45;&gt;Node19</title>
<path fill="none" stroke="midnightblue" d="M1036.54,-320.33C1062.55,-308.78 1100.26,-292.03 1122.84,-282.01"/>
<polygon fill="midnightblue" stroke="midnightblue" points="1034.92,-317.22 1027.2,-324.48 1037.76,-323.62 1034.92,-317.22"/>
</g>
<!-- Node20 -->
<g id="node20" class="node">
<title>Node20</title>
<g id="a_node20"><a xlink:href="texture__gpuNUFFT__operator_8hpp.html" target="_top" xlink:title=" ">
<polygon fill="none" stroke="black" points="773,-257.5 773,-287.5 919,-287.5 919,-257.5 773,-257.5"/>
<text text-anchor="start" x="781" y="-275.5" font-family="FreeSans.ttf" font-size="10.00">CUDA/inc/texture_gpuNUFFT</text>
<text text-anchor="middle" x="846" y="-264.5" font-family="FreeSans.ttf" font-size="10.00">_operator.hpp</text>
</a>
</g>
</g>
<!-- Node3&#45;&gt;Node20 -->
<g id="edge27" class="edge">
<title>Node3&#45;&gt;Node20</title>
<path fill="none" stroke="midnightblue" d="M975.26,-320.98C948.92,-311.3 911.87,-297.69 884.18,-287.52"/>
<polygon fill="midnightblue" stroke="midnightblue" points="974.2,-324.31 984.79,-324.48 976.61,-317.74 974.2,-324.31"/>
</g>
<!-- Node4&#45;&gt;Node5 -->
<g id="edge4" class="edge">
<title>Node4&#45;&gt;Node5</title>
<path fill="none" stroke="midnightblue" d="M569.56,-247.46C570.52,-229.49 574.72,-205.45 589,-190 602.03,-175.91 644.16,-162.88 681.78,-153.58"/>
<polygon fill="midnightblue" stroke="midnightblue" points="566.06,-247.4 569.32,-257.48 573.06,-247.57 566.06,-247.4"/>
</g>
<!-- Node16 -->
<g id="node16" class="node">
<title>Node16</title>
<g id="a_node16"><a xlink:href="balanced__gpuNUFFT__operator_8cpp.html" target="_top" xlink:title=" ">
<polygon fill="none" stroke="black" points="384.5,-190.5 384.5,-220.5 541.5,-220.5 541.5,-190.5 384.5,-190.5"/>
<text text-anchor="start" x="392.5" y="-208.5" font-family="FreeSans.ttf" font-size="10.00">CUDA/src/balanced_gpuNUFFT</text>
<text text-anchor="middle" x="463" y="-197.5" font-family="FreeSans.ttf" font-size="10.00">_operator.cpp</text>
</a>
</g>
</g>
<!-- Node4&#45;&gt;Node16 -->
<g id="edge18" class="edge">
<title>Node4&#45;&gt;Node16</title>
<path fill="none" stroke="midnightblue" d="M537.92,-252.02C521.27,-241.9 501.31,-229.77 486.17,-220.58"/>
<polygon fill="midnightblue" stroke="midnightblue" points="536.42,-255.2 546.78,-257.4 540.05,-249.21 536.42,-255.2"/>
</g>
<!-- Node6 -->
<g id="node6" class="node">
<title>Node6</title>
<g id="a_node6"><a xlink:href="gpuNUFFT__operator__factory_8cpp.html" target="_top" xlink:title=" ">
<polygon fill="none" stroke="black" points="1131.5,-56.5 1131.5,-86.5 1284.5,-86.5 1284.5,-56.5 1131.5,-56.5"/>
<text text-anchor="start" x="1139.5" y="-74.5" font-family="FreeSans.ttf" font-size="10.00">CUDA/src/gpuNUFFT_operator</text>
<text text-anchor="middle" x="1208" y="-63.5" font-family="FreeSans.ttf" font-size="10.00">_factory.cpp</text>
</a>
</g>
</g>
<!-- Node5&#45;&gt;Node6 -->
<g id="edge5" class="edge">
<title>Node5&#45;&gt;Node6</title>
<path fill="none" stroke="midnightblue" d="M834.26,-126.76C910.35,-117.07 1024.18,-102.08 1123,-87 1125.66,-86.59 1128.37,-86.17 1131.11,-85.74"/>
<polygon fill="midnightblue" stroke="midnightblue" points="833.72,-123.3 824.24,-128.03 834.6,-130.24 833.72,-123.3"/>
</g>
<!-- Node7 -->
<g id="node7" class="node">
<title>Node7</title>
<g id="a_node7"><a xlink:href="gpuNUFFT__forward__tests_8cpp.html" target="_top" xlink:title=" ">
<polygon fill="none" stroke="black" points="962.5,-56.5 962.5,-86.5 1113.5,-86.5 1113.5,-56.5 962.5,-56.5"/>
<text text-anchor="start" x="970.5" y="-74.5" font-family="FreeSans.ttf" font-size="10.00">CUDA/test/gpu/forward</text>
<text text-anchor="middle" x="1038" y="-63.5" font-family="FreeSans.ttf" font-size="10.00">/gpuNUFFT_forward_tests.cpp</text>
</a>
</g>
</g>
<!-- Node5&#45;&gt;Node7 -->
<g id="edge6" class="edge">
<title>Node5&#45;&gt;Node7</title>
<path fill="none" stroke="midnightblue" d="M820.49,-121.25C868.02,-110.6 929.56,-96.81 975.04,-86.61"/>
<polygon fill="midnightblue" stroke="midnightblue" points="819.56,-117.87 810.57,-123.48 821.09,-124.7 819.56,-117.87"/>
</g>
<!-- Node8 -->
<g id="node8" class="node">
<title>Node8</title>
<g id="a_node8"><a xlink:href="gpuNUFFT__2D__conv__tests_8cpp.html" target="_top" xlink:title=" ">
<polygon fill="none" stroke="black" points="0,-56.5 0,-86.5 134,-86.5 134,-56.5 0,-56.5"/>
<text text-anchor="start" x="8" y="-74.5" font-family="FreeSans.ttf" font-size="10.00">CUDA/test/gpu/gpuNUFFT</text>
<text text-anchor="middle" x="67" y="-63.5" font-family="FreeSans.ttf" font-size="10.00">_2D_conv_tests.cpp</text>
</a>
</g>
</g>
<!-- Node5&#45;&gt;Node8 -->
<g id="edge7" class="edge">
<title>Node5&#45;&gt;Node8</title>
<path fill="none" stroke="midnightblue" d="M661.57,-123.04C430.66,-96.33 369.06,-116.3 143,-87 140.07,-86.62 137.08,-86.2 134.07,-85.75"/>
<polygon fill="midnightblue" stroke="midnightblue" points="661.28,-126.53 671.62,-124.22 662.1,-119.58 661.28,-126.53"/>
</g>
<!-- Node9 -->
<g id="node9" class="node">
<title>Node9</title>
<g id="a_node9"><a xlink:href="gpuNUFFT__conv__tests_8cpp.html" target="_top" xlink:title=" ">
<polygon fill="none" stroke="black" points="152,-56.5 152,-86.5 286,-86.5 286,-56.5 152,-56.5"/>
<text text-anchor="start" x="160" y="-74.5" font-family="FreeSans.ttf" font-size="10.00">CUDA/test/gpu/gpuNUFFT</text>
<text text-anchor="middle" x="219" y="-63.5" font-family="FreeSans.ttf" font-size="10.00">_conv_tests.cpp</text>
</a>
</g>
</g>
<!-- Node5&#45;&gt;Node9 -->
<g id="edge8" class="edge">
<title>Node5&#45;&gt;Node9</title>
<path fill="none" stroke="midnightblue" d="M661.67,-123.03C497.84,-101.7 454.05,-109.92 295,-87 292.08,-86.58 289.09,-86.12 286.08,-85.64"/>
<polygon fill="midnightblue" stroke="midnightblue" points="661.24,-126.5 671.61,-124.34 662.15,-119.56 661.24,-126.5"/>
</g>
<!-- Node10 -->
<g id="node10" class="node">
<title>Node10</title>
<g id="a_node10"><a xlink:href="gpuNUFFT__deapo__tests_8cpp.html" target="_top" xlink:title=" ">
<polygon fill="none" stroke="black" points="304,-56.5 304,-86.5 438,-86.5 438,-56.5 304,-56.5"/>
<text text-anchor="start" x="312" y="-74.5" font-family="FreeSans.ttf" font-size="10.00">CUDA/test/gpu/gpuNUFFT</text>
<text text-anchor="middle" x="371" y="-63.5" font-family="FreeSans.ttf" font-size="10.00">_deapo_tests.cpp</text>
</a>
</g>
</g>
<!-- Node5&#45;&gt;Node10 -->
<g id="edge9" class="edge">
<title>Node5&#45;&gt;Node10</title>
<path fill="none" stroke="midnightblue" d="M661.65,-122.95C564.83,-106.75 539.3,-103.53 447,-87 444.09,-86.48 441.12,-85.94 438.12,-85.39"/>
<polygon fill="midnightblue" stroke="midnightblue" points="661.13,-126.41 671.57,-124.61 662.28,-119.5 661.13,-126.41"/>
</g>
<!-- Node11 -->
<g id="node11" class="node">
<title>Node11</title>
<g id="a_node11"><a xlink:href="gpuNUFFT__fft__tests_8cpp.html" target="_top" xlink:title=" ">
<polygon fill="none" stroke="black" points="456,-56.5 456,-86.5 590,-86.5 590,-56.5 456,-56.5"/>
<text text-anchor="start" x="464" y="-74.5" font-family="FreeSans.ttf" font-size="10.00">CUDA/test/gpu/gpuNUFFT</text>
<text text-anchor="middle" x="523" y="-63.5" font-family="FreeSans.ttf" font-size="10.00">_fft_tests.cpp</text>
</a>
</g>
</g>
<!-- Node5&#45;&gt;Node11 -->
<g id="edge10" class="edge">
<title>Node5&#45;&gt;Node11</title>
<path fill="none" stroke="midnightblue" d="M689.43,-120.58C652.89,-110.02 606.4,-96.59 571.85,-86.61"/>
<polygon fill="midnightblue" stroke="midnightblue" points="688.88,-124.06 699.46,-123.48 690.82,-117.34 688.88,-124.06"/>
</g>
<!-- Node12 -->
<g id="node12" class="node">
<title>Node12</title>
<g id="a_node12"><a xlink:href="python__factory_8hpp.html" target="_top" xlink:title=" ">
<polygon fill="none" stroke="black" points="608.5,-62 608.5,-81 753.5,-81 753.5,-62 608.5,-62"/>
<text text-anchor="middle" x="681" y="-69" font-family="FreeSans.ttf" font-size="10.00">python/inc/python_factory.hpp</text>
</a>
</g>
</g>
<!-- Node5&#45;&gt;Node12 -->
<g id="edge11" class="edge">
<title>Node5&#45;&gt;Node12</title>
<path fill="none" stroke="midnightblue" d="M726.18,-116.34C713.88,-104.4 699.18,-90.14 689.96,-81.19"/>
<polygon fill="midnightblue" stroke="midnightblue" points="723.85,-118.94 733.46,-123.4 728.72,-113.92 723.85,-118.94"/>
</g>
<!-- Node14 -->
<g id="node14" class="node">
<title>Node14</title>
<g id="a_node14"><a xlink:href="python__factory_8cpp.html" target="_top" xlink:title=" ">
<polygon fill="none" stroke="black" points="775,-0.5 775,-19.5 921,-19.5 921,-0.5 775,-0.5"/>
<text text-anchor="middle" x="848" y="-7.5" font-family="FreeSans.ttf" font-size="10.00">python/src/python_factory.cpp</text>
</a>
</g>
</g>
<!-- Node5&#45;&gt;Node14 -->
<g id="edge17" class="edge">
<title>Node5&#45;&gt;Node14</title>
<path fill="none" stroke="midnightblue" d="M834.26,-132.11C864.74,-125.54 896.1,-112.46 915,-87 923.21,-75.94 921.48,-68.16 915,-56 905.71,-38.56 886.33,-26.68 870.79,-19.53"/>
<polygon fill="midnightblue" stroke="midnightblue" points="833.57,-128.68 824.42,-134.02 834.9,-135.55 833.57,-128.68"/>
</g>
<!-- Node15 -->
<g id="node15" class="node">
<title>Node15</title>
<g id="a_node15"><a xlink:href="python__utils_8hpp.html" target="_top" xlink:title=" ">
<polygon fill="none" stroke="black" points="772,-62 772,-81 906,-81 906,-62 772,-62"/>
<text text-anchor="middle" x="839" y="-69" font-family="FreeSans.ttf" font-size="10.00">python/inc/python_utils.hpp</text>
</a>
</g>
</g>
<!-- Node5&#45;&gt;Node15 -->
<g id="edge14" class="edge">
<title>Node5&#45;&gt;Node15</title>
<path fill="none" stroke="midnightblue" d="M776.27,-117.31C793.36,-105.1 814.25,-90.18 827.09,-81.01"/>
<polygon fill="midnightblue" stroke="midnightblue" points="773.85,-114.74 767.75,-123.4 777.92,-120.43 773.85,-114.74"/>
</g>
<!-- Node13 -->
<g id="node13" class="node">
<title>Node13</title>
<g id="a_node13"><a xlink:href="python__bindings_8cpp.html" target="_top" xlink:title=" ">
<polygon fill="none" stroke="black" points="605,-0.5 605,-19.5 757,-19.5 757,-0.5 605,-0.5"/>
<text text-anchor="middle" x="681" y="-7.5" font-family="FreeSans.ttf" font-size="10.00">python/src/python_bindings.cpp</text>
</a>
</g>
</g>
<!-- Node12&#45;&gt;Node13 -->
<g id="edge12" class="edge">
<title>Node12&#45;&gt;Node13</title>
<path fill="none" stroke="midnightblue" d="M681,-51.82C681,-41 681,-27.9 681,-19.51"/>
<polygon fill="midnightblue" stroke="midnightblue" points="677.5,-51.98 681,-61.98 684.5,-51.98 677.5,-51.98"/>
</g>
<!-- Node12&#45;&gt;Node14 -->
<g id="edge13" class="edge">
<title>Node12&#45;&gt;Node14</title>
<path fill="none" stroke="midnightblue" d="M714.45,-58.58C746.91,-47.02 795.37,-29.75 824.12,-19.51"/>
<polygon fill="midnightblue" stroke="midnightblue" points="713.17,-55.32 704.93,-61.98 715.52,-61.92 713.17,-55.32"/>
</g>
<!-- Node15&#45;&gt;Node13 -->
<g id="edge15" class="edge">
<title>Node15&#45;&gt;Node13</title>
<path fill="none" stroke="midnightblue" d="M806.96,-58.43C776.25,-46.87 730.68,-29.71 703.6,-19.51"/>
<polygon fill="midnightblue" stroke="midnightblue" points="805.77,-61.73 816.36,-61.98 808.24,-55.18 805.77,-61.73"/>
</g>
<!-- Node15&#45;&gt;Node14 -->
<g id="edge16" class="edge">
<title>Node15&#45;&gt;Node14</title>
<path fill="none" stroke="midnightblue" d="M841.83,-51.82C843.46,-41 845.44,-27.9 846.71,-19.51"/>
<polygon fill="midnightblue" stroke="midnightblue" points="838.32,-51.56 840.29,-61.98 845.25,-52.61 838.32,-51.56"/>
</g>
<!-- Node17&#45;&gt;Node6 -->
<g id="edge23" class="edge">
<title>Node17&#45;&gt;Node6</title>
<path fill="none" stroke="midnightblue" d="M1149.99,-185.64C1151.5,-168.55 1155.33,-143.05 1165,-123 1171.71,-109.1 1183.17,-95.92 1192.58,-86.51"/>
<polygon fill="midnightblue" stroke="midnightblue" points="1146.47,-185.74 1149.27,-195.96 1153.46,-186.23 1146.47,-185.74"/>
</g>
<!-- Node17&#45;&gt;Node18 -->
<g id="edge22" class="edge">
<title>Node17&#45;&gt;Node18</title>
<path fill="none" stroke="midnightblue" d="M1172.5,-190.62C1194.29,-177.74 1226.04,-158.98 1244.4,-148.13"/>
<polygon fill="midnightblue" stroke="midnightblue" points="1170.66,-187.63 1163.84,-195.73 1174.22,-193.66 1170.66,-187.63"/>
</g>
<!-- Node19&#45;&gt;Node5 -->
<g id="edge25" class="edge">
<title>Node19&#45;&gt;Node5</title>
<path fill="none" stroke="midnightblue" d="M1119.31,-257.66C1088.87,-239.65 1032.64,-208.33 981,-190 930,-171.9 870.31,-159.12 824.12,-150.94"/>
<polygon fill="midnightblue" stroke="midnightblue" points="1117.52,-260.67 1127.9,-262.8 1121.11,-254.66 1117.52,-260.67"/>
</g>
<!-- Node19&#45;&gt;Node17 -->
<g id="edge26" class="edge">
<title>Node19&#45;&gt;Node17</title>
<path fill="none" stroke="midnightblue" d="M1144.04,-252.54C1145.37,-240.17 1147.05,-224.62 1148.07,-215.13"/>
<polygon fill="midnightblue" stroke="midnightblue" points="1140.53,-252.42 1142.94,-262.73 1147.49,-253.17 1140.53,-252.42"/>
</g>
<!-- Node20&#45;&gt;Node5 -->
<g id="edge31" class="edge">
<title>Node20&#45;&gt;Node5</title>
<path fill="none" stroke="midnightblue" d="M878.91,-251.35C901.42,-234.98 924.58,-211.22 909,-190 889.41,-163.32 855.74,-150.35 824.24,-144.19"/>
<polygon fill="midnightblue" stroke="midnightblue" points="876.63,-248.67 870.4,-257.24 880.62,-254.42 876.63,-248.67"/>
</g>
<!-- Node21 -->
<g id="node21" class="node">
<title>Node21</title>
<g id="a_node21"><a xlink:href="balanced__texture__gpuNUFFT__operator_8hpp.html" target="_top" xlink:title=" ">
<polygon fill="none" stroke="black" points="598.5,-190.5 598.5,-220.5 735.5,-220.5 735.5,-190.5 598.5,-190.5"/>
<text text-anchor="start" x="606.5" y="-208.5" font-family="FreeSans.ttf" font-size="10.00">CUDA/inc/balanced_texture</text>
<text text-anchor="middle" x="667" y="-197.5" font-family="FreeSans.ttf" font-size="10.00">_gpuNUFFT_operator.hpp</text>
</a>
</g>
</g>
<!-- Node20&#45;&gt;Node21 -->
<g id="edge28" class="edge">
<title>Node20&#45;&gt;Node21</title>
<path fill="none" stroke="midnightblue" d="M797.68,-253.96C768.85,-243.48 732.72,-230.37 705.76,-220.58"/>
<polygon fill="midnightblue" stroke="midnightblue" points="796.57,-257.27 807.16,-257.4 798.95,-250.69 796.57,-257.27"/>
</g>
<!-- Node23 -->
<g id="node23" class="node">
<title>Node23</title>
<g id="a_node23"><a xlink:href="texture__gpuNUFFT__operator_8cpp.html" target="_top" xlink:title=" ">
<polygon fill="none" stroke="black" points="753.5,-190.5 753.5,-220.5 900.5,-220.5 900.5,-190.5 753.5,-190.5"/>
<text text-anchor="start" x="761.5" y="-208.5" font-family="FreeSans.ttf" font-size="10.00">CUDA/src/texture_gpuNUFFT</text>
<text text-anchor="middle" x="827" y="-197.5" font-family="FreeSans.ttf" font-size="10.00">_operator.cpp</text>
</a>
</g>
</g>
<!-- Node20&#45;&gt;Node23 -->
<g id="edge32" class="edge">
<title>Node20&#45;&gt;Node23</title>
<path fill="none" stroke="midnightblue" d="M839.04,-247.7C836.38,-238.59 833.43,-228.49 831.11,-220.58"/>
<polygon fill="midnightblue" stroke="midnightblue" points="835.71,-248.78 841.88,-257.4 842.43,-246.82 835.71,-248.78"/>
</g>
<!-- Node21&#45;&gt;Node5 -->
<g id="edge29" class="edge">
<title>Node21&#45;&gt;Node5</title>
<path fill="none" stroke="midnightblue" d="M692.69,-183.88C705,-174.01 719.43,-162.43 730.46,-153.58"/>
<polygon fill="midnightblue" stroke="midnightblue" points="690.18,-181.41 684.58,-190.4 694.57,-186.87 690.18,-181.41"/>
</g>
<!-- Node22 -->
<g id="node22" class="node">
<title>Node22</title>
<g id="a_node22"><a xlink:href="balanced__texture__gpuNUFFT__operator_8cpp.html" target="_top" xlink:title=" ">
<polygon fill="none" stroke="black" points="516.5,-123.5 516.5,-153.5 653.5,-153.5 653.5,-123.5 516.5,-123.5"/>
<text text-anchor="start" x="524.5" y="-141.5" font-family="FreeSans.ttf" font-size="10.00">CUDA/src/balanced_texture</text>
<text text-anchor="middle" x="585" y="-130.5" font-family="FreeSans.ttf" font-size="10.00">_gpuNUFFT_operator.cpp</text>
</a>
</g>
</g>
<!-- Node21&#45;&gt;Node22 -->
<g id="edge30" class="edge">
<title>Node21&#45;&gt;Node22</title>
<path fill="none" stroke="midnightblue" d="M641.35,-184.17C628.81,-174.23 614.03,-162.51 602.76,-153.58"/>
<polygon fill="midnightblue" stroke="midnightblue" points="639.2,-186.93 649.21,-190.4 643.54,-181.44 639.2,-186.93"/>
</g>
</g>
</svg>
