<?xml version="1.0" encoding="UTF-8" standalone="no"?>
<!DOCTYPE svg PUBLIC "-//W3C//DTD SVG 1.1//EN"
 "http://www.w3.org/Graphics/SVG/1.1/DTD/svg11.dtd">
<!-- Generated by graphviz version 2.49.3 (20211027.1534)
 -->
<!-- Title: CUDA/inc/cuda_utils.hpp Pages: 1 -->
<svg width="1362pt" height="464pt"
 viewBox="0.00 0.00 1362.00 464.00" xmlns="http://www.w3.org/2000/svg" xmlns:xlink="http://www.w3.org/1999/xlink">
<g id="graph0" class="graph" transform="scale(1 1) rotate(0) translate(4 460)">
<title>CUDA/inc/cuda_utils.hpp</title>
<!-- Node1 -->
<g id="node1" class="node">
<title>Node1</title>
<g id="a_node1"><a xlink:title="Util functions for CUDA memory and texture management.">
<polygon fill="#bfbfbf" stroke="black" points="1104.5,-436.5 1104.5,-455.5 1229.5,-455.5 1229.5,-436.5 1104.5,-436.5"/>
<text text-anchor="middle" x="1167" y="-443.5" font-family="FreeSans.ttf" font-size="10.00">CUDA/inc/cuda_utils.hpp</text>
</a>
</g>
</g>
<!-- Node2 -->
<g id="node2" class="node">
<title>Node2</title>
<g id="a_node2"><a xlink:href="gpuNUFFT__kernels_8hpp.html" target="_top" xlink:title="gpuNUFFT CUDA function prototypes">
<polygon fill="none" stroke="black" points="1083.5,-380.5 1083.5,-399.5 1250.5,-399.5 1250.5,-380.5 1083.5,-380.5"/>
<text text-anchor="middle" x="1167" y="-387.5" font-family="FreeSans.ttf" font-size="10.00">CUDA/inc/gpuNUFFT_kernels.hpp</text>
</a>
</g>
</g>
<!-- Node1&#45;&gt;Node2 -->
<g id="edge1" class="edge">
<title>Node1&#45;&gt;Node2</title>
<path fill="none" stroke="midnightblue" d="M1167,-425.8C1167,-416.91 1167,-406.78 1167,-399.75"/>
<polygon fill="midnightblue" stroke="midnightblue" points="1163.5,-426.08 1167,-436.08 1170.5,-426.08 1163.5,-426.08"/>
</g>
<!-- Node5 -->
<g id="node5" class="node">
<title>Node5</title>
<g id="a_node5"><a xlink:href="gpuNUFFT__operator__factory_8hpp.html" target="_top" xlink:title=" ">
<polygon fill="none" stroke="black" points="583,-123.5 583,-153.5 735,-153.5 735,-123.5 583,-123.5"/>
<text text-anchor="start" x="591" y="-141.5" font-family="FreeSans.ttf" font-size="10.00">CUDA/inc/gpuNUFFT_operator</text>
<text text-anchor="middle" x="659" y="-130.5" font-family="FreeSans.ttf" font-size="10.00">_factory.hpp</text>
</a>
</g>
</g>
<!-- Node1&#45;&gt;Node5 -->
<g id="edge35" class="edge">
<title>Node1&#45;&gt;Node5</title>
<path fill="none" stroke="midnightblue" d="M1094.13,-442.55C897.19,-434.96 369,-407.82 369,-335 369,-335 369,-335 369,-271.5 369,-177.46 496.88,-150.11 582.81,-142.34"/>
<polygon fill="midnightblue" stroke="midnightblue" points="1094.26,-446.06 1104.38,-442.94 1094.52,-439.06 1094.26,-446.06"/>
</g>
<!-- Node14 -->
<g id="node14" class="node">
<title>Node14</title>
<g id="a_node14"><a xlink:href="python__factory_8cpp.html" target="_top" xlink:title=" ">
<polygon fill="none" stroke="black" points="839,-0.5 839,-19.5 985,-19.5 985,-0.5 839,-0.5"/>
<text text-anchor="middle" x="912" y="-7.5" font-family="FreeSans.ttf" font-size="10.00">python/src/python_factory.cpp</text>
</a>
</g>
</g>
<!-- Node1&#45;&gt;Node14 -->
<g id="edge39" class="edge">
<title>Node1&#45;&gt;Node14</title>
<path fill="none" stroke="midnightblue" d="M1232.24,-434.19C1286.19,-421.09 1354,-393.06 1354,-335 1354,-335 1354,-335 1354,-137.5 1354,-92.52 1332.88,-78.61 1294,-56 1243.13,-26.42 1081.24,-16.24 985.31,-12.77"/>
<polygon fill="midnightblue" stroke="midnightblue" points="1231.31,-430.82 1222.35,-436.47 1232.88,-437.64 1231.31,-430.82"/>
</g>
<!-- Node17 -->
<g id="node17" class="node">
<title>Node17</title>
<g id="a_node17"><a xlink:href="precomp__kernels_8hpp.html" target="_top" xlink:title="GPU Kernels for Precomputation (sector assignment)">
<polygon fill="none" stroke="black" points="1122.5,-196 1122.5,-215 1277.5,-215 1277.5,-196 1122.5,-196"/>
<text text-anchor="middle" x="1200" y="-203" font-family="FreeSans.ttf" font-size="10.00">CUDA/inc/precomp_kernels.hpp</text>
</a>
</g>
</g>
<!-- Node1&#45;&gt;Node17 -->
<g id="edge36" class="edge">
<title>Node1&#45;&gt;Node17</title>
<path fill="none" stroke="midnightblue" d="M1239.34,-434.9C1259.7,-428.34 1279.63,-417.59 1292,-400 1337.77,-334.87 1242.73,-243.41 1210.31,-215.16"/>
<polygon fill="midnightblue" stroke="midnightblue" points="1238.29,-431.55 1229.67,-437.7 1240.25,-438.28 1238.29,-431.55"/>
</g>
<!-- Node18 -->
<g id="node18" class="node">
<title>Node18</title>
<g id="a_node18"><a xlink:href="gpuNUFFT__operator_8cpp.html" target="_top" xlink:title=" ">
<polygon fill="none" stroke="black" points="1008.5,-129 1008.5,-148 1179.5,-148 1179.5,-129 1008.5,-129"/>
<text text-anchor="middle" x="1094" y="-136" font-family="FreeSans.ttf" font-size="10.00">CUDA/src/gpuNUFFT_operator.cpp</text>
</a>
</g>
</g>
<!-- Node1&#45;&gt;Node18 -->
<g id="edge38" class="edge">
<title>Node1&#45;&gt;Node18</title>
<path fill="none" stroke="midnightblue" d="M1212.79,-432.91C1230.16,-426.04 1248.51,-415.6 1260,-400 1315.81,-324.24 1344.5,-264.49 1287,-190 1271.31,-169.68 1209.07,-155.96 1159.45,-148.01"/>
<polygon fill="midnightblue" stroke="midnightblue" points="1211.49,-429.66 1203.29,-436.36 1213.88,-436.23 1211.49,-429.66"/>
</g>
<!-- Node19 -->
<g id="node19" class="node">
<title>Node19</title>
<g id="a_node19"><a xlink:href="precomp__utils_8hpp.html" target="_top" xlink:title="UTIL functions for precomputation.">
<polygon fill="none" stroke="black" points="985,-263 985,-282 1127,-282 1127,-263 985,-263"/>
<text text-anchor="middle" x="1056" y="-270" font-family="FreeSans.ttf" font-size="10.00">CUDA/inc/precomp_utils.hpp</text>
</a>
</g>
</g>
<!-- Node1&#45;&gt;Node19 -->
<g id="edge37" class="edge">
<title>Node1&#45;&gt;Node19</title>
<path fill="none" stroke="midnightblue" d="M1122.09,-432.96C1104.78,-426.08 1086.44,-415.61 1075,-400 1048.09,-363.28 1052.09,-304.25 1054.76,-282.19"/>
<polygon fill="midnightblue" stroke="midnightblue" points="1120.96,-436.27 1131.55,-436.42 1123.36,-429.7 1120.96,-436.27"/>
</g>
<!-- Node3 -->
<g id="node3" class="node">
<title>Node3</title>
<g id="a_node3"><a xlink:href="gpuNUFFT__operator_8hpp.html" target="_top" xlink:title=" ">
<polygon fill="none" stroke="black" points="858,-324.5 858,-343.5 1028,-343.5 1028,-324.5 858,-324.5"/>
<text text-anchor="middle" x="943" y="-331.5" font-family="FreeSans.ttf" font-size="10.00">CUDA/inc/gpuNUFFT_operator.hpp</text>
</a>
</g>
</g>
<!-- Node2&#45;&gt;Node3 -->
<g id="edge2" class="edge">
<title>Node2&#45;&gt;Node3</title>
<path fill="none" stroke="midnightblue" d="M1121.74,-378.09C1079.42,-367.89 1017.09,-352.86 978.33,-343.52"/>
<polygon fill="midnightblue" stroke="midnightblue" points="1120.96,-381.5 1131.51,-380.44 1122.61,-374.7 1120.96,-381.5"/>
</g>
<!-- Node2&#45;&gt;Node18 -->
<g id="edge34" class="edge">
<title>Node2&#45;&gt;Node18</title>
<path fill="none" stroke="midnightblue" d="M1164.53,-370.37C1160.66,-344.27 1151.89,-295.7 1136,-257 1128.88,-239.65 1121.21,-238.31 1114,-221 1103.47,-195.71 1097.62,-163.61 1095.25,-148.34"/>
<polygon fill="midnightblue" stroke="midnightblue" points="1161.08,-370.96 1165.94,-380.37 1168.01,-369.98 1161.08,-370.96"/>
</g>
<!-- Node3&#45;&gt;Node1 -->
<g id="edge19" class="edge">
<title>Node3&#45;&gt;Node1</title>
<path fill="none" stroke="midnightblue" d="M962.33,-349.67C981.71,-363.9 1012.78,-385.41 1042,-400 1073.26,-415.62 1111.3,-428.51 1137.15,-436.43"/>
<polygon fill="midnightblue" stroke="midnightblue" points="964.17,-346.68 954.06,-343.52 959.99,-352.3 964.17,-346.68"/>
</g>
<!-- Node4 -->
<g id="node4" class="node">
<title>Node4</title>
<g id="a_node4"><a xlink:href="balanced__gpuNUFFT__operator_8hpp.html" target="_top" xlink:title=" ">
<polygon fill="none" stroke="black" points="436,-257.5 436,-287.5 592,-287.5 592,-257.5 436,-257.5"/>
<text text-anchor="start" x="444" y="-275.5" font-family="FreeSans.ttf" font-size="10.00">CUDA/inc/balanced_gpuNUFFT</text>
<text text-anchor="middle" x="514" y="-264.5" font-family="FreeSans.ttf" font-size="10.00">_operator.hpp</text>
</a>
</g>
</g>
<!-- Node3&#45;&gt;Node4 -->
<g id="edge3" class="edge">
<title>Node3&#45;&gt;Node4</title>
<path fill="none" stroke="midnightblue" d="M866.1,-323.18C797.96,-314.36 695.78,-300.86 607,-288 602.15,-287.3 597.16,-286.56 592.12,-285.81"/>
<polygon fill="midnightblue" stroke="midnightblue" points="865.96,-326.69 876.32,-324.5 866.85,-319.75 865.96,-326.69"/>
</g>
<!-- Node3&#45;&gt;Node5 -->
<g id="edge20" class="edge">
<title>Node3&#45;&gt;Node5</title>
<path fill="none" stroke="midnightblue" d="M847.96,-325.53C808.41,-319.38 763.15,-308.23 726,-288 689.29,-268.01 676.09,-259.58 660,-221 650.8,-198.93 653.31,-170.48 656.08,-153.69"/>
<polygon fill="midnightblue" stroke="midnightblue" points="847.48,-328.99 857.88,-326.98 848.5,-322.07 847.48,-328.99"/>
</g>
<!-- Node3&#45;&gt;Node17 -->
<g id="edge21" class="edge">
<title>Node3&#45;&gt;Node17</title>
<path fill="none" stroke="midnightblue" d="M1038.19,-323.85C1071.08,-317.42 1106.94,-306.51 1136,-288 1165.44,-269.25 1187.01,-232.12 1195.74,-215.23"/>
<polygon fill="midnightblue" stroke="midnightblue" points="1037.29,-320.46 1028.09,-325.71 1038.56,-327.34 1037.29,-320.46"/>
</g>
<!-- Node3&#45;&gt;Node18 -->
<g id="edge33" class="edge">
<title>Node3&#45;&gt;Node18</title>
<path fill="none" stroke="midnightblue" d="M948.73,-314.74C954.26,-298.7 963.62,-275.15 976,-257 1007.93,-210.19 1060.14,-166.18 1082.85,-148.12"/>
<polygon fill="midnightblue" stroke="midnightblue" points="945.33,-313.9 945.52,-324.49 951.97,-316.09 945.33,-313.9"/>
</g>
<!-- Node3&#45;&gt;Node19 -->
<g id="edge24" class="edge">
<title>Node3&#45;&gt;Node19</title>
<path fill="none" stroke="midnightblue" d="M968.24,-319.71C990.12,-308.19 1021.14,-291.86 1039.84,-282.01"/>
<polygon fill="midnightblue" stroke="midnightblue" points="966.41,-316.72 959.19,-324.48 969.67,-322.91 966.41,-316.72"/>
</g>
<!-- Node20 -->
<g id="node20" class="node">
<title>Node20</title>
<g id="a_node20"><a xlink:href="texture__gpuNUFFT__operator_8hpp.html" target="_top" xlink:title=" ">
<polygon fill="none" stroke="black" points="735,-257.5 735,-287.5 881,-287.5 881,-257.5 735,-257.5"/>
<text text-anchor="start" x="743" y="-275.5" font-family="FreeSans.ttf" font-size="10.00">CUDA/inc/texture_gpuNUFFT</text>
<text text-anchor="middle" x="808" y="-264.5" font-family="FreeSans.ttf" font-size="10.00">_operator.hpp</text>
</a>
</g>
</g>
<!-- Node3&#45;&gt;Node20 -->
<g id="edge27" class="edge">
<title>Node3&#45;&gt;Node20</title>
<path fill="none" stroke="midnightblue" d="M914.25,-320.33C892.41,-310.7 862.38,-297.47 839.82,-287.52"/>
<polygon fill="midnightblue" stroke="midnightblue" points="913.1,-323.64 923.66,-324.48 915.92,-317.24 913.1,-323.64"/>
</g>
<!-- Node4&#45;&gt;Node5 -->
<g id="edge4" class="edge">
<title>Node4&#45;&gt;Node5</title>
<path fill="none" stroke="midnightblue" d="M461.11,-252.7C447.25,-245.09 433.97,-234.75 426,-221 419.1,-209.08 417.35,-200.72 426,-190 445.55,-165.76 522.64,-152.56 582.86,-145.81"/>
<polygon fill="midnightblue" stroke="midnightblue" points="459.75,-255.93 470.25,-257.32 462.91,-249.69 459.75,-255.93"/>
</g>
<!-- Node16 -->
<g id="node16" class="node">
<title>Node16</title>
<g id="a_node16"><a xlink:href="balanced__gpuNUFFT__operator_8cpp.html" target="_top" xlink:title=" ">
<polygon fill="none" stroke="black" points="435.5,-190.5 435.5,-220.5 592.5,-220.5 592.5,-190.5 435.5,-190.5"/>
<text text-anchor="start" x="443.5" y="-208.5" font-family="FreeSans.ttf" font-size="10.00">CUDA/src/balanced_gpuNUFFT</text>
<text text-anchor="middle" x="514" y="-197.5" font-family="FreeSans.ttf" font-size="10.00">_operator.cpp</text>
</a>
</g>
</g>
<!-- Node4&#45;&gt;Node16 -->
<g id="edge18" class="edge">
<title>Node4&#45;&gt;Node16</title>
<path fill="none" stroke="midnightblue" d="M514,-247.11C514,-238.15 514,-228.32 514,-220.58"/>
<polygon fill="midnightblue" stroke="midnightblue" points="510.5,-247.4 514,-257.4 517.5,-247.4 510.5,-247.4"/>
</g>
<!-- Node6 -->
<g id="node6" class="node">
<title>Node6</title>
<g id="a_node6"><a xlink:href="gpuNUFFT__operator__factory_8cpp.html" target="_top" xlink:title=" ">
<polygon fill="none" stroke="black" points="1131.5,-56.5 1131.5,-86.5 1284.5,-86.5 1284.5,-56.5 1131.5,-56.5"/>
<text text-anchor="start" x="1139.5" y="-74.5" font-family="FreeSans.ttf" font-size="10.00">CUDA/src/gpuNUFFT_operator</text>
<text text-anchor="middle" x="1208" y="-63.5" font-family="FreeSans.ttf" font-size="10.00">_factory.cpp</text>
</a>
</g>
</g>
<!-- Node5&#45;&gt;Node6 -->
<g id="edge5" class="edge">
<title>Node5&#45;&gt;Node6</title>
<path fill="none" stroke="midnightblue" d="M745.08,-129.7C838.38,-120.89 991.56,-105.35 1123,-87 1125.67,-86.63 1128.38,-86.24 1131.12,-85.83"/>
<polygon fill="midnightblue" stroke="midnightblue" points="744.75,-126.22 735.13,-130.64 745.41,-133.19 744.75,-126.22"/>
</g>
<!-- Node7 -->
<g id="node7" class="node">
<title>Node7</title>
<g id="a_node7"><a xlink:href="gpuNUFFT__forward__tests_8cpp.html" target="_top" xlink:title=" ">
<polygon fill="none" stroke="black" points="962.5,-56.5 962.5,-86.5 1113.5,-86.5 1113.5,-56.5 962.5,-56.5"/>
<text text-anchor="start" x="970.5" y="-74.5" font-family="FreeSans.ttf" font-size="10.00">CUDA/test/gpu/forward</text>
<text text-anchor="middle" x="1038" y="-63.5" font-family="FreeSans.ttf" font-size="10.00">/gpuNUFFT_forward_tests.cpp</text>
</a>
</g>
</g>
<!-- Node5&#45;&gt;Node7 -->
<g id="edge6" class="edge">
<title>Node5&#45;&gt;Node7</title>
<path fill="none" stroke="midnightblue" d="M745.11,-122.73C810.49,-111.52 899.52,-96.25 962.21,-85.5"/>
<polygon fill="midnightblue" stroke="midnightblue" points="744.5,-119.28 735.24,-124.42 745.69,-126.18 744.5,-119.28"/>
</g>
<!-- Node8 -->
<g id="node8" class="node">
<title>Node8</title>
<g id="a_node8"><a xlink:href="gpuNUFFT__2D__conv__tests_8cpp.html" target="_top" xlink:title=" ">
<polygon fill="none" stroke="black" points="0,-56.5 0,-86.5 134,-86.5 134,-56.5 0,-56.5"/>
<text text-anchor="start" x="8" y="-74.5" font-family="FreeSans.ttf" font-size="10.00">CUDA/test/gpu/gpuNUFFT</text>
<text text-anchor="middle" x="67" y="-63.5" font-family="FreeSans.ttf" font-size="10.00">_2D_conv_tests.cpp</text>
</a>
</g>
</g>
<!-- Node5&#45;&gt;Node8 -->
<g id="edge7" class="edge">
<title>Node5&#45;&gt;Node8</title>
<path fill="none" stroke="midnightblue" d="M572.66,-131.46C469.96,-123.73 293.46,-108.67 143,-87 140.08,-86.58 137.09,-86.12 134.08,-85.64"/>
<polygon fill="midnightblue" stroke="midnightblue" points="572.44,-134.96 582.68,-132.21 572.96,-127.98 572.44,-134.96"/>
</g>
<!-- Node9 -->
<g id="node9" class="node">
<title>Node9</title>
<g id="a_node9"><a xlink:href="gpuNUFFT__conv__tests_8cpp.html" target="_top" xlink:title=" ">
<polygon fill="none" stroke="black" points="152,-56.5 152,-86.5 286,-86.5 286,-56.5 152,-56.5"/>
<text text-anchor="start" x="160" y="-74.5" font-family="FreeSans.ttf" font-size="10.00">CUDA/test/gpu/gpuNUFFT</text>
<text text-anchor="middle" x="219" y="-63.5" font-family="FreeSans.ttf" font-size="10.00">_conv_tests.cpp</text>
</a>
</g>
</g>
<!-- Node5&#45;&gt;Node9 -->
<g id="edge8" class="edge">
<title>Node5&#45;&gt;Node9</title>
<path fill="none" stroke="midnightblue" d="M572.65,-126.77C498.78,-117.3 389.7,-102.59 295,-87 292.08,-86.52 289.11,-86.02 286.1,-85.49"/>
<polygon fill="midnightblue" stroke="midnightblue" points="572.48,-130.28 582.84,-128.08 573.36,-123.34 572.48,-130.28"/>
</g>
<!-- Node10 -->
<g id="node10" class="node">
<title>Node10</title>
<g id="a_node10"><a xlink:href="gpuNUFFT__deapo__tests_8cpp.html" target="_top" xlink:title=" ">
<polygon fill="none" stroke="black" points="304,-56.5 304,-86.5 438,-86.5 438,-56.5 304,-56.5"/>
<text text-anchor="start" x="312" y="-74.5" font-family="FreeSans.ttf" font-size="10.00">CUDA/test/gpu/gpuNUFFT</text>
<text text-anchor="middle" x="371" y="-63.5" font-family="FreeSans.ttf" font-size="10.00">_deapo_tests.cpp</text>
</a>
</g>
</g>
<!-- Node5&#45;&gt;Node10 -->
<g id="edge9" class="edge">
<title>Node5&#45;&gt;Node10</title>
<path fill="none" stroke="midnightblue" d="M587.01,-121.25C539.8,-110.6 478.69,-96.81 433.52,-86.61"/>
<polygon fill="midnightblue" stroke="midnightblue" points="586.34,-124.69 596.86,-123.48 587.88,-117.86 586.34,-124.69"/>
</g>
<!-- Node11 -->
<g id="node11" class="node">
<title>Node11</title>
<g id="a_node11"><a xlink:href="gpuNUFFT__fft__tests_8cpp.html" target="_top" xlink:title=" ">
<polygon fill="none" stroke="black" points="456,-56.5 456,-86.5 590,-86.5 590,-56.5 456,-56.5"/>
<text text-anchor="start" x="464" y="-74.5" font-family="FreeSans.ttf" font-size="10.00">CUDA/test/gpu/gpuNUFFT</text>
<text text-anchor="middle" x="523" y="-63.5" font-family="FreeSans.ttf" font-size="10.00">_fft_tests.cpp</text>
</a>
</g>
</g>
<!-- Node5&#45;&gt;Node11 -->
<g id="edge10" class="edge">
<title>Node5&#45;&gt;Node11</title>
<path fill="none" stroke="midnightblue" d="M620.28,-118.99C598.72,-108.69 572.31,-96.07 552.45,-86.58"/>
<polygon fill="midnightblue" stroke="midnightblue" points="618.96,-122.24 629.49,-123.4 621.98,-115.93 618.96,-122.24"/>
</g>
<!-- Node12 -->
<g id="node12" class="node">
<title>Node12</title>
<g id="a_node12"><a xlink:href="python__factory_8hpp.html" target="_top" xlink:title=" ">
<polygon fill="none" stroke="black" points="608.5,-62 608.5,-81 753.5,-81 753.5,-62 608.5,-62"/>
<text text-anchor="middle" x="681" y="-69" font-family="FreeSans.ttf" font-size="10.00">python/inc/python_factory.hpp</text>
</a>
</g>
</g>
<!-- Node5&#45;&gt;Node12 -->
<g id="edge11" class="edge">
<title>Node5&#45;&gt;Node12</title>
<path fill="none" stroke="midnightblue" d="M667.09,-113.6C670.92,-102.28 675.26,-89.46 678.06,-81.19"/>
<polygon fill="midnightblue" stroke="midnightblue" points="663.66,-112.8 663.77,-123.4 670.29,-115.05 663.66,-112.8"/>
</g>
<!-- Node5&#45;&gt;Node14 -->
<g id="edge17" class="edge">
<title>Node5&#45;&gt;Node14</title>
<path fill="none" stroke="midnightblue" d="M745.05,-132.02C810.79,-125.84 893.62,-113.01 915,-87 930.93,-67.62 921.56,-35.14 915.67,-19.69"/>
<polygon fill="midnightblue" stroke="midnightblue" points="744.72,-128.54 735.08,-132.93 745.35,-135.51 744.72,-128.54"/>
</g>
<!-- Node15 -->
<g id="node15" class="node">
<title>Node15</title>
<g id="a_node15"><a xlink:href="python__utils_8hpp.html" target="_top" xlink:title=" ">
<polygon fill="none" stroke="black" points="772,-62 772,-81 906,-81 906,-62 772,-62"/>
<text text-anchor="middle" x="839" y="-69" font-family="FreeSans.ttf" font-size="10.00">python/inc/python_utils.hpp</text>
</a>
</g>
</g>
<!-- Node5&#45;&gt;Node15 -->
<g id="edge14" class="edge">
<title>Node5&#45;&gt;Node15</title>
<path fill="none" stroke="midnightblue" d="M707.61,-119.95C742.57,-107.32 788.18,-90.85 815.44,-81.01"/>
<polygon fill="midnightblue" stroke="midnightblue" points="706.27,-116.71 698.06,-123.4 708.65,-123.29 706.27,-116.71"/>
</g>
<!-- Node13 -->
<g id="node13" class="node">
<title>Node13</title>
<g id="a_node13"><a xlink:href="python__bindings_8cpp.html" target="_top" xlink:title=" ">
<polygon fill="none" stroke="black" points="648,-0.5 648,-19.5 800,-19.5 800,-0.5 648,-0.5"/>
<text text-anchor="middle" x="724" y="-7.5" font-family="FreeSans.ttf" font-size="10.00">python/src/python_bindings.cpp</text>
</a>
</g>
</g>
<!-- Node12&#45;&gt;Node13 -->
<g id="edge12" class="edge">
<title>Node12&#45;&gt;Node13</title>
<path fill="none" stroke="midnightblue" d="M693.04,-53.84C701.11,-42.67 711.41,-28.43 717.85,-19.51"/>
<polygon fill="midnightblue" stroke="midnightblue" points="690.18,-51.82 687.16,-61.98 695.86,-55.92 690.18,-51.82"/>
</g>
<!-- Node12&#45;&gt;Node14 -->
<g id="edge13" class="edge">
<title>Node12&#45;&gt;Node14</title>
<path fill="none" stroke="midnightblue" d="M723.83,-59.47C768.68,-47.91 838.17,-30.02 878.96,-19.51"/>
<polygon fill="midnightblue" stroke="midnightblue" points="722.91,-56.09 714.1,-61.98 724.65,-62.87 722.91,-56.09"/>
</g>
<!-- Node15&#45;&gt;Node13 -->
<g id="edge15" class="edge">
<title>Node15&#45;&gt;Node13</title>
<path fill="none" stroke="midnightblue" d="M813.62,-57.37C791.33,-45.83 759.56,-29.4 740.45,-19.51"/>
<polygon fill="midnightblue" stroke="midnightblue" points="812.03,-60.49 822.52,-61.98 815.25,-54.27 812.03,-60.49"/>
</g>
<!-- Node15&#45;&gt;Node14 -->
<g id="edge16" class="edge">
<title>Node15&#45;&gt;Node14</title>
<path fill="none" stroke="midnightblue" d="M857.44,-55.47C871.4,-44.09 890.08,-28.87 901.56,-19.51"/>
<polygon fill="midnightblue" stroke="midnightblue" points="855,-52.94 849.46,-61.98 859.42,-58.37 855,-52.94"/>
</g>
<!-- Node17&#45;&gt;Node6 -->
<g id="edge23" class="edge">
<title>Node17&#45;&gt;Node6</title>
<path fill="none" stroke="midnightblue" d="M1201.15,-185.53C1202.77,-158.81 1205.69,-110.69 1207.13,-86.78"/>
<polygon fill="midnightblue" stroke="midnightblue" points="1197.64,-185.65 1200.52,-195.84 1204.62,-186.07 1197.64,-185.65"/>
</g>
<!-- Node17&#45;&gt;Node18 -->
<g id="edge22" class="edge">
<title>Node17&#45;&gt;Node18</title>
<path fill="none" stroke="midnightblue" d="M1177.08,-190.44C1156.08,-177.57 1125.68,-158.93 1108.07,-148.13"/>
<polygon fill="midnightblue" stroke="midnightblue" points="1175.35,-193.49 1185.7,-195.73 1179.01,-187.52 1175.35,-193.49"/>
</g>
<!-- Node19&#45;&gt;Node5 -->
<g id="edge25" class="edge">
<title>Node19&#45;&gt;Node5</title>
<path fill="none" stroke="midnightblue" d="M1048.41,-253.44C1039.36,-234.34 1022.36,-204.94 998,-190 955.2,-163.75 821.52,-150.17 735.38,-143.95"/>
<polygon fill="midnightblue" stroke="midnightblue" points="1045.33,-255.14 1052.61,-262.84 1051.72,-252.28 1045.33,-255.14"/>
</g>
<!-- Node19&#45;&gt;Node17 -->
<g id="edge26" class="edge">
<title>Node19&#45;&gt;Node17</title>
<path fill="none" stroke="midnightblue" d="M1084.55,-258.61C1113.07,-245.74 1156.12,-226.31 1180.8,-215.17"/>
<polygon fill="midnightblue" stroke="midnightblue" points="1082.8,-255.56 1075.12,-262.87 1085.68,-261.94 1082.8,-255.56"/>
</g>
<!-- Node20&#45;&gt;Node5 -->
<g id="edge31" class="edge">
<title>Node20&#45;&gt;Node5</title>
<path fill="none" stroke="midnightblue" d="M727.05,-253.82C708.73,-246.39 690.9,-235.87 678,-221 661.53,-202.02 658.64,-171.47 658.5,-153.66"/>
<polygon fill="midnightblue" stroke="midnightblue" points="726.05,-257.19 736.65,-257.44 728.52,-250.64 726.05,-257.19"/>
</g>
<!-- Node21 -->
<g id="node21" class="node">
<title>Node21</title>
<g id="a_node21"><a xlink:href="balanced__texture__gpuNUFFT__operator_8hpp.html" target="_top" xlink:title=" ">
<polygon fill="none" stroke="black" points="852.5,-190.5 852.5,-220.5 989.5,-220.5 989.5,-190.5 852.5,-190.5"/>
<text text-anchor="start" x="860.5" y="-208.5" font-family="FreeSans.ttf" font-size="10.00">CUDA/inc/balanced_texture</text>
<text text-anchor="middle" x="921" y="-197.5" font-family="FreeSans.ttf" font-size="10.00">_gpuNUFFT_operator.hpp</text>
</a>
</g>
</g>
<!-- Node20&#45;&gt;Node21 -->
<g id="edge28" class="edge">
<title>Node20&#45;&gt;Node21</title>
<path fill="none" stroke="midnightblue" d="M841.39,-252.3C859.07,-242.12 880.4,-229.85 896.53,-220.58"/>
<polygon fill="midnightblue" stroke="midnightblue" points="839.44,-249.38 832.52,-257.4 842.93,-255.44 839.44,-249.38"/>
</g>
<!-- Node23 -->
<g id="node23" class="node">
<title>Node23</title>
<g id="a_node23"><a xlink:href="texture__gpuNUFFT__operator_8cpp.html" target="_top" xlink:title=" ">
<polygon fill="none" stroke="black" points="687.5,-190.5 687.5,-220.5 834.5,-220.5 834.5,-190.5 687.5,-190.5"/>
<text text-anchor="start" x="695.5" y="-208.5" font-family="FreeSans.ttf" font-size="10.00">CUDA/src/texture_gpuNUFFT</text>
<text text-anchor="middle" x="761" y="-197.5" font-family="FreeSans.ttf" font-size="10.00">_operator.cpp</text>
</a>
</g>
</g>
<!-- Node20&#45;&gt;Node23 -->
<g id="edge32" class="edge">
<title>Node20&#45;&gt;Node23</title>
<path fill="none" stroke="midnightblue" d="M791.84,-249.16C784.99,-239.68 777.21,-228.92 771.18,-220.58"/>
<polygon fill="midnightblue" stroke="midnightblue" points="789.11,-251.34 797.8,-257.4 794.78,-247.24 789.11,-251.34"/>
</g>
<!-- Node21&#45;&gt;Node5 -->
<g id="edge29" class="edge">
<title>Node21&#45;&gt;Node5</title>
<path fill="none" stroke="midnightblue" d="M854.7,-188.05C811.87,-177.43 756.71,-163.74 715.88,-153.61"/>
<polygon fill="midnightblue" stroke="midnightblue" points="853.92,-191.47 864.47,-190.48 855.61,-184.67 853.92,-191.47"/>
</g>
<!-- Node22 -->
<g id="node22" class="node">
<title>Node22</title>
<g id="a_node22"><a xlink:href="balanced__texture__gpuNUFFT__operator_8cpp.html" target="_top" xlink:title=" ">
<polygon fill="none" stroke="black" points="852.5,-123.5 852.5,-153.5 989.5,-153.5 989.5,-123.5 852.5,-123.5"/>
<text text-anchor="start" x="860.5" y="-141.5" font-family="FreeSans.ttf" font-size="10.00">CUDA/src/balanced_texture</text>
<text text-anchor="middle" x="921" y="-130.5" font-family="FreeSans.ttf" font-size="10.00">_gpuNUFFT_operator.cpp</text>
</a>
</g>
</g>
<!-- Node21&#45;&gt;Node22 -->
<g id="edge30" class="edge">
<title>Node21&#45;&gt;Node22</title>
<path fill="none" stroke="midnightblue" d="M921,-180.11C921,-171.15 921,-161.32 921,-153.58"/>
<polygon fill="midnightblue" stroke="midnightblue" points="917.5,-180.4 921,-190.4 924.5,-180.4 917.5,-180.4"/>
</g>
</g>
</svg>
