<?xml version="1.0" encoding="UTF-8" standalone="no"?>
<!DOCTYPE svg PUBLIC "-//W3C//DTD SVG 1.1//EN"
 "http://www.w3.org/Graphics/SVG/1.1/DTD/svg11.dtd">
<!-- Generated by graphviz version 2.49.3 (20211027.1534)
 -->
<!-- Title: allocateDeviceMem Pages: 1 -->
<svg width="429pt" height="137pt"
 viewBox="0.00 0.00 429.00 137.00" xmlns="http://www.w3.org/2000/svg" xmlns:xlink="http://www.w3.org/1999/xlink">
<g id="graph0" class="graph" transform="scale(1 1) rotate(0) translate(4 133)">
<title>allocateDeviceMem</title>
<!-- Node1 -->
<g id="node1" class="node">
<title>Node1</title>
<g id="a_node1"><a xlink:title="Allocation of device memory of the given extent for the defined type.">
<polygon fill="#bfbfbf" stroke="black" points="319,-55 319,-74 421,-74 421,-55 319,-55"/>
<text text-anchor="middle" x="370" y="-62" font-family="FreeSans.ttf" font-size="10.00">allocateDeviceMem</text>
</a>
</g>
</g>
<!-- Node2 -->
<g id="node2" class="node">
<title>Node2</title>
<g id="a_node2"><a xlink:href="classGpuNUFFTPythonOperator.html#a564644dc7ea9b8306cd6296ea6f1fca6" target="_top" xlink:title=" ">
<polygon fill="none" stroke="black" points="148,-98.5 148,-128.5 283,-128.5 283,-98.5 148,-98.5"/>
<text text-anchor="start" x="156" y="-116.5" font-family="FreeSans.ttf" font-size="10.00">GpuNUFFTPythonOperator</text>
<text text-anchor="middle" x="215.5" y="-105.5" font-family="FreeSans.ttf" font-size="10.00">::data_consistency</text>
</a>
</g>
</g>
<!-- Node1&#45;&gt;Node2 -->
<g id="edge1" class="edge">
<title>Node1&#45;&gt;Node2</title>
<path fill="none" stroke="midnightblue" d="M329.69,-77.13C309.42,-83.64 284.55,-91.63 263.3,-98.46"/>
<polygon fill="midnightblue" stroke="midnightblue" points="330.78,-80.46 339.23,-74.06 328.64,-73.79 330.78,-80.46"/>
</g>
<!-- Node4 -->
<g id="node4" class="node">
<title>Node4</title>
<g id="a_node4"><a xlink:href="classGpuNUFFTPythonOperator.html#a47e427fafc08d705d834940e1229742f" target="_top" xlink:title="Estimate density Compensation array using gpu&#45;only functions.">
<polygon fill="none" stroke="black" points="148,-49.5 148,-79.5 283,-79.5 283,-49.5 148,-49.5"/>
<text text-anchor="start" x="156" y="-67.5" font-family="FreeSans.ttf" font-size="10.00">GpuNUFFTPythonOperator</text>
<text text-anchor="middle" x="215.5" y="-56.5" font-family="FreeSans.ttf" font-size="10.00">::estimate_density_comp</text>
</a>
</g>
</g>
<!-- Node1&#45;&gt;Node4 -->
<g id="edge3" class="edge">
<title>Node1&#45;&gt;Node4</title>
<path fill="none" stroke="midnightblue" d="M308.6,-64.5C300.23,-64.5 291.6,-64.5 283.12,-64.5"/>
<polygon fill="midnightblue" stroke="midnightblue" points="308.64,-68 318.64,-64.5 308.64,-61 308.64,-68"/>
</g>
<!-- Node5 -->
<g id="node5" class="node">
<title>Node5</title>
<g id="a_node5"><a xlink:href="classGpuNUFFTPythonOperator.html#aff247734503217d39bc2a2144032324f" target="_top" xlink:title="Estimate the spectral radius using gpu&#45;only functions.">
<polygon fill="none" stroke="black" points="148,-0.5 148,-30.5 283,-30.5 283,-0.5 148,-0.5"/>
<text text-anchor="start" x="156" y="-18.5" font-family="FreeSans.ttf" font-size="10.00">GpuNUFFTPythonOperator</text>
<text text-anchor="middle" x="215.5" y="-7.5" font-family="FreeSans.ttf" font-size="10.00">::get_spectral_radius</text>
</a>
</g>
</g>
<!-- Node1&#45;&gt;Node5 -->
<g id="edge5" class="edge">
<title>Node1&#45;&gt;Node5</title>
<path fill="none" stroke="midnightblue" d="M329.69,-51.87C309.42,-45.36 284.55,-37.37 263.3,-30.54"/>
<polygon fill="midnightblue" stroke="midnightblue" points="328.64,-55.21 339.23,-54.94 330.78,-48.54 328.64,-55.21"/>
</g>
<!-- Node3 -->
<g id="node3" class="node">
<title>Node3</title>
<g id="a_node3"><a xlink:href="python__bindings_8cpp.html#ad1a7eaf0d60c015a4df3da44ddf58e27" target="_top" xlink:title=" ">
<polygon fill="none" stroke="black" points="0,-55 0,-74 112,-74 112,-55 0,-55"/>
<text text-anchor="middle" x="56" y="-62" font-family="FreeSans.ttf" font-size="10.00">PYBIND11_MODULE</text>
</a>
</g>
</g>
<!-- Node2&#45;&gt;Node3 -->
<g id="edge2" class="edge">
<title>Node2&#45;&gt;Node3</title>
<path fill="none" stroke="midnightblue" d="M156.19,-95.36C132.98,-88.14 107.23,-80.13 87.78,-74.08"/>
<polygon fill="midnightblue" stroke="midnightblue" points="155.37,-98.77 165.96,-98.4 157.45,-92.09 155.37,-98.77"/>
</g>
<!-- Node4&#45;&gt;Node3 -->
<g id="edge4" class="edge">
<title>Node4&#45;&gt;Node3</title>
<path fill="none" stroke="midnightblue" d="M137.46,-64.5C129.03,-64.5 120.58,-64.5 112.48,-64.5"/>
<polygon fill="midnightblue" stroke="midnightblue" points="137.71,-68 147.71,-64.5 137.71,-61 137.71,-68"/>
</g>
<!-- Node5&#45;&gt;Node3 -->
<g id="edge6" class="edge">
<title>Node5&#45;&gt;Node3</title>
<path fill="none" stroke="midnightblue" d="M156.19,-33.64C132.98,-40.86 107.23,-48.87 87.78,-54.92"/>
<polygon fill="midnightblue" stroke="midnightblue" points="157.45,-36.91 165.96,-30.6 155.37,-30.23 157.45,-36.91"/>
</g>
</g>
</svg>
