<?xml version="1.0" encoding="UTF-8" standalone="no"?>
<!DOCTYPE svg PUBLIC "-//W3C//DTD SVG 1.1//EN"
 "http://www.w3.org/Graphics/SVG/1.1/DTD/svg11.dtd">
<!-- Generated by graphviz version 2.49.3 (20211027.1534)
 -->
<!-- Title: CUDA/inc/cuda_utils.hpp Pages: 1 -->
<svg width="1176pt" height="408pt"
 viewBox="0.00 0.00 1175.50 408.00" xmlns="http://www.w3.org/2000/svg" xmlns:xlink="http://www.w3.org/1999/xlink">
<g id="graph0" class="graph" transform="scale(1 1) rotate(0) translate(4 404)">
<title>CUDA/inc/cuda_utils.hpp</title>
<!-- Node1 -->
<g id="node1" class="node">
<title>Node1</title>
<g id="a_node1"><a xlink:title="Util functions for CUDA memory and texture management.">
<polygon fill="#bfbfbf" stroke="black" points="945.5,-380.5 945.5,-399.5 1070.5,-399.5 1070.5,-380.5 945.5,-380.5"/>
<text text-anchor="middle" x="1008" y="-387.5" font-family="FreeSans.ttf" font-size="10.00">CUDA/inc/cuda_utils.hpp</text>
</a>
</g>
</g>
<!-- Node2 -->
<g id="node2" class="node">
<title>Node2</title>
<g id="a_node2"><a xlink:href="gpuNUFFT__kernels_8hpp.html" target="_top" xlink:title="gpuNUFFT CUDA function prototypes">
<polygon fill="none" stroke="black" points="869.5,-324.5 869.5,-343.5 1036.5,-343.5 1036.5,-324.5 869.5,-324.5"/>
<text text-anchor="middle" x="953" y="-331.5" font-family="FreeSans.ttf" font-size="10.00">CUDA/inc/gpuNUFFT_kernels.hpp</text>
</a>
</g>
</g>
<!-- Node1&#45;&gt;Node2 -->
<g id="edge1" class="edge">
<title>Node1&#45;&gt;Node2</title>
<path fill="none" stroke="midnightblue" d="M991.71,-373C981.96,-363.43 969.95,-351.64 961.91,-343.75"/>
<polygon fill="midnightblue" stroke="midnightblue" points="989.33,-375.57 998.92,-380.08 994.23,-370.58 989.33,-375.57"/>
</g>
<!-- Node5 -->
<g id="node5" class="node">
<title>Node5</title>
<g id="a_node5"><a xlink:href="gpuNUFFT__operator__factory_8hpp.html" target="_top" xlink:title=" ">
<polygon fill="none" stroke="black" points="495,-67.5 495,-97.5 647,-97.5 647,-67.5 495,-67.5"/>
<text text-anchor="start" x="503" y="-85.5" font-family="FreeSans.ttf" font-size="10.00">CUDA/inc/gpuNUFFT_operator</text>
<text text-anchor="middle" x="571" y="-74.5" font-family="FreeSans.ttf" font-size="10.00">_factory.hpp</text>
</a>
</g>
</g>
<!-- Node1&#45;&gt;Node5 -->
<g id="edge29" class="edge">
<title>Node1&#45;&gt;Node5</title>
<path fill="none" stroke="midnightblue" d="M935.12,-386.93C732.8,-380.23 179,-354.95 179,-279 179,-279 179,-279 179,-215.5 179,-178.31 170.37,-158.89 198,-134 245.76,-90.98 421.41,-107.35 485,-98 488.15,-97.54 491.35,-97.05 494.59,-96.55"/>
<polygon fill="midnightblue" stroke="midnightblue" points="935.24,-390.44 945.35,-387.26 935.47,-383.44 935.24,-390.44"/>
</g>
<!-- Node14 -->
<g id="node14" class="node">
<title>Node14</title>
<g id="a_node14"><a xlink:href="precomp__kernels_8hpp.html" target="_top" xlink:title="GPU Kernels for Precomputation (sector assignment)">
<polygon fill="none" stroke="black" points="894.5,-140 894.5,-159 1049.5,-159 1049.5,-140 894.5,-140"/>
<text text-anchor="middle" x="972" y="-147" font-family="FreeSans.ttf" font-size="10.00">CUDA/inc/precomp_kernels.hpp</text>
</a>
</g>
</g>
<!-- Node1&#45;&gt;Node14 -->
<g id="edge30" class="edge">
<title>Node1&#45;&gt;Node14</title>
<path fill="none" stroke="midnightblue" d="M1032.72,-374.9C1043.53,-367.28 1055.08,-356.79 1061,-344 1076.75,-309.96 1120.21,-324.36 1045,-201 1032.97,-181.26 1009.97,-167.32 992.99,-159.15"/>
<polygon fill="midnightblue" stroke="midnightblue" points="1030.79,-371.98 1024.33,-380.39 1034.62,-377.84 1030.79,-371.98"/>
</g>
<!-- Node15 -->
<g id="node15" class="node">
<title>Node15</title>
<g id="a_node15"><a xlink:href="gpuNUFFT__operator_8cpp.html" target="_top" xlink:title=" ">
<polygon fill="none" stroke="black" points="996.5,-73 996.5,-92 1167.5,-92 1167.5,-73 996.5,-73"/>
<text text-anchor="middle" x="1082" y="-80" font-family="FreeSans.ttf" font-size="10.00">CUDA/src/gpuNUFFT_operator.cpp</text>
</a>
</g>
</g>
<!-- Node1&#45;&gt;Node15 -->
<g id="edge32" class="edge">
<title>Node1&#45;&gt;Node15</title>
<path fill="none" stroke="midnightblue" d="M1043.9,-376.78C1082.99,-360.92 1140,-329.19 1140,-279 1140,-279 1140,-279 1140,-215.5 1140,-165.19 1104.24,-112.51 1088.88,-92.19"/>
<polygon fill="midnightblue" stroke="midnightblue" points="1042.45,-373.58 1034.39,-380.47 1044.98,-380.11 1042.45,-373.58"/>
</g>
<!-- Node16 -->
<g id="node16" class="node">
<title>Node16</title>
<g id="a_node16"><a xlink:href="precomp__utils_8hpp.html" target="_top" xlink:title="UTIL functions for precomputation.">
<polygon fill="none" stroke="black" points="894,-207 894,-226 1036,-226 1036,-207 894,-207"/>
<text text-anchor="middle" x="965" y="-214" font-family="FreeSans.ttf" font-size="10.00">CUDA/inc/precomp_utils.hpp</text>
</a>
</g>
</g>
<!-- Node1&#45;&gt;Node16 -->
<g id="edge31" class="edge">
<title>Node1&#45;&gt;Node16</title>
<path fill="none" stroke="midnightblue" d="M1026.11,-373.24C1033.81,-365.33 1041.94,-355.09 1046,-344 1049.05,-335.65 1048.84,-332.42 1046,-324 1031.75,-281.74 993.31,-242.96 974.99,-226.22"/>
<polygon fill="midnightblue" stroke="midnightblue" points="1023.53,-370.86 1018.71,-380.3 1028.36,-375.93 1023.53,-370.86"/>
</g>
<!-- Node3 -->
<g id="node3" class="node">
<title>Node3</title>
<g id="a_node3"><a xlink:href="gpuNUFFT__operator_8hpp.html" target="_top" xlink:title=" ">
<polygon fill="none" stroke="black" points="746,-268.5 746,-287.5 916,-287.5 916,-268.5 746,-268.5"/>
<text text-anchor="middle" x="831" y="-275.5" font-family="FreeSans.ttf" font-size="10.00">CUDA/inc/gpuNUFFT_operator.hpp</text>
</a>
</g>
</g>
<!-- Node2&#45;&gt;Node3 -->
<g id="edge2" class="edge">
<title>Node2&#45;&gt;Node3</title>
<path fill="none" stroke="midnightblue" d="M924.46,-320.37C901.61,-310.26 870.19,-296.35 850.24,-287.52"/>
<polygon fill="midnightblue" stroke="midnightblue" points="923.11,-323.6 933.67,-324.44 925.94,-317.2 923.11,-323.6"/>
</g>
<!-- Node2&#45;&gt;Node15 -->
<g id="edge28" class="edge">
<title>Node2&#45;&gt;Node15</title>
<path fill="none" stroke="midnightblue" d="M971.52,-317.81C992.5,-299.6 1026.21,-267.1 1045,-232 1071.08,-183.28 1079.21,-115.7 1081.34,-92.07"/>
<polygon fill="midnightblue" stroke="midnightblue" points="969.01,-315.36 963.65,-324.5 973.54,-320.69 969.01,-315.36"/>
</g>
<!-- Node3&#45;&gt;Node1 -->
<g id="edge13" class="edge">
<title>Node3&#45;&gt;Node1</title>
<path fill="none" stroke="midnightblue" d="M835.1,-297.42C839.26,-312.01 847.12,-331.88 861,-344 884.42,-364.45 916.97,-375.61 945.49,-381.69"/>
<polygon fill="midnightblue" stroke="midnightblue" points="838.44,-296.35 832.6,-287.51 831.65,-298.06 838.44,-296.35"/>
</g>
<!-- Node4 -->
<g id="node4" class="node">
<title>Node4</title>
<g id="a_node4"><a xlink:href="balanced__gpuNUFFT__operator_8hpp.html" target="_top" xlink:title=" ">
<polygon fill="none" stroke="black" points="315,-201.5 315,-231.5 471,-231.5 471,-201.5 315,-201.5"/>
<text text-anchor="start" x="323" y="-219.5" font-family="FreeSans.ttf" font-size="10.00">CUDA/inc/balanced_gpuNUFFT</text>
<text text-anchor="middle" x="393" y="-208.5" font-family="FreeSans.ttf" font-size="10.00">_operator.hpp</text>
</a>
</g>
</g>
<!-- Node3&#45;&gt;Node4 -->
<g id="edge3" class="edge">
<title>Node3&#45;&gt;Node4</title>
<path fill="none" stroke="midnightblue" d="M757.85,-267.06C678.53,-256.29 552.41,-239.15 471.18,-228.12"/>
<polygon fill="midnightblue" stroke="midnightblue" points="757.87,-270.6 768.25,-268.48 758.81,-263.66 757.87,-270.6"/>
</g>
<!-- Node3&#45;&gt;Node5 -->
<g id="edge14" class="edge">
<title>Node3&#45;&gt;Node5</title>
<path fill="none" stroke="midnightblue" d="M825.54,-258.63C815.49,-228.09 791.18,-166.96 749,-134 719.89,-111.25 681.02,-98.75 647.02,-91.88"/>
<polygon fill="midnightblue" stroke="midnightblue" points="822.26,-259.9 828.6,-268.39 828.94,-257.8 822.26,-259.9"/>
</g>
<!-- Node3&#45;&gt;Node14 -->
<g id="edge15" class="edge">
<title>Node3&#45;&gt;Node14</title>
<path fill="none" stroke="midnightblue" d="M840.8,-258.96C850.44,-242.42 866.38,-217.98 885,-201 905.26,-182.52 933.39,-167.71 952.12,-159.03"/>
<polygon fill="midnightblue" stroke="midnightblue" points="837.51,-257.67 835.65,-268.1 843.61,-261.11 837.51,-257.67"/>
</g>
<!-- Node3&#45;&gt;Node15 -->
<g id="edge27" class="edge">
<title>Node3&#45;&gt;Node15</title>
<path fill="none" stroke="midnightblue" d="M832.51,-257.93C836.05,-226.82 847.76,-165.48 886,-134 916.79,-108.65 958.81,-95.86 996.04,-89.46"/>
<polygon fill="midnightblue" stroke="midnightblue" points="828.99,-257.96 831.51,-268.25 835.96,-258.63 828.99,-257.96"/>
</g>
<!-- Node3&#45;&gt;Node16 -->
<g id="edge18" class="edge">
<title>Node3&#45;&gt;Node16</title>
<path fill="none" stroke="midnightblue" d="M859.54,-264.33C885.55,-252.78 923.26,-236.03 945.84,-226.01"/>
<polygon fill="midnightblue" stroke="midnightblue" points="857.92,-261.22 850.2,-268.48 860.76,-267.62 857.92,-261.22"/>
</g>
<!-- Node17 -->
<g id="node17" class="node">
<title>Node17</title>
<g id="a_node17"><a xlink:href="texture__gpuNUFFT__operator_8hpp.html" target="_top" xlink:title=" ">
<polygon fill="none" stroke="black" points="596,-201.5 596,-231.5 742,-231.5 742,-201.5 596,-201.5"/>
<text text-anchor="start" x="604" y="-219.5" font-family="FreeSans.ttf" font-size="10.00">CUDA/inc/texture_gpuNUFFT</text>
<text text-anchor="middle" x="669" y="-208.5" font-family="FreeSans.ttf" font-size="10.00">_operator.hpp</text>
</a>
</g>
</g>
<!-- Node3&#45;&gt;Node17 -->
<g id="edge21" class="edge">
<title>Node3&#45;&gt;Node17</title>
<path fill="none" stroke="midnightblue" d="M798.26,-264.98C771.92,-255.3 734.87,-241.69 707.18,-231.52"/>
<polygon fill="midnightblue" stroke="midnightblue" points="797.2,-268.31 807.79,-268.48 799.61,-261.74 797.2,-268.31"/>
</g>
<!-- Node4&#45;&gt;Node5 -->
<g id="edge4" class="edge">
<title>Node4&#45;&gt;Node5</title>
<path fill="none" stroke="midnightblue" d="M392.56,-191.46C393.52,-173.49 397.72,-149.45 412,-134 425.03,-119.91 467.16,-106.88 504.78,-97.58"/>
<polygon fill="midnightblue" stroke="midnightblue" points="389.06,-191.4 392.32,-201.48 396.06,-191.57 389.06,-191.4"/>
</g>
<!-- Node13 -->
<g id="node13" class="node">
<title>Node13</title>
<g id="a_node13"><a xlink:href="balanced__gpuNUFFT__operator_8cpp.html" target="_top" xlink:title=" ">
<polygon fill="none" stroke="black" points="207.5,-134.5 207.5,-164.5 364.5,-164.5 364.5,-134.5 207.5,-134.5"/>
<text text-anchor="start" x="215.5" y="-152.5" font-family="FreeSans.ttf" font-size="10.00">CUDA/src/balanced_gpuNUFFT</text>
<text text-anchor="middle" x="286" y="-141.5" font-family="FreeSans.ttf" font-size="10.00">_operator.cpp</text>
</a>
</g>
</g>
<!-- Node4&#45;&gt;Node13 -->
<g id="edge12" class="edge">
<title>Node4&#45;&gt;Node13</title>
<path fill="none" stroke="midnightblue" d="M360.92,-196.02C344.27,-185.9 324.31,-173.77 309.17,-164.58"/>
<polygon fill="midnightblue" stroke="midnightblue" points="359.42,-199.2 369.78,-201.4 363.05,-193.21 359.42,-199.2"/>
</g>
<!-- Node6 -->
<g id="node6" class="node">
<title>Node6</title>
<g id="a_node6"><a xlink:href="gpuNUFFT__operator__factory_8cpp.html" target="_top" xlink:title=" ">
<polygon fill="none" stroke="black" points="933.5,-0.5 933.5,-30.5 1086.5,-30.5 1086.5,-0.5 933.5,-0.5"/>
<text text-anchor="start" x="941.5" y="-18.5" font-family="FreeSans.ttf" font-size="10.00">CUDA/src/gpuNUFFT_operator</text>
<text text-anchor="middle" x="1010" y="-7.5" font-family="FreeSans.ttf" font-size="10.00">_factory.cpp</text>
</a>
</g>
</g>
<!-- Node5&#45;&gt;Node6 -->
<g id="edge5" class="edge">
<title>Node5&#45;&gt;Node6</title>
<path fill="none" stroke="midnightblue" d="M657.48,-69.74C729,-59.87 833.19,-45.15 924,-31 926.99,-30.53 930.04,-30.05 933.12,-29.56"/>
<polygon fill="midnightblue" stroke="midnightblue" points="656.6,-66.33 647.17,-71.16 657.56,-73.26 656.6,-66.33"/>
</g>
<!-- Node7 -->
<g id="node7" class="node">
<title>Node7</title>
<g id="a_node7"><a xlink:href="gpuNUFFT__forward__tests_8cpp.html" target="_top" xlink:title=" ">
<polygon fill="none" stroke="black" points="611.5,-0.5 611.5,-30.5 762.5,-30.5 762.5,-0.5 611.5,-0.5"/>
<text text-anchor="start" x="619.5" y="-18.5" font-family="FreeSans.ttf" font-size="10.00">CUDA/test/gpu/forward</text>
<text text-anchor="middle" x="687" y="-7.5" font-family="FreeSans.ttf" font-size="10.00">/gpuNUFFT_forward_tests.cpp</text>
</a>
</g>
</g>
<!-- Node5&#45;&gt;Node7 -->
<g id="edge6" class="edge">
<title>Node5&#45;&gt;Node7</title>
<path fill="none" stroke="midnightblue" d="M605.27,-62.3C623.42,-52.12 645.32,-39.85 661.88,-30.58"/>
<polygon fill="midnightblue" stroke="midnightblue" points="603.18,-59.45 596.17,-67.4 606.6,-65.56 603.18,-59.45"/>
</g>
<!-- Node8 -->
<g id="node8" class="node">
<title>Node8</title>
<g id="a_node8"><a xlink:href="gpuNUFFT__2D__conv__tests_8cpp.html" target="_top" xlink:title=" ">
<polygon fill="none" stroke="black" points="781,-0.5 781,-30.5 915,-30.5 915,-0.5 781,-0.5"/>
<text text-anchor="start" x="789" y="-18.5" font-family="FreeSans.ttf" font-size="10.00">CUDA/test/gpu/gpuNUFFT</text>
<text text-anchor="middle" x="848" y="-7.5" font-family="FreeSans.ttf" font-size="10.00">_2D_conv_tests.cpp</text>
</a>
</g>
</g>
<!-- Node5&#45;&gt;Node8 -->
<g id="edge7" class="edge">
<title>Node5&#45;&gt;Node8</title>
<path fill="none" stroke="midnightblue" d="M640.52,-65.19C685.89,-54.54 744.51,-40.78 787.87,-30.61"/>
<polygon fill="midnightblue" stroke="midnightblue" points="639.7,-61.78 630.76,-67.48 641.3,-68.6 639.7,-61.78"/>
</g>
<!-- Node9 -->
<g id="node9" class="node">
<title>Node9</title>
<g id="a_node9"><a xlink:href="gpuNUFFT__conv__tests_8cpp.html" target="_top" xlink:title=" ">
<polygon fill="none" stroke="black" points="0,-0.5 0,-30.5 134,-30.5 134,-0.5 0,-0.5"/>
<text text-anchor="start" x="8" y="-18.5" font-family="FreeSans.ttf" font-size="10.00">CUDA/test/gpu/gpuNUFFT</text>
<text text-anchor="middle" x="67" y="-7.5" font-family="FreeSans.ttf" font-size="10.00">_conv_tests.cpp</text>
</a>
</g>
</g>
<!-- Node5&#45;&gt;Node9 -->
<g id="edge8" class="edge">
<title>Node5&#45;&gt;Node9</title>
<path fill="none" stroke="midnightblue" d="M484.39,-66.98C331.83,-46.57 290.95,-52.86 143,-31 140.08,-30.57 137.09,-30.1 134.09,-29.61"/>
<polygon fill="midnightblue" stroke="midnightblue" points="484.23,-70.49 494.61,-68.37 485.17,-63.56 484.23,-70.49"/>
</g>
<!-- Node10 -->
<g id="node10" class="node">
<title>Node10</title>
<g id="a_node10"><a xlink:href="gpuNUFFT__deapo__tests_8cpp.html" target="_top" xlink:title=" ">
<polygon fill="none" stroke="black" points="152,-0.5 152,-30.5 286,-30.5 286,-0.5 152,-0.5"/>
<text text-anchor="start" x="160" y="-18.5" font-family="FreeSans.ttf" font-size="10.00">CUDA/test/gpu/gpuNUFFT</text>
<text text-anchor="middle" x="219" y="-7.5" font-family="FreeSans.ttf" font-size="10.00">_deapo_tests.cpp</text>
</a>
</g>
</g>
<!-- Node5&#45;&gt;Node10 -->
<g id="edge9" class="edge">
<title>Node5&#45;&gt;Node10</title>
<path fill="none" stroke="midnightblue" d="M484.86,-65.91C430.41,-56.02 358.56,-42.88 295,-31 292.1,-30.46 289.13,-29.9 286.13,-29.34"/>
<polygon fill="midnightblue" stroke="midnightblue" points="484.36,-69.38 494.82,-67.72 485.61,-62.49 484.36,-69.38"/>
</g>
<!-- Node11 -->
<g id="node11" class="node">
<title>Node11</title>
<g id="a_node11"><a xlink:href="gpuNUFFT__fft__tests_8cpp.html" target="_top" xlink:title=" ">
<polygon fill="none" stroke="black" points="304,-0.5 304,-30.5 438,-30.5 438,-0.5 304,-0.5"/>
<text text-anchor="start" x="312" y="-18.5" font-family="FreeSans.ttf" font-size="10.00">CUDA/test/gpu/gpuNUFFT</text>
<text text-anchor="middle" x="371" y="-7.5" font-family="FreeSans.ttf" font-size="10.00">_fft_tests.cpp</text>
</a>
</g>
</g>
<!-- Node5&#45;&gt;Node11 -->
<g id="edge10" class="edge">
<title>Node5&#45;&gt;Node11</title>
<path fill="none" stroke="midnightblue" d="M517.85,-64.23C485.5,-53.71 444.69,-40.45 414.31,-30.58"/>
<polygon fill="midnightblue" stroke="midnightblue" points="517.01,-67.63 527.6,-67.4 519.17,-60.98 517.01,-67.63"/>
</g>
<!-- Node12 -->
<g id="node12" class="node">
<title>Node12</title>
<g id="a_node12"><a xlink:href="gpuNUFFT__operator__python__factory_8cpp.html" target="_top" xlink:title=" ">
<polygon fill="none" stroke="black" points="456.5,-0.5 456.5,-30.5 593.5,-30.5 593.5,-0.5 456.5,-0.5"/>
<text text-anchor="start" x="464.5" y="-18.5" font-family="FreeSans.ttf" font-size="10.00">python/gpuNUFFT_operator</text>
<text text-anchor="middle" x="525" y="-7.5" font-family="FreeSans.ttf" font-size="10.00">_python_factory.cpp</text>
</a>
</g>
</g>
<!-- Node5&#45;&gt;Node12 -->
<g id="edge11" class="edge">
<title>Node5&#45;&gt;Node12</title>
<path fill="none" stroke="midnightblue" d="M555.19,-59.16C548.48,-49.68 540.87,-38.92 534.96,-30.58"/>
<polygon fill="midnightblue" stroke="midnightblue" points="552.38,-61.26 561.02,-67.4 558.1,-57.21 552.38,-61.26"/>
</g>
<!-- Node14&#45;&gt;Node6 -->
<g id="edge17" class="edge">
<title>Node14&#45;&gt;Node6</title>
<path fill="none" stroke="midnightblue" d="M974.51,-129.68C977.01,-112.98 981.44,-88.03 988,-67 991.93,-54.4 998.02,-40.71 1002.79,-30.77"/>
<polygon fill="midnightblue" stroke="midnightblue" points="971.01,-129.39 973.08,-139.78 977.95,-130.37 971.01,-129.39"/>
</g>
<!-- Node14&#45;&gt;Node15 -->
<g id="edge16" class="edge">
<title>Node14&#45;&gt;Node15</title>
<path fill="none" stroke="midnightblue" d="M995.5,-134.62C1017.29,-121.74 1049.04,-102.98 1067.4,-92.13"/>
<polygon fill="midnightblue" stroke="midnightblue" points="993.66,-131.63 986.84,-139.73 997.22,-137.66 993.66,-131.63"/>
</g>
<!-- Node16&#45;&gt;Node5 -->
<g id="edge19" class="edge">
<title>Node16&#45;&gt;Node5</title>
<path fill="none" stroke="midnightblue" d="M942.31,-201.66C911.87,-183.65 855.64,-152.33 804,-134 753,-115.9 693.31,-103.12 647.12,-94.94"/>
<polygon fill="midnightblue" stroke="midnightblue" points="940.52,-204.67 950.9,-206.8 944.11,-198.66 940.52,-204.67"/>
</g>
<!-- Node16&#45;&gt;Node14 -->
<g id="edge20" class="edge">
<title>Node16&#45;&gt;Node14</title>
<path fill="none" stroke="midnightblue" d="M967.04,-196.54C968.37,-184.17 970.05,-168.62 971.07,-159.13"/>
<polygon fill="midnightblue" stroke="midnightblue" points="963.53,-196.42 965.94,-206.73 970.49,-197.17 963.53,-196.42"/>
</g>
<!-- Node17&#45;&gt;Node5 -->
<g id="edge25" class="edge">
<title>Node17&#45;&gt;Node5</title>
<path fill="none" stroke="midnightblue" d="M701.91,-195.35C724.42,-178.98 747.58,-155.22 732,-134 712.41,-107.32 678.74,-94.35 647.24,-88.19"/>
<polygon fill="midnightblue" stroke="midnightblue" points="699.63,-192.67 693.4,-201.24 703.62,-198.42 699.63,-192.67"/>
</g>
<!-- Node18 -->
<g id="node18" class="node">
<title>Node18</title>
<g id="a_node18"><a xlink:href="balanced__texture__gpuNUFFT__operator_8hpp.html" target="_top" xlink:title=" ">
<polygon fill="none" stroke="black" points="421.5,-134.5 421.5,-164.5 558.5,-164.5 558.5,-134.5 421.5,-134.5"/>
<text text-anchor="start" x="429.5" y="-152.5" font-family="FreeSans.ttf" font-size="10.00">CUDA/inc/balanced_texture</text>
<text text-anchor="middle" x="490" y="-141.5" font-family="FreeSans.ttf" font-size="10.00">_gpuNUFFT_operator.hpp</text>
</a>
</g>
</g>
<!-- Node17&#45;&gt;Node18 -->
<g id="edge22" class="edge">
<title>Node17&#45;&gt;Node18</title>
<path fill="none" stroke="midnightblue" d="M620.68,-197.96C591.85,-187.48 555.72,-174.37 528.76,-164.58"/>
<polygon fill="midnightblue" stroke="midnightblue" points="619.57,-201.27 630.16,-201.4 621.95,-194.69 619.57,-201.27"/>
</g>
<!-- Node20 -->
<g id="node20" class="node">
<title>Node20</title>
<g id="a_node20"><a xlink:href="texture__gpuNUFFT__operator_8cpp.html" target="_top" xlink:title=" ">
<polygon fill="none" stroke="black" points="576.5,-134.5 576.5,-164.5 723.5,-164.5 723.5,-134.5 576.5,-134.5"/>
<text text-anchor="start" x="584.5" y="-152.5" font-family="FreeSans.ttf" font-size="10.00">CUDA/src/texture_gpuNUFFT</text>
<text text-anchor="middle" x="650" y="-141.5" font-family="FreeSans.ttf" font-size="10.00">_operator.cpp</text>
</a>
</g>
</g>
<!-- Node17&#45;&gt;Node20 -->
<g id="edge26" class="edge">
<title>Node17&#45;&gt;Node20</title>
<path fill="none" stroke="midnightblue" d="M662.04,-191.7C659.38,-182.59 656.43,-172.49 654.11,-164.58"/>
<polygon fill="midnightblue" stroke="midnightblue" points="658.71,-192.78 664.88,-201.4 665.43,-190.82 658.71,-192.78"/>
</g>
<!-- Node18&#45;&gt;Node5 -->
<g id="edge23" class="edge">
<title>Node18&#45;&gt;Node5</title>
<path fill="none" stroke="midnightblue" d="M515.69,-127.88C528,-118.01 542.43,-106.43 553.46,-97.58"/>
<polygon fill="midnightblue" stroke="midnightblue" points="513.18,-125.41 507.58,-134.4 517.57,-130.87 513.18,-125.41"/>
</g>
<!-- Node19 -->
<g id="node19" class="node">
<title>Node19</title>
<g id="a_node19"><a xlink:href="balanced__texture__gpuNUFFT__operator_8cpp.html" target="_top" xlink:title=" ">
<polygon fill="none" stroke="black" points="339.5,-67.5 339.5,-97.5 476.5,-97.5 476.5,-67.5 339.5,-67.5"/>
<text text-anchor="start" x="347.5" y="-85.5" font-family="FreeSans.ttf" font-size="10.00">CUDA/src/balanced_texture</text>
<text text-anchor="middle" x="408" y="-74.5" font-family="FreeSans.ttf" font-size="10.00">_gpuNUFFT_operator.cpp</text>
</a>
</g>
</g>
<!-- Node18&#45;&gt;Node19 -->
<g id="edge24" class="edge">
<title>Node18&#45;&gt;Node19</title>
<path fill="none" stroke="midnightblue" d="M464.35,-128.17C451.81,-118.23 437.03,-106.51 425.76,-97.58"/>
<polygon fill="midnightblue" stroke="midnightblue" points="462.2,-130.93 472.21,-134.4 466.54,-125.44 462.2,-130.93"/>
</g>
</g>
</svg>
