<?xml version="1.0" encoding="UTF-8" standalone="no"?>
<!DOCTYPE svg PUBLIC "-//W3C//DTD SVG 1.1//EN"
 "http://www.w3.org/Graphics/SVG/1.1/DTD/svg11.dtd">
<!-- Generated by graphviz version 2.49.3 (20211027.1534)
 -->
<!-- Title: showMemoryInfo Pages: 1 -->
<svg width="487pt" height="176pt"
 viewBox="0.00 0.00 487.00 175.50" xmlns="http://www.w3.org/2000/svg" xmlns:xlink="http://www.w3.org/1999/xlink">
<g id="graph0" class="graph" transform="scale(1 1) rotate(0) translate(4 171.5)">
<title>showMemoryInfo</title>
<!-- Node1 -->
<g id="node1" class="node">
<title>Node1</title>
<g id="a_node1"><a xlink:title="Debug short device memory information (free/total) to stream if DEBUG flag is set to true.">
<polygon fill="#bfbfbf" stroke="black" points="388,-68.5 388,-87.5 479,-87.5 479,-68.5 388,-68.5"/>
<text text-anchor="middle" x="433.5" y="-75.5" font-family="FreeSans.ttf" font-size="10.00">showMemoryInfo</text>
</a>
</g>
</g>
<!-- Node2 -->
<g id="node2" class="node">
<title>Node2</title>
<g id="a_node2"><a xlink:href="classgpuNUFFT_1_1GpuNUFFTOperator.html#a065bb3f71daa7a8eea80f786d0626f59" target="_top" xlink:title="Function to free the neccessary device memory used by the GriddingOperator.">
<polygon fill="none" stroke="black" points="194,-137 194,-167 352,-167 352,-137 194,-137"/>
<text text-anchor="start" x="202" y="-155" font-family="FreeSans.ttf" font-size="10.00">gpuNUFFT::GpuNUFFTOperator</text>
<text text-anchor="middle" x="273" y="-144" font-family="FreeSans.ttf" font-size="10.00">::freeDeviceMemory</text>
</a>
</g>
</g>
<!-- Node1&#45;&gt;Node2 -->
<g id="edge1" class="edge">
<title>Node1&#45;&gt;Node2</title>
<path fill="none" stroke="midnightblue" d="M410.95,-93.52C395.21,-104.31 373.03,-118.43 352,-128 344.78,-131.29 336.98,-134.28 329.21,-136.96"/>
<polygon fill="midnightblue" stroke="midnightblue" points="413.23,-96.2 419.42,-87.6 409.22,-90.46 413.23,-96.2"/>
</g>
<!-- Node4 -->
<g id="node4" class="node">
<title>Node4</title>
<g id="a_node4"><a xlink:href="classgpuNUFFT_1_1GpuNUFFTOperator.html#ada5bb598b923ca3e92e987982f3d0d5b" target="_top" xlink:title="Perform forward gridding operation on kspaceData already residing in GPU memory.">
<polygon fill="none" stroke="black" points="194,-88 194,-118 352,-118 352,-88 194,-88"/>
<text text-anchor="start" x="202" y="-106" font-family="FreeSans.ttf" font-size="10.00">gpuNUFFT::GpuNUFFTOperator</text>
<text text-anchor="middle" x="273" y="-95" font-family="FreeSans.ttf" font-size="10.00">::performForwardGpuNUFFT</text>
</a>
</g>
</g>
<!-- Node1&#45;&gt;Node4 -->
<g id="edge3" class="edge">
<title>Node1&#45;&gt;Node4</title>
<path fill="none" stroke="midnightblue" d="M377.98,-86.6C369.64,-87.91 360.89,-89.29 352.16,-90.67"/>
<polygon fill="midnightblue" stroke="midnightblue" points="378.59,-90.05 387.93,-85.03 377.5,-83.13 378.59,-90.05"/>
</g>
<!-- Node5 -->
<g id="node5" class="node">
<title>Node5</title>
<g id="a_node5"><a xlink:href="classgpuNUFFT_1_1GpuNUFFTOperator.html#a89e40ec1b777c8033bbc933c6535078c" target="_top" xlink:title="Perform Adjoint gridding operation on kspaceData already residing in GPU memory.">
<polygon fill="none" stroke="black" points="194,-39 194,-69 352,-69 352,-39 194,-39"/>
<text text-anchor="start" x="202" y="-57" font-family="FreeSans.ttf" font-size="10.00">gpuNUFFT::GpuNUFFTOperator</text>
<text text-anchor="middle" x="273" y="-46" font-family="FreeSans.ttf" font-size="10.00">::performGpuNUFFTAdj</text>
</a>
</g>
</g>
<!-- Node1&#45;&gt;Node5 -->
<g id="edge4" class="edge">
<title>Node1&#45;&gt;Node5</title>
<path fill="none" stroke="midnightblue" d="M377.98,-69.74C369.64,-68.48 360.89,-67.16 352.16,-65.83"/>
<polygon fill="midnightblue" stroke="midnightblue" points="377.52,-73.21 387.93,-71.25 378.56,-66.29 377.52,-73.21"/>
</g>
<!-- Node6 -->
<g id="node6" class="node">
<title>Node6</title>
<g id="a_node6"><a xlink:href="cuda__utils_8hpp.html#a19900bfa2010b74d2c5064a04e8bf0e8" target="_top" xlink:title="Debug short device memory information (free/total) to stdout if DEBUG flag is set to true.">
<polygon fill="none" stroke="black" points="227.5,-0.5 227.5,-19.5 318.5,-19.5 318.5,-0.5 227.5,-0.5"/>
<text text-anchor="middle" x="273" y="-7.5" font-family="FreeSans.ttf" font-size="10.00">showMemoryInfo</text>
</a>
</g>
</g>
<!-- Node1&#45;&gt;Node6 -->
<g id="edge5" class="edge">
<title>Node1&#45;&gt;Node6</title>
<path fill="none" stroke="midnightblue" d="M410.71,-62.67C395.01,-52.21 372.97,-38.73 352,-30 341.55,-25.65 329.9,-22.05 318.86,-19.16"/>
<polygon fill="midnightblue" stroke="midnightblue" points="408.93,-65.69 419.17,-68.41 412.87,-59.9 408.93,-65.69"/>
</g>
<!-- Node3 -->
<g id="node3" class="node">
<title>Node3</title>
<g id="a_node3"><a xlink:href="classgpuNUFFT_1_1GpuNUFFTOperator.html#acf8b3aa450f554ebd8130c11d7c8233e" target="_top" xlink:title=" ">
<polygon fill="none" stroke="black" points="0,-137 0,-167 158,-167 158,-137 0,-137"/>
<text text-anchor="start" x="8" y="-155" font-family="FreeSans.ttf" font-size="10.00">gpuNUFFT::GpuNUFFTOperator</text>
<text text-anchor="middle" x="79" y="-144" font-family="FreeSans.ttf" font-size="10.00">::~GpuNUFFTOperator</text>
</a>
</g>
</g>
<!-- Node2&#45;&gt;Node3 -->
<g id="edge2" class="edge">
<title>Node2&#45;&gt;Node3</title>
<path fill="none" stroke="midnightblue" d="M183.85,-152C175.23,-152 166.53,-152 158.02,-152"/>
<polygon fill="midnightblue" stroke="midnightblue" points="183.91,-155.5 193.91,-152 183.91,-148.5 183.91,-155.5"/>
</g>
</g>
</svg>
