<?xml version="1.0" encoding="UTF-8" standalone="no"?>
<!DOCTYPE svg PUBLIC "-//W3C//DTD SVG 1.1//EN"
 "http://www.w3.org/Graphics/SVG/1.1/DTD/svg11.dtd">
<!-- Generated by graphviz version 2.49.3 (20211027.1534)
 -->
<!-- Title: copyFromDevice Pages: 1 -->
<svg width="186pt" height="66pt"
 viewBox="0.00 0.00 186.00 66.00" xmlns="http://www.w3.org/2000/svg" xmlns:xlink="http://www.w3.org/1999/xlink">
<g id="graph0" class="graph" transform="scale(1 1) rotate(0) translate(4 62)">
<title>copyFromDevice</title>
<!-- Node1 -->
<g id="node1" class="node">
<title>Node1</title>
<g id="a_node1"><a xlink:title="Copy CUDA memory from device to host.">
<polygon fill="#bfbfbf" stroke="black" points="89,-19.5 89,-38.5 178,-38.5 178,-19.5 89,-19.5"/>
<text text-anchor="middle" x="133.5" y="-26.5" font-family="FreeSans.ttf" font-size="10.00">copyFromDevice</text>
</a>
</g>
</g>
<!-- Node2 -->
<g id="node2" class="node">
<title>Node2</title>
<g id="a_node2"><a xlink:href="gpuNUFFT__fft__tests_8cpp.html#a91d5133a5dfb2043009e4af924399fba" target="_top" xlink:title=" ">
<polygon fill="none" stroke="black" points="6,-38.5 6,-57.5 47,-57.5 47,-38.5 6,-38.5"/>
<text text-anchor="middle" x="26.5" y="-45.5" font-family="FreeSans.ttf" font-size="10.00">TEST</text>
</a>
</g>
</g>
<!-- Node1&#45;&gt;Node2 -->
<g id="edge1" class="edge">
<title>Node1&#45;&gt;Node2</title>
<path fill="none" stroke="midnightblue" d="M78.91,-38.7C67.52,-40.76 56.21,-42.81 47.1,-44.45"/>
<polygon fill="midnightblue" stroke="midnightblue" points="79.67,-42.12 88.88,-36.89 78.42,-35.23 79.67,-42.12"/>
</g>
<!-- Node3 -->
<g id="node3" class="node">
<title>Node3</title>
<g id="a_node3"><a xlink:href="gpuNUFFT__fft__tests_8cpp.html#a143d7141da78d4955eb9d9228cd5e65e" target="_top" xlink:title=" ">
<polygon fill="none" stroke="black" points="0,-0.5 0,-19.5 53,-19.5 53,-0.5 0,-0.5"/>
<text text-anchor="middle" x="26.5" y="-7.5" font-family="FreeSans.ttf" font-size="10.00">TEST_F</text>
</a>
</g>
</g>
<!-- Node1&#45;&gt;Node3 -->
<g id="edge2" class="edge">
<title>Node1&#45;&gt;Node3</title>
<path fill="none" stroke="midnightblue" d="M78.81,-19.28C69.85,-17.66 60.94,-16.05 53.12,-14.64"/>
<polygon fill="midnightblue" stroke="midnightblue" points="78.42,-22.77 88.88,-21.11 79.67,-15.88 78.42,-22.77"/>
</g>
</g>
</svg>
