<?xml version="1.0" encoding="UTF-8" standalone="no"?>
<!DOCTYPE svg PUBLIC "-//W3C//DTD SVG 1.1//EN"
 "http://www.w3.org/Graphics/SVG/1.1/DTD/svg11.dtd">
<!-- Generated by graphviz version 2.49.3 (20211027.1534)
 -->
<!-- Title: freeTotalDeviceMemory Pages: 1 -->
<svg width="565pt" height="480pt"
 viewBox="0.00 0.00 565.00 479.50" xmlns="http://www.w3.org/2000/svg" xmlns:xlink="http://www.w3.org/1999/xlink">
<g id="graph0" class="graph" transform="scale(1 1) rotate(0) translate(4 475.5)">
<title>freeTotalDeviceMemory</title>
<!-- Node1 -->
<g id="node1" class="node">
<title>Node1</title>
<g id="a_node1"><a xlink:title="Free variable list of device pointers. Use NULL as stopping element.">
<polygon fill="#bfbfbf" stroke="black" points="438,-218.5 438,-237.5 557,-237.5 557,-218.5 438,-218.5"/>
<text text-anchor="middle" x="497.5" y="-225.5" font-family="FreeSans.ttf" font-size="10.00">freeTotalDeviceMemory</text>
</a>
</g>
</g>
<!-- Node2 -->
<g id="node2" class="node">
<title>Node2</title>
<g id="a_node2"><a xlink:href="classGpuNUFFTPythonOperator.html#a564644dc7ea9b8306cd6296ea6f1fca6" target="_top" xlink:title=" ">
<polygon fill="none" stroke="black" points="230.5,-441 230.5,-471 365.5,-471 365.5,-441 230.5,-441"/>
<text text-anchor="start" x="238.5" y="-459" font-family="FreeSans.ttf" font-size="10.00">GpuNUFFTPythonOperator</text>
<text text-anchor="middle" x="298" y="-448" font-family="FreeSans.ttf" font-size="10.00">::data_consistency</text>
</a>
</g>
</g>
<!-- Node1&#45;&gt;Node2 -->
<g id="edge1" class="edge">
<title>Node1&#45;&gt;Node2</title>
<path fill="none" stroke="midnightblue" d="M493.25,-247.82C485.44,-288.88 461.63,-383.49 402,-432 391.6,-440.46 378.76,-446.05 365.71,-449.71"/>
<polygon fill="midnightblue" stroke="midnightblue" points="496.7,-248.41 495.01,-237.95 489.81,-247.18 496.7,-248.41"/>
</g>
<!-- Node4 -->
<g id="node4" class="node">
<title>Node4</title>
<g id="a_node4"><a xlink:href="classgpuNUFFT_1_1GpuNUFFTOperator.html#a065bb3f71daa7a8eea80f786d0626f59" target="_top" xlink:title="Function to free the neccessary device memory used by the GriddingOperator.">
<polygon fill="none" stroke="black" points="219,-343 219,-373 377,-373 377,-343 219,-343"/>
<text text-anchor="start" x="227" y="-361" font-family="FreeSans.ttf" font-size="10.00">gpuNUFFT::GpuNUFFTOperator</text>
<text text-anchor="middle" x="298" y="-350" font-family="FreeSans.ttf" font-size="10.00">::freeDeviceMemory</text>
</a>
</g>
</g>
<!-- Node1&#45;&gt;Node4 -->
<g id="edge3" class="edge">
<title>Node1&#45;&gt;Node4</title>
<path fill="none" stroke="midnightblue" d="M485.36,-246C469.72,-269.7 439,-310.92 402,-333 394.34,-337.57 385.88,-341.31 377.21,-344.37"/>
<polygon fill="midnightblue" stroke="midnightblue" points="488.31,-247.88 490.76,-237.58 482.42,-244.1 488.31,-247.88"/>
</g>
<!-- Node6 -->
<g id="node6" class="node">
<title>Node6</title>
<g id="a_node6"><a xlink:href="classGpuNUFFTPythonOperator.html#a10bcd0d453fef0947c00cb4448398d3b" target="_top" xlink:title="Estimate the spectral radius using gpu&#45;only functions.">
<polygon fill="none" stroke="black" points="230.5,-392 230.5,-422 365.5,-422 365.5,-392 230.5,-392"/>
<text text-anchor="start" x="238.5" y="-410" font-family="FreeSans.ttf" font-size="10.00">GpuNUFFTPythonOperator</text>
<text text-anchor="middle" x="298" y="-399" font-family="FreeSans.ttf" font-size="10.00">::get_spectral_radius</text>
</a>
</g>
</g>
<!-- Node1&#45;&gt;Node6 -->
<g id="edge5" class="edge">
<title>Node1&#45;&gt;Node6</title>
<path fill="none" stroke="midnightblue" d="M490.09,-247.6C478.22,-280.67 449.62,-347.33 402,-382 391.29,-389.8 378.46,-395.19 365.54,-398.9"/>
<polygon fill="midnightblue" stroke="midnightblue" points="493.53,-248.36 493.47,-237.76 486.91,-246.08 493.53,-248.36"/>
</g>
<!-- Node7 -->
<g id="node7" class="node">
<title>Node7</title>
<g id="a_node7"><a xlink:href="classgpuNUFFT_1_1BalancedGpuNUFFTOperator.html#a3b8fe03dd1e0e8b68eba22e42e1e032b" target="_top" xlink:title="Perform forward gridding operation on given kspaceData.">
<polygon fill="none" stroke="black" points="198.5,-294 198.5,-324 397.5,-324 397.5,-294 198.5,-294"/>
<text text-anchor="start" x="206.5" y="-312" font-family="FreeSans.ttf" font-size="10.00">gpuNUFFT::BalancedGpuNUFFTOperator</text>
<text text-anchor="middle" x="298" y="-301" font-family="FreeSans.ttf" font-size="10.00">::performForwardGpuNUFFT</text>
</a>
</g>
</g>
<!-- Node1&#45;&gt;Node7 -->
<g id="edge7" class="edge">
<title>Node1&#45;&gt;Node7</title>
<path fill="none" stroke="midnightblue" d="M475.47,-243.34C456.96,-256.18 428.85,-274.09 402,-285 393.66,-288.39 384.75,-291.35 375.77,-293.94"/>
<polygon fill="midnightblue" stroke="midnightblue" points="477.59,-246.13 483.74,-237.5 473.55,-240.41 477.59,-246.13"/>
</g>
<!-- Node8 -->
<g id="node8" class="node">
<title>Node8</title>
<g id="a_node8"><a xlink:href="classgpuNUFFT_1_1BalancedTextureGpuNUFFTOperator.html#a8e0514f6dea51134ad49aaeb6c29ac5b" target="_top" xlink:title="Perform forward gridding operation on given kspaceData.">
<polygon fill="none" stroke="black" points="209,-234.5 209,-275.5 387,-275.5 387,-234.5 209,-234.5"/>
<text text-anchor="start" x="217" y="-263.5" font-family="FreeSans.ttf" font-size="10.00">gpuNUFFT::BalancedTexture</text>
<text text-anchor="start" x="217" y="-252.5" font-family="FreeSans.ttf" font-size="10.00">GpuNUFFTOperator::performForward</text>
<text text-anchor="middle" x="298" y="-241.5" font-family="FreeSans.ttf" font-size="10.00">GpuNUFFT</text>
</a>
</g>
</g>
<!-- Node1&#45;&gt;Node8 -->
<g id="edge8" class="edge">
<title>Node1&#45;&gt;Node8</title>
<path fill="none" stroke="midnightblue" d="M427.5,-237.43C414.46,-239.22 400.65,-241.1 387.11,-242.95"/>
<polygon fill="midnightblue" stroke="midnightblue" points="428.34,-240.85 437.78,-236.03 427.4,-233.91 428.34,-240.85"/>
</g>
<!-- Node9 -->
<g id="node9" class="node">
<title>Node9</title>
<g id="a_node9"><a xlink:href="classgpuNUFFT_1_1GpuNUFFTOperator.html#ada5bb598b923ca3e92e987982f3d0d5b" target="_top" xlink:title="Perform forward gridding operation on kspaceData already residing in GPU memory.">
<polygon fill="none" stroke="black" points="219,-186 219,-216 377,-216 377,-186 219,-186"/>
<text text-anchor="start" x="227" y="-204" font-family="FreeSans.ttf" font-size="10.00">gpuNUFFT::GpuNUFFTOperator</text>
<text text-anchor="middle" x="298" y="-193" font-family="FreeSans.ttf" font-size="10.00">::performForwardGpuNUFFT</text>
</a>
</g>
</g>
<!-- Node1&#45;&gt;Node9 -->
<g id="edge9" class="edge">
<title>Node1&#45;&gt;Node9</title>
<path fill="none" stroke="midnightblue" d="M427.79,-218.61C411.48,-216.38 393.96,-213.98 377.25,-211.7"/>
<polygon fill="midnightblue" stroke="midnightblue" points="427.4,-222.09 437.78,-219.97 428.34,-215.15 427.4,-222.09"/>
</g>
<!-- Node10 -->
<g id="node10" class="node">
<title>Node10</title>
<g id="a_node10"><a xlink:href="classgpuNUFFT_1_1BalancedGpuNUFFTOperator.html#ada71d183719d9375226352e90ff22194" target="_top" xlink:title="Perform Adjoint gridding operation on given kspaceData.">
<polygon fill="none" stroke="black" points="198.5,-137 198.5,-167 397.5,-167 397.5,-137 198.5,-137"/>
<text text-anchor="start" x="206.5" y="-155" font-family="FreeSans.ttf" font-size="10.00">gpuNUFFT::BalancedGpuNUFFTOperator</text>
<text text-anchor="middle" x="298" y="-144" font-family="FreeSans.ttf" font-size="10.00">::performGpuNUFFTAdj</text>
</a>
</g>
</g>
<!-- Node1&#45;&gt;Node10 -->
<g id="edge10" class="edge">
<title>Node1&#45;&gt;Node10</title>
<path fill="none" stroke="midnightblue" d="M473.4,-212.94C454.78,-201.38 427.58,-185.8 402,-176 393.26,-172.65 383.91,-169.68 374.54,-167.08"/>
<polygon fill="midnightblue" stroke="midnightblue" points="471.73,-216.02 482.05,-218.4 475.47,-210.1 471.73,-216.02"/>
</g>
<!-- Node11 -->
<g id="node11" class="node">
<title>Node11</title>
<g id="a_node11"><a xlink:href="classgpuNUFFT_1_1BalancedTextureGpuNUFFTOperator.html#a1bbc427b1d73850b6025eb52b417174b" target="_top" xlink:title="Perform Adjoint gridding operation on given kspaceData.">
<polygon fill="none" stroke="black" points="194,-88 194,-118 402,-118 402,-88 194,-88"/>
<text text-anchor="start" x="202" y="-106" font-family="FreeSans.ttf" font-size="10.00">gpuNUFFT::BalancedTexture</text>
<text text-anchor="middle" x="298" y="-95" font-family="FreeSans.ttf" font-size="10.00">GpuNUFFTOperator::performGpuNUFFTAdj</text>
</a>
</g>
</g>
<!-- Node1&#45;&gt;Node11 -->
<g id="edge11" class="edge">
<title>Node1&#45;&gt;Node11</title>
<path fill="none" stroke="midnightblue" d="M484.77,-209.99C468.84,-187.06 438.19,-147.9 402,-127 396.04,-123.56 389.61,-120.61 382.99,-118.08"/>
<polygon fill="midnightblue" stroke="midnightblue" points="481.99,-212.13 490.49,-218.46 487.79,-208.21 481.99,-212.13"/>
</g>
<!-- Node12 -->
<g id="node12" class="node">
<title>Node12</title>
<g id="a_node12"><a xlink:href="classgpuNUFFT_1_1GpuNUFFTOperator.html#a89e40ec1b777c8033bbc933c6535078c" target="_top" xlink:title="Perform Adjoint gridding operation on kspaceData already residing in GPU memory.">
<polygon fill="none" stroke="black" points="219,-39 219,-69 377,-69 377,-39 219,-39"/>
<text text-anchor="start" x="227" y="-57" font-family="FreeSans.ttf" font-size="10.00">gpuNUFFT::GpuNUFFTOperator</text>
<text text-anchor="middle" x="298" y="-46" font-family="FreeSans.ttf" font-size="10.00">::performGpuNUFFTAdj</text>
</a>
</g>
</g>
<!-- Node1&#45;&gt;Node12 -->
<g id="edge12" class="edge">
<title>Node1&#45;&gt;Node12</title>
<path fill="none" stroke="midnightblue" d="M489.97,-208.86C477.94,-176.57 449.08,-111.52 402,-78 394.52,-72.68 386.04,-68.51 377.22,-65.27"/>
<polygon fill="midnightblue" stroke="midnightblue" points="486.75,-210.23 493.41,-218.46 493.34,-207.87 486.75,-210.23"/>
</g>
<!-- Node13 -->
<g id="node13" class="node">
<title>Node13</title>
<g id="a_node13"><a xlink:href="gpuNUFFT__fft__tests_8cpp.html#a91d5133a5dfb2043009e4af924399fba" target="_top" xlink:title=" ">
<polygon fill="none" stroke="black" points="277.5,-0.5 277.5,-19.5 318.5,-19.5 318.5,-0.5 277.5,-0.5"/>
<text text-anchor="middle" x="298" y="-7.5" font-family="FreeSans.ttf" font-size="10.00">TEST</text>
</a>
</g>
</g>
<!-- Node1&#45;&gt;Node13 -->
<g id="edge13" class="edge">
<title>Node1&#45;&gt;Node13</title>
<path fill="none" stroke="midnightblue" d="M493.22,-208.18C485.39,-167.55 461.61,-74.78 402,-29 377.77,-10.39 340.99,-8.02 318.56,-8.6"/>
<polygon fill="midnightblue" stroke="midnightblue" points="489.8,-208.96 495.02,-218.18 496.69,-207.71 489.8,-208.96"/>
</g>
<!-- Node3 -->
<g id="node3" class="node">
<title>Node3</title>
<g id="a_node3"><a xlink:href="python__bindings_8cpp.html#ad1a7eaf0d60c015a4df3da44ddf58e27" target="_top" xlink:title=" ">
<polygon fill="none" stroke="black" points="23,-421.5 23,-440.5 135,-440.5 135,-421.5 23,-421.5"/>
<text text-anchor="middle" x="79" y="-428.5" font-family="FreeSans.ttf" font-size="10.00">PYBIND11_MODULE</text>
</a>
</g>
</g>
<!-- Node2&#45;&gt;Node3 -->
<g id="edge2" class="edge">
<title>Node2&#45;&gt;Node3</title>
<path fill="none" stroke="midnightblue" d="M220.23,-447.16C192.15,-443.92 160.97,-440.33 135.15,-437.35"/>
<polygon fill="midnightblue" stroke="midnightblue" points="220.08,-450.66 230.42,-448.33 220.88,-443.71 220.08,-450.66"/>
</g>
<!-- Node5 -->
<g id="node5" class="node">
<title>Node5</title>
<g id="a_node5"><a xlink:href="classgpuNUFFT_1_1GpuNUFFTOperator.html#acf8b3aa450f554ebd8130c11d7c8233e" target="_top" xlink:title=" ">
<polygon fill="none" stroke="black" points="0,-343 0,-373 158,-373 158,-343 0,-343"/>
<text text-anchor="start" x="8" y="-361" font-family="FreeSans.ttf" font-size="10.00">gpuNUFFT::GpuNUFFTOperator</text>
<text text-anchor="middle" x="79" y="-350" font-family="FreeSans.ttf" font-size="10.00">::~GpuNUFFTOperator</text>
</a>
</g>
</g>
<!-- Node4&#45;&gt;Node5 -->
<g id="edge4" class="edge">
<title>Node4&#45;&gt;Node5</title>
<path fill="none" stroke="midnightblue" d="M208.64,-358C191.89,-358 174.48,-358 158.07,-358"/>
<polygon fill="midnightblue" stroke="midnightblue" points="208.96,-361.5 218.96,-358 208.96,-354.5 208.96,-361.5"/>
</g>
<!-- Node6&#45;&gt;Node3 -->
<g id="edge6" class="edge">
<title>Node6&#45;&gt;Node3</title>
<path fill="none" stroke="midnightblue" d="M220.23,-415.49C192.15,-418.6 160.97,-422.04 135.15,-424.9"/>
<polygon fill="midnightblue" stroke="midnightblue" points="220.86,-418.94 230.42,-414.36 220.09,-411.98 220.86,-418.94"/>
</g>
</g>
</svg>
