<?xml version="1.0" encoding="UTF-8" standalone="no"?>
<!DOCTYPE svg PUBLIC "-//W3C//DTD SVG 1.1//EN"
 "http://www.w3.org/Graphics/SVG/1.1/DTD/svg11.dtd">
<!-- Generated by graphviz version 2.49.3 (20211027.1534)
 -->
<!-- Title: initConstSymbol Pages: 1 -->
<svg width="330pt" height="333pt"
 viewBox="0.00 0.00 330.00 333.00" xmlns="http://www.w3.org/2000/svg" xmlns:xlink="http://www.w3.org/1999/xlink">
<g id="graph0" class="graph" transform="scale(1 1) rotate(0) translate(4 329)">
<title>initConstSymbol</title>
<!-- Node1 -->
<g id="node1" class="node">
<title>Node1</title>
<g id="a_node1"><a xlink:title="Initialize constant symbol on device.">
<polygon fill="#bfbfbf" stroke="black" points="235,-143 235,-162 322,-162 322,-143 235,-143"/>
<text text-anchor="middle" x="278.5" y="-150" font-family="FreeSans.ttf" font-size="10.00">initConstSymbol</text>
</a>
</g>
</g>
<!-- Node2 -->
<g id="node2" class="node">
<title>Node2</title>
<g id="a_node2"><a xlink:href="classgpuNUFFT_1_1BalancedGpuNUFFTOperator.html#aebed0b033d85b71c1e48132203b7caed" target="_top" xlink:title="Virtual method to perform precomputation of all neccessary meta information used in the gridding step...">
<polygon fill="none" stroke="black" points="0,-294.5 0,-324.5 199,-324.5 199,-294.5 0,-294.5"/>
<text text-anchor="start" x="8" y="-312.5" font-family="FreeSans.ttf" font-size="10.00">gpuNUFFT::BalancedGpuNUFFTOperator</text>
<text text-anchor="middle" x="99.5" y="-301.5" font-family="FreeSans.ttf" font-size="10.00">::initAndCopyGpuNUFFTInfo</text>
</a>
</g>
</g>
<!-- Node1&#45;&gt;Node2 -->
<g id="edge1" class="edge">
<title>Node1&#45;&gt;Node2</title>
<path fill="none" stroke="midnightblue" d="M271.53,-171.85C261.48,-201.12 238.31,-256.33 199,-285.5 194.34,-288.96 189.24,-291.93 183.89,-294.47"/>
<polygon fill="midnightblue" stroke="midnightblue" points="274.86,-172.93 274.65,-162.33 268.21,-170.75 274.86,-172.93"/>
</g>
<!-- Node3 -->
<g id="node3" class="node">
<title>Node3</title>
<g id="a_node3"><a xlink:href="classgpuNUFFT_1_1BalancedTextureGpuNUFFTOperator.html#a4cfe8965eea8ee447fbffc138eefe588" target="_top" xlink:title="Virtual method to perform precomputation of all neccessary meta information used in the gridding step...">
<polygon fill="none" stroke="black" points="10,-235 10,-276 189,-276 189,-235 10,-235"/>
<text text-anchor="start" x="18" y="-264" font-family="FreeSans.ttf" font-size="10.00">gpuNUFFT::BalancedTexture</text>
<text text-anchor="start" x="18" y="-253" font-family="FreeSans.ttf" font-size="10.00">GpuNUFFTOperator::initAndCopyGpu</text>
<text text-anchor="middle" x="99.5" y="-242" font-family="FreeSans.ttf" font-size="10.00">NUFFTInfo</text>
</a>
</g>
</g>
<!-- Node1&#45;&gt;Node3 -->
<g id="edge2" class="edge">
<title>Node1&#45;&gt;Node3</title>
<path fill="none" stroke="midnightblue" d="M263.19,-170.13C248.67,-186.91 224.73,-211.73 199,-226.5 193.59,-229.61 187.82,-232.41 181.88,-234.92"/>
<polygon fill="midnightblue" stroke="midnightblue" points="266.11,-172.09 269.88,-162.18 260.76,-167.58 266.11,-172.09"/>
</g>
<!-- Node4 -->
<g id="node4" class="node">
<title>Node4</title>
<g id="a_node4"><a xlink:href="classgpuNUFFT_1_1GpuNUFFTOperator.html#ad2d7c6604a4cff07dfc707a2428f8fb1" target="_top" xlink:title="Virtual method to perform precomputation of all neccessary meta information used in the gridding step...">
<polygon fill="none" stroke="black" points="20.5,-186.5 20.5,-216.5 178.5,-216.5 178.5,-186.5 20.5,-186.5"/>
<text text-anchor="start" x="28.5" y="-204.5" font-family="FreeSans.ttf" font-size="10.00">gpuNUFFT::GpuNUFFTOperator</text>
<text text-anchor="middle" x="99.5" y="-193.5" font-family="FreeSans.ttf" font-size="10.00">::initAndCopyGpuNUFFTInfo</text>
</a>
</g>
</g>
<!-- Node1&#45;&gt;Node4 -->
<g id="edge3" class="edge">
<title>Node1&#45;&gt;Node4</title>
<path fill="none" stroke="midnightblue" d="M239.44,-165.21C226.64,-169.32 212.26,-173.78 199,-177.5 188.07,-180.57 176.39,-183.61 165.04,-186.45"/>
<polygon fill="midnightblue" stroke="midnightblue" points="240.87,-168.42 249.3,-162 238.71,-161.76 240.87,-168.42"/>
</g>
<!-- Node5 -->
<g id="node5" class="node">
<title>Node5</title>
<g id="a_node5"><a xlink:href="classgpuNUFFT_1_1TextureGpuNUFFTOperator.html#af62b39293d52e627730c5a63720553e1" target="_top" xlink:title="Virtual method to perform precomputation of all neccessary meta information used in the gridding step...">
<polygon fill="none" stroke="black" points="4,-137.5 4,-167.5 195,-167.5 195,-137.5 4,-137.5"/>
<text text-anchor="start" x="12" y="-155.5" font-family="FreeSans.ttf" font-size="10.00">gpuNUFFT::TextureGpuNUFFTOperator</text>
<text text-anchor="middle" x="99.5" y="-144.5" font-family="FreeSans.ttf" font-size="10.00">::initAndCopyGpuNUFFTInfo</text>
</a>
</g>
</g>
<!-- Node1&#45;&gt;Node5 -->
<g id="edge4" class="edge">
<title>Node1&#45;&gt;Node5</title>
<path fill="none" stroke="midnightblue" d="M224.43,-152.5C215.11,-152.5 205.16,-152.5 195.11,-152.5"/>
<polygon fill="midnightblue" stroke="midnightblue" points="224.65,-156 234.65,-152.5 224.65,-149 224.65,-156"/>
</g>
<!-- Node6 -->
<g id="node6" class="node">
<title>Node6</title>
<g id="a_node6"><a xlink:href="classgpuNUFFT_1_1GpuNUFFTOperator.html#ab6adcc02b05b28d50aa05fe8dd320dd3" target="_top" xlink:title="Virtual method to allow different methods of generation of the lookup table.">
<polygon fill="none" stroke="black" points="20.5,-88.5 20.5,-118.5 178.5,-118.5 178.5,-88.5 20.5,-88.5"/>
<text text-anchor="start" x="28.5" y="-106.5" font-family="FreeSans.ttf" font-size="10.00">gpuNUFFT::GpuNUFFTOperator</text>
<text text-anchor="middle" x="99.5" y="-95.5" font-family="FreeSans.ttf" font-size="10.00">::initLookupTable</text>
</a>
</g>
</g>
<!-- Node1&#45;&gt;Node6 -->
<g id="edge5" class="edge">
<title>Node1&#45;&gt;Node6</title>
<path fill="none" stroke="midnightblue" d="M237.8,-139.96C225.41,-136.15 211.67,-132.04 199,-128.5 186.94,-125.13 173.99,-121.7 161.57,-118.51"/>
<polygon fill="midnightblue" stroke="midnightblue" points="236.82,-143.32 247.41,-142.93 238.89,-136.63 236.82,-143.32"/>
</g>
<!-- Node7 -->
<g id="node7" class="node">
<title>Node7</title>
<g id="a_node7"><a xlink:href="gpuNUFFT__fft__tests_8cpp.html#a143d7141da78d4955eb9d9228cd5e65e" target="_top" xlink:title=" ">
<polygon fill="none" stroke="black" points="73,-50 73,-69 126,-69 126,-50 73,-50"/>
<text text-anchor="middle" x="99.5" y="-57" font-family="FreeSans.ttf" font-size="10.00">TEST_F</text>
</a>
</g>
</g>
<!-- Node1&#45;&gt;Node7 -->
<g id="edge6" class="edge">
<title>Node1&#45;&gt;Node7</title>
<path fill="none" stroke="midnightblue" d="M263.63,-134.9C249.3,-117.99 225.36,-93.05 199,-79.5 176.03,-67.7 146.7,-62.86 126.04,-60.87"/>
<polygon fill="midnightblue" stroke="midnightblue" points="261.16,-137.41 270.21,-142.92 266.57,-132.97 261.16,-137.41"/>
</g>
<!-- Node8 -->
<g id="node8" class="node">
<title>Node8</title>
<g id="a_node8"><a xlink:href="classgpuNUFFT_1_1GpuNUFFTOperator.html#a1f505e0efb83311748062de473e2dd39" target="_top" xlink:title="Update amount of concurrently computed coils.">
<polygon fill="none" stroke="black" points="20.5,-0.5 20.5,-30.5 178.5,-30.5 178.5,-0.5 20.5,-0.5"/>
<text text-anchor="start" x="28.5" y="-18.5" font-family="FreeSans.ttf" font-size="10.00">gpuNUFFT::GpuNUFFTOperator</text>
<text text-anchor="middle" x="99.5" y="-7.5" font-family="FreeSans.ttf" font-size="10.00">::updateConcurrentCoilCount</text>
</a>
</g>
</g>
<!-- Node1&#45;&gt;Node8 -->
<g id="edge7" class="edge">
<title>Node1&#45;&gt;Node8</title>
<path fill="none" stroke="midnightblue" d="M269.5,-133.76C257.78,-108.6 233.53,-64.32 199,-40.5 192.76,-36.19 185.83,-32.62 178.63,-29.67"/>
<polygon fill="midnightblue" stroke="midnightblue" points="266.34,-135.27 273.63,-142.97 272.73,-132.41 266.34,-135.27"/>
</g>
</g>
</svg>
