<?xml version="1.0" encoding="UTF-8" standalone="no"?>
<!DOCTYPE svg PUBLIC "-//W3C//DTD SVG 1.1//EN"
 "http://www.w3.org/Graphics/SVG/1.1/DTD/svg11.dtd">
<!-- Generated by graphviz version 2.49.3 (20211027.1534)
 -->
<!-- Title: freeTotalDeviceMemory Pages: 1 -->
<svg width="565pt" height="382pt"
 viewBox="0.00 0.00 565.00 381.50" xmlns="http://www.w3.org/2000/svg" xmlns:xlink="http://www.w3.org/1999/xlink">
<g id="graph0" class="graph" transform="scale(1 1) rotate(0) translate(4 377.5)">
<title>freeTotalDeviceMemory</title>
<!-- Node1 -->
<g id="node1" class="node">
<title>Node1</title>
<g id="a_node1"><a xlink:title="Free variable list of device pointers. Use NULL as stopping element.">
<polygon fill="#bfbfbf" stroke="black" points="438,-166.5 438,-185.5 557,-185.5 557,-166.5 438,-166.5"/>
<text text-anchor="middle" x="497.5" y="-173.5" font-family="FreeSans.ttf" font-size="10.00">freeTotalDeviceMemory</text>
</a>
</g>
</g>
<!-- Node2 -->
<g id="node2" class="node">
<title>Node2</title>
<g id="a_node2"><a xlink:href="classgpuNUFFT_1_1GpuNUFFTOperator.html#a065bb3f71daa7a8eea80f786d0626f59" target="_top" xlink:title="Function to free the neccessary device memory used by the GriddingOperator.">
<polygon fill="none" stroke="black" points="219,-343 219,-373 377,-373 377,-343 219,-343"/>
<text text-anchor="start" x="227" y="-361" font-family="FreeSans.ttf" font-size="10.00">gpuNUFFT::GpuNUFFTOperator</text>
<text text-anchor="middle" x="298" y="-350" font-family="FreeSans.ttf" font-size="10.00">::freeDeviceMemory</text>
</a>
</g>
</g>
<!-- Node1&#45;&gt;Node2 -->
<g id="edge1" class="edge">
<title>Node1&#45;&gt;Node2</title>
<path fill="none" stroke="midnightblue" d="M490.59,-195.22C479.2,-228.88 450.93,-298.3 402,-334 394.51,-339.47 385.97,-343.71 377.08,-347"/>
<polygon fill="midnightblue" stroke="midnightblue" points="493.94,-196.23 493.7,-185.64 487.28,-194.07 493.94,-196.23"/>
</g>
<!-- Node4 -->
<g id="node4" class="node">
<title>Node4</title>
<g id="a_node4"><a xlink:href="classgpuNUFFT_1_1BalancedGpuNUFFTOperator.html#a3b8fe03dd1e0e8b68eba22e42e1e032b" target="_top" xlink:title="Perform forward gridding operation on given kspaceData.">
<polygon fill="none" stroke="black" points="198.5,-294 198.5,-324 397.5,-324 397.5,-294 198.5,-294"/>
<text text-anchor="start" x="206.5" y="-312" font-family="FreeSans.ttf" font-size="10.00">gpuNUFFT::BalancedGpuNUFFTOperator</text>
<text text-anchor="middle" x="298" y="-301" font-family="FreeSans.ttf" font-size="10.00">::performForwardGpuNUFFT</text>
</a>
</g>
</g>
<!-- Node1&#45;&gt;Node4 -->
<g id="edge3" class="edge">
<title>Node1&#45;&gt;Node4</title>
<path fill="none" stroke="midnightblue" d="M485.79,-194.38C470.45,-218.98 439.87,-262.16 402,-285 396.26,-288.46 390.07,-291.42 383.66,-293.96"/>
<polygon fill="midnightblue" stroke="midnightblue" points="488.88,-196.02 491.07,-185.65 482.9,-192.39 488.88,-196.02"/>
</g>
<!-- Node5 -->
<g id="node5" class="node">
<title>Node5</title>
<g id="a_node5"><a xlink:href="classgpuNUFFT_1_1BalancedTextureGpuNUFFTOperator.html#a8e0514f6dea51134ad49aaeb6c29ac5b" target="_top" xlink:title="Perform forward gridding operation on given kspaceData.">
<polygon fill="none" stroke="black" points="209,-234.5 209,-275.5 387,-275.5 387,-234.5 209,-234.5"/>
<text text-anchor="start" x="217" y="-263.5" font-family="FreeSans.ttf" font-size="10.00">gpuNUFFT::BalancedTexture</text>
<text text-anchor="start" x="217" y="-252.5" font-family="FreeSans.ttf" font-size="10.00">GpuNUFFTOperator::performForward</text>
<text text-anchor="middle" x="298" y="-241.5" font-family="FreeSans.ttf" font-size="10.00">GpuNUFFT</text>
</a>
</g>
</g>
<!-- Node1&#45;&gt;Node5 -->
<g id="edge4" class="edge">
<title>Node1&#45;&gt;Node5</title>
<path fill="none" stroke="midnightblue" d="M472.2,-190.7C453.51,-201.55 426.77,-216.09 402,-226 394.5,-229 386.57,-231.82 378.58,-234.43"/>
<polygon fill="midnightblue" stroke="midnightblue" points="474.1,-193.65 480.94,-185.56 470.55,-187.61 474.1,-193.65"/>
</g>
<!-- Node6 -->
<g id="node6" class="node">
<title>Node6</title>
<g id="a_node6"><a xlink:href="classgpuNUFFT_1_1GpuNUFFTOperator.html#ada5bb598b923ca3e92e987982f3d0d5b" target="_top" xlink:title="Perform forward gridding operation on kspaceData already residing in GPU memory.">
<polygon fill="none" stroke="black" points="219,-186 219,-216 377,-216 377,-186 219,-186"/>
<text text-anchor="start" x="227" y="-204" font-family="FreeSans.ttf" font-size="10.00">gpuNUFFT::GpuNUFFTOperator</text>
<text text-anchor="middle" x="298" y="-193" font-family="FreeSans.ttf" font-size="10.00">::performForwardGpuNUFFT</text>
</a>
</g>
</g>
<!-- Node1&#45;&gt;Node6 -->
<g id="edge5" class="edge">
<title>Node1&#45;&gt;Node6</title>
<path fill="none" stroke="midnightblue" d="M427.79,-184.7C411.48,-186.76 393.96,-188.98 377.25,-191.09"/>
<polygon fill="midnightblue" stroke="midnightblue" points="428.3,-188.16 437.78,-183.43 427.42,-181.22 428.3,-188.16"/>
</g>
<!-- Node7 -->
<g id="node7" class="node">
<title>Node7</title>
<g id="a_node7"><a xlink:href="classgpuNUFFT_1_1BalancedGpuNUFFTOperator.html#ada71d183719d9375226352e90ff22194" target="_top" xlink:title="Perform Adjoint gridding operation on given kspaceData.">
<polygon fill="none" stroke="black" points="198.5,-137 198.5,-167 397.5,-167 397.5,-137 198.5,-137"/>
<text text-anchor="start" x="206.5" y="-155" font-family="FreeSans.ttf" font-size="10.00">gpuNUFFT::BalancedGpuNUFFTOperator</text>
<text text-anchor="middle" x="298" y="-144" font-family="FreeSans.ttf" font-size="10.00">::performGpuNUFFTAdj</text>
</a>
</g>
</g>
<!-- Node1&#45;&gt;Node7 -->
<g id="edge6" class="edge">
<title>Node1&#45;&gt;Node7</title>
<path fill="none" stroke="midnightblue" d="M427.82,-167.65C418.11,-166.47 407.96,-165.24 397.81,-164.01"/>
<polygon fill="midnightblue" stroke="midnightblue" points="427.43,-171.13 437.78,-168.86 428.27,-164.18 427.43,-171.13"/>
</g>
<!-- Node8 -->
<g id="node8" class="node">
<title>Node8</title>
<g id="a_node8"><a xlink:href="classgpuNUFFT_1_1BalancedTextureGpuNUFFTOperator.html#a1bbc427b1d73850b6025eb52b417174b" target="_top" xlink:title="Perform Adjoint gridding operation on given kspaceData.">
<polygon fill="none" stroke="black" points="194,-88 194,-118 402,-118 402,-88 194,-88"/>
<text text-anchor="start" x="202" y="-106" font-family="FreeSans.ttf" font-size="10.00">gpuNUFFT::BalancedTexture</text>
<text text-anchor="middle" x="298" y="-95" font-family="FreeSans.ttf" font-size="10.00">GpuNUFFTOperator::performGpuNUFFTAdj</text>
</a>
</g>
</g>
<!-- Node1&#45;&gt;Node8 -->
<g id="edge7" class="edge">
<title>Node1&#45;&gt;Node8</title>
<path fill="none" stroke="midnightblue" d="M471.89,-161.5C453.23,-151 426.66,-137.11 402,-128 391.9,-124.27 381.04,-120.94 370.29,-118.02"/>
<polygon fill="midnightblue" stroke="midnightblue" points="470.21,-164.57 480.63,-166.49 473.68,-158.49 470.21,-164.57"/>
</g>
<!-- Node9 -->
<g id="node9" class="node">
<title>Node9</title>
<g id="a_node9"><a xlink:href="classgpuNUFFT_1_1GpuNUFFTOperator.html#a89e40ec1b777c8033bbc933c6535078c" target="_top" xlink:title="Perform Adjoint gridding operation on kspaceData already residing in GPU memory.">
<polygon fill="none" stroke="black" points="219,-39 219,-69 377,-69 377,-39 219,-39"/>
<text text-anchor="start" x="227" y="-57" font-family="FreeSans.ttf" font-size="10.00">gpuNUFFT::GpuNUFFTOperator</text>
<text text-anchor="middle" x="298" y="-46" font-family="FreeSans.ttf" font-size="10.00">::performGpuNUFFTAdj</text>
</a>
</g>
</g>
<!-- Node1&#45;&gt;Node9 -->
<g id="edge8" class="edge">
<title>Node1&#45;&gt;Node9</title>
<path fill="none" stroke="midnightblue" d="M484.08,-158.1C467.81,-136.05 437.18,-99.06 402,-79 394.25,-74.58 385.74,-70.94 377.03,-67.93"/>
<polygon fill="midnightblue" stroke="midnightblue" points="481.28,-160.2 489.96,-166.27 486.96,-156.11 481.28,-160.2"/>
</g>
<!-- Node10 -->
<g id="node10" class="node">
<title>Node10</title>
<g id="a_node10"><a xlink:href="gpuNUFFT__fft__tests_8cpp.html#a91d5133a5dfb2043009e4af924399fba" target="_top" xlink:title=" ">
<polygon fill="none" stroke="black" points="277.5,-0.5 277.5,-19.5 318.5,-19.5 318.5,-0.5 277.5,-0.5"/>
<text text-anchor="middle" x="298" y="-7.5" font-family="FreeSans.ttf" font-size="10.00">TEST</text>
</a>
</g>
</g>
<!-- Node1&#45;&gt;Node10 -->
<g id="edge9" class="edge">
<title>Node1&#45;&gt;Node10</title>
<path fill="none" stroke="midnightblue" d="M489.78,-156.72C477.61,-124.86 448.76,-61.58 402,-30 376.79,-12.97 340.64,-9.65 318.55,-9.4"/>
<polygon fill="midnightblue" stroke="midnightblue" points="486.54,-158.05 493.27,-166.23 493.11,-155.64 486.54,-158.05"/>
</g>
<!-- Node3 -->
<g id="node3" class="node">
<title>Node3</title>
<g id="a_node3"><a xlink:href="classgpuNUFFT_1_1GpuNUFFTOperator.html#acf8b3aa450f554ebd8130c11d7c8233e" target="_top" xlink:title=" ">
<polygon fill="none" stroke="black" points="0,-343 0,-373 158,-373 158,-343 0,-343"/>
<text text-anchor="start" x="8" y="-361" font-family="FreeSans.ttf" font-size="10.00">gpuNUFFT::GpuNUFFTOperator</text>
<text text-anchor="middle" x="79" y="-350" font-family="FreeSans.ttf" font-size="10.00">::~GpuNUFFTOperator</text>
</a>
</g>
</g>
<!-- Node2&#45;&gt;Node3 -->
<g id="edge2" class="edge">
<title>Node2&#45;&gt;Node3</title>
<path fill="none" stroke="midnightblue" d="M208.64,-358C191.89,-358 174.48,-358 158.07,-358"/>
<polygon fill="midnightblue" stroke="midnightblue" points="208.96,-361.5 218.96,-358 208.96,-354.5 208.96,-361.5"/>
</g>
</g>
</svg>
