<?xml version="1.0" encoding="UTF-8" standalone="no"?>
<!DOCTYPE svg PUBLIC "-//W3C//DTD SVG 1.1//EN"
 "http://www.w3.org/Graphics/SVG/1.1/DTD/svg11.dtd">
<!-- Generated by graphviz version 2.49.3 (20211027.1534)
 -->
<!-- Title: freeDeviceMem Pages: 1 -->
<svg width="702pt" height="420pt"
 viewBox="0.00 0.00 702.00 420.00" xmlns="http://www.w3.org/2000/svg" xmlns:xlink="http://www.w3.org/1999/xlink">
<g id="graph0" class="graph" transform="scale(1 1) rotate(0) translate(4 416)">
<title>freeDeviceMem</title>
<!-- Node1 -->
<g id="node1" class="node">
<title>Node1</title>
<g id="a_node1"><a xlink:title="Free of device memory.">
<polygon fill="#bfbfbf" stroke="black" points="609,-213.5 609,-232.5 694,-232.5 694,-213.5 609,-213.5"/>
<text text-anchor="middle" x="651.5" y="-220.5" font-family="FreeSans.ttf" font-size="10.00">freeDeviceMem</text>
</a>
</g>
</g>
<!-- Node2 -->
<g id="node2" class="node">
<title>Node2</title>
<g id="a_node2"><a xlink:href="classGpuNUFFTPythonOperator.html#a47e427fafc08d705d834940e1229742f" target="_top" xlink:title="Estimate density Compensation array using gpu&#45;only functions.">
<polygon fill="none" stroke="black" points="438,-308 438,-338 573,-338 573,-308 438,-308"/>
<text text-anchor="start" x="446" y="-326" font-family="FreeSans.ttf" font-size="10.00">GpuNUFFTPythonOperator</text>
<text text-anchor="middle" x="505.5" y="-315" font-family="FreeSans.ttf" font-size="10.00">::estimate_density_comp</text>
</a>
</g>
</g>
<!-- Node1&#45;&gt;Node2 -->
<g id="edge1" class="edge">
<title>Node1&#45;&gt;Node2</title>
<path fill="none" stroke="midnightblue" d="M628.22,-238.48C600.96,-257.4 555.13,-289.23 528.16,-307.96"/>
<polygon fill="midnightblue" stroke="midnightblue" points="630.48,-241.17 636.69,-232.59 626.48,-235.42 630.48,-241.17"/>
</g>
<!-- Node4 -->
<g id="node4" class="node">
<title>Node4</title>
<g id="a_node4"><a xlink:href="cuda__utils_8hpp.html#aaa83ead29bc50e65ae4298d9206a760b" target="_top" xlink:title="Free variable list of device pointers. Use NULL as stopping element.">
<polygon fill="none" stroke="black" points="446,-191.5 446,-210.5 565,-210.5 565,-191.5 446,-191.5"/>
<text text-anchor="middle" x="505.5" y="-198.5" font-family="FreeSans.ttf" font-size="10.00">freeTotalDeviceMemory</text>
</a>
</g>
</g>
<!-- Node1&#45;&gt;Node4 -->
<g id="edge3" class="edge">
<title>Node1&#45;&gt;Node4</title>
<path fill="none" stroke="midnightblue" d="M598.68,-215.08C587.81,-213.42 576.29,-211.66 565.19,-209.97"/>
<polygon fill="midnightblue" stroke="midnightblue" points="598.44,-218.59 608.85,-216.64 599.49,-211.67 598.44,-218.59"/>
</g>
<!-- Node3 -->
<g id="node3" class="node">
<title>Node3</title>
<g id="a_node3"><a xlink:href="python__bindings_8cpp.html#ad1a7eaf0d60c015a4df3da44ddf58e27" target="_top" xlink:title=" ">
<polygon fill="none" stroke="black" points="242,-392.5 242,-411.5 354,-411.5 354,-392.5 242,-392.5"/>
<text text-anchor="middle" x="298" y="-399.5" font-family="FreeSans.ttf" font-size="10.00">PYBIND11_MODULE</text>
</a>
</g>
</g>
<!-- Node2&#45;&gt;Node3 -->
<g id="edge2" class="edge">
<title>Node2&#45;&gt;Node3</title>
<path fill="none" stroke="midnightblue" d="M475.06,-343.96C455.28,-357.08 428.15,-373.28 402,-383 386.92,-388.61 369.95,-392.61 354.21,-395.45"/>
<polygon fill="midnightblue" stroke="midnightblue" points="477.28,-346.68 483.6,-338.18 473.36,-340.88 477.28,-346.68"/>
</g>
<!-- Node5 -->
<g id="node5" class="node">
<title>Node5</title>
<g id="a_node5"><a xlink:href="classgpuNUFFT_1_1GpuNUFFTOperator.html#a065bb3f71daa7a8eea80f786d0626f59" target="_top" xlink:title="Function to free the neccessary device memory used by the GriddingOperator.">
<polygon fill="none" stroke="black" points="219,-343 219,-373 377,-373 377,-343 219,-343"/>
<text text-anchor="start" x="227" y="-361" font-family="FreeSans.ttf" font-size="10.00">gpuNUFFT::GpuNUFFTOperator</text>
<text text-anchor="middle" x="298" y="-350" font-family="FreeSans.ttf" font-size="10.00">::freeDeviceMemory</text>
</a>
</g>
</g>
<!-- Node4&#45;&gt;Node5 -->
<g id="edge4" class="edge">
<title>Node4&#45;&gt;Node5</title>
<path fill="none" stroke="midnightblue" d="M492.61,-219.39C471.01,-252.22 425.43,-318.93 402,-334 394.36,-338.92 385.82,-342.83 377.02,-345.94"/>
<polygon fill="midnightblue" stroke="midnightblue" points="495.72,-221.02 498.25,-210.74 489.86,-217.2 495.72,-221.02"/>
</g>
<!-- Node7 -->
<g id="node7" class="node">
<title>Node7</title>
<g id="a_node7"><a xlink:href="classgpuNUFFT_1_1BalancedGpuNUFFTOperator.html#a3b8fe03dd1e0e8b68eba22e42e1e032b" target="_top" xlink:title="Perform forward gridding operation on given kspaceData.">
<polygon fill="none" stroke="black" points="198.5,-294 198.5,-324 397.5,-324 397.5,-294 198.5,-294"/>
<text text-anchor="start" x="206.5" y="-312" font-family="FreeSans.ttf" font-size="10.00">gpuNUFFT::BalancedGpuNUFFTOperator</text>
<text text-anchor="middle" x="298" y="-301" font-family="FreeSans.ttf" font-size="10.00">::performForwardGpuNUFFT</text>
</a>
</g>
</g>
<!-- Node4&#45;&gt;Node7 -->
<g id="edge6" class="edge">
<title>Node4&#45;&gt;Node7</title>
<path fill="none" stroke="midnightblue" d="M488.49,-218.2C469.63,-237.4 436.49,-268.01 402,-285 395,-288.45 387.49,-291.41 379.82,-293.96"/>
<polygon fill="midnightblue" stroke="midnightblue" points="491.25,-220.38 495.66,-210.74 486.2,-215.53 491.25,-220.38"/>
</g>
<!-- Node8 -->
<g id="node8" class="node">
<title>Node8</title>
<g id="a_node8"><a xlink:href="classgpuNUFFT_1_1BalancedTextureGpuNUFFTOperator.html#a8e0514f6dea51134ad49aaeb6c29ac5b" target="_top" xlink:title="Perform forward gridding operation on given kspaceData.">
<polygon fill="none" stroke="black" points="209,-234.5 209,-275.5 387,-275.5 387,-234.5 209,-234.5"/>
<text text-anchor="start" x="217" y="-263.5" font-family="FreeSans.ttf" font-size="10.00">gpuNUFFT::BalancedTexture</text>
<text text-anchor="start" x="217" y="-252.5" font-family="FreeSans.ttf" font-size="10.00">GpuNUFFTOperator::performForward</text>
<text text-anchor="middle" x="298" y="-241.5" font-family="FreeSans.ttf" font-size="10.00">GpuNUFFT</text>
</a>
</g>
</g>
<!-- Node4&#45;&gt;Node8 -->
<g id="edge7" class="edge">
<title>Node4&#45;&gt;Node8</title>
<path fill="none" stroke="midnightblue" d="M458.36,-213.13C434.4,-219.42 404.47,-227.28 377.04,-234.49"/>
<polygon fill="midnightblue" stroke="midnightblue" points="459.45,-216.46 468.23,-210.53 457.67,-209.69 459.45,-216.46"/>
</g>
<!-- Node9 -->
<g id="node9" class="node">
<title>Node9</title>
<g id="a_node9"><a xlink:href="classgpuNUFFT_1_1GpuNUFFTOperator.html#ada5bb598b923ca3e92e987982f3d0d5b" target="_top" xlink:title="Perform forward gridding operation on kspaceData already residing in GPU memory.">
<polygon fill="none" stroke="black" points="219,-186 219,-216 377,-216 377,-186 219,-186"/>
<text text-anchor="start" x="227" y="-204" font-family="FreeSans.ttf" font-size="10.00">gpuNUFFT::GpuNUFFTOperator</text>
<text text-anchor="middle" x="298" y="-193" font-family="FreeSans.ttf" font-size="10.00">::performForwardGpuNUFFT</text>
</a>
</g>
</g>
<!-- Node4&#45;&gt;Node9 -->
<g id="edge8" class="edge">
<title>Node4&#45;&gt;Node9</title>
<path fill="none" stroke="midnightblue" d="M435.67,-201C416.92,-201 396.48,-201 377.25,-201"/>
<polygon fill="midnightblue" stroke="midnightblue" points="435.89,-204.5 445.89,-201 435.89,-197.5 435.89,-204.5"/>
</g>
<!-- Node10 -->
<g id="node10" class="node">
<title>Node10</title>
<g id="a_node10"><a xlink:href="classgpuNUFFT_1_1BalancedGpuNUFFTOperator.html#ada71d183719d9375226352e90ff22194" target="_top" xlink:title="Perform Adjoint gridding operation on given kspaceData.">
<polygon fill="none" stroke="black" points="198.5,-137 198.5,-167 397.5,-167 397.5,-137 198.5,-137"/>
<text text-anchor="start" x="206.5" y="-155" font-family="FreeSans.ttf" font-size="10.00">gpuNUFFT::BalancedGpuNUFFTOperator</text>
<text text-anchor="middle" x="298" y="-144" font-family="FreeSans.ttf" font-size="10.00">::performGpuNUFFTAdj</text>
</a>
</g>
</g>
<!-- Node4&#45;&gt;Node10 -->
<g id="edge9" class="edge">
<title>Node4&#45;&gt;Node10</title>
<path fill="none" stroke="midnightblue" d="M454.48,-189.07C426.65,-182.44 391.75,-174.11 362.06,-167.04"/>
<polygon fill="midnightblue" stroke="midnightblue" points="453.85,-192.52 464.39,-191.44 455.47,-185.71 453.85,-192.52"/>
</g>
<!-- Node11 -->
<g id="node11" class="node">
<title>Node11</title>
<g id="a_node11"><a xlink:href="classgpuNUFFT_1_1BalancedTextureGpuNUFFTOperator.html#a1bbc427b1d73850b6025eb52b417174b" target="_top" xlink:title="Perform Adjoint gridding operation on given kspaceData.">
<polygon fill="none" stroke="black" points="194,-88 194,-118 402,-118 402,-88 194,-88"/>
<text text-anchor="start" x="202" y="-106" font-family="FreeSans.ttf" font-size="10.00">gpuNUFFT::BalancedTexture</text>
<text text-anchor="middle" x="298" y="-95" font-family="FreeSans.ttf" font-size="10.00">GpuNUFFTOperator::performGpuNUFFTAdj</text>
</a>
</g>
</g>
<!-- Node4&#45;&gt;Node11 -->
<g id="edge10" class="edge">
<title>Node4&#45;&gt;Node11</title>
<path fill="none" stroke="midnightblue" d="M486.22,-184.66C466.7,-168.04 434.2,-142.71 402,-128 393.55,-124.14 384.42,-120.83 375.22,-118"/>
<polygon fill="midnightblue" stroke="midnightblue" points="484.14,-187.49 493.99,-191.4 488.73,-182.2 484.14,-187.49"/>
</g>
<!-- Node12 -->
<g id="node12" class="node">
<title>Node12</title>
<g id="a_node12"><a xlink:href="classgpuNUFFT_1_1GpuNUFFTOperator.html#a89e40ec1b777c8033bbc933c6535078c" target="_top" xlink:title="Perform Adjoint gridding operation on kspaceData already residing in GPU memory.">
<polygon fill="none" stroke="black" points="219,-39 219,-69 377,-69 377,-39 219,-39"/>
<text text-anchor="start" x="227" y="-57" font-family="FreeSans.ttf" font-size="10.00">gpuNUFFT::GpuNUFFTOperator</text>
<text text-anchor="middle" x="298" y="-46" font-family="FreeSans.ttf" font-size="10.00">::performGpuNUFFTAdj</text>
</a>
</g>
</g>
<!-- Node4&#45;&gt;Node12 -->
<g id="edge11" class="edge">
<title>Node4&#45;&gt;Node12</title>
<path fill="none" stroke="midnightblue" d="M494.17,-182.43C478.1,-155.34 444.51,-105.36 402,-79 394.34,-74.25 385.83,-70.4 377.09,-67.28"/>
<polygon fill="midnightblue" stroke="midnightblue" points="491.25,-184.37 499.28,-191.28 497.31,-180.87 491.25,-184.37"/>
</g>
<!-- Node13 -->
<g id="node13" class="node">
<title>Node13</title>
<g id="a_node13"><a xlink:href="gpuNUFFT__fft__tests_8cpp.html#a91d5133a5dfb2043009e4af924399fba" target="_top" xlink:title=" ">
<polygon fill="none" stroke="black" points="277.5,-0.5 277.5,-19.5 318.5,-19.5 318.5,-0.5 277.5,-0.5"/>
<text text-anchor="middle" x="298" y="-7.5" font-family="FreeSans.ttf" font-size="10.00">TEST</text>
</a>
</g>
</g>
<!-- Node4&#45;&gt;Node13 -->
<g id="edge12" class="edge">
<title>Node4&#45;&gt;Node13</title>
<path fill="none" stroke="midnightblue" d="M498.71,-181.5C486.91,-145.36 456.46,-68.17 402,-30 377.09,-12.54 340.85,-9.35 318.66,-9.24"/>
<polygon fill="midnightblue" stroke="midnightblue" points="495.45,-182.82 501.78,-191.31 502.14,-180.73 495.45,-182.82"/>
</g>
<!-- Node6 -->
<g id="node6" class="node">
<title>Node6</title>
<g id="a_node6"><a xlink:href="classgpuNUFFT_1_1GpuNUFFTOperator.html#acf8b3aa450f554ebd8130c11d7c8233e" target="_top" xlink:title=" ">
<polygon fill="none" stroke="black" points="0,-343 0,-373 158,-373 158,-343 0,-343"/>
<text text-anchor="start" x="8" y="-361" font-family="FreeSans.ttf" font-size="10.00">gpuNUFFT::GpuNUFFTOperator</text>
<text text-anchor="middle" x="79" y="-350" font-family="FreeSans.ttf" font-size="10.00">::~GpuNUFFTOperator</text>
</a>
</g>
</g>
<!-- Node5&#45;&gt;Node6 -->
<g id="edge5" class="edge">
<title>Node5&#45;&gt;Node6</title>
<path fill="none" stroke="midnightblue" d="M208.64,-358C191.89,-358 174.48,-358 158.07,-358"/>
<polygon fill="midnightblue" stroke="midnightblue" points="208.96,-361.5 218.96,-358 208.96,-354.5 208.96,-361.5"/>
</g>
</g>
</svg>
