<?xml version="1.0" encoding="UTF-8" standalone="no"?>
<!DOCTYPE svg PUBLIC "-//W3C//DTD SVG 1.1//EN"
 "http://www.w3.org/Graphics/SVG/1.1/DTD/svg11.dtd">
<!-- Generated by graphviz version 2.49.3 (20211027.1534)
 -->
<!-- Title: CUDA/test Pages: 1 -->
<svg width="182pt" height="175pt"
 viewBox="0.00 0.00 182.00 175.00" xmlns="http://www.w3.org/2000/svg" xmlns:xlink="http://www.w3.org/1999/xlink">
<g id="graph0" class="graph" transform="scale(1 1) rotate(0) translate(4 171)">
<title>CUDA/test</title>
<g id="clust1" class="cluster">
<title>clusterdir_ff42a09433eb749dc5553c3aaf33faf9</title>
<g id="a_clust1"><a xlink:href="dir_ff42a09433eb749dc5553c3aaf33faf9.html" target="_top" xlink:title="CUDA">
<polygon fill="#ddddee" stroke="black" points="8,-8 8,-159 166,-159 166,-8 8,-8"/>
<text text-anchor="middle" x="87" y="-147" font-family="FreeSans.ttf" font-size="10.00">CUDA</text>
</a>
</g>
</g>
<g id="clust2" class="cluster">
<title>clusterdir_3b5b0cac12435d393610ecb518b3a48c</title>
<g id="a_clust2"><a xlink:href="dir_3b5b0cac12435d393610ecb518b3a48c.html" target="_top">
<polygon fill="#eeeeff" stroke="black" points="16,-80 16,-132 158,-132 158,-80 16,-80"/>
</a>
</g>
</g>
<!-- dir_c863ecbbd4d48a925581f0bde02b7064 -->
<g id="node1" class="node">
<title>dir_c863ecbbd4d48a925581f0bde02b7064</title>
<g id="a_node1"><a xlink:href="dir_c863ecbbd4d48a925581f0bde02b7064.html" target="_top" xlink:title="inc">
<polygon fill="none" stroke="black" points="78,-52 24,-52 24,-16 78,-16 78,-52"/>
<text text-anchor="middle" x="51" y="-31.5" font-family="FreeSans.ttf" font-size="10.00">inc</text>
</a>
</g>
</g>
<!-- dir_3b5b0cac12435d393610ecb518b3a48c -->
<g id="node2" class="node">
<title>dir_3b5b0cac12435d393610ecb518b3a48c</title>
<text text-anchor="middle" x="123" y="-103.5" font-family="FreeSans.ttf" font-size="10.00">test</text>
</g>
<!-- dir_7911aa6fb0d8479f56752171472417c4 -->
<g id="node3" class="node">
<title>dir_7911aa6fb0d8479f56752171472417c4</title>
<g id="a_node3"><a xlink:href="dir_7911aa6fb0d8479f56752171472417c4.html" target="_top" xlink:title="gpu">
<polygon fill="white" stroke="red" points="78,-124 24,-124 24,-88 78,-88 78,-124"/>
<text text-anchor="middle" x="51" y="-103.5" font-family="FreeSans.ttf" font-size="10.00">gpu</text>
</a>
</g>
</g>
<!-- dir_7911aa6fb0d8479f56752171472417c4&#45;&gt;dir_c863ecbbd4d48a925581f0bde02b7064 -->
<g id="edge1" class="edge">
<title>dir_7911aa6fb0d8479f56752171472417c4&#45;&gt;dir_c863ecbbd4d48a925581f0bde02b7064</title>
<path fill="none" stroke="black" d="M51,-87.7C51,-79.98 51,-70.71 51,-62.11"/>
<polygon fill="black" stroke="black" points="54.5,-62.1 51,-52.1 47.5,-62.1 54.5,-62.1"/>
<g id="a_edge1&#45;headlabel"><a xlink:href="dir_000005_000001.html" target="_top" xlink:title="5">
<text text-anchor="middle" x="57.34" y="-63.2" font-family="FreeSans.ttf" font-size="10.00">5</text>
</a>
</g>
</g>
</g>
</svg>
