<?xml version="1.0" encoding="UTF-8" standalone="no"?>
<!DOCTYPE svg PUBLIC "-//W3C//DTD SVG 1.1//EN"
 "http://www.w3.org/Graphics/SVG/1.1/DTD/svg11.dtd">
<!-- Generated by graphviz version 2.49.3 (20211027.1534)
 -->
<!-- Title: python/inc Pages: 1 -->
<svg width="94pt" height="151pt"
 viewBox="0.00 0.00 94.00 151.00" xmlns="http://www.w3.org/2000/svg" xmlns:xlink="http://www.w3.org/1999/xlink">
<g id="graph0" class="graph" transform="scale(1 1) rotate(0) translate(4 147)">
<title>python/inc</title>
<g id="clust1" class="cluster">
<title>clusterdir_7837fde3ab9c1fb2fc5be7b717af8d79</title>
<g id="a_clust1"><a xlink:href="dir_7837fde3ab9c1fb2fc5be7b717af8d79.html" target="_top" xlink:title="python">
<polygon fill="#ddddee" stroke="black" points="8,-64 8,-135 78,-135 78,-64 8,-64"/>
<text text-anchor="middle" x="43" y="-123" font-family="FreeSans.ttf" font-size="10.00">python</text>
</a>
</g>
</g>
<!-- dir_40e69006a8833d43b806348207eb6f4a -->
<g id="node1" class="node">
<title>dir_40e69006a8833d43b806348207eb6f4a</title>
<g id="a_node1"><a xlink:href="dir_40e69006a8833d43b806348207eb6f4a.html" target="_top" xlink:title="inc">
<polygon fill="#eeeeff" stroke="black" points="70,-108 16,-108 16,-72 70,-72 70,-108"/>
<text text-anchor="middle" x="43" y="-87.5" font-family="FreeSans.ttf" font-size="10.00">inc</text>
</a>
</g>
</g>
<!-- dir_ff42a09433eb749dc5553c3aaf33faf9 -->
<g id="node2" class="node">
<title>dir_ff42a09433eb749dc5553c3aaf33faf9</title>
<g id="a_node2"><a xlink:href="dir_ff42a09433eb749dc5553c3aaf33faf9.html" target="_top" xlink:title="CUDA">
<polygon fill="none" stroke="red" points="70,-36 16,-36 16,0 70,0 70,-36"/>
<text text-anchor="middle" x="43" y="-15.5" font-family="FreeSans.ttf" font-size="10.00">CUDA</text>
</a>
</g>
</g>
<!-- dir_40e69006a8833d43b806348207eb6f4a&#45;&gt;dir_ff42a09433eb749dc5553c3aaf33faf9 -->
<g id="edge1" class="edge">
<title>dir_40e69006a8833d43b806348207eb6f4a&#45;&gt;dir_ff42a09433eb749dc5553c3aaf33faf9</title>
<path fill="none" stroke="black" d="M43,-71.7C43,-63.98 43,-54.71 43,-46.11"/>
<polygon fill="black" stroke="black" points="46.5,-46.1 43,-36.1 39.5,-46.1 46.5,-46.1"/>
<g id="a_edge1&#45;headlabel"><a xlink:href="dir_000009_000000.html" target="_top" xlink:title="2">
<text text-anchor="middle" x="49.34" y="-47.2" font-family="FreeSans.ttf" font-size="10.00">2</text>
</a>
</g>
</g>
</g>
</svg>
