<?xml version="1.0" encoding="UTF-8" standalone="no"?>
<!DOCTYPE svg PUBLIC "-//W3C//DTD SVG 1.1//EN"
 "http://www.w3.org/Graphics/SVG/1.1/DTD/svg11.dtd">
<!-- Generated by graphviz version 2.49.3 (20211027.1534)
 -->
<!-- Title: CUDA/inc/gpuNUFFT_operator.hpp Pages: 1 -->
<svg width="1571pt" height="352pt"
 viewBox="0.00 0.00 1571.31 352.00" xmlns="http://www.w3.org/2000/svg" xmlns:xlink="http://www.w3.org/1999/xlink">
<g id="graph0" class="graph" transform="scale(1 1) rotate(0) translate(4 348)">
<title>CUDA/inc/gpuNUFFT_operator.hpp</title>
<!-- Node1 -->
<g id="node1" class="node">
<title>Node1</title>
<g id="a_node1"><a xlink:title=" ">
<polygon fill="#bfbfbf" stroke="black" points="312.81,-324.5 312.81,-343.5 482.81,-343.5 482.81,-324.5 312.81,-324.5"/>
<text text-anchor="middle" x="397.81" y="-331.5" font-family="FreeSans.ttf" font-size="10.00">CUDA/inc/gpuNUFFT_operator.hpp</text>
</a>
</g>
</g>
<!-- Node2 -->
<g id="node2" class="node">
<title>Node2</title>
<g id="a_node2"><a xlink:href="balanced__gpuNUFFT__operator_8hpp.html" target="_top" xlink:title=" ">
<polygon fill="none" stroke="black" points="483.81,-257.5 483.81,-287.5 639.81,-287.5 639.81,-257.5 483.81,-257.5"/>
<text text-anchor="start" x="491.81" y="-275.5" font-family="FreeSans.ttf" font-size="10.00">CUDA/inc/balanced_gpuNUFFT</text>
<text text-anchor="middle" x="561.81" y="-264.5" font-family="FreeSans.ttf" font-size="10.00">_operator.hpp</text>
</a>
</g>
</g>
<!-- Node1&#45;&gt;Node2 -->
<g id="edge1" class="edge">
<title>Node1&#45;&gt;Node2</title>
<path fill="none" stroke="midnightblue" d="M430.95,-320.98C457.61,-311.3 495.13,-297.69 523.16,-287.52"/>
<polygon fill="midnightblue" stroke="midnightblue" points="429.51,-317.77 421.3,-324.48 431.9,-324.35 429.51,-317.77"/>
</g>
<!-- Node3 -->
<g id="node3" class="node">
<title>Node3</title>
<g id="a_node3"><a xlink:href="gpuNUFFT__operator__factory_8hpp.html" target="_top" xlink:title=" ">
<polygon fill="none" stroke="black" points="685.81,-123.5 685.81,-153.5 837.81,-153.5 837.81,-123.5 685.81,-123.5"/>
<text text-anchor="start" x="693.81" y="-141.5" font-family="FreeSans.ttf" font-size="10.00">CUDA/inc/gpuNUFFT_operator</text>
<text text-anchor="middle" x="761.81" y="-130.5" font-family="FreeSans.ttf" font-size="10.00">_factory.hpp</text>
</a>
</g>
</g>
<!-- Node1&#45;&gt;Node3 -->
<g id="edge30" class="edge">
<title>Node1&#45;&gt;Node3</title>
<path fill="none" stroke="midnightblue" d="M493.1,-324.5C540.99,-318.1 599.22,-307.02 648.81,-288 701.55,-267.77 727.84,-269.5 756.81,-221 769.24,-200.19 767.29,-170.82 764.63,-153.61"/>
<polygon fill="midnightblue" stroke="midnightblue" points="492.52,-321.05 483.05,-325.8 493.41,-327.99 492.52,-321.05"/>
</g>
<!-- Node15 -->
<g id="node15" class="node">
<title>Node15</title>
<g id="a_node15"><a xlink:href="cuda__utils_8hpp.html" target="_top" xlink:title="Util functions for CUDA memory and texture management.">
<polygon fill="none" stroke="black" points="179.31,-263 179.31,-282 304.31,-282 304.31,-263 179.31,-263"/>
<text text-anchor="middle" x="241.81" y="-270" font-family="FreeSans.ttf" font-size="10.00">CUDA/inc/cuda_utils.hpp</text>
</a>
</g>
</g>
<!-- Node1&#45;&gt;Node15 -->
<g id="edge17" class="edge">
<title>Node1&#45;&gt;Node15</title>
<path fill="none" stroke="midnightblue" d="M365.77,-320.78C335.46,-309.22 290.74,-292.16 264.12,-282.01"/>
<polygon fill="midnightblue" stroke="midnightblue" points="364.87,-324.18 375.46,-324.48 367.36,-317.64 364.87,-324.18"/>
</g>
<!-- Node17 -->
<g id="node17" class="node">
<title>Node17</title>
<g id="a_node17"><a xlink:href="gpuNUFFT__operator_8cpp.html" target="_top" xlink:title=" ">
<polygon fill="none" stroke="black" points="33.31,-62 33.31,-81 204.31,-81 204.31,-62 33.31,-62"/>
<text text-anchor="middle" x="118.81" y="-69" font-family="FreeSans.ttf" font-size="10.00">CUDA/src/gpuNUFFT_operator.cpp</text>
</a>
</g>
</g>
<!-- Node1&#45;&gt;Node17 -->
<g id="edge39" class="edge">
<title>Node1&#45;&gt;Node17</title>
<path fill="none" stroke="midnightblue" d="M302.65,-324.56C251.07,-318.09 186.82,-306.93 131.81,-288 72.58,-267.61 39.89,-274.8 7.81,-221 -25.99,-164.33 65.52,-103.19 103.32,-81.09"/>
<polygon fill="midnightblue" stroke="midnightblue" points="302.44,-328.06 312.79,-325.79 303.28,-321.11 302.44,-328.06"/>
</g>
<!-- Node18 -->
<g id="node18" class="node">
<title>Node18</title>
<g id="a_node18"><a xlink:href="precomp__kernels_8hpp.html" target="_top" xlink:title="GPU Kernels for Precomputation (sector assignment)">
<polygon fill="none" stroke="black" points="278.31,-129 278.31,-148 433.31,-148 433.31,-129 278.31,-129"/>
<text text-anchor="middle" x="355.81" y="-136" font-family="FreeSans.ttf" font-size="10.00">CUDA/inc/precomp_kernels.hpp</text>
</a>
</g>
</g>
<!-- Node1&#45;&gt;Node18 -->
<g id="edge31" class="edge">
<title>Node1&#45;&gt;Node18</title>
<path fill="none" stroke="midnightblue" d="M393.8,-314.55C384.99,-273.94 364.18,-178.07 357.74,-148.41"/>
<polygon fill="midnightblue" stroke="midnightblue" points="390.41,-315.41 395.95,-324.44 397.25,-313.92 390.41,-315.41"/>
</g>
<!-- Node19 -->
<g id="node19" class="node">
<title>Node19</title>
<g id="a_node19"><a xlink:href="precomp__utils_8hpp.html" target="_top" xlink:title="UTIL functions for precomputation.">
<polygon fill="none" stroke="black" points="391.81,-196 391.81,-215 533.81,-215 533.81,-196 391.81,-196"/>
<text text-anchor="middle" x="462.81" y="-203" font-family="FreeSans.ttf" font-size="10.00">CUDA/inc/precomp_utils.hpp</text>
</a>
</g>
</g>
<!-- Node1&#45;&gt;Node19 -->
<g id="edge32" class="edge">
<title>Node1&#45;&gt;Node19</title>
<path fill="none" stroke="midnightblue" d="M406.85,-315.4C420.96,-287.94 447.7,-235.9 458.31,-215.26"/>
<polygon fill="midnightblue" stroke="midnightblue" points="403.73,-313.81 402.28,-324.31 409.96,-317.01 403.73,-313.81"/>
</g>
<!-- Node20 -->
<g id="node20" class="node">
<title>Node20</title>
<g id="a_node20"><a xlink:href="texture__gpuNUFFT__operator_8hpp.html" target="_top" xlink:title=" ">
<polygon fill="none" stroke="black" points="820.81,-257.5 820.81,-287.5 966.81,-287.5 966.81,-257.5 820.81,-257.5"/>
<text text-anchor="start" x="828.81" y="-275.5" font-family="FreeSans.ttf" font-size="10.00">CUDA/inc/texture_gpuNUFFT</text>
<text text-anchor="middle" x="893.81" y="-264.5" font-family="FreeSans.ttf" font-size="10.00">_operator.hpp</text>
</a>
</g>
</g>
<!-- Node1&#45;&gt;Node20 -->
<g id="edge33" class="edge">
<title>Node1&#45;&gt;Node20</title>
<path fill="none" stroke="midnightblue" d="M487.06,-323.38C566.56,-314.66 686.03,-301.19 789.81,-288 799.75,-286.74 810.23,-285.35 820.54,-283.94"/>
<polygon fill="midnightblue" stroke="midnightblue" points="486.64,-319.9 477.08,-324.47 487.41,-326.86 486.64,-319.9"/>
</g>
<!-- Node2&#45;&gt;Node3 -->
<g id="edge2" class="edge">
<title>Node2&#45;&gt;Node3</title>
<path fill="none" stroke="midnightblue" d="M561.21,-247.32C562.09,-229.26 566.26,-205.19 580.81,-190 607.89,-161.73 649.35,-148.87 685.76,-143.18"/>
<polygon fill="midnightblue" stroke="midnightblue" points="557.71,-247.33 561.02,-257.39 564.71,-247.46 557.71,-247.33"/>
</g>
<!-- Node14 -->
<g id="node14" class="node">
<title>Node14</title>
<g id="a_node14"><a xlink:href="balanced__gpuNUFFT__operator_8cpp.html" target="_top" xlink:title=" ">
<polygon fill="none" stroke="black" points="590.31,-190.5 590.31,-220.5 747.31,-220.5 747.31,-190.5 590.31,-190.5"/>
<text text-anchor="start" x="598.31" y="-208.5" font-family="FreeSans.ttf" font-size="10.00">CUDA/src/balanced_gpuNUFFT</text>
<text text-anchor="middle" x="668.81" y="-197.5" font-family="FreeSans.ttf" font-size="10.00">_operator.cpp</text>
</a>
</g>
</g>
<!-- Node2&#45;&gt;Node14 -->
<g id="edge16" class="edge">
<title>Node2&#45;&gt;Node14</title>
<path fill="none" stroke="midnightblue" d="M593.88,-252.02C610.53,-241.9 630.5,-229.77 645.64,-220.58"/>
<polygon fill="midnightblue" stroke="midnightblue" points="591.75,-249.21 585.02,-257.4 595.39,-255.2 591.75,-249.21"/>
</g>
<!-- Node4 -->
<g id="node4" class="node">
<title>Node4</title>
<g id="a_node4"><a xlink:href="gpuNUFFT__operator__factory_8cpp.html" target="_top" xlink:title=" ">
<polygon fill="none" stroke="black" points="278.31,-56.5 278.31,-86.5 431.31,-86.5 431.31,-56.5 278.31,-56.5"/>
<text text-anchor="start" x="286.31" y="-74.5" font-family="FreeSans.ttf" font-size="10.00">CUDA/src/gpuNUFFT_operator</text>
<text text-anchor="middle" x="354.81" y="-63.5" font-family="FreeSans.ttf" font-size="10.00">_factory.cpp</text>
</a>
</g>
</g>
<!-- Node3&#45;&gt;Node4 -->
<g id="edge3" class="edge">
<title>Node3&#45;&gt;Node4</title>
<path fill="none" stroke="midnightblue" d="M675.74,-123.75C603.44,-112.21 501.09,-95.86 431.55,-84.76"/>
<polygon fill="midnightblue" stroke="midnightblue" points="675.3,-127.23 685.73,-125.35 676.41,-120.32 675.3,-127.23"/>
</g>
<!-- Node5 -->
<g id="node5" class="node">
<title>Node5</title>
<g id="a_node5"><a xlink:href="gpuNUFFT__forward__tests_8cpp.html" target="_top" xlink:title=" ">
<polygon fill="none" stroke="black" points="1412.31,-56.5 1412.31,-86.5 1563.31,-86.5 1563.31,-56.5 1412.31,-56.5"/>
<text text-anchor="start" x="1420.31" y="-74.5" font-family="FreeSans.ttf" font-size="10.00">CUDA/test/gpu/forward</text>
<text text-anchor="middle" x="1487.81" y="-63.5" font-family="FreeSans.ttf" font-size="10.00">/gpuNUFFT_forward_tests.cpp</text>
</a>
</g>
</g>
<!-- Node3&#45;&gt;Node5 -->
<g id="edge4" class="edge">
<title>Node3&#45;&gt;Node5</title>
<path fill="none" stroke="midnightblue" d="M848.17,-123.05C1095.05,-94.97 1160.55,-115.44 1402.81,-87 1405.78,-86.65 1408.81,-86.27 1411.86,-85.86"/>
<polygon fill="midnightblue" stroke="midnightblue" points="847.72,-119.58 838.18,-124.21 848.52,-126.54 847.72,-119.58"/>
</g>
<!-- Node6 -->
<g id="node6" class="node">
<title>Node6</title>
<g id="a_node6"><a xlink:href="gpuNUFFT__2D__conv__tests_8cpp.html" target="_top" xlink:title=" ">
<polygon fill="none" stroke="black" points="651.81,-56.5 651.81,-86.5 785.81,-86.5 785.81,-56.5 651.81,-56.5"/>
<text text-anchor="start" x="659.81" y="-74.5" font-family="FreeSans.ttf" font-size="10.00">CUDA/test/gpu/gpuNUFFT</text>
<text text-anchor="middle" x="718.81" y="-63.5" font-family="FreeSans.ttf" font-size="10.00">_2D_conv_tests.cpp</text>
</a>
</g>
</g>
<!-- Node3&#45;&gt;Node6 -->
<g id="edge5" class="edge">
<title>Node3&#45;&gt;Node6</title>
<path fill="none" stroke="midnightblue" d="M746.83,-114.87C740.61,-105.46 733.58,-94.83 728.12,-86.58"/>
<polygon fill="midnightblue" stroke="midnightblue" points="744.04,-116.99 752.48,-123.4 749.88,-113.12 744.04,-116.99"/>
</g>
<!-- Node7 -->
<g id="node7" class="node">
<title>Node7</title>
<g id="a_node7"><a xlink:href="gpuNUFFT__conv__tests_8cpp.html" target="_top" xlink:title=" ">
<polygon fill="none" stroke="black" points="803.81,-56.5 803.81,-86.5 937.81,-86.5 937.81,-56.5 803.81,-56.5"/>
<text text-anchor="start" x="811.81" y="-74.5" font-family="FreeSans.ttf" font-size="10.00">CUDA/test/gpu/gpuNUFFT</text>
<text text-anchor="middle" x="870.81" y="-63.5" font-family="FreeSans.ttf" font-size="10.00">_conv_tests.cpp</text>
</a>
</g>
</g>
<!-- Node3&#45;&gt;Node7 -->
<g id="edge6" class="edge">
<title>Node3&#45;&gt;Node7</title>
<path fill="none" stroke="midnightblue" d="M794.48,-118.02C811.44,-107.9 831.79,-95.77 847.2,-86.58"/>
<polygon fill="midnightblue" stroke="midnightblue" points="792.26,-115.27 785.46,-123.4 795.84,-121.28 792.26,-115.27"/>
</g>
<!-- Node8 -->
<g id="node8" class="node">
<title>Node8</title>
<g id="a_node8"><a xlink:href="gpuNUFFT__deapo__tests_8cpp.html" target="_top" xlink:title=" ">
<polygon fill="none" stroke="black" points="955.81,-56.5 955.81,-86.5 1089.81,-86.5 1089.81,-56.5 955.81,-56.5"/>
<text text-anchor="start" x="963.81" y="-74.5" font-family="FreeSans.ttf" font-size="10.00">CUDA/test/gpu/gpuNUFFT</text>
<text text-anchor="middle" x="1022.81" y="-63.5" font-family="FreeSans.ttf" font-size="10.00">_deapo_tests.cpp</text>
</a>
</g>
</g>
<!-- Node3&#45;&gt;Node8 -->
<g id="edge7" class="edge">
<title>Node3&#45;&gt;Node8</title>
<path fill="none" stroke="midnightblue" d="M827.85,-121.05C870.52,-110.43 925.47,-96.74 966.15,-86.61"/>
<polygon fill="midnightblue" stroke="midnightblue" points="826.98,-117.66 818.12,-123.48 828.67,-124.46 826.98,-117.66"/>
</g>
<!-- Node9 -->
<g id="node9" class="node">
<title>Node9</title>
<g id="a_node9"><a xlink:href="gpuNUFFT__fft__tests_8cpp.html" target="_top" xlink:title=" ">
<polygon fill="none" stroke="black" points="1259.81,-56.5 1259.81,-86.5 1393.81,-86.5 1393.81,-56.5 1259.81,-56.5"/>
<text text-anchor="start" x="1267.81" y="-74.5" font-family="FreeSans.ttf" font-size="10.00">CUDA/test/gpu/gpuNUFFT</text>
<text text-anchor="middle" x="1326.81" y="-63.5" font-family="FreeSans.ttf" font-size="10.00">_fft_tests.cpp</text>
</a>
</g>
</g>
<!-- Node3&#45;&gt;Node9 -->
<g id="edge8" class="edge">
<title>Node3&#45;&gt;Node9</title>
<path fill="none" stroke="midnightblue" d="M848.24,-123.02C1027.88,-100.45 1075.93,-111.43 1250.81,-87 1253.73,-86.59 1256.72,-86.15 1259.73,-85.67"/>
<polygon fill="midnightblue" stroke="midnightblue" points="847.67,-119.57 838.19,-124.3 848.56,-126.51 847.67,-119.57"/>
</g>
<!-- Node10 -->
<g id="node10" class="node">
<title>Node10</title>
<g id="a_node10"><a xlink:href="python__factory_8hpp.html" target="_top" xlink:title=" ">
<polygon fill="none" stroke="black" points="488.31,-62 488.31,-81 633.31,-81 633.31,-62 488.31,-62"/>
<text text-anchor="middle" x="560.81" y="-69" font-family="FreeSans.ttf" font-size="10.00">python/inc/python_factory.hpp</text>
</a>
</g>
</g>
<!-- Node3&#45;&gt;Node10 -->
<g id="edge9" class="edge">
<title>Node3&#45;&gt;Node10</title>
<path fill="none" stroke="midnightblue" d="M708.52,-120.27C669.36,-107.6 617.81,-90.93 587.11,-81.01"/>
<polygon fill="midnightblue" stroke="midnightblue" points="707.6,-123.65 718.19,-123.4 709.76,-116.99 707.6,-123.65"/>
</g>
<!-- Node12 -->
<g id="node12" class="node">
<title>Node12</title>
<g id="a_node12"><a xlink:href="python__factory_8cpp.html" target="_top" xlink:title=" ">
<polygon fill="none" stroke="black" points="436.81,-0.5 436.81,-19.5 582.81,-19.5 582.81,-0.5 436.81,-0.5"/>
<text text-anchor="middle" x="509.81" y="-7.5" font-family="FreeSans.ttf" font-size="10.00">python/src/python_factory.cpp</text>
</a>
</g>
</g>
<!-- Node3&#45;&gt;Node12 -->
<g id="edge15" class="edge">
<title>Node3&#45;&gt;Node12</title>
<path fill="none" stroke="midnightblue" d="M675.27,-133.92C601.49,-128.83 503.56,-116.56 478.81,-87 461.61,-66.46 486.39,-35.1 500.77,-19.89"/>
<polygon fill="midnightblue" stroke="midnightblue" points="675.3,-137.43 685.51,-134.59 675.76,-130.44 675.3,-137.43"/>
</g>
<!-- Node13 -->
<g id="node13" class="node">
<title>Node13</title>
<g id="a_node13"><a xlink:href="python__utils_8hpp.html" target="_top" xlink:title=" ">
<polygon fill="none" stroke="black" points="1107.81,-62 1107.81,-81 1241.81,-81 1241.81,-62 1107.81,-62"/>
<text text-anchor="middle" x="1174.81" y="-69" font-family="FreeSans.ttf" font-size="10.00">python/inc/python_utils.hpp</text>
</a>
</g>
</g>
<!-- Node3&#45;&gt;Node13 -->
<g id="edge12" class="edge">
<title>Node3&#45;&gt;Node13</title>
<path fill="none" stroke="midnightblue" d="M848.28,-122.96C960.84,-105.61 990.8,-105.04 1098.81,-87 1109.54,-85.21 1121.09,-83.1 1131.86,-81.05"/>
<polygon fill="midnightblue" stroke="midnightblue" points="847.57,-119.52 838.22,-124.52 848.64,-126.44 847.57,-119.52"/>
</g>
<!-- Node11 -->
<g id="node11" class="node">
<title>Node11</title>
<g id="a_node11"><a xlink:href="python__bindings_8cpp.html" target="_top" xlink:title=" ">
<polygon fill="none" stroke="black" points="849.81,-0.5 849.81,-19.5 1001.81,-19.5 1001.81,-0.5 849.81,-0.5"/>
<text text-anchor="middle" x="925.81" y="-7.5" font-family="FreeSans.ttf" font-size="10.00">python/src/python_bindings.cpp</text>
</a>
</g>
</g>
<!-- Node10&#45;&gt;Node11 -->
<g id="edge10" class="edge">
<title>Node10&#45;&gt;Node11</title>
<path fill="none" stroke="midnightblue" d="M618.38,-60.19C626.57,-58.76 634.9,-57.33 642.81,-56 721.8,-42.74 813.37,-28.36 870.45,-19.51"/>
<polygon fill="midnightblue" stroke="midnightblue" points="617.72,-56.75 608.48,-61.93 618.93,-63.65 617.72,-56.75"/>
</g>
<!-- Node10&#45;&gt;Node12 -->
<g id="edge11" class="edge">
<title>Node10&#45;&gt;Node12</title>
<path fill="none" stroke="midnightblue" d="M546.81,-54.17C537.19,-42.95 524.82,-28.52 517.1,-19.51"/>
<polygon fill="midnightblue" stroke="midnightblue" points="544.34,-56.66 553.5,-61.98 549.65,-52.1 544.34,-56.66"/>
</g>
<!-- Node13&#45;&gt;Node11 -->
<g id="edge13" class="edge">
<title>Node13&#45;&gt;Node11</title>
<path fill="none" stroke="midnightblue" d="M1129.25,-59.61C1080.92,-48.07 1005.58,-30.06 961.42,-19.51"/>
<polygon fill="midnightblue" stroke="midnightblue" points="1128.59,-63.06 1139.13,-61.98 1130.22,-56.25 1128.59,-63.06"/>
</g>
<!-- Node13&#45;&gt;Node12 -->
<g id="edge14" class="edge">
<title>Node13&#45;&gt;Node12</title>
<path fill="none" stroke="midnightblue" d="M1124.76,-60.13C1116.13,-58.57 1107.23,-57.12 1098.81,-56 914.04,-31.4 694.75,-19.05 583.08,-13.95"/>
<polygon fill="midnightblue" stroke="midnightblue" points="1124.24,-63.59 1134.71,-61.98 1125.52,-56.71 1124.24,-63.59"/>
</g>
<!-- Node15&#45;&gt;Node3 -->
<g id="edge21" class="edge">
<title>Node15&#45;&gt;Node3</title>
<path fill="none" stroke="midnightblue" d="M261.41,-256.79C287.59,-237.97 336.12,-205.9 382.81,-190 483.97,-155.54 607.79,-144.45 685.76,-140.97"/>
<polygon fill="midnightblue" stroke="midnightblue" points="259.13,-254.13 253.12,-262.85 263.26,-259.78 259.13,-254.13"/>
</g>
<!-- Node15&#45;&gt;Node12 -->
<g id="edge29" class="edge">
<title>Node15&#45;&gt;Node12</title>
<path fill="none" stroke="midnightblue" d="M237.66,-252.76C229.67,-211.24 217.19,-110.81 268.81,-56 291.31,-32.1 374.19,-20.67 436.52,-15.35"/>
<polygon fill="midnightblue" stroke="midnightblue" points="234.24,-253.53 239.69,-262.62 241.1,-252.12 234.24,-253.53"/>
</g>
<!-- Node16 -->
<g id="node16" class="node">
<title>Node16</title>
<g id="a_node16"><a xlink:href="gpuNUFFT__kernels_8hpp.html" target="_top" xlink:title="gpuNUFFT CUDA function prototypes">
<polygon fill="none" stroke="black" points="17.31,-196 17.31,-215 184.31,-215 184.31,-196 17.31,-196"/>
<text text-anchor="middle" x="100.81" y="-203" font-family="FreeSans.ttf" font-size="10.00">CUDA/inc/gpuNUFFT_kernels.hpp</text>
</a>
</g>
</g>
<!-- Node15&#45;&gt;Node16 -->
<g id="edge18" class="edge">
<title>Node15&#45;&gt;Node16</title>
<path fill="none" stroke="midnightblue" d="M213.85,-258.61C185.93,-245.74 143.77,-226.31 119.61,-215.17"/>
<polygon fill="midnightblue" stroke="midnightblue" points="212.54,-261.86 223.08,-262.87 215.47,-255.5 212.54,-261.86"/>
</g>
<!-- Node15&#45;&gt;Node17 -->
<g id="edge28" class="edge">
<title>Node15&#45;&gt;Node17</title>
<path fill="none" stroke="midnightblue" d="M231.34,-253.85C221.49,-237.3 206.28,-211.89 192.81,-190 167.54,-148.94 136.59,-100.32 124.25,-81.01"/>
<polygon fill="midnightblue" stroke="midnightblue" points="228.6,-256.09 236.72,-262.9 234.62,-252.51 228.6,-256.09"/>
</g>
<!-- Node15&#45;&gt;Node18 -->
<g id="edge22" class="edge">
<title>Node15&#45;&gt;Node18</title>
<path fill="none" stroke="midnightblue" d="M255.69,-255.26C269.79,-238.79 292.27,-212.58 311.81,-190 324.59,-175.23 339.54,-158.09 348.32,-148.06"/>
<polygon fill="midnightblue" stroke="midnightblue" points="252.99,-253.04 249.14,-262.92 258.31,-257.6 252.99,-253.04"/>
</g>
<!-- Node15&#45;&gt;Node19 -->
<g id="edge25" class="edge">
<title>Node15&#45;&gt;Node19</title>
<path fill="none" stroke="midnightblue" d="M280.87,-260.01C324.61,-247.15 394.49,-226.59 433.69,-215.06"/>
<polygon fill="midnightblue" stroke="midnightblue" points="279.76,-256.69 271.15,-262.87 281.74,-263.4 279.76,-256.69"/>
</g>
<!-- Node16&#45;&gt;Node1 -->
<g id="edge19" class="edge">
<title>Node16&#45;&gt;Node1</title>
<path fill="none" stroke="midnightblue" d="M110.55,-223.83C122.13,-242.74 143.27,-272.4 169.81,-288 212.85,-313.31 267.55,-324.66 312.59,-329.64"/>
<polygon fill="midnightblue" stroke="midnightblue" points="113.47,-221.9 105.39,-215.06 107.44,-225.45 113.47,-221.9"/>
</g>
<!-- Node16&#45;&gt;Node17 -->
<g id="edge20" class="edge">
<title>Node16&#45;&gt;Node17</title>
<path fill="none" stroke="midnightblue" d="M103.36,-185.78C107.32,-156.75 114.78,-102.04 117.65,-81.02"/>
<polygon fill="midnightblue" stroke="midnightblue" points="99.87,-185.46 101.99,-195.84 106.81,-186.4 99.87,-185.46"/>
</g>
<!-- Node18&#45;&gt;Node4 -->
<g id="edge24" class="edge">
<title>Node18&#45;&gt;Node4</title>
<path fill="none" stroke="midnightblue" d="M355.51,-118.41C355.36,-108.22 355.17,-95.9 355.02,-86.59"/>
<polygon fill="midnightblue" stroke="midnightblue" points="352.02,-118.79 355.67,-128.73 359.02,-118.68 352.02,-118.79"/>
</g>
<!-- Node18&#45;&gt;Node17 -->
<g id="edge23" class="edge">
<title>Node18&#45;&gt;Node17</title>
<path fill="none" stroke="midnightblue" d="M314.5,-126.17C267.64,-113.32 192.25,-92.64 150.03,-81.06"/>
<polygon fill="midnightblue" stroke="midnightblue" points="313.77,-129.6 324.34,-128.87 315.62,-122.85 313.77,-129.6"/>
</g>
<!-- Node19&#45;&gt;Node3 -->
<g id="edge26" class="edge">
<title>Node19&#45;&gt;Node3</title>
<path fill="none" stroke="midnightblue" d="M512.24,-193.75C562.81,-182.76 641.63,-165.63 697.14,-153.56"/>
<polygon fill="midnightblue" stroke="midnightblue" points="511.23,-190.39 502.2,-195.94 512.72,-197.23 511.23,-190.39"/>
</g>
<!-- Node19&#45;&gt;Node18 -->
<g id="edge27" class="edge">
<title>Node19&#45;&gt;Node18</title>
<path fill="none" stroke="midnightblue" d="M439.67,-190.44C418.48,-177.57 387.79,-158.93 370.01,-148.13"/>
<polygon fill="midnightblue" stroke="midnightblue" points="438.01,-193.53 448.38,-195.73 441.65,-187.55 438.01,-193.53"/>
</g>
<!-- Node20&#45;&gt;Node3 -->
<g id="edge37" class="edge">
<title>Node20&#45;&gt;Node3</title>
<path fill="none" stroke="midnightblue" d="M867.73,-250.97C856.92,-242.1 844.44,-231.38 833.81,-221 810.98,-198.71 786.91,-170.33 773.19,-153.62"/>
<polygon fill="midnightblue" stroke="midnightblue" points="865.64,-253.78 875.62,-257.36 870.05,-248.34 865.64,-253.78"/>
</g>
<!-- Node21 -->
<g id="node21" class="node">
<title>Node21</title>
<g id="a_node21"><a xlink:href="balanced__texture__gpuNUFFT__operator_8hpp.html" target="_top" xlink:title=" ">
<polygon fill="none" stroke="black" points="842.31,-190.5 842.31,-220.5 979.31,-220.5 979.31,-190.5 842.31,-190.5"/>
<text text-anchor="start" x="850.31" y="-208.5" font-family="FreeSans.ttf" font-size="10.00">CUDA/inc/balanced_texture</text>
<text text-anchor="middle" x="910.81" y="-197.5" font-family="FreeSans.ttf" font-size="10.00">_gpuNUFFT_operator.hpp</text>
</a>
</g>
</g>
<!-- Node20&#45;&gt;Node21 -->
<g id="edge34" class="edge">
<title>Node20&#45;&gt;Node21</title>
<path fill="none" stroke="midnightblue" d="M900.03,-247.7C902.42,-238.59 905.06,-228.49 907.13,-220.58"/>
<polygon fill="midnightblue" stroke="midnightblue" points="896.64,-246.84 897.5,-257.4 903.41,-248.61 896.64,-246.84"/>
</g>
<!-- Node23 -->
<g id="node23" class="node">
<title>Node23</title>
<g id="a_node23"><a xlink:href="texture__gpuNUFFT__operator_8cpp.html" target="_top" xlink:title=" ">
<polygon fill="none" stroke="black" points="997.31,-190.5 997.31,-220.5 1144.31,-220.5 1144.31,-190.5 997.31,-190.5"/>
<text text-anchor="start" x="1005.31" y="-208.5" font-family="FreeSans.ttf" font-size="10.00">CUDA/src/texture_gpuNUFFT</text>
<text text-anchor="middle" x="1070.81" y="-197.5" font-family="FreeSans.ttf" font-size="10.00">_operator.cpp</text>
</a>
</g>
</g>
<!-- Node20&#45;&gt;Node23 -->
<g id="edge38" class="edge">
<title>Node20&#45;&gt;Node23</title>
<path fill="none" stroke="midnightblue" d="M941.96,-253.82C970.41,-243.37 1005.94,-230.32 1032.48,-220.58"/>
<polygon fill="midnightblue" stroke="midnightblue" points="940.39,-250.66 932.21,-257.4 942.81,-257.23 940.39,-250.66"/>
</g>
<!-- Node21&#45;&gt;Node3 -->
<g id="edge35" class="edge">
<title>Node21&#45;&gt;Node3</title>
<path fill="none" stroke="midnightblue" d="M869.02,-186.27C845.28,-175.92 816.03,-163.15 794.08,-153.58"/>
<polygon fill="midnightblue" stroke="midnightblue" points="867.91,-189.61 878.48,-190.4 870.71,-183.19 867.91,-189.61"/>
</g>
<!-- Node22 -->
<g id="node22" class="node">
<title>Node22</title>
<g id="a_node22"><a xlink:href="balanced__texture__gpuNUFFT__operator_8cpp.html" target="_top" xlink:title=" ">
<polygon fill="none" stroke="black" points="856.31,-123.5 856.31,-153.5 993.31,-153.5 993.31,-123.5 856.31,-123.5"/>
<text text-anchor="start" x="864.31" y="-141.5" font-family="FreeSans.ttf" font-size="10.00">CUDA/src/balanced_texture</text>
<text text-anchor="middle" x="924.81" y="-130.5" font-family="FreeSans.ttf" font-size="10.00">_gpuNUFFT_operator.cpp</text>
</a>
</g>
</g>
<!-- Node21&#45;&gt;Node22 -->
<g id="edge36" class="edge">
<title>Node21&#45;&gt;Node22</title>
<path fill="none" stroke="midnightblue" d="M916,-180.4C917.94,-171.37 920.09,-161.41 921.78,-153.58"/>
<polygon fill="midnightblue" stroke="midnightblue" points="912.53,-179.88 913.85,-190.4 919.37,-181.36 912.53,-179.88"/>
</g>
</g>
</svg>
