<?xml version="1.0" encoding="UTF-8" standalone="no"?>
<!DOCTYPE svg PUBLIC "-//W3C//DTD SVG 1.1//EN"
 "http://www.w3.org/Graphics/SVG/1.1/DTD/svg11.dtd">
<!-- Generated by graphviz version 2.49.3 (20211027.1534)
 -->
<!-- Title: CUDA/inc/gpuNUFFT_operator.hpp Pages: 1 -->
<svg width="1714pt" height="352pt"
 viewBox="0.00 0.00 1714.30 352.00" xmlns="http://www.w3.org/2000/svg" xmlns:xlink="http://www.w3.org/1999/xlink">
<g id="graph0" class="graph" transform="scale(1 1) rotate(0) translate(4 348)">
<title>CUDA/inc/gpuNUFFT_operator.hpp</title>
<!-- Node1 -->
<g id="node1" class="node">
<title>Node1</title>
<g id="a_node1"><a xlink:title=" ">
<polygon fill="#bfbfbf" stroke="black" points="1000,-324.5 1000,-343.5 1170,-343.5 1170,-324.5 1000,-324.5"/>
<text text-anchor="middle" x="1085" y="-331.5" font-family="FreeSans.ttf" font-size="10.00">CUDA/inc/gpuNUFFT_operator.hpp</text>
</a>
</g>
</g>
<!-- Node2 -->
<g id="node2" class="node">
<title>Node2</title>
<g id="a_node2"><a xlink:href="balanced__gpuNUFFT__operator_8hpp.html" target="_top" xlink:title=" ">
<polygon fill="none" stroke="black" points="635,-257.5 635,-287.5 791,-287.5 791,-257.5 635,-257.5"/>
<text text-anchor="start" x="643" y="-275.5" font-family="FreeSans.ttf" font-size="10.00">CUDA/inc/balanced_gpuNUFFT</text>
<text text-anchor="middle" x="713" y="-264.5" font-family="FreeSans.ttf" font-size="10.00">_operator.hpp</text>
</a>
</g>
</g>
<!-- Node1&#45;&gt;Node2 -->
<g id="edge1" class="edge">
<title>Node1&#45;&gt;Node2</title>
<path fill="none" stroke="midnightblue" d="M1021.79,-322.89C958.11,-312.7 859.71,-296.97 791.17,-286"/>
<polygon fill="midnightblue" stroke="midnightblue" points="1021.27,-326.35 1031.7,-324.48 1022.38,-319.44 1021.27,-326.35"/>
</g>
<!-- Node3 -->
<g id="node3" class="node">
<title>Node3</title>
<g id="a_node3"><a xlink:href="gpuNUFFT__operator__factory_8hpp.html" target="_top" xlink:title=" ">
<polygon fill="none" stroke="black" points="743,-123.5 743,-153.5 895,-153.5 895,-123.5 743,-123.5"/>
<text text-anchor="start" x="751" y="-141.5" font-family="FreeSans.ttf" font-size="10.00">CUDA/inc/gpuNUFFT_operator</text>
<text text-anchor="middle" x="819" y="-130.5" font-family="FreeSans.ttf" font-size="10.00">_factory.hpp</text>
</a>
</g>
</g>
<!-- Node1&#45;&gt;Node3 -->
<g id="edge29" class="edge">
<title>Node1&#45;&gt;Node3</title>
<path fill="none" stroke="midnightblue" d="M1018.94,-322.33C960.93,-309.19 879.51,-280.77 838,-221 823.83,-200.59 820.11,-171.09 819.21,-153.74"/>
<polygon fill="midnightblue" stroke="midnightblue" points="1018.25,-325.76 1028.76,-324.46 1019.73,-318.92 1018.25,-325.76"/>
</g>
<!-- Node15 -->
<g id="node15" class="node">
<title>Node15</title>
<g id="a_node15"><a xlink:href="cuda__utils_8hpp.html" target="_top" xlink:title="Util functions for CUDA memory and texture management.">
<polygon fill="none" stroke="black" points="977.5,-263 977.5,-282 1102.5,-282 1102.5,-263 977.5,-263"/>
<text text-anchor="middle" x="1040" y="-270" font-family="FreeSans.ttf" font-size="10.00">CUDA/inc/cuda_utils.hpp</text>
</a>
</g>
</g>
<!-- Node1&#45;&gt;Node15 -->
<g id="edge17" class="edge">
<title>Node1&#45;&gt;Node15</title>
<path fill="none" stroke="midnightblue" d="M1072.4,-316.34C1063.95,-305.17 1053.18,-290.93 1046.44,-282.01"/>
<polygon fill="midnightblue" stroke="midnightblue" points="1069.73,-318.61 1078.55,-324.48 1075.31,-314.39 1069.73,-318.61"/>
</g>
<!-- Node17 -->
<g id="node17" class="node">
<title>Node17</title>
<g id="a_node17"><a xlink:href="gpuNUFFT__operator_8cpp.html" target="_top" xlink:title=" ">
<polygon fill="none" stroke="black" points="1303.5,-62 1303.5,-81 1474.5,-81 1474.5,-62 1303.5,-62"/>
<text text-anchor="middle" x="1389" y="-69" font-family="FreeSans.ttf" font-size="10.00">CUDA/src/gpuNUFFT_operator.cpp</text>
</a>
</g>
</g>
<!-- Node1&#45;&gt;Node17 -->
<g id="edge38" class="edge">
<title>Node1&#45;&gt;Node17</title>
<path fill="none" stroke="midnightblue" d="M1180.14,-330.66C1335.83,-324.51 1633.71,-302.15 1693,-221 1755.89,-134.92 1576.8,-96.25 1467.23,-81.04"/>
<polygon fill="midnightblue" stroke="midnightblue" points="1179.95,-327.17 1170.09,-331.05 1180.22,-334.16 1179.95,-327.17"/>
</g>
<!-- Node18 -->
<g id="node18" class="node">
<title>Node18</title>
<g id="a_node18"><a xlink:href="precomp__kernels_8hpp.html" target="_top" xlink:title="GPU Kernels for Precomputation (sector assignment)">
<polygon fill="none" stroke="black" points="945.5,-129 945.5,-148 1100.5,-148 1100.5,-129 945.5,-129"/>
<text text-anchor="middle" x="1023" y="-136" font-family="FreeSans.ttf" font-size="10.00">CUDA/inc/precomp_kernels.hpp</text>
</a>
</g>
</g>
<!-- Node1&#45;&gt;Node18 -->
<g id="edge30" class="edge">
<title>Node1&#45;&gt;Node18</title>
<path fill="none" stroke="midnightblue" d="M1098.03,-316.23C1103.49,-308.17 1109.21,-298.08 1112,-288 1115.68,-274.72 1116.39,-270.06 1112,-257 1096.03,-209.45 1052.34,-165.84 1032.74,-148"/>
<polygon fill="midnightblue" stroke="midnightblue" points="1095.18,-314.21 1092.15,-324.36 1100.85,-318.31 1095.18,-314.21"/>
</g>
<!-- Node19 -->
<g id="node19" class="node">
<title>Node19</title>
<g id="a_node19"><a xlink:href="precomp__utils_8hpp.html" target="_top" xlink:title="UTIL functions for precomputation.">
<polygon fill="none" stroke="black" points="847,-196 847,-215 989,-215 989,-196 847,-196"/>
<text text-anchor="middle" x="918" y="-203" font-family="FreeSans.ttf" font-size="10.00">CUDA/inc/precomp_utils.hpp</text>
</a>
</g>
</g>
<!-- Node1&#45;&gt;Node19 -->
<g id="edge31" class="edge">
<title>Node1&#45;&gt;Node19</title>
<path fill="none" stroke="midnightblue" d="M1035.12,-321.65C1012.8,-314.71 987.24,-304 968,-288 943.5,-267.62 927.62,-231.97 921.22,-215.41"/>
<polygon fill="midnightblue" stroke="midnightblue" points="1034.21,-325.03 1044.79,-324.48 1036.18,-318.31 1034.21,-325.03"/>
</g>
<!-- Node20 -->
<g id="node20" class="node">
<title>Node20</title>
<g id="a_node20"><a xlink:href="texture__gpuNUFFT__operator_8hpp.html" target="_top" xlink:title=" ">
<polygon fill="none" stroke="black" points="1328,-257.5 1328,-287.5 1474,-287.5 1474,-257.5 1328,-257.5"/>
<text text-anchor="start" x="1336" y="-275.5" font-family="FreeSans.ttf" font-size="10.00">CUDA/inc/texture_gpuNUFFT</text>
<text text-anchor="middle" x="1401" y="-264.5" font-family="FreeSans.ttf" font-size="10.00">_operator.hpp</text>
</a>
</g>
</g>
<!-- Node1&#45;&gt;Node20 -->
<g id="edge32" class="edge">
<title>Node1&#45;&gt;Node20</title>
<path fill="none" stroke="midnightblue" d="M1140.32,-322.58C1192.34,-312.79 1270.55,-298.06 1327.74,-287.29"/>
<polygon fill="midnightblue" stroke="midnightblue" points="1139.45,-319.19 1130.28,-324.48 1140.75,-326.06 1139.45,-319.19"/>
</g>
<!-- Node2&#45;&gt;Node3 -->
<g id="edge2" class="edge">
<title>Node2&#45;&gt;Node3</title>
<path fill="none" stroke="midnightblue" d="M734.55,-250.18C743.08,-241.4 752.79,-230.96 761,-221 779.55,-198.48 798.74,-170.42 809.73,-153.79"/>
<polygon fill="midnightblue" stroke="midnightblue" points="731.95,-247.83 727.43,-257.41 736.94,-252.74 731.95,-247.83"/>
</g>
<!-- Node14 -->
<g id="node14" class="node">
<title>Node14</title>
<g id="a_node14"><a xlink:href="balanced__gpuNUFFT__operator_8cpp.html" target="_top" xlink:title=" ">
<polygon fill="none" stroke="black" points="595.5,-190.5 595.5,-220.5 752.5,-220.5 752.5,-190.5 595.5,-190.5"/>
<text text-anchor="start" x="603.5" y="-208.5" font-family="FreeSans.ttf" font-size="10.00">CUDA/src/balanced_gpuNUFFT</text>
<text text-anchor="middle" x="674" y="-197.5" font-family="FreeSans.ttf" font-size="10.00">_operator.cpp</text>
</a>
</g>
</g>
<!-- Node2&#45;&gt;Node14 -->
<g id="edge16" class="edge">
<title>Node2&#45;&gt;Node14</title>
<path fill="none" stroke="midnightblue" d="M699.25,-248.58C693.64,-239.24 687.35,-228.75 682.45,-220.58"/>
<polygon fill="midnightblue" stroke="midnightblue" points="696.39,-250.62 704.54,-257.4 702.39,-247.02 696.39,-250.62"/>
</g>
<!-- Node4 -->
<g id="node4" class="node">
<title>Node4</title>
<g id="a_node4"><a xlink:href="gpuNUFFT__operator__factory_8cpp.html" target="_top" xlink:title=" ">
<polygon fill="none" stroke="black" points="1132.5,-56.5 1132.5,-86.5 1285.5,-86.5 1285.5,-56.5 1132.5,-56.5"/>
<text text-anchor="start" x="1140.5" y="-74.5" font-family="FreeSans.ttf" font-size="10.00">CUDA/src/gpuNUFFT_operator</text>
<text text-anchor="middle" x="1209" y="-63.5" font-family="FreeSans.ttf" font-size="10.00">_factory.cpp</text>
</a>
</g>
</g>
<!-- Node3&#45;&gt;Node4 -->
<g id="edge3" class="edge">
<title>Node3&#45;&gt;Node4</title>
<path fill="none" stroke="midnightblue" d="M905.17,-123.24C966.04,-113.16 1049.52,-99.3 1123,-87 1125.99,-86.5 1129.03,-85.99 1132.11,-85.47"/>
<polygon fill="midnightblue" stroke="midnightblue" points="904.51,-119.8 895.22,-124.89 905.66,-126.71 904.51,-119.8"/>
</g>
<!-- Node5 -->
<g id="node5" class="node">
<title>Node5</title>
<g id="a_node5"><a xlink:href="gpuNUFFT__forward__tests_8cpp.html" target="_top" xlink:title=" ">
<polygon fill="none" stroke="black" points="506.5,-56.5 506.5,-86.5 657.5,-86.5 657.5,-56.5 506.5,-56.5"/>
<text text-anchor="start" x="514.5" y="-74.5" font-family="FreeSans.ttf" font-size="10.00">CUDA/test/gpu/forward</text>
<text text-anchor="middle" x="582" y="-63.5" font-family="FreeSans.ttf" font-size="10.00">/gpuNUFFT_forward_tests.cpp</text>
</a>
</g>
</g>
<!-- Node3&#45;&gt;Node5 -->
<g id="edge4" class="edge">
<title>Node3&#45;&gt;Node5</title>
<path fill="none" stroke="midnightblue" d="M757.8,-120.71C719.23,-110.14 670,-96.63 633.45,-86.61"/>
<polygon fill="midnightblue" stroke="midnightblue" points="757.3,-124.21 767.87,-123.48 759.15,-117.46 757.3,-124.21"/>
</g>
<!-- Node6 -->
<g id="node6" class="node">
<title>Node6</title>
<g id="a_node6"><a xlink:href="gpuNUFFT__2D__conv__tests_8cpp.html" target="_top" xlink:title=" ">
<polygon fill="none" stroke="black" points="676,-56.5 676,-86.5 810,-86.5 810,-56.5 676,-56.5"/>
<text text-anchor="start" x="684" y="-74.5" font-family="FreeSans.ttf" font-size="10.00">CUDA/test/gpu/gpuNUFFT</text>
<text text-anchor="middle" x="743" y="-63.5" font-family="FreeSans.ttf" font-size="10.00">_2D_conv_tests.cpp</text>
</a>
</g>
</g>
<!-- Node3&#45;&gt;Node6 -->
<g id="edge5" class="edge">
<title>Node3&#45;&gt;Node6</title>
<path fill="none" stroke="midnightblue" d="M794.89,-116.88C783.34,-107.01 769.81,-95.43 759.46,-86.58"/>
<polygon fill="midnightblue" stroke="midnightblue" points="792.63,-119.56 802.51,-123.4 797.18,-114.24 792.63,-119.56"/>
</g>
<!-- Node7 -->
<g id="node7" class="node">
<title>Node7</title>
<g id="a_node7"><a xlink:href="gpuNUFFT__conv__tests_8cpp.html" target="_top" xlink:title=" ">
<polygon fill="none" stroke="black" points="828,-56.5 828,-86.5 962,-86.5 962,-56.5 828,-56.5"/>
<text text-anchor="start" x="836" y="-74.5" font-family="FreeSans.ttf" font-size="10.00">CUDA/test/gpu/gpuNUFFT</text>
<text text-anchor="middle" x="895" y="-63.5" font-family="FreeSans.ttf" font-size="10.00">_conv_tests.cpp</text>
</a>
</g>
</g>
<!-- Node3&#45;&gt;Node7 -->
<g id="edge6" class="edge">
<title>Node3&#45;&gt;Node7</title>
<path fill="none" stroke="midnightblue" d="M843.11,-116.88C854.66,-107.01 868.19,-95.43 878.54,-86.58"/>
<polygon fill="midnightblue" stroke="midnightblue" points="840.82,-114.24 835.49,-123.4 845.37,-119.56 840.82,-114.24"/>
</g>
<!-- Node8 -->
<g id="node8" class="node">
<title>Node8</title>
<g id="a_node8"><a xlink:href="gpuNUFFT__deapo__tests_8cpp.html" target="_top" xlink:title=" ">
<polygon fill="none" stroke="black" points="980,-56.5 980,-86.5 1114,-86.5 1114,-56.5 980,-56.5"/>
<text text-anchor="start" x="988" y="-74.5" font-family="FreeSans.ttf" font-size="10.00">CUDA/test/gpu/gpuNUFFT</text>
<text text-anchor="middle" x="1047" y="-63.5" font-family="FreeSans.ttf" font-size="10.00">_deapo_tests.cpp</text>
</a>
</g>
</g>
<!-- Node3&#45;&gt;Node8 -->
<g id="edge7" class="edge">
<title>Node3&#45;&gt;Node8</title>
<path fill="none" stroke="midnightblue" d="M877.88,-120.71C914.98,-110.14 962.34,-96.63 997.5,-86.61"/>
<polygon fill="midnightblue" stroke="midnightblue" points="876.85,-117.37 868.19,-123.48 878.77,-124.1 876.85,-117.37"/>
</g>
<!-- Node9 -->
<g id="node9" class="node">
<title>Node9</title>
<g id="a_node9"><a xlink:href="gpuNUFFT__fft__tests_8cpp.html" target="_top" xlink:title=" ">
<polygon fill="none" stroke="black" points="0,-56.5 0,-86.5 134,-86.5 134,-56.5 0,-56.5"/>
<text text-anchor="start" x="8" y="-74.5" font-family="FreeSans.ttf" font-size="10.00">CUDA/test/gpu/gpuNUFFT</text>
<text text-anchor="middle" x="67" y="-63.5" font-family="FreeSans.ttf" font-size="10.00">_fft_tests.cpp</text>
</a>
</g>
</g>
<!-- Node3&#45;&gt;Node9 -->
<g id="edge8" class="edge">
<title>Node3&#45;&gt;Node9</title>
<path fill="none" stroke="midnightblue" d="M732.73,-134.21C603.92,-128.58 353.86,-114.9 143,-87 140.07,-86.61 137.08,-86.18 134.07,-85.73"/>
<polygon fill="midnightblue" stroke="midnightblue" points="732.79,-137.71 742.93,-134.65 733.09,-130.72 732.79,-137.71"/>
</g>
<!-- Node10 -->
<g id="node10" class="node">
<title>Node10</title>
<g id="a_node10"><a xlink:href="python__factory_8hpp.html" target="_top" xlink:title=" ">
<polygon fill="none" stroke="black" points="304.5,-62 304.5,-81 449.5,-81 449.5,-62 304.5,-62"/>
<text text-anchor="middle" x="377" y="-69" font-family="FreeSans.ttf" font-size="10.00">python/inc/python_factory.hpp</text>
</a>
</g>
</g>
<!-- Node3&#45;&gt;Node10 -->
<g id="edge9" class="edge">
<title>Node3&#45;&gt;Node10</title>
<path fill="none" stroke="midnightblue" d="M732.82,-125.83C660.88,-115.94 555.66,-101.16 464,-87 452.04,-85.15 439.18,-83.07 427.11,-81.06"/>
<polygon fill="midnightblue" stroke="midnightblue" points="732.36,-129.3 742.75,-127.19 733.32,-122.36 732.36,-129.3"/>
</g>
<!-- Node12 -->
<g id="node12" class="node">
<title>Node12</title>
<g id="a_node12"><a xlink:href="python__factory_8cpp.html" target="_top" xlink:title=" ">
<polygon fill="none" stroke="black" points="313,-0.5 313,-19.5 459,-19.5 459,-0.5 313,-0.5"/>
<text text-anchor="middle" x="386" y="-7.5" font-family="FreeSans.ttf" font-size="10.00">python/src/python_factory.cpp</text>
</a>
</g>
</g>
<!-- Node3&#45;&gt;Node12 -->
<g id="edge15" class="edge">
<title>Node3&#45;&gt;Node12</title>
<path fill="none" stroke="midnightblue" d="M732.66,-135.87C665.83,-131.84 572.28,-120.04 497,-87 476.72,-78.1 476.08,-68.78 458,-56 438.86,-42.48 415.72,-28.39 400.93,-19.66"/>
<polygon fill="midnightblue" stroke="midnightblue" points="732.56,-139.37 742.74,-136.43 732.95,-132.38 732.56,-139.37"/>
</g>
<!-- Node13 -->
<g id="node13" class="node">
<title>Node13</title>
<g id="a_node13"><a xlink:href="python__utils_8hpp.html" target="_top" xlink:title=" ">
<polygon fill="none" stroke="black" points="152,-62 152,-81 286,-81 286,-62 152,-62"/>
<text text-anchor="middle" x="219" y="-69" font-family="FreeSans.ttf" font-size="10.00">python/inc/python_utils.hpp</text>
</a>
</g>
</g>
<!-- Node3&#45;&gt;Node13 -->
<g id="edge12" class="edge">
<title>Node3&#45;&gt;Node13</title>
<path fill="none" stroke="midnightblue" d="M732.66,-131.64C628.56,-124 448.44,-108.98 295,-87 283.56,-85.36 271.24,-83.19 259.9,-81.02"/>
<polygon fill="midnightblue" stroke="midnightblue" points="732.58,-135.14 742.81,-132.38 733.09,-128.16 732.58,-135.14"/>
</g>
<!-- Node11 -->
<g id="node11" class="node">
<title>Node11</title>
<g id="a_node11"><a xlink:href="python__bindings_8cpp.html" target="_top" xlink:title=" ">
<polygon fill="none" stroke="black" points="143,-0.5 143,-19.5 295,-19.5 295,-0.5 143,-0.5"/>
<text text-anchor="middle" x="219" y="-7.5" font-family="FreeSans.ttf" font-size="10.00">python/src/python_bindings.cpp</text>
</a>
</g>
</g>
<!-- Node10&#45;&gt;Node11 -->
<g id="edge10" class="edge">
<title>Node10&#45;&gt;Node11</title>
<path fill="none" stroke="midnightblue" d="M344.96,-58.43C314.25,-46.87 268.68,-29.71 241.6,-19.51"/>
<polygon fill="midnightblue" stroke="midnightblue" points="343.77,-61.73 354.36,-61.98 346.24,-55.18 343.77,-61.73"/>
</g>
<!-- Node10&#45;&gt;Node12 -->
<g id="edge11" class="edge">
<title>Node10&#45;&gt;Node12</title>
<path fill="none" stroke="midnightblue" d="M379.83,-51.82C381.46,-41 383.44,-27.9 384.71,-19.51"/>
<polygon fill="midnightblue" stroke="midnightblue" points="376.32,-51.56 378.29,-61.98 383.25,-52.61 376.32,-51.56"/>
</g>
<!-- Node13&#45;&gt;Node11 -->
<g id="edge13" class="edge">
<title>Node13&#45;&gt;Node11</title>
<path fill="none" stroke="midnightblue" d="M219,-51.82C219,-41 219,-27.9 219,-19.51"/>
<polygon fill="midnightblue" stroke="midnightblue" points="215.5,-51.98 219,-61.98 222.5,-51.98 215.5,-51.98"/>
</g>
<!-- Node13&#45;&gt;Node12 -->
<g id="edge14" class="edge">
<title>Node13&#45;&gt;Node12</title>
<path fill="none" stroke="midnightblue" d="M252.45,-58.58C284.91,-47.02 333.37,-29.75 362.12,-19.51"/>
<polygon fill="midnightblue" stroke="midnightblue" points="251.17,-55.32 242.93,-61.98 253.52,-61.92 251.17,-55.32"/>
</g>
<!-- Node15&#45;&gt;Node3 -->
<g id="edge21" class="edge">
<title>Node15&#45;&gt;Node3</title>
<path fill="none" stroke="midnightblue" d="M1035.27,-253.26C1029.51,-234.68 1017.99,-206.33 998,-190 968.99,-166.3 929.52,-153.71 895.02,-147.03"/>
<polygon fill="midnightblue" stroke="midnightblue" points="1031.91,-254.25 1038.01,-262.91 1038.64,-252.34 1031.91,-254.25"/>
</g>
<!-- Node16 -->
<g id="node16" class="node">
<title>Node16</title>
<g id="a_node16"><a xlink:href="gpuNUFFT__kernels_8hpp.html" target="_top" xlink:title="gpuNUFFT CUDA function prototypes">
<polygon fill="none" stroke="black" points="1158.5,-196 1158.5,-215 1325.5,-215 1325.5,-196 1158.5,-196"/>
<text text-anchor="middle" x="1242" y="-203" font-family="FreeSans.ttf" font-size="10.00">CUDA/inc/gpuNUFFT_kernels.hpp</text>
</a>
</g>
</g>
<!-- Node15&#45;&gt;Node16 -->
<g id="edge18" class="edge">
<title>Node15&#45;&gt;Node16</title>
<path fill="none" stroke="midnightblue" d="M1076.47,-259.77C1116.49,-246.89 1179.78,-226.52 1215.39,-215.06"/>
<polygon fill="midnightblue" stroke="midnightblue" points="1075.27,-256.47 1066.82,-262.87 1077.42,-263.14 1075.27,-256.47"/>
</g>
<!-- Node15&#45;&gt;Node17 -->
<g id="edge28" class="edge">
<title>Node15&#45;&gt;Node17</title>
<path fill="none" stroke="midnightblue" d="M1058.02,-256.56C1079.24,-239.34 1115.93,-210.76 1150,-190 1227.39,-142.84 1326.37,-99.02 1368.52,-81.07"/>
<polygon fill="midnightblue" stroke="midnightblue" points="1055.7,-253.93 1050.18,-262.97 1060.13,-259.35 1055.7,-253.93"/>
</g>
<!-- Node15&#45;&gt;Node18 -->
<g id="edge22" class="edge">
<title>Node15&#45;&gt;Node18</title>
<path fill="none" stroke="midnightblue" d="M1038.2,-252.94C1036.54,-236.4 1033.9,-211.55 1031,-190 1029.01,-175.22 1026.19,-158.09 1024.48,-148.06"/>
<polygon fill="midnightblue" stroke="midnightblue" points="1034.72,-253.31 1039.19,-262.92 1041.69,-252.62 1034.72,-253.31"/>
</g>
<!-- Node15&#45;&gt;Node19 -->
<g id="edge25" class="edge">
<title>Node15&#45;&gt;Node19</title>
<path fill="none" stroke="midnightblue" d="M1014.86,-258.1C990.69,-245.23 954.9,-226.16 934.27,-215.17"/>
<polygon fill="midnightblue" stroke="midnightblue" points="1013.33,-261.26 1023.8,-262.87 1016.62,-255.08 1013.33,-261.26"/>
</g>
<!-- Node16&#45;&gt;Node1 -->
<g id="edge19" class="edge">
<title>Node16&#45;&gt;Node1</title>
<path fill="none" stroke="midnightblue" d="M1224.59,-221.63C1205.36,-238.22 1173.36,-265.48 1145,-288 1128.69,-300.96 1109.33,-315.29 1097.1,-324.23"/>
<polygon fill="midnightblue" stroke="midnightblue" points="1226.96,-224.2 1232.24,-215.01 1222.38,-218.91 1226.96,-224.2"/>
</g>
<!-- Node16&#45;&gt;Node17 -->
<g id="edge20" class="edge">
<title>Node16&#45;&gt;Node17</title>
<path fill="none" stroke="midnightblue" d="M1259.13,-189.12C1290.27,-161.16 1355.17,-102.88 1379.51,-81.02"/>
<polygon fill="midnightblue" stroke="midnightblue" points="1256.75,-186.55 1251.65,-195.84 1261.42,-191.76 1256.75,-186.55"/>
</g>
<!-- Node18&#45;&gt;Node4 -->
<g id="edge24" class="edge">
<title>Node18&#45;&gt;Node4</title>
<path fill="none" stroke="midnightblue" d="M1057.37,-125.49C1088.9,-114.47 1135.62,-98.14 1168.86,-86.53"/>
<polygon fill="midnightblue" stroke="midnightblue" points="1055.98,-122.27 1047.7,-128.87 1058.29,-128.87 1055.98,-122.27"/>
</g>
<!-- Node18&#45;&gt;Node17 -->
<g id="edge23" class="edge">
<title>Node18&#45;&gt;Node17</title>
<path fill="none" stroke="midnightblue" d="M1081.47,-127.12C1153.41,-114.34 1274.18,-92.89 1340.96,-81.03"/>
<polygon fill="midnightblue" stroke="midnightblue" points="1080.46,-123.74 1071.22,-128.94 1081.68,-130.63 1080.46,-123.74"/>
</g>
<!-- Node19&#45;&gt;Node3 -->
<g id="edge26" class="edge">
<title>Node19&#45;&gt;Node3</title>
<path fill="none" stroke="midnightblue" d="M896.15,-190.15C879.58,-179.27 856.93,-164.4 840.46,-153.59"/>
<polygon fill="midnightblue" stroke="midnightblue" points="894.37,-193.17 904.65,-195.73 898.21,-187.32 894.37,-193.17"/>
</g>
<!-- Node19&#45;&gt;Node18 -->
<g id="edge27" class="edge">
<title>Node19&#45;&gt;Node18</title>
<path fill="none" stroke="midnightblue" d="M940.71,-190.44C961.5,-177.57 991.62,-158.93 1009.06,-148.13"/>
<polygon fill="midnightblue" stroke="midnightblue" points="938.82,-187.49 932.16,-195.73 942.51,-193.45 938.82,-187.49"/>
</g>
<!-- Node20&#45;&gt;Node3 -->
<g id="edge36" class="edge">
<title>Node20&#45;&gt;Node3</title>
<path fill="none" stroke="midnightblue" d="M1389.29,-248.57C1378.13,-229.35 1359.44,-203.03 1335,-190 1256.45,-148.1 1024.52,-163.48 936,-154 922.77,-152.58 908.72,-150.95 895.11,-149.31"/>
<polygon fill="midnightblue" stroke="midnightblue" points="1386.24,-250.29 1394.15,-257.34 1392.36,-246.9 1386.24,-250.29"/>
</g>
<!-- Node21 -->
<g id="node21" class="node">
<title>Node21</title>
<g id="a_node21"><a xlink:href="balanced__texture__gpuNUFFT__operator_8hpp.html" target="_top" xlink:title=" ">
<polygon fill="none" stroke="black" points="1381.5,-190.5 1381.5,-220.5 1518.5,-220.5 1518.5,-190.5 1381.5,-190.5"/>
<text text-anchor="start" x="1389.5" y="-208.5" font-family="FreeSans.ttf" font-size="10.00">CUDA/inc/balanced_texture</text>
<text text-anchor="middle" x="1450" y="-197.5" font-family="FreeSans.ttf" font-size="10.00">_gpuNUFFT_operator.hpp</text>
</a>
</g>
</g>
<!-- Node20&#45;&gt;Node21 -->
<g id="edge33" class="edge">
<title>Node20&#45;&gt;Node21</title>
<path fill="none" stroke="midnightblue" d="M1417.84,-249.16C1424.99,-239.68 1433.1,-228.92 1439.39,-220.58"/>
<polygon fill="midnightblue" stroke="midnightblue" points="1414.86,-247.3 1411.63,-257.4 1420.45,-251.52 1414.86,-247.3"/>
</g>
<!-- Node23 -->
<g id="node23" class="node">
<title>Node23</title>
<g id="a_node23"><a xlink:href="texture__gpuNUFFT__operator_8cpp.html" target="_top" xlink:title=" ">
<polygon fill="none" stroke="black" points="1536.5,-190.5 1536.5,-220.5 1683.5,-220.5 1683.5,-190.5 1536.5,-190.5"/>
<text text-anchor="start" x="1544.5" y="-208.5" font-family="FreeSans.ttf" font-size="10.00">CUDA/src/texture_gpuNUFFT</text>
<text text-anchor="middle" x="1610" y="-197.5" font-family="FreeSans.ttf" font-size="10.00">_operator.cpp</text>
</a>
</g>
</g>
<!-- Node20&#45;&gt;Node23 -->
<g id="edge37" class="edge">
<title>Node20&#45;&gt;Node23</title>
<path fill="none" stroke="midnightblue" d="M1455.84,-254.44C1489.72,-243.91 1532.67,-230.55 1564.63,-220.61"/>
<polygon fill="midnightblue" stroke="midnightblue" points="1454.6,-251.16 1446.09,-257.48 1456.68,-257.85 1454.6,-251.16"/>
</g>
<!-- Node21&#45;&gt;Node3 -->
<g id="edge34" class="edge">
<title>Node21&#45;&gt;Node3</title>
<path fill="none" stroke="midnightblue" d="M1370.95,-190.52C1369.62,-190.34 1368.31,-190.17 1367,-190 1176.35,-165.44 1127.2,-173.82 936,-154 922.77,-152.63 908.71,-151.02 895.1,-149.38"/>
<polygon fill="midnightblue" stroke="midnightblue" points="1370.83,-194.04 1381.23,-192 1371.83,-187.11 1370.83,-194.04"/>
</g>
<!-- Node22 -->
<g id="node22" class="node">
<title>Node22</title>
<g id="a_node22"><a xlink:href="balanced__texture__gpuNUFFT__operator_8cpp.html" target="_top" xlink:title=" ">
<polygon fill="none" stroke="black" points="1381.5,-123.5 1381.5,-153.5 1518.5,-153.5 1518.5,-123.5 1381.5,-123.5"/>
<text text-anchor="start" x="1389.5" y="-141.5" font-family="FreeSans.ttf" font-size="10.00">CUDA/src/balanced_texture</text>
<text text-anchor="middle" x="1450" y="-130.5" font-family="FreeSans.ttf" font-size="10.00">_gpuNUFFT_operator.cpp</text>
</a>
</g>
</g>
<!-- Node21&#45;&gt;Node22 -->
<g id="edge35" class="edge">
<title>Node21&#45;&gt;Node22</title>
<path fill="none" stroke="midnightblue" d="M1450,-180.11C1450,-171.15 1450,-161.32 1450,-153.58"/>
<polygon fill="midnightblue" stroke="midnightblue" points="1446.5,-180.4 1450,-190.4 1453.5,-180.4 1446.5,-180.4"/>
</g>
</g>
</svg>
