<?xml version="1.0" encoding="UTF-8" standalone="no"?>
<!DOCTYPE svg PUBLIC "-//W3C//DTD SVG 1.1//EN"
 "http://www.w3.org/Graphics/SVG/1.1/DTD/svg11.dtd">
<!-- Generated by graphviz version 2.49.3 (20211027.1534)
 -->
<!-- Title: CUDA/inc/gpuNUFFT_operator.hpp Pages: 1 -->
<svg width="1329pt" height="296pt"
 viewBox="0.00 0.00 1329.40 296.00" xmlns="http://www.w3.org/2000/svg" xmlns:xlink="http://www.w3.org/1999/xlink">
<g id="graph0" class="graph" transform="scale(1 1) rotate(0) translate(4 292)">
<title>CUDA/inc/gpuNUFFT_operator.hpp</title>
<!-- Node1 -->
<g id="node1" class="node">
<title>Node1</title>
<g id="a_node1"><a xlink:title=" ">
<polygon fill="#bfbfbf" stroke="black" points="848,-268.5 848,-287.5 1018,-287.5 1018,-268.5 848,-268.5"/>
<text text-anchor="middle" x="933" y="-275.5" font-family="FreeSans.ttf" font-size="10.00">CUDA/inc/gpuNUFFT_operator.hpp</text>
</a>
</g>
</g>
<!-- Node2 -->
<g id="node2" class="node">
<title>Node2</title>
<g id="a_node2"><a xlink:href="balanced__gpuNUFFT__operator_8hpp.html" target="_top" xlink:title=" ">
<polygon fill="none" stroke="black" points="704,-201.5 704,-231.5 860,-231.5 860,-201.5 704,-201.5"/>
<text text-anchor="start" x="712" y="-219.5" font-family="FreeSans.ttf" font-size="10.00">CUDA/inc/balanced_gpuNUFFT</text>
<text text-anchor="middle" x="782" y="-208.5" font-family="FreeSans.ttf" font-size="10.00">_operator.hpp</text>
</a>
</g>
</g>
<!-- Node1&#45;&gt;Node2 -->
<g id="edge1" class="edge">
<title>Node1&#45;&gt;Node2</title>
<path fill="none" stroke="midnightblue" d="M901.83,-264.72C877.33,-255.06 843.17,-241.6 817.59,-231.52"/>
<polygon fill="midnightblue" stroke="midnightblue" points="900.78,-268.07 911.37,-268.48 903.34,-261.55 900.78,-268.07"/>
</g>
<!-- Node3 -->
<g id="node3" class="node">
<title>Node3</title>
<g id="a_node3"><a xlink:href="gpuNUFFT__operator__factory_8hpp.html" target="_top" xlink:title=" ">
<polygon fill="none" stroke="black" points="506,-67.5 506,-97.5 658,-97.5 658,-67.5 506,-67.5"/>
<text text-anchor="start" x="514" y="-85.5" font-family="FreeSans.ttf" font-size="10.00">CUDA/inc/gpuNUFFT_operator</text>
<text text-anchor="middle" x="582" y="-74.5" font-family="FreeSans.ttf" font-size="10.00">_factory.hpp</text>
</a>
</g>
</g>
<!-- Node1&#45;&gt;Node3 -->
<g id="edge23" class="edge">
<title>Node1&#45;&gt;Node3</title>
<path fill="none" stroke="midnightblue" d="M837.77,-268.65C793.08,-262.33 739.9,-251.28 695,-232 648.19,-211.9 630.49,-207.23 602,-165 588.07,-144.35 583.82,-114.92 582.54,-97.66"/>
<polygon fill="midnightblue" stroke="midnightblue" points="837.38,-272.13 847.76,-270 838.32,-265.19 837.38,-272.13"/>
</g>
<!-- Node12 -->
<g id="node12" class="node">
<title>Node12</title>
<g id="a_node12"><a xlink:href="cuda__utils_8hpp.html" target="_top" xlink:title="Util functions for CUDA memory and texture management.">
<polygon fill="none" stroke="black" points="916.5,-207 916.5,-226 1041.5,-226 1041.5,-207 916.5,-207"/>
<text text-anchor="middle" x="979" y="-214" font-family="FreeSans.ttf" font-size="10.00">CUDA/inc/cuda_utils.hpp</text>
</a>
</g>
</g>
<!-- Node1&#45;&gt;Node12 -->
<g id="edge11" class="edge">
<title>Node1&#45;&gt;Node12</title>
<path fill="none" stroke="midnightblue" d="M945.88,-260.34C954.52,-249.17 965.53,-234.93 972.42,-226.01"/>
<polygon fill="midnightblue" stroke="midnightblue" points="942.94,-258.42 939.59,-268.48 948.48,-262.7 942.94,-258.42"/>
</g>
<!-- Node14 -->
<g id="node14" class="node">
<title>Node14</title>
<g id="a_node14"><a xlink:href="gpuNUFFT__operator_8cpp.html" target="_top" xlink:title=" ">
<polygon fill="none" stroke="black" points="1113.5,-6 1113.5,-25 1284.5,-25 1284.5,-6 1113.5,-6"/>
<text text-anchor="middle" x="1199" y="-13" font-family="FreeSans.ttf" font-size="10.00">CUDA/src/gpuNUFFT_operator.cpp</text>
</a>
</g>
</g>
<!-- Node1&#45;&gt;Node14 -->
<g id="edge32" class="edge">
<title>Node1&#45;&gt;Node14</title>
<path fill="none" stroke="midnightblue" d="M1002.28,-266.88C1101.56,-250.77 1276.29,-215.81 1312,-165 1350.37,-110.4 1253.82,-47.51 1214.64,-25.03"/>
<polygon fill="midnightblue" stroke="midnightblue" points="1001.65,-263.44 992.33,-268.48 1002.76,-270.35 1001.65,-263.44"/>
</g>
<!-- Node15 -->
<g id="node15" class="node">
<title>Node15</title>
<g id="a_node15"><a xlink:href="precomp__kernels_8hpp.html" target="_top" xlink:title="GPU Kernels for Precomputation (sector assignment)">
<polygon fill="none" stroke="black" points="929.5,-73 929.5,-92 1084.5,-92 1084.5,-73 929.5,-73"/>
<text text-anchor="middle" x="1007" y="-80" font-family="FreeSans.ttf" font-size="10.00">CUDA/inc/precomp_kernels.hpp</text>
</a>
</g>
</g>
<!-- Node1&#45;&gt;Node15 -->
<g id="edge24" class="edge">
<title>Node1&#45;&gt;Node15</title>
<path fill="none" stroke="midnightblue" d="M1003.22,-265.33C1021.79,-258.7 1039.77,-248.3 1051,-232 1082.73,-185.94 1033.85,-116.69 1014.41,-92.35"/>
<polygon fill="midnightblue" stroke="midnightblue" points="1001.93,-262.07 993.48,-268.47 1004.07,-268.73 1001.93,-262.07"/>
</g>
<!-- Node16 -->
<g id="node16" class="node">
<title>Node16</title>
<g id="a_node16"><a xlink:href="precomp__utils_8hpp.html" target="_top" xlink:title="UTIL functions for precomputation.">
<polygon fill="none" stroke="black" points="862,-140 862,-159 1004,-159 1004,-140 862,-140"/>
<text text-anchor="middle" x="933" y="-147" font-family="FreeSans.ttf" font-size="10.00">CUDA/inc/precomp_utils.hpp</text>
</a>
</g>
</g>
<!-- Node1&#45;&gt;Node16 -->
<g id="edge25" class="edge">
<title>Node1&#45;&gt;Node16</title>
<path fill="none" stroke="midnightblue" d="M920.76,-259.83C915.75,-251.79 910.55,-241.82 908,-232 904.54,-218.66 904.86,-214.42 908,-201 911.66,-185.38 920.89,-169.05 927.05,-159.33"/>
<polygon fill="midnightblue" stroke="midnightblue" points="917.92,-261.89 926.37,-268.27 923.75,-258.01 917.92,-261.89"/>
</g>
<!-- Node17 -->
<g id="node17" class="node">
<title>Node17</title>
<g id="a_node17"><a xlink:href="texture__gpuNUFFT__operator_8hpp.html" target="_top" xlink:title=" ">
<polygon fill="none" stroke="black" points="389,-201.5 389,-231.5 535,-231.5 535,-201.5 389,-201.5"/>
<text text-anchor="start" x="397" y="-219.5" font-family="FreeSans.ttf" font-size="10.00">CUDA/inc/texture_gpuNUFFT</text>
<text text-anchor="middle" x="462" y="-208.5" font-family="FreeSans.ttf" font-size="10.00">_operator.hpp</text>
</a>
</g>
</g>
<!-- Node1&#45;&gt;Node17 -->
<g id="edge26" class="edge">
<title>Node1&#45;&gt;Node17</title>
<path fill="none" stroke="midnightblue" d="M851.44,-267.26C777.45,-258.35 665.36,-244.66 568,-232 557.41,-230.62 546.23,-229.13 535.26,-227.65"/>
<polygon fill="midnightblue" stroke="midnightblue" points="851.28,-270.76 861.63,-268.48 852.12,-263.81 851.28,-270.76"/>
</g>
<!-- Node2&#45;&gt;Node3 -->
<g id="edge2" class="edge">
<title>Node2&#45;&gt;Node3</title>
<path fill="none" stroke="midnightblue" d="M787.42,-191.37C789.94,-173.55 789.98,-149.75 777,-134 761.63,-115.35 705.99,-102.11 658.06,-93.88"/>
<polygon fill="midnightblue" stroke="midnightblue" points="783.96,-190.87 785.68,-201.32 790.86,-192.08 783.96,-190.87"/>
</g>
<!-- Node11 -->
<g id="node11" class="node">
<title>Node11</title>
<g id="a_node11"><a xlink:href="balanced__gpuNUFFT__operator_8cpp.html" target="_top" xlink:title=" ">
<polygon fill="none" stroke="black" points="610.5,-134.5 610.5,-164.5 767.5,-164.5 767.5,-134.5 610.5,-134.5"/>
<text text-anchor="start" x="618.5" y="-152.5" font-family="FreeSans.ttf" font-size="10.00">CUDA/src/balanced_gpuNUFFT</text>
<text text-anchor="middle" x="689" y="-141.5" font-family="FreeSans.ttf" font-size="10.00">_operator.cpp</text>
</a>
</g>
</g>
<!-- Node2&#45;&gt;Node11 -->
<g id="edge10" class="edge">
<title>Node2&#45;&gt;Node11</title>
<path fill="none" stroke="midnightblue" d="M753.31,-195.45C739.01,-185.45 722.05,-173.6 709.14,-164.58"/>
<polygon fill="midnightblue" stroke="midnightblue" points="751.62,-198.54 761.82,-201.4 755.63,-192.8 751.62,-198.54"/>
</g>
<!-- Node4 -->
<g id="node4" class="node">
<title>Node4</title>
<g id="a_node4"><a xlink:href="gpuNUFFT__operator__factory_8cpp.html" target="_top" xlink:title=" ">
<polygon fill="none" stroke="black" points="933.5,-0.5 933.5,-30.5 1086.5,-30.5 1086.5,-0.5 933.5,-0.5"/>
<text text-anchor="start" x="941.5" y="-18.5" font-family="FreeSans.ttf" font-size="10.00">CUDA/src/gpuNUFFT_operator</text>
<text text-anchor="middle" x="1010" y="-7.5" font-family="FreeSans.ttf" font-size="10.00">_factory.cpp</text>
</a>
</g>
</g>
<!-- Node3&#45;&gt;Node4 -->
<g id="edge3" class="edge">
<title>Node3&#45;&gt;Node4</title>
<path fill="none" stroke="midnightblue" d="M668.12,-69.28C737.32,-59.34 836.98,-44.76 924,-31 926.99,-30.53 930.04,-30.04 933.12,-29.54"/>
<polygon fill="midnightblue" stroke="midnightblue" points="667.54,-65.83 658.14,-70.71 668.53,-72.76 667.54,-65.83"/>
</g>
<!-- Node5 -->
<g id="node5" class="node">
<title>Node5</title>
<g id="a_node5"><a xlink:href="gpuNUFFT__forward__tests_8cpp.html" target="_top" xlink:title=" ">
<polygon fill="none" stroke="black" points="611.5,-0.5 611.5,-30.5 762.5,-30.5 762.5,-0.5 611.5,-0.5"/>
<text text-anchor="start" x="619.5" y="-18.5" font-family="FreeSans.ttf" font-size="10.00">CUDA/test/gpu/forward</text>
<text text-anchor="middle" x="687" y="-7.5" font-family="FreeSans.ttf" font-size="10.00">/gpuNUFFT_forward_tests.cpp</text>
</a>
</g>
</g>
<!-- Node3&#45;&gt;Node5 -->
<g id="edge4" class="edge">
<title>Node3&#45;&gt;Node5</title>
<path fill="none" stroke="midnightblue" d="M613.48,-62.02C629.82,-51.9 649.41,-39.77 664.26,-30.58"/>
<polygon fill="midnightblue" stroke="midnightblue" points="611.44,-59.16 604.78,-67.4 615.13,-65.11 611.44,-59.16"/>
</g>
<!-- Node6 -->
<g id="node6" class="node">
<title>Node6</title>
<g id="a_node6"><a xlink:href="gpuNUFFT__2D__conv__tests_8cpp.html" target="_top" xlink:title=" ">
<polygon fill="none" stroke="black" points="781,-0.5 781,-30.5 915,-30.5 915,-0.5 781,-0.5"/>
<text text-anchor="start" x="789" y="-18.5" font-family="FreeSans.ttf" font-size="10.00">CUDA/test/gpu/gpuNUFFT</text>
<text text-anchor="middle" x="848" y="-7.5" font-family="FreeSans.ttf" font-size="10.00">_2D_conv_tests.cpp</text>
</a>
</g>
</g>
<!-- Node3&#45;&gt;Node6 -->
<g id="edge5" class="edge">
<title>Node3&#45;&gt;Node6</title>
<path fill="none" stroke="midnightblue" d="M649.31,-65.05C692.8,-54.43 748.8,-40.74 790.25,-30.61"/>
<polygon fill="midnightblue" stroke="midnightblue" points="648.27,-61.7 639.39,-67.48 649.94,-68.5 648.27,-61.7"/>
</g>
<!-- Node7 -->
<g id="node7" class="node">
<title>Node7</title>
<g id="a_node7"><a xlink:href="gpuNUFFT__conv__tests_8cpp.html" target="_top" xlink:title=" ">
<polygon fill="none" stroke="black" points="0,-0.5 0,-30.5 134,-30.5 134,-0.5 0,-0.5"/>
<text text-anchor="start" x="8" y="-18.5" font-family="FreeSans.ttf" font-size="10.00">CUDA/test/gpu/gpuNUFFT</text>
<text text-anchor="middle" x="67" y="-7.5" font-family="FreeSans.ttf" font-size="10.00">_conv_tests.cpp</text>
</a>
</g>
</g>
<!-- Node3&#45;&gt;Node7 -->
<g id="edge6" class="edge">
<title>Node3&#45;&gt;Node7</title>
<path fill="none" stroke="midnightblue" d="M495.62,-73.47C406.91,-64.77 264.95,-49.62 143,-31 140.08,-30.55 137.1,-30.08 134.09,-29.58"/>
<polygon fill="midnightblue" stroke="midnightblue" points="495.34,-76.96 505.64,-74.45 496.02,-69.99 495.34,-76.96"/>
</g>
<!-- Node8 -->
<g id="node8" class="node">
<title>Node8</title>
<g id="a_node8"><a xlink:href="gpuNUFFT__deapo__tests_8cpp.html" target="_top" xlink:title=" ">
<polygon fill="none" stroke="black" points="152,-0.5 152,-30.5 286,-30.5 286,-0.5 152,-0.5"/>
<text text-anchor="start" x="160" y="-18.5" font-family="FreeSans.ttf" font-size="10.00">CUDA/test/gpu/gpuNUFFT</text>
<text text-anchor="middle" x="219" y="-7.5" font-family="FreeSans.ttf" font-size="10.00">_deapo_tests.cpp</text>
</a>
</g>
</g>
<!-- Node3&#45;&gt;Node8 -->
<g id="edge7" class="edge">
<title>Node3&#45;&gt;Node8</title>
<path fill="none" stroke="midnightblue" d="M495.75,-66.66C438.74,-56.76 362.36,-43.35 295,-31 292.09,-30.47 289.12,-29.92 286.13,-29.36"/>
<polygon fill="midnightblue" stroke="midnightblue" points="495.36,-70.14 505.81,-68.4 496.55,-63.24 495.36,-70.14"/>
</g>
<!-- Node9 -->
<g id="node9" class="node">
<title>Node9</title>
<g id="a_node9"><a xlink:href="gpuNUFFT__fft__tests_8cpp.html" target="_top" xlink:title=" ">
<polygon fill="none" stroke="black" points="304,-0.5 304,-30.5 438,-30.5 438,-0.5 304,-0.5"/>
<text text-anchor="start" x="312" y="-18.5" font-family="FreeSans.ttf" font-size="10.00">CUDA/test/gpu/gpuNUFFT</text>
<text text-anchor="middle" x="371" y="-7.5" font-family="FreeSans.ttf" font-size="10.00">_fft_tests.cpp</text>
</a>
</g>
</g>
<!-- Node3&#45;&gt;Node9 -->
<g id="edge8" class="edge">
<title>Node3&#45;&gt;Node9</title>
<path fill="none" stroke="midnightblue" d="M526.63,-64.44C492.43,-53.91 449.07,-40.55 416.81,-30.61"/>
<polygon fill="midnightblue" stroke="midnightblue" points="525.89,-67.88 536.48,-67.48 527.95,-61.19 525.89,-67.88"/>
</g>
<!-- Node10 -->
<g id="node10" class="node">
<title>Node10</title>
<g id="a_node10"><a xlink:href="gpuNUFFT__operator__python__factory_8cpp.html" target="_top" xlink:title=" ">
<polygon fill="none" stroke="black" points="456.5,-0.5 456.5,-30.5 593.5,-30.5 593.5,-0.5 456.5,-0.5"/>
<text text-anchor="start" x="464.5" y="-18.5" font-family="FreeSans.ttf" font-size="10.00">python/gpuNUFFT_operator</text>
<text text-anchor="middle" x="525" y="-7.5" font-family="FreeSans.ttf" font-size="10.00">_python_factory.cpp</text>
</a>
</g>
</g>
<!-- Node3&#45;&gt;Node10 -->
<g id="edge9" class="edge">
<title>Node3&#45;&gt;Node10</title>
<path fill="none" stroke="midnightblue" d="M562.91,-59.74C554.48,-50.12 544.81,-39.09 537.34,-30.58"/>
<polygon fill="midnightblue" stroke="midnightblue" points="560.41,-62.18 569.63,-67.4 565.67,-57.57 560.41,-62.18"/>
</g>
<!-- Node12&#45;&gt;Node3 -->
<g id="edge15" class="edge">
<title>Node12&#45;&gt;Node3</title>
<path fill="none" stroke="midnightblue" d="M945.8,-203.41C920.13,-193.77 883.88,-179.52 853,-165 826.9,-152.73 822.94,-144.29 796,-134 751.6,-117.04 699.78,-104.63 658.24,-96.36"/>
<polygon fill="midnightblue" stroke="midnightblue" points="944.84,-206.79 955.43,-207 947.28,-200.23 944.84,-206.79"/>
</g>
<!-- Node13 -->
<g id="node13" class="node">
<title>Node13</title>
<g id="a_node13"><a xlink:href="gpuNUFFT__kernels_8hpp.html" target="_top" xlink:title="gpuNUFFT CUDA function prototypes">
<polygon fill="none" stroke="black" points="1135.5,-140 1135.5,-159 1302.5,-159 1302.5,-140 1135.5,-140"/>
<text text-anchor="middle" x="1219" y="-147" font-family="FreeSans.ttf" font-size="10.00">CUDA/inc/gpuNUFFT_kernels.hpp</text>
</a>
</g>
</g>
<!-- Node12&#45;&gt;Node13 -->
<g id="edge12" class="edge">
<title>Node12&#45;&gt;Node13</title>
<path fill="none" stroke="midnightblue" d="M1020.53,-204.25C1067.96,-191.41 1144.54,-170.67 1187.38,-159.06"/>
<polygon fill="midnightblue" stroke="midnightblue" points="1019.61,-200.88 1010.87,-206.87 1021.44,-207.63 1019.61,-200.88"/>
</g>
<!-- Node12&#45;&gt;Node14 -->
<g id="edge22" class="edge">
<title>Node12&#45;&gt;Node14</title>
<path fill="none" stroke="midnightblue" d="M995.99,-200.13C1039.84,-160.47 1155.72,-55.65 1189.58,-25.02"/>
<polygon fill="midnightblue" stroke="midnightblue" points="993.52,-197.65 988.45,-206.95 998.22,-202.84 993.52,-197.65"/>
</g>
<!-- Node12&#45;&gt;Node15 -->
<g id="edge16" class="edge">
<title>Node12&#45;&gt;Node15</title>
<path fill="none" stroke="midnightblue" d="M993.96,-198.79C1001.24,-189.53 1009.21,-177.41 1013,-165 1020.79,-139.49 1013.9,-107.49 1009.69,-92.3"/>
<polygon fill="midnightblue" stroke="midnightblue" points="991.08,-196.78 987.36,-206.7 996.46,-201.26 991.08,-196.78"/>
</g>
<!-- Node12&#45;&gt;Node16 -->
<g id="edge19" class="edge">
<title>Node12&#45;&gt;Node16</title>
<path fill="none" stroke="midnightblue" d="M966.9,-198.4C957.96,-185.77 946.17,-169.1 939.11,-159.13"/>
<polygon fill="midnightblue" stroke="midnightblue" points="964.16,-200.59 972.8,-206.73 969.88,-196.55 964.16,-200.59"/>
</g>
<!-- Node13&#45;&gt;Node1 -->
<g id="edge13" class="edge">
<title>Node13&#45;&gt;Node1</title>
<path fill="none" stroke="midnightblue" d="M1198.73,-164.99C1173.07,-182.8 1127,-212.98 1084,-232 1046.97,-248.37 1002.29,-260.86 971.18,-268.47"/>
<polygon fill="midnightblue" stroke="midnightblue" points="1200.74,-167.86 1206.92,-159.25 1196.72,-162.13 1200.74,-167.86"/>
</g>
<!-- Node13&#45;&gt;Node14 -->
<g id="edge14" class="edge">
<title>Node13&#45;&gt;Node14</title>
<path fill="none" stroke="midnightblue" d="M1216.16,-129.78C1211.76,-100.75 1203.48,-46.04 1200.29,-25.02"/>
<polygon fill="midnightblue" stroke="midnightblue" points="1212.73,-130.48 1217.69,-139.84 1219.65,-129.43 1212.73,-130.48"/>
</g>
<!-- Node15&#45;&gt;Node4 -->
<g id="edge18" class="edge">
<title>Node15&#45;&gt;Node4</title>
<path fill="none" stroke="midnightblue" d="M1007.87,-62.74C1008.34,-52.49 1008.92,-40 1009.35,-30.59"/>
<polygon fill="midnightblue" stroke="midnightblue" points="1004.37,-62.58 1007.4,-72.73 1011.36,-62.91 1004.37,-62.58"/>
</g>
<!-- Node15&#45;&gt;Node14 -->
<g id="edge17" class="edge">
<title>Node15&#45;&gt;Node14</title>
<path fill="none" stroke="midnightblue" d="M1042.15,-69.6C1080.21,-56.71 1140,-36.47 1173.7,-25.06"/>
<polygon fill="midnightblue" stroke="midnightblue" points="1040.85,-66.35 1032.5,-72.87 1043.09,-72.98 1040.85,-66.35"/>
</g>
<!-- Node16&#45;&gt;Node3 -->
<g id="edge20" class="edge">
<title>Node16&#45;&gt;Node3</title>
<path fill="none" stroke="midnightblue" d="M876.82,-138.1C817.54,-127.12 723.76,-109.75 657.92,-97.56"/>
<polygon fill="midnightblue" stroke="midnightblue" points="876.28,-141.56 886.75,-139.94 877.56,-134.67 876.28,-141.56"/>
</g>
<!-- Node16&#45;&gt;Node15 -->
<g id="edge21" class="edge">
<title>Node16&#45;&gt;Node15</title>
<path fill="none" stroke="midnightblue" d="M950.81,-132.86C965.36,-120.08 985.38,-102.49 997.18,-92.13"/>
<polygon fill="midnightblue" stroke="midnightblue" points="948.18,-130.5 942.98,-139.73 952.8,-135.76 948.18,-130.5"/>
</g>
<!-- Node17&#45;&gt;Node3 -->
<g id="edge30" class="edge">
<title>Node17&#45;&gt;Node3</title>
<path fill="none" stroke="midnightblue" d="M490.83,-195.16C502.11,-186.52 514.77,-175.92 525,-165 545.07,-143.58 563.62,-114.67 573.82,-97.66"/>
<polygon fill="midnightblue" stroke="midnightblue" points="488.45,-192.57 482.54,-201.36 492.64,-198.18 488.45,-192.57"/>
</g>
<!-- Node18 -->
<g id="node18" class="node">
<title>Node18</title>
<g id="a_node18"><a xlink:href="balanced__texture__gpuNUFFT__operator_8hpp.html" target="_top" xlink:title=" ">
<polygon fill="none" stroke="black" points="213.5,-134.5 213.5,-164.5 350.5,-164.5 350.5,-134.5 213.5,-134.5"/>
<text text-anchor="start" x="221.5" y="-152.5" font-family="FreeSans.ttf" font-size="10.00">CUDA/inc/balanced_texture</text>
<text text-anchor="middle" x="282" y="-141.5" font-family="FreeSans.ttf" font-size="10.00">_gpuNUFFT_operator.hpp</text>
</a>
</g>
</g>
<!-- Node17&#45;&gt;Node18 -->
<g id="edge27" class="edge">
<title>Node17&#45;&gt;Node18</title>
<path fill="none" stroke="midnightblue" d="M413.41,-197.96C384.42,-187.48 348.09,-174.37 320.98,-164.58"/>
<polygon fill="midnightblue" stroke="midnightblue" points="412.35,-201.29 422.94,-201.4 414.73,-194.71 412.35,-201.29"/>
</g>
<!-- Node20 -->
<g id="node20" class="node">
<title>Node20</title>
<g id="a_node20"><a xlink:href="texture__gpuNUFFT__operator_8cpp.html" target="_top" xlink:title=" ">
<polygon fill="none" stroke="black" points="368.5,-134.5 368.5,-164.5 515.5,-164.5 515.5,-134.5 368.5,-134.5"/>
<text text-anchor="start" x="376.5" y="-152.5" font-family="FreeSans.ttf" font-size="10.00">CUDA/src/texture_gpuNUFFT</text>
<text text-anchor="middle" x="442" y="-141.5" font-family="FreeSans.ttf" font-size="10.00">_operator.cpp</text>
</a>
</g>
</g>
<!-- Node17&#45;&gt;Node20 -->
<g id="edge31" class="edge">
<title>Node17&#45;&gt;Node20</title>
<path fill="none" stroke="midnightblue" d="M454.68,-191.7C451.87,-182.59 448.77,-172.49 446.33,-164.58"/>
<polygon fill="midnightblue" stroke="midnightblue" points="451.37,-192.87 457.66,-201.4 458.06,-190.81 451.37,-192.87"/>
</g>
<!-- Node18&#45;&gt;Node3 -->
<g id="edge28" class="edge">
<title>Node18&#45;&gt;Node3</title>
<path fill="none" stroke="midnightblue" d="M356.7,-132.32C406,-121.63 469.96,-107.77 517.13,-97.55"/>
<polygon fill="midnightblue" stroke="midnightblue" points="355.76,-128.94 346.73,-134.48 357.24,-135.78 355.76,-128.94"/>
</g>
<!-- Node19 -->
<g id="node19" class="node">
<title>Node19</title>
<g id="a_node19"><a xlink:href="balanced__texture__gpuNUFFT__operator_8cpp.html" target="_top" xlink:title=" ">
<polygon fill="none" stroke="black" points="213.5,-67.5 213.5,-97.5 350.5,-97.5 350.5,-67.5 213.5,-67.5"/>
<text text-anchor="start" x="221.5" y="-85.5" font-family="FreeSans.ttf" font-size="10.00">CUDA/src/balanced_texture</text>
<text text-anchor="middle" x="282" y="-74.5" font-family="FreeSans.ttf" font-size="10.00">_gpuNUFFT_operator.cpp</text>
</a>
</g>
</g>
<!-- Node18&#45;&gt;Node19 -->
<g id="edge29" class="edge">
<title>Node18&#45;&gt;Node19</title>
<path fill="none" stroke="midnightblue" d="M282,-124.11C282,-115.15 282,-105.32 282,-97.58"/>
<polygon fill="midnightblue" stroke="midnightblue" points="278.5,-124.4 282,-134.4 285.5,-124.4 278.5,-124.4"/>
</g>
</g>
</svg>
