<?xml version="1.0" encoding="UTF-8" standalone="no"?>
<!DOCTYPE svg PUBLIC "-//W3C//DTD SVG 1.1//EN"
 "http://www.w3.org/Graphics/SVG/1.1/DTD/svg11.dtd">
<!-- Generated by graphviz version 2.49.3 (20211027.1534)
 -->
<!-- Title: CUDA/inc/gpuNUFFT_operator.hpp Pages: 1 -->
<svg width="616pt" height="252pt"
 viewBox="0.00 0.00 616.00 252.00" xmlns="http://www.w3.org/2000/svg" xmlns:xlink="http://www.w3.org/1999/xlink">
<g id="graph0" class="graph" transform="scale(1 1) rotate(0) translate(4 248)">
<title>CUDA/inc/gpuNUFFT_operator.hpp</title>
<!-- Node1 -->
<g id="node1" class="node">
<title>Node1</title>
<g id="a_node1"><a xlink:title=" ">
<polygon fill="#bfbfbf" stroke="black" points="126.5,-224.5 126.5,-243.5 296.5,-243.5 296.5,-224.5 126.5,-224.5"/>
<text text-anchor="middle" x="211.5" y="-231.5" font-family="FreeSans.ttf" font-size="10.00">CUDA/inc/gpuNUFFT_operator.hpp</text>
</a>
</g>
</g>
<!-- Node2 -->
<g id="node2" class="node">
<title>Node2</title>
<g id="a_node2"><a xlink:href="gpuNUFFT__types_8hpp.html" target="_top" xlink:title="Definition of gpuNUFFT defined types.">
<polygon fill="none" stroke="black" points="33.5,-168.5 33.5,-187.5 145.5,-187.5 145.5,-168.5 33.5,-168.5"/>
<text text-anchor="middle" x="89.5" y="-175.5" font-family="FreeSans.ttf" font-size="10.00">gpuNUFFT_types.hpp</text>
</a>
</g>
</g>
<!-- Node1&#45;&gt;Node2 -->
<g id="edge1" class="edge">
<title>Node1&#45;&gt;Node2</title>
<path fill="none" stroke="midnightblue" d="M192.17,-224.44C172.18,-215.6 140.76,-201.69 117.94,-191.59"/>
<polygon fill="midnightblue" stroke="midnightblue" points="119.3,-188.36 108.74,-187.52 116.47,-194.76 119.3,-188.36"/>
</g>
<!-- Node3 -->
<g id="node3" class="node">
<title>Node3</title>
<g id="a_node3"><a xlink:title=" ">
<polygon fill="none" stroke="#bfbfbf" points="0,-112.5 0,-131.5 45,-131.5 45,-112.5 0,-112.5"/>
<text text-anchor="middle" x="22.5" y="-119.5" font-family="FreeSans.ttf" font-size="10.00">cstdlib</text>
</a>
</g>
</g>
<!-- Node1&#45;&gt;Node3 -->
<g id="edge24" class="edge">
<title>Node1&#45;&gt;Node3</title>
<path fill="none" stroke="midnightblue" d="M137.95,-224.49C92.05,-217.51 39.01,-205.84 24.5,-188 14.16,-175.28 14.9,-156.08 17.49,-141.84"/>
<polygon fill="midnightblue" stroke="midnightblue" points="20.99,-142.23 19.78,-131.71 14.16,-140.69 20.99,-142.23"/>
</g>
<!-- Node4 -->
<g id="node4" class="node">
<title>Node4</title>
<g id="a_node4"><a xlink:title=" ">
<polygon fill="none" stroke="#bfbfbf" points="123.5,-112.5 123.5,-131.5 177.5,-131.5 177.5,-112.5 123.5,-112.5"/>
<text text-anchor="middle" x="150.5" y="-119.5" font-family="FreeSans.ttf" font-size="10.00">iostream</text>
</a>
</g>
</g>
<!-- Node1&#45;&gt;Node4 -->
<g id="edge25" class="edge">
<title>Node1&#45;&gt;Node4</title>
<path fill="none" stroke="midnightblue" d="M206.71,-224.37C196.74,-206.38 173.54,-164.55 160.27,-140.63"/>
<polygon fill="midnightblue" stroke="midnightblue" points="163.17,-138.64 155.26,-131.59 157.05,-142.03 163.17,-138.64"/>
</g>
<!-- Node5 -->
<g id="node5" class="node">
<title>Node5</title>
<g id="a_node5"><a xlink:title=" ">
<polygon fill="none" stroke="#bfbfbf" points="59.5,-0.5 59.5,-19.5 119.5,-19.5 119.5,-0.5 59.5,-0.5"/>
<text text-anchor="middle" x="89.5" y="-7.5" font-family="FreeSans.ttf" font-size="10.00">config.hpp</text>
</a>
</g>
</g>
<!-- Node1&#45;&gt;Node5 -->
<g id="edge23" class="edge">
<title>Node1&#45;&gt;Node5</title>
<path fill="none" stroke="midnightblue" d="M211.33,-224.24C210.58,-203.51 206.68,-150.34 186.5,-112 167.51,-75.91 131.76,-43.76 109.37,-25.87"/>
<polygon fill="midnightblue" stroke="midnightblue" points="111.27,-22.91 101.23,-19.53 106.96,-28.43 111.27,-22.91"/>
</g>
<!-- Node6 -->
<g id="node6" class="node">
<title>Node6</title>
<g id="a_node6"><a xlink:href="gpuNUFFT__kernels_8hpp.html" target="_top" xlink:title="gpuNUFFT CUDA function prototypes">
<polygon fill="none" stroke="black" points="239.5,-168.5 239.5,-187.5 359.5,-187.5 359.5,-168.5 239.5,-168.5"/>
<text text-anchor="middle" x="299.5" y="-175.5" font-family="FreeSans.ttf" font-size="10.00">gpuNUFFT_kernels.hpp</text>
</a>
</g>
</g>
<!-- Node1&#45;&gt;Node6 -->
<g id="edge5" class="edge">
<title>Node1&#45;&gt;Node6</title>
<path fill="none" stroke="midnightblue" d="M225.64,-224.32C239.37,-215.9 260.44,-202.97 276.56,-193.07"/>
<polygon fill="midnightblue" stroke="midnightblue" points="278.7,-195.87 285.4,-187.65 275.04,-189.9 278.7,-195.87"/>
</g>
<!-- Node18 -->
<g id="node18" class="node">
<title>Node18</title>
<g id="a_node18"><a xlink:title=" ">
<polygon fill="none" stroke="#bfbfbf" points="416,-168.5 416,-187.5 475,-187.5 475,-168.5 416,-168.5"/>
<text text-anchor="middle" x="445.5" y="-175.5" font-family="FreeSans.ttf" font-size="10.00">functional</text>
</a>
</g>
</g>
<!-- Node1&#45;&gt;Node18 -->
<g id="edge26" class="edge">
<title>Node1&#45;&gt;Node18</title>
<path fill="none" stroke="midnightblue" d="M248.58,-224.44C291.5,-214.54 361.91,-198.29 405.88,-188.14"/>
<polygon fill="midnightblue" stroke="midnightblue" points="406.69,-191.55 415.65,-185.89 405.12,-184.73 406.69,-191.55"/>
</g>
<!-- Node2&#45;&gt;Node3 -->
<g id="edge2" class="edge">
<title>Node2&#45;&gt;Node3</title>
<path fill="none" stroke="midnightblue" d="M78.74,-168.32C68.73,-160.26 53.61,-148.08 41.57,-138.37"/>
<polygon fill="midnightblue" stroke="midnightblue" points="43.44,-135.38 33.46,-131.83 39.05,-140.83 43.44,-135.38"/>
</g>
<!-- Node2&#45;&gt;Node4 -->
<g id="edge3" class="edge">
<title>Node2&#45;&gt;Node4</title>
<path fill="none" stroke="midnightblue" d="M99.3,-168.32C108.32,-160.34 121.91,-148.31 132.82,-138.65"/>
<polygon fill="midnightblue" stroke="midnightblue" points="135.35,-141.08 140.52,-131.83 130.71,-135.84 135.35,-141.08"/>
</g>
<!-- Node2&#45;&gt;Node5 -->
<g id="edge4" class="edge">
<title>Node2&#45;&gt;Node5</title>
<path fill="none" stroke="midnightblue" d="M89.5,-168.08C89.5,-141.95 89.5,-65.21 89.5,-29.58"/>
<polygon fill="midnightblue" stroke="midnightblue" points="93,-29.57 89.5,-19.57 86,-29.57 93,-29.57"/>
</g>
<!-- Node7 -->
<g id="node7" class="node">
<title>Node7</title>
<g id="a_node7"><a xlink:href="cuda__utils_8hpp.html" target="_top" xlink:title="Util functions for CUDA memory and texture management.">
<polygon fill="none" stroke="black" points="381,-112.5 381,-131.5 460,-131.5 460,-112.5 381,-112.5"/>
<text text-anchor="middle" x="420.5" y="-119.5" font-family="FreeSans.ttf" font-size="10.00">cuda_utils.hpp</text>
</a>
</g>
</g>
<!-- Node6&#45;&gt;Node7 -->
<g id="edge6" class="edge">
<title>Node6&#45;&gt;Node7</title>
<path fill="none" stroke="midnightblue" d="M318.67,-168.44C338.41,-159.64 369.39,-145.81 391.99,-135.72"/>
<polygon fill="midnightblue" stroke="midnightblue" points="393.71,-138.79 401.42,-131.52 390.86,-132.4 393.71,-138.79"/>
</g>
<!-- Node12 -->
<g id="node12" class="node">
<title>Node12</title>
<g id="a_node12"><a xlink:href="gpuNUFFT__utils_8hpp.html" target="_top" xlink:title="Definition of util functions used in gridding operations.">
<polygon fill="none" stroke="black" points="243,-56.5 243,-75.5 350,-75.5 350,-56.5 243,-56.5"/>
<text text-anchor="middle" x="296.5" y="-63.5" font-family="FreeSans.ttf" font-size="10.00">gpuNUFFT_utils.hpp</text>
</a>
</g>
</g>
<!-- Node6&#45;&gt;Node12 -->
<g id="edge22" class="edge">
<title>Node6&#45;&gt;Node12</title>
<path fill="none" stroke="midnightblue" d="M299.26,-168.37C298.78,-150.62 297.66,-109.67 297.01,-85.6"/>
<polygon fill="midnightblue" stroke="midnightblue" points="300.51,-85.49 296.73,-75.59 293.51,-85.68 300.51,-85.49"/>
</g>
<!-- Node7&#45;&gt;Node1 -->
<g id="edge20" class="edge">
<title>Node7&#45;&gt;Node1</title>
<path fill="none" stroke="midnightblue" d="M415.98,-131.58C408.18,-145.54 390.87,-173.1 368.5,-188 343.06,-204.94 311.21,-215.6 282.86,-222.25"/>
<polygon fill="midnightblue" stroke="midnightblue" points="281.99,-218.86 272.99,-224.44 283.51,-225.69 281.99,-218.86"/>
</g>
<!-- Node8 -->
<g id="node8" class="node">
<title>Node8</title>
<g id="a_node8"><a xlink:title=" ">
<polygon fill="none" stroke="#bfbfbf" points="399,-0.5 399,-19.5 444,-19.5 444,-0.5 399,-0.5"/>
<text text-anchor="middle" x="421.5" y="-7.5" font-family="FreeSans.ttf" font-size="10.00">cuda.h</text>
</a>
</g>
</g>
<!-- Node7&#45;&gt;Node8 -->
<g id="edge7" class="edge">
<title>Node7&#45;&gt;Node8</title>
<path fill="none" stroke="midnightblue" d="M422.49,-112.43C424.47,-103.42 427.37,-88.8 428.5,-76 429.87,-60.43 427.74,-42.81 425.48,-29.85"/>
<polygon fill="midnightblue" stroke="midnightblue" points="428.88,-28.98 423.55,-19.82 422.01,-30.3 428.88,-28.98"/>
</g>
<!-- Node9 -->
<g id="node9" class="node">
<title>Node9</title>
<g id="a_node9"><a xlink:title=" ">
<polygon fill="none" stroke="#bfbfbf" points="462,-0.5 462,-19.5 545,-19.5 545,-0.5 462,-0.5"/>
<text text-anchor="middle" x="503.5" y="-7.5" font-family="FreeSans.ttf" font-size="10.00">cuda_runtime.h</text>
</a>
</g>
</g>
<!-- Node7&#45;&gt;Node9 -->
<g id="edge8" class="edge">
<title>Node7&#45;&gt;Node9</title>
<path fill="none" stroke="midnightblue" d="M427.01,-112.37C440.77,-94.14 473,-51.43 490.92,-27.68"/>
<polygon fill="midnightblue" stroke="midnightblue" points="493.79,-29.68 497.02,-19.59 488.2,-25.47 493.79,-29.68"/>
</g>
<!-- Node10 -->
<g id="node10" class="node">
<title>Node10</title>
<g id="a_node10"><a xlink:title=" ">
<polygon fill="none" stroke="#bfbfbf" points="563,-0.5 563,-19.5 608,-19.5 608,-0.5 563,-0.5"/>
<text text-anchor="middle" x="585.5" y="-7.5" font-family="FreeSans.ttf" font-size="10.00">stdio.h</text>
</a>
</g>
</g>
<!-- Node7&#45;&gt;Node10 -->
<g id="edge9" class="edge">
<title>Node7&#45;&gt;Node10</title>
<path fill="none" stroke="midnightblue" d="M433.45,-112.37C461.76,-93.49 529.42,-48.38 564.14,-25.24"/>
<polygon fill="midnightblue" stroke="midnightblue" points="566.23,-28.05 572.61,-19.59 562.35,-22.23 566.23,-28.05"/>
</g>
<!-- Node11 -->
<g id="node11" class="node">
<title>Node11</title>
<g id="a_node11"><a xlink:title=" ">
<polygon fill="none" stroke="#bfbfbf" points="552,-56.5 552,-75.5 595,-75.5 595,-56.5 552,-56.5"/>
<text text-anchor="middle" x="573.5" y="-63.5" font-family="FreeSans.ttf" font-size="10.00">cufft.h</text>
</a>
</g>
</g>
<!-- Node7&#45;&gt;Node11 -->
<g id="edge10" class="edge">
<title>Node7&#45;&gt;Node11</title>
<path fill="none" stroke="midnightblue" d="M444.74,-112.44C471.12,-103.13 513.39,-88.22 542.24,-78.03"/>
<polygon fill="midnightblue" stroke="midnightblue" points="543.58,-81.27 551.84,-74.64 541.25,-74.67 543.58,-81.27"/>
</g>
<!-- Node7&#45;&gt;Node12 -->
<g id="edge11" class="edge">
<title>Node7&#45;&gt;Node12</title>
<path fill="none" stroke="midnightblue" d="M400.85,-112.44C380.54,-103.6 348.6,-89.69 325.4,-79.59"/>
<polygon fill="midnightblue" stroke="midnightblue" points="326.62,-76.3 316.06,-75.52 323.83,-82.72 326.62,-76.3"/>
</g>
<!-- Node17 -->
<g id="node17" class="node">
<title>Node17</title>
<g id="a_node17"><a xlink:title=" ">
<polygon fill="none" stroke="#bfbfbf" points="368,-56.5 368,-75.5 419,-75.5 419,-56.5 368,-56.5"/>
<text text-anchor="middle" x="393.5" y="-63.5" font-family="FreeSans.ttf" font-size="10.00">stdarg.h</text>
</a>
</g>
</g>
<!-- Node7&#45;&gt;Node17 -->
<g id="edge21" class="edge">
<title>Node7&#45;&gt;Node17</title>
<path fill="none" stroke="midnightblue" d="M416.04,-112.08C412.35,-104.69 406.98,-93.95 402.41,-84.81"/>
<polygon fill="midnightblue" stroke="midnightblue" points="405.48,-83.13 397.88,-75.75 399.22,-86.26 405.48,-83.13"/>
</g>
<!-- Node12&#45;&gt;Node5 -->
<g id="edge16" class="edge">
<title>Node12&#45;&gt;Node5</title>
<path fill="none" stroke="midnightblue" d="M263.7,-56.44C227.39,-46.97 168.83,-31.7 129.77,-21.5"/>
<polygon fill="midnightblue" stroke="midnightblue" points="130.35,-18.04 119.79,-18.9 128.58,-24.81 130.35,-18.04"/>
</g>
<!-- Node12&#45;&gt;Node8 -->
<g id="edge14" class="edge">
<title>Node12&#45;&gt;Node8</title>
<path fill="none" stroke="midnightblue" d="M316.31,-56.44C336.79,-47.6 368.98,-33.69 392.36,-23.59"/>
<polygon fill="midnightblue" stroke="midnightblue" points="393.99,-26.7 401.79,-19.52 391.22,-20.27 393.99,-26.7"/>
</g>
<!-- Node12&#45;&gt;Node9 -->
<g id="edge15" class="edge">
<title>Node12&#45;&gt;Node9</title>
<path fill="none" stroke="midnightblue" d="M329.3,-56.44C364.88,-47.16 421.81,-32.31 460.85,-22.13"/>
<polygon fill="midnightblue" stroke="midnightblue" points="462.06,-25.43 470.85,-19.52 460.29,-18.65 462.06,-25.43"/>
</g>
<!-- Node12&#45;&gt;Node10 -->
<g id="edge13" class="edge">
<title>Node12&#45;&gt;Node10</title>
<path fill="none" stroke="midnightblue" d="M350.21,-57.39C400.39,-49.89 477.53,-37.35 552.77,-20.21"/>
<polygon fill="midnightblue" stroke="midnightblue" points="553.93,-23.54 562.89,-17.88 552.36,-16.71 553.93,-23.54"/>
</g>
<!-- Node13 -->
<g id="node13" class="node">
<title>Node13</title>
<g id="a_node13"><a xlink:title=" ">
<polygon fill="none" stroke="#bfbfbf" points="271,-0.5 271,-19.5 318,-19.5 318,-0.5 271,-0.5"/>
<text text-anchor="middle" x="294.5" y="-7.5" font-family="FreeSans.ttf" font-size="10.00">stdlib.h</text>
</a>
</g>
</g>
<!-- Node12&#45;&gt;Node13 -->
<g id="edge12" class="edge">
<title>Node12&#45;&gt;Node13</title>
<path fill="none" stroke="midnightblue" d="M296.17,-56.08C295.91,-49.01 295.53,-38.86 295.2,-29.99"/>
<polygon fill="midnightblue" stroke="midnightblue" points="298.69,-29.61 294.82,-19.75 291.7,-29.87 298.69,-29.61"/>
</g>
<!-- Node14 -->
<g id="node14" class="node">
<title>Node14</title>
<g id="a_node14"><a xlink:title=" ">
<polygon fill="none" stroke="#bfbfbf" points="336.5,-0.5 336.5,-19.5 380.5,-19.5 380.5,-0.5 336.5,-0.5"/>
<text text-anchor="middle" x="358.5" y="-7.5" font-family="FreeSans.ttf" font-size="10.00">cmath</text>
</a>
</g>
</g>
<!-- Node12&#45;&gt;Node14 -->
<g id="edge17" class="edge">
<title>Node12&#45;&gt;Node14</title>
<path fill="none" stroke="midnightblue" d="M306.46,-56.32C315.63,-48.34 329.44,-36.31 340.53,-26.65"/>
<polygon fill="midnightblue" stroke="midnightblue" points="343.12,-29.04 348.36,-19.83 338.52,-23.76 343.12,-29.04"/>
</g>
<!-- Node15 -->
<g id="node15" class="node">
<title>Node15</title>
<g id="a_node15"><a xlink:title=" ">
<polygon fill="none" stroke="#bfbfbf" points="137.5,-0.5 137.5,-19.5 183.5,-19.5 183.5,-0.5 137.5,-0.5"/>
<text text-anchor="middle" x="160.5" y="-7.5" font-family="FreeSans.ttf" font-size="10.00">math.h</text>
</a>
</g>
</g>
<!-- Node12&#45;&gt;Node15 -->
<g id="edge18" class="edge">
<title>Node12&#45;&gt;Node15</title>
<path fill="none" stroke="midnightblue" d="M274.95,-56.44C252.47,-47.52 217.01,-33.44 191.52,-23.32"/>
<polygon fill="midnightblue" stroke="midnightblue" points="192.53,-19.95 181.95,-19.52 189.95,-26.46 192.53,-19.95"/>
</g>
<!-- Node16 -->
<g id="node16" class="node">
<title>Node16</title>
<g id="a_node16"><a xlink:title=" ">
<polygon fill="none" stroke="#bfbfbf" points="202,-0.5 202,-19.5 253,-19.5 253,-0.5 202,-0.5"/>
<text text-anchor="middle" x="227.5" y="-7.5" font-family="FreeSans.ttf" font-size="10.00">assert.h</text>
</a>
</g>
</g>
<!-- Node12&#45;&gt;Node16 -->
<g id="edge19" class="edge">
<title>Node12&#45;&gt;Node16</title>
<path fill="none" stroke="midnightblue" d="M285.41,-56.32C275.01,-48.18 259.24,-35.84 246.78,-26.09"/>
<polygon fill="midnightblue" stroke="midnightblue" points="248.82,-23.24 238.79,-19.83 244.51,-28.75 248.82,-23.24"/>
</g>
</g>
</svg>
