<?xml version="1.0" encoding="UTF-8" standalone="no"?>
<!DOCTYPE svg PUBLIC "-//W3C//DTD SVG 1.1//EN"
 "http://www.w3.org/Graphics/SVG/1.1/DTD/svg11.dtd">
<!-- Generated by graphviz version 2.49.3 (20211027.1534)
 -->
<!-- Title: performFFTShift Pages: 1 -->
<svg width="290pt" height="127pt"
 viewBox="0.00 0.00 290.00 126.50" xmlns="http://www.w3.org/2000/svg" xmlns:xlink="http://www.w3.org/1999/xlink">
<g id="graph0" class="graph" transform="scale(1 1) rotate(0) translate(4 122.5)">
<title>performFFTShift</title>
<!-- Node1 -->
<g id="node1" class="node">
<title>Node1</title>
<g id="a_node1"><a xlink:title="FFT shift the grid data.">
<polygon fill="#bfbfbf" stroke="black" points="194,-44.5 194,-63.5 282,-63.5 282,-44.5 194,-44.5"/>
<text text-anchor="middle" x="238" y="-51.5" font-family="FreeSans.ttf" font-size="10.00">performFFTShift</text>
</a>
</g>
</g>
<!-- Node2 -->
<g id="node2" class="node">
<title>Node2</title>
<g id="a_node2"><a xlink:href="classgpuNUFFT_1_1GpuNUFFTOperator.html#ada5bb598b923ca3e92e987982f3d0d5b" target="_top" xlink:title="Perform forward gridding operation on kspaceData already residing in GPU memory.">
<polygon fill="none" stroke="black" points="0,-88 0,-118 158,-118 158,-88 0,-88"/>
<text text-anchor="start" x="8" y="-106" font-family="FreeSans.ttf" font-size="10.00">gpuNUFFT::GpuNUFFTOperator</text>
<text text-anchor="middle" x="79" y="-95" font-family="FreeSans.ttf" font-size="10.00">::performForwardGpuNUFFT</text>
</a>
</g>
</g>
<!-- Node1&#45;&gt;Node2 -->
<g id="edge1" class="edge">
<title>Node1&#45;&gt;Node2</title>
<path fill="none" stroke="midnightblue" d="M197.28,-66.64C184.72,-70.62 170.79,-75.01 158,-79 148.67,-81.91 138.7,-85 129.12,-87.95"/>
<polygon fill="midnightblue" stroke="midnightblue" points="198.53,-69.91 207.01,-63.55 196.42,-63.24 198.53,-69.91"/>
</g>
<!-- Node3 -->
<g id="node3" class="node">
<title>Node3</title>
<g id="a_node3"><a xlink:href="classgpuNUFFT_1_1GpuNUFFTOperator.html#a89e40ec1b777c8033bbc933c6535078c" target="_top" xlink:title="Perform Adjoint gridding operation on kspaceData already residing in GPU memory.">
<polygon fill="none" stroke="black" points="0,-39 0,-69 158,-69 158,-39 0,-39"/>
<text text-anchor="start" x="8" y="-57" font-family="FreeSans.ttf" font-size="10.00">gpuNUFFT::GpuNUFFTOperator</text>
<text text-anchor="middle" x="79" y="-46" font-family="FreeSans.ttf" font-size="10.00">::performGpuNUFFTAdj</text>
</a>
</g>
</g>
<!-- Node1&#45;&gt;Node3 -->
<g id="edge2" class="edge">
<title>Node1&#45;&gt;Node3</title>
<path fill="none" stroke="midnightblue" d="M183.54,-54C175.34,-54 166.73,-54 158.12,-54"/>
<polygon fill="midnightblue" stroke="midnightblue" points="183.68,-57.5 193.68,-54 183.68,-50.5 183.68,-57.5"/>
</g>
<!-- Node4 -->
<g id="node4" class="node">
<title>Node4</title>
<g id="a_node4"><a xlink:href="gpuNUFFT__fft__tests_8cpp.html#a143d7141da78d4955eb9d9228cd5e65e" target="_top" xlink:title=" ">
<polygon fill="none" stroke="black" points="52.5,-0.5 52.5,-19.5 105.5,-19.5 105.5,-0.5 52.5,-0.5"/>
<text text-anchor="middle" x="79" y="-7.5" font-family="FreeSans.ttf" font-size="10.00">TEST_F</text>
</a>
</g>
</g>
<!-- Node1&#45;&gt;Node4 -->
<g id="edge3" class="edge">
<title>Node1&#45;&gt;Node4</title>
<path fill="none" stroke="midnightblue" d="M197.04,-41.49C184.57,-37.68 170.74,-33.57 158,-30 140.63,-25.14 120.96,-20.1 105.72,-16.29"/>
<polygon fill="midnightblue" stroke="midnightblue" points="196.12,-44.87 206.7,-44.46 198.17,-38.17 196.12,-44.87"/>
</g>
</g>
</svg>
