<?xml version="1.0" encoding="UTF-8" standalone="no"?>
<!DOCTYPE svg PUBLIC "-//W3C//DTD SVG 1.1//EN"
 "http://www.w3.org/Graphics/SVG/1.1/DTD/svg11.dtd">
<!-- Generated by graphviz version 2.49.3 (20211027.1534)
 -->
<!-- Title: load3DKernel Pages: 1 -->
<svg width="441pt" height="75pt"
 viewBox="0.00 0.00 441.00 75.00" xmlns="http://www.w3.org/2000/svg" xmlns:xlink="http://www.w3.org/1999/xlink">
<g id="graph0" class="graph" transform="scale(1 1) rotate(0) translate(4 71)">
<title>load3DKernel</title>
<!-- Node1 -->
<g id="node1" class="node">
<title>Node1</title>
<g id="a_node1"><a xlink:title="Loads a radius of the circularly symmetric kernel into a 3&#45;d array, with respect to the kernel radius...">
<polygon fill="#bfbfbf" stroke="black" points="0,-28.5 0,-47.5 74,-47.5 74,-28.5 0,-28.5"/>
<text text-anchor="middle" x="37" y="-35.5" font-family="FreeSans.ttf" font-size="10.00">load3DKernel</text>
</a>
</g>
</g>
<!-- Node2 -->
<g id="node2" class="node">
<title>Node2</title>
<g id="a_node2"><a xlink:href="gpuNUFFT__utils_8cpp.html#a6683a749816745e9e10c65ac77ebd1c6" target="_top" xlink:title="Loads a radius of the circularly symmetric kernel into a 1&#45;d array, with respect to the kernel radius...">
<polygon fill="none" stroke="black" points="110,-28.5 110,-47.5 184,-47.5 184,-28.5 110,-28.5"/>
<text text-anchor="middle" x="147" y="-35.5" font-family="FreeSans.ttf" font-size="10.00">load1DKernel</text>
</a>
</g>
</g>
<!-- Node1&#45;&gt;Node2 -->
<g id="edge1" class="edge">
<title>Node1&#45;&gt;Node2</title>
<path fill="none" stroke="midnightblue" d="M74.26,-38C82.37,-38 91.07,-38 99.52,-38"/>
<polygon fill="midnightblue" stroke="midnightblue" points="99.65,-41.5 109.65,-38 99.65,-34.5 99.65,-41.5"/>
</g>
<!-- Node3 -->
<g id="node3" class="node">
<title>Node3</title>
<g id="a_node3"><a xlink:href="gpuNUFFT__utils_8hpp.html#a18dd3c6c4b8ac5f6947f3dc1c59651bc" target="_top" xlink:title="Interpolation Kernel evaluation for radius.">
<polygon fill="none" stroke="black" points="220,-28.5 220,-47.5 263,-47.5 263,-28.5 220,-28.5"/>
<text text-anchor="middle" x="241.5" y="-35.5" font-family="FreeSans.ttf" font-size="10.00">kernel</text>
</a>
</g>
</g>
<!-- Node2&#45;&gt;Node3 -->
<g id="edge2" class="edge">
<title>Node2&#45;&gt;Node3</title>
<path fill="none" stroke="midnightblue" d="M184.03,-38C192.49,-38 201.44,-38 209.65,-38"/>
<polygon fill="midnightblue" stroke="midnightblue" points="209.93,-41.5 219.93,-38 209.93,-34.5 209.93,-41.5"/>
</g>
<!-- Node4 -->
<g id="node4" class="node">
<title>Node4</title>
<g id="a_node4"><a xlink:href="gpuNUFFT__utils_8hpp.html#aa7b00d423ae0e06388b55594fe1adb93" target="_top" xlink:title="beta function used in interpolation function. See Beatty et al.">
<polygon fill="none" stroke="black" points="391,-47.5 391,-66.5 433,-66.5 433,-47.5 391,-47.5"/>
<text text-anchor="middle" x="412" y="-54.5" font-family="FreeSans.ttf" font-size="10.00">BETA</text>
</a>
</g>
</g>
<!-- Node3&#45;&gt;Node4 -->
<g id="edge3" class="edge">
<title>Node3&#45;&gt;Node4</title>
<path fill="none" stroke="midnightblue" d="M263.02,-46.69C273.56,-50.69 286.74,-54.99 299,-57 326.33,-61.47 357.92,-60.97 380.57,-59.64"/>
<polygon fill="midnightblue" stroke="midnightblue" points="380.87,-63.13 390.61,-58.96 380.39,-56.14 380.87,-63.13"/>
</g>
<!-- Node5 -->
<g id="node5" class="node">
<title>Node5</title>
<g id="a_node5"><a xlink:href="gpuNUFFT__utils_8cpp.html#a5472cb661dea68a2ab2b52df187b6291" target="_top" xlink:title="Modified Kaiser Bessel function of zero&#45;th order.">
<polygon fill="none" stroke="black" points="397.5,-0.5 397.5,-19.5 426.5,-19.5 426.5,-0.5 397.5,-0.5"/>
<text text-anchor="middle" x="412" y="-7.5" font-family="FreeSans.ttf" font-size="10.00">i0</text>
</a>
</g>
</g>
<!-- Node3&#45;&gt;Node5 -->
<g id="edge4" class="edge">
<title>Node3&#45;&gt;Node5</title>
<path fill="none" stroke="midnightblue" d="M263.09,-29.72C273.66,-25.83 286.83,-21.5 299,-19 329.05,-12.84 364.45,-10.85 387.28,-10.23"/>
<polygon fill="midnightblue" stroke="midnightblue" points="387.48,-13.73 397.4,-10.03 387.33,-6.73 387.48,-13.73"/>
</g>
<!-- Node6 -->
<g id="node6" class="node">
<title>Node6</title>
<g id="a_node6"><a xlink:href="gpuNUFFT__utils_8hpp.html#ab1456ac35fe51fc4dac2e0054f6d9a50" target="_top" xlink:title="I_0 function used in interpolation function. See Beatty et al.">
<polygon fill="none" stroke="black" points="299,-28.5 299,-47.5 355,-47.5 355,-28.5 299,-28.5"/>
<text text-anchor="middle" x="327" y="-35.5" font-family="FreeSans.ttf" font-size="10.00">I0_BETA</text>
</a>
</g>
</g>
<!-- Node3&#45;&gt;Node6 -->
<g id="edge5" class="edge">
<title>Node3&#45;&gt;Node6</title>
<path fill="none" stroke="midnightblue" d="M263.14,-38C270.92,-38 280.02,-38 288.84,-38"/>
<polygon fill="midnightblue" stroke="midnightblue" points="288.98,-41.5 298.98,-38 288.98,-34.5 288.98,-41.5"/>
</g>
<!-- Node6&#45;&gt;Node4 -->
<g id="edge6" class="edge">
<title>Node6&#45;&gt;Node4</title>
<path fill="none" stroke="midnightblue" d="M355.18,-44.22C363.45,-46.11 372.58,-48.2 381.02,-50.14"/>
<polygon fill="midnightblue" stroke="midnightblue" points="380.34,-53.57 390.87,-52.39 381.9,-46.75 380.34,-53.57"/>
</g>
<!-- Node6&#45;&gt;Node5 -->
<g id="edge7" class="edge">
<title>Node6&#45;&gt;Node5</title>
<path fill="none" stroke="midnightblue" d="M355.18,-28.83C365.56,-25.33 377.31,-21.36 387.35,-17.98"/>
<polygon fill="midnightblue" stroke="midnightblue" points="388.69,-21.22 397.05,-14.71 386.46,-14.59 388.69,-21.22"/>
</g>
</g>
</svg>
