<?xml version="1.0" encoding="UTF-8" standalone="no"?>
<!DOCTYPE svg PUBLIC "-//W3C//DTD SVG 1.1//EN"
 "http://www.w3.org/Graphics/SVG/1.1/DTD/svg11.dtd">
<!-- Generated by graphviz version 2.49.3 (20211027.1534)
 -->
<!-- Title: CUDA/src/gpuNUFFT_operator_factory.cpp Pages: 1 -->
<svg width="1183pt" height="498pt"
 viewBox="0.00 0.00 1183.00 498.00" xmlns="http://www.w3.org/2000/svg" xmlns:xlink="http://www.w3.org/1999/xlink">
<g id="graph0" class="graph" transform="scale(1 1) rotate(0) translate(4 494)">
<title>CUDA/src/gpuNUFFT_operator_factory.cpp</title>
<!-- Node1 -->
<g id="node1" class="node">
<title>Node1</title>
<g id="a_node1"><a xlink:title=" ">
<polygon fill="#bfbfbf" stroke="black" points="839.5,-459.5 839.5,-489.5 992.5,-489.5 992.5,-459.5 839.5,-459.5"/>
<text text-anchor="start" x="847.5" y="-477.5" font-family="FreeSans.ttf" font-size="10.00">CUDA/src/gpuNUFFT_operator</text>
<text text-anchor="middle" x="916" y="-466.5" font-family="FreeSans.ttf" font-size="10.00">_factory.cpp</text>
</a>
</g>
</g>
<!-- Node2 -->
<g id="node2" class="node">
<title>Node2</title>
<g id="a_node2"><a xlink:href="gpuNUFFT__operator__factory_8hpp.html" target="_top" xlink:title=" ">
<polygon fill="none" stroke="black" points="440,-403.5 440,-422.5 598,-422.5 598,-403.5 440,-403.5"/>
<text text-anchor="middle" x="519" y="-410.5" font-family="FreeSans.ttf" font-size="10.00">gpuNUFFT_operator_factory.hpp</text>
</a>
</g>
</g>
<!-- Node1&#45;&gt;Node2 -->
<g id="edge1" class="edge">
<title>Node1&#45;&gt;Node2</title>
<path fill="none" stroke="midnightblue" d="M839.45,-462.03C765.9,-451 655.87,-434.51 585.78,-424.01"/>
<polygon fill="midnightblue" stroke="midnightblue" points="586.14,-420.52 575.74,-422.5 585.11,-427.45 586.14,-420.52"/>
</g>
<!-- Node7 -->
<g id="node7" class="node">
<title>Node7</title>
<g id="a_node7"><a xlink:title=" ">
<polygon fill="none" stroke="#bfbfbf" points="218,-112.5 218,-131.5 272,-131.5 272,-112.5 218,-112.5"/>
<text text-anchor="middle" x="245" y="-119.5" font-family="FreeSans.ttf" font-size="10.00">iostream</text>
</a>
</g>
</g>
<!-- Node1&#45;&gt;Node7 -->
<g id="edge54" class="edge">
<title>Node1&#45;&gt;Node7</title>
<path fill="none" stroke="midnightblue" d="M839.24,-470.94C625.31,-462.78 38,-433.04 38,-352.5 38,-352.5 38,-352.5 38,-233 38,-156.98 148.2,-133.34 207.79,-126.1"/>
<polygon fill="midnightblue" stroke="midnightblue" points="208.39,-129.56 217.94,-124.97 207.61,-122.6 208.39,-129.56"/>
</g>
<!-- Node14 -->
<g id="node14" class="node">
<title>Node14</title>
<g id="a_node14"><a xlink:title=" ">
<polygon fill="none" stroke="#bfbfbf" points="886,-0.5 886,-19.5 930,-19.5 930,-0.5 886,-0.5"/>
<text text-anchor="middle" x="908" y="-7.5" font-family="FreeSans.ttf" font-size="10.00">cmath</text>
</a>
</g>
</g>
<!-- Node1&#45;&gt;Node14 -->
<g id="edge55" class="edge">
<title>Node1&#45;&gt;Node14</title>
<path fill="none" stroke="midnightblue" d="M968.42,-459.44C988.36,-451.68 1009.69,-440.04 1024,-423 1044.86,-398.14 1043,-384.95 1043,-352.5 1043,-352.5 1043,-352.5 1043,-121 1043,-68.05 979.8,-36.06 939.89,-21.14"/>
<polygon fill="midnightblue" stroke="midnightblue" points="940.89,-17.78 930.29,-17.71 938.53,-24.37 940.89,-17.78"/>
</g>
<!-- Node20 -->
<g id="node20" class="node">
<title>Node20</title>
<g id="a_node20"><a xlink:title=" ">
<polygon fill="none" stroke="#bfbfbf" points="706.5,-168.5 706.5,-187.5 765.5,-187.5 765.5,-168.5 706.5,-168.5"/>
<text text-anchor="middle" x="736" y="-175.5" font-family="FreeSans.ttf" font-size="10.00">functional</text>
</a>
</g>
</g>
<!-- Node1&#45;&gt;Node20 -->
<g id="edge57" class="edge">
<title>Node1&#45;&gt;Node20</title>
<path fill="none" stroke="midnightblue" d="M916.64,-459.31C917.49,-425.42 915.6,-338.25 878,-280 850.67,-237.67 798.79,-207.66 765.88,-191.87"/>
<polygon fill="midnightblue" stroke="midnightblue" points="767.27,-188.66 756.73,-187.61 764.32,-195 767.27,-188.66"/>
</g>
<!-- Node25 -->
<g id="node25" class="node">
<title>Node25</title>
<g id="a_node25"><a xlink:title=" ">
<polygon fill="none" stroke="#bfbfbf" points="525.5,-224.5 525.5,-243.5 584.5,-243.5 584.5,-224.5 525.5,-224.5"/>
<text text-anchor="middle" x="555" y="-231.5" font-family="FreeSans.ttf" font-size="10.00">stdexcept</text>
</a>
</g>
</g>
<!-- Node1&#45;&gt;Node25 -->
<g id="edge56" class="edge">
<title>Node1&#45;&gt;Node25</title>
<path fill="none" stroke="midnightblue" d="M907.7,-459.49C890.93,-432.24 850.45,-371.66 802,-336 736.94,-288.11 645.91,-258.6 594.48,-244.65"/>
<polygon fill="midnightblue" stroke="midnightblue" points="595.3,-241.25 584.74,-242.07 593.51,-248.01 595.3,-241.25"/>
</g>
<!-- Node27 -->
<g id="node27" class="node">
<title>Node27</title>
<g id="a_node27"><a xlink:title=" ">
<polygon fill="none" stroke="#bfbfbf" points="609,-342 609,-361 665,-361 665,-342 609,-342"/>
<text text-anchor="middle" x="637" y="-349" font-family="FreeSans.ttf" font-size="10.00">algorithm</text>
</a>
</g>
</g>
<!-- Node1&#45;&gt;Node27 -->
<g id="edge58" class="edge">
<title>Node1&#45;&gt;Node27</title>
<path fill="none" stroke="midnightblue" d="M883.45,-459.38C828.62,-435.61 718.71,-387.94 666.22,-365.17"/>
<polygon fill="midnightblue" stroke="midnightblue" points="667.38,-361.86 656.81,-361.09 664.59,-368.28 667.38,-361.86"/>
</g>
<!-- Node31 -->
<g id="node31" class="node">
<title>Node31</title>
<g id="a_node31"><a xlink:title=" ">
<polygon fill="none" stroke="#bfbfbf" points="963,-403.5 963,-422.5 1015,-422.5 1015,-403.5 963,-403.5"/>
<text text-anchor="middle" x="989" y="-410.5" font-family="FreeSans.ttf" font-size="10.00">sstream</text>
</a>
</g>
</g>
<!-- Node1&#45;&gt;Node31 -->
<g id="edge59" class="edge">
<title>Node1&#45;&gt;Node31</title>
<path fill="none" stroke="midnightblue" d="M933.3,-459.4C944.45,-450.31 958.95,-438.49 970.36,-429.19"/>
<polygon fill="midnightblue" stroke="midnightblue" points="972.84,-431.69 978.38,-422.66 968.42,-426.26 972.84,-431.69"/>
</g>
<!-- Node32 -->
<g id="node32" class="node">
<title>Node32</title>
<g id="a_node32"><a xlink:href="precomp__kernels_8hpp.html" target="_top" xlink:title="GPU Kernels for Precomputation (sector assignment)">
<polygon fill="none" stroke="black" points="683.5,-342 683.5,-361 792.5,-361 792.5,-342 683.5,-342"/>
<text text-anchor="middle" x="738" y="-349" font-family="FreeSans.ttf" font-size="10.00">precomp_kernels.hpp</text>
</a>
</g>
</g>
<!-- Node1&#45;&gt;Node32 -->
<g id="edge60" class="edge">
<title>Node1&#45;&gt;Node32</title>
<path fill="none" stroke="midnightblue" d="M895.23,-459.38C861.05,-436.15 793.32,-390.11 758.99,-366.77"/>
<polygon fill="midnightblue" stroke="midnightblue" points="760.88,-363.82 750.64,-361.09 756.94,-369.61 760.88,-363.82"/>
</g>
<!-- Node33 -->
<g id="node33" class="node">
<title>Node33</title>
<g id="a_node33"><a xlink:title=" ">
<polygon fill="none" stroke="#bfbfbf" points="1071,-403.5 1071,-422.5 1111,-422.5 1111,-403.5 1071,-403.5"/>
<text text-anchor="middle" x="1091" y="-410.5" font-family="FreeSans.ttf" font-size="10.00">limits</text>
</a>
</g>
</g>
<!-- Node1&#45;&gt;Node33 -->
<g id="edge65" class="edge">
<title>Node1&#45;&gt;Node33</title>
<path fill="none" stroke="midnightblue" d="M957.47,-459.4C989.34,-448.56 1032.59,-433.86 1061.12,-424.16"/>
<polygon fill="midnightblue" stroke="midnightblue" points="1062.58,-427.36 1070.92,-420.83 1060.33,-420.73 1062.58,-427.36"/>
</g>
<!-- Node34 -->
<g id="node34" class="node">
<title>Node34</title>
<g id="a_node34"><a xlink:title=" ">
<polygon fill="none" stroke="#bfbfbf" points="1129,-403.5 1129,-422.5 1175,-422.5 1175,-403.5 1129,-403.5"/>
<text text-anchor="middle" x="1152" y="-410.5" font-family="FreeSans.ttf" font-size="10.00">cstring</text>
</a>
</g>
</g>
<!-- Node1&#45;&gt;Node34 -->
<g id="edge66" class="edge">
<title>Node1&#45;&gt;Node34</title>
<path fill="none" stroke="midnightblue" d="M975.04,-459.4C1013.53,-450.1 1065.08,-437.4 1119.18,-423.16"/>
<polygon fill="midnightblue" stroke="midnightblue" points="1120.18,-426.52 1128.95,-420.58 1118.39,-419.75 1120.18,-426.52"/>
</g>
<!-- Node3 -->
<g id="node3" class="node">
<title>Node3</title>
<g id="a_node3"><a xlink:title=" ">
<polygon fill="none" stroke="#bfbfbf" points="311,-0.5 311,-19.5 371,-19.5 371,-0.5 311,-0.5"/>
<text text-anchor="middle" x="341" y="-7.5" font-family="FreeSans.ttf" font-size="10.00">config.hpp</text>
</a>
</g>
</g>
<!-- Node2&#45;&gt;Node3 -->
<g id="edge2" class="edge">
<title>Node2&#45;&gt;Node3</title>
<path fill="none" stroke="midnightblue" d="M439.68,-409.69C339.39,-405.65 173.23,-394.86 119,-367 48.74,-330.91 0,-313.99 0,-235 0,-235 0,-235 0,-121 0,-58.47 210.3,-26.31 300.6,-15.39"/>
<polygon fill="midnightblue" stroke="midnightblue" points="301.22,-18.84 310.74,-14.19 300.4,-11.89 301.22,-18.84"/>
</g>
<!-- Node4 -->
<g id="node4" class="node">
<title>Node4</title>
<g id="a_node4"><a xlink:href="gpuNUFFT__operator_8hpp.html" target="_top" xlink:title=" ">
<polygon fill="none" stroke="black" points="381,-224.5 381,-243.5 505,-243.5 505,-224.5 381,-224.5"/>
<text text-anchor="middle" x="443" y="-231.5" font-family="FreeSans.ttf" font-size="10.00">gpuNUFFT_operator.hpp</text>
</a>
</g>
</g>
<!-- Node2&#45;&gt;Node4 -->
<g id="edge3" class="edge">
<title>Node2&#45;&gt;Node4</title>
<path fill="none" stroke="midnightblue" d="M501.8,-403.39C488.75,-395.79 471.77,-383.39 464,-367 458.1,-354.55 459.21,-348.92 464,-336 471.35,-316.21 487.65,-319.79 495,-300 498.09,-291.67 498.7,-288.08 495,-280 489.22,-267.36 477.95,-256.91 467.37,-249.27"/>
<polygon fill="midnightblue" stroke="midnightblue" points="469.04,-246.18 458.78,-243.53 465.15,-252 469.04,-246.18"/>
</g>
<!-- Node2&#45;&gt;Node14 -->
<g id="edge47" class="edge">
<title>Node2&#45;&gt;Node14</title>
<path fill="none" stroke="midnightblue" d="M598.02,-406.87C675.26,-400.71 786.54,-388.42 824,-367 903.44,-321.57 908,-270.52 908,-179 908,-179 908,-179 908,-121 908,-88.95 908,-51.64 908,-29.75"/>
<polygon fill="midnightblue" stroke="midnightblue" points="911.5,-29.56 908,-19.56 904.5,-29.56 911.5,-29.56"/>
</g>
<!-- Node17 -->
<g id="node17" class="node">
<title>Node17</title>
<g id="a_node17"><a xlink:href="cuda__utils_8hpp.html" target="_top" xlink:title="Util functions for CUDA memory and texture management.">
<polygon fill="none" stroke="black" points="570.5,-112.5 570.5,-131.5 649.5,-131.5 649.5,-112.5 570.5,-112.5"/>
<text text-anchor="middle" x="610" y="-119.5" font-family="FreeSans.ttf" font-size="10.00">cuda_utils.hpp</text>
</a>
</g>
</g>
<!-- Node2&#45;&gt;Node17 -->
<g id="edge48" class="edge">
<title>Node2&#45;&gt;Node17</title>
<path fill="none" stroke="midnightblue" d="M521.79,-403.44C528.88,-382.09 548.61,-324.98 571,-280 579.36,-263.21 586.67,-261.65 593,-244 605.42,-209.35 608.81,-166.08 609.71,-141.8"/>
<polygon fill="midnightblue" stroke="midnightblue" points="613.21,-141.89 609.97,-131.8 606.21,-141.7 613.21,-141.89"/>
</g>
<!-- Node21 -->
<g id="node21" class="node">
<title>Node21</title>
<g id="a_node21"><a xlink:href="balanced__gpuNUFFT__operator_8hpp.html" target="_top" xlink:title=" ">
<polygon fill="none" stroke="black" points="142,-280.5 142,-299.5 310,-299.5 310,-280.5 142,-280.5"/>
<text text-anchor="middle" x="226" y="-287.5" font-family="FreeSans.ttf" font-size="10.00">balanced_gpuNUFFT_operator.hpp</text>
</a>
</g>
</g>
<!-- Node2&#45;&gt;Node21 -->
<g id="edge30" class="edge">
<title>Node2&#45;&gt;Node21</title>
<path fill="none" stroke="midnightblue" d="M498.4,-403.49C447.56,-382.5 315.95,-328.15 256.25,-303.49"/>
<polygon fill="midnightblue" stroke="midnightblue" points="257.55,-300.24 246.97,-299.66 254.88,-306.71 257.55,-300.24"/>
</g>
<!-- Node23 -->
<g id="node23" class="node">
<title>Node23</title>
<g id="a_node23"><a xlink:href="texture__gpuNUFFT__operator_8hpp.html" target="_top" xlink:title=" ">
<polygon fill="none" stroke="black" points="328,-280.5 328,-299.5 486,-299.5 486,-280.5 328,-280.5"/>
<text text-anchor="middle" x="407" y="-287.5" font-family="FreeSans.ttf" font-size="10.00">texture_gpuNUFFT_operator.hpp</text>
</a>
</g>
</g>
<!-- Node2&#45;&gt;Node23 -->
<g id="edge35" class="edge">
<title>Node2&#45;&gt;Node23</title>
<path fill="none" stroke="midnightblue" d="M489.05,-403.35C469.96,-396.41 446.07,-384.82 431,-367 417.21,-350.69 411.32,-326.41 408.82,-309.71"/>
<polygon fill="midnightblue" stroke="midnightblue" points="412.27,-309.05 407.58,-299.55 405.32,-309.9 412.27,-309.05"/>
</g>
<!-- Node26 -->
<g id="node26" class="node">
<title>Node26</title>
<g id="a_node26"><a xlink:href="balanced__texture__gpuNUFFT__operator_8hpp.html" target="_top" xlink:title=" ">
<polygon fill="none" stroke="black" points="128,-336.5 128,-366.5 272,-366.5 272,-336.5 128,-336.5"/>
<text text-anchor="start" x="136" y="-354.5" font-family="FreeSans.ttf" font-size="10.00">balanced_texture_gpuNUFFT</text>
<text text-anchor="middle" x="200" y="-343.5" font-family="FreeSans.ttf" font-size="10.00">_operator.hpp</text>
</a>
</g>
</g>
<!-- Node2&#45;&gt;Node26 -->
<g id="edge40" class="edge">
<title>Node2&#45;&gt;Node26</title>
<path fill="none" stroke="midnightblue" d="M473.3,-403.48C423.52,-394.19 342.9,-379.15 282.09,-367.81"/>
<polygon fill="midnightblue" stroke="midnightblue" points="282.6,-364.35 272.13,-365.95 281.32,-371.23 282.6,-364.35"/>
</g>
<!-- Node2&#45;&gt;Node27 -->
<g id="edge44" class="edge">
<title>Node2&#45;&gt;Node27</title>
<path fill="none" stroke="midnightblue" d="M535.91,-403.48C555.53,-393.58 588.13,-377.14 610.99,-365.62"/>
<polygon fill="midnightblue" stroke="midnightblue" points="612.77,-368.64 620.12,-361.01 609.62,-362.39 612.77,-368.64"/>
</g>
<!-- Node28 -->
<g id="node28" class="node">
<title>Node28</title>
<g id="a_node28"><a xlink:title=" ">
<polygon fill="none" stroke="#bfbfbf" points="580,-280.5 580,-299.5 624,-299.5 624,-280.5 580,-280.5"/>
<text text-anchor="middle" x="602" y="-287.5" font-family="FreeSans.ttf" font-size="10.00">vector</text>
</a>
</g>
</g>
<!-- Node2&#45;&gt;Node28 -->
<g id="edge45" class="edge">
<title>Node2&#45;&gt;Node28</title>
<path fill="none" stroke="midnightblue" d="M527.02,-403.39C535.05,-394.58 547.52,-380.34 557,-367 570.55,-347.93 583.94,-324.59 592.54,-308.85"/>
<polygon fill="midnightblue" stroke="midnightblue" points="595.79,-310.19 597.45,-299.73 589.63,-306.87 595.79,-310.19"/>
</g>
<!-- Node29 -->
<g id="node29" class="node">
<title>Node29</title>
<g id="a_node29"><a xlink:title=" ">
<polygon fill="none" stroke="#bfbfbf" points="473.5,-342 473.5,-361 514.5,-361 514.5,-342 473.5,-342"/>
<text text-anchor="middle" x="494" y="-349" font-family="FreeSans.ttf" font-size="10.00">string</text>
</a>
</g>
</g>
<!-- Node2&#45;&gt;Node29 -->
<g id="edge46" class="edge">
<title>Node2&#45;&gt;Node29</title>
<path fill="none" stroke="midnightblue" d="M515.42,-403.48C511.82,-394.9 506.15,-381.43 501.56,-370.48"/>
<polygon fill="midnightblue" stroke="midnightblue" points="504.68,-368.87 497.58,-361.01 498.22,-371.58 504.68,-368.87"/>
</g>
<!-- Node30 -->
<g id="node30" class="node">
<title>Node30</title>
<g id="a_node30"><a xlink:href="precomp__utils_8hpp.html" target="_top" xlink:title="UTIL functions for precomputation.">
<polygon fill="none" stroke="black" points="773.5,-280.5 773.5,-299.5 868.5,-299.5 868.5,-280.5 773.5,-280.5"/>
<text text-anchor="middle" x="821" y="-287.5" font-family="FreeSans.ttf" font-size="10.00">precomp_utils.hpp</text>
</a>
</g>
</g>
<!-- Node2&#45;&gt;Node30 -->
<g id="edge49" class="edge">
<title>Node2&#45;&gt;Node30</title>
<path fill="none" stroke="midnightblue" d="M598.23,-408.98C671.37,-404.54 772.93,-393.64 802,-367 817.79,-352.53 821.35,-327.1 821.74,-309.67"/>
<polygon fill="midnightblue" stroke="midnightblue" points="825.24,-309.53 821.64,-299.57 818.24,-309.6 825.24,-309.53"/>
</g>
<!-- Node4&#45;&gt;Node3 -->
<g id="edge26" class="edge">
<title>Node4&#45;&gt;Node3</title>
<path fill="none" stroke="midnightblue" d="M439,-224.3C423.9,-191.42 370.13,-74.39 349.31,-29.09"/>
<polygon fill="midnightblue" stroke="midnightblue" points="352.44,-27.51 345.08,-19.88 346.08,-30.43 352.44,-27.51"/>
</g>
<!-- Node5 -->
<g id="node5" class="node">
<title>Node5</title>
<g id="a_node5"><a xlink:href="gpuNUFFT__types_8hpp.html" target="_top" xlink:title="Definition of gpuNUFFT defined types.">
<polygon fill="none" stroke="black" points="189,-168.5 189,-187.5 301,-187.5 301,-168.5 189,-168.5"/>
<text text-anchor="middle" x="245" y="-175.5" font-family="FreeSans.ttf" font-size="10.00">gpuNUFFT_types.hpp</text>
</a>
</g>
</g>
<!-- Node4&#45;&gt;Node5 -->
<g id="edge4" class="edge">
<title>Node4&#45;&gt;Node5</title>
<path fill="none" stroke="midnightblue" d="M411.63,-224.44C377.74,-215.2 323.6,-200.44 286.28,-190.26"/>
<polygon fill="midnightblue" stroke="midnightblue" points="286.8,-186.77 276.23,-187.52 284.95,-193.52 286.8,-186.77"/>
</g>
<!-- Node6 -->
<g id="node6" class="node">
<title>Node6</title>
<g id="a_node6"><a xlink:title=" ">
<polygon fill="none" stroke="#bfbfbf" points="330.5,-112.5 330.5,-131.5 375.5,-131.5 375.5,-112.5 330.5,-112.5"/>
<text text-anchor="middle" x="353" y="-119.5" font-family="FreeSans.ttf" font-size="10.00">cstdlib</text>
</a>
</g>
</g>
<!-- Node4&#45;&gt;Node6 -->
<g id="edge27" class="edge">
<title>Node4&#45;&gt;Node6</title>
<path fill="none" stroke="midnightblue" d="M430.84,-224.32C419.61,-215.9 402.9,-202.33 391,-188 378.89,-173.42 368.3,-154.5 361.4,-140.83"/>
<polygon fill="midnightblue" stroke="midnightblue" points="364.41,-139.02 356.88,-131.57 358.12,-142.09 364.41,-139.02"/>
</g>
<!-- Node4&#45;&gt;Node7 -->
<g id="edge28" class="edge">
<title>Node4&#45;&gt;Node7</title>
<path fill="none" stroke="midnightblue" d="M427.46,-224.37C393.12,-205.29 310.56,-159.42 269.31,-136.51"/>
<polygon fill="midnightblue" stroke="midnightblue" points="270.91,-133.39 260.46,-131.59 267.51,-139.51 270.91,-133.39"/>
</g>
<!-- Node8 -->
<g id="node8" class="node">
<title>Node8</title>
<g id="a_node8"><a xlink:href="gpuNUFFT__kernels_8hpp.html" target="_top" xlink:title="gpuNUFFT CUDA function prototypes">
<polygon fill="none" stroke="black" points="471,-168.5 471,-187.5 591,-187.5 591,-168.5 471,-168.5"/>
<text text-anchor="middle" x="531" y="-175.5" font-family="FreeSans.ttf" font-size="10.00">gpuNUFFT_kernels.hpp</text>
</a>
</g>
</g>
<!-- Node4&#45;&gt;Node8 -->
<g id="edge8" class="edge">
<title>Node4&#45;&gt;Node8</title>
<path fill="none" stroke="midnightblue" d="M457.14,-224.32C470.87,-215.9 491.94,-202.97 508.06,-193.07"/>
<polygon fill="midnightblue" stroke="midnightblue" points="510.2,-195.87 516.9,-187.65 506.54,-189.9 510.2,-195.87"/>
</g>
<!-- Node4&#45;&gt;Node20 -->
<g id="edge29" class="edge">
<title>Node4&#45;&gt;Node20</title>
<path fill="none" stroke="midnightblue" d="M489.43,-224.44C546.58,-213.91 642.65,-196.2 696.45,-186.29"/>
<polygon fill="midnightblue" stroke="midnightblue" points="697.1,-189.73 706.3,-184.47 695.83,-182.84 697.1,-189.73"/>
</g>
<!-- Node5&#45;&gt;Node3 -->
<g id="edge7" class="edge">
<title>Node5&#45;&gt;Node3</title>
<path fill="none" stroke="midnightblue" d="M252.76,-168.46C260.48,-159.7 272.39,-145.5 281,-132 303.18,-97.21 323.22,-53.08 333.58,-28.89"/>
<polygon fill="midnightblue" stroke="midnightblue" points="336.85,-30.12 337.52,-19.55 330.4,-27.4 336.85,-30.12"/>
</g>
<!-- Node5&#45;&gt;Node6 -->
<g id="edge5" class="edge">
<title>Node5&#45;&gt;Node6</title>
<path fill="none" stroke="midnightblue" d="M262.35,-168.32C279.67,-159.66 306.52,-146.24 326.5,-136.25"/>
<polygon fill="midnightblue" stroke="midnightblue" points="328.31,-139.26 335.69,-131.65 325.18,-133 328.31,-139.26"/>
</g>
<!-- Node5&#45;&gt;Node7 -->
<g id="edge6" class="edge">
<title>Node5&#45;&gt;Node7</title>
<path fill="none" stroke="midnightblue" d="M245,-168.08C245,-161.01 245,-150.86 245,-141.99"/>
<polygon fill="midnightblue" stroke="midnightblue" points="248.5,-141.75 245,-131.75 241.5,-141.75 248.5,-141.75"/>
</g>
<!-- Node9 -->
<g id="node9" class="node">
<title>Node9</title>
<g id="a_node9"><a xlink:href="gpuNUFFT__utils_8hpp.html" target="_top" xlink:title="Definition of util functions used in gridding operations.">
<polygon fill="none" stroke="black" points="649.5,-56.5 649.5,-75.5 756.5,-75.5 756.5,-56.5 649.5,-56.5"/>
<text text-anchor="middle" x="703" y="-63.5" font-family="FreeSans.ttf" font-size="10.00">gpuNUFFT_utils.hpp</text>
</a>
</g>
</g>
<!-- Node8&#45;&gt;Node9 -->
<g id="edge9" class="edge">
<title>Node8&#45;&gt;Node9</title>
<path fill="none" stroke="midnightblue" d="M575.46,-168.45C601.47,-161.79 633.84,-150.47 658,-132 674.3,-119.53 686.91,-99.46 694.58,-84.92"/>
<polygon fill="midnightblue" stroke="midnightblue" points="697.75,-86.4 699.08,-75.89 691.49,-83.28 697.75,-86.4"/>
</g>
<!-- Node8&#45;&gt;Node17 -->
<g id="edge18" class="edge">
<title>Node8&#45;&gt;Node17</title>
<path fill="none" stroke="midnightblue" d="M543.69,-168.32C555.9,-159.98 574.58,-147.21 589,-137.35"/>
<polygon fill="midnightblue" stroke="midnightblue" points="591.06,-140.19 597.34,-131.65 587.11,-134.41 591.06,-140.19"/>
</g>
<!-- Node9&#45;&gt;Node3 -->
<g id="edge14" class="edge">
<title>Node9&#45;&gt;Node3</title>
<path fill="none" stroke="midnightblue" d="M649.2,-56.97C575.91,-46.04 446.37,-26.72 381.04,-16.97"/>
<polygon fill="midnightblue" stroke="midnightblue" points="381.54,-13.51 371.13,-15.49 380.5,-20.43 381.54,-13.51"/>
</g>
<!-- Node10 -->
<g id="node10" class="node">
<title>Node10</title>
<g id="a_node10"><a xlink:title=" ">
<polygon fill="none" stroke="#bfbfbf" points="719.5,-0.5 719.5,-19.5 766.5,-19.5 766.5,-0.5 719.5,-0.5"/>
<text text-anchor="middle" x="743" y="-7.5" font-family="FreeSans.ttf" font-size="10.00">stdlib.h</text>
</a>
</g>
</g>
<!-- Node9&#45;&gt;Node10 -->
<g id="edge10" class="edge">
<title>Node9&#45;&gt;Node10</title>
<path fill="none" stroke="midnightblue" d="M709.61,-56.08C715.26,-48.46 723.54,-37.26 730.45,-27.94"/>
<polygon fill="midnightblue" stroke="midnightblue" points="733.38,-29.87 736.52,-19.75 727.75,-25.7 733.38,-29.87"/>
</g>
<!-- Node11 -->
<g id="node11" class="node">
<title>Node11</title>
<g id="a_node11"><a xlink:title=" ">
<polygon fill="none" stroke="#bfbfbf" points="438.5,-0.5 438.5,-19.5 483.5,-19.5 483.5,-0.5 438.5,-0.5"/>
<text text-anchor="middle" x="461" y="-7.5" font-family="FreeSans.ttf" font-size="10.00">stdio.h</text>
</a>
</g>
</g>
<!-- Node9&#45;&gt;Node11 -->
<g id="edge11" class="edge">
<title>Node9&#45;&gt;Node11</title>
<path fill="none" stroke="midnightblue" d="M664.65,-56.44C617.4,-45.9 537.92,-28.16 493.52,-18.26"/>
<polygon fill="midnightblue" stroke="midnightblue" points="494.07,-14.79 483.55,-16.03 492.55,-21.63 494.07,-14.79"/>
</g>
<!-- Node12 -->
<g id="node12" class="node">
<title>Node12</title>
<g id="a_node12"><a xlink:title=" ">
<polygon fill="none" stroke="#bfbfbf" points="522.5,-0.5 522.5,-19.5 567.5,-19.5 567.5,-0.5 522.5,-0.5"/>
<text text-anchor="middle" x="545" y="-7.5" font-family="FreeSans.ttf" font-size="10.00">cuda.h</text>
</a>
</g>
</g>
<!-- Node9&#45;&gt;Node12 -->
<g id="edge12" class="edge">
<title>Node9&#45;&gt;Node12</title>
<path fill="none" stroke="midnightblue" d="M677.96,-56.44C650.68,-47.12 606.95,-32.17 577.14,-21.99"/>
<polygon fill="midnightblue" stroke="midnightblue" points="578.21,-18.65 567.61,-18.73 575.95,-25.28 578.21,-18.65"/>
</g>
<!-- Node13 -->
<g id="node13" class="node">
<title>Node13</title>
<g id="a_node13"><a xlink:title=" ">
<polygon fill="none" stroke="#bfbfbf" points="784.5,-0.5 784.5,-19.5 867.5,-19.5 867.5,-0.5 784.5,-0.5"/>
<text text-anchor="middle" x="826" y="-7.5" font-family="FreeSans.ttf" font-size="10.00">cuda_runtime.h</text>
</a>
</g>
</g>
<!-- Node9&#45;&gt;Node13 -->
<g id="edge13" class="edge">
<title>Node9&#45;&gt;Node13</title>
<path fill="none" stroke="midnightblue" d="M722.49,-56.44C742.64,-47.6 774.32,-33.69 797.33,-23.59"/>
<polygon fill="midnightblue" stroke="midnightblue" points="798.85,-26.74 806.6,-19.52 796.04,-20.33 798.85,-26.74"/>
</g>
<!-- Node9&#45;&gt;Node14 -->
<g id="edge15" class="edge">
<title>Node9&#45;&gt;Node14</title>
<path fill="none" stroke="midnightblue" d="M737.41,-56.42C770.58,-48.08 822.41,-34.86 876,-20.22"/>
<polygon fill="midnightblue" stroke="midnightblue" points="876.95,-23.59 885.67,-17.57 875.1,-16.84 876.95,-23.59"/>
</g>
<!-- Node15 -->
<g id="node15" class="node">
<title>Node15</title>
<g id="a_node15"><a xlink:title=" ">
<polygon fill="none" stroke="#bfbfbf" points="586,-0.5 586,-19.5 632,-19.5 632,-0.5 586,-0.5"/>
<text text-anchor="middle" x="609" y="-7.5" font-family="FreeSans.ttf" font-size="10.00">math.h</text>
</a>
</g>
</g>
<!-- Node9&#45;&gt;Node15 -->
<g id="edge16" class="edge">
<title>Node9&#45;&gt;Node15</title>
<path fill="none" stroke="midnightblue" d="M687.9,-56.32C673.1,-47.82 650.31,-34.73 633.02,-24.8"/>
<polygon fill="midnightblue" stroke="midnightblue" points="634.48,-21.6 624.07,-19.65 630.99,-27.67 634.48,-21.6"/>
</g>
<!-- Node16 -->
<g id="node16" class="node">
<title>Node16</title>
<g id="a_node16"><a xlink:title=" ">
<polygon fill="none" stroke="#bfbfbf" points="650.5,-0.5 650.5,-19.5 701.5,-19.5 701.5,-0.5 650.5,-0.5"/>
<text text-anchor="middle" x="676" y="-7.5" font-family="FreeSans.ttf" font-size="10.00">assert.h</text>
</a>
</g>
</g>
<!-- Node9&#45;&gt;Node16 -->
<g id="edge17" class="edge">
<title>Node9&#45;&gt;Node16</title>
<path fill="none" stroke="midnightblue" d="M698.54,-56.08C694.85,-48.69 689.48,-37.95 684.91,-28.81"/>
<polygon fill="midnightblue" stroke="midnightblue" points="687.98,-27.13 680.38,-19.75 681.72,-30.26 687.98,-27.13"/>
</g>
<!-- Node17&#45;&gt;Node4 -->
<g id="edge24" class="edge">
<title>Node17&#45;&gt;Node4</title>
<path fill="none" stroke="midnightblue" d="M570.45,-124.91C537.19,-128.63 490.61,-139.08 462,-168 450,-180.13 445.5,-199.41 443.85,-213.83"/>
<polygon fill="midnightblue" stroke="midnightblue" points="440.34,-213.88 443.05,-224.12 447.32,-214.42 440.34,-213.88"/>
</g>
<!-- Node17&#45;&gt;Node9 -->
<g id="edge23" class="edge">
<title>Node17&#45;&gt;Node9</title>
<path fill="none" stroke="midnightblue" d="M624.94,-112.32C639.59,-103.82 662.13,-90.73 679.24,-80.8"/>
<polygon fill="midnightblue" stroke="midnightblue" points="681.2,-83.7 688.1,-75.65 677.69,-77.65 681.2,-83.7"/>
</g>
<!-- Node17&#45;&gt;Node11 -->
<g id="edge21" class="edge">
<title>Node17&#45;&gt;Node11</title>
<path fill="none" stroke="midnightblue" d="M570.29,-119.07C538.57,-115.3 495.5,-104.78 471,-76 460.26,-63.38 458.48,-44.16 458.96,-29.9"/>
<polygon fill="midnightblue" stroke="midnightblue" points="462.46,-29.96 459.7,-19.74 455.48,-29.46 462.46,-29.96"/>
</g>
<!-- Node17&#45;&gt;Node12 -->
<g id="edge19" class="edge">
<title>Node17&#45;&gt;Node12</title>
<path fill="none" stroke="midnightblue" d="M603.5,-112.25C596.99,-103.33 586.84,-89 579,-76 569.66,-60.51 560.22,-42.2 553.66,-28.97"/>
<polygon fill="midnightblue" stroke="midnightblue" points="556.62,-27.04 549.08,-19.59 550.33,-30.12 556.62,-27.04"/>
</g>
<!-- Node17&#45;&gt;Node13 -->
<g id="edge20" class="edge">
<title>Node17&#45;&gt;Node13</title>
<path fill="none" stroke="midnightblue" d="M649.61,-115.48C682.42,-109.56 729.28,-97.89 765,-76 785.32,-63.54 803.27,-42.55 814.35,-27.79"/>
<polygon fill="midnightblue" stroke="midnightblue" points="817.29,-29.7 820.32,-19.55 811.62,-25.6 817.29,-29.7"/>
</g>
<!-- Node18 -->
<g id="node18" class="node">
<title>Node18</title>
<g id="a_node18"><a xlink:title=" ">
<polygon fill="none" stroke="#bfbfbf" points="588.5,-56.5 588.5,-75.5 631.5,-75.5 631.5,-56.5 588.5,-56.5"/>
<text text-anchor="middle" x="610" y="-63.5" font-family="FreeSans.ttf" font-size="10.00">cufft.h</text>
</a>
</g>
</g>
<!-- Node17&#45;&gt;Node18 -->
<g id="edge22" class="edge">
<title>Node17&#45;&gt;Node18</title>
<path fill="none" stroke="midnightblue" d="M610,-112.08C610,-105.01 610,-94.86 610,-85.99"/>
<polygon fill="midnightblue" stroke="midnightblue" points="613.5,-85.75 610,-75.75 606.5,-85.75 613.5,-85.75"/>
</g>
<!-- Node19 -->
<g id="node19" class="node">
<title>Node19</title>
<g id="a_node19"><a xlink:title=" ">
<polygon fill="none" stroke="#bfbfbf" points="480.5,-56.5 480.5,-75.5 531.5,-75.5 531.5,-56.5 480.5,-56.5"/>
<text text-anchor="middle" x="506" y="-63.5" font-family="FreeSans.ttf" font-size="10.00">stdarg.h</text>
</a>
</g>
</g>
<!-- Node17&#45;&gt;Node19 -->
<g id="edge25" class="edge">
<title>Node17&#45;&gt;Node19</title>
<path fill="none" stroke="midnightblue" d="M593.29,-112.32C576.69,-103.7 551,-90.36 531.78,-80.39"/>
<polygon fill="midnightblue" stroke="midnightblue" points="533.16,-77.16 522.67,-75.65 529.93,-83.37 533.16,-77.16"/>
</g>
<!-- Node21&#45;&gt;Node4 -->
<g id="edge32" class="edge">
<title>Node21&#45;&gt;Node4</title>
<path fill="none" stroke="midnightblue" d="M260.38,-280.44C297.92,-271.1 358.13,-256.12 399.07,-245.93"/>
<polygon fill="midnightblue" stroke="midnightblue" points="399.92,-249.33 408.78,-243.52 398.23,-242.53 399.92,-249.33"/>
</g>
<!-- Node21&#45;&gt;Node5 -->
<g id="edge31" class="edge">
<title>Node21&#45;&gt;Node5</title>
<path fill="none" stroke="midnightblue" d="M227.49,-280.37C230.56,-262.62 237.63,-221.67 241.79,-197.6"/>
<polygon fill="midnightblue" stroke="midnightblue" points="245.26,-198.04 243.52,-187.59 238.36,-196.85 245.26,-198.04"/>
</g>
<!-- Node22 -->
<g id="node22" class="node">
<title>Node22</title>
<g id="a_node22"><a xlink:href="balanced__operator_8hpp.html" target="_top" xlink:title=" ">
<polygon fill="none" stroke="black" points="104,-224.5 104,-243.5 218,-243.5 218,-224.5 104,-224.5"/>
<text text-anchor="middle" x="161" y="-231.5" font-family="FreeSans.ttf" font-size="10.00">balanced_operator.hpp</text>
</a>
</g>
</g>
<!-- Node21&#45;&gt;Node22 -->
<g id="edge33" class="edge">
<title>Node21&#45;&gt;Node22</title>
<path fill="none" stroke="midnightblue" d="M215.56,-280.32C205.85,-272.26 191.18,-260.08 179.5,-250.37"/>
<polygon fill="midnightblue" stroke="midnightblue" points="181.56,-247.53 171.63,-243.83 177.09,-252.92 181.56,-247.53"/>
</g>
<!-- Node22&#45;&gt;Node5 -->
<g id="edge34" class="edge">
<title>Node22&#45;&gt;Node5</title>
<path fill="none" stroke="midnightblue" d="M174.5,-224.32C187.6,-215.9 207.71,-202.97 223.11,-193.07"/>
<polygon fill="midnightblue" stroke="midnightblue" points="225.02,-196.01 231.54,-187.65 221.23,-190.12 225.02,-196.01"/>
</g>
<!-- Node23&#45;&gt;Node4 -->
<g id="edge39" class="edge">
<title>Node23&#45;&gt;Node4</title>
<path fill="none" stroke="midnightblue" d="M412.94,-280.08C417.98,-272.53 425.34,-261.49 431.51,-252.23"/>
<polygon fill="midnightblue" stroke="midnightblue" points="434.53,-254.01 437.17,-243.75 428.71,-250.13 434.53,-254.01"/>
</g>
<!-- Node23&#45;&gt;Node5 -->
<g id="edge38" class="edge">
<title>Node23&#45;&gt;Node5</title>
<path fill="none" stroke="midnightblue" d="M379.11,-280.42C357.39,-272.92 327.14,-260.62 304,-244 285.32,-230.58 268.15,-210.39 257.21,-196.08"/>
<polygon fill="midnightblue" stroke="midnightblue" points="259.74,-193.6 250.97,-187.65 254.11,-197.77 259.74,-193.6"/>
</g>
<!-- Node24 -->
<g id="node24" class="node">
<title>Node24</title>
<g id="a_node24"><a xlink:title=" ">
<polygon fill="none" stroke="#bfbfbf" points="313,-224.5 313,-243.5 363,-243.5 363,-224.5 313,-224.5"/>
<text text-anchor="middle" x="338" y="-231.5" font-family="FreeSans.ttf" font-size="10.00">typeinfo</text>
</a>
</g>
</g>
<!-- Node23&#45;&gt;Node24 -->
<g id="edge36" class="edge">
<title>Node23&#45;&gt;Node24</title>
<path fill="none" stroke="midnightblue" d="M395.91,-280.32C385.51,-272.18 369.74,-259.84 357.28,-250.09"/>
<polygon fill="midnightblue" stroke="midnightblue" points="359.32,-247.24 349.29,-243.83 355.01,-252.75 359.32,-247.24"/>
</g>
<!-- Node23&#45;&gt;Node25 -->
<g id="edge37" class="edge">
<title>Node23&#45;&gt;Node25</title>
<path fill="none" stroke="midnightblue" d="M430.45,-280.44C455.13,-271.44 494.19,-257.19 521.98,-247.05"/>
<polygon fill="midnightblue" stroke="midnightblue" points="523.46,-250.23 531.66,-243.52 521.06,-243.66 523.46,-250.23"/>
</g>
<!-- Node26&#45;&gt;Node5 -->
<g id="edge41" class="edge">
<title>Node26&#45;&gt;Node5</title>
<path fill="none" stroke="midnightblue" d="M172.98,-336.48C132.35,-313.56 63.48,-266.36 95,-224 114.32,-198.03 148.11,-186.49 178.73,-181.56"/>
<polygon fill="midnightblue" stroke="midnightblue" points="179.55,-184.98 188.97,-180.13 178.58,-178.05 179.55,-184.98"/>
</g>
<!-- Node26&#45;&gt;Node22 -->
<g id="edge43" class="edge">
<title>Node26&#45;&gt;Node22</title>
<path fill="none" stroke="midnightblue" d="M170.31,-336.34C156.26,-327.92 140.86,-315.77 133,-300 124.91,-283.76 135.46,-264.63 145.85,-251.35"/>
<polygon fill="midnightblue" stroke="midnightblue" points="148.66,-253.44 152.45,-243.55 143.32,-248.92 148.66,-253.44"/>
</g>
<!-- Node26&#45;&gt;Node23 -->
<g id="edge42" class="edge">
<title>Node26&#45;&gt;Node23</title>
<path fill="none" stroke="midnightblue" d="M248.79,-336.47C284.97,-326.08 333.67,-312.08 367.44,-302.37"/>
<polygon fill="midnightblue" stroke="midnightblue" points="368.76,-305.63 377.41,-299.51 366.83,-298.91 368.76,-305.63"/>
</g>
<!-- Node30&#45;&gt;Node4 -->
<g id="edge51" class="edge">
<title>Node30&#45;&gt;Node4</title>
<path fill="none" stroke="midnightblue" d="M773.13,-282.16C707.25,-272.75 588.22,-255.75 512.53,-244.93"/>
<polygon fill="midnightblue" stroke="midnightblue" points="513,-241.46 502.6,-243.51 512.01,-248.39 513,-241.46"/>
</g>
<!-- Node30&#45;&gt;Node9 -->
<g id="edge52" class="edge">
<title>Node30&#45;&gt;Node9</title>
<path fill="none" stroke="midnightblue" d="M821.49,-280.47C822,-267.94 822.24,-243.89 818,-224 812.42,-197.85 810.19,-190.67 796,-168 774.66,-133.9 741.04,-100.87 720.61,-82.32"/>
<polygon fill="midnightblue" stroke="midnightblue" points="722.77,-79.56 712.98,-75.51 718.11,-84.78 722.77,-79.56"/>
</g>
<!-- Node30&#45;&gt;Node14 -->
<g id="edge53" class="edge">
<title>Node30&#45;&gt;Node14</title>
<path fill="none" stroke="midnightblue" d="M827.81,-280.46C841.28,-262.69 870,-219.98 870,-179 870,-179 870,-179 870,-121 870,-86.81 886.6,-49.76 897.86,-28.57"/>
<polygon fill="midnightblue" stroke="midnightblue" points="900.95,-30.22 902.72,-19.77 894.82,-26.83 900.95,-30.22"/>
</g>
<!-- Node30&#45;&gt;Node17 -->
<g id="edge50" class="edge">
<title>Node30&#45;&gt;Node17</title>
<path fill="none" stroke="midnightblue" d="M820.31,-280.19C818.09,-257.93 809.12,-198.96 775,-168 743.68,-139.58 696.13,-128.85 660.11,-124.93"/>
<polygon fill="midnightblue" stroke="midnightblue" points="660.09,-121.41 649.81,-123.96 659.43,-128.38 660.09,-121.41"/>
</g>
<!-- Node32&#45;&gt;Node4 -->
<g id="edge62" class="edge">
<title>Node32&#45;&gt;Node4</title>
<path fill="none" stroke="midnightblue" d="M728,-341.95C710.14,-327.12 671.03,-296.61 633,-280 594.95,-263.38 549.82,-252.36 513.09,-245.39"/>
<polygon fill="midnightblue" stroke="midnightblue" points="513.43,-241.89 502.96,-243.53 512.17,-248.78 513.43,-241.89"/>
</g>
<!-- Node32&#45;&gt;Node17 -->
<g id="edge61" class="edge">
<title>Node32&#45;&gt;Node17</title>
<path fill="none" stroke="midnightblue" d="M733.14,-341.86C714.25,-308.29 645.51,-186.11 619.79,-140.41"/>
<polygon fill="midnightblue" stroke="midnightblue" points="622.82,-138.65 614.87,-131.65 616.72,-142.08 622.82,-138.65"/>
</g>
<!-- Node32&#45;&gt;Node28 -->
<g id="edge64" class="edge">
<title>Node32&#45;&gt;Node28</title>
<path fill="none" stroke="midnightblue" d="M718.51,-341.98C695.59,-331.95 657.31,-315.2 630.92,-303.65"/>
<polygon fill="midnightblue" stroke="midnightblue" points="632.01,-300.31 621.45,-299.51 629.21,-306.72 632.01,-300.31"/>
</g>
<!-- Node32&#45;&gt;Node30 -->
<g id="edge63" class="edge">
<title>Node32&#45;&gt;Node30</title>
<path fill="none" stroke="midnightblue" d="M749.89,-341.98C763.2,-332.43 785,-316.81 800.96,-305.37"/>
<polygon fill="midnightblue" stroke="midnightblue" points="803.04,-308.18 809.13,-299.51 798.96,-302.49 803.04,-308.18"/>
</g>
</g>
</svg>
