<?xml version="1.0" encoding="UTF-8" standalone="no"?>
<!DOCTYPE svg PUBLIC "-//W3C//DTD SVG 1.1//EN"
 "http://www.w3.org/Graphics/SVG/1.1/DTD/svg11.dtd">
<!-- Generated by graphviz version 2.49.3 (20211027.1534)
 -->
<!-- Title: CUDA/src/gpuNUFFT_operator.cpp Pages: 1 -->
<svg width="911pt" height="420pt"
 viewBox="0.00 0.00 911.00 420.00" xmlns="http://www.w3.org/2000/svg" xmlns:xlink="http://www.w3.org/1999/xlink">
<g id="graph0" class="graph" transform="scale(1 1) rotate(0) translate(4 416)">
<title>CUDA/src/gpuNUFFT_operator.cpp</title>
<!-- Node1 -->
<g id="node1" class="node">
<title>Node1</title>
<g id="a_node1"><a xlink:title=" ">
<polygon fill="#bfbfbf" stroke="black" points="441.5,-392.5 441.5,-411.5 612.5,-411.5 612.5,-392.5 441.5,-392.5"/>
<text text-anchor="middle" x="527" y="-399.5" font-family="FreeSans.ttf" font-size="10.00">CUDA/src/gpuNUFFT_operator.cpp</text>
</a>
</g>
</g>
<!-- Node2 -->
<g id="node2" class="node">
<title>Node2</title>
<g id="a_node2"><a xlink:href="gpuNUFFT__operator_8hpp.html" target="_top" xlink:title=" ">
<polygon fill="none" stroke="black" points="281,-224.5 281,-243.5 405,-243.5 405,-224.5 281,-224.5"/>
<text text-anchor="middle" x="343" y="-231.5" font-family="FreeSans.ttf" font-size="10.00">gpuNUFFT_operator.hpp</text>
</a>
</g>
</g>
<!-- Node1&#45;&gt;Node2 -->
<g id="edge1" class="edge">
<title>Node1&#45;&gt;Node2</title>
<path fill="none" stroke="midnightblue" d="M494,-392.35C471.83,-385.3 442.96,-373.6 422,-356 387.39,-326.93 362.36,-278.84 350.58,-252.91"/>
<polygon fill="midnightblue" stroke="midnightblue" points="353.7,-251.3 346.47,-243.55 347.29,-254.12 353.7,-251.3"/>
</g>
<!-- Node5 -->
<g id="node5" class="node">
<title>Node5</title>
<g id="a_node5"><a xlink:title=" ">
<polygon fill="none" stroke="#bfbfbf" points="11,-112.5 11,-131.5 65,-131.5 65,-112.5 11,-112.5"/>
<text text-anchor="middle" x="38" y="-119.5" font-family="FreeSans.ttf" font-size="10.00">iostream</text>
</a>
</g>
</g>
<!-- Node1&#45;&gt;Node5 -->
<g id="edge41" class="edge">
<title>Node1&#45;&gt;Node5</title>
<path fill="none" stroke="midnightblue" d="M441.45,-400.57C292.21,-397.49 0,-380.08 0,-291 0,-291 0,-291 0,-233 0,-198.81 16.6,-161.76 27.86,-140.57"/>
<polygon fill="midnightblue" stroke="midnightblue" points="30.95,-142.22 32.72,-131.77 24.82,-138.83 30.95,-142.22"/>
</g>
<!-- Node7 -->
<g id="node7" class="node">
<title>Node7</title>
<g id="a_node7"><a xlink:href="gpuNUFFT__kernels_8hpp.html" target="_top" xlink:title="gpuNUFFT CUDA function prototypes">
<polygon fill="none" stroke="black" points="502,-168.5 502,-187.5 622,-187.5 622,-168.5 502,-168.5"/>
<text text-anchor="middle" x="562" y="-175.5" font-family="FreeSans.ttf" font-size="10.00">gpuNUFFT_kernels.hpp</text>
</a>
</g>
</g>
<!-- Node1&#45;&gt;Node7 -->
<g id="edge30" class="edge">
<title>Node1&#45;&gt;Node7</title>
<path fill="none" stroke="midnightblue" d="M541.6,-392.39C565.63,-377.26 612.67,-343.35 631,-300 647.91,-260 607.15,-216.58 581.3,-194.22"/>
<polygon fill="midnightblue" stroke="midnightblue" points="583.45,-191.45 573.53,-187.73 578.96,-196.83 583.45,-191.45"/>
</g>
<!-- Node8 -->
<g id="node8" class="node">
<title>Node8</title>
<g id="a_node8"><a xlink:href="cuda__utils_8hpp.html" target="_top" xlink:title="Util functions for CUDA memory and texture management.">
<polygon fill="none" stroke="black" points="408.5,-112.5 408.5,-131.5 487.5,-131.5 487.5,-112.5 408.5,-112.5"/>
<text text-anchor="middle" x="448" y="-119.5" font-family="FreeSans.ttf" font-size="10.00">cuda_utils.hpp</text>
</a>
</g>
</g>
<!-- Node1&#45;&gt;Node8 -->
<g id="edge28" class="edge">
<title>Node1&#45;&gt;Node8</title>
<path fill="none" stroke="midnightblue" d="M463.96,-392.48C370.48,-378.04 206,-344.98 206,-291 206,-291 206,-291 206,-233 206,-149.31 327.42,-128.99 398.25,-124.26"/>
<polygon fill="midnightblue" stroke="midnightblue" points="398.53,-127.75 408.31,-123.67 398.12,-120.76 398.53,-127.75"/>
</g>
<!-- Node20 -->
<g id="node20" class="node">
<title>Node20</title>
<g id="a_node20"><a xlink:title=" ">
<polygon fill="none" stroke="#bfbfbf" points="675,-336.5 675,-355.5 759,-355.5 759,-336.5 675,-336.5"/>
<text text-anchor="middle" x="717" y="-343.5" font-family="FreeSans.ttf" font-size="10.00">cufft_config.hpp</text>
</a>
</g>
</g>
<!-- Node1&#45;&gt;Node20 -->
<g id="edge29" class="edge">
<title>Node1&#45;&gt;Node20</title>
<path fill="none" stroke="midnightblue" d="M557.11,-392.44C589.63,-383.2 641.58,-368.44 677.39,-358.26"/>
<polygon fill="midnightblue" stroke="midnightblue" points="678.37,-361.62 687.03,-355.52 676.46,-354.88 678.37,-361.62"/>
</g>
<!-- Node21 -->
<g id="node21" class="node">
<title>Node21</title>
<g id="a_node21"><a xlink:href="precomp__kernels_8hpp.html" target="_top" xlink:title="GPU Kernels for Precomputation (sector assignment)">
<polygon fill="none" stroke="black" points="431.5,-336.5 431.5,-355.5 540.5,-355.5 540.5,-336.5 431.5,-336.5"/>
<text text-anchor="middle" x="486" y="-343.5" font-family="FreeSans.ttf" font-size="10.00">precomp_kernels.hpp</text>
</a>
</g>
</g>
<!-- Node1&#45;&gt;Node21 -->
<g id="edge31" class="edge">
<title>Node1&#45;&gt;Node21</title>
<path fill="none" stroke="midnightblue" d="M520.23,-392.08C514.44,-384.46 505.94,-373.26 498.86,-363.94"/>
<polygon fill="midnightblue" stroke="midnightblue" points="501.48,-361.6 492.64,-355.75 495.9,-365.83 501.48,-361.6"/>
</g>
<!-- Node24 -->
<g id="node24" class="node">
<title>Node24</title>
<g id="a_node24"><a xlink:title=" ">
<polygon fill="none" stroke="#bfbfbf" points="777,-336.5 777,-355.5 833,-355.5 833,-336.5 777,-336.5"/>
<text text-anchor="middle" x="805" y="-343.5" font-family="FreeSans.ttf" font-size="10.00">algorithm</text>
</a>
</g>
</g>
<!-- Node1&#45;&gt;Node24 -->
<g id="edge40" class="edge">
<title>Node1&#45;&gt;Node24</title>
<path fill="none" stroke="midnightblue" d="M577.01,-392.47C623.66,-384.34 695.44,-371.36 766.7,-356.19"/>
<polygon fill="midnightblue" stroke="midnightblue" points="767.71,-359.56 776.75,-354.04 766.24,-352.71 767.71,-359.56"/>
</g>
<!-- Node25 -->
<g id="node25" class="node">
<title>Node25</title>
<g id="a_node25"><a xlink:title=" ">
<polygon fill="none" stroke="#bfbfbf" points="851,-336.5 851,-355.5 903,-355.5 903,-336.5 851,-336.5"/>
<text text-anchor="middle" x="877" y="-343.5" font-family="FreeSans.ttf" font-size="10.00">sstream</text>
</a>
</g>
</g>
<!-- Node1&#45;&gt;Node25 -->
<g id="edge42" class="edge">
<title>Node1&#45;&gt;Node25</title>
<path fill="none" stroke="midnightblue" d="M603.14,-392.5C664.81,-385.07 754.08,-373.08 840.7,-356.08"/>
<polygon fill="midnightblue" stroke="midnightblue" points="841.57,-359.48 850.7,-354.09 840.21,-352.61 841.57,-359.48"/>
</g>
<!-- Node3 -->
<g id="node3" class="node">
<title>Node3</title>
<g id="a_node3"><a xlink:href="gpuNUFFT__types_8hpp.html" target="_top" xlink:title="Definition of gpuNUFFT defined types.">
<polygon fill="none" stroke="black" points="66,-168.5 66,-187.5 178,-187.5 178,-168.5 66,-168.5"/>
<text text-anchor="middle" x="122" y="-175.5" font-family="FreeSans.ttf" font-size="10.00">gpuNUFFT_types.hpp</text>
</a>
</g>
</g>
<!-- Node2&#45;&gt;Node3 -->
<g id="edge2" class="edge">
<title>Node2&#45;&gt;Node3</title>
<path fill="none" stroke="midnightblue" d="M307.98,-224.44C269.75,-215.1 208.43,-200.12 166.74,-189.93"/>
<polygon fill="midnightblue" stroke="midnightblue" points="167.4,-186.49 156.85,-187.52 165.74,-193.29 167.4,-186.49"/>
</g>
<!-- Node4 -->
<g id="node4" class="node">
<title>Node4</title>
<g id="a_node4"><a xlink:title=" ">
<polygon fill="none" stroke="#bfbfbf" points="193.5,-112.5 193.5,-131.5 238.5,-131.5 238.5,-112.5 193.5,-112.5"/>
<text text-anchor="middle" x="216" y="-119.5" font-family="FreeSans.ttf" font-size="10.00">cstdlib</text>
</a>
</g>
</g>
<!-- Node2&#45;&gt;Node4 -->
<g id="edge25" class="edge">
<title>Node2&#45;&gt;Node4</title>
<path fill="none" stroke="midnightblue" d="M324.84,-224.43C308.87,-216.38 285.49,-203.29 268,-188 251.91,-173.94 237.06,-154.43 227.38,-140.47"/>
<polygon fill="midnightblue" stroke="midnightblue" points="230.05,-138.16 221.56,-131.82 224.24,-142.07 230.05,-138.16"/>
</g>
<!-- Node2&#45;&gt;Node5 -->
<g id="edge26" class="edge">
<title>Node2&#45;&gt;Node5</title>
<path fill="none" stroke="midnightblue" d="M280.99,-230.85C207.07,-227.01 89.42,-216.5 57,-188 43.91,-176.49 39.61,-156.52 38.31,-141.74"/>
<polygon fill="midnightblue" stroke="midnightblue" points="41.8,-141.49 37.8,-131.68 34.81,-141.85 41.8,-141.49"/>
</g>
<!-- Node6 -->
<g id="node6" class="node">
<title>Node6</title>
<g id="a_node6"><a xlink:title=" ">
<polygon fill="none" stroke="#bfbfbf" points="249,-0.5 249,-19.5 309,-19.5 309,-0.5 249,-0.5"/>
<text text-anchor="middle" x="279" y="-7.5" font-family="FreeSans.ttf" font-size="10.00">config.hpp</text>
</a>
</g>
</g>
<!-- Node2&#45;&gt;Node6 -->
<g id="edge24" class="edge">
<title>Node2&#45;&gt;Node6</title>
<path fill="none" stroke="midnightblue" d="M331.63,-224.36C321.75,-216.16 307.97,-202.91 301,-188 276.13,-134.8 276.03,-63.29 277.66,-29.79"/>
<polygon fill="midnightblue" stroke="midnightblue" points="281.16,-29.81 278.26,-19.62 274.17,-29.39 281.16,-29.81"/>
</g>
<!-- Node2&#45;&gt;Node7 -->
<g id="edge6" class="edge">
<title>Node2&#45;&gt;Node7</title>
<path fill="none" stroke="midnightblue" d="M377.7,-224.44C415.58,-215.1 476.35,-200.12 517.66,-189.93"/>
<polygon fill="midnightblue" stroke="midnightblue" points="518.59,-193.31 527.46,-187.52 516.91,-186.51 518.59,-193.31"/>
</g>
<!-- Node19 -->
<g id="node19" class="node">
<title>Node19</title>
<g id="a_node19"><a xlink:title=" ">
<polygon fill="none" stroke="#bfbfbf" points="310.5,-168.5 310.5,-187.5 369.5,-187.5 369.5,-168.5 310.5,-168.5"/>
<text text-anchor="middle" x="340" y="-175.5" font-family="FreeSans.ttf" font-size="10.00">functional</text>
</a>
</g>
</g>
<!-- Node2&#45;&gt;Node19 -->
<g id="edge27" class="edge">
<title>Node2&#45;&gt;Node19</title>
<path fill="none" stroke="midnightblue" d="M342.5,-224.08C342.11,-217.01 341.55,-206.86 341.05,-197.99"/>
<polygon fill="midnightblue" stroke="midnightblue" points="344.54,-197.54 340.49,-187.75 337.55,-197.93 344.54,-197.54"/>
</g>
<!-- Node3&#45;&gt;Node4 -->
<g id="edge3" class="edge">
<title>Node3&#45;&gt;Node4</title>
<path fill="none" stroke="midnightblue" d="M137.1,-168.32C151.9,-159.82 174.69,-146.73 191.98,-136.8"/>
<polygon fill="midnightblue" stroke="midnightblue" points="194.01,-139.67 200.93,-131.65 190.52,-133.6 194.01,-139.67"/>
</g>
<!-- Node3&#45;&gt;Node5 -->
<g id="edge4" class="edge">
<title>Node3&#45;&gt;Node5</title>
<path fill="none" stroke="midnightblue" d="M108.5,-168.32C95.4,-159.9 75.29,-146.97 59.89,-137.07"/>
<polygon fill="midnightblue" stroke="midnightblue" points="61.77,-134.12 51.46,-131.65 57.98,-140.01 61.77,-134.12"/>
</g>
<!-- Node3&#45;&gt;Node6 -->
<g id="edge5" class="edge">
<title>Node3&#45;&gt;Node6</title>
<path fill="none" stroke="midnightblue" d="M130.44,-168.08C155.8,-141.27 231.53,-61.19 263.98,-26.89"/>
<polygon fill="midnightblue" stroke="midnightblue" points="266.57,-29.24 270.9,-19.57 261.48,-24.43 266.57,-29.24"/>
</g>
<!-- Node7&#45;&gt;Node8 -->
<g id="edge7" class="edge">
<title>Node7&#45;&gt;Node8</title>
<path fill="none" stroke="midnightblue" d="M543.94,-168.44C525.43,-159.68 496.42,-145.94 475.14,-135.86"/>
<polygon fill="midnightblue" stroke="midnightblue" points="476.51,-132.63 465.98,-131.52 473.52,-138.96 476.51,-132.63"/>
</g>
<!-- Node13 -->
<g id="node13" class="node">
<title>Node13</title>
<g id="a_node13"><a xlink:href="gpuNUFFT__utils_8hpp.html" target="_top" xlink:title="Definition of util functions used in gridding operations.">
<polygon fill="none" stroke="black" points="552.5,-56.5 552.5,-75.5 659.5,-75.5 659.5,-56.5 552.5,-56.5"/>
<text text-anchor="middle" x="606" y="-63.5" font-family="FreeSans.ttf" font-size="10.00">gpuNUFFT_utils.hpp</text>
</a>
</g>
</g>
<!-- Node7&#45;&gt;Node13 -->
<g id="edge23" class="edge">
<title>Node7&#45;&gt;Node13</title>
<path fill="none" stroke="midnightblue" d="M565.45,-168.37C572.62,-150.46 589.23,-108.92 598.82,-84.95"/>
<polygon fill="midnightblue" stroke="midnightblue" points="602.1,-86.18 602.56,-75.59 595.6,-83.58 602.1,-86.18"/>
</g>
<!-- Node8&#45;&gt;Node2 -->
<g id="edge21" class="edge">
<title>Node8&#45;&gt;Node2</title>
<path fill="none" stroke="midnightblue" d="M439.8,-131.59C422.28,-149.95 380.94,-193.25 358.37,-216.9"/>
<polygon fill="midnightblue" stroke="midnightblue" points="355.61,-214.72 351.24,-224.37 360.68,-219.55 355.61,-214.72"/>
</g>
<!-- Node9 -->
<g id="node9" class="node">
<title>Node9</title>
<g id="a_node9"><a xlink:title=" ">
<polygon fill="none" stroke="#bfbfbf" points="353.5,-0.5 353.5,-19.5 398.5,-19.5 398.5,-0.5 353.5,-0.5"/>
<text text-anchor="middle" x="376" y="-7.5" font-family="FreeSans.ttf" font-size="10.00">cuda.h</text>
</a>
</g>
</g>
<!-- Node8&#45;&gt;Node9 -->
<g id="edge8" class="edge">
<title>Node8&#45;&gt;Node9</title>
<path fill="none" stroke="midnightblue" d="M446.9,-112.36C444.9,-99.26 439.74,-74 428,-56 420.25,-44.13 408.51,-33.58 398.13,-25.7"/>
<polygon fill="midnightblue" stroke="midnightblue" points="400.02,-22.74 389.86,-19.72 395.92,-28.41 400.02,-22.74"/>
</g>
<!-- Node10 -->
<g id="node10" class="node">
<title>Node10</title>
<g id="a_node10"><a xlink:title=" ">
<polygon fill="none" stroke="#bfbfbf" points="416.5,-0.5 416.5,-19.5 499.5,-19.5 499.5,-0.5 416.5,-0.5"/>
<text text-anchor="middle" x="458" y="-7.5" font-family="FreeSans.ttf" font-size="10.00">cuda_runtime.h</text>
</a>
</g>
</g>
<!-- Node8&#45;&gt;Node10 -->
<g id="edge9" class="edge">
<title>Node8&#45;&gt;Node10</title>
<path fill="none" stroke="midnightblue" d="M451.6,-112.22C455.06,-103.28 460.03,-88.94 462,-76 464.34,-60.61 463,-42.98 461.27,-29.96"/>
<polygon fill="midnightblue" stroke="midnightblue" points="464.7,-29.24 459.73,-19.88 457.78,-30.3 464.7,-29.24"/>
</g>
<!-- Node11 -->
<g id="node11" class="node">
<title>Node11</title>
<g id="a_node11"><a xlink:title=" ">
<polygon fill="none" stroke="#bfbfbf" points="517.5,-0.5 517.5,-19.5 562.5,-19.5 562.5,-0.5 517.5,-0.5"/>
<text text-anchor="middle" x="540" y="-7.5" font-family="FreeSans.ttf" font-size="10.00">stdio.h</text>
</a>
</g>
</g>
<!-- Node8&#45;&gt;Node11 -->
<g id="edge10" class="edge">
<title>Node8&#45;&gt;Node11</title>
<path fill="none" stroke="midnightblue" d="M455.22,-112.37C470.54,-94.05 506.5,-51.05 526.32,-27.36"/>
<polygon fill="midnightblue" stroke="midnightblue" points="529.08,-29.51 532.81,-19.59 523.71,-25.02 529.08,-29.51"/>
</g>
<!-- Node12 -->
<g id="node12" class="node">
<title>Node12</title>
<g id="a_node12"><a xlink:title=" ">
<polygon fill="none" stroke="#bfbfbf" points="307.5,-56.5 307.5,-75.5 350.5,-75.5 350.5,-56.5 307.5,-56.5"/>
<text text-anchor="middle" x="329" y="-63.5" font-family="FreeSans.ttf" font-size="10.00">cufft.h</text>
</a>
</g>
</g>
<!-- Node8&#45;&gt;Node12 -->
<g id="edge11" class="edge">
<title>Node8&#45;&gt;Node12</title>
<path fill="none" stroke="midnightblue" d="M429.14,-112.44C409.73,-103.64 379.27,-89.81 357.04,-79.72"/>
<polygon fill="midnightblue" stroke="midnightblue" points="358.32,-76.46 347.77,-75.52 355.43,-82.84 358.32,-76.46"/>
</g>
<!-- Node8&#45;&gt;Node13 -->
<g id="edge12" class="edge">
<title>Node8&#45;&gt;Node13</title>
<path fill="none" stroke="midnightblue" d="M473.04,-112.44C499.62,-103.36 541.81,-88.94 571.52,-78.78"/>
<polygon fill="midnightblue" stroke="midnightblue" points="572.75,-82.06 581.08,-75.52 570.49,-75.44 572.75,-82.06"/>
</g>
<!-- Node18 -->
<g id="node18" class="node">
<title>Node18</title>
<g id="a_node18"><a xlink:title=" ">
<polygon fill="none" stroke="#bfbfbf" points="368.5,-56.5 368.5,-75.5 419.5,-75.5 419.5,-56.5 368.5,-56.5"/>
<text text-anchor="middle" x="394" y="-63.5" font-family="FreeSans.ttf" font-size="10.00">stdarg.h</text>
</a>
</g>
</g>
<!-- Node8&#45;&gt;Node18 -->
<g id="edge22" class="edge">
<title>Node8&#45;&gt;Node18</title>
<path fill="none" stroke="midnightblue" d="M439.08,-112.08C431.22,-104.22 419.57,-92.57 410.08,-83.08"/>
<polygon fill="midnightblue" stroke="midnightblue" points="412.3,-80.35 402.75,-75.75 407.35,-85.3 412.3,-80.35"/>
</g>
<!-- Node13&#45;&gt;Node6 -->
<g id="edge17" class="edge">
<title>Node13&#45;&gt;Node6</title>
<path fill="none" stroke="midnightblue" d="M554.19,-56.44C488.95,-45.67 378.27,-27.39 319.11,-17.62"/>
<polygon fill="midnightblue" stroke="midnightblue" points="319.47,-14.14 309.03,-15.96 318.33,-21.04 319.47,-14.14"/>
</g>
<!-- Node13&#45;&gt;Node9 -->
<g id="edge15" class="edge">
<title>Node13&#45;&gt;Node9</title>
<path fill="none" stroke="midnightblue" d="M565.05,-56.49C526.82,-48.38 467.98,-35.48 408.57,-20.3"/>
<polygon fill="midnightblue" stroke="midnightblue" points="409.2,-16.85 398.64,-17.74 407.45,-23.63 409.2,-16.85"/>
</g>
<!-- Node13&#45;&gt;Node10 -->
<g id="edge16" class="edge">
<title>Node13&#45;&gt;Node10</title>
<path fill="none" stroke="midnightblue" d="M582.55,-56.44C557.87,-47.44 518.81,-33.19 491.02,-23.05"/>
<polygon fill="midnightblue" stroke="midnightblue" points="491.94,-19.66 481.34,-19.52 489.54,-26.23 491.94,-19.66"/>
</g>
<!-- Node13&#45;&gt;Node11 -->
<g id="edge14" class="edge">
<title>Node13&#45;&gt;Node11</title>
<path fill="none" stroke="midnightblue" d="M595.4,-56.32C585.54,-48.26 570.65,-36.08 558.78,-26.37"/>
<polygon fill="midnightblue" stroke="midnightblue" points="560.75,-23.46 550.8,-19.83 556.32,-28.88 560.75,-23.46"/>
</g>
<!-- Node14 -->
<g id="node14" class="node">
<title>Node14</title>
<g id="a_node14"><a xlink:title=" ">
<polygon fill="none" stroke="#bfbfbf" points="649.5,-0.5 649.5,-19.5 696.5,-19.5 696.5,-0.5 649.5,-0.5"/>
<text text-anchor="middle" x="673" y="-7.5" font-family="FreeSans.ttf" font-size="10.00">stdlib.h</text>
</a>
</g>
</g>
<!-- Node13&#45;&gt;Node14 -->
<g id="edge13" class="edge">
<title>Node13&#45;&gt;Node14</title>
<path fill="none" stroke="midnightblue" d="M616.76,-56.32C626.77,-48.26 641.89,-36.08 653.93,-26.37"/>
<polygon fill="midnightblue" stroke="midnightblue" points="656.45,-28.83 662.04,-19.83 652.06,-23.38 656.45,-28.83"/>
</g>
<!-- Node15 -->
<g id="node15" class="node">
<title>Node15</title>
<g id="a_node15"><a xlink:title=" ">
<polygon fill="none" stroke="#bfbfbf" points="779,-0.5 779,-19.5 823,-19.5 823,-0.5 779,-0.5"/>
<text text-anchor="middle" x="801" y="-7.5" font-family="FreeSans.ttf" font-size="10.00">cmath</text>
</a>
</g>
</g>
<!-- Node13&#45;&gt;Node15 -->
<g id="edge18" class="edge">
<title>Node13&#45;&gt;Node15</title>
<path fill="none" stroke="midnightblue" d="M637.78,-56.43C668.91,-48 717.94,-34.64 769.37,-20.15"/>
<polygon fill="midnightblue" stroke="midnightblue" points="770.32,-23.52 779,-17.43 768.42,-16.78 770.32,-23.52"/>
</g>
<!-- Node16 -->
<g id="node16" class="node">
<title>Node16</title>
<g id="a_node16"><a xlink:title=" ">
<polygon fill="none" stroke="#bfbfbf" points="715,-0.5 715,-19.5 761,-19.5 761,-0.5 715,-0.5"/>
<text text-anchor="middle" x="738" y="-7.5" font-family="FreeSans.ttf" font-size="10.00">math.h</text>
</a>
</g>
</g>
<!-- Node13&#45;&gt;Node16 -->
<g id="edge19" class="edge">
<title>Node13&#45;&gt;Node16</title>
<path fill="none" stroke="midnightblue" d="M626.92,-56.44C648.74,-47.52 683.15,-33.44 707.89,-23.32"/>
<polygon fill="midnightblue" stroke="midnightblue" points="709.25,-26.54 717.18,-19.52 706.6,-20.06 709.25,-26.54"/>
</g>
<!-- Node17 -->
<g id="node17" class="node">
<title>Node17</title>
<g id="a_node17"><a xlink:title=" ">
<polygon fill="none" stroke="#bfbfbf" points="580.5,-0.5 580.5,-19.5 631.5,-19.5 631.5,-0.5 580.5,-0.5"/>
<text text-anchor="middle" x="606" y="-7.5" font-family="FreeSans.ttf" font-size="10.00">assert.h</text>
</a>
</g>
</g>
<!-- Node13&#45;&gt;Node17 -->
<g id="edge20" class="edge">
<title>Node13&#45;&gt;Node17</title>
<path fill="none" stroke="midnightblue" d="M606,-56.08C606,-49.01 606,-38.86 606,-29.99"/>
<polygon fill="midnightblue" stroke="midnightblue" points="609.5,-29.75 606,-19.75 602.5,-29.75 609.5,-29.75"/>
</g>
<!-- Node21&#45;&gt;Node2 -->
<g id="edge33" class="edge">
<title>Node21&#45;&gt;Node2</title>
<path fill="none" stroke="midnightblue" d="M473.05,-336.32C459.97,-327.45 439.29,-313.16 422,-300 400.54,-283.66 376.74,-263.83 360.92,-250.4"/>
<polygon fill="midnightblue" stroke="midnightblue" points="362.91,-247.49 353.03,-243.66 358.36,-252.82 362.91,-247.49"/>
</g>
<!-- Node21&#45;&gt;Node8 -->
<g id="edge32" class="edge">
<title>Node21&#45;&gt;Node8</title>
<path fill="none" stroke="midnightblue" d="M477.64,-336.19C470.16,-327.68 459.67,-314.04 455,-300 436.66,-244.93 441.56,-174.85 445.4,-141.83"/>
<polygon fill="midnightblue" stroke="midnightblue" points="448.89,-142.14 446.67,-131.78 441.94,-141.26 448.89,-142.14"/>
</g>
<!-- Node22 -->
<g id="node22" class="node">
<title>Node22</title>
<g id="a_node22"><a xlink:href="precomp__utils_8hpp.html" target="_top" xlink:title="UTIL functions for precomputation.">
<polygon fill="none" stroke="black" points="526.5,-280.5 526.5,-299.5 621.5,-299.5 621.5,-280.5 526.5,-280.5"/>
<text text-anchor="middle" x="574" y="-287.5" font-family="FreeSans.ttf" font-size="10.00">precomp_utils.hpp</text>
</a>
</g>
</g>
<!-- Node21&#45;&gt;Node22 -->
<g id="edge34" class="edge">
<title>Node21&#45;&gt;Node22</title>
<path fill="none" stroke="midnightblue" d="M500.14,-336.32C513.87,-327.9 534.94,-314.97 551.06,-305.07"/>
<polygon fill="midnightblue" stroke="midnightblue" points="553.2,-307.87 559.9,-299.65 549.54,-301.9 553.2,-307.87"/>
</g>
<!-- Node23 -->
<g id="node23" class="node">
<title>Node23</title>
<g id="a_node23"><a xlink:title=" ">
<polygon fill="none" stroke="#bfbfbf" points="464,-280.5 464,-299.5 508,-299.5 508,-280.5 464,-280.5"/>
<text text-anchor="middle" x="486" y="-287.5" font-family="FreeSans.ttf" font-size="10.00">vector</text>
</a>
</g>
</g>
<!-- Node21&#45;&gt;Node23 -->
<g id="edge39" class="edge">
<title>Node21&#45;&gt;Node23</title>
<path fill="none" stroke="midnightblue" d="M486,-336.08C486,-329.01 486,-318.86 486,-309.99"/>
<polygon fill="midnightblue" stroke="midnightblue" points="489.5,-309.75 486,-299.75 482.5,-309.75 489.5,-309.75"/>
</g>
<!-- Node22&#45;&gt;Node2 -->
<g id="edge36" class="edge">
<title>Node22&#45;&gt;Node2</title>
<path fill="none" stroke="midnightblue" d="M537.4,-280.44C497.27,-271.06 432.8,-255.99 389.22,-245.8"/>
<polygon fill="midnightblue" stroke="midnightblue" points="389.97,-242.38 379.43,-243.52 388.37,-249.2 389.97,-242.38"/>
</g>
<!-- Node22&#45;&gt;Node8 -->
<g id="edge35" class="edge">
<title>Node22&#45;&gt;Node8</title>
<path fill="none" stroke="midnightblue" d="M566.64,-280.25C552.14,-262.93 519.07,-222.96 493,-188 481.12,-172.06 468.27,-153.35 459.36,-140.11"/>
<polygon fill="midnightblue" stroke="midnightblue" points="462.11,-137.92 453.64,-131.55 456.29,-141.81 462.11,-137.92"/>
</g>
<!-- Node22&#45;&gt;Node13 -->
<g id="edge37" class="edge">
<title>Node22&#45;&gt;Node13</title>
<path fill="none" stroke="midnightblue" d="M580.86,-280.49C593.74,-263.9 621.13,-225.58 631,-188 640.54,-151.67 625.34,-108.44 614.77,-84.73"/>
<polygon fill="midnightblue" stroke="midnightblue" points="617.9,-83.15 610.48,-75.58 611.56,-86.12 617.9,-83.15"/>
</g>
<!-- Node22&#45;&gt;Node15 -->
<g id="edge38" class="edge">
<title>Node22&#45;&gt;Node15</title>
<path fill="none" stroke="midnightblue" d="M594.64,-280.42C627.5,-265.23 688,-230.29 688,-179 688,-179 688,-179 688,-121 688,-74.4 737.95,-41.14 771.43,-24.08"/>
<polygon fill="midnightblue" stroke="midnightblue" points="773.35,-27.04 780.8,-19.51 770.28,-20.75 773.35,-27.04"/>
</g>
</g>
</svg>
