<?xml version="1.0" encoding="UTF-8" standalone="no"?>
<!DOCTYPE svg PUBLIC "-//W3C//DTD SVG 1.1//EN"
 "http://www.w3.org/Graphics/SVG/1.1/DTD/svg11.dtd">
<!-- Generated by graphviz version 2.49.3 (20211027.1534)
 -->
<!-- Title: CUDA/inc/gpuNUFFT_types.hpp Pages: 1 -->
<svg width="204pt" height="84pt"
 viewBox="0.00 0.00 203.50 84.00" xmlns="http://www.w3.org/2000/svg" xmlns:xlink="http://www.w3.org/1999/xlink">
<g id="graph0" class="graph" transform="scale(1 1) rotate(0) translate(4 80)">
<title>CUDA/inc/gpuNUFFT_types.hpp</title>
<!-- Node1 -->
<g id="node1" class="node">
<title>Node1</title>
<g id="a_node1"><a xlink:title="Definition of gpuNUFFT defined types.">
<polygon fill="#bfbfbf" stroke="black" points="11.5,-56.5 11.5,-75.5 169.5,-75.5 169.5,-56.5 11.5,-56.5"/>
<text text-anchor="middle" x="90.5" y="-63.5" font-family="FreeSans.ttf" font-size="10.00">CUDA/inc/gpuNUFFT_types.hpp</text>
</a>
</g>
</g>
<!-- Node2 -->
<g id="node2" class="node">
<title>Node2</title>
<g id="a_node2"><a xlink:title=" ">
<polygon fill="none" stroke="#bfbfbf" points="0,-0.5 0,-19.5 45,-19.5 45,-0.5 0,-0.5"/>
<text text-anchor="middle" x="22.5" y="-7.5" font-family="FreeSans.ttf" font-size="10.00">cstdlib</text>
</a>
</g>
</g>
<!-- Node1&#45;&gt;Node2 -->
<g id="edge1" class="edge">
<title>Node1&#45;&gt;Node2</title>
<path fill="none" stroke="midnightblue" d="M79.57,-56.32C69.33,-48.18 53.78,-35.84 41.5,-26.09"/>
<polygon fill="midnightblue" stroke="midnightblue" points="43.63,-23.31 33.62,-19.83 39.28,-28.79 43.63,-23.31"/>
</g>
<!-- Node3 -->
<g id="node3" class="node">
<title>Node3</title>
<g id="a_node3"><a xlink:title=" ">
<polygon fill="none" stroke="#bfbfbf" points="63.5,-0.5 63.5,-19.5 117.5,-19.5 117.5,-0.5 63.5,-0.5"/>
<text text-anchor="middle" x="90.5" y="-7.5" font-family="FreeSans.ttf" font-size="10.00">iostream</text>
</a>
</g>
</g>
<!-- Node1&#45;&gt;Node3 -->
<g id="edge2" class="edge">
<title>Node1&#45;&gt;Node3</title>
<path fill="none" stroke="midnightblue" d="M90.5,-56.08C90.5,-49.01 90.5,-38.86 90.5,-29.99"/>
<polygon fill="midnightblue" stroke="midnightblue" points="94,-29.75 90.5,-19.75 87,-29.75 94,-29.75"/>
</g>
<!-- Node4 -->
<g id="node4" class="node">
<title>Node4</title>
<g id="a_node4"><a xlink:title=" ">
<polygon fill="none" stroke="#bfbfbf" points="135.5,-0.5 135.5,-19.5 195.5,-19.5 195.5,-0.5 135.5,-0.5"/>
<text text-anchor="middle" x="165.5" y="-7.5" font-family="FreeSans.ttf" font-size="10.00">config.hpp</text>
</a>
</g>
</g>
<!-- Node1&#45;&gt;Node4 -->
<g id="edge3" class="edge">
<title>Node1&#45;&gt;Node4</title>
<path fill="none" stroke="midnightblue" d="M102.55,-56.32C113.96,-48.11 131.33,-35.6 144.93,-25.81"/>
<polygon fill="midnightblue" stroke="midnightblue" points="147.16,-28.52 153.23,-19.83 143.07,-22.84 147.16,-28.52"/>
</g>
</g>
</svg>
