<?xml version="1.0" encoding="UTF-8" standalone="no"?>
<!DOCTYPE svg PUBLIC "-//W3C//DTD SVG 1.1//EN"
 "http://www.w3.org/Graphics/SVG/1.1/DTD/svg11.dtd">
<!-- Generated by graphviz version 2.49.3 (20211027.1534)
 -->
<!-- Title: CUDA/inc/gpuNUFFT_utils.hpp Pages: 1 -->
<svg width="1294pt" height="520pt"
 viewBox="0.00 0.00 1293.50 520.00" xmlns="http://www.w3.org/2000/svg" xmlns:xlink="http://www.w3.org/1999/xlink">
<g id="graph0" class="graph" transform="scale(1 1) rotate(0) translate(4 516)">
<title>CUDA/inc/gpuNUFFT_utils.hpp</title>
<!-- Node1 -->
<g id="node1" class="node">
<title>Node1</title>
<g id="a_node1"><a xlink:title="Definition of util functions used in gridding operations.">
<polygon fill="#bfbfbf" stroke="black" points="442,-492.5 442,-511.5 595,-511.5 595,-492.5 442,-492.5"/>
<text text-anchor="middle" x="518.5" y="-499.5" font-family="FreeSans.ttf" font-size="10.00">CUDA/inc/gpuNUFFT_utils.hpp</text>
</a>
</g>
</g>
<!-- Node2 -->
<g id="node2" class="node">
<title>Node2</title>
<g id="a_node2"><a xlink:href="cuda__utils_8hpp.html" target="_top" xlink:title="Util functions for CUDA memory and texture management.">
<polygon fill="none" stroke="black" points="365,-436.5 365,-455.5 490,-455.5 490,-436.5 365,-436.5"/>
<text text-anchor="middle" x="427.5" y="-443.5" font-family="FreeSans.ttf" font-size="10.00">CUDA/inc/cuda_utils.hpp</text>
</a>
</g>
</g>
<!-- Node1&#45;&gt;Node2 -->
<g id="edge1" class="edge">
<title>Node1&#45;&gt;Node2</title>
<path fill="none" stroke="midnightblue" d="M495.21,-487.18C478.46,-477.24 456.4,-464.15 442.08,-455.65"/>
<polygon fill="midnightblue" stroke="midnightblue" points="493.49,-490.23 503.88,-492.32 497.07,-484.21 493.49,-490.23"/>
</g>
<!-- Node3 -->
<g id="node3" class="node">
<title>Node3</title>
<g id="a_node3"><a xlink:href="gpuNUFFT__kernels_8hpp.html" target="_top" xlink:title="gpuNUFFT CUDA function prototypes">
<polygon fill="none" stroke="black" points="1022,-380.5 1022,-399.5 1189,-399.5 1189,-380.5 1022,-380.5"/>
<text text-anchor="middle" x="1105.5" y="-387.5" font-family="FreeSans.ttf" font-size="10.00">CUDA/inc/gpuNUFFT_kernels.hpp</text>
</a>
</g>
</g>
<!-- Node1&#45;&gt;Node3 -->
<g id="edge41" class="edge">
<title>Node1&#45;&gt;Node3</title>
<path fill="none" stroke="midnightblue" d="M518.88,-481.95C520.29,-466.99 524.83,-446.93 538.5,-436 579.41,-403.3 956.31,-404.42 1008.5,-400 1012.88,-399.63 1017.37,-399.24 1021.91,-398.84"/>
<polygon fill="midnightblue" stroke="midnightblue" points="515.37,-481.98 518.32,-492.15 522.36,-482.36 515.37,-481.98"/>
</g>
<!-- Node20 -->
<g id="node20" class="node">
<title>Node20</title>
<g id="a_node20"><a xlink:href="precomp__utils_8hpp.html" target="_top" xlink:title="UTIL functions for precomputation.">
<polygon fill="none" stroke="black" points="212.5,-263 212.5,-282 354.5,-282 354.5,-263 212.5,-263"/>
<text text-anchor="middle" x="283.5" y="-270" font-family="FreeSans.ttf" font-size="10.00">CUDA/inc/precomp_utils.hpp</text>
</a>
</g>
</g>
<!-- Node1&#45;&gt;Node20 -->
<g id="edge42" class="edge">
<title>Node1&#45;&gt;Node20</title>
<path fill="none" stroke="midnightblue" d="M431.95,-492.18C404.9,-485.74 376.63,-474.73 355.5,-456 300.7,-407.43 287.16,-311.72 284.23,-282.31"/>
<polygon fill="midnightblue" stroke="midnightblue" points="431.33,-495.63 441.84,-494.36 432.83,-488.79 431.33,-495.63"/>
</g>
<!-- Node25 -->
<g id="node25" class="node">
<title>Node25</title>
<g id="a_node25"><a xlink:href="gpuNUFFT__cpu_8hpp.html" target="_top" xlink:title=" ">
<polygon fill="none" stroke="black" points="547,-436.5 547,-455.5 698,-455.5 698,-436.5 547,-436.5"/>
<text text-anchor="middle" x="622.5" y="-443.5" font-family="FreeSans.ttf" font-size="10.00">CUDA/inc/gpuNUFFT_cpu.hpp</text>
</a>
</g>
</g>
<!-- Node1&#45;&gt;Node25 -->
<g id="edge40" class="edge">
<title>Node1&#45;&gt;Node25</title>
<path fill="none" stroke="midnightblue" d="M544.33,-487.59C563.56,-477.61 589.24,-464.27 605.83,-455.65"/>
<polygon fill="midnightblue" stroke="midnightblue" points="542.47,-484.61 535.21,-492.32 545.7,-490.82 542.47,-484.61"/>
</g>
<!-- Node26 -->
<g id="node26" class="node">
<title>Node26</title>
<g id="a_node26"><a xlink:href="gpuNUFFT__utils_8cpp.html" target="_top" xlink:title=" ">
<polygon fill="none" stroke="black" points="716.5,-436.5 716.5,-455.5 870.5,-455.5 870.5,-436.5 716.5,-436.5"/>
<text text-anchor="middle" x="793.5" y="-443.5" font-family="FreeSans.ttf" font-size="10.00">CUDA/src/gpuNUFFT_utils.cpp</text>
</a>
</g>
</g>
<!-- Node1&#45;&gt;Node26 -->
<g id="edge43" class="edge">
<title>Node1&#45;&gt;Node26</title>
<path fill="none" stroke="midnightblue" d="M572.11,-490.47C624.08,-480.27 701.94,-464.98 750.13,-455.52"/>
<polygon fill="midnightblue" stroke="midnightblue" points="571.21,-487.08 562.07,-492.44 572.56,-493.95 571.21,-487.08"/>
</g>
<!-- Node2&#45;&gt;Node3 -->
<g id="edge2" class="edge">
<title>Node2&#45;&gt;Node3</title>
<path fill="none" stroke="midnightblue" d="M500.06,-436.43C501.55,-436.28 503.03,-436.14 504.5,-436 728.08,-414.96 784.68,-418.37 1008.5,-400 1012.88,-399.64 1017.38,-399.26 1021.91,-398.87"/>
<polygon fill="midnightblue" stroke="midnightblue" points="499.68,-432.95 490.09,-437.45 500.39,-439.91 499.68,-432.95"/>
</g>
<!-- Node6 -->
<g id="node6" class="node">
<title>Node6</title>
<g id="a_node6"><a xlink:href="gpuNUFFT__operator__factory_8hpp.html" target="_top" xlink:title=" ">
<polygon fill="none" stroke="black" points="542.5,-123.5 542.5,-153.5 694.5,-153.5 694.5,-123.5 542.5,-123.5"/>
<text text-anchor="start" x="550.5" y="-141.5" font-family="FreeSans.ttf" font-size="10.00">CUDA/inc/gpuNUFFT_operator</text>
<text text-anchor="middle" x="618.5" y="-130.5" font-family="FreeSans.ttf" font-size="10.00">_factory.hpp</text>
</a>
</g>
</g>
<!-- Node2&#45;&gt;Node6 -->
<g id="edge36" class="edge">
<title>Node2&#45;&gt;Node6</title>
<path fill="none" stroke="midnightblue" d="M376.67,-434.25C301.24,-416.81 168.5,-379.77 168.5,-335 168.5,-335 168.5,-335 168.5,-271.5 168.5,-229.69 180.67,-213.13 215.5,-190 267.56,-155.43 440.72,-144.52 542.34,-141.08"/>
<polygon fill="midnightblue" stroke="midnightblue" points="375.93,-437.67 386.46,-436.48 377.49,-430.85 375.93,-437.67"/>
</g>
<!-- Node18 -->
<g id="node18" class="node">
<title>Node18</title>
<g id="a_node18"><a xlink:href="precomp__kernels_8hpp.html" target="_top" xlink:title="GPU Kernels for Precomputation (sector assignment)">
<polygon fill="none" stroke="black" points="235,-196 235,-215 390,-215 390,-196 235,-196"/>
<text text-anchor="middle" x="312.5" y="-203" font-family="FreeSans.ttf" font-size="10.00">CUDA/inc/precomp_kernels.hpp</text>
</a>
</g>
</g>
<!-- Node2&#45;&gt;Node18 -->
<g id="edge37" class="edge">
<title>Node2&#45;&gt;Node18</title>
<path fill="none" stroke="midnightblue" d="M424.11,-426.26C417.1,-390.97 398.66,-313.17 363.5,-257 352.79,-239.89 335.21,-224.21 323.75,-215.01"/>
<polygon fill="midnightblue" stroke="midnightblue" points="420.68,-426.97 425.99,-436.14 427.56,-425.66 420.68,-426.97"/>
</g>
<!-- Node19 -->
<g id="node19" class="node">
<title>Node19</title>
<g id="a_node19"><a xlink:href="gpuNUFFT__operator_8cpp.html" target="_top" xlink:title=" ">
<polygon fill="none" stroke="black" points="963,-129 963,-148 1134,-148 1134,-129 963,-129"/>
<text text-anchor="middle" x="1048.5" y="-136" font-family="FreeSans.ttf" font-size="10.00">CUDA/src/gpuNUFFT_operator.cpp</text>
</a>
</g>
</g>
<!-- Node2&#45;&gt;Node19 -->
<g id="edge39" class="edge">
<title>Node2&#45;&gt;Node19</title>
<path fill="none" stroke="midnightblue" d="M467.96,-433.7C550.58,-410.16 744.11,-352.66 900.5,-288 962.03,-262.56 994.81,-274.46 1034.5,-221 1050.93,-198.87 1050.59,-164.09 1049.39,-148.08"/>
<polygon fill="midnightblue" stroke="midnightblue" points="466.87,-430.37 458.21,-436.47 468.78,-437.1 466.87,-430.37"/>
</g>
<!-- Node2&#45;&gt;Node20 -->
<g id="edge38" class="edge">
<title>Node2&#45;&gt;Node20</title>
<path fill="none" stroke="midnightblue" d="M405.44,-430.78C393.71,-422.61 379.48,-411.66 368.5,-400 331.49,-360.71 299.49,-303.71 288.02,-282.17"/>
<polygon fill="midnightblue" stroke="midnightblue" points="403.59,-433.76 413.83,-436.46 407.51,-427.96 403.59,-433.76"/>
</g>
<!-- Node4 -->
<g id="node4" class="node">
<title>Node4</title>
<g id="a_node4"><a xlink:href="gpuNUFFT__operator_8hpp.html" target="_top" xlink:title=" ">
<polygon fill="none" stroke="black" points="494.5,-324.5 494.5,-343.5 664.5,-343.5 664.5,-324.5 494.5,-324.5"/>
<text text-anchor="middle" x="579.5" y="-331.5" font-family="FreeSans.ttf" font-size="10.00">CUDA/inc/gpuNUFFT_operator.hpp</text>
</a>
</g>
</g>
<!-- Node3&#45;&gt;Node4 -->
<g id="edge3" class="edge">
<title>Node3&#45;&gt;Node4</title>
<path fill="none" stroke="midnightblue" d="M1012.43,-379.45C913.26,-369.26 757.71,-353.3 662.55,-343.53"/>
<polygon fill="midnightblue" stroke="midnightblue" points="1012.14,-382.93 1022.44,-380.47 1012.85,-375.97 1012.14,-382.93"/>
</g>
<!-- Node3&#45;&gt;Node19 -->
<g id="edge35" class="edge">
<title>Node3&#45;&gt;Node19</title>
<path fill="none" stroke="midnightblue" d="M1106.03,-370.3C1106.46,-334.25 1104.5,-253.14 1081.5,-190 1075.62,-173.86 1063.73,-157.68 1055.94,-148.13"/>
<polygon fill="midnightblue" stroke="midnightblue" points="1102.53,-370.27 1105.83,-380.34 1109.53,-370.41 1102.53,-370.27"/>
</g>
<!-- Node4&#45;&gt;Node2 -->
<g id="edge20" class="edge">
<title>Node4&#45;&gt;Node2</title>
<path fill="none" stroke="midnightblue" d="M559.42,-349.53C527.31,-372.77 465.4,-417.57 439.43,-436.37"/>
<polygon fill="midnightblue" stroke="midnightblue" points="561.58,-352.29 567.63,-343.59 557.48,-346.62 561.58,-352.29"/>
</g>
<!-- Node5 -->
<g id="node5" class="node">
<title>Node5</title>
<g id="a_node5"><a xlink:href="balanced__gpuNUFFT__operator_8hpp.html" target="_top" xlink:title=" ">
<polygon fill="none" stroke="black" points="448.5,-257.5 448.5,-287.5 604.5,-287.5 604.5,-257.5 448.5,-257.5"/>
<text text-anchor="start" x="456.5" y="-275.5" font-family="FreeSans.ttf" font-size="10.00">CUDA/inc/balanced_gpuNUFFT</text>
<text text-anchor="middle" x="526.5" y="-264.5" font-family="FreeSans.ttf" font-size="10.00">_operator.hpp</text>
</a>
</g>
</g>
<!-- Node4&#45;&gt;Node5 -->
<g id="edge4" class="edge">
<title>Node4&#45;&gt;Node5</title>
<path fill="none" stroke="midnightblue" d="M565.08,-316.81C556.92,-307.65 546.81,-296.3 538.99,-287.52"/>
<polygon fill="midnightblue" stroke="midnightblue" points="562.64,-319.34 571.91,-324.48 567.87,-314.68 562.64,-319.34"/>
</g>
<!-- Node4&#45;&gt;Node6 -->
<g id="edge21" class="edge">
<title>Node4&#45;&gt;Node6</title>
<path fill="none" stroke="midnightblue" d="M595.52,-316.91C602.4,-308.91 609.72,-298.69 613.5,-288 630.12,-241.07 624.52,-180.5 620.76,-153.53"/>
<polygon fill="midnightblue" stroke="midnightblue" points="592.86,-314.62 588.68,-324.36 598.02,-319.36 592.86,-314.62"/>
</g>
<!-- Node4&#45;&gt;Node18 -->
<g id="edge22" class="edge">
<title>Node4&#45;&gt;Node18</title>
<path fill="none" stroke="midnightblue" d="M532.4,-321.83C504.54,-314.26 469.03,-302.92 439.5,-288 418.47,-277.38 416.17,-269.97 396.5,-257 372.92,-241.45 344.6,-224.83 327.6,-215.07"/>
<polygon fill="midnightblue" stroke="midnightblue" points="531.74,-325.28 542.3,-324.45 533.52,-318.51 531.74,-325.28"/>
</g>
<!-- Node4&#45;&gt;Node19 -->
<g id="edge34" class="edge">
<title>Node4&#45;&gt;Node19</title>
<path fill="none" stroke="midnightblue" d="M650.11,-322.89C758.36,-306.08 958.31,-269.36 1010.5,-221 1032.49,-200.63 1042.87,-164.97 1046.69,-148.41"/>
<polygon fill="midnightblue" stroke="midnightblue" points="649.28,-319.48 639.93,-324.46 650.34,-326.4 649.28,-319.48"/>
</g>
<!-- Node4&#45;&gt;Node20 -->
<g id="edge25" class="edge">
<title>Node4&#45;&gt;Node20</title>
<path fill="none" stroke="midnightblue" d="M527.14,-322.47C469.77,-310.94 378.88,-292.67 325.83,-282.01"/>
<polygon fill="midnightblue" stroke="midnightblue" points="526.6,-325.94 537.09,-324.48 527.98,-319.07 526.6,-325.94"/>
</g>
<!-- Node21 -->
<g id="node21" class="node">
<title>Node21</title>
<g id="a_node21"><a xlink:href="texture__gpuNUFFT__operator_8hpp.html" target="_top" xlink:title=" ">
<polygon fill="none" stroke="black" points="677.5,-257.5 677.5,-287.5 823.5,-287.5 823.5,-257.5 677.5,-257.5"/>
<text text-anchor="start" x="685.5" y="-275.5" font-family="FreeSans.ttf" font-size="10.00">CUDA/inc/texture_gpuNUFFT</text>
<text text-anchor="middle" x="750.5" y="-264.5" font-family="FreeSans.ttf" font-size="10.00">_operator.hpp</text>
</a>
</g>
</g>
<!-- Node4&#45;&gt;Node21 -->
<g id="edge28" class="edge">
<title>Node4&#45;&gt;Node21</title>
<path fill="none" stroke="midnightblue" d="M613.69,-321.1C641.52,-311.42 680.84,-297.74 710.2,-287.52"/>
<polygon fill="midnightblue" stroke="midnightblue" points="612.29,-317.88 604,-324.48 614.59,-324.49 612.29,-317.88"/>
</g>
<!-- Node5&#45;&gt;Node6 -->
<g id="edge5" class="edge">
<title>Node5&#45;&gt;Node6</title>
<path fill="none" stroke="midnightblue" d="M473.02,-252.82C459,-245.21 445.57,-234.85 437.5,-221 430.57,-209.09 429.17,-200.97 437.5,-190 450.62,-172.72 498.96,-159.77 542.39,-151.3"/>
<polygon fill="midnightblue" stroke="midnightblue" points="471.76,-256.1 482.27,-257.44 474.89,-249.84 471.76,-256.1"/>
</g>
<!-- Node17 -->
<g id="node17" class="node">
<title>Node17</title>
<g id="a_node17"><a xlink:href="balanced__gpuNUFFT__operator_8cpp.html" target="_top" xlink:title=" ">
<polygon fill="none" stroke="black" points="447,-190.5 447,-220.5 604,-220.5 604,-190.5 447,-190.5"/>
<text text-anchor="start" x="455" y="-208.5" font-family="FreeSans.ttf" font-size="10.00">CUDA/src/balanced_gpuNUFFT</text>
<text text-anchor="middle" x="525.5" y="-197.5" font-family="FreeSans.ttf" font-size="10.00">_operator.cpp</text>
</a>
</g>
</g>
<!-- Node5&#45;&gt;Node17 -->
<g id="edge19" class="edge">
<title>Node5&#45;&gt;Node17</title>
<path fill="none" stroke="midnightblue" d="M526.12,-247.11C525.99,-238.15 525.84,-228.32 525.72,-220.58"/>
<polygon fill="midnightblue" stroke="midnightblue" points="522.63,-247.45 526.28,-257.4 529.63,-247.34 522.63,-247.45"/>
</g>
<!-- Node7 -->
<g id="node7" class="node">
<title>Node7</title>
<g id="a_node7"><a xlink:href="gpuNUFFT__operator__factory_8cpp.html" target="_top" xlink:title=" ">
<polygon fill="none" stroke="black" points="0,-56.5 0,-86.5 153,-86.5 153,-56.5 0,-56.5"/>
<text text-anchor="start" x="8" y="-74.5" font-family="FreeSans.ttf" font-size="10.00">CUDA/src/gpuNUFFT_operator</text>
<text text-anchor="middle" x="76.5" y="-63.5" font-family="FreeSans.ttf" font-size="10.00">_factory.cpp</text>
</a>
</g>
</g>
<!-- Node6&#45;&gt;Node7 -->
<g id="edge6" class="edge">
<title>Node6&#45;&gt;Node7</title>
<path fill="none" stroke="midnightblue" d="M532.41,-129.44C440.6,-120.49 291,-104.93 162.5,-87 159.5,-86.58 156.45,-86.14 153.36,-85.68"/>
<polygon fill="midnightblue" stroke="midnightblue" points="532.2,-132.93 542.49,-130.41 532.88,-125.96 532.2,-132.93"/>
</g>
<!-- Node8 -->
<g id="node8" class="node">
<title>Node8</title>
<g id="a_node8"><a xlink:href="gpuNUFFT__forward__tests_8cpp.html" target="_top" xlink:title=" ">
<polygon fill="none" stroke="black" points="982,-56.5 982,-86.5 1133,-86.5 1133,-56.5 982,-56.5"/>
<text text-anchor="start" x="990" y="-74.5" font-family="FreeSans.ttf" font-size="10.00">CUDA/test/gpu/forward</text>
<text text-anchor="middle" x="1057.5" y="-63.5" font-family="FreeSans.ttf" font-size="10.00">/gpuNUFFT_forward_tests.cpp</text>
</a>
</g>
</g>
<!-- Node6&#45;&gt;Node8 -->
<g id="edge7" class="edge">
<title>Node6&#45;&gt;Node8</title>
<path fill="none" stroke="midnightblue" d="M705.05,-122.95C822.82,-105.13 854,-103.91 967.5,-87 972.2,-86.3 977.03,-85.57 981.9,-84.81"/>
<polygon fill="midnightblue" stroke="midnightblue" points="704.27,-119.53 694.91,-124.49 705.33,-126.45 704.27,-119.53"/>
</g>
<!-- Node9 -->
<g id="node9" class="node">
<title>Node9</title>
<g id="a_node9"><a xlink:href="gpuNUFFT__2D__conv__tests_8cpp.html" target="_top" xlink:title=" ">
<polygon fill="none" stroke="black" points="1151.5,-56.5 1151.5,-86.5 1285.5,-86.5 1285.5,-56.5 1151.5,-56.5"/>
<text text-anchor="start" x="1159.5" y="-74.5" font-family="FreeSans.ttf" font-size="10.00">CUDA/test/gpu/gpuNUFFT</text>
<text text-anchor="middle" x="1218.5" y="-63.5" font-family="FreeSans.ttf" font-size="10.00">_2D_conv_tests.cpp</text>
</a>
</g>
</g>
<!-- Node6&#45;&gt;Node9 -->
<g id="edge8" class="edge">
<title>Node6&#45;&gt;Node9</title>
<path fill="none" stroke="midnightblue" d="M704.89,-123.04C900.03,-99.21 952.17,-112.9 1142.5,-87 1145.43,-86.6 1148.41,-86.16 1151.43,-85.7"/>
<polygon fill="midnightblue" stroke="midnightblue" points="704.38,-119.57 694.88,-124.28 705.24,-126.52 704.38,-119.57"/>
</g>
<!-- Node10 -->
<g id="node10" class="node">
<title>Node10</title>
<g id="a_node10"><a xlink:href="gpuNUFFT__conv__tests_8cpp.html" target="_top" xlink:title=" ">
<polygon fill="none" stroke="black" points="171.5,-56.5 171.5,-86.5 305.5,-86.5 305.5,-56.5 171.5,-56.5"/>
<text text-anchor="start" x="179.5" y="-74.5" font-family="FreeSans.ttf" font-size="10.00">CUDA/test/gpu/gpuNUFFT</text>
<text text-anchor="middle" x="238.5" y="-63.5" font-family="FreeSans.ttf" font-size="10.00">_conv_tests.cpp</text>
</a>
</g>
</g>
<!-- Node6&#45;&gt;Node10 -->
<g id="edge9" class="edge">
<title>Node6&#45;&gt;Node10</title>
<path fill="none" stroke="midnightblue" d="M532.25,-123.74C471.34,-113.88 387.84,-100.09 314.5,-87 311.59,-86.48 308.62,-85.94 305.62,-85.4"/>
<polygon fill="midnightblue" stroke="midnightblue" points="531.77,-127.2 542.2,-125.34 532.89,-120.29 531.77,-127.2"/>
</g>
<!-- Node11 -->
<g id="node11" class="node">
<title>Node11</title>
<g id="a_node11"><a xlink:href="gpuNUFFT__deapo__tests_8cpp.html" target="_top" xlink:title=" ">
<polygon fill="none" stroke="black" points="323.5,-56.5 323.5,-86.5 457.5,-86.5 457.5,-56.5 323.5,-56.5"/>
<text text-anchor="start" x="331.5" y="-74.5" font-family="FreeSans.ttf" font-size="10.00">CUDA/test/gpu/gpuNUFFT</text>
<text text-anchor="middle" x="390.5" y="-63.5" font-family="FreeSans.ttf" font-size="10.00">_deapo_tests.cpp</text>
</a>
</g>
</g>
<!-- Node6&#45;&gt;Node11 -->
<g id="edge10" class="edge">
<title>Node6&#45;&gt;Node11</title>
<path fill="none" stroke="midnightblue" d="M559.62,-120.71C522.52,-110.14 475.16,-96.63 440,-86.61"/>
<polygon fill="midnightblue" stroke="midnightblue" points="558.73,-124.1 569.31,-123.48 560.65,-117.37 558.73,-124.1"/>
</g>
<!-- Node12 -->
<g id="node12" class="node">
<title>Node12</title>
<g id="a_node12"><a xlink:href="gpuNUFFT__fft__tests_8cpp.html" target="_top" xlink:title=" ">
<polygon fill="none" stroke="black" points="475.5,-56.5 475.5,-86.5 609.5,-86.5 609.5,-56.5 475.5,-56.5"/>
<text text-anchor="start" x="483.5" y="-74.5" font-family="FreeSans.ttf" font-size="10.00">CUDA/test/gpu/gpuNUFFT</text>
<text text-anchor="middle" x="542.5" y="-63.5" font-family="FreeSans.ttf" font-size="10.00">_fft_tests.cpp</text>
</a>
</g>
</g>
<!-- Node6&#45;&gt;Node12 -->
<g id="edge11" class="edge">
<title>Node6&#45;&gt;Node12</title>
<path fill="none" stroke="midnightblue" d="M594.39,-116.88C582.84,-107.01 569.31,-95.43 558.96,-86.58"/>
<polygon fill="midnightblue" stroke="midnightblue" points="592.13,-119.56 602.01,-123.4 596.68,-114.24 592.13,-119.56"/>
</g>
<!-- Node13 -->
<g id="node13" class="node">
<title>Node13</title>
<g id="a_node13"><a xlink:href="python__factory_8hpp.html" target="_top" xlink:title=" ">
<polygon fill="none" stroke="black" points="780,-62 780,-81 925,-81 925,-62 780,-62"/>
<text text-anchor="middle" x="852.5" y="-69" font-family="FreeSans.ttf" font-size="10.00">python/inc/python_factory.hpp</text>
</a>
</g>
</g>
<!-- Node6&#45;&gt;Node13 -->
<g id="edge12" class="edge">
<title>Node6&#45;&gt;Node13</title>
<path fill="none" stroke="midnightblue" d="M678.8,-120.75C724.56,-108.04 785.59,-91.09 821.8,-81.03"/>
<polygon fill="midnightblue" stroke="midnightblue" points="677.68,-117.43 668.99,-123.48 679.56,-124.17 677.68,-117.43"/>
</g>
<!-- Node15 -->
<g id="node15" class="node">
<title>Node15</title>
<g id="a_node15"><a xlink:href="python__factory_8cpp.html" target="_top" xlink:title=" ">
<polygon fill="none" stroke="black" points="788.5,-0.5 788.5,-19.5 934.5,-19.5 934.5,-0.5 788.5,-0.5"/>
<text text-anchor="middle" x="861.5" y="-7.5" font-family="FreeSans.ttf" font-size="10.00">python/src/python_factory.cpp</text>
</a>
</g>
</g>
<!-- Node6&#45;&gt;Node15 -->
<g id="edge18" class="edge">
<title>Node6&#45;&gt;Node15</title>
<path fill="none" stroke="midnightblue" d="M705.2,-123.17C770.58,-115.78 902.64,-124.23 934.5,-87 943.46,-76.53 941.22,-68.03 934.5,-56 924.56,-38.19 904.35,-26.56 887.71,-19.59"/>
<polygon fill="midnightblue" stroke="midnightblue" points="704.36,-119.75 694.92,-124.57 705.3,-126.69 704.36,-119.75"/>
</g>
<!-- Node16 -->
<g id="node16" class="node">
<title>Node16</title>
<g id="a_node16"><a xlink:href="python__utils_8hpp.html" target="_top" xlink:title=" ">
<polygon fill="none" stroke="black" points="627.5,-62 627.5,-81 761.5,-81 761.5,-62 627.5,-62"/>
<text text-anchor="middle" x="694.5" y="-69" font-family="FreeSans.ttf" font-size="10.00">python/inc/python_utils.hpp</text>
</a>
</g>
</g>
<!-- Node6&#45;&gt;Node16 -->
<g id="edge15" class="edge">
<title>Node6&#45;&gt;Node16</title>
<path fill="none" stroke="midnightblue" d="M642.85,-116.67C656.89,-104.67 673.78,-90.22 684.33,-81.19"/>
<polygon fill="midnightblue" stroke="midnightblue" points="640.32,-114.24 634.99,-123.4 644.87,-119.56 640.32,-114.24"/>
</g>
<!-- Node14 -->
<g id="node14" class="node">
<title>Node14</title>
<g id="a_node14"><a xlink:href="python__bindings_8cpp.html" target="_top" xlink:title=" ">
<polygon fill="none" stroke="black" points="618.5,-0.5 618.5,-19.5 770.5,-19.5 770.5,-0.5 618.5,-0.5"/>
<text text-anchor="middle" x="694.5" y="-7.5" font-family="FreeSans.ttf" font-size="10.00">python/src/python_bindings.cpp</text>
</a>
</g>
</g>
<!-- Node13&#45;&gt;Node14 -->
<g id="edge13" class="edge">
<title>Node13&#45;&gt;Node14</title>
<path fill="none" stroke="midnightblue" d="M820.46,-58.43C789.75,-46.87 744.18,-29.71 717.1,-19.51"/>
<polygon fill="midnightblue" stroke="midnightblue" points="819.27,-61.73 829.86,-61.98 821.74,-55.18 819.27,-61.73"/>
</g>
<!-- Node13&#45;&gt;Node15 -->
<g id="edge14" class="edge">
<title>Node13&#45;&gt;Node15</title>
<path fill="none" stroke="midnightblue" d="M855.33,-51.82C856.96,-41 858.94,-27.9 860.21,-19.51"/>
<polygon fill="midnightblue" stroke="midnightblue" points="851.82,-51.56 853.79,-61.98 858.75,-52.61 851.82,-51.56"/>
</g>
<!-- Node16&#45;&gt;Node14 -->
<g id="edge16" class="edge">
<title>Node16&#45;&gt;Node14</title>
<path fill="none" stroke="midnightblue" d="M694.5,-51.82C694.5,-41 694.5,-27.9 694.5,-19.51"/>
<polygon fill="midnightblue" stroke="midnightblue" points="691,-51.98 694.5,-61.98 698,-51.98 691,-51.98"/>
</g>
<!-- Node16&#45;&gt;Node15 -->
<g id="edge17" class="edge">
<title>Node16&#45;&gt;Node15</title>
<path fill="none" stroke="midnightblue" d="M727.95,-58.58C760.41,-47.02 808.87,-29.75 837.62,-19.51"/>
<polygon fill="midnightblue" stroke="midnightblue" points="726.67,-55.32 718.43,-61.98 729.02,-61.92 726.67,-55.32"/>
</g>
<!-- Node18&#45;&gt;Node7 -->
<g id="edge24" class="edge">
<title>Node18&#45;&gt;Node7</title>
<path fill="none" stroke="midnightblue" d="M288.22,-190.92C243.23,-165.75 147.31,-112.11 101.66,-86.57"/>
<polygon fill="midnightblue" stroke="midnightblue" points="286.58,-194.01 297.02,-195.84 290,-187.9 286.58,-194.01"/>
</g>
<!-- Node18&#45;&gt;Node19 -->
<g id="edge23" class="edge">
<title>Node18&#45;&gt;Node19</title>
<path fill="none" stroke="midnightblue" d="M392.73,-194.8C407.6,-193.11 423.02,-191.44 437.5,-190 537,-180.12 819.53,-157.54 962.86,-146.23"/>
<polygon fill="midnightblue" stroke="midnightblue" points="392.07,-191.35 382.53,-195.96 392.87,-198.3 392.07,-191.35"/>
</g>
<!-- Node20&#45;&gt;Node6 -->
<g id="edge26" class="edge">
<title>Node20&#45;&gt;Node6</title>
<path fill="none" stroke="midnightblue" d="M261.02,-257.14C237.41,-240.32 206.17,-211.97 225.5,-190 246.06,-166.63 434,-151.06 542.36,-143.95"/>
<polygon fill="midnightblue" stroke="midnightblue" points="259.34,-260.23 269.58,-262.98 263.29,-254.45 259.34,-260.23"/>
</g>
<!-- Node20&#45;&gt;Node18 -->
<g id="edge27" class="edge">
<title>Node20&#45;&gt;Node18</title>
<path fill="none" stroke="midnightblue" d="M291.62,-253.29C297.19,-240.81 304.33,-224.81 308.65,-215.13"/>
<polygon fill="midnightblue" stroke="midnightblue" points="288.29,-252.18 287.41,-262.73 294.68,-255.03 288.29,-252.18"/>
</g>
<!-- Node21&#45;&gt;Node6 -->
<g id="edge32" class="edge">
<title>Node21&#45;&gt;Node6</title>
<path fill="none" stroke="midnightblue" d="M724.42,-250.97C713.61,-242.1 701.14,-231.38 690.5,-221 667.67,-198.71 643.6,-170.33 629.88,-153.62"/>
<polygon fill="midnightblue" stroke="midnightblue" points="722.34,-253.78 732.31,-257.36 726.74,-248.34 722.34,-253.78"/>
</g>
<!-- Node22 -->
<g id="node22" class="node">
<title>Node22</title>
<g id="a_node22"><a xlink:href="balanced__texture__gpuNUFFT__operator_8hpp.html" target="_top" xlink:title=" ">
<polygon fill="none" stroke="black" points="699,-190.5 699,-220.5 836,-220.5 836,-190.5 699,-190.5"/>
<text text-anchor="start" x="707" y="-208.5" font-family="FreeSans.ttf" font-size="10.00">CUDA/inc/balanced_texture</text>
<text text-anchor="middle" x="767.5" y="-197.5" font-family="FreeSans.ttf" font-size="10.00">_gpuNUFFT_operator.hpp</text>
</a>
</g>
</g>
<!-- Node21&#45;&gt;Node22 -->
<g id="edge29" class="edge">
<title>Node21&#45;&gt;Node22</title>
<path fill="none" stroke="midnightblue" d="M756.73,-247.7C759.11,-238.59 761.75,-228.49 763.82,-220.58"/>
<polygon fill="midnightblue" stroke="midnightblue" points="753.33,-246.84 754.19,-257.4 760.11,-248.61 753.33,-246.84"/>
</g>
<!-- Node24 -->
<g id="node24" class="node">
<title>Node24</title>
<g id="a_node24"><a xlink:href="texture__gpuNUFFT__operator_8cpp.html" target="_top" xlink:title=" ">
<polygon fill="none" stroke="black" points="854,-190.5 854,-220.5 1001,-220.5 1001,-190.5 854,-190.5"/>
<text text-anchor="start" x="862" y="-208.5" font-family="FreeSans.ttf" font-size="10.00">CUDA/src/texture_gpuNUFFT</text>
<text text-anchor="middle" x="927.5" y="-197.5" font-family="FreeSans.ttf" font-size="10.00">_operator.cpp</text>
</a>
</g>
</g>
<!-- Node21&#45;&gt;Node24 -->
<g id="edge33" class="edge">
<title>Node21&#45;&gt;Node24</title>
<path fill="none" stroke="midnightblue" d="M798.65,-253.82C827.1,-243.37 862.63,-230.32 889.17,-220.58"/>
<polygon fill="midnightblue" stroke="midnightblue" points="797.09,-250.66 788.91,-257.4 799.5,-257.23 797.09,-250.66"/>
</g>
<!-- Node22&#45;&gt;Node6 -->
<g id="edge30" class="edge">
<title>Node22&#45;&gt;Node6</title>
<path fill="none" stroke="midnightblue" d="M725.71,-186.27C701.98,-175.92 672.72,-163.15 650.77,-153.58"/>
<polygon fill="midnightblue" stroke="midnightblue" points="724.6,-189.61 735.17,-190.4 727.4,-183.19 724.6,-189.61"/>
</g>
<!-- Node23 -->
<g id="node23" class="node">
<title>Node23</title>
<g id="a_node23"><a xlink:href="balanced__texture__gpuNUFFT__operator_8cpp.html" target="_top" xlink:title=" ">
<polygon fill="none" stroke="black" points="713,-123.5 713,-153.5 850,-153.5 850,-123.5 713,-123.5"/>
<text text-anchor="start" x="721" y="-141.5" font-family="FreeSans.ttf" font-size="10.00">CUDA/src/balanced_texture</text>
<text text-anchor="middle" x="781.5" y="-130.5" font-family="FreeSans.ttf" font-size="10.00">_gpuNUFFT_operator.cpp</text>
</a>
</g>
</g>
<!-- Node22&#45;&gt;Node23 -->
<g id="edge31" class="edge">
<title>Node22&#45;&gt;Node23</title>
<path fill="none" stroke="midnightblue" d="M772.69,-180.4C774.64,-171.37 776.78,-161.41 778.47,-153.58"/>
<polygon fill="midnightblue" stroke="midnightblue" points="769.22,-179.88 770.54,-190.4 776.06,-181.36 769.22,-179.88"/>
</g>
</g>
</svg>
