<?xml version="1.0" encoding="UTF-8" standalone="no"?>
<!DOCTYPE svg PUBLIC "-//W3C//DTD SVG 1.1//EN"
 "http://www.w3.org/Graphics/SVG/1.1/DTD/svg11.dtd">
<!-- Generated by graphviz version 2.49.3 (20211027.1534)
 -->
<!-- Title: CUDA/src/gpuNUFFT_operator_factory.cpp Pages: 1 -->
<svg width="1160pt" height="498pt"
 viewBox="0.00 0.00 1160.00 498.00" xmlns="http://www.w3.org/2000/svg" xmlns:xlink="http://www.w3.org/1999/xlink">
<g id="graph0" class="graph" transform="scale(1 1) rotate(0) translate(4 494)">
<title>CUDA/src/gpuNUFFT_operator_factory.cpp</title>
<!-- Node1 -->
<g id="node1" class="node">
<title>Node1</title>
<g id="a_node1"><a xlink:title=" ">
<polygon fill="#bfbfbf" stroke="black" points="778.5,-459.5 778.5,-489.5 931.5,-489.5 931.5,-459.5 778.5,-459.5"/>
<text text-anchor="start" x="786.5" y="-477.5" font-family="FreeSans.ttf" font-size="10.00">CUDA/src/gpuNUFFT_operator</text>
<text text-anchor="middle" x="855" y="-466.5" font-family="FreeSans.ttf" font-size="10.00">_factory.cpp</text>
</a>
</g>
</g>
<!-- Node2 -->
<g id="node2" class="node">
<title>Node2</title>
<g id="a_node2"><a xlink:href="gpuNUFFT__operator__factory_8hpp.html" target="_top" xlink:title=" ">
<polygon fill="none" stroke="black" points="441,-403.5 441,-422.5 599,-422.5 599,-403.5 441,-403.5"/>
<text text-anchor="middle" x="520" y="-410.5" font-family="FreeSans.ttf" font-size="10.00">gpuNUFFT_operator_factory.hpp</text>
</a>
</g>
</g>
<!-- Node1&#45;&gt;Node2 -->
<g id="edge1" class="edge">
<title>Node1&#45;&gt;Node2</title>
<path fill="none" stroke="midnightblue" d="M778.14,-459.85C717.22,-449.03 633.41,-434.14 578.02,-424.31"/>
<polygon fill="midnightblue" stroke="midnightblue" points="578.48,-420.83 568.02,-422.53 577.25,-427.72 578.48,-420.83"/>
</g>
<!-- Node7 -->
<g id="node7" class="node">
<title>Node7</title>
<g id="a_node7"><a xlink:title=" ">
<polygon fill="none" stroke="#bfbfbf" points="224,-112.5 224,-131.5 278,-131.5 278,-112.5 224,-112.5"/>
<text text-anchor="middle" x="251" y="-119.5" font-family="FreeSans.ttf" font-size="10.00">iostream</text>
</a>
</g>
</g>
<!-- Node1&#45;&gt;Node7 -->
<g id="edge63" class="edge">
<title>Node1&#45;&gt;Node7</title>
<path fill="none" stroke="midnightblue" d="M778.14,-470.13C574.76,-460.18 38,-426.88 38,-352.5 38,-352.5 38,-352.5 38,-233 38,-154.9 152.44,-132.19 213.55,-125.64"/>
<polygon fill="midnightblue" stroke="midnightblue" points="213.98,-129.11 223.59,-124.65 213.3,-122.14 213.98,-129.11"/>
</g>
<!-- Node16 -->
<g id="node16" class="node">
<title>Node16</title>
<g id="a_node16"><a xlink:title=" ">
<polygon fill="none" stroke="#bfbfbf" points="909,-0.5 909,-19.5 953,-19.5 953,-0.5 909,-0.5"/>
<text text-anchor="middle" x="931" y="-7.5" font-family="FreeSans.ttf" font-size="10.00">cmath</text>
</a>
</g>
</g>
<!-- Node1&#45;&gt;Node16 -->
<g id="edge60" class="edge">
<title>Node1&#45;&gt;Node16</title>
<path fill="none" stroke="midnightblue" d="M871.82,-459.32C903.53,-430.91 969,-363.47 969,-291 969,-291 969,-291 969,-121 969,-86.81 952.4,-49.76 941.14,-28.57"/>
<polygon fill="midnightblue" stroke="midnightblue" points="944.18,-26.83 936.28,-19.77 938.05,-30.22 944.18,-26.83"/>
</g>
<!-- Node20 -->
<g id="node20" class="node">
<title>Node20</title>
<g id="a_node20"><a xlink:title=" ">
<polygon fill="none" stroke="#bfbfbf" points="767.5,-168.5 767.5,-187.5 826.5,-187.5 826.5,-168.5 767.5,-168.5"/>
<text text-anchor="middle" x="797" y="-175.5" font-family="FreeSans.ttf" font-size="10.00">functional</text>
</a>
</g>
</g>
<!-- Node1&#45;&gt;Node20 -->
<g id="edge62" class="edge">
<title>Node1&#45;&gt;Node20</title>
<path fill="none" stroke="midnightblue" d="M860.26,-459.44C871.62,-426.91 895.71,-344.28 874,-280 862.21,-245.09 833,-212.71 814.13,-194.44"/>
<polygon fill="midnightblue" stroke="midnightblue" points="816.45,-191.81 806.77,-187.51 811.65,-196.91 816.45,-191.81"/>
</g>
<!-- Node25 -->
<g id="node25" class="node">
<title>Node25</title>
<g id="a_node25"><a xlink:title=" ">
<polygon fill="none" stroke="#bfbfbf" points="691.5,-224.5 691.5,-243.5 750.5,-243.5 750.5,-224.5 691.5,-224.5"/>
<text text-anchor="middle" x="721" y="-231.5" font-family="FreeSans.ttf" font-size="10.00">stdexcept</text>
</a>
</g>
</g>
<!-- Node1&#45;&gt;Node25 -->
<g id="edge66" class="edge">
<title>Node1&#45;&gt;Node25</title>
<path fill="none" stroke="midnightblue" d="M851.25,-459.27C843.94,-433.19 825.98,-376.66 798,-336 784.81,-316.83 774.56,-318.14 760,-300 748.18,-285.28 737.36,-266.65 730.14,-253.11"/>
<polygon fill="midnightblue" stroke="midnightblue" points="733.07,-251.16 725.35,-243.9 726.85,-254.39 733.07,-251.16"/>
</g>
<!-- Node27 -->
<g id="node27" class="node">
<title>Node27</title>
<g id="a_node27"><a xlink:title=" ">
<polygon fill="none" stroke="#bfbfbf" points="605,-342 605,-361 661,-361 661,-342 605,-342"/>
<text text-anchor="middle" x="633" y="-349" font-family="FreeSans.ttf" font-size="10.00">algorithm</text>
</a>
</g>
</g>
<!-- Node1&#45;&gt;Node27 -->
<g id="edge59" class="edge">
<title>Node1&#45;&gt;Node27</title>
<path fill="none" stroke="midnightblue" d="M829.1,-459.38C785.93,-435.85 699.83,-388.93 657.56,-365.89"/>
<polygon fill="midnightblue" stroke="midnightblue" points="659.22,-362.8 648.76,-361.09 655.87,-368.95 659.22,-362.8"/>
</g>
<!-- Node31 -->
<g id="node31" class="node">
<title>Node31</title>
<g id="a_node31"><a xlink:href="precomp__kernels_8hpp.html" target="_top" xlink:title="GPU Kernels for Precomputation (sector assignment)">
<polygon fill="none" stroke="black" points="679.5,-342 679.5,-361 788.5,-361 788.5,-342 679.5,-342"/>
<text text-anchor="middle" x="734" y="-349" font-family="FreeSans.ttf" font-size="10.00">precomp_kernels.hpp</text>
</a>
</g>
</g>
<!-- Node1&#45;&gt;Node31 -->
<g id="edge54" class="edge">
<title>Node1&#45;&gt;Node31</title>
<path fill="none" stroke="midnightblue" d="M840.33,-459.45C829.86,-449.37 815.48,-435.43 803,-423 784.54,-404.61 763.65,-383.18 749.74,-368.82"/>
<polygon fill="midnightblue" stroke="midnightblue" points="751.89,-366.01 742.43,-361.25 746.86,-370.87 751.89,-366.01"/>
</g>
<!-- Node32 -->
<g id="node32" class="node">
<title>Node32</title>
<g id="a_node32"><a xlink:title=" ">
<polygon fill="none" stroke="#bfbfbf" points="978,-403.5 978,-422.5 1024,-422.5 1024,-403.5 978,-403.5"/>
<text text-anchor="middle" x="1001" y="-410.5" font-family="FreeSans.ttf" font-size="10.00">cstring</text>
</a>
</g>
</g>
<!-- Node1&#45;&gt;Node32 -->
<g id="edge61" class="edge">
<title>Node1&#45;&gt;Node32</title>
<path fill="none" stroke="midnightblue" d="M889.6,-459.4C914.1,-449.42 946.66,-436.15 970.25,-426.53"/>
<polygon fill="midnightblue" stroke="midnightblue" points="971.82,-429.67 979.76,-422.66 969.17,-423.19 971.82,-429.67"/>
</g>
<!-- Node33 -->
<g id="node33" class="node">
<title>Node33</title>
<g id="a_node33"><a xlink:title=" ">
<polygon fill="none" stroke="#bfbfbf" points="1042,-403.5 1042,-422.5 1082,-422.5 1082,-403.5 1042,-403.5"/>
<text text-anchor="middle" x="1062" y="-410.5" font-family="FreeSans.ttf" font-size="10.00">limits</text>
</a>
</g>
</g>
<!-- Node1&#45;&gt;Node33 -->
<g id="edge64" class="edge">
<title>Node1&#45;&gt;Node33</title>
<path fill="none" stroke="midnightblue" d="M905.73,-459.46C939.17,-450.13 984.15,-437.42 1032.11,-423.22"/>
<polygon fill="midnightblue" stroke="midnightblue" points="1033.15,-426.56 1041.74,-420.36 1031.16,-419.85 1033.15,-426.56"/>
</g>
<!-- Node34 -->
<g id="node34" class="node">
<title>Node34</title>
<g id="a_node34"><a xlink:title=" ">
<polygon fill="none" stroke="#bfbfbf" points="1100,-403.5 1100,-422.5 1152,-422.5 1152,-403.5 1100,-403.5"/>
<text text-anchor="middle" x="1126" y="-410.5" font-family="FreeSans.ttf" font-size="10.00">sstream</text>
</a>
</g>
</g>
<!-- Node1&#45;&gt;Node34 -->
<g id="edge65" class="edge">
<title>Node1&#45;&gt;Node34</title>
<path fill="none" stroke="midnightblue" d="M924.1,-459.49C968.84,-450.24 1028.59,-437.55 1089.82,-423.21"/>
<polygon fill="midnightblue" stroke="midnightblue" points="1090.72,-426.59 1099.66,-420.9 1089.12,-419.78 1090.72,-426.59"/>
</g>
<!-- Node3 -->
<g id="node3" class="node">
<title>Node3</title>
<g id="a_node3"><a xlink:title=" ">
<polygon fill="none" stroke="#bfbfbf" points="329,-0.5 329,-19.5 389,-19.5 389,-0.5 329,-0.5"/>
<text text-anchor="middle" x="359" y="-7.5" font-family="FreeSans.ttf" font-size="10.00">config.hpp</text>
</a>
</g>
</g>
<!-- Node2&#45;&gt;Node3 -->
<g id="edge2" class="edge">
<title>Node2&#45;&gt;Node3</title>
<path fill="none" stroke="midnightblue" d="M440.8,-409.58C370.94,-405.56 267.12,-394.94 181,-367 86.29,-336.28 0,-334.56 0,-235 0,-235 0,-235 0,-121 0,-54.95 224.97,-24.54 318.73,-14.73"/>
<polygon fill="midnightblue" stroke="midnightblue" points="319.11,-18.21 328.7,-13.72 318.4,-11.25 319.11,-18.21"/>
</g>
<!-- Node4 -->
<g id="node4" class="node">
<title>Node4</title>
<g id="a_node4"><a xlink:href="gpuNUFFT__operator_8hpp.html" target="_top" xlink:title=" ">
<polygon fill="none" stroke="black" points="434,-224.5 434,-243.5 558,-243.5 558,-224.5 434,-224.5"/>
<text text-anchor="middle" x="496" y="-231.5" font-family="FreeSans.ttf" font-size="10.00">gpuNUFFT_operator.hpp</text>
</a>
</g>
</g>
<!-- Node2&#45;&gt;Node4 -->
<g id="edge3" class="edge">
<title>Node2&#45;&gt;Node4</title>
<path fill="none" stroke="midnightblue" d="M518.84,-403.46C515.18,-376.43 503.76,-292.24 498.59,-254.11"/>
<polygon fill="midnightblue" stroke="midnightblue" points="502.01,-253.31 497.2,-243.87 495.08,-254.25 502.01,-253.31"/>
</g>
<!-- Node9 -->
<g id="node9" class="node">
<title>Node9</title>
<g id="a_node9"><a xlink:href="cuda__utils_8hpp.html" target="_top" xlink:title="Util functions for CUDA memory and texture management.">
<polygon fill="none" stroke="black" points="570.5,-112.5 570.5,-131.5 649.5,-131.5 649.5,-112.5 570.5,-112.5"/>
<text text-anchor="middle" x="610" y="-119.5" font-family="FreeSans.ttf" font-size="10.00">cuda_utils.hpp</text>
</a>
</g>
</g>
<!-- Node2&#45;&gt;Node9 -->
<g id="edge48" class="edge">
<title>Node2&#45;&gt;Node9</title>
<path fill="none" stroke="midnightblue" d="M523.34,-403.34C539.12,-362.49 605.38,-190.87 606,-188 609.34,-172.62 610.23,-154.74 610.35,-141.64"/>
<polygon fill="midnightblue" stroke="midnightblue" points="613.85,-141.51 610.29,-131.53 606.85,-141.55 613.85,-141.51"/>
</g>
<!-- Node2&#45;&gt;Node16 -->
<g id="edge47" class="edge">
<title>Node2&#45;&gt;Node16</title>
<path fill="none" stroke="midnightblue" d="M599.25,-409.78C661.23,-405.78 748.56,-395.09 820,-367 875.64,-345.12 931,-350.79 931,-291 931,-291 931,-291 931,-121 931,-88.95 931,-51.64 931,-29.75"/>
<polygon fill="midnightblue" stroke="midnightblue" points="934.5,-29.56 931,-19.56 927.5,-29.56 934.5,-29.56"/>
</g>
<!-- Node21 -->
<g id="node21" class="node">
<title>Node21</title>
<g id="a_node21"><a xlink:href="balanced__gpuNUFFT__operator_8hpp.html" target="_top" xlink:title=" ">
<polygon fill="none" stroke="black" points="66,-280.5 66,-299.5 234,-299.5 234,-280.5 66,-280.5"/>
<text text-anchor="middle" x="150" y="-287.5" font-family="FreeSans.ttf" font-size="10.00">balanced_gpuNUFFT_operator.hpp</text>
</a>
</g>
</g>
<!-- Node2&#45;&gt;Node21 -->
<g id="edge30" class="edge">
<title>Node2&#45;&gt;Node21</title>
<path fill="none" stroke="midnightblue" d="M440.66,-405.87C365.57,-399.03 258.99,-386.31 222,-367 195.66,-353.25 173.59,-326.06 161.09,-308.21"/>
<polygon fill="midnightblue" stroke="midnightblue" points="163.94,-306.18 155.45,-299.85 158.14,-310.09 163.94,-306.18"/>
</g>
<!-- Node23 -->
<g id="node23" class="node">
<title>Node23</title>
<g id="a_node23"><a xlink:href="texture__gpuNUFFT__operator_8hpp.html" target="_top" xlink:title=" ">
<polygon fill="none" stroke="black" points="328,-280.5 328,-299.5 486,-299.5 486,-280.5 328,-280.5"/>
<text text-anchor="middle" x="407" y="-287.5" font-family="FreeSans.ttf" font-size="10.00">texture_gpuNUFFT_operator.hpp</text>
</a>
</g>
</g>
<!-- Node2&#45;&gt;Node23 -->
<g id="edge35" class="edge">
<title>Node2&#45;&gt;Node23</title>
<path fill="none" stroke="midnightblue" d="M511.87,-403.3C493.06,-383.15 446.28,-333.06 422.06,-307.12"/>
<polygon fill="midnightblue" stroke="midnightblue" points="424.44,-304.54 415.05,-299.62 419.32,-309.32 424.44,-304.54"/>
</g>
<!-- Node26 -->
<g id="node26" class="node">
<title>Node26</title>
<g id="a_node26"><a xlink:href="balanced__texture__gpuNUFFT__operator_8hpp.html" target="_top" xlink:title=" ">
<polygon fill="none" stroke="black" points="291,-336.5 291,-366.5 435,-366.5 435,-336.5 291,-336.5"/>
<text text-anchor="start" x="299" y="-354.5" font-family="FreeSans.ttf" font-size="10.00">balanced_texture_gpuNUFFT</text>
<text text-anchor="middle" x="363" y="-343.5" font-family="FreeSans.ttf" font-size="10.00">_operator.hpp</text>
</a>
</g>
</g>
<!-- Node2&#45;&gt;Node26 -->
<g id="edge40" class="edge">
<title>Node2&#45;&gt;Node26</title>
<path fill="none" stroke="midnightblue" d="M497.51,-403.48C474.65,-394.81 438.59,-381.15 409.55,-370.14"/>
<polygon fill="midnightblue" stroke="midnightblue" points="410.59,-366.79 400,-366.52 408.11,-373.34 410.59,-366.79"/>
</g>
<!-- Node2&#45;&gt;Node27 -->
<g id="edge44" class="edge">
<title>Node2&#45;&gt;Node27</title>
<path fill="none" stroke="midnightblue" d="M536.19,-403.48C554.9,-393.62 585.92,-377.29 607.8,-365.77"/>
<polygon fill="midnightblue" stroke="midnightblue" points="609.62,-368.77 616.84,-361.01 606.36,-362.57 609.62,-368.77"/>
</g>
<!-- Node28 -->
<g id="node28" class="node">
<title>Node28</title>
<g id="a_node28"><a xlink:title=" ">
<polygon fill="none" stroke="#bfbfbf" points="580,-280.5 580,-299.5 624,-299.5 624,-280.5 580,-280.5"/>
<text text-anchor="middle" x="602" y="-287.5" font-family="FreeSans.ttf" font-size="10.00">vector</text>
</a>
</g>
</g>
<!-- Node2&#45;&gt;Node28 -->
<g id="edge45" class="edge">
<title>Node2&#45;&gt;Node28</title>
<path fill="none" stroke="midnightblue" d="M526.48,-403.48C533.25,-394.52 544.1,-379.93 553,-367 566.71,-347.08 581.66,-323.62 591.4,-308.09"/>
<polygon fill="midnightblue" stroke="midnightblue" points="594.4,-309.88 596.73,-299.54 588.46,-306.17 594.4,-309.88"/>
</g>
<!-- Node29 -->
<g id="node29" class="node">
<title>Node29</title>
<g id="a_node29"><a xlink:title=" ">
<polygon fill="none" stroke="#bfbfbf" points="231.5,-342 231.5,-361 272.5,-361 272.5,-342 231.5,-342"/>
<text text-anchor="middle" x="252" y="-349" font-family="FreeSans.ttf" font-size="10.00">string</text>
</a>
</g>
</g>
<!-- Node2&#45;&gt;Node29 -->
<g id="edge46" class="edge">
<title>Node2&#45;&gt;Node29</title>
<path fill="none" stroke="midnightblue" d="M448.47,-403.49C400.56,-396.58 336.51,-384.98 282,-367 280.38,-366.46 278.73,-365.86 277.08,-365.21"/>
<polygon fill="midnightblue" stroke="midnightblue" points="278.43,-361.98 267.87,-361.13 275.59,-368.38 278.43,-361.98"/>
</g>
<!-- Node30 -->
<g id="node30" class="node">
<title>Node30</title>
<g id="a_node30"><a xlink:href="precomp__utils_8hpp.html" target="_top" xlink:title="UTIL functions for precomputation.">
<polygon fill="none" stroke="black" points="769.5,-280.5 769.5,-299.5 864.5,-299.5 864.5,-280.5 769.5,-280.5"/>
<text text-anchor="middle" x="817" y="-287.5" font-family="FreeSans.ttf" font-size="10.00">precomp_utils.hpp</text>
</a>
</g>
</g>
<!-- Node2&#45;&gt;Node30 -->
<g id="edge49" class="edge">
<title>Node2&#45;&gt;Node30</title>
<path fill="none" stroke="midnightblue" d="M599.21,-408.71C670.96,-404.08 769.65,-393.05 798,-367 813.77,-352.51 817.33,-327.08 817.73,-309.66"/>
<polygon fill="midnightblue" stroke="midnightblue" points="821.23,-309.53 817.64,-299.56 814.23,-309.59 821.23,-309.53"/>
</g>
<!-- Node4&#45;&gt;Node3 -->
<g id="edge26" class="edge">
<title>Node4&#45;&gt;Node3</title>
<path fill="none" stroke="midnightblue" d="M488.4,-224.35C480.81,-215.51 468.99,-201.24 460,-188 422.15,-132.28 384.73,-61.53 368.04,-28.94"/>
<polygon fill="midnightblue" stroke="midnightblue" points="371.03,-27.09 363.38,-19.76 364.79,-30.26 371.03,-27.09"/>
</g>
<!-- Node5 -->
<g id="node5" class="node">
<title>Node5</title>
<g id="a_node5"><a xlink:href="gpuNUFFT__types_8hpp.html" target="_top" xlink:title="Definition of gpuNUFFT defined types.">
<polygon fill="none" stroke="black" points="195,-168.5 195,-187.5 307,-187.5 307,-168.5 195,-168.5"/>
<text text-anchor="middle" x="251" y="-175.5" font-family="FreeSans.ttf" font-size="10.00">gpuNUFFT_types.hpp</text>
</a>
</g>
</g>
<!-- Node4&#45;&gt;Node5 -->
<g id="edge4" class="edge">
<title>Node4&#45;&gt;Node5</title>
<path fill="none" stroke="midnightblue" d="M457.18,-224.44C414.44,-215.02 345.67,-199.87 299.43,-189.68"/>
<polygon fill="midnightblue" stroke="midnightblue" points="300.16,-186.25 289.64,-187.52 298.65,-193.09 300.16,-186.25"/>
</g>
<!-- Node6 -->
<g id="node6" class="node">
<title>Node6</title>
<g id="a_node6"><a xlink:title=" ">
<polygon fill="none" stroke="#bfbfbf" points="336.5,-112.5 336.5,-131.5 381.5,-131.5 381.5,-112.5 336.5,-112.5"/>
<text text-anchor="middle" x="359" y="-119.5" font-family="FreeSans.ttf" font-size="10.00">cstdlib</text>
</a>
</g>
</g>
<!-- Node4&#45;&gt;Node6 -->
<g id="edge27" class="edge">
<title>Node4&#45;&gt;Node6</title>
<path fill="none" stroke="midnightblue" d="M465.07,-224.41C443.99,-217.34 416.48,-205.58 397,-188 382.63,-175.03 372.17,-155.32 365.91,-141.01"/>
<polygon fill="midnightblue" stroke="midnightblue" points="369.13,-139.63 362.09,-131.71 362.65,-142.29 369.13,-139.63"/>
</g>
<!-- Node4&#45;&gt;Node7 -->
<g id="edge28" class="edge">
<title>Node4&#45;&gt;Node7</title>
<path fill="none" stroke="midnightblue" d="M471.28,-224.46C447.18,-215.92 409.65,-202.08 378,-188 341.48,-171.75 300.53,-150.16 275.26,-136.41"/>
<polygon fill="midnightblue" stroke="midnightblue" points="276.83,-133.29 266.38,-131.56 273.47,-139.43 276.83,-133.29"/>
</g>
<!-- Node8 -->
<g id="node8" class="node">
<title>Node8</title>
<g id="a_node8"><a xlink:href="gpuNUFFT__kernels_8hpp.html" target="_top" xlink:title="gpuNUFFT CUDA function prototypes">
<polygon fill="none" stroke="black" points="477,-168.5 477,-187.5 597,-187.5 597,-168.5 477,-168.5"/>
<text text-anchor="middle" x="537" y="-175.5" font-family="FreeSans.ttf" font-size="10.00">gpuNUFFT_kernels.hpp</text>
</a>
</g>
</g>
<!-- Node4&#45;&gt;Node8 -->
<g id="edge8" class="edge">
<title>Node4&#45;&gt;Node8</title>
<path fill="none" stroke="midnightblue" d="M502.77,-224.08C508.56,-216.46 517.06,-205.26 524.14,-195.94"/>
<polygon fill="midnightblue" stroke="midnightblue" points="527.1,-197.83 530.36,-187.75 521.52,-193.6 527.1,-197.83"/>
</g>
<!-- Node4&#45;&gt;Node20 -->
<g id="edge29" class="edge">
<title>Node4&#45;&gt;Node20</title>
<path fill="none" stroke="midnightblue" d="M543.69,-224.44C602.72,-213.85 702.15,-196.02 757.24,-186.13"/>
<polygon fill="midnightblue" stroke="midnightblue" points="758.1,-189.54 767.32,-184.32 756.86,-182.65 758.1,-189.54"/>
</g>
<!-- Node5&#45;&gt;Node3 -->
<g id="edge7" class="edge">
<title>Node5&#45;&gt;Node3</title>
<path fill="none" stroke="midnightblue" d="M258.55,-168.31C266.1,-159.45 277.89,-145.16 287,-132 311.48,-96.66 336.31,-52.77 349.45,-28.75"/>
<polygon fill="midnightblue" stroke="midnightblue" points="352.64,-30.22 354.33,-19.76 346.48,-26.88 352.64,-30.22"/>
</g>
<!-- Node5&#45;&gt;Node6 -->
<g id="edge5" class="edge">
<title>Node5&#45;&gt;Node6</title>
<path fill="none" stroke="midnightblue" d="M268.35,-168.32C285.67,-159.66 312.52,-146.24 332.5,-136.25"/>
<polygon fill="midnightblue" stroke="midnightblue" points="334.31,-139.26 341.69,-131.65 331.18,-133 334.31,-139.26"/>
</g>
<!-- Node5&#45;&gt;Node7 -->
<g id="edge6" class="edge">
<title>Node5&#45;&gt;Node7</title>
<path fill="none" stroke="midnightblue" d="M251,-168.08C251,-161.01 251,-150.86 251,-141.99"/>
<polygon fill="midnightblue" stroke="midnightblue" points="254.5,-141.75 251,-131.75 247.5,-141.75 254.5,-141.75"/>
</g>
<!-- Node8&#45;&gt;Node9 -->
<g id="edge9" class="edge">
<title>Node8&#45;&gt;Node9</title>
<path fill="none" stroke="midnightblue" d="M548.73,-168.32C559.84,-160.11 576.74,-147.6 589.98,-137.81"/>
<polygon fill="midnightblue" stroke="midnightblue" points="592.1,-140.59 598.06,-131.83 587.94,-134.97 592.1,-140.59"/>
</g>
<!-- Node14 -->
<g id="node14" class="node">
<title>Node14</title>
<g id="a_node14"><a xlink:href="gpuNUFFT__utils_8hpp.html" target="_top" xlink:title="Definition of util functions used in gridding operations.">
<polygon fill="none" stroke="black" points="699.5,-56.5 699.5,-75.5 806.5,-75.5 806.5,-56.5 699.5,-56.5"/>
<text text-anchor="middle" x="753" y="-63.5" font-family="FreeSans.ttf" font-size="10.00">gpuNUFFT_utils.hpp</text>
</a>
</g>
</g>
<!-- Node8&#45;&gt;Node14 -->
<g id="edge25" class="edge">
<title>Node8&#45;&gt;Node14</title>
<path fill="none" stroke="midnightblue" d="M566.2,-168.36C591.25,-160.43 627.95,-147.57 658,-132 686.18,-117.4 715.97,-95.89 734.52,-81.67"/>
<polygon fill="midnightblue" stroke="midnightblue" points="736.68,-84.42 742.43,-75.52 732.39,-78.89 736.68,-84.42"/>
</g>
<!-- Node9&#45;&gt;Node4 -->
<g id="edge23" class="edge">
<title>Node9&#45;&gt;Node4</title>
<path fill="none" stroke="midnightblue" d="M570.23,-123.54C536.93,-126.37 491.22,-136.28 468,-168 457.06,-182.94 468.71,-202.82 480.14,-216.64"/>
<polygon fill="midnightblue" stroke="midnightblue" points="477.76,-219.23 487.02,-224.37 482.98,-214.58 477.76,-219.23"/>
</g>
<!-- Node10 -->
<g id="node10" class="node">
<title>Node10</title>
<g id="a_node10"><a xlink:title=" ">
<polygon fill="none" stroke="#bfbfbf" points="483.5,-0.5 483.5,-19.5 528.5,-19.5 528.5,-0.5 483.5,-0.5"/>
<text text-anchor="middle" x="506" y="-7.5" font-family="FreeSans.ttf" font-size="10.00">cuda.h</text>
</a>
</g>
</g>
<!-- Node9&#45;&gt;Node10 -->
<g id="edge10" class="edge">
<title>Node9&#45;&gt;Node10</title>
<path fill="none" stroke="midnightblue" d="M601.84,-112.37C584.45,-93.97 543.51,-50.67 521.18,-27.05"/>
<polygon fill="midnightblue" stroke="midnightblue" points="523.54,-24.45 514.12,-19.59 518.45,-29.26 523.54,-24.45"/>
</g>
<!-- Node11 -->
<g id="node11" class="node">
<title>Node11</title>
<g id="a_node11"><a xlink:title=" ">
<polygon fill="none" stroke="#bfbfbf" points="546.5,-0.5 546.5,-19.5 629.5,-19.5 629.5,-0.5 546.5,-0.5"/>
<text text-anchor="middle" x="588" y="-7.5" font-family="FreeSans.ttf" font-size="10.00">cuda_runtime.h</text>
</a>
</g>
</g>
<!-- Node9&#45;&gt;Node11 -->
<g id="edge11" class="edge">
<title>Node9&#45;&gt;Node11</title>
<path fill="none" stroke="midnightblue" d="M606.85,-112.5C603.65,-103.54 598.79,-88.96 596,-76 592.71,-60.7 590.64,-43.06 589.44,-30.02"/>
<polygon fill="midnightblue" stroke="midnightblue" points="592.91,-29.59 588.59,-19.92 585.94,-30.17 592.91,-29.59"/>
</g>
<!-- Node12 -->
<g id="node12" class="node">
<title>Node12</title>
<g id="a_node12"><a xlink:title=" ">
<polygon fill="none" stroke="#bfbfbf" points="647.5,-0.5 647.5,-19.5 692.5,-19.5 692.5,-0.5 647.5,-0.5"/>
<text text-anchor="middle" x="670" y="-7.5" font-family="FreeSans.ttf" font-size="10.00">stdio.h</text>
</a>
</g>
</g>
<!-- Node9&#45;&gt;Node12 -->
<g id="edge12" class="edge">
<title>Node9&#45;&gt;Node12</title>
<path fill="none" stroke="midnightblue" d="M611.29,-112.09C613.45,-99.09 618.64,-74.45 629,-56 635.12,-45.11 644.33,-34.68 652.47,-26.61"/>
<polygon fill="midnightblue" stroke="midnightblue" points="654.96,-29.07 659.81,-19.65 650.15,-23.99 654.96,-29.07"/>
</g>
<!-- Node13 -->
<g id="node13" class="node">
<title>Node13</title>
<g id="a_node13"><a xlink:title=" ">
<polygon fill="none" stroke="#bfbfbf" points="638.5,-56.5 638.5,-75.5 681.5,-75.5 681.5,-56.5 638.5,-56.5"/>
<text text-anchor="middle" x="660" y="-63.5" font-family="FreeSans.ttf" font-size="10.00">cufft.h</text>
</a>
</g>
</g>
<!-- Node9&#45;&gt;Node13 -->
<g id="edge13" class="edge">
<title>Node9&#45;&gt;Node13</title>
<path fill="none" stroke="midnightblue" d="M618.26,-112.08C625.46,-104.3 636.11,-92.8 644.85,-83.37"/>
<polygon fill="midnightblue" stroke="midnightblue" points="647.67,-85.47 651.9,-75.75 642.53,-80.71 647.67,-85.47"/>
</g>
<!-- Node9&#45;&gt;Node14 -->
<g id="edge14" class="edge">
<title>Node9&#45;&gt;Node14</title>
<path fill="none" stroke="midnightblue" d="M632.66,-112.44C656.4,-103.48 693.91,-89.31 720.74,-79.18"/>
<polygon fill="midnightblue" stroke="midnightblue" points="722.33,-82.32 730.45,-75.52 719.86,-75.77 722.33,-82.32"/>
</g>
<!-- Node19 -->
<g id="node19" class="node">
<title>Node19</title>
<g id="a_node19"><a xlink:title=" ">
<polygon fill="none" stroke="#bfbfbf" points="454.5,-56.5 454.5,-75.5 505.5,-75.5 505.5,-56.5 454.5,-56.5"/>
<text text-anchor="middle" x="480" y="-63.5" font-family="FreeSans.ttf" font-size="10.00">stdarg.h</text>
</a>
</g>
</g>
<!-- Node9&#45;&gt;Node19 -->
<g id="edge24" class="edge">
<title>Node9&#45;&gt;Node19</title>
<path fill="none" stroke="midnightblue" d="M589.4,-112.44C568.01,-103.56 534.32,-89.56 509.98,-79.45"/>
<polygon fill="midnightblue" stroke="midnightblue" points="511.08,-76.12 500.5,-75.52 508.39,-82.58 511.08,-76.12"/>
</g>
<!-- Node14&#45;&gt;Node3 -->
<g id="edge19" class="edge">
<title>Node14&#45;&gt;Node3</title>
<path fill="none" stroke="midnightblue" d="M699.39,-57.32C696.21,-56.87 693.06,-56.43 690,-56 585.21,-41.39 461.66,-24.75 399.32,-16.39"/>
<polygon fill="midnightblue" stroke="midnightblue" points="399.51,-12.89 389.13,-15.03 398.58,-19.82 399.51,-12.89"/>
</g>
<!-- Node14&#45;&gt;Node10 -->
<g id="edge17" class="edge">
<title>Node14&#45;&gt;Node10</title>
<path fill="none" stroke="midnightblue" d="M706.84,-56.45C665.09,-48.48 601.73,-35.8 538.39,-20.21"/>
<polygon fill="midnightblue" stroke="midnightblue" points="539.18,-16.8 528.63,-17.79 537.49,-23.6 539.18,-16.8"/>
</g>
<!-- Node14&#45;&gt;Node11 -->
<g id="edge18" class="edge">
<title>Node14&#45;&gt;Node11</title>
<path fill="none" stroke="midnightblue" d="M726.86,-56.44C698.98,-47.32 654.65,-32.81 623.6,-22.65"/>
<polygon fill="midnightblue" stroke="midnightblue" points="624.62,-19.3 614.02,-19.52 622.44,-25.95 624.62,-19.3"/>
</g>
<!-- Node14&#45;&gt;Node12 -->
<g id="edge16" class="edge">
<title>Node14&#45;&gt;Node12</title>
<path fill="none" stroke="midnightblue" d="M739.66,-56.32C726.84,-47.98 707.22,-35.21 692.06,-25.35"/>
<polygon fill="midnightblue" stroke="midnightblue" points="693.59,-22.17 683.3,-19.65 689.78,-28.04 693.59,-22.17"/>
</g>
<!-- Node15 -->
<g id="node15" class="node">
<title>Node15</title>
<g id="a_node15"><a xlink:title=" ">
<polygon fill="none" stroke="#bfbfbf" points="779.5,-0.5 779.5,-19.5 826.5,-19.5 826.5,-0.5 779.5,-0.5"/>
<text text-anchor="middle" x="803" y="-7.5" font-family="FreeSans.ttf" font-size="10.00">stdlib.h</text>
</a>
</g>
</g>
<!-- Node14&#45;&gt;Node15 -->
<g id="edge15" class="edge">
<title>Node14&#45;&gt;Node15</title>
<path fill="none" stroke="midnightblue" d="M761.26,-56.08C768.46,-48.3 779.11,-36.8 787.85,-27.37"/>
<polygon fill="midnightblue" stroke="midnightblue" points="790.67,-29.47 794.9,-19.75 785.53,-24.71 790.67,-29.47"/>
</g>
<!-- Node14&#45;&gt;Node16 -->
<g id="edge20" class="edge">
<title>Node14&#45;&gt;Node16</title>
<path fill="none" stroke="midnightblue" d="M781.2,-56.44C813.28,-46.71 865.52,-30.86 899.07,-20.69"/>
<polygon fill="midnightblue" stroke="midnightblue" points="900.28,-23.98 908.83,-17.73 898.25,-17.28 900.28,-23.98"/>
</g>
<!-- Node17 -->
<g id="node17" class="node">
<title>Node17</title>
<g id="a_node17"><a xlink:title=" ">
<polygon fill="none" stroke="#bfbfbf" points="845,-0.5 845,-19.5 891,-19.5 891,-0.5 845,-0.5"/>
<text text-anchor="middle" x="868" y="-7.5" font-family="FreeSans.ttf" font-size="10.00">math.h</text>
</a>
</g>
</g>
<!-- Node14&#45;&gt;Node17 -->
<g id="edge21" class="edge">
<title>Node14&#45;&gt;Node17</title>
<path fill="none" stroke="midnightblue" d="M771.22,-56.44C789.9,-47.68 819.16,-33.94 840.62,-23.86"/>
<polygon fill="midnightblue" stroke="midnightblue" points="842.3,-26.93 849.86,-19.52 839.32,-20.6 842.3,-26.93"/>
</g>
<!-- Node18 -->
<g id="node18" class="node">
<title>Node18</title>
<g id="a_node18"><a xlink:title=" ">
<polygon fill="none" stroke="#bfbfbf" points="710.5,-0.5 710.5,-19.5 761.5,-19.5 761.5,-0.5 710.5,-0.5"/>
<text text-anchor="middle" x="736" y="-7.5" font-family="FreeSans.ttf" font-size="10.00">assert.h</text>
</a>
</g>
</g>
<!-- Node14&#45;&gt;Node18 -->
<g id="edge22" class="edge">
<title>Node14&#45;&gt;Node18</title>
<path fill="none" stroke="midnightblue" d="M750.19,-56.08C747.92,-48.85 744.63,-38.41 741.79,-29.4"/>
<polygon fill="midnightblue" stroke="midnightblue" points="745.1,-28.24 738.75,-19.75 738.42,-30.34 745.1,-28.24"/>
</g>
<!-- Node21&#45;&gt;Node4 -->
<g id="edge32" class="edge">
<title>Node21&#45;&gt;Node4</title>
<path fill="none" stroke="midnightblue" d="M204.82,-280.44C266.32,-270.85 365.98,-255.29 431.26,-245.1"/>
<polygon fill="midnightblue" stroke="midnightblue" points="432.09,-248.52 441.43,-243.52 431.01,-241.6 432.09,-248.52"/>
</g>
<!-- Node21&#45;&gt;Node5 -->
<g id="edge31" class="edge">
<title>Node21&#45;&gt;Node5</title>
<path fill="none" stroke="midnightblue" d="M146.99,-280.16C143.02,-266.8 137.78,-241.21 149,-224 159.48,-207.92 177.14,-197.55 194.85,-190.87"/>
<polygon fill="midnightblue" stroke="midnightblue" points="196.31,-194.07 204.64,-187.53 194.05,-187.45 196.31,-194.07"/>
</g>
<!-- Node22 -->
<g id="node22" class="node">
<title>Node22</title>
<g id="a_node22"><a xlink:href="balanced__operator_8hpp.html" target="_top" xlink:title=" ">
<polygon fill="none" stroke="black" points="158,-224.5 158,-243.5 272,-243.5 272,-224.5 158,-224.5"/>
<text text-anchor="middle" x="215" y="-231.5" font-family="FreeSans.ttf" font-size="10.00">balanced_operator.hpp</text>
</a>
</g>
</g>
<!-- Node21&#45;&gt;Node22 -->
<g id="edge33" class="edge">
<title>Node21&#45;&gt;Node22</title>
<path fill="none" stroke="midnightblue" d="M160.44,-280.32C170.15,-272.26 184.82,-260.08 196.5,-250.37"/>
<polygon fill="midnightblue" stroke="midnightblue" points="198.91,-252.92 204.37,-243.83 194.44,-247.53 198.91,-252.92"/>
</g>
<!-- Node22&#45;&gt;Node5 -->
<g id="edge34" class="edge">
<title>Node22&#45;&gt;Node5</title>
<path fill="none" stroke="midnightblue" d="M220.94,-224.08C225.98,-216.53 233.34,-205.49 239.51,-196.23"/>
<polygon fill="midnightblue" stroke="midnightblue" points="242.53,-198.01 245.17,-187.75 236.71,-194.13 242.53,-198.01"/>
</g>
<!-- Node23&#45;&gt;Node4 -->
<g id="edge39" class="edge">
<title>Node23&#45;&gt;Node4</title>
<path fill="none" stroke="midnightblue" d="M421.3,-280.32C435.18,-271.9 456.49,-258.97 472.8,-249.07"/>
<polygon fill="midnightblue" stroke="midnightblue" points="475,-251.83 481.74,-243.65 471.37,-245.85 475,-251.83"/>
</g>
<!-- Node23&#45;&gt;Node5 -->
<g id="edge38" class="edge">
<title>Node23&#45;&gt;Node5</title>
<path fill="none" stroke="midnightblue" d="M406.75,-280.15C405.88,-266.31 402.2,-239.52 387,-224 368.41,-205.02 341.66,-194.04 316.79,-187.7"/>
<polygon fill="midnightblue" stroke="midnightblue" points="317.54,-184.28 307.01,-185.41 315.95,-191.09 317.54,-184.28"/>
</g>
<!-- Node24 -->
<g id="node24" class="node">
<title>Node24</title>
<g id="a_node24"><a xlink:title=" ">
<polygon fill="none" stroke="#bfbfbf" points="328,-224.5 328,-243.5 378,-243.5 378,-224.5 328,-224.5"/>
<text text-anchor="middle" x="353" y="-231.5" font-family="FreeSans.ttf" font-size="10.00">typeinfo</text>
</a>
</g>
</g>
<!-- Node23&#45;&gt;Node24 -->
<g id="edge36" class="edge">
<title>Node23&#45;&gt;Node24</title>
<path fill="none" stroke="midnightblue" d="M398.08,-280.08C390.22,-272.22 378.57,-260.57 369.08,-251.08"/>
<polygon fill="midnightblue" stroke="midnightblue" points="371.3,-248.35 361.75,-243.75 366.35,-253.3 371.3,-248.35"/>
</g>
<!-- Node23&#45;&gt;Node25 -->
<g id="edge37" class="edge">
<title>Node23&#45;&gt;Node25</title>
<path fill="none" stroke="midnightblue" d="M456.75,-280.44C518.94,-269.75 624.13,-251.66 681.24,-241.84"/>
<polygon fill="midnightblue" stroke="midnightblue" points="682.06,-245.25 691.32,-240.1 680.87,-238.35 682.06,-245.25"/>
</g>
<!-- Node26&#45;&gt;Node5 -->
<g id="edge41" class="edge">
<title>Node26&#45;&gt;Node5</title>
<path fill="none" stroke="midnightblue" d="M348.86,-336.28C339.67,-326.57 327.8,-313.14 319,-300 297.98,-268.62 299.96,-256.66 281,-224 275.52,-214.56 268.83,-204.41 263.16,-196.15"/>
<polygon fill="midnightblue" stroke="midnightblue" points="265.9,-193.96 257.31,-187.76 260.16,-197.96 265.9,-193.96"/>
</g>
<!-- Node26&#45;&gt;Node22 -->
<g id="edge43" class="edge">
<title>Node26&#45;&gt;Node22</title>
<path fill="none" stroke="midnightblue" d="M339.42,-336.41C323.82,-326.76 303.16,-313.35 286,-300 266.15,-284.56 245.1,-264.82 231.13,-251.16"/>
<polygon fill="midnightblue" stroke="midnightblue" points="233.35,-248.44 223.78,-243.9 228.43,-253.42 233.35,-248.44"/>
</g>
<!-- Node26&#45;&gt;Node23 -->
<g id="edge42" class="edge">
<title>Node26&#45;&gt;Node23</title>
<path fill="none" stroke="midnightblue" d="M373.43,-336.4C379.76,-327.84 387.87,-316.87 394.53,-307.86"/>
<polygon fill="midnightblue" stroke="midnightblue" points="397.47,-309.78 400.6,-299.66 391.84,-305.62 397.47,-309.78"/>
</g>
<!-- Node30&#45;&gt;Node4 -->
<g id="edge51" class="edge">
<title>Node30&#45;&gt;Node4</title>
<path fill="none" stroke="midnightblue" d="M769.29,-280.97C712.71,-271.46 618.32,-255.58 556.61,-245.2"/>
<polygon fill="midnightblue" stroke="midnightblue" points="557.07,-241.72 546.62,-243.52 555.9,-248.63 557.07,-241.72"/>
</g>
<!-- Node30&#45;&gt;Node9 -->
<g id="edge50" class="edge">
<title>Node30&#45;&gt;Node9</title>
<path fill="none" stroke="midnightblue" d="M810.45,-280.4C800.27,-267.35 779.68,-242.16 759,-224 718.36,-188.3 664.56,-154.7 633.97,-136.69"/>
<polygon fill="midnightblue" stroke="midnightblue" points="635.67,-133.62 625.27,-131.61 632.14,-139.67 635.67,-133.62"/>
</g>
<!-- Node30&#45;&gt;Node14 -->
<g id="edge52" class="edge">
<title>Node30&#45;&gt;Node14</title>
<path fill="none" stroke="midnightblue" d="M821.25,-280.22C830.48,-259.88 850.41,-208.24 836,-168 823.22,-132.32 791.8,-100.21 771.49,-82.2"/>
<polygon fill="midnightblue" stroke="midnightblue" points="773.67,-79.46 763.81,-75.58 769.1,-84.76 773.67,-79.46"/>
</g>
<!-- Node30&#45;&gt;Node16 -->
<g id="edge53" class="edge">
<title>Node30&#45;&gt;Node16</title>
<path fill="none" stroke="midnightblue" d="M828.54,-280.43C849.8,-263.57 893,-223.8 893,-179 893,-179 893,-179 893,-121 893,-86.81 909.6,-49.76 920.86,-28.57"/>
<polygon fill="midnightblue" stroke="midnightblue" points="923.95,-30.22 925.72,-19.77 917.82,-26.83 923.95,-30.22"/>
</g>
<!-- Node31&#45;&gt;Node4 -->
<g id="edge56" class="edge">
<title>Node31&#45;&gt;Node4</title>
<path fill="none" stroke="midnightblue" d="M723.74,-341.79C706.17,-327.25 668.77,-297.87 633,-280 603.58,-265.3 568.28,-253.84 540.88,-246.16"/>
<polygon fill="midnightblue" stroke="midnightblue" points="541.74,-242.77 531.17,-243.5 539.89,-249.52 541.74,-242.77"/>
</g>
<!-- Node31&#45;&gt;Node9 -->
<g id="edge55" class="edge">
<title>Node31&#45;&gt;Node9</title>
<path fill="none" stroke="midnightblue" d="M729.92,-341.98C717.22,-315.67 677.03,-233.48 639,-168 633.57,-158.66 627.1,-148.52 621.64,-140.24"/>
<polygon fill="midnightblue" stroke="midnightblue" points="624.48,-138.19 616.02,-131.81 618.66,-142.08 624.48,-138.19"/>
</g>
<!-- Node31&#45;&gt;Node28 -->
<g id="edge58" class="edge">
<title>Node31&#45;&gt;Node28</title>
<path fill="none" stroke="midnightblue" d="M715.09,-341.98C692.84,-331.95 655.69,-315.2 630.07,-303.65"/>
<polygon fill="midnightblue" stroke="midnightblue" points="631.43,-300.43 620.88,-299.51 628.56,-306.81 631.43,-300.43"/>
</g>
<!-- Node31&#45;&gt;Node30 -->
<g id="edge57" class="edge">
<title>Node31&#45;&gt;Node30</title>
<path fill="none" stroke="midnightblue" d="M745.89,-341.98C759.2,-332.43 781,-316.81 796.96,-305.37"/>
<polygon fill="midnightblue" stroke="midnightblue" points="799.04,-308.18 805.13,-299.51 794.96,-302.49 799.04,-308.18"/>
</g>
</g>
</svg>
