<?xml version="1.0" encoding="UTF-8" standalone="no"?>
<!DOCTYPE svg PUBLIC "-//W3C//DTD SVG 1.1//EN"
 "http://www.w3.org/Graphics/SVG/1.1/DTD/svg11.dtd">
<!-- Generated by graphviz version 2.49.3 (20211027.1534)
 -->
<!-- Title: loadGrid3Kernel Pages: 1 -->
<svg width="453pt" height="75pt"
 viewBox="0.00 0.00 453.00 75.00" xmlns="http://www.w3.org/2000/svg" xmlns:xlink="http://www.w3.org/1999/xlink">
<g id="graph0" class="graph" transform="scale(1 1) rotate(0) translate(4 71)">
<title>loadGrid3Kernel</title>
<!-- Node1 -->
<g id="node1" class="node">
<title>Node1</title>
<g id="a_node1"><a xlink:title="Loads a radius of the circularly symmetric kernel into a 1&#45;d array, with respect to the kernel radius...">
<polygon fill="#bfbfbf" stroke="black" points="0,-28.5 0,-47.5 86,-47.5 86,-28.5 0,-28.5"/>
<text text-anchor="middle" x="43" y="-35.5" font-family="FreeSans.ttf" font-size="10.00">loadGrid3Kernel</text>
</a>
</g>
</g>
<!-- Node2 -->
<g id="node2" class="node">
<title>Node2</title>
<g id="a_node2"><a xlink:href="gpuNUFFT__utils_8cpp.html#a6683a749816745e9e10c65ac77ebd1c6" target="_top" xlink:title="Loads a radius of the circularly symmetric kernel into a 1&#45;d array, with respect to the kernel radius...">
<polygon fill="none" stroke="black" points="122,-28.5 122,-47.5 196,-47.5 196,-28.5 122,-28.5"/>
<text text-anchor="middle" x="159" y="-35.5" font-family="FreeSans.ttf" font-size="10.00">load1DKernel</text>
</a>
</g>
</g>
<!-- Node1&#45;&gt;Node2 -->
<g id="edge1" class="edge">
<title>Node1&#45;&gt;Node2</title>
<path fill="none" stroke="midnightblue" d="M86.13,-38C94.42,-38 103.17,-38 111.6,-38"/>
<polygon fill="midnightblue" stroke="midnightblue" points="111.67,-41.5 121.67,-38 111.67,-34.5 111.67,-41.5"/>
</g>
<!-- Node3 -->
<g id="node3" class="node">
<title>Node3</title>
<g id="a_node3"><a xlink:href="gpuNUFFT__utils_8hpp.html#a18dd3c6c4b8ac5f6947f3dc1c59651bc" target="_top" xlink:title="Interpolation Kernel evaluation for radius.">
<polygon fill="none" stroke="black" points="232,-28.5 232,-47.5 275,-47.5 275,-28.5 232,-28.5"/>
<text text-anchor="middle" x="253.5" y="-35.5" font-family="FreeSans.ttf" font-size="10.00">kernel</text>
</a>
</g>
</g>
<!-- Node2&#45;&gt;Node3 -->
<g id="edge2" class="edge">
<title>Node2&#45;&gt;Node3</title>
<path fill="none" stroke="midnightblue" d="M196.03,-38C204.49,-38 213.44,-38 221.65,-38"/>
<polygon fill="midnightblue" stroke="midnightblue" points="221.93,-41.5 231.93,-38 221.93,-34.5 221.93,-41.5"/>
</g>
<!-- Node4 -->
<g id="node4" class="node">
<title>Node4</title>
<g id="a_node4"><a xlink:href="gpuNUFFT__utils_8hpp.html#aa7b00d423ae0e06388b55594fe1adb93" target="_top" xlink:title="beta function used in interpolation function. See Beatty et al.">
<polygon fill="none" stroke="black" points="403,-47.5 403,-66.5 445,-66.5 445,-47.5 403,-47.5"/>
<text text-anchor="middle" x="424" y="-54.5" font-family="FreeSans.ttf" font-size="10.00">BETA</text>
</a>
</g>
</g>
<!-- Node3&#45;&gt;Node4 -->
<g id="edge3" class="edge">
<title>Node3&#45;&gt;Node4</title>
<path fill="none" stroke="midnightblue" d="M275.02,-46.69C285.56,-50.69 298.74,-54.99 311,-57 338.33,-61.47 369.92,-60.97 392.57,-59.64"/>
<polygon fill="midnightblue" stroke="midnightblue" points="392.87,-63.13 402.61,-58.96 392.39,-56.14 392.87,-63.13"/>
</g>
<!-- Node5 -->
<g id="node5" class="node">
<title>Node5</title>
<g id="a_node5"><a xlink:href="gpuNUFFT__utils_8cpp.html#a5472cb661dea68a2ab2b52df187b6291" target="_top" xlink:title="Modified Kaiser Bessel function of zero&#45;th order.">
<polygon fill="none" stroke="black" points="409.5,-0.5 409.5,-19.5 438.5,-19.5 438.5,-0.5 409.5,-0.5"/>
<text text-anchor="middle" x="424" y="-7.5" font-family="FreeSans.ttf" font-size="10.00">i0</text>
</a>
</g>
</g>
<!-- Node3&#45;&gt;Node5 -->
<g id="edge4" class="edge">
<title>Node3&#45;&gt;Node5</title>
<path fill="none" stroke="midnightblue" d="M275.09,-29.72C285.66,-25.83 298.83,-21.5 311,-19 341.05,-12.84 376.45,-10.85 399.28,-10.23"/>
<polygon fill="midnightblue" stroke="midnightblue" points="399.48,-13.73 409.4,-10.03 399.33,-6.73 399.48,-13.73"/>
</g>
<!-- Node6 -->
<g id="node6" class="node">
<title>Node6</title>
<g id="a_node6"><a xlink:href="gpuNUFFT__utils_8hpp.html#ab1456ac35fe51fc4dac2e0054f6d9a50" target="_top" xlink:title="I_0 function used in interpolation function. See Beatty et al.">
<polygon fill="none" stroke="black" points="311,-28.5 311,-47.5 367,-47.5 367,-28.5 311,-28.5"/>
<text text-anchor="middle" x="339" y="-35.5" font-family="FreeSans.ttf" font-size="10.00">I0_BETA</text>
</a>
</g>
</g>
<!-- Node3&#45;&gt;Node6 -->
<g id="edge5" class="edge">
<title>Node3&#45;&gt;Node6</title>
<path fill="none" stroke="midnightblue" d="M275.14,-38C282.92,-38 292.02,-38 300.84,-38"/>
<polygon fill="midnightblue" stroke="midnightblue" points="300.98,-41.5 310.98,-38 300.98,-34.5 300.98,-41.5"/>
</g>
<!-- Node6&#45;&gt;Node4 -->
<g id="edge6" class="edge">
<title>Node6&#45;&gt;Node4</title>
<path fill="none" stroke="midnightblue" d="M367.18,-44.22C375.45,-46.11 384.58,-48.2 393.02,-50.14"/>
<polygon fill="midnightblue" stroke="midnightblue" points="392.34,-53.57 402.87,-52.39 393.9,-46.75 392.34,-53.57"/>
</g>
<!-- Node6&#45;&gt;Node5 -->
<g id="edge7" class="edge">
<title>Node6&#45;&gt;Node5</title>
<path fill="none" stroke="midnightblue" d="M367.18,-28.83C377.56,-25.33 389.31,-21.36 399.35,-17.98"/>
<polygon fill="midnightblue" stroke="midnightblue" points="400.69,-21.22 409.05,-14.71 398.46,-14.59 400.69,-21.22"/>
</g>
</g>
</svg>
