<?xml version="1.0" encoding="UTF-8" standalone="no"?>
<!DOCTYPE svg PUBLIC "-//W3C//DTD SVG 1.1//EN"
 "http://www.w3.org/Graphics/SVG/1.1/DTD/svg11.dtd">
<!-- Generated by graphviz version 2.49.3 (20211027.1534)
 -->
<!-- Title: i0 Pages: 1 -->
<svg width="1124pt" height="346pt"
 viewBox="0.00 0.00 1124.00 345.50" xmlns="http://www.w3.org/2000/svg" xmlns:xlink="http://www.w3.org/1999/xlink">
<g id="graph0" class="graph" transform="scale(1 1) rotate(0) translate(4 341.5)">
<title>i0</title>
<!-- Node1 -->
<g id="node1" class="node">
<title>Node1</title>
<g id="a_node1"><a xlink:title="Modified Kaiser Bessel function of zero&#45;th order.">
<polygon fill="#bfbfbf" stroke="black" points="1087,-194.5 1087,-213.5 1116,-213.5 1116,-194.5 1087,-194.5"/>
<text text-anchor="middle" x="1101.5" y="-201.5" font-family="FreeSans.ttf" font-size="10.00">i0</text>
</a>
</g>
</g>
<!-- Node2 -->
<g id="node2" class="node">
<title>Node2</title>
<g id="a_node2"><a xlink:href="gpuNUFFT__utils_8hpp.html#ab1456ac35fe51fc4dac2e0054f6d9a50" target="_top" xlink:title="I_0 function used in interpolation function. See Beatty et al.">
<polygon fill="none" stroke="black" points="995,-213.5 995,-232.5 1051,-232.5 1051,-213.5 995,-213.5"/>
<text text-anchor="middle" x="1023" y="-220.5" font-family="FreeSans.ttf" font-size="10.00">I0_BETA</text>
</a>
</g>
</g>
<!-- Node1&#45;&gt;Node2 -->
<g id="edge1" class="edge">
<title>Node1&#45;&gt;Node2</title>
<path fill="none" stroke="midnightblue" d="M1076.88,-209.87C1068.75,-211.89 1059.58,-214.16 1051.18,-216.25"/>
<polygon fill="midnightblue" stroke="midnightblue" points="1077.96,-213.2 1086.82,-207.4 1076.27,-206.41 1077.96,-213.2"/>
</g>
<!-- Node3 -->
<g id="node3" class="node">
<title>Node3</title>
<g id="a_node3"><a xlink:href="gpuNUFFT__utils_8hpp.html#a18dd3c6c4b8ac5f6947f3dc1c59651bc" target="_top" xlink:title="Interpolation Kernel evaluation for radius.">
<polygon fill="none" stroke="black" points="916,-194.5 916,-213.5 959,-213.5 959,-194.5 916,-194.5"/>
<text text-anchor="middle" x="937.5" y="-201.5" font-family="FreeSans.ttf" font-size="10.00">kernel</text>
</a>
</g>
</g>
<!-- Node1&#45;&gt;Node3 -->
<g id="edge23" class="edge">
<title>Node1&#45;&gt;Node3</title>
<path fill="none" stroke="midnightblue" d="M1076.82,-204C1045.07,-204 989.22,-204 959.11,-204"/>
<polygon fill="midnightblue" stroke="midnightblue" points="1076.97,-207.5 1086.97,-204 1076.97,-200.5 1076.97,-207.5"/>
</g>
<!-- Node2&#45;&gt;Node3 -->
<g id="edge2" class="edge">
<title>Node2&#45;&gt;Node3</title>
<path fill="none" stroke="midnightblue" d="M984.85,-214.55C975.97,-212.53 966.82,-210.44 959.01,-208.67"/>
<polygon fill="midnightblue" stroke="midnightblue" points="984.13,-217.97 994.66,-216.78 985.68,-211.15 984.13,-217.97"/>
</g>
<!-- Node4 -->
<g id="node4" class="node">
<title>Node4</title>
<g id="a_node4"><a xlink:href="classgpuNUFFT_1_1GpuNUFFTOperator.html#a9075329c4647b3982e44124202048f5a" target="_top" xlink:title="Function to allocate all neccessary device memory used by the GriddingOperator.">
<polygon fill="none" stroke="black" points="705.5,-304 705.5,-334 863.5,-334 863.5,-304 705.5,-304"/>
<text text-anchor="start" x="713.5" y="-322" font-family="FreeSans.ttf" font-size="10.00">gpuNUFFT::GpuNUFFTOperator</text>
<text text-anchor="middle" x="784.5" y="-311" font-family="FreeSans.ttf" font-size="10.00">::initDeviceMemory</text>
</a>
</g>
</g>
<!-- Node3&#45;&gt;Node4 -->
<g id="edge3" class="edge">
<title>Node3&#45;&gt;Node4</title>
<path fill="none" stroke="midnightblue" d="M929.69,-223.09C921.26,-243.93 904.9,-276.77 880,-295 874.95,-298.7 869.38,-301.83 863.55,-304.48"/>
<polygon fill="midnightblue" stroke="midnightblue" points="932.99,-224.27 933.29,-213.68 926.45,-221.77 932.99,-224.27"/>
</g>
<!-- Node5 -->
<g id="node5" class="node">
<title>Node5</title>
<g id="a_node5"><a xlink:href="classgpuNUFFT_1_1GpuNUFFTOperator.html#a1d1ee62639349d3409ad96366b082c07" target="_top" xlink:title="Compute all neccessary meta information used in the gridding steps.">
<polygon fill="none" stroke="black" points="705.5,-255 705.5,-285 863.5,-285 863.5,-255 705.5,-255"/>
<text text-anchor="start" x="713.5" y="-273" font-family="FreeSans.ttf" font-size="10.00">gpuNUFFT::GpuNUFFTOperator</text>
<text text-anchor="middle" x="784.5" y="-262" font-family="FreeSans.ttf" font-size="10.00">::initGpuNUFFTInfo</text>
</a>
</g>
</g>
<!-- Node3&#45;&gt;Node5 -->
<g id="edge4" class="edge">
<title>Node3&#45;&gt;Node5</title>
<path fill="none" stroke="midnightblue" d="M915.26,-219.39C904.97,-226.36 892.22,-234.28 880,-240 867.84,-245.69 854.31,-250.69 841.39,-254.91"/>
<polygon fill="midnightblue" stroke="midnightblue" points="917.38,-222.19 923.59,-213.6 913.38,-216.44 917.38,-222.19"/>
</g>
<!-- Node8 -->
<g id="node8" class="node">
<title>Node8</title>
<g id="a_node8"><a xlink:href="classgpuNUFFT_1_1GpuNUFFTOperator.html#a501ffa99025d9cc1f1497e354c56533b" target="_top" xlink:title="Precompute interpolation kernel lookup table.">
<polygon fill="none" stroke="black" points="474.5,-196 474.5,-226 632.5,-226 632.5,-196 474.5,-196"/>
<text text-anchor="start" x="482.5" y="-214" font-family="FreeSans.ttf" font-size="10.00">gpuNUFFT::GpuNUFFTOperator</text>
<text text-anchor="middle" x="553.5" y="-203" font-family="FreeSans.ttf" font-size="10.00">::initKernel</text>
</a>
</g>
</g>
<!-- Node3&#45;&gt;Node8 -->
<g id="edge7" class="edge">
<title>Node3&#45;&gt;Node8</title>
<path fill="none" stroke="midnightblue" d="M905.74,-205.2C897.39,-205.5 888.35,-205.79 880,-206 795.53,-208.14 698.71,-209.49 632.78,-210.24"/>
<polygon fill="midnightblue" stroke="midnightblue" points="905.97,-208.69 915.84,-204.83 905.72,-201.7 905.97,-208.69"/>
</g>
<!-- Node10 -->
<g id="node10" class="node">
<title>Node10</title>
<g id="a_node10"><a xlink:href="classgpuNUFFT_1_1GpuNUFFTOperator.html#ab6adcc02b05b28d50aa05fe8dd320dd3" target="_top" xlink:title="Virtual method to allow different methods of generation of the lookup table.">
<polygon fill="none" stroke="black" points="705.5,-167 705.5,-197 863.5,-197 863.5,-167 705.5,-167"/>
<text text-anchor="start" x="713.5" y="-185" font-family="FreeSans.ttf" font-size="10.00">gpuNUFFT::GpuNUFFTOperator</text>
<text text-anchor="middle" x="784.5" y="-174" font-family="FreeSans.ttf" font-size="10.00">::initLookupTable</text>
</a>
</g>
</g>
<!-- Node3&#45;&gt;Node10 -->
<g id="edge9" class="edge">
<title>Node3&#45;&gt;Node10</title>
<path fill="none" stroke="midnightblue" d="M905.67,-199.51C893.33,-197.71 878.5,-195.55 863.54,-193.37"/>
<polygon fill="midnightblue" stroke="midnightblue" points="905.42,-203.01 915.82,-200.99 906.43,-196.08 905.42,-203.01"/>
</g>
<!-- Node11 -->
<g id="node11" class="node">
<title>Node11</title>
<g id="a_node11"><a xlink:href="classgpuNUFFT_1_1TextureGpuNUFFTOperator.html#a57590b9115b854d3152ef64d847665ea" target="_top" xlink:title="Virtual method to allow different methods of generation of the lookup table.">
<polygon fill="none" stroke="black" points="689,-118 689,-148 880,-148 880,-118 689,-118"/>
<text text-anchor="start" x="697" y="-136" font-family="FreeSans.ttf" font-size="10.00">gpuNUFFT::TextureGpuNUFFTOperator</text>
<text text-anchor="middle" x="784.5" y="-125" font-family="FreeSans.ttf" font-size="10.00">::initLookupTable</text>
</a>
</g>
</g>
<!-- Node3&#45;&gt;Node11 -->
<g id="edge10" class="edge">
<title>Node3&#45;&gt;Node11</title>
<path fill="none" stroke="midnightblue" d="M920.2,-187.05C909.62,-176.96 895.04,-164.66 880,-157 873.36,-153.62 866.22,-150.69 858.93,-148.16"/>
<polygon fill="midnightblue" stroke="midnightblue" points="917.89,-189.68 927.46,-194.22 922.81,-184.7 917.89,-189.68"/>
</g>
<!-- Node12 -->
<g id="node12" class="node">
<title>Node12</title>
<g id="a_node12"><a xlink:href="gpuNUFFT__utils_8cpp.html#a6683a749816745e9e10c65ac77ebd1c6" target="_top" xlink:title="Loads a radius of the circularly symmetric kernel into a 1&#45;d array, with respect to the kernel radius...">
<polygon fill="none" stroke="black" points="747.5,-79.5 747.5,-98.5 821.5,-98.5 821.5,-79.5 747.5,-79.5"/>
<text text-anchor="middle" x="784.5" y="-86.5" font-family="FreeSans.ttf" font-size="10.00">load1DKernel</text>
</a>
</g>
</g>
<!-- Node3&#45;&gt;Node12 -->
<g id="edge11" class="edge">
<title>Node3&#45;&gt;Node12</title>
<path fill="none" stroke="midnightblue" d="M930.51,-184.62C922.61,-162.48 906.54,-126.89 880,-108 863.23,-96.06 840.76,-91.21 821.94,-89.39"/>
<polygon fill="midnightblue" stroke="midnightblue" points="927.24,-185.9 933.73,-194.27 933.88,-183.68 927.24,-185.9"/>
</g>
<!-- Node6 -->
<g id="node6" class="node">
<title>Node6</title>
<g id="a_node6"><a xlink:href="classgpuNUFFT_1_1BalancedGpuNUFFTOperator.html#aebed0b033d85b71c1e48132203b7caed" target="_top" xlink:title="Virtual method to perform precomputation of all neccessary meta information used in the gridding step...">
<polygon fill="none" stroke="black" points="454,-307 454,-337 653,-337 653,-307 454,-307"/>
<text text-anchor="start" x="462" y="-325" font-family="FreeSans.ttf" font-size="10.00">gpuNUFFT::BalancedGpuNUFFTOperator</text>
<text text-anchor="middle" x="553.5" y="-314" font-family="FreeSans.ttf" font-size="10.00">::initAndCopyGpuNUFFTInfo</text>
</a>
</g>
</g>
<!-- Node5&#45;&gt;Node6 -->
<g id="edge5" class="edge">
<title>Node5&#45;&gt;Node6</title>
<path fill="none" stroke="midnightblue" d="M707.48,-287.26C679.36,-293.65 647.75,-300.83 620.59,-306.99"/>
<polygon fill="midnightblue" stroke="midnightblue" points="708.29,-290.67 717.26,-285.04 706.74,-283.84 708.29,-290.67"/>
</g>
<!-- Node7 -->
<g id="node7" class="node">
<title>Node7</title>
<g id="a_node7"><a xlink:href="classgpuNUFFT_1_1BalancedTextureGpuNUFFTOperator.html#a4cfe8965eea8ee447fbffc138eefe588" target="_top" xlink:title="Virtual method to perform precomputation of all neccessary meta information used in the gridding step...">
<polygon fill="none" stroke="black" points="464,-247.5 464,-288.5 643,-288.5 643,-247.5 464,-247.5"/>
<text text-anchor="start" x="472" y="-276.5" font-family="FreeSans.ttf" font-size="10.00">gpuNUFFT::BalancedTexture</text>
<text text-anchor="start" x="472" y="-265.5" font-family="FreeSans.ttf" font-size="10.00">GpuNUFFTOperator::initAndCopyGpu</text>
<text text-anchor="middle" x="553.5" y="-254.5" font-family="FreeSans.ttf" font-size="10.00">NUFFTInfo</text>
</a>
</g>
</g>
<!-- Node5&#45;&gt;Node7 -->
<g id="edge6" class="edge">
<title>Node5&#45;&gt;Node7</title>
<path fill="none" stroke="midnightblue" d="M694.91,-269.23C677.99,-269.08 660.27,-268.92 643.34,-268.78"/>
<polygon fill="midnightblue" stroke="midnightblue" points="695.3,-272.73 705.33,-269.32 695.36,-265.73 695.3,-272.73"/>
</g>
<!-- Node9 -->
<g id="node9" class="node">
<title>Node9</title>
<g id="a_node9"><a xlink:href="classgpuNUFFT_1_1GpuNUFFTOperator.html#a412cbf2c22a1fbf1ebe47f4711be9fa4" target="_top" xlink:title="GpuNUFFTOperator ctor.">
<polygon fill="none" stroke="black" points="243.5,-196 243.5,-226 401.5,-226 401.5,-196 243.5,-196"/>
<text text-anchor="start" x="251.5" y="-214" font-family="FreeSans.ttf" font-size="10.00">gpuNUFFT::GpuNUFFTOperator</text>
<text text-anchor="middle" x="322.5" y="-203" font-family="FreeSans.ttf" font-size="10.00">::GpuNUFFTOperator</text>
</a>
</g>
</g>
<!-- Node8&#45;&gt;Node9 -->
<g id="edge8" class="edge">
<title>Node8&#45;&gt;Node9</title>
<path fill="none" stroke="midnightblue" d="M464.32,-211C443.69,-211 421.86,-211 401.7,-211"/>
<polygon fill="midnightblue" stroke="midnightblue" points="464.33,-214.5 474.33,-211 464.33,-207.5 464.33,-214.5"/>
</g>
<!-- Node12&#45;&gt;Node8 -->
<g id="edge12" class="edge">
<title>Node12&#45;&gt;Node8</title>
<path fill="none" stroke="midnightblue" d="M736.98,-89.9C720.42,-92.27 702.54,-97.42 689,-108 659.55,-131.02 681.64,-159.98 653,-184 647.02,-189.01 640.19,-193.1 632.97,-196.43"/>
<polygon fill="midnightblue" stroke="midnightblue" points="737.53,-93.36 747.08,-88.75 736.75,-86.4 737.53,-93.36"/>
</g>
<!-- Node13 -->
<g id="node13" class="node">
<title>Node13</title>
<g id="a_node13"><a xlink:href="classgpuNUFFT_1_1TextureGpuNUFFTOperator.html#a3125b2b6c409e1d52050f9e3859f4f12" target="_top" xlink:title="Precompute interpolation kernel lookup table.">
<polygon fill="none" stroke="black" points="227,-39 227,-69 418,-69 418,-39 227,-39"/>
<text text-anchor="start" x="235" y="-57" font-family="FreeSans.ttf" font-size="10.00">gpuNUFFT::TextureGpuNUFFTOperator</text>
<text text-anchor="middle" x="322.5" y="-46" font-family="FreeSans.ttf" font-size="10.00">::initKernel</text>
</a>
</g>
</g>
<!-- Node12&#45;&gt;Node13 -->
<g id="edge13" class="edge">
<title>Node12&#45;&gt;Node13</title>
<path fill="none" stroke="midnightblue" d="M737.42,-81.19C712.5,-77.24 681.14,-72.73 653,-70 574.05,-62.35 484.08,-58.3 418.13,-56.19"/>
<polygon fill="midnightblue" stroke="midnightblue" points="736.9,-84.65 747.33,-82.78 738.01,-77.74 736.9,-84.65"/>
</g>
<!-- Node15 -->
<g id="node15" class="node">
<title>Node15</title>
<g id="a_node15"><a xlink:href="gpuNUFFT__utils_8cpp.html#a03ba0850f7bccde81a06b55be0d6adb8" target="_top" xlink:title="Loads a radius of the circularly symmetric kernel into a 2&#45;d array, with respect to the kernel radius...">
<polygon fill="none" stroke="black" points="516.5,-3.5 516.5,-22.5 590.5,-22.5 590.5,-3.5 516.5,-3.5"/>
<text text-anchor="middle" x="553.5" y="-10.5" font-family="FreeSans.ttf" font-size="10.00">load2DKernel</text>
</a>
</g>
</g>
<!-- Node12&#45;&gt;Node15 -->
<g id="edge15" class="edge">
<title>Node12&#45;&gt;Node15</title>
<path fill="none" stroke="midnightblue" d="M752.76,-75.33C726.59,-64.04 687.82,-48.12 653,-37 632.71,-30.52 609.6,-24.81 590.86,-20.58"/>
<polygon fill="midnightblue" stroke="midnightblue" points="751.57,-78.63 762.13,-79.41 754.36,-72.21 751.57,-78.63"/>
</g>
<!-- Node17 -->
<g id="node17" class="node">
<title>Node17</title>
<g id="a_node17"><a xlink:href="gpuNUFFT__utils_8cpp.html#a4603fff4bc63b96eea4500784a77fc48" target="_top" xlink:title="Loads a radius of the circularly symmetric kernel into a 3&#45;d array, with respect to the kernel radius...">
<polygon fill="none" stroke="black" points="516.5,-155.5 516.5,-174.5 590.5,-174.5 590.5,-155.5 516.5,-155.5"/>
<text text-anchor="middle" x="553.5" y="-162.5" font-family="FreeSans.ttf" font-size="10.00">load3DKernel</text>
</a>
</g>
</g>
<!-- Node12&#45;&gt;Node17 -->
<g id="edge18" class="edge">
<title>Node12&#45;&gt;Node17</title>
<path fill="none" stroke="midnightblue" d="M736.95,-92.6C721,-95.3 703.53,-99.96 689,-108 668.64,-119.26 673.4,-134.82 653,-146 634.06,-156.38 610.36,-161.16 590.95,-163.34"/>
<polygon fill="midnightblue" stroke="midnightblue" points="737.77,-96.02 747.16,-91.1 736.76,-89.09 737.77,-96.02"/>
</g>
<!-- Node19 -->
<g id="node19" class="node">
<title>Node19</title>
<g id="a_node19"><a xlink:href="gpuNUFFT__utils_8cpp.html#acf5440ba3be843dac60ba8642a0b4ede" target="_top" xlink:title="Loads a radius of the circularly symmetric kernel into a 1&#45;d array, with respect to the kernel radius...">
<polygon fill="none" stroke="black" points="510.5,-117.5 510.5,-136.5 596.5,-136.5 596.5,-117.5 510.5,-117.5"/>
<text text-anchor="middle" x="553.5" y="-124.5" font-family="FreeSans.ttf" font-size="10.00">loadGrid3Kernel</text>
</a>
</g>
</g>
<!-- Node12&#45;&gt;Node19 -->
<g id="edge21" class="edge">
<title>Node12&#45;&gt;Node19</title>
<path fill="none" stroke="midnightblue" d="M737.42,-96.65C696.25,-103.48 636.43,-113.4 596.54,-120.02"/>
<polygon fill="midnightblue" stroke="midnightblue" points="738.17,-100.07 747.47,-94.98 737.03,-93.16 738.17,-100.07"/>
</g>
<!-- Node20 -->
<g id="node20" class="node">
<title>Node20</title>
<g id="a_node20"><a xlink:href="gpuNUFFT__2D__conv__tests_8cpp.html#aaa68ca62ef9f76180f0da723f0da1dfb" target="_top" xlink:title=" ">
<polygon fill="none" stroke="black" points="533,-79.5 533,-98.5 574,-98.5 574,-79.5 533,-79.5"/>
<text text-anchor="middle" x="553.5" y="-86.5" font-family="FreeSans.ttf" font-size="10.00">TEST</text>
</a>
</g>
</g>
<!-- Node12&#45;&gt;Node20 -->
<g id="edge22" class="edge">
<title>Node12&#45;&gt;Node20</title>
<path fill="none" stroke="midnightblue" d="M737.24,-89C687.27,-89 609.98,-89 574.08,-89"/>
<polygon fill="midnightblue" stroke="midnightblue" points="737.47,-92.5 747.47,-89 737.47,-85.5 737.47,-92.5"/>
</g>
<!-- Node14 -->
<g id="node14" class="node">
<title>Node14</title>
<g id="a_node14"><a xlink:href="classgpuNUFFT_1_1TextureGpuNUFFTOperator.html#ae409e2a90a74c6f1890a7591b2ac414d" target="_top" xlink:title=" ">
<polygon fill="none" stroke="black" points="0,-39 0,-69 191,-69 191,-39 0,-39"/>
<text text-anchor="start" x="8" y="-57" font-family="FreeSans.ttf" font-size="10.00">gpuNUFFT::TextureGpuNUFFTOperator</text>
<text text-anchor="middle" x="95.5" y="-46" font-family="FreeSans.ttf" font-size="10.00">::TextureGpuNUFFTOperator</text>
</a>
</g>
</g>
<!-- Node13&#45;&gt;Node14 -->
<g id="edge14" class="edge">
<title>Node13&#45;&gt;Node14</title>
<path fill="none" stroke="midnightblue" d="M216.47,-54C208.03,-54 199.53,-54 191.16,-54"/>
<polygon fill="midnightblue" stroke="midnightblue" points="216.73,-57.5 226.73,-54 216.73,-50.5 216.73,-57.5"/>
</g>
<!-- Node15&#45;&gt;Node13 -->
<g id="edge16" class="edge">
<title>Node15&#45;&gt;Node13</title>
<path fill="none" stroke="midnightblue" d="M506.43,-21.25C478.04,-26.33 440.77,-33 407.29,-39"/>
<polygon fill="midnightblue" stroke="midnightblue" points="507.24,-24.66 516.47,-19.45 506.01,-17.77 507.24,-24.66"/>
</g>
<!-- Node16 -->
<g id="node16" class="node">
<title>Node16</title>
<g id="a_node16"><a xlink:href="gpuNUFFT__conv__tests_8cpp.html#ad3d34fdd2b1c2e4e793734b844b97441" target="_top" xlink:title=" ">
<polygon fill="none" stroke="black" points="302,-0.5 302,-19.5 343,-19.5 343,-0.5 302,-0.5"/>
<text text-anchor="middle" x="322.5" y="-7.5" font-family="FreeSans.ttf" font-size="10.00">TEST</text>
</a>
</g>
</g>
<!-- Node15&#45;&gt;Node16 -->
<g id="edge17" class="edge">
<title>Node15&#45;&gt;Node16</title>
<path fill="none" stroke="midnightblue" d="M506.24,-12.39C456.27,-11.74 378.98,-10.73 343.08,-10.26"/>
<polygon fill="midnightblue" stroke="midnightblue" points="506.42,-15.9 516.47,-12.53 506.51,-8.9 506.42,-15.9"/>
</g>
<!-- Node17&#45;&gt;Node13 -->
<g id="edge19" class="edge">
<title>Node17&#45;&gt;Node13</title>
<path fill="none" stroke="midnightblue" d="M506.13,-160.18C489.25,-157.37 470.32,-152.95 454,-146 408.6,-126.68 363.24,-89.75 339.82,-69.04"/>
<polygon fill="midnightblue" stroke="midnightblue" points="505.91,-163.69 516.33,-161.74 506.97,-156.77 505.91,-163.69"/>
</g>
<!-- Node18 -->
<g id="node18" class="node">
<title>Node18</title>
<g id="a_node18"><a xlink:href="gpuNUFFT__conv__tests_8cpp.html#ae35c8317989c915c0e21d3a2bd4d10a6" target="_top" xlink:title=" ">
<polygon fill="none" stroke="black" points="302,-155.5 302,-174.5 343,-174.5 343,-155.5 302,-155.5"/>
<text text-anchor="middle" x="322.5" y="-162.5" font-family="FreeSans.ttf" font-size="10.00">TEST</text>
</a>
</g>
</g>
<!-- Node17&#45;&gt;Node18 -->
<g id="edge20" class="edge">
<title>Node17&#45;&gt;Node18</title>
<path fill="none" stroke="midnightblue" d="M506.24,-165C456.27,-165 378.98,-165 343.08,-165"/>
<polygon fill="midnightblue" stroke="midnightblue" points="506.47,-168.5 516.47,-165 506.47,-161.5 506.47,-168.5"/>
</g>
</g>
</svg>
