<?xml version="1.0" encoding="UTF-8" standalone="no"?>
<!DOCTYPE svg PUBLIC "-//W3C//DTD SVG 1.1//EN"
 "http://www.w3.org/Graphics/SVG/1.1/DTD/svg11.dtd">
<!-- Generated by graphviz version 2.49.3 (20211027.1534)
 -->
<!-- Title: CUDA/inc/gpuNUFFT_types.hpp Pages: 1 -->
<svg width="1299pt" height="352pt"
 viewBox="0.00 0.00 1299.29 352.00" xmlns="http://www.w3.org/2000/svg" xmlns:xlink="http://www.w3.org/1999/xlink">
<g id="graph0" class="graph" transform="scale(1 1) rotate(0) translate(4 348)">
<title>CUDA/inc/gpuNUFFT_types.hpp</title>
<!-- Node1 -->
<g id="node1" class="node">
<title>Node1</title>
<g id="a_node1"><a xlink:title="Definition of gpuNUFFT defined types.">
<polygon fill="#bfbfbf" stroke="black" points="497.5,-324.5 497.5,-343.5 655.5,-343.5 655.5,-324.5 497.5,-324.5"/>
<text text-anchor="middle" x="576.5" y="-331.5" font-family="FreeSans.ttf" font-size="10.00">CUDA/inc/gpuNUFFT_types.hpp</text>
</a>
</g>
</g>
<!-- Node2 -->
<g id="node2" class="node">
<title>Node2</title>
<g id="a_node2"><a xlink:href="balanced__gpuNUFFT__operator_8hpp.html" target="_top" xlink:title=" ">
<polygon fill="none" stroke="black" points="406.5,-201.5 406.5,-231.5 562.5,-231.5 562.5,-201.5 406.5,-201.5"/>
<text text-anchor="start" x="414.5" y="-219.5" font-family="FreeSans.ttf" font-size="10.00">CUDA/inc/balanced_gpuNUFFT</text>
<text text-anchor="middle" x="484.5" y="-208.5" font-family="FreeSans.ttf" font-size="10.00">_operator.hpp</text>
</a>
</g>
</g>
<!-- Node1&#45;&gt;Node2 -->
<g id="edge1" class="edge">
<title>Node1&#45;&gt;Node2</title>
<path fill="none" stroke="midnightblue" d="M574.37,-313.92C572.06,-300.11 567.28,-281.56 557.5,-268 546.32,-252.5 528.84,-240.17 513.79,-231.57"/>
<polygon fill="midnightblue" stroke="midnightblue" points="570.96,-314.77 575.79,-324.2 577.89,-313.81 570.96,-314.77"/>
</g>
<!-- Node12 -->
<g id="node12" class="node">
<title>Node12</title>
<g id="a_node12"><a xlink:href="balanced__operator_8hpp.html" target="_top" xlink:title=" ">
<polygon fill="none" stroke="black" points="387,-268.5 387,-287.5 548,-287.5 548,-268.5 387,-268.5"/>
<text text-anchor="middle" x="467.5" y="-275.5" font-family="FreeSans.ttf" font-size="10.00">CUDA/inc/balanced_operator.hpp</text>
</a>
</g>
</g>
<!-- Node1&#45;&gt;Node12 -->
<g id="edge11" class="edge">
<title>Node1&#45;&gt;Node12</title>
<path fill="none" stroke="midnightblue" d="M549.98,-319.86C529.77,-309.85 502.51,-296.35 484.97,-287.65"/>
<polygon fill="midnightblue" stroke="midnightblue" points="548.47,-323.02 558.99,-324.32 551.58,-316.75 548.47,-323.02"/>
</g>
<!-- Node13 -->
<g id="node13" class="node">
<title>Node13</title>
<g id="a_node13"><a xlink:href="balanced__texture__gpuNUFFT__operator_8hpp.html" target="_top" xlink:title=" ">
<polygon fill="none" stroke="black" points="184,-134.5 184,-164.5 321,-164.5 321,-134.5 184,-134.5"/>
<text text-anchor="start" x="192" y="-152.5" font-family="FreeSans.ttf" font-size="10.00">CUDA/inc/balanced_texture</text>
<text text-anchor="middle" x="252.5" y="-141.5" font-family="FreeSans.ttf" font-size="10.00">_gpuNUFFT_operator.hpp</text>
</a>
</g>
</g>
<!-- Node1&#45;&gt;Node13 -->
<g id="edge16" class="edge">
<title>Node1&#45;&gt;Node13</title>
<path fill="none" stroke="midnightblue" d="M487.32,-324.64C451.37,-318.35 410.65,-307.32 377.5,-288 323.15,-256.32 279.07,-193.12 261.15,-164.8"/>
<polygon fill="midnightblue" stroke="midnightblue" points="486.89,-328.11 497.33,-326.29 488.03,-321.21 486.89,-328.11"/>
</g>
<!-- Node15 -->
<g id="node15" class="node">
<title>Node15</title>
<g id="a_node15"><a xlink:href="gpuNUFFT__operator_8hpp.html" target="_top" xlink:title=" ">
<polygon fill="none" stroke="black" points="780.5,-268.5 780.5,-287.5 950.5,-287.5 950.5,-268.5 780.5,-268.5"/>
<text text-anchor="middle" x="865.5" y="-275.5" font-family="FreeSans.ttf" font-size="10.00">CUDA/inc/gpuNUFFT_operator.hpp</text>
</a>
</g>
</g>
<!-- Node1&#45;&gt;Node15 -->
<g id="edge17" class="edge">
<title>Node1&#45;&gt;Node15</title>
<path fill="none" stroke="midnightblue" d="M632.16,-322.6C686.77,-312.4 769.07,-297.02 819.92,-287.52"/>
<polygon fill="midnightblue" stroke="midnightblue" points="631.48,-319.17 622.29,-324.44 632.77,-326.05 631.48,-319.17"/>
</g>
<!-- Node21 -->
<g id="node21" class="node">
<title>Node21</title>
<g id="a_node21"><a xlink:href="texture__gpuNUFFT__operator_8hpp.html" target="_top" xlink:title=" ">
<polygon fill="none" stroke="black" points="580.5,-201.5 580.5,-231.5 726.5,-231.5 726.5,-201.5 580.5,-201.5"/>
<text text-anchor="start" x="588.5" y="-219.5" font-family="FreeSans.ttf" font-size="10.00">CUDA/inc/texture_gpuNUFFT</text>
<text text-anchor="middle" x="653.5" y="-208.5" font-family="FreeSans.ttf" font-size="10.00">_operator.hpp</text>
</a>
</g>
</g>
<!-- Node1&#45;&gt;Node21 -->
<g id="edge39" class="edge">
<title>Node1&#45;&gt;Node21</title>
<path fill="none" stroke="midnightblue" d="M587.88,-315.94C603.14,-293.04 629.97,-252.79 644.14,-231.55"/>
<polygon fill="midnightblue" stroke="midnightblue" points="584.92,-314.06 582.29,-324.32 590.75,-317.94 584.92,-314.06"/>
</g>
<!-- Node3 -->
<g id="node3" class="node">
<title>Node3</title>
<g id="a_node3"><a xlink:href="gpuNUFFT__operator__factory_8hpp.html" target="_top" xlink:title=" ">
<polygon fill="none" stroke="black" points="616.5,-67.5 616.5,-97.5 768.5,-97.5 768.5,-67.5 616.5,-67.5"/>
<text text-anchor="start" x="624.5" y="-85.5" font-family="FreeSans.ttf" font-size="10.00">CUDA/inc/gpuNUFFT_operator</text>
<text text-anchor="middle" x="692.5" y="-74.5" font-family="FreeSans.ttf" font-size="10.00">_factory.hpp</text>
</a>
</g>
</g>
<!-- Node2&#45;&gt;Node3 -->
<g id="edge2" class="edge">
<title>Node2&#45;&gt;Node3</title>
<path fill="none" stroke="midnightblue" d="M496.29,-192.49C506.71,-174.27 523.5,-149.39 544.5,-134 567.82,-116.91 597.35,-105.3 623.89,-97.56"/>
<polygon fill="midnightblue" stroke="midnightblue" points="493.18,-190.88 491.43,-201.33 499.32,-194.26 493.18,-190.88"/>
</g>
<!-- Node11 -->
<g id="node11" class="node">
<title>Node11</title>
<g id="a_node11"><a xlink:href="balanced__gpuNUFFT__operator_8cpp.html" target="_top" xlink:title=" ">
<polygon fill="none" stroke="black" points="339,-134.5 339,-164.5 496,-164.5 496,-134.5 339,-134.5"/>
<text text-anchor="start" x="347" y="-152.5" font-family="FreeSans.ttf" font-size="10.00">CUDA/src/balanced_gpuNUFFT</text>
<text text-anchor="middle" x="417.5" y="-141.5" font-family="FreeSans.ttf" font-size="10.00">_operator.cpp</text>
</a>
</g>
</g>
<!-- Node2&#45;&gt;Node11 -->
<g id="edge10" class="edge">
<title>Node2&#45;&gt;Node11</title>
<path fill="none" stroke="midnightblue" d="M462.66,-194.31C452.61,-184.56 440.96,-173.26 432.01,-164.58"/>
<polygon fill="midnightblue" stroke="midnightblue" points="460.35,-196.94 469.96,-201.4 465.22,-191.92 460.35,-196.94"/>
</g>
<!-- Node4 -->
<g id="node4" class="node">
<title>Node4</title>
<g id="a_node4"><a xlink:href="gpuNUFFT__operator__factory_8cpp.html" target="_top" xlink:title=" ">
<polygon fill="none" stroke="black" points="933,-0.5 933,-30.5 1086,-30.5 1086,-0.5 933,-0.5"/>
<text text-anchor="start" x="941" y="-18.5" font-family="FreeSans.ttf" font-size="10.00">CUDA/src/gpuNUFFT_operator</text>
<text text-anchor="middle" x="1009.5" y="-7.5" font-family="FreeSans.ttf" font-size="10.00">_factory.cpp</text>
</a>
</g>
</g>
<!-- Node3&#45;&gt;Node4 -->
<g id="edge3" class="edge">
<title>Node3&#45;&gt;Node4</title>
<path fill="none" stroke="midnightblue" d="M770.78,-65.45C822.96,-54.75 890.91,-40.82 940.96,-30.55"/>
<polygon fill="midnightblue" stroke="midnightblue" points="769.99,-62.04 760.89,-67.48 771.39,-68.9 769.99,-62.04"/>
</g>
<!-- Node5 -->
<g id="node5" class="node">
<title>Node5</title>
<g id="a_node5"><a xlink:href="gpuNUFFT__forward__tests_8cpp.html" target="_top" xlink:title=" ">
<polygon fill="none" stroke="black" points="0,-0.5 0,-30.5 151,-30.5 151,-0.5 0,-0.5"/>
<text text-anchor="start" x="8" y="-18.5" font-family="FreeSans.ttf" font-size="10.00">CUDA/test/gpu/forward</text>
<text text-anchor="middle" x="75.5" y="-7.5" font-family="FreeSans.ttf" font-size="10.00">/gpuNUFFT_forward_tests.cpp</text>
</a>
</g>
</g>
<!-- Node3&#45;&gt;Node5 -->
<g id="edge4" class="edge">
<title>Node3&#45;&gt;Node5</title>
<path fill="none" stroke="midnightblue" d="M605.82,-75.26C500.34,-67.21 316.93,-51.74 160.5,-31 157.53,-30.61 154.51,-30.19 151.46,-29.75"/>
<polygon fill="midnightblue" stroke="midnightblue" points="605.86,-78.77 616.09,-76.04 606.39,-71.79 605.86,-78.77"/>
</g>
<!-- Node6 -->
<g id="node6" class="node">
<title>Node6</title>
<g id="a_node6"><a xlink:href="gpuNUFFT__2D__conv__tests_8cpp.html" target="_top" xlink:title=" ">
<polygon fill="none" stroke="black" points="169.5,-0.5 169.5,-30.5 303.5,-30.5 303.5,-0.5 169.5,-0.5"/>
<text text-anchor="start" x="177.5" y="-18.5" font-family="FreeSans.ttf" font-size="10.00">CUDA/test/gpu/gpuNUFFT</text>
<text text-anchor="middle" x="236.5" y="-7.5" font-family="FreeSans.ttf" font-size="10.00">_2D_conv_tests.cpp</text>
</a>
</g>
</g>
<!-- Node3&#45;&gt;Node6 -->
<g id="edge5" class="edge">
<title>Node3&#45;&gt;Node6</title>
<path fill="none" stroke="midnightblue" d="M606.1,-71.43C528.95,-62.1 412.94,-47.24 312.5,-31 309.58,-30.53 306.61,-30.03 303.6,-29.51"/>
<polygon fill="midnightblue" stroke="midnightblue" points="605.9,-74.93 616.25,-72.65 606.74,-67.98 605.9,-74.93"/>
</g>
<!-- Node7 -->
<g id="node7" class="node">
<title>Node7</title>
<g id="a_node7"><a xlink:href="gpuNUFFT__conv__tests_8cpp.html" target="_top" xlink:title=" ">
<polygon fill="none" stroke="black" points="321.5,-0.5 321.5,-30.5 455.5,-30.5 455.5,-0.5 321.5,-0.5"/>
<text text-anchor="start" x="329.5" y="-18.5" font-family="FreeSans.ttf" font-size="10.00">CUDA/test/gpu/gpuNUFFT</text>
<text text-anchor="middle" x="388.5" y="-7.5" font-family="FreeSans.ttf" font-size="10.00">_conv_tests.cpp</text>
</a>
</g>
</g>
<!-- Node3&#45;&gt;Node7 -->
<g id="edge6" class="edge">
<title>Node3&#45;&gt;Node7</title>
<path fill="none" stroke="midnightblue" d="M617.12,-65.38C567.12,-54.69 502.13,-40.8 454.23,-30.55"/>
<polygon fill="midnightblue" stroke="midnightblue" points="616.4,-68.81 626.91,-67.48 617.86,-61.96 616.4,-68.81"/>
</g>
<!-- Node8 -->
<g id="node8" class="node">
<title>Node8</title>
<g id="a_node8"><a xlink:href="gpuNUFFT__deapo__tests_8cpp.html" target="_top" xlink:title=" ">
<polygon fill="none" stroke="black" points="473.5,-0.5 473.5,-30.5 607.5,-30.5 607.5,-0.5 473.5,-0.5"/>
<text text-anchor="start" x="481.5" y="-18.5" font-family="FreeSans.ttf" font-size="10.00">CUDA/test/gpu/gpuNUFFT</text>
<text text-anchor="middle" x="540.5" y="-7.5" font-family="FreeSans.ttf" font-size="10.00">_deapo_tests.cpp</text>
</a>
</g>
</g>
<!-- Node3&#45;&gt;Node8 -->
<g id="edge7" class="edge">
<title>Node3&#45;&gt;Node8</title>
<path fill="none" stroke="midnightblue" d="M650.19,-63.41C625.92,-53.03 595.91,-40.2 573.42,-30.58"/>
<polygon fill="midnightblue" stroke="midnightblue" points="648.95,-66.68 659.52,-67.4 651.7,-60.25 648.95,-66.68"/>
</g>
<!-- Node9 -->
<g id="node9" class="node">
<title>Node9</title>
<g id="a_node9"><a xlink:href="gpuNUFFT__fft__tests_8cpp.html" target="_top" xlink:title=" ">
<polygon fill="none" stroke="black" points="625.5,-0.5 625.5,-30.5 759.5,-30.5 759.5,-0.5 625.5,-0.5"/>
<text text-anchor="start" x="633.5" y="-18.5" font-family="FreeSans.ttf" font-size="10.00">CUDA/test/gpu/gpuNUFFT</text>
<text text-anchor="middle" x="692.5" y="-7.5" font-family="FreeSans.ttf" font-size="10.00">_fft_tests.cpp</text>
</a>
</g>
</g>
<!-- Node3&#45;&gt;Node9 -->
<g id="edge8" class="edge">
<title>Node3&#45;&gt;Node9</title>
<path fill="none" stroke="midnightblue" d="M692.5,-57.11C692.5,-48.15 692.5,-38.32 692.5,-30.58"/>
<polygon fill="midnightblue" stroke="midnightblue" points="689,-57.4 692.5,-67.4 696,-57.4 689,-57.4"/>
</g>
<!-- Node10 -->
<g id="node10" class="node">
<title>Node10</title>
<g id="a_node10"><a xlink:href="gpuNUFFT__operator__python__factory_8cpp.html" target="_top" xlink:title=" ">
<polygon fill="none" stroke="black" points="778,-0.5 778,-30.5 915,-30.5 915,-0.5 778,-0.5"/>
<text text-anchor="start" x="786" y="-18.5" font-family="FreeSans.ttf" font-size="10.00">python/gpuNUFFT_operator</text>
<text text-anchor="middle" x="846.5" y="-7.5" font-family="FreeSans.ttf" font-size="10.00">_python_factory.cpp</text>
</a>
</g>
</g>
<!-- Node3&#45;&gt;Node10 -->
<g id="edge9" class="edge">
<title>Node3&#45;&gt;Node10</title>
<path fill="none" stroke="midnightblue" d="M735.37,-63.41C759.95,-53.03 790.36,-40.2 813.15,-30.58"/>
<polygon fill="midnightblue" stroke="midnightblue" points="733.77,-60.28 725.92,-67.4 736.49,-66.73 733.77,-60.28"/>
</g>
<!-- Node12&#45;&gt;Node2 -->
<g id="edge12" class="edge">
<title>Node12&#45;&gt;Node2</title>
<path fill="none" stroke="midnightblue" d="M472.7,-258.82C475.2,-250.04 478.16,-239.68 480.49,-231.52"/>
<polygon fill="midnightblue" stroke="midnightblue" points="469.32,-257.9 469.94,-268.48 476.05,-259.82 469.32,-257.9"/>
</g>
<!-- Node12&#45;&gt;Node13 -->
<g id="edge13" class="edge">
<title>Node12&#45;&gt;Node13</title>
<path fill="none" stroke="midnightblue" d="M443.93,-263.13C402.76,-238.91 318.15,-189.13 276.6,-164.68"/>
<polygon fill="midnightblue" stroke="midnightblue" points="442.33,-266.25 452.72,-268.31 445.88,-260.22 442.33,-266.25"/>
</g>
<!-- Node13&#45;&gt;Node3 -->
<g id="edge14" class="edge">
<title>Node13&#45;&gt;Node3</title>
<path fill="none" stroke="midnightblue" d="M331.36,-133.73C435.35,-116.89 544.94,-102.19 616.21,-93.03"/>
<polygon fill="midnightblue" stroke="midnightblue" points="330.63,-130.31 321.32,-135.37 331.75,-137.22 330.63,-130.31"/>
</g>
<!-- Node14 -->
<g id="node14" class="node">
<title>Node14</title>
<g id="a_node14"><a xlink:href="balanced__texture__gpuNUFFT__operator_8cpp.html" target="_top" xlink:title=" ">
<polygon fill="none" stroke="black" points="184,-67.5 184,-97.5 321,-97.5 321,-67.5 184,-67.5"/>
<text text-anchor="start" x="192" y="-85.5" font-family="FreeSans.ttf" font-size="10.00">CUDA/src/balanced_texture</text>
<text text-anchor="middle" x="252.5" y="-74.5" font-family="FreeSans.ttf" font-size="10.00">_gpuNUFFT_operator.cpp</text>
</a>
</g>
</g>
<!-- Node13&#45;&gt;Node14 -->
<g id="edge15" class="edge">
<title>Node13&#45;&gt;Node14</title>
<path fill="none" stroke="midnightblue" d="M252.5,-124.11C252.5,-115.15 252.5,-105.32 252.5,-97.58"/>
<polygon fill="midnightblue" stroke="midnightblue" points="249,-124.4 252.5,-134.4 256,-124.4 249,-124.4"/>
</g>
<!-- Node15&#45;&gt;Node2 -->
<g id="edge18" class="edge">
<title>Node15&#45;&gt;Node2</title>
<path fill="none" stroke="midnightblue" d="M798.24,-266.96C738.62,-258.01 649.22,-244.42 571.5,-232 568.63,-231.54 565.7,-231.07 562.75,-230.59"/>
<polygon fill="midnightblue" stroke="midnightblue" points="797.87,-270.45 808.28,-268.47 798.91,-263.53 797.87,-270.45"/>
</g>
<!-- Node15&#45;&gt;Node3 -->
<g id="edge31" class="edge">
<title>Node15&#45;&gt;Node3</title>
<path fill="none" stroke="midnightblue" d="M850.78,-260.54C817.4,-223.2 736.42,-132.63 705.13,-97.63"/>
<polygon fill="midnightblue" stroke="midnightblue" points="848.57,-263.31 857.84,-268.44 853.79,-258.65 848.57,-263.31"/>
</g>
<!-- Node16 -->
<g id="node16" class="node">
<title>Node16</title>
<g id="a_node16"><a xlink:href="cuda__utils_8hpp.html" target="_top" xlink:title="Util functions for CUDA memory and texture management.">
<polygon fill="none" stroke="black" points="913,-207 913,-226 1038,-226 1038,-207 913,-207"/>
<text text-anchor="middle" x="975.5" y="-214" font-family="FreeSans.ttf" font-size="10.00">CUDA/inc/cuda_utils.hpp</text>
</a>
</g>
</g>
<!-- Node15&#45;&gt;Node16 -->
<g id="edge19" class="edge">
<title>Node15&#45;&gt;Node16</title>
<path fill="none" stroke="midnightblue" d="M890.07,-263.71C911.37,-252.19 941.57,-235.86 959.77,-226.01"/>
<polygon fill="midnightblue" stroke="midnightblue" points="888.39,-260.64 881.26,-268.48 891.72,-266.8 888.39,-260.64"/>
</g>
<!-- Node18 -->
<g id="node18" class="node">
<title>Node18</title>
<g id="a_node18"><a xlink:href="gpuNUFFT__operator_8cpp.html" target="_top" xlink:title=" ">
<polygon fill="none" stroke="black" points="1104,-6 1104,-25 1275,-25 1275,-6 1104,-6"/>
<text text-anchor="middle" x="1189.5" y="-13" font-family="FreeSans.ttf" font-size="10.00">CUDA/src/gpuNUFFT_operator.cpp</text>
</a>
</g>
</g>
<!-- Node15&#45;&gt;Node18 -->
<g id="edge38" class="edge">
<title>Node15&#45;&gt;Node18</title>
<path fill="none" stroke="midnightblue" d="M952.07,-267.13C1063.29,-252.33 1246.39,-220.1 1282.5,-165 1316.85,-112.59 1235.7,-48.37 1202.69,-25.28"/>
<polygon fill="midnightblue" stroke="midnightblue" points="951.33,-263.69 941.87,-268.46 952.24,-270.63 951.33,-263.69"/>
</g>
<!-- Node19 -->
<g id="node19" class="node">
<title>Node19</title>
<g id="a_node19"><a xlink:href="precomp__kernels_8hpp.html" target="_top" xlink:title="GPU Kernels for Precomputation (sector assignment)">
<polygon fill="none" stroke="black" points="891,-73 891,-92 1046,-92 1046,-73 891,-73"/>
<text text-anchor="middle" x="968.5" y="-80" font-family="FreeSans.ttf" font-size="10.00">CUDA/inc/precomp_kernels.hpp</text>
</a>
</g>
</g>
<!-- Node15&#45;&gt;Node19 -->
<g id="edge32" class="edge">
<title>Node15&#45;&gt;Node19</title>
<path fill="none" stroke="midnightblue" d="M946.65,-266.84C989,-259.69 1034.64,-248.43 1047.5,-232 1084.94,-184.17 1009.39,-116.03 979.74,-92.16"/>
<polygon fill="midnightblue" stroke="midnightblue" points="945.86,-263.42 936.55,-268.48 946.98,-270.33 945.86,-263.42"/>
</g>
<!-- Node20 -->
<g id="node20" class="node">
<title>Node20</title>
<g id="a_node20"><a xlink:href="precomp__utils_8hpp.html" target="_top" xlink:title="UTIL functions for precomputation.">
<polygon fill="none" stroke="black" points="794.5,-140 794.5,-159 936.5,-159 936.5,-140 794.5,-140"/>
<text text-anchor="middle" x="865.5" y="-147" font-family="FreeSans.ttf" font-size="10.00">CUDA/inc/precomp_utils.hpp</text>
</a>
</g>
</g>
<!-- Node15&#45;&gt;Node20 -->
<g id="edge33" class="edge">
<title>Node15&#45;&gt;Node20</title>
<path fill="none" stroke="midnightblue" d="M865.5,-257.94C865.5,-230.12 865.5,-179.54 865.5,-159.26"/>
<polygon fill="midnightblue" stroke="midnightblue" points="862,-258.31 865.5,-268.31 869,-258.31 862,-258.31"/>
</g>
<!-- Node15&#45;&gt;Node21 -->
<g id="edge34" class="edge">
<title>Node15&#45;&gt;Node21</title>
<path fill="none" stroke="midnightblue" d="M825.36,-265.73C790.76,-256.02 740.65,-241.96 703.46,-231.52"/>
<polygon fill="midnightblue" stroke="midnightblue" points="824.55,-269.14 835.13,-268.48 826.44,-262.4 824.55,-269.14"/>
</g>
<!-- Node16&#45;&gt;Node3 -->
<g id="edge23" class="edge">
<title>Node16&#45;&gt;Node3</title>
<path fill="none" stroke="midnightblue" d="M973.81,-196.82C971.09,-178.09 964,-149.82 945.5,-134 919.29,-111.58 833.06,-97.86 768.5,-90.49"/>
<polygon fill="midnightblue" stroke="midnightblue" points="970.35,-197.29 974.98,-206.82 977.3,-196.48 970.35,-197.29"/>
</g>
<!-- Node17 -->
<g id="node17" class="node">
<title>Node17</title>
<g id="a_node17"><a xlink:href="gpuNUFFT__kernels_8hpp.html" target="_top" xlink:title="gpuNUFFT CUDA function prototypes">
<polygon fill="none" stroke="black" points="1106,-140 1106,-159 1273,-159 1273,-140 1106,-140"/>
<text text-anchor="middle" x="1189.5" y="-147" font-family="FreeSans.ttf" font-size="10.00">CUDA/inc/gpuNUFFT_kernels.hpp</text>
</a>
</g>
</g>
<!-- Node16&#45;&gt;Node17 -->
<g id="edge20" class="edge">
<title>Node16&#45;&gt;Node17</title>
<path fill="none" stroke="midnightblue" d="M1013.6,-203.93C1055.97,-191.06 1123.42,-170.57 1161.31,-159.06"/>
<polygon fill="midnightblue" stroke="midnightblue" points="1012.47,-200.61 1003.92,-206.87 1014.5,-207.31 1012.47,-200.61"/>
</g>
<!-- Node16&#45;&gt;Node18 -->
<g id="edge30" class="edge">
<title>Node16&#45;&gt;Node18</title>
<path fill="none" stroke="midnightblue" d="M992.28,-199.9C1035.01,-160.16 1146.92,-56.1 1180.1,-25.24"/>
<polygon fill="midnightblue" stroke="midnightblue" points="989.63,-197.58 984.7,-206.95 994.4,-202.7 989.63,-197.58"/>
</g>
<!-- Node16&#45;&gt;Node19 -->
<g id="edge24" class="edge">
<title>Node16&#45;&gt;Node19</title>
<path fill="none" stroke="midnightblue" d="M977.6,-196.93C979.13,-180.38 980.61,-155.52 978.5,-134 977.03,-119.06 973.19,-101.98 970.71,-92"/>
<polygon fill="midnightblue" stroke="midnightblue" points="974.11,-196.61 976.57,-206.91 981.08,-197.32 974.11,-196.61"/>
</g>
<!-- Node16&#45;&gt;Node20 -->
<g id="edge27" class="edge">
<title>Node16&#45;&gt;Node20</title>
<path fill="none" stroke="midnightblue" d="M952,-201.62C930.21,-188.74 898.46,-169.98 880.1,-159.13"/>
<polygon fill="midnightblue" stroke="midnightblue" points="950.28,-204.66 960.66,-206.73 953.84,-198.63 950.28,-204.66"/>
</g>
<!-- Node17&#45;&gt;Node15 -->
<g id="edge21" class="edge">
<title>Node17&#45;&gt;Node15</title>
<path fill="none" stroke="midnightblue" d="M1175.39,-166.48C1157.88,-185.24 1126.19,-215.84 1092.5,-232 1048.31,-253.2 994.68,-264.41 950.65,-270.34"/>
<polygon fill="midnightblue" stroke="midnightblue" points="1178.04,-168.77 1182.19,-159.02 1172.87,-164.05 1178.04,-168.77"/>
</g>
<!-- Node17&#45;&gt;Node18 -->
<g id="edge22" class="edge">
<title>Node17&#45;&gt;Node18</title>
<path fill="none" stroke="midnightblue" d="M1189.5,-129.78C1189.5,-100.75 1189.5,-46.04 1189.5,-25.02"/>
<polygon fill="midnightblue" stroke="midnightblue" points="1186,-129.84 1189.5,-139.84 1193,-129.84 1186,-129.84"/>
</g>
<!-- Node19&#45;&gt;Node4 -->
<g id="edge26" class="edge">
<title>Node19&#45;&gt;Node4</title>
<path fill="none" stroke="midnightblue" d="M979.52,-64.03C986.13,-53.56 994.42,-40.4 1000.61,-30.59"/>
<polygon fill="midnightblue" stroke="midnightblue" points="976.4,-62.41 974.03,-72.73 982.32,-66.14 976.4,-62.41"/>
</g>
<!-- Node19&#45;&gt;Node18 -->
<g id="edge25" class="edge">
<title>Node19&#45;&gt;Node18</title>
<path fill="none" stroke="midnightblue" d="M1007.57,-70.01C1051.31,-57.15 1121.18,-36.59 1160.38,-25.06"/>
<polygon fill="midnightblue" stroke="midnightblue" points="1006.45,-66.69 997.85,-72.87 1008.43,-73.4 1006.45,-66.69"/>
</g>
<!-- Node20&#45;&gt;Node3 -->
<g id="edge28" class="edge">
<title>Node20&#45;&gt;Node3</title>
<path fill="none" stroke="midnightblue" d="M833.15,-136.35C803.83,-125.33 760.62,-109.09 729.84,-97.53"/>
<polygon fill="midnightblue" stroke="midnightblue" points="831.93,-139.63 842.53,-139.87 834.4,-133.07 831.93,-139.63"/>
</g>
<!-- Node20&#45;&gt;Node19 -->
<g id="edge29" class="edge">
<title>Node20&#45;&gt;Node19</title>
<path fill="none" stroke="midnightblue" d="M888.05,-134.27C908.44,-121.4 937.79,-102.88 954.83,-92.13"/>
<polygon fill="midnightblue" stroke="midnightblue" points="885.98,-131.44 879.39,-139.73 889.72,-137.36 885.98,-131.44"/>
</g>
<!-- Node21&#45;&gt;Node3 -->
<g id="edge36" class="edge">
<title>Node21&#45;&gt;Node3</title>
<path fill="none" stroke="midnightblue" d="M685.08,-195.04C694.77,-186.96 704.26,-176.77 709.5,-165 719.43,-142.68 708.84,-114.31 700.5,-97.61"/>
<polygon fill="midnightblue" stroke="midnightblue" points="682.73,-192.43 676.97,-201.32 687.02,-197.96 682.73,-192.43"/>
</g>
<!-- Node21&#45;&gt;Node13 -->
<g id="edge35" class="edge">
<title>Node21&#45;&gt;Node13</title>
<path fill="none" stroke="midnightblue" d="M570.23,-200.82C462.5,-183.49 433.59,-182.54 329.5,-165 326.82,-164.55 324.08,-164.08 321.32,-163.6"/>
<polygon fill="midnightblue" stroke="midnightblue" points="569.77,-204.29 580.2,-202.44 570.89,-197.38 569.77,-204.29"/>
</g>
<!-- Node22 -->
<g id="node22" class="node">
<title>Node22</title>
<g id="a_node22"><a xlink:href="texture__gpuNUFFT__operator_8cpp.html" target="_top" xlink:title=" ">
<polygon fill="none" stroke="black" points="553,-134.5 553,-164.5 700,-164.5 700,-134.5 553,-134.5"/>
<text text-anchor="start" x="561" y="-152.5" font-family="FreeSans.ttf" font-size="10.00">CUDA/src/texture_gpuNUFFT</text>
<text text-anchor="middle" x="626.5" y="-141.5" font-family="FreeSans.ttf" font-size="10.00">_operator.cpp</text>
</a>
</g>
</g>
<!-- Node21&#45;&gt;Node22 -->
<g id="edge37" class="edge">
<title>Node21&#45;&gt;Node22</title>
<path fill="none" stroke="midnightblue" d="M643.73,-191.99C639.92,-182.8 635.67,-172.58 632.35,-164.58"/>
<polygon fill="midnightblue" stroke="midnightblue" points="640.57,-193.5 647.64,-201.4 647.04,-190.82 640.57,-193.5"/>
</g>
</g>
</svg>
