<?xml version="1.0" encoding="UTF-8" standalone="no"?>
<!DOCTYPE svg PUBLIC "-//W3C//DTD SVG 1.1//EN"
 "http://www.w3.org/Graphics/SVG/1.1/DTD/svg11.dtd">
<!-- Generated by graphviz version 2.49.3 (20211027.1534)
 -->
<!-- Title: CUDA/inc/gpuNUFFT_types.hpp Pages: 1 -->
<svg width="1628pt" height="408pt"
 viewBox="0.00 0.00 1627.50 408.00" xmlns="http://www.w3.org/2000/svg" xmlns:xlink="http://www.w3.org/1999/xlink">
<g id="graph0" class="graph" transform="scale(1 1) rotate(0) translate(4 404)">
<title>CUDA/inc/gpuNUFFT_types.hpp</title>
<!-- Node1 -->
<g id="node1" class="node">
<title>Node1</title>
<g id="a_node1"><a xlink:title="Definition of gpuNUFFT defined types.">
<polygon fill="#bfbfbf" stroke="black" points="805.5,-380.5 805.5,-399.5 963.5,-399.5 963.5,-380.5 805.5,-380.5"/>
<text text-anchor="middle" x="884.5" y="-387.5" font-family="FreeSans.ttf" font-size="10.00">CUDA/inc/gpuNUFFT_types.hpp</text>
</a>
</g>
</g>
<!-- Node2 -->
<g id="node2" class="node">
<title>Node2</title>
<g id="a_node2"><a xlink:href="balanced__gpuNUFFT__operator_8hpp.html" target="_top" xlink:title=" ">
<polygon fill="none" stroke="black" points="825.5,-257.5 825.5,-287.5 981.5,-287.5 981.5,-257.5 825.5,-257.5"/>
<text text-anchor="start" x="833.5" y="-275.5" font-family="FreeSans.ttf" font-size="10.00">CUDA/inc/balanced_gpuNUFFT</text>
<text text-anchor="middle" x="903.5" y="-264.5" font-family="FreeSans.ttf" font-size="10.00">_operator.hpp</text>
</a>
</g>
</g>
<!-- Node1&#45;&gt;Node2 -->
<g id="edge1" class="edge">
<title>Node1&#45;&gt;Node2</title>
<path fill="none" stroke="midnightblue" d="M887.56,-370.38C891.37,-347.26 897.77,-308.32 901.19,-287.55"/>
<polygon fill="midnightblue" stroke="midnightblue" points="884.1,-369.88 885.93,-380.32 891,-371.02 884.1,-369.88"/>
</g>
<!-- Node12 -->
<g id="node12" class="node">
<title>Node12</title>
<g id="a_node12"><a xlink:href="python__factory_8cpp.html" target="_top" xlink:title=" ">
<polygon fill="none" stroke="black" points="1030.5,-0.5 1030.5,-19.5 1176.5,-19.5 1176.5,-0.5 1030.5,-0.5"/>
<text text-anchor="middle" x="1103.5" y="-7.5" font-family="FreeSans.ttf" font-size="10.00">python/src/python_factory.cpp</text>
</a>
</g>
</g>
<!-- Node1&#45;&gt;Node12 -->
<g id="edge47" class="edge">
<title>Node1&#45;&gt;Node12</title>
<path fill="none" stroke="midnightblue" d="M973.77,-384.16C1169.58,-372.35 1619.5,-338.18 1619.5,-273.5 1619.5,-273.5 1619.5,-273.5 1619.5,-137.5 1619.5,-95.46 1606.95,-78.59 1571.5,-56 1507.82,-15.43 1291.77,-10 1176.83,-10.1"/>
<polygon fill="midnightblue" stroke="midnightblue" points="973.28,-380.68 963.51,-384.77 973.7,-387.67 973.28,-380.68"/>
</g>
<!-- Node15 -->
<g id="node15" class="node">
<title>Node15</title>
<g id="a_node15"><a xlink:href="balanced__operator_8hpp.html" target="_top" xlink:title=" ">
<polygon fill="none" stroke="black" points="676,-324.5 676,-343.5 837,-343.5 837,-324.5 676,-324.5"/>
<text text-anchor="middle" x="756.5" y="-331.5" font-family="FreeSans.ttf" font-size="10.00">CUDA/inc/balanced_operator.hpp</text>
</a>
</g>
</g>
<!-- Node1&#45;&gt;Node15 -->
<g id="edge17" class="edge">
<title>Node1&#45;&gt;Node15</title>
<path fill="none" stroke="midnightblue" d="M854.88,-376.5C830.88,-366.38 797.72,-352.39 776.69,-343.52"/>
<polygon fill="midnightblue" stroke="midnightblue" points="853.64,-379.78 864.22,-380.44 856.36,-373.33 853.64,-379.78"/>
</g>
<!-- Node16 -->
<g id="node16" class="node">
<title>Node16</title>
<g id="a_node16"><a xlink:href="balanced__texture__gpuNUFFT__operator_8hpp.html" target="_top" xlink:title=" ">
<polygon fill="none" stroke="black" points="427,-190.5 427,-220.5 564,-220.5 564,-190.5 427,-190.5"/>
<text text-anchor="start" x="435" y="-208.5" font-family="FreeSans.ttf" font-size="10.00">CUDA/inc/balanced_texture</text>
<text text-anchor="middle" x="495.5" y="-197.5" font-family="FreeSans.ttf" font-size="10.00">_gpuNUFFT_operator.hpp</text>
</a>
</g>
</g>
<!-- Node1&#45;&gt;Node16 -->
<g id="edge22" class="edge">
<title>Node1&#45;&gt;Node16</title>
<path fill="none" stroke="midnightblue" d="M795.23,-378.96C755.02,-372.32 707.66,-361.48 667.5,-344 598.8,-314.09 534.47,-249.38 508.09,-220.69"/>
<polygon fill="midnightblue" stroke="midnightblue" points="794.87,-382.44 805.29,-380.56 795.97,-375.53 794.87,-382.44"/>
</g>
<!-- Node18 -->
<g id="node18" class="node">
<title>Node18</title>
<g id="a_node18"><a xlink:href="gpuNUFFT__operator_8hpp.html" target="_top" xlink:title=" ">
<polygon fill="none" stroke="black" points="1023.5,-324.5 1023.5,-343.5 1193.5,-343.5 1193.5,-324.5 1023.5,-324.5"/>
<text text-anchor="middle" x="1108.5" y="-331.5" font-family="FreeSans.ttf" font-size="10.00">CUDA/inc/gpuNUFFT_operator.hpp</text>
</a>
</g>
</g>
<!-- Node1&#45;&gt;Node18 -->
<g id="edge23" class="edge">
<title>Node1&#45;&gt;Node18</title>
<path fill="none" stroke="midnightblue" d="M929.76,-378.09C972.08,-367.89 1034.41,-352.86 1073.17,-343.52"/>
<polygon fill="midnightblue" stroke="midnightblue" points="928.89,-374.7 919.99,-380.44 930.54,-381.5 928.89,-374.7"/>
</g>
<!-- Node24 -->
<g id="node24" class="node">
<title>Node24</title>
<g id="a_node24"><a xlink:href="texture__gpuNUFFT__operator_8hpp.html" target="_top" xlink:title=" ">
<polygon fill="none" stroke="black" points="661.5,-257.5 661.5,-287.5 807.5,-287.5 807.5,-257.5 661.5,-257.5"/>
<text text-anchor="start" x="669.5" y="-275.5" font-family="FreeSans.ttf" font-size="10.00">CUDA/inc/texture_gpuNUFFT</text>
<text text-anchor="middle" x="734.5" y="-264.5" font-family="FreeSans.ttf" font-size="10.00">_operator.hpp</text>
</a>
</g>
</g>
<!-- Node1&#45;&gt;Node24 -->
<g id="edge46" class="edge">
<title>Node1&#45;&gt;Node24</title>
<path fill="none" stroke="midnightblue" d="M877.6,-370.98C871.34,-356.66 860.89,-336.95 846.5,-324 828.19,-307.52 803.6,-295.63 782.13,-287.55"/>
<polygon fill="midnightblue" stroke="midnightblue" points="874.39,-372.36 881.42,-380.28 880.86,-369.7 874.39,-372.36"/>
</g>
<!-- Node3 -->
<g id="node3" class="node">
<title>Node3</title>
<g id="a_node3"><a xlink:href="gpuNUFFT__operator__factory_8hpp.html" target="_top" xlink:title=" ">
<polygon fill="none" stroke="black" points="780.5,-123.5 780.5,-153.5 932.5,-153.5 932.5,-123.5 780.5,-123.5"/>
<text text-anchor="start" x="788.5" y="-141.5" font-family="FreeSans.ttf" font-size="10.00">CUDA/inc/gpuNUFFT_operator</text>
<text text-anchor="middle" x="856.5" y="-130.5" font-family="FreeSans.ttf" font-size="10.00">_factory.hpp</text>
</a>
</g>
</g>
<!-- Node2&#45;&gt;Node3 -->
<g id="edge2" class="edge">
<title>Node2&#45;&gt;Node3</title>
<path fill="none" stroke="midnightblue" d="M930.19,-250.32C947.55,-233.86 964.86,-210.47 952.5,-190 942.18,-172.91 923.95,-161.32 906.12,-153.6"/>
<polygon fill="midnightblue" stroke="midnightblue" points="927.44,-248.08 922.32,-257.36 932.11,-253.3 927.44,-248.08"/>
</g>
<!-- Node14 -->
<g id="node14" class="node">
<title>Node14</title>
<g id="a_node14"><a xlink:href="balanced__gpuNUFFT__operator_8cpp.html" target="_top" xlink:title=" ">
<polygon fill="none" stroke="black" points="786,-190.5 786,-220.5 943,-220.5 943,-190.5 786,-190.5"/>
<text text-anchor="start" x="794" y="-208.5" font-family="FreeSans.ttf" font-size="10.00">CUDA/src/balanced_gpuNUFFT</text>
<text text-anchor="middle" x="864.5" y="-197.5" font-family="FreeSans.ttf" font-size="10.00">_operator.cpp</text>
</a>
</g>
</g>
<!-- Node2&#45;&gt;Node14 -->
<g id="edge16" class="edge">
<title>Node2&#45;&gt;Node14</title>
<path fill="none" stroke="midnightblue" d="M889.75,-248.58C884.14,-239.24 877.85,-228.75 872.95,-220.58"/>
<polygon fill="midnightblue" stroke="midnightblue" points="886.89,-250.62 895.04,-257.4 892.89,-247.02 886.89,-250.62"/>
</g>
<!-- Node4 -->
<g id="node4" class="node">
<title>Node4</title>
<g id="a_node4"><a xlink:href="gpuNUFFT__operator__factory_8cpp.html" target="_top" xlink:title=" ">
<polygon fill="none" stroke="black" points="1132,-56.5 1132,-86.5 1285,-86.5 1285,-56.5 1132,-56.5"/>
<text text-anchor="start" x="1140" y="-74.5" font-family="FreeSans.ttf" font-size="10.00">CUDA/src/gpuNUFFT_operator</text>
<text text-anchor="middle" x="1208.5" y="-63.5" font-family="FreeSans.ttf" font-size="10.00">_factory.cpp</text>
</a>
</g>
</g>
<!-- Node3&#45;&gt;Node4 -->
<g id="edge3" class="edge">
<title>Node3&#45;&gt;Node4</title>
<path fill="none" stroke="midnightblue" d="M942.34,-121.65C1000.43,-110.92 1076.46,-96.88 1132.39,-86.55"/>
<polygon fill="midnightblue" stroke="midnightblue" points="941.64,-118.22 932.45,-123.48 942.91,-125.1 941.64,-118.22"/>
</g>
<!-- Node5 -->
<g id="node5" class="node">
<title>Node5</title>
<g id="a_node5"><a xlink:href="gpuNUFFT__forward__tests_8cpp.html" target="_top" xlink:title=" ">
<polygon fill="none" stroke="black" points="316,-56.5 316,-86.5 467,-86.5 467,-56.5 316,-56.5"/>
<text text-anchor="start" x="324" y="-74.5" font-family="FreeSans.ttf" font-size="10.00">CUDA/test/gpu/forward</text>
<text text-anchor="middle" x="391.5" y="-63.5" font-family="FreeSans.ttf" font-size="10.00">/gpuNUFFT_forward_tests.cpp</text>
</a>
</g>
</g>
<!-- Node3&#45;&gt;Node5 -->
<g id="edge4" class="edge">
<title>Node3&#45;&gt;Node5</title>
<path fill="none" stroke="midnightblue" d="M770.17,-126.95C693.07,-117.3 577.1,-102.26 476.5,-87 473.39,-86.53 470.22,-86.04 467.02,-85.53"/>
<polygon fill="midnightblue" stroke="midnightblue" points="769.96,-130.45 780.32,-128.21 770.83,-123.5 769.96,-130.45"/>
</g>
<!-- Node6 -->
<g id="node6" class="node">
<title>Node6</title>
<g id="a_node6"><a xlink:href="gpuNUFFT__2D__conv__tests_8cpp.html" target="_top" xlink:title=" ">
<polygon fill="none" stroke="black" points="485.5,-56.5 485.5,-86.5 619.5,-86.5 619.5,-56.5 485.5,-56.5"/>
<text text-anchor="start" x="493.5" y="-74.5" font-family="FreeSans.ttf" font-size="10.00">CUDA/test/gpu/gpuNUFFT</text>
<text text-anchor="middle" x="552.5" y="-63.5" font-family="FreeSans.ttf" font-size="10.00">_2D_conv_tests.cpp</text>
</a>
</g>
</g>
<!-- Node3&#45;&gt;Node6 -->
<g id="edge5" class="edge">
<title>Node3&#45;&gt;Node6</title>
<path fill="none" stroke="midnightblue" d="M781.12,-121.38C731.12,-110.69 666.13,-96.8 618.23,-86.55"/>
<polygon fill="midnightblue" stroke="midnightblue" points="780.4,-124.81 790.91,-123.48 781.86,-117.96 780.4,-124.81"/>
</g>
<!-- Node7 -->
<g id="node7" class="node">
<title>Node7</title>
<g id="a_node7"><a xlink:href="gpuNUFFT__conv__tests_8cpp.html" target="_top" xlink:title=" ">
<polygon fill="none" stroke="black" points="637.5,-56.5 637.5,-86.5 771.5,-86.5 771.5,-56.5 637.5,-56.5"/>
<text text-anchor="start" x="645.5" y="-74.5" font-family="FreeSans.ttf" font-size="10.00">CUDA/test/gpu/gpuNUFFT</text>
<text text-anchor="middle" x="704.5" y="-63.5" font-family="FreeSans.ttf" font-size="10.00">_conv_tests.cpp</text>
</a>
</g>
</g>
<!-- Node3&#45;&gt;Node7 -->
<g id="edge6" class="edge">
<title>Node3&#45;&gt;Node7</title>
<path fill="none" stroke="midnightblue" d="M814.19,-119.41C789.92,-109.03 759.91,-96.2 737.42,-86.58"/>
<polygon fill="midnightblue" stroke="midnightblue" points="812.95,-122.68 823.52,-123.4 815.7,-116.25 812.95,-122.68"/>
</g>
<!-- Node8 -->
<g id="node8" class="node">
<title>Node8</title>
<g id="a_node8"><a xlink:href="gpuNUFFT__deapo__tests_8cpp.html" target="_top" xlink:title=" ">
<polygon fill="none" stroke="black" points="789.5,-56.5 789.5,-86.5 923.5,-86.5 923.5,-56.5 789.5,-56.5"/>
<text text-anchor="start" x="797.5" y="-74.5" font-family="FreeSans.ttf" font-size="10.00">CUDA/test/gpu/gpuNUFFT</text>
<text text-anchor="middle" x="856.5" y="-63.5" font-family="FreeSans.ttf" font-size="10.00">_deapo_tests.cpp</text>
</a>
</g>
</g>
<!-- Node3&#45;&gt;Node8 -->
<g id="edge7" class="edge">
<title>Node3&#45;&gt;Node8</title>
<path fill="none" stroke="midnightblue" d="M856.5,-113.11C856.5,-104.15 856.5,-94.32 856.5,-86.58"/>
<polygon fill="midnightblue" stroke="midnightblue" points="853,-113.4 856.5,-123.4 860,-113.4 853,-113.4"/>
</g>
<!-- Node9 -->
<g id="node9" class="node">
<title>Node9</title>
<g id="a_node9"><a xlink:href="gpuNUFFT__fft__tests_8cpp.html" target="_top" xlink:title=" ">
<polygon fill="none" stroke="black" points="941.5,-56.5 941.5,-86.5 1075.5,-86.5 1075.5,-56.5 941.5,-56.5"/>
<text text-anchor="start" x="949.5" y="-74.5" font-family="FreeSans.ttf" font-size="10.00">CUDA/test/gpu/gpuNUFFT</text>
<text text-anchor="middle" x="1008.5" y="-63.5" font-family="FreeSans.ttf" font-size="10.00">_fft_tests.cpp</text>
</a>
</g>
</g>
<!-- Node3&#45;&gt;Node9 -->
<g id="edge8" class="edge">
<title>Node3&#45;&gt;Node9</title>
<path fill="none" stroke="midnightblue" d="M898.81,-119.41C923.08,-109.03 953.09,-96.2 975.58,-86.58"/>
<polygon fill="midnightblue" stroke="midnightblue" points="897.3,-116.25 889.48,-123.4 900.05,-122.68 897.3,-116.25"/>
</g>
<!-- Node10 -->
<g id="node10" class="node">
<title>Node10</title>
<g id="a_node10"><a xlink:href="python__factory_8hpp.html" target="_top" xlink:title=" ">
<polygon fill="none" stroke="black" points="0,-62 0,-81 145,-81 145,-62 0,-62"/>
<text text-anchor="middle" x="72.5" y="-69" font-family="FreeSans.ttf" font-size="10.00">python/inc/python_factory.hpp</text>
</a>
</g>
</g>
<!-- Node3&#45;&gt;Node10 -->
<g id="edge9" class="edge">
<title>Node3&#45;&gt;Node10</title>
<path fill="none" stroke="midnightblue" d="M769.95,-132.4C609.42,-122.74 271.23,-101.48 154.5,-87 141.87,-85.43 128.24,-83.23 115.78,-81.01"/>
<polygon fill="midnightblue" stroke="midnightblue" points="770.07,-135.91 780.26,-133.01 770.49,-128.92 770.07,-135.91"/>
</g>
<!-- Node3&#45;&gt;Node12 -->
<g id="edge15" class="edge">
<title>Node3&#45;&gt;Node12</title>
<path fill="none" stroke="midnightblue" d="M942.45,-127.92C998.24,-119.97 1064.22,-106.74 1084.5,-87 1103.11,-68.88 1104.53,-35.49 1104.05,-19.71"/>
<polygon fill="midnightblue" stroke="midnightblue" points="941.95,-124.45 932.52,-129.29 942.91,-131.39 941.95,-124.45"/>
</g>
<!-- Node13 -->
<g id="node13" class="node">
<title>Node13</title>
<g id="a_node13"><a xlink:href="python__utils_8hpp.html" target="_top" xlink:title=" ">
<polygon fill="none" stroke="black" points="163.5,-62 163.5,-81 297.5,-81 297.5,-62 163.5,-62"/>
<text text-anchor="middle" x="230.5" y="-69" font-family="FreeSans.ttf" font-size="10.00">python/inc/python_utils.hpp</text>
</a>
</g>
</g>
<!-- Node3&#45;&gt;Node13 -->
<g id="edge12" class="edge">
<title>Node3&#45;&gt;Node13</title>
<path fill="none" stroke="midnightblue" d="M769.91,-132.16C661.31,-124.85 469.54,-109.98 306.5,-87 295.06,-85.39 282.73,-83.22 271.4,-81.06"/>
<polygon fill="midnightblue" stroke="midnightblue" points="769.95,-135.67 780.16,-132.84 770.42,-128.68 769.95,-135.67"/>
</g>
<!-- Node11 -->
<g id="node11" class="node">
<title>Node11</title>
<g id="a_node11"><a xlink:href="python__bindings_8cpp.html" target="_top" xlink:title=" ">
<polygon fill="none" stroke="black" points="75.5,-0.5 75.5,-19.5 227.5,-19.5 227.5,-0.5 75.5,-0.5"/>
<text text-anchor="middle" x="151.5" y="-7.5" font-family="FreeSans.ttf" font-size="10.00">python/src/python_bindings.cpp</text>
</a>
</g>
</g>
<!-- Node10&#45;&gt;Node11 -->
<g id="edge10" class="edge">
<title>Node10&#45;&gt;Node11</title>
<path fill="none" stroke="midnightblue" d="M92.03,-55.79C107.18,-44.38 127.66,-28.96 140.2,-19.51"/>
<polygon fill="midnightblue" stroke="midnightblue" points="89.7,-53.16 83.82,-61.98 93.91,-58.75 89.7,-53.16"/>
</g>
<!-- Node10&#45;&gt;Node12 -->
<g id="edge11" class="edge">
<title>Node10&#45;&gt;Node12</title>
<path fill="none" stroke="midnightblue" d="M124.94,-60.2C134.73,-58.57 144.9,-57.07 154.5,-56 479.68,-19.69 870.75,-12.63 1030.32,-11.29"/>
<polygon fill="midnightblue" stroke="midnightblue" points="124.17,-56.78 114.91,-61.94 125.36,-63.68 124.17,-56.78"/>
</g>
<!-- Node13&#45;&gt;Node11 -->
<g id="edge13" class="edge">
<title>Node13&#45;&gt;Node11</title>
<path fill="none" stroke="midnightblue" d="M210.97,-55.79C195.82,-44.38 175.34,-28.96 162.8,-19.51"/>
<polygon fill="midnightblue" stroke="midnightblue" points="209.09,-58.75 219.18,-61.98 213.3,-53.16 209.09,-58.75"/>
</g>
<!-- Node13&#45;&gt;Node12 -->
<g id="edge14" class="edge">
<title>Node13&#45;&gt;Node12</title>
<path fill="none" stroke="midnightblue" d="M279.66,-60.14C288.56,-58.54 297.78,-57.07 306.5,-56 571.8,-23.35 889.74,-14.35 1030.41,-11.9"/>
<polygon fill="midnightblue" stroke="midnightblue" points="278.98,-56.71 269.79,-61.98 280.26,-63.59 278.98,-56.71"/>
</g>
<!-- Node15&#45;&gt;Node2 -->
<g id="edge18" class="edge">
<title>Node15&#45;&gt;Node2</title>
<path fill="none" stroke="midnightblue" d="M786.84,-320.72C810.7,-311.06 843.95,-297.6 868.86,-287.52"/>
<polygon fill="midnightblue" stroke="midnightblue" points="785.52,-317.48 777.56,-324.48 788.14,-323.97 785.52,-317.48"/>
</g>
<!-- Node15&#45;&gt;Node16 -->
<g id="edge19" class="edge">
<title>Node15&#45;&gt;Node16</title>
<path fill="none" stroke="midnightblue" d="M726.27,-320.58C705.38,-311.84 677.04,-299.66 652.5,-288 605.62,-265.72 552.22,-237.34 521.33,-220.62"/>
<polygon fill="midnightblue" stroke="midnightblue" points="725.01,-323.85 735.59,-324.46 727.7,-317.39 725.01,-323.85"/>
</g>
<!-- Node16&#45;&gt;Node3 -->
<g id="edge20" class="edge">
<title>Node16&#45;&gt;Node3</title>
<path fill="none" stroke="midnightblue" d="M574.46,-189.65C649.67,-175.91 725.48,-162.48 780.22,-152.85"/>
<polygon fill="midnightblue" stroke="midnightblue" points="573.55,-186.26 564.34,-191.5 574.81,-193.14 573.55,-186.26"/>
</g>
<!-- Node17 -->
<g id="node17" class="node">
<title>Node17</title>
<g id="a_node17"><a xlink:href="balanced__texture__gpuNUFFT__operator_8cpp.html" target="_top" xlink:title=" ">
<polygon fill="none" stroke="black" points="427,-123.5 427,-153.5 564,-153.5 564,-123.5 427,-123.5"/>
<text text-anchor="start" x="435" y="-141.5" font-family="FreeSans.ttf" font-size="10.00">CUDA/src/balanced_texture</text>
<text text-anchor="middle" x="495.5" y="-130.5" font-family="FreeSans.ttf" font-size="10.00">_gpuNUFFT_operator.cpp</text>
</a>
</g>
</g>
<!-- Node16&#45;&gt;Node17 -->
<g id="edge21" class="edge">
<title>Node16&#45;&gt;Node17</title>
<path fill="none" stroke="midnightblue" d="M495.5,-180.11C495.5,-171.15 495.5,-161.32 495.5,-153.58"/>
<polygon fill="midnightblue" stroke="midnightblue" points="492,-180.4 495.5,-190.4 499,-180.4 492,-180.4"/>
</g>
<!-- Node18&#45;&gt;Node2 -->
<g id="edge24" class="edge">
<title>Node18&#45;&gt;Node2</title>
<path fill="none" stroke="midnightblue" d="M1069.25,-321.61C1035.81,-311.9 987.62,-297.92 951.81,-287.52"/>
<polygon fill="midnightblue" stroke="midnightblue" points="1068.55,-325.05 1079.13,-324.48 1070.5,-318.33 1068.55,-325.05"/>
</g>
<!-- Node18&#45;&gt;Node3 -->
<g id="edge38" class="edge">
<title>Node18&#45;&gt;Node3</title>
<path fill="none" stroke="midnightblue" d="M1095.63,-316.24C1072.72,-287.31 1022.19,-227.51 968.5,-190 946.56,-174.67 919.21,-162.23 897.03,-153.54"/>
<polygon fill="midnightblue" stroke="midnightblue" points="1092.91,-318.45 1101.83,-324.17 1098.43,-314.13 1092.91,-318.45"/>
</g>
<!-- Node19 -->
<g id="node19" class="node">
<title>Node19</title>
<g id="a_node19"><a xlink:href="cuda__utils_8hpp.html" target="_top" xlink:title="Util functions for CUDA memory and texture management.">
<polygon fill="none" stroke="black" points="1183,-263 1183,-282 1308,-282 1308,-263 1183,-263"/>
<text text-anchor="middle" x="1245.5" y="-270" font-family="FreeSans.ttf" font-size="10.00">CUDA/inc/cuda_utils.hpp</text>
</a>
</g>
</g>
<!-- Node18&#45;&gt;Node19 -->
<g id="edge25" class="edge">
<title>Node18&#45;&gt;Node19</title>
<path fill="none" stroke="midnightblue" d="M1137.33,-320.48C1163.94,-308.92 1202.73,-292.08 1225.91,-282.01"/>
<polygon fill="midnightblue" stroke="midnightblue" points="1135.91,-317.28 1128.13,-324.48 1138.7,-323.7 1135.91,-317.28"/>
</g>
<!-- Node21 -->
<g id="node21" class="node">
<title>Node21</title>
<g id="a_node21"><a xlink:href="gpuNUFFT__operator_8cpp.html" target="_top" xlink:title=" ">
<polygon fill="none" stroke="black" points="1391,-62 1391,-81 1562,-81 1562,-62 1391,-62"/>
<text text-anchor="middle" x="1476.5" y="-69" font-family="FreeSans.ttf" font-size="10.00">CUDA/src/gpuNUFFT_operator.cpp</text>
</a>
</g>
</g>
<!-- Node18&#45;&gt;Node21 -->
<g id="edge45" class="edge">
<title>Node18&#45;&gt;Node21</title>
<path fill="none" stroke="midnightblue" d="M1203.96,-324.42C1325.5,-311.15 1524.48,-280.69 1563.5,-221 1597.35,-169.23 1519.57,-104.09 1488.56,-81.05"/>
<polygon fill="midnightblue" stroke="midnightblue" points="1203.47,-320.96 1193.9,-325.5 1204.22,-327.92 1203.47,-320.96"/>
</g>
<!-- Node22 -->
<g id="node22" class="node">
<title>Node22</title>
<g id="a_node22"><a xlink:href="precomp__kernels_8hpp.html" target="_top" xlink:title="GPU Kernels for Precomputation (sector assignment)">
<polygon fill="none" stroke="black" points="1274,-129 1274,-148 1429,-148 1429,-129 1274,-129"/>
<text text-anchor="middle" x="1351.5" y="-136" font-family="FreeSans.ttf" font-size="10.00">CUDA/inc/precomp_kernels.hpp</text>
</a>
</g>
</g>
<!-- Node18&#45;&gt;Node22 -->
<g id="edge39" class="edge">
<title>Node18&#45;&gt;Node22</title>
<path fill="none" stroke="midnightblue" d="M1200.17,-323.04C1248.23,-315.96 1300.58,-304.71 1317.5,-288 1357.22,-248.8 1354.56,-173.34 1352.4,-148.02"/>
<polygon fill="midnightblue" stroke="midnightblue" points="1199.4,-319.61 1189.99,-324.49 1200.38,-326.54 1199.4,-319.61"/>
</g>
<!-- Node23 -->
<g id="node23" class="node">
<title>Node23</title>
<g id="a_node23"><a xlink:href="precomp__utils_8hpp.html" target="_top" xlink:title="UTIL functions for precomputation.">
<polygon fill="none" stroke="black" points="1037.5,-196 1037.5,-215 1179.5,-215 1179.5,-196 1037.5,-196"/>
<text text-anchor="middle" x="1108.5" y="-203" font-family="FreeSans.ttf" font-size="10.00">CUDA/inc/precomp_utils.hpp</text>
</a>
</g>
</g>
<!-- Node18&#45;&gt;Node23 -->
<g id="edge40" class="edge">
<title>Node18&#45;&gt;Node23</title>
<path fill="none" stroke="midnightblue" d="M1108.5,-313.94C1108.5,-286.12 1108.5,-235.54 1108.5,-215.26"/>
<polygon fill="midnightblue" stroke="midnightblue" points="1105,-314.31 1108.5,-324.31 1112,-314.31 1105,-314.31"/>
</g>
<!-- Node18&#45;&gt;Node24 -->
<g id="edge41" class="edge">
<title>Node18&#45;&gt;Node24</title>
<path fill="none" stroke="midnightblue" d="M1040.84,-323.01C981.62,-314.16 893.28,-300.7 816.5,-288 813.65,-287.53 810.74,-287.04 807.8,-286.55"/>
<polygon fill="midnightblue" stroke="midnightblue" points="1040.41,-326.48 1050.82,-324.5 1041.45,-319.56 1040.41,-326.48"/>
</g>
<!-- Node19&#45;&gt;Node3 -->
<g id="edge29" class="edge">
<title>Node19&#45;&gt;Node3</title>
<path fill="none" stroke="midnightblue" d="M1238.11,-253.46C1229.29,-234.37 1212.63,-204.99 1188.5,-190 1146.96,-164.2 1017.3,-150.53 932.85,-144.17"/>
<polygon fill="midnightblue" stroke="midnightblue" points="1235,-255.08 1242.21,-262.85 1241.42,-252.28 1235,-255.08"/>
</g>
<!-- Node19&#45;&gt;Node12 -->
<g id="edge37" class="edge">
<title>Node19&#45;&gt;Node12</title>
<path fill="none" stroke="midnightblue" d="M1244.86,-252.32C1244.58,-223.16 1246.81,-166.48 1265.5,-123 1273.61,-104.12 1287.67,-106.38 1294.5,-87 1299.08,-74.01 1303.05,-66.8 1294.5,-56 1279.72,-37.34 1224.16,-25.64 1176.75,-18.87"/>
<polygon fill="midnightblue" stroke="midnightblue" points="1241.37,-252.78 1245.08,-262.7 1248.37,-252.63 1241.37,-252.78"/>
</g>
<!-- Node20 -->
<g id="node20" class="node">
<title>Node20</title>
<g id="a_node20"><a xlink:href="gpuNUFFT__kernels_8hpp.html" target="_top" xlink:title="gpuNUFFT CUDA function prototypes">
<polygon fill="none" stroke="black" points="1387,-196 1387,-215 1554,-215 1554,-196 1387,-196"/>
<text text-anchor="middle" x="1470.5" y="-203" font-family="FreeSans.ttf" font-size="10.00">CUDA/inc/gpuNUFFT_kernels.hpp</text>
</a>
</g>
</g>
<!-- Node19&#45;&gt;Node20 -->
<g id="edge26" class="edge">
<title>Node19&#45;&gt;Node20</title>
<path fill="none" stroke="midnightblue" d="M1284.99,-260.09C1329.5,-247.23 1400.86,-226.62 1440.86,-215.06"/>
<polygon fill="midnightblue" stroke="midnightblue" points="1284.01,-256.73 1275.38,-262.87 1285.96,-263.46 1284.01,-256.73"/>
</g>
<!-- Node19&#45;&gt;Node21 -->
<g id="edge36" class="edge">
<title>Node19&#45;&gt;Node21</title>
<path fill="none" stroke="midnightblue" d="M1267.97,-257.64C1294.38,-241.37 1339.56,-213.61 1378.5,-190 1405.09,-173.88 1417.68,-177.1 1438.5,-154 1458.56,-131.73 1469.91,-97.02 1474.32,-81.06"/>
<polygon fill="midnightblue" stroke="midnightblue" points="1266.13,-254.67 1259.45,-262.89 1269.8,-260.63 1266.13,-254.67"/>
</g>
<!-- Node19&#45;&gt;Node22 -->
<g id="edge30" class="edge">
<title>Node19&#45;&gt;Node22</title>
<path fill="none" stroke="midnightblue" d="M1257.86,-254.59C1270.15,-237.92 1289.69,-211.87 1307.5,-190 1319.69,-175.03 1334.57,-158.24 1343.53,-148.29"/>
<polygon fill="midnightblue" stroke="midnightblue" points="1254.93,-252.66 1251.83,-262.79 1260.57,-256.8 1254.93,-252.66"/>
</g>
<!-- Node19&#45;&gt;Node23 -->
<g id="edge33" class="edge">
<title>Node19&#45;&gt;Node23</title>
<path fill="none" stroke="midnightblue" d="M1217.98,-258.44C1190.85,-245.57 1150.14,-226.26 1126.77,-215.17"/>
<polygon fill="midnightblue" stroke="midnightblue" points="1216.77,-261.74 1227.31,-262.87 1219.77,-255.42 1216.77,-261.74"/>
</g>
<!-- Node20&#45;&gt;Node18 -->
<g id="edge27" class="edge">
<title>Node20&#45;&gt;Node18</title>
<path fill="none" stroke="midnightblue" d="M1456.46,-222.64C1439.02,-241.56 1407.41,-272.31 1373.5,-288 1316.96,-314.17 1247.33,-325.28 1193.63,-329.93"/>
<polygon fill="midnightblue" stroke="midnightblue" points="1459.15,-224.89 1463.23,-215.11 1453.94,-220.21 1459.15,-224.89"/>
</g>
<!-- Node20&#45;&gt;Node21 -->
<g id="edge28" class="edge">
<title>Node20&#45;&gt;Node21</title>
<path fill="none" stroke="midnightblue" d="M1471.35,-185.78C1472.67,-156.75 1475.16,-102.04 1476.11,-81.02"/>
<polygon fill="midnightblue" stroke="midnightblue" points="1467.85,-185.69 1470.89,-195.84 1474.84,-186.01 1467.85,-185.69"/>
</g>
<!-- Node22&#45;&gt;Node4 -->
<g id="edge32" class="edge">
<title>Node22&#45;&gt;Node4</title>
<path fill="none" stroke="midnightblue" d="M1323.17,-124.62C1298.98,-113.63 1264.25,-97.84 1239.36,-86.53"/>
<polygon fill="midnightblue" stroke="midnightblue" points="1321.96,-127.92 1332.51,-128.87 1324.86,-121.54 1321.96,-127.92"/>
</g>
<!-- Node22&#45;&gt;Node21 -->
<g id="edge31" class="edge">
<title>Node22&#45;&gt;Node21</title>
<path fill="none" stroke="midnightblue" d="M1377.26,-124.1C1402.02,-111.23 1438.69,-92.16 1459.83,-81.17"/>
<polygon fill="midnightblue" stroke="midnightblue" points="1375.36,-121.15 1368.1,-128.87 1378.59,-127.36 1375.36,-121.15"/>
</g>
<!-- Node23&#45;&gt;Node3 -->
<g id="edge34" class="edge">
<title>Node23&#45;&gt;Node3</title>
<path fill="none" stroke="midnightblue" d="M1065.5,-193.41C1022.83,-182.4 957.3,-165.5 911.01,-153.56"/>
<polygon fill="midnightblue" stroke="midnightblue" points="1064.74,-196.83 1075.3,-195.94 1066.49,-190.05 1064.74,-196.83"/>
</g>
<!-- Node23&#45;&gt;Node22 -->
<g id="edge35" class="edge">
<title>Node23&#45;&gt;Node22</title>
<path fill="none" stroke="midnightblue" d="M1150.28,-193.32C1198.27,-180.49 1275.94,-159.71 1319.41,-148.08"/>
<polygon fill="midnightblue" stroke="midnightblue" points="1149.27,-189.97 1140.52,-195.94 1151.08,-196.73 1149.27,-189.97"/>
</g>
<!-- Node24&#45;&gt;Node3 -->
<g id="edge43" class="edge">
<title>Node24&#45;&gt;Node3</title>
<path fill="none" stroke="midnightblue" d="M743.07,-248.01C750.28,-230.55 761.93,-206.93 777.5,-190 791.39,-174.91 810.74,-162.44 826.82,-153.66"/>
<polygon fill="midnightblue" stroke="midnightblue" points="739.75,-246.89 739.33,-257.47 746.26,-249.46 739.75,-246.89"/>
</g>
<!-- Node24&#45;&gt;Node16 -->
<g id="edge42" class="edge">
<title>Node24&#45;&gt;Node16</title>
<path fill="none" stroke="midnightblue" d="M673.28,-254.85C634.31,-244.25 584.4,-230.68 547.38,-220.61"/>
<polygon fill="midnightblue" stroke="midnightblue" points="672.37,-258.23 682.93,-257.48 674.2,-251.47 672.37,-258.23"/>
</g>
<!-- Node25 -->
<g id="node25" class="node">
<title>Node25</title>
<g id="a_node25"><a xlink:href="texture__gpuNUFFT__operator_8cpp.html" target="_top" xlink:title=" ">
<polygon fill="none" stroke="black" points="582,-190.5 582,-220.5 729,-220.5 729,-190.5 582,-190.5"/>
<text text-anchor="start" x="590" y="-208.5" font-family="FreeSans.ttf" font-size="10.00">CUDA/src/texture_gpuNUFFT</text>
<text text-anchor="middle" x="655.5" y="-197.5" font-family="FreeSans.ttf" font-size="10.00">_operator.cpp</text>
</a>
</g>
</g>
<!-- Node24&#45;&gt;Node25 -->
<g id="edge44" class="edge">
<title>Node24&#45;&gt;Node25</title>
<path fill="none" stroke="midnightblue" d="M709.44,-250.88C697.44,-241.01 683.37,-229.43 672.61,-220.58"/>
<polygon fill="midnightblue" stroke="midnightblue" points="707.41,-253.75 717.36,-257.4 711.86,-248.34 707.41,-253.75"/>
</g>
</g>
</svg>
