<?xml version="1.0" encoding="UTF-8" standalone="no"?>
<!DOCTYPE svg PUBLIC "-//W3C//DTD SVG 1.1//EN"
 "http://www.w3.org/Graphics/SVG/1.1/DTD/svg11.dtd">
<!-- Generated by graphviz version 2.49.3 (20211027.1534)
 -->
<!-- Title: CUDA/inc/gpuNUFFT_operator_factory.hpp Pages: 1 -->
<svg width="1028pt" height="442pt"
 viewBox="0.00 0.00 1027.50 442.00" xmlns="http://www.w3.org/2000/svg" xmlns:xlink="http://www.w3.org/1999/xlink">
<g id="graph0" class="graph" transform="scale(1 1) rotate(0) translate(4 438)">
<title>CUDA/inc/gpuNUFFT_operator_factory.hpp</title>
<!-- Node1 -->
<g id="node1" class="node">
<title>Node1</title>
<g id="a_node1"><a xlink:title=" ">
<polygon fill="#bfbfbf" stroke="black" points="477,-403.5 477,-433.5 629,-433.5 629,-403.5 477,-403.5"/>
<text text-anchor="start" x="485" y="-421.5" font-family="FreeSans.ttf" font-size="10.00">CUDA/inc/gpuNUFFT_operator</text>
<text text-anchor="middle" x="553" y="-410.5" font-family="FreeSans.ttf" font-size="10.00">_factory.hpp</text>
</a>
</g>
</g>
<!-- Node2 -->
<g id="node2" class="node">
<title>Node2</title>
<g id="a_node2"><a xlink:title=" ">
<polygon fill="none" stroke="#bfbfbf" points="305,-0.5 305,-19.5 365,-19.5 365,-0.5 305,-0.5"/>
<text text-anchor="middle" x="335" y="-7.5" font-family="FreeSans.ttf" font-size="10.00">config.hpp</text>
</a>
</g>
</g>
<!-- Node1&#45;&gt;Node2 -->
<g id="edge1" class="edge">
<title>Node1&#45;&gt;Node2</title>
<path fill="none" stroke="midnightblue" d="M476.53,-416.35C357.82,-413.44 135.57,-403.18 66,-367 26.31,-346.36 0,-335.74 0,-291 0,-291 0,-291 0,-121 0,-59.54 206.11,-26.82 294.99,-15.57"/>
<polygon fill="midnightblue" stroke="midnightblue" points="295.48,-19.03 304.98,-14.33 294.62,-12.08 295.48,-19.03"/>
</g>
<!-- Node3 -->
<g id="node3" class="node">
<title>Node3</title>
<g id="a_node3"><a xlink:href="gpuNUFFT__operator_8hpp.html" target="_top" xlink:title=" ">
<polygon fill="none" stroke="black" points="420,-224.5 420,-243.5 544,-243.5 544,-224.5 420,-224.5"/>
<text text-anchor="middle" x="482" y="-231.5" font-family="FreeSans.ttf" font-size="10.00">gpuNUFFT_operator.hpp</text>
</a>
</g>
</g>
<!-- Node1&#45;&gt;Node3 -->
<g id="edge2" class="edge">
<title>Node1&#45;&gt;Node3</title>
<path fill="none" stroke="midnightblue" d="M547.55,-403.48C534.84,-370.82 503.26,-289.65 489.08,-253.21"/>
<polygon fill="midnightblue" stroke="midnightblue" points="492.32,-251.87 485.43,-243.82 485.79,-254.41 492.32,-251.87"/>
</g>
<!-- Node8 -->
<g id="node8" class="node">
<title>Node8</title>
<g id="a_node8"><a xlink:href="cuda__utils_8hpp.html" target="_top" xlink:title="Util functions for CUDA memory and texture management.">
<polygon fill="none" stroke="black" points="852.5,-112.5 852.5,-131.5 931.5,-131.5 931.5,-112.5 852.5,-112.5"/>
<text text-anchor="middle" x="892" y="-119.5" font-family="FreeSans.ttf" font-size="10.00">cuda_utils.hpp</text>
</a>
</g>
</g>
<!-- Node1&#45;&gt;Node8 -->
<g id="edge47" class="edge">
<title>Node1&#45;&gt;Node8</title>
<path fill="none" stroke="midnightblue" d="M629.04,-411.93C680.89,-405.87 750.04,-393.24 806,-367 854.64,-344.19 900,-344.72 900,-291 900,-291 900,-291 900,-233 900,-200.86 896.56,-163.58 894.19,-141.72"/>
<polygon fill="midnightblue" stroke="midnightblue" points="897.64,-141.09 893.05,-131.54 890.69,-141.87 897.64,-141.09"/>
</g>
<!-- Node15 -->
<g id="node15" class="node">
<title>Node15</title>
<g id="a_node15"><a xlink:title=" ">
<polygon fill="none" stroke="#bfbfbf" points="550,-0.5 550,-19.5 594,-19.5 594,-0.5 550,-0.5"/>
<text text-anchor="middle" x="572" y="-7.5" font-family="FreeSans.ttf" font-size="10.00">cmath</text>
</a>
</g>
</g>
<!-- Node1&#45;&gt;Node15 -->
<g id="edge46" class="edge">
<title>Node1&#45;&gt;Node15</title>
<path fill="none" stroke="midnightblue" d="M554.93,-403.28C559.76,-366.36 572,-264.36 572,-179 572,-179 572,-179 572,-121 572,-88.95 572,-51.64 572,-29.75"/>
<polygon fill="midnightblue" stroke="midnightblue" points="575.5,-29.56 572,-19.56 568.5,-29.56 575.5,-29.56"/>
</g>
<!-- Node20 -->
<g id="node20" class="node">
<title>Node20</title>
<g id="a_node20"><a xlink:href="balanced__gpuNUFFT__operator_8hpp.html" target="_top" xlink:title=" ">
<polygon fill="none" stroke="black" points="124,-280.5 124,-299.5 292,-299.5 292,-280.5 124,-280.5"/>
<text text-anchor="middle" x="208" y="-287.5" font-family="FreeSans.ttf" font-size="10.00">balanced_gpuNUFFT_operator.hpp</text>
</a>
</g>
</g>
<!-- Node1&#45;&gt;Node20 -->
<g id="edge29" class="edge">
<title>Node1&#45;&gt;Node20</title>
<path fill="none" stroke="midnightblue" d="M514.76,-403.48C446.65,-378.5 305.46,-326.73 241.17,-303.16"/>
<polygon fill="midnightblue" stroke="midnightblue" points="242.13,-299.79 231.54,-299.63 239.72,-306.36 242.13,-299.79"/>
</g>
<!-- Node22 -->
<g id="node22" class="node">
<title>Node22</title>
<g id="a_node22"><a xlink:href="texture__gpuNUFFT__operator_8hpp.html" target="_top" xlink:title=" ">
<polygon fill="none" stroke="black" points="310,-280.5 310,-299.5 468,-299.5 468,-280.5 310,-280.5"/>
<text text-anchor="middle" x="389" y="-287.5" font-family="FreeSans.ttf" font-size="10.00">texture_gpuNUFFT_operator.hpp</text>
</a>
</g>
</g>
<!-- Node1&#45;&gt;Node22 -->
<g id="edge34" class="edge">
<title>Node1&#45;&gt;Node22</title>
<path fill="none" stroke="midnightblue" d="M534.82,-403.48C503.72,-379.49 440.56,-330.77 408.55,-306.08"/>
<polygon fill="midnightblue" stroke="midnightblue" points="410.45,-303.12 400.39,-299.79 406.17,-308.67 410.45,-303.12"/>
</g>
<!-- Node25 -->
<g id="node25" class="node">
<title>Node25</title>
<g id="a_node25"><a xlink:href="balanced__texture__gpuNUFFT__operator_8hpp.html" target="_top" xlink:title=" ">
<polygon fill="none" stroke="black" points="75,-336.5 75,-366.5 219,-366.5 219,-336.5 75,-336.5"/>
<text text-anchor="start" x="83" y="-354.5" font-family="FreeSans.ttf" font-size="10.00">balanced_texture_gpuNUFFT</text>
<text text-anchor="middle" x="147" y="-343.5" font-family="FreeSans.ttf" font-size="10.00">_operator.hpp</text>
</a>
</g>
</g>
<!-- Node1&#45;&gt;Node25 -->
<g id="edge39" class="edge">
<title>Node1&#45;&gt;Node25</title>
<path fill="none" stroke="midnightblue" d="M476.63,-405.27C406.1,-393.98 301.61,-377.25 229.26,-365.67"/>
<polygon fill="midnightblue" stroke="midnightblue" points="229.7,-362.2 219.27,-364.07 228.59,-369.11 229.7,-362.2"/>
</g>
<!-- Node26 -->
<g id="node26" class="node">
<title>Node26</title>
<g id="a_node26"><a xlink:title=" ">
<polygon fill="none" stroke="#bfbfbf" points="619,-342 619,-361 675,-361 675,-342 619,-342"/>
<text text-anchor="middle" x="647" y="-349" font-family="FreeSans.ttf" font-size="10.00">algorithm</text>
</a>
</g>
</g>
<!-- Node1&#45;&gt;Node26 -->
<g id="edge43" class="edge">
<title>Node1&#45;&gt;Node26</title>
<path fill="none" stroke="midnightblue" d="M573.4,-403.4C589.01,-392.6 610.48,-377.76 626.19,-366.89"/>
<polygon fill="midnightblue" stroke="midnightblue" points="628.46,-369.57 634.7,-361.01 624.48,-363.82 628.46,-369.57"/>
</g>
<!-- Node27 -->
<g id="node27" class="node">
<title>Node27</title>
<g id="a_node27"><a xlink:title=" ">
<polygon fill="none" stroke="#bfbfbf" points="693,-342 693,-361 737,-361 737,-342 693,-342"/>
<text text-anchor="middle" x="715" y="-349" font-family="FreeSans.ttf" font-size="10.00">vector</text>
</a>
</g>
</g>
<!-- Node1&#45;&gt;Node27 -->
<g id="edge44" class="edge">
<title>Node1&#45;&gt;Node27</title>
<path fill="none" stroke="midnightblue" d="M591.4,-403.5C617.66,-393.73 653.17,-380.14 684,-367 685.2,-366.49 686.42,-365.96 687.65,-365.42"/>
<polygon fill="midnightblue" stroke="midnightblue" points="689.4,-368.47 697.06,-361.15 686.51,-362.09 689.4,-368.47"/>
</g>
<!-- Node28 -->
<g id="node28" class="node">
<title>Node28</title>
<g id="a_node28"><a xlink:title=" ">
<polygon fill="none" stroke="#bfbfbf" points="755.5,-342 755.5,-361 796.5,-361 796.5,-342 755.5,-342"/>
<text text-anchor="middle" x="776" y="-349" font-family="FreeSans.ttf" font-size="10.00">string</text>
</a>
</g>
</g>
<!-- Node1&#45;&gt;Node28 -->
<g id="edge45" class="edge">
<title>Node1&#45;&gt;Node28</title>
<path fill="none" stroke="midnightblue" d="M619.64,-403.44C657.28,-394.66 704.89,-382.15 746,-367 747.42,-366.47 748.87,-365.91 750.32,-365.31"/>
<polygon fill="midnightblue" stroke="midnightblue" points="752.06,-368.36 759.74,-361.07 749.19,-361.98 752.06,-368.36"/>
</g>
<!-- Node29 -->
<g id="node29" class="node">
<title>Node29</title>
<g id="a_node29"><a xlink:href="precomp__utils_8hpp.html" target="_top" xlink:title="UTIL functions for precomputation.">
<polygon fill="none" stroke="black" points="581.5,-280.5 581.5,-299.5 676.5,-299.5 676.5,-280.5 581.5,-280.5"/>
<text text-anchor="middle" x="629" y="-287.5" font-family="FreeSans.ttf" font-size="10.00">precomp_utils.hpp</text>
</a>
</g>
</g>
<!-- Node1&#45;&gt;Node29 -->
<g id="edge48" class="edge">
<title>Node1&#45;&gt;Node29</title>
<path fill="none" stroke="midnightblue" d="M561.42,-403.48C575.34,-380.31 603.12,-334.07 618.37,-308.69"/>
<polygon fill="midnightblue" stroke="midnightblue" points="621.57,-310.16 623.72,-299.79 615.57,-306.56 621.57,-310.16"/>
</g>
<!-- Node3&#45;&gt;Node2 -->
<g id="edge25" class="edge">
<title>Node3&#45;&gt;Node2</title>
<path fill="none" stroke="midnightblue" d="M473.25,-224.22C464.86,-215.5 452.14,-201.54 443,-188 421.75,-156.54 423.41,-144.63 404,-112 385.81,-81.44 361.89,-47.64 347.52,-27.91"/>
<polygon fill="midnightblue" stroke="midnightblue" points="350.21,-25.66 341.47,-19.67 344.57,-29.81 350.21,-25.66"/>
</g>
<!-- Node4 -->
<g id="node4" class="node">
<title>Node4</title>
<g id="a_node4"><a xlink:href="gpuNUFFT__types_8hpp.html" target="_top" xlink:title="Definition of gpuNUFFT defined types.">
<polygon fill="none" stroke="black" points="190,-168.5 190,-187.5 302,-187.5 302,-168.5 190,-168.5"/>
<text text-anchor="middle" x="246" y="-175.5" font-family="FreeSans.ttf" font-size="10.00">gpuNUFFT_types.hpp</text>
</a>
</g>
</g>
<!-- Node3&#45;&gt;Node4 -->
<g id="edge3" class="edge">
<title>Node3&#45;&gt;Node4</title>
<path fill="none" stroke="midnightblue" d="M444.61,-224.44C403.61,-215.06 337.75,-199.99 293.22,-189.8"/>
<polygon fill="midnightblue" stroke="midnightblue" points="293.75,-186.34 283.22,-187.52 292.19,-193.16 293.75,-186.34"/>
</g>
<!-- Node5 -->
<g id="node5" class="node">
<title>Node5</title>
<g id="a_node5"><a xlink:title=" ">
<polygon fill="none" stroke="#bfbfbf" points="276.5,-112.5 276.5,-131.5 321.5,-131.5 321.5,-112.5 276.5,-112.5"/>
<text text-anchor="middle" x="299" y="-119.5" font-family="FreeSans.ttf" font-size="10.00">cstdlib</text>
</a>
</g>
</g>
<!-- Node3&#45;&gt;Node5 -->
<g id="edge26" class="edge">
<title>Node3&#45;&gt;Node5</title>
<path fill="none" stroke="midnightblue" d="M461.88,-224.49C442.68,-216.09 413.18,-202.43 389,-188 363.11,-172.55 335.26,-151.72 317.51,-137.84"/>
<polygon fill="midnightblue" stroke="midnightblue" points="319.68,-135.1 309.66,-131.65 315.34,-140.59 319.68,-135.1"/>
</g>
<!-- Node6 -->
<g id="node6" class="node">
<title>Node6</title>
<g id="a_node6"><a xlink:title=" ">
<polygon fill="none" stroke="#bfbfbf" points="341,-112.5 341,-131.5 395,-131.5 395,-112.5 341,-112.5"/>
<text text-anchor="middle" x="368" y="-119.5" font-family="FreeSans.ttf" font-size="10.00">iostream</text>
</a>
</g>
</g>
<!-- Node3&#45;&gt;Node6 -->
<g id="edge27" class="edge">
<title>Node3&#45;&gt;Node6</title>
<path fill="none" stroke="midnightblue" d="M463.3,-224.48C447.51,-216.63 424.98,-203.81 409,-188 395.11,-174.25 383.7,-154.96 376.47,-140.97"/>
<polygon fill="midnightblue" stroke="midnightblue" points="379.54,-139.29 371.97,-131.87 373.26,-142.39 379.54,-139.29"/>
</g>
<!-- Node7 -->
<g id="node7" class="node">
<title>Node7</title>
<g id="a_node7"><a xlink:href="gpuNUFFT__kernels_8hpp.html" target="_top" xlink:title="gpuNUFFT CUDA function prototypes">
<polygon fill="none" stroke="black" points="638,-168.5 638,-187.5 758,-187.5 758,-168.5 638,-168.5"/>
<text text-anchor="middle" x="698" y="-175.5" font-family="FreeSans.ttf" font-size="10.00">gpuNUFFT_kernels.hpp</text>
</a>
</g>
</g>
<!-- Node3&#45;&gt;Node7 -->
<g id="edge7" class="edge">
<title>Node3&#45;&gt;Node7</title>
<path fill="none" stroke="midnightblue" d="M516.23,-224.44C553.51,-215.12 613.27,-200.18 654.01,-190"/>
<polygon fill="midnightblue" stroke="midnightblue" points="655.08,-193.34 663.93,-187.52 653.38,-186.55 655.08,-193.34"/>
</g>
<!-- Node19 -->
<g id="node19" class="node">
<title>Node19</title>
<g id="a_node19"><a xlink:title=" ">
<polygon fill="none" stroke="#bfbfbf" points="452.5,-168.5 452.5,-187.5 511.5,-187.5 511.5,-168.5 452.5,-168.5"/>
<text text-anchor="middle" x="482" y="-175.5" font-family="FreeSans.ttf" font-size="10.00">functional</text>
</a>
</g>
</g>
<!-- Node3&#45;&gt;Node19 -->
<g id="edge28" class="edge">
<title>Node3&#45;&gt;Node19</title>
<path fill="none" stroke="midnightblue" d="M482,-224.08C482,-217.01 482,-206.86 482,-197.99"/>
<polygon fill="midnightblue" stroke="midnightblue" points="485.5,-197.75 482,-187.75 478.5,-197.75 485.5,-197.75"/>
</g>
<!-- Node4&#45;&gt;Node2 -->
<g id="edge6" class="edge">
<title>Node4&#45;&gt;Node2</title>
<path fill="none" stroke="midnightblue" d="M247.99,-168.29C251.08,-155.53 257.67,-131.2 267,-112 282.4,-80.33 306.56,-47.1 321.55,-27.76"/>
<polygon fill="midnightblue" stroke="midnightblue" points="324.48,-29.7 327.91,-19.67 318.98,-25.37 324.48,-29.7"/>
</g>
<!-- Node4&#45;&gt;Node5 -->
<g id="edge4" class="edge">
<title>Node4&#45;&gt;Node5</title>
<path fill="none" stroke="midnightblue" d="M254.75,-168.08C262.47,-160.22 273.9,-148.57 283.22,-139.08"/>
<polygon fill="midnightblue" stroke="midnightblue" points="285.9,-141.34 290.41,-131.75 280.91,-136.44 285.9,-141.34"/>
</g>
<!-- Node4&#45;&gt;Node6 -->
<g id="edge5" class="edge">
<title>Node4&#45;&gt;Node6</title>
<path fill="none" stroke="midnightblue" d="M265.33,-168.44C285.32,-159.6 316.74,-145.69 339.56,-135.59"/>
<polygon fill="midnightblue" stroke="midnightblue" points="341.03,-138.76 348.76,-131.52 338.2,-132.36 341.03,-138.76"/>
</g>
<!-- Node7&#45;&gt;Node8 -->
<g id="edge8" class="edge">
<title>Node7&#45;&gt;Node8</title>
<path fill="none" stroke="midnightblue" d="M728.74,-168.44C761.94,-159.2 814.99,-144.44 851.56,-134.26"/>
<polygon fill="midnightblue" stroke="midnightblue" points="852.71,-137.57 861.4,-131.52 850.83,-130.83 852.71,-137.57"/>
</g>
<!-- Node13 -->
<g id="node13" class="node">
<title>Node13</title>
<g id="a_node13"><a xlink:href="gpuNUFFT__utils_8hpp.html" target="_top" xlink:title="Definition of util functions used in gridding operations.">
<polygon fill="none" stroke="black" points="648.5,-56.5 648.5,-75.5 755.5,-75.5 755.5,-56.5 648.5,-56.5"/>
<text text-anchor="middle" x="702" y="-63.5" font-family="FreeSans.ttf" font-size="10.00">gpuNUFFT_utils.hpp</text>
</a>
</g>
</g>
<!-- Node7&#45;&gt;Node13 -->
<g id="edge24" class="edge">
<title>Node7&#45;&gt;Node13</title>
<path fill="none" stroke="midnightblue" d="M698.31,-168.37C698.96,-150.62 700.45,-109.67 701.32,-85.6"/>
<polygon fill="midnightblue" stroke="midnightblue" points="704.82,-85.71 701.69,-75.59 697.83,-85.46 704.82,-85.71"/>
</g>
<!-- Node8&#45;&gt;Node3 -->
<g id="edge22" class="edge">
<title>Node8&#45;&gt;Node3</title>
<path fill="none" stroke="midnightblue" d="M879.12,-131.5C857.12,-145.61 810.45,-173.7 767,-188 696.87,-211.09 613.01,-222.51 554.49,-228.04"/>
<polygon fill="midnightblue" stroke="midnightblue" points="553.87,-224.58 544.23,-228.98 554.51,-231.56 553.87,-224.58"/>
</g>
<!-- Node9 -->
<g id="node9" class="node">
<title>Node9</title>
<g id="a_node9"><a xlink:title=" ">
<polygon fill="none" stroke="#bfbfbf" points="810.5,-0.5 810.5,-19.5 855.5,-19.5 855.5,-0.5 810.5,-0.5"/>
<text text-anchor="middle" x="833" y="-7.5" font-family="FreeSans.ttf" font-size="10.00">cuda.h</text>
</a>
</g>
</g>
<!-- Node8&#45;&gt;Node9 -->
<g id="edge9" class="edge">
<title>Node8&#45;&gt;Node9</title>
<path fill="none" stroke="midnightblue" d="M887.37,-112.37C877.72,-94.38 855.29,-52.55 842.45,-28.63"/>
<polygon fill="midnightblue" stroke="midnightblue" points="845.42,-26.75 837.61,-19.59 839.25,-30.06 845.42,-26.75"/>
</g>
<!-- Node10 -->
<g id="node10" class="node">
<title>Node10</title>
<g id="a_node10"><a xlink:title=" ">
<polygon fill="none" stroke="#bfbfbf" points="873.5,-0.5 873.5,-19.5 956.5,-19.5 956.5,-0.5 873.5,-0.5"/>
<text text-anchor="middle" x="915" y="-7.5" font-family="FreeSans.ttf" font-size="10.00">cuda_runtime.h</text>
</a>
</g>
</g>
<!-- Node8&#45;&gt;Node10 -->
<g id="edge10" class="edge">
<title>Node8&#45;&gt;Node10</title>
<path fill="none" stroke="midnightblue" d="M904.21,-112.24C914.35,-104.14 928.04,-91.11 934,-76 940.18,-60.31 933.47,-41.8 926.38,-28.55"/>
<polygon fill="midnightblue" stroke="midnightblue" points="929.18,-26.41 921.08,-19.58 923.15,-29.97 929.18,-26.41"/>
</g>
<!-- Node11 -->
<g id="node11" class="node">
<title>Node11</title>
<g id="a_node11"><a xlink:title=" ">
<polygon fill="none" stroke="#bfbfbf" points="974.5,-0.5 974.5,-19.5 1019.5,-19.5 1019.5,-0.5 974.5,-0.5"/>
<text text-anchor="middle" x="997" y="-7.5" font-family="FreeSans.ttf" font-size="10.00">stdio.h</text>
</a>
</g>
</g>
<!-- Node8&#45;&gt;Node11 -->
<g id="edge11" class="edge">
<title>Node8&#45;&gt;Node11</title>
<path fill="none" stroke="midnightblue" d="M905.03,-112.23C917.14,-103.75 935.32,-90.13 949,-76 963.43,-61.1 977.21,-41.72 986.27,-28.02"/>
<polygon fill="midnightblue" stroke="midnightblue" points="989.25,-29.85 991.74,-19.56 983.37,-26.05 989.25,-29.85"/>
</g>
<!-- Node12 -->
<g id="node12" class="node">
<title>Node12</title>
<g id="a_node12"><a xlink:title=" ">
<polygon fill="none" stroke="#bfbfbf" points="881.5,-56.5 881.5,-75.5 924.5,-75.5 924.5,-56.5 881.5,-56.5"/>
<text text-anchor="middle" x="903" y="-63.5" font-family="FreeSans.ttf" font-size="10.00">cufft.h</text>
</a>
</g>
</g>
<!-- Node8&#45;&gt;Node12 -->
<g id="edge12" class="edge">
<title>Node8&#45;&gt;Node12</title>
<path fill="none" stroke="midnightblue" d="M893.82,-112.08C895.27,-104.93 897.37,-94.64 899.19,-85.69"/>
<polygon fill="midnightblue" stroke="midnightblue" points="902.65,-86.25 901.22,-75.75 895.79,-84.85 902.65,-86.25"/>
</g>
<!-- Node8&#45;&gt;Node13 -->
<g id="edge13" class="edge">
<title>Node8&#45;&gt;Node13</title>
<path fill="none" stroke="midnightblue" d="M861.89,-112.44C829.37,-103.2 777.42,-88.44 741.61,-78.26"/>
<polygon fill="midnightblue" stroke="midnightblue" points="742.54,-74.88 731.97,-75.52 740.63,-81.62 742.54,-74.88"/>
</g>
<!-- Node18 -->
<g id="node18" class="node">
<title>Node18</title>
<g id="a_node18"><a xlink:title=" ">
<polygon fill="none" stroke="#bfbfbf" points="773.5,-56.5 773.5,-75.5 824.5,-75.5 824.5,-56.5 773.5,-56.5"/>
<text text-anchor="middle" x="799" y="-63.5" font-family="FreeSans.ttf" font-size="10.00">stdarg.h</text>
</a>
</g>
</g>
<!-- Node8&#45;&gt;Node18 -->
<g id="edge23" class="edge">
<title>Node8&#45;&gt;Node18</title>
<path fill="none" stroke="midnightblue" d="M877.06,-112.32C862.41,-103.82 839.87,-90.73 822.76,-80.8"/>
<polygon fill="midnightblue" stroke="midnightblue" points="824.31,-77.65 813.9,-75.65 820.8,-83.7 824.31,-77.65"/>
</g>
<!-- Node13&#45;&gt;Node2 -->
<g id="edge18" class="edge">
<title>Node13&#45;&gt;Node2</title>
<path fill="none" stroke="midnightblue" d="M648.24,-57.09C573.97,-46.16 441.64,-26.69 375.28,-16.93"/>
<polygon fill="midnightblue" stroke="midnightblue" points="375.62,-13.44 365.22,-15.45 374.6,-20.36 375.62,-13.44"/>
</g>
<!-- Node13&#45;&gt;Node9 -->
<g id="edge16" class="edge">
<title>Node13&#45;&gt;Node9</title>
<path fill="none" stroke="midnightblue" d="M722.76,-56.44C744.32,-47.56 778.26,-33.56 802.79,-23.45"/>
<polygon fill="midnightblue" stroke="midnightblue" points="804.43,-26.56 812.34,-19.52 801.76,-20.09 804.43,-26.56"/>
</g>
<!-- Node13&#45;&gt;Node10 -->
<g id="edge17" class="edge">
<title>Node13&#45;&gt;Node10</title>
<path fill="none" stroke="midnightblue" d="M735.75,-56.44C772.52,-47.12 831.45,-32.18 871.62,-22"/>
<polygon fill="midnightblue" stroke="midnightblue" points="872.57,-25.37 881.41,-19.52 870.85,-18.58 872.57,-25.37"/>
</g>
<!-- Node13&#45;&gt;Node11 -->
<g id="edge15" class="edge">
<title>Node13&#45;&gt;Node11</title>
<path fill="none" stroke="midnightblue" d="M755.75,-56.58C816.74,-46.9 913.47,-31.16 964.52,-20.1"/>
<polygon fill="midnightblue" stroke="midnightblue" points="965.4,-23.49 974.39,-17.89 963.87,-16.66 965.4,-23.49"/>
</g>
<!-- Node14 -->
<g id="node14" class="node">
<title>Node14</title>
<g id="a_node14"><a xlink:title=" ">
<polygon fill="none" stroke="#bfbfbf" points="745.5,-0.5 745.5,-19.5 792.5,-19.5 792.5,-0.5 745.5,-0.5"/>
<text text-anchor="middle" x="769" y="-7.5" font-family="FreeSans.ttf" font-size="10.00">stdlib.h</text>
</a>
</g>
</g>
<!-- Node13&#45;&gt;Node14 -->
<g id="edge14" class="edge">
<title>Node13&#45;&gt;Node14</title>
<path fill="none" stroke="midnightblue" d="M712.76,-56.32C722.77,-48.26 737.89,-36.08 749.93,-26.37"/>
<polygon fill="midnightblue" stroke="midnightblue" points="752.45,-28.83 758.04,-19.83 748.06,-23.38 752.45,-28.83"/>
</g>
<!-- Node13&#45;&gt;Node15 -->
<g id="edge19" class="edge">
<title>Node13&#45;&gt;Node15</title>
<path fill="none" stroke="midnightblue" d="M681.4,-56.44C660.01,-47.56 626.32,-33.56 601.98,-23.45"/>
<polygon fill="midnightblue" stroke="midnightblue" points="603.08,-20.12 592.5,-19.52 600.39,-26.58 603.08,-20.12"/>
</g>
<!-- Node16 -->
<g id="node16" class="node">
<title>Node16</title>
<g id="a_node16"><a xlink:title=" ">
<polygon fill="none" stroke="#bfbfbf" points="612,-0.5 612,-19.5 658,-19.5 658,-0.5 612,-0.5"/>
<text text-anchor="middle" x="635" y="-7.5" font-family="FreeSans.ttf" font-size="10.00">math.h</text>
</a>
</g>
</g>
<!-- Node13&#45;&gt;Node16 -->
<g id="edge20" class="edge">
<title>Node13&#45;&gt;Node16</title>
<path fill="none" stroke="midnightblue" d="M691.24,-56.32C681.23,-48.26 666.11,-36.08 654.07,-26.37"/>
<polygon fill="midnightblue" stroke="midnightblue" points="655.94,-23.38 645.96,-19.83 651.55,-28.83 655.94,-23.38"/>
</g>
<!-- Node17 -->
<g id="node17" class="node">
<title>Node17</title>
<g id="a_node17"><a xlink:title=" ">
<polygon fill="none" stroke="#bfbfbf" points="676.5,-0.5 676.5,-19.5 727.5,-19.5 727.5,-0.5 676.5,-0.5"/>
<text text-anchor="middle" x="702" y="-7.5" font-family="FreeSans.ttf" font-size="10.00">assert.h</text>
</a>
</g>
</g>
<!-- Node13&#45;&gt;Node17 -->
<g id="edge21" class="edge">
<title>Node13&#45;&gt;Node17</title>
<path fill="none" stroke="midnightblue" d="M702,-56.08C702,-49.01 702,-38.86 702,-29.99"/>
<polygon fill="midnightblue" stroke="midnightblue" points="705.5,-29.75 702,-19.75 698.5,-29.75 705.5,-29.75"/>
</g>
<!-- Node20&#45;&gt;Node3 -->
<g id="edge31" class="edge">
<title>Node20&#45;&gt;Node3</title>
<path fill="none" stroke="midnightblue" d="M251.42,-280.44C299.52,-270.96 377.09,-255.67 428.81,-245.48"/>
<polygon fill="midnightblue" stroke="midnightblue" points="429.65,-248.88 438.79,-243.52 428.3,-242.02 429.65,-248.88"/>
</g>
<!-- Node20&#45;&gt;Node4 -->
<g id="edge30" class="edge">
<title>Node20&#45;&gt;Node4</title>
<path fill="none" stroke="midnightblue" d="M210.98,-280.37C217.14,-262.54 231.39,-221.3 239.69,-197.27"/>
<polygon fill="midnightblue" stroke="midnightblue" points="243.07,-198.19 243.03,-187.59 236.46,-195.9 243.07,-198.19"/>
</g>
<!-- Node21 -->
<g id="node21" class="node">
<title>Node21</title>
<g id="a_node21"><a xlink:href="balanced__operator_8hpp.html" target="_top" xlink:title=" ">
<polygon fill="none" stroke="black" points="66,-224.5 66,-243.5 180,-243.5 180,-224.5 66,-224.5"/>
<text text-anchor="middle" x="123" y="-231.5" font-family="FreeSans.ttf" font-size="10.00">balanced_operator.hpp</text>
</a>
</g>
</g>
<!-- Node20&#45;&gt;Node21 -->
<g id="edge32" class="edge">
<title>Node20&#45;&gt;Node21</title>
<path fill="none" stroke="midnightblue" d="M194.34,-280.32C181.08,-271.9 160.73,-258.97 145.15,-249.07"/>
<polygon fill="midnightblue" stroke="midnightblue" points="146.94,-246.06 136.62,-243.65 143.19,-251.97 146.94,-246.06"/>
</g>
<!-- Node21&#45;&gt;Node4 -->
<g id="edge33" class="edge">
<title>Node21&#45;&gt;Node4</title>
<path fill="none" stroke="midnightblue" d="M142.49,-224.44C162.64,-215.6 194.32,-201.69 217.33,-191.59"/>
<polygon fill="midnightblue" stroke="midnightblue" points="218.85,-194.74 226.6,-187.52 216.04,-188.33 218.85,-194.74"/>
</g>
<!-- Node22&#45;&gt;Node3 -->
<g id="edge38" class="edge">
<title>Node22&#45;&gt;Node3</title>
<path fill="none" stroke="midnightblue" d="M403.94,-280.32C418.59,-271.82 441.13,-258.73 458.24,-248.8"/>
<polygon fill="midnightblue" stroke="midnightblue" points="460.2,-251.7 467.1,-243.65 456.69,-245.65 460.2,-251.7"/>
</g>
<!-- Node22&#45;&gt;Node4 -->
<g id="edge37" class="edge">
<title>Node22&#45;&gt;Node4</title>
<path fill="none" stroke="midnightblue" d="M333.67,-280.48C309.64,-274.14 282.94,-263.12 265,-244 253.32,-231.55 248.78,-212.32 247.03,-198"/>
<polygon fill="midnightblue" stroke="midnightblue" points="250.5,-197.45 246.15,-187.79 243.53,-198.05 250.5,-197.45"/>
</g>
<!-- Node23 -->
<g id="node23" class="node">
<title>Node23</title>
<g id="a_node23"><a xlink:title=" ">
<polygon fill="none" stroke="#bfbfbf" points="274,-224.5 274,-243.5 324,-243.5 324,-224.5 274,-224.5"/>
<text text-anchor="middle" x="299" y="-231.5" font-family="FreeSans.ttf" font-size="10.00">typeinfo</text>
</a>
</g>
</g>
<!-- Node22&#45;&gt;Node23 -->
<g id="edge35" class="edge">
<title>Node22&#45;&gt;Node23</title>
<path fill="none" stroke="midnightblue" d="M374.54,-280.32C360.5,-271.9 338.95,-258.97 322.46,-249.07"/>
<polygon fill="midnightblue" stroke="midnightblue" points="323.8,-245.8 313.42,-243.65 320.2,-251.8 323.8,-245.8"/>
</g>
<!-- Node24 -->
<g id="node24" class="node">
<title>Node24</title>
<g id="a_node24"><a xlink:title=" ">
<polygon fill="none" stroke="#bfbfbf" points="342.5,-224.5 342.5,-243.5 401.5,-243.5 401.5,-224.5 342.5,-224.5"/>
<text text-anchor="middle" x="372" y="-231.5" font-family="FreeSans.ttf" font-size="10.00">stdexcept</text>
</a>
</g>
</g>
<!-- Node22&#45;&gt;Node24 -->
<g id="edge36" class="edge">
<title>Node22&#45;&gt;Node24</title>
<path fill="none" stroke="midnightblue" d="M386.19,-280.08C383.92,-272.85 380.63,-262.41 377.79,-253.4"/>
<polygon fill="midnightblue" stroke="midnightblue" points="381.1,-252.24 374.75,-243.75 374.42,-254.34 381.1,-252.24"/>
</g>
<!-- Node25&#45;&gt;Node4 -->
<g id="edge40" class="edge">
<title>Node25&#45;&gt;Node4</title>
<path fill="none" stroke="midnightblue" d="M123.81,-336.31C87.85,-312.56 25.84,-263.45 57,-224 72.27,-204.66 131.68,-192.74 179.86,-186.07"/>
<polygon fill="midnightblue" stroke="midnightblue" points="180.5,-189.51 189.95,-184.72 179.58,-182.57 180.5,-189.51"/>
</g>
<!-- Node25&#45;&gt;Node21 -->
<g id="edge42" class="edge">
<title>Node25&#45;&gt;Node21</title>
<path fill="none" stroke="midnightblue" d="M134.76,-336.12C127.46,-326.57 118.88,-313.36 115,-300 110.54,-284.64 113.4,-266.55 116.87,-253.35"/>
<polygon fill="midnightblue" stroke="midnightblue" points="120.28,-254.17 119.8,-243.59 113.58,-252.17 120.28,-254.17"/>
</g>
<!-- Node25&#45;&gt;Node22 -->
<g id="edge41" class="edge">
<title>Node25&#45;&gt;Node22</title>
<path fill="none" stroke="midnightblue" d="M204.04,-336.47C246.98,-325.92 304.99,-311.66 344.52,-301.94"/>
<polygon fill="midnightblue" stroke="midnightblue" points="345.53,-305.29 354.4,-299.51 343.86,-298.5 345.53,-305.29"/>
</g>
<!-- Node29&#45;&gt;Node3 -->
<g id="edge50" class="edge">
<title>Node29&#45;&gt;Node3</title>
<path fill="none" stroke="midnightblue" d="M605.71,-280.44C581.19,-271.44 542.4,-257.19 514.8,-247.05"/>
<polygon fill="midnightblue" stroke="midnightblue" points="515.78,-243.68 505.18,-243.52 513.36,-250.25 515.78,-243.68"/>
</g>
<!-- Node29&#45;&gt;Node8 -->
<g id="edge49" class="edge">
<title>Node29&#45;&gt;Node8</title>
<path fill="none" stroke="midnightblue" d="M676.57,-283.79C730.36,-277.04 813.64,-263.76 838,-244 870.2,-217.88 883.83,-168.55 889.07,-141.65"/>
<polygon fill="midnightblue" stroke="midnightblue" points="892.55,-142.08 890.84,-131.63 885.66,-140.87 892.55,-142.08"/>
</g>
<!-- Node29&#45;&gt;Node13 -->
<g id="edge51" class="edge">
<title>Node29&#45;&gt;Node13</title>
<path fill="none" stroke="midnightblue" d="M651.33,-280.41C683.77,-266.57 742.69,-235.92 767,-188 786.47,-149.62 746.19,-105.22 720.72,-82.36"/>
<polygon fill="midnightblue" stroke="midnightblue" points="722.92,-79.63 713.07,-75.73 718.33,-84.92 722.92,-79.63"/>
</g>
<!-- Node29&#45;&gt;Node15 -->
<g id="edge52" class="edge">
<title>Node29&#45;&gt;Node15</title>
<path fill="none" stroke="midnightblue" d="M626.44,-280.25C621.25,-261.74 610,-217.18 610,-179 610,-179 610,-179 610,-121 610,-86.81 593.4,-49.76 582.14,-28.57"/>
<polygon fill="midnightblue" stroke="midnightblue" points="585.18,-26.83 577.28,-19.77 579.05,-30.22 585.18,-26.83"/>
</g>
</g>
</svg>
