<?xml version="1.0" encoding="UTF-8" standalone="no"?>
<!DOCTYPE svg PUBLIC "-//W3C//DTD SVG 1.1//EN"
 "http://www.w3.org/Graphics/SVG/1.1/DTD/svg11.dtd">
<!-- Generated by graphviz version 2.49.3 (20211027.1534)
 -->
<!-- Title: calculateDeapodizationValue Pages: 1 -->
<svg width="400pt" height="104pt"
 viewBox="0.00 0.00 400.00 104.00" xmlns="http://www.w3.org/2000/svg" xmlns:xlink="http://www.w3.org/1999/xlink">
<g id="graph0" class="graph" transform="scale(1 1) rotate(0) translate(4 100)">
<title>calculateDeapodizationValue</title>
<!-- Node1 -->
<g id="node1" class="node">
<title>Node1</title>
<g id="a_node1"><a xlink:title="Calculate the deapodization value for the specified grid position coord.">
<polygon fill="#bfbfbf" stroke="black" points="251,-38.5 251,-57.5 392,-57.5 392,-38.5 251,-38.5"/>
<text text-anchor="middle" x="321.5" y="-45.5" font-family="FreeSans.ttf" font-size="10.00">calculateDeapodizationValue</text>
</a>
</g>
</g>
<!-- Node2 -->
<g id="node2" class="node">
<title>Node2</title>
<g id="a_node2"><a xlink:href="gpuNUFFT__utils_8hpp.html#a5f68350161e937146aba9c7dd4aca626" target="_top" xlink:title="Calculate the deapodization value for the specified grid position (x,y,z)">
<polygon fill="none" stroke="black" points="83,-76.5 83,-95.5 209,-95.5 209,-76.5 83,-76.5"/>
<text text-anchor="middle" x="146" y="-83.5" font-family="FreeSans.ttf" font-size="10.00">calculateDeapodizationAt</text>
</a>
</g>
</g>
<!-- Node1&#45;&gt;Node2 -->
<g id="edge1" class="edge">
<title>Node1&#45;&gt;Node2</title>
<path fill="none" stroke="midnightblue" d="M266.84,-59.75C242.31,-65.13 213.62,-71.41 190.47,-76.48"/>
<polygon fill="midnightblue" stroke="midnightblue" points="267.7,-63.15 276.72,-57.59 266.2,-56.31 267.7,-63.15"/>
</g>
<!-- Node3 -->
<g id="node3" class="node">
<title>Node3</title>
<g id="a_node3"><a xlink:href="gpuNUFFT__utils_8hpp.html#ae484482e9bcc87dfc13c579e083530d3" target="_top" xlink:title="Calculate the deapodization value for the specified grid position (x,y)">
<polygon fill="none" stroke="black" points="77,-38.5 77,-57.5 215,-57.5 215,-38.5 77,-38.5"/>
<text text-anchor="middle" x="146" y="-45.5" font-family="FreeSans.ttf" font-size="10.00">calculateDeapodizationAt2D</text>
</a>
</g>
</g>
<!-- Node1&#45;&gt;Node3 -->
<g id="edge2" class="edge">
<title>Node1&#45;&gt;Node3</title>
<path fill="none" stroke="midnightblue" d="M240.9,-48C232.31,-48 223.62,-48 215.17,-48"/>
<polygon fill="midnightblue" stroke="midnightblue" points="240.93,-51.5 250.93,-48 240.93,-44.5 240.93,-51.5"/>
</g>
<!-- Node5 -->
<g id="node5" class="node">
<title>Node5</title>
<g id="a_node5"><a xlink:href="gpuNUFFT__deapo__tests_8cpp.html#a0c6f70700d5caf9eec96adff92e610a9" target="_top" xlink:title=" ">
<polygon fill="none" stroke="black" points="125.5,-0.5 125.5,-19.5 166.5,-19.5 166.5,-0.5 125.5,-0.5"/>
<text text-anchor="middle" x="146" y="-7.5" font-family="FreeSans.ttf" font-size="10.00">TEST</text>
</a>
</g>
</g>
<!-- Node1&#45;&gt;Node5 -->
<g id="edge4" class="edge">
<title>Node1&#45;&gt;Node5</title>
<path fill="none" stroke="midnightblue" d="M266.91,-36.26C232.92,-28.82 190.93,-19.62 166.73,-14.32"/>
<polygon fill="midnightblue" stroke="midnightblue" points="266.2,-39.69 276.72,-38.41 267.7,-32.85 266.2,-39.69"/>
</g>
<!-- Node4 -->
<g id="node4" class="node">
<title>Node4</title>
<g id="a_node4"><a xlink:href="gpuNUFFT__deapo__tests_8cpp.html#a6b368e0335a4f3323c0c4f0f6278eb67" target="_top" xlink:title=" ">
<polygon fill="none" stroke="black" points="0,-38.5 0,-57.5 41,-57.5 41,-38.5 0,-38.5"/>
<text text-anchor="middle" x="20.5" y="-45.5" font-family="FreeSans.ttf" font-size="10.00">TEST</text>
</a>
</g>
</g>
<!-- Node3&#45;&gt;Node4 -->
<g id="edge3" class="edge">
<title>Node3&#45;&gt;Node4</title>
<path fill="none" stroke="midnightblue" d="M66.47,-48C57.16,-48 48.4,-48 41.13,-48"/>
<polygon fill="midnightblue" stroke="midnightblue" points="66.75,-51.5 76.75,-48 66.75,-44.5 66.75,-51.5"/>
</g>
</g>
</svg>
