<?xml version="1.0" encoding="UTF-8" standalone="no"?>
<!DOCTYPE svg PUBLIC "-//W3C//DTD SVG 1.1//EN"
 "http://www.w3.org/Graphics/SVG/1.1/DTD/svg11.dtd">
<!-- Generated by graphviz version 2.49.3 (20211027.1534)
 -->
<!-- Title: copyNumpyArray Pages: 1 -->
<svg width="432pt" height="127pt"
 viewBox="0.00 0.00 432.00 126.50" xmlns="http://www.w3.org/2000/svg" xmlns:xlink="http://www.w3.org/1999/xlink">
<g id="graph0" class="graph" transform="scale(1 1) rotate(0) translate(4 122.5)">
<title>copyNumpyArray</title>
<!-- Node1 -->
<g id="node1" class="node">
<title>Node1</title>
<g id="a_node1"><a xlink:title=" ">
<polygon fill="#bfbfbf" stroke="black" points="334,-44.5 334,-63.5 424,-63.5 424,-44.5 334,-44.5"/>
<text text-anchor="middle" x="379" y="-51.5" font-family="FreeSans.ttf" font-size="10.00">copyNumpyArray</text>
</a>
</g>
</g>
<!-- Node2 -->
<g id="node2" class="node">
<title>Node2</title>
<g id="a_node2"><a xlink:href="classGpuNUFFTPythonOperator.html#a9d5913daa75877d952160c6e126bbe07" target="_top" xlink:title=" ">
<polygon fill="none" stroke="black" points="155.5,-88 155.5,-118 290.5,-118 290.5,-88 155.5,-88"/>
<text text-anchor="start" x="163.5" y="-106" font-family="FreeSans.ttf" font-size="10.00">GpuNUFFTPythonOperator</text>
<text text-anchor="middle" x="223" y="-95" font-family="FreeSans.ttf" font-size="10.00">::adj_op</text>
</a>
</g>
</g>
<!-- Node1&#45;&gt;Node2 -->
<g id="edge1" class="edge">
<title>Node1&#45;&gt;Node2</title>
<path fill="none" stroke="midnightblue" d="M338.3,-66.63C317.83,-73.14 292.72,-81.13 271.26,-87.96"/>
<polygon fill="midnightblue" stroke="midnightblue" points="339.47,-69.93 347.94,-63.56 337.35,-63.26 339.47,-69.93"/>
</g>
<!-- Node4 -->
<g id="node4" class="node">
<title>Node4</title>
<g id="a_node4"><a xlink:href="classGpuNUFFTPythonOperator.html#ad9168e25f62f4e47aefb50f2ea279b0d" target="_top" xlink:title=" ">
<polygon fill="none" stroke="black" points="153,-39 153,-69 293,-69 293,-39 153,-39"/>
<text text-anchor="start" x="161" y="-57" font-family="FreeSans.ttf" font-size="10.00">GpuNUFFTPythonOperator</text>
<text text-anchor="middle" x="223" y="-46" font-family="FreeSans.ttf" font-size="10.00">::GpuNUFFTPythonOperator</text>
</a>
</g>
</g>
<!-- Node1&#45;&gt;Node4 -->
<g id="edge3" class="edge">
<title>Node1&#45;&gt;Node4</title>
<path fill="none" stroke="midnightblue" d="M323.78,-54C313.87,-54 303.41,-54 293.14,-54"/>
<polygon fill="midnightblue" stroke="midnightblue" points="323.87,-57.5 333.87,-54 323.87,-50.5 323.87,-57.5"/>
</g>
<!-- Node5 -->
<g id="node5" class="node">
<title>Node5</title>
<g id="a_node5"><a xlink:href="classGpuNUFFTPythonOperator.html#a790d6c1885f30c640064a26f618e64ea" target="_top" xlink:title=" ">
<polygon fill="none" stroke="black" points="148,-0.5 148,-19.5 298,-19.5 298,-0.5 148,-0.5"/>
<text text-anchor="middle" x="223" y="-7.5" font-family="FreeSans.ttf" font-size="10.00">GpuNUFFTPythonOperator::op</text>
</a>
</g>
</g>
<!-- Node1&#45;&gt;Node5 -->
<g id="edge4" class="edge">
<title>Node1&#45;&gt;Node5</title>
<path fill="none" stroke="midnightblue" d="M337.17,-41.52C324.63,-37.74 310.76,-33.64 298,-30 285.71,-26.5 272.24,-22.81 260.19,-19.57"/>
<polygon fill="midnightblue" stroke="midnightblue" points="336.32,-44.91 346.9,-44.45 338.34,-38.21 336.32,-44.91"/>
</g>
<!-- Node3 -->
<g id="node3" class="node">
<title>Node3</title>
<g id="a_node3"><a xlink:href="gpuNUFFT__operator__python__factory_8cpp.html#ad1a7eaf0d60c015a4df3da44ddf58e27" target="_top" xlink:title=" ">
<polygon fill="none" stroke="black" points="0,-46.5 0,-65.5 112,-65.5 112,-46.5 0,-46.5"/>
<text text-anchor="middle" x="56" y="-53.5" font-family="FreeSans.ttf" font-size="10.00">PYBIND11_MODULE</text>
</a>
</g>
</g>
<!-- Node2&#45;&gt;Node3 -->
<g id="edge2" class="edge">
<title>Node2&#45;&gt;Node3</title>
<path fill="none" stroke="midnightblue" d="M159.46,-85.19C136.03,-78.51 110.31,-71.19 90.5,-65.54"/>
<polygon fill="midnightblue" stroke="midnightblue" points="158.76,-88.63 169.34,-88 160.68,-81.89 158.76,-88.63"/>
</g>
<!-- Node5&#45;&gt;Node3 -->
<g id="edge5" class="edge">
<title>Node5&#45;&gt;Node3</title>
<path fill="none" stroke="midnightblue" d="M176.27,-22.25C166.91,-24.79 157.13,-27.46 148,-30 128.69,-35.37 107.11,-41.53 89.82,-46.5"/>
<polygon fill="midnightblue" stroke="midnightblue" points="177.47,-25.55 186.21,-19.56 175.65,-18.79 177.47,-25.55"/>
</g>
</g>
</svg>
