<?xml version="1.0" encoding="UTF-8" standalone="no"?>
<!DOCTYPE svg PUBLIC "-//W3C//DTD SVG 1.1//EN"
 "http://www.w3.org/Graphics/SVG/1.1/DTD/svg11.dtd">
<!-- Generated by graphviz version 2.49.3 (20211027.1534)
 -->
<!-- Title: kernel Pages: 1 -->
<svg width="221pt" height="75pt"
 viewBox="0.00 0.00 221.00 75.00" xmlns="http://www.w3.org/2000/svg" xmlns:xlink="http://www.w3.org/1999/xlink">
<g id="graph0" class="graph" transform="scale(1 1) rotate(0) translate(4 71)">
<title>kernel</title>
<!-- Node1 -->
<g id="node1" class="node">
<title>Node1</title>
<g id="a_node1"><a xlink:title="Interpolation Kernel evaluation for radius.">
<polygon fill="#bfbfbf" stroke="black" points="0,-28.5 0,-47.5 43,-47.5 43,-28.5 0,-28.5"/>
<text text-anchor="middle" x="21.5" y="-35.5" font-family="FreeSans.ttf" font-size="10.00">kernel</text>
</a>
</g>
</g>
<!-- Node2 -->
<g id="node2" class="node">
<title>Node2</title>
<g id="a_node2"><a xlink:href="gpuNUFFT__utils_8hpp.html#aa7b00d423ae0e06388b55594fe1adb93" target="_top" xlink:title="beta function used in interpolation function. See Beatty et al.">
<polygon fill="none" stroke="black" points="171,-47.5 171,-66.5 213,-66.5 213,-47.5 171,-47.5"/>
<text text-anchor="middle" x="192" y="-54.5" font-family="FreeSans.ttf" font-size="10.00">BETA</text>
</a>
</g>
</g>
<!-- Node1&#45;&gt;Node2 -->
<g id="edge1" class="edge">
<title>Node1&#45;&gt;Node2</title>
<path fill="none" stroke="midnightblue" d="M43.02,-46.69C53.56,-50.69 66.74,-54.99 79,-57 106.33,-61.47 137.92,-60.97 160.57,-59.64"/>
<polygon fill="midnightblue" stroke="midnightblue" points="160.87,-63.13 170.61,-58.96 160.39,-56.14 160.87,-63.13"/>
</g>
<!-- Node3 -->
<g id="node3" class="node">
<title>Node3</title>
<g id="a_node3"><a xlink:href="gpuNUFFT__utils_8cpp.html#a5472cb661dea68a2ab2b52df187b6291" target="_top" xlink:title="Modified Kaiser Bessel function of zero&#45;th order.">
<polygon fill="none" stroke="black" points="177.5,-0.5 177.5,-19.5 206.5,-19.5 206.5,-0.5 177.5,-0.5"/>
<text text-anchor="middle" x="192" y="-7.5" font-family="FreeSans.ttf" font-size="10.00">i0</text>
</a>
</g>
</g>
<!-- Node1&#45;&gt;Node3 -->
<g id="edge2" class="edge">
<title>Node1&#45;&gt;Node3</title>
<path fill="none" stroke="midnightblue" d="M43.09,-29.72C53.66,-25.83 66.83,-21.5 79,-19 109.05,-12.84 144.45,-10.85 167.28,-10.23"/>
<polygon fill="midnightblue" stroke="midnightblue" points="167.48,-13.73 177.4,-10.03 167.33,-6.73 167.48,-13.73"/>
</g>
<!-- Node4 -->
<g id="node4" class="node">
<title>Node4</title>
<g id="a_node4"><a xlink:href="gpuNUFFT__utils_8hpp.html#ab1456ac35fe51fc4dac2e0054f6d9a50" target="_top" xlink:title="I_0 function used in interpolation function. See Beatty et al.">
<polygon fill="none" stroke="black" points="79,-28.5 79,-47.5 135,-47.5 135,-28.5 79,-28.5"/>
<text text-anchor="middle" x="107" y="-35.5" font-family="FreeSans.ttf" font-size="10.00">I0_BETA</text>
</a>
</g>
</g>
<!-- Node1&#45;&gt;Node4 -->
<g id="edge3" class="edge">
<title>Node1&#45;&gt;Node4</title>
<path fill="none" stroke="midnightblue" d="M43.14,-38C50.92,-38 60.02,-38 68.84,-38"/>
<polygon fill="midnightblue" stroke="midnightblue" points="68.98,-41.5 78.98,-38 68.98,-34.5 68.98,-41.5"/>
</g>
<!-- Node4&#45;&gt;Node2 -->
<g id="edge4" class="edge">
<title>Node4&#45;&gt;Node2</title>
<path fill="none" stroke="midnightblue" d="M135.18,-44.22C143.45,-46.11 152.58,-48.2 161.02,-50.14"/>
<polygon fill="midnightblue" stroke="midnightblue" points="160.34,-53.57 170.87,-52.39 161.9,-46.75 160.34,-53.57"/>
</g>
<!-- Node4&#45;&gt;Node3 -->
<g id="edge5" class="edge">
<title>Node4&#45;&gt;Node3</title>
<path fill="none" stroke="midnightblue" d="M135.18,-28.83C145.56,-25.33 157.31,-21.36 167.35,-17.98"/>
<polygon fill="midnightblue" stroke="midnightblue" points="168.69,-21.22 177.05,-14.71 166.46,-14.59 168.69,-21.22"/>
</g>
</g>
</svg>
