<?xml version="1.0" encoding="UTF-8" standalone="no"?>
<!DOCTYPE svg PUBLIC "-//W3C//DTD SVG 1.1//EN"
 "http://www.w3.org/Graphics/SVG/1.1/DTD/svg11.dtd">
<!-- Generated by graphviz version 2.49.3 (20211027.1534)
 -->
<!-- Title: loadGrid3Kernel Pages: 1 -->
<svg width="504pt" height="112pt"
 viewBox="0.00 0.00 504.00 112.00" xmlns="http://www.w3.org/2000/svg" xmlns:xlink="http://www.w3.org/1999/xlink">
<g id="graph0" class="graph" transform="scale(1 1) rotate(0) translate(4 108)">
<title>loadGrid3Kernel</title>
<!-- Node1 -->
<g id="node1" class="node">
<title>Node1</title>
<g id="a_node1"><a xlink:title="Loads a radius of the circularly symmetric kernel into a 1&#45;d array, with respect to the kernel radius...">
<polygon fill="#bfbfbf" stroke="black" points="0,-47.5 0,-66.5 86,-66.5 86,-47.5 0,-47.5"/>
<text text-anchor="middle" x="43" y="-54.5" font-family="FreeSans.ttf" font-size="10.00">loadGrid3Kernel</text>
</a>
</g>
</g>
<!-- Node2 -->
<g id="node2" class="node">
<title>Node2</title>
<g id="a_node2"><a xlink:href="gpuNUFFT__utils_8cpp.html#ac57bf34370dd28161430ed9f8a1d9664" target="_top" xlink:title=" ">
<polygon fill="none" stroke="black" points="122,-66.5 122,-85.5 247,-85.5 247,-66.5 122,-66.5"/>
<text text-anchor="middle" x="184.5" y="-73.5" font-family="FreeSans.ttf" font-size="10.00">calculateGrid3KernelSize</text>
</a>
</g>
</g>
<!-- Node1&#45;&gt;Node2 -->
<g id="edge1" class="edge">
<title>Node1&#45;&gt;Node2</title>
<path fill="none" stroke="midnightblue" d="M86.23,-62.75C94.39,-63.86 103.15,-65.06 111.94,-66.25"/>
<polygon fill="midnightblue" stroke="midnightblue" points="111.47,-69.72 121.85,-67.6 112.42,-62.79 111.47,-69.72"/>
</g>
<!-- Node3 -->
<g id="node3" class="node">
<title>Node3</title>
<g id="a_node3"><a xlink:href="gpuNUFFT__utils_8cpp.html#a6683a749816745e9e10c65ac77ebd1c6" target="_top" xlink:title="Loads a radius of the circularly symmetric kernel into a 1&#45;d array, with respect to the kernel radius...">
<polygon fill="none" stroke="black" points="147.5,-28.5 147.5,-47.5 221.5,-47.5 221.5,-28.5 147.5,-28.5"/>
<text text-anchor="middle" x="184.5" y="-35.5" font-family="FreeSans.ttf" font-size="10.00">load1DKernel</text>
</a>
</g>
</g>
<!-- Node1&#45;&gt;Node3 -->
<g id="edge3" class="edge">
<title>Node1&#45;&gt;Node3</title>
<path fill="none" stroke="midnightblue" d="M86.23,-51.25C102.3,-49.06 120.7,-46.55 137.13,-44.32"/>
<polygon fill="midnightblue" stroke="midnightblue" points="137.64,-47.78 147.07,-42.96 136.69,-40.84 137.64,-47.78"/>
</g>
<!-- Node2&#45;&gt;Node2 -->
<g id="edge2" class="edge">
<title>Node2&#45;&gt;Node2</title>
<path fill="none" stroke="midnightblue" d="M166,-85.76C157.01,-94.57 163.17,-104 184.5,-104 198.16,-104 205.6,-100.13 206.82,-95.03"/>
<polygon fill="midnightblue" stroke="midnightblue" points="210.05,-93.67 203,-85.76 203.57,-96.34 210.05,-93.67"/>
</g>
<!-- Node4 -->
<g id="node4" class="node">
<title>Node4</title>
<g id="a_node4"><a xlink:href="gpuNUFFT__utils_8hpp.html#a18dd3c6c4b8ac5f6947f3dc1c59651bc" target="_top" xlink:title="Interpolation Kernel evaluation for radius.">
<polygon fill="none" stroke="black" points="283,-28.5 283,-47.5 326,-47.5 326,-28.5 283,-28.5"/>
<text text-anchor="middle" x="304.5" y="-35.5" font-family="FreeSans.ttf" font-size="10.00">kernel</text>
</a>
</g>
</g>
<!-- Node3&#45;&gt;Node4 -->
<g id="edge4" class="edge">
<title>Node3&#45;&gt;Node4</title>
<path fill="none" stroke="midnightblue" d="M221.55,-38C237.85,-38 256.92,-38 272.56,-38"/>
<polygon fill="midnightblue" stroke="midnightblue" points="272.76,-41.5 282.76,-38 272.76,-34.5 272.76,-41.5"/>
</g>
<!-- Node5 -->
<g id="node5" class="node">
<title>Node5</title>
<g id="a_node5"><a xlink:href="gpuNUFFT__utils_8hpp.html#aa7b00d423ae0e06388b55594fe1adb93" target="_top" xlink:title="beta function used in interpolation function. See Beatty et al.">
<polygon fill="none" stroke="black" points="454,-47.5 454,-66.5 496,-66.5 496,-47.5 454,-47.5"/>
<text text-anchor="middle" x="475" y="-54.5" font-family="FreeSans.ttf" font-size="10.00">BETA</text>
</a>
</g>
</g>
<!-- Node4&#45;&gt;Node5 -->
<g id="edge5" class="edge">
<title>Node4&#45;&gt;Node5</title>
<path fill="none" stroke="midnightblue" d="M326.02,-46.69C336.56,-50.69 349.74,-54.99 362,-57 389.33,-61.47 420.92,-60.97 443.57,-59.64"/>
<polygon fill="midnightblue" stroke="midnightblue" points="443.87,-63.13 453.61,-58.96 443.39,-56.14 443.87,-63.13"/>
</g>
<!-- Node6 -->
<g id="node6" class="node">
<title>Node6</title>
<g id="a_node6"><a xlink:href="gpuNUFFT__utils_8cpp.html#a5472cb661dea68a2ab2b52df187b6291" target="_top" xlink:title="Modified Kaiser Bessel function of zero&#45;th order.">
<polygon fill="none" stroke="black" points="460.5,-0.5 460.5,-19.5 489.5,-19.5 489.5,-0.5 460.5,-0.5"/>
<text text-anchor="middle" x="475" y="-7.5" font-family="FreeSans.ttf" font-size="10.00">i0</text>
</a>
</g>
</g>
<!-- Node4&#45;&gt;Node6 -->
<g id="edge6" class="edge">
<title>Node4&#45;&gt;Node6</title>
<path fill="none" stroke="midnightblue" d="M326.09,-29.72C336.66,-25.83 349.83,-21.5 362,-19 392.05,-12.84 427.45,-10.85 450.28,-10.23"/>
<polygon fill="midnightblue" stroke="midnightblue" points="450.48,-13.73 460.4,-10.03 450.33,-6.73 450.48,-13.73"/>
</g>
<!-- Node7 -->
<g id="node7" class="node">
<title>Node7</title>
<g id="a_node7"><a xlink:href="gpuNUFFT__utils_8hpp.html#ab1456ac35fe51fc4dac2e0054f6d9a50" target="_top" xlink:title="I_0 function used in interpolation function. See Beatty et al.">
<polygon fill="none" stroke="black" points="362,-28.5 362,-47.5 418,-47.5 418,-28.5 362,-28.5"/>
<text text-anchor="middle" x="390" y="-35.5" font-family="FreeSans.ttf" font-size="10.00">I0_BETA</text>
</a>
</g>
</g>
<!-- Node4&#45;&gt;Node7 -->
<g id="edge7" class="edge">
<title>Node4&#45;&gt;Node7</title>
<path fill="none" stroke="midnightblue" d="M326.14,-38C333.92,-38 343.02,-38 351.84,-38"/>
<polygon fill="midnightblue" stroke="midnightblue" points="351.98,-41.5 361.98,-38 351.98,-34.5 351.98,-41.5"/>
</g>
<!-- Node7&#45;&gt;Node5 -->
<g id="edge8" class="edge">
<title>Node7&#45;&gt;Node5</title>
<path fill="none" stroke="midnightblue" d="M418.18,-44.22C426.45,-46.11 435.58,-48.2 444.02,-50.14"/>
<polygon fill="midnightblue" stroke="midnightblue" points="443.34,-53.57 453.87,-52.39 444.9,-46.75 443.34,-53.57"/>
</g>
<!-- Node7&#45;&gt;Node6 -->
<g id="edge9" class="edge">
<title>Node7&#45;&gt;Node6</title>
<path fill="none" stroke="midnightblue" d="M418.18,-28.83C428.56,-25.33 440.31,-21.36 450.35,-17.98"/>
<polygon fill="midnightblue" stroke="midnightblue" points="451.69,-21.22 460.05,-14.71 449.46,-14.59 451.69,-21.22"/>
</g>
</g>
</svg>
