<?xml version="1.0" encoding="UTF-8" standalone="no"?>
<!DOCTYPE svg PUBLIC "-//W3C//DTD SVG 1.1//EN"
 "http://www.w3.org/Graphics/SVG/1.1/DTD/svg11.dtd">
<!-- Generated by graphviz version 2.49.3 (20211027.1534)
 -->
<!-- Title: performTextureConvolution Pages: 1 -->
<svg width="368pt" height="88pt"
 viewBox="0.00 0.00 368.00 88.00" xmlns="http://www.w3.org/2000/svg" xmlns:xlink="http://www.w3.org/1999/xlink">
<g id="graph0" class="graph" transform="scale(1 1) rotate(0) translate(4 84)">
<title>performTextureConvolution</title>
<!-- Node1 -->
<g id="node1" class="node">
<title>Node1</title>
<g id="a_node1"><a xlink:title="Adjoint gridding convolution implementation on GPU using textures for kernel lookup.">
<polygon fill="#bfbfbf" stroke="black" points="227,-30 227,-49 360,-49 360,-30 227,-30"/>
<text text-anchor="middle" x="293.5" y="-37" font-family="FreeSans.ttf" font-size="10.00">performTextureConvolution</text>
</a>
</g>
</g>
<!-- Node2 -->
<g id="node2" class="node">
<title>Node2</title>
<g id="a_node2"><a xlink:href="classgpuNUFFT_1_1BalancedTextureGpuNUFFTOperator.html#a76b6f5c49769489e41af44e5e1e8600b" target="_top" xlink:title="Virtual adjoint convolution call, which can be used by sub&#45;classes to add behaviour to the gridding s...">
<polygon fill="none" stroke="black" points="9,-49.5 9,-79.5 182,-79.5 182,-49.5 9,-49.5"/>
<text text-anchor="start" x="17" y="-67.5" font-family="FreeSans.ttf" font-size="10.00">gpuNUFFT::BalancedTexture</text>
<text text-anchor="middle" x="95.5" y="-56.5" font-family="FreeSans.ttf" font-size="10.00">GpuNUFFTOperator::adjConvolution</text>
</a>
</g>
</g>
<!-- Node1&#45;&gt;Node2 -->
<g id="edge1" class="edge">
<title>Node1&#45;&gt;Node2</title>
<path fill="none" stroke="midnightblue" d="M216.71,-49.17C205.41,-50.61 193.68,-52.1 182.19,-53.57"/>
<polygon fill="midnightblue" stroke="midnightblue" points="217.49,-52.6 226.96,-47.86 216.6,-45.65 217.49,-52.6"/>
</g>
<!-- Node3 -->
<g id="node3" class="node">
<title>Node3</title>
<g id="a_node3"><a xlink:href="classgpuNUFFT_1_1TextureGpuNUFFTOperator.html#aeda95a2995806f8362fe135eb7e4ebdb" target="_top" xlink:title="Virtual adjoint convolution call, which can be used by sub&#45;classes to add behaviour to the gridding s...">
<polygon fill="none" stroke="black" points="0,-0.5 0,-30.5 191,-30.5 191,-0.5 0,-0.5"/>
<text text-anchor="start" x="8" y="-18.5" font-family="FreeSans.ttf" font-size="10.00">gpuNUFFT::TextureGpuNUFFTOperator</text>
<text text-anchor="middle" x="95.5" y="-7.5" font-family="FreeSans.ttf" font-size="10.00">::adjConvolution</text>
</a>
</g>
</g>
<!-- Node1&#45;&gt;Node3 -->
<g id="edge2" class="edge">
<title>Node1&#45;&gt;Node3</title>
<path fill="none" stroke="midnightblue" d="M216.87,-30.24C208.49,-29.21 199.88,-28.16 191.3,-27.11"/>
<polygon fill="midnightblue" stroke="midnightblue" points="216.61,-33.73 226.96,-31.47 217.46,-26.79 216.61,-33.73"/>
</g>
</g>
</svg>
