<?xml version="1.0" encoding="UTF-8" standalone="no"?>
<!DOCTYPE svg PUBLIC "-//W3C//DTD SVG 1.1//EN"
 "http://www.w3.org/Graphics/SVG/1.1/DTD/svg11.dtd">
<!-- Generated by graphviz version 2.49.3 (20211027.1534)
 -->
<!-- Title: CUDA/inc/gpuNUFFT_types.hpp Pages: 1 -->
<svg width="1573pt" height="408pt"
 viewBox="0.00 0.00 1572.77 408.00" xmlns="http://www.w3.org/2000/svg" xmlns:xlink="http://www.w3.org/1999/xlink">
<g id="graph0" class="graph" transform="scale(1 1) rotate(0) translate(4 404)">
<title>CUDA/inc/gpuNUFFT_types.hpp</title>
<!-- Node1 -->
<g id="node1" class="node">
<title>Node1</title>
<g id="a_node1"><a xlink:title="Definition of gpuNUFFT defined types.">
<polygon fill="#bfbfbf" stroke="black" points="691,-380.5 691,-399.5 849,-399.5 849,-380.5 691,-380.5"/>
<text text-anchor="middle" x="770" y="-387.5" font-family="FreeSans.ttf" font-size="10.00">CUDA/inc/gpuNUFFT_types.hpp</text>
</a>
</g>
</g>
<!-- Node2 -->
<g id="node2" class="node">
<title>Node2</title>
<g id="a_node2"><a xlink:href="balanced__gpuNUFFT__operator_8hpp.html" target="_top" xlink:title=" ">
<polygon fill="none" stroke="black" points="806,-257.5 806,-287.5 962,-287.5 962,-257.5 806,-257.5"/>
<text text-anchor="start" x="814" y="-275.5" font-family="FreeSans.ttf" font-size="10.00">CUDA/inc/balanced_gpuNUFFT</text>
<text text-anchor="middle" x="884" y="-264.5" font-family="FreeSans.ttf" font-size="10.00">_operator.hpp</text>
</a>
</g>
</g>
<!-- Node1&#45;&gt;Node2 -->
<g id="edge1" class="edge">
<title>Node1&#45;&gt;Node2</title>
<path fill="none" stroke="midnightblue" d="M785.65,-373.14C808.03,-350.47 848.8,-309.17 870.14,-287.55"/>
<polygon fill="midnightblue" stroke="midnightblue" points="783.1,-370.74 778.57,-380.32 788.08,-375.66 783.1,-370.74"/>
</g>
<!-- Node15 -->
<g id="node15" class="node">
<title>Node15</title>
<g id="a_node15"><a xlink:href="balanced__operator_8hpp.html" target="_top" xlink:title=" ">
<polygon fill="none" stroke="black" points="580.5,-324.5 580.5,-343.5 741.5,-343.5 741.5,-324.5 580.5,-324.5"/>
<text text-anchor="middle" x="661" y="-331.5" font-family="FreeSans.ttf" font-size="10.00">CUDA/inc/balanced_operator.hpp</text>
</a>
</g>
</g>
<!-- Node1&#45;&gt;Node15 -->
<g id="edge17" class="edge">
<title>Node1&#45;&gt;Node15</title>
<path fill="none" stroke="midnightblue" d="M743.48,-375.86C723.27,-365.85 696.01,-352.35 678.47,-343.65"/>
<polygon fill="midnightblue" stroke="midnightblue" points="741.97,-379.02 752.49,-380.32 745.08,-372.75 741.97,-379.02"/>
</g>
<!-- Node16 -->
<g id="node16" class="node">
<title>Node16</title>
<g id="a_node16"><a xlink:href="balanced__texture__gpuNUFFT__operator_8hpp.html" target="_top" xlink:title=" ">
<polygon fill="none" stroke="black" points="419.5,-190.5 419.5,-220.5 556.5,-220.5 556.5,-190.5 419.5,-190.5"/>
<text text-anchor="start" x="427.5" y="-208.5" font-family="FreeSans.ttf" font-size="10.00">CUDA/inc/balanced_texture</text>
<text text-anchor="middle" x="488" y="-197.5" font-family="FreeSans.ttf" font-size="10.00">_gpuNUFFT_operator.hpp</text>
</a>
</g>
</g>
<!-- Node1&#45;&gt;Node16 -->
<g id="edge22" class="edge">
<title>Node1&#45;&gt;Node16</title>
<path fill="none" stroke="midnightblue" d="M680.63,-384.05C643.89,-378.34 602.64,-366.83 571,-344 526.91,-312.18 501.83,-249.06 492.38,-220.78"/>
<polygon fill="midnightblue" stroke="midnightblue" points="680.46,-387.57 690.86,-385.52 681.45,-380.64 680.46,-387.57"/>
</g>
<!-- Node18 -->
<g id="node18" class="node">
<title>Node18</title>
<g id="a_node18"><a xlink:href="gpuNUFFT__operator_8hpp.html" target="_top" xlink:title=" ">
<polygon fill="none" stroke="black" points="1016,-324.5 1016,-343.5 1186,-343.5 1186,-324.5 1016,-324.5"/>
<text text-anchor="middle" x="1101" y="-331.5" font-family="FreeSans.ttf" font-size="10.00">CUDA/inc/gpuNUFFT_operator.hpp</text>
</a>
</g>
</g>
<!-- Node1&#45;&gt;Node18 -->
<g id="edge23" class="edge">
<title>Node1&#45;&gt;Node18</title>
<path fill="none" stroke="midnightblue" d="M832.58,-378.79C895.12,-368.59 990.19,-353.08 1048.8,-343.52"/>
<polygon fill="midnightblue" stroke="midnightblue" points="831.75,-375.38 822.45,-380.44 832.88,-382.29 831.75,-375.38"/>
</g>
<!-- Node24 -->
<g id="node24" class="node">
<title>Node24</title>
<g id="a_node24"><a xlink:href="texture__gpuNUFFT__operator_8hpp.html" target="_top" xlink:title=" ">
<polygon fill="none" stroke="black" points="642,-257.5 642,-287.5 788,-287.5 788,-257.5 642,-257.5"/>
<text text-anchor="start" x="650" y="-275.5" font-family="FreeSans.ttf" font-size="10.00">CUDA/inc/texture_gpuNUFFT</text>
<text text-anchor="middle" x="715" y="-264.5" font-family="FreeSans.ttf" font-size="10.00">_operator.hpp</text>
</a>
</g>
</g>
<!-- Node1&#45;&gt;Node24 -->
<g id="edge46" class="edge">
<title>Node1&#45;&gt;Node24</title>
<path fill="none" stroke="midnightblue" d="M766.3,-370.36C763.24,-357.02 758.22,-338.87 751,-324 744.61,-310.83 734.85,-297.4 727.1,-287.7"/>
<polygon fill="midnightblue" stroke="midnightblue" points="762.9,-371.2 768.41,-380.25 769.75,-369.74 762.9,-371.2"/>
</g>
<!-- Node3 -->
<g id="node3" class="node">
<title>Node3</title>
<g id="a_node3"><a xlink:href="gpuNUFFT__operator__factory_8hpp.html" target="_top" xlink:title=" ">
<polygon fill="none" stroke="black" points="781,-123.5 781,-153.5 933,-153.5 933,-123.5 781,-123.5"/>
<text text-anchor="start" x="789" y="-141.5" font-family="FreeSans.ttf" font-size="10.00">CUDA/inc/gpuNUFFT_operator</text>
<text text-anchor="middle" x="857" y="-130.5" font-family="FreeSans.ttf" font-size="10.00">_factory.hpp</text>
</a>
</g>
</g>
<!-- Node2&#45;&gt;Node3 -->
<g id="edge2" class="edge">
<title>Node2&#45;&gt;Node3</title>
<path fill="none" stroke="midnightblue" d="M918.52,-251.43C929.01,-243.42 939.27,-233.17 945,-221 950.86,-208.53 951.9,-201.92 945,-190 935.29,-173.23 917.68,-161.55 900.75,-153.68"/>
<polygon fill="midnightblue" stroke="midnightblue" points="916.28,-248.73 910.14,-257.37 920.32,-254.44 916.28,-248.73"/>
</g>
<!-- Node14 -->
<g id="node14" class="node">
<title>Node14</title>
<g id="a_node14"><a xlink:href="balanced__gpuNUFFT__operator_8cpp.html" target="_top" xlink:title=" ">
<polygon fill="none" stroke="black" points="778.5,-190.5 778.5,-220.5 935.5,-220.5 935.5,-190.5 778.5,-190.5"/>
<text text-anchor="start" x="786.5" y="-208.5" font-family="FreeSans.ttf" font-size="10.00">CUDA/src/balanced_gpuNUFFT</text>
<text text-anchor="middle" x="857" y="-197.5" font-family="FreeSans.ttf" font-size="10.00">_operator.cpp</text>
</a>
</g>
</g>
<!-- Node2&#45;&gt;Node14 -->
<g id="edge16" class="edge">
<title>Node2&#45;&gt;Node14</title>
<path fill="none" stroke="midnightblue" d="M874.23,-247.99C870.42,-238.8 866.17,-228.58 862.85,-220.58"/>
<polygon fill="midnightblue" stroke="midnightblue" points="871.07,-249.5 878.14,-257.4 877.54,-246.82 871.07,-249.5"/>
</g>
<!-- Node4 -->
<g id="node4" class="node">
<title>Node4</title>
<g id="a_node4"><a xlink:href="gpuNUFFT__operator__factory_8cpp.html" target="_top" xlink:title=" ">
<polygon fill="none" stroke="black" points="1132.5,-56.5 1132.5,-86.5 1285.5,-86.5 1285.5,-56.5 1132.5,-56.5"/>
<text text-anchor="start" x="1140.5" y="-74.5" font-family="FreeSans.ttf" font-size="10.00">CUDA/src/gpuNUFFT_operator</text>
<text text-anchor="middle" x="1209" y="-63.5" font-family="FreeSans.ttf" font-size="10.00">_factory.cpp</text>
</a>
</g>
</g>
<!-- Node3&#45;&gt;Node4 -->
<g id="edge3" class="edge">
<title>Node3&#45;&gt;Node4</title>
<path fill="none" stroke="midnightblue" d="M942.84,-121.65C1000.93,-110.92 1076.96,-96.88 1132.89,-86.55"/>
<polygon fill="midnightblue" stroke="midnightblue" points="942.14,-118.22 932.95,-123.48 943.41,-125.1 942.14,-118.22"/>
</g>
<!-- Node5 -->
<g id="node5" class="node">
<title>Node5</title>
<g id="a_node5"><a xlink:href="gpuNUFFT__forward__tests_8cpp.html" target="_top" xlink:title=" ">
<polygon fill="none" stroke="black" points="152.5,-56.5 152.5,-86.5 303.5,-86.5 303.5,-56.5 152.5,-56.5"/>
<text text-anchor="start" x="160.5" y="-74.5" font-family="FreeSans.ttf" font-size="10.00">CUDA/test/gpu/forward</text>
<text text-anchor="middle" x="228" y="-63.5" font-family="FreeSans.ttf" font-size="10.00">/gpuNUFFT_forward_tests.cpp</text>
</a>
</g>
</g>
<!-- Node3&#45;&gt;Node5 -->
<g id="edge4" class="edge">
<title>Node3&#45;&gt;Node5</title>
<path fill="none" stroke="midnightblue" d="M770.52,-131.52C663.01,-123.62 474.02,-108.18 313,-87 310.03,-86.61 307.01,-86.19 303.96,-85.75"/>
<polygon fill="midnightblue" stroke="midnightblue" points="770.44,-135.02 780.66,-132.26 770.95,-128.04 770.44,-135.02"/>
</g>
<!-- Node6 -->
<g id="node6" class="node">
<title>Node6</title>
<g id="a_node6"><a xlink:href="gpuNUFFT__2D__conv__tests_8cpp.html" target="_top" xlink:title=" ">
<polygon fill="none" stroke="black" points="322,-56.5 322,-86.5 456,-86.5 456,-56.5 322,-56.5"/>
<text text-anchor="start" x="330" y="-74.5" font-family="FreeSans.ttf" font-size="10.00">CUDA/test/gpu/gpuNUFFT</text>
<text text-anchor="middle" x="389" y="-63.5" font-family="FreeSans.ttf" font-size="10.00">_2D_conv_tests.cpp</text>
</a>
</g>
</g>
<!-- Node3&#45;&gt;Node6 -->
<g id="edge5" class="edge">
<title>Node3&#45;&gt;Node6</title>
<path fill="none" stroke="midnightblue" d="M770.95,-127.93C691.38,-118.72 569.94,-103.76 465,-87 462.08,-86.53 459.1,-86.04 456.1,-85.53"/>
<polygon fill="midnightblue" stroke="midnightblue" points="770.59,-131.41 780.92,-129.08 771.39,-124.46 770.59,-131.41"/>
</g>
<!-- Node7 -->
<g id="node7" class="node">
<title>Node7</title>
<g id="a_node7"><a xlink:href="gpuNUFFT__conv__tests_8cpp.html" target="_top" xlink:title=" ">
<polygon fill="none" stroke="black" points="474,-56.5 474,-86.5 608,-86.5 608,-56.5 474,-56.5"/>
<text text-anchor="start" x="482" y="-74.5" font-family="FreeSans.ttf" font-size="10.00">CUDA/test/gpu/gpuNUFFT</text>
<text text-anchor="middle" x="541" y="-63.5" font-family="FreeSans.ttf" font-size="10.00">_conv_tests.cpp</text>
</a>
</g>
</g>
<!-- Node3&#45;&gt;Node7 -->
<g id="edge6" class="edge">
<title>Node3&#45;&gt;Node7</title>
<path fill="none" stroke="midnightblue" d="M778.9,-121.44C726.51,-110.66 658.21,-96.61 608.24,-86.33"/>
<polygon fill="midnightblue" stroke="midnightblue" points="778.32,-124.89 788.82,-123.48 779.73,-118.03 778.32,-124.89"/>
</g>
<!-- Node8 -->
<g id="node8" class="node">
<title>Node8</title>
<g id="a_node8"><a xlink:href="gpuNUFFT__deapo__tests_8cpp.html" target="_top" xlink:title=" ">
<polygon fill="none" stroke="black" points="790,-56.5 790,-86.5 924,-86.5 924,-56.5 790,-56.5"/>
<text text-anchor="start" x="798" y="-74.5" font-family="FreeSans.ttf" font-size="10.00">CUDA/test/gpu/gpuNUFFT</text>
<text text-anchor="middle" x="857" y="-63.5" font-family="FreeSans.ttf" font-size="10.00">_deapo_tests.cpp</text>
</a>
</g>
</g>
<!-- Node3&#45;&gt;Node8 -->
<g id="edge7" class="edge">
<title>Node3&#45;&gt;Node8</title>
<path fill="none" stroke="midnightblue" d="M857,-113.11C857,-104.15 857,-94.32 857,-86.58"/>
<polygon fill="midnightblue" stroke="midnightblue" points="853.5,-113.4 857,-123.4 860.5,-113.4 853.5,-113.4"/>
</g>
<!-- Node9 -->
<g id="node9" class="node">
<title>Node9</title>
<g id="a_node9"><a xlink:href="gpuNUFFT__fft__tests_8cpp.html" target="_top" xlink:title=" ">
<polygon fill="none" stroke="black" points="942,-56.5 942,-86.5 1076,-86.5 1076,-56.5 942,-56.5"/>
<text text-anchor="start" x="950" y="-74.5" font-family="FreeSans.ttf" font-size="10.00">CUDA/test/gpu/gpuNUFFT</text>
<text text-anchor="middle" x="1009" y="-63.5" font-family="FreeSans.ttf" font-size="10.00">_fft_tests.cpp</text>
</a>
</g>
</g>
<!-- Node3&#45;&gt;Node9 -->
<g id="edge8" class="edge">
<title>Node3&#45;&gt;Node9</title>
<path fill="none" stroke="midnightblue" d="M899.31,-119.41C923.58,-109.03 953.59,-96.2 976.08,-86.58"/>
<polygon fill="midnightblue" stroke="midnightblue" points="897.8,-116.25 889.98,-123.4 900.55,-122.68 897.8,-116.25"/>
</g>
<!-- Node10 -->
<g id="node10" class="node">
<title>Node10</title>
<g id="a_node10"><a xlink:href="python__factory_8hpp.html" target="_top" xlink:title=" ">
<polygon fill="none" stroke="black" points="626.5,-62 626.5,-81 771.5,-81 771.5,-62 626.5,-62"/>
<text text-anchor="middle" x="699" y="-69" font-family="FreeSans.ttf" font-size="10.00">python/inc/python_factory.hpp</text>
</a>
</g>
</g>
<!-- Node3&#45;&gt;Node10 -->
<g id="edge9" class="edge">
<title>Node3&#45;&gt;Node10</title>
<path fill="none" stroke="midnightblue" d="M813.15,-119.46C782.62,-106.9 743.3,-90.72 719.68,-81.01"/>
<polygon fill="midnightblue" stroke="midnightblue" points="812.14,-122.83 822.72,-123.4 814.8,-116.35 812.14,-122.83"/>
</g>
<!-- Node12 -->
<g id="node12" class="node">
<title>Node12</title>
<g id="a_node12"><a xlink:href="python__factory_8cpp.html" target="_top" xlink:title=" ">
<polygon fill="none" stroke="black" points="825,-0.5 825,-19.5 971,-19.5 971,-0.5 825,-0.5"/>
<text text-anchor="middle" x="898" y="-7.5" font-family="FreeSans.ttf" font-size="10.00">python/src/python_factory.cpp</text>
</a>
</g>
</g>
<!-- Node3&#45;&gt;Node12 -->
<g id="edge15" class="edge">
<title>Node3&#45;&gt;Node12</title>
<path fill="none" stroke="midnightblue" d="M943.39,-129.51C1000.18,-122.26 1067.16,-109.22 1085,-87 1120.26,-43.07 1037.51,-24.34 971.04,-16.49"/>
<polygon fill="midnightblue" stroke="midnightblue" points="942.79,-126.06 933.29,-130.75 943.64,-133.01 942.79,-126.06"/>
</g>
<!-- Node13 -->
<g id="node13" class="node">
<title>Node13</title>
<g id="a_node13"><a xlink:href="python__utils_8hpp.html" target="_top" xlink:title=" ">
<polygon fill="none" stroke="black" points="0,-62 0,-81 134,-81 134,-62 0,-62"/>
<text text-anchor="middle" x="67" y="-69" font-family="FreeSans.ttf" font-size="10.00">python/inc/python_utils.hpp</text>
</a>
</g>
</g>
<!-- Node3&#45;&gt;Node13 -->
<g id="edge12" class="edge">
<title>Node3&#45;&gt;Node13</title>
<path fill="none" stroke="midnightblue" d="M770.5,-132.66C607.83,-123.36 262,-102.5 143,-87 131.28,-85.47 118.64,-83.28 107.09,-81.06"/>
<polygon fill="midnightblue" stroke="midnightblue" points="770.77,-136.19 780.95,-133.26 771.17,-129.2 770.77,-136.19"/>
</g>
<!-- Node11 -->
<g id="node11" class="node">
<title>Node11</title>
<g id="a_node11"><a xlink:href="python__bindings_8cpp.html" target="_top" xlink:title=" ">
<polygon fill="none" stroke="black" points="423,-0.5 423,-19.5 575,-19.5 575,-0.5 423,-0.5"/>
<text text-anchor="middle" x="499" y="-7.5" font-family="FreeSans.ttf" font-size="10.00">python/src/python_bindings.cpp</text>
</a>
</g>
</g>
<!-- Node10&#45;&gt;Node11 -->
<g id="edge10" class="edge">
<title>Node10&#45;&gt;Node11</title>
<path fill="none" stroke="midnightblue" d="M660.44,-59.03C621.57,-47.46 562.48,-29.88 527.6,-19.51"/>
<polygon fill="midnightblue" stroke="midnightblue" points="659.76,-62.48 670.34,-61.98 661.76,-55.77 659.76,-62.48"/>
</g>
<!-- Node10&#45;&gt;Node12 -->
<g id="edge11" class="edge">
<title>Node10&#45;&gt;Node12</title>
<path fill="none" stroke="midnightblue" d="M737.37,-59.03C776.04,-47.46 834.84,-29.88 869.54,-19.51"/>
<polygon fill="midnightblue" stroke="midnightblue" points="736.09,-55.76 727.51,-61.98 738.1,-62.46 736.09,-55.76"/>
</g>
<!-- Node13&#45;&gt;Node11 -->
<g id="edge13" class="edge">
<title>Node13&#45;&gt;Node11</title>
<path fill="none" stroke="midnightblue" d="M119.11,-60.11C127.1,-58.65 135.26,-57.23 143,-56 239.14,-40.77 350.54,-27.37 422.76,-19.23"/>
<polygon fill="midnightblue" stroke="midnightblue" points="118.31,-56.7 109.13,-61.97 119.6,-63.58 118.31,-56.7"/>
</g>
<!-- Node13&#45;&gt;Node12 -->
<g id="edge14" class="edge">
<title>Node13&#45;&gt;Node12</title>
<path fill="none" stroke="midnightblue" d="M116.74,-60.06C125.46,-58.5 134.47,-57.06 143,-56 391.87,-24.97 689.66,-15.19 824.83,-12.23"/>
<polygon fill="midnightblue" stroke="midnightblue" points="115.88,-56.66 106.68,-61.93 117.16,-63.54 115.88,-56.66"/>
</g>
<!-- Node15&#45;&gt;Node2 -->
<g id="edge18" class="edge">
<title>Node15&#45;&gt;Node2</title>
<path fill="none" stroke="midnightblue" d="M702.76,-321.86C739.17,-312.14 792.16,-298.01 831.44,-287.52"/>
<polygon fill="midnightblue" stroke="midnightblue" points="701.71,-318.52 692.95,-324.48 703.51,-325.28 701.71,-318.52"/>
</g>
<!-- Node15&#45;&gt;Node16 -->
<g id="edge19" class="edge">
<title>Node15&#45;&gt;Node16</title>
<path fill="none" stroke="midnightblue" d="M640.98,-318.36C607.47,-293.86 540.48,-244.87 507.4,-220.68"/>
<polygon fill="midnightblue" stroke="midnightblue" points="638.97,-321.23 649.11,-324.31 643.1,-315.58 638.97,-321.23"/>
</g>
<!-- Node16&#45;&gt;Node3 -->
<g id="edge20" class="edge">
<title>Node16&#45;&gt;Node3</title>
<path fill="none" stroke="midnightblue" d="M566.85,-189.68C644.97,-175.61 724.18,-161.99 780.71,-152.37"/>
<polygon fill="midnightblue" stroke="midnightblue" points="566.06,-186.26 556.84,-191.48 567.3,-193.15 566.06,-186.26"/>
</g>
<!-- Node17 -->
<g id="node17" class="node">
<title>Node17</title>
<g id="a_node17"><a xlink:href="balanced__texture__gpuNUFFT__operator_8cpp.html" target="_top" xlink:title=" ">
<polygon fill="none" stroke="black" points="419.5,-123.5 419.5,-153.5 556.5,-153.5 556.5,-123.5 419.5,-123.5"/>
<text text-anchor="start" x="427.5" y="-141.5" font-family="FreeSans.ttf" font-size="10.00">CUDA/src/balanced_texture</text>
<text text-anchor="middle" x="488" y="-130.5" font-family="FreeSans.ttf" font-size="10.00">_gpuNUFFT_operator.cpp</text>
</a>
</g>
</g>
<!-- Node16&#45;&gt;Node17 -->
<g id="edge21" class="edge">
<title>Node16&#45;&gt;Node17</title>
<path fill="none" stroke="midnightblue" d="M488,-180.11C488,-171.15 488,-161.32 488,-153.58"/>
<polygon fill="midnightblue" stroke="midnightblue" points="484.5,-180.4 488,-190.4 491.5,-180.4 484.5,-180.4"/>
</g>
<!-- Node18&#45;&gt;Node2 -->
<g id="edge24" class="edge">
<title>Node18&#45;&gt;Node2</title>
<path fill="none" stroke="midnightblue" d="M1059.91,-321.73C1024.5,-312.02 973.21,-297.96 935.14,-287.52"/>
<polygon fill="midnightblue" stroke="midnightblue" points="1059.34,-325.21 1069.91,-324.48 1061.19,-318.46 1059.34,-325.21"/>
</g>
<!-- Node18&#45;&gt;Node3 -->
<g id="edge38" class="edge">
<title>Node18&#45;&gt;Node3</title>
<path fill="none" stroke="midnightblue" d="M1088.02,-316.4C1064.93,-287.71 1014.15,-228.27 961,-190 940.31,-175.11 914.56,-162.56 893.85,-153.7"/>
<polygon fill="midnightblue" stroke="midnightblue" points="1085.3,-318.61 1094.27,-324.26 1090.78,-314.25 1085.3,-318.61"/>
</g>
<!-- Node19 -->
<g id="node19" class="node">
<title>Node19</title>
<g id="a_node19"><a xlink:href="cuda__utils_8hpp.html" target="_top" xlink:title="Util functions for CUDA memory and texture management.">
<polygon fill="none" stroke="black" points="1228.5,-263 1228.5,-282 1353.5,-282 1353.5,-263 1228.5,-263"/>
<text text-anchor="middle" x="1291" y="-270" font-family="FreeSans.ttf" font-size="10.00">CUDA/inc/cuda_utils.hpp</text>
</a>
</g>
</g>
<!-- Node18&#45;&gt;Node19 -->
<g id="edge25" class="edge">
<title>Node18&#45;&gt;Node19</title>
<path fill="none" stroke="midnightblue" d="M1138.1,-321.38C1175.04,-309.82 1230.84,-292.34 1263.83,-282.01"/>
<polygon fill="midnightblue" stroke="midnightblue" points="1136.72,-318.15 1128.22,-324.48 1138.81,-324.83 1136.72,-318.15"/>
</g>
<!-- Node21 -->
<g id="node21" class="node">
<title>Node21</title>
<g id="a_node21"><a xlink:href="gpuNUFFT__operator_8cpp.html" target="_top" xlink:title=" ">
<polygon fill="none" stroke="black" points="1359.5,-62 1359.5,-81 1530.5,-81 1530.5,-62 1359.5,-62"/>
<text text-anchor="middle" x="1445" y="-69" font-family="FreeSans.ttf" font-size="10.00">CUDA/src/gpuNUFFT_operator.cpp</text>
</a>
</g>
</g>
<!-- Node18&#45;&gt;Node21 -->
<g id="edge45" class="edge">
<title>Node18&#45;&gt;Node21</title>
<path fill="none" stroke="midnightblue" d="M1196.4,-324.38C1317.87,-311.06 1516.77,-280.55 1556,-221 1592.39,-165.77 1498.83,-103.52 1460.5,-81.11"/>
<polygon fill="midnightblue" stroke="midnightblue" points="1195.91,-320.92 1186.34,-325.47 1196.66,-327.88 1195.91,-320.92"/>
</g>
<!-- Node22 -->
<g id="node22" class="node">
<title>Node22</title>
<g id="a_node22"><a xlink:href="precomp__kernels_8hpp.html" target="_top" xlink:title="GPU Kernels for Precomputation (sector assignment)">
<polygon fill="none" stroke="black" points="1130.5,-129 1130.5,-148 1285.5,-148 1285.5,-129 1130.5,-129"/>
<text text-anchor="middle" x="1208" y="-136" font-family="FreeSans.ttf" font-size="10.00">CUDA/inc/precomp_kernels.hpp</text>
</a>
</g>
</g>
<!-- Node18&#45;&gt;Node22 -->
<g id="edge39" class="edge">
<title>Node18&#45;&gt;Node22</title>
<path fill="none" stroke="midnightblue" d="M1115.09,-316.67C1132.58,-295.72 1162.35,-257.7 1181,-221 1193.69,-196.02 1202.3,-163.77 1205.98,-148.41"/>
<polygon fill="midnightblue" stroke="midnightblue" points="1112.42,-314.41 1108.63,-324.31 1117.76,-318.94 1112.42,-314.41"/>
</g>
<!-- Node23 -->
<g id="node23" class="node">
<title>Node23</title>
<g id="a_node23"><a xlink:href="precomp__utils_8hpp.html" target="_top" xlink:title="UTIL functions for precomputation.">
<polygon fill="none" stroke="black" points="1030,-196 1030,-215 1172,-215 1172,-196 1030,-196"/>
<text text-anchor="middle" x="1101" y="-203" font-family="FreeSans.ttf" font-size="10.00">CUDA/inc/precomp_utils.hpp</text>
</a>
</g>
</g>
<!-- Node18&#45;&gt;Node23 -->
<g id="edge40" class="edge">
<title>Node18&#45;&gt;Node23</title>
<path fill="none" stroke="midnightblue" d="M1101,-313.94C1101,-286.12 1101,-235.54 1101,-215.26"/>
<polygon fill="midnightblue" stroke="midnightblue" points="1097.5,-314.31 1101,-324.31 1104.5,-314.31 1097.5,-314.31"/>
</g>
<!-- Node18&#45;&gt;Node24 -->
<g id="edge41" class="edge">
<title>Node18&#45;&gt;Node24</title>
<path fill="none" stroke="midnightblue" d="M1030.06,-323.07C968.39,-314.31 876.69,-300.94 797,-288 794.15,-287.54 791.24,-287.06 788.3,-286.57"/>
<polygon fill="midnightblue" stroke="midnightblue" points="1029.68,-326.55 1040.07,-324.49 1030.66,-319.62 1029.68,-326.55"/>
</g>
<!-- Node19&#45;&gt;Node3 -->
<g id="edge29" class="edge">
<title>Node19&#45;&gt;Node3</title>
<path fill="none" stroke="midnightblue" d="M1275.21,-255.83C1255.14,-236.92 1218.58,-205.72 1181,-190 1100.64,-156.39 1000.61,-144.92 933.12,-141.12"/>
<polygon fill="midnightblue" stroke="midnightblue" points="1272.89,-258.45 1282.52,-262.87 1277.75,-253.41 1272.89,-258.45"/>
</g>
<!-- Node19&#45;&gt;Node12 -->
<g id="edge37" class="edge">
<title>Node19&#45;&gt;Node12</title>
<path fill="none" stroke="midnightblue" d="M1298.62,-253.16C1314.33,-212.07 1344.88,-111.85 1295,-56 1273.86,-32.33 1080.08,-19.51 971.28,-14.12"/>
<polygon fill="midnightblue" stroke="midnightblue" points="1295.27,-252.1 1294.83,-262.69 1301.78,-254.69 1295.27,-252.1"/>
</g>
<!-- Node20 -->
<g id="node20" class="node">
<title>Node20</title>
<g id="a_node20"><a xlink:href="gpuNUFFT__kernels_8hpp.html" target="_top" xlink:title="gpuNUFFT CUDA function prototypes">
<polygon fill="none" stroke="black" points="1379.5,-196 1379.5,-215 1546.5,-215 1546.5,-196 1379.5,-196"/>
<text text-anchor="middle" x="1463" y="-203" font-family="FreeSans.ttf" font-size="10.00">CUDA/inc/gpuNUFFT_kernels.hpp</text>
</a>
</g>
</g>
<!-- Node19&#45;&gt;Node20 -->
<g id="edge26" class="edge">
<title>Node19&#45;&gt;Node20</title>
<path fill="none" stroke="midnightblue" d="M1323.36,-259.27C1357.5,-246.37 1410.41,-226.38 1440.34,-215.06"/>
<polygon fill="midnightblue" stroke="midnightblue" points="1321.96,-256.06 1313.84,-262.87 1324.43,-262.61 1321.96,-256.06"/>
</g>
<!-- Node19&#45;&gt;Node21 -->
<g id="edge36" class="edge">
<title>Node19&#45;&gt;Node21</title>
<path fill="none" stroke="midnightblue" d="M1303.85,-254.89C1335.16,-214.43 1414.56,-111.84 1438.23,-81.24"/>
<polygon fill="midnightblue" stroke="midnightblue" points="1300.97,-252.9 1297.62,-262.95 1306.51,-257.18 1300.97,-252.9"/>
</g>
<!-- Node19&#45;&gt;Node22 -->
<g id="edge30" class="edge">
<title>Node19&#45;&gt;Node22</title>
<path fill="none" stroke="midnightblue" d="M1283.91,-253.17C1276.94,-236.14 1265.41,-210.41 1252,-190 1241.52,-174.06 1226.41,-157.82 1216.9,-148.2"/>
<polygon fill="midnightblue" stroke="midnightblue" points="1280.68,-254.53 1287.64,-262.52 1287.18,-251.93 1280.68,-254.53"/>
</g>
<!-- Node19&#45;&gt;Node23 -->
<g id="edge33" class="edge">
<title>Node19&#45;&gt;Node23</title>
<path fill="none" stroke="midnightblue" d="M1256.22,-259.6C1218.55,-246.71 1159.38,-226.47 1126.03,-215.06"/>
<polygon fill="midnightblue" stroke="midnightblue" points="1255.17,-262.94 1265.77,-262.87 1257.44,-256.32 1255.17,-262.94"/>
</g>
<!-- Node20&#45;&gt;Node18 -->
<g id="edge27" class="edge">
<title>Node20&#45;&gt;Node18</title>
<path fill="none" stroke="midnightblue" d="M1448.42,-222.62C1430.33,-241.52 1397.63,-272.25 1363,-288 1307.34,-313.32 1239.11,-324.49 1186.23,-329.37"/>
<polygon fill="midnightblue" stroke="midnightblue" points="1451.18,-224.79 1455.44,-215.1 1446.06,-220.02 1451.18,-224.79"/>
</g>
<!-- Node20&#45;&gt;Node21 -->
<g id="edge28" class="edge">
<title>Node20&#45;&gt;Node21</title>
<path fill="none" stroke="midnightblue" d="M1460.45,-185.78C1456.49,-156.75 1449.03,-102.04 1446.16,-81.02"/>
<polygon fill="midnightblue" stroke="midnightblue" points="1457,-186.4 1461.82,-195.84 1463.94,-185.46 1457,-186.4"/>
</g>
<!-- Node22&#45;&gt;Node4 -->
<g id="edge32" class="edge">
<title>Node22&#45;&gt;Node4</title>
<path fill="none" stroke="midnightblue" d="M1208.29,-118.41C1208.45,-108.22 1208.64,-95.9 1208.78,-86.59"/>
<polygon fill="midnightblue" stroke="midnightblue" points="1204.79,-118.68 1208.13,-128.73 1211.79,-118.79 1204.79,-118.68"/>
</g>
<!-- Node22&#45;&gt;Node21 -->
<g id="edge31" class="edge">
<title>Node22&#45;&gt;Node21</title>
<path fill="none" stroke="midnightblue" d="M1249.3,-126.17C1296.17,-113.32 1371.56,-92.64 1413.78,-81.06"/>
<polygon fill="midnightblue" stroke="midnightblue" points="1248.19,-122.85 1239.47,-128.87 1250.04,-129.6 1248.19,-122.85"/>
</g>
<!-- Node23&#45;&gt;Node3 -->
<g id="edge34" class="edge">
<title>Node23&#45;&gt;Node3</title>
<path fill="none" stroke="midnightblue" d="M1059.1,-193.34C1017.78,-182.33 954.5,-165.47 909.78,-153.56"/>
<polygon fill="midnightblue" stroke="midnightblue" points="1058.29,-196.74 1068.85,-195.94 1060.09,-189.98 1058.29,-196.74"/>
</g>
<!-- Node23&#45;&gt;Node22 -->
<g id="edge35" class="edge">
<title>Node23&#45;&gt;Node22</title>
<path fill="none" stroke="midnightblue" d="M1124.14,-190.44C1145.33,-177.57 1176.02,-158.93 1193.8,-148.13"/>
<polygon fill="midnightblue" stroke="midnightblue" points="1122.16,-187.55 1115.43,-195.73 1125.79,-193.53 1122.16,-187.55"/>
</g>
<!-- Node24&#45;&gt;Node3 -->
<g id="edge43" class="edge">
<title>Node24&#45;&gt;Node3</title>
<path fill="none" stroke="midnightblue" d="M726.83,-248.4C736.65,-230.84 751.9,-206.91 770,-190 786.21,-174.86 807.74,-162.31 825.33,-153.51"/>
<polygon fill="midnightblue" stroke="midnightblue" points="723.63,-246.95 721.95,-257.41 729.79,-250.28 723.63,-246.95"/>
</g>
<!-- Node24&#45;&gt;Node16 -->
<g id="edge42" class="edge">
<title>Node24&#45;&gt;Node16</title>
<path fill="none" stroke="midnightblue" d="M656.38,-254.71C619.44,-244.14 572.29,-230.63 537.28,-220.61"/>
<polygon fill="midnightblue" stroke="midnightblue" points="655.45,-258.09 666.02,-257.48 657.37,-251.36 655.45,-258.09"/>
</g>
<!-- Node25 -->
<g id="node25" class="node">
<title>Node25</title>
<g id="a_node25"><a xlink:href="texture__gpuNUFFT__operator_8cpp.html" target="_top" xlink:title=" ">
<polygon fill="none" stroke="black" points="574.5,-190.5 574.5,-220.5 721.5,-220.5 721.5,-190.5 574.5,-190.5"/>
<text text-anchor="start" x="582.5" y="-208.5" font-family="FreeSans.ttf" font-size="10.00">CUDA/src/texture_gpuNUFFT</text>
<text text-anchor="middle" x="648" y="-197.5" font-family="FreeSans.ttf" font-size="10.00">_operator.cpp</text>
</a>
</g>
</g>
<!-- Node24&#45;&gt;Node25 -->
<g id="edge44" class="edge">
<title>Node24&#45;&gt;Node25</title>
<path fill="none" stroke="midnightblue" d="M693.16,-250.31C683.11,-240.56 671.46,-229.26 662.51,-220.58"/>
<polygon fill="midnightblue" stroke="midnightblue" points="690.85,-252.94 700.46,-257.4 695.72,-247.92 690.85,-252.94"/>
</g>
</g>
</svg>
