<?xml version="1.0" encoding="UTF-8" standalone="no"?>
<!DOCTYPE svg PUBLIC "-//W3C//DTD SVG 1.1//EN"
 "http://www.w3.org/Graphics/SVG/1.1/DTD/svg11.dtd">
<!-- Generated by graphviz version 2.49.3 (20211027.1534)
 -->
<!-- Title: CUDA/inc/gpuNUFFT_kernels.hpp Pages: 1 -->
<svg width="1283pt" height="352pt"
 viewBox="0.00 0.00 1283.00 352.00" xmlns="http://www.w3.org/2000/svg" xmlns:xlink="http://www.w3.org/1999/xlink">
<g id="graph0" class="graph" transform="scale(1 1) rotate(0) translate(4 348)">
<title>CUDA/inc/gpuNUFFT_kernels.hpp</title>
<!-- Node1 -->
<g id="node1" class="node">
<title>Node1</title>
<g id="a_node1"><a xlink:title="gpuNUFFT CUDA function prototypes">
<polygon fill="#bfbfbf" stroke="black" points="93,-324.5 93,-343.5 260,-343.5 260,-324.5 93,-324.5"/>
<text text-anchor="middle" x="176.5" y="-331.5" font-family="FreeSans.ttf" font-size="10.00">CUDA/inc/gpuNUFFT_kernels.hpp</text>
</a>
</g>
</g>
<!-- Node2 -->
<g id="node2" class="node">
<title>Node2</title>
<g id="a_node2"><a xlink:href="gpuNUFFT__operator_8hpp.html" target="_top" xlink:title=" ">
<polygon fill="none" stroke="black" points="235.5,-268.5 235.5,-287.5 405.5,-287.5 405.5,-268.5 235.5,-268.5"/>
<text text-anchor="middle" x="320.5" y="-275.5" font-family="FreeSans.ttf" font-size="10.00">CUDA/inc/gpuNUFFT_operator.hpp</text>
</a>
</g>
</g>
<!-- Node1&#45;&gt;Node2 -->
<g id="edge1" class="edge">
<title>Node1&#45;&gt;Node2</title>
<path fill="none" stroke="midnightblue" d="M208.75,-320.91C235.82,-310.75 273.82,-296.51 297.79,-287.52"/>
<polygon fill="midnightblue" stroke="midnightblue" points="207.45,-317.66 199.32,-324.44 209.91,-324.21 207.45,-317.66"/>
</g>
<!-- Node15 -->
<g id="node15" class="node">
<title>Node15</title>
<g id="a_node15"><a xlink:href="gpuNUFFT__operator_8cpp.html" target="_top" xlink:title=" ">
<polygon fill="none" stroke="black" points="0,-6 0,-25 171,-25 171,-6 0,-6"/>
<text text-anchor="middle" x="85.5" y="-13" font-family="FreeSans.ttf" font-size="10.00">CUDA/src/gpuNUFFT_operator.cpp</text>
</a>
</g>
</g>
<!-- Node1&#45;&gt;Node15 -->
<g id="edge32" class="edge">
<title>Node1&#45;&gt;Node15</title>
<path fill="none" stroke="midnightblue" d="M143.9,-320.53C105.69,-303.54 47.5,-269.18 47.5,-217.5 47.5,-217.5 47.5,-217.5 47.5,-148.5 47.5,-100.33 71.16,-45.99 81.14,-25.21"/>
<polygon fill="midnightblue" stroke="midnightblue" points="142.57,-323.77 153.14,-324.48 145.32,-317.33 142.57,-323.77"/>
</g>
<!-- Node3 -->
<g id="node3" class="node">
<title>Node3</title>
<g id="a_node3"><a xlink:href="balanced__gpuNUFFT__operator_8hpp.html" target="_top" xlink:title=" ">
<polygon fill="none" stroke="black" points="831.5,-201.5 831.5,-231.5 987.5,-231.5 987.5,-201.5 831.5,-201.5"/>
<text text-anchor="start" x="839.5" y="-219.5" font-family="FreeSans.ttf" font-size="10.00">CUDA/inc/balanced_gpuNUFFT</text>
<text text-anchor="middle" x="909.5" y="-208.5" font-family="FreeSans.ttf" font-size="10.00">_operator.hpp</text>
</a>
</g>
</g>
<!-- Node2&#45;&gt;Node3 -->
<g id="edge2" class="edge">
<title>Node2&#45;&gt;Node3</title>
<path fill="none" stroke="midnightblue" d="M415.89,-270.17C515.9,-262.59 677.53,-249.12 816.5,-232 821.37,-231.4 826.37,-230.74 831.41,-230.05"/>
<polygon fill="midnightblue" stroke="midnightblue" points="415.52,-266.69 405.81,-270.93 416.05,-273.67 415.52,-266.69"/>
</g>
<!-- Node4 -->
<g id="node4" class="node">
<title>Node4</title>
<g id="a_node4"><a xlink:href="gpuNUFFT__operator__factory_8hpp.html" target="_top" xlink:title=" ">
<polygon fill="none" stroke="black" points="672.5,-67.5 672.5,-97.5 824.5,-97.5 824.5,-67.5 672.5,-67.5"/>
<text text-anchor="start" x="680.5" y="-85.5" font-family="FreeSans.ttf" font-size="10.00">CUDA/inc/gpuNUFFT_operator</text>
<text text-anchor="middle" x="748.5" y="-74.5" font-family="FreeSans.ttf" font-size="10.00">_factory.hpp</text>
</a>
</g>
</g>
<!-- Node2&#45;&gt;Node4 -->
<g id="edge22" class="edge">
<title>Node2&#45;&gt;Node4</title>
<path fill="none" stroke="midnightblue" d="M416.04,-276.15C486.7,-272.77 584.18,-262.25 664.5,-232 714.56,-213.14 739.31,-212.2 764.5,-165 776.04,-143.37 765.2,-114.53 756.61,-97.59"/>
<polygon fill="midnightblue" stroke="midnightblue" points="415.66,-272.66 405.82,-276.59 415.96,-279.65 415.66,-272.66"/>
</g>
<!-- Node13 -->
<g id="node13" class="node">
<title>Node13</title>
<g id="a_node13"><a xlink:href="cuda__utils_8hpp.html" target="_top" xlink:title="Util functions for CUDA memory and texture management.">
<polygon fill="none" stroke="black" points="114,-207 114,-226 239,-226 239,-207 114,-207"/>
<text text-anchor="middle" x="176.5" y="-214" font-family="FreeSans.ttf" font-size="10.00">CUDA/inc/cuda_utils.hpp</text>
</a>
</g>
</g>
<!-- Node2&#45;&gt;Node13 -->
<g id="edge12" class="edge">
<title>Node2&#45;&gt;Node13</title>
<path fill="none" stroke="midnightblue" d="M290.57,-264.63C262.59,-253.07 221.56,-236.12 197.09,-226.01"/>
<polygon fill="midnightblue" stroke="midnightblue" points="289.29,-267.89 299.87,-268.48 291.96,-261.42 289.29,-267.89"/>
</g>
<!-- Node14 -->
<g id="node14" class="node">
<title>Node14</title>
<g id="a_node14"><a xlink:href="precomp__kernels_8hpp.html" target="_top" xlink:title="GPU Kernels for Precomputation (sector assignment)">
<polygon fill="none" stroke="black" points="152,-73 152,-92 307,-92 307,-73 152,-73"/>
<text text-anchor="middle" x="229.5" y="-80" font-family="FreeSans.ttf" font-size="10.00">CUDA/inc/precomp_kernels.hpp</text>
</a>
</g>
</g>
<!-- Node2&#45;&gt;Node14 -->
<g id="edge23" class="edge">
<title>Node2&#45;&gt;Node14</title>
<path fill="none" stroke="midnightblue" d="M311.24,-259.28C299.86,-237.33 280.15,-198.7 264.5,-165 252.31,-138.74 239.15,-107.1 233.02,-92.14"/>
<polygon fill="midnightblue" stroke="midnightblue" points="308.25,-261.11 315.97,-268.37 314.46,-257.88 308.25,-261.11"/>
</g>
<!-- Node2&#45;&gt;Node15 -->
<g id="edge31" class="edge">
<title>Node2&#45;&gt;Node15</title>
<path fill="none" stroke="midnightblue" d="M225.5,-268.35C175.36,-261.69 120.87,-250.42 104.5,-232 50.1,-170.81 74.57,-57.56 83.04,-25.29"/>
<polygon fill="midnightblue" stroke="midnightblue" points="225.1,-271.82 235.46,-269.62 225.98,-264.88 225.1,-271.82"/>
</g>
<!-- Node16 -->
<g id="node16" class="node">
<title>Node16</title>
<g id="a_node16"><a xlink:href="precomp__utils_8hpp.html" target="_top" xlink:title="UTIL functions for precomputation.">
<polygon fill="none" stroke="black" points="273.5,-140 273.5,-159 415.5,-159 415.5,-140 273.5,-140"/>
<text text-anchor="middle" x="344.5" y="-147" font-family="FreeSans.ttf" font-size="10.00">CUDA/inc/precomp_utils.hpp</text>
</a>
</g>
</g>
<!-- Node2&#45;&gt;Node16 -->
<g id="edge24" class="edge">
<title>Node2&#45;&gt;Node16</title>
<path fill="none" stroke="midnightblue" d="M324.05,-258.31C329.31,-230.58 338.97,-179.63 342.84,-159.26"/>
<polygon fill="midnightblue" stroke="midnightblue" points="320.58,-257.83 322.15,-268.31 327.45,-259.13 320.58,-257.83"/>
</g>
<!-- Node17 -->
<g id="node17" class="node">
<title>Node17</title>
<g id="a_node17"><a xlink:href="texture__gpuNUFFT__operator_8hpp.html" target="_top" xlink:title=" ">
<polygon fill="none" stroke="black" points="509.5,-201.5 509.5,-231.5 655.5,-231.5 655.5,-201.5 509.5,-201.5"/>
<text text-anchor="start" x="517.5" y="-219.5" font-family="FreeSans.ttf" font-size="10.00">CUDA/inc/texture_gpuNUFFT</text>
<text text-anchor="middle" x="582.5" y="-208.5" font-family="FreeSans.ttf" font-size="10.00">_operator.hpp</text>
</a>
</g>
</g>
<!-- Node2&#45;&gt;Node17 -->
<g id="edge25" class="edge">
<title>Node2&#45;&gt;Node17</title>
<path fill="none" stroke="midnightblue" d="M367.92,-266.23C410.74,-256.51 474,-242.14 520.75,-231.52"/>
<polygon fill="midnightblue" stroke="midnightblue" points="367.01,-262.85 358.04,-268.48 368.57,-269.67 367.01,-262.85"/>
</g>
<!-- Node3&#45;&gt;Node4 -->
<g id="edge3" class="edge">
<title>Node3&#45;&gt;Node4</title>
<path fill="none" stroke="midnightblue" d="M962.39,-196.7C976.25,-189.09 989.53,-178.75 997.5,-165 1004.4,-153.08 1006.22,-144.67 997.5,-134 975.93,-107.62 889.7,-94.69 824.72,-88.58"/>
<polygon fill="midnightblue" stroke="midnightblue" points="960.59,-193.69 953.25,-201.32 963.75,-199.93 960.59,-193.69"/>
</g>
<!-- Node12 -->
<g id="node12" class="node">
<title>Node12</title>
<g id="a_node12"><a xlink:href="balanced__gpuNUFFT__operator_8cpp.html" target="_top" xlink:title=" ">
<polygon fill="none" stroke="black" points="831,-134.5 831,-164.5 988,-164.5 988,-134.5 831,-134.5"/>
<text text-anchor="start" x="839" y="-152.5" font-family="FreeSans.ttf" font-size="10.00">CUDA/src/balanced_gpuNUFFT</text>
<text text-anchor="middle" x="909.5" y="-141.5" font-family="FreeSans.ttf" font-size="10.00">_operator.cpp</text>
</a>
</g>
</g>
<!-- Node3&#45;&gt;Node12 -->
<g id="edge11" class="edge">
<title>Node3&#45;&gt;Node12</title>
<path fill="none" stroke="midnightblue" d="M909.5,-191.11C909.5,-182.15 909.5,-172.32 909.5,-164.58"/>
<polygon fill="midnightblue" stroke="midnightblue" points="906,-191.4 909.5,-201.4 913,-191.4 906,-191.4"/>
</g>
<!-- Node5 -->
<g id="node5" class="node">
<title>Node5</title>
<g id="a_node5"><a xlink:href="gpuNUFFT__operator__factory_8cpp.html" target="_top" xlink:title=" ">
<polygon fill="none" stroke="black" points="189,-0.5 189,-30.5 342,-30.5 342,-0.5 189,-0.5"/>
<text text-anchor="start" x="197" y="-18.5" font-family="FreeSans.ttf" font-size="10.00">CUDA/src/gpuNUFFT_operator</text>
<text text-anchor="middle" x="265.5" y="-7.5" font-family="FreeSans.ttf" font-size="10.00">_factory.cpp</text>
</a>
</g>
</g>
<!-- Node4&#45;&gt;Node5 -->
<g id="edge4" class="edge">
<title>Node4&#45;&gt;Node5</title>
<path fill="none" stroke="midnightblue" d="M662.32,-71.64C581.61,-62.16 457.7,-46.94 350.5,-31 347.83,-30.6 345.12,-30.19 342.39,-29.77"/>
<polygon fill="midnightblue" stroke="midnightblue" points="662.1,-75.14 672.44,-72.83 662.91,-68.19 662.1,-75.14"/>
</g>
<!-- Node6 -->
<g id="node6" class="node">
<title>Node6</title>
<g id="a_node6"><a xlink:href="gpuNUFFT__forward__tests_8cpp.html" target="_top" xlink:title=" ">
<polygon fill="none" stroke="black" points="360,-0.5 360,-30.5 511,-30.5 511,-0.5 360,-0.5"/>
<text text-anchor="start" x="368" y="-18.5" font-family="FreeSans.ttf" font-size="10.00">CUDA/test/gpu/forward</text>
<text text-anchor="middle" x="435.5" y="-7.5" font-family="FreeSans.ttf" font-size="10.00">/gpuNUFFT_forward_tests.cpp</text>
</a>
</g>
</g>
<!-- Node4&#45;&gt;Node6 -->
<g id="edge5" class="edge">
<title>Node4&#45;&gt;Node6</title>
<path fill="none" stroke="midnightblue" d="M670.89,-65.38C619.4,-54.69 552.5,-40.8 503.18,-30.55"/>
<polygon fill="midnightblue" stroke="midnightblue" points="670.47,-68.87 680.97,-67.48 671.89,-62.02 670.47,-68.87"/>
</g>
<!-- Node7 -->
<g id="node7" class="node">
<title>Node7</title>
<g id="a_node7"><a xlink:href="gpuNUFFT__2D__conv__tests_8cpp.html" target="_top" xlink:title=" ">
<polygon fill="none" stroke="black" points="529.5,-0.5 529.5,-30.5 663.5,-30.5 663.5,-0.5 529.5,-0.5"/>
<text text-anchor="start" x="537.5" y="-18.5" font-family="FreeSans.ttf" font-size="10.00">CUDA/test/gpu/gpuNUFFT</text>
<text text-anchor="middle" x="596.5" y="-7.5" font-family="FreeSans.ttf" font-size="10.00">_2D_conv_tests.cpp</text>
</a>
</g>
</g>
<!-- Node4&#45;&gt;Node7 -->
<g id="edge6" class="edge">
<title>Node4&#45;&gt;Node7</title>
<path fill="none" stroke="midnightblue" d="M706.19,-63.41C681.92,-53.03 651.91,-40.2 629.42,-30.58"/>
<polygon fill="midnightblue" stroke="midnightblue" points="704.95,-66.68 715.52,-67.4 707.7,-60.25 704.95,-66.68"/>
</g>
<!-- Node8 -->
<g id="node8" class="node">
<title>Node8</title>
<g id="a_node8"><a xlink:href="gpuNUFFT__conv__tests_8cpp.html" target="_top" xlink:title=" ">
<polygon fill="none" stroke="black" points="681.5,-0.5 681.5,-30.5 815.5,-30.5 815.5,-0.5 681.5,-0.5"/>
<text text-anchor="start" x="689.5" y="-18.5" font-family="FreeSans.ttf" font-size="10.00">CUDA/test/gpu/gpuNUFFT</text>
<text text-anchor="middle" x="748.5" y="-7.5" font-family="FreeSans.ttf" font-size="10.00">_conv_tests.cpp</text>
</a>
</g>
</g>
<!-- Node4&#45;&gt;Node8 -->
<g id="edge7" class="edge">
<title>Node4&#45;&gt;Node8</title>
<path fill="none" stroke="midnightblue" d="M748.5,-57.11C748.5,-48.15 748.5,-38.32 748.5,-30.58"/>
<polygon fill="midnightblue" stroke="midnightblue" points="745,-57.4 748.5,-67.4 752,-57.4 745,-57.4"/>
</g>
<!-- Node9 -->
<g id="node9" class="node">
<title>Node9</title>
<g id="a_node9"><a xlink:href="gpuNUFFT__deapo__tests_8cpp.html" target="_top" xlink:title=" ">
<polygon fill="none" stroke="black" points="833.5,-0.5 833.5,-30.5 967.5,-30.5 967.5,-0.5 833.5,-0.5"/>
<text text-anchor="start" x="841.5" y="-18.5" font-family="FreeSans.ttf" font-size="10.00">CUDA/test/gpu/gpuNUFFT</text>
<text text-anchor="middle" x="900.5" y="-7.5" font-family="FreeSans.ttf" font-size="10.00">_deapo_tests.cpp</text>
</a>
</g>
</g>
<!-- Node4&#45;&gt;Node9 -->
<g id="edge8" class="edge">
<title>Node4&#45;&gt;Node9</title>
<path fill="none" stroke="midnightblue" d="M790.81,-63.41C815.08,-53.03 845.09,-40.2 867.58,-30.58"/>
<polygon fill="midnightblue" stroke="midnightblue" points="789.3,-60.25 781.48,-67.4 792.05,-66.68 789.3,-60.25"/>
</g>
<!-- Node10 -->
<g id="node10" class="node">
<title>Node10</title>
<g id="a_node10"><a xlink:href="gpuNUFFT__fft__tests_8cpp.html" target="_top" xlink:title=" ">
<polygon fill="none" stroke="black" points="985.5,-0.5 985.5,-30.5 1119.5,-30.5 1119.5,-0.5 985.5,-0.5"/>
<text text-anchor="start" x="993.5" y="-18.5" font-family="FreeSans.ttf" font-size="10.00">CUDA/test/gpu/gpuNUFFT</text>
<text text-anchor="middle" x="1052.5" y="-7.5" font-family="FreeSans.ttf" font-size="10.00">_fft_tests.cpp</text>
</a>
</g>
</g>
<!-- Node4&#45;&gt;Node10 -->
<g id="edge9" class="edge">
<title>Node4&#45;&gt;Node10</title>
<path fill="none" stroke="midnightblue" d="M823.88,-65.38C873.88,-54.69 938.87,-40.8 986.77,-30.55"/>
<polygon fill="midnightblue" stroke="midnightblue" points="823.14,-61.96 814.09,-67.48 824.6,-68.81 823.14,-61.96"/>
</g>
<!-- Node11 -->
<g id="node11" class="node">
<title>Node11</title>
<g id="a_node11"><a xlink:href="gpuNUFFT__operator__python__factory_8cpp.html" target="_top" xlink:title=" ">
<polygon fill="none" stroke="black" points="1138,-0.5 1138,-30.5 1275,-30.5 1275,-0.5 1138,-0.5"/>
<text text-anchor="start" x="1146" y="-18.5" font-family="FreeSans.ttf" font-size="10.00">python/gpuNUFFT_operator</text>
<text text-anchor="middle" x="1206.5" y="-7.5" font-family="FreeSans.ttf" font-size="10.00">_python_factory.cpp</text>
</a>
</g>
</g>
<!-- Node4&#45;&gt;Node11 -->
<g id="edge10" class="edge">
<title>Node4&#45;&gt;Node11</title>
<path fill="none" stroke="midnightblue" d="M834.88,-71.31C912.02,-61.91 1028.02,-47.01 1128.5,-31 1131.49,-30.52 1134.55,-30.02 1137.63,-29.5"/>
<polygon fill="midnightblue" stroke="midnightblue" points="834.24,-67.86 824.73,-72.54 835.08,-74.81 834.24,-67.86"/>
</g>
<!-- Node13&#45;&gt;Node1 -->
<g id="edge13" class="edge">
<title>Node13&#45;&gt;Node1</title>
<path fill="none" stroke="midnightblue" d="M176.5,-236.47C176.5,-261.84 176.5,-305.76 176.5,-324.32"/>
<polygon fill="midnightblue" stroke="midnightblue" points="180,-236.28 176.5,-226.28 173,-236.28 180,-236.28"/>
</g>
<!-- Node13&#45;&gt;Node4 -->
<g id="edge14" class="edge">
<title>Node13&#45;&gt;Node4</title>
<path fill="none" stroke="midnightblue" d="M188.92,-198.76C204.3,-179.47 232.41,-148.54 264.5,-134 282.79,-125.71 540.87,-101.88 672.48,-90.16"/>
<polygon fill="midnightblue" stroke="midnightblue" points="185.95,-196.89 182.61,-206.94 191.49,-201.16 185.95,-196.89"/>
</g>
<!-- Node13&#45;&gt;Node14 -->
<g id="edge15" class="edge">
<title>Node13&#45;&gt;Node14</title>
<path fill="none" stroke="midnightblue" d="M178.25,-196.29C180.31,-179.33 184.65,-154.23 193.5,-134 200.58,-117.82 213.36,-101.65 221.64,-92.11"/>
<polygon fill="midnightblue" stroke="midnightblue" points="174.73,-196.26 177.16,-206.57 181.69,-197 174.73,-196.26"/>
</g>
<!-- Node13&#45;&gt;Node15 -->
<g id="edge21" class="edge">
<title>Node13&#45;&gt;Node15</title>
<path fill="none" stroke="midnightblue" d="M168.31,-197.6C149.42,-156.29 103.34,-55.52 89.5,-25.24"/>
<polygon fill="midnightblue" stroke="midnightblue" points="165.25,-199.31 172.59,-206.95 171.61,-196.4 165.25,-199.31"/>
</g>
<!-- Node13&#45;&gt;Node16 -->
<g id="edge18" class="edge">
<title>Node13&#45;&gt;Node16</title>
<path fill="none" stroke="midnightblue" d="M208.54,-203.1C241.89,-190.2 293.25,-170.33 322.37,-159.06"/>
<polygon fill="midnightblue" stroke="midnightblue" points="206.87,-200 198.81,-206.87 209.4,-206.52 206.87,-200"/>
</g>
<!-- Node14&#45;&gt;Node5 -->
<g id="edge17" class="edge">
<title>Node14&#45;&gt;Node5</title>
<path fill="none" stroke="midnightblue" d="M239.35,-63.71C245.13,-53.29 252.32,-40.3 257.7,-30.59"/>
<polygon fill="midnightblue" stroke="midnightblue" points="236.14,-62.29 234.36,-72.73 242.26,-65.68 236.14,-62.29"/>
</g>
<!-- Node14&#45;&gt;Node15 -->
<g id="edge16" class="edge">
<title>Node14&#45;&gt;Node15</title>
<path fill="none" stroke="midnightblue" d="M200.95,-68.61C172.43,-55.74 129.38,-36.31 104.7,-25.17"/>
<polygon fill="midnightblue" stroke="midnightblue" points="199.82,-71.94 210.38,-72.87 202.7,-65.56 199.82,-71.94"/>
</g>
<!-- Node16&#45;&gt;Node4 -->
<g id="edge19" class="edge">
<title>Node16&#45;&gt;Node4</title>
<path fill="none" stroke="midnightblue" d="M400.61,-138.15C408.63,-136.72 416.77,-135.3 424.5,-134 509.27,-119.71 606.76,-104.71 672.48,-94.81"/>
<polygon fill="midnightblue" stroke="midnightblue" points="399.8,-134.74 390.58,-139.95 401.04,-141.63 399.8,-134.74"/>
</g>
<!-- Node16&#45;&gt;Node14 -->
<g id="edge20" class="edge">
<title>Node16&#45;&gt;Node14</title>
<path fill="none" stroke="midnightblue" d="M320.24,-134.79C297.45,-121.9 264.04,-103.02 244.76,-92.13"/>
<polygon fill="midnightblue" stroke="midnightblue" points="318.56,-137.86 328.99,-139.73 322.01,-131.77 318.56,-137.86"/>
</g>
<!-- Node17&#45;&gt;Node4 -->
<g id="edge29" class="edge">
<title>Node17&#45;&gt;Node4</title>
<path fill="none" stroke="midnightblue" d="M665.89,-209.32C695.7,-202.66 726.56,-189.72 745.5,-165 760.39,-145.55 756.53,-115.17 752.46,-97.51"/>
<polygon fill="midnightblue" stroke="midnightblue" points="664.95,-205.94 655.84,-211.34 666.33,-212.8 664.95,-205.94"/>
</g>
<!-- Node18 -->
<g id="node18" class="node">
<title>Node18</title>
<g id="a_node18"><a xlink:href="balanced__texture__gpuNUFFT__operator_8hpp.html" target="_top" xlink:title=" ">
<polygon fill="none" stroke="black" points="434,-134.5 434,-164.5 571,-164.5 571,-134.5 434,-134.5"/>
<text text-anchor="start" x="442" y="-152.5" font-family="FreeSans.ttf" font-size="10.00">CUDA/inc/balanced_texture</text>
<text text-anchor="middle" x="502.5" y="-141.5" font-family="FreeSans.ttf" font-size="10.00">_gpuNUFFT_operator.hpp</text>
</a>
</g>
</g>
<!-- Node17&#45;&gt;Node18 -->
<g id="edge26" class="edge">
<title>Node17&#45;&gt;Node18</title>
<path fill="none" stroke="midnightblue" d="M557.13,-194.88C544.97,-185.01 530.72,-173.43 519.82,-164.58"/>
<polygon fill="midnightblue" stroke="midnightblue" points="555.17,-197.81 565.14,-201.4 559.59,-192.37 555.17,-197.81"/>
</g>
<!-- Node20 -->
<g id="node20" class="node">
<title>Node20</title>
<g id="a_node20"><a xlink:href="texture__gpuNUFFT__operator_8cpp.html" target="_top" xlink:title=" ">
<polygon fill="none" stroke="black" points="589,-134.5 589,-164.5 736,-164.5 736,-134.5 589,-134.5"/>
<text text-anchor="start" x="597" y="-152.5" font-family="FreeSans.ttf" font-size="10.00">CUDA/src/texture_gpuNUFFT</text>
<text text-anchor="middle" x="662.5" y="-141.5" font-family="FreeSans.ttf" font-size="10.00">_operator.cpp</text>
</a>
</g>
</g>
<!-- Node17&#45;&gt;Node20 -->
<g id="edge30" class="edge">
<title>Node17&#45;&gt;Node20</title>
<path fill="none" stroke="midnightblue" d="M607.87,-194.88C620.03,-185.01 634.28,-173.43 645.18,-164.58"/>
<polygon fill="midnightblue" stroke="midnightblue" points="605.41,-192.37 599.86,-201.4 609.83,-197.81 605.41,-192.37"/>
</g>
<!-- Node18&#45;&gt;Node4 -->
<g id="edge27" class="edge">
<title>Node18&#45;&gt;Node4</title>
<path fill="none" stroke="midnightblue" d="M565.26,-131.92C605.4,-121.31 656.92,-107.7 695.1,-97.61"/>
<polygon fill="midnightblue" stroke="midnightblue" points="564.35,-128.54 555.58,-134.48 566.14,-135.31 564.35,-128.54"/>
</g>
<!-- Node19 -->
<g id="node19" class="node">
<title>Node19</title>
<g id="a_node19"><a xlink:href="balanced__texture__gpuNUFFT__operator_8cpp.html" target="_top" xlink:title=" ">
<polygon fill="none" stroke="black" points="434,-67.5 434,-97.5 571,-97.5 571,-67.5 434,-67.5"/>
<text text-anchor="start" x="442" y="-85.5" font-family="FreeSans.ttf" font-size="10.00">CUDA/src/balanced_texture</text>
<text text-anchor="middle" x="502.5" y="-74.5" font-family="FreeSans.ttf" font-size="10.00">_gpuNUFFT_operator.cpp</text>
</a>
</g>
</g>
<!-- Node18&#45;&gt;Node19 -->
<g id="edge28" class="edge">
<title>Node18&#45;&gt;Node19</title>
<path fill="none" stroke="midnightblue" d="M502.5,-124.11C502.5,-115.15 502.5,-105.32 502.5,-97.58"/>
<polygon fill="midnightblue" stroke="midnightblue" points="499,-124.4 502.5,-134.4 506,-124.4 499,-124.4"/>
</g>
</g>
</svg>
