<?xml version="1.0" encoding="UTF-8" standalone="no"?>
<!DOCTYPE svg PUBLIC "-//W3C//DTD SVG 1.1//EN"
 "http://www.w3.org/Graphics/SVG/1.1/DTD/svg11.dtd">
<!-- Generated by graphviz version 2.49.3 (20211027.1534)
 -->
<!-- Title: load1DKernel Pages: 1 -->
<svg width="331pt" height="75pt"
 viewBox="0.00 0.00 331.00 75.00" xmlns="http://www.w3.org/2000/svg" xmlns:xlink="http://www.w3.org/1999/xlink">
<g id="graph0" class="graph" transform="scale(1 1) rotate(0) translate(4 71)">
<title>load1DKernel</title>
<!-- Node1 -->
<g id="node1" class="node">
<title>Node1</title>
<g id="a_node1"><a xlink:title="Loads a radius of the circularly symmetric kernel into a 1&#45;d array, with respect to the kernel radius...">
<polygon fill="#bfbfbf" stroke="black" points="0,-28.5 0,-47.5 74,-47.5 74,-28.5 0,-28.5"/>
<text text-anchor="middle" x="37" y="-35.5" font-family="FreeSans.ttf" font-size="10.00">load1DKernel</text>
</a>
</g>
</g>
<!-- Node2 -->
<g id="node2" class="node">
<title>Node2</title>
<g id="a_node2"><a xlink:href="gpuNUFFT__utils_8hpp.html#a18dd3c6c4b8ac5f6947f3dc1c59651bc" target="_top" xlink:title="Interpolation Kernel evaluation for radius.">
<polygon fill="none" stroke="black" points="110,-28.5 110,-47.5 153,-47.5 153,-28.5 110,-28.5"/>
<text text-anchor="middle" x="131.5" y="-35.5" font-family="FreeSans.ttf" font-size="10.00">kernel</text>
</a>
</g>
</g>
<!-- Node1&#45;&gt;Node2 -->
<g id="edge1" class="edge">
<title>Node1&#45;&gt;Node2</title>
<path fill="none" stroke="midnightblue" d="M74.03,-38C82.49,-38 91.44,-38 99.65,-38"/>
<polygon fill="midnightblue" stroke="midnightblue" points="99.93,-41.5 109.93,-38 99.93,-34.5 99.93,-41.5"/>
</g>
<!-- Node3 -->
<g id="node3" class="node">
<title>Node3</title>
<g id="a_node3"><a xlink:href="gpuNUFFT__utils_8hpp.html#aa7b00d423ae0e06388b55594fe1adb93" target="_top" xlink:title="beta function used in interpolation function. See Beatty et al.">
<polygon fill="none" stroke="black" points="281,-47.5 281,-66.5 323,-66.5 323,-47.5 281,-47.5"/>
<text text-anchor="middle" x="302" y="-54.5" font-family="FreeSans.ttf" font-size="10.00">BETA</text>
</a>
</g>
</g>
<!-- Node2&#45;&gt;Node3 -->
<g id="edge2" class="edge">
<title>Node2&#45;&gt;Node3</title>
<path fill="none" stroke="midnightblue" d="M153.02,-46.69C163.56,-50.69 176.74,-54.99 189,-57 216.33,-61.47 247.92,-60.97 270.57,-59.64"/>
<polygon fill="midnightblue" stroke="midnightblue" points="270.87,-63.13 280.61,-58.96 270.39,-56.14 270.87,-63.13"/>
</g>
<!-- Node4 -->
<g id="node4" class="node">
<title>Node4</title>
<g id="a_node4"><a xlink:href="gpuNUFFT__utils_8cpp.html#a5472cb661dea68a2ab2b52df187b6291" target="_top" xlink:title="Modified Kaiser Bessel function of zero&#45;th order.">
<polygon fill="none" stroke="black" points="287.5,-0.5 287.5,-19.5 316.5,-19.5 316.5,-0.5 287.5,-0.5"/>
<text text-anchor="middle" x="302" y="-7.5" font-family="FreeSans.ttf" font-size="10.00">i0</text>
</a>
</g>
</g>
<!-- Node2&#45;&gt;Node4 -->
<g id="edge3" class="edge">
<title>Node2&#45;&gt;Node4</title>
<path fill="none" stroke="midnightblue" d="M153.09,-29.72C163.66,-25.83 176.83,-21.5 189,-19 219.05,-12.84 254.45,-10.85 277.28,-10.23"/>
<polygon fill="midnightblue" stroke="midnightblue" points="277.48,-13.73 287.4,-10.03 277.33,-6.73 277.48,-13.73"/>
</g>
<!-- Node5 -->
<g id="node5" class="node">
<title>Node5</title>
<g id="a_node5"><a xlink:href="gpuNUFFT__utils_8hpp.html#ab1456ac35fe51fc4dac2e0054f6d9a50" target="_top" xlink:title="I_0 function used in interpolation function. See Beatty et al.">
<polygon fill="none" stroke="black" points="189,-28.5 189,-47.5 245,-47.5 245,-28.5 189,-28.5"/>
<text text-anchor="middle" x="217" y="-35.5" font-family="FreeSans.ttf" font-size="10.00">I0_BETA</text>
</a>
</g>
</g>
<!-- Node2&#45;&gt;Node5 -->
<g id="edge4" class="edge">
<title>Node2&#45;&gt;Node5</title>
<path fill="none" stroke="midnightblue" d="M153.14,-38C160.92,-38 170.02,-38 178.84,-38"/>
<polygon fill="midnightblue" stroke="midnightblue" points="178.98,-41.5 188.98,-38 178.98,-34.5 178.98,-41.5"/>
</g>
<!-- Node5&#45;&gt;Node3 -->
<g id="edge5" class="edge">
<title>Node5&#45;&gt;Node3</title>
<path fill="none" stroke="midnightblue" d="M245.18,-44.22C253.45,-46.11 262.58,-48.2 271.02,-50.14"/>
<polygon fill="midnightblue" stroke="midnightblue" points="270.34,-53.57 280.87,-52.39 271.9,-46.75 270.34,-53.57"/>
</g>
<!-- Node5&#45;&gt;Node4 -->
<g id="edge6" class="edge">
<title>Node5&#45;&gt;Node4</title>
<path fill="none" stroke="midnightblue" d="M245.18,-28.83C255.56,-25.33 267.31,-21.36 277.35,-17.98"/>
<polygon fill="midnightblue" stroke="midnightblue" points="278.69,-21.22 287.05,-14.71 276.46,-14.59 278.69,-21.22"/>
</g>
</g>
</svg>
