<?xml version="1.0" encoding="UTF-8" standalone="no"?>
<!DOCTYPE svg PUBLIC "-//W3C//DTD SVG 1.1//EN"
 "http://www.w3.org/Graphics/SVG/1.1/DTD/svg11.dtd">
<!-- Generated by graphviz version 2.49.3 (20211027.1534)
 -->
<!-- Title: load1DKernel Pages: 1 -->
<svg width="730pt" height="234pt"
 viewBox="0.00 0.00 730.00 233.50" xmlns="http://www.w3.org/2000/svg" xmlns:xlink="http://www.w3.org/1999/xlink">
<g id="graph0" class="graph" transform="scale(1 1) rotate(0) translate(4 229.5)">
<title>load1DKernel</title>
<!-- Node1 -->
<g id="node1" class="node">
<title>Node1</title>
<g id="a_node1"><a xlink:title="Loads a radius of the circularly symmetric kernel into a 1&#45;d array, with respect to the kernel radius...">
<polygon fill="#bfbfbf" stroke="black" points="648,-95.5 648,-114.5 722,-114.5 722,-95.5 648,-95.5"/>
<text text-anchor="middle" x="685" y="-102.5" font-family="FreeSans.ttf" font-size="10.00">load1DKernel</text>
</a>
</g>
</g>
<!-- Node2 -->
<g id="node2" class="node">
<title>Node2</title>
<g id="a_node2"><a xlink:href="classgpuNUFFT_1_1GpuNUFFTOperator.html#a501ffa99025d9cc1f1497e354c56533b" target="_top" xlink:title="Precompute interpolation kernel lookup table.">
<polygon fill="none" stroke="black" points="454,-194 454,-224 612,-224 612,-194 454,-194"/>
<text text-anchor="start" x="462" y="-212" font-family="FreeSans.ttf" font-size="10.00">gpuNUFFT::GpuNUFFTOperator</text>
<text text-anchor="middle" x="533" y="-201" font-family="FreeSans.ttf" font-size="10.00">::initKernel</text>
</a>
</g>
</g>
<!-- Node1&#45;&gt;Node2 -->
<g id="edge1" class="edge">
<title>Node1&#45;&gt;Node2</title>
<path fill="none" stroke="midnightblue" d="M671.3,-122.58C658.18,-139.63 636.23,-165.17 612,-181 604.29,-186.03 595.56,-190.3 586.8,-193.87"/>
<polygon fill="midnightblue" stroke="midnightblue" points="674.14,-124.64 677.33,-114.54 668.53,-120.44 674.14,-124.64"/>
</g>
<!-- Node4 -->
<g id="node4" class="node">
<title>Node4</title>
<g id="a_node4"><a xlink:href="classgpuNUFFT_1_1TextureGpuNUFFTOperator.html#a3125b2b6c409e1d52050f9e3859f4f12" target="_top" xlink:title="Precompute interpolation kernel lookup table.">
<polygon fill="none" stroke="black" points="227,-107 227,-137 418,-137 418,-107 227,-107"/>
<text text-anchor="start" x="235" y="-125" font-family="FreeSans.ttf" font-size="10.00">gpuNUFFT::TextureGpuNUFFTOperator</text>
<text text-anchor="middle" x="322.5" y="-114" font-family="FreeSans.ttf" font-size="10.00">::initKernel</text>
</a>
</g>
</g>
<!-- Node1&#45;&gt;Node4 -->
<g id="edge3" class="edge">
<title>Node1&#45;&gt;Node4</title>
<path fill="none" stroke="midnightblue" d="M637.61,-107.19C582.42,-109.79 488.89,-114.2 418.21,-117.53"/>
<polygon fill="midnightblue" stroke="midnightblue" points="637.96,-110.68 647.78,-106.71 637.63,-103.68 637.96,-110.68"/>
</g>
<!-- Node6 -->
<g id="node6" class="node">
<title>Node6</title>
<g id="a_node6"><a xlink:href="gpuNUFFT__utils_8cpp.html#a03ba0850f7bccde81a06b55be0d6adb8" target="_top" xlink:title="Loads a radius of the circularly symmetric kernel into a 2&#45;d array, with respect to the kernel radius...">
<polygon fill="none" stroke="black" points="496,-152.5 496,-171.5 570,-171.5 570,-152.5 496,-152.5"/>
<text text-anchor="middle" x="533" y="-159.5" font-family="FreeSans.ttf" font-size="10.00">load2DKernel</text>
</a>
</g>
</g>
<!-- Node1&#45;&gt;Node6 -->
<g id="edge5" class="edge">
<title>Node1&#45;&gt;Node6</title>
<path fill="none" stroke="midnightblue" d="M656.01,-118.87C642.83,-125.13 626.79,-132.36 612,-138 597.97,-143.35 582.18,-148.38 568.5,-152.45"/>
<polygon fill="midnightblue" stroke="midnightblue" points="657.55,-122.01 665.04,-114.52 654.51,-115.7 657.55,-122.01"/>
</g>
<!-- Node8 -->
<g id="node8" class="node">
<title>Node8</title>
<g id="a_node8"><a xlink:href="gpuNUFFT__utils_8cpp.html#a4603fff4bc63b96eea4500784a77fc48" target="_top" xlink:title="Loads a radius of the circularly symmetric kernel into a 3&#45;d array, with respect to the kernel radius...">
<polygon fill="none" stroke="black" points="496,-76.5 496,-95.5 570,-95.5 570,-76.5 496,-76.5"/>
<text text-anchor="middle" x="533" y="-83.5" font-family="FreeSans.ttf" font-size="10.00">load3DKernel</text>
</a>
</g>
</g>
<!-- Node1&#45;&gt;Node8 -->
<g id="edge8" class="edge">
<title>Node1&#45;&gt;Node8</title>
<path fill="none" stroke="midnightblue" d="M637.7,-99.13C615.99,-96.39 590.51,-93.16 570.24,-90.59"/>
<polygon fill="midnightblue" stroke="midnightblue" points="637.33,-102.62 647.69,-100.4 638.21,-95.67 637.33,-102.62"/>
</g>
<!-- Node10 -->
<g id="node10" class="node">
<title>Node10</title>
<g id="a_node10"><a xlink:href="gpuNUFFT__utils_8cpp.html#acf5440ba3be843dac60ba8642a0b4ede" target="_top" xlink:title="Loads a radius of the circularly symmetric kernel into a 1&#45;d array, with respect to the kernel radius...">
<polygon fill="none" stroke="black" points="490,-38.5 490,-57.5 576,-57.5 576,-38.5 490,-38.5"/>
<text text-anchor="middle" x="533" y="-45.5" font-family="FreeSans.ttf" font-size="10.00">loadGrid3Kernel</text>
</a>
</g>
</g>
<!-- Node1&#45;&gt;Node10 -->
<g id="edge11" class="edge">
<title>Node1&#45;&gt;Node10</title>
<path fill="none" stroke="midnightblue" d="M659.75,-90.27C646.11,-82.49 628.54,-73.27 612,-67 600.66,-62.7 588.02,-59.13 576.27,-56.29"/>
<polygon fill="midnightblue" stroke="midnightblue" points="658.11,-93.37 668.51,-95.38 661.64,-87.32 658.11,-93.37"/>
</g>
<!-- Node11 -->
<g id="node11" class="node">
<title>Node11</title>
<g id="a_node11"><a xlink:href="gpuNUFFT__2D__conv__tests_8cpp.html#aaa68ca62ef9f76180f0da723f0da1dfb" target="_top" xlink:title=" ">
<polygon fill="none" stroke="black" points="512.5,-0.5 512.5,-19.5 553.5,-19.5 553.5,-0.5 512.5,-0.5"/>
<text text-anchor="middle" x="533" y="-7.5" font-family="FreeSans.ttf" font-size="10.00">TEST</text>
</a>
</g>
</g>
<!-- Node1&#45;&gt;Node11 -->
<g id="edge12" class="edge">
<title>Node1&#45;&gt;Node11</title>
<path fill="none" stroke="midnightblue" d="M671.85,-87.14C659.02,-69.66 637.17,-43.6 612,-29 593.92,-18.51 570.25,-13.79 553.74,-11.68"/>
<polygon fill="midnightblue" stroke="midnightblue" points="669.07,-89.27 677.71,-95.39 674.78,-85.21 669.07,-89.27"/>
</g>
<!-- Node3 -->
<g id="node3" class="node">
<title>Node3</title>
<g id="a_node3"><a xlink:href="classgpuNUFFT_1_1GpuNUFFTOperator.html#a412cbf2c22a1fbf1ebe47f4711be9fa4" target="_top" xlink:title="GpuNUFFTOperator ctor.">
<polygon fill="none" stroke="black" points="243.5,-195 243.5,-225 401.5,-225 401.5,-195 243.5,-195"/>
<text text-anchor="start" x="251.5" y="-213" font-family="FreeSans.ttf" font-size="10.00">gpuNUFFT::GpuNUFFTOperator</text>
<text text-anchor="middle" x="322.5" y="-202" font-family="FreeSans.ttf" font-size="10.00">::GpuNUFFTOperator</text>
</a>
</g>
</g>
<!-- Node2&#45;&gt;Node3 -->
<g id="edge2" class="edge">
<title>Node2&#45;&gt;Node3</title>
<path fill="none" stroke="midnightblue" d="M443.72,-209.42C429.8,-209.49 415.49,-209.56 401.82,-209.62"/>
<polygon fill="midnightblue" stroke="midnightblue" points="443.79,-212.92 453.77,-209.38 443.75,-205.92 443.79,-212.92"/>
</g>
<!-- Node5 -->
<g id="node5" class="node">
<title>Node5</title>
<g id="a_node5"><a xlink:href="classgpuNUFFT_1_1TextureGpuNUFFTOperator.html#ae409e2a90a74c6f1890a7591b2ac414d" target="_top" xlink:title=" ">
<polygon fill="none" stroke="black" points="0,-107 0,-137 191,-137 191,-107 0,-107"/>
<text text-anchor="start" x="8" y="-125" font-family="FreeSans.ttf" font-size="10.00">gpuNUFFT::TextureGpuNUFFTOperator</text>
<text text-anchor="middle" x="95.5" y="-114" font-family="FreeSans.ttf" font-size="10.00">::TextureGpuNUFFTOperator</text>
</a>
</g>
</g>
<!-- Node4&#45;&gt;Node5 -->
<g id="edge4" class="edge">
<title>Node4&#45;&gt;Node5</title>
<path fill="none" stroke="midnightblue" d="M216.47,-122C208.03,-122 199.53,-122 191.16,-122"/>
<polygon fill="midnightblue" stroke="midnightblue" points="216.73,-125.5 226.73,-122 216.73,-118.5 216.73,-125.5"/>
</g>
<!-- Node6&#45;&gt;Node4 -->
<g id="edge6" class="edge">
<title>Node6&#45;&gt;Node4</title>
<path fill="none" stroke="midnightblue" d="M485.86,-153.15C461.16,-148.41 430.06,-142.44 401.71,-137"/>
<polygon fill="midnightblue" stroke="midnightblue" points="485.2,-156.59 495.68,-155.03 486.52,-149.71 485.2,-156.59"/>
</g>
<!-- Node7 -->
<g id="node7" class="node">
<title>Node7</title>
<g id="a_node7"><a xlink:href="gpuNUFFT__conv__tests_8cpp.html#ad3d34fdd2b1c2e4e793734b844b97441" target="_top" xlink:title=" ">
<polygon fill="none" stroke="black" points="302,-156.5 302,-175.5 343,-175.5 343,-156.5 302,-156.5"/>
<text text-anchor="middle" x="322.5" y="-163.5" font-family="FreeSans.ttf" font-size="10.00">TEST</text>
</a>
</g>
</g>
<!-- Node6&#45;&gt;Node7 -->
<g id="edge7" class="edge">
<title>Node6&#45;&gt;Node7</title>
<path fill="none" stroke="midnightblue" d="M485.64,-162.89C440.94,-163.75 375.46,-165 343.09,-165.62"/>
<polygon fill="midnightblue" stroke="midnightblue" points="485.75,-166.39 495.68,-162.7 485.62,-159.39 485.75,-166.39"/>
</g>
<!-- Node8&#45;&gt;Node4 -->
<g id="edge9" class="edge">
<title>Node8&#45;&gt;Node4</title>
<path fill="none" stroke="midnightblue" d="M485.58,-94.01C463.46,-97.83 436.26,-102.53 410.51,-106.98"/>
<polygon fill="midnightblue" stroke="midnightblue" points="486.42,-97.42 495.68,-92.27 485.23,-90.52 486.42,-97.42"/>
</g>
<!-- Node9 -->
<g id="node9" class="node">
<title>Node9</title>
<g id="a_node9"><a xlink:href="gpuNUFFT__conv__tests_8cpp.html#ae35c8317989c915c0e21d3a2bd4d10a6" target="_top" xlink:title=" ">
<polygon fill="none" stroke="black" points="302,-68.5 302,-87.5 343,-87.5 343,-68.5 302,-68.5"/>
<text text-anchor="middle" x="322.5" y="-75.5" font-family="FreeSans.ttf" font-size="10.00">TEST</text>
</a>
</g>
</g>
<!-- Node8&#45;&gt;Node9 -->
<g id="edge10" class="edge">
<title>Node8&#45;&gt;Node9</title>
<path fill="none" stroke="midnightblue" d="M485.64,-84.22C440.94,-82.51 375.46,-79.99 343.09,-78.75"/>
<polygon fill="midnightblue" stroke="midnightblue" points="485.56,-87.72 495.68,-84.61 485.82,-80.73 485.56,-87.72"/>
</g>
</g>
</svg>
