<?xml version="1.0" encoding="UTF-8" standalone="no"?>
<!DOCTYPE svg PUBLIC "-//W3C//DTD SVG 1.1//EN"
 "http://www.w3.org/Graphics/SVG/1.1/DTD/svg11.dtd">
<!-- Generated by graphviz version 2.49.3 (20211027.1534)
 -->
<!-- Title: CUDA/inc/gpuNUFFT_utils.hpp Pages: 1 -->
<svg width="1142pt" height="464pt"
 viewBox="0.00 0.00 1142.00 464.00" xmlns="http://www.w3.org/2000/svg" xmlns:xlink="http://www.w3.org/1999/xlink">
<g id="graph0" class="graph" transform="scale(1 1) rotate(0) translate(4 460)">
<title>CUDA/inc/gpuNUFFT_utils.hpp</title>
<!-- Node1 -->
<g id="node1" class="node">
<title>Node1</title>
<g id="a_node1"><a xlink:title="Definition of util functions used in gridding operations.">
<polygon fill="#bfbfbf" stroke="black" points="273.5,-436.5 273.5,-455.5 426.5,-455.5 426.5,-436.5 273.5,-436.5"/>
<text text-anchor="middle" x="350" y="-443.5" font-family="FreeSans.ttf" font-size="10.00">CUDA/inc/gpuNUFFT_utils.hpp</text>
</a>
</g>
</g>
<!-- Node2 -->
<g id="node2" class="node">
<title>Node2</title>
<g id="a_node2"><a xlink:href="cuda__utils_8hpp.html" target="_top" xlink:title="Util functions for CUDA memory and texture management.">
<polygon fill="none" stroke="black" points="196.5,-380.5 196.5,-399.5 321.5,-399.5 321.5,-380.5 196.5,-380.5"/>
<text text-anchor="middle" x="259" y="-387.5" font-family="FreeSans.ttf" font-size="10.00">CUDA/inc/cuda_utils.hpp</text>
</a>
</g>
</g>
<!-- Node1&#45;&gt;Node2 -->
<g id="edge1" class="edge">
<title>Node1&#45;&gt;Node2</title>
<path fill="none" stroke="midnightblue" d="M326.71,-431.18C309.96,-421.24 287.9,-408.15 273.58,-399.65"/>
<polygon fill="midnightblue" stroke="midnightblue" points="324.99,-434.23 335.38,-436.32 328.57,-428.21 324.99,-434.23"/>
</g>
<!-- Node3 -->
<g id="node3" class="node">
<title>Node3</title>
<g id="a_node3"><a xlink:href="gpuNUFFT__kernels_8hpp.html" target="_top" xlink:title="gpuNUFFT CUDA function prototypes">
<polygon fill="none" stroke="black" points="853.5,-324.5 853.5,-343.5 1020.5,-343.5 1020.5,-324.5 853.5,-324.5"/>
<text text-anchor="middle" x="937" y="-331.5" font-family="FreeSans.ttf" font-size="10.00">CUDA/inc/gpuNUFFT_kernels.hpp</text>
</a>
</g>
</g>
<!-- Node1&#45;&gt;Node3 -->
<g id="edge35" class="edge">
<title>Node1&#45;&gt;Node3</title>
<path fill="none" stroke="midnightblue" d="M350.38,-425.95C351.79,-410.99 356.33,-390.93 370,-380 410.91,-347.3 787.81,-348.42 840,-344 844.38,-343.63 848.87,-343.24 853.41,-342.84"/>
<polygon fill="midnightblue" stroke="midnightblue" points="346.87,-425.98 349.82,-436.15 353.86,-426.36 346.87,-425.98"/>
</g>
<!-- Node17 -->
<g id="node17" class="node">
<title>Node17</title>
<g id="a_node17"><a xlink:href="precomp__utils_8hpp.html" target="_top" xlink:title="UTIL functions for precomputation.">
<polygon fill="none" stroke="black" points="44,-207 44,-226 186,-226 186,-207 44,-207"/>
<text text-anchor="middle" x="115" y="-214" font-family="FreeSans.ttf" font-size="10.00">CUDA/inc/precomp_utils.hpp</text>
</a>
</g>
</g>
<!-- Node1&#45;&gt;Node17 -->
<g id="edge36" class="edge">
<title>Node1&#45;&gt;Node17</title>
<path fill="none" stroke="midnightblue" d="M263.45,-436.18C236.4,-429.74 208.13,-418.73 187,-400 132.2,-351.43 118.66,-255.72 115.73,-226.31"/>
<polygon fill="midnightblue" stroke="midnightblue" points="262.83,-439.63 273.34,-438.36 264.33,-432.79 262.83,-439.63"/>
</g>
<!-- Node22 -->
<g id="node22" class="node">
<title>Node22</title>
<g id="a_node22"><a xlink:href="gpuNUFFT__cpu_8hpp.html" target="_top" xlink:title=" ">
<polygon fill="none" stroke="black" points="378.5,-380.5 378.5,-399.5 529.5,-399.5 529.5,-380.5 378.5,-380.5"/>
<text text-anchor="middle" x="454" y="-387.5" font-family="FreeSans.ttf" font-size="10.00">CUDA/inc/gpuNUFFT_cpu.hpp</text>
</a>
</g>
</g>
<!-- Node1&#45;&gt;Node22 -->
<g id="edge34" class="edge">
<title>Node1&#45;&gt;Node22</title>
<path fill="none" stroke="midnightblue" d="M375.83,-431.59C395.06,-421.61 420.74,-408.27 437.33,-399.65"/>
<polygon fill="midnightblue" stroke="midnightblue" points="373.97,-428.61 366.71,-436.32 377.2,-434.82 373.97,-428.61"/>
</g>
<!-- Node23 -->
<g id="node23" class="node">
<title>Node23</title>
<g id="a_node23"><a xlink:href="gpuNUFFT__utils_8cpp.html" target="_top" xlink:title=" ">
<polygon fill="none" stroke="black" points="548,-380.5 548,-399.5 702,-399.5 702,-380.5 548,-380.5"/>
<text text-anchor="middle" x="625" y="-387.5" font-family="FreeSans.ttf" font-size="10.00">CUDA/src/gpuNUFFT_utils.cpp</text>
</a>
</g>
</g>
<!-- Node1&#45;&gt;Node23 -->
<g id="edge37" class="edge">
<title>Node1&#45;&gt;Node23</title>
<path fill="none" stroke="midnightblue" d="M403.61,-434.47C455.58,-424.27 533.44,-408.98 581.63,-399.52"/>
<polygon fill="midnightblue" stroke="midnightblue" points="402.71,-431.08 393.57,-436.44 404.06,-437.95 402.71,-431.08"/>
</g>
<!-- Node2&#45;&gt;Node3 -->
<g id="edge2" class="edge">
<title>Node2&#45;&gt;Node3</title>
<path fill="none" stroke="midnightblue" d="M331.56,-380.43C333.05,-380.28 334.53,-380.14 336,-380 559.58,-358.96 616.18,-362.37 840,-344 844.38,-343.64 848.88,-343.26 853.41,-342.87"/>
<polygon fill="midnightblue" stroke="midnightblue" points="331.18,-376.95 321.59,-381.45 331.89,-383.91 331.18,-376.95"/>
</g>
<!-- Node6 -->
<g id="node6" class="node">
<title>Node6</title>
<g id="a_node6"><a xlink:href="gpuNUFFT__operator__factory_8hpp.html" target="_top" xlink:title=" ">
<polygon fill="none" stroke="black" points="370,-67.5 370,-97.5 522,-97.5 522,-67.5 370,-67.5"/>
<text text-anchor="start" x="378" y="-85.5" font-family="FreeSans.ttf" font-size="10.00">CUDA/inc/gpuNUFFT_operator</text>
<text text-anchor="middle" x="446" y="-74.5" font-family="FreeSans.ttf" font-size="10.00">_factory.hpp</text>
</a>
</g>
</g>
<!-- Node2&#45;&gt;Node6 -->
<g id="edge30" class="edge">
<title>Node2&#45;&gt;Node6</title>
<path fill="none" stroke="midnightblue" d="M208.17,-378.25C132.74,-360.81 0,-323.77 0,-279 0,-279 0,-279 0,-215.5 0,-173.69 12.18,-157.15 47,-134 98.38,-99.83 269.01,-88.77 369.73,-85.2"/>
<polygon fill="midnightblue" stroke="midnightblue" points="207.43,-381.67 217.96,-380.48 208.99,-374.85 207.43,-381.67"/>
</g>
<!-- Node15 -->
<g id="node15" class="node">
<title>Node15</title>
<g id="a_node15"><a xlink:href="precomp__kernels_8hpp.html" target="_top" xlink:title="GPU Kernels for Precomputation (sector assignment)">
<polygon fill="none" stroke="black" points="66.5,-140 66.5,-159 221.5,-159 221.5,-140 66.5,-140"/>
<text text-anchor="middle" x="144" y="-147" font-family="FreeSans.ttf" font-size="10.00">CUDA/inc/precomp_kernels.hpp</text>
</a>
</g>
</g>
<!-- Node2&#45;&gt;Node15 -->
<g id="edge31" class="edge">
<title>Node2&#45;&gt;Node15</title>
<path fill="none" stroke="midnightblue" d="M255.61,-370.26C248.6,-334.97 230.16,-257.17 195,-201 184.29,-183.89 166.71,-168.21 155.25,-159.01"/>
<polygon fill="midnightblue" stroke="midnightblue" points="252.18,-370.97 257.49,-380.14 259.06,-369.66 252.18,-370.97"/>
</g>
<!-- Node16 -->
<g id="node16" class="node">
<title>Node16</title>
<g id="a_node16"><a xlink:href="gpuNUFFT__operator_8cpp.html" target="_top" xlink:title=" ">
<polygon fill="none" stroke="black" points="794.5,-73 794.5,-92 965.5,-92 965.5,-73 794.5,-73"/>
<text text-anchor="middle" x="880" y="-80" font-family="FreeSans.ttf" font-size="10.00">CUDA/src/gpuNUFFT_operator.cpp</text>
</a>
</g>
</g>
<!-- Node2&#45;&gt;Node16 -->
<g id="edge33" class="edge">
<title>Node2&#45;&gt;Node16</title>
<path fill="none" stroke="midnightblue" d="M299.46,-377.7C382.08,-354.16 575.61,-296.66 732,-232 793.53,-206.56 826.31,-218.46 866,-165 882.43,-142.87 882.09,-108.09 880.89,-92.08"/>
<polygon fill="midnightblue" stroke="midnightblue" points="298.37,-374.37 289.71,-380.47 300.28,-381.1 298.37,-374.37"/>
</g>
<!-- Node2&#45;&gt;Node17 -->
<g id="edge32" class="edge">
<title>Node2&#45;&gt;Node17</title>
<path fill="none" stroke="midnightblue" d="M236.94,-374.78C225.21,-366.61 210.98,-355.66 200,-344 162.99,-304.71 130.99,-247.71 119.52,-226.17"/>
<polygon fill="midnightblue" stroke="midnightblue" points="235.09,-377.76 245.33,-380.46 239.01,-371.96 235.09,-377.76"/>
</g>
<!-- Node4 -->
<g id="node4" class="node">
<title>Node4</title>
<g id="a_node4"><a xlink:href="gpuNUFFT__operator_8hpp.html" target="_top" xlink:title=" ">
<polygon fill="none" stroke="black" points="326,-268.5 326,-287.5 496,-287.5 496,-268.5 326,-268.5"/>
<text text-anchor="middle" x="411" y="-275.5" font-family="FreeSans.ttf" font-size="10.00">CUDA/inc/gpuNUFFT_operator.hpp</text>
</a>
</g>
</g>
<!-- Node3&#45;&gt;Node4 -->
<g id="edge3" class="edge">
<title>Node3&#45;&gt;Node4</title>
<path fill="none" stroke="midnightblue" d="M843.93,-323.45C744.76,-313.26 589.21,-297.3 494.05,-287.53"/>
<polygon fill="midnightblue" stroke="midnightblue" points="843.64,-326.93 853.94,-324.47 844.35,-319.97 843.64,-326.93"/>
</g>
<!-- Node3&#45;&gt;Node16 -->
<g id="edge29" class="edge">
<title>Node3&#45;&gt;Node16</title>
<path fill="none" stroke="midnightblue" d="M937.53,-314.3C937.96,-278.25 936,-197.14 913,-134 907.12,-117.86 895.23,-101.68 887.44,-92.13"/>
<polygon fill="midnightblue" stroke="midnightblue" points="934.03,-314.27 937.33,-324.34 941.03,-314.41 934.03,-314.27"/>
</g>
<!-- Node4&#45;&gt;Node2 -->
<g id="edge14" class="edge">
<title>Node4&#45;&gt;Node2</title>
<path fill="none" stroke="midnightblue" d="M390.92,-293.53C358.81,-316.77 296.9,-361.57 270.93,-380.37"/>
<polygon fill="midnightblue" stroke="midnightblue" points="393.08,-296.29 399.13,-287.59 388.98,-290.62 393.08,-296.29"/>
</g>
<!-- Node5 -->
<g id="node5" class="node">
<title>Node5</title>
<g id="a_node5"><a xlink:href="balanced__gpuNUFFT__operator_8hpp.html" target="_top" xlink:title=" ">
<polygon fill="none" stroke="black" points="280,-201.5 280,-231.5 436,-231.5 436,-201.5 280,-201.5"/>
<text text-anchor="start" x="288" y="-219.5" font-family="FreeSans.ttf" font-size="10.00">CUDA/inc/balanced_gpuNUFFT</text>
<text text-anchor="middle" x="358" y="-208.5" font-family="FreeSans.ttf" font-size="10.00">_operator.hpp</text>
</a>
</g>
</g>
<!-- Node4&#45;&gt;Node5 -->
<g id="edge4" class="edge">
<title>Node4&#45;&gt;Node5</title>
<path fill="none" stroke="midnightblue" d="M396.58,-260.81C388.42,-251.65 378.31,-240.3 370.49,-231.52"/>
<polygon fill="midnightblue" stroke="midnightblue" points="394.14,-263.34 403.41,-268.48 399.37,-258.68 394.14,-263.34"/>
</g>
<!-- Node4&#45;&gt;Node6 -->
<g id="edge15" class="edge">
<title>Node4&#45;&gt;Node6</title>
<path fill="none" stroke="midnightblue" d="M427.15,-260.95C434.06,-252.97 441.36,-242.74 445,-232 460.89,-185.12 453.51,-125.03 448.82,-97.91"/>
<polygon fill="midnightblue" stroke="midnightblue" points="424.49,-258.67 420.27,-268.39 429.63,-263.43 424.49,-258.67"/>
</g>
<!-- Node4&#45;&gt;Node15 -->
<g id="edge16" class="edge">
<title>Node4&#45;&gt;Node15</title>
<path fill="none" stroke="midnightblue" d="M363.9,-265.83C336.04,-258.26 300.53,-246.92 271,-232 249.97,-221.38 247.67,-213.97 228,-201 204.42,-185.45 176.1,-168.83 159.1,-159.07"/>
<polygon fill="midnightblue" stroke="midnightblue" points="363.24,-269.28 373.8,-268.45 365.02,-262.51 363.24,-269.28"/>
</g>
<!-- Node4&#45;&gt;Node16 -->
<g id="edge28" class="edge">
<title>Node4&#45;&gt;Node16</title>
<path fill="none" stroke="midnightblue" d="M481.61,-266.89C589.86,-250.08 789.81,-213.36 842,-165 863.99,-144.63 874.37,-108.97 878.19,-92.41"/>
<polygon fill="midnightblue" stroke="midnightblue" points="480.78,-263.48 471.43,-268.46 481.84,-270.4 480.78,-263.48"/>
</g>
<!-- Node4&#45;&gt;Node17 -->
<g id="edge19" class="edge">
<title>Node4&#45;&gt;Node17</title>
<path fill="none" stroke="midnightblue" d="M358.64,-266.47C301.27,-254.94 210.38,-236.67 157.33,-226.01"/>
<polygon fill="midnightblue" stroke="midnightblue" points="358.1,-269.94 368.59,-268.48 359.48,-263.07 358.1,-269.94"/>
</g>
<!-- Node18 -->
<g id="node18" class="node">
<title>Node18</title>
<g id="a_node18"><a xlink:href="texture__gpuNUFFT__operator_8hpp.html" target="_top" xlink:title=" ">
<polygon fill="none" stroke="black" points="509,-201.5 509,-231.5 655,-231.5 655,-201.5 509,-201.5"/>
<text text-anchor="start" x="517" y="-219.5" font-family="FreeSans.ttf" font-size="10.00">CUDA/inc/texture_gpuNUFFT</text>
<text text-anchor="middle" x="582" y="-208.5" font-family="FreeSans.ttf" font-size="10.00">_operator.hpp</text>
</a>
</g>
</g>
<!-- Node4&#45;&gt;Node18 -->
<g id="edge22" class="edge">
<title>Node4&#45;&gt;Node18</title>
<path fill="none" stroke="midnightblue" d="M445.19,-265.1C473.02,-255.42 512.34,-241.74 541.7,-231.52"/>
<polygon fill="midnightblue" stroke="midnightblue" points="443.79,-261.88 435.5,-268.48 446.09,-268.49 443.79,-261.88"/>
</g>
<!-- Node5&#45;&gt;Node6 -->
<g id="edge5" class="edge">
<title>Node5&#45;&gt;Node6</title>
<path fill="none" stroke="midnightblue" d="M304.52,-196.82C290.5,-189.21 277.07,-178.85 269,-165 262.07,-153.09 260.7,-145 269,-134 281.61,-117.29 327.66,-104.46 369.63,-95.91"/>
<polygon fill="midnightblue" stroke="midnightblue" points="303.26,-200.1 313.77,-201.44 306.39,-193.84 303.26,-200.1"/>
</g>
<!-- Node14 -->
<g id="node14" class="node">
<title>Node14</title>
<g id="a_node14"><a xlink:href="balanced__gpuNUFFT__operator_8cpp.html" target="_top" xlink:title=" ">
<polygon fill="none" stroke="black" points="278.5,-134.5 278.5,-164.5 435.5,-164.5 435.5,-134.5 278.5,-134.5"/>
<text text-anchor="start" x="286.5" y="-152.5" font-family="FreeSans.ttf" font-size="10.00">CUDA/src/balanced_gpuNUFFT</text>
<text text-anchor="middle" x="357" y="-141.5" font-family="FreeSans.ttf" font-size="10.00">_operator.cpp</text>
</a>
</g>
</g>
<!-- Node5&#45;&gt;Node14 -->
<g id="edge13" class="edge">
<title>Node5&#45;&gt;Node14</title>
<path fill="none" stroke="midnightblue" d="M357.62,-191.11C357.49,-182.15 357.34,-172.32 357.22,-164.58"/>
<polygon fill="midnightblue" stroke="midnightblue" points="354.13,-191.45 357.78,-201.4 361.13,-191.34 354.13,-191.45"/>
</g>
<!-- Node7 -->
<g id="node7" class="node">
<title>Node7</title>
<g id="a_node7"><a xlink:href="gpuNUFFT__operator__factory_8cpp.html" target="_top" xlink:title=" ">
<polygon fill="none" stroke="black" points="47.5,-0.5 47.5,-30.5 200.5,-30.5 200.5,-0.5 47.5,-0.5"/>
<text text-anchor="start" x="55.5" y="-18.5" font-family="FreeSans.ttf" font-size="10.00">CUDA/src/gpuNUFFT_operator</text>
<text text-anchor="middle" x="124" y="-7.5" font-family="FreeSans.ttf" font-size="10.00">_factory.cpp</text>
</a>
</g>
</g>
<!-- Node6&#45;&gt;Node7 -->
<g id="edge6" class="edge">
<title>Node6&#45;&gt;Node7</title>
<path fill="none" stroke="midnightblue" d="M366.49,-65.45C313.48,-54.75 244.47,-40.82 193.63,-30.55"/>
<polygon fill="midnightblue" stroke="midnightblue" points="366.03,-68.93 376.53,-67.48 367.42,-62.07 366.03,-68.93"/>
</g>
<!-- Node8 -->
<g id="node8" class="node">
<title>Node8</title>
<g id="a_node8"><a xlink:href="gpuNUFFT__forward__tests_8cpp.html" target="_top" xlink:title=" ">
<polygon fill="none" stroke="black" points="830.5,-0.5 830.5,-30.5 981.5,-30.5 981.5,-0.5 830.5,-0.5"/>
<text text-anchor="start" x="838.5" y="-18.5" font-family="FreeSans.ttf" font-size="10.00">CUDA/test/gpu/forward</text>
<text text-anchor="middle" x="906" y="-7.5" font-family="FreeSans.ttf" font-size="10.00">/gpuNUFFT_forward_tests.cpp</text>
</a>
</g>
</g>
<!-- Node6&#45;&gt;Node8 -->
<g id="edge7" class="edge">
<title>Node6&#45;&gt;Node8</title>
<path fill="none" stroke="midnightblue" d="M532.34,-67C662.18,-48.28 696.66,-49.59 822,-31 824.78,-30.59 827.61,-30.16 830.47,-29.71"/>
<polygon fill="midnightblue" stroke="midnightblue" points="531.8,-63.54 522.41,-68.44 532.8,-70.47 531.8,-63.54"/>
</g>
<!-- Node9 -->
<g id="node9" class="node">
<title>Node9</title>
<g id="a_node9"><a xlink:href="gpuNUFFT__2D__conv__tests_8cpp.html" target="_top" xlink:title=" ">
<polygon fill="none" stroke="black" points="1000,-0.5 1000,-30.5 1134,-30.5 1134,-0.5 1000,-0.5"/>
<text text-anchor="start" x="1008" y="-18.5" font-family="FreeSans.ttf" font-size="10.00">CUDA/test/gpu/gpuNUFFT</text>
<text text-anchor="middle" x="1067" y="-7.5" font-family="FreeSans.ttf" font-size="10.00">_2D_conv_tests.cpp</text>
</a>
</g>
</g>
<!-- Node6&#45;&gt;Node9 -->
<g id="edge8" class="edge">
<title>Node6&#45;&gt;Node9</title>
<path fill="none" stroke="midnightblue" d="M532.54,-67.02C736.84,-42.48 791.46,-57.78 991,-31 993.93,-30.61 996.92,-30.17 999.93,-29.71"/>
<polygon fill="midnightblue" stroke="midnightblue" points="531.88,-63.58 522.38,-68.26 532.73,-70.52 531.88,-63.58"/>
</g>
<!-- Node10 -->
<g id="node10" class="node">
<title>Node10</title>
<g id="a_node10"><a xlink:href="gpuNUFFT__conv__tests_8cpp.html" target="_top" xlink:title=" ">
<polygon fill="none" stroke="black" points="219,-0.5 219,-30.5 353,-30.5 353,-0.5 219,-0.5"/>
<text text-anchor="start" x="227" y="-18.5" font-family="FreeSans.ttf" font-size="10.00">CUDA/test/gpu/gpuNUFFT</text>
<text text-anchor="middle" x="286" y="-7.5" font-family="FreeSans.ttf" font-size="10.00">_conv_tests.cpp</text>
</a>
</g>
</g>
<!-- Node6&#45;&gt;Node10 -->
<g id="edge9" class="edge">
<title>Node6&#45;&gt;Node10</title>
<path fill="none" stroke="midnightblue" d="M401.8,-63.54C376.2,-53.14 344.43,-40.24 320.65,-30.58"/>
<polygon fill="midnightblue" stroke="midnightblue" points="400.7,-66.87 411.28,-67.4 403.34,-60.39 400.7,-66.87"/>
</g>
<!-- Node11 -->
<g id="node11" class="node">
<title>Node11</title>
<g id="a_node11"><a xlink:href="gpuNUFFT__deapo__tests_8cpp.html" target="_top" xlink:title=" ">
<polygon fill="none" stroke="black" points="371,-0.5 371,-30.5 505,-30.5 505,-0.5 371,-0.5"/>
<text text-anchor="start" x="379" y="-18.5" font-family="FreeSans.ttf" font-size="10.00">CUDA/test/gpu/gpuNUFFT</text>
<text text-anchor="middle" x="438" y="-7.5" font-family="FreeSans.ttf" font-size="10.00">_deapo_tests.cpp</text>
</a>
</g>
</g>
<!-- Node6&#45;&gt;Node11 -->
<g id="edge10" class="edge">
<title>Node6&#45;&gt;Node11</title>
<path fill="none" stroke="midnightblue" d="M443.03,-57.4C441.92,-48.37 440.7,-38.41 439.73,-30.58"/>
<polygon fill="midnightblue" stroke="midnightblue" points="439.57,-57.9 444.26,-67.4 446.52,-57.04 439.57,-57.9"/>
</g>
<!-- Node12 -->
<g id="node12" class="node">
<title>Node12</title>
<g id="a_node12"><a xlink:href="gpuNUFFT__fft__tests_8cpp.html" target="_top" xlink:title=" ">
<polygon fill="none" stroke="black" points="523,-0.5 523,-30.5 657,-30.5 657,-0.5 523,-0.5"/>
<text text-anchor="start" x="531" y="-18.5" font-family="FreeSans.ttf" font-size="10.00">CUDA/test/gpu/gpuNUFFT</text>
<text text-anchor="middle" x="590" y="-7.5" font-family="FreeSans.ttf" font-size="10.00">_fft_tests.cpp</text>
</a>
</g>
</g>
<!-- Node6&#45;&gt;Node12 -->
<g id="edge11" class="edge">
<title>Node6&#45;&gt;Node12</title>
<path fill="none" stroke="midnightblue" d="M486.39,-63.27C509.32,-52.92 537.6,-40.15 558.82,-30.58"/>
<polygon fill="midnightblue" stroke="midnightblue" points="484.92,-60.09 477.25,-67.4 487.8,-66.47 484.92,-60.09"/>
</g>
<!-- Node13 -->
<g id="node13" class="node">
<title>Node13</title>
<g id="a_node13"><a xlink:href="gpuNUFFT__operator__python__factory_8cpp.html" target="_top" xlink:title=" ">
<polygon fill="none" stroke="black" points="675.5,-0.5 675.5,-30.5 812.5,-30.5 812.5,-0.5 675.5,-0.5"/>
<text text-anchor="start" x="683.5" y="-18.5" font-family="FreeSans.ttf" font-size="10.00">python/gpuNUFFT_operator</text>
<text text-anchor="middle" x="744" y="-7.5" font-family="FreeSans.ttf" font-size="10.00">_python_factory.cpp</text>
</a>
</g>
</g>
<!-- Node6&#45;&gt;Node13 -->
<g id="edge12" class="edge">
<title>Node6&#45;&gt;Node13</title>
<path fill="none" stroke="midnightblue" d="M520.2,-65.32C569.18,-54.63 632.71,-40.77 679.56,-30.55"/>
<polygon fill="midnightblue" stroke="midnightblue" points="519.32,-61.93 510.29,-67.48 520.81,-68.76 519.32,-61.93"/>
</g>
<!-- Node15&#45;&gt;Node7 -->
<g id="edge18" class="edge">
<title>Node15&#45;&gt;Node7</title>
<path fill="none" stroke="midnightblue" d="M141.18,-129.89C137.14,-103.24 129.8,-54.8 126.16,-30.78"/>
<polygon fill="midnightblue" stroke="midnightblue" points="137.73,-130.48 142.69,-139.84 144.65,-129.43 137.73,-130.48"/>
</g>
<!-- Node15&#45;&gt;Node16 -->
<g id="edge17" class="edge">
<title>Node15&#45;&gt;Node16</title>
<path fill="none" stroke="midnightblue" d="M224.23,-138.8C239.1,-137.11 254.52,-135.44 269,-134 368.5,-124.12 651.03,-101.54 794.36,-90.23"/>
<polygon fill="midnightblue" stroke="midnightblue" points="223.57,-135.35 214.03,-139.96 224.37,-142.3 223.57,-135.35"/>
</g>
<!-- Node17&#45;&gt;Node6 -->
<g id="edge20" class="edge">
<title>Node17&#45;&gt;Node6</title>
<path fill="none" stroke="midnightblue" d="M92.53,-201.14C68.92,-184.33 37.69,-155.98 57,-134 77.28,-110.91 262.35,-95.28 369.75,-88.06"/>
<polygon fill="midnightblue" stroke="midnightblue" points="90.85,-204.24 101.08,-206.98 94.8,-198.45 90.85,-204.24"/>
</g>
<!-- Node17&#45;&gt;Node15 -->
<g id="edge21" class="edge">
<title>Node17&#45;&gt;Node15</title>
<path fill="none" stroke="midnightblue" d="M123.12,-197.29C128.69,-184.81 135.83,-168.81 140.15,-159.13"/>
<polygon fill="midnightblue" stroke="midnightblue" points="119.79,-196.18 118.91,-206.73 126.18,-199.03 119.79,-196.18"/>
</g>
<!-- Node18&#45;&gt;Node6 -->
<g id="edge26" class="edge">
<title>Node18&#45;&gt;Node6</title>
<path fill="none" stroke="midnightblue" d="M556.3,-195.02C545.45,-186.09 532.85,-175.31 522,-165 498.3,-142.48 472.77,-114.17 458.16,-97.54"/>
<polygon fill="midnightblue" stroke="midnightblue" points="554.23,-197.85 564.19,-201.45 558.65,-192.42 554.23,-197.85"/>
</g>
<!-- Node19 -->
<g id="node19" class="node">
<title>Node19</title>
<g id="a_node19"><a xlink:href="balanced__texture__gpuNUFFT__operator_8hpp.html" target="_top" xlink:title=" ">
<polygon fill="none" stroke="black" points="530.5,-134.5 530.5,-164.5 667.5,-164.5 667.5,-134.5 530.5,-134.5"/>
<text text-anchor="start" x="538.5" y="-152.5" font-family="FreeSans.ttf" font-size="10.00">CUDA/inc/balanced_texture</text>
<text text-anchor="middle" x="599" y="-141.5" font-family="FreeSans.ttf" font-size="10.00">_gpuNUFFT_operator.hpp</text>
</a>
</g>
</g>
<!-- Node18&#45;&gt;Node19 -->
<g id="edge23" class="edge">
<title>Node18&#45;&gt;Node19</title>
<path fill="none" stroke="midnightblue" d="M588.23,-191.7C590.61,-182.59 593.25,-172.49 595.32,-164.58"/>
<polygon fill="midnightblue" stroke="midnightblue" points="584.83,-190.84 585.69,-201.4 591.61,-192.61 584.83,-190.84"/>
</g>
<!-- Node21 -->
<g id="node21" class="node">
<title>Node21</title>
<g id="a_node21"><a xlink:href="texture__gpuNUFFT__operator_8cpp.html" target="_top" xlink:title=" ">
<polygon fill="none" stroke="black" points="685.5,-134.5 685.5,-164.5 832.5,-164.5 832.5,-134.5 685.5,-134.5"/>
<text text-anchor="start" x="693.5" y="-152.5" font-family="FreeSans.ttf" font-size="10.00">CUDA/src/texture_gpuNUFFT</text>
<text text-anchor="middle" x="759" y="-141.5" font-family="FreeSans.ttf" font-size="10.00">_operator.cpp</text>
</a>
</g>
</g>
<!-- Node18&#45;&gt;Node21 -->
<g id="edge27" class="edge">
<title>Node18&#45;&gt;Node21</title>
<path fill="none" stroke="midnightblue" d="M630.15,-197.82C658.6,-187.37 694.13,-174.32 720.67,-164.58"/>
<polygon fill="midnightblue" stroke="midnightblue" points="628.59,-194.66 620.41,-201.4 631,-201.23 628.59,-194.66"/>
</g>
<!-- Node19&#45;&gt;Node6 -->
<g id="edge24" class="edge">
<title>Node19&#45;&gt;Node6</title>
<path fill="none" stroke="midnightblue" d="M556.41,-130.41C531.98,-120.03 501.78,-107.2 479.13,-97.58"/>
<polygon fill="midnightblue" stroke="midnightblue" points="555.23,-133.71 565.8,-134.4 557.97,-127.26 555.23,-133.71"/>
</g>
<!-- Node20 -->
<g id="node20" class="node">
<title>Node20</title>
<g id="a_node20"><a xlink:href="balanced__texture__gpuNUFFT__operator_8cpp.html" target="_top" xlink:title=" ">
<polygon fill="none" stroke="black" points="540.5,-67.5 540.5,-97.5 677.5,-97.5 677.5,-67.5 540.5,-67.5"/>
<text text-anchor="start" x="548.5" y="-85.5" font-family="FreeSans.ttf" font-size="10.00">CUDA/src/balanced_texture</text>
<text text-anchor="middle" x="609" y="-74.5" font-family="FreeSans.ttf" font-size="10.00">_gpuNUFFT_operator.cpp</text>
</a>
</g>
</g>
<!-- Node19&#45;&gt;Node20 -->
<g id="edge25" class="edge">
<title>Node19&#45;&gt;Node20</title>
<path fill="none" stroke="midnightblue" d="M602.71,-124.4C604.1,-115.37 605.63,-105.41 606.83,-97.58"/>
<polygon fill="midnightblue" stroke="midnightblue" points="599.23,-123.98 601.17,-134.4 606.15,-125.04 599.23,-123.98"/>
</g>
</g>
</svg>
