<?xml version="1.0" encoding="UTF-8" standalone="no"?>
<!DOCTYPE svg PUBLIC "-//W3C//DTD SVG 1.1//EN"
 "http://www.w3.org/Graphics/SVG/1.1/DTD/svg11.dtd">
<!-- Generated by graphviz version 2.49.3 (20211027.1534)
 -->
<!-- Title: load3DKernel Pages: 1 -->
<svg width="536pt" height="78pt"
 viewBox="0.00 0.00 536.00 77.50" xmlns="http://www.w3.org/2000/svg" xmlns:xlink="http://www.w3.org/1999/xlink">
<g id="graph0" class="graph" transform="scale(1 1) rotate(0) translate(4 73.5)">
<title>load3DKernel</title>
<!-- Node1 -->
<g id="node1" class="node">
<title>Node1</title>
<g id="a_node1"><a xlink:title="Loads a radius of the circularly symmetric kernel into a 3&#45;d array, with respect to the kernel radius...">
<polygon fill="#bfbfbf" stroke="black" points="454,-22.5 454,-41.5 528,-41.5 528,-22.5 454,-22.5"/>
<text text-anchor="middle" x="491" y="-29.5" font-family="FreeSans.ttf" font-size="10.00">load3DKernel</text>
</a>
</g>
</g>
<!-- Node2 -->
<g id="node2" class="node">
<title>Node2</title>
<g id="a_node2"><a xlink:href="classgpuNUFFT_1_1TextureGpuNUFFTOperator.html#a3125b2b6c409e1d52050f9e3859f4f12" target="_top" xlink:title="Precompute interpolation kernel lookup table.">
<polygon fill="none" stroke="black" points="227,-39 227,-69 418,-69 418,-39 227,-39"/>
<text text-anchor="start" x="235" y="-57" font-family="FreeSans.ttf" font-size="10.00">gpuNUFFT::TextureGpuNUFFTOperator</text>
<text text-anchor="middle" x="322.5" y="-46" font-family="FreeSans.ttf" font-size="10.00">::initKernel</text>
</a>
</g>
</g>
<!-- Node1&#45;&gt;Node2 -->
<g id="edge1" class="edge">
<title>Node1&#45;&gt;Node2</title>
<path fill="none" stroke="midnightblue" d="M443.95,-38.08C435.85,-39.16 427.15,-40.3 418.27,-41.48"/>
<polygon fill="midnightblue" stroke="midnightblue" points="444.42,-41.55 453.87,-36.77 443.5,-34.61 444.42,-41.55"/>
</g>
<!-- Node4 -->
<g id="node4" class="node">
<title>Node4</title>
<g id="a_node4"><a xlink:href="gpuNUFFT__conv__tests_8cpp.html#ae35c8317989c915c0e21d3a2bd4d10a6" target="_top" xlink:title=" ">
<polygon fill="none" stroke="black" points="302,-0.5 302,-19.5 343,-19.5 343,-0.5 302,-0.5"/>
<text text-anchor="middle" x="322.5" y="-7.5" font-family="FreeSans.ttf" font-size="10.00">TEST</text>
</a>
</g>
</g>
<!-- Node1&#45;&gt;Node4 -->
<g id="edge3" class="edge">
<title>Node1&#45;&gt;Node4</title>
<path fill="none" stroke="midnightblue" d="M443.54,-25.86C410.58,-21.51 367.99,-15.88 343.41,-12.63"/>
<polygon fill="midnightblue" stroke="midnightblue" points="443.5,-29.39 453.87,-27.23 444.42,-22.45 443.5,-29.39"/>
</g>
<!-- Node3 -->
<g id="node3" class="node">
<title>Node3</title>
<g id="a_node3"><a xlink:href="classgpuNUFFT_1_1TextureGpuNUFFTOperator.html#a18169f5278ba0c0b704f31b56edf9a36" target="_top" xlink:title=" ">
<polygon fill="none" stroke="black" points="0,-39 0,-69 191,-69 191,-39 0,-39"/>
<text text-anchor="start" x="8" y="-57" font-family="FreeSans.ttf" font-size="10.00">gpuNUFFT::TextureGpuNUFFTOperator</text>
<text text-anchor="middle" x="95.5" y="-46" font-family="FreeSans.ttf" font-size="10.00">::TextureGpuNUFFTOperator</text>
</a>
</g>
</g>
<!-- Node2&#45;&gt;Node3 -->
<g id="edge2" class="edge">
<title>Node2&#45;&gt;Node3</title>
<path fill="none" stroke="midnightblue" d="M216.47,-54C208.03,-54 199.53,-54 191.16,-54"/>
<polygon fill="midnightblue" stroke="midnightblue" points="216.73,-57.5 226.73,-54 216.73,-50.5 216.73,-57.5"/>
</g>
</g>
</svg>
