<?xml version="1.0" encoding="UTF-8" standalone="no"?>
<!DOCTYPE svg PUBLIC "-//W3C//DTD SVG 1.1//EN"
 "http://www.w3.org/Graphics/SVG/1.1/DTD/svg11.dtd">
<!-- Generated by graphviz version 2.49.3 (20211027.1534)
 -->
<!-- Title: CUDA/inc/gpuNUFFT_operator.hpp Pages: 1 -->
<svg width="616pt" height="252pt"
 viewBox="0.00 0.00 616.00 252.00" xmlns="http://www.w3.org/2000/svg" xmlns:xlink="http://www.w3.org/1999/xlink">
<g id="graph0" class="graph" transform="scale(1 1) rotate(0) translate(4 248)">
<title>CUDA/inc/gpuNUFFT_operator.hpp</title>
<!-- Node1 -->
<g id="node1" class="node">
<title>Node1</title>
<g id="a_node1"><a xlink:title=" ">
<polygon fill="#bfbfbf" stroke="black" points="126.5,-224.5 126.5,-243.5 296.5,-243.5 296.5,-224.5 126.5,-224.5"/>
<text text-anchor="middle" x="211.5" y="-231.5" font-family="FreeSans.ttf" font-size="10.00">CUDA/inc/gpuNUFFT_operator.hpp</text>
</a>
</g>
</g>
<!-- Node2 -->
<g id="node2" class="node">
<title>Node2</title>
<g id="a_node2"><a xlink:href="gpuNUFFT__types_8hpp.html" target="_top" xlink:title="Definition of gpuNUFFT defined types.">
<polygon fill="none" stroke="black" points="33.5,-168.5 33.5,-187.5 145.5,-187.5 145.5,-168.5 33.5,-168.5"/>
<text text-anchor="middle" x="89.5" y="-175.5" font-family="FreeSans.ttf" font-size="10.00">gpuNUFFT_types.hpp</text>
</a>
</g>
</g>
<!-- Node1&#45;&gt;Node2 -->
<g id="edge1" class="edge">
<title>Node1&#45;&gt;Node2</title>
<path fill="none" stroke="midnightblue" d="M192.17,-224.44C172.18,-215.6 140.76,-201.69 117.94,-191.59"/>
<polygon fill="midnightblue" stroke="midnightblue" points="119.3,-188.36 108.74,-187.52 116.47,-194.76 119.3,-188.36"/>
</g>
<!-- Node3 -->
<g id="node3" class="node">
<title>Node3</title>
<g id="a_node3"><a xlink:title=" ">
<polygon fill="none" stroke="#bfbfbf" points="0,-112.5 0,-131.5 45,-131.5 45,-112.5 0,-112.5"/>
<text text-anchor="middle" x="22.5" y="-119.5" font-family="FreeSans.ttf" font-size="10.00">cstdlib</text>
</a>
</g>
</g>
<!-- Node1&#45;&gt;Node3 -->
<g id="edge24" class="edge">
<title>Node1&#45;&gt;Node3</title>
<path fill="none" stroke="midnightblue" d="M137.95,-224.49C92.05,-217.51 39.01,-205.84 24.5,-188 14.16,-175.28 14.9,-156.08 17.49,-141.84"/>
<polygon fill="midnightblue" stroke="midnightblue" points="20.99,-142.23 19.78,-131.71 14.16,-140.69 20.99,-142.23"/>
</g>
<!-- Node4 -->
<g id="node4" class="node">
<title>Node4</title>
<g id="a_node4"><a xlink:title=" ">
<polygon fill="none" stroke="#bfbfbf" points="123.5,-112.5 123.5,-131.5 177.5,-131.5 177.5,-112.5 123.5,-112.5"/>
<text text-anchor="middle" x="150.5" y="-119.5" font-family="FreeSans.ttf" font-size="10.00">iostream</text>
</a>
</g>
</g>
<!-- Node1&#45;&gt;Node4 -->
<g id="edge25" class="edge">
<title>Node1&#45;&gt;Node4</title>
<path fill="none" stroke="midnightblue" d="M206.71,-224.37C196.74,-206.38 173.54,-164.55 160.27,-140.63"/>
<polygon fill="midnightblue" stroke="midnightblue" points="163.17,-138.64 155.26,-131.59 157.05,-142.03 163.17,-138.64"/>
</g>
<!-- Node5 -->
<g id="node5" class="node">
<title>Node5</title>
<g id="a_node5"><a xlink:title=" ">
<polygon fill="none" stroke="#bfbfbf" points="59.5,-0.5 59.5,-19.5 119.5,-19.5 119.5,-0.5 59.5,-0.5"/>
<text text-anchor="middle" x="89.5" y="-7.5" font-family="FreeSans.ttf" font-size="10.00">config.hpp</text>
</a>
</g>
</g>
<!-- Node1&#45;&gt;Node5 -->
<g id="edge23" class="edge">
<title>Node1&#45;&gt;Node5</title>
<path fill="none" stroke="midnightblue" d="M211.33,-224.24C210.58,-203.51 206.68,-150.34 186.5,-112 167.51,-75.91 131.76,-43.76 109.37,-25.87"/>
<polygon fill="midnightblue" stroke="midnightblue" points="111.27,-22.91 101.23,-19.53 106.96,-28.43 111.27,-22.91"/>
</g>
<!-- Node6 -->
<g id="node6" class="node">
<title>Node6</title>
<g id="a_node6"><a xlink:href="gpuNUFFT__kernels_8hpp.html" target="_top" xlink:title="gpuNUFFT CUDA function prototypes">
<polygon fill="none" stroke="black" points="239.5,-168.5 239.5,-187.5 359.5,-187.5 359.5,-168.5 239.5,-168.5"/>
<text text-anchor="middle" x="299.5" y="-175.5" font-family="FreeSans.ttf" font-size="10.00">gpuNUFFT_kernels.hpp</text>
</a>
</g>
</g>
<!-- Node1&#45;&gt;Node6 -->
<g id="edge5" class="edge">
<title>Node1&#45;&gt;Node6</title>
<path fill="none" stroke="midnightblue" d="M225.64,-224.32C239.37,-215.9 260.44,-202.97 276.56,-193.07"/>
<polygon fill="midnightblue" stroke="midnightblue" points="278.7,-195.87 285.4,-187.65 275.04,-189.9 278.7,-195.87"/>
</g>
<!-- Node18 -->
<g id="node18" class="node">
<title>Node18</title>
<g id="a_node18"><a xlink:title=" ">
<polygon fill="none" stroke="#bfbfbf" points="416,-168.5 416,-187.5 475,-187.5 475,-168.5 416,-168.5"/>
<text text-anchor="middle" x="445.5" y="-175.5" font-family="FreeSans.ttf" font-size="10.00">functional</text>
</a>
</g>
</g>
<!-- Node1&#45;&gt;Node18 -->
<g id="edge26" class="edge">
<title>Node1&#45;&gt;Node18</title>
<path fill="none" stroke="midnightblue" d="M248.58,-224.44C291.5,-214.54 361.91,-198.29 405.88,-188.14"/>
<polygon fill="midnightblue" stroke="midnightblue" points="406.69,-191.55 415.65,-185.89 405.12,-184.73 406.69,-191.55"/>
</g>
<!-- Node2&#45;&gt;Node3 -->
<g id="edge2" class="edge">
<title>Node2&#45;&gt;Node3</title>
<path fill="none" stroke="midnightblue" d="M78.74,-168.32C68.73,-160.26 53.61,-148.08 41.57,-138.37"/>
<polygon fill="midnightblue" stroke="midnightblue" points="43.44,-135.38 33.46,-131.83 39.05,-140.83 43.44,-135.38"/>
</g>
<!-- Node2&#45;&gt;Node4 -->
<g id="edge3" class="edge">
<title>Node2&#45;&gt;Node4</title>
<path fill="none" stroke="midnightblue" d="M99.3,-168.32C108.32,-160.34 121.91,-148.31 132.82,-138.65"/>
<polygon fill="midnightblue" stroke="midnightblue" points="135.35,-141.08 140.52,-131.83 130.71,-135.84 135.35,-141.08"/>
</g>
<!-- Node2&#45;&gt;Node5 -->
<g id="edge4" class="edge">
<title>Node2&#45;&gt;Node5</title>
<path fill="none" stroke="midnightblue" d="M89.5,-168.08C89.5,-141.95 89.5,-65.21 89.5,-29.58"/>
<polygon fill="midnightblue" stroke="midnightblue" points="93,-29.57 89.5,-19.57 86,-29.57 93,-29.57"/>
</g>
<!-- Node7 -->
<g id="node7" class="node">
<title>Node7</title>
<g id="a_node7"><a xlink:href="gpuNUFFT__utils_8hpp.html" target="_top" xlink:title="Definition of util functions used in gridding operations.">
<polygon fill="none" stroke="black" points="241,-56.5 241,-75.5 348,-75.5 348,-56.5 241,-56.5"/>
<text text-anchor="middle" x="294.5" y="-63.5" font-family="FreeSans.ttf" font-size="10.00">gpuNUFFT_utils.hpp</text>
</a>
</g>
</g>
<!-- Node6&#45;&gt;Node7 -->
<g id="edge6" class="edge">
<title>Node6&#45;&gt;Node7</title>
<path fill="none" stroke="midnightblue" d="M299.11,-168.37C298.3,-150.62 296.44,-109.67 295.35,-85.6"/>
<polygon fill="midnightblue" stroke="midnightblue" points="298.84,-85.42 294.89,-75.59 291.85,-85.74 298.84,-85.42"/>
</g>
<!-- Node15 -->
<g id="node15" class="node">
<title>Node15</title>
<g id="a_node15"><a xlink:href="cuda__utils_8hpp.html" target="_top" xlink:title="Util functions for CUDA memory and texture management.">
<polygon fill="none" stroke="black" points="379,-112.5 379,-131.5 458,-131.5 458,-112.5 379,-112.5"/>
<text text-anchor="middle" x="418.5" y="-119.5" font-family="FreeSans.ttf" font-size="10.00">cuda_utils.hpp</text>
</a>
</g>
</g>
<!-- Node6&#45;&gt;Node15 -->
<g id="edge15" class="edge">
<title>Node6&#45;&gt;Node15</title>
<path fill="none" stroke="midnightblue" d="M318.36,-168.44C337.77,-159.64 368.23,-145.81 390.46,-135.72"/>
<polygon fill="midnightblue" stroke="midnightblue" points="392.07,-138.84 399.73,-131.52 389.18,-132.46 392.07,-138.84"/>
</g>
<!-- Node7&#45;&gt;Node5 -->
<g id="edge11" class="edge">
<title>Node7&#45;&gt;Node5</title>
<path fill="none" stroke="midnightblue" d="M262.02,-56.44C226.16,-47 168.4,-31.78 129.71,-21.59"/>
<polygon fill="midnightblue" stroke="midnightblue" points="130.39,-18.15 119.83,-18.99 128.6,-24.92 130.39,-18.15"/>
</g>
<!-- Node8 -->
<g id="node8" class="node">
<title>Node8</title>
<g id="a_node8"><a xlink:title=" ">
<polygon fill="none" stroke="#bfbfbf" points="207,-0.5 207,-19.5 254,-19.5 254,-0.5 207,-0.5"/>
<text text-anchor="middle" x="230.5" y="-7.5" font-family="FreeSans.ttf" font-size="10.00">stdlib.h</text>
</a>
</g>
</g>
<!-- Node7&#45;&gt;Node8 -->
<g id="edge7" class="edge">
<title>Node7&#45;&gt;Node8</title>
<path fill="none" stroke="midnightblue" d="M284.22,-56.32C274.66,-48.26 260.22,-36.08 248.72,-26.37"/>
<polygon fill="midnightblue" stroke="midnightblue" points="250.87,-23.61 240.97,-19.83 246.36,-28.96 250.87,-23.61"/>
</g>
<!-- Node9 -->
<g id="node9" class="node">
<title>Node9</title>
<g id="a_node9"><a xlink:title=" ">
<polygon fill="none" stroke="#bfbfbf" points="399,-0.5 399,-19.5 444,-19.5 444,-0.5 399,-0.5"/>
<text text-anchor="middle" x="421.5" y="-7.5" font-family="FreeSans.ttf" font-size="10.00">stdio.h</text>
</a>
</g>
</g>
<!-- Node7&#45;&gt;Node9 -->
<g id="edge8" class="edge">
<title>Node7&#45;&gt;Node9</title>
<path fill="none" stroke="midnightblue" d="M314.62,-56.44C335.52,-47.56 368.43,-33.56 392.22,-23.45"/>
<polygon fill="midnightblue" stroke="midnightblue" points="393.64,-26.65 401.47,-19.52 390.9,-20.21 393.64,-26.65"/>
</g>
<!-- Node10 -->
<g id="node10" class="node">
<title>Node10</title>
<g id="a_node10"><a xlink:title=" ">
<polygon fill="none" stroke="#bfbfbf" points="462,-0.5 462,-19.5 507,-19.5 507,-0.5 462,-0.5"/>
<text text-anchor="middle" x="484.5" y="-7.5" font-family="FreeSans.ttf" font-size="10.00">cuda.h</text>
</a>
</g>
</g>
<!-- Node7&#45;&gt;Node10 -->
<g id="edge9" class="edge">
<title>Node7&#45;&gt;Node10</title>
<path fill="none" stroke="midnightblue" d="M325,-56.43C355.02,-47.99 402.43,-34.61 451.9,-20.45"/>
<polygon fill="midnightblue" stroke="midnightblue" points="453.17,-23.72 461.82,-17.6 451.24,-16.99 453.17,-23.72"/>
</g>
<!-- Node11 -->
<g id="node11" class="node">
<title>Node11</title>
<g id="a_node11"><a xlink:title=" ">
<polygon fill="none" stroke="#bfbfbf" points="525,-0.5 525,-19.5 608,-19.5 608,-0.5 525,-0.5"/>
<text text-anchor="middle" x="566.5" y="-7.5" font-family="FreeSans.ttf" font-size="10.00">cuda_runtime.h</text>
</a>
</g>
</g>
<!-- Node7&#45;&gt;Node11 -->
<g id="edge10" class="edge">
<title>Node7&#45;&gt;Node11</title>
<path fill="none" stroke="midnightblue" d="M337.6,-56.44C385.77,-46.88 463.72,-31.4 515.05,-21.21"/>
<polygon fill="midnightblue" stroke="midnightblue" points="515.81,-24.63 524.94,-19.25 514.45,-17.77 515.81,-24.63"/>
</g>
<!-- Node12 -->
<g id="node12" class="node">
<title>Node12</title>
<g id="a_node12"><a xlink:title=" ">
<polygon fill="none" stroke="#bfbfbf" points="272.5,-0.5 272.5,-19.5 316.5,-19.5 316.5,-0.5 272.5,-0.5"/>
<text text-anchor="middle" x="294.5" y="-7.5" font-family="FreeSans.ttf" font-size="10.00">cmath</text>
</a>
</g>
</g>
<!-- Node7&#45;&gt;Node12 -->
<g id="edge12" class="edge">
<title>Node7&#45;&gt;Node12</title>
<path fill="none" stroke="midnightblue" d="M294.5,-56.08C294.5,-49.01 294.5,-38.86 294.5,-29.99"/>
<polygon fill="midnightblue" stroke="midnightblue" points="298,-29.75 294.5,-19.75 291,-29.75 298,-29.75"/>
</g>
<!-- Node13 -->
<g id="node13" class="node">
<title>Node13</title>
<g id="a_node13"><a xlink:title=" ">
<polygon fill="none" stroke="#bfbfbf" points="334.5,-0.5 334.5,-19.5 380.5,-19.5 380.5,-0.5 334.5,-0.5"/>
<text text-anchor="middle" x="357.5" y="-7.5" font-family="FreeSans.ttf" font-size="10.00">math.h</text>
</a>
</g>
</g>
<!-- Node7&#45;&gt;Node13 -->
<g id="edge13" class="edge">
<title>Node7&#45;&gt;Node13</title>
<path fill="none" stroke="midnightblue" d="M304.62,-56.32C314.03,-48.26 328.24,-36.08 339.57,-26.37"/>
<polygon fill="midnightblue" stroke="midnightblue" points="341.88,-29 347.19,-19.83 337.32,-23.68 341.88,-29"/>
</g>
<!-- Node14 -->
<g id="node14" class="node">
<title>Node14</title>
<g id="a_node14"><a xlink:title=" ">
<polygon fill="none" stroke="#bfbfbf" points="138,-0.5 138,-19.5 189,-19.5 189,-0.5 138,-0.5"/>
<text text-anchor="middle" x="163.5" y="-7.5" font-family="FreeSans.ttf" font-size="10.00">assert.h</text>
</a>
</g>
</g>
<!-- Node7&#45;&gt;Node14 -->
<g id="edge14" class="edge">
<title>Node7&#45;&gt;Node14</title>
<path fill="none" stroke="midnightblue" d="M273.74,-56.44C252.18,-47.56 218.24,-33.56 193.71,-23.45"/>
<polygon fill="midnightblue" stroke="midnightblue" points="194.74,-20.09 184.16,-19.52 192.07,-26.56 194.74,-20.09"/>
</g>
<!-- Node15&#45;&gt;Node1 -->
<g id="edge21" class="edge">
<title>Node15&#45;&gt;Node1</title>
<path fill="none" stroke="midnightblue" d="M414.24,-131.58C406.87,-145.54 390.4,-173.11 368.5,-188 343.54,-204.97 312.19,-215.61 284.08,-222.25"/>
<polygon fill="midnightblue" stroke="midnightblue" points="283.29,-218.84 274.29,-224.43 284.81,-225.67 283.29,-218.84"/>
</g>
<!-- Node15&#45;&gt;Node7 -->
<g id="edge20" class="edge">
<title>Node15&#45;&gt;Node7</title>
<path fill="none" stroke="midnightblue" d="M398.85,-112.44C378.54,-103.6 346.6,-89.69 323.4,-79.59"/>
<polygon fill="midnightblue" stroke="midnightblue" points="324.62,-76.3 314.06,-75.52 321.83,-82.72 324.62,-76.3"/>
</g>
<!-- Node15&#45;&gt;Node9 -->
<g id="edge18" class="edge">
<title>Node15&#45;&gt;Node9</title>
<path fill="none" stroke="midnightblue" d="M420.49,-112.43C422.47,-103.42 425.37,-88.8 426.5,-76 427.87,-60.48 426.32,-42.85 424.59,-29.88"/>
<polygon fill="midnightblue" stroke="midnightblue" points="428.03,-29.21 423.1,-19.84 421.11,-30.24 428.03,-29.21"/>
</g>
<!-- Node15&#45;&gt;Node10 -->
<g id="edge16" class="edge">
<title>Node15&#45;&gt;Node10</title>
<path fill="none" stroke="midnightblue" d="M423.68,-112.37C434.52,-94.3 459.79,-52.18 474.12,-28.31"/>
<polygon fill="midnightblue" stroke="midnightblue" points="477.2,-29.97 479.35,-19.59 471.2,-26.37 477.2,-29.97"/>
</g>
<!-- Node15&#45;&gt;Node11 -->
<g id="edge17" class="edge">
<title>Node15&#45;&gt;Node11</title>
<path fill="none" stroke="midnightblue" d="M430.11,-112.37C455.29,-93.65 515.17,-49.15 546.54,-25.83"/>
<polygon fill="midnightblue" stroke="midnightblue" points="549,-28.37 554.94,-19.59 544.83,-22.75 549,-28.37"/>
</g>
<!-- Node16 -->
<g id="node16" class="node">
<title>Node16</title>
<g id="a_node16"><a xlink:title=" ">
<polygon fill="none" stroke="#bfbfbf" points="550,-56.5 550,-75.5 593,-75.5 593,-56.5 550,-56.5"/>
<text text-anchor="middle" x="571.5" y="-63.5" font-family="FreeSans.ttf" font-size="10.00">cufft.h</text>
</a>
</g>
</g>
<!-- Node15&#45;&gt;Node16 -->
<g id="edge19" class="edge">
<title>Node15&#45;&gt;Node16</title>
<path fill="none" stroke="midnightblue" d="M442.74,-112.44C469.12,-103.13 511.39,-88.22 540.24,-78.03"/>
<polygon fill="midnightblue" stroke="midnightblue" points="541.58,-81.27 549.84,-74.64 539.25,-74.67 541.58,-81.27"/>
</g>
<!-- Node17 -->
<g id="node17" class="node">
<title>Node17</title>
<g id="a_node17"><a xlink:title=" ">
<polygon fill="none" stroke="#bfbfbf" points="366,-56.5 366,-75.5 417,-75.5 417,-56.5 366,-56.5"/>
<text text-anchor="middle" x="391.5" y="-63.5" font-family="FreeSans.ttf" font-size="10.00">stdarg.h</text>
</a>
</g>
</g>
<!-- Node15&#45;&gt;Node17 -->
<g id="edge22" class="edge">
<title>Node15&#45;&gt;Node17</title>
<path fill="none" stroke="midnightblue" d="M414.04,-112.08C410.35,-104.69 404.98,-93.95 400.41,-84.81"/>
<polygon fill="midnightblue" stroke="midnightblue" points="403.48,-83.13 395.88,-75.75 397.22,-86.26 403.48,-83.13"/>
</g>
</g>
</svg>
