<?xml version="1.0" encoding="UTF-8" standalone="no"?>
<!DOCTYPE svg PUBLIC "-//W3C//DTD SVG 1.1//EN"
 "http://www.w3.org/Graphics/SVG/1.1/DTD/svg11.dtd">
<!-- Generated by graphviz version 2.49.3 (20211027.1534)
 -->
<!-- Title: performConvolution Pages: 1 -->
<svg width="344pt" height="88pt"
 viewBox="0.00 0.00 344.00 88.00" xmlns="http://www.w3.org/2000/svg" xmlns:xlink="http://www.w3.org/1999/xlink">
<g id="graph0" class="graph" transform="scale(1 1) rotate(0) translate(4 84)">
<title>performConvolution</title>
<!-- Node1 -->
<g id="node1" class="node">
<title>Node1</title>
<g id="a_node1"><a xlink:title="Adjoint gridding convolution implementation on GPU.">
<polygon fill="#bfbfbf" stroke="black" points="235,-30 235,-49 336,-49 336,-30 235,-30"/>
<text text-anchor="middle" x="285.5" y="-37" font-family="FreeSans.ttf" font-size="10.00">performConvolution</text>
</a>
</g>
</g>
<!-- Node2 -->
<g id="node2" class="node">
<title>Node2</title>
<g id="a_node2"><a xlink:href="classgpuNUFFT_1_1BalancedGpuNUFFTOperator.html#a4fcd22f7d1e5a300e86f39ea67be9cd7" target="_top" xlink:title="Virtual adjoint convolution call, which can be used by sub&#45;classes to add behaviour to the gridding s...">
<polygon fill="none" stroke="black" points="0,-49.5 0,-79.5 199,-79.5 199,-49.5 0,-49.5"/>
<text text-anchor="start" x="8" y="-67.5" font-family="FreeSans.ttf" font-size="10.00">gpuNUFFT::BalancedGpuNUFFTOperator</text>
<text text-anchor="middle" x="99.5" y="-56.5" font-family="FreeSans.ttf" font-size="10.00">::adjConvolution</text>
</a>
</g>
</g>
<!-- Node1&#45;&gt;Node2 -->
<g id="edge1" class="edge">
<title>Node1&#45;&gt;Node2</title>
<path fill="none" stroke="midnightblue" d="M224.6,-47.64C216.43,-48.75 207.89,-49.91 199.26,-51.08"/>
<polygon fill="midnightblue" stroke="midnightblue" points="225.27,-51.08 234.71,-46.27 224.33,-44.14 225.27,-51.08"/>
</g>
<!-- Node3 -->
<g id="node3" class="node">
<title>Node3</title>
<g id="a_node3"><a xlink:href="classgpuNUFFT_1_1GpuNUFFTOperator.html#a635f62e9c7475e28aa8fde9110136bc3" target="_top" xlink:title="Virtual adjoint convolution call, which can be used by sub&#45;classes to add behaviour to the gridding s...">
<polygon fill="none" stroke="black" points="20.5,-0.5 20.5,-30.5 178.5,-30.5 178.5,-0.5 20.5,-0.5"/>
<text text-anchor="start" x="28.5" y="-18.5" font-family="FreeSans.ttf" font-size="10.00">gpuNUFFT::GpuNUFFTOperator</text>
<text text-anchor="middle" x="99.5" y="-7.5" font-family="FreeSans.ttf" font-size="10.00">::adjConvolution</text>
</a>
</g>
</g>
<!-- Node1&#45;&gt;Node3 -->
<g id="edge2" class="edge">
<title>Node1&#45;&gt;Node3</title>
<path fill="none" stroke="midnightblue" d="M224.76,-31.71C210.08,-29.79 194.14,-27.71 178.73,-25.7"/>
<polygon fill="midnightblue" stroke="midnightblue" points="224.34,-35.18 234.71,-33.01 225.24,-28.24 224.34,-35.18"/>
</g>
</g>
</svg>
