<?xml version="1.0" encoding="UTF-8" standalone="no"?>
<!DOCTYPE svg PUBLIC "-//W3C//DTD SVG 1.1//EN"
 "http://www.w3.org/Graphics/SVG/1.1/DTD/svg11.dtd">
<!-- Generated by graphviz version 2.49.3 (20211027.1534)
 -->
<!-- Title: CUDA/inc/gpuNUFFT_kernels.hpp Pages: 1 -->
<svg width="842pt" height="252pt"
 viewBox="0.00 0.00 842.00 252.00" xmlns="http://www.w3.org/2000/svg" xmlns:xlink="http://www.w3.org/1999/xlink">
<g id="graph0" class="graph" transform="scale(1 1) rotate(0) translate(4 248)">
<title>CUDA/inc/gpuNUFFT_kernels.hpp</title>
<!-- Node1 -->
<g id="node1" class="node">
<title>Node1</title>
<g id="a_node1"><a xlink:title="gpuNUFFT CUDA function prototypes">
<polygon fill="#bfbfbf" stroke="black" points="341.5,-224.5 341.5,-243.5 508.5,-243.5 508.5,-224.5 341.5,-224.5"/>
<text text-anchor="middle" x="425" y="-231.5" font-family="FreeSans.ttf" font-size="10.00">CUDA/inc/gpuNUFFT_kernels.hpp</text>
</a>
</g>
</g>
<!-- Node2 -->
<g id="node2" class="node">
<title>Node2</title>
<g id="a_node2"><a xlink:href="gpuNUFFT__utils_8hpp.html" target="_top" xlink:title="Definition of util functions used in gridding operations.">
<polygon fill="none" stroke="black" points="201.5,-112.5 201.5,-131.5 308.5,-131.5 308.5,-112.5 201.5,-112.5"/>
<text text-anchor="middle" x="255" y="-119.5" font-family="FreeSans.ttf" font-size="10.00">gpuNUFFT_utils.hpp</text>
</a>
</g>
</g>
<!-- Node1&#45;&gt;Node2 -->
<g id="edge1" class="edge">
<title>Node1&#45;&gt;Node2</title>
<path fill="none" stroke="midnightblue" d="M411.66,-224.37C382.49,-205.49 312.78,-160.38 277,-137.24"/>
<polygon fill="midnightblue" stroke="midnightblue" points="278.57,-134.09 268.28,-131.59 274.77,-139.96 278.57,-134.09"/>
</g>
<!-- Node11 -->
<g id="node11" class="node">
<title>Node11</title>
<g id="a_node11"><a xlink:href="cuda__utils_8hpp.html" target="_top" xlink:title="Util functions for CUDA memory and texture management.">
<polygon fill="none" stroke="black" points="385.5,-168.5 385.5,-187.5 464.5,-187.5 464.5,-168.5 385.5,-168.5"/>
<text text-anchor="middle" x="425" y="-175.5" font-family="FreeSans.ttf" font-size="10.00">cuda_utils.hpp</text>
</a>
</g>
</g>
<!-- Node1&#45;&gt;Node11 -->
<g id="edge10" class="edge">
<title>Node1&#45;&gt;Node11</title>
<path fill="none" stroke="midnightblue" d="M425,-224.08C425,-217.01 425,-206.86 425,-197.99"/>
<polygon fill="midnightblue" stroke="midnightblue" points="428.5,-197.75 425,-187.75 421.5,-197.75 428.5,-197.75"/>
</g>
<!-- Node3 -->
<g id="node3" class="node">
<title>Node3</title>
<g id="a_node3"><a xlink:title=" ">
<polygon fill="none" stroke="#bfbfbf" points="133.5,-56.5 133.5,-75.5 180.5,-75.5 180.5,-56.5 133.5,-56.5"/>
<text text-anchor="middle" x="157" y="-63.5" font-family="FreeSans.ttf" font-size="10.00">stdlib.h</text>
</a>
</g>
</g>
<!-- Node2&#45;&gt;Node3 -->
<g id="edge2" class="edge">
<title>Node2&#45;&gt;Node3</title>
<path fill="none" stroke="midnightblue" d="M239.25,-112.32C223.68,-103.74 199.62,-90.49 181.54,-80.52"/>
<polygon fill="midnightblue" stroke="midnightblue" points="183.15,-77.42 172.71,-75.65 179.78,-83.55 183.15,-77.42"/>
</g>
<!-- Node4 -->
<g id="node4" class="node">
<title>Node4</title>
<g id="a_node4"><a xlink:title=" ">
<polygon fill="none" stroke="#bfbfbf" points="463.5,-56.5 463.5,-75.5 508.5,-75.5 508.5,-56.5 463.5,-56.5"/>
<text text-anchor="middle" x="486" y="-63.5" font-family="FreeSans.ttf" font-size="10.00">stdio.h</text>
</a>
</g>
</g>
<!-- Node2&#45;&gt;Node4 -->
<g id="edge3" class="edge">
<title>Node2&#45;&gt;Node4</title>
<path fill="none" stroke="midnightblue" d="M295.55,-112.47C333.82,-104.29 393.01,-91.25 453.58,-76"/>
<polygon fill="midnightblue" stroke="midnightblue" points="454.48,-79.39 463.31,-73.54 452.76,-72.6 454.48,-79.39"/>
</g>
<!-- Node5 -->
<g id="node5" class="node">
<title>Node5</title>
<g id="a_node5"><a xlink:title=" ">
<polygon fill="none" stroke="#bfbfbf" points="299.5,-56.5 299.5,-75.5 344.5,-75.5 344.5,-56.5 299.5,-56.5"/>
<text text-anchor="middle" x="322" y="-63.5" font-family="FreeSans.ttf" font-size="10.00">cuda.h</text>
</a>
</g>
</g>
<!-- Node2&#45;&gt;Node5 -->
<g id="edge4" class="edge">
<title>Node2&#45;&gt;Node5</title>
<path fill="none" stroke="midnightblue" d="M265.76,-112.32C275.77,-104.26 290.89,-92.08 302.93,-82.37"/>
<polygon fill="midnightblue" stroke="midnightblue" points="305.45,-84.83 311.04,-75.83 301.06,-79.38 305.45,-84.83"/>
</g>
<!-- Node6 -->
<g id="node6" class="node">
<title>Node6</title>
<g id="a_node6"><a xlink:title=" ">
<polygon fill="none" stroke="#bfbfbf" points="362.5,-56.5 362.5,-75.5 445.5,-75.5 445.5,-56.5 362.5,-56.5"/>
<text text-anchor="middle" x="404" y="-63.5" font-family="FreeSans.ttf" font-size="10.00">cuda_runtime.h</text>
</a>
</g>
</g>
<!-- Node2&#45;&gt;Node6 -->
<g id="edge5" class="edge">
<title>Node2&#45;&gt;Node6</title>
<path fill="none" stroke="midnightblue" d="M278.61,-112.44C303.46,-103.44 342.77,-89.19 370.75,-79.05"/>
<polygon fill="midnightblue" stroke="midnightblue" points="372.29,-82.21 380.5,-75.52 369.91,-75.63 372.29,-82.21"/>
</g>
<!-- Node7 -->
<g id="node7" class="node">
<title>Node7</title>
<g id="a_node7"><a xlink:title=" ">
<polygon fill="none" stroke="#bfbfbf" points="507,-0.5 507,-19.5 567,-19.5 567,-0.5 507,-0.5"/>
<text text-anchor="middle" x="537" y="-7.5" font-family="FreeSans.ttf" font-size="10.00">config.hpp</text>
</a>
</g>
</g>
<!-- Node2&#45;&gt;Node7 -->
<g id="edge6" class="edge">
<title>Node2&#45;&gt;Node7</title>
<path fill="none" stroke="midnightblue" d="M257.09,-112.22C260.98,-97.98 270.72,-70.02 290,-56 322.33,-32.5 435.1,-19.58 496.46,-14.14"/>
<polygon fill="midnightblue" stroke="midnightblue" points="496.91,-17.61 506.57,-13.27 496.31,-10.64 496.91,-17.61"/>
</g>
<!-- Node8 -->
<g id="node8" class="node">
<title>Node8</title>
<g id="a_node8"><a xlink:title=" ">
<polygon fill="none" stroke="#bfbfbf" points="199,-56.5 199,-75.5 243,-75.5 243,-56.5 199,-56.5"/>
<text text-anchor="middle" x="221" y="-63.5" font-family="FreeSans.ttf" font-size="10.00">cmath</text>
</a>
</g>
</g>
<!-- Node2&#45;&gt;Node8 -->
<g id="edge7" class="edge">
<title>Node2&#45;&gt;Node8</title>
<path fill="none" stroke="midnightblue" d="M249.39,-112.08C244.63,-104.53 237.68,-93.49 231.85,-84.23"/>
<polygon fill="midnightblue" stroke="midnightblue" points="234.8,-82.35 226.51,-75.75 228.88,-86.08 234.8,-82.35"/>
</g>
<!-- Node9 -->
<g id="node9" class="node">
<title>Node9</title>
<g id="a_node9"><a xlink:title=" ">
<polygon fill="none" stroke="#bfbfbf" points="0,-56.5 0,-75.5 46,-75.5 46,-56.5 0,-56.5"/>
<text text-anchor="middle" x="23" y="-63.5" font-family="FreeSans.ttf" font-size="10.00">math.h</text>
</a>
</g>
</g>
<!-- Node2&#45;&gt;Node9 -->
<g id="edge8" class="edge">
<title>Node2&#45;&gt;Node9</title>
<path fill="none" stroke="midnightblue" d="M214.25,-112.49C175.78,-104.31 116.29,-91.28 55.75,-76.09"/>
<polygon fill="midnightblue" stroke="midnightblue" points="56.59,-72.69 46.03,-73.63 54.87,-79.48 56.59,-72.69"/>
</g>
<!-- Node10 -->
<g id="node10" class="node">
<title>Node10</title>
<g id="a_node10"><a xlink:title=" ">
<polygon fill="none" stroke="#bfbfbf" points="64.5,-56.5 64.5,-75.5 115.5,-75.5 115.5,-56.5 64.5,-56.5"/>
<text text-anchor="middle" x="90" y="-63.5" font-family="FreeSans.ttf" font-size="10.00">assert.h</text>
</a>
</g>
</g>
<!-- Node2&#45;&gt;Node10 -->
<g id="edge9" class="edge">
<title>Node2&#45;&gt;Node10</title>
<path fill="none" stroke="midnightblue" d="M228.86,-112.44C200.89,-103.29 156.39,-88.73 125.33,-78.56"/>
<polygon fill="midnightblue" stroke="midnightblue" points="126.34,-75.21 115.75,-75.43 124.17,-81.86 126.34,-75.21"/>
</g>
<!-- Node11&#45;&gt;Node2 -->
<g id="edge15" class="edge">
<title>Node11&#45;&gt;Node2</title>
<path fill="none" stroke="midnightblue" d="M398.06,-168.44C369.34,-159.32 323.67,-144.81 291.68,-134.65"/>
<polygon fill="midnightblue" stroke="midnightblue" points="292.4,-131.21 281.81,-131.52 290.28,-137.88 292.4,-131.21"/>
</g>
<!-- Node11&#45;&gt;Node4 -->
<g id="edge13" class="edge">
<title>Node11&#45;&gt;Node4</title>
<path fill="none" stroke="midnightblue" d="M464.69,-169.74C486.17,-163.57 510.92,-152.32 524,-132 534.75,-115.31 519.37,-95.54 505.08,-82.23"/>
<polygon fill="midnightblue" stroke="midnightblue" points="507.26,-79.49 497.43,-75.55 502.66,-84.76 507.26,-79.49"/>
</g>
<!-- Node11&#45;&gt;Node5 -->
<g id="edge11" class="edge">
<title>Node11&#45;&gt;Node5</title>
<path fill="none" stroke="midnightblue" d="M416.92,-168.37C399.69,-149.97 359.15,-106.67 337.03,-83.05"/>
<polygon fill="midnightblue" stroke="midnightblue" points="339.43,-80.5 330.04,-75.59 334.32,-85.28 339.43,-80.5"/>
</g>
<!-- Node11&#45;&gt;Node6 -->
<g id="edge12" class="edge">
<title>Node11&#45;&gt;Node6</title>
<path fill="none" stroke="midnightblue" d="M416.52,-168.23C408.95,-159.75 398.4,-146.13 394,-132 389.23,-116.67 392.72,-98.57 396.83,-85.37"/>
<polygon fill="midnightblue" stroke="midnightblue" points="400.25,-86.19 400.27,-75.6 393.65,-83.87 400.25,-86.19"/>
</g>
<!-- Node12 -->
<g id="node12" class="node">
<title>Node12</title>
<g id="a_node12"><a xlink:title=" ">
<polygon fill="none" stroke="#bfbfbf" points="403.5,-112.5 403.5,-131.5 446.5,-131.5 446.5,-112.5 403.5,-112.5"/>
<text text-anchor="middle" x="425" y="-119.5" font-family="FreeSans.ttf" font-size="10.00">cufft.h</text>
</a>
</g>
</g>
<!-- Node11&#45;&gt;Node12 -->
<g id="edge14" class="edge">
<title>Node11&#45;&gt;Node12</title>
<path fill="none" stroke="midnightblue" d="M425,-168.08C425,-161.01 425,-150.86 425,-141.99"/>
<polygon fill="midnightblue" stroke="midnightblue" points="428.5,-141.75 425,-131.75 421.5,-141.75 428.5,-141.75"/>
</g>
<!-- Node13 -->
<g id="node13" class="node">
<title>Node13</title>
<g id="a_node13"><a xlink:href="gpuNUFFT__operator_8hpp.html" target="_top" xlink:title=" ">
<polygon fill="none" stroke="black" points="572,-112.5 572,-131.5 696,-131.5 696,-112.5 572,-112.5"/>
<text text-anchor="middle" x="634" y="-119.5" font-family="FreeSans.ttf" font-size="10.00">gpuNUFFT_operator.hpp</text>
</a>
</g>
</g>
<!-- Node11&#45;&gt;Node13 -->
<g id="edge16" class="edge">
<title>Node11&#45;&gt;Node13</title>
<path fill="none" stroke="midnightblue" d="M458.12,-168.44C494.12,-159.14 551.77,-144.25 591.19,-134.06"/>
<polygon fill="midnightblue" stroke="midnightblue" points="592.23,-137.41 601.04,-131.52 590.48,-130.63 592.23,-137.41"/>
</g>
<!-- Node18 -->
<g id="node18" class="node">
<title>Node18</title>
<g id="a_node18"><a xlink:title=" ">
<polygon fill="none" stroke="#bfbfbf" points="464.5,-112.5 464.5,-131.5 515.5,-131.5 515.5,-112.5 464.5,-112.5"/>
<text text-anchor="middle" x="490" y="-119.5" font-family="FreeSans.ttf" font-size="10.00">stdarg.h</text>
</a>
</g>
</g>
<!-- Node11&#45;&gt;Node18 -->
<g id="edge26" class="edge">
<title>Node11&#45;&gt;Node18</title>
<path fill="none" stroke="midnightblue" d="M435.44,-168.32C445.15,-160.26 459.82,-148.08 471.5,-138.37"/>
<polygon fill="midnightblue" stroke="midnightblue" points="473.91,-140.92 479.37,-131.83 469.44,-135.53 473.91,-140.92"/>
</g>
<!-- Node13&#45;&gt;Node1 -->
<g id="edge21" class="edge">
<title>Node13&#45;&gt;Node1</title>
<path fill="none" stroke="midnightblue" d="M617.68,-131.59C581.43,-150.67 493.99,-196.69 450.48,-219.59"/>
<polygon fill="midnightblue" stroke="midnightblue" points="448.62,-216.61 441.4,-224.37 451.88,-222.81 448.62,-216.61"/>
</g>
<!-- Node13&#45;&gt;Node7 -->
<g id="edge22" class="edge">
<title>Node13&#45;&gt;Node7</title>
<path fill="none" stroke="midnightblue" d="M609.17,-112.41C591.9,-105.22 569.62,-93.33 556,-76 545.57,-62.72 540.86,-43.89 538.74,-29.91"/>
<polygon fill="midnightblue" stroke="midnightblue" points="542.21,-29.44 537.53,-19.94 535.26,-30.28 542.21,-29.44"/>
</g>
<!-- Node14 -->
<g id="node14" class="node">
<title>Node14</title>
<g id="a_node14"><a xlink:href="gpuNUFFT__types_8hpp.html" target="_top" xlink:title="Definition of gpuNUFFT defined types.">
<polygon fill="none" stroke="black" points="643,-56.5 643,-75.5 755,-75.5 755,-56.5 643,-56.5"/>
<text text-anchor="middle" x="699" y="-63.5" font-family="FreeSans.ttf" font-size="10.00">gpuNUFFT_types.hpp</text>
</a>
</g>
</g>
<!-- Node13&#45;&gt;Node14 -->
<g id="edge17" class="edge">
<title>Node13&#45;&gt;Node14</title>
<path fill="none" stroke="midnightblue" d="M644.44,-112.32C654.15,-104.26 668.82,-92.08 680.5,-82.37"/>
<polygon fill="midnightblue" stroke="midnightblue" points="682.91,-84.92 688.37,-75.83 678.44,-79.53 682.91,-84.92"/>
</g>
<!-- Node15 -->
<g id="node15" class="node">
<title>Node15</title>
<g id="a_node15"><a xlink:title=" ">
<polygon fill="none" stroke="#bfbfbf" points="689.5,-0.5 689.5,-19.5 734.5,-19.5 734.5,-0.5 689.5,-0.5"/>
<text text-anchor="middle" x="712" y="-7.5" font-family="FreeSans.ttf" font-size="10.00">cstdlib</text>
</a>
</g>
</g>
<!-- Node13&#45;&gt;Node15 -->
<g id="edge23" class="edge">
<title>Node13&#45;&gt;Node15</title>
<path fill="none" stroke="midnightblue" d="M696.06,-115.06C721.42,-109.23 748.42,-97.89 764,-76 776.94,-57.83 755.37,-37.94 736.2,-25.01"/>
<polygon fill="midnightblue" stroke="midnightblue" points="738.01,-22.01 727.7,-19.59 734.25,-27.92 738.01,-22.01"/>
</g>
<!-- Node16 -->
<g id="node16" class="node">
<title>Node16</title>
<g id="a_node16"><a xlink:title=" ">
<polygon fill="none" stroke="#bfbfbf" points="780,-0.5 780,-19.5 834,-19.5 834,-0.5 780,-0.5"/>
<text text-anchor="middle" x="807" y="-7.5" font-family="FreeSans.ttf" font-size="10.00">iostream</text>
</a>
</g>
</g>
<!-- Node13&#45;&gt;Node16 -->
<g id="edge24" class="edge">
<title>Node13&#45;&gt;Node16</title>
<path fill="none" stroke="midnightblue" d="M696.08,-114.07C724.57,-108.07 757.04,-96.88 780,-76 793.25,-63.94 800.18,-44.38 803.68,-29.85"/>
<polygon fill="midnightblue" stroke="midnightblue" points="807.14,-30.45 805.74,-19.94 800.28,-29.02 807.14,-30.45"/>
</g>
<!-- Node17 -->
<g id="node17" class="node">
<title>Node17</title>
<g id="a_node17"><a xlink:title=" ">
<polygon fill="none" stroke="#bfbfbf" points="565.5,-56.5 565.5,-75.5 624.5,-75.5 624.5,-56.5 565.5,-56.5"/>
<text text-anchor="middle" x="595" y="-63.5" font-family="FreeSans.ttf" font-size="10.00">functional</text>
</a>
</g>
</g>
<!-- Node13&#45;&gt;Node17 -->
<g id="edge25" class="edge">
<title>Node13&#45;&gt;Node17</title>
<path fill="none" stroke="midnightblue" d="M627.56,-112.08C622.05,-104.46 613.97,-93.26 607.24,-83.94"/>
<polygon fill="midnightblue" stroke="midnightblue" points="610.01,-81.81 601.32,-75.75 604.34,-85.91 610.01,-81.81"/>
</g>
<!-- Node14&#45;&gt;Node7 -->
<g id="edge20" class="edge">
<title>Node14&#45;&gt;Node7</title>
<path fill="none" stroke="midnightblue" d="M673.33,-56.44C646.08,-47.36 602.82,-32.94 572.35,-22.78"/>
<polygon fill="midnightblue" stroke="midnightblue" points="573.14,-19.36 562.55,-19.52 570.93,-26 573.14,-19.36"/>
</g>
<!-- Node14&#45;&gt;Node15 -->
<g id="edge18" class="edge">
<title>Node14&#45;&gt;Node15</title>
<path fill="none" stroke="midnightblue" d="M701.15,-56.08C702.87,-48.93 705.35,-38.64 707.5,-29.69"/>
<polygon fill="midnightblue" stroke="midnightblue" points="710.96,-30.29 709.89,-19.75 704.15,-28.65 710.96,-30.29"/>
</g>
<!-- Node14&#45;&gt;Node16 -->
<g id="edge19" class="edge">
<title>Node14&#45;&gt;Node16</title>
<path fill="none" stroke="midnightblue" d="M716.35,-56.32C733.67,-47.66 760.52,-34.24 780.5,-24.25"/>
<polygon fill="midnightblue" stroke="midnightblue" points="782.31,-27.26 789.69,-19.65 779.18,-21 782.31,-27.26"/>
</g>
</g>
</svg>
