<?xml version="1.0" encoding="UTF-8" standalone="no"?>
<!DOCTYPE svg PUBLIC "-//W3C//DTD SVG 1.1//EN"
 "http://www.w3.org/Graphics/SVG/1.1/DTD/svg11.dtd">
<!-- Generated by graphviz version 2.49.3 (20211027.1534)
 -->
<!-- Title: CUDA/src/gpuNUFFT_operator.cpp Pages: 1 -->
<svg width="888pt" height="420pt"
 viewBox="0.00 0.00 888.00 420.00" xmlns="http://www.w3.org/2000/svg" xmlns:xlink="http://www.w3.org/1999/xlink">
<g id="graph0" class="graph" transform="scale(1 1) rotate(0) translate(4 416)">
<title>CUDA/src/gpuNUFFT_operator.cpp</title>
<!-- Node1 -->
<g id="node1" class="node">
<title>Node1</title>
<g id="a_node1"><a xlink:title=" ">
<polygon fill="#bfbfbf" stroke="black" points="413.5,-392.5 413.5,-411.5 584.5,-411.5 584.5,-392.5 413.5,-392.5"/>
<text text-anchor="middle" x="499" y="-399.5" font-family="FreeSans.ttf" font-size="10.00">CUDA/src/gpuNUFFT_operator.cpp</text>
</a>
</g>
</g>
<!-- Node2 -->
<g id="node2" class="node">
<title>Node2</title>
<g id="a_node2"><a xlink:href="gpuNUFFT__operator_8hpp.html" target="_top" xlink:title=" ">
<polygon fill="none" stroke="black" points="281,-224.5 281,-243.5 405,-243.5 405,-224.5 281,-224.5"/>
<text text-anchor="middle" x="343" y="-231.5" font-family="FreeSans.ttf" font-size="10.00">gpuNUFFT_operator.hpp</text>
</a>
</g>
</g>
<!-- Node1&#45;&gt;Node2 -->
<g id="edge1" class="edge">
<title>Node1&#45;&gt;Node2</title>
<path fill="none" stroke="midnightblue" d="M445.89,-392.44C422.19,-386.08 395.69,-375.06 378,-356 351.43,-327.38 344.9,-279.81 343.38,-253.66"/>
<polygon fill="midnightblue" stroke="midnightblue" points="346.87,-253.44 342.98,-243.58 339.88,-253.71 346.87,-253.44"/>
</g>
<!-- Node5 -->
<g id="node5" class="node">
<title>Node5</title>
<g id="a_node5"><a xlink:title=" ">
<polygon fill="none" stroke="#bfbfbf" points="11,-112.5 11,-131.5 65,-131.5 65,-112.5 11,-112.5"/>
<text text-anchor="middle" x="38" y="-119.5" font-family="FreeSans.ttf" font-size="10.00">iostream</text>
</a>
</g>
</g>
<!-- Node1&#45;&gt;Node5 -->
<g id="edge40" class="edge">
<title>Node1&#45;&gt;Node5</title>
<path fill="none" stroke="midnightblue" d="M413.22,-399.53C270.55,-394.73 0,-374.61 0,-291 0,-291 0,-291 0,-233 0,-198.81 16.6,-161.76 27.86,-140.57"/>
<polygon fill="midnightblue" stroke="midnightblue" points="30.95,-142.22 32.72,-131.77 24.82,-138.83 30.95,-142.22"/>
</g>
<!-- Node7 -->
<g id="node7" class="node">
<title>Node7</title>
<g id="a_node7"><a xlink:href="gpuNUFFT__kernels_8hpp.html" target="_top" xlink:title="gpuNUFFT CUDA function prototypes">
<polygon fill="none" stroke="black" points="502,-168.5 502,-187.5 622,-187.5 622,-168.5 502,-168.5"/>
<text text-anchor="middle" x="562" y="-175.5" font-family="FreeSans.ttf" font-size="10.00">gpuNUFFT_kernels.hpp</text>
</a>
</g>
</g>
<!-- Node1&#45;&gt;Node7 -->
<g id="edge28" class="edge">
<title>Node1&#45;&gt;Node7</title>
<path fill="none" stroke="midnightblue" d="M539.35,-392.49C562.02,-385.88 589.41,-374.62 608,-356 627.01,-336.96 625.79,-326.4 631,-300 639.29,-257.98 603.08,-216.18 579.98,-194.42"/>
<polygon fill="midnightblue" stroke="midnightblue" points="582.21,-191.71 572.45,-187.58 577.5,-196.9 582.21,-191.71"/>
</g>
<!-- Node16 -->
<g id="node16" class="node">
<title>Node16</title>
<g id="a_node16"><a xlink:href="cuda__utils_8hpp.html" target="_top" xlink:title="Util functions for CUDA memory and texture management.">
<polygon fill="none" stroke="black" points="396.5,-112.5 396.5,-131.5 475.5,-131.5 475.5,-112.5 396.5,-112.5"/>
<text text-anchor="middle" x="436" y="-119.5" font-family="FreeSans.ttf" font-size="10.00">cuda_utils.hpp</text>
</a>
</g>
</g>
<!-- Node1&#45;&gt;Node16 -->
<g id="edge30" class="edge">
<title>Node1&#45;&gt;Node16</title>
<path fill="none" stroke="midnightblue" d="M446.96,-392.47C362.76,-377.17 206,-341.87 206,-291 206,-291 206,-291 206,-233 206,-153.64 318.82,-131.49 386.43,-125.33"/>
<polygon fill="midnightblue" stroke="midnightblue" points="386.78,-128.82 396.46,-124.51 386.21,-121.84 386.78,-128.82"/>
</g>
<!-- Node20 -->
<g id="node20" class="node">
<title>Node20</title>
<g id="a_node20"><a xlink:title=" ">
<polygon fill="none" stroke="#bfbfbf" points="515,-336.5 515,-355.5 599,-355.5 599,-336.5 515,-336.5"/>
<text text-anchor="middle" x="557" y="-343.5" font-family="FreeSans.ttf" font-size="10.00">cufft_config.hpp</text>
</a>
</g>
</g>
<!-- Node1&#45;&gt;Node20 -->
<g id="edge29" class="edge">
<title>Node1&#45;&gt;Node20</title>
<path fill="none" stroke="midnightblue" d="M508.32,-392.32C516.89,-384.34 529.81,-372.31 540.19,-362.65"/>
<polygon fill="midnightblue" stroke="midnightblue" points="542.58,-365.21 547.51,-355.83 537.81,-360.09 542.58,-365.21"/>
</g>
<!-- Node21 -->
<g id="node21" class="node">
<title>Node21</title>
<g id="a_node21"><a xlink:href="precomp__kernels_8hpp.html" target="_top" xlink:title="GPU Kernels for Precomputation (sector assignment)">
<polygon fill="none" stroke="black" points="387.5,-336.5 387.5,-355.5 496.5,-355.5 496.5,-336.5 387.5,-336.5"/>
<text text-anchor="middle" x="442" y="-343.5" font-family="FreeSans.ttf" font-size="10.00">precomp_kernels.hpp</text>
</a>
</g>
</g>
<!-- Node1&#45;&gt;Node21 -->
<g id="edge31" class="edge">
<title>Node1&#45;&gt;Node21</title>
<path fill="none" stroke="midnightblue" d="M489.84,-392.32C481.5,-384.42 468.97,-372.55 458.82,-362.94"/>
<polygon fill="midnightblue" stroke="midnightblue" points="460.99,-360.17 451.32,-355.83 456.18,-365.25 460.99,-360.17"/>
</g>
<!-- Node24 -->
<g id="node24" class="node">
<title>Node24</title>
<g id="a_node24"><a xlink:title=" ">
<polygon fill="none" stroke="#bfbfbf" points="754,-336.5 754,-355.5 806,-355.5 806,-336.5 754,-336.5"/>
<text text-anchor="middle" x="780" y="-343.5" font-family="FreeSans.ttf" font-size="10.00">sstream</text>
</a>
</g>
</g>
<!-- Node1&#45;&gt;Node24 -->
<g id="edge41" class="edge">
<title>Node1&#45;&gt;Node24</title>
<path fill="none" stroke="midnightblue" d="M547.57,-392.47C596.32,-383.78 673.5,-369.68 740,-356 741.25,-355.74 742.53,-355.48 743.82,-355.2"/>
<polygon fill="midnightblue" stroke="midnightblue" points="744.75,-358.58 753.78,-353.04 743.27,-351.74 744.75,-358.58"/>
</g>
<!-- Node25 -->
<g id="node25" class="node">
<title>Node25</title>
<g id="a_node25"><a xlink:title=" ">
<polygon fill="none" stroke="#bfbfbf" points="824,-336.5 824,-355.5 880,-355.5 880,-336.5 824,-336.5"/>
<text text-anchor="middle" x="852" y="-343.5" font-family="FreeSans.ttf" font-size="10.00">algorithm</text>
</a>
</g>
</g>
<!-- Node1&#45;&gt;Node25 -->
<g id="edge42" class="edge">
<title>Node1&#45;&gt;Node25</title>
<path fill="none" stroke="midnightblue" d="M573.4,-392.48C635.33,-384.91 725.99,-372.73 813.91,-356.06"/>
<polygon fill="midnightblue" stroke="midnightblue" points="814.62,-359.48 823.78,-354.16 813.3,-352.61 814.62,-359.48"/>
</g>
<!-- Node3 -->
<g id="node3" class="node">
<title>Node3</title>
<g id="a_node3"><a xlink:href="gpuNUFFT__types_8hpp.html" target="_top" xlink:title="Definition of gpuNUFFT defined types.">
<polygon fill="none" stroke="black" points="66,-168.5 66,-187.5 178,-187.5 178,-168.5 66,-168.5"/>
<text text-anchor="middle" x="122" y="-175.5" font-family="FreeSans.ttf" font-size="10.00">gpuNUFFT_types.hpp</text>
</a>
</g>
</g>
<!-- Node2&#45;&gt;Node3 -->
<g id="edge2" class="edge">
<title>Node2&#45;&gt;Node3</title>
<path fill="none" stroke="midnightblue" d="M307.98,-224.44C269.75,-215.1 208.43,-200.12 166.74,-189.93"/>
<polygon fill="midnightblue" stroke="midnightblue" points="167.4,-186.49 156.85,-187.52 165.74,-193.29 167.4,-186.49"/>
</g>
<!-- Node4 -->
<g id="node4" class="node">
<title>Node4</title>
<g id="a_node4"><a xlink:title=" ">
<polygon fill="none" stroke="#bfbfbf" points="192.5,-112.5 192.5,-131.5 237.5,-131.5 237.5,-112.5 192.5,-112.5"/>
<text text-anchor="middle" x="215" y="-119.5" font-family="FreeSans.ttf" font-size="10.00">cstdlib</text>
</a>
</g>
</g>
<!-- Node2&#45;&gt;Node4 -->
<g id="edge25" class="edge">
<title>Node2&#45;&gt;Node4</title>
<path fill="none" stroke="midnightblue" d="M324.88,-224.39C308.92,-216.31 285.56,-203.21 268,-188 251.57,-173.77 236.27,-154.03 226.38,-140.05"/>
<polygon fill="midnightblue" stroke="midnightblue" points="229.26,-138.05 220.7,-131.81 223.49,-142.03 229.26,-138.05"/>
</g>
<!-- Node2&#45;&gt;Node5 -->
<g id="edge26" class="edge">
<title>Node2&#45;&gt;Node5</title>
<path fill="none" stroke="midnightblue" d="M280.99,-230.85C207.07,-227.01 89.42,-216.5 57,-188 43.91,-176.49 39.61,-156.52 38.31,-141.74"/>
<polygon fill="midnightblue" stroke="midnightblue" points="41.8,-141.49 37.8,-131.68 34.81,-141.85 41.8,-141.49"/>
</g>
<!-- Node6 -->
<g id="node6" class="node">
<title>Node6</title>
<g id="a_node6"><a xlink:title=" ">
<polygon fill="none" stroke="#bfbfbf" points="248,-0.5 248,-19.5 308,-19.5 308,-0.5 248,-0.5"/>
<text text-anchor="middle" x="278" y="-7.5" font-family="FreeSans.ttf" font-size="10.00">config.hpp</text>
</a>
</g>
</g>
<!-- Node2&#45;&gt;Node6 -->
<g id="edge24" class="edge">
<title>Node2&#45;&gt;Node6</title>
<path fill="none" stroke="midnightblue" d="M331.65,-224.35C321.79,-216.15 308.01,-202.89 301,-188 275.97,-134.83 275.4,-63.31 276.79,-29.8"/>
<polygon fill="midnightblue" stroke="midnightblue" points="280.29,-29.79 277.32,-19.62 273.3,-29.42 280.29,-29.79"/>
</g>
<!-- Node2&#45;&gt;Node7 -->
<g id="edge6" class="edge">
<title>Node2&#45;&gt;Node7</title>
<path fill="none" stroke="midnightblue" d="M377.7,-224.44C415.58,-215.1 476.35,-200.12 517.66,-189.93"/>
<polygon fill="midnightblue" stroke="midnightblue" points="518.59,-193.31 527.46,-187.52 516.91,-186.51 518.59,-193.31"/>
</g>
<!-- Node19 -->
<g id="node19" class="node">
<title>Node19</title>
<g id="a_node19"><a xlink:title=" ">
<polygon fill="none" stroke="#bfbfbf" points="310.5,-168.5 310.5,-187.5 369.5,-187.5 369.5,-168.5 310.5,-168.5"/>
<text text-anchor="middle" x="340" y="-175.5" font-family="FreeSans.ttf" font-size="10.00">functional</text>
</a>
</g>
</g>
<!-- Node2&#45;&gt;Node19 -->
<g id="edge27" class="edge">
<title>Node2&#45;&gt;Node19</title>
<path fill="none" stroke="midnightblue" d="M342.5,-224.08C342.11,-217.01 341.55,-206.86 341.05,-197.99"/>
<polygon fill="midnightblue" stroke="midnightblue" points="344.54,-197.54 340.49,-187.75 337.55,-197.93 344.54,-197.54"/>
</g>
<!-- Node3&#45;&gt;Node4 -->
<g id="edge3" class="edge">
<title>Node3&#45;&gt;Node4</title>
<path fill="none" stroke="midnightblue" d="M136.94,-168.32C151.59,-159.82 174.13,-146.73 191.24,-136.8"/>
<polygon fill="midnightblue" stroke="midnightblue" points="193.2,-139.7 200.1,-131.65 189.69,-133.65 193.2,-139.7"/>
</g>
<!-- Node3&#45;&gt;Node5 -->
<g id="edge4" class="edge">
<title>Node3&#45;&gt;Node5</title>
<path fill="none" stroke="midnightblue" d="M108.5,-168.32C95.4,-159.9 75.29,-146.97 59.89,-137.07"/>
<polygon fill="midnightblue" stroke="midnightblue" points="61.77,-134.12 51.46,-131.65 57.98,-140.01 61.77,-134.12"/>
</g>
<!-- Node3&#45;&gt;Node6 -->
<g id="edge5" class="edge">
<title>Node3&#45;&gt;Node6</title>
<path fill="none" stroke="midnightblue" d="M130.28,-168.17C142.01,-155.66 164.14,-132.08 183,-112 211.25,-81.93 244.25,-46.86 262.98,-26.95"/>
<polygon fill="midnightblue" stroke="midnightblue" points="265.56,-29.32 269.86,-19.64 260.46,-24.53 265.56,-29.32"/>
</g>
<!-- Node8 -->
<g id="node8" class="node">
<title>Node8</title>
<g id="a_node8"><a xlink:href="gpuNUFFT__utils_8hpp.html" target="_top" xlink:title="Definition of util functions used in gridding operations.">
<polygon fill="none" stroke="black" points="552.5,-56.5 552.5,-75.5 659.5,-75.5 659.5,-56.5 552.5,-56.5"/>
<text text-anchor="middle" x="606" y="-63.5" font-family="FreeSans.ttf" font-size="10.00">gpuNUFFT_utils.hpp</text>
</a>
</g>
</g>
<!-- Node7&#45;&gt;Node8 -->
<g id="edge7" class="edge">
<title>Node7&#45;&gt;Node8</title>
<path fill="none" stroke="midnightblue" d="M565.45,-168.37C572.62,-150.46 589.23,-108.92 598.82,-84.95"/>
<polygon fill="midnightblue" stroke="midnightblue" points="602.1,-86.18 602.56,-75.59 595.6,-83.58 602.1,-86.18"/>
</g>
<!-- Node7&#45;&gt;Node16 -->
<g id="edge16" class="edge">
<title>Node7&#45;&gt;Node16</title>
<path fill="none" stroke="midnightblue" d="M542.03,-168.44C521.39,-159.6 488.94,-145.69 465.37,-135.59"/>
<polygon fill="midnightblue" stroke="midnightblue" points="466.44,-132.24 455.87,-131.52 463.68,-138.67 466.44,-132.24"/>
</g>
<!-- Node8&#45;&gt;Node6 -->
<g id="edge12" class="edge">
<title>Node8&#45;&gt;Node6</title>
<path fill="none" stroke="midnightblue" d="M552.43,-57.13C495.44,-48.61 402.69,-34.3 323,-20 321.53,-19.74 320.03,-19.46 318.52,-19.18"/>
<polygon fill="midnightblue" stroke="midnightblue" points="318.95,-15.7 308.47,-17.26 317.64,-22.58 318.95,-15.7"/>
</g>
<!-- Node9 -->
<g id="node9" class="node">
<title>Node9</title>
<g id="a_node9"><a xlink:title=" ">
<polygon fill="none" stroke="#bfbfbf" points="699.5,-0.5 699.5,-19.5 746.5,-19.5 746.5,-0.5 699.5,-0.5"/>
<text text-anchor="middle" x="723" y="-7.5" font-family="FreeSans.ttf" font-size="10.00">stdlib.h</text>
</a>
</g>
</g>
<!-- Node8&#45;&gt;Node9 -->
<g id="edge8" class="edge">
<title>Node8&#45;&gt;Node9</title>
<path fill="none" stroke="midnightblue" d="M624.54,-56.44C643.62,-47.64 673.57,-33.81 695.44,-23.72"/>
<polygon fill="midnightblue" stroke="midnightblue" points="696.93,-26.88 704.55,-19.52 694,-20.53 696.93,-26.88"/>
</g>
<!-- Node10 -->
<g id="node10" class="node">
<title>Node10</title>
<g id="a_node10"><a xlink:title=" ">
<polygon fill="none" stroke="#bfbfbf" points="332.5,-0.5 332.5,-19.5 377.5,-19.5 377.5,-0.5 332.5,-0.5"/>
<text text-anchor="middle" x="355" y="-7.5" font-family="FreeSans.ttf" font-size="10.00">stdio.h</text>
</a>
</g>
</g>
<!-- Node8&#45;&gt;Node10 -->
<g id="edge9" class="edge">
<title>Node8&#45;&gt;Node10</title>
<path fill="none" stroke="midnightblue" d="M563.28,-56.43C520.02,-47.65 451.24,-33.43 392,-20 390.55,-19.67 389.07,-19.33 387.57,-18.98"/>
<polygon fill="midnightblue" stroke="midnightblue" points="388.21,-15.54 377.67,-16.63 386.59,-22.35 388.21,-15.54"/>
</g>
<!-- Node11 -->
<g id="node11" class="node">
<title>Node11</title>
<g id="a_node11"><a xlink:title=" ">
<polygon fill="none" stroke="#bfbfbf" points="401.5,-0.5 401.5,-19.5 446.5,-19.5 446.5,-0.5 401.5,-0.5"/>
<text text-anchor="middle" x="424" y="-7.5" font-family="FreeSans.ttf" font-size="10.00">cuda.h</text>
</a>
</g>
</g>
<!-- Node8&#45;&gt;Node11 -->
<g id="edge10" class="edge">
<title>Node8&#45;&gt;Node11</title>
<path fill="none" stroke="midnightblue" d="M577.16,-56.44C544.37,-46.71 490.95,-30.86 456.65,-20.69"/>
<polygon fill="midnightblue" stroke="midnightblue" points="457.25,-17.21 446.67,-17.73 455.26,-23.93 457.25,-17.21"/>
</g>
<!-- Node12 -->
<g id="node12" class="node">
<title>Node12</title>
<g id="a_node12"><a xlink:title=" ">
<polygon fill="none" stroke="#bfbfbf" points="464.5,-0.5 464.5,-19.5 547.5,-19.5 547.5,-0.5 464.5,-0.5"/>
<text text-anchor="middle" x="506" y="-7.5" font-family="FreeSans.ttf" font-size="10.00">cuda_runtime.h</text>
</a>
</g>
</g>
<!-- Node8&#45;&gt;Node12 -->
<g id="edge11" class="edge">
<title>Node8&#45;&gt;Node12</title>
<path fill="none" stroke="midnightblue" d="M589.93,-56.32C574.04,-47.74 549.49,-34.49 531.04,-24.52"/>
<polygon fill="midnightblue" stroke="midnightblue" points="532.49,-21.33 522.03,-19.65 529.16,-27.49 532.49,-21.33"/>
</g>
<!-- Node13 -->
<g id="node13" class="node">
<title>Node13</title>
<g id="a_node13"><a xlink:title=" ">
<polygon fill="none" stroke="#bfbfbf" points="765,-0.5 765,-19.5 809,-19.5 809,-0.5 765,-0.5"/>
<text text-anchor="middle" x="787" y="-7.5" font-family="FreeSans.ttf" font-size="10.00">cmath</text>
</a>
</g>
</g>
<!-- Node8&#45;&gt;Node13 -->
<g id="edge13" class="edge">
<title>Node8&#45;&gt;Node13</title>
<path fill="none" stroke="midnightblue" d="M634.68,-56.44C667.38,-46.69 720.71,-30.78 754.81,-20.6"/>
<polygon fill="midnightblue" stroke="midnightblue" points="756.15,-23.86 764.73,-17.64 754.15,-17.15 756.15,-23.86"/>
</g>
<!-- Node14 -->
<g id="node14" class="node">
<title>Node14</title>
<g id="a_node14"><a xlink:title=" ">
<polygon fill="none" stroke="#bfbfbf" points="566,-0.5 566,-19.5 612,-19.5 612,-0.5 566,-0.5"/>
<text text-anchor="middle" x="589" y="-7.5" font-family="FreeSans.ttf" font-size="10.00">math.h</text>
</a>
</g>
</g>
<!-- Node8&#45;&gt;Node14 -->
<g id="edge14" class="edge">
<title>Node8&#45;&gt;Node14</title>
<path fill="none" stroke="midnightblue" d="M603.19,-56.08C600.92,-48.85 597.63,-38.41 594.79,-29.4"/>
<polygon fill="midnightblue" stroke="midnightblue" points="598.1,-28.24 591.75,-19.75 591.42,-30.34 598.1,-28.24"/>
</g>
<!-- Node15 -->
<g id="node15" class="node">
<title>Node15</title>
<g id="a_node15"><a xlink:title=" ">
<polygon fill="none" stroke="#bfbfbf" points="630.5,-0.5 630.5,-19.5 681.5,-19.5 681.5,-0.5 630.5,-0.5"/>
<text text-anchor="middle" x="656" y="-7.5" font-family="FreeSans.ttf" font-size="10.00">assert.h</text>
</a>
</g>
</g>
<!-- Node8&#45;&gt;Node15 -->
<g id="edge15" class="edge">
<title>Node8&#45;&gt;Node15</title>
<path fill="none" stroke="midnightblue" d="M614.26,-56.08C621.46,-48.3 632.11,-36.8 640.85,-27.37"/>
<polygon fill="midnightblue" stroke="midnightblue" points="643.67,-29.47 647.9,-19.75 638.53,-24.71 643.67,-29.47"/>
</g>
<!-- Node16&#45;&gt;Node2 -->
<g id="edge22" class="edge">
<title>Node16&#45;&gt;Node2</title>
<path fill="none" stroke="midnightblue" d="M428.74,-131.59C413.28,-149.87 376.93,-192.87 356.88,-216.59"/>
<polygon fill="midnightblue" stroke="midnightblue" points="354.08,-214.47 350.3,-224.37 359.43,-218.99 354.08,-214.47"/>
</g>
<!-- Node16&#45;&gt;Node8 -->
<g id="edge21" class="edge">
<title>Node16&#45;&gt;Node8</title>
<path fill="none" stroke="midnightblue" d="M462.94,-112.44C491.66,-103.32 537.33,-88.81 569.32,-78.65"/>
<polygon fill="midnightblue" stroke="midnightblue" points="570.72,-81.88 579.19,-75.52 568.6,-75.21 570.72,-81.88"/>
</g>
<!-- Node16&#45;&gt;Node10 -->
<g id="edge19" class="edge">
<title>Node16&#45;&gt;Node10</title>
<path fill="none" stroke="midnightblue" d="M396.3,-114.17C374.22,-108.12 348.54,-96.85 335,-76 325.49,-61.36 333.64,-41.94 342.22,-28.15"/>
<polygon fill="midnightblue" stroke="midnightblue" points="345.29,-29.87 348.02,-19.64 339.5,-25.93 345.29,-29.87"/>
</g>
<!-- Node16&#45;&gt;Node11 -->
<g id="edge17" class="edge">
<title>Node16&#45;&gt;Node11</title>
<path fill="none" stroke="midnightblue" d="M435.06,-112.37C433.12,-94.62 428.65,-53.67 426.03,-29.6"/>
<polygon fill="midnightblue" stroke="midnightblue" points="429.5,-29.15 424.94,-19.59 422.54,-29.91 429.5,-29.15"/>
</g>
<!-- Node16&#45;&gt;Node12 -->
<g id="edge18" class="edge">
<title>Node16&#45;&gt;Node12</title>
<path fill="none" stroke="midnightblue" d="M459.71,-112.45C475.6,-105.35 495.33,-93.53 505,-76 512.75,-61.95 512.2,-43.45 510.18,-29.79"/>
<polygon fill="midnightblue" stroke="midnightblue" points="513.56,-28.83 508.28,-19.65 506.68,-30.12 513.56,-28.83"/>
</g>
<!-- Node17 -->
<g id="node17" class="node">
<title>Node17</title>
<g id="a_node17"><a xlink:title=" ">
<polygon fill="none" stroke="#bfbfbf" points="452.5,-56.5 452.5,-75.5 495.5,-75.5 495.5,-56.5 452.5,-56.5"/>
<text text-anchor="middle" x="474" y="-63.5" font-family="FreeSans.ttf" font-size="10.00">cufft.h</text>
</a>
</g>
</g>
<!-- Node16&#45;&gt;Node17 -->
<g id="edge20" class="edge">
<title>Node16&#45;&gt;Node17</title>
<path fill="none" stroke="midnightblue" d="M442.27,-112.08C447.64,-104.46 455.52,-93.26 462.08,-83.94"/>
<polygon fill="midnightblue" stroke="midnightblue" points="464.95,-85.94 467.84,-75.75 459.22,-81.91 464.95,-85.94"/>
</g>
<!-- Node18 -->
<g id="node18" class="node">
<title>Node18</title>
<g id="a_node18"><a xlink:title=" ">
<polygon fill="none" stroke="#bfbfbf" points="344.5,-56.5 344.5,-75.5 395.5,-75.5 395.5,-56.5 344.5,-56.5"/>
<text text-anchor="middle" x="370" y="-63.5" font-family="FreeSans.ttf" font-size="10.00">stdarg.h</text>
</a>
</g>
</g>
<!-- Node16&#45;&gt;Node18 -->
<g id="edge23" class="edge">
<title>Node16&#45;&gt;Node18</title>
<path fill="none" stroke="midnightblue" d="M425.4,-112.32C415.54,-104.26 400.65,-92.08 388.78,-82.37"/>
<polygon fill="midnightblue" stroke="midnightblue" points="390.75,-79.46 380.8,-75.83 386.32,-84.88 390.75,-79.46"/>
</g>
<!-- Node21&#45;&gt;Node2 -->
<g id="edge33" class="edge">
<title>Node21&#45;&gt;Node2</title>
<path fill="none" stroke="midnightblue" d="M434.23,-336.37C417.68,-317.97 378.7,-274.67 357.45,-251.05"/>
<polygon fill="midnightblue" stroke="midnightblue" points="360.02,-248.68 350.73,-243.59 354.82,-253.37 360.02,-248.68"/>
</g>
<!-- Node21&#45;&gt;Node16 -->
<g id="edge32" class="edge">
<title>Node21&#45;&gt;Node16</title>
<path fill="none" stroke="midnightblue" d="M441.76,-336.3C440.88,-303.63 437.75,-187.87 436.51,-141.96"/>
<polygon fill="midnightblue" stroke="midnightblue" points="440.01,-141.79 436.24,-131.88 433.01,-141.97 440.01,-141.79"/>
</g>
<!-- Node22 -->
<g id="node22" class="node">
<title>Node22</title>
<g id="a_node22"><a xlink:href="precomp__utils_8hpp.html" target="_top" xlink:title="UTIL functions for precomputation.">
<polygon fill="none" stroke="black" points="526.5,-280.5 526.5,-299.5 621.5,-299.5 621.5,-280.5 526.5,-280.5"/>
<text text-anchor="middle" x="574" y="-287.5" font-family="FreeSans.ttf" font-size="10.00">precomp_utils.hpp</text>
</a>
</g>
</g>
<!-- Node21&#45;&gt;Node22 -->
<g id="edge34" class="edge">
<title>Node21&#45;&gt;Node22</title>
<path fill="none" stroke="midnightblue" d="M462.92,-336.44C484.74,-327.52 519.15,-313.44 543.89,-303.32"/>
<polygon fill="midnightblue" stroke="midnightblue" points="545.25,-306.54 553.18,-299.52 542.6,-300.06 545.25,-306.54"/>
</g>
<!-- Node23 -->
<g id="node23" class="node">
<title>Node23</title>
<g id="a_node23"><a xlink:title=" ">
<polygon fill="none" stroke="#bfbfbf" points="464,-280.5 464,-299.5 508,-299.5 508,-280.5 464,-280.5"/>
<text text-anchor="middle" x="486" y="-287.5" font-family="FreeSans.ttf" font-size="10.00">vector</text>
</a>
</g>
</g>
<!-- Node21&#45;&gt;Node23 -->
<g id="edge39" class="edge">
<title>Node21&#45;&gt;Node23</title>
<path fill="none" stroke="midnightblue" d="M449.27,-336.08C455.54,-328.38 464.79,-317.03 472.43,-307.65"/>
<polygon fill="midnightblue" stroke="midnightblue" points="475.27,-309.71 478.87,-299.75 469.84,-305.29 475.27,-309.71"/>
</g>
<!-- Node22&#45;&gt;Node2 -->
<g id="edge36" class="edge">
<title>Node22&#45;&gt;Node2</title>
<path fill="none" stroke="midnightblue" d="M537.4,-280.44C497.27,-271.06 432.8,-255.99 389.22,-245.8"/>
<polygon fill="midnightblue" stroke="midnightblue" points="389.97,-242.38 379.43,-243.52 388.37,-249.2 389.97,-242.38"/>
</g>
<!-- Node22&#45;&gt;Node8 -->
<g id="edge37" class="edge">
<title>Node22&#45;&gt;Node8</title>
<path fill="none" stroke="midnightblue" d="M580.86,-280.49C593.74,-263.9 621.13,-225.58 631,-188 640.54,-151.67 625.34,-108.44 614.77,-84.73"/>
<polygon fill="midnightblue" stroke="midnightblue" points="617.9,-83.15 610.48,-75.58 611.56,-86.12 617.9,-83.15"/>
</g>
<!-- Node22&#45;&gt;Node13 -->
<g id="edge38" class="edge">
<title>Node22&#45;&gt;Node13</title>
<path fill="none" stroke="midnightblue" d="M594.64,-280.42C627.5,-265.23 688,-230.29 688,-179 688,-179 688,-179 688,-121 688,-77.18 731.94,-42.93 761.27,-24.94"/>
<polygon fill="midnightblue" stroke="midnightblue" points="763.36,-27.77 770.21,-19.68 759.81,-21.74 763.36,-27.77"/>
</g>
<!-- Node22&#45;&gt;Node16 -->
<g id="edge35" class="edge">
<title>Node22&#45;&gt;Node16</title>
<path fill="none" stroke="midnightblue" d="M566.58,-280.08C544.39,-253.38 478.29,-173.87 449.57,-139.32"/>
<polygon fill="midnightblue" stroke="midnightblue" points="452.21,-137.02 443.12,-131.57 446.82,-141.5 452.21,-137.02"/>
</g>
</g>
</svg>
