<?xml version="1.0" encoding="UTF-8" standalone="no"?>
<!DOCTYPE svg PUBLIC "-//W3C//DTD SVG 1.1//EN"
 "http://www.w3.org/Graphics/SVG/1.1/DTD/svg11.dtd">
<!-- Generated by graphviz version 2.49.3 (20211027.1534)
 -->
<!-- Title: CUDA/inc/gpuNUFFT_types.hpp Pages: 1 -->
<svg width="1475pt" height="408pt"
 viewBox="0.00 0.00 1475.03 408.00" xmlns="http://www.w3.org/2000/svg" xmlns:xlink="http://www.w3.org/1999/xlink">
<g id="graph0" class="graph" transform="scale(1 1) rotate(0) translate(4 404)">
<title>CUDA/inc/gpuNUFFT_types.hpp</title>
<!-- Node1 -->
<g id="node1" class="node">
<title>Node1</title>
<g id="a_node1"><a xlink:title="Definition of gpuNUFFT defined types.">
<polygon fill="#bfbfbf" stroke="black" points="673.24,-380.5 673.24,-399.5 831.24,-399.5 831.24,-380.5 673.24,-380.5"/>
<text text-anchor="middle" x="752.24" y="-387.5" font-family="FreeSans.ttf" font-size="10.00">CUDA/inc/gpuNUFFT_types.hpp</text>
</a>
</g>
</g>
<!-- Node2 -->
<g id="node2" class="node">
<title>Node2</title>
<g id="a_node2"><a xlink:href="balanced__gpuNUFFT__operator_8hpp.html" target="_top" xlink:title=" ">
<polygon fill="none" stroke="black" points="582.24,-257.5 582.24,-287.5 738.24,-287.5 738.24,-257.5 582.24,-257.5"/>
<text text-anchor="start" x="590.24" y="-275.5" font-family="FreeSans.ttf" font-size="10.00">CUDA/inc/balanced_gpuNUFFT</text>
<text text-anchor="middle" x="660.24" y="-264.5" font-family="FreeSans.ttf" font-size="10.00">_operator.hpp</text>
</a>
</g>
</g>
<!-- Node1&#45;&gt;Node2 -->
<g id="edge1" class="edge">
<title>Node1&#45;&gt;Node2</title>
<path fill="none" stroke="midnightblue" d="M750.11,-369.92C747.8,-356.11 743.02,-337.56 733.24,-324 722.06,-308.5 704.58,-296.17 689.53,-287.57"/>
<polygon fill="midnightblue" stroke="midnightblue" points="746.7,-370.77 751.53,-380.2 753.63,-369.81 746.7,-370.77"/>
</g>
<!-- Node15 -->
<g id="node15" class="node">
<title>Node15</title>
<g id="a_node15"><a xlink:href="balanced__operator_8hpp.html" target="_top" xlink:title=" ">
<polygon fill="none" stroke="black" points="562.74,-324.5 562.74,-343.5 723.74,-343.5 723.74,-324.5 562.74,-324.5"/>
<text text-anchor="middle" x="643.24" y="-331.5" font-family="FreeSans.ttf" font-size="10.00">CUDA/inc/balanced_operator.hpp</text>
</a>
</g>
</g>
<!-- Node1&#45;&gt;Node15 -->
<g id="edge17" class="edge">
<title>Node1&#45;&gt;Node15</title>
<path fill="none" stroke="midnightblue" d="M725.72,-375.86C705.51,-365.85 678.25,-352.35 660.71,-343.65"/>
<polygon fill="midnightblue" stroke="midnightblue" points="724.21,-379.02 734.73,-380.32 727.32,-372.75 724.21,-379.02"/>
</g>
<!-- Node16 -->
<g id="node16" class="node">
<title>Node16</title>
<g id="a_node16"><a xlink:href="balanced__texture__gpuNUFFT__operator_8hpp.html" target="_top" xlink:title=" ">
<polygon fill="none" stroke="black" points="359.74,-190.5 359.74,-220.5 496.74,-220.5 496.74,-190.5 359.74,-190.5"/>
<text text-anchor="start" x="367.74" y="-208.5" font-family="FreeSans.ttf" font-size="10.00">CUDA/inc/balanced_texture</text>
<text text-anchor="middle" x="428.24" y="-197.5" font-family="FreeSans.ttf" font-size="10.00">_gpuNUFFT_operator.hpp</text>
</a>
</g>
</g>
<!-- Node1&#45;&gt;Node16 -->
<g id="edge22" class="edge">
<title>Node1&#45;&gt;Node16</title>
<path fill="none" stroke="midnightblue" d="M663.09,-380.42C627.44,-374.09 587.12,-363.1 554.24,-344 499.64,-312.29 455.11,-249.11 436.99,-220.8"/>
<polygon fill="midnightblue" stroke="midnightblue" points="662.58,-383.88 673.02,-382.08 663.73,-376.98 662.58,-383.88"/>
</g>
<!-- Node18 -->
<g id="node18" class="node">
<title>Node18</title>
<g id="a_node18"><a xlink:href="gpuNUFFT__operator_8hpp.html" target="_top" xlink:title=" ">
<polygon fill="none" stroke="black" points="956.24,-324.5 956.24,-343.5 1126.24,-343.5 1126.24,-324.5 956.24,-324.5"/>
<text text-anchor="middle" x="1041.24" y="-331.5" font-family="FreeSans.ttf" font-size="10.00">CUDA/inc/gpuNUFFT_operator.hpp</text>
</a>
</g>
</g>
<!-- Node1&#45;&gt;Node18 -->
<g id="edge23" class="edge">
<title>Node1&#45;&gt;Node18</title>
<path fill="none" stroke="midnightblue" d="M807.89,-378.6C862.51,-368.4 944.8,-353.02 995.66,-343.52"/>
<polygon fill="midnightblue" stroke="midnightblue" points="807.22,-375.17 798.03,-380.44 808.5,-382.05 807.22,-375.17"/>
</g>
<!-- Node24 -->
<g id="node24" class="node">
<title>Node24</title>
<g id="a_node24"><a xlink:href="texture__gpuNUFFT__operator_8hpp.html" target="_top" xlink:title=" ">
<polygon fill="none" stroke="black" points="756.24,-257.5 756.24,-287.5 902.24,-287.5 902.24,-257.5 756.24,-257.5"/>
<text text-anchor="start" x="764.24" y="-275.5" font-family="FreeSans.ttf" font-size="10.00">CUDA/inc/texture_gpuNUFFT</text>
<text text-anchor="middle" x="829.24" y="-264.5" font-family="FreeSans.ttf" font-size="10.00">_operator.hpp</text>
</a>
</g>
</g>
<!-- Node1&#45;&gt;Node24 -->
<g id="edge45" class="edge">
<title>Node1&#45;&gt;Node24</title>
<path fill="none" stroke="midnightblue" d="M763.61,-371.94C778.88,-349.04 805.71,-308.79 819.88,-287.55"/>
<polygon fill="midnightblue" stroke="midnightblue" points="760.66,-370.06 758.03,-380.32 766.49,-373.94 760.66,-370.06"/>
</g>
<!-- Node3 -->
<g id="node3" class="node">
<title>Node3</title>
<g id="a_node3"><a xlink:href="gpuNUFFT__operator__factory_8hpp.html" target="_top" xlink:title=" ">
<polygon fill="none" stroke="black" points="632.24,-123.5 632.24,-153.5 784.24,-153.5 784.24,-123.5 632.24,-123.5"/>
<text text-anchor="start" x="640.24" y="-141.5" font-family="FreeSans.ttf" font-size="10.00">CUDA/inc/gpuNUFFT_operator</text>
<text text-anchor="middle" x="708.24" y="-130.5" font-family="FreeSans.ttf" font-size="10.00">_factory.hpp</text>
</a>
</g>
</g>
<!-- Node2&#45;&gt;Node3 -->
<g id="edge2" class="edge">
<title>Node2&#45;&gt;Node3</title>
<path fill="none" stroke="midnightblue" d="M670.37,-248.17C673.94,-239.67 677.9,-229.95 681.24,-221 689.94,-197.68 698.78,-170.1 703.87,-153.75"/>
<polygon fill="midnightblue" stroke="midnightblue" points="667.11,-246.89 666.41,-257.46 673.54,-249.63 667.11,-246.89"/>
</g>
<!-- Node14 -->
<g id="node14" class="node">
<title>Node14</title>
<g id="a_node14"><a xlink:href="balanced__gpuNUFFT__operator_8cpp.html" target="_top" xlink:title=" ">
<polygon fill="none" stroke="black" points="514.74,-190.5 514.74,-220.5 671.74,-220.5 671.74,-190.5 514.74,-190.5"/>
<text text-anchor="start" x="522.74" y="-208.5" font-family="FreeSans.ttf" font-size="10.00">CUDA/src/balanced_gpuNUFFT</text>
<text text-anchor="middle" x="593.24" y="-197.5" font-family="FreeSans.ttf" font-size="10.00">_operator.cpp</text>
</a>
</g>
</g>
<!-- Node2&#45;&gt;Node14 -->
<g id="edge16" class="edge">
<title>Node2&#45;&gt;Node14</title>
<path fill="none" stroke="midnightblue" d="M638.4,-250.31C628.35,-240.56 616.7,-229.26 607.75,-220.58"/>
<polygon fill="midnightblue" stroke="midnightblue" points="636.09,-252.94 645.7,-257.4 640.96,-247.92 636.09,-252.94"/>
</g>
<!-- Node4 -->
<g id="node4" class="node">
<title>Node4</title>
<g id="a_node4"><a xlink:href="gpuNUFFT__operator__factory_8cpp.html" target="_top" xlink:title=" ">
<polygon fill="none" stroke="black" points="1108.74,-56.5 1108.74,-86.5 1261.74,-86.5 1261.74,-56.5 1108.74,-56.5"/>
<text text-anchor="start" x="1116.74" y="-74.5" font-family="FreeSans.ttf" font-size="10.00">CUDA/src/gpuNUFFT_operator</text>
<text text-anchor="middle" x="1185.24" y="-63.5" font-family="FreeSans.ttf" font-size="10.00">_factory.cpp</text>
</a>
</g>
</g>
<!-- Node3&#45;&gt;Node4 -->
<g id="edge3" class="edge">
<title>Node3&#45;&gt;Node4</title>
<path fill="none" stroke="midnightblue" d="M794.22,-127.45C873.73,-117.91 995.14,-102.73 1100.24,-87 1102.9,-86.6 1105.61,-86.19 1108.35,-85.76"/>
<polygon fill="midnightblue" stroke="midnightblue" points="793.76,-123.98 784.25,-128.64 794.59,-130.93 793.76,-123.98"/>
</g>
<!-- Node5 -->
<g id="node5" class="node">
<title>Node5</title>
<g id="a_node5"><a xlink:href="gpuNUFFT__forward__tests_8cpp.html" target="_top" xlink:title=" ">
<polygon fill="none" stroke="black" points="167.74,-56.5 167.74,-86.5 318.74,-86.5 318.74,-56.5 167.74,-56.5"/>
<text text-anchor="start" x="175.74" y="-74.5" font-family="FreeSans.ttf" font-size="10.00">CUDA/test/gpu/forward</text>
<text text-anchor="middle" x="243.24" y="-63.5" font-family="FreeSans.ttf" font-size="10.00">/gpuNUFFT_forward_tests.cpp</text>
</a>
</g>
</g>
<!-- Node3&#45;&gt;Node5 -->
<g id="edge4" class="edge">
<title>Node3&#45;&gt;Node5</title>
<path fill="none" stroke="midnightblue" d="M621.91,-126.95C544.81,-117.3 428.84,-102.26 328.24,-87 325.13,-86.53 321.96,-86.04 318.76,-85.53"/>
<polygon fill="midnightblue" stroke="midnightblue" points="621.7,-130.45 632.06,-128.21 622.57,-123.5 621.7,-130.45"/>
</g>
<!-- Node6 -->
<g id="node6" class="node">
<title>Node6</title>
<g id="a_node6"><a xlink:href="gpuNUFFT__2D__conv__tests_8cpp.html" target="_top" xlink:title=" ">
<polygon fill="none" stroke="black" points="337.24,-56.5 337.24,-86.5 471.24,-86.5 471.24,-56.5 337.24,-56.5"/>
<text text-anchor="start" x="345.24" y="-74.5" font-family="FreeSans.ttf" font-size="10.00">CUDA/test/gpu/gpuNUFFT</text>
<text text-anchor="middle" x="404.24" y="-63.5" font-family="FreeSans.ttf" font-size="10.00">_2D_conv_tests.cpp</text>
</a>
</g>
</g>
<!-- Node3&#45;&gt;Node6 -->
<g id="edge5" class="edge">
<title>Node3&#45;&gt;Node6</title>
<path fill="none" stroke="midnightblue" d="M632.86,-121.38C582.85,-110.69 517.87,-96.8 469.97,-86.55"/>
<polygon fill="midnightblue" stroke="midnightblue" points="632.14,-124.81 642.65,-123.48 633.6,-117.96 632.14,-124.81"/>
</g>
<!-- Node7 -->
<g id="node7" class="node">
<title>Node7</title>
<g id="a_node7"><a xlink:href="gpuNUFFT__conv__tests_8cpp.html" target="_top" xlink:title=" ">
<polygon fill="none" stroke="black" points="489.24,-56.5 489.24,-86.5 623.24,-86.5 623.24,-56.5 489.24,-56.5"/>
<text text-anchor="start" x="497.24" y="-74.5" font-family="FreeSans.ttf" font-size="10.00">CUDA/test/gpu/gpuNUFFT</text>
<text text-anchor="middle" x="556.24" y="-63.5" font-family="FreeSans.ttf" font-size="10.00">_conv_tests.cpp</text>
</a>
</g>
</g>
<!-- Node3&#45;&gt;Node7 -->
<g id="edge6" class="edge">
<title>Node3&#45;&gt;Node7</title>
<path fill="none" stroke="midnightblue" d="M665.93,-119.41C641.66,-109.03 611.65,-96.2 589.16,-86.58"/>
<polygon fill="midnightblue" stroke="midnightblue" points="664.69,-122.68 675.26,-123.4 667.44,-116.25 664.69,-122.68"/>
</g>
<!-- Node8 -->
<g id="node8" class="node">
<title>Node8</title>
<g id="a_node8"><a xlink:href="gpuNUFFT__deapo__tests_8cpp.html" target="_top" xlink:title=" ">
<polygon fill="none" stroke="black" points="641.24,-56.5 641.24,-86.5 775.24,-86.5 775.24,-56.5 641.24,-56.5"/>
<text text-anchor="start" x="649.24" y="-74.5" font-family="FreeSans.ttf" font-size="10.00">CUDA/test/gpu/gpuNUFFT</text>
<text text-anchor="middle" x="708.24" y="-63.5" font-family="FreeSans.ttf" font-size="10.00">_deapo_tests.cpp</text>
</a>
</g>
</g>
<!-- Node3&#45;&gt;Node8 -->
<g id="edge7" class="edge">
<title>Node3&#45;&gt;Node8</title>
<path fill="none" stroke="midnightblue" d="M708.24,-113.11C708.24,-104.15 708.24,-94.32 708.24,-86.58"/>
<polygon fill="midnightblue" stroke="midnightblue" points="704.74,-113.4 708.24,-123.4 711.74,-113.4 704.74,-113.4"/>
</g>
<!-- Node9 -->
<g id="node9" class="node">
<title>Node9</title>
<g id="a_node9"><a xlink:href="gpuNUFFT__fft__tests_8cpp.html" target="_top" xlink:title=" ">
<polygon fill="none" stroke="black" points="793.24,-56.5 793.24,-86.5 927.24,-86.5 927.24,-56.5 793.24,-56.5"/>
<text text-anchor="start" x="801.24" y="-74.5" font-family="FreeSans.ttf" font-size="10.00">CUDA/test/gpu/gpuNUFFT</text>
<text text-anchor="middle" x="860.24" y="-63.5" font-family="FreeSans.ttf" font-size="10.00">_fft_tests.cpp</text>
</a>
</g>
</g>
<!-- Node3&#45;&gt;Node9 -->
<g id="edge8" class="edge">
<title>Node3&#45;&gt;Node9</title>
<path fill="none" stroke="midnightblue" d="M750.55,-119.41C774.82,-109.03 804.83,-96.2 827.32,-86.58"/>
<polygon fill="midnightblue" stroke="midnightblue" points="749.04,-116.25 741.22,-123.4 751.79,-122.68 749.04,-116.25"/>
</g>
<!-- Node10 -->
<g id="node10" class="node">
<title>Node10</title>
<g id="a_node10"><a xlink:href="python__factory_8hpp.html" target="_top" xlink:title=" ">
<polygon fill="none" stroke="black" points="945.74,-62 945.74,-81 1090.74,-81 1090.74,-62 945.74,-62"/>
<text text-anchor="middle" x="1018.24" y="-69" font-family="FreeSans.ttf" font-size="10.00">python/inc/python_factory.hpp</text>
</a>
</g>
</g>
<!-- Node3&#45;&gt;Node10 -->
<g id="edge9" class="edge">
<title>Node3&#45;&gt;Node10</title>
<path fill="none" stroke="midnightblue" d="M785.09,-121.39C846.03,-108.61 928.8,-91.25 977.56,-81.03"/>
<polygon fill="midnightblue" stroke="midnightblue" points="784.19,-118 775.12,-123.48 785.63,-124.85 784.19,-118"/>
</g>
<!-- Node12 -->
<g id="node12" class="node">
<title>Node12</title>
<g id="a_node12"><a xlink:href="python__factory_8cpp.html" target="_top" xlink:title=" ">
<polygon fill="none" stroke="black" points="9.24,-0.5 9.24,-19.5 155.24,-19.5 155.24,-0.5 9.24,-0.5"/>
<text text-anchor="middle" x="82.24" y="-7.5" font-family="FreeSans.ttf" font-size="10.00">python/src/python_factory.cpp</text>
</a>
</g>
</g>
<!-- Node3&#45;&gt;Node12 -->
<g id="edge15" class="edge">
<title>Node3&#45;&gt;Node12</title>
<path fill="none" stroke="midnightblue" d="M622.01,-131.3C434.48,-117.81 6.24,-87 6.24,-87 -3.15,-76.91 -0.58,-67.97 6.24,-56 16.49,-38.02 37.06,-26.49 54.22,-19.6"/>
<polygon fill="midnightblue" stroke="midnightblue" points="621.89,-134.8 632.11,-132.02 622.39,-127.81 621.89,-134.8"/>
</g>
<!-- Node13 -->
<g id="node13" class="node">
<title>Node13</title>
<g id="a_node13"><a xlink:href="python__utils_8hpp.html" target="_top" xlink:title=" ">
<polygon fill="none" stroke="black" points="15.24,-62 15.24,-81 149.24,-81 149.24,-62 15.24,-62"/>
<text text-anchor="middle" x="82.24" y="-69" font-family="FreeSans.ttf" font-size="10.00">python/inc/python_utils.hpp</text>
</a>
</g>
</g>
<!-- Node3&#45;&gt;Node13 -->
<g id="edge12" class="edge">
<title>Node3&#45;&gt;Node13</title>
<path fill="none" stroke="midnightblue" d="M621.95,-130.56C490.5,-119.83 246.2,-99.16 159.24,-87 147.65,-85.38 135.16,-83.21 123.68,-81.05"/>
<polygon fill="midnightblue" stroke="midnightblue" points="621.73,-134.06 631.98,-131.38 622.3,-127.08 621.73,-134.06"/>
</g>
<!-- Node11 -->
<g id="node11" class="node">
<title>Node11</title>
<g id="a_node11"><a xlink:href="python__bindings_8cpp.html" target="_top" xlink:title=" ">
<polygon fill="none" stroke="black" points="557.24,-0.5 557.24,-19.5 709.24,-19.5 709.24,-0.5 557.24,-0.5"/>
<text text-anchor="middle" x="633.24" y="-7.5" font-family="FreeSans.ttf" font-size="10.00">python/src/python_bindings.cpp</text>
</a>
</g>
</g>
<!-- Node10&#45;&gt;Node11 -->
<g id="edge10" class="edge">
<title>Node10&#45;&gt;Node11</title>
<path fill="none" stroke="midnightblue" d="M961.59,-60.27C953.1,-58.8 944.44,-57.33 936.24,-56 852.38,-42.36 755.19,-28.22 693.97,-19.52"/>
<polygon fill="midnightblue" stroke="midnightblue" points="960.99,-63.72 971.44,-62 962.2,-56.83 960.99,-63.72"/>
</g>
<!-- Node10&#45;&gt;Node12 -->
<g id="edge11" class="edge">
<title>Node10&#45;&gt;Node12</title>
<path fill="none" stroke="midnightblue" d="M965.8,-60.24C956,-58.61 945.83,-57.1 936.24,-56 648.41,-23.09 303.21,-14.21 155.32,-11.84"/>
<polygon fill="midnightblue" stroke="midnightblue" points="965.37,-63.72 975.82,-61.98 966.57,-56.83 965.37,-63.72"/>
</g>
<!-- Node13&#45;&gt;Node11 -->
<g id="edge13" class="edge">
<title>Node13&#45;&gt;Node11</title>
<path fill="none" stroke="midnightblue" d="M133.57,-60.16C142.12,-58.63 150.91,-57.18 159.24,-56 298.99,-36.25 463.19,-22.83 557.05,-16.08"/>
<polygon fill="midnightblue" stroke="midnightblue" points="132.89,-56.73 123.68,-61.98 134.15,-63.61 132.89,-56.73"/>
</g>
<!-- Node13&#45;&gt;Node12 -->
<g id="edge14" class="edge">
<title>Node13&#45;&gt;Node12</title>
<path fill="none" stroke="midnightblue" d="M82.24,-51.82C82.24,-41 82.24,-27.9 82.24,-19.51"/>
<polygon fill="midnightblue" stroke="midnightblue" points="78.74,-51.98 82.24,-61.98 85.74,-51.98 78.74,-51.98"/>
</g>
<!-- Node15&#45;&gt;Node2 -->
<g id="edge18" class="edge">
<title>Node15&#45;&gt;Node2</title>
<path fill="none" stroke="midnightblue" d="M648.43,-314.82C650.94,-306.04 653.9,-295.68 656.23,-287.52"/>
<polygon fill="midnightblue" stroke="midnightblue" points="645.06,-313.9 645.67,-324.48 651.79,-315.82 645.06,-313.9"/>
</g>
<!-- Node15&#45;&gt;Node16 -->
<g id="edge19" class="edge">
<title>Node15&#45;&gt;Node16</title>
<path fill="none" stroke="midnightblue" d="M619.67,-319.13C578.49,-294.91 493.89,-245.13 452.34,-220.68"/>
<polygon fill="midnightblue" stroke="midnightblue" points="618.07,-322.25 628.46,-324.31 621.62,-316.22 618.07,-322.25"/>
</g>
<!-- Node16&#45;&gt;Node3 -->
<g id="edge20" class="edge">
<title>Node16&#45;&gt;Node3</title>
<path fill="none" stroke="midnightblue" d="M498.52,-188.19C544.37,-177.54 603.63,-163.78 647.45,-153.61"/>
<polygon fill="midnightblue" stroke="midnightblue" points="497.6,-184.81 488.65,-190.48 499.18,-191.62 497.6,-184.81"/>
</g>
<!-- Node17 -->
<g id="node17" class="node">
<title>Node17</title>
<g id="a_node17"><a xlink:href="balanced__texture__gpuNUFFT__operator_8cpp.html" target="_top" xlink:title=" ">
<polygon fill="none" stroke="black" points="359.74,-123.5 359.74,-153.5 496.74,-153.5 496.74,-123.5 359.74,-123.5"/>
<text text-anchor="start" x="367.74" y="-141.5" font-family="FreeSans.ttf" font-size="10.00">CUDA/src/balanced_texture</text>
<text text-anchor="middle" x="428.24" y="-130.5" font-family="FreeSans.ttf" font-size="10.00">_gpuNUFFT_operator.cpp</text>
</a>
</g>
</g>
<!-- Node16&#45;&gt;Node17 -->
<g id="edge21" class="edge">
<title>Node16&#45;&gt;Node17</title>
<path fill="none" stroke="midnightblue" d="M428.24,-180.11C428.24,-171.15 428.24,-161.32 428.24,-153.58"/>
<polygon fill="midnightblue" stroke="midnightblue" points="424.74,-180.4 428.24,-190.4 431.74,-180.4 424.74,-180.4"/>
</g>
<!-- Node18&#45;&gt;Node2 -->
<g id="edge24" class="edge">
<title>Node18&#45;&gt;Node2</title>
<path fill="none" stroke="midnightblue" d="M973.98,-322.96C914.36,-314.01 824.96,-300.42 747.24,-288 744.37,-287.54 741.44,-287.07 738.49,-286.59"/>
<polygon fill="midnightblue" stroke="midnightblue" points="973.61,-326.45 984.02,-324.47 974.65,-319.53 973.61,-326.45"/>
</g>
<!-- Node18&#45;&gt;Node3 -->
<g id="edge37" class="edge">
<title>Node18&#45;&gt;Node3</title>
<path fill="none" stroke="midnightblue" d="M1029.61,-316.14C1007.96,-286.07 958.42,-223.2 901.24,-190 865.59,-169.31 821.38,-156.94 784.27,-149.63"/>
<polygon fill="midnightblue" stroke="midnightblue" points="1026.79,-318.21 1035.41,-324.36 1032.5,-314.17 1026.79,-318.21"/>
</g>
<!-- Node19 -->
<g id="node19" class="node">
<title>Node19</title>
<g id="a_node19"><a xlink:href="cuda__utils_8hpp.html" target="_top" xlink:title="Util functions for CUDA memory and texture management.">
<polygon fill="none" stroke="black" points="1088.74,-263 1088.74,-282 1213.74,-282 1213.74,-263 1088.74,-263"/>
<text text-anchor="middle" x="1151.24" y="-270" font-family="FreeSans.ttf" font-size="10.00">CUDA/inc/cuda_utils.hpp</text>
</a>
</g>
</g>
<!-- Node18&#45;&gt;Node19 -->
<g id="edge25" class="edge">
<title>Node18&#45;&gt;Node19</title>
<path fill="none" stroke="midnightblue" d="M1065.81,-319.71C1087.11,-308.19 1117.31,-291.86 1135.51,-282.01"/>
<polygon fill="midnightblue" stroke="midnightblue" points="1064.13,-316.64 1057,-324.48 1067.46,-322.8 1064.13,-316.64"/>
</g>
<!-- Node21 -->
<g id="node21" class="node">
<title>Node21</title>
<g id="a_node21"><a xlink:href="gpuNUFFT__operator_8cpp.html" target="_top" xlink:title=" ">
<polygon fill="none" stroke="black" points="1279.74,-62 1279.74,-81 1450.74,-81 1450.74,-62 1279.74,-62"/>
<text text-anchor="middle" x="1365.24" y="-69" font-family="FreeSans.ttf" font-size="10.00">CUDA/src/gpuNUFFT_operator.cpp</text>
</a>
</g>
</g>
<!-- Node18&#45;&gt;Node21 -->
<g id="edge44" class="edge">
<title>Node18&#45;&gt;Node21</title>
<path fill="none" stroke="midnightblue" d="M1127.81,-323.13C1239.03,-308.33 1422.12,-276.1 1458.24,-221 1492.59,-168.59 1411.44,-104.37 1378.43,-81.28"/>
<polygon fill="midnightblue" stroke="midnightblue" points="1127.07,-319.69 1117.61,-324.46 1127.98,-326.63 1127.07,-319.69"/>
</g>
<!-- Node22 -->
<g id="node22" class="node">
<title>Node22</title>
<g id="a_node22"><a xlink:href="precomp__kernels_8hpp.html" target="_top" xlink:title="GPU Kernels for Precomputation (sector assignment)">
<polygon fill="none" stroke="black" points="1066.74,-129 1066.74,-148 1221.74,-148 1221.74,-129 1066.74,-129"/>
<text text-anchor="middle" x="1144.24" y="-136" font-family="FreeSans.ttf" font-size="10.00">CUDA/inc/precomp_kernels.hpp</text>
</a>
</g>
</g>
<!-- Node18&#45;&gt;Node22 -->
<g id="edge38" class="edge">
<title>Node18&#45;&gt;Node22</title>
<path fill="none" stroke="midnightblue" d="M1122.39,-322.84C1164.74,-315.69 1210.38,-304.43 1223.24,-288 1260.68,-240.17 1185.13,-172.03 1155.48,-148.16"/>
<polygon fill="midnightblue" stroke="midnightblue" points="1121.6,-319.42 1112.29,-324.48 1122.72,-326.33 1121.6,-319.42"/>
</g>
<!-- Node23 -->
<g id="node23" class="node">
<title>Node23</title>
<g id="a_node23"><a xlink:href="precomp__utils_8hpp.html" target="_top" xlink:title="UTIL functions for precomputation.">
<polygon fill="none" stroke="black" points="970.24,-196 970.24,-215 1112.24,-215 1112.24,-196 970.24,-196"/>
<text text-anchor="middle" x="1041.24" y="-203" font-family="FreeSans.ttf" font-size="10.00">CUDA/inc/precomp_utils.hpp</text>
</a>
</g>
</g>
<!-- Node18&#45;&gt;Node23 -->
<g id="edge39" class="edge">
<title>Node18&#45;&gt;Node23</title>
<path fill="none" stroke="midnightblue" d="M1041.24,-313.94C1041.24,-286.12 1041.24,-235.54 1041.24,-215.26"/>
<polygon fill="midnightblue" stroke="midnightblue" points="1037.74,-314.31 1041.24,-324.31 1044.74,-314.31 1037.74,-314.31"/>
</g>
<!-- Node18&#45;&gt;Node24 -->
<g id="edge40" class="edge">
<title>Node18&#45;&gt;Node24</title>
<path fill="none" stroke="midnightblue" d="M1001.1,-321.73C966.5,-312.02 916.39,-297.96 879.2,-287.52"/>
<polygon fill="midnightblue" stroke="midnightblue" points="1000.29,-325.14 1010.86,-324.48 1002.18,-318.4 1000.29,-325.14"/>
</g>
<!-- Node19&#45;&gt;Node3 -->
<g id="edge29" class="edge">
<title>Node19&#45;&gt;Node3</title>
<path fill="none" stroke="midnightblue" d="M1149.83,-252.83C1147.33,-233.86 1140.41,-205.19 1121.24,-190 1070.63,-149.91 889.34,-141.19 784.54,-139.57"/>
<polygon fill="midnightblue" stroke="midnightblue" points="1146.37,-253.34 1150.87,-262.93 1153.33,-252.63 1146.37,-253.34"/>
</g>
<!-- Node20 -->
<g id="node20" class="node">
<title>Node20</title>
<g id="a_node20"><a xlink:href="gpuNUFFT__kernels_8hpp.html" target="_top" xlink:title="gpuNUFFT CUDA function prototypes">
<polygon fill="none" stroke="black" points="1281.74,-196 1281.74,-215 1448.74,-215 1448.74,-196 1281.74,-196"/>
<text text-anchor="middle" x="1365.24" y="-203" font-family="FreeSans.ttf" font-size="10.00">CUDA/inc/gpuNUFFT_kernels.hpp</text>
</a>
</g>
</g>
<!-- Node19&#45;&gt;Node20 -->
<g id="edge26" class="edge">
<title>Node19&#45;&gt;Node20</title>
<path fill="none" stroke="midnightblue" d="M1189.34,-259.93C1231.71,-247.06 1299.16,-226.57 1337.04,-215.06"/>
<polygon fill="midnightblue" stroke="midnightblue" points="1188.21,-256.61 1179.66,-262.87 1190.24,-263.31 1188.21,-256.61"/>
</g>
<!-- Node19&#45;&gt;Node21 -->
<g id="edge36" class="edge">
<title>Node19&#45;&gt;Node21</title>
<path fill="none" stroke="midnightblue" d="M1168.01,-255.9C1210.75,-216.16 1322.66,-112.1 1355.84,-81.24"/>
<polygon fill="midnightblue" stroke="midnightblue" points="1165.37,-253.58 1160.43,-262.95 1170.14,-258.7 1165.37,-253.58"/>
</g>
<!-- Node19&#45;&gt;Node22 -->
<g id="edge30" class="edge">
<title>Node19&#45;&gt;Node22</title>
<path fill="none" stroke="midnightblue" d="M1153.34,-252.93C1154.87,-236.38 1156.35,-211.52 1154.24,-190 1152.77,-175.06 1148.92,-157.98 1146.45,-148"/>
<polygon fill="midnightblue" stroke="midnightblue" points="1149.85,-252.61 1152.31,-262.91 1156.82,-253.32 1149.85,-252.61"/>
</g>
<!-- Node19&#45;&gt;Node23 -->
<g id="edge33" class="edge">
<title>Node19&#45;&gt;Node23</title>
<path fill="none" stroke="midnightblue" d="M1127.74,-257.62C1105.95,-244.74 1074.2,-225.98 1055.84,-215.13"/>
<polygon fill="midnightblue" stroke="midnightblue" points="1126.01,-260.66 1136.4,-262.73 1129.57,-254.63 1126.01,-260.66"/>
</g>
<!-- Node20&#45;&gt;Node18 -->
<g id="edge27" class="edge">
<title>Node20&#45;&gt;Node18</title>
<path fill="none" stroke="midnightblue" d="M1351.13,-222.48C1333.61,-241.24 1301.93,-271.84 1268.24,-288 1224.04,-309.2 1170.42,-320.41 1126.39,-326.34"/>
<polygon fill="midnightblue" stroke="midnightblue" points="1353.78,-224.77 1357.93,-215.02 1348.61,-220.05 1353.78,-224.77"/>
</g>
<!-- Node20&#45;&gt;Node21 -->
<g id="edge28" class="edge">
<title>Node20&#45;&gt;Node21</title>
<path fill="none" stroke="midnightblue" d="M1365.24,-185.78C1365.24,-156.75 1365.24,-102.04 1365.24,-81.02"/>
<polygon fill="midnightblue" stroke="midnightblue" points="1361.74,-185.84 1365.24,-195.84 1368.74,-185.84 1361.74,-185.84"/>
</g>
<!-- Node22&#45;&gt;Node4 -->
<g id="edge32" class="edge">
<title>Node22&#45;&gt;Node4</title>
<path fill="none" stroke="midnightblue" d="M1155.26,-120.03C1161.87,-109.56 1170.16,-96.4 1176.35,-86.59"/>
<polygon fill="midnightblue" stroke="midnightblue" points="1152.14,-118.41 1149.77,-128.73 1158.06,-122.14 1152.14,-118.41"/>
</g>
<!-- Node22&#45;&gt;Node21 -->
<g id="edge31" class="edge">
<title>Node22&#45;&gt;Node21</title>
<path fill="none" stroke="midnightblue" d="M1183.3,-126.01C1227.04,-113.15 1296.92,-92.59 1336.12,-81.06"/>
<polygon fill="midnightblue" stroke="midnightblue" points="1182.19,-122.69 1173.59,-128.87 1184.17,-129.4 1182.19,-122.69"/>
</g>
<!-- Node23&#45;&gt;Node3 -->
<g id="edge34" class="edge">
<title>Node23&#45;&gt;Node3</title>
<path fill="none" stroke="midnightblue" d="M987.24,-193.96C930.97,-182.98 842.47,-165.7 780.26,-153.56"/>
<polygon fill="midnightblue" stroke="midnightblue" points="986.88,-197.45 997.36,-195.94 988.22,-190.58 986.88,-197.45"/>
</g>
<!-- Node23&#45;&gt;Node22 -->
<g id="edge35" class="edge">
<title>Node23&#45;&gt;Node22</title>
<path fill="none" stroke="midnightblue" d="M1063.79,-190.27C1084.18,-177.4 1113.53,-158.88 1130.57,-148.13"/>
<polygon fill="midnightblue" stroke="midnightblue" points="1061.72,-187.44 1055.13,-195.73 1065.45,-193.36 1061.72,-187.44"/>
</g>
<!-- Node24&#45;&gt;Node3 -->
<g id="edge42" class="edge">
<title>Node24&#45;&gt;Node3</title>
<path fill="none" stroke="midnightblue" d="M858.77,-251.16C879.35,-234.45 900.58,-210.32 885.24,-190 872.63,-173.29 826.58,-160.46 784.61,-151.91"/>
<polygon fill="midnightblue" stroke="midnightblue" points="856.47,-248.51 850.7,-257.39 860.75,-254.05 856.47,-248.51"/>
</g>
<!-- Node24&#45;&gt;Node16 -->
<g id="edge41" class="edge">
<title>Node24&#45;&gt;Node16</title>
<path fill="none" stroke="midnightblue" d="M746,-256.83C638.68,-239.52 609.92,-238.38 506.24,-221 503.25,-220.5 500.2,-219.98 497.12,-219.44"/>
<polygon fill="midnightblue" stroke="midnightblue" points="745.51,-260.29 755.94,-258.44 746.63,-253.38 745.51,-260.29"/>
</g>
<!-- Node25 -->
<g id="node25" class="node">
<title>Node25</title>
<g id="a_node25"><a xlink:href="texture__gpuNUFFT__operator_8cpp.html" target="_top" xlink:title=" ">
<polygon fill="none" stroke="black" points="728.74,-190.5 728.74,-220.5 875.74,-220.5 875.74,-190.5 728.74,-190.5"/>
<text text-anchor="start" x="736.74" y="-208.5" font-family="FreeSans.ttf" font-size="10.00">CUDA/src/texture_gpuNUFFT</text>
<text text-anchor="middle" x="802.24" y="-197.5" font-family="FreeSans.ttf" font-size="10.00">_operator.cpp</text>
</a>
</g>
</g>
<!-- Node24&#45;&gt;Node25 -->
<g id="edge43" class="edge">
<title>Node24&#45;&gt;Node25</title>
<path fill="none" stroke="midnightblue" d="M819.47,-247.99C815.66,-238.8 811.41,-228.58 808.09,-220.58"/>
<polygon fill="midnightblue" stroke="midnightblue" points="816.31,-249.5 823.38,-257.4 822.78,-246.82 816.31,-249.5"/>
</g>
</g>
</svg>
