<?xml version="1.0" encoding="UTF-8" standalone="no"?>
<!DOCTYPE svg PUBLIC "-//W3C//DTD SVG 1.1//EN"
 "http://www.w3.org/Graphics/SVG/1.1/DTD/svg11.dtd">
<!-- Generated by graphviz version 2.49.3 (20211027.1534)
 -->
<!-- Title: performTextureForwardConvolution Pages: 1 -->
<svg width="405pt" height="88pt"
 viewBox="0.00 0.00 405.00 88.00" xmlns="http://www.w3.org/2000/svg" xmlns:xlink="http://www.w3.org/1999/xlink">
<g id="graph0" class="graph" transform="scale(1 1) rotate(0) translate(4 84)">
<title>performTextureForwardConvolution</title>
<!-- Node1 -->
<g id="node1" class="node">
<title>Node1</title>
<g id="a_node1"><a xlink:title="Forward gridding convolution implementation on GPU using textures .">
<polygon fill="#bfbfbf" stroke="black" points="229,-30 229,-49 397,-49 397,-30 229,-30"/>
<text text-anchor="middle" x="313" y="-37" font-family="FreeSans.ttf" font-size="10.00">performTextureForwardConvolution</text>
</a>
</g>
</g>
<!-- Node2 -->
<g id="node2" class="node">
<title>Node2</title>
<g id="a_node2"><a xlink:href="classgpuNUFFT_1_1BalancedTextureGpuNUFFTOperator.html#a643ed4abaf7b00027d8edec5a64ba0ea" target="_top" xlink:title="Virtual forward convolution call, which can be used by sub&#45;classes to add behaviour to the gridding s...">
<polygon fill="none" stroke="black" points="0,-49.5 0,-79.5 193,-79.5 193,-49.5 0,-49.5"/>
<text text-anchor="start" x="8" y="-67.5" font-family="FreeSans.ttf" font-size="10.00">gpuNUFFT::BalancedTexture</text>
<text text-anchor="middle" x="96.5" y="-56.5" font-family="FreeSans.ttf" font-size="10.00">GpuNUFFTOperator::forwardConvolution</text>
</a>
</g>
</g>
<!-- Node1&#45;&gt;Node2 -->
<g id="edge1" class="edge">
<title>Node1&#45;&gt;Node2</title>
<path fill="none" stroke="midnightblue" d="M220.3,-50.19C211.38,-51.23 202.31,-52.28 193.35,-53.33"/>
<polygon fill="midnightblue" stroke="midnightblue" points="220.77,-53.66 230.29,-49.02 219.96,-46.7 220.77,-53.66"/>
</g>
<!-- Node3 -->
<g id="node3" class="node">
<title>Node3</title>
<g id="a_node3"><a xlink:href="classgpuNUFFT_1_1TextureGpuNUFFTOperator.html#af111ef5824d67c6c167211285f1404b0" target="_top" xlink:title="Virtual forward convolution call, which can be used by sub&#45;classes to add behaviour to the gridding s...">
<polygon fill="none" stroke="black" points="1,-0.5 1,-30.5 192,-30.5 192,-0.5 1,-0.5"/>
<text text-anchor="start" x="9" y="-18.5" font-family="FreeSans.ttf" font-size="10.00">gpuNUFFT::TextureGpuNUFFTOperator</text>
<text text-anchor="middle" x="96.5" y="-7.5" font-family="FreeSans.ttf" font-size="10.00">::forwardConvolution</text>
</a>
</g>
</g>
<!-- Node1&#45;&gt;Node3 -->
<g id="edge2" class="edge">
<title>Node1&#45;&gt;Node3</title>
<path fill="none" stroke="midnightblue" d="M218.54,-29.04C209.77,-28.06 200.88,-27.07 192.1,-26.08"/>
<polygon fill="midnightblue" stroke="midnightblue" points="218.43,-32.55 228.76,-30.19 219.21,-25.6 218.43,-32.55"/>
</g>
</g>
</svg>
