<?xml version="1.0" encoding="UTF-8" standalone="no"?>
<!DOCTYPE svg PUBLIC "-//W3C//DTD SVG 1.1//EN"
 "http://www.w3.org/Graphics/SVG/1.1/DTD/svg11.dtd">
<!-- Generated by graphviz version 2.49.3 (20211027.1534)
 -->
<!-- Title: CUDA/inc/gpuNUFFT_utils.hpp Pages: 1 -->
<svg width="556pt" height="84pt"
 viewBox="0.00 0.00 556.00 84.00" xmlns="http://www.w3.org/2000/svg" xmlns:xlink="http://www.w3.org/1999/xlink">
<g id="graph0" class="graph" transform="scale(1 1) rotate(0) translate(4 80)">
<title>CUDA/inc/gpuNUFFT_utils.hpp</title>
<!-- Node1 -->
<g id="node1" class="node">
<title>Node1</title>
<g id="a_node1"><a xlink:title="Definition of util functions used in gridding operations.">
<polygon fill="#bfbfbf" stroke="black" points="201,-56.5 201,-75.5 354,-75.5 354,-56.5 201,-56.5"/>
<text text-anchor="middle" x="277.5" y="-63.5" font-family="FreeSans.ttf" font-size="10.00">CUDA/inc/gpuNUFFT_utils.hpp</text>
</a>
</g>
</g>
<!-- Node2 -->
<g id="node2" class="node">
<title>Node2</title>
<g id="a_node2"><a xlink:title=" ">
<polygon fill="none" stroke="#bfbfbf" points="0,-0.5 0,-19.5 47,-19.5 47,-0.5 0,-0.5"/>
<text text-anchor="middle" x="23.5" y="-7.5" font-family="FreeSans.ttf" font-size="10.00">stdlib.h</text>
</a>
</g>
</g>
<!-- Node1&#45;&gt;Node2 -->
<g id="edge1" class="edge">
<title>Node1&#45;&gt;Node2</title>
<path fill="none" stroke="midnightblue" d="M230.07,-56.44C187.17,-48.46 122.07,-35.77 57.2,-20.29"/>
<polygon fill="midnightblue" stroke="midnightblue" points="57.76,-16.82 47.21,-17.88 56.12,-23.63 57.76,-16.82"/>
</g>
<!-- Node3 -->
<g id="node3" class="node">
<title>Node3</title>
<g id="a_node3"><a xlink:title=" ">
<polygon fill="none" stroke="#bfbfbf" points="65,-0.5 65,-19.5 110,-19.5 110,-0.5 65,-0.5"/>
<text text-anchor="middle" x="87.5" y="-7.5" font-family="FreeSans.ttf" font-size="10.00">stdio.h</text>
</a>
</g>
</g>
<!-- Node1&#45;&gt;Node3 -->
<g id="edge2" class="edge">
<title>Node1&#45;&gt;Node3</title>
<path fill="none" stroke="midnightblue" d="M247,-56.43C216.98,-47.99 169.57,-34.61 120.1,-20.45"/>
<polygon fill="midnightblue" stroke="midnightblue" points="120.76,-16.99 110.18,-17.6 118.83,-23.72 120.76,-16.99"/>
</g>
<!-- Node4 -->
<g id="node4" class="node">
<title>Node4</title>
<g id="a_node4"><a xlink:title=" ">
<polygon fill="none" stroke="#bfbfbf" points="128,-0.5 128,-19.5 173,-19.5 173,-0.5 128,-0.5"/>
<text text-anchor="middle" x="150.5" y="-7.5" font-family="FreeSans.ttf" font-size="10.00">cuda.h</text>
</a>
</g>
</g>
<!-- Node1&#45;&gt;Node4 -->
<g id="edge3" class="edge">
<title>Node1&#45;&gt;Node4</title>
<path fill="none" stroke="midnightblue" d="M257.38,-56.44C236.48,-47.56 203.57,-33.56 179.78,-23.45"/>
<polygon fill="midnightblue" stroke="midnightblue" points="181.1,-20.21 170.53,-19.52 178.36,-26.65 181.1,-20.21"/>
</g>
<!-- Node5 -->
<g id="node5" class="node">
<title>Node5</title>
<g id="a_node5"><a xlink:title=" ">
<polygon fill="none" stroke="#bfbfbf" points="191,-0.5 191,-19.5 274,-19.5 274,-0.5 191,-0.5"/>
<text text-anchor="middle" x="232.5" y="-7.5" font-family="FreeSans.ttf" font-size="10.00">cuda_runtime.h</text>
</a>
</g>
</g>
<!-- Node1&#45;&gt;Node5 -->
<g id="edge4" class="edge">
<title>Node1&#45;&gt;Node5</title>
<path fill="none" stroke="midnightblue" d="M270.07,-56.08C263.65,-48.38 254.19,-37.03 246.38,-27.65"/>
<polygon fill="midnightblue" stroke="midnightblue" points="248.88,-25.19 239.79,-19.75 243.51,-29.67 248.88,-25.19"/>
</g>
<!-- Node6 -->
<g id="node6" class="node">
<title>Node6</title>
<g id="a_node6"><a xlink:title=" ">
<polygon fill="none" stroke="#bfbfbf" points="292.5,-0.5 292.5,-19.5 352.5,-19.5 352.5,-0.5 292.5,-0.5"/>
<text text-anchor="middle" x="322.5" y="-7.5" font-family="FreeSans.ttf" font-size="10.00">config.hpp</text>
</a>
</g>
</g>
<!-- Node1&#45;&gt;Node6 -->
<g id="edge5" class="edge">
<title>Node1&#45;&gt;Node6</title>
<path fill="none" stroke="midnightblue" d="M284.93,-56.08C291.35,-48.38 300.81,-37.03 308.62,-27.65"/>
<polygon fill="midnightblue" stroke="midnightblue" points="311.49,-29.67 315.21,-19.75 306.12,-25.19 311.49,-29.67"/>
</g>
<!-- Node7 -->
<g id="node7" class="node">
<title>Node7</title>
<g id="a_node7"><a xlink:title=" ">
<polygon fill="none" stroke="#bfbfbf" points="370.5,-0.5 370.5,-19.5 414.5,-19.5 414.5,-0.5 370.5,-0.5"/>
<text text-anchor="middle" x="392.5" y="-7.5" font-family="FreeSans.ttf" font-size="10.00">cmath</text>
</a>
</g>
</g>
<!-- Node1&#45;&gt;Node7 -->
<g id="edge6" class="edge">
<title>Node1&#45;&gt;Node7</title>
<path fill="none" stroke="midnightblue" d="M295.72,-56.44C314.4,-47.68 343.66,-33.94 365.12,-23.86"/>
<polygon fill="midnightblue" stroke="midnightblue" points="366.8,-26.93 374.36,-19.52 363.82,-20.6 366.8,-26.93"/>
</g>
<!-- Node8 -->
<g id="node8" class="node">
<title>Node8</title>
<g id="a_node8"><a xlink:title=" ">
<polygon fill="none" stroke="#bfbfbf" points="432.5,-0.5 432.5,-19.5 478.5,-19.5 478.5,-0.5 432.5,-0.5"/>
<text text-anchor="middle" x="455.5" y="-7.5" font-family="FreeSans.ttf" font-size="10.00">math.h</text>
</a>
</g>
</g>
<!-- Node1&#45;&gt;Node8 -->
<g id="edge7" class="edge">
<title>Node1&#45;&gt;Node8</title>
<path fill="none" stroke="midnightblue" d="M305.7,-56.44C337.42,-46.82 388.87,-31.21 422.44,-21.03"/>
<polygon fill="midnightblue" stroke="midnightblue" points="423.7,-24.31 432.25,-18.05 421.66,-17.61 423.7,-24.31"/>
</g>
<!-- Node9 -->
<g id="node9" class="node">
<title>Node9</title>
<g id="a_node9"><a xlink:title=" ">
<polygon fill="none" stroke="#bfbfbf" points="497,-0.5 497,-19.5 548,-19.5 548,-0.5 497,-0.5"/>
<text text-anchor="middle" x="522.5" y="-7.5" font-family="FreeSans.ttf" font-size="10.00">assert.h</text>
</a>
</g>
</g>
<!-- Node1&#45;&gt;Node9 -->
<g id="edge8" class="edge">
<title>Node1&#45;&gt;Node9</title>
<path fill="none" stroke="midnightblue" d="M319.85,-56.45C360.27,-48.18 423.1,-35 487.06,-20.03"/>
<polygon fill="midnightblue" stroke="midnightblue" points="487.98,-23.41 496.92,-17.71 486.38,-16.59 487.98,-23.41"/>
</g>
</g>
</svg>
