<?xml version="1.0" encoding="UTF-8" standalone="no"?>
<!DOCTYPE svg PUBLIC "-//W3C//DTD SVG 1.1//EN"
 "http://www.w3.org/Graphics/SVG/1.1/DTD/svg11.dtd">
<!-- Generated by graphviz version 2.49.3 (20211027.1534)
 -->
<!-- Title: calculateGrid3KernelSize Pages: 1 -->
<svg width="587pt" height="165pt"
 viewBox="0.00 0.00 587.00 164.50" xmlns="http://www.w3.org/2000/svg" xmlns:xlink="http://www.w3.org/1999/xlink">
<g id="graph0" class="graph" transform="scale(1 1) rotate(0) translate(4 160.5)">
<title>calculateGrid3KernelSize</title>
<!-- Node1 -->
<g id="node1" class="node">
<title>Node1</title>
<g id="a_node1"><a xlink:title=" ">
<polygon fill="#bfbfbf" stroke="black" points="454,-60.5 454,-79.5 579,-79.5 579,-60.5 454,-60.5"/>
<text text-anchor="middle" x="516.5" y="-67.5" font-family="FreeSans.ttf" font-size="10.00">calculateGrid3KernelSize</text>
</a>
</g>
</g>
<!-- Node1&#45;&gt;Node1 -->
<g id="edge1" class="edge">
<title>Node1&#45;&gt;Node1</title>
<path fill="none" stroke="midnightblue" d="M552.87,-87.5C552.87,-93.34 540.74,-98 516.5,-98 482.02,-98 472.05,-88.57 486.6,-79.76"/>
<polygon fill="midnightblue" stroke="midnightblue" points="555.5,-85.19 546.4,-79.76 550.13,-89.67 555.5,-85.19"/>
</g>
<!-- Node2 -->
<g id="node2" class="node">
<title>Node2</title>
<g id="a_node2"><a xlink:href="classgpuNUFFT_1_1GpuNUFFTOperator.html#a501ffa99025d9cc1f1497e354c56533b" target="_top" xlink:title="Precompute interpolation kernel lookup table.">
<polygon fill="none" stroke="black" points="243.5,-126 243.5,-156 401.5,-156 401.5,-126 243.5,-126"/>
<text text-anchor="start" x="251.5" y="-144" font-family="FreeSans.ttf" font-size="10.00">gpuNUFFT::GpuNUFFTOperator</text>
<text text-anchor="middle" x="322.5" y="-133" font-family="FreeSans.ttf" font-size="10.00">::initKernel</text>
</a>
</g>
</g>
<!-- Node1&#45;&gt;Node2 -->
<g id="edge2" class="edge">
<title>Node1&#45;&gt;Node2</title>
<path fill="none" stroke="midnightblue" d="M488.52,-84.36C469.25,-94.21 442.52,-107.06 418,-116 408.04,-119.63 397.3,-122.98 386.77,-125.97"/>
<polygon fill="midnightblue" stroke="midnightblue" points="490.32,-87.37 497.59,-79.66 487.1,-81.15 490.32,-87.37"/>
</g>
<!-- Node4 -->
<g id="node4" class="node">
<title>Node4</title>
<g id="a_node4"><a xlink:href="classgpuNUFFT_1_1TextureGpuNUFFTOperator.html#a3125b2b6c409e1d52050f9e3859f4f12" target="_top" xlink:title="Precompute interpolation kernel lookup table.">
<polygon fill="none" stroke="black" points="227,-77 227,-107 418,-107 418,-77 227,-77"/>
<text text-anchor="start" x="235" y="-95" font-family="FreeSans.ttf" font-size="10.00">gpuNUFFT::TextureGpuNUFFTOperator</text>
<text text-anchor="middle" x="322.5" y="-84" font-family="FreeSans.ttf" font-size="10.00">::initKernel</text>
</a>
</g>
</g>
<!-- Node1&#45;&gt;Node4 -->
<g id="edge4" class="edge">
<title>Node1&#45;&gt;Node4</title>
<path fill="none" stroke="midnightblue" d="M443.9,-78.2C435.53,-79.16 426.89,-80.15 418.27,-81.14"/>
<polygon fill="midnightblue" stroke="midnightblue" points="444.42,-81.67 453.96,-77.05 443.62,-74.71 444.42,-81.67"/>
</g>
<!-- Node6 -->
<g id="node6" class="node">
<title>Node6</title>
<g id="a_node6"><a xlink:href="gpuNUFFT__utils_8cpp.html#acf5440ba3be843dac60ba8642a0b4ede" target="_top" xlink:title="Loads a radius of the circularly symmetric kernel into a 1&#45;d array, with respect to the kernel radius...">
<polygon fill="none" stroke="black" points="279.5,-38.5 279.5,-57.5 365.5,-57.5 365.5,-38.5 279.5,-38.5"/>
<text text-anchor="middle" x="322.5" y="-45.5" font-family="FreeSans.ttf" font-size="10.00">loadGrid3Kernel</text>
</a>
</g>
</g>
<!-- Node1&#45;&gt;Node6 -->
<g id="edge6" class="edge">
<title>Node1&#45;&gt;Node6</title>
<path fill="none" stroke="midnightblue" d="M443.99,-61.81C417.59,-58.78 388.54,-55.45 365.59,-52.82"/>
<polygon fill="midnightblue" stroke="midnightblue" points="443.62,-65.29 453.96,-62.95 444.42,-58.33 443.62,-65.29"/>
</g>
<!-- Node7 -->
<g id="node7" class="node">
<title>Node7</title>
<g id="a_node7"><a xlink:href="gpuNUFFT__2D__conv__tests_8cpp.html#aaa68ca62ef9f76180f0da723f0da1dfb" target="_top" xlink:title=" ">
<polygon fill="none" stroke="black" points="302,-0.5 302,-19.5 343,-19.5 343,-0.5 302,-0.5"/>
<text text-anchor="middle" x="322.5" y="-7.5" font-family="FreeSans.ttf" font-size="10.00">TEST</text>
</a>
</g>
</g>
<!-- Node1&#45;&gt;Node7 -->
<g id="edge7" class="edge">
<title>Node1&#45;&gt;Node7</title>
<path fill="none" stroke="midnightblue" d="M487.06,-56.26C467.9,-47.45 441.87,-36.34 418,-29 392.73,-21.23 362.65,-15.81 343.33,-12.81"/>
<polygon fill="midnightblue" stroke="midnightblue" points="485.59,-59.44 496.13,-60.5 488.55,-53.1 485.59,-59.44"/>
</g>
<!-- Node3 -->
<g id="node3" class="node">
<title>Node3</title>
<g id="a_node3"><a xlink:href="classgpuNUFFT_1_1GpuNUFFTOperator.html#a412cbf2c22a1fbf1ebe47f4711be9fa4" target="_top" xlink:title="GpuNUFFTOperator ctor.">
<polygon fill="none" stroke="black" points="16.5,-126 16.5,-156 174.5,-156 174.5,-126 16.5,-126"/>
<text text-anchor="start" x="24.5" y="-144" font-family="FreeSans.ttf" font-size="10.00">gpuNUFFT::GpuNUFFTOperator</text>
<text text-anchor="middle" x="95.5" y="-133" font-family="FreeSans.ttf" font-size="10.00">::GpuNUFFTOperator</text>
</a>
</g>
</g>
<!-- Node2&#45;&gt;Node3 -->
<g id="edge3" class="edge">
<title>Node2&#45;&gt;Node3</title>
<path fill="none" stroke="midnightblue" d="M233.43,-141C214.09,-141 193.73,-141 174.81,-141"/>
<polygon fill="midnightblue" stroke="midnightblue" points="233.44,-144.5 243.44,-141 233.44,-137.5 233.44,-144.5"/>
</g>
<!-- Node5 -->
<g id="node5" class="node">
<title>Node5</title>
<g id="a_node5"><a xlink:href="classgpuNUFFT_1_1TextureGpuNUFFTOperator.html#ae409e2a90a74c6f1890a7591b2ac414d" target="_top" xlink:title=" ">
<polygon fill="none" stroke="black" points="0,-77 0,-107 191,-107 191,-77 0,-77"/>
<text text-anchor="start" x="8" y="-95" font-family="FreeSans.ttf" font-size="10.00">gpuNUFFT::TextureGpuNUFFTOperator</text>
<text text-anchor="middle" x="95.5" y="-84" font-family="FreeSans.ttf" font-size="10.00">::TextureGpuNUFFTOperator</text>
</a>
</g>
</g>
<!-- Node4&#45;&gt;Node5 -->
<g id="edge5" class="edge">
<title>Node4&#45;&gt;Node5</title>
<path fill="none" stroke="midnightblue" d="M216.47,-92C208.03,-92 199.53,-92 191.16,-92"/>
<polygon fill="midnightblue" stroke="midnightblue" points="216.73,-95.5 226.73,-92 216.73,-88.5 216.73,-95.5"/>
</g>
</g>
</svg>
