<?xml version="1.0" encoding="UTF-8" standalone="no"?>
<!DOCTYPE svg PUBLIC "-//W3C//DTD SVG 1.1//EN"
 "http://www.w3.org/Graphics/SVG/1.1/DTD/svg11.dtd">
<!-- Generated by graphviz version 2.49.3 (20211027.1534)
 -->
<!-- Title: CUDA/inc/gpuNUFFT_kernels.hpp Pages: 1 -->
<svg width="842pt" height="252pt"
 viewBox="0.00 0.00 842.00 252.00" xmlns="http://www.w3.org/2000/svg" xmlns:xlink="http://www.w3.org/1999/xlink">
<g id="graph0" class="graph" transform="scale(1 1) rotate(0) translate(4 248)">
<title>CUDA/inc/gpuNUFFT_kernels.hpp</title>
<!-- Node1 -->
<g id="node1" class="node">
<title>Node1</title>
<g id="a_node1"><a xlink:title="gpuNUFFT CUDA function prototypes">
<polygon fill="#bfbfbf" stroke="black" points="351.5,-224.5 351.5,-243.5 518.5,-243.5 518.5,-224.5 351.5,-224.5"/>
<text text-anchor="middle" x="435" y="-231.5" font-family="FreeSans.ttf" font-size="10.00">CUDA/inc/gpuNUFFT_kernels.hpp</text>
</a>
</g>
</g>
<!-- Node2 -->
<g id="node2" class="node">
<title>Node2</title>
<g id="a_node2"><a xlink:href="cuda__utils_8hpp.html" target="_top" xlink:title="Util functions for CUDA memory and texture management.">
<polygon fill="none" stroke="black" points="395.5,-168.5 395.5,-187.5 474.5,-187.5 474.5,-168.5 395.5,-168.5"/>
<text text-anchor="middle" x="435" y="-175.5" font-family="FreeSans.ttf" font-size="10.00">cuda_utils.hpp</text>
</a>
</g>
</g>
<!-- Node1&#45;&gt;Node2 -->
<g id="edge1" class="edge">
<title>Node1&#45;&gt;Node2</title>
<path fill="none" stroke="midnightblue" d="M435,-224.08C435,-217.01 435,-206.86 435,-197.99"/>
<polygon fill="midnightblue" stroke="midnightblue" points="438.5,-197.75 435,-187.75 431.5,-197.75 438.5,-197.75"/>
</g>
<!-- Node7 -->
<g id="node7" class="node">
<title>Node7</title>
<g id="a_node7"><a xlink:href="gpuNUFFT__utils_8hpp.html" target="_top" xlink:title="Definition of util functions used in gridding operations.">
<polygon fill="none" stroke="black" points="211.5,-112.5 211.5,-131.5 318.5,-131.5 318.5,-112.5 211.5,-112.5"/>
<text text-anchor="middle" x="265" y="-119.5" font-family="FreeSans.ttf" font-size="10.00">gpuNUFFT_utils.hpp</text>
</a>
</g>
</g>
<!-- Node1&#45;&gt;Node7 -->
<g id="edge26" class="edge">
<title>Node1&#45;&gt;Node7</title>
<path fill="none" stroke="midnightblue" d="M421.66,-224.37C392.49,-205.49 322.78,-160.38 287,-137.24"/>
<polygon fill="midnightblue" stroke="midnightblue" points="288.57,-134.09 278.28,-131.59 284.77,-139.96 288.57,-134.09"/>
</g>
<!-- Node3 -->
<g id="node3" class="node">
<title>Node3</title>
<g id="a_node3"><a xlink:title=" ">
<polygon fill="none" stroke="#bfbfbf" points="463.5,-56.5 463.5,-75.5 508.5,-75.5 508.5,-56.5 463.5,-56.5"/>
<text text-anchor="middle" x="486" y="-63.5" font-family="FreeSans.ttf" font-size="10.00">cuda.h</text>
</a>
</g>
</g>
<!-- Node2&#45;&gt;Node3 -->
<g id="edge2" class="edge">
<title>Node2&#45;&gt;Node3</title>
<path fill="none" stroke="midnightblue" d="M474.57,-169.99C496.38,-163.89 521.67,-152.62 535,-132 546.74,-113.85 526.95,-94.18 509.13,-81.29"/>
<polygon fill="midnightblue" stroke="midnightblue" points="510.92,-78.27 500.68,-75.54 506.98,-84.06 510.92,-78.27"/>
</g>
<!-- Node4 -->
<g id="node4" class="node">
<title>Node4</title>
<g id="a_node4"><a xlink:title=" ">
<polygon fill="none" stroke="#bfbfbf" points="299.5,-56.5 299.5,-75.5 382.5,-75.5 382.5,-56.5 299.5,-56.5"/>
<text text-anchor="middle" x="341" y="-63.5" font-family="FreeSans.ttf" font-size="10.00">cuda_runtime.h</text>
</a>
</g>
</g>
<!-- Node2&#45;&gt;Node4 -->
<g id="edge3" class="edge">
<title>Node2&#45;&gt;Node4</title>
<path fill="none" stroke="midnightblue" d="M427.62,-168.37C411.97,-150.05 375.22,-107.05 354.98,-83.36"/>
<polygon fill="midnightblue" stroke="midnightblue" points="357.5,-80.92 348.34,-75.59 352.18,-85.47 357.5,-80.92"/>
</g>
<!-- Node5 -->
<g id="node5" class="node">
<title>Node5</title>
<g id="a_node5"><a xlink:title=" ">
<polygon fill="none" stroke="#bfbfbf" points="400.5,-56.5 400.5,-75.5 445.5,-75.5 445.5,-56.5 400.5,-56.5"/>
<text text-anchor="middle" x="423" y="-63.5" font-family="FreeSans.ttf" font-size="10.00">stdio.h</text>
</a>
</g>
</g>
<!-- Node2&#45;&gt;Node5 -->
<g id="edge4" class="edge">
<title>Node2&#45;&gt;Node5</title>
<path fill="none" stroke="midnightblue" d="M426.79,-168.18C419.46,-159.66 409.24,-146.02 405,-132 400.19,-116.1 406.23,-97.87 412.58,-84.77"/>
<polygon fill="midnightblue" stroke="midnightblue" points="415.71,-86.34 417.32,-75.87 409.53,-83.05 415.71,-86.34"/>
</g>
<!-- Node6 -->
<g id="node6" class="node">
<title>Node6</title>
<g id="a_node6"><a xlink:title=" ">
<polygon fill="none" stroke="#bfbfbf" points="413.5,-112.5 413.5,-131.5 456.5,-131.5 456.5,-112.5 413.5,-112.5"/>
<text text-anchor="middle" x="435" y="-119.5" font-family="FreeSans.ttf" font-size="10.00">cufft.h</text>
</a>
</g>
</g>
<!-- Node2&#45;&gt;Node6 -->
<g id="edge5" class="edge">
<title>Node2&#45;&gt;Node6</title>
<path fill="none" stroke="midnightblue" d="M435,-168.08C435,-161.01 435,-150.86 435,-141.99"/>
<polygon fill="midnightblue" stroke="midnightblue" points="438.5,-141.75 435,-131.75 431.5,-141.75 438.5,-141.75"/>
</g>
<!-- Node2&#45;&gt;Node7 -->
<g id="edge6" class="edge">
<title>Node2&#45;&gt;Node7</title>
<path fill="none" stroke="midnightblue" d="M408.06,-168.44C379.34,-159.32 333.67,-144.81 301.68,-134.65"/>
<polygon fill="midnightblue" stroke="midnightblue" points="302.4,-131.21 291.81,-131.52 300.28,-137.88 302.4,-131.21"/>
</g>
<!-- Node13 -->
<g id="node13" class="node">
<title>Node13</title>
<g id="a_node13"><a xlink:href="gpuNUFFT__operator_8hpp.html" target="_top" xlink:title=" ">
<polygon fill="none" stroke="black" points="582,-112.5 582,-131.5 706,-131.5 706,-112.5 582,-112.5"/>
<text text-anchor="middle" x="644" y="-119.5" font-family="FreeSans.ttf" font-size="10.00">gpuNUFFT_operator.hpp</text>
</a>
</g>
</g>
<!-- Node2&#45;&gt;Node13 -->
<g id="edge15" class="edge">
<title>Node2&#45;&gt;Node13</title>
<path fill="none" stroke="midnightblue" d="M468.12,-168.44C504.12,-159.14 561.77,-144.25 601.19,-134.06"/>
<polygon fill="midnightblue" stroke="midnightblue" points="602.23,-137.41 611.04,-131.52 600.48,-130.63 602.23,-137.41"/>
</g>
<!-- Node18 -->
<g id="node18" class="node">
<title>Node18</title>
<g id="a_node18"><a xlink:title=" ">
<polygon fill="none" stroke="#bfbfbf" points="474.5,-112.5 474.5,-131.5 525.5,-131.5 525.5,-112.5 474.5,-112.5"/>
<text text-anchor="middle" x="500" y="-119.5" font-family="FreeSans.ttf" font-size="10.00">stdarg.h</text>
</a>
</g>
</g>
<!-- Node2&#45;&gt;Node18 -->
<g id="edge25" class="edge">
<title>Node2&#45;&gt;Node18</title>
<path fill="none" stroke="midnightblue" d="M445.44,-168.32C455.15,-160.26 469.82,-148.08 481.5,-138.37"/>
<polygon fill="midnightblue" stroke="midnightblue" points="483.91,-140.92 489.37,-131.83 479.44,-135.53 483.91,-140.92"/>
</g>
<!-- Node7&#45;&gt;Node3 -->
<g id="edge9" class="edge">
<title>Node7&#45;&gt;Node3</title>
<path fill="none" stroke="midnightblue" d="M303.71,-112.43C340.1,-104.24 396.31,-91.25 453.43,-76.33"/>
<polygon fill="midnightblue" stroke="midnightblue" points="454.57,-79.65 463.35,-73.72 452.79,-72.88 454.57,-79.65"/>
</g>
<!-- Node7&#45;&gt;Node4 -->
<g id="edge10" class="edge">
<title>Node7&#45;&gt;Node4</title>
<path fill="none" stroke="midnightblue" d="M277.21,-112.32C288.78,-104.11 306.38,-91.6 320.16,-81.81"/>
<polygon fill="midnightblue" stroke="midnightblue" points="322.44,-84.48 328.57,-75.83 318.39,-78.77 322.44,-84.48"/>
</g>
<!-- Node7&#45;&gt;Node5 -->
<g id="edge8" class="edge">
<title>Node7&#45;&gt;Node5</title>
<path fill="none" stroke="midnightblue" d="M290.04,-112.44C317.32,-103.12 361.05,-88.17 390.86,-77.99"/>
<polygon fill="midnightblue" stroke="midnightblue" points="392.05,-81.28 400.39,-74.73 389.79,-74.65 392.05,-81.28"/>
</g>
<!-- Node8 -->
<g id="node8" class="node">
<title>Node8</title>
<g id="a_node8"><a xlink:title=" ">
<polygon fill="none" stroke="#bfbfbf" points="195.5,-56.5 195.5,-75.5 242.5,-75.5 242.5,-56.5 195.5,-56.5"/>
<text text-anchor="middle" x="219" y="-63.5" font-family="FreeSans.ttf" font-size="10.00">stdlib.h</text>
</a>
</g>
</g>
<!-- Node7&#45;&gt;Node8 -->
<g id="edge7" class="edge">
<title>Node7&#45;&gt;Node8</title>
<path fill="none" stroke="midnightblue" d="M257.4,-112.08C250.77,-104.3 240.98,-92.8 232.94,-83.37"/>
<polygon fill="midnightblue" stroke="midnightblue" points="235.6,-81.09 226.45,-75.75 230.27,-85.63 235.6,-81.09"/>
</g>
<!-- Node9 -->
<g id="node9" class="node">
<title>Node9</title>
<g id="a_node9"><a xlink:title=" ">
<polygon fill="none" stroke="#bfbfbf" points="507,-0.5 507,-19.5 567,-19.5 567,-0.5 507,-0.5"/>
<text text-anchor="middle" x="537" y="-7.5" font-family="FreeSans.ttf" font-size="10.00">config.hpp</text>
</a>
</g>
</g>
<!-- Node7&#45;&gt;Node9 -->
<g id="edge11" class="edge">
<title>Node7&#45;&gt;Node9</title>
<path fill="none" stroke="midnightblue" d="M265.7,-112.3C267.33,-98.16 272.68,-70.35 290,-56 320.86,-30.43 434.8,-18.38 496.57,-13.62"/>
<polygon fill="midnightblue" stroke="midnightblue" points="497.02,-17.09 506.74,-12.86 496.5,-10.11 497.02,-17.09"/>
</g>
<!-- Node10 -->
<g id="node10" class="node">
<title>Node10</title>
<g id="a_node10"><a xlink:title=" ">
<polygon fill="none" stroke="#bfbfbf" points="0,-56.5 0,-75.5 44,-75.5 44,-56.5 0,-56.5"/>
<text text-anchor="middle" x="22" y="-63.5" font-family="FreeSans.ttf" font-size="10.00">cmath</text>
</a>
</g>
</g>
<!-- Node7&#45;&gt;Node10 -->
<g id="edge12" class="edge">
<title>Node7&#45;&gt;Node10</title>
<path fill="none" stroke="midnightblue" d="M220.11,-112.47C179.24,-104.47 117.01,-91.75 54.35,-76.2"/>
<polygon fill="midnightblue" stroke="midnightblue" points="54.85,-72.72 44.3,-73.69 53.15,-79.51 54.85,-72.72"/>
</g>
<!-- Node11 -->
<g id="node11" class="node">
<title>Node11</title>
<g id="a_node11"><a xlink:title=" ">
<polygon fill="none" stroke="#bfbfbf" points="62,-56.5 62,-75.5 108,-75.5 108,-56.5 62,-56.5"/>
<text text-anchor="middle" x="85" y="-63.5" font-family="FreeSans.ttf" font-size="10.00">math.h</text>
</a>
</g>
</g>
<!-- Node7&#45;&gt;Node11 -->
<g id="edge13" class="edge">
<title>Node7&#45;&gt;Node11</title>
<path fill="none" stroke="midnightblue" d="M236.48,-112.44C204.32,-102.79 152.09,-87.13 118.14,-76.94"/>
<polygon fill="midnightblue" stroke="midnightblue" points="118.82,-73.49 108.24,-73.97 116.81,-80.2 118.82,-73.49"/>
</g>
<!-- Node12 -->
<g id="node12" class="node">
<title>Node12</title>
<g id="a_node12"><a xlink:title=" ">
<polygon fill="none" stroke="#bfbfbf" points="126.5,-56.5 126.5,-75.5 177.5,-75.5 177.5,-56.5 126.5,-56.5"/>
<text text-anchor="middle" x="152" y="-63.5" font-family="FreeSans.ttf" font-size="10.00">assert.h</text>
</a>
</g>
</g>
<!-- Node7&#45;&gt;Node12 -->
<g id="edge14" class="edge">
<title>Node7&#45;&gt;Node12</title>
<path fill="none" stroke="midnightblue" d="M247.09,-112.44C228.75,-103.68 199.99,-89.94 178.91,-79.86"/>
<polygon fill="midnightblue" stroke="midnightblue" points="180.35,-76.67 169.82,-75.52 177.33,-82.99 180.35,-76.67"/>
</g>
<!-- Node13&#45;&gt;Node1 -->
<g id="edge20" class="edge">
<title>Node13&#45;&gt;Node1</title>
<path fill="none" stroke="midnightblue" d="M627.68,-131.59C591.43,-150.67 503.99,-196.69 460.48,-219.59"/>
<polygon fill="midnightblue" stroke="midnightblue" points="458.62,-216.61 451.4,-224.37 461.88,-222.81 458.62,-216.61"/>
</g>
<!-- Node13&#45;&gt;Node9 -->
<g id="edge21" class="edge">
<title>Node13&#45;&gt;Node9</title>
<path fill="none" stroke="midnightblue" d="M614.76,-112.46C595.8,-105.51 571.94,-93.88 557,-76 546.01,-62.84 541.05,-43.7 538.82,-29.6"/>
<polygon fill="midnightblue" stroke="midnightblue" points="542.28,-29.06 537.55,-19.58 535.34,-29.94 542.28,-29.06"/>
</g>
<!-- Node14 -->
<g id="node14" class="node">
<title>Node14</title>
<g id="a_node14"><a xlink:href="gpuNUFFT__types_8hpp.html" target="_top" xlink:title="Definition of gpuNUFFT defined types.">
<polygon fill="none" stroke="black" points="643,-56.5 643,-75.5 755,-75.5 755,-56.5 643,-56.5"/>
<text text-anchor="middle" x="699" y="-63.5" font-family="FreeSans.ttf" font-size="10.00">gpuNUFFT_types.hpp</text>
</a>
</g>
</g>
<!-- Node13&#45;&gt;Node14 -->
<g id="edge16" class="edge">
<title>Node13&#45;&gt;Node14</title>
<path fill="none" stroke="midnightblue" d="M653.08,-112.08C661.17,-104.14 673.2,-92.34 682.91,-82.8"/>
<polygon fill="midnightblue" stroke="midnightblue" points="685.4,-85.25 690.09,-75.75 680.5,-80.26 685.4,-85.25"/>
</g>
<!-- Node15 -->
<g id="node15" class="node">
<title>Node15</title>
<g id="a_node15"><a xlink:title=" ">
<polygon fill="none" stroke="#bfbfbf" points="689.5,-0.5 689.5,-19.5 734.5,-19.5 734.5,-0.5 689.5,-0.5"/>
<text text-anchor="middle" x="712" y="-7.5" font-family="FreeSans.ttf" font-size="10.00">cstdlib</text>
</a>
</g>
</g>
<!-- Node13&#45;&gt;Node15 -->
<g id="edge22" class="edge">
<title>Node13&#45;&gt;Node15</title>
<path fill="none" stroke="midnightblue" d="M706.11,-112.54C728.11,-106.22 750.69,-95.2 764,-76 776.71,-57.67 755.18,-37.81 736.09,-24.93"/>
<polygon fill="midnightblue" stroke="midnightblue" points="737.94,-21.96 727.62,-19.54 734.18,-27.86 737.94,-21.96"/>
</g>
<!-- Node16 -->
<g id="node16" class="node">
<title>Node16</title>
<g id="a_node16"><a xlink:title=" ">
<polygon fill="none" stroke="#bfbfbf" points="780,-0.5 780,-19.5 834,-19.5 834,-0.5 780,-0.5"/>
<text text-anchor="middle" x="807" y="-7.5" font-family="FreeSans.ttf" font-size="10.00">iostream</text>
</a>
</g>
</g>
<!-- Node13&#45;&gt;Node16 -->
<g id="edge23" class="edge">
<title>Node13&#45;&gt;Node16</title>
<path fill="none" stroke="midnightblue" d="M703.04,-112.49C728.96,-106.15 758.17,-95.13 779,-76 792.27,-63.81 799.52,-44.26 803.3,-29.78"/>
<polygon fill="midnightblue" stroke="midnightblue" points="806.74,-30.43 805.55,-19.9 799.92,-28.88 806.74,-30.43"/>
</g>
<!-- Node17 -->
<g id="node17" class="node">
<title>Node17</title>
<g id="a_node17"><a xlink:title=" ">
<polygon fill="none" stroke="#bfbfbf" points="565.5,-56.5 565.5,-75.5 624.5,-75.5 624.5,-56.5 565.5,-56.5"/>
<text text-anchor="middle" x="595" y="-63.5" font-family="FreeSans.ttf" font-size="10.00">functional</text>
</a>
</g>
</g>
<!-- Node13&#45;&gt;Node17 -->
<g id="edge24" class="edge">
<title>Node13&#45;&gt;Node17</title>
<path fill="none" stroke="midnightblue" d="M635.91,-112.08C628.84,-104.3 618.41,-92.8 609.85,-83.37"/>
<polygon fill="midnightblue" stroke="midnightblue" points="612.25,-80.8 602.94,-75.75 607.07,-85.51 612.25,-80.8"/>
</g>
<!-- Node14&#45;&gt;Node9 -->
<g id="edge19" class="edge">
<title>Node14&#45;&gt;Node9</title>
<path fill="none" stroke="midnightblue" d="M673.33,-56.44C646.08,-47.36 602.82,-32.94 572.35,-22.78"/>
<polygon fill="midnightblue" stroke="midnightblue" points="573.14,-19.36 562.55,-19.52 570.93,-26 573.14,-19.36"/>
</g>
<!-- Node14&#45;&gt;Node15 -->
<g id="edge17" class="edge">
<title>Node14&#45;&gt;Node15</title>
<path fill="none" stroke="midnightblue" d="M701.15,-56.08C702.87,-48.93 705.35,-38.64 707.5,-29.69"/>
<polygon fill="midnightblue" stroke="midnightblue" points="710.96,-30.29 709.89,-19.75 704.15,-28.65 710.96,-30.29"/>
</g>
<!-- Node14&#45;&gt;Node16 -->
<g id="edge18" class="edge">
<title>Node14&#45;&gt;Node16</title>
<path fill="none" stroke="midnightblue" d="M716.35,-56.32C733.67,-47.66 760.52,-34.24 780.5,-24.25"/>
<polygon fill="midnightblue" stroke="midnightblue" points="782.31,-27.26 789.69,-19.65 779.18,-21 782.31,-27.26"/>
</g>
</g>
</svg>
