<?xml version="1.0" encoding="UTF-8" standalone="no"?>
<!DOCTYPE svg PUBLIC "-//W3C//DTD SVG 1.1//EN"
 "http://www.w3.org/Graphics/SVG/1.1/DTD/svg11.dtd">
<!-- Generated by graphviz version 2.49.3 (20211027.1534)
 -->
<!-- Title: CUDA/inc/gpuNUFFT_operator_factory.hpp Pages: 1 -->
<svg width="909pt" height="442pt"
 viewBox="0.00 0.00 909.00 442.00" xmlns="http://www.w3.org/2000/svg" xmlns:xlink="http://www.w3.org/1999/xlink">
<g id="graph0" class="graph" transform="scale(1 1) rotate(0) translate(4 438)">
<title>CUDA/inc/gpuNUFFT_operator_factory.hpp</title>
<!-- Node1 -->
<g id="node1" class="node">
<title>Node1</title>
<g id="a_node1"><a xlink:title=" ">
<polygon fill="#bfbfbf" stroke="black" points="496,-403.5 496,-433.5 648,-433.5 648,-403.5 496,-403.5"/>
<text text-anchor="start" x="504" y="-421.5" font-family="FreeSans.ttf" font-size="10.00">CUDA/inc/gpuNUFFT_operator</text>
<text text-anchor="middle" x="572" y="-410.5" font-family="FreeSans.ttf" font-size="10.00">_factory.hpp</text>
</a>
</g>
</g>
<!-- Node2 -->
<g id="node2" class="node">
<title>Node2</title>
<g id="a_node2"><a xlink:title=" ">
<polygon fill="none" stroke="#bfbfbf" points="266,-0.5 266,-19.5 326,-19.5 326,-0.5 266,-0.5"/>
<text text-anchor="middle" x="296" y="-7.5" font-family="FreeSans.ttf" font-size="10.00">config.hpp</text>
</a>
</g>
</g>
<!-- Node1&#45;&gt;Node2 -->
<g id="edge1" class="edge">
<title>Node1&#45;&gt;Node2</title>
<path fill="none" stroke="midnightblue" d="M495.73,-416.63C373.46,-414.11 139.91,-404.4 67,-367 26.93,-346.45 0,-336.03 0,-291 0,-291 0,-291 0,-121 0,-67.09 174.7,-31.09 255.67,-17.3"/>
<polygon fill="midnightblue" stroke="midnightblue" points="256.7,-20.68 265.99,-15.58 255.55,-13.77 256.7,-20.68"/>
</g>
<!-- Node3 -->
<g id="node3" class="node">
<title>Node3</title>
<g id="a_node3"><a xlink:href="gpuNUFFT__operator_8hpp.html" target="_top" xlink:title=" ">
<polygon fill="none" stroke="black" points="420,-224.5 420,-243.5 544,-243.5 544,-224.5 420,-224.5"/>
<text text-anchor="middle" x="482" y="-231.5" font-family="FreeSans.ttf" font-size="10.00">gpuNUFFT_operator.hpp</text>
</a>
</g>
</g>
<!-- Node1&#45;&gt;Node3 -->
<g id="edge2" class="edge">
<title>Node1&#45;&gt;Node3</title>
<path fill="none" stroke="midnightblue" d="M565.09,-403.48C548.98,-370.82 508.95,-289.65 490.98,-253.21"/>
<polygon fill="midnightblue" stroke="midnightblue" points="493.91,-251.24 486.35,-243.82 487.63,-254.34 493.91,-251.24"/>
</g>
<!-- Node13 -->
<g id="node13" class="node">
<title>Node13</title>
<g id="a_node13"><a xlink:title=" ">
<polygon fill="none" stroke="#bfbfbf" points="857,-0.5 857,-19.5 901,-19.5 901,-0.5 857,-0.5"/>
<text text-anchor="middle" x="879" y="-7.5" font-family="FreeSans.ttf" font-size="10.00">cmath</text>
</a>
</g>
</g>
<!-- Node1&#45;&gt;Node13 -->
<g id="edge46" class="edge">
<title>Node1&#45;&gt;Node13</title>
<path fill="none" stroke="midnightblue" d="M648.09,-416.32C735.21,-410.47 866,-385.88 866,-291 866,-291 866,-291 866,-121 866,-88.58 871.64,-51.15 875.49,-29.37"/>
<polygon fill="midnightblue" stroke="midnightblue" points="878.93,-29.99 877.3,-19.52 872.05,-28.72 878.93,-29.99"/>
</g>
<!-- Node16 -->
<g id="node16" class="node">
<title>Node16</title>
<g id="a_node16"><a xlink:href="cuda__utils_8hpp.html" target="_top" xlink:title="Util functions for CUDA memory and texture management.">
<polygon fill="none" stroke="black" points="535.5,-112.5 535.5,-131.5 614.5,-131.5 614.5,-112.5 535.5,-112.5"/>
<text text-anchor="middle" x="575" y="-119.5" font-family="FreeSans.ttf" font-size="10.00">cuda_utils.hpp</text>
</a>
</g>
</g>
<!-- Node1&#45;&gt;Node16 -->
<g id="edge47" class="edge">
<title>Node1&#45;&gt;Node16</title>
<path fill="none" stroke="midnightblue" d="M572,-403.46C572,-380.12 572,-331.85 572,-291 572,-291 572,-291 572,-233 572,-200.94 573.29,-163.63 574.18,-141.74"/>
<polygon fill="midnightblue" stroke="midnightblue" points="577.68,-141.69 574.61,-131.56 570.69,-141.4 577.68,-141.69"/>
</g>
<!-- Node20 -->
<g id="node20" class="node">
<title>Node20</title>
<g id="a_node20"><a xlink:href="balanced__gpuNUFFT__operator_8hpp.html" target="_top" xlink:title=" ">
<polygon fill="none" stroke="black" points="138,-280.5 138,-299.5 306,-299.5 306,-280.5 138,-280.5"/>
<text text-anchor="middle" x="222" y="-287.5" font-family="FreeSans.ttf" font-size="10.00">balanced_gpuNUFFT_operator.hpp</text>
</a>
</g>
</g>
<!-- Node1&#45;&gt;Node20 -->
<g id="edge29" class="edge">
<title>Node1&#45;&gt;Node20</title>
<path fill="none" stroke="midnightblue" d="M533.21,-403.48C464.11,-378.5 320.87,-326.73 255.65,-303.16"/>
<polygon fill="midnightblue" stroke="midnightblue" points="256.47,-299.74 245.88,-299.63 254.09,-306.32 256.47,-299.74"/>
</g>
<!-- Node22 -->
<g id="node22" class="node">
<title>Node22</title>
<g id="a_node22"><a xlink:href="texture__gpuNUFFT__operator_8hpp.html" target="_top" xlink:title=" ">
<polygon fill="none" stroke="black" points="324,-280.5 324,-299.5 482,-299.5 482,-280.5 324,-280.5"/>
<text text-anchor="middle" x="403" y="-287.5" font-family="FreeSans.ttf" font-size="10.00">texture_gpuNUFFT_operator.hpp</text>
</a>
</g>
</g>
<!-- Node1&#45;&gt;Node22 -->
<g id="edge34" class="edge">
<title>Node1&#45;&gt;Node22</title>
<path fill="none" stroke="midnightblue" d="M553.27,-403.48C521.22,-379.49 456.13,-330.77 423.14,-306.08"/>
<polygon fill="midnightblue" stroke="midnightblue" points="424.84,-302.98 414.74,-299.79 420.65,-308.58 424.84,-302.98"/>
</g>
<!-- Node25 -->
<g id="node25" class="node">
<title>Node25</title>
<g id="a_node25"><a xlink:href="balanced__texture__gpuNUFFT__operator_8hpp.html" target="_top" xlink:title=" ">
<polygon fill="none" stroke="black" points="76,-336.5 76,-366.5 220,-366.5 220,-336.5 76,-336.5"/>
<text text-anchor="start" x="84" y="-354.5" font-family="FreeSans.ttf" font-size="10.00">balanced_texture_gpuNUFFT</text>
<text text-anchor="middle" x="148" y="-343.5" font-family="FreeSans.ttf" font-size="10.00">_operator.hpp</text>
</a>
</g>
</g>
<!-- Node1&#45;&gt;Node25 -->
<g id="edge39" class="edge">
<title>Node1&#45;&gt;Node25</title>
<path fill="none" stroke="midnightblue" d="M495.71,-405.8C420.87,-394.33 307.09,-376.89 230.26,-365.11"/>
<polygon fill="midnightblue" stroke="midnightblue" points="230.56,-361.62 220.14,-363.56 229.5,-368.53 230.56,-361.62"/>
</g>
<!-- Node26 -->
<g id="node26" class="node">
<title>Node26</title>
<g id="a_node26"><a xlink:title=" ">
<polygon fill="none" stroke="#bfbfbf" points="638,-342 638,-361 694,-361 694,-342 638,-342"/>
<text text-anchor="middle" x="666" y="-349" font-family="FreeSans.ttf" font-size="10.00">algorithm</text>
</a>
</g>
</g>
<!-- Node1&#45;&gt;Node26 -->
<g id="edge43" class="edge">
<title>Node1&#45;&gt;Node26</title>
<path fill="none" stroke="midnightblue" d="M592.4,-403.4C608.01,-392.6 629.48,-377.76 645.19,-366.89"/>
<polygon fill="midnightblue" stroke="midnightblue" points="647.46,-369.57 653.7,-361.01 643.48,-363.82 647.46,-369.57"/>
</g>
<!-- Node27 -->
<g id="node27" class="node">
<title>Node27</title>
<g id="a_node27"><a xlink:title=" ">
<polygon fill="none" stroke="#bfbfbf" points="712,-342 712,-361 756,-361 756,-342 712,-342"/>
<text text-anchor="middle" x="734" y="-349" font-family="FreeSans.ttf" font-size="10.00">vector</text>
</a>
</g>
</g>
<!-- Node1&#45;&gt;Node27 -->
<g id="edge44" class="edge">
<title>Node1&#45;&gt;Node27</title>
<path fill="none" stroke="midnightblue" d="M610.4,-403.5C636.66,-393.73 672.17,-380.14 703,-367 704.2,-366.49 705.42,-365.96 706.65,-365.42"/>
<polygon fill="midnightblue" stroke="midnightblue" points="708.4,-368.47 716.06,-361.15 705.51,-362.09 708.4,-368.47"/>
</g>
<!-- Node28 -->
<g id="node28" class="node">
<title>Node28</title>
<g id="a_node28"><a xlink:title=" ">
<polygon fill="none" stroke="#bfbfbf" points="774.5,-342 774.5,-361 815.5,-361 815.5,-342 774.5,-342"/>
<text text-anchor="middle" x="795" y="-349" font-family="FreeSans.ttf" font-size="10.00">string</text>
</a>
</g>
</g>
<!-- Node1&#45;&gt;Node28 -->
<g id="edge45" class="edge">
<title>Node1&#45;&gt;Node28</title>
<path fill="none" stroke="midnightblue" d="M638.64,-403.44C676.28,-394.66 723.89,-382.15 765,-367 766.42,-366.47 767.87,-365.91 769.32,-365.31"/>
<polygon fill="midnightblue" stroke="midnightblue" points="771.06,-368.36 778.74,-361.07 768.19,-361.98 771.06,-368.36"/>
</g>
<!-- Node29 -->
<g id="node29" class="node">
<title>Node29</title>
<g id="a_node29"><a xlink:href="precomp__utils_8hpp.html" target="_top" xlink:title="UTIL functions for precomputation.">
<polygon fill="none" stroke="black" points="700.5,-280.5 700.5,-299.5 795.5,-299.5 795.5,-280.5 700.5,-280.5"/>
<text text-anchor="middle" x="748" y="-287.5" font-family="FreeSans.ttf" font-size="10.00">precomp_utils.hpp</text>
</a>
</g>
</g>
<!-- Node1&#45;&gt;Node29 -->
<g id="edge48" class="edge">
<title>Node1&#45;&gt;Node29</title>
<path fill="none" stroke="midnightblue" d="M578.5,-403.45C587.47,-385.47 605.28,-354.44 629,-336 649.35,-320.17 675.88,-309.42 698.73,-302.41"/>
<polygon fill="midnightblue" stroke="midnightblue" points="699.98,-305.69 708.6,-299.54 698.02,-298.97 699.98,-305.69"/>
</g>
<!-- Node3&#45;&gt;Node2 -->
<g id="edge25" class="edge">
<title>Node3&#45;&gt;Node2</title>
<path fill="none" stroke="midnightblue" d="M472.73,-224.32C463.41,-215.47 448.78,-201.18 437,-188 386.74,-131.73 332.54,-60.28 308.59,-28.09"/>
<polygon fill="midnightblue" stroke="midnightblue" points="311.19,-25.7 302.42,-19.75 305.56,-29.87 311.19,-25.7"/>
</g>
<!-- Node4 -->
<g id="node4" class="node">
<title>Node4</title>
<g id="a_node4"><a xlink:href="gpuNUFFT__types_8hpp.html" target="_top" xlink:title="Definition of gpuNUFFT defined types.">
<polygon fill="none" stroke="black" points="153,-168.5 153,-187.5 265,-187.5 265,-168.5 153,-168.5"/>
<text text-anchor="middle" x="209" y="-175.5" font-family="FreeSans.ttf" font-size="10.00">gpuNUFFT_types.hpp</text>
</a>
</g>
</g>
<!-- Node3&#45;&gt;Node4 -->
<g id="edge3" class="edge">
<title>Node3&#45;&gt;Node4</title>
<path fill="none" stroke="midnightblue" d="M438.74,-224.44C390.82,-214.96 313.52,-199.67 262,-189.48"/>
<polygon fill="midnightblue" stroke="midnightblue" points="262.54,-186.02 252.06,-187.52 261.19,-192.89 262.54,-186.02"/>
</g>
<!-- Node5 -->
<g id="node5" class="node">
<title>Node5</title>
<g id="a_node5"><a xlink:title=" ">
<polygon fill="none" stroke="#bfbfbf" points="225.5,-112.5 225.5,-131.5 270.5,-131.5 270.5,-112.5 225.5,-112.5"/>
<text text-anchor="middle" x="248" y="-119.5" font-family="FreeSans.ttf" font-size="10.00">cstdlib</text>
</a>
</g>
</g>
<!-- Node3&#45;&gt;Node5 -->
<g id="edge26" class="edge">
<title>Node3&#45;&gt;Node5</title>
<path fill="none" stroke="midnightblue" d="M441.56,-224.43C411.45,-217.13 369.86,-205.1 336,-188 309.43,-174.59 282.42,-153.24 265.46,-138.7"/>
<polygon fill="midnightblue" stroke="midnightblue" points="267.4,-135.74 257.56,-131.79 262.79,-141.01 267.4,-135.74"/>
</g>
<!-- Node6 -->
<g id="node6" class="node">
<title>Node6</title>
<g id="a_node6"><a xlink:title=" ">
<polygon fill="none" stroke="#bfbfbf" points="289,-112.5 289,-131.5 343,-131.5 343,-112.5 289,-112.5"/>
<text text-anchor="middle" x="316" y="-119.5" font-family="FreeSans.ttf" font-size="10.00">iostream</text>
</a>
</g>
</g>
<!-- Node3&#45;&gt;Node6 -->
<g id="edge27" class="edge">
<title>Node3&#45;&gt;Node6</title>
<path fill="none" stroke="midnightblue" d="M437.06,-224.45C411.51,-217.83 380.11,-206.56 357,-188 341.6,-175.63 330.3,-155.82 323.51,-141.32"/>
<polygon fill="midnightblue" stroke="midnightblue" points="326.59,-139.63 319.36,-131.88 320.18,-142.45 326.59,-139.63"/>
</g>
<!-- Node7 -->
<g id="node7" class="node">
<title>Node7</title>
<g id="a_node7"><a xlink:href="gpuNUFFT__kernels_8hpp.html" target="_top" xlink:title="gpuNUFFT CUDA function prototypes">
<polygon fill="none" stroke="black" points="600,-168.5 600,-187.5 720,-187.5 720,-168.5 600,-168.5"/>
<text text-anchor="middle" x="660" y="-175.5" font-family="FreeSans.ttf" font-size="10.00">gpuNUFFT_kernels.hpp</text>
</a>
</g>
</g>
<!-- Node3&#45;&gt;Node7 -->
<g id="edge7" class="edge">
<title>Node3&#45;&gt;Node7</title>
<path fill="none" stroke="midnightblue" d="M510.2,-224.44C540.41,-215.28 588.51,-200.69 622.03,-190.52"/>
<polygon fill="midnightblue" stroke="midnightblue" points="623.37,-193.77 631.93,-187.52 621.34,-187.07 623.37,-193.77"/>
</g>
<!-- Node19 -->
<g id="node19" class="node">
<title>Node19</title>
<g id="a_node19"><a xlink:title=" ">
<polygon fill="none" stroke="#bfbfbf" points="446.5,-168.5 446.5,-187.5 505.5,-187.5 505.5,-168.5 446.5,-168.5"/>
<text text-anchor="middle" x="476" y="-175.5" font-family="FreeSans.ttf" font-size="10.00">functional</text>
</a>
</g>
</g>
<!-- Node3&#45;&gt;Node19 -->
<g id="edge28" class="edge">
<title>Node3&#45;&gt;Node19</title>
<path fill="none" stroke="midnightblue" d="M481.01,-224.08C480.21,-216.93 479.07,-206.64 478.08,-197.69"/>
<polygon fill="midnightblue" stroke="midnightblue" points="481.56,-197.3 476.97,-187.75 474.6,-198.08 481.56,-197.3"/>
</g>
<!-- Node4&#45;&gt;Node2 -->
<g id="edge6" class="edge">
<title>Node4&#45;&gt;Node2</title>
<path fill="none" stroke="midnightblue" d="M208.44,-168.21C207.94,-155.36 208.26,-130.91 216,-112 230.16,-77.4 259.93,-44.93 278.89,-26.56"/>
<polygon fill="midnightblue" stroke="midnightblue" points="281.41,-28.99 286.28,-19.58 276.6,-23.9 281.41,-28.99"/>
</g>
<!-- Node4&#45;&gt;Node5 -->
<g id="edge4" class="edge">
<title>Node4&#45;&gt;Node5</title>
<path fill="none" stroke="midnightblue" d="M215.44,-168.08C220.95,-160.46 229.03,-149.26 235.76,-139.94"/>
<polygon fill="midnightblue" stroke="midnightblue" points="238.66,-141.91 241.68,-131.75 232.99,-137.81 238.66,-141.91"/>
</g>
<!-- Node4&#45;&gt;Node6 -->
<g id="edge5" class="edge">
<title>Node4&#45;&gt;Node6</title>
<path fill="none" stroke="midnightblue" d="M226.19,-168.32C243.35,-159.66 269.95,-146.24 289.75,-136.25"/>
<polygon fill="midnightblue" stroke="midnightblue" points="291.5,-139.28 298.85,-131.65 288.35,-133.04 291.5,-139.28"/>
</g>
<!-- Node8 -->
<g id="node8" class="node">
<title>Node8</title>
<g id="a_node8"><a xlink:href="gpuNUFFT__utils_8hpp.html" target="_top" xlink:title="Definition of util functions used in gridding operations.">
<polygon fill="none" stroke="black" points="606.5,-56.5 606.5,-75.5 713.5,-75.5 713.5,-56.5 606.5,-56.5"/>
<text text-anchor="middle" x="660" y="-63.5" font-family="FreeSans.ttf" font-size="10.00">gpuNUFFT_utils.hpp</text>
</a>
</g>
</g>
<!-- Node7&#45;&gt;Node8 -->
<g id="edge8" class="edge">
<title>Node7&#45;&gt;Node8</title>
<path fill="none" stroke="midnightblue" d="M660,-168.37C660,-150.62 660,-109.67 660,-85.6"/>
<polygon fill="midnightblue" stroke="midnightblue" points="663.5,-85.59 660,-75.59 656.5,-85.59 663.5,-85.59"/>
</g>
<!-- Node7&#45;&gt;Node16 -->
<g id="edge17" class="edge">
<title>Node7&#45;&gt;Node16</title>
<path fill="none" stroke="midnightblue" d="M646.34,-168.32C633.08,-159.9 612.73,-146.97 597.15,-137.07"/>
<polygon fill="midnightblue" stroke="midnightblue" points="598.94,-134.06 588.62,-131.65 595.19,-139.97 598.94,-134.06"/>
</g>
<!-- Node8&#45;&gt;Node2 -->
<g id="edge13" class="edge">
<title>Node8&#45;&gt;Node2</title>
<path fill="none" stroke="midnightblue" d="M606.29,-57.03C532.71,-46.12 402.19,-26.75 336.36,-16.99"/>
<polygon fill="midnightblue" stroke="midnightblue" points="336.77,-13.51 326.37,-15.51 335.75,-20.44 336.77,-13.51"/>
</g>
<!-- Node9 -->
<g id="node9" class="node">
<title>Node9</title>
<g id="a_node9"><a xlink:title=" ">
<polygon fill="none" stroke="#bfbfbf" points="690.5,-0.5 690.5,-19.5 737.5,-19.5 737.5,-0.5 690.5,-0.5"/>
<text text-anchor="middle" x="714" y="-7.5" font-family="FreeSans.ttf" font-size="10.00">stdlib.h</text>
</a>
</g>
</g>
<!-- Node8&#45;&gt;Node9 -->
<g id="edge9" class="edge">
<title>Node8&#45;&gt;Node9</title>
<path fill="none" stroke="midnightblue" d="M668.92,-56.08C676.78,-48.22 688.43,-36.57 697.92,-27.08"/>
<polygon fill="midnightblue" stroke="midnightblue" points="700.65,-29.3 705.25,-19.75 695.7,-24.35 700.65,-29.3"/>
</g>
<!-- Node10 -->
<g id="node10" class="node">
<title>Node10</title>
<g id="a_node10"><a xlink:title=" ">
<polygon fill="none" stroke="#bfbfbf" points="430.5,-0.5 430.5,-19.5 475.5,-19.5 475.5,-0.5 430.5,-0.5"/>
<text text-anchor="middle" x="453" y="-7.5" font-family="FreeSans.ttf" font-size="10.00">stdio.h</text>
</a>
</g>
</g>
<!-- Node8&#45;&gt;Node10 -->
<g id="edge10" class="edge">
<title>Node8&#45;&gt;Node10</title>
<path fill="none" stroke="midnightblue" d="M625.18,-56.45C591.63,-48.13 539.2,-34.93 485.37,-20.32"/>
<polygon fill="midnightblue" stroke="midnightblue" points="486.23,-16.92 475.66,-17.67 484.39,-23.68 486.23,-16.92"/>
</g>
<!-- Node11 -->
<g id="node11" class="node">
<title>Node11</title>
<g id="a_node11"><a xlink:title=" ">
<polygon fill="none" stroke="#bfbfbf" points="493.5,-0.5 493.5,-19.5 538.5,-19.5 538.5,-0.5 493.5,-0.5"/>
<text text-anchor="middle" x="516" y="-7.5" font-family="FreeSans.ttf" font-size="10.00">cuda.h</text>
</a>
</g>
</g>
<!-- Node8&#45;&gt;Node11 -->
<g id="edge11" class="edge">
<title>Node8&#45;&gt;Node11</title>
<path fill="none" stroke="midnightblue" d="M637.18,-56.44C613.17,-47.44 575.17,-33.19 548.13,-23.05"/>
<polygon fill="midnightblue" stroke="midnightblue" points="549.3,-19.75 538.71,-19.52 546.84,-26.3 549.3,-19.75"/>
</g>
<!-- Node12 -->
<g id="node12" class="node">
<title>Node12</title>
<g id="a_node12"><a xlink:title=" ">
<polygon fill="none" stroke="#bfbfbf" points="755.5,-0.5 755.5,-19.5 838.5,-19.5 838.5,-0.5 755.5,-0.5"/>
<text text-anchor="middle" x="797" y="-7.5" font-family="FreeSans.ttf" font-size="10.00">cuda_runtime.h</text>
</a>
</g>
</g>
<!-- Node8&#45;&gt;Node12 -->
<g id="edge12" class="edge">
<title>Node8&#45;&gt;Node12</title>
<path fill="none" stroke="midnightblue" d="M681.71,-56.44C704.35,-47.52 740.07,-33.44 765.75,-23.32"/>
<polygon fill="midnightblue" stroke="midnightblue" points="767.37,-26.44 775.39,-19.52 764.81,-19.93 767.37,-26.44"/>
</g>
<!-- Node8&#45;&gt;Node13 -->
<g id="edge14" class="edge">
<title>Node8&#45;&gt;Node13</title>
<path fill="none" stroke="midnightblue" d="M697.94,-56.48C733.93,-48.27 789.73,-35.22 846.77,-20.24"/>
<polygon fill="midnightblue" stroke="midnightblue" points="847.91,-23.56 856.68,-17.62 846.12,-16.79 847.91,-23.56"/>
</g>
<!-- Node14 -->
<g id="node14" class="node">
<title>Node14</title>
<g id="a_node14"><a xlink:title=" ">
<polygon fill="none" stroke="#bfbfbf" points="557,-0.5 557,-19.5 603,-19.5 603,-0.5 557,-0.5"/>
<text text-anchor="middle" x="580" y="-7.5" font-family="FreeSans.ttf" font-size="10.00">math.h</text>
</a>
</g>
</g>
<!-- Node8&#45;&gt;Node14 -->
<g id="edge15" class="edge">
<title>Node8&#45;&gt;Node14</title>
<path fill="none" stroke="midnightblue" d="M647.15,-56.32C634.78,-47.98 615.87,-35.21 601.26,-25.35"/>
<polygon fill="midnightblue" stroke="midnightblue" points="603.07,-22.35 592.82,-19.65 599.15,-28.15 603.07,-22.35"/>
</g>
<!-- Node15 -->
<g id="node15" class="node">
<title>Node15</title>
<g id="a_node15"><a xlink:title=" ">
<polygon fill="none" stroke="#bfbfbf" points="621.5,-0.5 621.5,-19.5 672.5,-19.5 672.5,-0.5 621.5,-0.5"/>
<text text-anchor="middle" x="647" y="-7.5" font-family="FreeSans.ttf" font-size="10.00">assert.h</text>
</a>
</g>
</g>
<!-- Node8&#45;&gt;Node15 -->
<g id="edge16" class="edge">
<title>Node8&#45;&gt;Node15</title>
<path fill="none" stroke="midnightblue" d="M657.85,-56.08C656.13,-48.93 653.65,-38.64 651.5,-29.69"/>
<polygon fill="midnightblue" stroke="midnightblue" points="654.85,-28.65 649.11,-19.75 648.04,-30.29 654.85,-28.65"/>
</g>
<!-- Node16&#45;&gt;Node3 -->
<g id="edge23" class="edge">
<title>Node16&#45;&gt;Node3</title>
<path fill="none" stroke="midnightblue" d="M567.74,-131.59C552.28,-149.87 515.93,-192.87 495.88,-216.59"/>
<polygon fill="midnightblue" stroke="midnightblue" points="493.08,-214.47 489.3,-224.37 498.43,-218.99 493.08,-214.47"/>
</g>
<!-- Node16&#45;&gt;Node8 -->
<g id="edge22" class="edge">
<title>Node16&#45;&gt;Node8</title>
<path fill="none" stroke="midnightblue" d="M588.66,-112.32C601.92,-103.9 622.27,-90.97 637.85,-81.07"/>
<polygon fill="midnightblue" stroke="midnightblue" points="639.81,-83.97 646.38,-75.65 636.06,-78.06 639.81,-83.97"/>
</g>
<!-- Node16&#45;&gt;Node10 -->
<g id="edge20" class="edge">
<title>Node16&#45;&gt;Node10</title>
<path fill="none" stroke="midnightblue" d="M568.9,-112.34C559.39,-99.23 540.05,-73.94 520,-56 506.77,-44.16 490.21,-33.01 476.87,-24.77"/>
<polygon fill="midnightblue" stroke="midnightblue" points="478.6,-21.73 468.23,-19.56 474.98,-27.72 478.6,-21.73"/>
</g>
<!-- Node16&#45;&gt;Node11 -->
<g id="edge18" class="edge">
<title>Node16&#45;&gt;Node11</title>
<path fill="none" stroke="midnightblue" d="M573.29,-112.15C570.53,-99.22 564.36,-74.66 554,-56 548.12,-45.41 539.54,-34.98 532.02,-26.83"/>
<polygon fill="midnightblue" stroke="midnightblue" points="534.45,-24.31 524.99,-19.52 529.4,-29.16 534.45,-24.31"/>
</g>
<!-- Node16&#45;&gt;Node12 -->
<g id="edge19" class="edge">
<title>Node16&#45;&gt;Node12</title>
<path fill="none" stroke="midnightblue" d="M614.53,-113.6C645.18,-106.77 688.02,-94.81 722,-76 745.4,-63.04 768,-41.9 782.17,-27.26"/>
<polygon fill="midnightblue" stroke="midnightblue" points="784.81,-29.56 789.12,-19.89 779.71,-24.76 784.81,-29.56"/>
</g>
<!-- Node17 -->
<g id="node17" class="node">
<title>Node17</title>
<g id="a_node17"><a xlink:title=" ">
<polygon fill="none" stroke="#bfbfbf" points="399.5,-56.5 399.5,-75.5 442.5,-75.5 442.5,-56.5 399.5,-56.5"/>
<text text-anchor="middle" x="421" y="-63.5" font-family="FreeSans.ttf" font-size="10.00">cufft.h</text>
</a>
</g>
</g>
<!-- Node16&#45;&gt;Node17 -->
<g id="edge21" class="edge">
<title>Node16&#45;&gt;Node17</title>
<path fill="none" stroke="midnightblue" d="M550.6,-112.44C524.04,-103.13 481.51,-88.22 452.46,-78.03"/>
<polygon fill="midnightblue" stroke="midnightblue" points="453.39,-74.65 442.8,-74.64 451.08,-81.26 453.39,-74.65"/>
</g>
<!-- Node18 -->
<g id="node18" class="node">
<title>Node18</title>
<g id="a_node18"><a xlink:title=" ">
<polygon fill="none" stroke="#bfbfbf" points="460.5,-56.5 460.5,-75.5 511.5,-75.5 511.5,-56.5 460.5,-56.5"/>
<text text-anchor="middle" x="486" y="-63.5" font-family="FreeSans.ttf" font-size="10.00">stdarg.h</text>
</a>
</g>
</g>
<!-- Node16&#45;&gt;Node18 -->
<g id="edge24" class="edge">
<title>Node16&#45;&gt;Node18</title>
<path fill="none" stroke="midnightblue" d="M560.7,-112.32C546.82,-103.9 525.51,-90.97 509.2,-81.07"/>
<polygon fill="midnightblue" stroke="midnightblue" points="510.63,-77.85 500.26,-75.65 507,-83.83 510.63,-77.85"/>
</g>
<!-- Node20&#45;&gt;Node3 -->
<g id="edge31" class="edge">
<title>Node20&#45;&gt;Node3</title>
<path fill="none" stroke="midnightblue" d="M263.2,-280.44C308.65,-271 381.84,-255.8 430.91,-245.61"/>
<polygon fill="midnightblue" stroke="midnightblue" points="431.92,-248.98 440.99,-243.52 430.49,-242.12 431.92,-248.98"/>
</g>
<!-- Node20&#45;&gt;Node4 -->
<g id="edge30" class="edge">
<title>Node20&#45;&gt;Node4</title>
<path fill="none" stroke="midnightblue" d="M220.98,-280.37C218.88,-262.62 214.04,-221.67 211.2,-197.6"/>
<polygon fill="midnightblue" stroke="midnightblue" points="214.66,-197.11 210.02,-187.59 207.71,-197.93 214.66,-197.11"/>
</g>
<!-- Node21 -->
<g id="node21" class="node">
<title>Node21</title>
<g id="a_node21"><a xlink:href="balanced__operator_8hpp.html" target="_top" xlink:title=" ">
<polygon fill="none" stroke="black" points="66,-224.5 66,-243.5 180,-243.5 180,-224.5 66,-224.5"/>
<text text-anchor="middle" x="123" y="-231.5" font-family="FreeSans.ttf" font-size="10.00">balanced_operator.hpp</text>
</a>
</g>
</g>
<!-- Node20&#45;&gt;Node21 -->
<g id="edge32" class="edge">
<title>Node20&#45;&gt;Node21</title>
<path fill="none" stroke="midnightblue" d="M206.09,-280.32C190.36,-271.74 166.06,-258.49 147.79,-248.52"/>
<polygon fill="midnightblue" stroke="midnightblue" points="149.32,-245.37 138.87,-243.65 145.97,-251.52 149.32,-245.37"/>
</g>
<!-- Node21&#45;&gt;Node4 -->
<g id="edge33" class="edge">
<title>Node21&#45;&gt;Node4</title>
<path fill="none" stroke="midnightblue" d="M136.82,-224.32C150.23,-215.9 170.82,-202.97 186.59,-193.07"/>
<polygon fill="midnightblue" stroke="midnightblue" points="188.61,-195.94 195.22,-187.65 184.89,-190.01 188.61,-195.94"/>
</g>
<!-- Node22&#45;&gt;Node3 -->
<g id="edge38" class="edge">
<title>Node22&#45;&gt;Node3</title>
<path fill="none" stroke="midnightblue" d="M415.69,-280.32C427.9,-271.98 446.58,-259.21 461,-249.35"/>
<polygon fill="midnightblue" stroke="midnightblue" points="463.06,-252.19 469.34,-243.65 459.11,-246.41 463.06,-252.19"/>
</g>
<!-- Node22&#45;&gt;Node4 -->
<g id="edge37" class="edge">
<title>Node22&#45;&gt;Node4</title>
<path fill="none" stroke="midnightblue" d="M356.4,-280.45C328.24,-273.74 292.58,-262.37 265,-244 246.29,-231.54 230.17,-211.18 220.1,-196.56"/>
<polygon fill="midnightblue" stroke="midnightblue" points="222.82,-194.33 214.38,-187.93 216.98,-198.2 222.82,-194.33"/>
</g>
<!-- Node23 -->
<g id="node23" class="node">
<title>Node23</title>
<g id="a_node23"><a xlink:title=" ">
<polygon fill="none" stroke="#bfbfbf" points="274,-224.5 274,-243.5 324,-243.5 324,-224.5 274,-224.5"/>
<text text-anchor="middle" x="299" y="-231.5" font-family="FreeSans.ttf" font-size="10.00">typeinfo</text>
</a>
</g>
</g>
<!-- Node22&#45;&gt;Node23 -->
<g id="edge35" class="edge">
<title>Node22&#45;&gt;Node23</title>
<path fill="none" stroke="midnightblue" d="M386.29,-280.32C369.69,-271.7 344,-258.36 324.78,-248.39"/>
<polygon fill="midnightblue" stroke="midnightblue" points="326.16,-245.16 315.67,-243.65 322.93,-251.37 326.16,-245.16"/>
</g>
<!-- Node24 -->
<g id="node24" class="node">
<title>Node24</title>
<g id="a_node24"><a xlink:title=" ">
<polygon fill="none" stroke="#bfbfbf" points="342.5,-224.5 342.5,-243.5 401.5,-243.5 401.5,-224.5 342.5,-224.5"/>
<text text-anchor="middle" x="372" y="-231.5" font-family="FreeSans.ttf" font-size="10.00">stdexcept</text>
</a>
</g>
</g>
<!-- Node22&#45;&gt;Node24 -->
<g id="edge36" class="edge">
<title>Node22&#45;&gt;Node24</title>
<path fill="none" stroke="midnightblue" d="M397.88,-280.08C393.59,-272.61 387.34,-261.72 382.06,-252.52"/>
<polygon fill="midnightblue" stroke="midnightblue" points="385.04,-250.68 377.02,-243.75 378.97,-254.17 385.04,-250.68"/>
</g>
<!-- Node25&#45;&gt;Node4 -->
<g id="edge40" class="edge">
<title>Node25&#45;&gt;Node4</title>
<path fill="none" stroke="midnightblue" d="M124.56,-336.34C88.57,-312.83 26.89,-264.32 57,-224 76.84,-197.44 111.66,-185.91 142.98,-181.15"/>
<polygon fill="midnightblue" stroke="midnightblue" points="143.54,-184.6 153,-179.83 142.63,-177.66 143.54,-184.6"/>
</g>
<!-- Node25&#45;&gt;Node21 -->
<g id="edge42" class="edge">
<title>Node25&#45;&gt;Node21</title>
<path fill="none" stroke="midnightblue" d="M141.46,-336.23C137.19,-326.29 131.9,-312.6 129,-300 125.47,-284.62 124,-266.75 123.4,-253.64"/>
<polygon fill="midnightblue" stroke="midnightblue" points="126.89,-253.41 123.06,-243.53 119.9,-253.64 126.89,-253.41"/>
</g>
<!-- Node25&#45;&gt;Node22 -->
<g id="edge41" class="edge">
<title>Node25&#45;&gt;Node22</title>
<path fill="none" stroke="midnightblue" d="M208.11,-336.47C253.54,-325.87 315,-311.53 356.66,-301.81"/>
<polygon fill="midnightblue" stroke="midnightblue" points="357.6,-305.19 366.54,-299.51 356.01,-298.37 357.6,-305.19"/>
</g>
<!-- Node29&#45;&gt;Node3 -->
<g id="edge50" class="edge">
<title>Node29&#45;&gt;Node3</title>
<path fill="none" stroke="midnightblue" d="M705.85,-280.44C659.25,-270.98 584.16,-255.74 533.95,-245.55"/>
<polygon fill="midnightblue" stroke="midnightblue" points="534.45,-242.08 523.95,-243.52 533.06,-248.94 534.45,-242.08"/>
</g>
<!-- Node29&#45;&gt;Node8 -->
<g id="edge51" class="edge">
<title>Node29&#45;&gt;Node8</title>
<path fill="none" stroke="midnightblue" d="M752.37,-280.31C756.56,-271.44 762.6,-257.14 765,-244 771.2,-210.04 765.56,-198.29 749,-168 730.18,-133.58 697.77,-100.87 677.69,-82.43"/>
<polygon fill="midnightblue" stroke="midnightblue" points="679.93,-79.74 670.16,-75.65 675.25,-84.94 679.93,-79.74"/>
</g>
<!-- Node29&#45;&gt;Node13 -->
<g id="edge52" class="edge">
<title>Node29&#45;&gt;Node13</title>
<path fill="none" stroke="midnightblue" d="M760.34,-280.28C782.56,-263.45 827,-224.14 827,-179 827,-179 827,-179 827,-121 827,-85.12 849.89,-48.42 865.3,-27.79"/>
<polygon fill="midnightblue" stroke="midnightblue" points="868.18,-29.79 871.55,-19.74 862.65,-25.5 868.18,-29.79"/>
</g>
<!-- Node29&#45;&gt;Node16 -->
<g id="edge49" class="edge">
<title>Node29&#45;&gt;Node16</title>
<path fill="none" stroke="midnightblue" d="M749.46,-280.4C752.65,-258.64 757.78,-200.74 729,-168 703.17,-138.61 659.32,-127.93 625,-124.27"/>
<polygon fill="midnightblue" stroke="midnightblue" points="624.96,-120.75 614.69,-123.34 624.34,-127.72 624.96,-120.75"/>
</g>
</g>
</svg>
