<?xml version="1.0" encoding="UTF-8" standalone="no"?>
<!DOCTYPE svg PUBLIC "-//W3C//DTD SVG 1.1//EN"
 "http://www.w3.org/Graphics/SVG/1.1/DTD/svg11.dtd">
<!-- Generated by graphviz version 2.49.3 (20211027.1534)
 -->
<!-- Title: python/gpuNUFFT_operator_python_factory.cpp Pages: 1 -->
<svg width="1366pt" height="498pt"
 viewBox="0.00 0.00 1365.50 498.00" xmlns="http://www.w3.org/2000/svg" xmlns:xlink="http://www.w3.org/1999/xlink">
<g id="graph0" class="graph" transform="scale(1 1) rotate(0) translate(4 494)">
<title>python/gpuNUFFT_operator_python_factory.cpp</title>
<!-- Node1 -->
<g id="node1" class="node">
<title>Node1</title>
<g id="a_node1"><a xlink:title=" ">
<polygon fill="#bfbfbf" stroke="black" points="572.5,-459.5 572.5,-489.5 709.5,-489.5 709.5,-459.5 572.5,-459.5"/>
<text text-anchor="start" x="580.5" y="-477.5" font-family="FreeSans.ttf" font-size="10.00">python/gpuNUFFT_operator</text>
<text text-anchor="middle" x="641" y="-466.5" font-family="FreeSans.ttf" font-size="10.00">_python_factory.cpp</text>
</a>
</g>
</g>
<!-- Node2 -->
<g id="node2" class="node">
<title>Node2</title>
<g id="a_node2"><a xlink:title=" ">
<polygon fill="none" stroke="#bfbfbf" points="0,-403.5 0,-422.5 104,-422.5 104,-403.5 0,-403.5"/>
<text text-anchor="middle" x="52" y="-410.5" font-family="FreeSans.ttf" font-size="10.00">pybind11/pybind11.h</text>
</a>
</g>
</g>
<!-- Node1&#45;&gt;Node2 -->
<g id="edge1" class="edge">
<title>Node1&#45;&gt;Node2</title>
<path fill="none" stroke="midnightblue" d="M572.11,-468.04C473.16,-459.95 284.85,-443.62 114.38,-423.11"/>
<polygon fill="midnightblue" stroke="midnightblue" points="114.57,-419.61 104.22,-421.88 113.73,-426.56 114.57,-419.61"/>
</g>
<!-- Node3 -->
<g id="node3" class="node">
<title>Node3</title>
<g id="a_node3"><a xlink:title=" ">
<polygon fill="none" stroke="#bfbfbf" points="122,-403.5 122,-422.5 216,-422.5 216,-403.5 122,-403.5"/>
<text text-anchor="middle" x="169" y="-410.5" font-family="FreeSans.ttf" font-size="10.00">pybind11/numpy.h</text>
</a>
</g>
</g>
<!-- Node1&#45;&gt;Node3 -->
<g id="edge2" class="edge">
<title>Node1&#45;&gt;Node3</title>
<path fill="none" stroke="midnightblue" d="M572.43,-466C491.98,-457.01 354.32,-441.05 226.04,-423.1"/>
<polygon fill="midnightblue" stroke="midnightblue" points="226.42,-419.62 216.03,-421.69 225.45,-426.55 226.42,-419.62"/>
</g>
<!-- Node4 -->
<g id="node4" class="node">
<title>Node4</title>
<g id="a_node4"><a xlink:title=" ">
<polygon fill="none" stroke="#bfbfbf" points="234.5,-403.5 234.5,-422.5 335.5,-422.5 335.5,-403.5 234.5,-403.5"/>
<text text-anchor="middle" x="285" y="-410.5" font-family="FreeSans.ttf" font-size="10.00">pybind11/complex.h</text>
</a>
</g>
</g>
<!-- Node1&#45;&gt;Node4 -->
<g id="edge3" class="edge">
<title>Node1&#45;&gt;Node4</title>
<path fill="none" stroke="midnightblue" d="M572.36,-462.03C506.71,-451.06 408.66,-434.67 345.77,-424.16"/>
<polygon fill="midnightblue" stroke="midnightblue" points="346.04,-420.65 335.6,-422.46 344.89,-427.56 346.04,-420.65"/>
</g>
<!-- Node5 -->
<g id="node5" class="node">
<title>Node5</title>
<g id="a_node5"><a xlink:title=" ">
<polygon fill="none" stroke="#bfbfbf" points="490.5,-56.5 490.5,-75.5 533.5,-75.5 533.5,-56.5 490.5,-56.5"/>
<text text-anchor="middle" x="512" y="-63.5" font-family="FreeSans.ttf" font-size="10.00">cufft.h</text>
</a>
</g>
</g>
<!-- Node1&#45;&gt;Node5 -->
<g id="edge4" class="edge">
<title>Node1&#45;&gt;Node5</title>
<path fill="none" stroke="midnightblue" d="M590.76,-459.48C542.87,-442.68 478,-409.42 478,-352.5 478,-352.5 478,-352.5 478,-233 478,-178.24 495.98,-115.35 505.79,-85.11"/>
<polygon fill="midnightblue" stroke="midnightblue" points="509.14,-86.11 508.98,-75.51 502.5,-83.89 509.14,-86.11"/>
</g>
<!-- Node6 -->
<g id="node6" class="node">
<title>Node6</title>
<g id="a_node6"><a xlink:title=" ">
<polygon fill="none" stroke="#bfbfbf" points="561.5,-0.5 561.5,-19.5 644.5,-19.5 644.5,-0.5 561.5,-0.5"/>
<text text-anchor="middle" x="603" y="-7.5" font-family="FreeSans.ttf" font-size="10.00">cuda_runtime.h</text>
</a>
</g>
</g>
<!-- Node1&#45;&gt;Node6 -->
<g id="edge5" class="edge">
<title>Node1&#45;&gt;Node6</title>
<path fill="none" stroke="midnightblue" d="M572.19,-467.64C501.59,-457.41 402,-429.35 402,-352.5 402,-352.5 402,-352.5 402,-121 402,-75.53 441.56,-78.63 481,-56 506.3,-41.48 537.14,-30.16 561.48,-22.5"/>
<polygon fill="midnightblue" stroke="midnightblue" points="562.6,-25.82 571.14,-19.54 560.55,-19.12 562.6,-25.82"/>
</g>
<!-- Node7 -->
<g id="node7" class="node">
<title>Node7</title>
<g id="a_node7"><a xlink:title=" ">
<polygon fill="none" stroke="#bfbfbf" points="498.5,-0.5 498.5,-19.5 543.5,-19.5 543.5,-0.5 498.5,-0.5"/>
<text text-anchor="middle" x="521" y="-7.5" font-family="FreeSans.ttf" font-size="10.00">cuda.h</text>
</a>
</g>
</g>
<!-- Node1&#45;&gt;Node7 -->
<g id="edge6" class="edge">
<title>Node1&#45;&gt;Node7</title>
<path fill="none" stroke="midnightblue" d="M572.17,-472.2C490.14,-466.56 364,-443.16 364,-352.5 364,-352.5 364,-352.5 364,-121 364,-89.92 447.59,-45.63 492.78,-23.96"/>
<polygon fill="midnightblue" stroke="midnightblue" points="494.52,-27.01 502.06,-19.56 491.53,-20.68 494.52,-27.01"/>
</g>
<!-- Node8 -->
<g id="node8" class="node">
<title>Node8</title>
<g id="a_node8"><a xlink:title=" ">
<polygon fill="none" stroke="#bfbfbf" points="1304.5,-403.5 1304.5,-422.5 1357.5,-422.5 1357.5,-403.5 1304.5,-403.5"/>
<text text-anchor="middle" x="1331" y="-410.5" font-family="FreeSans.ttf" font-size="10.00">cublas.h</text>
</a>
</g>
</g>
<!-- Node1&#45;&gt;Node8 -->
<g id="edge7" class="edge">
<title>Node1&#45;&gt;Node8</title>
<path fill="none" stroke="midnightblue" d="M709.56,-471.29C828.33,-466.75 1079.82,-454.09 1290,-423 1291.3,-422.81 1292.62,-422.6 1293.94,-422.38"/>
<polygon fill="midnightblue" stroke="midnightblue" points="1295.01,-425.74 1304.19,-420.44 1293.72,-418.86 1295.01,-425.74"/>
</g>
<!-- Node9 -->
<g id="node9" class="node">
<title>Node9</title>
<g id="a_node9"><a xlink:title=" ">
<polygon fill="none" stroke="#bfbfbf" points="1052,-0.5 1052,-19.5 1112,-19.5 1112,-0.5 1052,-0.5"/>
<text text-anchor="middle" x="1082" y="-7.5" font-family="FreeSans.ttf" font-size="10.00">config.hpp</text>
</a>
</g>
</g>
<!-- Node1&#45;&gt;Node9 -->
<g id="edge8" class="edge">
<title>Node1&#45;&gt;Node9</title>
<path fill="none" stroke="midnightblue" d="M709.6,-469.52C796.03,-463.6 948.77,-450.13 1077,-423 1168.8,-403.58 1276,-446.33 1276,-352.5 1276,-352.5 1276,-352.5 1276,-121 1276,-51.02 1179.29,-25.02 1122.43,-15.79"/>
<polygon fill="midnightblue" stroke="midnightblue" points="1122.72,-12.29 1112.31,-14.25 1121.67,-19.21 1122.72,-12.29"/>
</g>
<!-- Node10 -->
<g id="node10" class="node">
<title>Node10</title>
<g id="a_node10"><a xlink:href="gpuNUFFT__operator__factory_8hpp.html" target="_top" xlink:title=" ">
<polygon fill="none" stroke="black" points="772,-403.5 772,-422.5 930,-422.5 930,-403.5 772,-403.5"/>
<text text-anchor="middle" x="851" y="-410.5" font-family="FreeSans.ttf" font-size="10.00">gpuNUFFT_operator_factory.hpp</text>
</a>
</g>
</g>
<!-- Node1&#45;&gt;Node10 -->
<g id="edge9" class="edge">
<title>Node1&#45;&gt;Node10</title>
<path fill="none" stroke="midnightblue" d="M690.5,-459.47C727.36,-449.03 777.03,-434.96 811.31,-425.25"/>
<polygon fill="midnightblue" stroke="midnightblue" points="812.31,-428.6 820.98,-422.51 810.4,-421.87 812.31,-428.6"/>
</g>
<!-- Node31 -->
<g id="node31" class="node">
<title>Node31</title>
<g id="a_node31"><a xlink:title=" ">
<polygon fill="none" stroke="#bfbfbf" points="1070,-342 1070,-361 1126,-361 1126,-342 1070,-342"/>
<text text-anchor="middle" x="1098" y="-349" font-family="FreeSans.ttf" font-size="10.00">algorithm</text>
</a>
</g>
</g>
<!-- Node1&#45;&gt;Node31 -->
<g id="edge62" class="edge">
<title>Node1&#45;&gt;Node31</title>
<path fill="none" stroke="midnightblue" d="M709.57,-466.8C770.7,-459.67 862.13,-446.16 939,-423 988.31,-408.15 1042.48,-381.79 1073.16,-365.86"/>
<polygon fill="midnightblue" stroke="midnightblue" points="1075.03,-368.83 1082.26,-361.08 1071.78,-362.63 1075.03,-368.83"/>
</g>
<!-- Node32 -->
<g id="node32" class="node">
<title>Node32</title>
<g id="a_node32"><a xlink:title=" ">
<polygon fill="none" stroke="#bfbfbf" points="1144,-342 1144,-361 1188,-361 1188,-342 1144,-342"/>
<text text-anchor="middle" x="1166" y="-349" font-family="FreeSans.ttf" font-size="10.00">vector</text>
</a>
</g>
</g>
<!-- Node1&#45;&gt;Node32 -->
<g id="edge63" class="edge">
<title>Node1&#45;&gt;Node32</title>
<path fill="none" stroke="midnightblue" d="M709.75,-467.23C778.6,-460.01 887.23,-446.09 979,-423 1050.44,-405.03 1066.9,-395.08 1135,-367 1136.37,-366.43 1137.77,-365.84 1139.18,-365.23"/>
<polygon fill="midnightblue" stroke="midnightblue" points="1140.74,-368.37 1148.42,-361.07 1137.87,-361.98 1140.74,-368.37"/>
</g>
<!-- Node33 -->
<g id="node33" class="node">
<title>Node33</title>
<g id="a_node33"><a xlink:title=" ">
<polygon fill="none" stroke="#bfbfbf" points="1206.5,-342 1206.5,-361 1247.5,-361 1247.5,-342 1206.5,-342"/>
<text text-anchor="middle" x="1227" y="-349" font-family="FreeSans.ttf" font-size="10.00">string</text>
</a>
</g>
</g>
<!-- Node1&#45;&gt;Node33 -->
<g id="edge64" class="edge">
<title>Node1&#45;&gt;Node33</title>
<path fill="none" stroke="midnightblue" d="M709.83,-468.36C787.39,-461.67 916.88,-447.8 1026,-423 1103.98,-405.28 1122.83,-396.91 1197,-367 1198.37,-366.45 1199.77,-365.86 1201.18,-365.25"/>
<polygon fill="midnightblue" stroke="midnightblue" points="1202.73,-368.39 1210.36,-361.03 1199.81,-362.02 1202.73,-368.39"/>
</g>
<!-- Node10&#45;&gt;Node9 -->
<g id="edge10" class="edge">
<title>Node10&#45;&gt;Node9</title>
<path fill="none" stroke="midnightblue" d="M903.5,-403.46C937.84,-396.59 983.02,-385.04 1020,-367 1040.53,-356.99 1040.48,-346.04 1061,-336 1116.4,-308.9 1148.4,-340.39 1195,-300 1238.13,-262.62 1238,-236.07 1238,-179 1238,-179 1238,-179 1238,-121 1238,-64.19 1168.05,-34.14 1121.83,-20.48"/>
<polygon fill="midnightblue" stroke="midnightblue" points="1122.65,-17.08 1112.08,-17.74 1120.76,-23.82 1122.65,-17.08"/>
</g>
<!-- Node11 -->
<g id="node11" class="node">
<title>Node11</title>
<g id="a_node11"><a xlink:href="gpuNUFFT__operator_8hpp.html" target="_top" xlink:title=" ">
<polygon fill="none" stroke="black" points="694,-224.5 694,-243.5 818,-243.5 818,-224.5 694,-224.5"/>
<text text-anchor="middle" x="756" y="-231.5" font-family="FreeSans.ttf" font-size="10.00">gpuNUFFT_operator.hpp</text>
</a>
</g>
</g>
<!-- Node10&#45;&gt;Node11 -->
<g id="edge11" class="edge">
<title>Node10&#45;&gt;Node11</title>
<path fill="none" stroke="midnightblue" d="M839.3,-403.47C817.33,-386.63 770.54,-346.68 753,-300 747.41,-285.13 748.87,-266.98 751.32,-253.65"/>
<polygon fill="midnightblue" stroke="midnightblue" points="754.76,-254.27 753.47,-243.75 747.92,-252.78 754.76,-254.27"/>
</g>
<!-- Node19 -->
<g id="node19" class="node">
<title>Node19</title>
<g id="a_node19"><a xlink:title=" ">
<polygon fill="none" stroke="#bfbfbf" points="436,-0.5 436,-19.5 480,-19.5 480,-0.5 436,-0.5"/>
<text text-anchor="middle" x="458" y="-7.5" font-family="FreeSans.ttf" font-size="10.00">cmath</text>
</a>
</g>
</g>
<!-- Node10&#45;&gt;Node19 -->
<g id="edge55" class="edge">
<title>Node10&#45;&gt;Node19</title>
<path fill="none" stroke="midnightblue" d="M771.76,-404.91C652.32,-392 440,-359.43 440,-291 440,-291 440,-291 440,-177 440,-123.28 449.43,-60.34 454.64,-29.69"/>
<polygon fill="midnightblue" stroke="midnightblue" points="458.13,-30.06 456.4,-19.6 451.23,-28.85 458.13,-30.06"/>
</g>
<!-- Node22 -->
<g id="node22" class="node">
<title>Node22</title>
<g id="a_node22"><a xlink:href="cuda__utils_8hpp.html" target="_top" xlink:title="Util functions for CUDA memory and texture management.">
<polygon fill="none" stroke="black" points="560.5,-112.5 560.5,-131.5 639.5,-131.5 639.5,-112.5 560.5,-112.5"/>
<text text-anchor="middle" x="600" y="-119.5" font-family="FreeSans.ttf" font-size="10.00">cuda_utils.hpp</text>
</a>
</g>
</g>
<!-- Node10&#45;&gt;Node22 -->
<g id="edge56" class="edge">
<title>Node10&#45;&gt;Node22</title>
<path fill="none" stroke="midnightblue" d="M775.24,-403.5C713.84,-391.9 632.52,-364.53 601,-300 575.31,-247.41 587.29,-175.1 595.11,-141.52"/>
<polygon fill="midnightblue" stroke="midnightblue" points="598.54,-142.25 597.54,-131.7 591.74,-140.57 598.54,-142.25"/>
</g>
<!-- Node25 -->
<g id="node25" class="node">
<title>Node25</title>
<g id="a_node25"><a xlink:href="balanced__gpuNUFFT__operator_8hpp.html" target="_top" xlink:title=" ">
<polygon fill="none" stroke="black" points="762,-280.5 762,-299.5 930,-299.5 930,-280.5 762,-280.5"/>
<text text-anchor="middle" x="846" y="-287.5" font-family="FreeSans.ttf" font-size="10.00">balanced_gpuNUFFT_operator.hpp</text>
</a>
</g>
</g>
<!-- Node10&#45;&gt;Node25 -->
<g id="edge38" class="edge">
<title>Node10&#45;&gt;Node25</title>
<path fill="none" stroke="midnightblue" d="M843.59,-403.41C836.72,-394.84 826.99,-380.98 823,-367 819.21,-353.75 819.78,-349.4 823,-336 825.31,-326.42 830.02,-316.58 834.58,-308.56"/>
<polygon fill="midnightblue" stroke="midnightblue" points="837.69,-310.17 839.9,-299.81 831.71,-306.54 837.69,-310.17"/>
</g>
<!-- Node27 -->
<g id="node27" class="node">
<title>Node27</title>
<g id="a_node27"><a xlink:href="texture__gpuNUFFT__operator_8hpp.html" target="_top" xlink:title=" ">
<polygon fill="none" stroke="black" points="1028,-280.5 1028,-299.5 1186,-299.5 1186,-280.5 1028,-280.5"/>
<text text-anchor="middle" x="1107" y="-287.5" font-family="FreeSans.ttf" font-size="10.00">texture_gpuNUFFT_operator.hpp</text>
</a>
</g>
</g>
<!-- Node10&#45;&gt;Node27 -->
<g id="edge43" class="edge">
<title>Node10&#45;&gt;Node27</title>
<path fill="none" stroke="midnightblue" d="M885.74,-403.43C913.49,-395.87 952.91,-383.48 985,-367 1005.96,-356.24 1008.18,-348.74 1028,-336 1045.48,-324.76 1065.88,-313.18 1081.57,-304.58"/>
<polygon fill="midnightblue" stroke="midnightblue" points="1083.55,-307.49 1090.66,-299.64 1080.2,-301.34 1083.55,-307.49"/>
</g>
<!-- Node30 -->
<g id="node30" class="node">
<title>Node30</title>
<g id="a_node30"><a xlink:href="balanced__texture__gpuNUFFT__operator_8hpp.html" target="_top" xlink:title=" ">
<polygon fill="none" stroke="black" points="832,-336.5 832,-366.5 976,-366.5 976,-336.5 832,-336.5"/>
<text text-anchor="start" x="840" y="-354.5" font-family="FreeSans.ttf" font-size="10.00">balanced_texture_gpuNUFFT</text>
<text text-anchor="middle" x="904" y="-343.5" font-family="FreeSans.ttf" font-size="10.00">_operator.hpp</text>
</a>
</g>
</g>
<!-- Node10&#45;&gt;Node30 -->
<g id="edge48" class="edge">
<title>Node10&#45;&gt;Node30</title>
<path fill="none" stroke="midnightblue" d="M858.59,-403.48C865.37,-395.87 875.59,-384.4 884.61,-374.26"/>
<polygon fill="midnightblue" stroke="midnightblue" points="887.47,-376.32 891.51,-366.52 882.24,-371.66 887.47,-376.32"/>
</g>
<!-- Node10&#45;&gt;Node31 -->
<g id="edge52" class="edge">
<title>Node10&#45;&gt;Node31</title>
<path fill="none" stroke="midnightblue" d="M896.97,-403.5C938.77,-395.39 1001.98,-382.2 1056,-367 1058.95,-366.17 1061.99,-365.25 1065.03,-364.28"/>
<polygon fill="midnightblue" stroke="midnightblue" points="1066.21,-367.58 1074.61,-361.12 1064.01,-360.94 1066.21,-367.58"/>
</g>
<!-- Node10&#45;&gt;Node32 -->
<g id="edge53" class="edge">
<title>Node10&#45;&gt;Node32</title>
<path fill="none" stroke="midnightblue" d="M930.09,-405.47C987.82,-399.26 1067.46,-387.69 1135,-367 1136.87,-366.43 1138.78,-365.76 1140.68,-365.03"/>
<polygon fill="midnightblue" stroke="midnightblue" points="1142.12,-368.22 1149.93,-361.06 1139.36,-361.79 1142.12,-368.22"/>
</g>
<!-- Node10&#45;&gt;Node33 -->
<g id="edge54" class="edge">
<title>Node10&#45;&gt;Node33</title>
<path fill="none" stroke="midnightblue" d="M930.13,-408.91C1001.25,-404.45 1107.89,-393.57 1197,-367 1198.87,-366.44 1200.77,-365.78 1202.66,-365.05"/>
<polygon fill="midnightblue" stroke="midnightblue" points="1204.08,-368.25 1211.81,-361.01 1201.25,-361.85 1204.08,-368.25"/>
</g>
<!-- Node34 -->
<g id="node34" class="node">
<title>Node34</title>
<g id="a_node34"><a xlink:href="precomp__utils_8hpp.html" target="_top" xlink:title="UTIL functions for precomputation.">
<polygon fill="none" stroke="black" points="610.5,-280.5 610.5,-299.5 705.5,-299.5 705.5,-280.5 610.5,-280.5"/>
<text text-anchor="middle" x="658" y="-287.5" font-family="FreeSans.ttf" font-size="10.00">precomp_utils.hpp</text>
</a>
</g>
</g>
<!-- Node10&#45;&gt;Node34 -->
<g id="edge57" class="edge">
<title>Node10&#45;&gt;Node34</title>
<path fill="none" stroke="midnightblue" d="M807.51,-403.48C780.57,-396.72 746.24,-385.29 720,-367 697.7,-351.45 679.1,-325.74 668.26,-308.58"/>
<polygon fill="midnightblue" stroke="midnightblue" points="670.99,-306.34 662.8,-299.61 665.01,-309.98 670.99,-306.34"/>
</g>
<!-- Node11&#45;&gt;Node9 -->
<g id="edge34" class="edge">
<title>Node11&#45;&gt;Node9</title>
<path fill="none" stroke="midnightblue" d="M818.14,-226.22C874.88,-219.01 953.67,-206.14 979,-188 1035.32,-147.67 1065.58,-66.2 1076.82,-29.57"/>
<polygon fill="midnightblue" stroke="midnightblue" points="1080.24,-30.32 1079.7,-19.74 1073.53,-28.35 1080.24,-30.32"/>
</g>
<!-- Node12 -->
<g id="node12" class="node">
<title>Node12</title>
<g id="a_node12"><a xlink:href="gpuNUFFT__types_8hpp.html" target="_top" xlink:title="Definition of gpuNUFFT defined types.">
<polygon fill="none" stroke="black" points="1026,-168.5 1026,-187.5 1138,-187.5 1138,-168.5 1026,-168.5"/>
<text text-anchor="middle" x="1082" y="-175.5" font-family="FreeSans.ttf" font-size="10.00">gpuNUFFT_types.hpp</text>
</a>
</g>
</g>
<!-- Node11&#45;&gt;Node12 -->
<g id="edge12" class="edge">
<title>Node11&#45;&gt;Node12</title>
<path fill="none" stroke="midnightblue" d="M807.66,-224.44C865.48,-214.87 959.11,-199.36 1020.62,-189.17"/>
<polygon fill="midnightblue" stroke="midnightblue" points="1021.29,-192.6 1030.59,-187.52 1020.15,-185.7 1021.29,-192.6"/>
</g>
<!-- Node13 -->
<g id="node13" class="node">
<title>Node13</title>
<g id="a_node13"><a xlink:title=" ">
<polygon fill="none" stroke="#bfbfbf" points="829.5,-112.5 829.5,-131.5 874.5,-131.5 874.5,-112.5 829.5,-112.5"/>
<text text-anchor="middle" x="852" y="-119.5" font-family="FreeSans.ttf" font-size="10.00">cstdlib</text>
</a>
</g>
</g>
<!-- Node11&#45;&gt;Node13 -->
<g id="edge35" class="edge">
<title>Node11&#45;&gt;Node13</title>
<path fill="none" stroke="midnightblue" d="M775.26,-224.42C790.52,-216.78 811.47,-204.28 825,-188 836.21,-174.5 843.34,-155.69 847.44,-141.78"/>
<polygon fill="midnightblue" stroke="midnightblue" points="850.89,-142.43 850.1,-131.87 844.13,-140.62 850.89,-142.43"/>
</g>
<!-- Node14 -->
<g id="node14" class="node">
<title>Node14</title>
<g id="a_node14"><a xlink:title=" ">
<polygon fill="none" stroke="#bfbfbf" points="908,-112.5 908,-131.5 962,-131.5 962,-112.5 908,-112.5"/>
<text text-anchor="middle" x="935" y="-119.5" font-family="FreeSans.ttf" font-size="10.00">iostream</text>
</a>
</g>
</g>
<!-- Node11&#45;&gt;Node14 -->
<g id="edge36" class="edge">
<title>Node11&#45;&gt;Node14</title>
<path fill="none" stroke="midnightblue" d="M775.22,-224.36C793.57,-215.86 821.78,-202.13 845,-188 870.52,-172.47 898.12,-151.92 915.94,-138.12"/>
<polygon fill="midnightblue" stroke="midnightblue" points="918.58,-140.5 924.3,-131.58 914.26,-134.99 918.58,-140.5"/>
</g>
<!-- Node15 -->
<g id="node15" class="node">
<title>Node15</title>
<g id="a_node15"><a xlink:href="gpuNUFFT__kernels_8hpp.html" target="_top" xlink:title="gpuNUFFT CUDA function prototypes">
<polygon fill="none" stroke="black" points="696,-168.5 696,-187.5 816,-187.5 816,-168.5 696,-168.5"/>
<text text-anchor="middle" x="756" y="-175.5" font-family="FreeSans.ttf" font-size="10.00">gpuNUFFT_kernels.hpp</text>
</a>
</g>
</g>
<!-- Node11&#45;&gt;Node15 -->
<g id="edge16" class="edge">
<title>Node11&#45;&gt;Node15</title>
<path fill="none" stroke="midnightblue" d="M756,-224.08C756,-217.01 756,-206.86 756,-197.99"/>
<polygon fill="midnightblue" stroke="midnightblue" points="759.5,-197.75 756,-187.75 752.5,-197.75 759.5,-197.75"/>
</g>
<!-- Node24 -->
<g id="node24" class="node">
<title>Node24</title>
<g id="a_node24"><a xlink:title=" ">
<polygon fill="none" stroke="#bfbfbf" points="910.5,-168.5 910.5,-187.5 969.5,-187.5 969.5,-168.5 910.5,-168.5"/>
<text text-anchor="middle" x="940" y="-175.5" font-family="FreeSans.ttf" font-size="10.00">functional</text>
</a>
</g>
</g>
<!-- Node11&#45;&gt;Node24 -->
<g id="edge37" class="edge">
<title>Node11&#45;&gt;Node24</title>
<path fill="none" stroke="midnightblue" d="M785.16,-224.44C816.51,-215.24 866.53,-200.56 901.2,-190.39"/>
<polygon fill="midnightblue" stroke="midnightblue" points="902.37,-193.69 910.98,-187.52 900.4,-186.97 902.37,-193.69"/>
</g>
<!-- Node12&#45;&gt;Node9 -->
<g id="edge15" class="edge">
<title>Node12&#45;&gt;Node9</title>
<path fill="none" stroke="midnightblue" d="M1082,-168.08C1082,-141.95 1082,-65.21 1082,-29.58"/>
<polygon fill="midnightblue" stroke="midnightblue" points="1085.5,-29.57 1082,-19.57 1078.5,-29.57 1085.5,-29.57"/>
</g>
<!-- Node12&#45;&gt;Node13 -->
<g id="edge13" class="edge">
<title>Node12&#45;&gt;Node13</title>
<path fill="none" stroke="midnightblue" d="M1045.56,-168.44C1001.21,-158.03 927,-140.61 884.51,-130.63"/>
<polygon fill="midnightblue" stroke="midnightblue" points="885.21,-127.2 874.68,-128.32 883.61,-134.02 885.21,-127.2"/>
</g>
<!-- Node12&#45;&gt;Node14 -->
<g id="edge14" class="edge">
<title>Node12&#45;&gt;Node14</title>
<path fill="none" stroke="midnightblue" d="M1058.71,-168.44C1034.19,-159.44 995.4,-145.19 967.8,-135.05"/>
<polygon fill="midnightblue" stroke="midnightblue" points="968.78,-131.68 958.18,-131.52 966.36,-138.25 968.78,-131.68"/>
</g>
<!-- Node16 -->
<g id="node16" class="node">
<title>Node16</title>
<g id="a_node16"><a xlink:href="gpuNUFFT__utils_8hpp.html" target="_top" xlink:title="Definition of util functions used in gridding operations.">
<polygon fill="none" stroke="black" points="735.5,-56.5 735.5,-75.5 842.5,-75.5 842.5,-56.5 735.5,-56.5"/>
<text text-anchor="middle" x="789" y="-63.5" font-family="FreeSans.ttf" font-size="10.00">gpuNUFFT_utils.hpp</text>
</a>
</g>
</g>
<!-- Node15&#45;&gt;Node16 -->
<g id="edge17" class="edge">
<title>Node15&#45;&gt;Node16</title>
<path fill="none" stroke="midnightblue" d="M758.59,-168.37C763.94,-150.54 776.31,-109.3 783.52,-85.27"/>
<polygon fill="midnightblue" stroke="midnightblue" points="786.9,-86.18 786.42,-75.59 780.2,-84.16 786.9,-86.18"/>
</g>
<!-- Node15&#45;&gt;Node22 -->
<g id="edge26" class="edge">
<title>Node15&#45;&gt;Node22</title>
<path fill="none" stroke="midnightblue" d="M731.28,-168.44C705.15,-159.4 663.74,-145.06 634.42,-134.92"/>
<polygon fill="midnightblue" stroke="midnightblue" points="635.2,-131.48 624.6,-131.52 632.91,-138.1 635.2,-131.48"/>
</g>
<!-- Node16&#45;&gt;Node6 -->
<g id="edge21" class="edge">
<title>Node16&#45;&gt;Node6</title>
<path fill="none" stroke="midnightblue" d="M759.53,-56.44C727.83,-47.24 677.27,-32.56 642.23,-22.39"/>
<polygon fill="midnightblue" stroke="midnightblue" points="642.91,-18.94 632.33,-19.52 640.96,-25.67 642.91,-18.94"/>
</g>
<!-- Node16&#45;&gt;Node7 -->
<g id="edge20" class="edge">
<title>Node16&#45;&gt;Node7</title>
<path fill="none" stroke="midnightblue" d="M736.45,-56.5C690.48,-48.72 621.74,-36.31 553.66,-20.23"/>
<polygon fill="midnightblue" stroke="midnightblue" points="554.16,-16.76 543.62,-17.84 552.53,-23.56 554.16,-16.76"/>
</g>
<!-- Node16&#45;&gt;Node9 -->
<g id="edge22" class="edge">
<title>Node16&#45;&gt;Node9</title>
<path fill="none" stroke="midnightblue" d="M835.43,-56.44C892.43,-45.94 988.14,-28.3 1042.02,-18.37"/>
<polygon fill="midnightblue" stroke="midnightblue" points="1042.69,-21.8 1051.89,-16.55 1041.42,-14.92 1042.69,-21.8"/>
</g>
<!-- Node17 -->
<g id="node17" class="node">
<title>Node17</title>
<g id="a_node17"><a xlink:title=" ">
<polygon fill="none" stroke="#bfbfbf" points="725.5,-0.5 725.5,-19.5 772.5,-19.5 772.5,-0.5 725.5,-0.5"/>
<text text-anchor="middle" x="749" y="-7.5" font-family="FreeSans.ttf" font-size="10.00">stdlib.h</text>
</a>
</g>
</g>
<!-- Node16&#45;&gt;Node17 -->
<g id="edge18" class="edge">
<title>Node16&#45;&gt;Node17</title>
<path fill="none" stroke="midnightblue" d="M782.39,-56.08C776.74,-48.46 768.46,-37.26 761.55,-27.94"/>
<polygon fill="midnightblue" stroke="midnightblue" points="764.25,-25.7 755.48,-19.75 758.62,-29.87 764.25,-25.7"/>
</g>
<!-- Node18 -->
<g id="node18" class="node">
<title>Node18</title>
<g id="a_node18"><a xlink:title=" ">
<polygon fill="none" stroke="#bfbfbf" points="662.5,-0.5 662.5,-19.5 707.5,-19.5 707.5,-0.5 662.5,-0.5"/>
<text text-anchor="middle" x="685" y="-7.5" font-family="FreeSans.ttf" font-size="10.00">stdio.h</text>
</a>
</g>
</g>
<!-- Node16&#45;&gt;Node18 -->
<g id="edge19" class="edge">
<title>Node16&#45;&gt;Node18</title>
<path fill="none" stroke="midnightblue" d="M772.29,-56.32C755.69,-47.7 730,-34.36 710.78,-24.39"/>
<polygon fill="midnightblue" stroke="midnightblue" points="712.16,-21.16 701.67,-19.65 708.93,-27.37 712.16,-21.16"/>
</g>
<!-- Node16&#45;&gt;Node19 -->
<g id="edge23" class="edge">
<title>Node16&#45;&gt;Node19</title>
<path fill="none" stroke="midnightblue" d="M735.32,-57.14C660.54,-46.16 530.37,-26.96 490.12,-19.77"/>
<polygon fill="midnightblue" stroke="midnightblue" points="490.74,-16.32 480.26,-17.85 489.41,-23.19 490.74,-16.32"/>
</g>
<!-- Node20 -->
<g id="node20" class="node">
<title>Node20</title>
<g id="a_node20"><a xlink:title=" ">
<polygon fill="none" stroke="#bfbfbf" points="791,-0.5 791,-19.5 837,-19.5 837,-0.5 791,-0.5"/>
<text text-anchor="middle" x="814" y="-7.5" font-family="FreeSans.ttf" font-size="10.00">math.h</text>
</a>
</g>
</g>
<!-- Node16&#45;&gt;Node20 -->
<g id="edge24" class="edge">
<title>Node16&#45;&gt;Node20</title>
<path fill="none" stroke="midnightblue" d="M793.13,-56.08C796.51,-48.77 801.42,-38.18 805.62,-29.1"/>
<polygon fill="midnightblue" stroke="midnightblue" points="808.92,-30.3 809.95,-19.75 802.57,-27.36 808.92,-30.3"/>
</g>
<!-- Node21 -->
<g id="node21" class="node">
<title>Node21</title>
<g id="a_node21"><a xlink:title=" ">
<polygon fill="none" stroke="#bfbfbf" points="855.5,-0.5 855.5,-19.5 906.5,-19.5 906.5,-0.5 855.5,-0.5"/>
<text text-anchor="middle" x="881" y="-7.5" font-family="FreeSans.ttf" font-size="10.00">assert.h</text>
</a>
</g>
</g>
<!-- Node16&#45;&gt;Node21 -->
<g id="edge25" class="edge">
<title>Node16&#45;&gt;Node21</title>
<path fill="none" stroke="midnightblue" d="M803.78,-56.32C818.27,-47.82 840.57,-34.73 857.49,-24.8"/>
<polygon fill="midnightblue" stroke="midnightblue" points="859.4,-27.74 866.26,-19.65 855.86,-21.7 859.4,-27.74"/>
</g>
<!-- Node22&#45;&gt;Node5 -->
<g id="edge30" class="edge">
<title>Node22&#45;&gt;Node5</title>
<path fill="none" stroke="midnightblue" d="M585.86,-112.32C572.13,-103.9 551.06,-90.97 534.94,-81.07"/>
<polygon fill="midnightblue" stroke="midnightblue" points="536.46,-77.9 526.1,-75.65 532.8,-83.87 536.46,-77.9"/>
</g>
<!-- Node22&#45;&gt;Node6 -->
<g id="edge28" class="edge">
<title>Node22&#45;&gt;Node6</title>
<path fill="none" stroke="midnightblue" d="M600.24,-112.37C600.72,-94.62 601.84,-53.67 602.49,-29.6"/>
<polygon fill="midnightblue" stroke="midnightblue" points="605.99,-29.68 602.77,-19.59 598.99,-29.49 605.99,-29.68"/>
</g>
<!-- Node22&#45;&gt;Node7 -->
<g id="edge27" class="edge">
<title>Node22&#45;&gt;Node7</title>
<path fill="none" stroke="midnightblue" d="M593.8,-112.37C580.76,-94.22 550.3,-51.8 533.2,-27.99"/>
<polygon fill="midnightblue" stroke="midnightblue" points="535.85,-25.67 527.17,-19.59 530.16,-29.76 535.85,-25.67"/>
</g>
<!-- Node22&#45;&gt;Node11 -->
<g id="edge32" class="edge">
<title>Node22&#45;&gt;Node11</title>
<path fill="none" stroke="midnightblue" d="M611.09,-131.65C627.47,-144.33 659.18,-168.56 687,-188 702.34,-198.71 720.02,-210.23 733.64,-218.93"/>
<polygon fill="midnightblue" stroke="midnightblue" points="732.03,-222.05 742.34,-224.46 735.78,-216.14 732.03,-222.05"/>
</g>
<!-- Node22&#45;&gt;Node16 -->
<g id="edge31" class="edge">
<title>Node22&#45;&gt;Node16</title>
<path fill="none" stroke="midnightblue" d="M629.95,-112.44C662.16,-103.24 713.53,-88.56 749.14,-78.39"/>
<polygon fill="midnightblue" stroke="midnightblue" points="750.54,-81.63 759.19,-75.52 748.62,-74.9 750.54,-81.63"/>
</g>
<!-- Node22&#45;&gt;Node18 -->
<g id="edge29" class="edge">
<title>Node22&#45;&gt;Node18</title>
<path fill="none" stroke="midnightblue" d="M606.67,-112.37C620.76,-94.14 653.76,-51.43 672.11,-27.68"/>
<polygon fill="midnightblue" stroke="midnightblue" points="675.02,-29.64 678.36,-19.59 669.48,-25.36 675.02,-29.64"/>
</g>
<!-- Node23 -->
<g id="node23" class="node">
<title>Node23</title>
<g id="a_node23"><a xlink:title=" ">
<polygon fill="none" stroke="#bfbfbf" points="666.5,-56.5 666.5,-75.5 717.5,-75.5 717.5,-56.5 666.5,-56.5"/>
<text text-anchor="middle" x="692" y="-63.5" font-family="FreeSans.ttf" font-size="10.00">stdarg.h</text>
</a>
</g>
</g>
<!-- Node22&#45;&gt;Node23 -->
<g id="edge33" class="edge">
<title>Node22&#45;&gt;Node23</title>
<path fill="none" stroke="midnightblue" d="M614.78,-112.32C629.27,-103.82 651.57,-90.73 668.49,-80.8"/>
<polygon fill="midnightblue" stroke="midnightblue" points="670.4,-83.74 677.26,-75.65 666.86,-77.7 670.4,-83.74"/>
</g>
<!-- Node25&#45;&gt;Node11 -->
<g id="edge40" class="edge">
<title>Node25&#45;&gt;Node11</title>
<path fill="none" stroke="midnightblue" d="M831.54,-280.32C817.5,-271.9 795.95,-258.97 779.46,-249.07"/>
<polygon fill="midnightblue" stroke="midnightblue" points="780.8,-245.8 770.42,-243.65 777.2,-251.8 780.8,-245.8"/>
</g>
<!-- Node25&#45;&gt;Node12 -->
<g id="edge39" class="edge">
<title>Node25&#45;&gt;Node12</title>
<path fill="none" stroke="midnightblue" d="M845.88,-280.41C846.18,-266.42 848.93,-238.83 865,-224 876.17,-213.68 956.31,-198.95 1015.97,-189.18"/>
<polygon fill="midnightblue" stroke="midnightblue" points="1016.79,-192.6 1026.1,-187.54 1015.67,-185.69 1016.79,-192.6"/>
</g>
<!-- Node26 -->
<g id="node26" class="node">
<title>Node26</title>
<g id="a_node26"><a xlink:href="balanced__operator_8hpp.html" target="_top" xlink:title=" ">
<polygon fill="none" stroke="black" points="874,-224.5 874,-243.5 988,-243.5 988,-224.5 874,-224.5"/>
<text text-anchor="middle" x="931" y="-231.5" font-family="FreeSans.ttf" font-size="10.00">balanced_operator.hpp</text>
</a>
</g>
</g>
<!-- Node25&#45;&gt;Node26 -->
<g id="edge41" class="edge">
<title>Node25&#45;&gt;Node26</title>
<path fill="none" stroke="midnightblue" d="M859.66,-280.32C872.92,-271.9 893.27,-258.97 908.85,-249.07"/>
<polygon fill="midnightblue" stroke="midnightblue" points="910.81,-251.97 917.38,-243.65 907.06,-246.06 910.81,-251.97"/>
</g>
<!-- Node26&#45;&gt;Node12 -->
<g id="edge42" class="edge">
<title>Node26&#45;&gt;Node12</title>
<path fill="none" stroke="midnightblue" d="M954.93,-224.44C980.22,-215.4 1020.3,-201.06 1048.68,-190.92"/>
<polygon fill="midnightblue" stroke="midnightblue" points="1049.95,-194.18 1058.19,-187.52 1047.59,-187.59 1049.95,-194.18"/>
</g>
<!-- Node27&#45;&gt;Node11 -->
<g id="edge47" class="edge">
<title>Node27&#45;&gt;Node11</title>
<path fill="none" stroke="midnightblue" d="M1051.38,-280.44C988.87,-270.83 887.48,-255.23 821.27,-245.04"/>
<polygon fill="midnightblue" stroke="midnightblue" points="821.77,-241.58 811.36,-243.52 820.71,-248.5 821.77,-241.58"/>
</g>
<!-- Node27&#45;&gt;Node12 -->
<g id="edge46" class="edge">
<title>Node27&#45;&gt;Node12</title>
<path fill="none" stroke="midnightblue" d="M1097.71,-280.39C1089.42,-272.02 1077.86,-258.48 1073,-244 1067.91,-228.81 1071.13,-210.7 1075.06,-197.45"/>
<polygon fill="midnightblue" stroke="midnightblue" points="1078.49,-198.24 1078.37,-187.64 1071.86,-196 1078.49,-198.24"/>
</g>
<!-- Node28 -->
<g id="node28" class="node">
<title>Node28</title>
<g id="a_node28"><a xlink:title=" ">
<polygon fill="none" stroke="#bfbfbf" points="1082,-224.5 1082,-243.5 1132,-243.5 1132,-224.5 1082,-224.5"/>
<text text-anchor="middle" x="1107" y="-231.5" font-family="FreeSans.ttf" font-size="10.00">typeinfo</text>
</a>
</g>
</g>
<!-- Node27&#45;&gt;Node28 -->
<g id="edge44" class="edge">
<title>Node27&#45;&gt;Node28</title>
<path fill="none" stroke="midnightblue" d="M1107,-280.08C1107,-273.01 1107,-262.86 1107,-253.99"/>
<polygon fill="midnightblue" stroke="midnightblue" points="1110.5,-253.75 1107,-243.75 1103.5,-253.75 1110.5,-253.75"/>
</g>
<!-- Node29 -->
<g id="node29" class="node">
<title>Node29</title>
<g id="a_node29"><a xlink:title=" ">
<polygon fill="none" stroke="#bfbfbf" points="1150.5,-224.5 1150.5,-243.5 1209.5,-243.5 1209.5,-224.5 1150.5,-224.5"/>
<text text-anchor="middle" x="1180" y="-231.5" font-family="FreeSans.ttf" font-size="10.00">stdexcept</text>
</a>
</g>
</g>
<!-- Node27&#45;&gt;Node29 -->
<g id="edge45" class="edge">
<title>Node27&#45;&gt;Node29</title>
<path fill="none" stroke="midnightblue" d="M1118.73,-280.32C1129.84,-272.11 1146.74,-259.6 1159.98,-249.81"/>
<polygon fill="midnightblue" stroke="midnightblue" points="1162.1,-252.59 1168.06,-243.83 1157.94,-246.97 1162.1,-252.59"/>
</g>
<!-- Node30&#45;&gt;Node12 -->
<g id="edge49" class="edge">
<title>Node30&#45;&gt;Node12</title>
<path fill="none" stroke="midnightblue" d="M918.57,-336.47C951.47,-304.77 1031.33,-227.82 1065.76,-194.65"/>
<polygon fill="midnightblue" stroke="midnightblue" points="1068.34,-197.02 1073.12,-187.56 1063.49,-191.98 1068.34,-197.02"/>
</g>
<!-- Node30&#45;&gt;Node26 -->
<g id="edge51" class="edge">
<title>Node30&#45;&gt;Node26</title>
<path fill="none" stroke="midnightblue" d="M917.36,-336.32C925.34,-326.84 934.73,-313.64 939,-300 943.77,-284.74 940.89,-266.63 937.32,-253.41"/>
<polygon fill="midnightblue" stroke="midnightblue" points="940.59,-252.15 934.31,-243.62 933.9,-254.21 940.59,-252.15"/>
</g>
<!-- Node30&#45;&gt;Node27 -->
<g id="edge50" class="edge">
<title>Node30&#45;&gt;Node27</title>
<path fill="none" stroke="midnightblue" d="M951.85,-336.47C987.33,-326.08 1035.09,-312.08 1068.2,-302.37"/>
<polygon fill="midnightblue" stroke="midnightblue" points="1069.37,-305.68 1077.98,-299.51 1067.4,-298.96 1069.37,-305.68"/>
</g>
<!-- Node34&#45;&gt;Node11 -->
<g id="edge59" class="edge">
<title>Node34&#45;&gt;Node11</title>
<path fill="none" stroke="midnightblue" d="M673.75,-280.32C689.32,-271.74 713.38,-258.49 731.46,-248.52"/>
<polygon fill="midnightblue" stroke="midnightblue" points="733.22,-251.55 740.29,-243.65 729.85,-245.42 733.22,-251.55"/>
</g>
<!-- Node34&#45;&gt;Node16 -->
<g id="edge60" class="edge">
<title>Node34&#45;&gt;Node16</title>
<path fill="none" stroke="midnightblue" d="M658.47,-280.2C659.91,-259.38 665.59,-206.02 687,-168 707.49,-131.61 744.87,-99.58 768.24,-81.8"/>
<polygon fill="midnightblue" stroke="midnightblue" points="770.51,-84.47 776.45,-75.7 766.33,-78.85 770.51,-84.47"/>
</g>
<!-- Node34&#45;&gt;Node19 -->
<g id="edge61" class="edge">
<title>Node34&#45;&gt;Node19</title>
<path fill="none" stroke="midnightblue" d="M648.57,-280.14C619.7,-252.54 531.36,-164.62 481,-76 472.68,-61.36 466.56,-43.19 462.74,-29.79"/>
<polygon fill="midnightblue" stroke="midnightblue" points="466.04,-28.58 460.06,-19.83 459.28,-30.4 466.04,-28.58"/>
</g>
<!-- Node34&#45;&gt;Node22 -->
<g id="edge58" class="edge">
<title>Node34&#45;&gt;Node22</title>
<path fill="none" stroke="midnightblue" d="M654.88,-280.08C645.71,-253.83 618.71,-176.55 606.33,-141.12"/>
<polygon fill="midnightblue" stroke="midnightblue" points="609.6,-139.85 602.99,-131.57 602.99,-142.16 609.6,-139.85"/>
</g>
</g>
</svg>
