<?xml version="1.0" encoding="UTF-8" standalone="no"?>
<!DOCTYPE svg PUBLIC "-//W3C//DTD SVG 1.1//EN"
 "http://www.w3.org/Graphics/SVG/1.1/DTD/svg11.dtd">
<!-- Generated by graphviz version 2.49.3 (20211027.1534)
 -->
<!-- Title: performForwardConvolution Pages: 1 -->
<svg width="379pt" height="88pt"
 viewBox="0.00 0.00 379.00 88.00" xmlns="http://www.w3.org/2000/svg" xmlns:xlink="http://www.w3.org/1999/xlink">
<g id="graph0" class="graph" transform="scale(1 1) rotate(0) translate(4 84)">
<title>performForwardConvolution</title>
<!-- Node1 -->
<g id="node1" class="node">
<title>Node1</title>
<g id="a_node1"><a xlink:title="Forward gridding convolution implementation on GPU.">
<polygon fill="#bfbfbf" stroke="black" points="235,-30 235,-49 371,-49 371,-30 235,-30"/>
<text text-anchor="middle" x="303" y="-37" font-family="FreeSans.ttf" font-size="10.00">performForwardConvolution</text>
</a>
</g>
</g>
<!-- Node2 -->
<g id="node2" class="node">
<title>Node2</title>
<g id="a_node2"><a xlink:href="classgpuNUFFT_1_1BalancedGpuNUFFTOperator.html#ac1e96fc0906d917432bb639875c1012b" target="_top" xlink:title="Virtual forward convolution call, which can be used by sub&#45;classes to add behaviour to the gridding s...">
<polygon fill="none" stroke="black" points="0,-49.5 0,-79.5 199,-79.5 199,-49.5 0,-49.5"/>
<text text-anchor="start" x="8" y="-67.5" font-family="FreeSans.ttf" font-size="10.00">gpuNUFFT::BalancedGpuNUFFTOperator</text>
<text text-anchor="middle" x="99.5" y="-56.5" font-family="FreeSans.ttf" font-size="10.00">::forwardConvolution</text>
</a>
</g>
</g>
<!-- Node1&#45;&gt;Node2 -->
<g id="edge1" class="edge">
<title>Node1&#45;&gt;Node2</title>
<path fill="none" stroke="midnightblue" d="M224.83,-49.07C216.46,-50.11 207.86,-51.18 199.29,-52.24"/>
<polygon fill="midnightblue" stroke="midnightblue" points="225.41,-52.53 234.9,-47.82 224.55,-45.58 225.41,-52.53"/>
</g>
<!-- Node3 -->
<g id="node3" class="node">
<title>Node3</title>
<g id="a_node3"><a xlink:href="classgpuNUFFT_1_1GpuNUFFTOperator.html#afc53849345db2dff57fd4a5367bb5a89" target="_top" xlink:title="Virtual forward convolution call, which can be used by sub&#45;classes to add behaviour to the gridding s...">
<polygon fill="none" stroke="black" points="20.5,-0.5 20.5,-30.5 178.5,-30.5 178.5,-0.5 20.5,-0.5"/>
<text text-anchor="start" x="28.5" y="-18.5" font-family="FreeSans.ttf" font-size="10.00">gpuNUFFT::GpuNUFFTOperator</text>
<text text-anchor="middle" x="99.5" y="-7.5" font-family="FreeSans.ttf" font-size="10.00">::forwardConvolution</text>
</a>
</g>
</g>
<!-- Node1&#45;&gt;Node3 -->
<g id="edge2" class="edge">
<title>Node1&#45;&gt;Node3</title>
<path fill="none" stroke="midnightblue" d="M224.64,-30.29C209.62,-28.5 193.87,-26.62 178.82,-24.83"/>
<polygon fill="midnightblue" stroke="midnightblue" points="224.56,-33.8 234.9,-31.51 225.39,-26.85 224.56,-33.8"/>
</g>
</g>
</svg>
