<?xml version="1.0" encoding="UTF-8" standalone="no"?>
<!DOCTYPE svg PUBLIC "-//W3C//DTD SVG 1.1//EN"
 "http://www.w3.org/Graphics/SVG/1.1/DTD/svg11.dtd">
<!-- Generated by graphviz version 2.49.3 (20211027.1534)
 -->
<!-- Title: CUDA/inc/gpuNUFFT_kernels.hpp Pages: 1 -->
<svg width="1522pt" height="408pt"
 viewBox="0.00 0.00 1521.50 408.00" xmlns="http://www.w3.org/2000/svg" xmlns:xlink="http://www.w3.org/1999/xlink">
<g id="graph0" class="graph" transform="scale(1 1) rotate(0) translate(4 404)">
<title>CUDA/inc/gpuNUFFT_kernels.hpp</title>
<!-- Node1 -->
<g id="node1" class="node">
<title>Node1</title>
<g id="a_node1"><a xlink:title="gpuNUFFT CUDA function prototypes">
<polygon fill="#bfbfbf" stroke="black" points="1207.5,-380.5 1207.5,-399.5 1374.5,-399.5 1374.5,-380.5 1207.5,-380.5"/>
<text text-anchor="middle" x="1291" y="-387.5" font-family="FreeSans.ttf" font-size="10.00">CUDA/inc/gpuNUFFT_kernels.hpp</text>
</a>
</g>
</g>
<!-- Node2 -->
<g id="node2" class="node">
<title>Node2</title>
<g id="a_node2"><a xlink:href="gpuNUFFT__operator_8hpp.html" target="_top" xlink:title=" ">
<polygon fill="none" stroke="black" points="1085,-324.5 1085,-343.5 1255,-343.5 1255,-324.5 1085,-324.5"/>
<text text-anchor="middle" x="1170" y="-331.5" font-family="FreeSans.ttf" font-size="10.00">CUDA/inc/gpuNUFFT_operator.hpp</text>
</a>
</g>
</g>
<!-- Node1&#45;&gt;Node2 -->
<g id="edge1" class="edge">
<title>Node1&#45;&gt;Node2</title>
<path fill="none" stroke="midnightblue" d="M1262.69,-376.37C1240.03,-366.26 1208.87,-352.35 1189.08,-343.52"/>
<polygon fill="midnightblue" stroke="midnightblue" points="1261.27,-379.56 1271.83,-380.44 1264.12,-373.17 1261.27,-379.56"/>
</g>
<!-- Node18 -->
<g id="node18" class="node">
<title>Node18</title>
<g id="a_node18"><a xlink:href="gpuNUFFT__operator_8cpp.html" target="_top" xlink:title=" ">
<polygon fill="none" stroke="black" points="1342.5,-62 1342.5,-81 1513.5,-81 1513.5,-62 1342.5,-62"/>
<text text-anchor="middle" x="1428" y="-69" font-family="FreeSans.ttf" font-size="10.00">CUDA/src/gpuNUFFT_operator.cpp</text>
</a>
</g>
</g>
<!-- Node1&#45;&gt;Node18 -->
<g id="edge39" class="edge">
<title>Node1&#45;&gt;Node18</title>
<path fill="none" stroke="midnightblue" d="M1326.42,-376.79C1367.01,-360.28 1428,-326.64 1428,-273.5 1428,-273.5 1428,-273.5 1428,-204.5 1428,-157.98 1428,-102.24 1428,-81.15"/>
<polygon fill="midnightblue" stroke="midnightblue" points="1325.13,-373.54 1317.09,-380.44 1327.68,-380.06 1325.13,-373.54"/>
</g>
<!-- Node3 -->
<g id="node3" class="node">
<title>Node3</title>
<g id="a_node3"><a xlink:href="balanced__gpuNUFFT__operator_8hpp.html" target="_top" xlink:title=" ">
<polygon fill="none" stroke="black" points="818,-257.5 818,-287.5 974,-287.5 974,-257.5 818,-257.5"/>
<text text-anchor="start" x="826" y="-275.5" font-family="FreeSans.ttf" font-size="10.00">CUDA/inc/balanced_gpuNUFFT</text>
<text text-anchor="middle" x="896" y="-264.5" font-family="FreeSans.ttf" font-size="10.00">_operator.hpp</text>
</a>
</g>
</g>
<!-- Node2&#45;&gt;Node3 -->
<g id="edge2" class="edge">
<title>Node2&#45;&gt;Node3</title>
<path fill="none" stroke="midnightblue" d="M1120.69,-322.29C1075.91,-312.57 1009.57,-298.16 960.58,-287.52"/>
<polygon fill="midnightblue" stroke="midnightblue" points="1120.23,-325.77 1130.74,-324.48 1121.71,-318.93 1120.23,-325.77"/>
</g>
<!-- Node4 -->
<g id="node4" class="node">
<title>Node4</title>
<g id="a_node4"><a xlink:href="gpuNUFFT__operator__factory_8hpp.html" target="_top" xlink:title=" ">
<polygon fill="none" stroke="black" points="763,-123.5 763,-153.5 915,-153.5 915,-123.5 763,-123.5"/>
<text text-anchor="start" x="771" y="-141.5" font-family="FreeSans.ttf" font-size="10.00">CUDA/inc/gpuNUFFT_operator</text>
<text text-anchor="middle" x="839" y="-130.5" font-family="FreeSans.ttf" font-size="10.00">_factory.hpp</text>
</a>
</g>
</g>
<!-- Node2&#45;&gt;Node4 -->
<g id="edge29" class="edge">
<title>Node2&#45;&gt;Node4</title>
<path fill="none" stroke="midnightblue" d="M1151.12,-318.08C1115.47,-290.38 1035.13,-230.14 961,-190 934.49,-175.65 903.03,-162.71 878.69,-153.53"/>
<polygon fill="midnightblue" stroke="midnightblue" points="1149.16,-320.99 1159.19,-324.4 1153.47,-315.48 1149.16,-320.99"/>
</g>
<!-- Node16 -->
<g id="node16" class="node">
<title>Node16</title>
<g id="a_node16"><a xlink:href="cuda__utils_8hpp.html" target="_top" xlink:title="Util functions for CUDA memory and texture management.">
<polygon fill="none" stroke="black" points="1228.5,-263 1228.5,-282 1353.5,-282 1353.5,-263 1228.5,-263"/>
<text text-anchor="middle" x="1291" y="-270" font-family="FreeSans.ttf" font-size="10.00">CUDA/inc/cuda_utils.hpp</text>
</a>
</g>
</g>
<!-- Node2&#45;&gt;Node16 -->
<g id="edge18" class="edge">
<title>Node2&#45;&gt;Node16</title>
<path fill="none" stroke="midnightblue" d="M1196.39,-320.02C1219.86,-308.48 1253.49,-291.94 1273.7,-282.01"/>
<polygon fill="midnightblue" stroke="midnightblue" points="1194.77,-316.92 1187.34,-324.48 1197.85,-323.2 1194.77,-316.92"/>
</g>
<!-- Node17 -->
<g id="node17" class="node">
<title>Node17</title>
<g id="a_node17"><a xlink:href="precomp__kernels_8hpp.html" target="_top" xlink:title="GPU Kernels for Precomputation (sector assignment)">
<polygon fill="none" stroke="black" points="1130.5,-129 1130.5,-148 1285.5,-148 1285.5,-129 1130.5,-129"/>
<text text-anchor="middle" x="1208" y="-136" font-family="FreeSans.ttf" font-size="10.00">CUDA/inc/precomp_kernels.hpp</text>
</a>
</g>
</g>
<!-- Node2&#45;&gt;Node17 -->
<g id="edge30" class="edge">
<title>Node2&#45;&gt;Node17</title>
<path fill="none" stroke="midnightblue" d="M1173.62,-314.55C1181.6,-273.94 1200.43,-178.07 1206.25,-148.41"/>
<polygon fill="midnightblue" stroke="midnightblue" points="1170.17,-313.95 1171.68,-324.44 1177.04,-315.3 1170.17,-313.95"/>
</g>
<!-- Node2&#45;&gt;Node18 -->
<g id="edge38" class="edge">
<title>Node2&#45;&gt;Node18</title>
<path fill="none" stroke="midnightblue" d="M1248.1,-322.85C1293.97,-315.39 1346.17,-303.79 1363,-288 1367.01,-284.24 1414.18,-120.62 1425.55,-81.05"/>
<polygon fill="midnightblue" stroke="midnightblue" points="1247.46,-319.41 1238.13,-324.43 1248.55,-326.33 1247.46,-319.41"/>
</g>
<!-- Node19 -->
<g id="node19" class="node">
<title>Node19</title>
<g id="a_node19"><a xlink:href="precomp__utils_8hpp.html" target="_top" xlink:title="UTIL functions for precomputation.">
<polygon fill="none" stroke="black" points="1030,-196 1030,-215 1172,-215 1172,-196 1030,-196"/>
<text text-anchor="middle" x="1101" y="-203" font-family="FreeSans.ttf" font-size="10.00">CUDA/inc/precomp_utils.hpp</text>
</a>
</g>
</g>
<!-- Node2&#45;&gt;Node19 -->
<g id="edge31" class="edge">
<title>Node2&#45;&gt;Node19</title>
<path fill="none" stroke="midnightblue" d="M1160.4,-315.4C1145.42,-287.94 1117.04,-235.9 1105.78,-215.26"/>
<polygon fill="midnightblue" stroke="midnightblue" points="1157.4,-317.2 1165.26,-324.31 1163.54,-313.85 1157.4,-317.2"/>
</g>
<!-- Node20 -->
<g id="node20" class="node">
<title>Node20</title>
<g id="a_node20"><a xlink:href="texture__gpuNUFFT__operator_8hpp.html" target="_top" xlink:title=" ">
<polygon fill="none" stroke="black" points="615,-257.5 615,-287.5 761,-287.5 761,-257.5 615,-257.5"/>
<text text-anchor="start" x="623" y="-275.5" font-family="FreeSans.ttf" font-size="10.00">CUDA/inc/texture_gpuNUFFT</text>
<text text-anchor="middle" x="688" y="-264.5" font-family="FreeSans.ttf" font-size="10.00">_operator.hpp</text>
</a>
</g>
</g>
<!-- Node2&#45;&gt;Node20 -->
<g id="edge32" class="edge">
<title>Node2&#45;&gt;Node20</title>
<path fill="none" stroke="midnightblue" d="M1090.91,-323.24C999.47,-311.95 850.17,-293.52 761.27,-282.55"/>
<polygon fill="midnightblue" stroke="midnightblue" points="1090.59,-326.72 1100.94,-324.48 1091.45,-319.78 1090.59,-326.72"/>
</g>
<!-- Node3&#45;&gt;Node4 -->
<g id="edge3" class="edge">
<title>Node3&#45;&gt;Node4</title>
<path fill="none" stroke="midnightblue" d="M922.92,-250.18C940.4,-233.64 957.76,-210.22 945,-190 934.06,-172.68 915.38,-161.17 896.71,-153.59"/>
<polygon fill="midnightblue" stroke="midnightblue" points="920.12,-247.98 914.99,-257.25 924.78,-253.21 920.12,-247.98"/>
</g>
<!-- Node15 -->
<g id="node15" class="node">
<title>Node15</title>
<g id="a_node15"><a xlink:href="balanced__gpuNUFFT__operator_8cpp.html" target="_top" xlink:title=" ">
<polygon fill="none" stroke="black" points="778.5,-190.5 778.5,-220.5 935.5,-220.5 935.5,-190.5 778.5,-190.5"/>
<text text-anchor="start" x="786.5" y="-208.5" font-family="FreeSans.ttf" font-size="10.00">CUDA/src/balanced_gpuNUFFT</text>
<text text-anchor="middle" x="857" y="-197.5" font-family="FreeSans.ttf" font-size="10.00">_operator.cpp</text>
</a>
</g>
</g>
<!-- Node3&#45;&gt;Node15 -->
<g id="edge17" class="edge">
<title>Node3&#45;&gt;Node15</title>
<path fill="none" stroke="midnightblue" d="M882.25,-248.58C876.64,-239.24 870.35,-228.75 865.45,-220.58"/>
<polygon fill="midnightblue" stroke="midnightblue" points="879.39,-250.62 887.54,-257.4 885.39,-247.02 879.39,-250.62"/>
</g>
<!-- Node5 -->
<g id="node5" class="node">
<title>Node5</title>
<g id="a_node5"><a xlink:href="gpuNUFFT__operator__factory_8cpp.html" target="_top" xlink:title=" ">
<polygon fill="none" stroke="black" points="1132.5,-56.5 1132.5,-86.5 1285.5,-86.5 1285.5,-56.5 1132.5,-56.5"/>
<text text-anchor="start" x="1140.5" y="-74.5" font-family="FreeSans.ttf" font-size="10.00">CUDA/src/gpuNUFFT_operator</text>
<text text-anchor="middle" x="1209" y="-63.5" font-family="FreeSans.ttf" font-size="10.00">_factory.cpp</text>
</a>
</g>
</g>
<!-- Node4&#45;&gt;Node5 -->
<g id="edge4" class="edge">
<title>Node4&#45;&gt;Node5</title>
<path fill="none" stroke="midnightblue" d="M925.08,-122.38C987.75,-111.37 1071.87,-96.59 1132.25,-85.98"/>
<polygon fill="midnightblue" stroke="midnightblue" points="924.46,-118.93 915.22,-124.11 925.67,-125.83 924.46,-118.93"/>
</g>
<!-- Node6 -->
<g id="node6" class="node">
<title>Node6</title>
<g id="a_node6"><a xlink:href="gpuNUFFT__forward__tests_8cpp.html" target="_top" xlink:title=" ">
<polygon fill="none" stroke="black" points="924.5,-56.5 924.5,-86.5 1075.5,-86.5 1075.5,-56.5 924.5,-56.5"/>
<text text-anchor="start" x="932.5" y="-74.5" font-family="FreeSans.ttf" font-size="10.00">CUDA/test/gpu/forward</text>
<text text-anchor="middle" x="1000" y="-63.5" font-family="FreeSans.ttf" font-size="10.00">/gpuNUFFT_forward_tests.cpp</text>
</a>
</g>
</g>
<!-- Node4&#45;&gt;Node6 -->
<g id="edge5" class="edge">
<title>Node4&#45;&gt;Node6</title>
<path fill="none" stroke="midnightblue" d="M883.48,-119.54C909.24,-109.14 941.2,-96.24 965.13,-86.58"/>
<polygon fill="midnightblue" stroke="midnightblue" points="881.9,-116.41 873.93,-123.4 884.52,-122.9 881.9,-116.41"/>
</g>
<!-- Node7 -->
<g id="node7" class="node">
<title>Node7</title>
<g id="a_node7"><a xlink:href="gpuNUFFT__2D__conv__tests_8cpp.html" target="_top" xlink:title=" ">
<polygon fill="none" stroke="black" points="0,-56.5 0,-86.5 134,-86.5 134,-56.5 0,-56.5"/>
<text text-anchor="start" x="8" y="-74.5" font-family="FreeSans.ttf" font-size="10.00">CUDA/test/gpu/gpuNUFFT</text>
<text text-anchor="middle" x="67" y="-63.5" font-family="FreeSans.ttf" font-size="10.00">_2D_conv_tests.cpp</text>
</a>
</g>
</g>
<!-- Node4&#45;&gt;Node7 -->
<g id="edge6" class="edge">
<title>Node4&#45;&gt;Node7</title>
<path fill="none" stroke="midnightblue" d="M752.57,-132.49C593.13,-123.03 258.48,-102.15 143,-87 140.07,-86.62 137.08,-86.19 134.07,-85.73"/>
<polygon fill="midnightblue" stroke="midnightblue" points="752.62,-136 762.81,-133.09 753.03,-129.01 752.62,-136"/>
</g>
<!-- Node8 -->
<g id="node8" class="node">
<title>Node8</title>
<g id="a_node8"><a xlink:href="gpuNUFFT__conv__tests_8cpp.html" target="_top" xlink:title=" ">
<polygon fill="none" stroke="black" points="152,-56.5 152,-86.5 286,-86.5 286,-56.5 152,-56.5"/>
<text text-anchor="start" x="160" y="-74.5" font-family="FreeSans.ttf" font-size="10.00">CUDA/test/gpu/gpuNUFFT</text>
<text text-anchor="middle" x="219" y="-63.5" font-family="FreeSans.ttf" font-size="10.00">_conv_tests.cpp</text>
</a>
</g>
</g>
<!-- Node4&#45;&gt;Node8 -->
<g id="edge7" class="edge">
<title>Node4&#45;&gt;Node8</title>
<path fill="none" stroke="midnightblue" d="M752.45,-132.04C644.87,-124.66 455.81,-109.75 295,-87 292.07,-86.59 289.09,-86.14 286.08,-85.66"/>
<polygon fill="midnightblue" stroke="midnightblue" points="752.39,-135.54 762.6,-132.73 752.86,-128.56 752.39,-135.54"/>
</g>
<!-- Node9 -->
<g id="node9" class="node">
<title>Node9</title>
<g id="a_node9"><a xlink:href="gpuNUFFT__deapo__tests_8cpp.html" target="_top" xlink:title=" ">
<polygon fill="none" stroke="black" points="304,-56.5 304,-86.5 438,-86.5 438,-56.5 304,-56.5"/>
<text text-anchor="start" x="312" y="-74.5" font-family="FreeSans.ttf" font-size="10.00">CUDA/test/gpu/gpuNUFFT</text>
<text text-anchor="middle" x="371" y="-63.5" font-family="FreeSans.ttf" font-size="10.00">_deapo_tests.cpp</text>
</a>
</g>
</g>
<!-- Node4&#45;&gt;Node9 -->
<g id="edge8" class="edge">
<title>Node4&#45;&gt;Node9</title>
<path fill="none" stroke="midnightblue" d="M752.95,-127.93C673.38,-118.72 551.94,-103.76 447,-87 444.08,-86.53 441.1,-86.04 438.1,-85.53"/>
<polygon fill="midnightblue" stroke="midnightblue" points="752.59,-131.41 762.92,-129.08 753.39,-124.46 752.59,-131.41"/>
</g>
<!-- Node10 -->
<g id="node10" class="node">
<title>Node10</title>
<g id="a_node10"><a xlink:href="gpuNUFFT__fft__tests_8cpp.html" target="_top" xlink:title=" ">
<polygon fill="none" stroke="black" points="456,-56.5 456,-86.5 590,-86.5 590,-56.5 456,-56.5"/>
<text text-anchor="start" x="464" y="-74.5" font-family="FreeSans.ttf" font-size="10.00">CUDA/test/gpu/gpuNUFFT</text>
<text text-anchor="middle" x="523" y="-63.5" font-family="FreeSans.ttf" font-size="10.00">_fft_tests.cpp</text>
</a>
</g>
</g>
<!-- Node4&#45;&gt;Node10 -->
<g id="edge9" class="edge">
<title>Node4&#45;&gt;Node10</title>
<path fill="none" stroke="midnightblue" d="M760.9,-121.44C708.51,-110.66 640.21,-96.61 590.24,-86.33"/>
<polygon fill="midnightblue" stroke="midnightblue" points="760.32,-124.89 770.82,-123.48 761.73,-118.03 760.32,-124.89"/>
</g>
<!-- Node11 -->
<g id="node11" class="node">
<title>Node11</title>
<g id="a_node11"><a xlink:href="python__factory_8hpp.html" target="_top" xlink:title=" ">
<polygon fill="none" stroke="black" points="608.5,-62 608.5,-81 753.5,-81 753.5,-62 608.5,-62"/>
<text text-anchor="middle" x="681" y="-69" font-family="FreeSans.ttf" font-size="10.00">python/inc/python_factory.hpp</text>
</a>
</g>
</g>
<!-- Node4&#45;&gt;Node11 -->
<g id="edge10" class="edge">
<title>Node4&#45;&gt;Node11</title>
<path fill="none" stroke="midnightblue" d="M795.15,-119.46C764.62,-106.9 725.3,-90.72 701.68,-81.01"/>
<polygon fill="midnightblue" stroke="midnightblue" points="794.14,-122.83 804.72,-123.4 796.8,-116.35 794.14,-122.83"/>
</g>
<!-- Node13 -->
<g id="node13" class="node">
<title>Node13</title>
<g id="a_node13"><a xlink:href="python__factory_8cpp.html" target="_top" xlink:title=" ">
<polygon fill="none" stroke="black" points="942,-0.5 942,-19.5 1088,-19.5 1088,-0.5 942,-0.5"/>
<text text-anchor="middle" x="1015" y="-7.5" font-family="FreeSans.ttf" font-size="10.00">python/src/python_factory.cpp</text>
</a>
</g>
</g>
<!-- Node4&#45;&gt;Node13 -->
<g id="edge16" class="edge">
<title>Node4&#45;&gt;Node13</title>
<path fill="none" stroke="midnightblue" d="M925.54,-131.15C988.08,-124.56 1064.93,-111.6 1085,-87 1093.71,-76.32 1091.6,-68.09 1085,-56 1075.38,-38.37 1055.57,-26.62 1039.47,-19.56"/>
<polygon fill="midnightblue" stroke="midnightblue" points="924.84,-127.71 915.25,-132.2 925.55,-134.67 924.84,-127.71"/>
</g>
<!-- Node14 -->
<g id="node14" class="node">
<title>Node14</title>
<g id="a_node14"><a xlink:href="python__utils_8hpp.html" target="_top" xlink:title=" ">
<polygon fill="none" stroke="black" points="772,-62 772,-81 906,-81 906,-62 772,-62"/>
<text text-anchor="middle" x="839" y="-69" font-family="FreeSans.ttf" font-size="10.00">python/inc/python_utils.hpp</text>
</a>
</g>
</g>
<!-- Node4&#45;&gt;Node14 -->
<g id="edge13" class="edge">
<title>Node4&#45;&gt;Node14</title>
<path fill="none" stroke="midnightblue" d="M839,-113.25C839,-102.02 839,-89.38 839,-81.19"/>
<polygon fill="midnightblue" stroke="midnightblue" points="835.5,-113.4 839,-123.4 842.5,-113.4 835.5,-113.4"/>
</g>
<!-- Node12 -->
<g id="node12" class="node">
<title>Node12</title>
<g id="a_node12"><a xlink:href="python__bindings_8cpp.html" target="_top" xlink:title=" ">
<polygon fill="none" stroke="black" points="684,-0.5 684,-19.5 836,-19.5 836,-0.5 684,-0.5"/>
<text text-anchor="middle" x="760" y="-7.5" font-family="FreeSans.ttf" font-size="10.00">python/src/python_bindings.cpp</text>
</a>
</g>
</g>
<!-- Node11&#45;&gt;Node12 -->
<g id="edge11" class="edge">
<title>Node11&#45;&gt;Node12</title>
<path fill="none" stroke="midnightblue" d="M700.53,-55.79C715.68,-44.38 736.16,-28.96 748.7,-19.51"/>
<polygon fill="midnightblue" stroke="midnightblue" points="698.2,-53.16 692.32,-61.98 702.41,-58.75 698.2,-53.16"/>
</g>
<!-- Node11&#45;&gt;Node13 -->
<g id="edge12" class="edge">
<title>Node11&#45;&gt;Node13</title>
<path fill="none" stroke="midnightblue" d="M738.89,-60.19C803.54,-48.67 907.01,-30.24 967.23,-19.51"/>
<polygon fill="midnightblue" stroke="midnightblue" points="738.09,-56.78 728.85,-61.98 739.31,-63.67 738.09,-56.78"/>
</g>
<!-- Node14&#45;&gt;Node12 -->
<g id="edge14" class="edge">
<title>Node14&#45;&gt;Node12</title>
<path fill="none" stroke="midnightblue" d="M819.47,-55.79C804.32,-44.38 783.84,-28.96 771.3,-19.51"/>
<polygon fill="midnightblue" stroke="midnightblue" points="817.59,-58.75 827.68,-61.98 821.8,-53.16 817.59,-58.75"/>
</g>
<!-- Node14&#45;&gt;Node13 -->
<g id="edge15" class="edge">
<title>Node14&#45;&gt;Node13</title>
<path fill="none" stroke="midnightblue" d="M873.81,-58.73C908.02,-47.17 959.4,-29.8 989.83,-19.51"/>
<polygon fill="midnightblue" stroke="midnightblue" points="872.57,-55.46 864.22,-61.98 874.81,-62.09 872.57,-55.46"/>
</g>
<!-- Node16&#45;&gt;Node1 -->
<g id="edge19" class="edge">
<title>Node16&#45;&gt;Node1</title>
<path fill="none" stroke="midnightblue" d="M1291,-292.47C1291,-317.84 1291,-361.76 1291,-380.32"/>
<polygon fill="midnightblue" stroke="midnightblue" points="1294.5,-292.28 1291,-282.28 1287.5,-292.28 1294.5,-292.28"/>
</g>
<!-- Node16&#45;&gt;Node4 -->
<g id="edge20" class="edge">
<title>Node16&#45;&gt;Node4</title>
<path fill="none" stroke="midnightblue" d="M1275.23,-255.78C1255.19,-236.82 1218.64,-205.57 1181,-190 1094.48,-154.22 986.41,-143.29 915.18,-140.22"/>
<polygon fill="midnightblue" stroke="midnightblue" points="1272.91,-258.41 1282.53,-262.84 1277.78,-253.37 1272.91,-258.41"/>
</g>
<!-- Node16&#45;&gt;Node13 -->
<g id="edge28" class="edge">
<title>Node16&#45;&gt;Node13</title>
<path fill="none" stroke="midnightblue" d="M1298.43,-253.32C1313.76,-212.57 1343.57,-113 1295,-56 1268.89,-25.36 1161.92,-15.51 1088.03,-12.38"/>
<polygon fill="midnightblue" stroke="midnightblue" points="1295.12,-252.18 1294.74,-262.77 1301.64,-254.73 1295.12,-252.18"/>
</g>
<!-- Node16&#45;&gt;Node17 -->
<g id="edge21" class="edge">
<title>Node16&#45;&gt;Node17</title>
<path fill="none" stroke="midnightblue" d="M1283.91,-253.17C1276.94,-236.14 1265.41,-210.41 1252,-190 1241.52,-174.06 1226.41,-157.82 1216.9,-148.2"/>
<polygon fill="midnightblue" stroke="midnightblue" points="1280.68,-254.53 1287.64,-262.52 1287.18,-251.93 1280.68,-254.53"/>
</g>
<!-- Node16&#45;&gt;Node18 -->
<g id="edge27" class="edge">
<title>Node16&#45;&gt;Node18</title>
<path fill="none" stroke="midnightblue" d="M1304.26,-254.97C1311.68,-245.35 1320.85,-232.82 1328,-221 1353.1,-179.5 1347.52,-162.25 1376,-123 1387.97,-106.5 1405.62,-90.66 1416.96,-81.25"/>
<polygon fill="midnightblue" stroke="midnightblue" points="1301.47,-252.86 1298.04,-262.89 1306.97,-257.19 1301.47,-252.86"/>
</g>
<!-- Node16&#45;&gt;Node19 -->
<g id="edge24" class="edge">
<title>Node16&#45;&gt;Node19</title>
<path fill="none" stroke="midnightblue" d="M1256.22,-259.6C1218.55,-246.71 1159.38,-226.47 1126.03,-215.06"/>
<polygon fill="midnightblue" stroke="midnightblue" points="1255.17,-262.94 1265.77,-262.87 1257.44,-256.32 1255.17,-262.94"/>
</g>
<!-- Node17&#45;&gt;Node5 -->
<g id="edge23" class="edge">
<title>Node17&#45;&gt;Node5</title>
<path fill="none" stroke="midnightblue" d="M1208.29,-118.41C1208.45,-108.22 1208.64,-95.9 1208.78,-86.59"/>
<polygon fill="midnightblue" stroke="midnightblue" points="1204.79,-118.68 1208.13,-128.73 1211.79,-118.79 1204.79,-118.68"/>
</g>
<!-- Node17&#45;&gt;Node18 -->
<g id="edge22" class="edge">
<title>Node17&#45;&gt;Node18</title>
<path fill="none" stroke="midnightblue" d="M1246.89,-126.01C1290.43,-113.15 1359.99,-92.59 1399.02,-81.06"/>
<polygon fill="midnightblue" stroke="midnightblue" points="1245.81,-122.68 1237.21,-128.87 1247.8,-129.39 1245.81,-122.68"/>
</g>
<!-- Node19&#45;&gt;Node4 -->
<g id="edge25" class="edge">
<title>Node19&#45;&gt;Node4</title>
<path fill="none" stroke="midnightblue" d="M1056.57,-193.48C1012.22,-182.47 943.9,-165.52 895.67,-153.56"/>
<polygon fill="midnightblue" stroke="midnightblue" points="1055.93,-196.92 1066.48,-195.94 1057.62,-190.13 1055.93,-196.92"/>
</g>
<!-- Node19&#45;&gt;Node17 -->
<g id="edge26" class="edge">
<title>Node19&#45;&gt;Node17</title>
<path fill="none" stroke="midnightblue" d="M1124.14,-190.44C1145.33,-177.57 1176.02,-158.93 1193.8,-148.13"/>
<polygon fill="midnightblue" stroke="midnightblue" points="1122.16,-187.55 1115.43,-195.73 1125.79,-193.53 1122.16,-187.55"/>
</g>
<!-- Node20&#45;&gt;Node4 -->
<g id="edge36" class="edge">
<title>Node20&#45;&gt;Node4</title>
<path fill="none" stroke="midnightblue" d="M708.32,-249.57C724.43,-232.62 747.84,-208.94 770,-190 785.46,-176.79 804.14,-163.25 818.16,-153.53"/>
<polygon fill="midnightblue" stroke="midnightblue" points="705.35,-247.62 701.04,-257.29 710.44,-252.42 705.35,-247.62"/>
</g>
<!-- Node21 -->
<g id="node21" class="node">
<title>Node21</title>
<g id="a_node21"><a xlink:href="balanced__texture__gpuNUFFT__operator_8hpp.html" target="_top" xlink:title=" ">
<polygon fill="none" stroke="black" points="419.5,-190.5 419.5,-220.5 556.5,-220.5 556.5,-190.5 419.5,-190.5"/>
<text text-anchor="start" x="427.5" y="-208.5" font-family="FreeSans.ttf" font-size="10.00">CUDA/inc/balanced_texture</text>
<text text-anchor="middle" x="488" y="-197.5" font-family="FreeSans.ttf" font-size="10.00">_gpuNUFFT_operator.hpp</text>
</a>
</g>
</g>
<!-- Node20&#45;&gt;Node21 -->
<g id="edge33" class="edge">
<title>Node20&#45;&gt;Node21</title>
<path fill="none" stroke="midnightblue" d="M634.85,-254.23C602.5,-243.71 561.69,-230.45 531.31,-220.58"/>
<polygon fill="midnightblue" stroke="midnightblue" points="634.01,-257.63 644.6,-257.4 636.17,-250.98 634.01,-257.63"/>
</g>
<!-- Node23 -->
<g id="node23" class="node">
<title>Node23</title>
<g id="a_node23"><a xlink:href="texture__gpuNUFFT__operator_8cpp.html" target="_top" xlink:title=" ">
<polygon fill="none" stroke="black" points="574.5,-190.5 574.5,-220.5 721.5,-220.5 721.5,-190.5 574.5,-190.5"/>
<text text-anchor="start" x="582.5" y="-208.5" font-family="FreeSans.ttf" font-size="10.00">CUDA/src/texture_gpuNUFFT</text>
<text text-anchor="middle" x="648" y="-197.5" font-family="FreeSans.ttf" font-size="10.00">_operator.cpp</text>
</a>
</g>
</g>
<!-- Node20&#45;&gt;Node23 -->
<g id="edge37" class="edge">
<title>Node20&#45;&gt;Node23</title>
<path fill="none" stroke="midnightblue" d="M674.07,-248.87C668.28,-239.46 661.74,-228.83 656.66,-220.58"/>
<polygon fill="midnightblue" stroke="midnightblue" points="671.1,-250.71 679.32,-257.4 677.06,-247.05 671.1,-250.71"/>
</g>
<!-- Node21&#45;&gt;Node4 -->
<g id="edge34" class="edge">
<title>Node21&#45;&gt;Node4</title>
<path fill="none" stroke="midnightblue" d="M566.95,-189.64C638.6,-176.3 710.29,-163.1 762.8,-153.46"/>
<polygon fill="midnightblue" stroke="midnightblue" points="566.03,-186.25 556.84,-191.52 567.32,-193.13 566.03,-186.25"/>
</g>
<!-- Node22 -->
<g id="node22" class="node">
<title>Node22</title>
<g id="a_node22"><a xlink:href="balanced__texture__gpuNUFFT__operator_8cpp.html" target="_top" xlink:title=" ">
<polygon fill="none" stroke="black" points="419.5,-123.5 419.5,-153.5 556.5,-153.5 556.5,-123.5 419.5,-123.5"/>
<text text-anchor="start" x="427.5" y="-141.5" font-family="FreeSans.ttf" font-size="10.00">CUDA/src/balanced_texture</text>
<text text-anchor="middle" x="488" y="-130.5" font-family="FreeSans.ttf" font-size="10.00">_gpuNUFFT_operator.cpp</text>
</a>
</g>
</g>
<!-- Node21&#45;&gt;Node22 -->
<g id="edge35" class="edge">
<title>Node21&#45;&gt;Node22</title>
<path fill="none" stroke="midnightblue" d="M488,-180.11C488,-171.15 488,-161.32 488,-153.58"/>
<polygon fill="midnightblue" stroke="midnightblue" points="484.5,-180.4 488,-190.4 491.5,-180.4 484.5,-180.4"/>
</g>
</g>
</svg>
