<?xml version="1.0" encoding="UTF-8" standalone="no"?>
<!DOCTYPE svg PUBLIC "-//W3C//DTD SVG 1.1//EN"
 "http://www.w3.org/Graphics/SVG/1.1/DTD/svg11.dtd">
<!-- Generated by graphviz version 2.49.3 (20211027.1534)
 -->
<!-- Title: CUDA/inc/gpuNUFFT_utils.hpp Pages: 1 -->
<svg width="1413pt" height="520pt"
 viewBox="0.00 0.00 1412.86 520.00" xmlns="http://www.w3.org/2000/svg" xmlns:xlink="http://www.w3.org/1999/xlink">
<g id="graph0" class="graph" transform="scale(1 1) rotate(0) translate(4 516)">
<title>CUDA/inc/gpuNUFFT_utils.hpp</title>
<!-- Node1 -->
<g id="node1" class="node">
<title>Node1</title>
<g id="a_node1"><a xlink:title="Definition of util functions used in gridding operations.">
<polygon fill="#bfbfbf" stroke="black" points="176.19,-492.5 176.19,-511.5 329.19,-511.5 329.19,-492.5 176.19,-492.5"/>
<text text-anchor="middle" x="252.69" y="-499.5" font-family="FreeSans.ttf" font-size="10.00">CUDA/inc/gpuNUFFT_utils.hpp</text>
</a>
</g>
</g>
<!-- Node2 -->
<g id="node2" class="node">
<title>Node2</title>
<g id="a_node2"><a xlink:href="cuda__utils_8hpp.html" target="_top" xlink:title="Util functions for CUDA memory and texture management.">
<polygon fill="none" stroke="black" points="190.19,-436.5 190.19,-455.5 315.19,-455.5 315.19,-436.5 190.19,-436.5"/>
<text text-anchor="middle" x="252.69" y="-443.5" font-family="FreeSans.ttf" font-size="10.00">CUDA/inc/cuda_utils.hpp</text>
</a>
</g>
</g>
<!-- Node1&#45;&gt;Node2 -->
<g id="edge1" class="edge">
<title>Node1&#45;&gt;Node2</title>
<path fill="none" stroke="midnightblue" d="M252.69,-481.8C252.69,-472.91 252.69,-462.78 252.69,-455.75"/>
<polygon fill="midnightblue" stroke="midnightblue" points="249.19,-482.08 252.69,-492.08 256.19,-482.08 249.19,-482.08"/>
</g>
<!-- Node3 -->
<g id="node3" class="node">
<title>Node3</title>
<g id="a_node3"><a xlink:href="gpuNUFFT__kernels_8hpp.html" target="_top" xlink:title="gpuNUFFT CUDA function prototypes">
<polygon fill="none" stroke="black" points="20.19,-380.5 20.19,-399.5 187.19,-399.5 187.19,-380.5 20.19,-380.5"/>
<text text-anchor="middle" x="103.69" y="-387.5" font-family="FreeSans.ttf" font-size="10.00">CUDA/inc/gpuNUFFT_kernels.hpp</text>
</a>
</g>
</g>
<!-- Node1&#45;&gt;Node3 -->
<g id="edge42" class="edge">
<title>Node1&#45;&gt;Node3</title>
<path fill="none" stroke="midnightblue" d="M228.93,-487.31C214.63,-478.79 196.23,-467.32 180.69,-456 155.25,-437.45 127.52,-412.85 113.3,-399.88"/>
<polygon fill="midnightblue" stroke="midnightblue" points="227.28,-490.4 237.67,-492.46 230.83,-484.37 227.28,-490.4"/>
</g>
<!-- Node20 -->
<g id="node20" class="node">
<title>Node20</title>
<g id="a_node20"><a xlink:href="precomp__utils_8hpp.html" target="_top" xlink:title="UTIL functions for precomputation.">
<polygon fill="none" stroke="black" points="280.69,-263 280.69,-282 422.69,-282 422.69,-263 280.69,-263"/>
<text text-anchor="middle" x="351.69" y="-270" font-family="FreeSans.ttf" font-size="10.00">CUDA/inc/precomp_utils.hpp</text>
</a>
</g>
</g>
<!-- Node1&#45;&gt;Node20 -->
<g id="edge43" class="edge">
<title>Node1&#45;&gt;Node20</title>
<path fill="none" stroke="midnightblue" d="M172.27,-490.85C84.87,-476.38 -36.46,-444.13 10.69,-380 45.28,-332.97 213.39,-297.52 299.95,-282.05"/>
<polygon fill="midnightblue" stroke="midnightblue" points="171.79,-494.32 182.22,-492.45 172.9,-487.41 171.79,-494.32"/>
</g>
<!-- Node25 -->
<g id="node25" class="node">
<title>Node25</title>
<g id="a_node25"><a xlink:href="gpuNUFFT__cpu_8hpp.html" target="_top" xlink:title=" ">
<polygon fill="none" stroke="black" points="333.19,-436.5 333.19,-455.5 484.19,-455.5 484.19,-436.5 333.19,-436.5"/>
<text text-anchor="middle" x="408.69" y="-443.5" font-family="FreeSans.ttf" font-size="10.00">CUDA/inc/gpuNUFFT_cpu.hpp</text>
</a>
</g>
</g>
<!-- Node1&#45;&gt;Node25 -->
<g id="edge41" class="edge">
<title>Node1&#45;&gt;Node25</title>
<path fill="none" stroke="midnightblue" d="M286.86,-489.17C316.24,-479 357.89,-464.59 384.09,-455.52"/>
<polygon fill="midnightblue" stroke="midnightblue" points="285.72,-485.86 277.41,-492.44 288.01,-492.48 285.72,-485.86"/>
</g>
<!-- Node26 -->
<g id="node26" class="node">
<title>Node26</title>
<g id="a_node26"><a xlink:href="gpuNUFFT__utils_8cpp.html" target="_top" xlink:title=" ">
<polygon fill="none" stroke="black" points="502.69,-436.5 502.69,-455.5 656.69,-455.5 656.69,-436.5 502.69,-436.5"/>
<text text-anchor="middle" x="579.69" y="-443.5" font-family="FreeSans.ttf" font-size="10.00">CUDA/src/gpuNUFFT_utils.cpp</text>
</a>
</g>
</g>
<!-- Node1&#45;&gt;Node26 -->
<g id="edge44" class="edge">
<title>Node1&#45;&gt;Node26</title>
<path fill="none" stroke="midnightblue" d="M314.52,-490.79C376.31,-480.59 470.22,-465.08 528.12,-455.52"/>
<polygon fill="midnightblue" stroke="midnightblue" points="313.8,-487.36 304.51,-492.44 314.94,-494.27 313.8,-487.36"/>
</g>
<!-- Node2&#45;&gt;Node3 -->
<g id="edge2" class="edge">
<title>Node2&#45;&gt;Node3</title>
<path fill="none" stroke="midnightblue" d="M219.32,-432.91C191.31,-422.75 152,-408.51 127.19,-399.52"/>
<polygon fill="midnightblue" stroke="midnightblue" points="218.49,-436.33 229.08,-436.44 220.88,-429.75 218.49,-436.33"/>
</g>
<!-- Node6 -->
<g id="node6" class="node">
<title>Node6</title>
<g id="a_node6"><a xlink:href="gpuNUFFT__operator__factory_8hpp.html" target="_top" xlink:title=" ">
<polygon fill="none" stroke="black" points="713.69,-123.5 713.69,-153.5 865.69,-153.5 865.69,-123.5 713.69,-123.5"/>
<text text-anchor="start" x="721.69" y="-141.5" font-family="FreeSans.ttf" font-size="10.00">CUDA/inc/gpuNUFFT_operator</text>
<text text-anchor="middle" x="789.69" y="-130.5" font-family="FreeSans.ttf" font-size="10.00">_factory.hpp</text>
</a>
</g>
</g>
<!-- Node2&#45;&gt;Node6 -->
<g id="edge36" class="edge">
<title>Node2&#45;&gt;Node6</title>
<path fill="none" stroke="midnightblue" d="M325.25,-435.78C533.57,-409.32 1118.69,-335 1118.69,-335 1118.69,-335 1118.69,-335 1118.69,-271.5 1118.69,-234.31 1126.87,-215.4 1099.69,-190 1082.79,-174.2 952,-157.15 865.79,-147.45"/>
<polygon fill="midnightblue" stroke="midnightblue" points="324.8,-432.31 315.32,-437.04 325.68,-439.26 324.8,-432.31"/>
</g>
<!-- Node15 -->
<g id="node15" class="node">
<title>Node15</title>
<g id="a_node15"><a xlink:href="python__factory_8cpp.html" target="_top" xlink:title=" ">
<polygon fill="none" stroke="black" points="947.69,-0.5 947.69,-19.5 1093.69,-19.5 1093.69,-0.5 947.69,-0.5"/>
<text text-anchor="middle" x="1020.69" y="-7.5" font-family="FreeSans.ttf" font-size="10.00">python/src/python_factory.cpp</text>
</a>
</g>
</g>
<!-- Node2&#45;&gt;Node15 -->
<g id="edge40" class="edge">
<title>Node2&#45;&gt;Node15</title>
<path fill="none" stroke="midnightblue" d="M325.75,-436.02C487.82,-424.26 1402.69,-452.59 1402.69,-335 1402.69,-335 1402.69,-335 1402.69,-137.5 1402.69,-100.31 1411.35,-80.87 1383.69,-56 1342.32,-18.79 1187.48,-11.43 1093.91,-10.5"/>
<polygon fill="midnightblue" stroke="midnightblue" points="325.05,-432.57 315.4,-436.94 325.67,-439.54 325.05,-432.57"/>
</g>
<!-- Node18 -->
<g id="node18" class="node">
<title>Node18</title>
<g id="a_node18"><a xlink:href="precomp__kernels_8hpp.html" target="_top" xlink:title="GPU Kernels for Precomputation (sector assignment)">
<polygon fill="none" stroke="black" points="247.19,-196 247.19,-215 402.19,-215 402.19,-196 247.19,-196"/>
<text text-anchor="middle" x="324.69" y="-203" font-family="FreeSans.ttf" font-size="10.00">CUDA/inc/precomp_kernels.hpp</text>
</a>
</g>
</g>
<!-- Node2&#45;&gt;Node18 -->
<g id="edge37" class="edge">
<title>Node2&#45;&gt;Node18</title>
<path fill="none" stroke="midnightblue" d="M250.44,-425.88C247.14,-390.53 244.1,-313.39 271.69,-257 280.52,-238.96 298.64,-223.95 311.22,-215.11"/>
<polygon fill="midnightblue" stroke="midnightblue" points="247,-426.6 251.52,-436.18 253.96,-425.87 247,-426.6"/>
</g>
<!-- Node19 -->
<g id="node19" class="node">
<title>Node19</title>
<g id="a_node19"><a xlink:href="gpuNUFFT__operator_8cpp.html" target="_top" xlink:title=" ">
<polygon fill="none" stroke="black" points="127.19,-129 127.19,-148 298.19,-148 298.19,-129 127.19,-129"/>
<text text-anchor="middle" x="212.69" y="-136" font-family="FreeSans.ttf" font-size="10.00">CUDA/src/gpuNUFFT_operator.cpp</text>
</a>
</g>
</g>
<!-- Node2&#45;&gt;Node19 -->
<g id="edge39" class="edge">
<title>Node2&#45;&gt;Node19</title>
<path fill="none" stroke="midnightblue" d="M242.55,-427.43C231.29,-406.24 214.69,-369.19 214.69,-335 214.69,-335 214.69,-335 214.69,-271.5 214.69,-224.97 213.44,-169.23 212.92,-148.15"/>
<polygon fill="midnightblue" stroke="midnightblue" points="239.51,-429.17 247.41,-436.23 245.64,-425.78 239.51,-429.17"/>
</g>
<!-- Node2&#45;&gt;Node20 -->
<g id="edge38" class="edge">
<title>Node2&#45;&gt;Node20</title>
<path fill="none" stroke="midnightblue" d="M262.93,-427.28C283.96,-390.83 331.39,-308.67 346.78,-282.02"/>
<polygon fill="midnightblue" stroke="midnightblue" points="259.71,-425.85 257.74,-436.26 265.77,-429.35 259.71,-425.85"/>
</g>
<!-- Node4 -->
<g id="node4" class="node">
<title>Node4</title>
<g id="a_node4"><a xlink:href="gpuNUFFT__operator_8hpp.html" target="_top" xlink:title=" ">
<polygon fill="none" stroke="black" points="384.69,-324.5 384.69,-343.5 554.69,-343.5 554.69,-324.5 384.69,-324.5"/>
<text text-anchor="middle" x="469.69" y="-331.5" font-family="FreeSans.ttf" font-size="10.00">CUDA/inc/gpuNUFFT_operator.hpp</text>
</a>
</g>
</g>
<!-- Node3&#45;&gt;Node4 -->
<g id="edge3" class="edge">
<title>Node3&#45;&gt;Node4</title>
<path fill="none" stroke="midnightblue" d="M171.61,-378.98C240.75,-368.78 346.76,-353.14 411.97,-343.52"/>
<polygon fill="midnightblue" stroke="midnightblue" points="171.07,-375.52 161.69,-380.44 172.09,-382.45 171.07,-375.52"/>
</g>
<!-- Node3&#45;&gt;Node19 -->
<g id="edge35" class="edge">
<title>Node3&#45;&gt;Node19</title>
<path fill="none" stroke="midnightblue" d="M111.57,-370.97C133.27,-321.29 193.36,-183.75 208.96,-148.05"/>
<polygon fill="midnightblue" stroke="midnightblue" points="108.24,-369.85 107.45,-380.41 114.66,-372.65 108.24,-369.85"/>
</g>
<!-- Node4&#45;&gt;Node2 -->
<g id="edge20" class="edge">
<title>Node4&#45;&gt;Node2</title>
<path fill="none" stroke="midnightblue" d="M443.62,-348.22C398.61,-371.04 307.51,-417.21 269.72,-436.37"/>
<polygon fill="midnightblue" stroke="midnightblue" points="445.41,-351.23 452.75,-343.59 442.24,-344.99 445.41,-351.23"/>
</g>
<!-- Node5 -->
<g id="node5" class="node">
<title>Node5</title>
<g id="a_node5"><a xlink:href="balanced__gpuNUFFT__operator_8hpp.html" target="_top" xlink:title=" ">
<polygon fill="none" stroke="black" points="516.69,-257.5 516.69,-287.5 672.69,-287.5 672.69,-257.5 516.69,-257.5"/>
<text text-anchor="start" x="524.69" y="-275.5" font-family="FreeSans.ttf" font-size="10.00">CUDA/inc/balanced_gpuNUFFT</text>
<text text-anchor="middle" x="594.69" y="-264.5" font-family="FreeSans.ttf" font-size="10.00">_operator.hpp</text>
</a>
</g>
</g>
<!-- Node4&#45;&gt;Node5 -->
<g id="edge4" class="edge">
<title>Node4&#45;&gt;Node5</title>
<path fill="none" stroke="midnightblue" d="M496.86,-320.07C517.04,-310.47 544.53,-297.38 565.23,-287.52"/>
<polygon fill="midnightblue" stroke="midnightblue" points="495.13,-317.02 487.6,-324.48 498.14,-323.34 495.13,-317.02"/>
</g>
<!-- Node4&#45;&gt;Node6 -->
<g id="edge21" class="edge">
<title>Node4&#45;&gt;Node6</title>
<path fill="none" stroke="midnightblue" d="M565.09,-329.21C604.16,-323.68 648.01,-312 681.69,-288 723.1,-258.5 709.68,-230.28 740.69,-190 750.83,-176.84 764.03,-163.41 774.17,-153.71"/>
<polygon fill="midnightblue" stroke="midnightblue" points="564.21,-325.79 554.74,-330.54 565.11,-332.73 564.21,-325.79"/>
</g>
<!-- Node4&#45;&gt;Node18 -->
<g id="edge22" class="edge">
<title>Node4&#45;&gt;Node18</title>
<path fill="none" stroke="midnightblue" d="M464.35,-314.59C458.64,-297.75 448.14,-273.07 431.69,-257 410.4,-236.18 378.9,-222.74 355.59,-215.01"/>
<polygon fill="midnightblue" stroke="midnightblue" points="461.08,-315.87 467.42,-324.36 467.76,-313.77 461.08,-315.87"/>
</g>
<!-- Node4&#45;&gt;Node19 -->
<g id="edge34" class="edge">
<title>Node4&#45;&gt;Node19</title>
<path fill="none" stroke="midnightblue" d="M468.27,-314.24C464.75,-282.6 452.7,-219.22 411.69,-190 378.75,-166.52 335.9,-153.94 298.4,-147.2"/>
<polygon fill="midnightblue" stroke="midnightblue" points="464.8,-314.71 469.22,-324.34 471.77,-314.06 464.8,-314.71"/>
</g>
<!-- Node4&#45;&gt;Node20 -->
<g id="edge25" class="edge">
<title>Node4&#45;&gt;Node20</title>
<path fill="none" stroke="midnightblue" d="M443.65,-319.87C420.78,-308.33 388.18,-291.9 368.57,-282.01"/>
<polygon fill="midnightblue" stroke="midnightblue" points="442.28,-323.1 452.79,-324.48 445.43,-316.85 442.28,-323.1"/>
</g>
<!-- Node21 -->
<g id="node21" class="node">
<title>Node21</title>
<g id="a_node21"><a xlink:href="texture__gpuNUFFT__operator_8hpp.html" target="_top" xlink:title=" ">
<polygon fill="none" stroke="black" points="800.69,-257.5 800.69,-287.5 946.69,-287.5 946.69,-257.5 800.69,-257.5"/>
<text text-anchor="start" x="808.69" y="-275.5" font-family="FreeSans.ttf" font-size="10.00">CUDA/inc/texture_gpuNUFFT</text>
<text text-anchor="middle" x="873.69" y="-264.5" font-family="FreeSans.ttf" font-size="10.00">_operator.hpp</text>
</a>
</g>
</g>
<!-- Node4&#45;&gt;Node21 -->
<g id="edge28" class="edge">
<title>Node4&#45;&gt;Node21</title>
<path fill="none" stroke="midnightblue" d="M537.57,-323C610.4,-312.28 725.7,-295.3 800.52,-284.28"/>
<polygon fill="midnightblue" stroke="midnightblue" points="536.96,-319.56 527.58,-324.48 537.98,-326.48 536.96,-319.56"/>
</g>
<!-- Node5&#45;&gt;Node6 -->
<g id="edge5" class="edge">
<title>Node5&#45;&gt;Node6</title>
<path fill="none" stroke="midnightblue" d="M622.67,-251.05C654.44,-227.85 702.44,-192.83 706.69,-190 726.06,-177.09 748.67,-163.43 765.39,-153.57"/>
<polygon fill="midnightblue" stroke="midnightblue" points="620.2,-248.52 614.19,-257.25 624.33,-254.17 620.2,-248.52"/>
</g>
<!-- Node17 -->
<g id="node17" class="node">
<title>Node17</title>
<g id="a_node17"><a xlink:href="balanced__gpuNUFFT__operator_8cpp.html" target="_top" xlink:title=" ">
<polygon fill="none" stroke="black" points="497.19,-190.5 497.19,-220.5 654.19,-220.5 654.19,-190.5 497.19,-190.5"/>
<text text-anchor="start" x="505.19" y="-208.5" font-family="FreeSans.ttf" font-size="10.00">CUDA/src/balanced_gpuNUFFT</text>
<text text-anchor="middle" x="575.69" y="-197.5" font-family="FreeSans.ttf" font-size="10.00">_operator.cpp</text>
</a>
</g>
</g>
<!-- Node5&#45;&gt;Node17 -->
<g id="edge19" class="edge">
<title>Node5&#45;&gt;Node17</title>
<path fill="none" stroke="midnightblue" d="M587.74,-247.7C585.07,-238.59 582.12,-228.49 579.81,-220.58"/>
<polygon fill="midnightblue" stroke="midnightblue" points="584.41,-248.78 590.57,-257.4 591.13,-246.82 584.41,-248.78"/>
</g>
<!-- Node7 -->
<g id="node7" class="node">
<title>Node7</title>
<g id="a_node7"><a xlink:href="gpuNUFFT__operator__factory_8cpp.html" target="_top" xlink:title=" ">
<polygon fill="none" stroke="black" points="89.19,-56.5 89.19,-86.5 242.19,-86.5 242.19,-56.5 89.19,-56.5"/>
<text text-anchor="start" x="97.19" y="-74.5" font-family="FreeSans.ttf" font-size="10.00">CUDA/src/gpuNUFFT_operator</text>
<text text-anchor="middle" x="165.69" y="-63.5" font-family="FreeSans.ttf" font-size="10.00">_factory.cpp</text>
</a>
</g>
</g>
<!-- Node6&#45;&gt;Node7 -->
<g id="edge6" class="edge">
<title>Node6&#45;&gt;Node7</title>
<path fill="none" stroke="midnightblue" d="M703.27,-131.35C596.8,-123.33 410.52,-107.81 251.69,-87 248.69,-86.61 245.63,-86.19 242.55,-85.75"/>
<polygon fill="midnightblue" stroke="midnightblue" points="703.09,-134.85 713.32,-132.11 703.61,-127.87 703.09,-134.85"/>
</g>
<!-- Node8 -->
<g id="node8" class="node">
<title>Node8</title>
<g id="a_node8"><a xlink:href="gpuNUFFT__forward__tests_8cpp.html" target="_top" xlink:title=" ">
<polygon fill="none" stroke="black" points="1071.19,-56.5 1071.19,-86.5 1222.19,-86.5 1222.19,-56.5 1071.19,-56.5"/>
<text text-anchor="start" x="1079.19" y="-74.5" font-family="FreeSans.ttf" font-size="10.00">CUDA/test/gpu/forward</text>
<text text-anchor="middle" x="1146.69" y="-63.5" font-family="FreeSans.ttf" font-size="10.00">/gpuNUFFT_forward_tests.cpp</text>
</a>
</g>
</g>
<!-- Node6&#45;&gt;Node8 -->
<g id="edge7" class="edge">
<title>Node6&#45;&gt;Node8</title>
<path fill="none" stroke="midnightblue" d="M875.97,-121.79C935.49,-110.95 1013.87,-96.68 1070.97,-86.29"/>
<polygon fill="midnightblue" stroke="midnightblue" points="875.05,-118.4 865.84,-123.64 876.31,-125.29 875.05,-118.4"/>
</g>
<!-- Node9 -->
<g id="node9" class="node">
<title>Node9</title>
<g id="a_node9"><a xlink:href="gpuNUFFT__2D__conv__tests_8cpp.html" target="_top" xlink:title=" ">
<polygon fill="none" stroke="black" points="1240.69,-56.5 1240.69,-86.5 1374.69,-86.5 1374.69,-56.5 1240.69,-56.5"/>
<text text-anchor="start" x="1248.69" y="-74.5" font-family="FreeSans.ttf" font-size="10.00">CUDA/test/gpu/gpuNUFFT</text>
<text text-anchor="middle" x="1307.69" y="-63.5" font-family="FreeSans.ttf" font-size="10.00">_2D_conv_tests.cpp</text>
</a>
</g>
</g>
<!-- Node6&#45;&gt;Node9 -->
<g id="edge8" class="edge">
<title>Node6&#45;&gt;Node9</title>
<path fill="none" stroke="midnightblue" d="M875.86,-129.58C965.13,-120.92 1108.55,-105.76 1231.69,-87 1234.62,-86.56 1237.6,-86.08 1240.6,-85.58"/>
<polygon fill="midnightblue" stroke="midnightblue" points="875.41,-126.11 865.79,-130.55 876.08,-133.07 875.41,-126.11"/>
</g>
<!-- Node10 -->
<g id="node10" class="node">
<title>Node10</title>
<g id="a_node10"><a xlink:href="gpuNUFFT__conv__tests_8cpp.html" target="_top" xlink:title=" ">
<polygon fill="none" stroke="black" points="260.69,-56.5 260.69,-86.5 394.69,-86.5 394.69,-56.5 260.69,-56.5"/>
<text text-anchor="start" x="268.69" y="-74.5" font-family="FreeSans.ttf" font-size="10.00">CUDA/test/gpu/gpuNUFFT</text>
<text text-anchor="middle" x="327.69" y="-63.5" font-family="FreeSans.ttf" font-size="10.00">_conv_tests.cpp</text>
</a>
</g>
</g>
<!-- Node6&#45;&gt;Node10 -->
<g id="edge9" class="edge">
<title>Node6&#45;&gt;Node10</title>
<path fill="none" stroke="midnightblue" d="M703.03,-127.63C624.66,-118.35 506.19,-103.47 403.69,-87 400.78,-86.53 397.8,-86.04 394.79,-85.52"/>
<polygon fill="midnightblue" stroke="midnightblue" points="702.99,-131.15 713.33,-128.84 703.81,-124.2 702.99,-131.15"/>
</g>
<!-- Node11 -->
<g id="node11" class="node">
<title>Node11</title>
<g id="a_node11"><a xlink:href="gpuNUFFT__deapo__tests_8cpp.html" target="_top" xlink:title=" ">
<polygon fill="none" stroke="black" points="412.69,-56.5 412.69,-86.5 546.69,-86.5 546.69,-56.5 412.69,-56.5"/>
<text text-anchor="start" x="420.69" y="-74.5" font-family="FreeSans.ttf" font-size="10.00">CUDA/test/gpu/gpuNUFFT</text>
<text text-anchor="middle" x="479.69" y="-63.5" font-family="FreeSans.ttf" font-size="10.00">_deapo_tests.cpp</text>
</a>
</g>
</g>
<!-- Node6&#45;&gt;Node11 -->
<g id="edge10" class="edge">
<title>Node6&#45;&gt;Node11</title>
<path fill="none" stroke="midnightblue" d="M712.83,-121.38C661.84,-110.69 595.57,-96.8 546.73,-86.55"/>
<polygon fill="midnightblue" stroke="midnightblue" points="712.3,-124.85 722.81,-123.48 713.74,-118 712.3,-124.85"/>
</g>
<!-- Node12 -->
<g id="node12" class="node">
<title>Node12</title>
<g id="a_node12"><a xlink:href="gpuNUFFT__fft__tests_8cpp.html" target="_top" xlink:title=" ">
<polygon fill="none" stroke="black" points="564.69,-56.5 564.69,-86.5 698.69,-86.5 698.69,-56.5 564.69,-56.5"/>
<text text-anchor="start" x="572.69" y="-74.5" font-family="FreeSans.ttf" font-size="10.00">CUDA/test/gpu/gpuNUFFT</text>
<text text-anchor="middle" x="631.69" y="-63.5" font-family="FreeSans.ttf" font-size="10.00">_fft_tests.cpp</text>
</a>
</g>
</g>
<!-- Node6&#45;&gt;Node12 -->
<g id="edge11" class="edge">
<title>Node6&#45;&gt;Node12</title>
<path fill="none" stroke="midnightblue" d="M746.05,-119.54C720.76,-109.14 689.4,-96.24 665.91,-86.58"/>
<polygon fill="midnightblue" stroke="midnightblue" points="744.83,-122.83 755.41,-123.4 747.49,-116.35 744.83,-122.83"/>
</g>
<!-- Node13 -->
<g id="node13" class="node">
<title>Node13</title>
<g id="a_node13"><a xlink:href="python__factory_8hpp.html" target="_top" xlink:title=" ">
<polygon fill="none" stroke="black" points="717.19,-62 717.19,-81 862.19,-81 862.19,-62 717.19,-62"/>
<text text-anchor="middle" x="789.69" y="-69" font-family="FreeSans.ttf" font-size="10.00">python/inc/python_factory.hpp</text>
</a>
</g>
</g>
<!-- Node6&#45;&gt;Node13 -->
<g id="edge12" class="edge">
<title>Node6&#45;&gt;Node13</title>
<path fill="none" stroke="midnightblue" d="M789.69,-113.25C789.69,-102.02 789.69,-89.38 789.69,-81.19"/>
<polygon fill="midnightblue" stroke="midnightblue" points="786.19,-113.4 789.69,-123.4 793.19,-113.4 786.19,-113.4"/>
</g>
<!-- Node6&#45;&gt;Node15 -->
<g id="edge18" class="edge">
<title>Node6&#45;&gt;Node15</title>
<path fill="none" stroke="midnightblue" d="M875.92,-130.11C934.69,-123.08 1005.09,-110.04 1023.69,-87 1039.45,-67.48 1030.17,-35.07 1024.33,-19.66"/>
<polygon fill="midnightblue" stroke="midnightblue" points="875.39,-126.65 865.85,-131.27 876.19,-133.6 875.39,-126.65"/>
</g>
<!-- Node16 -->
<g id="node16" class="node">
<title>Node16</title>
<g id="a_node16"><a xlink:href="python__utils_8hpp.html" target="_top" xlink:title=" ">
<polygon fill="none" stroke="black" points="880.69,-62 880.69,-81 1014.69,-81 1014.69,-62 880.69,-62"/>
<text text-anchor="middle" x="947.69" y="-69" font-family="FreeSans.ttf" font-size="10.00">python/inc/python_utils.hpp</text>
</a>
</g>
</g>
<!-- Node6&#45;&gt;Node16 -->
<g id="edge15" class="edge">
<title>Node6&#45;&gt;Node16</title>
<path fill="none" stroke="midnightblue" d="M833.55,-119.46C864.08,-106.9 903.4,-90.72 927.02,-81.01"/>
<polygon fill="midnightblue" stroke="midnightblue" points="831.89,-116.35 823.98,-123.4 834.56,-122.83 831.89,-116.35"/>
</g>
<!-- Node14 -->
<g id="node14" class="node">
<title>Node14</title>
<g id="a_node14"><a xlink:href="python__bindings_8cpp.html" target="_top" xlink:title=" ">
<polygon fill="none" stroke="black" points="756.69,-0.5 756.69,-19.5 908.69,-19.5 908.69,-0.5 756.69,-0.5"/>
<text text-anchor="middle" x="832.69" y="-7.5" font-family="FreeSans.ttf" font-size="10.00">python/src/python_bindings.cpp</text>
</a>
</g>
</g>
<!-- Node13&#45;&gt;Node14 -->
<g id="edge13" class="edge">
<title>Node13&#45;&gt;Node14</title>
<path fill="none" stroke="midnightblue" d="M801.74,-53.84C809.81,-42.67 820.1,-28.43 826.54,-19.51"/>
<polygon fill="midnightblue" stroke="midnightblue" points="798.88,-51.82 795.86,-61.98 804.55,-55.92 798.88,-51.82"/>
</g>
<!-- Node13&#45;&gt;Node15 -->
<g id="edge14" class="edge">
<title>Node13&#45;&gt;Node15</title>
<path fill="none" stroke="midnightblue" d="M832.52,-59.47C877.38,-47.91 946.86,-30.02 987.66,-19.51"/>
<polygon fill="midnightblue" stroke="midnightblue" points="831.6,-56.09 822.79,-61.98 833.35,-62.87 831.6,-56.09"/>
</g>
<!-- Node16&#45;&gt;Node14 -->
<g id="edge16" class="edge">
<title>Node16&#45;&gt;Node14</title>
<path fill="none" stroke="midnightblue" d="M922.31,-57.37C900.02,-45.83 868.26,-29.4 849.14,-19.51"/>
<polygon fill="midnightblue" stroke="midnightblue" points="920.73,-60.49 931.22,-61.98 923.94,-54.27 920.73,-60.49"/>
</g>
<!-- Node16&#45;&gt;Node15 -->
<g id="edge17" class="edge">
<title>Node16&#45;&gt;Node15</title>
<path fill="none" stroke="midnightblue" d="M966.13,-55.47C980.09,-44.09 998.77,-28.87 1010.25,-19.51"/>
<polygon fill="midnightblue" stroke="midnightblue" points="963.69,-52.94 958.15,-61.98 968.12,-58.37 963.69,-52.94"/>
</g>
<!-- Node18&#45;&gt;Node7 -->
<g id="edge24" class="edge">
<title>Node18&#45;&gt;Node7</title>
<path fill="none" stroke="midnightblue" d="M325.45,-185.45C325.15,-167.28 321.85,-140.21 306.69,-123 290.11,-104.17 265.99,-92.36 242.38,-84.96"/>
<polygon fill="midnightblue" stroke="midnightblue" points="321.95,-185.64 325.33,-195.68 328.95,-185.72 321.95,-185.64"/>
</g>
<!-- Node18&#45;&gt;Node19 -->
<g id="edge23" class="edge">
<title>Node18&#45;&gt;Node19</title>
<path fill="none" stroke="midnightblue" d="M300.77,-190.62C278.58,-177.74 246.25,-158.98 227.56,-148.13"/>
<polygon fill="midnightblue" stroke="midnightblue" points="299.18,-193.74 309.59,-195.73 302.7,-187.69 299.18,-193.74"/>
</g>
<!-- Node20&#45;&gt;Node6 -->
<g id="edge26" class="edge">
<title>Node20&#45;&gt;Node6</title>
<path fill="none" stroke="midnightblue" d="M370.75,-257.01C396.21,-238.43 443.37,-206.62 488.69,-190 562.32,-163 651.42,-150.34 713.49,-144.47"/>
<polygon fill="midnightblue" stroke="midnightblue" points="368.64,-254.22 362.69,-262.99 372.81,-259.84 368.64,-254.22"/>
</g>
<!-- Node20&#45;&gt;Node18 -->
<g id="edge27" class="edge">
<title>Node20&#45;&gt;Node18</title>
<path fill="none" stroke="midnightblue" d="M344.13,-253.29C338.95,-240.81 332.3,-224.81 328.28,-215.13"/>
<polygon fill="midnightblue" stroke="midnightblue" points="340.98,-254.84 348.05,-262.73 347.45,-252.16 340.98,-254.84"/>
</g>
<!-- Node21&#45;&gt;Node6 -->
<g id="edge32" class="edge">
<title>Node21&#45;&gt;Node6</title>
<path fill="none" stroke="midnightblue" d="M893.4,-249.14C905.94,-232.06 917.76,-208.41 905.69,-190 894.26,-172.55 875.33,-161.09 856.06,-153.59"/>
<polygon fill="midnightblue" stroke="midnightblue" points="890.33,-247.38 886.9,-257.4 895.83,-251.71 890.33,-247.38"/>
</g>
<!-- Node22 -->
<g id="node22" class="node">
<title>Node22</title>
<g id="a_node22"><a xlink:href="balanced__texture__gpuNUFFT__operator_8hpp.html" target="_top" xlink:title=" ">
<polygon fill="none" stroke="black" points="953.19,-190.5 953.19,-220.5 1090.19,-220.5 1090.19,-190.5 953.19,-190.5"/>
<text text-anchor="start" x="961.19" y="-208.5" font-family="FreeSans.ttf" font-size="10.00">CUDA/inc/balanced_texture</text>
<text text-anchor="middle" x="1021.69" y="-197.5" font-family="FreeSans.ttf" font-size="10.00">_gpuNUFFT_operator.hpp</text>
</a>
</g>
</g>
<!-- Node21&#45;&gt;Node22 -->
<g id="edge29" class="edge">
<title>Node21&#45;&gt;Node22</title>
<path fill="none" stroke="midnightblue" d="M915.21,-253.27C938.78,-242.92 967.84,-230.15 989.64,-220.58"/>
<polygon fill="midnightblue" stroke="midnightblue" points="913.56,-250.17 905.81,-257.4 916.37,-256.58 913.56,-250.17"/>
</g>
<!-- Node24 -->
<g id="node24" class="node">
<title>Node24</title>
<g id="a_node24"><a xlink:href="texture__gpuNUFFT__operator_8cpp.html" target="_top" xlink:title=" ">
<polygon fill="none" stroke="black" points="749.19,-190.5 749.19,-220.5 896.19,-220.5 896.19,-190.5 749.19,-190.5"/>
<text text-anchor="start" x="757.19" y="-208.5" font-family="FreeSans.ttf" font-size="10.00">CUDA/src/texture_gpuNUFFT</text>
<text text-anchor="middle" x="822.69" y="-197.5" font-family="FreeSans.ttf" font-size="10.00">_operator.cpp</text>
</a>
</g>
</g>
<!-- Node21&#45;&gt;Node24 -->
<g id="edge33" class="edge">
<title>Node21&#45;&gt;Node24</title>
<path fill="none" stroke="midnightblue" d="M856.39,-249.45C848.9,-239.9 840.35,-229 833.74,-220.58"/>
<polygon fill="midnightblue" stroke="midnightblue" points="853.7,-251.69 862.63,-257.4 859.21,-247.37 853.7,-251.69"/>
</g>
<!-- Node22&#45;&gt;Node6 -->
<g id="edge30" class="edge">
<title>Node22&#45;&gt;Node6</title>
<path fill="none" stroke="midnightblue" d="M961.78,-187.71C924.03,-177.14 875.84,-163.63 840.06,-153.61"/>
<polygon fill="midnightblue" stroke="midnightblue" points="961.07,-191.15 971.64,-190.48 962.95,-184.41 961.07,-191.15"/>
</g>
<!-- Node23 -->
<g id="node23" class="node">
<title>Node23</title>
<g id="a_node23"><a xlink:href="balanced__texture__gpuNUFFT__operator_8cpp.html" target="_top" xlink:title=" ">
<polygon fill="none" stroke="black" points="953.19,-123.5 953.19,-153.5 1090.19,-153.5 1090.19,-123.5 953.19,-123.5"/>
<text text-anchor="start" x="961.19" y="-141.5" font-family="FreeSans.ttf" font-size="10.00">CUDA/src/balanced_texture</text>
<text text-anchor="middle" x="1021.69" y="-130.5" font-family="FreeSans.ttf" font-size="10.00">_gpuNUFFT_operator.cpp</text>
</a>
</g>
</g>
<!-- Node22&#45;&gt;Node23 -->
<g id="edge31" class="edge">
<title>Node22&#45;&gt;Node23</title>
<path fill="none" stroke="midnightblue" d="M1021.69,-180.11C1021.69,-171.15 1021.69,-161.32 1021.69,-153.58"/>
<polygon fill="midnightblue" stroke="midnightblue" points="1018.19,-180.4 1021.69,-190.4 1025.19,-180.4 1018.19,-180.4"/>
</g>
</g>
</svg>
