<?xml version="1.0" encoding="UTF-8" standalone="no"?>
<!DOCTYPE svg PUBLIC "-//W3C//DTD SVG 1.1//EN"
 "http://www.w3.org/Graphics/SVG/1.1/DTD/svg11.dtd">
<!-- Generated by graphviz version 2.49.3 (20211027.1534)
 -->
<!-- Title: CUDA/inc/gpuNUFFT_kernels.hpp Pages: 1 -->
<svg width="1482pt" height="408pt"
 viewBox="0.00 0.00 1482.00 408.00" xmlns="http://www.w3.org/2000/svg" xmlns:xlink="http://www.w3.org/1999/xlink">
<g id="graph0" class="graph" transform="scale(1 1) rotate(0) translate(4 404)">
<title>CUDA/inc/gpuNUFFT_kernels.hpp</title>
<!-- Node1 -->
<g id="node1" class="node">
<title>Node1</title>
<g id="a_node1"><a xlink:title="gpuNUFFT CUDA function prototypes">
<polygon fill="#bfbfbf" stroke="black" points="101,-380.5 101,-399.5 268,-399.5 268,-380.5 101,-380.5"/>
<text text-anchor="middle" x="184.5" y="-387.5" font-family="FreeSans.ttf" font-size="10.00">CUDA/inc/gpuNUFFT_kernels.hpp</text>
</a>
</g>
</g>
<!-- Node2 -->
<g id="node2" class="node">
<title>Node2</title>
<g id="a_node2"><a xlink:href="gpuNUFFT__operator_8hpp.html" target="_top" xlink:title=" ">
<polygon fill="none" stroke="black" points="243.5,-324.5 243.5,-343.5 413.5,-343.5 413.5,-324.5 243.5,-324.5"/>
<text text-anchor="middle" x="328.5" y="-331.5" font-family="FreeSans.ttf" font-size="10.00">CUDA/inc/gpuNUFFT_operator.hpp</text>
</a>
</g>
</g>
<!-- Node1&#45;&gt;Node2 -->
<g id="edge1" class="edge">
<title>Node1&#45;&gt;Node2</title>
<path fill="none" stroke="midnightblue" d="M216.75,-376.91C243.82,-366.75 281.82,-352.51 305.79,-343.52"/>
<polygon fill="midnightblue" stroke="midnightblue" points="215.45,-373.66 207.32,-380.44 217.91,-380.21 215.45,-373.66"/>
</g>
<!-- Node18 -->
<g id="node18" class="node">
<title>Node18</title>
<g id="a_node18"><a xlink:href="gpuNUFFT__operator_8cpp.html" target="_top" xlink:title=" ">
<polygon fill="none" stroke="black" points="0,-62 0,-81 171,-81 171,-62 0,-62"/>
<text text-anchor="middle" x="85.5" y="-69" font-family="FreeSans.ttf" font-size="10.00">CUDA/src/gpuNUFFT_operator.cpp</text>
</a>
</g>
</g>
<!-- Node1&#45;&gt;Node18 -->
<g id="edge38" class="edge">
<title>Node1&#45;&gt;Node18</title>
<path fill="none" stroke="midnightblue" d="M151.9,-376.53C113.69,-359.54 55.5,-325.18 55.5,-273.5 55.5,-273.5 55.5,-273.5 55.5,-204.5 55.5,-157.03 74.18,-102.29 82.06,-81.31"/>
<polygon fill="midnightblue" stroke="midnightblue" points="150.57,-379.77 161.14,-380.48 153.32,-373.33 150.57,-379.77"/>
</g>
<!-- Node3 -->
<g id="node3" class="node">
<title>Node3</title>
<g id="a_node3"><a xlink:href="balanced__gpuNUFFT__operator_8hpp.html" target="_top" xlink:title=" ">
<polygon fill="none" stroke="black" points="808.5,-257.5 808.5,-287.5 964.5,-287.5 964.5,-257.5 808.5,-257.5"/>
<text text-anchor="start" x="816.5" y="-275.5" font-family="FreeSans.ttf" font-size="10.00">CUDA/inc/balanced_gpuNUFFT</text>
<text text-anchor="middle" x="886.5" y="-264.5" font-family="FreeSans.ttf" font-size="10.00">_operator.hpp</text>
</a>
</g>
</g>
<!-- Node2&#45;&gt;Node3 -->
<g id="edge2" class="edge">
<title>Node2&#45;&gt;Node3</title>
<path fill="none" stroke="midnightblue" d="M418.68,-323.38C526.78,-311.86 706.12,-292.73 808.5,-281.82"/>
<polygon fill="midnightblue" stroke="midnightblue" points="418.02,-319.93 408.45,-324.48 418.76,-326.89 418.02,-319.93"/>
</g>
<!-- Node4 -->
<g id="node4" class="node">
<title>Node4</title>
<g id="a_node4"><a xlink:href="gpuNUFFT__operator__factory_8hpp.html" target="_top" xlink:title=" ">
<polygon fill="none" stroke="black" points="703.5,-123.5 703.5,-153.5 855.5,-153.5 855.5,-123.5 703.5,-123.5"/>
<text text-anchor="start" x="711.5" y="-141.5" font-family="FreeSans.ttf" font-size="10.00">CUDA/inc/gpuNUFFT_operator</text>
<text text-anchor="middle" x="779.5" y="-130.5" font-family="FreeSans.ttf" font-size="10.00">_factory.hpp</text>
</a>
</g>
</g>
<!-- Node2&#45;&gt;Node4 -->
<g id="edge28" class="edge">
<title>Node2&#45;&gt;Node4</title>
<path fill="none" stroke="midnightblue" d="M423.92,-332.42C593.23,-330.51 932.35,-322.38 973.5,-288 1007.42,-259.66 1017.88,-224.71 990.5,-190 973.7,-168.71 909.04,-155.39 855.68,-147.81"/>
<polygon fill="midnightblue" stroke="midnightblue" points="423.72,-328.92 413.76,-332.53 423.8,-335.92 423.72,-328.92"/>
</g>
<!-- Node16 -->
<g id="node16" class="node">
<title>Node16</title>
<g id="a_node16"><a xlink:href="cuda__utils_8hpp.html" target="_top" xlink:title="Util functions for CUDA memory and texture management.">
<polygon fill="none" stroke="black" points="122,-263 122,-282 247,-282 247,-263 122,-263"/>
<text text-anchor="middle" x="184.5" y="-270" font-family="FreeSans.ttf" font-size="10.00">CUDA/inc/cuda_utils.hpp</text>
</a>
</g>
</g>
<!-- Node2&#45;&gt;Node16 -->
<g id="edge18" class="edge">
<title>Node2&#45;&gt;Node16</title>
<path fill="none" stroke="midnightblue" d="M298.57,-320.63C270.59,-309.07 229.56,-292.12 205.09,-282.01"/>
<polygon fill="midnightblue" stroke="midnightblue" points="297.29,-323.89 307.87,-324.48 299.96,-317.42 297.29,-323.89"/>
</g>
<!-- Node17 -->
<g id="node17" class="node">
<title>Node17</title>
<g id="a_node17"><a xlink:href="precomp__kernels_8hpp.html" target="_top" xlink:title="GPU Kernels for Precomputation (sector assignment)">
<polygon fill="none" stroke="black" points="160,-129 160,-148 315,-148 315,-129 160,-129"/>
<text text-anchor="middle" x="237.5" y="-136" font-family="FreeSans.ttf" font-size="10.00">CUDA/inc/precomp_kernels.hpp</text>
</a>
</g>
</g>
<!-- Node2&#45;&gt;Node17 -->
<g id="edge29" class="edge">
<title>Node2&#45;&gt;Node17</title>
<path fill="none" stroke="midnightblue" d="M320.19,-315.32C301.3,-275.17 255.73,-178.26 241.69,-148.41"/>
<polygon fill="midnightblue" stroke="midnightblue" points="317.05,-316.88 324.47,-324.44 323.38,-313.9 317.05,-316.88"/>
</g>
<!-- Node2&#45;&gt;Node18 -->
<g id="edge37" class="edge">
<title>Node2&#45;&gt;Node18</title>
<path fill="none" stroke="midnightblue" d="M233.48,-324.08C183.49,-317.35 129.18,-306.08 112.5,-288 56.77,-227.58 76.38,-113.79 83.42,-81.34"/>
<polygon fill="midnightblue" stroke="midnightblue" points="233.04,-327.56 243.4,-325.37 233.94,-320.61 233.04,-327.56"/>
</g>
<!-- Node19 -->
<g id="node19" class="node">
<title>Node19</title>
<g id="a_node19"><a xlink:href="precomp__utils_8hpp.html" target="_top" xlink:title="UTIL functions for precomputation.">
<polygon fill="none" stroke="black" points="288.5,-196 288.5,-215 430.5,-215 430.5,-196 288.5,-196"/>
<text text-anchor="middle" x="359.5" y="-203" font-family="FreeSans.ttf" font-size="10.00">CUDA/inc/precomp_utils.hpp</text>
</a>
</g>
</g>
<!-- Node2&#45;&gt;Node19 -->
<g id="edge30" class="edge">
<title>Node2&#45;&gt;Node19</title>
<path fill="none" stroke="midnightblue" d="M333.08,-314.31C339.88,-286.58 352.36,-235.63 357.35,-215.26"/>
<polygon fill="midnightblue" stroke="midnightblue" points="329.61,-313.76 330.63,-324.31 336.41,-315.43 329.61,-313.76"/>
</g>
<!-- Node20 -->
<g id="node20" class="node">
<title>Node20</title>
<g id="a_node20"><a xlink:href="texture__gpuNUFFT__operator_8hpp.html" target="_top" xlink:title=" ">
<polygon fill="none" stroke="black" points="524.5,-257.5 524.5,-287.5 670.5,-287.5 670.5,-257.5 524.5,-257.5"/>
<text text-anchor="start" x="532.5" y="-275.5" font-family="FreeSans.ttf" font-size="10.00">CUDA/inc/texture_gpuNUFFT</text>
<text text-anchor="middle" x="597.5" y="-264.5" font-family="FreeSans.ttf" font-size="10.00">_operator.hpp</text>
</a>
</g>
</g>
<!-- Node2&#45;&gt;Node20 -->
<g id="edge31" class="edge">
<title>Node2&#45;&gt;Node20</title>
<path fill="none" stroke="midnightblue" d="M376.91,-322.29C420.87,-312.57 486,-298.16 534.1,-287.52"/>
<polygon fill="midnightblue" stroke="midnightblue" points="376.05,-318.9 367.04,-324.48 377.56,-325.73 376.05,-318.9"/>
</g>
<!-- Node3&#45;&gt;Node4 -->
<g id="edge3" class="edge">
<title>Node3&#45;&gt;Node4</title>
<path fill="none" stroke="midnightblue" d="M939.39,-252.7C953.25,-245.09 966.53,-234.75 974.5,-221 981.4,-209.08 982.93,-200.9 974.5,-190 959.68,-170.85 903.82,-157.64 855.66,-149.55"/>
<polygon fill="midnightblue" stroke="midnightblue" points="937.59,-249.69 930.25,-257.32 940.75,-255.93 937.59,-249.69"/>
</g>
<!-- Node15 -->
<g id="node15" class="node">
<title>Node15</title>
<g id="a_node15"><a xlink:href="balanced__gpuNUFFT__operator_8cpp.html" target="_top" xlink:title=" ">
<polygon fill="none" stroke="black" points="808,-190.5 808,-220.5 965,-220.5 965,-190.5 808,-190.5"/>
<text text-anchor="start" x="816" y="-208.5" font-family="FreeSans.ttf" font-size="10.00">CUDA/src/balanced_gpuNUFFT</text>
<text text-anchor="middle" x="886.5" y="-197.5" font-family="FreeSans.ttf" font-size="10.00">_operator.cpp</text>
</a>
</g>
</g>
<!-- Node3&#45;&gt;Node15 -->
<g id="edge17" class="edge">
<title>Node3&#45;&gt;Node15</title>
<path fill="none" stroke="midnightblue" d="M886.5,-247.11C886.5,-238.15 886.5,-228.32 886.5,-220.58"/>
<polygon fill="midnightblue" stroke="midnightblue" points="883,-247.4 886.5,-257.4 890,-247.4 883,-247.4"/>
</g>
<!-- Node5 -->
<g id="node5" class="node">
<title>Node5</title>
<g id="a_node5"><a xlink:href="gpuNUFFT__operator__factory_8cpp.html" target="_top" xlink:title=" ">
<polygon fill="none" stroke="black" points="189,-56.5 189,-86.5 342,-86.5 342,-56.5 189,-56.5"/>
<text text-anchor="start" x="197" y="-74.5" font-family="FreeSans.ttf" font-size="10.00">CUDA/src/gpuNUFFT_operator</text>
<text text-anchor="middle" x="265.5" y="-63.5" font-family="FreeSans.ttf" font-size="10.00">_factory.cpp</text>
</a>
</g>
</g>
<!-- Node4&#45;&gt;Node5 -->
<g id="edge4" class="edge">
<title>Node4&#45;&gt;Node5</title>
<path fill="none" stroke="midnightblue" d="M693.17,-128.2C607.59,-118.74 472.82,-103.2 356.5,-87 351.9,-86.36 347.18,-85.68 342.42,-84.97"/>
<polygon fill="midnightblue" stroke="midnightblue" points="693.03,-131.7 703.35,-129.32 693.8,-124.74 693.03,-131.7"/>
</g>
<!-- Node6 -->
<g id="node6" class="node">
<title>Node6</title>
<g id="a_node6"><a xlink:href="gpuNUFFT__forward__tests_8cpp.html" target="_top" xlink:title=" ">
<polygon fill="none" stroke="black" points="551,-56.5 551,-86.5 702,-86.5 702,-56.5 551,-56.5"/>
<text text-anchor="start" x="559" y="-74.5" font-family="FreeSans.ttf" font-size="10.00">CUDA/test/gpu/forward</text>
<text text-anchor="middle" x="626.5" y="-63.5" font-family="FreeSans.ttf" font-size="10.00">/gpuNUFFT_forward_tests.cpp</text>
</a>
</g>
</g>
<!-- Node4&#45;&gt;Node6 -->
<g id="edge5" class="edge">
<title>Node4&#45;&gt;Node6</title>
<path fill="none" stroke="midnightblue" d="M736.91,-119.41C712.48,-109.03 682.28,-96.2 659.63,-86.58"/>
<polygon fill="midnightblue" stroke="midnightblue" points="735.73,-122.71 746.3,-123.4 738.47,-116.26 735.73,-122.71"/>
</g>
<!-- Node7 -->
<g id="node7" class="node">
<title>Node7</title>
<g id="a_node7"><a xlink:href="gpuNUFFT__2D__conv__tests_8cpp.html" target="_top" xlink:title=" ">
<polygon fill="none" stroke="black" points="720.5,-56.5 720.5,-86.5 854.5,-86.5 854.5,-56.5 720.5,-56.5"/>
<text text-anchor="start" x="728.5" y="-74.5" font-family="FreeSans.ttf" font-size="10.00">CUDA/test/gpu/gpuNUFFT</text>
<text text-anchor="middle" x="787.5" y="-63.5" font-family="FreeSans.ttf" font-size="10.00">_2D_conv_tests.cpp</text>
</a>
</g>
</g>
<!-- Node4&#45;&gt;Node7 -->
<g id="edge6" class="edge">
<title>Node4&#45;&gt;Node7</title>
<path fill="none" stroke="midnightblue" d="M782.47,-113.4C783.58,-104.37 784.8,-94.41 785.77,-86.58"/>
<polygon fill="midnightblue" stroke="midnightblue" points="778.98,-113.04 781.24,-123.4 785.93,-113.9 778.98,-113.04"/>
</g>
<!-- Node8 -->
<g id="node8" class="node">
<title>Node8</title>
<g id="a_node8"><a xlink:href="gpuNUFFT__conv__tests_8cpp.html" target="_top" xlink:title=" ">
<polygon fill="none" stroke="black" points="872.5,-56.5 872.5,-86.5 1006.5,-86.5 1006.5,-56.5 872.5,-56.5"/>
<text text-anchor="start" x="880.5" y="-74.5" font-family="FreeSans.ttf" font-size="10.00">CUDA/test/gpu/gpuNUFFT</text>
<text text-anchor="middle" x="939.5" y="-63.5" font-family="FreeSans.ttf" font-size="10.00">_conv_tests.cpp</text>
</a>
</g>
</g>
<!-- Node4&#45;&gt;Node8 -->
<g id="edge7" class="edge">
<title>Node4&#45;&gt;Node8</title>
<path fill="none" stroke="midnightblue" d="M823.7,-119.54C849.3,-109.14 881.07,-96.24 904.85,-86.58"/>
<polygon fill="midnightblue" stroke="midnightblue" points="822.16,-116.39 814.22,-123.4 824.8,-122.87 822.16,-116.39"/>
</g>
<!-- Node9 -->
<g id="node9" class="node">
<title>Node9</title>
<g id="a_node9"><a xlink:href="gpuNUFFT__deapo__tests_8cpp.html" target="_top" xlink:title=" ">
<polygon fill="none" stroke="black" points="1024.5,-56.5 1024.5,-86.5 1158.5,-86.5 1158.5,-56.5 1024.5,-56.5"/>
<text text-anchor="start" x="1032.5" y="-74.5" font-family="FreeSans.ttf" font-size="10.00">CUDA/test/gpu/gpuNUFFT</text>
<text text-anchor="middle" x="1091.5" y="-63.5" font-family="FreeSans.ttf" font-size="10.00">_deapo_tests.cpp</text>
</a>
</g>
</g>
<!-- Node4&#45;&gt;Node9 -->
<g id="edge8" class="edge">
<title>Node4&#45;&gt;Node9</title>
<path fill="none" stroke="midnightblue" d="M856.88,-121.38C908.29,-110.67 975.13,-96.74 1024.31,-86.5"/>
<polygon fill="midnightblue" stroke="midnightblue" points="855.89,-118.01 846.82,-123.48 857.32,-124.86 855.89,-118.01"/>
</g>
<!-- Node10 -->
<g id="node10" class="node">
<title>Node10</title>
<g id="a_node10"><a xlink:href="gpuNUFFT__fft__tests_8cpp.html" target="_top" xlink:title=" ">
<polygon fill="none" stroke="black" points="1176.5,-56.5 1176.5,-86.5 1310.5,-86.5 1310.5,-56.5 1176.5,-56.5"/>
<text text-anchor="start" x="1184.5" y="-74.5" font-family="FreeSans.ttf" font-size="10.00">CUDA/test/gpu/gpuNUFFT</text>
<text text-anchor="middle" x="1243.5" y="-63.5" font-family="FreeSans.ttf" font-size="10.00">_fft_tests.cpp</text>
</a>
</g>
</g>
<!-- Node4&#45;&gt;Node10 -->
<g id="edge9" class="edge">
<title>Node4&#45;&gt;Node10</title>
<path fill="none" stroke="midnightblue" d="M865.88,-127.74C944.65,-118.49 1064.15,-103.57 1167.5,-87 1170.42,-86.53 1173.4,-86.04 1176.4,-85.52"/>
<polygon fill="midnightblue" stroke="midnightblue" points="865.05,-124.31 855.53,-128.95 865.86,-131.27 865.05,-124.31"/>
</g>
<!-- Node11 -->
<g id="node11" class="node">
<title>Node11</title>
<g id="a_node11"><a xlink:href="python__factory_8hpp.html" target="_top" xlink:title=" ">
<polygon fill="none" stroke="black" points="1329,-62 1329,-81 1474,-81 1474,-62 1329,-62"/>
<text text-anchor="middle" x="1401.5" y="-69" font-family="FreeSans.ttf" font-size="10.00">python/inc/python_factory.hpp</text>
</a>
</g>
</g>
<!-- Node4&#45;&gt;Node11 -->
<g id="edge10" class="edge">
<title>Node4&#45;&gt;Node11</title>
<path fill="none" stroke="midnightblue" d="M865.82,-131.61C972.63,-123.83 1159.95,-108.53 1319.5,-87 1331.68,-85.36 1344.81,-83.21 1356.92,-81.07"/>
<polygon fill="midnightblue" stroke="midnightblue" points="865.46,-128.13 855.74,-132.34 865.96,-135.11 865.46,-128.13"/>
</g>
<!-- Node13 -->
<g id="node13" class="node">
<title>Node13</title>
<g id="a_node13"><a xlink:href="python__factory_8cpp.html" target="_top" xlink:title=" ">
<polygon fill="none" stroke="black" points="392.5,-0.5 392.5,-19.5 538.5,-19.5 538.5,-0.5 392.5,-0.5"/>
<text text-anchor="middle" x="465.5" y="-7.5" font-family="FreeSans.ttf" font-size="10.00">python/src/python_factory.cpp</text>
</a>
</g>
</g>
<!-- Node4&#45;&gt;Node13 -->
<g id="edge16" class="edge">
<title>Node4&#45;&gt;Node13</title>
<path fill="none" stroke="midnightblue" d="M692.88,-129.19C581.04,-118.03 399.44,-98.31 389.5,-87 380.4,-76.65 382.68,-67.97 389.5,-56 399.75,-38.02 420.33,-26.49 437.48,-19.6"/>
<polygon fill="midnightblue" stroke="midnightblue" points="692.85,-132.7 703.15,-130.21 693.54,-125.73 692.85,-132.7"/>
</g>
<!-- Node14 -->
<g id="node14" class="node">
<title>Node14</title>
<g id="a_node14"><a xlink:href="python__utils_8hpp.html" target="_top" xlink:title=" ">
<polygon fill="none" stroke="black" points="398.5,-62 398.5,-81 532.5,-81 532.5,-62 398.5,-62"/>
<text text-anchor="middle" x="465.5" y="-69" font-family="FreeSans.ttf" font-size="10.00">python/inc/python_utils.hpp</text>
</a>
</g>
</g>
<!-- Node4&#45;&gt;Node14 -->
<g id="edge13" class="edge">
<title>Node4&#45;&gt;Node14</title>
<path fill="none" stroke="midnightblue" d="M701.66,-121.39C639.93,-108.61 556.1,-91.25 506.7,-81.03"/>
<polygon fill="midnightblue" stroke="midnightblue" points="701.25,-124.88 711.75,-123.48 702.67,-118.02 701.25,-124.88"/>
</g>
<!-- Node12 -->
<g id="node12" class="node">
<title>Node12</title>
<g id="a_node12"><a xlink:href="python__bindings_8cpp.html" target="_top" xlink:title=" ">
<polygon fill="none" stroke="black" points="940.5,-0.5 940.5,-19.5 1092.5,-19.5 1092.5,-0.5 940.5,-0.5"/>
<text text-anchor="middle" x="1016.5" y="-7.5" font-family="FreeSans.ttf" font-size="10.00">python/src/python_bindings.cpp</text>
</a>
</g>
</g>
<!-- Node11&#45;&gt;Node12 -->
<g id="edge11" class="edge">
<title>Node11&#45;&gt;Node12</title>
<path fill="none" stroke="midnightblue" d="M1344.85,-60.27C1336.36,-58.8 1327.7,-57.33 1319.5,-56 1235.64,-42.36 1138.46,-28.22 1077.23,-19.52"/>
<polygon fill="midnightblue" stroke="midnightblue" points="1344.25,-63.72 1354.71,-62 1345.46,-56.83 1344.25,-63.72"/>
</g>
<!-- Node11&#45;&gt;Node13 -->
<g id="edge12" class="edge">
<title>Node11&#45;&gt;Node13</title>
<path fill="none" stroke="midnightblue" d="M1349.06,-60.24C1339.26,-58.61 1329.09,-57.1 1319.5,-56 1031.67,-23.09 686.47,-14.21 538.58,-11.84"/>
<polygon fill="midnightblue" stroke="midnightblue" points="1348.63,-63.72 1359.08,-61.98 1349.83,-56.83 1348.63,-63.72"/>
</g>
<!-- Node14&#45;&gt;Node12 -->
<g id="edge14" class="edge">
<title>Node14&#45;&gt;Node12</title>
<path fill="none" stroke="midnightblue" d="M516.43,-60.1C524.79,-58.59 533.37,-57.16 541.5,-56 681.53,-36.05 846.08,-22.7 940.14,-16.01"/>
<polygon fill="midnightblue" stroke="midnightblue" points="515.59,-56.7 506.4,-61.96 516.87,-63.58 515.59,-56.7"/>
</g>
<!-- Node14&#45;&gt;Node13 -->
<g id="edge15" class="edge">
<title>Node14&#45;&gt;Node13</title>
<path fill="none" stroke="midnightblue" d="M465.5,-51.82C465.5,-41 465.5,-27.9 465.5,-19.51"/>
<polygon fill="midnightblue" stroke="midnightblue" points="462,-51.98 465.5,-61.98 469,-51.98 462,-51.98"/>
</g>
<!-- Node16&#45;&gt;Node1 -->
<g id="edge19" class="edge">
<title>Node16&#45;&gt;Node1</title>
<path fill="none" stroke="midnightblue" d="M184.5,-292.47C184.5,-317.84 184.5,-361.76 184.5,-380.32"/>
<polygon fill="midnightblue" stroke="midnightblue" points="188,-292.28 184.5,-282.28 181,-292.28 188,-292.28"/>
</g>
<!-- Node16&#45;&gt;Node4 -->
<g id="edge20" class="edge">
<title>Node16&#45;&gt;Node4</title>
<path fill="none" stroke="midnightblue" d="M197.75,-255.26C214.53,-235.99 245.4,-204.61 279.5,-190 298.67,-181.78 568.26,-157.66 703.4,-145.98"/>
<polygon fill="midnightblue" stroke="midnightblue" points="195.04,-253.04 191.26,-262.93 200.39,-257.56 195.04,-253.04"/>
</g>
<!-- Node16&#45;&gt;Node17 -->
<g id="edge21" class="edge">
<title>Node16&#45;&gt;Node17</title>
<path fill="none" stroke="midnightblue" d="M188.74,-252.53C192.81,-235.73 199.65,-210.72 208.5,-190 215.09,-174.57 225.33,-157.91 231.71,-148.11"/>
<polygon fill="midnightblue" stroke="midnightblue" points="185.23,-252.17 186.37,-262.7 192.05,-253.76 185.23,-252.17"/>
</g>
<!-- Node16&#45;&gt;Node18 -->
<g id="edge27" class="edge">
<title>Node16&#45;&gt;Node18</title>
<path fill="none" stroke="midnightblue" d="M175.72,-253.86C155.26,-212.72 104.94,-111.58 89.85,-81.24"/>
<polygon fill="midnightblue" stroke="midnightblue" points="172.66,-255.55 180.25,-262.95 178.93,-252.44 172.66,-255.55"/>
</g>
<!-- Node16&#45;&gt;Node19 -->
<g id="edge24" class="edge">
<title>Node16&#45;&gt;Node19</title>
<path fill="none" stroke="midnightblue" d="M217.43,-259.27C252.16,-246.37 305.99,-226.38 336.44,-215.06"/>
<polygon fill="midnightblue" stroke="midnightblue" points="215.89,-256.11 207.74,-262.87 218.33,-262.67 215.89,-256.11"/>
</g>
<!-- Node17&#45;&gt;Node5 -->
<g id="edge23" class="edge">
<title>Node17&#45;&gt;Node5</title>
<path fill="none" stroke="midnightblue" d="M245.3,-119.39C249.77,-109.02 255.29,-96.2 259.43,-86.59"/>
<polygon fill="midnightblue" stroke="midnightblue" points="242.02,-118.16 241.28,-128.73 248.45,-120.93 242.02,-118.16"/>
</g>
<!-- Node17&#45;&gt;Node18 -->
<g id="edge22" class="edge">
<title>Node17&#45;&gt;Node18</title>
<path fill="none" stroke="midnightblue" d="M207.76,-124.78C177.66,-111.91 131.93,-92.35 105.77,-81.17"/>
<polygon fill="midnightblue" stroke="midnightblue" points="206.74,-128.15 217.32,-128.87 209.5,-121.72 206.74,-128.15"/>
</g>
<!-- Node19&#45;&gt;Node4 -->
<g id="edge25" class="edge">
<title>Node19&#45;&gt;Node4</title>
<path fill="none" stroke="midnightblue" d="M415.03,-194.2C423.23,-192.75 431.58,-191.31 439.5,-190 530.03,-175.08 634.46,-159.86 703.43,-150.09"/>
<polygon fill="midnightblue" stroke="midnightblue" points="414.37,-190.76 405.15,-195.97 415.61,-197.65 414.37,-190.76"/>
</g>
<!-- Node19&#45;&gt;Node17 -->
<g id="edge26" class="edge">
<title>Node19&#45;&gt;Node17</title>
<path fill="none" stroke="midnightblue" d="M334.36,-191.1C310.19,-178.23 274.4,-159.16 253.77,-148.17"/>
<polygon fill="midnightblue" stroke="midnightblue" points="332.83,-194.26 343.3,-195.87 336.12,-188.08 332.83,-194.26"/>
</g>
<!-- Node20&#45;&gt;Node4 -->
<g id="edge35" class="edge">
<title>Node20&#45;&gt;Node4</title>
<path fill="none" stroke="midnightblue" d="M680.78,-262.76C709.6,-255.73 739.82,-243.21 760.5,-221 777.73,-202.5 780.31,-171.5 780.2,-153.53"/>
<polygon fill="midnightblue" stroke="midnightblue" points="679.65,-259.43 670.66,-265.03 681.18,-266.26 679.65,-259.43"/>
</g>
<!-- Node21 -->
<g id="node21" class="node">
<title>Node21</title>
<g id="a_node21"><a xlink:href="balanced__texture__gpuNUFFT__operator_8hpp.html" target="_top" xlink:title=" ">
<polygon fill="none" stroke="black" points="449,-190.5 449,-220.5 586,-220.5 586,-190.5 449,-190.5"/>
<text text-anchor="start" x="457" y="-208.5" font-family="FreeSans.ttf" font-size="10.00">CUDA/inc/balanced_texture</text>
<text text-anchor="middle" x="517.5" y="-197.5" font-family="FreeSans.ttf" font-size="10.00">_gpuNUFFT_operator.hpp</text>
</a>
</g>
</g>
<!-- Node20&#45;&gt;Node21 -->
<g id="edge32" class="edge">
<title>Node20&#45;&gt;Node21</title>
<path fill="none" stroke="midnightblue" d="M572.13,-250.88C559.97,-241.01 545.72,-229.43 534.82,-220.58"/>
<polygon fill="midnightblue" stroke="midnightblue" points="570.17,-253.81 580.14,-257.4 574.59,-248.37 570.17,-253.81"/>
</g>
<!-- Node23 -->
<g id="node23" class="node">
<title>Node23</title>
<g id="a_node23"><a xlink:href="texture__gpuNUFFT__operator_8cpp.html" target="_top" xlink:title=" ">
<polygon fill="none" stroke="black" points="604,-190.5 604,-220.5 751,-220.5 751,-190.5 604,-190.5"/>
<text text-anchor="start" x="612" y="-208.5" font-family="FreeSans.ttf" font-size="10.00">CUDA/src/texture_gpuNUFFT</text>
<text text-anchor="middle" x="677.5" y="-197.5" font-family="FreeSans.ttf" font-size="10.00">_operator.cpp</text>
</a>
</g>
</g>
<!-- Node20&#45;&gt;Node23 -->
<g id="edge36" class="edge">
<title>Node20&#45;&gt;Node23</title>
<path fill="none" stroke="midnightblue" d="M622.87,-250.88C635.03,-241.01 649.28,-229.43 660.18,-220.58"/>
<polygon fill="midnightblue" stroke="midnightblue" points="620.41,-248.37 614.86,-257.4 624.83,-253.81 620.41,-248.37"/>
</g>
<!-- Node21&#45;&gt;Node4 -->
<g id="edge33" class="edge">
<title>Node21&#45;&gt;Node4</title>
<path fill="none" stroke="midnightblue" d="M583.8,-188.05C626.63,-177.43 681.79,-163.74 722.62,-153.61"/>
<polygon fill="midnightblue" stroke="midnightblue" points="582.89,-184.67 574.03,-190.48 584.58,-191.47 582.89,-184.67"/>
</g>
<!-- Node22 -->
<g id="node22" class="node">
<title>Node22</title>
<g id="a_node22"><a xlink:href="balanced__texture__gpuNUFFT__operator_8cpp.html" target="_top" xlink:title=" ">
<polygon fill="none" stroke="black" points="449,-123.5 449,-153.5 586,-153.5 586,-123.5 449,-123.5"/>
<text text-anchor="start" x="457" y="-141.5" font-family="FreeSans.ttf" font-size="10.00">CUDA/src/balanced_texture</text>
<text text-anchor="middle" x="517.5" y="-130.5" font-family="FreeSans.ttf" font-size="10.00">_gpuNUFFT_operator.cpp</text>
</a>
</g>
</g>
<!-- Node21&#45;&gt;Node22 -->
<g id="edge34" class="edge">
<title>Node21&#45;&gt;Node22</title>
<path fill="none" stroke="midnightblue" d="M517.5,-180.11C517.5,-171.15 517.5,-161.32 517.5,-153.58"/>
<polygon fill="midnightblue" stroke="midnightblue" points="514,-180.4 517.5,-190.4 521,-180.4 514,-180.4"/>
</g>
</g>
</svg>
