<?xml version="1.0" encoding="UTF-8" standalone="no"?>
<!DOCTYPE svg PUBLIC "-//W3C//DTD SVG 1.1//EN"
 "http://www.w3.org/Graphics/SVG/1.1/DTD/svg11.dtd">
<!-- Generated by graphviz version 2.49.3 (20211027.1534)
 -->
<!-- Title: Graphical Class Hierarchy Pages: 1 -->
<svg width="580pt" height="94pt"
 viewBox="0.00 0.00 580.00 94.00" xmlns="http://www.w3.org/2000/svg" xmlns:xlink="http://www.w3.org/1999/xlink">
<g id="graph0" class="graph" transform="scale(1 1) rotate(0) translate(4 90)">
<title>Graphical Class Hierarchy</title>
<!-- Node0 -->
<g id="node1" class="node">
<title>Node0</title>
<g id="a_node1"><a xlink:href="classgpuNUFFT_1_1BalancedOperator.html" target="_top" xlink:title="Interface defined for balanced gpuNUFFT Operators.">
<polygon fill="none" stroke="black" points="5,-66.5 5,-85.5 153,-85.5 153,-66.5 5,-66.5"/>
<text text-anchor="middle" x="79" y="-73.5" font-family="FreeSans.ttf" font-size="10.00">gpuNUFFT::BalancedOperator</text>
</a>
</g>
</g>
<!-- Node1 -->
<g id="node2" class="node">
<title>Node1</title>
<g id="a_node2"><a xlink:href="classgpuNUFFT_1_1BalancedGpuNUFFTOperator.html" target="_top" xlink:title="Balanced GpuNUFFTOperator inherited from gpuNUFFT::GpuNUFFTOperator.">
<polygon fill="none" stroke="black" points="194,-38.5 194,-57.5 393,-57.5 393,-38.5 194,-38.5"/>
<text text-anchor="middle" x="293.5" y="-45.5" font-family="FreeSans.ttf" font-size="10.00">gpuNUFFT::BalancedGpuNUFFTOperator</text>
</a>
</g>
</g>
<!-- Node0&#45;&gt;Node1 -->
<g id="edge1" class="edge">
<title>Node0&#45;&gt;Node1</title>
<path fill="none" stroke="midnightblue" d="M162.38,-65.14C181.42,-62.64 201.53,-59.99 220.1,-57.54"/>
<polygon fill="midnightblue" stroke="midnightblue" points="161.7,-61.7 152.24,-66.48 162.61,-68.64 161.7,-61.7"/>
</g>
<!-- Node2 -->
<g id="node3" class="node">
<title>Node2</title>
<g id="a_node3"><a xlink:href="classgpuNUFFT_1_1BalancedTextureGpuNUFFTOperator.html" target="_top" xlink:title="GpuNUFFTOperator with load balancing and texture memory lookup.">
<polygon fill="none" stroke="black" points="429,-33 429,-63 572,-63 572,-33 429,-33"/>
<text text-anchor="start" x="437" y="-51" font-family="FreeSans.ttf" font-size="10.00">gpuNUFFT::BalancedTexture</text>
<text text-anchor="middle" x="500.5" y="-40" font-family="FreeSans.ttf" font-size="10.00">GpuNUFFTOperator</text>
</a>
</g>
</g>
<!-- Node0&#45;&gt;Node2 -->
<g id="edge2" class="edge">
<title>Node0&#45;&gt;Node2</title>
<path fill="none" stroke="midnightblue" d="M163.55,-76.94C226.73,-76.85 315.52,-74.98 393,-67 404.68,-65.8 417,-64.05 428.96,-62.09"/>
<polygon fill="midnightblue" stroke="midnightblue" points="163.25,-73.44 153.25,-76.94 163.25,-80.44 163.25,-73.44"/>
</g>
<!-- Node8 -->
<g id="node4" class="node">
<title>Node8</title>
<g id="a_node4"><a xlink:href="classgpuNUFFT_1_1GpuNUFFTOperator.html" target="_top" xlink:title="Main &quot;Operator&quot; used for gridding operations.">
<polygon fill="none" stroke="black" points="0,-19.5 0,-38.5 158,-38.5 158,-19.5 0,-19.5"/>
<text text-anchor="middle" x="79" y="-26.5" font-family="FreeSans.ttf" font-size="10.00">gpuNUFFT::GpuNUFFTOperator</text>
</a>
</g>
</g>
<!-- Node8&#45;&gt;Node1 -->
<g id="edge3" class="edge">
<title>Node8&#45;&gt;Node1</title>
<path fill="none" stroke="midnightblue" d="M168.38,-36.9C176.79,-37.65 185.35,-38.42 193.85,-39.18"/>
<polygon fill="midnightblue" stroke="midnightblue" points="168.49,-33.4 158.22,-35.99 167.87,-40.37 168.49,-33.4"/>
</g>
<!-- Node9 -->
<g id="node5" class="node">
<title>Node9</title>
<g id="a_node5"><a xlink:href="classgpuNUFFT_1_1TextureGpuNUFFTOperator.html" target="_top" xlink:title="GpuNUFFTOperator with texture memory lookup.">
<polygon fill="none" stroke="black" points="198,-0.5 198,-19.5 389,-19.5 389,-0.5 198,-0.5"/>
<text text-anchor="middle" x="293.5" y="-7.5" font-family="FreeSans.ttf" font-size="10.00">gpuNUFFT::TextureGpuNUFFTOperator</text>
</a>
</g>
</g>
<!-- Node8&#45;&gt;Node9 -->
<g id="edge4" class="edge">
<title>Node8&#45;&gt;Node9</title>
<path fill="none" stroke="midnightblue" d="M168.3,-21.1C178.06,-20.23 188.03,-19.34 197.86,-18.46"/>
<polygon fill="midnightblue" stroke="midnightblue" points="167.87,-17.63 158.22,-22.01 168.49,-24.6 167.87,-17.63"/>
</g>
<!-- Node9&#45;&gt;Node2 -->
<g id="edge5" class="edge">
<title>Node9&#45;&gt;Node2</title>
<path fill="none" stroke="midnightblue" d="M355.9,-21.38C378.79,-25.63 404.97,-30.48 428.65,-34.87"/>
<polygon fill="midnightblue" stroke="midnightblue" points="356.44,-17.92 345.97,-19.54 355.16,-24.8 356.44,-17.92"/>
</g>
</g>
</svg>
