<?xml version="1.0" encoding="UTF-8" standalone="no"?>
<!DOCTYPE svg PUBLIC "-//W3C//DTD SVG 1.1//EN"
 "http://www.w3.org/Graphics/SVG/1.1/DTD/svg11.dtd">
<!-- Generated by graphviz version 2.49.3 (20211027.1534)
 -->
<!-- Title: CUDA/inc/precomp_kernels.hpp Pages: 1 -->
<svg width="772pt" height="364pt"
 viewBox="0.00 0.00 772.38 364.00" xmlns="http://www.w3.org/2000/svg" xmlns:xlink="http://www.w3.org/1999/xlink">
<g id="graph0" class="graph" transform="scale(1 1) rotate(0) translate(4 360)">
<title>CUDA/inc/precomp_kernels.hpp</title>
<!-- Node1 -->
<g id="node1" class="node">
<title>Node1</title>
<g id="a_node1"><a xlink:title="GPU Kernels for Precomputation (sector assignment)">
<polygon fill="#bfbfbf" stroke="black" points="516,-336.5 516,-355.5 671,-355.5 671,-336.5 516,-336.5"/>
<text text-anchor="middle" x="593.5" y="-343.5" font-family="FreeSans.ttf" font-size="10.00">CUDA/inc/precomp_kernels.hpp</text>
</a>
</g>
</g>
<!-- Node2 -->
<g id="node2" class="node">
<title>Node2</title>
<g id="a_node2"><a xlink:href="cuda__utils_8hpp.html" target="_top" xlink:title="Util functions for CUDA memory and texture management.">
<polygon fill="none" stroke="black" points="199,-224.5 199,-243.5 278,-243.5 278,-224.5 199,-224.5"/>
<text text-anchor="middle" x="238.5" y="-231.5" font-family="FreeSans.ttf" font-size="10.00">cuda_utils.hpp</text>
</a>
</g>
</g>
<!-- Node1&#45;&gt;Node2 -->
<g id="edge1" class="edge">
<title>Node1&#45;&gt;Node2</title>
<path fill="none" stroke="midnightblue" d="M565.94,-336.46C502.9,-316.93 348.11,-268.96 276.26,-246.7"/>
<polygon fill="midnightblue" stroke="midnightblue" points="276.88,-243.23 266.29,-243.61 274.8,-249.91 276.88,-243.23"/>
</g>
<!-- Node13 -->
<g id="node13" class="node">
<title>Node13</title>
<g id="a_node13"><a xlink:href="gpuNUFFT__operator_8hpp.html" target="_top" xlink:title=" ">
<polygon fill="none" stroke="black" points="493.5,-168.5 493.5,-187.5 617.5,-187.5 617.5,-168.5 493.5,-168.5"/>
<text text-anchor="middle" x="555.5" y="-175.5" font-family="FreeSans.ttf" font-size="10.00">gpuNUFFT_operator.hpp</text>
</a>
</g>
</g>
<!-- Node1&#45;&gt;Node13 -->
<g id="edge28" class="edge">
<title>Node1&#45;&gt;Node13</title>
<path fill="none" stroke="midnightblue" d="M599.2,-336.21C606.55,-323.76 617.82,-300.24 612.5,-280 604.01,-247.7 582.6,-214.86 568.57,-195.73"/>
<polygon fill="midnightblue" stroke="midnightblue" points="571.18,-193.39 562.36,-187.51 565.59,-197.6 571.18,-193.39"/>
</g>
<!-- Node20 -->
<g id="node20" class="node">
<title>Node20</title>
<g id="a_node20"><a xlink:href="precomp__utils_8hpp.html" target="_top" xlink:title="UTIL functions for precomputation.">
<polygon fill="none" stroke="black" points="508,-280.5 508,-299.5 603,-299.5 603,-280.5 508,-280.5"/>
<text text-anchor="middle" x="555.5" y="-287.5" font-family="FreeSans.ttf" font-size="10.00">precomp_utils.hpp</text>
</a>
</g>
</g>
<!-- Node1&#45;&gt;Node20 -->
<g id="edge29" class="edge">
<title>Node1&#45;&gt;Node20</title>
<path fill="none" stroke="midnightblue" d="M587.23,-336.08C581.86,-328.46 573.98,-317.26 567.42,-307.94"/>
<polygon fill="midnightblue" stroke="midnightblue" points="570.28,-305.91 561.66,-299.75 564.55,-309.94 570.28,-305.91"/>
</g>
<!-- Node21 -->
<g id="node21" class="node">
<title>Node21</title>
<g id="a_node21"><a xlink:title=" ">
<polygon fill="none" stroke="#bfbfbf" points="685.5,-280.5 685.5,-299.5 729.5,-299.5 729.5,-280.5 685.5,-280.5"/>
<text text-anchor="middle" x="707.5" y="-287.5" font-family="FreeSans.ttf" font-size="10.00">vector</text>
</a>
</g>
</g>
<!-- Node1&#45;&gt;Node21 -->
<g id="edge34" class="edge">
<title>Node1&#45;&gt;Node21</title>
<path fill="none" stroke="midnightblue" d="M611.56,-336.44C630.07,-327.68 659.08,-313.94 680.36,-303.86"/>
<polygon fill="midnightblue" stroke="midnightblue" points="681.98,-306.96 689.52,-299.52 678.99,-300.63 681.98,-306.96"/>
</g>
<!-- Node3 -->
<g id="node3" class="node">
<title>Node3</title>
<g id="a_node3"><a xlink:title=" ">
<polygon fill="none" stroke="#bfbfbf" points="66,-0.5 66,-19.5 111,-19.5 111,-0.5 66,-0.5"/>
<text text-anchor="middle" x="88.5" y="-7.5" font-family="FreeSans.ttf" font-size="10.00">cuda.h</text>
</a>
</g>
</g>
<!-- Node2&#45;&gt;Node3 -->
<g id="edge2" class="edge">
<title>Node2&#45;&gt;Node3</title>
<path fill="none" stroke="midnightblue" d="M232.62,-224.3C210.27,-191.22 130.33,-72.91 100.15,-28.24"/>
<polygon fill="midnightblue" stroke="midnightblue" points="103,-26.21 94.5,-19.88 97.2,-30.13 103,-26.21"/>
</g>
<!-- Node4 -->
<g id="node4" class="node">
<title>Node4</title>
<g id="a_node4"><a xlink:title=" ">
<polygon fill="none" stroke="#bfbfbf" points="129,-0.5 129,-19.5 212,-19.5 212,-0.5 129,-0.5"/>
<text text-anchor="middle" x="170.5" y="-7.5" font-family="FreeSans.ttf" font-size="10.00">cuda_runtime.h</text>
</a>
</g>
</g>
<!-- Node2&#45;&gt;Node4 -->
<g id="edge3" class="edge">
<title>Node2&#45;&gt;Node4</title>
<path fill="none" stroke="midnightblue" d="M234.78,-224.47C230.93,-215.5 224.89,-200.9 220.5,-188 201.09,-130.94 183.12,-61.8 175.02,-29.42"/>
<polygon fill="midnightblue" stroke="midnightblue" points="178.38,-28.44 172.58,-19.57 171.59,-30.12 178.38,-28.44"/>
</g>
<!-- Node5 -->
<g id="node5" class="node">
<title>Node5</title>
<g id="a_node5"><a xlink:title=" ">
<polygon fill="none" stroke="#bfbfbf" points="429,-0.5 429,-19.5 474,-19.5 474,-0.5 429,-0.5"/>
<text text-anchor="middle" x="451.5" y="-7.5" font-family="FreeSans.ttf" font-size="10.00">stdio.h</text>
</a>
</g>
</g>
<!-- Node2&#45;&gt;Node5 -->
<g id="edge4" class="edge">
<title>Node2&#45;&gt;Node5</title>
<path fill="none" stroke="midnightblue" d="M253.23,-224.43C279.58,-208.61 335.57,-172.67 373.5,-132 403.91,-99.39 429.82,-53.46 442.73,-28.62"/>
<polygon fill="midnightblue" stroke="midnightblue" points="445.88,-30.14 447.3,-19.64 439.65,-26.96 445.88,-30.14"/>
</g>
<!-- Node6 -->
<g id="node6" class="node">
<title>Node6</title>
<g id="a_node6"><a xlink:title=" ">
<polygon fill="none" stroke="#bfbfbf" points="0,-168.5 0,-187.5 43,-187.5 43,-168.5 0,-168.5"/>
<text text-anchor="middle" x="21.5" y="-175.5" font-family="FreeSans.ttf" font-size="10.00">cufft.h</text>
</a>
</g>
</g>
<!-- Node2&#45;&gt;Node6 -->
<g id="edge5" class="edge">
<title>Node2&#45;&gt;Node6</title>
<path fill="none" stroke="midnightblue" d="M200.38,-224.48C164.55,-216.32 109.22,-203.36 52.88,-188.27"/>
<polygon fill="midnightblue" stroke="midnightblue" points="53.66,-184.86 43.09,-185.63 51.83,-191.62 53.66,-184.86"/>
</g>
<!-- Node7 -->
<g id="node7" class="node">
<title>Node7</title>
<g id="a_node7"><a xlink:href="gpuNUFFT__utils_8hpp.html" target="_top" xlink:title="Definition of util functions used in gridding operations.">
<polygon fill="none" stroke="black" points="257,-56.5 257,-75.5 364,-75.5 364,-56.5 257,-56.5"/>
<text text-anchor="middle" x="310.5" y="-63.5" font-family="FreeSans.ttf" font-size="10.00">gpuNUFFT_utils.hpp</text>
</a>
</g>
</g>
<!-- Node2&#45;&gt;Node7 -->
<g id="edge6" class="edge">
<title>Node2&#45;&gt;Node7</title>
<path fill="none" stroke="midnightblue" d="M235.46,-224.36C228.68,-203.45 214.48,-149.12 235.5,-112 243.85,-97.26 259.16,-86.82 273.79,-79.73"/>
<polygon fill="midnightblue" stroke="midnightblue" points="275.5,-82.8 283.22,-75.55 272.66,-76.4 275.5,-82.8"/>
</g>
<!-- Node2&#45;&gt;Node13 -->
<g id="edge15" class="edge">
<title>Node2&#45;&gt;Node13</title>
<path fill="none" stroke="midnightblue" d="M278.01,-226.27C332.67,-216.96 431.85,-200.06 495.64,-189.2"/>
<polygon fill="midnightblue" stroke="midnightblue" points="496.29,-192.64 505.56,-187.51 495.12,-185.74 496.29,-192.64"/>
</g>
<!-- Node19 -->
<g id="node19" class="node">
<title>Node19</title>
<g id="a_node19"><a xlink:title=" ">
<polygon fill="none" stroke="#bfbfbf" points="61,-168.5 61,-187.5 112,-187.5 112,-168.5 61,-168.5"/>
<text text-anchor="middle" x="86.5" y="-175.5" font-family="FreeSans.ttf" font-size="10.00">stdarg.h</text>
</a>
</g>
</g>
<!-- Node2&#45;&gt;Node19 -->
<g id="edge27" class="edge">
<title>Node2&#45;&gt;Node19</title>
<path fill="none" stroke="midnightblue" d="M214.42,-224.44C188.96,-215.4 148.61,-201.06 120.04,-190.92"/>
<polygon fill="midnightblue" stroke="midnightblue" points="121.07,-187.57 110.47,-187.52 118.72,-194.16 121.07,-187.57"/>
</g>
<!-- Node7&#45;&gt;Node3 -->
<g id="edge9" class="edge">
<title>Node7&#45;&gt;Node3</title>
<path fill="none" stroke="midnightblue" d="M271.58,-56.44C235,-48.26 178.49,-35.28 121.11,-20.33"/>
<polygon fill="midnightblue" stroke="midnightblue" points="121.71,-16.87 111.15,-17.72 119.93,-23.64 121.71,-16.87"/>
</g>
<!-- Node7&#45;&gt;Node4 -->
<g id="edge10" class="edge">
<title>Node7&#45;&gt;Node4</title>
<path fill="none" stroke="midnightblue" d="M288.32,-56.44C265.07,-47.48 228.35,-33.31 202.08,-23.18"/>
<polygon fill="midnightblue" stroke="midnightblue" points="203.17,-19.85 192.58,-19.52 200.65,-26.38 203.17,-19.85"/>
</g>
<!-- Node7&#45;&gt;Node5 -->
<g id="edge8" class="edge">
<title>Node7&#45;&gt;Node5</title>
<path fill="none" stroke="midnightblue" d="M332.84,-56.44C356.25,-47.48 393.24,-33.31 419.69,-23.18"/>
<polygon fill="midnightblue" stroke="midnightblue" points="421.18,-26.36 429.26,-19.52 418.67,-19.82 421.18,-26.36"/>
</g>
<!-- Node8 -->
<g id="node8" class="node">
<title>Node8</title>
<g id="a_node8"><a xlink:title=" ">
<polygon fill="none" stroke="#bfbfbf" points="230,-0.5 230,-19.5 277,-19.5 277,-0.5 230,-0.5"/>
<text text-anchor="middle" x="253.5" y="-7.5" font-family="FreeSans.ttf" font-size="10.00">stdlib.h</text>
</a>
</g>
</g>
<!-- Node7&#45;&gt;Node8 -->
<g id="edge7" class="edge">
<title>Node7&#45;&gt;Node8</title>
<path fill="none" stroke="midnightblue" d="M301.34,-56.32C293,-48.42 280.47,-36.55 270.32,-26.94"/>
<polygon fill="midnightblue" stroke="midnightblue" points="272.49,-24.17 262.82,-19.83 267.68,-29.25 272.49,-24.17"/>
</g>
<!-- Node9 -->
<g id="node9" class="node">
<title>Node9</title>
<g id="a_node9"><a xlink:title=" ">
<polygon fill="none" stroke="#bfbfbf" points="492.5,-0.5 492.5,-19.5 552.5,-19.5 552.5,-0.5 492.5,-0.5"/>
<text text-anchor="middle" x="522.5" y="-7.5" font-family="FreeSans.ttf" font-size="10.00">config.hpp</text>
</a>
</g>
</g>
<!-- Node7&#45;&gt;Node9 -->
<g id="edge11" class="edge">
<title>Node7&#45;&gt;Node9</title>
<path fill="none" stroke="midnightblue" d="M344.09,-56.44C381.68,-46.87 442.55,-31.36 482.55,-21.18"/>
<polygon fill="midnightblue" stroke="midnightblue" points="483.67,-24.5 492.49,-18.64 481.94,-17.72 483.67,-24.5"/>
</g>
<!-- Node10 -->
<g id="node10" class="node">
<title>Node10</title>
<g id="a_node10"><a xlink:title=" ">
<polygon fill="none" stroke="#bfbfbf" points="669.5,-0.5 669.5,-19.5 713.5,-19.5 713.5,-0.5 669.5,-0.5"/>
<text text-anchor="middle" x="691.5" y="-7.5" font-family="FreeSans.ttf" font-size="10.00">cmath</text>
</a>
</g>
</g>
<!-- Node7&#45;&gt;Node10 -->
<g id="edge12" class="edge">
<title>Node7&#45;&gt;Node10</title>
<path fill="none" stroke="midnightblue" d="M364.28,-57.38C444.72,-45.98 593.91,-24.83 659.34,-15.56"/>
<polygon fill="midnightblue" stroke="midnightblue" points="660.05,-18.99 669.46,-14.12 659.07,-12.06 660.05,-18.99"/>
</g>
<!-- Node11 -->
<g id="node11" class="node">
<title>Node11</title>
<g id="a_node11"><a xlink:title=" ">
<polygon fill="none" stroke="#bfbfbf" points="295.5,-0.5 295.5,-19.5 341.5,-19.5 341.5,-0.5 295.5,-0.5"/>
<text text-anchor="middle" x="318.5" y="-7.5" font-family="FreeSans.ttf" font-size="10.00">math.h</text>
</a>
</g>
</g>
<!-- Node7&#45;&gt;Node11 -->
<g id="edge13" class="edge">
<title>Node7&#45;&gt;Node11</title>
<path fill="none" stroke="midnightblue" d="M311.82,-56.08C312.88,-48.93 314.41,-38.64 315.73,-29.69"/>
<polygon fill="midnightblue" stroke="midnightblue" points="319.2,-30.16 317.2,-19.75 312.28,-29.13 319.2,-30.16"/>
</g>
<!-- Node12 -->
<g id="node12" class="node">
<title>Node12</title>
<g id="a_node12"><a xlink:title=" ">
<polygon fill="none" stroke="#bfbfbf" points="360,-0.5 360,-19.5 411,-19.5 411,-0.5 360,-0.5"/>
<text text-anchor="middle" x="385.5" y="-7.5" font-family="FreeSans.ttf" font-size="10.00">assert.h</text>
</a>
</g>
</g>
<!-- Node7&#45;&gt;Node12 -->
<g id="edge14" class="edge">
<title>Node7&#45;&gt;Node12</title>
<path fill="none" stroke="midnightblue" d="M322.55,-56.32C333.96,-48.11 351.33,-35.6 364.93,-25.81"/>
<polygon fill="midnightblue" stroke="midnightblue" points="367.16,-28.52 373.23,-19.83 363.07,-22.84 367.16,-28.52"/>
</g>
<!-- Node13&#45;&gt;Node9 -->
<g id="edge23" class="edge">
<title>Node13&#45;&gt;Node9</title>
<path fill="none" stroke="midnightblue" d="M532.71,-168.47C517.17,-161.32 497.79,-149.44 488.5,-132 470.2,-97.66 493.89,-52.45 509.96,-28.17"/>
<polygon fill="midnightblue" stroke="midnightblue" points="513.02,-29.9 515.83,-19.69 507.26,-25.92 513.02,-29.9"/>
</g>
<!-- Node14 -->
<g id="node14" class="node">
<title>Node14</title>
<g id="a_node14"><a xlink:href="gpuNUFFT__types_8hpp.html" target="_top" xlink:title="Definition of gpuNUFFT defined types.">
<polygon fill="none" stroke="black" points="612.5,-112.5 612.5,-131.5 724.5,-131.5 724.5,-112.5 612.5,-112.5"/>
<text text-anchor="middle" x="668.5" y="-119.5" font-family="FreeSans.ttf" font-size="10.00">gpuNUFFT_types.hpp</text>
</a>
</g>
</g>
<!-- Node13&#45;&gt;Node14 -->
<g id="edge16" class="edge">
<title>Node13&#45;&gt;Node14</title>
<path fill="none" stroke="midnightblue" d="M573.41,-168.44C591.75,-159.68 620.51,-145.94 641.59,-135.86"/>
<polygon fill="midnightblue" stroke="midnightblue" points="643.17,-138.99 650.68,-131.52 640.15,-132.67 643.17,-138.99"/>
</g>
<!-- Node15 -->
<g id="node15" class="node">
<title>Node15</title>
<g id="a_node15"><a xlink:title=" ">
<polygon fill="none" stroke="#bfbfbf" points="700,-56.5 700,-75.5 745,-75.5 745,-56.5 700,-56.5"/>
<text text-anchor="middle" x="722.5" y="-63.5" font-family="FreeSans.ttf" font-size="10.00">cstdlib</text>
</a>
</g>
</g>
<!-- Node13&#45;&gt;Node15 -->
<g id="edge24" class="edge">
<title>Node13&#45;&gt;Node15</title>
<path fill="none" stroke="midnightblue" d="M617.93,-169.38C663.32,-162.41 719.2,-150.36 733.5,-132 743.91,-118.63 738.6,-98.98 732.27,-84.79"/>
<polygon fill="midnightblue" stroke="midnightblue" points="735.28,-82.98 727.69,-75.59 729.01,-86.1 735.28,-82.98"/>
</g>
<!-- Node16 -->
<g id="node16" class="node">
<title>Node16</title>
<g id="a_node16"><a xlink:title=" ">
<polygon fill="none" stroke="#bfbfbf" points="564.5,-56.5 564.5,-75.5 618.5,-75.5 618.5,-56.5 564.5,-56.5"/>
<text text-anchor="middle" x="591.5" y="-63.5" font-family="FreeSans.ttf" font-size="10.00">iostream</text>
</a>
</g>
</g>
<!-- Node13&#45;&gt;Node16 -->
<g id="edge25" class="edge">
<title>Node13&#45;&gt;Node16</title>
<path fill="none" stroke="midnightblue" d="M558.32,-168.37C564.16,-150.54 577.66,-109.3 585.52,-85.27"/>
<polygon fill="midnightblue" stroke="midnightblue" points="588.9,-86.18 588.69,-75.59 582.25,-84.01 588.9,-86.18"/>
</g>
<!-- Node17 -->
<g id="node17" class="node">
<title>Node17</title>
<g id="a_node17"><a xlink:href="gpuNUFFT__kernels_8hpp.html" target="_top" xlink:title="gpuNUFFT CUDA function prototypes">
<polygon fill="none" stroke="black" points="244.5,-112.5 244.5,-131.5 364.5,-131.5 364.5,-112.5 244.5,-112.5"/>
<text text-anchor="middle" x="304.5" y="-119.5" font-family="FreeSans.ttf" font-size="10.00">gpuNUFFT_kernels.hpp</text>
</a>
</g>
</g>
<!-- Node13&#45;&gt;Node17 -->
<g id="edge20" class="edge">
<title>Node13&#45;&gt;Node17</title>
<path fill="none" stroke="midnightblue" d="M515.73,-168.44C471.94,-159.02 401.49,-143.87 354.12,-133.68"/>
<polygon fill="midnightblue" stroke="midnightblue" points="354.6,-130.2 344.09,-131.52 353.13,-137.04 354.6,-130.2"/>
</g>
<!-- Node18 -->
<g id="node18" class="node">
<title>Node18</title>
<g id="a_node18"><a xlink:title=" ">
<polygon fill="none" stroke="#bfbfbf" points="497,-112.5 497,-131.5 556,-131.5 556,-112.5 497,-112.5"/>
<text text-anchor="middle" x="526.5" y="-119.5" font-family="FreeSans.ttf" font-size="10.00">functional</text>
</a>
</g>
</g>
<!-- Node13&#45;&gt;Node18 -->
<g id="edge26" class="edge">
<title>Node13&#45;&gt;Node18</title>
<path fill="none" stroke="midnightblue" d="M550.71,-168.08C546.74,-160.69 540.97,-149.95 536.07,-140.81"/>
<polygon fill="midnightblue" stroke="midnightblue" points="539.01,-138.91 531.2,-131.75 532.85,-142.22 539.01,-138.91"/>
</g>
<!-- Node14&#45;&gt;Node9 -->
<g id="edge19" class="edge">
<title>Node14&#45;&gt;Node9</title>
<path fill="none" stroke="midnightblue" d="M665.03,-112.25C659.18,-98.54 646.17,-71.94 627.5,-56 608.75,-40 583.45,-28.92 562.38,-21.77"/>
<polygon fill="midnightblue" stroke="midnightblue" points="563.32,-18.39 552.73,-18.66 561.18,-25.06 563.32,-18.39"/>
</g>
<!-- Node14&#45;&gt;Node15 -->
<g id="edge17" class="edge">
<title>Node14&#45;&gt;Node15</title>
<path fill="none" stroke="midnightblue" d="M677.42,-112.08C685.28,-104.22 696.93,-92.57 706.42,-83.08"/>
<polygon fill="midnightblue" stroke="midnightblue" points="709.15,-85.3 713.75,-75.75 704.2,-80.35 709.15,-85.3"/>
</g>
<!-- Node14&#45;&gt;Node16 -->
<g id="edge18" class="edge">
<title>Node14&#45;&gt;Node16</title>
<path fill="none" stroke="midnightblue" d="M656.13,-112.32C644.34,-104.06 626.37,-91.45 612.36,-81.63"/>
<polygon fill="midnightblue" stroke="midnightblue" points="614.04,-78.53 603.84,-75.65 610.02,-84.26 614.04,-78.53"/>
</g>
<!-- Node17&#45;&gt;Node2 -->
<g id="edge21" class="edge">
<title>Node17&#45;&gt;Node2</title>
<path fill="none" stroke="midnightblue" d="M299.35,-131.59C288.52,-149.63 263.25,-191.74 248.92,-215.64"/>
<polygon fill="midnightblue" stroke="midnightblue" points="245.82,-213.99 243.68,-224.37 251.83,-217.59 245.82,-213.99"/>
</g>
<!-- Node17&#45;&gt;Node7 -->
<g id="edge22" class="edge">
<title>Node17&#45;&gt;Node7</title>
<path fill="none" stroke="midnightblue" d="M305.49,-112.08C306.29,-104.93 307.43,-94.64 308.42,-85.69"/>
<polygon fill="midnightblue" stroke="midnightblue" points="311.9,-86.08 309.53,-75.75 304.94,-85.3 311.9,-86.08"/>
</g>
<!-- Node20&#45;&gt;Node2 -->
<g id="edge30" class="edge">
<title>Node20&#45;&gt;Node2</title>
<path fill="none" stroke="midnightblue" d="M507.7,-280.86C448.51,-270.77 348.19,-253.68 288.15,-243.46"/>
<polygon fill="midnightblue" stroke="midnightblue" points="288.6,-239.98 278.16,-241.76 287.43,-246.88 288.6,-239.98"/>
</g>
<!-- Node20&#45;&gt;Node7 -->
<g id="edge32" class="edge">
<title>Node20&#45;&gt;Node7</title>
<path fill="none" stroke="midnightblue" d="M547.57,-280.42C522.97,-253.98 445.22,-171.9 373.5,-112 360.38,-101.05 344.76,-89.87 332.35,-81.4"/>
<polygon fill="midnightblue" stroke="midnightblue" points="334.21,-78.44 323.96,-75.75 330.3,-84.24 334.21,-78.44"/>
</g>
<!-- Node20&#45;&gt;Node10 -->
<g id="edge33" class="edge">
<title>Node20&#45;&gt;Node10</title>
<path fill="none" stroke="midnightblue" d="M574.04,-280.43C614.21,-260.75 708.94,-208.09 749.5,-132 765.42,-102.13 769.99,-86.1 754.5,-56 747.42,-42.25 733.98,-31.77 721.32,-24.39"/>
<polygon fill="midnightblue" stroke="midnightblue" points="722.81,-21.22 712.35,-19.57 719.5,-27.39 722.81,-21.22"/>
</g>
<!-- Node20&#45;&gt;Node13 -->
<g id="edge31" class="edge">
<title>Node20&#45;&gt;Node13</title>
<path fill="none" stroke="midnightblue" d="M555.5,-280.37C555.5,-262.62 555.5,-221.67 555.5,-197.6"/>
<polygon fill="midnightblue" stroke="midnightblue" points="559,-197.59 555.5,-187.59 552,-197.59 559,-197.59"/>
</g>
</g>
</svg>
