<?xml version="1.0" encoding="UTF-8" standalone="no"?>
<!DOCTYPE svg PUBLIC "-//W3C//DTD SVG 1.1//EN"
 "http://www.w3.org/Graphics/SVG/1.1/DTD/svg11.dtd">
<!-- Generated by graphviz version 2.49.3 (20211027.1534)
 -->
<!-- Title: CUDA/inc/precomp_utils.hpp Pages: 1 -->
<svg width="1482pt" height="218pt"
 viewBox="0.00 0.00 1482.00 218.00" xmlns="http://www.w3.org/2000/svg" xmlns:xlink="http://www.w3.org/1999/xlink">
<g id="graph0" class="graph" transform="scale(1 1) rotate(0) translate(4 214)">
<title>CUDA/inc/precomp_utils.hpp</title>
<!-- Node1 -->
<g id="node1" class="node">
<title>Node1</title>
<g id="a_node1"><a xlink:title="UTIL functions for precomputation.">
<polygon fill="#bfbfbf" stroke="black" points="374.5,-190.5 374.5,-209.5 516.5,-209.5 516.5,-190.5 374.5,-190.5"/>
<text text-anchor="middle" x="445.5" y="-197.5" font-family="FreeSans.ttf" font-size="10.00">CUDA/inc/precomp_utils.hpp</text>
</a>
</g>
</g>
<!-- Node2 -->
<g id="node2" class="node">
<title>Node2</title>
<g id="a_node2"><a xlink:href="gpuNUFFT__operator__factory_8hpp.html" target="_top" xlink:title=" ">
<polygon fill="none" stroke="black" points="630.5,-123.5 630.5,-153.5 782.5,-153.5 782.5,-123.5 630.5,-123.5"/>
<text text-anchor="start" x="638.5" y="-141.5" font-family="FreeSans.ttf" font-size="10.00">CUDA/inc/gpuNUFFT_operator</text>
<text text-anchor="middle" x="706.5" y="-130.5" font-family="FreeSans.ttf" font-size="10.00">_factory.hpp</text>
</a>
</g>
</g>
<!-- Node1&#45;&gt;Node2 -->
<g id="edge1" class="edge">
<title>Node1&#45;&gt;Node2</title>
<path fill="none" stroke="midnightblue" d="M492.74,-188.23C535.39,-178.51 598.42,-164.14 644.99,-153.52"/>
<polygon fill="midnightblue" stroke="midnightblue" points="491.87,-184.84 482.89,-190.48 493.42,-191.66 491.87,-184.84"/>
</g>
<!-- Node13 -->
<g id="node13" class="node">
<title>Node13</title>
<g id="a_node13"><a xlink:href="precomp__kernels_8hpp.html" target="_top" xlink:title="GPU Kernels for Precomputation (sector assignment)">
<polygon fill="none" stroke="black" points="188,-129 188,-148 343,-148 343,-129 188,-129"/>
<text text-anchor="middle" x="265.5" y="-136" font-family="FreeSans.ttf" font-size="10.00">CUDA/inc/precomp_kernels.hpp</text>
</a>
</g>
</g>
<!-- Node1&#45;&gt;Node13 -->
<g id="edge15" class="edge">
<title>Node1&#45;&gt;Node13</title>
<path fill="none" stroke="midnightblue" d="M409.9,-187.23C374.91,-175.67 322.36,-158.3 291.24,-148.01"/>
<polygon fill="midnightblue" stroke="midnightblue" points="409.12,-190.66 419.71,-190.48 411.31,-184.01 409.12,-190.66"/>
</g>
<!-- Node3 -->
<g id="node3" class="node">
<title>Node3</title>
<g id="a_node3"><a xlink:href="gpuNUFFT__operator__factory_8cpp.html" target="_top" xlink:title=" ">
<polygon fill="none" stroke="black" points="189,-56.5 189,-86.5 342,-86.5 342,-56.5 189,-56.5"/>
<text text-anchor="start" x="197" y="-74.5" font-family="FreeSans.ttf" font-size="10.00">CUDA/src/gpuNUFFT_operator</text>
<text text-anchor="middle" x="265.5" y="-63.5" font-family="FreeSans.ttf" font-size="10.00">_factory.cpp</text>
</a>
</g>
</g>
<!-- Node2&#45;&gt;Node3 -->
<g id="edge2" class="edge">
<title>Node2&#45;&gt;Node3</title>
<path fill="none" stroke="midnightblue" d="M620.11,-125.4C549.24,-115.38 446.32,-100.63 356.5,-87 351.91,-86.3 347.2,-85.58 342.44,-84.84"/>
<polygon fill="midnightblue" stroke="midnightblue" points="619.93,-128.91 630.33,-126.84 620.91,-121.97 619.93,-128.91"/>
</g>
<!-- Node4 -->
<g id="node4" class="node">
<title>Node4</title>
<g id="a_node4"><a xlink:href="gpuNUFFT__forward__tests_8cpp.html" target="_top" xlink:title=" ">
<polygon fill="none" stroke="black" points="551,-56.5 551,-86.5 702,-86.5 702,-56.5 551,-56.5"/>
<text text-anchor="start" x="559" y="-74.5" font-family="FreeSans.ttf" font-size="10.00">CUDA/test/gpu/forward</text>
<text text-anchor="middle" x="626.5" y="-63.5" font-family="FreeSans.ttf" font-size="10.00">/gpuNUFFT_forward_tests.cpp</text>
</a>
</g>
</g>
<!-- Node2&#45;&gt;Node4 -->
<g id="edge3" class="edge">
<title>Node2&#45;&gt;Node4</title>
<path fill="none" stroke="midnightblue" d="M681.13,-116.88C668.97,-107.01 654.72,-95.43 643.82,-86.58"/>
<polygon fill="midnightblue" stroke="midnightblue" points="679.17,-119.81 689.14,-123.4 683.59,-114.37 679.17,-119.81"/>
</g>
<!-- Node5 -->
<g id="node5" class="node">
<title>Node5</title>
<g id="a_node5"><a xlink:href="gpuNUFFT__2D__conv__tests_8cpp.html" target="_top" xlink:title=" ">
<polygon fill="none" stroke="black" points="720.5,-56.5 720.5,-86.5 854.5,-86.5 854.5,-56.5 720.5,-56.5"/>
<text text-anchor="start" x="728.5" y="-74.5" font-family="FreeSans.ttf" font-size="10.00">CUDA/test/gpu/gpuNUFFT</text>
<text text-anchor="middle" x="787.5" y="-63.5" font-family="FreeSans.ttf" font-size="10.00">_2D_conv_tests.cpp</text>
</a>
</g>
</g>
<!-- Node2&#45;&gt;Node5 -->
<g id="edge4" class="edge">
<title>Node2&#45;&gt;Node5</title>
<path fill="none" stroke="midnightblue" d="M732.19,-116.88C744.5,-107.01 758.93,-95.43 769.96,-86.58"/>
<polygon fill="midnightblue" stroke="midnightblue" points="729.68,-114.41 724.08,-123.4 734.07,-119.87 729.68,-114.41"/>
</g>
<!-- Node6 -->
<g id="node6" class="node">
<title>Node6</title>
<g id="a_node6"><a xlink:href="gpuNUFFT__conv__tests_8cpp.html" target="_top" xlink:title=" ">
<polygon fill="none" stroke="black" points="872.5,-56.5 872.5,-86.5 1006.5,-86.5 1006.5,-56.5 872.5,-56.5"/>
<text text-anchor="start" x="880.5" y="-74.5" font-family="FreeSans.ttf" font-size="10.00">CUDA/test/gpu/gpuNUFFT</text>
<text text-anchor="middle" x="939.5" y="-63.5" font-family="FreeSans.ttf" font-size="10.00">_conv_tests.cpp</text>
</a>
</g>
</g>
<!-- Node2&#45;&gt;Node6 -->
<g id="edge5" class="edge">
<title>Node2&#45;&gt;Node6</title>
<path fill="none" stroke="midnightblue" d="M766.67,-120.71C804.58,-110.14 852.99,-96.63 888.92,-86.61"/>
<polygon fill="midnightblue" stroke="midnightblue" points="765.46,-117.42 756.77,-123.48 767.34,-124.16 765.46,-117.42"/>
</g>
<!-- Node7 -->
<g id="node7" class="node">
<title>Node7</title>
<g id="a_node7"><a xlink:href="gpuNUFFT__deapo__tests_8cpp.html" target="_top" xlink:title=" ">
<polygon fill="none" stroke="black" points="1024.5,-56.5 1024.5,-86.5 1158.5,-86.5 1158.5,-56.5 1024.5,-56.5"/>
<text text-anchor="start" x="1032.5" y="-74.5" font-family="FreeSans.ttf" font-size="10.00">CUDA/test/gpu/gpuNUFFT</text>
<text text-anchor="middle" x="1091.5" y="-63.5" font-family="FreeSans.ttf" font-size="10.00">_deapo_tests.cpp</text>
</a>
</g>
</g>
<!-- Node2&#45;&gt;Node7 -->
<g id="edge6" class="edge">
<title>Node2&#45;&gt;Node7</title>
<path fill="none" stroke="midnightblue" d="M792.92,-124C854.94,-114.17 940.46,-100.29 1015.5,-87 1018.41,-86.48 1021.38,-85.95 1024.38,-85.41"/>
<polygon fill="midnightblue" stroke="midnightblue" points="792.12,-120.59 782.79,-125.61 793.21,-127.5 792.12,-120.59"/>
</g>
<!-- Node8 -->
<g id="node8" class="node">
<title>Node8</title>
<g id="a_node8"><a xlink:href="gpuNUFFT__fft__tests_8cpp.html" target="_top" xlink:title=" ">
<polygon fill="none" stroke="black" points="1176.5,-56.5 1176.5,-86.5 1310.5,-86.5 1310.5,-56.5 1176.5,-56.5"/>
<text text-anchor="start" x="1184.5" y="-74.5" font-family="FreeSans.ttf" font-size="10.00">CUDA/test/gpu/gpuNUFFT</text>
<text text-anchor="middle" x="1243.5" y="-63.5" font-family="FreeSans.ttf" font-size="10.00">_fft_tests.cpp</text>
</a>
</g>
</g>
<!-- Node2&#45;&gt;Node8 -->
<g id="edge7" class="edge">
<title>Node2&#45;&gt;Node8</title>
<path fill="none" stroke="midnightblue" d="M792.79,-130.11C885.61,-121.68 1037.41,-106.5 1167.5,-87 1170.42,-86.56 1173.4,-86.09 1176.41,-85.6"/>
<polygon fill="midnightblue" stroke="midnightblue" points="792.25,-126.64 782.6,-131.03 792.88,-133.62 792.25,-126.64"/>
</g>
<!-- Node9 -->
<g id="node9" class="node">
<title>Node9</title>
<g id="a_node9"><a xlink:href="python__factory_8hpp.html" target="_top" xlink:title=" ">
<polygon fill="none" stroke="black" points="1329,-62 1329,-81 1474,-81 1474,-62 1329,-62"/>
<text text-anchor="middle" x="1401.5" y="-69" font-family="FreeSans.ttf" font-size="10.00">python/inc/python_factory.hpp</text>
</a>
</g>
</g>
<!-- Node2&#45;&gt;Node9 -->
<g id="edge8" class="edge">
<title>Node2&#45;&gt;Node9</title>
<path fill="none" stroke="midnightblue" d="M792.85,-132.92C911.76,-126.04 1132.47,-111.19 1319.5,-87 1331.97,-85.39 1345.44,-83.2 1357.78,-81.01"/>
<polygon fill="midnightblue" stroke="midnightblue" points="792.5,-129.43 782.71,-133.5 792.9,-136.42 792.5,-129.43"/>
</g>
<!-- Node11 -->
<g id="node11" class="node">
<title>Node11</title>
<g id="a_node11"><a xlink:href="python__factory_8cpp.html" target="_top" xlink:title=" ">
<polygon fill="none" stroke="black" points="392.5,-0.5 392.5,-19.5 538.5,-19.5 538.5,-0.5 392.5,-0.5"/>
<text text-anchor="middle" x="465.5" y="-7.5" font-family="FreeSans.ttf" font-size="10.00">python/src/python_factory.cpp</text>
</a>
</g>
</g>
<!-- Node2&#45;&gt;Node11 -->
<g id="edge14" class="edge">
<title>Node2&#45;&gt;Node11</title>
<path fill="none" stroke="midnightblue" d="M620.27,-135.91C536.78,-132.33 418.66,-121.17 389.5,-87 380.56,-76.52 382.68,-67.97 389.5,-56 399.75,-38.02 420.33,-26.49 437.48,-19.6"/>
<polygon fill="midnightblue" stroke="midnightblue" points="620.14,-139.41 630.28,-136.31 620.42,-132.41 620.14,-139.41"/>
</g>
<!-- Node12 -->
<g id="node12" class="node">
<title>Node12</title>
<g id="a_node12"><a xlink:href="python__utils_8hpp.html" target="_top" xlink:title=" ">
<polygon fill="none" stroke="black" points="398.5,-62 398.5,-81 532.5,-81 532.5,-62 398.5,-62"/>
<text text-anchor="middle" x="465.5" y="-69" font-family="FreeSans.ttf" font-size="10.00">python/inc/python_utils.hpp</text>
</a>
</g>
</g>
<!-- Node2&#45;&gt;Node12 -->
<g id="edge11" class="edge">
<title>Node2&#45;&gt;Node12</title>
<path fill="none" stroke="midnightblue" d="M644.69,-120.83C597.53,-108.11 534.49,-91.11 497.12,-81.03"/>
<polygon fill="midnightblue" stroke="midnightblue" points="643.94,-124.25 654.5,-123.48 645.76,-117.49 643.94,-124.25"/>
</g>
<!-- Node10 -->
<g id="node10" class="node">
<title>Node10</title>
<g id="a_node10"><a xlink:href="python__bindings_8cpp.html" target="_top" xlink:title=" ">
<polygon fill="none" stroke="black" points="940.5,-0.5 940.5,-19.5 1092.5,-19.5 1092.5,-0.5 940.5,-0.5"/>
<text text-anchor="middle" x="1016.5" y="-7.5" font-family="FreeSans.ttf" font-size="10.00">python/src/python_bindings.cpp</text>
</a>
</g>
</g>
<!-- Node9&#45;&gt;Node10 -->
<g id="edge9" class="edge">
<title>Node9&#45;&gt;Node10</title>
<path fill="none" stroke="midnightblue" d="M1344.85,-60.27C1336.36,-58.8 1327.7,-57.33 1319.5,-56 1235.64,-42.36 1138.46,-28.22 1077.23,-19.52"/>
<polygon fill="midnightblue" stroke="midnightblue" points="1344.25,-63.72 1354.71,-62 1345.46,-56.83 1344.25,-63.72"/>
</g>
<!-- Node9&#45;&gt;Node11 -->
<g id="edge10" class="edge">
<title>Node9&#45;&gt;Node11</title>
<path fill="none" stroke="midnightblue" d="M1349.06,-60.24C1339.26,-58.61 1329.09,-57.1 1319.5,-56 1031.67,-23.09 686.47,-14.21 538.58,-11.84"/>
<polygon fill="midnightblue" stroke="midnightblue" points="1348.63,-63.72 1359.08,-61.98 1349.83,-56.83 1348.63,-63.72"/>
</g>
<!-- Node12&#45;&gt;Node10 -->
<g id="edge12" class="edge">
<title>Node12&#45;&gt;Node10</title>
<path fill="none" stroke="midnightblue" d="M516.83,-60.16C525.38,-58.63 534.17,-57.18 542.5,-56 682.26,-36.25 846.45,-22.83 940.31,-16.08"/>
<polygon fill="midnightblue" stroke="midnightblue" points="516.15,-56.73 506.94,-61.98 517.41,-63.61 516.15,-56.73"/>
</g>
<!-- Node12&#45;&gt;Node11 -->
<g id="edge13" class="edge">
<title>Node12&#45;&gt;Node11</title>
<path fill="none" stroke="midnightblue" d="M465.5,-51.82C465.5,-41 465.5,-27.9 465.5,-19.51"/>
<polygon fill="midnightblue" stroke="midnightblue" points="462,-51.98 465.5,-61.98 469,-51.98 462,-51.98"/>
</g>
<!-- Node13&#45;&gt;Node3 -->
<g id="edge17" class="edge">
<title>Node13&#45;&gt;Node3</title>
<path fill="none" stroke="midnightblue" d="M265.5,-118.41C265.5,-108.22 265.5,-95.9 265.5,-86.59"/>
<polygon fill="midnightblue" stroke="midnightblue" points="262,-118.73 265.5,-128.73 269,-118.73 262,-118.73"/>
</g>
<!-- Node14 -->
<g id="node14" class="node">
<title>Node14</title>
<g id="a_node14"><a xlink:href="gpuNUFFT__operator_8cpp.html" target="_top" xlink:title=" ">
<polygon fill="none" stroke="black" points="0,-62 0,-81 171,-81 171,-62 0,-62"/>
<text text-anchor="middle" x="85.5" y="-69" font-family="FreeSans.ttf" font-size="10.00">CUDA/src/gpuNUFFT_operator.cpp</text>
</a>
</g>
</g>
<!-- Node13&#45;&gt;Node14 -->
<g id="edge16" class="edge">
<title>Node13&#45;&gt;Node14</title>
<path fill="none" stroke="midnightblue" d="M232.09,-125.44C196.38,-112.54 140.67,-92.42 109.21,-81.06"/>
<polygon fill="midnightblue" stroke="midnightblue" points="231,-128.76 241.6,-128.87 233.38,-122.18 231,-128.76"/>
</g>
</g>
</svg>
