<?xml version="1.0" encoding="UTF-8" standalone="no"?>
<!DOCTYPE svg PUBLIC "-//W3C//DTD SVG 1.1//EN"
 "http://www.w3.org/Graphics/SVG/1.1/DTD/svg11.dtd">
<!-- Generated by graphviz version 2.49.3 (20211027.1534)
 -->
<!-- Title: computeXY2Lin Pages: 1 -->
<svg width="295pt" height="78pt"
 viewBox="0.00 0.00 295.00 77.50" xmlns="http://www.w3.org/2000/svg" xmlns:xlink="http://www.w3.org/1999/xlink">
<g id="graph0" class="graph" transform="scale(1 1) rotate(0) translate(4 73.5)">
<title>computeXY2Lin</title>
<!-- Node1 -->
<g id="node1" class="node">
<title>Node1</title>
<g id="a_node1"><a xlink:title="Compute linear index from 2&#45;d point in grid defined by dim.">
<polygon fill="#bfbfbf" stroke="black" points="201,-22.5 201,-41.5 287,-41.5 287,-22.5 201,-22.5"/>
<text text-anchor="middle" x="244" y="-29.5" font-family="FreeSans.ttf" font-size="10.00">computeXY2Lin</text>
</a>
</g>
</g>
<!-- Node2 -->
<g id="node2" class="node">
<title>Node2</title>
<g id="a_node2"><a xlink:href="classgpuNUFFT_1_1GpuNUFFTOperatorFactory.html#a65d596418c34d74d383addd455469b5a" target="_top" xlink:title="Compute 2&#45;d sector centers array.">
<polygon fill="none" stroke="black" points="0,-39 0,-69 165,-69 165,-39 0,-39"/>
<text text-anchor="start" x="8" y="-57" font-family="FreeSans.ttf" font-size="10.00">gpuNUFFT::GpuNUFFTOperator</text>
<text text-anchor="middle" x="82.5" y="-46" font-family="FreeSans.ttf" font-size="10.00">Factory::computeSectorCenters2D</text>
</a>
</g>
</g>
<!-- Node1&#45;&gt;Node2 -->
<g id="edge1" class="edge">
<title>Node1&#45;&gt;Node2</title>
<path fill="none" stroke="midnightblue" d="M190.6,-39.23C182.44,-40.35 173.84,-41.54 165.22,-42.73"/>
<polygon fill="midnightblue" stroke="midnightblue" points="191.25,-42.67 200.68,-37.84 190.29,-35.74 191.25,-42.67"/>
</g>
<!-- Node3 -->
<g id="node3" class="node">
<title>Node3</title>
<g id="a_node3"><a xlink:href="gpuNUFFT__2D__conv__tests_8cpp.html#a0cdecca403a6734c8b85381c7980245c" target="_top" xlink:title=" ">
<polygon fill="none" stroke="black" points="62,-0.5 62,-19.5 103,-19.5 103,-0.5 62,-0.5"/>
<text text-anchor="middle" x="82.5" y="-7.5" font-family="FreeSans.ttf" font-size="10.00">TEST</text>
</a>
</g>
</g>
<!-- Node1&#45;&gt;Node3 -->
<g id="edge2" class="edge">
<title>Node1&#45;&gt;Node3</title>
<path fill="none" stroke="midnightblue" d="M190.38,-24.74C160.52,-20.62 124.88,-15.71 103.24,-12.72"/>
<polygon fill="midnightblue" stroke="midnightblue" points="190.29,-28.26 200.68,-26.16 191.25,-21.33 190.29,-28.26"/>
</g>
</g>
</svg>
