<?xml version="1.0" encoding="UTF-8" standalone="no"?>
<!DOCTYPE svg PUBLIC "-//W3C//DTD SVG 1.1//EN"
 "http://www.w3.org/Graphics/SVG/1.1/DTD/svg11.dtd">
<!-- Generated by graphviz version 2.49.3 (20211027.1534)
 -->
<!-- Title: CUDA/inc/precomp_utils.hpp Pages: 1 -->
<svg width="772pt" height="308pt"
 viewBox="0.00 0.00 771.50 308.00" xmlns="http://www.w3.org/2000/svg" xmlns:xlink="http://www.w3.org/1999/xlink">
<g id="graph0" class="graph" transform="scale(1 1) rotate(0) translate(4 304)">
<title>CUDA/inc/precomp_utils.hpp</title>
<!-- Node1 -->
<g id="node1" class="node">
<title>Node1</title>
<g id="a_node1"><a xlink:title="UTIL functions for precomputation.">
<polygon fill="#bfbfbf" stroke="black" points="364.5,-280.5 364.5,-299.5 506.5,-299.5 506.5,-280.5 364.5,-280.5"/>
<text text-anchor="middle" x="435.5" y="-287.5" font-family="FreeSans.ttf" font-size="10.00">CUDA/inc/precomp_utils.hpp</text>
</a>
</g>
</g>
<!-- Node2 -->
<g id="node2" class="node">
<title>Node2</title>
<g id="a_node2"><a xlink:href="cuda__utils_8hpp.html" target="_top" xlink:title="Util functions for CUDA memory and texture management.">
<polygon fill="none" stroke="black" points="194,-224.5 194,-243.5 273,-243.5 273,-224.5 194,-224.5"/>
<text text-anchor="middle" x="233.5" y="-231.5" font-family="FreeSans.ttf" font-size="10.00">cuda_utils.hpp</text>
</a>
</g>
</g>
<!-- Node1&#45;&gt;Node2 -->
<g id="edge1" class="edge">
<title>Node1&#45;&gt;Node2</title>
<path fill="none" stroke="midnightblue" d="M403.49,-280.44C368.77,-271.16 313.21,-256.31 275.12,-246.13"/>
<polygon fill="midnightblue" stroke="midnightblue" points="275.92,-242.72 265.36,-243.52 274.11,-249.48 275.92,-242.72"/>
</g>
<!-- Node7 -->
<g id="node7" class="node">
<title>Node7</title>
<g id="a_node7"><a xlink:href="gpuNUFFT__utils_8hpp.html" target="_top" xlink:title="Definition of util functions used in gridding operations.">
<polygon fill="none" stroke="black" points="212,-56.5 212,-75.5 319,-75.5 319,-56.5 212,-56.5"/>
<text text-anchor="middle" x="265.5" y="-63.5" font-family="FreeSans.ttf" font-size="10.00">gpuNUFFT_utils.hpp</text>
</a>
</g>
</g>
<!-- Node1&#45;&gt;Node7 -->
<g id="edge29" class="edge">
<title>Node1&#45;&gt;Node7</title>
<path fill="none" stroke="midnightblue" d="M429.43,-280.49C414.5,-259.86 374.23,-206.1 333.5,-168 313.76,-149.54 300,-154.14 284.5,-132 274.91,-118.31 270.11,-99.77 267.74,-86"/>
<polygon fill="midnightblue" stroke="midnightblue" points="271.16,-85.16 266.27,-75.76 264.23,-86.16 271.16,-85.16"/>
</g>
<!-- Node10 -->
<g id="node10" class="node">
<title>Node10</title>
<g id="a_node10"><a xlink:title=" ">
<polygon fill="none" stroke="#bfbfbf" points="623.5,-0.5 623.5,-19.5 667.5,-19.5 667.5,-0.5 623.5,-0.5"/>
<text text-anchor="middle" x="645.5" y="-7.5" font-family="FreeSans.ttf" font-size="10.00">cmath</text>
</a>
</g>
</g>
<!-- Node1&#45;&gt;Node10 -->
<g id="edge30" class="edge">
<title>Node1&#45;&gt;Node10</title>
<path fill="none" stroke="midnightblue" d="M501.48,-280.5C597.26,-266.28 763.5,-233.73 763.5,-179 763.5,-179 763.5,-179 763.5,-121 763.5,-73.51 711.73,-40.67 676.78,-23.91"/>
<polygon fill="midnightblue" stroke="midnightblue" points="677.97,-20.61 667.42,-19.61 675.04,-26.97 677.97,-20.61"/>
</g>
<!-- Node13 -->
<g id="node13" class="node">
<title>Node13</title>
<g id="a_node13"><a xlink:href="gpuNUFFT__operator_8hpp.html" target="_top" xlink:title=" ">
<polygon fill="none" stroke="black" points="418.5,-168.5 418.5,-187.5 542.5,-187.5 542.5,-168.5 418.5,-168.5"/>
<text text-anchor="middle" x="480.5" y="-175.5" font-family="FreeSans.ttf" font-size="10.00">gpuNUFFT_operator.hpp</text>
</a>
</g>
</g>
<!-- Node1&#45;&gt;Node13 -->
<g id="edge28" class="edge">
<title>Node1&#45;&gt;Node13</title>
<path fill="none" stroke="midnightblue" d="M439.03,-280.37C446.36,-262.46 463.35,-220.92 473.16,-196.95"/>
<polygon fill="midnightblue" stroke="midnightblue" points="476.44,-198.17 476.99,-187.59 469.96,-195.52 476.44,-198.17"/>
</g>
<!-- Node3 -->
<g id="node3" class="node">
<title>Node3</title>
<g id="a_node3"><a xlink:title=" ">
<polygon fill="none" stroke="#bfbfbf" points="164,-0.5 164,-19.5 209,-19.5 209,-0.5 164,-0.5"/>
<text text-anchor="middle" x="186.5" y="-7.5" font-family="FreeSans.ttf" font-size="10.00">cuda.h</text>
</a>
</g>
</g>
<!-- Node2&#45;&gt;Node3 -->
<g id="edge2" class="edge">
<title>Node2&#45;&gt;Node3</title>
<path fill="none" stroke="midnightblue" d="M223.89,-224.43C215.26,-216.09 203.12,-202.56 197.5,-188 176.57,-133.79 180.52,-63.3 184.05,-30"/>
<polygon fill="midnightblue" stroke="midnightblue" points="187.55,-30.21 185.23,-19.87 180.59,-29.39 187.55,-30.21"/>
</g>
<!-- Node4 -->
<g id="node4" class="node">
<title>Node4</title>
<g id="a_node4"><a xlink:title=" ">
<polygon fill="none" stroke="#bfbfbf" points="0,-0.5 0,-19.5 83,-19.5 83,-0.5 0,-0.5"/>
<text text-anchor="middle" x="41.5" y="-7.5" font-family="FreeSans.ttf" font-size="10.00">cuda_runtime.h</text>
</a>
</g>
</g>
<!-- Node2&#45;&gt;Node4 -->
<g id="edge3" class="edge">
<title>Node2&#45;&gt;Node4</title>
<path fill="none" stroke="midnightblue" d="M219.5,-224.41C206.5,-216.04 187.03,-202.51 172.5,-188 120.3,-135.88 72.37,-61.77 51.92,-28.44"/>
<polygon fill="midnightblue" stroke="midnightblue" points="54.87,-26.55 46.7,-19.81 48.89,-30.18 54.87,-26.55"/>
</g>
<!-- Node5 -->
<g id="node5" class="node">
<title>Node5</title>
<g id="a_node5"><a xlink:title=" ">
<polygon fill="none" stroke="#bfbfbf" points="101,-0.5 101,-19.5 146,-19.5 146,-0.5 101,-0.5"/>
<text text-anchor="middle" x="123.5" y="-7.5" font-family="FreeSans.ttf" font-size="10.00">stdio.h</text>
</a>
</g>
</g>
<!-- Node2&#45;&gt;Node5 -->
<g id="edge4" class="edge">
<title>Node2&#45;&gt;Node5</title>
<path fill="none" stroke="midnightblue" d="M222.24,-224.47C211.95,-216.16 196.93,-202.66 187.5,-188 153.83,-135.66 134.83,-63.22 127.31,-29.57"/>
<polygon fill="midnightblue" stroke="midnightblue" points="130.72,-28.77 125.2,-19.73 123.88,-30.24 130.72,-28.77"/>
</g>
<!-- Node6 -->
<g id="node6" class="node">
<title>Node6</title>
<g id="a_node6"><a xlink:title=" ">
<polygon fill="none" stroke="#bfbfbf" points="212,-168.5 212,-187.5 255,-187.5 255,-168.5 212,-168.5"/>
<text text-anchor="middle" x="233.5" y="-175.5" font-family="FreeSans.ttf" font-size="10.00">cufft.h</text>
</a>
</g>
</g>
<!-- Node2&#45;&gt;Node6 -->
<g id="edge5" class="edge">
<title>Node2&#45;&gt;Node6</title>
<path fill="none" stroke="midnightblue" d="M233.5,-224.08C233.5,-217.01 233.5,-206.86 233.5,-197.99"/>
<polygon fill="midnightblue" stroke="midnightblue" points="237,-197.75 233.5,-187.75 230,-197.75 237,-197.75"/>
</g>
<!-- Node2&#45;&gt;Node7 -->
<g id="edge6" class="edge">
<title>Node2&#45;&gt;Node7</title>
<path fill="none" stroke="midnightblue" d="M225.29,-224.18C217.96,-215.66 207.74,-202.02 203.5,-188 200.92,-179.49 201.08,-176.55 203.5,-168 212.77,-135.18 236.03,-102.52 251.27,-83.57"/>
<polygon fill="midnightblue" stroke="midnightblue" points="254.15,-85.59 257.83,-75.65 248.75,-81.13 254.15,-85.59"/>
</g>
<!-- Node2&#45;&gt;Node13 -->
<g id="edge15" class="edge">
<title>Node2&#45;&gt;Node13</title>
<path fill="none" stroke="midnightblue" d="M272.64,-224.44C315.73,-215.02 385.06,-199.87 431.67,-189.68"/>
<polygon fill="midnightblue" stroke="midnightblue" points="432.52,-193.07 441.55,-187.52 431.03,-186.23 432.52,-193.07"/>
</g>
<!-- Node19 -->
<g id="node19" class="node">
<title>Node19</title>
<g id="a_node19"><a xlink:title=" ">
<polygon fill="none" stroke="#bfbfbf" points="273,-168.5 273,-187.5 324,-187.5 324,-168.5 273,-168.5"/>
<text text-anchor="middle" x="298.5" y="-175.5" font-family="FreeSans.ttf" font-size="10.00">stdarg.h</text>
</a>
</g>
</g>
<!-- Node2&#45;&gt;Node19 -->
<g id="edge27" class="edge">
<title>Node2&#45;&gt;Node19</title>
<path fill="none" stroke="midnightblue" d="M243.94,-224.32C253.65,-216.26 268.32,-204.08 280,-194.37"/>
<polygon fill="midnightblue" stroke="midnightblue" points="282.41,-196.92 287.87,-187.83 277.94,-191.53 282.41,-196.92"/>
</g>
<!-- Node7&#45;&gt;Node3 -->
<g id="edge9" class="edge">
<title>Node7&#45;&gt;Node3</title>
<path fill="none" stroke="midnightblue" d="M252.81,-56.32C240.6,-47.98 221.92,-35.21 207.5,-25.35"/>
<polygon fill="midnightblue" stroke="midnightblue" points="209.39,-22.41 199.16,-19.65 205.44,-28.19 209.39,-22.41"/>
</g>
<!-- Node7&#45;&gt;Node4 -->
<g id="edge10" class="edge">
<title>Node7&#45;&gt;Node4</title>
<path fill="none" stroke="midnightblue" d="M230.01,-56.44C191.18,-47.08 128.84,-32.06 86.58,-21.87"/>
<polygon fill="midnightblue" stroke="midnightblue" points="87.37,-18.46 76.83,-19.52 85.73,-25.26 87.37,-18.46"/>
</g>
<!-- Node7&#45;&gt;Node5 -->
<g id="edge8" class="edge">
<title>Node7&#45;&gt;Node5</title>
<path fill="none" stroke="midnightblue" d="M243,-56.44C219.42,-47.48 182.18,-33.31 155.54,-23.18"/>
<polygon fill="midnightblue" stroke="midnightblue" points="156.49,-19.8 145.9,-19.52 154,-26.34 156.49,-19.8"/>
</g>
<!-- Node8 -->
<g id="node8" class="node">
<title>Node8</title>
<g id="a_node8"><a xlink:title=" ">
<polygon fill="none" stroke="#bfbfbf" points="227,-0.5 227,-19.5 274,-19.5 274,-0.5 227,-0.5"/>
<text text-anchor="middle" x="250.5" y="-7.5" font-family="FreeSans.ttf" font-size="10.00">stdlib.h</text>
</a>
</g>
</g>
<!-- Node7&#45;&gt;Node8 -->
<g id="edge7" class="edge">
<title>Node7&#45;&gt;Node8</title>
<path fill="none" stroke="midnightblue" d="M263.02,-56.08C261.01,-48.85 258.11,-38.41 255.61,-29.4"/>
<polygon fill="midnightblue" stroke="midnightblue" points="258.98,-28.45 252.93,-19.75 252.24,-30.32 258.98,-28.45"/>
</g>
<!-- Node9 -->
<g id="node9" class="node">
<title>Node9</title>
<g id="a_node9"><a xlink:title=" ">
<polygon fill="none" stroke="#bfbfbf" points="426.5,-0.5 426.5,-19.5 486.5,-19.5 486.5,-0.5 426.5,-0.5"/>
<text text-anchor="middle" x="456.5" y="-7.5" font-family="FreeSans.ttf" font-size="10.00">config.hpp</text>
</a>
</g>
</g>
<!-- Node7&#45;&gt;Node9 -->
<g id="edge11" class="edge">
<title>Node7&#45;&gt;Node9</title>
<path fill="none" stroke="midnightblue" d="M295.76,-56.44C328.46,-47.2 380.68,-32.44 416.68,-22.26"/>
<polygon fill="midnightblue" stroke="midnightblue" points="417.71,-25.61 426.38,-19.52 415.8,-18.87 417.71,-25.61"/>
</g>
<!-- Node7&#45;&gt;Node10 -->
<g id="edge12" class="edge">
<title>Node7&#45;&gt;Node10</title>
<path fill="none" stroke="midnightblue" d="M319.14,-57.38C399.18,-46 547.45,-24.93 612.95,-15.63"/>
<polygon fill="midnightblue" stroke="midnightblue" points="613.68,-19.06 623.09,-14.18 612.7,-12.13 613.68,-19.06"/>
</g>
<!-- Node11 -->
<g id="node11" class="node">
<title>Node11</title>
<g id="a_node11"><a xlink:title=" ">
<polygon fill="none" stroke="#bfbfbf" points="292.5,-0.5 292.5,-19.5 338.5,-19.5 338.5,-0.5 292.5,-0.5"/>
<text text-anchor="middle" x="315.5" y="-7.5" font-family="FreeSans.ttf" font-size="10.00">math.h</text>
</a>
</g>
</g>
<!-- Node7&#45;&gt;Node11 -->
<g id="edge13" class="edge">
<title>Node7&#45;&gt;Node11</title>
<path fill="none" stroke="midnightblue" d="M273.76,-56.08C280.96,-48.3 291.61,-36.8 300.35,-27.37"/>
<polygon fill="midnightblue" stroke="midnightblue" points="303.17,-29.47 307.4,-19.75 298.03,-24.71 303.17,-29.47"/>
</g>
<!-- Node12 -->
<g id="node12" class="node">
<title>Node12</title>
<g id="a_node12"><a xlink:title=" ">
<polygon fill="none" stroke="#bfbfbf" points="357,-0.5 357,-19.5 408,-19.5 408,-0.5 357,-0.5"/>
<text text-anchor="middle" x="382.5" y="-7.5" font-family="FreeSans.ttf" font-size="10.00">assert.h</text>
</a>
</g>
</g>
<!-- Node7&#45;&gt;Node12 -->
<g id="edge14" class="edge">
<title>Node7&#45;&gt;Node12</title>
<path fill="none" stroke="midnightblue" d="M284.04,-56.44C303.12,-47.64 333.07,-33.81 354.94,-23.72"/>
<polygon fill="midnightblue" stroke="midnightblue" points="356.43,-26.88 364.05,-19.52 353.5,-20.53 356.43,-26.88"/>
</g>
<!-- Node13&#45;&gt;Node9 -->
<g id="edge23" class="edge">
<title>Node13&#45;&gt;Node9</title>
<path fill="none" stroke="midnightblue" d="M478.87,-168.38C475.62,-150.97 468.24,-110.35 463.5,-76 461.37,-60.52 459.5,-42.89 458.24,-29.9"/>
<polygon fill="midnightblue" stroke="midnightblue" points="461.71,-29.48 457.29,-19.85 454.74,-30.14 461.71,-29.48"/>
</g>
<!-- Node14 -->
<g id="node14" class="node">
<title>Node14</title>
<g id="a_node14"><a xlink:href="gpuNUFFT__types_8hpp.html" target="_top" xlink:title="Definition of gpuNUFFT defined types.">
<polygon fill="none" stroke="black" points="507.5,-112.5 507.5,-131.5 619.5,-131.5 619.5,-112.5 507.5,-112.5"/>
<text text-anchor="middle" x="563.5" y="-119.5" font-family="FreeSans.ttf" font-size="10.00">gpuNUFFT_types.hpp</text>
</a>
</g>
</g>
<!-- Node13&#45;&gt;Node14 -->
<g id="edge16" class="edge">
<title>Node13&#45;&gt;Node14</title>
<path fill="none" stroke="midnightblue" d="M493.84,-168.32C506.66,-159.98 526.28,-147.21 541.44,-137.35"/>
<polygon fill="midnightblue" stroke="midnightblue" points="543.72,-140.04 550.2,-131.65 539.91,-134.17 543.72,-140.04"/>
</g>
<!-- Node15 -->
<g id="node15" class="node">
<title>Node15</title>
<g id="a_node15"><a xlink:title=" ">
<polygon fill="none" stroke="#bfbfbf" points="606,-56.5 606,-75.5 651,-75.5 651,-56.5 606,-56.5"/>
<text text-anchor="middle" x="628.5" y="-63.5" font-family="FreeSans.ttf" font-size="10.00">cstdlib</text>
</a>
</g>
</g>
<!-- Node13&#45;&gt;Node15 -->
<g id="edge24" class="edge">
<title>Node13&#45;&gt;Node15</title>
<path fill="none" stroke="midnightblue" d="M542.53,-174.73C573.61,-170.06 608.75,-158.65 628.5,-132 638.26,-118.84 636.95,-99.7 633.98,-85.59"/>
<polygon fill="midnightblue" stroke="midnightblue" points="637.29,-84.4 631.43,-75.57 630.51,-86.13 637.29,-84.4"/>
</g>
<!-- Node16 -->
<g id="node16" class="node">
<title>Node16</title>
<g id="a_node16"><a xlink:title=" ">
<polygon fill="none" stroke="#bfbfbf" points="472.5,-56.5 472.5,-75.5 526.5,-75.5 526.5,-56.5 472.5,-56.5"/>
<text text-anchor="middle" x="499.5" y="-63.5" font-family="FreeSans.ttf" font-size="10.00">iostream</text>
</a>
</g>
</g>
<!-- Node13&#45;&gt;Node16 -->
<g id="edge25" class="edge">
<title>Node13&#45;&gt;Node16</title>
<path fill="none" stroke="midnightblue" d="M481.99,-168.37C485.06,-150.62 492.13,-109.67 496.29,-85.6"/>
<polygon fill="midnightblue" stroke="midnightblue" points="499.76,-86.04 498.02,-75.59 492.86,-84.85 499.76,-86.04"/>
</g>
<!-- Node17 -->
<g id="node17" class="node">
<title>Node17</title>
<g id="a_node17"><a xlink:href="gpuNUFFT__kernels_8hpp.html" target="_top" xlink:title="gpuNUFFT CUDA function prototypes">
<polygon fill="none" stroke="black" points="293.5,-112.5 293.5,-131.5 413.5,-131.5 413.5,-112.5 293.5,-112.5"/>
<text text-anchor="middle" x="353.5" y="-119.5" font-family="FreeSans.ttf" font-size="10.00">gpuNUFFT_kernels.hpp</text>
</a>
</g>
</g>
<!-- Node13&#45;&gt;Node17 -->
<g id="edge20" class="edge">
<title>Node13&#45;&gt;Node17</title>
<path fill="none" stroke="midnightblue" d="M460.38,-168.44C439.48,-159.56 406.57,-145.56 382.78,-135.45"/>
<polygon fill="midnightblue" stroke="midnightblue" points="384.1,-132.21 373.53,-131.52 381.36,-138.65 384.1,-132.21"/>
</g>
<!-- Node18 -->
<g id="node18" class="node">
<title>Node18</title>
<g id="a_node18"><a xlink:title=" ">
<polygon fill="none" stroke="#bfbfbf" points="676,-112.5 676,-131.5 735,-131.5 735,-112.5 676,-112.5"/>
<text text-anchor="middle" x="705.5" y="-119.5" font-family="FreeSans.ttf" font-size="10.00">functional</text>
</a>
</g>
</g>
<!-- Node13&#45;&gt;Node18 -->
<g id="edge26" class="edge">
<title>Node13&#45;&gt;Node18</title>
<path fill="none" stroke="midnightblue" d="M516.15,-168.44C556.91,-158.66 623.43,-142.7 665.8,-132.53"/>
<polygon fill="midnightblue" stroke="midnightblue" points="666.86,-135.87 675.76,-130.14 665.22,-129.07 666.86,-135.87"/>
</g>
<!-- Node14&#45;&gt;Node9 -->
<g id="edge19" class="edge">
<title>Node14&#45;&gt;Node9</title>
<path fill="none" stroke="midnightblue" d="M561.68,-112.47C558.44,-99.06 550.57,-72.85 535.5,-56 522.95,-41.97 504.95,-31.25 489.3,-23.8"/>
<polygon fill="midnightblue" stroke="midnightblue" points="490.49,-20.49 479.93,-19.58 487.61,-26.87 490.49,-20.49"/>
</g>
<!-- Node14&#45;&gt;Node15 -->
<g id="edge17" class="edge">
<title>Node14&#45;&gt;Node15</title>
<path fill="none" stroke="midnightblue" d="M573.94,-112.32C583.65,-104.26 598.32,-92.08 610,-82.37"/>
<polygon fill="midnightblue" stroke="midnightblue" points="612.41,-84.92 617.87,-75.83 607.94,-79.53 612.41,-84.92"/>
</g>
<!-- Node14&#45;&gt;Node16 -->
<g id="edge18" class="edge">
<title>Node14&#45;&gt;Node16</title>
<path fill="none" stroke="midnightblue" d="M553.22,-112.32C543.66,-104.26 529.22,-92.08 517.72,-82.37"/>
<polygon fill="midnightblue" stroke="midnightblue" points="519.87,-79.61 509.97,-75.83 515.36,-84.96 519.87,-79.61"/>
</g>
<!-- Node17&#45;&gt;Node2 -->
<g id="edge22" class="edge">
<title>Node17&#45;&gt;Node2</title>
<path fill="none" stroke="midnightblue" d="M353.06,-131.67C351.92,-145.26 347.88,-171.71 333.5,-188 319.66,-203.68 299.28,-214.19 280.53,-221.08"/>
<polygon fill="midnightblue" stroke="midnightblue" points="279.25,-217.82 270.91,-224.36 281.51,-224.44 279.25,-217.82"/>
</g>
<!-- Node17&#45;&gt;Node7 -->
<g id="edge21" class="edge">
<title>Node17&#45;&gt;Node7</title>
<path fill="none" stroke="midnightblue" d="M339.36,-112.32C325.63,-103.9 304.56,-90.97 288.44,-81.07"/>
<polygon fill="midnightblue" stroke="midnightblue" points="289.96,-77.9 279.6,-75.65 286.3,-83.87 289.96,-77.9"/>
</g>
</g>
</svg>
