<?xml version="1.0" encoding="UTF-8" standalone="no"?>
<!DOCTYPE svg PUBLIC "-//W3C//DTD SVG 1.1//EN"
 "http://www.w3.org/Graphics/SVG/1.1/DTD/svg11.dtd">
<!-- Generated by graphviz version 2.49.3 (20211027.1534)
 -->
<!-- Title: computeXYZ2Lin Pages: 1 -->
<svg width="519pt" height="385pt"
 viewBox="0.00 0.00 519.00 384.50" xmlns="http://www.w3.org/2000/svg" xmlns:xlink="http://www.w3.org/1999/xlink">
<g id="graph0" class="graph" transform="scale(1 1) rotate(0) translate(4 380.5)">
<title>computeXYZ2Lin</title>
<!-- Node1 -->
<g id="node1" class="node">
<title>Node1</title>
<g id="a_node1"><a xlink:title="Compute linear index from 3&#45;d point in grid defined by dim.">
<polygon fill="#bfbfbf" stroke="black" points="419,-95.5 419,-114.5 511,-114.5 511,-95.5 419,-95.5"/>
<text text-anchor="middle" x="465" y="-102.5" font-family="FreeSans.ttf" font-size="10.00">computeXYZ2Lin</text>
</a>
</g>
</g>
<!-- Node2 -->
<g id="node2" class="node">
<title>Node2</title>
<g id="a_node2"><a xlink:href="classgpuNUFFT_1_1GpuNUFFTOperatorFactory.html#a62c51a180bf592a0fa82343ed7b4daed" target="_top" xlink:title="Compute sector centers array.">
<polygon fill="none" stroke="black" points="225,-218 225,-248 383,-248 383,-218 225,-218"/>
<text text-anchor="start" x="233" y="-236" font-family="FreeSans.ttf" font-size="10.00">gpuNUFFT::GpuNUFFTOperator</text>
<text text-anchor="middle" x="304" y="-225" font-family="FreeSans.ttf" font-size="10.00">Factory::computeSectorCenters</text>
</a>
</g>
</g>
<!-- Node1&#45;&gt;Node2 -->
<g id="edge1" class="edge">
<title>Node1&#45;&gt;Node2</title>
<path fill="none" stroke="midnightblue" d="M454.23,-123.28C441.02,-146.29 415.37,-185.51 383,-208 377.51,-211.81 371.41,-215.07 365.1,-217.84"/>
<polygon fill="midnightblue" stroke="midnightblue" points="457.3,-124.95 459.11,-114.51 451.19,-121.54 457.3,-124.95"/>
</g>
<!-- Node3 -->
<g id="node3" class="node">
<title>Node3</title>
<g id="a_node3"><a xlink:href="gpuNUFFT__fft__tests_8cpp.html#a1267fc514127315f25ad48e26de77b8c" target="_top" xlink:title=" ">
<polygon fill="none" stroke="black" points="282.5,-179.5 282.5,-198.5 325.5,-198.5 325.5,-179.5 282.5,-179.5"/>
<text text-anchor="middle" x="304" y="-186.5" font-family="FreeSans.ttf" font-size="10.00">debug</text>
</a>
</g>
</g>
<!-- Node1&#45;&gt;Node3 -->
<g id="edge2" class="edge">
<title>Node1&#45;&gt;Node3</title>
<path fill="none" stroke="midnightblue" d="M436.79,-119.37C404.28,-136.55 350.81,-164.8 323.03,-179.48"/>
<polygon fill="midnightblue" stroke="midnightblue" points="438.55,-122.4 445.76,-114.64 435.28,-116.21 438.55,-122.4"/>
</g>
<!-- Node10 -->
<g id="node10" class="node">
<title>Node10</title>
<g id="a_node10"><a xlink:href="gpuNUFFT__fft__tests_8cpp.html#a3072fb22f810f15039e1e0927e5d6ed1" target="_top" xlink:title=" ">
<polygon fill="none" stroke="black" points="273.5,-114.5 273.5,-133.5 334.5,-133.5 334.5,-114.5 273.5,-114.5"/>
<text text-anchor="middle" x="304" y="-121.5" font-family="FreeSans.ttf" font-size="10.00">debugGrid</text>
</a>
</g>
</g>
<!-- Node1&#45;&gt;Node10 -->
<g id="edge9" class="edge">
<title>Node1&#45;&gt;Node10</title>
<path fill="none" stroke="midnightblue" d="M408.8,-111.6C383.89,-114.57 355.47,-117.97 334.67,-120.45"/>
<polygon fill="midnightblue" stroke="midnightblue" points="409.35,-115.06 418.86,-110.39 408.52,-108.11 409.35,-115.06"/>
</g>
<!-- Node12 -->
<g id="node12" class="node">
<title>Node12</title>
<g id="a_node12"><a xlink:href="gpuNUFFT__fft__tests_8cpp.html#acaabcb5aba0f894db0a151ef6dd9d97a" target="_top" xlink:title=" ">
<polygon fill="none" stroke="black" points="281.5,-76.5 281.5,-95.5 326.5,-95.5 326.5,-76.5 281.5,-76.5"/>
<text text-anchor="middle" x="304" y="-83.5" font-family="FreeSans.ttf" font-size="10.00">fftShift</text>
</a>
</g>
</g>
<!-- Node1&#45;&gt;Node12 -->
<g id="edge11" class="edge">
<title>Node1&#45;&gt;Node12</title>
<path fill="none" stroke="midnightblue" d="M408.72,-98.39C380.55,-95.03 347.91,-91.13 326.88,-88.61"/>
<polygon fill="midnightblue" stroke="midnightblue" points="408.52,-101.89 418.86,-99.61 409.35,-94.94 408.52,-101.89"/>
</g>
<!-- Node13 -->
<g id="node13" class="node">
<title>Node13</title>
<g id="a_node13"><a xlink:href="classTestFFT.html#a2accab4e60ec703e9bf25a5c05d23dba" target="_top" xlink:title=" ">
<polygon fill="none" stroke="black" points="240,-38.5 240,-57.5 368,-57.5 368,-38.5 240,-38.5"/>
<text text-anchor="middle" x="304" y="-45.5" font-family="FreeSans.ttf" font-size="10.00">TestFFT::SetUpTestCase</text>
</a>
</g>
</g>
<!-- Node1&#45;&gt;Node13 -->
<g id="edge13" class="edge">
<title>Node1&#45;&gt;Node13</title>
<path fill="none" stroke="midnightblue" d="M437.39,-90.87C421.85,-83.04 401.68,-73.58 383,-67 372.75,-63.39 361.5,-60.21 350.82,-57.54"/>
<polygon fill="midnightblue" stroke="midnightblue" points="435.92,-94.05 446.42,-95.5 439.11,-87.82 435.92,-94.05"/>
</g>
<!-- Node14 -->
<g id="node14" class="node">
<title>Node14</title>
<g id="a_node14"><a xlink:href="gpuNUFFT__conv__tests_8cpp.html#afbb6c181bc4c74a820d6ff502434e3ea" target="_top" xlink:title=" ">
<polygon fill="none" stroke="black" points="283.5,-0.5 283.5,-19.5 324.5,-19.5 324.5,-0.5 283.5,-0.5"/>
<text text-anchor="middle" x="304" y="-7.5" font-family="FreeSans.ttf" font-size="10.00">TEST</text>
</a>
</g>
</g>
<!-- Node1&#45;&gt;Node14 -->
<g id="edge14" class="edge">
<title>Node1&#45;&gt;Node14</title>
<path fill="none" stroke="midnightblue" d="M450.25,-87.66C435.47,-70.21 410.4,-43.83 383,-29 364.62,-19.05 341,-14.23 324.59,-11.96"/>
<polygon fill="midnightblue" stroke="midnightblue" points="447.58,-89.92 456.64,-95.42 452.98,-85.47 447.58,-89.92"/>
</g>
<!-- Node4 -->
<g id="node4" class="node">
<title>Node4</title>
<g id="a_node4"><a xlink:href="classgpuNUFFT_1_1GpuNUFFTOperatorFactory.html#afa72b607029c78d61b6e01d45077998e" target="_top" xlink:title="Assign the samples on the k&#45;space trajectory to its corresponding sector.">
<polygon fill="none" stroke="black" points="15.5,-346 15.5,-376 173.5,-376 173.5,-346 15.5,-346"/>
<text text-anchor="start" x="23.5" y="-364" font-family="FreeSans.ttf" font-size="10.00">gpuNUFFT::GpuNUFFTOperator</text>
<text text-anchor="middle" x="94.5" y="-353" font-family="FreeSans.ttf" font-size="10.00">Factory::assignSectors</text>
</a>
</g>
</g>
<!-- Node3&#45;&gt;Node4 -->
<g id="edge3" class="edge">
<title>Node3&#45;&gt;Node4</title>
<path fill="none" stroke="midnightblue" d="M272.33,-189.77C256.29,-191.76 237.47,-196.82 225,-209 182.73,-250.3 231.26,-295.69 189,-337 184.45,-341.45 179.18,-345.11 173.52,-348.11"/>
<polygon fill="midnightblue" stroke="midnightblue" points="272.72,-193.25 282.37,-188.87 272.09,-186.28 272.72,-193.25"/>
</g>
<!-- Node5 -->
<g id="node5" class="node">
<title>Node5</title>
<g id="a_node5"><a xlink:href="classgpuNUFFT_1_1GpuNUFFTOperatorFactory.html#a82e185db6eda1edb359df5a580be7b37" target="_top" xlink:title="Computation of the deapodization function.">
<polygon fill="none" stroke="black" points="0,-297 0,-327 189,-327 189,-297 0,-297"/>
<text text-anchor="start" x="8" y="-315" font-family="FreeSans.ttf" font-size="10.00">gpuNUFFT::GpuNUFFTOperator</text>
<text text-anchor="middle" x="94.5" y="-304" font-family="FreeSans.ttf" font-size="10.00">Factory::computeDeapodizationFunction</text>
</a>
</g>
</g>
<!-- Node3&#45;&gt;Node5 -->
<g id="edge4" class="edge">
<title>Node3&#45;&gt;Node5</title>
<path fill="none" stroke="midnightblue" d="M271.96,-190.71C256.37,-193.01 238.06,-198.06 225,-209 195.42,-233.77 218.58,-263.22 189,-288 184.89,-291.44 180.34,-294.4 175.54,-296.94"/>
<polygon fill="midnightblue" stroke="midnightblue" points="272.69,-194.15 282.22,-189.52 271.89,-187.19 272.69,-194.15"/>
</g>
<!-- Node6 -->
<g id="node6" class="node">
<title>Node6</title>
<g id="a_node6"><a xlink:href="classgpuNUFFT_1_1GpuNUFFTOperatorFactory.html#a0e941d590a7e5effed76f909dfa72bcc" target="_top" xlink:title="Create GpuNUFFT Operator.">
<polygon fill="none" stroke="black" points="10,-248 10,-278 179,-278 179,-248 10,-248"/>
<text text-anchor="start" x="18" y="-266" font-family="FreeSans.ttf" font-size="10.00">gpuNUFFT::GpuNUFFTOperator</text>
<text text-anchor="middle" x="94.5" y="-255" font-family="FreeSans.ttf" font-size="10.00">Factory::createGpuNUFFTOperator</text>
</a>
</g>
</g>
<!-- Node3&#45;&gt;Node6 -->
<g id="edge5" class="edge">
<title>Node3&#45;&gt;Node6</title>
<path fill="none" stroke="midnightblue" d="M272.05,-193.66C257.25,-196.69 239.62,-201.52 225,-209 206.46,-218.49 207.54,-229.51 189,-239 182.29,-242.44 175.04,-245.4 167.67,-247.97"/>
<polygon fill="midnightblue" stroke="midnightblue" points="273.05,-197.03 282.24,-191.76 271.76,-190.15 273.05,-197.03"/>
</g>
<!-- Node7 -->
<g id="node7" class="node">
<title>Node7</title>
<g id="a_node7"><a xlink:href="classgpuNUFFT_1_1GpuNUFFTOperatorFactory.html#af7f33863787749fdc05b360efe79f5df" target="_top" xlink:title="Method to create a new GpuNUFFTOperator or a sub class depending on the parameters.">
<polygon fill="none" stroke="black" points="0,-199 0,-229 189,-229 189,-199 0,-199"/>
<text text-anchor="start" x="8" y="-217" font-family="FreeSans.ttf" font-size="10.00">gpuNUFFT::GpuNUFFTOperator</text>
<text text-anchor="middle" x="94.5" y="-206" font-family="FreeSans.ttf" font-size="10.00">Factory::createNewGpuNUFFTOperator</text>
</a>
</g>
</g>
<!-- Node3&#45;&gt;Node7 -->
<g id="edge6" class="edge">
<title>Node3&#45;&gt;Node7</title>
<path fill="none" stroke="midnightblue" d="M272.29,-192.7C250.25,-195.36 219.28,-199.09 189.41,-202.69"/>
<polygon fill="midnightblue" stroke="midnightblue" points="272.84,-196.16 282.35,-191.49 272,-189.21 272.84,-196.16"/>
</g>
<!-- Node8 -->
<g id="node8" class="node">
<title>Node8</title>
<g id="a_node8"><a xlink:href="classgpuNUFFT_1_1GpuNUFFTOperator.html#a13915ff85070f8cc0a374d76e6cbcdee" target="_top" xlink:title="Perform Adjoint gridding operation on given kspaceData.">
<polygon fill="none" stroke="black" points="15.5,-150 15.5,-180 173.5,-180 173.5,-150 15.5,-150"/>
<text text-anchor="start" x="23.5" y="-168" font-family="FreeSans.ttf" font-size="10.00">gpuNUFFT::GpuNUFFTOperator</text>
<text text-anchor="middle" x="94.5" y="-157" font-family="FreeSans.ttf" font-size="10.00">::performGpuNUFFTAdj</text>
</a>
</g>
</g>
<!-- Node3&#45;&gt;Node8 -->
<g id="edge7" class="edge">
<title>Node3&#45;&gt;Node8</title>
<path fill="none" stroke="midnightblue" d="M272.4,-185.46C246.52,-182.47 208.28,-178.04 173.97,-174.08"/>
<polygon fill="midnightblue" stroke="midnightblue" points="272.01,-188.94 282.35,-186.61 272.81,-181.99 272.01,-188.94"/>
</g>
<!-- Node9 -->
<g id="node9" class="node">
<title>Node9</title>
<g id="a_node9"><a xlink:href="gpuNUFFT__fft__tests_8cpp.html#a143d7141da78d4955eb9d9228cd5e65e" target="_top" xlink:title=" ">
<polygon fill="none" stroke="black" points="68,-111.5 68,-130.5 121,-130.5 121,-111.5 68,-111.5"/>
<text text-anchor="middle" x="94.5" y="-118.5" font-family="FreeSans.ttf" font-size="10.00">TEST_F</text>
</a>
</g>
</g>
<!-- Node3&#45;&gt;Node9 -->
<g id="edge8" class="edge">
<title>Node3&#45;&gt;Node9</title>
<path fill="none" stroke="midnightblue" d="M274.16,-175.08C251.44,-164.55 218.76,-150.36 189,-141 166.51,-133.93 140.21,-128.55 121.23,-125.16"/>
<polygon fill="midnightblue" stroke="midnightblue" points="272.71,-178.26 283.25,-179.34 275.68,-171.92 272.71,-178.26"/>
</g>
<!-- Node11 -->
<g id="node11" class="node">
<title>Node11</title>
<g id="a_node11"><a xlink:href="gpuNUFFT__fft__tests_8cpp.html#a2afa82cfeb1d507486af2894e3a2491d" target="_top" xlink:title=" ">
<polygon fill="none" stroke="black" points="74,-73.5 74,-92.5 115,-92.5 115,-73.5 74,-73.5"/>
<text text-anchor="middle" x="94.5" y="-80.5" font-family="FreeSans.ttf" font-size="10.00">TEST</text>
</a>
</g>
</g>
<!-- Node10&#45;&gt;Node11 -->
<g id="edge10" class="edge">
<title>Node10&#45;&gt;Node11</title>
<path fill="none" stroke="midnightblue" d="M263.42,-116.18C219.11,-107.43 149.12,-93.59 115.21,-86.89"/>
<polygon fill="midnightblue" stroke="midnightblue" points="262.78,-119.62 273.27,-118.13 264.14,-112.75 262.78,-119.62"/>
</g>
<!-- Node12&#45;&gt;Node11 -->
<g id="edge12" class="edge">
<title>Node12&#45;&gt;Node11</title>
<path fill="none" stroke="midnightblue" d="M271.15,-85.54C227.7,-84.91 151.14,-83.8 115.19,-83.28"/>
<polygon fill="midnightblue" stroke="midnightblue" points="271.14,-89.04 281.19,-85.68 271.24,-82.04 271.14,-89.04"/>
</g>
</g>
</svg>
