<?xml version="1.0" encoding="UTF-8" standalone="no"?>
<!DOCTYPE svg PUBLIC "-//W3C//DTD SVG 1.1//EN"
 "http://www.w3.org/Graphics/SVG/1.1/DTD/svg11.dtd">
<!-- Generated by graphviz version 2.49.3 (20211027.1534)
 -->
<!-- Title: CUDA/inc/precomp_utils.hpp Pages: 1 -->
<svg width="1283pt" height="162pt"
 viewBox="0.00 0.00 1283.00 162.00" xmlns="http://www.w3.org/2000/svg" xmlns:xlink="http://www.w3.org/1999/xlink">
<g id="graph0" class="graph" transform="scale(1 1) rotate(0) translate(4 158)">
<title>CUDA/inc/precomp_utils.hpp</title>
<!-- Node1 -->
<g id="node1" class="node">
<title>Node1</title>
<g id="a_node1"><a xlink:title="UTIL functions for precomputation.">
<polygon fill="#bfbfbf" stroke="black" points="703.5,-134.5 703.5,-153.5 845.5,-153.5 845.5,-134.5 703.5,-134.5"/>
<text text-anchor="middle" x="774.5" y="-141.5" font-family="FreeSans.ttf" font-size="10.00">CUDA/inc/precomp_utils.hpp</text>
</a>
</g>
</g>
<!-- Node2 -->
<g id="node2" class="node">
<title>Node2</title>
<g id="a_node2"><a xlink:href="gpuNUFFT__operator__factory_8hpp.html" target="_top" xlink:title=" ">
<polygon fill="none" stroke="black" points="540.5,-67.5 540.5,-97.5 692.5,-97.5 692.5,-67.5 540.5,-67.5"/>
<text text-anchor="start" x="548.5" y="-85.5" font-family="FreeSans.ttf" font-size="10.00">CUDA/inc/gpuNUFFT_operator</text>
<text text-anchor="middle" x="616.5" y="-74.5" font-family="FreeSans.ttf" font-size="10.00">_factory.hpp</text>
</a>
</g>
</g>
<!-- Node1&#45;&gt;Node2 -->
<g id="edge1" class="edge">
<title>Node1&#45;&gt;Node2</title>
<path fill="none" stroke="midnightblue" d="M742.23,-130.85C716.56,-121.18 680.62,-107.65 653.74,-97.52"/>
<polygon fill="midnightblue" stroke="midnightblue" points="741.27,-134.23 751.86,-134.48 743.74,-127.68 741.27,-134.23"/>
</g>
<!-- Node10 -->
<g id="node10" class="node">
<title>Node10</title>
<g id="a_node10"><a xlink:href="precomp__kernels_8hpp.html" target="_top" xlink:title="GPU Kernels for Precomputation (sector assignment)">
<polygon fill="none" stroke="black" points="932,-73 932,-92 1087,-92 1087,-73 932,-73"/>
<text text-anchor="middle" x="1009.5" y="-80" font-family="FreeSans.ttf" font-size="10.00">CUDA/inc/precomp_kernels.hpp</text>
</a>
</g>
</g>
<!-- Node1&#45;&gt;Node10 -->
<g id="edge9" class="edge">
<title>Node1&#45;&gt;Node10</title>
<path fill="none" stroke="midnightblue" d="M818.07,-131.97C863.7,-120.41 934.39,-102.52 975.89,-92.01"/>
<polygon fill="midnightblue" stroke="midnightblue" points="817,-128.63 808.17,-134.48 818.72,-135.41 817,-128.63"/>
</g>
<!-- Node3 -->
<g id="node3" class="node">
<title>Node3</title>
<g id="a_node3"><a xlink:href="gpuNUFFT__operator__factory_8cpp.html" target="_top" xlink:title=" ">
<polygon fill="none" stroke="black" points="933,-0.5 933,-30.5 1086,-30.5 1086,-0.5 933,-0.5"/>
<text text-anchor="start" x="941" y="-18.5" font-family="FreeSans.ttf" font-size="10.00">CUDA/src/gpuNUFFT_operator</text>
<text text-anchor="middle" x="1009.5" y="-7.5" font-family="FreeSans.ttf" font-size="10.00">_factory.cpp</text>
</a>
</g>
</g>
<!-- Node2&#45;&gt;Node3 -->
<g id="edge2" class="edge">
<title>Node2&#45;&gt;Node3</title>
<path fill="none" stroke="midnightblue" d="M702.59,-67.43C764.13,-57.35 848.93,-43.42 923.5,-31 926.49,-30.5 929.53,-29.99 932.61,-29.48"/>
<polygon fill="midnightblue" stroke="midnightblue" points="701.83,-64.01 692.53,-69.08 702.96,-70.92 701.83,-64.01"/>
</g>
<!-- Node4 -->
<g id="node4" class="node">
<title>Node4</title>
<g id="a_node4"><a xlink:href="gpuNUFFT__forward__tests_8cpp.html" target="_top" xlink:title=" ">
<polygon fill="none" stroke="black" points="0,-0.5 0,-30.5 151,-30.5 151,-0.5 0,-0.5"/>
<text text-anchor="start" x="8" y="-18.5" font-family="FreeSans.ttf" font-size="10.00">CUDA/test/gpu/forward</text>
<text text-anchor="middle" x="75.5" y="-7.5" font-family="FreeSans.ttf" font-size="10.00">/gpuNUFFT_forward_tests.cpp</text>
</a>
</g>
</g>
<!-- Node2&#45;&gt;Node4 -->
<g id="edge3" class="edge">
<title>Node2&#45;&gt;Node4</title>
<path fill="none" stroke="midnightblue" d="M530.41,-73.48C438.58,-64.58 288.98,-49.06 160.5,-31 157.39,-30.56 154.21,-30.1 151.01,-29.62"/>
<polygon fill="midnightblue" stroke="midnightblue" points="530.2,-76.98 540.49,-74.46 530.87,-70.01 530.2,-76.98"/>
</g>
<!-- Node5 -->
<g id="node5" class="node">
<title>Node5</title>
<g id="a_node5"><a xlink:href="gpuNUFFT__2D__conv__tests_8cpp.html" target="_top" xlink:title=" ">
<polygon fill="none" stroke="black" points="169.5,-0.5 169.5,-30.5 303.5,-30.5 303.5,-0.5 169.5,-0.5"/>
<text text-anchor="start" x="177.5" y="-18.5" font-family="FreeSans.ttf" font-size="10.00">CUDA/test/gpu/gpuNUFFT</text>
<text text-anchor="middle" x="236.5" y="-7.5" font-family="FreeSans.ttf" font-size="10.00">_2D_conv_tests.cpp</text>
</a>
</g>
</g>
<!-- Node2&#45;&gt;Node5 -->
<g id="edge4" class="edge">
<title>Node2&#45;&gt;Node5</title>
<path fill="none" stroke="midnightblue" d="M530.25,-67.74C469.34,-57.88 385.84,-44.09 312.5,-31 309.59,-30.48 306.62,-29.94 303.62,-29.4"/>
<polygon fill="midnightblue" stroke="midnightblue" points="529.77,-71.2 540.2,-69.34 530.89,-64.29 529.77,-71.2"/>
</g>
<!-- Node6 -->
<g id="node6" class="node">
<title>Node6</title>
<g id="a_node6"><a xlink:href="gpuNUFFT__conv__tests_8cpp.html" target="_top" xlink:title=" ">
<polygon fill="none" stroke="black" points="321.5,-0.5 321.5,-30.5 455.5,-30.5 455.5,-0.5 321.5,-0.5"/>
<text text-anchor="start" x="329.5" y="-18.5" font-family="FreeSans.ttf" font-size="10.00">CUDA/test/gpu/gpuNUFFT</text>
<text text-anchor="middle" x="388.5" y="-7.5" font-family="FreeSans.ttf" font-size="10.00">_conv_tests.cpp</text>
</a>
</g>
</g>
<!-- Node2&#45;&gt;Node6 -->
<g id="edge5" class="edge">
<title>Node2&#45;&gt;Node6</title>
<path fill="none" stroke="midnightblue" d="M557.62,-64.71C520.52,-54.14 473.16,-40.63 438,-30.61"/>
<polygon fill="midnightblue" stroke="midnightblue" points="556.73,-68.1 567.31,-67.48 558.65,-61.37 556.73,-68.1"/>
</g>
<!-- Node7 -->
<g id="node7" class="node">
<title>Node7</title>
<g id="a_node7"><a xlink:href="gpuNUFFT__deapo__tests_8cpp.html" target="_top" xlink:title=" ">
<polygon fill="none" stroke="black" points="473.5,-0.5 473.5,-30.5 607.5,-30.5 607.5,-0.5 473.5,-0.5"/>
<text text-anchor="start" x="481.5" y="-18.5" font-family="FreeSans.ttf" font-size="10.00">CUDA/test/gpu/gpuNUFFT</text>
<text text-anchor="middle" x="540.5" y="-7.5" font-family="FreeSans.ttf" font-size="10.00">_deapo_tests.cpp</text>
</a>
</g>
</g>
<!-- Node2&#45;&gt;Node7 -->
<g id="edge6" class="edge">
<title>Node2&#45;&gt;Node7</title>
<path fill="none" stroke="midnightblue" d="M592.39,-60.88C580.84,-51.01 567.31,-39.43 556.96,-30.58"/>
<polygon fill="midnightblue" stroke="midnightblue" points="590.13,-63.56 600.01,-67.4 594.68,-58.24 590.13,-63.56"/>
</g>
<!-- Node8 -->
<g id="node8" class="node">
<title>Node8</title>
<g id="a_node8"><a xlink:href="gpuNUFFT__fft__tests_8cpp.html" target="_top" xlink:title=" ">
<polygon fill="none" stroke="black" points="625.5,-0.5 625.5,-30.5 759.5,-30.5 759.5,-0.5 625.5,-0.5"/>
<text text-anchor="start" x="633.5" y="-18.5" font-family="FreeSans.ttf" font-size="10.00">CUDA/test/gpu/gpuNUFFT</text>
<text text-anchor="middle" x="692.5" y="-7.5" font-family="FreeSans.ttf" font-size="10.00">_fft_tests.cpp</text>
</a>
</g>
</g>
<!-- Node2&#45;&gt;Node8 -->
<g id="edge7" class="edge">
<title>Node2&#45;&gt;Node8</title>
<path fill="none" stroke="midnightblue" d="M640.61,-60.88C652.16,-51.01 665.69,-39.43 676.04,-30.58"/>
<polygon fill="midnightblue" stroke="midnightblue" points="638.32,-58.24 632.99,-67.4 642.87,-63.56 638.32,-58.24"/>
</g>
<!-- Node9 -->
<g id="node9" class="node">
<title>Node9</title>
<g id="a_node9"><a xlink:href="gpuNUFFT__operator__python__factory_8cpp.html" target="_top" xlink:title=" ">
<polygon fill="none" stroke="black" points="778,-0.5 778,-30.5 915,-30.5 915,-0.5 778,-0.5"/>
<text text-anchor="start" x="786" y="-18.5" font-family="FreeSans.ttf" font-size="10.00">python/gpuNUFFT_operator</text>
<text text-anchor="middle" x="846.5" y="-7.5" font-family="FreeSans.ttf" font-size="10.00">_python_factory.cpp</text>
</a>
</g>
</g>
<!-- Node2&#45;&gt;Node9 -->
<g id="edge8" class="edge">
<title>Node2&#45;&gt;Node9</title>
<path fill="none" stroke="midnightblue" d="M675.89,-64.71C713.32,-54.14 761.1,-40.63 796.57,-30.61"/>
<polygon fill="midnightblue" stroke="midnightblue" points="674.79,-61.39 666.12,-67.48 676.7,-68.12 674.79,-61.39"/>
</g>
<!-- Node10&#45;&gt;Node3 -->
<g id="edge11" class="edge">
<title>Node10&#45;&gt;Node3</title>
<path fill="none" stroke="midnightblue" d="M1009.5,-62.41C1009.5,-52.22 1009.5,-39.9 1009.5,-30.59"/>
<polygon fill="midnightblue" stroke="midnightblue" points="1006,-62.73 1009.5,-72.73 1013,-62.73 1006,-62.73"/>
</g>
<!-- Node11 -->
<g id="node11" class="node">
<title>Node11</title>
<g id="a_node11"><a xlink:href="gpuNUFFT__operator_8cpp.html" target="_top" xlink:title=" ">
<polygon fill="none" stroke="black" points="1104,-6 1104,-25 1275,-25 1275,-6 1104,-6"/>
<text text-anchor="middle" x="1189.5" y="-13" font-family="FreeSans.ttf" font-size="10.00">CUDA/src/gpuNUFFT_operator.cpp</text>
</a>
</g>
</g>
<!-- Node10&#45;&gt;Node11 -->
<g id="edge10" class="edge">
<title>Node10&#45;&gt;Node11</title>
<path fill="none" stroke="midnightblue" d="M1042.91,-69.44C1078.62,-56.54 1134.33,-36.42 1165.79,-25.06"/>
<polygon fill="midnightblue" stroke="midnightblue" points="1041.62,-66.18 1033.4,-72.87 1044,-72.76 1041.62,-66.18"/>
</g>
</g>
</svg>
