<?xml version="1.0" encoding="UTF-8" standalone="no"?>
<!DOCTYPE svg PUBLIC "-//W3C//DTD SVG 1.1//EN"
 "http://www.w3.org/Graphics/SVG/1.1/DTD/svg11.dtd">
<!-- Generated by graphviz version 2.49.3 (20211027.1534)
 -->
<!-- Title: computeSectorMapping Pages: 1 -->
<svg width="321pt" height="78pt"
 viewBox="0.00 0.00 321.00 77.50" xmlns="http://www.w3.org/2000/svg" xmlns:xlink="http://www.w3.org/1999/xlink">
<g id="graph0" class="graph" transform="scale(1 1) rotate(0) translate(4 73.5)">
<title>computeSectorMapping</title>
<!-- Node1 -->
<g id="node1" class="node">
<title>Node1</title>
<g id="a_node1"><a xlink:title="Compute Sector Mapping for one coordinate based on the sector count.">
<polygon fill="#bfbfbf" stroke="black" points="194,-22.5 194,-41.5 313,-41.5 313,-22.5 194,-22.5"/>
<text text-anchor="middle" x="253.5" y="-29.5" font-family="FreeSans.ttf" font-size="10.00">computeSectorMapping</text>
</a>
</g>
</g>
<!-- Node2 -->
<g id="node2" class="node">
<title>Node2</title>
<g id="a_node2"><a xlink:href="classgpuNUFFT_1_1GpuNUFFTOperatorFactory.html#afa72b607029c78d61b6e01d45077998e" target="_top" xlink:title="Assign the samples on the k&#45;space trajectory to its corresponding sector.">
<polygon fill="none" stroke="black" points="0,-39 0,-69 158,-69 158,-39 0,-39"/>
<text text-anchor="start" x="8" y="-57" font-family="FreeSans.ttf" font-size="10.00">gpuNUFFT::GpuNUFFTOperator</text>
<text text-anchor="middle" x="79" y="-46" font-family="FreeSans.ttf" font-size="10.00">Factory::assignSectors</text>
</a>
</g>
</g>
<!-- Node1&#45;&gt;Node2 -->
<g id="edge1" class="edge">
<title>Node1&#45;&gt;Node2</title>
<path fill="none" stroke="midnightblue" d="M183.56,-40.79C175.2,-41.86 166.62,-42.95 158.14,-44.03"/>
<polygon fill="midnightblue" stroke="midnightblue" points="184.14,-44.25 193.62,-39.51 183.26,-37.3 184.14,-44.25"/>
</g>
<!-- Node3 -->
<g id="node3" class="node">
<title>Node3</title>
<g id="a_node3"><a xlink:href="precomp__utils_8hpp.html#a32b179f08838685c3f07e3f7a9ab0699" target="_top" xlink:title="Compute Sector Mapping.">
<polygon fill="none" stroke="black" points="19.5,-0.5 19.5,-19.5 138.5,-19.5 138.5,-0.5 19.5,-0.5"/>
<text text-anchor="middle" x="79" y="-7.5" font-family="FreeSans.ttf" font-size="10.00">computeSectorMapping</text>
</a>
</g>
</g>
<!-- Node1&#45;&gt;Node3 -->
<g id="edge2" class="edge">
<title>Node1&#45;&gt;Node3</title>
<path fill="none" stroke="midnightblue" d="M183.47,-23.2C168.61,-21.3 153.04,-19.31 138.62,-17.48"/>
<polygon fill="midnightblue" stroke="midnightblue" points="183.26,-26.7 193.62,-24.49 184.14,-19.75 183.26,-26.7"/>
</g>
</g>
</svg>
