<?xml version="1.0" encoding="UTF-8" standalone="no"?>
<!DOCTYPE svg PUBLIC "-//W3C//DTD SVG 1.1//EN"
 "http://www.w3.org/Graphics/SVG/1.1/DTD/svg11.dtd">
<!-- Generated by graphviz version 2.49.3 (20211027.1534)
 -->
<!-- Title: PYBIND11_MODULE Pages: 1 -->
<svg width="657pt" height="645pt"
 viewBox="0.00 0.00 657.00 644.50" xmlns="http://www.w3.org/2000/svg" xmlns:xlink="http://www.w3.org/1999/xlink">
<g id="graph0" class="graph" transform="scale(1 1) rotate(0) translate(4 640.5)">
<title>PYBIND11_MODULE</title>
<!-- Node1 -->
<g id="node1" class="node">
<title>Node1</title>
<g id="a_node1"><a xlink:title=" ">
<polygon fill="#bfbfbf" stroke="black" points="0,-311 0,-330 112,-330 112,-311 0,-311"/>
<text text-anchor="middle" x="56" y="-318" font-family="FreeSans.ttf" font-size="10.00">PYBIND11_MODULE</text>
</a>
</g>
</g>
<!-- Node2 -->
<g id="node2" class="node">
<title>Node2</title>
<g id="a_node2"><a xlink:href="classGpuNUFFTPythonOperator.html#a9d5913daa75877d952160c6e126bbe07" target="_top" xlink:title=" ">
<polygon fill="none" stroke="black" points="155.5,-436.5 155.5,-466.5 290.5,-466.5 290.5,-436.5 155.5,-436.5"/>
<text text-anchor="start" x="163.5" y="-454.5" font-family="FreeSans.ttf" font-size="10.00">GpuNUFFTPythonOperator</text>
<text text-anchor="middle" x="223" y="-443.5" font-family="FreeSans.ttf" font-size="10.00">::adj_op</text>
</a>
</g>
</g>
<!-- Node1&#45;&gt;Node2 -->
<g id="edge1" class="edge">
<title>Node1&#45;&gt;Node2</title>
<path fill="none" stroke="midnightblue" d="M62.53,-330.04C75.05,-350.82 107.67,-400.51 148,-427.5 150.29,-429.03 152.68,-430.47 155.15,-431.83"/>
<polygon fill="midnightblue" stroke="midnightblue" points="153.83,-435.08 164.35,-436.35 156.92,-428.8 153.83,-435.08"/>
</g>
<!-- Node5 -->
<g id="node5" class="node">
<title>Node5</title>
<g id="a_node5"><a xlink:href="classGpuNUFFTPythonOperator.html#aa955beb4fd74d6291151af08eab22f62" target="_top" xlink:title=" ">
<polygon fill="none" stroke="black" points="155.5,-159.5 155.5,-189.5 290.5,-189.5 290.5,-159.5 155.5,-159.5"/>
<text text-anchor="start" x="163.5" y="-177.5" font-family="FreeSans.ttf" font-size="10.00">GpuNUFFTPythonOperator</text>
<text text-anchor="middle" x="223" y="-166.5" font-family="FreeSans.ttf" font-size="10.00">::clean_memory</text>
</a>
</g>
</g>
<!-- Node1&#45;&gt;Node5 -->
<g id="edge4" class="edge">
<title>Node1&#45;&gt;Node5</title>
<path fill="none" stroke="midnightblue" d="M67.22,-310.76C83.91,-294.94 118.13,-262.77 148,-236.5 163.57,-222.81 181.37,-207.87 195.62,-196.09"/>
<polygon fill="midnightblue" stroke="midnightblue" points="198.06,-198.61 203.55,-189.55 193.6,-193.21 198.06,-198.61"/>
</g>
<!-- Node7 -->
<g id="node7" class="node">
<title>Node7</title>
<g id="a_node7"><a xlink:href="classGpuNUFFTPythonOperator.html#a564644dc7ea9b8306cd6296ea6f1fca6" target="_top" xlink:title=" ">
<polygon fill="none" stroke="black" points="155.5,-387.5 155.5,-417.5 290.5,-417.5 290.5,-387.5 155.5,-387.5"/>
<text text-anchor="start" x="163.5" y="-405.5" font-family="FreeSans.ttf" font-size="10.00">GpuNUFFTPythonOperator</text>
<text text-anchor="middle" x="223" y="-394.5" font-family="FreeSans.ttf" font-size="10.00">::data_consistency</text>
</a>
</g>
</g>
<!-- Node1&#45;&gt;Node7 -->
<g id="edge6" class="edge">
<title>Node1&#45;&gt;Node7</title>
<path fill="none" stroke="midnightblue" d="M76.25,-330.07C102.2,-342.96 149.03,-366.24 182.61,-382.92"/>
<polygon fill="midnightblue" stroke="midnightblue" points="181.18,-386.12 191.7,-387.44 184.3,-379.86 181.18,-386.12"/>
</g>
<!-- Node17 -->
<g id="node17" class="node">
<title>Node17</title>
<g id="a_node17"><a xlink:href="classGpuNUFFTPythonOperator.html#a47e427fafc08d705d834940e1229742f" target="_top" xlink:title=" ">
<polygon fill="none" stroke="black" points="155.5,-245.5 155.5,-275.5 290.5,-275.5 290.5,-245.5 155.5,-245.5"/>
<text text-anchor="start" x="163.5" y="-263.5" font-family="FreeSans.ttf" font-size="10.00">GpuNUFFTPythonOperator</text>
<text text-anchor="middle" x="223" y="-252.5" font-family="FreeSans.ttf" font-size="10.00">::estimate_density_comp</text>
</a>
</g>
</g>
<!-- Node1&#45;&gt;Node17 -->
<g id="edge18" class="edge">
<title>Node1&#45;&gt;Node17</title>
<path fill="none" stroke="midnightblue" d="M83.14,-310.99C106.66,-302.44 141.87,-289.64 170.95,-279.06"/>
<polygon fill="midnightblue" stroke="midnightblue" points="172.35,-282.28 180.55,-275.57 169.96,-275.7 172.35,-282.28"/>
</g>
<!-- Node21 -->
<g id="node21" class="node">
<title>Node21</title>
<g id="a_node21"><a xlink:href="classGpuNUFFTPythonOperator.html#a790d6c1885f30c640064a26f618e64ea" target="_top" xlink:title=" ">
<polygon fill="none" stroke="black" points="148,-573 148,-592 298,-592 298,-573 148,-573"/>
<text text-anchor="middle" x="223" y="-580" font-family="FreeSans.ttf" font-size="10.00">GpuNUFFTPythonOperator::op</text>
</a>
</g>
</g>
<!-- Node1&#45;&gt;Node21 -->
<g id="edge27" class="edge">
<title>Node1&#45;&gt;Node21</title>
<path fill="none" stroke="midnightblue" d="M62.27,-330.16C75.85,-354.89 113.38,-422.34 148,-476.5 168.22,-508.13 193.6,-543.67 208.77,-564.52"/>
<polygon fill="midnightblue" stroke="midnightblue" points="206.06,-566.74 214.79,-572.75 211.71,-562.61 206.06,-566.74"/>
</g>
<!-- Node22 -->
<g id="node22" class="node">
<title>Node22</title>
<g id="a_node22"><a xlink:href="classGpuNUFFTPythonOperator.html#aaf1b1ce70db899390b2236ee9c350433" target="_top" xlink:title=" ">
<polygon fill="none" stroke="black" points="155.5,-37.5 155.5,-67.5 290.5,-67.5 290.5,-37.5 155.5,-37.5"/>
<text text-anchor="start" x="163.5" y="-55.5" font-family="FreeSans.ttf" font-size="10.00">GpuNUFFTPythonOperator</text>
<text text-anchor="middle" x="223" y="-44.5" font-family="FreeSans.ttf" font-size="10.00">::set_smaps</text>
</a>
</g>
</g>
<!-- Node1&#45;&gt;Node22 -->
<g id="edge30" class="edge">
<title>Node1&#45;&gt;Node22</title>
<path fill="none" stroke="midnightblue" d="M61.44,-311C73.85,-284.72 110.48,-209.16 148,-150.5 165.11,-123.75 187.37,-94.95 202.98,-75.54"/>
<polygon fill="midnightblue" stroke="midnightblue" points="205.86,-77.55 209.44,-67.58 200.42,-73.14 205.86,-77.55"/>
</g>
<!-- Node3 -->
<g id="node3" class="node">
<title>Node3</title>
<g id="a_node3"><a xlink:href="python__utils_8hpp.html#a6fc45707d1f047d4232b16582576b2e6" target="_top" xlink:title=" ">
<polygon fill="none" stroke="black" points="368,-617 368,-636 458,-636 458,-617 368,-617"/>
<text text-anchor="middle" x="413" y="-624" font-family="FreeSans.ttf" font-size="10.00">copyNumpyArray</text>
</a>
</g>
</g>
<!-- Node2&#45;&gt;Node3 -->
<g id="edge2" class="edge">
<title>Node2&#45;&gt;Node3</title>
<path fill="none" stroke="midnightblue" d="M233.86,-466.74C258.17,-504.12 320,-597.96 334,-607.5 341.12,-612.35 349.35,-615.96 357.74,-618.66"/>
<polygon fill="midnightblue" stroke="midnightblue" points="357.03,-622.09 367.6,-621.42 358.91,-615.35 357.03,-622.09"/>
</g>
<!-- Node4 -->
<g id="node4" class="node">
<title>Node4</title>
<g id="a_node4"><a xlink:href="classgpuNUFFT_1_1GpuNUFFTOperator.html#a38a45507d840b8d3d97de7fc79b4fa8a" target="_top" xlink:title="Perform Adjoint gridding operation on given kspaceData.">
<polygon fill="none" stroke="black" points="334,-365.5 334,-395.5 492,-395.5 492,-365.5 334,-365.5"/>
<text text-anchor="start" x="342" y="-383.5" font-family="FreeSans.ttf" font-size="10.00">gpuNUFFT::GpuNUFFTOperator</text>
<text text-anchor="middle" x="413" y="-372.5" font-family="FreeSans.ttf" font-size="10.00">::performGpuNUFFTAdj</text>
</a>
</g>
</g>
<!-- Node2&#45;&gt;Node4 -->
<g id="edge3" class="edge">
<title>Node2&#45;&gt;Node4</title>
<path fill="none" stroke="midnightblue" d="M275.95,-436.37C283.46,-433.69 291.01,-430.72 298,-427.5 315.04,-419.66 316.95,-413.31 334,-405.5 338.93,-403.24 344.12,-401.1 349.39,-399.1"/>
<polygon fill="midnightblue" stroke="midnightblue" points="350.7,-402.34 358.9,-395.63 348.31,-395.76 350.7,-402.34"/>
</g>
<!-- Node6 -->
<g id="node6" class="node">
<title>Node6</title>
<g id="a_node6"><a xlink:href="classgpuNUFFT_1_1GpuNUFFTOperator.html#a11b569c99d639766b533f26ac19a09e2" target="_top" xlink:title=" ">
<polygon fill="none" stroke="black" points="334,-49.5 334,-79.5 492,-79.5 492,-49.5 334,-49.5"/>
<text text-anchor="start" x="342" y="-67.5" font-family="FreeSans.ttf" font-size="10.00">gpuNUFFT::GpuNUFFTOperator</text>
<text text-anchor="middle" x="413" y="-56.5" font-family="FreeSans.ttf" font-size="10.00">::clean_memory</text>
</a>
</g>
</g>
<!-- Node5&#45;&gt;Node6 -->
<g id="edge5" class="edge">
<title>Node5&#45;&gt;Node6</title>
<path fill="none" stroke="midnightblue" d="M239.89,-159.29C260.23,-140.55 297.26,-108.82 334,-89.5 338.19,-87.3 342.6,-85.25 347.11,-83.35"/>
<polygon fill="midnightblue" stroke="midnightblue" points="348.46,-86.58 356.47,-79.65 345.88,-80.07 348.46,-86.58"/>
</g>
<!-- Node7&#45;&gt;Node3 -->
<g id="edge10" class="edge">
<title>Node7&#45;&gt;Node3</title>
<path fill="none" stroke="midnightblue" d="M286.19,-417.59C290.57,-420.36 294.6,-423.63 298,-427.5 351.87,-488.77 277.52,-548.63 334,-607.5 340.52,-614.3 349.03,-618.83 358.03,-621.82"/>
<polygon fill="midnightblue" stroke="midnightblue" points="357.34,-625.26 367.91,-624.49 359.17,-618.5 357.34,-625.26"/>
</g>
<!-- Node7&#45;&gt;Node4 -->
<g id="edge16" class="edge">
<title>Node7&#45;&gt;Node4</title>
<path fill="none" stroke="midnightblue" d="M290.55,-394.71C301.3,-393.45 312.58,-392.13 323.76,-390.83"/>
<polygon fill="midnightblue" stroke="midnightblue" points="324.44,-394.27 333.97,-389.63 323.63,-387.32 324.44,-394.27"/>
</g>
<!-- Node8 -->
<g id="node8" class="node">
<title>Node8</title>
<g id="a_node8"><a xlink:href="cuda__utils_8hpp.html#a18413e749218eb97bc61578b50a57787" target="_top" xlink:title="CUDA memory allocation and memcpy call to copy data from host to device.">
<polygon fill="none" stroke="black" points="337,-491 337,-510 489,-510 489,-491 337,-491"/>
<text text-anchor="middle" x="413" y="-498" font-family="FreeSans.ttf" font-size="10.00">allocateAndCopyToDeviceMem</text>
</a>
</g>
</g>
<!-- Node7&#45;&gt;Node8 -->
<g id="edge7" class="edge">
<title>Node7&#45;&gt;Node8</title>
<path fill="none" stroke="midnightblue" d="M281.32,-417.53C287.25,-420.32 292.94,-423.62 298,-427.5 320.89,-445.05 310.37,-464.96 334,-481.5 336.74,-483.42 339.65,-485.14 342.68,-486.7"/>
<polygon fill="midnightblue" stroke="midnightblue" points="341.49,-490 352.05,-490.85 344.33,-483.6 341.49,-490"/>
</g>
<!-- Node9 -->
<g id="node9" class="node">
<title>Node9</title>
<g id="a_node9"><a xlink:href="cuda__utils_8hpp.html#a5fb34b1c5f091a495c7ac4237257d7b1" target="_top" xlink:title="Allocation of device memory of the given extent for the defined type.">
<polygon fill="none" stroke="black" points="362,-289 362,-308 464,-308 464,-289 362,-289"/>
<text text-anchor="middle" x="413" y="-296" font-family="FreeSans.ttf" font-size="10.00">allocateDeviceMem</text>
</a>
</g>
</g>
<!-- Node7&#45;&gt;Node9 -->
<g id="edge8" class="edge">
<title>Node7&#45;&gt;Node9</title>
<path fill="none" stroke="midnightblue" d="M239.33,-387.2C259.37,-368.06 296.38,-335.6 334,-317.5 339.69,-314.76 345.8,-312.4 352.02,-310.37"/>
<polygon fill="midnightblue" stroke="midnightblue" points="353.24,-313.65 361.82,-307.43 351.23,-306.95 353.24,-313.65"/>
</g>
<!-- Node10 -->
<g id="node10" class="node">
<title>Node10</title>
<g id="a_node10"><a xlink:href="cuda__utils_8hpp.html#a0e734eacdc00ba553d77aa057e02059b" target="_top" xlink:title="Copy CUDA memory from device to host asynchronously.">
<polygon fill="none" stroke="black" points="355,-453 355,-472 471,-472 471,-453 355,-453"/>
<text text-anchor="middle" x="413" y="-460" font-family="FreeSans.ttf" font-size="10.00">copyFromDeviceAsync</text>
</a>
</g>
</g>
<!-- Node7&#45;&gt;Node10 -->
<g id="edge9" class="edge">
<title>Node7&#45;&gt;Node10</title>
<path fill="none" stroke="midnightblue" d="M270.82,-417.59C279.89,-420.72 289.28,-424.1 298,-427.5 314.31,-433.86 317.43,-437.85 334,-443.5 341.33,-446 349.15,-448.31 356.9,-450.39"/>
<polygon fill="midnightblue" stroke="midnightblue" points="356.09,-453.8 366.65,-452.91 357.84,-447.02 356.09,-453.8"/>
</g>
<!-- Node11 -->
<g id="node11" class="node">
<title>Node11</title>
<g id="a_node11"><a xlink:href="cuda__utils_8hpp.html#a1f04840b22a32448d0069e89cacd0950" target="_top" xlink:title="CUDA memcpy call to copy data from host to device.">
<polygon fill="none" stroke="black" points="360.5,-251 360.5,-270 465.5,-270 465.5,-251 360.5,-251"/>
<text text-anchor="middle" x="413" y="-258" font-family="FreeSans.ttf" font-size="10.00">copyToDeviceAsync</text>
</a>
</g>
</g>
<!-- Node7&#45;&gt;Node11 -->
<g id="edge11" class="edge">
<title>Node7&#45;&gt;Node11</title>
<path fill="none" stroke="midnightblue" d="M233.12,-387.36C249.74,-361.11 287.56,-307.34 334,-279.5 339.13,-276.42 344.73,-273.85 350.51,-271.68"/>
<polygon fill="midnightblue" stroke="midnightblue" points="351.94,-274.9 360.33,-268.43 349.73,-268.25 351.94,-274.9"/>
</g>
<!-- Node12 -->
<g id="node12" class="node">
<title>Node12</title>
<g id="a_node12"><a xlink:href="structgpuNUFFT_1_1Array.html#af426f56b5d7e05b6143acbdd51bac188" target="_top" xlink:title=" ">
<polygon fill="none" stroke="black" points="352.5,-529 352.5,-548 473.5,-548 473.5,-529 352.5,-529"/>
<text text-anchor="middle" x="413" y="-536" font-family="FreeSans.ttf" font-size="10.00">gpuNUFFT::Array::count</text>
</a>
</g>
</g>
<!-- Node7&#45;&gt;Node12 -->
<g id="edge12" class="edge">
<title>Node7&#45;&gt;Node12</title>
<path fill="none" stroke="midnightblue" d="M284.4,-417.66C289.34,-420.41 293.98,-423.66 298,-427.5 329.77,-457.81 300.94,-490.6 334,-519.5 336.84,-521.99 339.96,-524.16 343.26,-526.05"/>
<polygon fill="midnightblue" stroke="midnightblue" points="341.82,-529.25 352.35,-530.46 344.88,-522.95 341.82,-529.25"/>
</g>
<!-- Node14 -->
<g id="node14" class="node">
<title>Node14</title>
<g id="a_node14"><a xlink:href="gpuNUFFT__kernels_8hpp.html#a7ea425f71e9b13006582e6280512f11c" target="_top" xlink:title="Perform data1 = data1 &#45; data2.">
<polygon fill="none" stroke="black" points="382,-415 382,-434 444,-434 444,-415 382,-415"/>
<text text-anchor="middle" x="413" y="-422" font-family="FreeSans.ttf" font-size="10.00">diffInPlace</text>
</a>
</g>
</g>
<!-- Node7&#45;&gt;Node14 -->
<g id="edge14" class="edge">
<title>Node7&#45;&gt;Node14</title>
<path fill="none" stroke="midnightblue" d="M290.55,-410.29C317.69,-413.46 348.18,-417.03 371.82,-419.8"/>
<polygon fill="midnightblue" stroke="midnightblue" points="371.5,-423.28 381.83,-420.97 372.31,-416.33 371.5,-423.28"/>
</g>
<!-- Node15 -->
<g id="node15" class="node">
<title>Node15</title>
<g id="a_node15"><a xlink:href="classgpuNUFFT_1_1GpuNUFFTOperator.html#a10d565529aa2c7778c15edb8a820b417" target="_top" xlink:title="Perform forward gridding operation on given kspaceData.">
<polygon fill="none" stroke="black" points="334,-567.5 334,-597.5 492,-597.5 492,-567.5 334,-567.5"/>
<text text-anchor="start" x="342" y="-585.5" font-family="FreeSans.ttf" font-size="10.00">gpuNUFFT::GpuNUFFTOperator</text>
<text text-anchor="middle" x="413" y="-574.5" font-family="FreeSans.ttf" font-size="10.00">::performForwardGpuNUFFT</text>
</a>
</g>
</g>
<!-- Node7&#45;&gt;Node15 -->
<g id="edge15" class="edge">
<title>Node7&#45;&gt;Node15</title>
<path fill="none" stroke="midnightblue" d="M285.54,-417.65C290.12,-420.41 294.37,-423.66 298,-427.5 339.2,-471.06 292.46,-514.27 334,-557.5 335.4,-558.96 336.89,-560.34 338.45,-561.63"/>
<polygon fill="midnightblue" stroke="midnightblue" points="336.59,-564.6 346.79,-567.47 340.6,-558.87 336.59,-564.6"/>
</g>
<!-- Node16 -->
<g id="node16" class="node">
<title>Node16</title>
<g id="a_node16"><a xlink:href="python__utils_8hpp.html#aeb74d2cb99381f659a6890373021e833" target="_top" xlink:title=" ">
<polygon fill="none" stroke="black" points="368.5,-327 368.5,-346 457.5,-346 457.5,-327 368.5,-327"/>
<text text-anchor="middle" x="413" y="-334" font-family="FreeSans.ttf" font-size="10.00">readNumpyArray</text>
</a>
</g>
</g>
<!-- Node7&#45;&gt;Node16 -->
<g id="edge17" class="edge">
<title>Node7&#45;&gt;Node16</title>
<path fill="none" stroke="midnightblue" d="M256.74,-387.34C278.36,-377.69 307.51,-365.38 334,-356.5 342.38,-353.69 351.37,-351.05 360.17,-348.66"/>
<polygon fill="midnightblue" stroke="midnightblue" points="361.2,-352.01 369.98,-346.08 359.42,-345.24 361.2,-352.01"/>
</g>
<!-- Node13 -->
<g id="node13" class="node">
<title>Node13</title>
<g id="a_node13"><a xlink:href="structgpuNUFFT_1_1Dimensions.html#a4c589934c5444910fbcd890d128229c9" target="_top" xlink:title="Compute total count of array length.">
<polygon fill="none" stroke="black" points="528,-365.5 528,-395.5 649,-395.5 649,-365.5 528,-365.5"/>
<text text-anchor="start" x="536" y="-383.5" font-family="FreeSans.ttf" font-size="10.00">gpuNUFFT::Dimensions</text>
<text text-anchor="middle" x="588.5" y="-372.5" font-family="FreeSans.ttf" font-size="10.00">::count</text>
</a>
</g>
</g>
<!-- Node12&#45;&gt;Node13 -->
<g id="edge13" class="edge">
<title>Node12&#45;&gt;Node13</title>
<path fill="none" stroke="midnightblue" d="M473.49,-528.93C480.05,-526.47 486.38,-523.38 492,-519.5 533.97,-490.55 563.03,-436.66 577.33,-405.16"/>
<polygon fill="midnightblue" stroke="midnightblue" points="580.63,-406.34 581.45,-395.78 574.22,-403.53 580.63,-406.34"/>
</g>
<!-- Node17&#45;&gt;Node4 -->
<g id="edge25" class="edge">
<title>Node17&#45;&gt;Node4</title>
<path fill="none" stroke="midnightblue" d="M237.83,-275.81C257.37,-296.6 295.05,-333.65 334,-355.5 337.87,-357.67 341.96,-359.69 346.15,-361.55"/>
<polygon fill="midnightblue" stroke="midnightblue" points="344.88,-364.81 355.46,-365.39 347.55,-358.34 344.88,-364.81"/>
</g>
<!-- Node17&#45;&gt;Node9 -->
<g id="edge20" class="edge">
<title>Node17&#45;&gt;Node9</title>
<path fill="none" stroke="midnightblue" d="M290.55,-273.95C311.51,-278.19 334.47,-282.83 354.73,-286.92"/>
<polygon fill="midnightblue" stroke="midnightblue" points="354.25,-290.4 364.75,-288.95 355.64,-283.54 354.25,-290.4"/>
</g>
<!-- Node17&#45;&gt;Node11 -->
<g id="edge21" class="edge">
<title>Node17&#45;&gt;Node11</title>
<path fill="none" stroke="midnightblue" d="M290.55,-260.5C309.98,-260.5 331.12,-260.5 350.24,-260.5"/>
<polygon fill="midnightblue" stroke="midnightblue" points="350.33,-264 360.33,-260.5 350.33,-257 350.33,-264"/>
</g>
<!-- Node17&#45;&gt;Node13 -->
<g id="edge22" class="edge">
<title>Node17&#45;&gt;Node13</title>
<path fill="none" stroke="midnightblue" d="M263.48,-245.36C318.23,-226.99 418.73,-202.94 492,-241.5 537.79,-265.59 565.87,-322.66 578.87,-355.7"/>
<polygon fill="midnightblue" stroke="midnightblue" points="575.62,-356.99 582.42,-365.11 582.17,-354.52 575.62,-356.99"/>
</g>
<!-- Node17&#45;&gt;Node15 -->
<g id="edge24" class="edge">
<title>Node17&#45;&gt;Node15</title>
<path fill="none" stroke="midnightblue" d="M235.98,-275.55C252.51,-297.09 282.06,-338.52 298,-378.5 328.05,-453.88 279.91,-497.01 334,-557.5 335.17,-558.81 336.41,-560.06 337.72,-561.23"/>
<polygon fill="midnightblue" stroke="midnightblue" points="335.66,-564.07 345.75,-567.3 339.88,-558.48 335.66,-564.07"/>
</g>
<!-- Node18 -->
<g id="node18" class="node">
<title>Node18</title>
<g id="a_node18"><a xlink:href="python__utils_8hpp.html#a5732db3eeef010cc926583da8f91fcd6" target="_top" xlink:title=" ">
<polygon fill="none" stroke="black" points="351,-175 351,-194 475,-194 475,-175 351,-175"/>
<text text-anchor="middle" x="413" y="-182" font-family="FreeSans.ttf" font-size="10.00">allocate_pinned_memory</text>
</a>
</g>
</g>
<!-- Node17&#45;&gt;Node18 -->
<g id="edge19" class="edge">
<title>Node17&#45;&gt;Node18</title>
<path fill="none" stroke="midnightblue" d="M252.92,-245.43C274.82,-234.37 305.84,-219.42 334,-208.5 344.62,-204.38 356.26,-200.48 367.23,-197.07"/>
<polygon fill="midnightblue" stroke="midnightblue" points="368.53,-200.34 377.08,-194.08 366.49,-193.64 368.53,-200.34"/>
</g>
<!-- Node19 -->
<g id="node19" class="node">
<title>Node19</title>
<g id="a_node19"><a xlink:href="cuda__utils_8hpp.html#a6ffa821f98a8c2b391c12c01308ff1db" target="_top" xlink:title="Free of device memory.">
<polygon fill="none" stroke="black" points="370.5,-137 370.5,-156 455.5,-156 455.5,-137 370.5,-137"/>
<text text-anchor="middle" x="413" y="-144" font-family="FreeSans.ttf" font-size="10.00">freeDeviceMem</text>
</a>
</g>
</g>
<!-- Node17&#45;&gt;Node19 -->
<g id="edge23" class="edge">
<title>Node17&#45;&gt;Node19</title>
<path fill="none" stroke="midnightblue" d="M243.15,-245.3C258.27,-233.16 279.77,-215.59 298,-199.5 314.5,-184.94 314.66,-176.01 334,-165.5 342.18,-161.05 351.41,-157.63 360.58,-155"/>
<polygon fill="midnightblue" stroke="midnightblue" points="361.64,-158.34 370.45,-152.46 359.89,-151.57 361.64,-158.34"/>
</g>
<!-- Node20 -->
<g id="node20" class="node">
<title>Node20</title>
<g id="a_node20"><a xlink:href="gpuNUFFT__kernels_8hpp.html#aeef5d0634868e22a476b5cbb3f54f6a2" target="_top" xlink:title="Perform the Density compensation method.">
<polygon fill="none" stroke="black" points="343.5,-99 343.5,-118 482.5,-118 482.5,-99 343.5,-99"/>
<text text-anchor="middle" x="413" y="-106" font-family="FreeSans.ttf" font-size="10.00">performUpdateDensityComp</text>
</a>
</g>
</g>
<!-- Node17&#45;&gt;Node20 -->
<g id="edge26" class="edge">
<title>Node17&#45;&gt;Node20</title>
<path fill="none" stroke="midnightblue" d="M247.21,-245.27C263.01,-234.03 283.58,-217.6 298,-199.5 320.29,-171.51 306.02,-149.8 334,-127.5 336.1,-125.83 338.32,-124.3 340.64,-122.9"/>
<polygon fill="midnightblue" stroke="midnightblue" points="342.66,-125.8 349.99,-118.14 339.49,-119.56 342.66,-125.8"/>
</g>
<!-- Node21&#45;&gt;Node3 -->
<g id="edge28" class="edge">
<title>Node21&#45;&gt;Node3</title>
<path fill="none" stroke="midnightblue" d="M264.79,-592.05C293.12,-598.68 331.07,-607.56 361.34,-614.64"/>
<polygon fill="midnightblue" stroke="midnightblue" points="360.75,-618.1 371.29,-616.97 362.35,-611.28 360.75,-618.1"/>
</g>
<!-- Node21&#45;&gt;Node15 -->
<g id="edge29" class="edge">
<title>Node21&#45;&gt;Node15</title>
<path fill="none" stroke="midnightblue" d="M298.03,-582.5C306.45,-582.5 315.1,-582.5 323.68,-582.5"/>
<polygon fill="midnightblue" stroke="midnightblue" points="323.7,-586 333.7,-582.5 323.7,-579 323.7,-586"/>
</g>
<!-- Node23 -->
<g id="node23" class="node">
<title>Node23</title>
<g id="a_node23"><a xlink:href="classgpuNUFFT_1_1GpuNUFFTOperator.html#adbc6f59fc4a4998a4ad5bb65c38b1f03" target="_top" xlink:title=" ">
<polygon fill="none" stroke="black" points="334,-0.5 334,-30.5 492,-30.5 492,-0.5 334,-0.5"/>
<text text-anchor="start" x="342" y="-18.5" font-family="FreeSans.ttf" font-size="10.00">gpuNUFFT::GpuNUFFTOperator</text>
<text text-anchor="middle" x="413" y="-7.5" font-family="FreeSans.ttf" font-size="10.00">::setSens</text>
</a>
</g>
</g>
<!-- Node22&#45;&gt;Node23 -->
<g id="edge31" class="edge">
<title>Node22&#45;&gt;Node23</title>
<path fill="none" stroke="midnightblue" d="M290.55,-39.4C301.93,-37.16 313.91,-34.8 325.73,-32.48"/>
<polygon fill="midnightblue" stroke="midnightblue" points="326.46,-35.9 335.59,-30.54 325.11,-29.03 326.46,-35.9"/>
</g>
</g>
</svg>
