<?xml version="1.0" encoding="UTF-8" standalone="no"?>
<!DOCTYPE svg PUBLIC "-//W3C//DTD SVG 1.1//EN"
 "http://www.w3.org/Graphics/SVG/1.1/DTD/svg11.dtd">
<!-- Generated by graphviz version 2.49.3 (20211027.1534)
 -->
<!-- Title: python/src/python_factory.cpp Pages: 1 -->
<svg width="1180pt" height="543pt"
 viewBox="0.00 0.00 1179.50 543.00" xmlns="http://www.w3.org/2000/svg" xmlns:xlink="http://www.w3.org/1999/xlink">
<g id="graph0" class="graph" transform="scale(1 1) rotate(0) translate(4 539)">
<title>python/src/python_factory.cpp</title>
<!-- Node1 -->
<g id="node1" class="node">
<title>Node1</title>
<g id="a_node1"><a xlink:title=" ">
<polygon fill="#bfbfbf" stroke="black" points="561,-515.5 561,-534.5 707,-534.5 707,-515.5 561,-515.5"/>
<text text-anchor="middle" x="634" y="-522.5" font-family="FreeSans.ttf" font-size="10.00">python/src/python_factory.cpp</text>
</a>
</g>
</g>
<!-- Node2 -->
<g id="node2" class="node">
<title>Node2</title>
<g id="a_node2"><a xlink:title=" ">
<polygon fill="none" stroke="#bfbfbf" points="66,-342 66,-361 122,-361 122,-342 66,-342"/>
<text text-anchor="middle" x="94" y="-349" font-family="FreeSans.ttf" font-size="10.00">algorithm</text>
</a>
</g>
</g>
<!-- Node1&#45;&gt;Node2 -->
<g id="edge1" class="edge">
<title>Node1&#45;&gt;Node2</title>
<path fill="none" stroke="midnightblue" d="M576.68,-515.45C531,-507.93 465.69,-495.59 410,-479 300.17,-446.28 175.4,-390.54 121.35,-365.43"/>
<polygon fill="midnightblue" stroke="midnightblue" points="122.64,-362.17 112.1,-361.11 119.68,-368.52 122.64,-362.17"/>
</g>
<!-- Node3 -->
<g id="node3" class="node">
<title>Node3</title>
<g id="a_node3"><a xlink:title=" ">
<polygon fill="none" stroke="#bfbfbf" points="140,-342 140,-361 184,-361 184,-342 140,-342"/>
<text text-anchor="middle" x="162" y="-349" font-family="FreeSans.ttf" font-size="10.00">vector</text>
</a>
</g>
</g>
<!-- Node1&#45;&gt;Node3 -->
<g id="edge2" class="edge">
<title>Node1&#45;&gt;Node3</title>
<path fill="none" stroke="midnightblue" d="M598.67,-515.48C565.42,-507.17 514.38,-493.67 471,-479 344.82,-436.32 315.15,-420.13 193,-367 191.8,-366.48 190.59,-365.94 189.36,-365.4"/>
<polygon fill="midnightblue" stroke="midnightblue" points="190.51,-362.07 179.96,-361.1 187.6,-368.44 190.51,-362.07"/>
</g>
<!-- Node4 -->
<g id="node4" class="node">
<title>Node4</title>
<g id="a_node4"><a xlink:title=" ">
<polygon fill="none" stroke="#bfbfbf" points="202.5,-342 202.5,-361 243.5,-361 243.5,-342 202.5,-342"/>
<text text-anchor="middle" x="223" y="-349" font-family="FreeSans.ttf" font-size="10.00">string</text>
</a>
</g>
</g>
<!-- Node1&#45;&gt;Node4 -->
<g id="edge3" class="edge">
<title>Node1&#45;&gt;Node4</title>
<path fill="none" stroke="midnightblue" d="M611.86,-515.35C589.03,-506.39 552.44,-491.93 521,-479 422.11,-438.34 305.63,-388.25 252.31,-365.2"/>
<polygon fill="midnightblue" stroke="midnightblue" points="253.38,-361.85 242.81,-361.09 250.6,-368.28 253.38,-361.85"/>
</g>
<!-- Node5 -->
<g id="node5" class="node">
<title>Node5</title>
<g id="a_node5"><a xlink:title=" ">
<polygon fill="none" stroke="#bfbfbf" points="808,-403.5 808,-422.5 912,-422.5 912,-403.5 808,-403.5"/>
<text text-anchor="middle" x="860" y="-410.5" font-family="FreeSans.ttf" font-size="10.00">pybind11/pybind11.h</text>
</a>
</g>
</g>
<!-- Node1&#45;&gt;Node5 -->
<g id="edge4" class="edge">
<title>Node1&#45;&gt;Node5</title>
<path fill="none" stroke="midnightblue" d="M707.13,-515.52C757.51,-508.28 818.72,-496.28 838,-479 851.15,-467.21 856.45,-447.29 858.58,-432.6"/>
<polygon fill="midnightblue" stroke="midnightblue" points="862.06,-432.92 859.67,-422.6 855.1,-432.17 862.06,-432.92"/>
</g>
<!-- Node6 -->
<g id="node6" class="node">
<title>Node6</title>
<g id="a_node6"><a xlink:title=" ">
<polygon fill="none" stroke="#bfbfbf" points="930,-403.5 930,-422.5 1024,-422.5 1024,-403.5 930,-403.5"/>
<text text-anchor="middle" x="977" y="-410.5" font-family="FreeSans.ttf" font-size="10.00">pybind11/numpy.h</text>
</a>
</g>
</g>
<!-- Node1&#45;&gt;Node6 -->
<g id="edge5" class="edge">
<title>Node1&#45;&gt;Node6</title>
<path fill="none" stroke="midnightblue" d="M704.1,-515.47C749.02,-508.66 808.05,-497.18 858,-479 894.16,-465.84 932.67,-442.98 955.77,-428.18"/>
<polygon fill="midnightblue" stroke="midnightblue" points="957.93,-430.95 964.4,-422.56 954.11,-425.08 957.93,-430.95"/>
</g>
<!-- Node7 -->
<g id="node7" class="node">
<title>Node7</title>
<g id="a_node7"><a xlink:title=" ">
<polygon fill="none" stroke="#bfbfbf" points="398.5,-403.5 398.5,-422.5 499.5,-422.5 499.5,-403.5 398.5,-403.5"/>
<text text-anchor="middle" x="449" y="-410.5" font-family="FreeSans.ttf" font-size="10.00">pybind11/complex.h</text>
</a>
</g>
</g>
<!-- Node1&#45;&gt;Node7 -->
<g id="edge6" class="edge">
<title>Node1&#45;&gt;Node7</title>
<path fill="none" stroke="midnightblue" d="M619.48,-515.37C587.6,-496.41 511.23,-451 472.45,-427.94"/>
<polygon fill="midnightblue" stroke="midnightblue" points="473.83,-424.69 463.45,-422.59 470.26,-430.71 473.83,-424.69"/>
</g>
<!-- Node8 -->
<g id="node8" class="node">
<title>Node8</title>
<g id="a_node8"><a xlink:title=" ">
<polygon fill="none" stroke="#bfbfbf" points="28.5,-56.5 28.5,-75.5 71.5,-75.5 71.5,-56.5 28.5,-56.5"/>
<text text-anchor="middle" x="50" y="-63.5" font-family="FreeSans.ttf" font-size="10.00">cufft.h</text>
</a>
</g>
</g>
<!-- Node1&#45;&gt;Node8 -->
<g id="edge7" class="edge">
<title>Node1&#45;&gt;Node8</title>
<path fill="none" stroke="midnightblue" d="M560.92,-518.06C401.77,-504.16 38,-466.61 38,-414 38,-414 38,-414 38,-177 38,-144.76 43.16,-107.51 46.71,-85.68"/>
<polygon fill="midnightblue" stroke="midnightblue" points="50.21,-85.97 48.43,-75.52 43.31,-84.8 50.21,-85.97"/>
</g>
<!-- Node9 -->
<g id="node9" class="node">
<title>Node9</title>
<g id="a_node9"><a xlink:title=" ">
<polygon fill="none" stroke="#bfbfbf" points="58.5,-0.5 58.5,-19.5 141.5,-19.5 141.5,-0.5 58.5,-0.5"/>
<text text-anchor="middle" x="100" y="-7.5" font-family="FreeSans.ttf" font-size="10.00">cuda_runtime.h</text>
</a>
</g>
</g>
<!-- Node1&#45;&gt;Node9 -->
<g id="edge8" class="edge">
<title>Node1&#45;&gt;Node9</title>
<path fill="none" stroke="midnightblue" d="M560.77,-520.66C441.89,-514.68 212.31,-500.73 134,-479 70.22,-461.3 0,-480.19 0,-414 0,-414 0,-414 0,-121 0,-90.9 0.21,-79.52 19,-56 30.64,-41.43 48.35,-30.83 64.25,-23.59"/>
<polygon fill="midnightblue" stroke="midnightblue" points="66,-26.64 73.84,-19.51 63.27,-20.2 66,-26.64"/>
</g>
<!-- Node10 -->
<g id="node10" class="node">
<title>Node10</title>
<g id="a_node10"><a xlink:title=" ">
<polygon fill="none" stroke="#bfbfbf" points="696.5,-0.5 696.5,-19.5 741.5,-19.5 741.5,-0.5 696.5,-0.5"/>
<text text-anchor="middle" x="719" y="-7.5" font-family="FreeSans.ttf" font-size="10.00">cuda.h</text>
</a>
</g>
</g>
<!-- Node1&#45;&gt;Node10 -->
<g id="edge9" class="edge">
<title>Node1&#45;&gt;Node10</title>
<path fill="none" stroke="midnightblue" d="M707.03,-521.63C823.94,-517.06 1042.46,-505.12 1066,-479 1207.46,-322.04 1009.92,-192.93 849,-56 821.14,-32.29 780.07,-20.84 751.58,-15.47"/>
<polygon fill="midnightblue" stroke="midnightblue" points="752.15,-12.02 741.7,-13.76 750.95,-18.92 752.15,-12.02"/>
</g>
<!-- Node11 -->
<g id="node11" class="node">
<title>Node11</title>
<g id="a_node11"><a xlink:title=" ">
<polygon fill="none" stroke="#bfbfbf" points="1118.5,-459.5 1118.5,-478.5 1171.5,-478.5 1171.5,-459.5 1118.5,-459.5"/>
<text text-anchor="middle" x="1145" y="-466.5" font-family="FreeSans.ttf" font-size="10.00">cublas.h</text>
</a>
</g>
</g>
<!-- Node1&#45;&gt;Node11 -->
<g id="edge10" class="edge">
<title>Node1&#45;&gt;Node11</title>
<path fill="none" stroke="midnightblue" d="M707.21,-519.74C799.95,-513.71 964.52,-500.9 1104,-479 1105.3,-478.8 1106.61,-478.58 1107.94,-478.35"/>
<polygon fill="midnightblue" stroke="midnightblue" points="1109.02,-481.7 1118.18,-476.37 1107.7,-474.83 1109.02,-481.7"/>
</g>
<!-- Node12 -->
<g id="node12" class="node">
<title>Node12</title>
<g id="a_node12"><a xlink:title=" ">
<polygon fill="none" stroke="#bfbfbf" points="908,-0.5 908,-19.5 968,-19.5 968,-0.5 908,-0.5"/>
<text text-anchor="middle" x="938" y="-7.5" font-family="FreeSans.ttf" font-size="10.00">config.hpp</text>
</a>
</g>
</g>
<!-- Node1&#45;&gt;Node12 -->
<g id="edge11" class="edge">
<title>Node1&#45;&gt;Node12</title>
<path fill="none" stroke="midnightblue" d="M707.29,-519.73C827.17,-510.73 1052,-484.44 1052,-414 1052,-414 1052,-414 1052,-121 1052,-74.11 1001.45,-40.89 967.67,-23.93"/>
<polygon fill="midnightblue" stroke="midnightblue" points="969.17,-20.77 958.64,-19.58 966.13,-27.07 969.17,-20.77"/>
</g>
<!-- Node13 -->
<g id="node13" class="node">
<title>Node13</title>
<g id="a_node13"><a xlink:href="gpuNUFFT__operator__factory_8hpp.html" target="_top" xlink:title=" ">
<polygon fill="none" stroke="black" points="518,-403.5 518,-422.5 676,-422.5 676,-403.5 518,-403.5"/>
<text text-anchor="middle" x="597" y="-410.5" font-family="FreeSans.ttf" font-size="10.00">gpuNUFFT_operator_factory.hpp</text>
</a>
</g>
</g>
<!-- Node1&#45;&gt;Node13 -->
<g id="edge12" class="edge">
<title>Node1&#45;&gt;Node13</title>
<path fill="none" stroke="midnightblue" d="M630.86,-515.4C627.58,-506.36 622.32,-491.72 618,-479 612.7,-463.38 606.96,-445.55 602.83,-432.52"/>
<polygon fill="midnightblue" stroke="midnightblue" points="606.12,-431.34 599.77,-422.86 599.45,-433.45 606.12,-431.34"/>
</g>
<!-- Node35 -->
<g id="node35" class="node">
<title>Node35</title>
<g id="a_node35"><a xlink:href="python__factory_8hpp.html" target="_top" xlink:title=" ">
<polygon fill="none" stroke="black" points="731,-459.5 731,-478.5 829,-478.5 829,-459.5 731,-459.5"/>
<text text-anchor="middle" x="780" y="-466.5" font-family="FreeSans.ttf" font-size="10.00">python_factory.hpp</text>
</a>
</g>
</g>
<!-- Node1&#45;&gt;Node35 -->
<g id="edge65" class="edge">
<title>Node1&#45;&gt;Node35</title>
<path fill="none" stroke="midnightblue" d="M657.13,-515.44C681.48,-506.44 720.01,-492.19 747.42,-482.05"/>
<polygon fill="midnightblue" stroke="midnightblue" points="748.81,-485.27 756.97,-478.52 746.38,-478.7 748.81,-485.27"/>
</g>
<!-- Node36 -->
<g id="node36" class="node">
<title>Node36</title>
<g id="a_node36"><a xlink:href="python__utils_8hpp.html" target="_top" xlink:title=" ">
<polygon fill="none" stroke="black" points="627,-459.5 627,-478.5 713,-478.5 713,-459.5 627,-459.5"/>
<text text-anchor="middle" x="670" y="-466.5" font-family="FreeSans.ttf" font-size="10.00">python_utils.hpp</text>
</a>
</g>
</g>
<!-- Node1&#45;&gt;Node36 -->
<g id="edge71" class="edge">
<title>Node1&#45;&gt;Node36</title>
<path fill="none" stroke="midnightblue" d="M639.94,-515.08C644.98,-507.53 652.34,-496.49 658.51,-487.23"/>
<polygon fill="midnightblue" stroke="midnightblue" points="661.53,-489.01 664.17,-478.75 655.71,-485.13 661.53,-489.01"/>
</g>
<!-- Node13&#45;&gt;Node2 -->
<g id="edge55" class="edge">
<title>Node13&#45;&gt;Node2</title>
<path fill="none" stroke="midnightblue" d="M517.9,-403.98C514.56,-403.65 511.25,-403.32 508,-403 340.49,-386.53 294.72,-406.09 131,-367 128.17,-366.32 125.27,-365.48 122.39,-364.53"/>
<polygon fill="midnightblue" stroke="midnightblue" points="123.47,-361.2 112.88,-361.06 121.07,-367.78 123.47,-361.2"/>
</g>
<!-- Node13&#45;&gt;Node3 -->
<g id="edge56" class="edge">
<title>Node13&#45;&gt;Node3</title>
<path fill="none" stroke="midnightblue" d="M517.72,-403.84C404.5,-392.09 208.39,-371.33 193,-367 191.07,-366.46 189.11,-365.81 187.16,-365.08"/>
<polygon fill="midnightblue" stroke="midnightblue" points="188.28,-361.75 177.71,-361.06 185.54,-368.19 188.28,-361.75"/>
</g>
<!-- Node13&#45;&gt;Node4 -->
<g id="edge57" class="edge">
<title>Node13&#45;&gt;Node4</title>
<path fill="none" stroke="midnightblue" d="M517.65,-403.88C433.23,-394.82 305.45,-379.74 258,-367 255.55,-366.34 253.05,-365.56 250.57,-364.69"/>
<polygon fill="midnightblue" stroke="midnightblue" points="251.8,-361.42 241.21,-361.1 249.29,-367.95 251.8,-361.42"/>
</g>
<!-- Node13&#45;&gt;Node12 -->
<g id="edge13" class="edge">
<title>Node13&#45;&gt;Node12</title>
<path fill="none" stroke="midnightblue" d="M663.56,-403.49C712.75,-395.99 774.44,-383.66 794,-367 902.25,-274.8 930.08,-89.13 936.35,-29.73"/>
<polygon fill="midnightblue" stroke="midnightblue" points="939.85,-29.89 937.34,-19.6 932.89,-29.21 939.85,-29.89"/>
</g>
<!-- Node14 -->
<g id="node14" class="node">
<title>Node14</title>
<g id="a_node14"><a xlink:href="gpuNUFFT__operator_8hpp.html" target="_top" xlink:title=" ">
<polygon fill="none" stroke="black" points="318,-224.5 318,-243.5 442,-243.5 442,-224.5 318,-224.5"/>
<text text-anchor="middle" x="380" y="-231.5" font-family="FreeSans.ttf" font-size="10.00">gpuNUFFT_operator.hpp</text>
</a>
</g>
</g>
<!-- Node13&#45;&gt;Node14 -->
<g id="edge14" class="edge">
<title>Node13&#45;&gt;Node14</title>
<path fill="none" stroke="midnightblue" d="M568.12,-403.46C524.89,-389.17 443.65,-356.33 399,-300 388.4,-286.62 383.71,-267.51 381.64,-253.47"/>
<polygon fill="midnightblue" stroke="midnightblue" points="385.11,-253.04 380.47,-243.51 378.16,-253.85 385.11,-253.04"/>
</g>
<!-- Node22 -->
<g id="node22" class="node">
<title>Node22</title>
<g id="a_node22"><a xlink:title=" ">
<polygon fill="none" stroke="#bfbfbf" points="228,-0.5 228,-19.5 272,-19.5 272,-0.5 228,-0.5"/>
<text text-anchor="middle" x="250" y="-7.5" font-family="FreeSans.ttf" font-size="10.00">cmath</text>
</a>
</g>
</g>
<!-- Node13&#45;&gt;Node22 -->
<g id="edge58" class="edge">
<title>Node13&#45;&gt;Node22</title>
<path fill="none" stroke="midnightblue" d="M522.01,-403.49C436.85,-393.45 306.93,-376.89 286,-367 267.51,-358.26 267.21,-349.67 252,-336 201.65,-290.75 138,-302.69 138,-235 138,-235 138,-235 138,-121 138,-74.61 187.51,-41.28 220.69,-24.15"/>
<polygon fill="midnightblue" stroke="midnightblue" points="222.57,-27.13 229.98,-19.56 219.46,-20.86 222.57,-27.13"/>
</g>
<!-- Node25 -->
<g id="node25" class="node">
<title>Node25</title>
<g id="a_node25"><a xlink:href="cuda__utils_8hpp.html" target="_top" xlink:title="Util functions for CUDA memory and texture management.">
<polygon fill="none" stroke="black" points="170.5,-112.5 170.5,-131.5 249.5,-131.5 249.5,-112.5 170.5,-112.5"/>
<text text-anchor="middle" x="210" y="-119.5" font-family="FreeSans.ttf" font-size="10.00">cuda_utils.hpp</text>
</a>
</g>
</g>
<!-- Node13&#45;&gt;Node25 -->
<g id="edge59" class="edge">
<title>Node13&#45;&gt;Node25</title>
<path fill="none" stroke="midnightblue" d="M521.18,-403.47C453.86,-395.15 361.05,-381.65 327,-367 306.01,-357.97 304.57,-349.31 286,-336 262.86,-319.41 248.8,-323.69 233,-300 200.09,-250.67 203.53,-176.18 207.36,-141.72"/>
<polygon fill="midnightblue" stroke="midnightblue" points="210.85,-142.01 208.63,-131.66 203.91,-141.14 210.85,-142.01"/>
</g>
<!-- Node28 -->
<g id="node28" class="node">
<title>Node28</title>
<g id="a_node28"><a xlink:href="balanced__gpuNUFFT__operator_8hpp.html" target="_top" xlink:title=" ">
<polygon fill="none" stroke="black" points="584,-280.5 584,-299.5 752,-299.5 752,-280.5 584,-280.5"/>
<text text-anchor="middle" x="668" y="-287.5" font-family="FreeSans.ttf" font-size="10.00">balanced_gpuNUFFT_operator.hpp</text>
</a>
</g>
</g>
<!-- Node13&#45;&gt;Node28 -->
<g id="edge41" class="edge">
<title>Node13&#45;&gt;Node28</title>
<path fill="none" stroke="midnightblue" d="M600.24,-403.22C605.76,-388.69 617.8,-358.99 632,-336 638.16,-326.02 646.23,-315.74 653.17,-307.53"/>
<polygon fill="midnightblue" stroke="midnightblue" points="655.95,-309.67 659.86,-299.82 650.66,-305.08 655.95,-309.67"/>
</g>
<!-- Node30 -->
<g id="node30" class="node">
<title>Node30</title>
<g id="a_node30"><a xlink:href="texture__gpuNUFFT__operator_8hpp.html" target="_top" xlink:title=" ">
<polygon fill="none" stroke="black" points="408,-280.5 408,-299.5 566,-299.5 566,-280.5 408,-280.5"/>
<text text-anchor="middle" x="487" y="-287.5" font-family="FreeSans.ttf" font-size="10.00">texture_gpuNUFFT_operator.hpp</text>
</a>
</g>
</g>
<!-- Node13&#45;&gt;Node30 -->
<g id="edge46" class="edge">
<title>Node13&#45;&gt;Node30</title>
<path fill="none" stroke="midnightblue" d="M589.09,-403.3C570.78,-383.15 525.23,-333.06 501.66,-307.12"/>
<polygon fill="midnightblue" stroke="midnightblue" points="504.16,-304.67 494.84,-299.62 498.98,-309.38 504.16,-304.67"/>
</g>
<!-- Node33 -->
<g id="node33" class="node">
<title>Node33</title>
<g id="a_node33"><a xlink:href="balanced__texture__gpuNUFFT__operator_8hpp.html" target="_top" xlink:title=" ">
<polygon fill="none" stroke="black" points="641,-336.5 641,-366.5 785,-366.5 785,-336.5 641,-336.5"/>
<text text-anchor="start" x="649" y="-354.5" font-family="FreeSans.ttf" font-size="10.00">balanced_texture_gpuNUFFT</text>
<text text-anchor="middle" x="713" y="-343.5" font-family="FreeSans.ttf" font-size="10.00">_operator.hpp</text>
</a>
</g>
</g>
<!-- Node13&#45;&gt;Node33 -->
<g id="edge51" class="edge">
<title>Node13&#45;&gt;Node33</title>
<path fill="none" stroke="midnightblue" d="M613.62,-403.48C629.99,-395.08 655.54,-381.97 676.63,-371.15"/>
<polygon fill="midnightblue" stroke="midnightblue" points="678.36,-374.2 685.66,-366.52 675.17,-367.97 678.36,-374.2"/>
</g>
<!-- Node34 -->
<g id="node34" class="node">
<title>Node34</title>
<g id="a_node34"><a xlink:href="precomp__utils_8hpp.html" target="_top" xlink:title="UTIL functions for precomputation.">
<polygon fill="none" stroke="black" points="242.5,-280.5 242.5,-299.5 337.5,-299.5 337.5,-280.5 242.5,-280.5"/>
<text text-anchor="middle" x="290" y="-287.5" font-family="FreeSans.ttf" font-size="10.00">precomp_utils.hpp</text>
</a>
</g>
</g>
<!-- Node13&#45;&gt;Node34 -->
<g id="edge60" class="edge">
<title>Node13&#45;&gt;Node34</title>
<path fill="none" stroke="midnightblue" d="M535.11,-403.48C478.66,-395.02 399.93,-381.28 372,-367 343.48,-352.43 317.66,-325.07 302.91,-307.46"/>
<polygon fill="midnightblue" stroke="midnightblue" points="305.62,-305.24 296.59,-299.7 300.19,-309.66 305.62,-305.24"/>
</g>
<!-- Node14&#45;&gt;Node12 -->
<g id="edge37" class="edge">
<title>Node14&#45;&gt;Node12</title>
<path fill="none" stroke="midnightblue" d="M432.6,-224.44C478.68,-216.15 541.41,-202.71 562,-188 594.7,-164.64 578.98,-136.29 611,-112 699.08,-45.2 831.84,-22.15 897.82,-14.54"/>
<polygon fill="midnightblue" stroke="midnightblue" points="898.26,-18.01 907.82,-13.45 897.5,-11.05 898.26,-18.01"/>
</g>
<!-- Node15 -->
<g id="node15" class="node">
<title>Node15</title>
<g id="a_node15"><a xlink:href="gpuNUFFT__types_8hpp.html" target="_top" xlink:title="Definition of gpuNUFFT defined types.">
<polygon fill="none" stroke="black" points="686,-168.5 686,-187.5 798,-187.5 798,-168.5 686,-168.5"/>
<text text-anchor="middle" x="742" y="-175.5" font-family="FreeSans.ttf" font-size="10.00">gpuNUFFT_types.hpp</text>
</a>
</g>
</g>
<!-- Node14&#45;&gt;Node15 -->
<g id="edge15" class="edge">
<title>Node14&#45;&gt;Node15</title>
<path fill="none" stroke="midnightblue" d="M437.36,-224.44C502.12,-214.78 607.32,-199.09 675.59,-188.91"/>
<polygon fill="midnightblue" stroke="midnightblue" points="676.43,-192.32 685.8,-187.38 675.39,-185.4 676.43,-192.32"/>
</g>
<!-- Node16 -->
<g id="node16" class="node">
<title>Node16</title>
<g id="a_node16"><a xlink:title=" ">
<polygon fill="none" stroke="#bfbfbf" points="701.5,-112.5 701.5,-131.5 746.5,-131.5 746.5,-112.5 701.5,-112.5"/>
<text text-anchor="middle" x="724" y="-119.5" font-family="FreeSans.ttf" font-size="10.00">cstdlib</text>
</a>
</g>
</g>
<!-- Node14&#45;&gt;Node16 -->
<g id="edge38" class="edge">
<title>Node14&#45;&gt;Node16</title>
<path fill="none" stroke="midnightblue" d="M439.8,-224.47C500.1,-215.4 588.76,-200.65 621,-188 652.75,-175.55 685.38,-152.98 705.18,-137.99"/>
<polygon fill="midnightblue" stroke="midnightblue" points="707.55,-140.58 713.32,-131.7 703.27,-135.04 707.55,-140.58"/>
</g>
<!-- Node17 -->
<g id="node17" class="node">
<title>Node17</title>
<g id="a_node17"><a xlink:title=" ">
<polygon fill="none" stroke="#bfbfbf" points="620,-112.5 620,-131.5 674,-131.5 674,-112.5 620,-112.5"/>
<text text-anchor="middle" x="647" y="-119.5" font-family="FreeSans.ttf" font-size="10.00">iostream</text>
</a>
</g>
</g>
<!-- Node14&#45;&gt;Node17 -->
<g id="edge39" class="edge">
<title>Node14&#45;&gt;Node17</title>
<path fill="none" stroke="midnightblue" d="M442.03,-224.9C496.44,-216.93 570.7,-203.7 596,-188 614.6,-176.46 629.14,-155.59 637.86,-140.6"/>
<polygon fill="midnightblue" stroke="midnightblue" points="640.97,-142.21 642.73,-131.77 634.84,-138.83 640.97,-142.21"/>
</g>
<!-- Node18 -->
<g id="node18" class="node">
<title>Node18</title>
<g id="a_node18"><a xlink:href="gpuNUFFT__kernels_8hpp.html" target="_top" xlink:title="gpuNUFFT CUDA function prototypes">
<polygon fill="none" stroke="black" points="356,-168.5 356,-187.5 476,-187.5 476,-168.5 356,-168.5"/>
<text text-anchor="middle" x="416" y="-175.5" font-family="FreeSans.ttf" font-size="10.00">gpuNUFFT_kernels.hpp</text>
</a>
</g>
</g>
<!-- Node14&#45;&gt;Node18 -->
<g id="edge19" class="edge">
<title>Node14&#45;&gt;Node18</title>
<path fill="none" stroke="midnightblue" d="M385.94,-224.08C390.98,-216.53 398.34,-205.49 404.51,-196.23"/>
<polygon fill="midnightblue" stroke="midnightblue" points="407.53,-198.01 410.17,-187.75 401.71,-194.13 407.53,-198.01"/>
</g>
<!-- Node27 -->
<g id="node27" class="node">
<title>Node27</title>
<g id="a_node27"><a xlink:title=" ">
<polygon fill="none" stroke="#bfbfbf" points="494.5,-168.5 494.5,-187.5 553.5,-187.5 553.5,-168.5 494.5,-168.5"/>
<text text-anchor="middle" x="524" y="-175.5" font-family="FreeSans.ttf" font-size="10.00">functional</text>
</a>
</g>
</g>
<!-- Node14&#45;&gt;Node27 -->
<g id="edge40" class="edge">
<title>Node14&#45;&gt;Node27</title>
<path fill="none" stroke="midnightblue" d="M402.82,-224.44C426.83,-215.44 464.83,-201.19 491.87,-191.05"/>
<polygon fill="midnightblue" stroke="midnightblue" points="493.16,-194.3 501.29,-187.52 490.7,-187.75 493.16,-194.3"/>
</g>
<!-- Node15&#45;&gt;Node12 -->
<g id="edge18" class="edge">
<title>Node15&#45;&gt;Node12</title>
<path fill="none" stroke="midnightblue" d="M752.26,-168.31C783.88,-141.53 880.1,-60.03 920.18,-26.09"/>
<polygon fill="midnightblue" stroke="midnightblue" points="922.47,-28.74 927.84,-19.61 917.95,-23.4 922.47,-28.74"/>
</g>
<!-- Node15&#45;&gt;Node16 -->
<g id="edge16" class="edge">
<title>Node15&#45;&gt;Node16</title>
<path fill="none" stroke="midnightblue" d="M739.03,-168.08C736.62,-160.85 733.14,-150.41 730.13,-141.4"/>
<polygon fill="midnightblue" stroke="midnightblue" points="733.4,-140.13 726.92,-131.75 726.76,-142.34 733.4,-140.13"/>
</g>
<!-- Node15&#45;&gt;Node17 -->
<g id="edge17" class="edge">
<title>Node15&#45;&gt;Node17</title>
<path fill="none" stroke="midnightblue" d="M726.74,-168.32C711.78,-159.82 688.75,-146.73 671.27,-136.8"/>
<polygon fill="midnightblue" stroke="midnightblue" points="672.65,-133.55 662.23,-131.65 669.19,-139.64 672.65,-133.55"/>
</g>
<!-- Node19 -->
<g id="node19" class="node">
<title>Node19</title>
<g id="a_node19"><a xlink:href="gpuNUFFT__utils_8hpp.html" target="_top" xlink:title="Definition of util functions used in gridding operations.">
<polygon fill="none" stroke="black" points="356.5,-56.5 356.5,-75.5 463.5,-75.5 463.5,-56.5 356.5,-56.5"/>
<text text-anchor="middle" x="410" y="-63.5" font-family="FreeSans.ttf" font-size="10.00">gpuNUFFT_utils.hpp</text>
</a>
</g>
</g>
<!-- Node18&#45;&gt;Node19 -->
<g id="edge20" class="edge">
<title>Node18&#45;&gt;Node19</title>
<path fill="none" stroke="midnightblue" d="M415.53,-168.37C414.56,-150.62 412.33,-109.67 411.01,-85.6"/>
<polygon fill="midnightblue" stroke="midnightblue" points="414.51,-85.39 410.47,-75.59 407.52,-85.77 414.51,-85.39"/>
</g>
<!-- Node18&#45;&gt;Node25 -->
<g id="edge29" class="edge">
<title>Node18&#45;&gt;Node25</title>
<path fill="none" stroke="midnightblue" d="M383.36,-168.44C347.95,-159.16 291.29,-144.31 252.45,-134.13"/>
<polygon fill="midnightblue" stroke="midnightblue" points="253.05,-130.67 242.49,-131.52 251.27,-137.44 253.05,-130.67"/>
</g>
<!-- Node19&#45;&gt;Node9 -->
<g id="edge24" class="edge">
<title>Node19&#45;&gt;Node9</title>
<path fill="none" stroke="midnightblue" d="M360.88,-56.44C303.87,-46.51 210.24,-30.2 152.02,-20.06"/>
<polygon fill="midnightblue" stroke="midnightblue" points="152.38,-16.57 141.93,-18.3 151.18,-23.47 152.38,-16.57"/>
</g>
<!-- Node19&#45;&gt;Node10 -->
<g id="edge23" class="edge">
<title>Node19&#45;&gt;Node10</title>
<path fill="none" stroke="midnightblue" d="M458.96,-56.44C522.46,-45.35 631.51,-26.29 686,-16.77"/>
<polygon fill="midnightblue" stroke="midnightblue" points="686.89,-20.16 696.14,-15 685.69,-13.27 686.89,-20.16"/>
</g>
<!-- Node19&#45;&gt;Node12 -->
<g id="edge25" class="edge">
<title>Node19&#45;&gt;Node12</title>
<path fill="none" stroke="midnightblue" d="M463.53,-59.53C569.54,-48.68 804.03,-24.7 897.95,-15.1"/>
<polygon fill="midnightblue" stroke="midnightblue" points="898.31,-18.58 907.91,-14.08 897.6,-11.61 898.31,-18.58"/>
</g>
<!-- Node20 -->
<g id="node20" class="node">
<title>Node20</title>
<g id="a_node20"><a xlink:title=" ">
<polygon fill="none" stroke="#bfbfbf" points="487.5,-0.5 487.5,-19.5 534.5,-19.5 534.5,-0.5 487.5,-0.5"/>
<text text-anchor="middle" x="511" y="-7.5" font-family="FreeSans.ttf" font-size="10.00">stdlib.h</text>
</a>
</g>
</g>
<!-- Node19&#45;&gt;Node20 -->
<g id="edge21" class="edge">
<title>Node19&#45;&gt;Node20</title>
<path fill="none" stroke="midnightblue" d="M426.23,-56.32C442.35,-47.7 467.3,-34.36 485.96,-24.39"/>
<polygon fill="midnightblue" stroke="midnightblue" points="487.64,-27.46 494.81,-19.65 484.34,-21.28 487.64,-27.46"/>
</g>
<!-- Node21 -->
<g id="node21" class="node">
<title>Node21</title>
<g id="a_node21"><a xlink:title=" ">
<polygon fill="none" stroke="#bfbfbf" points="290.5,-0.5 290.5,-19.5 335.5,-19.5 335.5,-0.5 290.5,-0.5"/>
<text text-anchor="middle" x="313" y="-7.5" font-family="FreeSans.ttf" font-size="10.00">stdio.h</text>
</a>
</g>
</g>
<!-- Node19&#45;&gt;Node21 -->
<g id="edge22" class="edge">
<title>Node19&#45;&gt;Node21</title>
<path fill="none" stroke="midnightblue" d="M394.42,-56.32C379,-47.74 355.19,-34.49 337.29,-24.52"/>
<polygon fill="midnightblue" stroke="midnightblue" points="338.99,-21.46 328.55,-19.65 335.58,-27.58 338.99,-21.46"/>
</g>
<!-- Node19&#45;&gt;Node22 -->
<g id="edge26" class="edge">
<title>Node19&#45;&gt;Node22</title>
<path fill="none" stroke="midnightblue" d="M384.65,-56.44C356.78,-47.04 311.97,-31.91 281.78,-21.72"/>
<polygon fill="midnightblue" stroke="midnightblue" points="282.74,-18.35 272.14,-18.47 280.5,-24.99 282.74,-18.35"/>
</g>
<!-- Node23 -->
<g id="node23" class="node">
<title>Node23</title>
<g id="a_node23"><a xlink:title=" ">
<polygon fill="none" stroke="#bfbfbf" points="354,-0.5 354,-19.5 400,-19.5 400,-0.5 354,-0.5"/>
<text text-anchor="middle" x="377" y="-7.5" font-family="FreeSans.ttf" font-size="10.00">math.h</text>
</a>
</g>
</g>
<!-- Node19&#45;&gt;Node23 -->
<g id="edge27" class="edge">
<title>Node19&#45;&gt;Node23</title>
<path fill="none" stroke="midnightblue" d="M404.55,-56.08C399.99,-48.61 393.33,-37.72 387.71,-28.52"/>
<polygon fill="midnightblue" stroke="midnightblue" points="390.55,-26.46 382.35,-19.75 384.58,-30.11 390.55,-26.46"/>
</g>
<!-- Node24 -->
<g id="node24" class="node">
<title>Node24</title>
<g id="a_node24"><a xlink:title=" ">
<polygon fill="none" stroke="#bfbfbf" points="418.5,-0.5 418.5,-19.5 469.5,-19.5 469.5,-0.5 418.5,-0.5"/>
<text text-anchor="middle" x="444" y="-7.5" font-family="FreeSans.ttf" font-size="10.00">assert.h</text>
</a>
</g>
</g>
<!-- Node19&#45;&gt;Node24 -->
<g id="edge28" class="edge">
<title>Node19&#45;&gt;Node24</title>
<path fill="none" stroke="midnightblue" d="M415.61,-56.08C420.37,-48.53 427.32,-37.49 433.15,-28.23"/>
<polygon fill="midnightblue" stroke="midnightblue" points="436.12,-30.08 438.49,-19.75 430.2,-26.35 436.12,-30.08"/>
</g>
<!-- Node25&#45;&gt;Node8 -->
<g id="edge33" class="edge">
<title>Node25&#45;&gt;Node8</title>
<path fill="none" stroke="midnightblue" d="M184.65,-112.44C156.62,-102.99 111.46,-87.74 81.26,-77.55"/>
<polygon fill="midnightblue" stroke="midnightblue" points="82.24,-74.19 71.64,-74.3 80,-80.82 82.24,-74.19"/>
</g>
<!-- Node25&#45;&gt;Node9 -->
<g id="edge31" class="edge">
<title>Node25&#45;&gt;Node9</title>
<path fill="none" stroke="midnightblue" d="M201.37,-112.37C182.89,-93.89 139.29,-50.29 115.74,-26.74"/>
<polygon fill="midnightblue" stroke="midnightblue" points="118.14,-24.19 108.59,-19.59 113.19,-29.14 118.14,-24.19"/>
</g>
<!-- Node25&#45;&gt;Node10 -->
<g id="edge30" class="edge">
<title>Node25&#45;&gt;Node10</title>
<path fill="none" stroke="midnightblue" d="M249.71,-115.28C301.22,-107.62 393.75,-92.98 472,-76 549.71,-59.13 639.76,-34 686.73,-20.46"/>
<polygon fill="midnightblue" stroke="midnightblue" points="687.71,-23.82 696.34,-17.67 685.77,-17.09 687.71,-23.82"/>
</g>
<!-- Node25&#45;&gt;Node14 -->
<g id="edge35" class="edge">
<title>Node25&#45;&gt;Node14</title>
<path fill="none" stroke="midnightblue" d="M223.28,-131.59C252.39,-150.43 322.1,-195.53 357.92,-218.71"/>
<polygon fill="midnightblue" stroke="midnightblue" points="356.36,-221.87 366.66,-224.37 360.17,-216 356.36,-221.87"/>
</g>
<!-- Node25&#45;&gt;Node19 -->
<g id="edge34" class="edge">
<title>Node25&#45;&gt;Node19</title>
<path fill="none" stroke="midnightblue" d="M241.69,-112.44C276.07,-103.16 331.08,-88.31 368.79,-78.13"/>
<polygon fill="midnightblue" stroke="midnightblue" points="369.72,-81.5 378.46,-75.52 367.89,-74.74 369.72,-81.5"/>
</g>
<!-- Node25&#45;&gt;Node21 -->
<g id="edge32" class="edge">
<title>Node25&#45;&gt;Node21</title>
<path fill="none" stroke="midnightblue" d="M210.43,-112.45C211.52,-99.03 215.37,-72.8 229,-56 242.28,-39.63 263.15,-28.41 280.76,-21.27"/>
<polygon fill="midnightblue" stroke="midnightblue" points="282.03,-24.53 290.14,-17.71 279.55,-17.98 282.03,-24.53"/>
</g>
<!-- Node26 -->
<g id="node26" class="node">
<title>Node26</title>
<g id="a_node26"><a xlink:title=" ">
<polygon fill="none" stroke="#bfbfbf" points="238.5,-56.5 238.5,-75.5 289.5,-75.5 289.5,-56.5 238.5,-56.5"/>
<text text-anchor="middle" x="264" y="-63.5" font-family="FreeSans.ttf" font-size="10.00">stdarg.h</text>
</a>
</g>
</g>
<!-- Node25&#45;&gt;Node26 -->
<g id="edge36" class="edge">
<title>Node25&#45;&gt;Node26</title>
<path fill="none" stroke="midnightblue" d="M218.92,-112.08C226.78,-104.22 238.43,-92.57 247.92,-83.08"/>
<polygon fill="midnightblue" stroke="midnightblue" points="250.65,-85.3 255.25,-75.75 245.7,-80.35 250.65,-85.3"/>
</g>
<!-- Node28&#45;&gt;Node14 -->
<g id="edge43" class="edge">
<title>Node28&#45;&gt;Node14</title>
<path fill="none" stroke="midnightblue" d="M622.37,-280.44C571.7,-270.94 489.93,-255.61 435.57,-245.42"/>
<polygon fill="midnightblue" stroke="midnightblue" points="435.89,-241.92 425.42,-243.52 434.6,-248.8 435.89,-241.92"/>
</g>
<!-- Node28&#45;&gt;Node15 -->
<g id="edge42" class="edge">
<title>Node28&#45;&gt;Node15</title>
<path fill="none" stroke="midnightblue" d="M666.38,-280.29C664.4,-267.1 662.5,-241.72 673,-224 681.35,-209.9 696.05,-199.41 709.73,-192.12"/>
<polygon fill="midnightblue" stroke="midnightblue" points="711.53,-195.14 718.96,-187.58 708.44,-188.86 711.53,-195.14"/>
</g>
<!-- Node29 -->
<g id="node29" class="node">
<title>Node29</title>
<g id="a_node29"><a xlink:href="balanced__operator_8hpp.html" target="_top" xlink:title=" ">
<polygon fill="none" stroke="black" points="682,-224.5 682,-243.5 796,-243.5 796,-224.5 682,-224.5"/>
<text text-anchor="middle" x="739" y="-231.5" font-family="FreeSans.ttf" font-size="10.00">balanced_operator.hpp</text>
</a>
</g>
</g>
<!-- Node28&#45;&gt;Node29 -->
<g id="edge44" class="edge">
<title>Node28&#45;&gt;Node29</title>
<path fill="none" stroke="midnightblue" d="M679.41,-280.32C690.11,-272.18 706.34,-259.84 719.16,-250.09"/>
<polygon fill="midnightblue" stroke="midnightblue" points="721.54,-252.67 727.39,-243.83 717.31,-247.1 721.54,-252.67"/>
</g>
<!-- Node29&#45;&gt;Node15 -->
<g id="edge45" class="edge">
<title>Node29&#45;&gt;Node15</title>
<path fill="none" stroke="midnightblue" d="M739.5,-224.08C739.89,-217.01 740.45,-206.86 740.95,-197.99"/>
<polygon fill="midnightblue" stroke="midnightblue" points="744.45,-197.93 741.51,-187.75 737.46,-197.54 744.45,-197.93"/>
</g>
<!-- Node30&#45;&gt;Node14 -->
<g id="edge50" class="edge">
<title>Node30&#45;&gt;Node14</title>
<path fill="none" stroke="midnightblue" d="M469.81,-280.32C452.65,-271.66 426.05,-258.24 406.25,-248.25"/>
<polygon fill="midnightblue" stroke="midnightblue" points="407.65,-245.04 397.15,-243.65 404.5,-251.28 407.65,-245.04"/>
</g>
<!-- Node30&#45;&gt;Node15 -->
<g id="edge49" class="edge">
<title>Node30&#45;&gt;Node15</title>
<path fill="none" stroke="midnightblue" d="M508.38,-280.38C530.41,-271.44 565.71,-256.99 596,-244 637.24,-226.31 684.64,-205.03 713.96,-191.76"/>
<polygon fill="midnightblue" stroke="midnightblue" points="715.51,-194.9 723.17,-187.58 712.62,-188.52 715.51,-194.9"/>
</g>
<!-- Node31 -->
<g id="node31" class="node">
<title>Node31</title>
<g id="a_node31"><a xlink:title=" ">
<polygon fill="none" stroke="#bfbfbf" points="460,-224.5 460,-243.5 510,-243.5 510,-224.5 460,-224.5"/>
<text text-anchor="middle" x="485" y="-231.5" font-family="FreeSans.ttf" font-size="10.00">typeinfo</text>
</a>
</g>
</g>
<!-- Node30&#45;&gt;Node31 -->
<g id="edge47" class="edge">
<title>Node30&#45;&gt;Node31</title>
<path fill="none" stroke="midnightblue" d="M486.67,-280.08C486.41,-273.01 486.03,-262.86 485.7,-253.99"/>
<polygon fill="midnightblue" stroke="midnightblue" points="489.19,-253.61 485.32,-243.75 482.2,-253.87 489.19,-253.61"/>
</g>
<!-- Node32 -->
<g id="node32" class="node">
<title>Node32</title>
<g id="a_node32"><a xlink:title=" ">
<polygon fill="none" stroke="#bfbfbf" points="528.5,-224.5 528.5,-243.5 587.5,-243.5 587.5,-224.5 528.5,-224.5"/>
<text text-anchor="middle" x="558" y="-231.5" font-family="FreeSans.ttf" font-size="10.00">stdexcept</text>
</a>
</g>
</g>
<!-- Node30&#45;&gt;Node32 -->
<g id="edge48" class="edge">
<title>Node30&#45;&gt;Node32</title>
<path fill="none" stroke="midnightblue" d="M498.41,-280.32C509.11,-272.18 525.34,-259.84 538.16,-250.09"/>
<polygon fill="midnightblue" stroke="midnightblue" points="540.54,-252.67 546.39,-243.83 536.31,-247.1 540.54,-252.67"/>
</g>
<!-- Node33&#45;&gt;Node15 -->
<g id="edge52" class="edge">
<title>Node33&#45;&gt;Node15</title>
<path fill="none" stroke="midnightblue" d="M735.07,-336.3C748.14,-327.09 764.36,-314.2 776,-300 793.76,-278.32 798.37,-271.23 805,-244 807.1,-235.36 809.07,-231.9 805,-224 797.92,-210.25 784.48,-199.77 771.82,-192.39"/>
<polygon fill="midnightblue" stroke="midnightblue" points="773.31,-189.22 762.85,-187.57 770,-195.39 773.31,-189.22"/>
</g>
<!-- Node33&#45;&gt;Node29 -->
<g id="edge54" class="edge">
<title>Node33&#45;&gt;Node29</title>
<path fill="none" stroke="midnightblue" d="M732.2,-336.45C742.88,-327.4 755.17,-314.6 761,-300 767.4,-283.97 759.52,-265.28 751.46,-252.06"/>
<polygon fill="midnightblue" stroke="midnightblue" points="754.23,-249.9 745.77,-243.52 748.4,-253.78 754.23,-249.9"/>
</g>
<!-- Node33&#45;&gt;Node30 -->
<g id="edge53" class="edge">
<title>Node33&#45;&gt;Node30</title>
<path fill="none" stroke="midnightblue" d="M659.73,-336.47C619.89,-325.99 566.14,-311.84 529.25,-302.12"/>
<polygon fill="midnightblue" stroke="midnightblue" points="529.87,-298.67 519.31,-299.51 528.09,-305.44 529.87,-298.67"/>
</g>
<!-- Node34&#45;&gt;Node14 -->
<g id="edge62" class="edge">
<title>Node34&#45;&gt;Node14</title>
<path fill="none" stroke="midnightblue" d="M304.46,-280.32C318.5,-271.9 340.05,-258.97 356.54,-249.07"/>
<polygon fill="midnightblue" stroke="midnightblue" points="358.8,-251.8 365.58,-243.65 355.2,-245.8 358.8,-251.8"/>
</g>
<!-- Node34&#45;&gt;Node19 -->
<g id="edge63" class="edge">
<title>Node34&#45;&gt;Node19</title>
<path fill="none" stroke="midnightblue" d="M285.13,-280.37C278.65,-267.71 268.81,-243.5 276,-224 299,-161.61 359.06,-107.18 390.37,-81.95"/>
<polygon fill="midnightblue" stroke="midnightblue" points="392.7,-84.57 398.38,-75.63 388.37,-79.07 392.7,-84.57"/>
</g>
<!-- Node34&#45;&gt;Node22 -->
<g id="edge64" class="edge">
<title>Node34&#45;&gt;Node22</title>
<path fill="none" stroke="midnightblue" d="M292.8,-280.47C302.61,-249 333.08,-136.96 298,-56 292.73,-43.84 282.38,-33.46 272.64,-25.74"/>
<polygon fill="midnightblue" stroke="midnightblue" points="274.5,-22.77 264.37,-19.67 270.36,-28.41 274.5,-22.77"/>
</g>
<!-- Node34&#45;&gt;Node25 -->
<g id="edge61" class="edge">
<title>Node34&#45;&gt;Node25</title>
<path fill="none" stroke="midnightblue" d="M275.86,-280.45C263.94,-272.49 247.37,-259.54 238,-244 218.49,-211.64 212.57,-166.88 210.78,-141.86"/>
<polygon fill="midnightblue" stroke="midnightblue" points="214.26,-141.38 210.2,-131.59 207.27,-141.77 214.26,-141.38"/>
</g>
<!-- Node35&#45;&gt;Node5 -->
<g id="edge66" class="edge">
<title>Node35&#45;&gt;Node5</title>
<path fill="none" stroke="midnightblue" d="M792.85,-459.32C805.22,-450.98 824.13,-438.21 838.74,-428.35"/>
<polygon fill="midnightblue" stroke="midnightblue" points="840.85,-431.15 847.18,-422.65 836.93,-425.35 840.85,-431.15"/>
</g>
<!-- Node35&#45;&gt;Node6 -->
<g id="edge67" class="edge">
<title>Node35&#45;&gt;Node6</title>
<path fill="none" stroke="midnightblue" d="M811.22,-459.44C844.93,-450.2 898.8,-435.44 935.93,-425.26"/>
<polygon fill="midnightblue" stroke="midnightblue" points="937.21,-428.54 945.93,-422.52 935.36,-421.78 937.21,-428.54"/>
</g>
<!-- Node35&#45;&gt;Node7 -->
<g id="edge68" class="edge">
<title>Node35&#45;&gt;Node7</title>
<path fill="none" stroke="midnightblue" d="M730.8,-459.97C671.83,-450.35 573.01,-434.23 509.44,-423.86"/>
<polygon fill="midnightblue" stroke="midnightblue" points="509.99,-420.4 499.55,-422.25 508.86,-427.31 509.99,-420.4"/>
</g>
<!-- Node35&#45;&gt;Node12 -->
<g id="edge69" class="edge">
<title>Node35&#45;&gt;Node12</title>
<path fill="none" stroke="midnightblue" d="M780.7,-459.19C782.14,-445.87 786.45,-420.33 799,-403 846.43,-337.5 895.01,-360.21 949,-300 989.76,-254.55 1014,-240.05 1014,-179 1014,-179 1014,-179 1014,-121 1014,-90.2 1007.53,-81.32 990,-56 981.82,-44.19 969.85,-33.54 959.45,-25.57"/>
<polygon fill="midnightblue" stroke="midnightblue" points="961.34,-22.62 951.2,-19.54 957.21,-28.27 961.34,-22.62"/>
</g>
<!-- Node35&#45;&gt;Node13 -->
<g id="edge70" class="edge">
<title>Node35&#45;&gt;Node13</title>
<path fill="none" stroke="midnightblue" d="M751,-459.44C719.82,-450.24 670.07,-435.56 635.59,-425.39"/>
<polygon fill="midnightblue" stroke="midnightblue" points="636.44,-421.99 625.86,-422.52 634.46,-428.7 636.44,-421.99"/>
</g>
<!-- Node36&#45;&gt;Node5 -->
<g id="edge72" class="edge">
<title>Node36&#45;&gt;Node5</title>
<path fill="none" stroke="midnightblue" d="M700.11,-459.44C732.63,-450.2 784.58,-435.44 820.39,-425.26"/>
<polygon fill="midnightblue" stroke="midnightblue" points="821.37,-428.62 830.03,-422.52 819.46,-421.88 821.37,-428.62"/>
</g>
<!-- Node36&#45;&gt;Node6 -->
<g id="edge73" class="edge">
<title>Node36&#45;&gt;Node6</title>
<path fill="none" stroke="midnightblue" d="M713.01,-460.43C766.99,-450.94 859.73,-434.63 919.69,-424.08"/>
<polygon fill="midnightblue" stroke="midnightblue" points="920.51,-427.49 929.75,-422.31 919.29,-420.6 920.51,-427.49"/>
</g>
<!-- Node36&#45;&gt;Node7 -->
<g id="edge74" class="edge">
<title>Node36&#45;&gt;Node7</title>
<path fill="none" stroke="midnightblue" d="M634.98,-459.44C596.75,-450.1 535.43,-435.12 493.74,-424.93"/>
<polygon fill="midnightblue" stroke="midnightblue" points="494.4,-421.49 483.85,-422.52 492.74,-428.29 494.4,-421.49"/>
</g>
<!-- Node36&#45;&gt;Node10 -->
<g id="edge75" class="edge">
<title>Node36&#45;&gt;Node10</title>
<path fill="none" stroke="midnightblue" d="M685.2,-459.42C711.08,-444.08 763.79,-409.57 794,-367 845.42,-294.54 862,-267.85 862,-179 862,-179 862,-179 862,-121 862,-65.47 793.42,-34.1 751.24,-20.05"/>
<polygon fill="midnightblue" stroke="midnightblue" points="752.25,-16.7 741.66,-17.01 750.13,-23.37 752.25,-16.7"/>
</g>
<!-- Node36&#45;&gt;Node12 -->
<g id="edge76" class="edge">
<title>Node36&#45;&gt;Node12</title>
<path fill="none" stroke="midnightblue" d="M686.93,-459.41C716.6,-443.82 778.92,-408.59 822,-367 848.35,-341.56 850.86,-331.23 870,-300 924.85,-210.48 935.74,-180.58 945,-76 946.38,-60.44 944.25,-42.81 941.99,-29.85"/>
<polygon fill="midnightblue" stroke="midnightblue" points="945.38,-28.98 940.05,-19.82 938.51,-30.3 945.38,-28.98"/>
</g>
<!-- Node36&#45;&gt;Node13 -->
<g id="edge77" class="edge">
<title>Node36&#45;&gt;Node13</title>
<path fill="none" stroke="midnightblue" d="M658.27,-459.32C647.16,-451.11 630.26,-438.6 617.02,-428.81"/>
<polygon fill="midnightblue" stroke="midnightblue" points="619.06,-425.97 608.94,-422.83 614.9,-431.59 619.06,-425.97"/>
</g>
</g>
</svg>
