<?xml version="1.0" encoding="UTF-8" standalone="no"?>
<!DOCTYPE svg PUBLIC "-//W3C//DTD SVG 1.1//EN"
 "http://www.w3.org/Graphics/SVG/1.1/DTD/svg11.dtd">
<!-- Generated by graphviz version 2.49.3 (20211027.1534)
 -->
<!-- Title: python/inc/python_factory.hpp Pages: 1 -->
<svg width="1188pt" height="487pt"
 viewBox="0.00 0.00 1188.00 487.00" xmlns="http://www.w3.org/2000/svg" xmlns:xlink="http://www.w3.org/1999/xlink">
<g id="graph0" class="graph" transform="scale(1 1) rotate(0) translate(4 483)">
<title>python/inc/python_factory.hpp</title>
<!-- Node1 -->
<g id="node1" class="node">
<title>Node1</title>
<g id="a_node1"><a xlink:title=" ">
<polygon fill="#bfbfbf" stroke="black" points="212.5,-459.5 212.5,-478.5 357.5,-478.5 357.5,-459.5 212.5,-459.5"/>
<text text-anchor="middle" x="285" y="-466.5" font-family="FreeSans.ttf" font-size="10.00">python/inc/python_factory.hpp</text>
</a>
</g>
</g>
<!-- Node2 -->
<g id="node2" class="node">
<title>Node2</title>
<g id="a_node2"><a xlink:title=" ">
<polygon fill="none" stroke="#bfbfbf" points="0,-403.5 0,-422.5 104,-422.5 104,-403.5 0,-403.5"/>
<text text-anchor="middle" x="52" y="-410.5" font-family="FreeSans.ttf" font-size="10.00">pybind11/pybind11.h</text>
</a>
</g>
</g>
<!-- Node1&#45;&gt;Node2 -->
<g id="edge1" class="edge">
<title>Node1&#45;&gt;Node2</title>
<path fill="none" stroke="midnightblue" d="M248.08,-459.44C207.6,-450.06 142.58,-434.99 98.62,-424.8"/>
<polygon fill="midnightblue" stroke="midnightblue" points="99.28,-421.36 88.75,-422.52 97.7,-428.18 99.28,-421.36"/>
</g>
<!-- Node3 -->
<g id="node3" class="node">
<title>Node3</title>
<g id="a_node3"><a xlink:title=" ">
<polygon fill="none" stroke="#bfbfbf" points="122,-403.5 122,-422.5 216,-422.5 216,-403.5 122,-403.5"/>
<text text-anchor="middle" x="169" y="-410.5" font-family="FreeSans.ttf" font-size="10.00">pybind11/numpy.h</text>
</a>
</g>
</g>
<!-- Node1&#45;&gt;Node3 -->
<g id="edge2" class="edge">
<title>Node1&#45;&gt;Node3</title>
<path fill="none" stroke="midnightblue" d="M266.62,-459.44C247.78,-450.68 218.27,-436.94 196.62,-426.86"/>
<polygon fill="midnightblue" stroke="midnightblue" points="197.84,-423.56 187.29,-422.52 194.88,-429.91 197.84,-423.56"/>
</g>
<!-- Node4 -->
<g id="node4" class="node">
<title>Node4</title>
<g id="a_node4"><a xlink:title=" ">
<polygon fill="none" stroke="#bfbfbf" points="234.5,-403.5 234.5,-422.5 335.5,-422.5 335.5,-403.5 234.5,-403.5"/>
<text text-anchor="middle" x="285" y="-410.5" font-family="FreeSans.ttf" font-size="10.00">pybind11/complex.h</text>
</a>
</g>
</g>
<!-- Node1&#45;&gt;Node4 -->
<g id="edge3" class="edge">
<title>Node1&#45;&gt;Node4</title>
<path fill="none" stroke="midnightblue" d="M285,-459.08C285,-452.01 285,-441.86 285,-432.99"/>
<polygon fill="midnightblue" stroke="midnightblue" points="288.5,-432.75 285,-422.75 281.5,-432.75 288.5,-432.75"/>
</g>
<!-- Node5 -->
<g id="node5" class="node">
<title>Node5</title>
<g id="a_node5"><a xlink:title=" ">
<polygon fill="none" stroke="#bfbfbf" points="496,-0.5 496,-19.5 556,-19.5 556,-0.5 496,-0.5"/>
<text text-anchor="middle" x="526" y="-7.5" font-family="FreeSans.ttf" font-size="10.00">config.hpp</text>
</a>
</g>
</g>
<!-- Node1&#45;&gt;Node5 -->
<g id="edge4" class="edge">
<title>Node1&#45;&gt;Node5</title>
<path fill="none" stroke="midnightblue" d="M301.38,-459.46C314.74,-451.68 333.12,-438.97 344,-423 362.33,-396.08 364,-385.07 364,-352.5 364,-352.5 364,-352.5 364,-121 364,-62.13 438.14,-32.57 486.11,-19.6"/>
<polygon fill="midnightblue" stroke="midnightblue" points="487.09,-22.96 495.91,-17.08 485.35,-16.18 487.09,-22.96"/>
</g>
<!-- Node6 -->
<g id="node6" class="node">
<title>Node6</title>
<g id="a_node6"><a xlink:href="gpuNUFFT__operator__factory_8hpp.html" target="_top" xlink:title=" ">
<polygon fill="none" stroke="black" points="682,-403.5 682,-422.5 840,-422.5 840,-403.5 682,-403.5"/>
<text text-anchor="middle" x="761" y="-410.5" font-family="FreeSans.ttf" font-size="10.00">gpuNUFFT_operator_factory.hpp</text>
</a>
</g>
</g>
<!-- Node1&#45;&gt;Node6 -->
<g id="edge5" class="edge">
<title>Node1&#45;&gt;Node6</title>
<path fill="none" stroke="midnightblue" d="M357.55,-459.77C443.09,-450.07 585.07,-433.96 675.77,-423.67"/>
<polygon fill="midnightblue" stroke="midnightblue" points="676.21,-427.14 685.75,-422.54 675.42,-420.19 676.21,-427.14"/>
</g>
<!-- Node6&#45;&gt;Node5 -->
<g id="edge6" class="edge">
<title>Node6&#45;&gt;Node5</title>
<path fill="none" stroke="midnightblue" d="M681.96,-407.82C603.3,-402.37 489.1,-390.61 452,-367 417.89,-345.29 402,-331.43 402,-291 402,-291 402,-291 402,-121 402,-72.26 456.27,-39.87 493.01,-23.52"/>
<polygon fill="midnightblue" stroke="midnightblue" points="494.56,-26.67 502.38,-19.52 491.81,-20.23 494.56,-26.67"/>
</g>
<!-- Node7 -->
<g id="node7" class="node">
<title>Node7</title>
<g id="a_node7"><a xlink:href="gpuNUFFT__operator_8hpp.html" target="_top" xlink:title=" ">
<polygon fill="none" stroke="black" points="822,-224.5 822,-243.5 946,-243.5 946,-224.5 822,-224.5"/>
<text text-anchor="middle" x="884" y="-231.5" font-family="FreeSans.ttf" font-size="10.00">gpuNUFFT_operator.hpp</text>
</a>
</g>
</g>
<!-- Node6&#45;&gt;Node7 -->
<g id="edge7" class="edge">
<title>Node6&#45;&gt;Node7</title>
<path fill="none" stroke="midnightblue" d="M827.4,-403.41C849.4,-397.05 871.66,-386.03 885,-367 908.82,-333.02 898.44,-281.08 890.33,-253.58"/>
<polygon fill="midnightblue" stroke="midnightblue" points="893.56,-252.19 887.2,-243.72 886.89,-254.31 893.56,-252.19"/>
</g>
<!-- Node17 -->
<g id="node17" class="node">
<title>Node17</title>
<g id="a_node17"><a xlink:title=" ">
<polygon fill="none" stroke="#bfbfbf" points="1135,-0.5 1135,-19.5 1179,-19.5 1179,-0.5 1135,-0.5"/>
<text text-anchor="middle" x="1157" y="-7.5" font-family="FreeSans.ttf" font-size="10.00">cmath</text>
</a>
</g>
</g>
<!-- Node6&#45;&gt;Node17 -->
<g id="edge51" class="edge">
<title>Node6&#45;&gt;Node17</title>
<path fill="none" stroke="midnightblue" d="M840,-411.7C906.16,-408.93 1001.86,-398.96 1079,-367 1130.9,-345.49 1180,-347.18 1180,-291 1180,-291 1180,-291 1180,-121 1180,-88.12 1170.03,-50.86 1163.22,-29.24"/>
<polygon fill="midnightblue" stroke="midnightblue" points="1166.54,-28.12 1160.1,-19.71 1159.89,-30.3 1166.54,-28.12"/>
</g>
<!-- Node20 -->
<g id="node20" class="node">
<title>Node20</title>
<g id="a_node20"><a xlink:href="cuda__utils_8hpp.html" target="_top" xlink:title="Util functions for CUDA memory and texture management.">
<polygon fill="none" stroke="black" points="977.5,-112.5 977.5,-131.5 1056.5,-131.5 1056.5,-112.5 977.5,-112.5"/>
<text text-anchor="middle" x="1017" y="-119.5" font-family="FreeSans.ttf" font-size="10.00">cuda_utils.hpp</text>
</a>
</g>
</g>
<!-- Node6&#45;&gt;Node20 -->
<g id="edge52" class="edge">
<title>Node6&#45;&gt;Node20</title>
<path fill="none" stroke="midnightblue" d="M837.19,-403.47C948.37,-388.86 1142,-354.33 1142,-291 1142,-291 1142,-291 1142,-233 1142,-184.17 1087.58,-151.89 1050.56,-135.58"/>
<polygon fill="midnightblue" stroke="midnightblue" points="1051.68,-132.25 1041.1,-131.59 1048.95,-138.7 1051.68,-132.25"/>
</g>
<!-- Node24 -->
<g id="node24" class="node">
<title>Node24</title>
<g id="a_node24"><a xlink:href="balanced__gpuNUFFT__operator_8hpp.html" target="_top" xlink:title=" ">
<polygon fill="none" stroke="black" points="707,-280.5 707,-299.5 875,-299.5 875,-280.5 707,-280.5"/>
<text text-anchor="middle" x="791" y="-287.5" font-family="FreeSans.ttf" font-size="10.00">balanced_gpuNUFFT_operator.hpp</text>
</a>
</g>
</g>
<!-- Node6&#45;&gt;Node24 -->
<g id="edge34" class="edge">
<title>Node6&#45;&gt;Node24</title>
<path fill="none" stroke="midnightblue" d="M735.84,-403.38C719.58,-396.34 699.71,-384.65 690,-367 683.36,-354.93 682.5,-347.56 690,-336 700.41,-319.97 718,-309.6 735.61,-302.92"/>
<polygon fill="midnightblue" stroke="midnightblue" points="737.03,-306.13 745.35,-299.57 734.75,-299.51 737.03,-306.13"/>
</g>
<!-- Node26 -->
<g id="node26" class="node">
<title>Node26</title>
<g id="a_node26"><a xlink:href="texture__gpuNUFFT__operator_8hpp.html" target="_top" xlink:title=" ">
<polygon fill="none" stroke="black" points="478,-280.5 478,-299.5 636,-299.5 636,-280.5 478,-280.5"/>
<text text-anchor="middle" x="557" y="-287.5" font-family="FreeSans.ttf" font-size="10.00">texture_gpuNUFFT_operator.hpp</text>
</a>
</g>
</g>
<!-- Node6&#45;&gt;Node26 -->
<g id="edge39" class="edge">
<title>Node6&#45;&gt;Node26</title>
<path fill="none" stroke="midnightblue" d="M745.27,-403.38C729.06,-394.44 703.12,-379.99 681,-367 645.09,-345.91 603.98,-320.45 579.28,-305"/>
<polygon fill="midnightblue" stroke="midnightblue" points="580.99,-301.95 570.66,-299.6 577.28,-307.88 580.99,-301.95"/>
</g>
<!-- Node29 -->
<g id="node29" class="node">
<title>Node29</title>
<g id="a_node29"><a xlink:href="balanced__texture__gpuNUFFT__operator_8hpp.html" target="_top" xlink:title=" ">
<polygon fill="none" stroke="black" points="461,-336.5 461,-366.5 605,-366.5 605,-336.5 461,-336.5"/>
<text text-anchor="start" x="469" y="-354.5" font-family="FreeSans.ttf" font-size="10.00">balanced_texture_gpuNUFFT</text>
<text text-anchor="middle" x="533" y="-343.5" font-family="FreeSans.ttf" font-size="10.00">_operator.hpp</text>
</a>
</g>
</g>
<!-- Node6&#45;&gt;Node29 -->
<g id="edge44" class="edge">
<title>Node6&#45;&gt;Node29</title>
<path fill="none" stroke="midnightblue" d="M728.33,-403.48C694.06,-394.53 639.33,-380.25 596.51,-369.07"/>
<polygon fill="midnightblue" stroke="midnightblue" points="597.29,-365.66 586.74,-366.52 595.53,-372.43 597.29,-365.66"/>
</g>
<!-- Node30 -->
<g id="node30" class="node">
<title>Node30</title>
<g id="a_node30"><a xlink:title=" ">
<polygon fill="none" stroke="#bfbfbf" points="699,-342 699,-361 755,-361 755,-342 699,-342"/>
<text text-anchor="middle" x="727" y="-349" font-family="FreeSans.ttf" font-size="10.00">algorithm</text>
</a>
</g>
</g>
<!-- Node6&#45;&gt;Node30 -->
<g id="edge48" class="edge">
<title>Node6&#45;&gt;Node30</title>
<path fill="none" stroke="midnightblue" d="M756.13,-403.48C751.13,-394.73 743.21,-380.87 736.89,-369.81"/>
<polygon fill="midnightblue" stroke="midnightblue" points="739.86,-367.96 731.86,-361.01 733.78,-371.43 739.86,-367.96"/>
</g>
<!-- Node31 -->
<g id="node31" class="node">
<title>Node31</title>
<g id="a_node31"><a xlink:title=" ">
<polygon fill="none" stroke="#bfbfbf" points="773,-342 773,-361 817,-361 817,-342 773,-342"/>
<text text-anchor="middle" x="795" y="-349" font-family="FreeSans.ttf" font-size="10.00">vector</text>
</a>
</g>
</g>
<!-- Node6&#45;&gt;Node31 -->
<g id="edge49" class="edge">
<title>Node6&#45;&gt;Node31</title>
<path fill="none" stroke="midnightblue" d="M765.87,-403.48C770.87,-394.73 778.79,-380.87 785.11,-369.81"/>
<polygon fill="midnightblue" stroke="midnightblue" points="788.22,-371.43 790.14,-361.01 782.14,-367.96 788.22,-371.43"/>
</g>
<!-- Node32 -->
<g id="node32" class="node">
<title>Node32</title>
<g id="a_node32"><a xlink:title=" ">
<polygon fill="none" stroke="#bfbfbf" points="835.5,-342 835.5,-361 876.5,-361 876.5,-342 835.5,-342"/>
<text text-anchor="middle" x="856" y="-349" font-family="FreeSans.ttf" font-size="10.00">string</text>
</a>
</g>
</g>
<!-- Node6&#45;&gt;Node32 -->
<g id="edge50" class="edge">
<title>Node6&#45;&gt;Node32</title>
<path fill="none" stroke="midnightblue" d="M774.61,-403.48C790.06,-393.8 815.49,-377.87 833.82,-366.39"/>
<polygon fill="midnightblue" stroke="midnightblue" points="835.8,-369.28 842.41,-361.01 832.08,-363.35 835.8,-369.28"/>
</g>
<!-- Node33 -->
<g id="node33" class="node">
<title>Node33</title>
<g id="a_node33"><a xlink:href="precomp__utils_8hpp.html" target="_top" xlink:title="UTIL functions for precomputation.">
<polygon fill="none" stroke="black" points="933.5,-280.5 933.5,-299.5 1028.5,-299.5 1028.5,-280.5 933.5,-280.5"/>
<text text-anchor="middle" x="981" y="-287.5" font-family="FreeSans.ttf" font-size="10.00">precomp_utils.hpp</text>
</a>
</g>
</g>
<!-- Node6&#45;&gt;Node33 -->
<g id="edge53" class="edge">
<title>Node6&#45;&gt;Node33</title>
<path fill="none" stroke="midnightblue" d="M822.42,-403.48C853.3,-397.06 890.17,-385.97 919,-367 941.83,-351.98 960.4,-325.92 971.08,-308.57"/>
<polygon fill="midnightblue" stroke="midnightblue" points="974.36,-309.9 976.43,-299.51 968.34,-306.34 974.36,-309.9"/>
</g>
<!-- Node7&#45;&gt;Node5 -->
<g id="edge30" class="edge">
<title>Node7&#45;&gt;Node5</title>
<path fill="none" stroke="midnightblue" d="M861.5,-224.44C840.78,-216.21 809.51,-202.84 784,-188 734.52,-159.21 727.06,-144.6 680,-112 633.79,-79.99 578.42,-44.31 548.26,-25.1"/>
<polygon fill="midnightblue" stroke="midnightblue" points="550.07,-22.1 539.75,-19.69 546.31,-28.01 550.07,-22.1"/>
</g>
<!-- Node8 -->
<g id="node8" class="node">
<title>Node8</title>
<g id="a_node8"><a xlink:href="gpuNUFFT__types_8hpp.html" target="_top" xlink:title="Definition of gpuNUFFT defined types.">
<polygon fill="none" stroke="black" points="471,-168.5 471,-187.5 583,-187.5 583,-168.5 471,-168.5"/>
<text text-anchor="middle" x="527" y="-175.5" font-family="FreeSans.ttf" font-size="10.00">gpuNUFFT_types.hpp</text>
</a>
</g>
</g>
<!-- Node7&#45;&gt;Node8 -->
<g id="edge8" class="edge">
<title>Node7&#45;&gt;Node8</title>
<path fill="none" stroke="midnightblue" d="M827.43,-224.44C763.76,-214.81 660.42,-199.18 593.08,-189"/>
<polygon fill="midnightblue" stroke="midnightblue" points="593.42,-185.51 583.01,-187.47 592.37,-192.43 593.42,-185.51"/>
</g>
<!-- Node9 -->
<g id="node9" class="node">
<title>Node9</title>
<g id="a_node9"><a xlink:title=" ">
<polygon fill="none" stroke="#bfbfbf" points="626.5,-112.5 626.5,-131.5 671.5,-131.5 671.5,-112.5 626.5,-112.5"/>
<text text-anchor="middle" x="649" y="-119.5" font-family="FreeSans.ttf" font-size="10.00">cstdlib</text>
</a>
</g>
</g>
<!-- Node7&#45;&gt;Node9 -->
<g id="edge31" class="edge">
<title>Node7&#45;&gt;Node9</title>
<path fill="none" stroke="midnightblue" d="M828.63,-224.49C768.62,-214.79 679.78,-198.89 668,-188 655.33,-176.29 650.94,-156.64 649.5,-142.01"/>
<polygon fill="midnightblue" stroke="midnightblue" points="652.97,-141.37 648.88,-131.59 645.98,-141.78 652.97,-141.37"/>
</g>
<!-- Node10 -->
<g id="node10" class="node">
<title>Node10</title>
<g id="a_node10"><a xlink:title=" ">
<polygon fill="none" stroke="#bfbfbf" points="554,-112.5 554,-131.5 608,-131.5 608,-112.5 554,-112.5"/>
<text text-anchor="middle" x="581" y="-119.5" font-family="FreeSans.ttf" font-size="10.00">iostream</text>
</a>
</g>
</g>
<!-- Node7&#45;&gt;Node10 -->
<g id="edge32" class="edge">
<title>Node7&#45;&gt;Node10</title>
<path fill="none" stroke="midnightblue" d="M821.86,-224.83C763.57,-216.48 681.13,-202.67 652,-188 628.79,-176.31 607.58,-154.85 594.51,-139.79"/>
<polygon fill="midnightblue" stroke="midnightblue" points="596.9,-137.2 587.8,-131.79 591.54,-141.7 596.9,-137.2"/>
</g>
<!-- Node11 -->
<g id="node11" class="node">
<title>Node11</title>
<g id="a_node11"><a xlink:href="gpuNUFFT__kernels_8hpp.html" target="_top" xlink:title="gpuNUFFT CUDA function prototypes">
<polygon fill="none" stroke="black" points="793,-168.5 793,-187.5 913,-187.5 913,-168.5 793,-168.5"/>
<text text-anchor="middle" x="853" y="-175.5" font-family="FreeSans.ttf" font-size="10.00">gpuNUFFT_kernels.hpp</text>
</a>
</g>
</g>
<!-- Node7&#45;&gt;Node11 -->
<g id="edge12" class="edge">
<title>Node7&#45;&gt;Node11</title>
<path fill="none" stroke="midnightblue" d="M878.88,-224.08C874.59,-216.61 868.34,-205.72 863.06,-196.52"/>
<polygon fill="midnightblue" stroke="midnightblue" points="866.04,-194.68 858.02,-187.75 859.97,-198.17 866.04,-194.68"/>
</g>
<!-- Node23 -->
<g id="node23" class="node">
<title>Node23</title>
<g id="a_node23"><a xlink:title=" ">
<polygon fill="none" stroke="#bfbfbf" points="677.5,-168.5 677.5,-187.5 736.5,-187.5 736.5,-168.5 677.5,-168.5"/>
<text text-anchor="middle" x="707" y="-175.5" font-family="FreeSans.ttf" font-size="10.00">functional</text>
</a>
</g>
</g>
<!-- Node7&#45;&gt;Node23 -->
<g id="edge33" class="edge">
<title>Node7&#45;&gt;Node23</title>
<path fill="none" stroke="midnightblue" d="M855.95,-224.44C825.92,-215.28 778.09,-200.69 744.76,-190.52"/>
<polygon fill="midnightblue" stroke="midnightblue" points="745.5,-187.09 734.91,-187.52 743.46,-193.78 745.5,-187.09"/>
</g>
<!-- Node8&#45;&gt;Node5 -->
<g id="edge11" class="edge">
<title>Node8&#45;&gt;Node5</title>
<path fill="none" stroke="midnightblue" d="M526.95,-168.08C526.79,-141.95 526.33,-65.21 526.11,-29.58"/>
<polygon fill="midnightblue" stroke="midnightblue" points="529.61,-29.55 526.05,-19.57 522.61,-29.59 529.61,-29.55"/>
</g>
<!-- Node8&#45;&gt;Node9 -->
<g id="edge9" class="edge">
<title>Node8&#45;&gt;Node9</title>
<path fill="none" stroke="midnightblue" d="M546.33,-168.44C566.32,-159.6 597.74,-145.69 620.56,-135.59"/>
<polygon fill="midnightblue" stroke="midnightblue" points="622.03,-138.76 629.76,-131.52 619.2,-132.36 622.03,-138.76"/>
</g>
<!-- Node8&#45;&gt;Node10 -->
<g id="edge10" class="edge">
<title>Node8&#45;&gt;Node10</title>
<path fill="none" stroke="midnightblue" d="M535.92,-168.08C543.78,-160.22 555.43,-148.57 564.92,-139.08"/>
<polygon fill="midnightblue" stroke="midnightblue" points="567.65,-141.3 572.25,-131.75 562.7,-136.35 567.65,-141.3"/>
</g>
<!-- Node12 -->
<g id="node12" class="node">
<title>Node12</title>
<g id="a_node12"><a xlink:href="gpuNUFFT__utils_8hpp.html" target="_top" xlink:title="Definition of util functions used in gridding operations.">
<polygon fill="none" stroke="black" points="800.5,-56.5 800.5,-75.5 907.5,-75.5 907.5,-56.5 800.5,-56.5"/>
<text text-anchor="middle" x="854" y="-63.5" font-family="FreeSans.ttf" font-size="10.00">gpuNUFFT_utils.hpp</text>
</a>
</g>
</g>
<!-- Node11&#45;&gt;Node12 -->
<g id="edge13" class="edge">
<title>Node11&#45;&gt;Node12</title>
<path fill="none" stroke="midnightblue" d="M853.08,-168.37C853.24,-150.62 853.61,-109.67 853.83,-85.6"/>
<polygon fill="midnightblue" stroke="midnightblue" points="857.33,-85.62 853.92,-75.59 850.33,-85.56 857.33,-85.62"/>
</g>
<!-- Node11&#45;&gt;Node20 -->
<g id="edge22" class="edge">
<title>Node11&#45;&gt;Node20</title>
<path fill="none" stroke="midnightblue" d="M878.99,-168.44C906.7,-159.32 950.75,-144.81 981.62,-134.65"/>
<polygon fill="midnightblue" stroke="midnightblue" points="982.73,-137.97 991.14,-131.52 980.54,-131.32 982.73,-137.97"/>
</g>
<!-- Node12&#45;&gt;Node5 -->
<g id="edge18" class="edge">
<title>Node12&#45;&gt;Node5</title>
<path fill="none" stroke="midnightblue" d="M802.03,-56.44C736.59,-45.67 625.57,-27.39 566.23,-17.62"/>
<polygon fill="midnightblue" stroke="midnightblue" points="566.56,-14.13 556.12,-15.96 565.42,-21.04 566.56,-14.13"/>
</g>
<!-- Node13 -->
<g id="node13" class="node">
<title>Node13</title>
<g id="a_node13"><a xlink:title=" ">
<polygon fill="none" stroke="#bfbfbf" points="840.5,-0.5 840.5,-19.5 887.5,-19.5 887.5,-0.5 840.5,-0.5"/>
<text text-anchor="middle" x="864" y="-7.5" font-family="FreeSans.ttf" font-size="10.00">stdlib.h</text>
</a>
</g>
</g>
<!-- Node12&#45;&gt;Node13 -->
<g id="edge14" class="edge">
<title>Node12&#45;&gt;Node13</title>
<path fill="none" stroke="midnightblue" d="M855.65,-56.08C856.98,-48.93 858.88,-38.64 860.54,-29.69"/>
<polygon fill="midnightblue" stroke="midnightblue" points="864,-30.22 862.38,-19.75 857.12,-28.95 864,-30.22"/>
</g>
<!-- Node14 -->
<g id="node14" class="node">
<title>Node14</title>
<g id="a_node14"><a xlink:title=" ">
<polygon fill="none" stroke="#bfbfbf" points="1071.5,-0.5 1071.5,-19.5 1116.5,-19.5 1116.5,-0.5 1071.5,-0.5"/>
<text text-anchor="middle" x="1094" y="-7.5" font-family="FreeSans.ttf" font-size="10.00">stdio.h</text>
</a>
</g>
</g>
<!-- Node12&#45;&gt;Node14 -->
<g id="edge15" class="edge">
<title>Node12&#45;&gt;Node14</title>
<path fill="none" stroke="midnightblue" d="M897.84,-56.5C938.12,-48.47 999.67,-35.69 1061.45,-20.27"/>
<polygon fill="midnightblue" stroke="midnightblue" points="1062.52,-23.61 1071.36,-17.77 1060.81,-16.82 1062.52,-23.61"/>
</g>
<!-- Node15 -->
<g id="node15" class="node">
<title>Node15</title>
<g id="a_node15"><a xlink:title=" ">
<polygon fill="none" stroke="#bfbfbf" points="708.5,-0.5 708.5,-19.5 753.5,-19.5 753.5,-0.5 708.5,-0.5"/>
<text text-anchor="middle" x="731" y="-7.5" font-family="FreeSans.ttf" font-size="10.00">cuda.h</text>
</a>
</g>
</g>
<!-- Node12&#45;&gt;Node15 -->
<g id="edge16" class="edge">
<title>Node12&#45;&gt;Node15</title>
<path fill="none" stroke="midnightblue" d="M834.51,-56.44C814.36,-47.6 782.68,-33.69 759.67,-23.59"/>
<polygon fill="midnightblue" stroke="midnightblue" points="760.96,-20.33 750.4,-19.52 758.15,-26.74 760.96,-20.33"/>
</g>
<!-- Node16 -->
<g id="node16" class="node">
<title>Node16</title>
<g id="a_node16"><a xlink:title=" ">
<polygon fill="none" stroke="#bfbfbf" points="970.5,-0.5 970.5,-19.5 1053.5,-19.5 1053.5,-0.5 970.5,-0.5"/>
<text text-anchor="middle" x="1012" y="-7.5" font-family="FreeSans.ttf" font-size="10.00">cuda_runtime.h</text>
</a>
</g>
</g>
<!-- Node12&#45;&gt;Node16 -->
<g id="edge17" class="edge">
<title>Node12&#45;&gt;Node16</title>
<path fill="none" stroke="midnightblue" d="M879.04,-56.44C905.62,-47.36 947.81,-32.94 977.52,-22.78"/>
<polygon fill="midnightblue" stroke="midnightblue" points="978.75,-26.06 987.08,-19.52 976.49,-19.44 978.75,-26.06"/>
</g>
<!-- Node12&#45;&gt;Node17 -->
<g id="edge19" class="edge">
<title>Node12&#45;&gt;Node17</title>
<path fill="none" stroke="midnightblue" d="M907.63,-56.9C970.46,-47.29 1071.77,-31.36 1124.8,-20.01"/>
<polygon fill="midnightblue" stroke="midnightblue" points="1125.73,-23.39 1134.73,-17.81 1124.21,-16.56 1125.73,-23.39"/>
</g>
<!-- Node18 -->
<g id="node18" class="node">
<title>Node18</title>
<g id="a_node18"><a xlink:title=" ">
<polygon fill="none" stroke="#bfbfbf" points="906,-0.5 906,-19.5 952,-19.5 952,-0.5 906,-0.5"/>
<text text-anchor="middle" x="929" y="-7.5" font-family="FreeSans.ttf" font-size="10.00">math.h</text>
</a>
</g>
</g>
<!-- Node12&#45;&gt;Node18 -->
<g id="edge20" class="edge">
<title>Node12&#45;&gt;Node18</title>
<path fill="none" stroke="midnightblue" d="M866.05,-56.32C877.46,-48.11 894.83,-35.6 908.43,-25.81"/>
<polygon fill="midnightblue" stroke="midnightblue" points="910.66,-28.52 916.73,-19.83 906.57,-22.84 910.66,-28.52"/>
</g>
<!-- Node19 -->
<g id="node19" class="node">
<title>Node19</title>
<g id="a_node19"><a xlink:title=" ">
<polygon fill="none" stroke="#bfbfbf" points="771.5,-0.5 771.5,-19.5 822.5,-19.5 822.5,-0.5 771.5,-0.5"/>
<text text-anchor="middle" x="797" y="-7.5" font-family="FreeSans.ttf" font-size="10.00">assert.h</text>
</a>
</g>
</g>
<!-- Node12&#45;&gt;Node19 -->
<g id="edge21" class="edge">
<title>Node12&#45;&gt;Node19</title>
<path fill="none" stroke="midnightblue" d="M844.84,-56.32C836.5,-48.42 823.97,-36.55 813.82,-26.94"/>
<polygon fill="midnightblue" stroke="midnightblue" points="815.99,-24.17 806.32,-19.83 811.18,-29.25 815.99,-24.17"/>
</g>
<!-- Node20&#45;&gt;Node7 -->
<g id="edge28" class="edge">
<title>Node20&#45;&gt;Node7</title>
<path fill="none" stroke="midnightblue" d="M1006.61,-131.59C984.13,-150.19 930.69,-194.39 902.36,-217.82"/>
<polygon fill="midnightblue" stroke="midnightblue" points="899.91,-215.3 894.44,-224.37 904.37,-220.69 899.91,-215.3"/>
</g>
<!-- Node20&#45;&gt;Node12 -->
<g id="edge27" class="edge">
<title>Node20&#45;&gt;Node12</title>
<path fill="none" stroke="midnightblue" d="M991.17,-112.44C963.75,-103.36 920.22,-88.94 889.57,-78.78"/>
<polygon fill="midnightblue" stroke="midnightblue" points="890.3,-75.34 879.71,-75.52 888.1,-81.98 890.3,-75.34"/>
</g>
<!-- Node20&#45;&gt;Node14 -->
<g id="edge25" class="edge">
<title>Node20&#45;&gt;Node14</title>
<path fill="none" stroke="midnightblue" d="M1026.99,-112.43C1036.54,-103.88 1050.94,-90.03 1061,-76 1071.47,-61.39 1080.48,-42.98 1086.43,-29.49"/>
<polygon fill="midnightblue" stroke="midnightblue" points="1089.82,-30.46 1090.51,-19.89 1083.38,-27.72 1089.82,-30.46"/>
</g>
<!-- Node20&#45;&gt;Node15 -->
<g id="edge23" class="edge">
<title>Node20&#45;&gt;Node15</title>
<path fill="none" stroke="midnightblue" d="M977.29,-120.42C930.05,-118.14 850.15,-109.16 791,-76 770.37,-64.43 752.84,-43.25 742.15,-28.22"/>
<polygon fill="midnightblue" stroke="midnightblue" points="744.94,-26.09 736.42,-19.79 739.15,-30.02 744.94,-26.09"/>
</g>
<!-- Node20&#45;&gt;Node16 -->
<g id="edge24" class="edge">
<title>Node20&#45;&gt;Node16</title>
<path fill="none" stroke="midnightblue" d="M1025.66,-112.4C1036.87,-100.18 1054.18,-76.93 1047,-56 1043.28,-45.16 1035.77,-34.92 1028.65,-26.96"/>
<polygon fill="midnightblue" stroke="midnightblue" points="1031,-24.35 1021.56,-19.55 1025.95,-29.19 1031,-24.35"/>
</g>
<!-- Node21 -->
<g id="node21" class="node">
<title>Node21</title>
<g id="a_node21"><a xlink:title=" ">
<polygon fill="none" stroke="#bfbfbf" points="994.5,-56.5 994.5,-75.5 1037.5,-75.5 1037.5,-56.5 994.5,-56.5"/>
<text text-anchor="middle" x="1016" y="-63.5" font-family="FreeSans.ttf" font-size="10.00">cufft.h</text>
</a>
</g>
</g>
<!-- Node20&#45;&gt;Node21 -->
<g id="edge26" class="edge">
<title>Node20&#45;&gt;Node21</title>
<path fill="none" stroke="midnightblue" d="M1016.83,-112.08C1016.7,-105.01 1016.52,-94.86 1016.35,-85.99"/>
<polygon fill="midnightblue" stroke="midnightblue" points="1019.85,-85.68 1016.16,-75.75 1012.85,-85.81 1019.85,-85.68"/>
</g>
<!-- Node22 -->
<g id="node22" class="node">
<title>Node22</title>
<g id="a_node22"><a xlink:title=" ">
<polygon fill="none" stroke="#bfbfbf" points="925.5,-56.5 925.5,-75.5 976.5,-75.5 976.5,-56.5 925.5,-56.5"/>
<text text-anchor="middle" x="951" y="-63.5" font-family="FreeSans.ttf" font-size="10.00">stdarg.h</text>
</a>
</g>
</g>
<!-- Node20&#45;&gt;Node22 -->
<g id="edge29" class="edge">
<title>Node20&#45;&gt;Node22</title>
<path fill="none" stroke="midnightblue" d="M1006.4,-112.32C996.54,-104.26 981.65,-92.08 969.78,-82.37"/>
<polygon fill="midnightblue" stroke="midnightblue" points="971.75,-79.46 961.8,-75.83 967.32,-84.88 971.75,-79.46"/>
</g>
<!-- Node24&#45;&gt;Node7 -->
<g id="edge36" class="edge">
<title>Node24&#45;&gt;Node7</title>
<path fill="none" stroke="midnightblue" d="M805.94,-280.32C820.59,-271.82 843.13,-258.73 860.24,-248.8"/>
<polygon fill="midnightblue" stroke="midnightblue" points="862.2,-251.7 869.1,-243.65 858.69,-245.65 862.2,-251.7"/>
</g>
<!-- Node24&#45;&gt;Node8 -->
<g id="edge35" class="edge">
<title>Node24&#45;&gt;Node8</title>
<path fill="none" stroke="midnightblue" d="M791.6,-280.4C792.06,-266.41 790.75,-238.8 775,-224 768.31,-217.72 663.9,-200.34 592.71,-189.12"/>
<polygon fill="midnightblue" stroke="midnightblue" points="592.89,-185.6 582.46,-187.51 591.8,-192.52 592.89,-185.6"/>
</g>
<!-- Node25 -->
<g id="node25" class="node">
<title>Node25</title>
<g id="a_node25"><a xlink:href="balanced__operator_8hpp.html" target="_top" xlink:title=" ">
<polygon fill="none" stroke="black" points="652,-224.5 652,-243.5 766,-243.5 766,-224.5 652,-224.5"/>
<text text-anchor="middle" x="709" y="-231.5" font-family="FreeSans.ttf" font-size="10.00">balanced_operator.hpp</text>
</a>
</g>
</g>
<!-- Node24&#45;&gt;Node25 -->
<g id="edge37" class="edge">
<title>Node24&#45;&gt;Node25</title>
<path fill="none" stroke="midnightblue" d="M777.83,-280.32C765.15,-271.98 745.77,-259.21 730.79,-249.35"/>
<polygon fill="midnightblue" stroke="midnightblue" points="732.42,-246.23 722.14,-243.65 728.57,-252.08 732.42,-246.23"/>
</g>
<!-- Node25&#45;&gt;Node8 -->
<g id="edge38" class="edge">
<title>Node25&#45;&gt;Node8</title>
<path fill="none" stroke="midnightblue" d="M680.16,-224.44C649.14,-215.24 599.67,-200.56 565.38,-190.39"/>
<polygon fill="midnightblue" stroke="midnightblue" points="566.29,-187.01 555.7,-187.52 564.29,-193.72 566.29,-187.01"/>
</g>
<!-- Node26&#45;&gt;Node7 -->
<g id="edge43" class="edge">
<title>Node26&#45;&gt;Node7</title>
<path fill="none" stroke="midnightblue" d="M608.81,-280.44C666.82,-270.87 760.74,-255.36 822.44,-245.17"/>
<polygon fill="midnightblue" stroke="midnightblue" points="823.13,-248.6 832.43,-243.52 821.99,-241.69 823.13,-248.6"/>
</g>
<!-- Node26&#45;&gt;Node8 -->
<g id="edge42" class="edge">
<title>Node26&#45;&gt;Node8</title>
<path fill="none" stroke="midnightblue" d="M537.7,-280.48C523.57,-273.08 505.44,-260.89 497,-244 488.88,-227.77 499.79,-208.91 510.65,-195.7"/>
<polygon fill="midnightblue" stroke="midnightblue" points="513.55,-197.71 517.59,-187.91 508.32,-193.05 513.55,-197.71"/>
</g>
<!-- Node27 -->
<g id="node27" class="node">
<title>Node27</title>
<g id="a_node27"><a xlink:title=" ">
<polygon fill="none" stroke="#bfbfbf" points="506,-224.5 506,-243.5 556,-243.5 556,-224.5 506,-224.5"/>
<text text-anchor="middle" x="531" y="-231.5" font-family="FreeSans.ttf" font-size="10.00">typeinfo</text>
</a>
</g>
</g>
<!-- Node26&#45;&gt;Node27 -->
<g id="edge40" class="edge">
<title>Node26&#45;&gt;Node27</title>
<path fill="none" stroke="midnightblue" d="M552.71,-280.08C549.15,-272.69 543.98,-261.95 539.58,-252.81"/>
<polygon fill="midnightblue" stroke="midnightblue" points="542.71,-251.24 535.21,-243.75 536.4,-254.28 542.71,-251.24"/>
</g>
<!-- Node28 -->
<g id="node28" class="node">
<title>Node28</title>
<g id="a_node28"><a xlink:title=" ">
<polygon fill="none" stroke="#bfbfbf" points="574.5,-224.5 574.5,-243.5 633.5,-243.5 633.5,-224.5 574.5,-224.5"/>
<text text-anchor="middle" x="604" y="-231.5" font-family="FreeSans.ttf" font-size="10.00">stdexcept</text>
</a>
</g>
</g>
<!-- Node26&#45;&gt;Node28 -->
<g id="edge41" class="edge">
<title>Node26&#45;&gt;Node28</title>
<path fill="none" stroke="midnightblue" d="M564.76,-280.08C571.54,-272.3 581.54,-260.8 589.76,-251.37"/>
<polygon fill="midnightblue" stroke="midnightblue" points="592.46,-253.59 596.38,-243.75 587.18,-249 592.46,-253.59"/>
</g>
<!-- Node29&#45;&gt;Node8 -->
<g id="edge45" class="edge">
<title>Node29&#45;&gt;Node8</title>
<path fill="none" stroke="midnightblue" d="M505.28,-336.46C491.66,-327.94 476.59,-315.67 469,-300 450.65,-262.14 487.05,-217.49 510.09,-194.46"/>
<polygon fill="midnightblue" stroke="midnightblue" points="512.52,-196.98 517.29,-187.52 507.66,-191.94 512.52,-196.98"/>
</g>
<!-- Node29&#45;&gt;Node25 -->
<g id="edge47" class="edge">
<title>Node29&#45;&gt;Node25</title>
<path fill="none" stroke="midnightblue" d="M573.52,-336.44C595.69,-327.73 623.03,-315.3 645,-300 664.8,-286.21 683.7,-265.81 695.76,-251.55"/>
<polygon fill="midnightblue" stroke="midnightblue" points="698.67,-253.52 702.33,-243.58 693.27,-249.07 698.67,-253.52"/>
</g>
<!-- Node29&#45;&gt;Node26 -->
<g id="edge46" class="edge">
<title>Node29&#45;&gt;Node26</title>
<path fill="none" stroke="midnightblue" d="M538.69,-336.4C542,-328.2 546.2,-317.78 549.74,-308.99"/>
<polygon fill="midnightblue" stroke="midnightblue" points="553.01,-310.24 553.51,-299.66 546.52,-307.62 553.01,-310.24"/>
</g>
<!-- Node33&#45;&gt;Node7 -->
<g id="edge55" class="edge">
<title>Node33&#45;&gt;Node7</title>
<path fill="none" stroke="midnightblue" d="M965.42,-280.32C950,-271.74 926.19,-258.49 908.29,-248.52"/>
<polygon fill="midnightblue" stroke="midnightblue" points="909.99,-245.46 899.55,-243.65 906.58,-251.58 909.99,-245.46"/>
</g>
<!-- Node33&#45;&gt;Node12 -->
<g id="edge56" class="edge">
<title>Node33&#45;&gt;Node12</title>
<path fill="none" stroke="midnightblue" d="M978.04,-280.41C973.58,-267.79 964.64,-243.64 955,-224 928.56,-170.16 887.56,-112.11 866.87,-84.08"/>
<polygon fill="midnightblue" stroke="midnightblue" points="869.47,-81.7 860.69,-75.77 863.85,-85.88 869.47,-81.7"/>
</g>
<!-- Node33&#45;&gt;Node17 -->
<g id="edge57" class="edge">
<title>Node33&#45;&gt;Node17</title>
<path fill="none" stroke="midnightblue" d="M986.58,-280.39C992.44,-271.34 1001.9,-256.7 1010,-244 1061.21,-163.7 1121.69,-67.35 1146.04,-28.5"/>
<polygon fill="midnightblue" stroke="midnightblue" points="1149.08,-30.24 1151.42,-19.91 1143.15,-26.52 1149.08,-30.24"/>
</g>
<!-- Node33&#45;&gt;Node20 -->
<g id="edge54" class="edge">
<title>Node33&#45;&gt;Node20</title>
<path fill="none" stroke="midnightblue" d="M983.47,-280.41C986.02,-271.39 990.04,-256.76 993,-244 1001.37,-207.97 1009.37,-165.47 1013.69,-141.64"/>
<polygon fill="midnightblue" stroke="midnightblue" points="1017.18,-142.01 1015.5,-131.55 1010.29,-140.77 1017.18,-142.01"/>
</g>
</g>
</svg>
