<?xml version="1.0" encoding="UTF-8" standalone="no"?>
<!DOCTYPE svg PUBLIC "-//W3C//DTD SVG 1.1//EN"
 "http://www.w3.org/Graphics/SVG/1.1/DTD/svg11.dtd">
<!-- Generated by graphviz version 2.49.3 (20211027.1534)
 -->
<!-- Title: PYBIND11_MODULE Pages: 1 -->
<svg width="657pt" height="682pt"
 viewBox="0.00 0.00 657.00 682.00" xmlns="http://www.w3.org/2000/svg" xmlns:xlink="http://www.w3.org/1999/xlink">
<g id="graph0" class="graph" transform="scale(1 1) rotate(0) translate(4 678)">
<title>PYBIND11_MODULE</title>
<!-- Node1 -->
<g id="node1" class="node">
<title>Node1</title>
<g id="a_node1"><a xlink:title=" ">
<polygon fill="#bfbfbf" stroke="black" points="0,-396 0,-415 112,-415 112,-396 0,-396"/>
<text text-anchor="middle" x="56" y="-403" font-family="FreeSans.ttf" font-size="10.00">PYBIND11_MODULE</text>
</a>
</g>
</g>
<!-- Node2 -->
<g id="node2" class="node">
<title>Node2</title>
<g id="a_node2"><a xlink:href="classGpuNUFFTPythonOperator.html#a9d5913daa75877d952160c6e126bbe07" target="_top" xlink:title="Adjoint operator (kspace to Image)">
<polygon fill="none" stroke="black" points="155.5,-478.5 155.5,-508.5 290.5,-508.5 290.5,-478.5 155.5,-478.5"/>
<text text-anchor="start" x="163.5" y="-496.5" font-family="FreeSans.ttf" font-size="10.00">GpuNUFFTPythonOperator</text>
<text text-anchor="middle" x="223" y="-485.5" font-family="FreeSans.ttf" font-size="10.00">::adj_op</text>
</a>
</g>
</g>
<!-- Node1&#45;&gt;Node2 -->
<g id="edge1" class="edge">
<title>Node1&#45;&gt;Node2</title>
<path fill="none" stroke="midnightblue" d="M68.68,-415.2C85.38,-428.68 117.44,-453.14 148,-468.5 152.32,-470.67 156.86,-472.72 161.5,-474.64"/>
<polygon fill="midnightblue" stroke="midnightblue" points="160.49,-478 171.07,-478.4 163.05,-471.49 160.49,-478"/>
</g>
<!-- Node5 -->
<g id="node5" class="node">
<title>Node5</title>
<g id="a_node5"><a xlink:href="classGpuNUFFTPythonOperator.html#aa955beb4fd74d6291151af08eab22f62" target="_top" xlink:title=" ">
<polygon fill="none" stroke="black" points="155.5,-594.5 155.5,-624.5 290.5,-624.5 290.5,-594.5 155.5,-594.5"/>
<text text-anchor="start" x="163.5" y="-612.5" font-family="FreeSans.ttf" font-size="10.00">GpuNUFFTPythonOperator</text>
<text text-anchor="middle" x="223" y="-601.5" font-family="FreeSans.ttf" font-size="10.00">::clean_memory</text>
</a>
</g>
</g>
<!-- Node1&#45;&gt;Node5 -->
<g id="edge4" class="edge">
<title>Node1&#45;&gt;Node5</title>
<path fill="none" stroke="midnightblue" d="M64.78,-415.19C80.48,-434.74 117.1,-480.32 148,-518.5 166.77,-541.7 188.3,-568.16 203.28,-586.54"/>
<polygon fill="midnightblue" stroke="midnightblue" points="200.64,-588.84 209.67,-594.38 206.07,-584.42 200.64,-588.84"/>
</g>
<!-- Node7 -->
<g id="node7" class="node">
<title>Node7</title>
<g id="a_node7"><a xlink:href="classGpuNUFFTPythonOperator.html#a564644dc7ea9b8306cd6296ea6f1fca6" target="_top" xlink:title=" ">
<polygon fill="none" stroke="black" points="155.5,-390.5 155.5,-420.5 290.5,-420.5 290.5,-390.5 155.5,-390.5"/>
<text text-anchor="start" x="163.5" y="-408.5" font-family="FreeSans.ttf" font-size="10.00">GpuNUFFTPythonOperator</text>
<text text-anchor="middle" x="223" y="-397.5" font-family="FreeSans.ttf" font-size="10.00">::data_consistency</text>
</a>
</g>
</g>
<!-- Node1&#45;&gt;Node7 -->
<g id="edge6" class="edge">
<title>Node1&#45;&gt;Node7</title>
<path fill="none" stroke="midnightblue" d="M112.4,-405.5C122.94,-405.5 134.14,-405.5 145.2,-405.5"/>
<polygon fill="midnightblue" stroke="midnightblue" points="145.3,-409 155.3,-405.5 145.3,-402 145.3,-409"/>
</g>
<!-- Node17 -->
<g id="node17" class="node">
<title>Node17</title>
<g id="a_node17"><a xlink:href="classGpuNUFFTPythonOperator.html#a47e427fafc08d705d834940e1229742f" target="_top" xlink:title="Estimate density Compensation array using gpu&#45;only functions.">
<polygon fill="none" stroke="black" points="155.5,-196.5 155.5,-226.5 290.5,-226.5 290.5,-196.5 155.5,-196.5"/>
<text text-anchor="start" x="163.5" y="-214.5" font-family="FreeSans.ttf" font-size="10.00">GpuNUFFTPythonOperator</text>
<text text-anchor="middle" x="223" y="-203.5" font-family="FreeSans.ttf" font-size="10.00">::estimate_density_comp</text>
</a>
</g>
</g>
<!-- Node1&#45;&gt;Node17 -->
<g id="edge18" class="edge">
<title>Node1&#45;&gt;Node17</title>
<path fill="none" stroke="midnightblue" d="M64.62,-395.77C80.06,-376.17 116.22,-330.61 148,-293.5 165.47,-273.1 185.98,-250.47 200.97,-234.16"/>
<polygon fill="midnightblue" stroke="midnightblue" points="203.64,-236.43 207.85,-226.7 198.5,-231.68 203.64,-236.43"/>
</g>
<!-- Node22 -->
<g id="node22" class="node">
<title>Node22</title>
<g id="a_node22"><a xlink:href="classGpuNUFFTPythonOperator.html#a10bcd0d453fef0947c00cb4448398d3b" target="_top" xlink:title="Estimate the spectral radius using gpu&#45;only functions.">
<polygon fill="none" stroke="black" points="155.5,-302.5 155.5,-332.5 290.5,-332.5 290.5,-302.5 155.5,-302.5"/>
<text text-anchor="start" x="163.5" y="-320.5" font-family="FreeSans.ttf" font-size="10.00">GpuNUFFTPythonOperator</text>
<text text-anchor="middle" x="223" y="-309.5" font-family="FreeSans.ttf" font-size="10.00">::get_spectral_radius</text>
</a>
</g>
</g>
<!-- Node1&#45;&gt;Node22 -->
<g id="edge27" class="edge">
<title>Node1&#45;&gt;Node22</title>
<path fill="none" stroke="midnightblue" d="M74.97,-395.91C101.08,-381.99 150.12,-355.84 184.35,-337.58"/>
<polygon fill="midnightblue" stroke="midnightblue" points="186.41,-340.45 193.58,-332.66 183.11,-334.27 186.41,-340.45"/>
</g>
<!-- Node23 -->
<g id="node23" class="node">
<title>Node23</title>
<g id="a_node23"><a xlink:href="classGpuNUFFTPythonOperator.html#a790d6c1885f30c640064a26f618e64ea" target="_top" xlink:title="Forward operator (Image to kspace)">
<polygon fill="none" stroke="black" points="148,-440 148,-459 298,-459 298,-440 148,-440"/>
<text text-anchor="middle" x="223" y="-447" font-family="FreeSans.ttf" font-size="10.00">GpuNUFFTPythonOperator::op</text>
</a>
</g>
</g>
<!-- Node1&#45;&gt;Node23 -->
<g id="edge31" class="edge">
<title>Node1&#45;&gt;Node23</title>
<path fill="none" stroke="midnightblue" d="M91.1,-415.01C108.17,-419.74 129.16,-425.49 148,-430.5 156.57,-432.78 165.71,-435.16 174.54,-437.44"/>
<polygon fill="midnightblue" stroke="midnightblue" points="173.77,-440.85 184.32,-439.96 175.51,-434.08 173.77,-440.85"/>
</g>
<!-- Node24 -->
<g id="node24" class="node">
<title>Node24</title>
<g id="a_node24"><a xlink:href="classGpuNUFFTPythonOperator.html#aaf1b1ce70db899390b2236ee9c350433" target="_top" xlink:title=" ">
<polygon fill="none" stroke="black" points="155.5,-74.5 155.5,-104.5 290.5,-104.5 290.5,-74.5 155.5,-74.5"/>
<text text-anchor="start" x="163.5" y="-92.5" font-family="FreeSans.ttf" font-size="10.00">GpuNUFFTPythonOperator</text>
<text text-anchor="middle" x="223" y="-81.5" font-family="FreeSans.ttf" font-size="10.00">::set_smaps</text>
</a>
</g>
</g>
<!-- Node1&#45;&gt;Node24 -->
<g id="edge34" class="edge">
<title>Node1&#45;&gt;Node24</title>
<path fill="none" stroke="midnightblue" d="M59.99,-395.91C69.98,-364.59 104.01,-262.84 148,-186.5 163.57,-159.48 185.7,-131.46 201.7,-112.52"/>
<polygon fill="midnightblue" stroke="midnightblue" points="204.52,-114.62 208.36,-104.75 199.2,-110.07 204.52,-114.62"/>
</g>
<!-- Node3 -->
<g id="node3" class="node">
<title>Node3</title>
<g id="a_node3"><a xlink:href="python__utils_8hpp.html#a6fc45707d1f047d4232b16582576b2e6" target="_top" xlink:title=" ">
<polygon fill="none" stroke="black" points="368,-605 368,-624 458,-624 458,-605 368,-605"/>
<text text-anchor="middle" x="413" y="-612" font-family="FreeSans.ttf" font-size="10.00">copyNumpyArray</text>
</a>
</g>
</g>
<!-- Node2&#45;&gt;Node3 -->
<g id="edge2" class="edge">
<title>Node2&#45;&gt;Node3</title>
<path fill="none" stroke="midnightblue" d="M235.79,-508.51C254.27,-530.97 292.25,-573.05 334,-595.5 341.41,-599.48 349.67,-602.65 357.95,-605.15"/>
<polygon fill="midnightblue" stroke="midnightblue" points="357.08,-608.54 367.65,-607.8 358.92,-601.79 357.08,-608.54"/>
</g>
<!-- Node4 -->
<g id="node4" class="node">
<title>Node4</title>
<g id="a_node4"><a xlink:href="classgpuNUFFT_1_1GpuNUFFTOperator.html#a38a45507d840b8d3d97de7fc79b4fa8a" target="_top" xlink:title="Perform Adjoint gridding operation on given kspaceData.">
<polygon fill="none" stroke="black" points="334,-327.5 334,-357.5 492,-357.5 492,-327.5 334,-327.5"/>
<text text-anchor="start" x="342" y="-345.5" font-family="FreeSans.ttf" font-size="10.00">gpuNUFFT::GpuNUFFTOperator</text>
<text text-anchor="middle" x="413" y="-334.5" font-family="FreeSans.ttf" font-size="10.00">::performGpuNUFFTAdj</text>
</a>
</g>
</g>
<!-- Node2&#45;&gt;Node4 -->
<g id="edge3" class="edge">
<title>Node2&#45;&gt;Node4</title>
<path fill="none" stroke="midnightblue" d="M284.53,-478.47C289.44,-475.69 294.04,-472.4 298,-468.5 331.98,-435.08 299.76,-400.65 334,-367.5 335.49,-366.05 337.07,-364.69 338.72,-363.41"/>
<polygon fill="midnightblue" stroke="midnightblue" points="341.06,-366.06 347.47,-357.62 337.2,-360.22 341.06,-366.06"/>
</g>
<!-- Node6 -->
<g id="node6" class="node">
<title>Node6</title>
<g id="a_node6"><a xlink:href="classgpuNUFFT_1_1GpuNUFFTOperator.html#a11b569c99d639766b533f26ac19a09e2" target="_top" xlink:title=" ">
<polygon fill="none" stroke="black" points="334,-643.5 334,-673.5 492,-673.5 492,-643.5 334,-643.5"/>
<text text-anchor="start" x="342" y="-661.5" font-family="FreeSans.ttf" font-size="10.00">gpuNUFFT::GpuNUFFTOperator</text>
<text text-anchor="middle" x="413" y="-650.5" font-family="FreeSans.ttf" font-size="10.00">::clean_memory</text>
</a>
</g>
</g>
<!-- Node5&#45;&gt;Node6 -->
<g id="edge5" class="edge">
<title>Node5&#45;&gt;Node6</title>
<path fill="none" stroke="midnightblue" d="M281.68,-624.53C301.53,-629.71 323.94,-635.55 344.5,-640.91"/>
<polygon fill="midnightblue" stroke="midnightblue" points="343.87,-644.36 354.43,-643.49 345.63,-637.58 343.87,-644.36"/>
</g>
<!-- Node7&#45;&gt;Node3 -->
<g id="edge10" class="edge">
<title>Node7&#45;&gt;Node3</title>
<path fill="none" stroke="midnightblue" d="M286.12,-420.66C290.52,-423.41 294.56,-426.66 298,-430.5 348.05,-486.44 281.57,-541.79 334,-595.5 340.51,-602.17 348.93,-606.65 357.83,-609.63"/>
<polygon fill="midnightblue" stroke="midnightblue" points="357.03,-613.04 367.6,-612.31 358.88,-606.29 357.03,-613.04"/>
</g>
<!-- Node7&#45;&gt;Node4 -->
<g id="edge16" class="edge">
<title>Node7&#45;&gt;Node4</title>
<path fill="none" stroke="midnightblue" d="M266.76,-390.48C287.09,-383.4 311.76,-374.9 334,-367.5 340.77,-365.25 347.89,-362.91 354.95,-360.62"/>
<polygon fill="midnightblue" stroke="midnightblue" points="356.07,-363.94 364.51,-357.53 353.92,-357.28 356.07,-363.94"/>
</g>
<!-- Node8 -->
<g id="node8" class="node">
<title>Node8</title>
<g id="a_node8"><a xlink:href="cuda__utils_8hpp.html#a18413e749218eb97bc61578b50a57787" target="_top" xlink:title="CUDA memory allocation and memcpy call to copy data from host to device.">
<polygon fill="none" stroke="black" points="337,-491 337,-510 489,-510 489,-491 337,-491"/>
<text text-anchor="middle" x="413" y="-498" font-family="FreeSans.ttf" font-size="10.00">allocateAndCopyToDeviceMem</text>
</a>
</g>
</g>
<!-- Node7&#45;&gt;Node8 -->
<g id="edge7" class="edge">
<title>Node7&#45;&gt;Node8</title>
<path fill="none" stroke="midnightblue" d="M281.22,-420.66C287.16,-423.43 292.89,-426.69 298,-430.5 320.24,-447.09 311.06,-465.89 334,-481.5 336.91,-483.48 340.01,-485.26 343.22,-486.85"/>
<polygon fill="midnightblue" stroke="midnightblue" points="341.98,-490.12 352.55,-490.86 344.75,-483.69 341.98,-490.12"/>
</g>
<!-- Node9 -->
<g id="node9" class="node">
<title>Node9</title>
<g id="a_node9"><a xlink:href="cuda__utils_8hpp.html#a5fb34b1c5f091a495c7ac4237257d7b1" target="_top" xlink:title="Allocation of device memory of the given extent for the defined type.">
<polygon fill="none" stroke="black" points="362,-240 362,-259 464,-259 464,-240 362,-240"/>
<text text-anchor="middle" x="413" y="-247" font-family="FreeSans.ttf" font-size="10.00">allocateDeviceMem</text>
</a>
</g>
</g>
<!-- Node7&#45;&gt;Node9 -->
<g id="edge8" class="edge">
<title>Node7&#45;&gt;Node9</title>
<path fill="none" stroke="midnightblue" d="M246.22,-390.41C262.16,-378.75 283.33,-361.44 298,-342.5 320.4,-313.59 305.53,-291.45 334,-268.5 339.39,-264.15 345.64,-260.77 352.19,-258.16"/>
<polygon fill="midnightblue" stroke="midnightblue" points="353.62,-261.37 361.96,-254.84 351.37,-254.74 353.62,-261.37"/>
</g>
<!-- Node10 -->
<g id="node10" class="node">
<title>Node10</title>
<g id="a_node10"><a xlink:href="cuda__utils_8hpp.html#a0e734eacdc00ba553d77aa057e02059b" target="_top" xlink:title="Copy CUDA memory from device to host asynchronously.">
<polygon fill="none" stroke="black" points="355,-453 355,-472 471,-472 471,-453 355,-453"/>
<text text-anchor="middle" x="413" y="-460" font-family="FreeSans.ttf" font-size="10.00">copyFromDeviceAsync</text>
</a>
</g>
</g>
<!-- Node7&#45;&gt;Node10 -->
<g id="edge9" class="edge">
<title>Node7&#45;&gt;Node10</title>
<path fill="none" stroke="midnightblue" d="M269.05,-420.55C278.62,-423.8 288.65,-427.23 298,-430.5 314.06,-436.11 317.71,-438.59 334,-443.5 342.15,-445.96 350.86,-448.32 359.38,-450.5"/>
<polygon fill="midnightblue" stroke="midnightblue" points="358.72,-453.94 369.27,-452.97 360.41,-447.15 358.72,-453.94"/>
</g>
<!-- Node11 -->
<g id="node11" class="node">
<title>Node11</title>
<g id="a_node11"><a xlink:href="cuda__utils_8hpp.html#a52e9a7f2a2d5bed73e0e9e7d367b1198" target="_top" xlink:title="CUDA memcpy call to copy data from host to device.">
<polygon fill="none" stroke="black" points="374,-415 374,-434 452,-434 452,-415 374,-415"/>
<text text-anchor="middle" x="413" y="-422" font-family="FreeSans.ttf" font-size="10.00">copyToDevice</text>
</a>
</g>
</g>
<!-- Node7&#45;&gt;Node11 -->
<g id="edge11" class="edge">
<title>Node7&#45;&gt;Node11</title>
<path fill="none" stroke="midnightblue" d="M290.55,-412.23C314.62,-414.66 341.33,-417.36 363.55,-419.6"/>
<polygon fill="midnightblue" stroke="midnightblue" points="363.45,-423.11 373.75,-420.63 364.15,-416.15 363.45,-423.11"/>
</g>
<!-- Node12 -->
<g id="node12" class="node">
<title>Node12</title>
<g id="a_node12"><a xlink:href="structgpuNUFFT_1_1Array.html#af426f56b5d7e05b6143acbdd51bac188" target="_top" xlink:title=" ">
<polygon fill="none" stroke="black" points="352.5,-377 352.5,-396 473.5,-396 473.5,-377 352.5,-377"/>
<text text-anchor="middle" x="413" y="-384" font-family="FreeSans.ttf" font-size="10.00">gpuNUFFT::Array::count</text>
</a>
</g>
</g>
<!-- Node7&#45;&gt;Node12 -->
<g id="edge12" class="edge">
<title>Node7&#45;&gt;Node12</title>
<path fill="none" stroke="midnightblue" d="M290.55,-398.77C307.25,-397.09 325.23,-395.27 342.1,-393.56"/>
<polygon fill="midnightblue" stroke="midnightblue" points="342.84,-397.01 352.43,-392.52 342.13,-390.04 342.84,-397.01"/>
</g>
<!-- Node14 -->
<g id="node14" class="node">
<title>Node14</title>
<g id="a_node14"><a xlink:href="gpuNUFFT__kernels_8hpp.html#a7ea425f71e9b13006582e6280512f11c" target="_top" xlink:title="Perform data1 = data1 &#45; data2.">
<polygon fill="none" stroke="black" points="382,-567 382,-586 444,-586 444,-567 382,-567"/>
<text text-anchor="middle" x="413" y="-574" font-family="FreeSans.ttf" font-size="10.00">diffInPlace</text>
</a>
</g>
</g>
<!-- Node7&#45;&gt;Node14 -->
<g id="edge14" class="edge">
<title>Node7&#45;&gt;Node14</title>
<path fill="none" stroke="midnightblue" d="M285.51,-420.68C290.1,-423.42 294.35,-426.67 298,-430.5 338.44,-473 291.75,-516.8 334,-557.5 344.08,-567.21 358.25,-572.23 371.75,-574.74"/>
<polygon fill="midnightblue" stroke="midnightblue" points="371.47,-578.23 381.87,-576.2 372.48,-571.3 371.47,-578.23"/>
</g>
<!-- Node15 -->
<g id="node15" class="node">
<title>Node15</title>
<g id="a_node15"><a xlink:href="classgpuNUFFT_1_1GpuNUFFTOperator.html#a10d565529aa2c7778c15edb8a820b417" target="_top" xlink:title="Perform forward gridding operation on given kspaceData.">
<polygon fill="none" stroke="black" points="334,-278.5 334,-308.5 492,-308.5 492,-278.5 334,-278.5"/>
<text text-anchor="start" x="342" y="-296.5" font-family="FreeSans.ttf" font-size="10.00">gpuNUFFT::GpuNUFFTOperator</text>
<text text-anchor="middle" x="413" y="-285.5" font-family="FreeSans.ttf" font-size="10.00">::performForwardGpuNUFFT</text>
</a>
</g>
</g>
<!-- Node7&#45;&gt;Node15 -->
<g id="edge15" class="edge">
<title>Node7&#45;&gt;Node15</title>
<path fill="none" stroke="midnightblue" d="M241.78,-390.14C267.62,-368.06 314.55,-328.86 334,-318.5 338.17,-316.28 342.58,-314.21 347.08,-312.29"/>
<polygon fill="midnightblue" stroke="midnightblue" points="348.43,-315.52 356.43,-308.58 345.85,-309.02 348.43,-315.52"/>
</g>
<!-- Node16 -->
<g id="node16" class="node">
<title>Node16</title>
<g id="a_node16"><a xlink:href="python__utils_8hpp.html#aeb74d2cb99381f659a6890373021e833" target="_top" xlink:title=" ">
<polygon fill="none" stroke="black" points="368.5,-529 368.5,-548 457.5,-548 457.5,-529 368.5,-529"/>
<text text-anchor="middle" x="413" y="-536" font-family="FreeSans.ttf" font-size="10.00">readNumpyArray</text>
</a>
</g>
</g>
<!-- Node7&#45;&gt;Node16 -->
<g id="edge17" class="edge">
<title>Node7&#45;&gt;Node16</title>
<path fill="none" stroke="midnightblue" d="M283.99,-420.51C289.08,-423.29 293.86,-426.59 298,-430.5 329.04,-459.78 301.72,-491.6 334,-519.5 340.97,-525.52 349.54,-529.7 358.42,-532.59"/>
<polygon fill="midnightblue" stroke="midnightblue" points="357.55,-535.98 368.11,-535.24 359.39,-529.23 357.55,-535.98"/>
</g>
<!-- Node13 -->
<g id="node13" class="node">
<title>Node13</title>
<g id="a_node13"><a xlink:href="structgpuNUFFT_1_1Dimensions.html#a4c589934c5444910fbcd890d128229c9" target="_top" xlink:title="Compute total count of array length.">
<polygon fill="none" stroke="black" points="528,-283.5 528,-313.5 649,-313.5 649,-283.5 528,-283.5"/>
<text text-anchor="start" x="536" y="-301.5" font-family="FreeSans.ttf" font-size="10.00">gpuNUFFT::Dimensions</text>
<text text-anchor="middle" x="588.5" y="-290.5" font-family="FreeSans.ttf" font-size="10.00">::count</text>
</a>
</g>
</g>
<!-- Node12&#45;&gt;Node13 -->
<g id="edge13" class="edge">
<title>Node12&#45;&gt;Node13</title>
<path fill="none" stroke="midnightblue" d="M465.73,-376.89C474.7,-374.39 483.77,-371.3 492,-367.5 518.25,-355.39 544.63,-335.61 562.99,-320.33"/>
<polygon fill="midnightblue" stroke="midnightblue" points="565.48,-322.81 570.83,-313.67 560.95,-317.48 565.48,-322.81"/>
</g>
<!-- Node17&#45;&gt;Node4 -->
<g id="edge25" class="edge">
<title>Node17&#45;&gt;Node4</title>
<path fill="none" stroke="midnightblue" d="M235.5,-226.58C253.87,-249.65 292.06,-293.64 334,-318.5 336.86,-320.2 339.86,-321.79 342.94,-323.27"/>
<polygon fill="midnightblue" stroke="midnightblue" points="341.81,-326.6 352.38,-327.42 344.63,-320.19 341.81,-326.6"/>
</g>
<!-- Node17&#45;&gt;Node9 -->
<g id="edge20" class="edge">
<title>Node17&#45;&gt;Node9</title>
<path fill="none" stroke="midnightblue" d="M290.55,-224.95C311.51,-229.19 334.47,-233.83 354.73,-237.92"/>
<polygon fill="midnightblue" stroke="midnightblue" points="354.25,-241.4 364.75,-239.95 355.64,-234.54 354.25,-241.4"/>
</g>
<!-- Node17&#45;&gt;Node13 -->
<g id="edge22" class="edge">
<title>Node17&#45;&gt;Node13</title>
<path fill="none" stroke="midnightblue" d="M290.76,-206.38C346.26,-204.42 426.48,-206.97 492,-230.5 519.58,-240.4 546.34,-260.67 564.48,-276.51"/>
<polygon fill="midnightblue" stroke="midnightblue" points="562.4,-279.35 572.18,-283.43 567.08,-274.14 562.4,-279.35"/>
</g>
<!-- Node17&#45;&gt;Node15 -->
<g id="edge24" class="edge">
<title>Node17&#45;&gt;Node15</title>
<path fill="none" stroke="midnightblue" d="M250.08,-226.6C272,-238.9 304.41,-256.19 334,-268.5 339.47,-270.77 345.22,-272.97 351.02,-275.05"/>
<polygon fill="midnightblue" stroke="midnightblue" points="350.19,-278.47 360.78,-278.44 352.49,-271.86 350.19,-278.47"/>
</g>
<!-- Node18 -->
<g id="node18" class="node">
<title>Node18</title>
<g id="a_node18"><a xlink:href="python__utils_8hpp.html#a5732db3eeef010cc926583da8f91fcd6" target="_top" xlink:title=" ">
<polygon fill="none" stroke="black" points="351,-88 351,-107 475,-107 475,-88 351,-88"/>
<text text-anchor="middle" x="413" y="-95" font-family="FreeSans.ttf" font-size="10.00">allocate_pinned_memory</text>
</a>
</g>
</g>
<!-- Node17&#45;&gt;Node18 -->
<g id="edge19" class="edge">
<title>Node17&#45;&gt;Node18</title>
<path fill="none" stroke="midnightblue" d="M236.97,-196.5C256.07,-175.39 293.85,-137.18 334,-116.5 338.61,-114.13 343.52,-112.04 348.55,-110.21"/>
<polygon fill="midnightblue" stroke="midnightblue" points="349.92,-113.45 358.33,-107 347.74,-106.8 349.92,-113.45"/>
</g>
<!-- Node19 -->
<g id="node19" class="node">
<title>Node19</title>
<g id="a_node19"><a xlink:href="cuda__utils_8hpp.html#a1f04840b22a32448d0069e89cacd0950" target="_top" xlink:title="CUDA memcpy call to copy data from host to device.">
<polygon fill="none" stroke="black" points="360.5,-50 360.5,-69 465.5,-69 465.5,-50 360.5,-50"/>
<text text-anchor="middle" x="413" y="-57" font-family="FreeSans.ttf" font-size="10.00">copyToDeviceAsync</text>
</a>
</g>
</g>
<!-- Node17&#45;&gt;Node19 -->
<g id="edge21" class="edge">
<title>Node17&#45;&gt;Node19</title>
<path fill="none" stroke="midnightblue" d="M234.85,-196.06C257.33,-164.48 308.98,-94.16 334,-78.5 339.07,-75.33 344.63,-72.68 350.38,-70.48"/>
<polygon fill="midnightblue" stroke="midnightblue" points="351.82,-73.69 360.17,-67.17 349.58,-67.06 351.82,-73.69"/>
</g>
<!-- Node20 -->
<g id="node20" class="node">
<title>Node20</title>
<g id="a_node20"><a xlink:href="cuda__utils_8hpp.html#a6ffa821f98a8c2b391c12c01308ff1db" target="_top" xlink:title="Free of device memory.">
<polygon fill="none" stroke="black" points="370.5,-164 370.5,-183 455.5,-183 455.5,-164 370.5,-164"/>
<text text-anchor="middle" x="413" y="-171" font-family="FreeSans.ttf" font-size="10.00">freeDeviceMem</text>
</a>
</g>
</g>
<!-- Node17&#45;&gt;Node20 -->
<g id="edge23" class="edge">
<title>Node17&#45;&gt;Node20</title>
<path fill="none" stroke="midnightblue" d="M290.55,-198.05C313.53,-193.4 338.9,-188.27 360.49,-183.91"/>
<polygon fill="midnightblue" stroke="midnightblue" points="361.33,-187.31 370.44,-181.9 359.95,-180.45 361.33,-187.31"/>
</g>
<!-- Node21 -->
<g id="node21" class="node">
<title>Node21</title>
<g id="a_node21"><a xlink:href="gpuNUFFT__kernels_8hpp.html#aeef5d0634868e22a476b5cbb3f54f6a2" target="_top" xlink:title="Perform the Density compensation method.">
<polygon fill="none" stroke="black" points="343.5,-126 343.5,-145 482.5,-145 482.5,-126 343.5,-126"/>
<text text-anchor="middle" x="413" y="-133" font-family="FreeSans.ttf" font-size="10.00">performUpdateDensityComp</text>
</a>
</g>
</g>
<!-- Node17&#45;&gt;Node21 -->
<g id="edge26" class="edge">
<title>Node17&#45;&gt;Node21</title>
<path fill="none" stroke="midnightblue" d="M248.99,-196.35C270.78,-183.68 303.59,-165.9 334,-154.5 340.73,-151.98 347.91,-149.7 355.09,-147.67"/>
<polygon fill="midnightblue" stroke="midnightblue" points="356.09,-151.03 364.84,-145.06 354.28,-144.27 356.09,-151.03"/>
</g>
<!-- Node22&#45;&gt;Node4 -->
<g id="edge30" class="edge">
<title>Node22&#45;&gt;Node4</title>
<path fill="none" stroke="midnightblue" d="M290.55,-326.35C301.3,-327.78 312.58,-329.28 323.76,-330.77"/>
<polygon fill="midnightblue" stroke="midnightblue" points="323.59,-334.27 333.97,-332.12 324.52,-327.34 323.59,-334.27"/>
</g>
<!-- Node22&#45;&gt;Node9 -->
<g id="edge28" class="edge">
<title>Node22&#45;&gt;Node9</title>
<path fill="none" stroke="midnightblue" d="M253.76,-302.49C275.57,-291.92 306.1,-278.02 334,-268.5 341.33,-266 349.15,-263.69 356.9,-261.6"/>
<polygon fill="midnightblue" stroke="midnightblue" points="357.84,-264.98 366.64,-259.09 356.09,-258.2 357.84,-264.98"/>
</g>
<!-- Node22&#45;&gt;Node15 -->
<g id="edge29" class="edge">
<title>Node22&#45;&gt;Node15</title>
<path fill="none" stroke="midnightblue" d="M290.55,-309C301.3,-307.63 312.58,-306.19 323.76,-304.77"/>
<polygon fill="midnightblue" stroke="midnightblue" points="324.49,-308.2 333.97,-303.46 323.61,-301.26 324.49,-308.2"/>
</g>
<!-- Node23&#45;&gt;Node3 -->
<g id="edge32" class="edge">
<title>Node23&#45;&gt;Node3</title>
<path fill="none" stroke="midnightblue" d="M282.89,-459.12C288.46,-461.8 293.64,-465.2 298,-469.5 339.48,-510.39 292.01,-555.14 334,-595.5 340.71,-601.96 349.24,-606.34 358.17,-609.28"/>
<polygon fill="midnightblue" stroke="midnightblue" points="357.39,-612.7 367.96,-611.95 359.23,-605.94 357.39,-612.7"/>
</g>
<!-- Node23&#45;&gt;Node15 -->
<g id="edge33" class="edge">
<title>Node23&#45;&gt;Node15</title>
<path fill="none" stroke="midnightblue" d="M284.18,-439.87C289.23,-437.4 293.95,-434.32 298,-430.5 336.06,-394.65 297.01,-355.46 334,-318.5 335.43,-317.07 336.95,-315.72 338.53,-314.44"/>
<polygon fill="midnightblue" stroke="midnightblue" points="340.67,-317.23 346.96,-308.7 336.73,-311.44 340.67,-317.23"/>
</g>
<!-- Node25 -->
<g id="node25" class="node">
<title>Node25</title>
<g id="a_node25"><a xlink:href="classgpuNUFFT_1_1GpuNUFFTOperator.html#adbc6f59fc4a4998a4ad5bb65c38b1f03" target="_top" xlink:title=" ">
<polygon fill="none" stroke="black" points="334,-0.5 334,-30.5 492,-30.5 492,-0.5 334,-0.5"/>
<text text-anchor="start" x="342" y="-18.5" font-family="FreeSans.ttf" font-size="10.00">gpuNUFFT::GpuNUFFTOperator</text>
<text text-anchor="middle" x="413" y="-7.5" font-family="FreeSans.ttf" font-size="10.00">::setSens</text>
</a>
</g>
</g>
<!-- Node24&#45;&gt;Node25 -->
<g id="edge35" class="edge">
<title>Node24&#45;&gt;Node25</title>
<path fill="none" stroke="midnightblue" d="M255.39,-74.42C277.19,-64.22 307.05,-50.79 334,-40.5 339.93,-38.24 346.16,-36 352.41,-33.86"/>
<polygon fill="midnightblue" stroke="midnightblue" points="353.84,-37.07 362.2,-30.57 351.61,-30.43 353.84,-37.07"/>
</g>
</g>
</svg>
