<?xml version="1.0" encoding="UTF-8" standalone="no"?>
<!DOCTYPE svg PUBLIC "-//W3C//DTD SVG 1.1//EN"
 "http://www.w3.org/Graphics/SVG/1.1/DTD/svg11.dtd">
<!-- Generated by graphviz version 2.49.3 (20211027.1534)
 -->
<!-- Title: PYBIND11_MODULE Pages: 1 -->
<svg width="657pt" height="683pt"
 viewBox="0.00 0.00 657.00 683.00" xmlns="http://www.w3.org/2000/svg" xmlns:xlink="http://www.w3.org/1999/xlink">
<g id="graph0" class="graph" transform="scale(1 1) rotate(0) translate(4 679)">
<title>PYBIND11_MODULE</title>
<!-- Node1 -->
<g id="node1" class="node">
<title>Node1</title>
<g id="a_node1"><a xlink:title=" ">
<polygon fill="#bfbfbf" stroke="black" points="0,-432 0,-451 112,-451 112,-432 0,-432"/>
<text text-anchor="middle" x="56" y="-439" font-family="FreeSans.ttf" font-size="10.00">PYBIND11_MODULE</text>
</a>
</g>
</g>
<!-- Node2 -->
<g id="node2" class="node">
<title>Node2</title>
<g id="a_node2"><a xlink:href="classGpuNUFFTPythonOperator.html#a9d5913daa75877d952160c6e126bbe07" target="_top" xlink:title=" ">
<polygon fill="none" stroke="black" points="155.5,-492.5 155.5,-522.5 290.5,-522.5 290.5,-492.5 155.5,-492.5"/>
<text text-anchor="start" x="163.5" y="-510.5" font-family="FreeSans.ttf" font-size="10.00">GpuNUFFTPythonOperator</text>
<text text-anchor="middle" x="223" y="-499.5" font-family="FreeSans.ttf" font-size="10.00">::adj_op</text>
</a>
</g>
</g>
<!-- Node1&#45;&gt;Node2 -->
<g id="edge1" class="edge">
<title>Node1&#45;&gt;Node2</title>
<path fill="none" stroke="midnightblue" d="M76.64,-451.02C94.92,-459.72 123,-472.67 148,-482.5 153.58,-484.69 159.44,-486.87 165.31,-488.98"/>
<polygon fill="midnightblue" stroke="midnightblue" points="164.57,-492.43 175.17,-492.45 166.9,-485.83 164.57,-492.43"/>
</g>
<!-- Node5 -->
<g id="node5" class="node">
<title>Node5</title>
<g id="a_node5"><a xlink:href="classGpuNUFFTPythonOperator.html#aa955beb4fd74d6291151af08eab22f62" target="_top" xlink:title=" ">
<polygon fill="none" stroke="black" points="155.5,-592.5 155.5,-622.5 290.5,-622.5 290.5,-592.5 155.5,-592.5"/>
<text text-anchor="start" x="163.5" y="-610.5" font-family="FreeSans.ttf" font-size="10.00">GpuNUFFTPythonOperator</text>
<text text-anchor="middle" x="223" y="-599.5" font-family="FreeSans.ttf" font-size="10.00">::clean_memory</text>
</a>
</g>
</g>
<!-- Node1&#45;&gt;Node5 -->
<g id="edge4" class="edge">
<title>Node1&#45;&gt;Node5</title>
<path fill="none" stroke="midnightblue" d="M66.83,-451.39C92.74,-477.45 163.4,-548.54 199.75,-585.11"/>
<polygon fill="midnightblue" stroke="midnightblue" points="197.42,-587.74 206.96,-592.37 202.39,-582.81 197.42,-587.74"/>
</g>
<!-- Node7 -->
<g id="node7" class="node">
<title>Node7</title>
<g id="a_node7"><a xlink:href="classGpuNUFFTPythonOperator.html#a564644dc7ea9b8306cd6296ea6f1fca6" target="_top" xlink:title=" ">
<polygon fill="none" stroke="black" points="155.5,-404.5 155.5,-434.5 290.5,-434.5 290.5,-404.5 155.5,-404.5"/>
<text text-anchor="start" x="163.5" y="-422.5" font-family="FreeSans.ttf" font-size="10.00">GpuNUFFTPythonOperator</text>
<text text-anchor="middle" x="223" y="-411.5" font-family="FreeSans.ttf" font-size="10.00">::data_consistency</text>
</a>
</g>
</g>
<!-- Node1&#45;&gt;Node7 -->
<g id="edge6" class="edge">
<title>Node1&#45;&gt;Node7</title>
<path fill="none" stroke="midnightblue" d="M112.4,-434.11C122.94,-432.71 134.14,-431.21 145.2,-429.74"/>
<polygon fill="midnightblue" stroke="midnightblue" points="145.85,-433.18 155.3,-428.39 144.92,-426.25 145.85,-433.18"/>
</g>
<!-- Node17 -->
<g id="node17" class="node">
<title>Node17</title>
<g id="a_node17"><a xlink:href="classGpuNUFFTPythonOperator.html#a47e427fafc08d705d834940e1229742f" target="_top" xlink:title=" ">
<polygon fill="none" stroke="black" points="155.5,-196.5 155.5,-226.5 290.5,-226.5 290.5,-196.5 155.5,-196.5"/>
<text text-anchor="start" x="163.5" y="-214.5" font-family="FreeSans.ttf" font-size="10.00">GpuNUFFTPythonOperator</text>
<text text-anchor="middle" x="223" y="-203.5" font-family="FreeSans.ttf" font-size="10.00">::estimate_density_comp</text>
</a>
</g>
</g>
<!-- Node1&#45;&gt;Node17 -->
<g id="edge18" class="edge">
<title>Node1&#45;&gt;Node17</title>
<path fill="none" stroke="midnightblue" d="M63.88,-431.91C88.1,-398.14 169.89,-284.14 205.36,-234.7"/>
<polygon fill="midnightblue" stroke="midnightblue" points="208.24,-236.69 211.22,-226.52 202.55,-232.61 208.24,-236.69"/>
</g>
<!-- Node22 -->
<g id="node22" class="node">
<title>Node22</title>
<g id="a_node22"><a xlink:href="classGpuNUFFTPythonOperator.html#a790d6c1885f30c640064a26f618e64ea" target="_top" xlink:title=" ">
<polygon fill="none" stroke="black" points="148,-454 148,-473 298,-473 298,-454 148,-454"/>
<text text-anchor="middle" x="223" y="-461" font-family="FreeSans.ttf" font-size="10.00">GpuNUFFTPythonOperator::op</text>
</a>
</g>
</g>
<!-- Node1&#45;&gt;Node22 -->
<g id="edge27" class="edge">
<title>Node1&#45;&gt;Node22</title>
<path fill="none" stroke="midnightblue" d="M112.4,-448.89C121.5,-450.1 131.1,-451.38 140.68,-452.66"/>
<polygon fill="midnightblue" stroke="midnightblue" points="140.25,-456.13 150.63,-453.98 141.18,-449.19 140.25,-456.13"/>
</g>
<!-- Node23 -->
<g id="node23" class="node">
<title>Node23</title>
<g id="a_node23"><a xlink:href="classGpuNUFFTPythonOperator.html#aaf1b1ce70db899390b2236ee9c350433" target="_top" xlink:title=" ">
<polygon fill="none" stroke="black" points="155.5,-74.5 155.5,-104.5 290.5,-104.5 290.5,-74.5 155.5,-74.5"/>
<text text-anchor="start" x="163.5" y="-92.5" font-family="FreeSans.ttf" font-size="10.00">GpuNUFFTPythonOperator</text>
<text text-anchor="middle" x="223" y="-81.5" font-family="FreeSans.ttf" font-size="10.00">::set_smaps</text>
</a>
</g>
</g>
<!-- Node1&#45;&gt;Node23 -->
<g id="edge30" class="edge">
<title>Node1&#45;&gt;Node23</title>
<path fill="none" stroke="midnightblue" d="M59.3,-431.79C67.79,-397.04 99.35,-276.15 148,-186.5 162.87,-159.09 185.11,-131.13 201.33,-112.31"/>
<polygon fill="midnightblue" stroke="midnightblue" points="204.13,-114.42 208.09,-104.59 198.87,-109.81 204.13,-114.42"/>
</g>
<!-- Node3 -->
<g id="node3" class="node">
<title>Node3</title>
<g id="a_node3"><a xlink:href="python__utils_8hpp.html#a6fc45707d1f047d4232b16582576b2e6" target="_top" xlink:title=" ">
<polygon fill="none" stroke="black" points="368,-606 368,-625 458,-625 458,-606 368,-606"/>
<text text-anchor="middle" x="413" y="-613" font-family="FreeSans.ttf" font-size="10.00">copyNumpyArray</text>
</a>
</g>
</g>
<!-- Node2&#45;&gt;Node3 -->
<g id="edge2" class="edge">
<title>Node2&#45;&gt;Node3</title>
<path fill="none" stroke="midnightblue" d="M238.16,-522.52C257.79,-542.45 295.25,-577.32 334,-596.5 341.54,-600.23 349.86,-603.26 358.18,-605.71"/>
<polygon fill="midnightblue" stroke="midnightblue" points="357.33,-609.11 367.89,-608.33 359.15,-602.35 357.33,-609.11"/>
</g>
<!-- Node4 -->
<g id="node4" class="node">
<title>Node4</title>
<g id="a_node4"><a xlink:href="classgpuNUFFT_1_1GpuNUFFTOperator.html#a38a45507d840b8d3d97de7fc79b4fa8a" target="_top" xlink:title="Perform Adjoint gridding operation on given kspaceData.">
<polygon fill="none" stroke="black" points="334,-404.5 334,-434.5 492,-434.5 492,-404.5 334,-404.5"/>
<text text-anchor="start" x="342" y="-422.5" font-family="FreeSans.ttf" font-size="10.00">gpuNUFFT::GpuNUFFTOperator</text>
<text text-anchor="middle" x="413" y="-411.5" font-family="FreeSans.ttf" font-size="10.00">::performGpuNUFFTAdj</text>
</a>
</g>
</g>
<!-- Node2&#45;&gt;Node4 -->
<g id="edge3" class="edge">
<title>Node2&#45;&gt;Node4</title>
<path fill="none" stroke="midnightblue" d="M278.76,-492.41C285.48,-489.59 292.06,-486.3 298,-482.5 317.6,-469.96 314.31,-456.88 334,-444.5 337.2,-442.49 340.57,-440.63 344.05,-438.9"/>
<polygon fill="midnightblue" stroke="midnightblue" points="345.78,-441.96 353.46,-434.66 342.9,-435.58 345.78,-441.96"/>
</g>
<!-- Node6 -->
<g id="node6" class="node">
<title>Node6</title>
<g id="a_node6"><a xlink:href="classgpuNUFFT_1_1GpuNUFFTOperator.html#a11b569c99d639766b533f26ac19a09e2" target="_top" xlink:title=" ">
<polygon fill="none" stroke="black" points="334,-644.5 334,-674.5 492,-674.5 492,-644.5 334,-644.5"/>
<text text-anchor="start" x="342" y="-662.5" font-family="FreeSans.ttf" font-size="10.00">gpuNUFFT::GpuNUFFTOperator</text>
<text text-anchor="middle" x="413" y="-651.5" font-family="FreeSans.ttf" font-size="10.00">::clean_memory</text>
</a>
</g>
</g>
<!-- Node5&#45;&gt;Node6 -->
<g id="edge5" class="edge">
<title>Node5&#45;&gt;Node6</title>
<path fill="none" stroke="midnightblue" d="M278.38,-622.54C300.1,-628.55 325.29,-635.52 347.9,-641.77"/>
<polygon fill="midnightblue" stroke="midnightblue" points="347.17,-645.2 357.74,-644.49 349.04,-638.45 347.17,-645.2"/>
</g>
<!-- Node7&#45;&gt;Node3 -->
<g id="edge10" class="edge">
<title>Node7&#45;&gt;Node3</title>
<path fill="none" stroke="midnightblue" d="M285.69,-434.51C290.25,-437.29 294.44,-440.59 298,-444.5 344.75,-495.82 285.07,-547.25 334,-596.5 340.57,-603.11 349.02,-607.56 357.93,-610.53"/>
<polygon fill="midnightblue" stroke="midnightblue" points="357.13,-613.94 367.7,-613.21 358.98,-607.19 357.13,-613.94"/>
</g>
<!-- Node7&#45;&gt;Node4 -->
<g id="edge16" class="edge">
<title>Node7&#45;&gt;Node4</title>
<path fill="none" stroke="midnightblue" d="M290.55,-419.5C301.3,-419.5 312.58,-419.5 323.76,-419.5"/>
<polygon fill="midnightblue" stroke="midnightblue" points="323.97,-423 333.97,-419.5 323.97,-416 323.97,-423"/>
</g>
<!-- Node8 -->
<g id="node8" class="node">
<title>Node8</title>
<g id="a_node8"><a xlink:href="cuda__utils_8hpp.html#a18413e749218eb97bc61578b50a57787" target="_top" xlink:title="CUDA memory allocation and memcpy call to copy data from host to device.">
<polygon fill="none" stroke="black" points="337,-530 337,-549 489,-549 489,-530 337,-530"/>
<text text-anchor="middle" x="413" y="-537" font-family="FreeSans.ttf" font-size="10.00">allocateAndCopyToDeviceMem</text>
</a>
</g>
</g>
<!-- Node7&#45;&gt;Node8 -->
<g id="edge7" class="edge">
<title>Node7&#45;&gt;Node8</title>
<path fill="none" stroke="midnightblue" d="M283.39,-434.57C288.66,-437.34 293.64,-440.62 298,-444.5 325.92,-469.34 305.02,-496.89 334,-520.5 336.08,-522.19 338.29,-523.74 340.59,-525.15"/>
<polygon fill="midnightblue" stroke="midnightblue" points="339.41,-528.48 349.9,-529.96 342.62,-522.26 339.41,-528.48"/>
</g>
<!-- Node9 -->
<g id="node9" class="node">
<title>Node9</title>
<g id="a_node9"><a xlink:href="cuda__utils_8hpp.html#a5fb34b1c5f091a495c7ac4237257d7b1" target="_top" xlink:title="Allocation of device memory of the given extent for the defined type.">
<polygon fill="none" stroke="black" points="362,-240 362,-259 464,-259 464,-240 362,-240"/>
<text text-anchor="middle" x="413" y="-247" font-family="FreeSans.ttf" font-size="10.00">allocateDeviceMem</text>
</a>
</g>
</g>
<!-- Node7&#45;&gt;Node9 -->
<g id="edge8" class="edge">
<title>Node7&#45;&gt;Node9</title>
<path fill="none" stroke="midnightblue" d="M230.65,-404.49C244.94,-374.05 281.57,-304.95 334,-269.5 339.6,-265.71 345.87,-262.64 352.36,-260.15"/>
<polygon fill="midnightblue" stroke="midnightblue" points="353.61,-263.42 361.96,-256.91 351.37,-256.79 353.61,-263.42"/>
</g>
<!-- Node10 -->
<g id="node10" class="node">
<title>Node10</title>
<g id="a_node10"><a xlink:href="cuda__utils_8hpp.html#a0e734eacdc00ba553d77aa057e02059b" target="_top" xlink:title="Copy CUDA memory from device to host asynchronously.">
<polygon fill="none" stroke="black" points="355,-492 355,-511 471,-511 471,-492 355,-492"/>
<text text-anchor="middle" x="413" y="-499" font-family="FreeSans.ttf" font-size="10.00">copyFromDeviceAsync</text>
</a>
</g>
</g>
<!-- Node7&#45;&gt;Node10 -->
<g id="edge9" class="edge">
<title>Node7&#45;&gt;Node10</title>
<path fill="none" stroke="midnightblue" d="M278.76,-434.59C285.48,-437.41 292.06,-440.7 298,-444.5 317.6,-457.04 313.88,-470.83 334,-482.5 337.73,-484.66 341.7,-486.58 345.79,-488.28"/>
<polygon fill="midnightblue" stroke="midnightblue" points="344.92,-491.69 355.52,-491.87 347.34,-485.13 344.92,-491.69"/>
</g>
<!-- Node11 -->
<g id="node11" class="node">
<title>Node11</title>
<g id="a_node11"><a xlink:href="cuda__utils_8hpp.html#a52e9a7f2a2d5bed73e0e9e7d367b1198" target="_top" xlink:title="CUDA memcpy call to copy data from host to device.">
<polygon fill="none" stroke="black" points="374,-454 374,-473 452,-473 452,-454 374,-454"/>
<text text-anchor="middle" x="413" y="-461" font-family="FreeSans.ttf" font-size="10.00">copyToDevice</text>
</a>
</g>
</g>
<!-- Node7&#45;&gt;Node11 -->
<g id="edge11" class="edge">
<title>Node7&#45;&gt;Node11</title>
<path fill="none" stroke="midnightblue" d="M288.17,-434.52C313.01,-440.33 340.94,-446.87 363.98,-452.26"/>
<polygon fill="midnightblue" stroke="midnightblue" points="363.33,-455.7 373.86,-454.57 364.92,-448.89 363.33,-455.7"/>
</g>
<!-- Node12 -->
<g id="node12" class="node">
<title>Node12</title>
<g id="a_node12"><a xlink:href="structgpuNUFFT_1_1Array.html#af426f56b5d7e05b6143acbdd51bac188" target="_top" xlink:title=" ">
<polygon fill="none" stroke="black" points="352.5,-328 352.5,-347 473.5,-347 473.5,-328 352.5,-328"/>
<text text-anchor="middle" x="413" y="-335" font-family="FreeSans.ttf" font-size="10.00">gpuNUFFT::Array::count</text>
</a>
</g>
</g>
<!-- Node7&#45;&gt;Node12 -->
<g id="edge12" class="edge">
<title>Node7&#45;&gt;Node12</title>
<path fill="none" stroke="midnightblue" d="M246.23,-404.27C267.81,-390.1 301.91,-369.3 334,-356.5 340.26,-354 346.94,-351.77 353.66,-349.79"/>
<polygon fill="midnightblue" stroke="midnightblue" points="354.78,-353.11 363.48,-347.07 352.91,-346.37 354.78,-353.11"/>
</g>
<!-- Node14 -->
<g id="node14" class="node">
<title>Node14</title>
<g id="a_node14"><a xlink:href="gpuNUFFT__kernels_8hpp.html#a7ea425f71e9b13006582e6280512f11c" target="_top" xlink:title="Perform data1 = data1 &#45; data2.">
<polygon fill="none" stroke="black" points="382,-366 382,-385 444,-385 444,-366 382,-366"/>
<text text-anchor="middle" x="413" y="-373" font-family="FreeSans.ttf" font-size="10.00">diffInPlace</text>
</a>
</g>
</g>
<!-- Node7&#45;&gt;Node14 -->
<g id="edge14" class="edge">
<title>Node7&#45;&gt;Node14</title>
<path fill="none" stroke="midnightblue" d="M288.17,-404.48C315.91,-397.99 347.51,-390.59 371.85,-384.9"/>
<polygon fill="midnightblue" stroke="midnightblue" points="372.86,-388.26 381.8,-382.57 371.26,-381.44 372.86,-388.26"/>
</g>
<!-- Node15 -->
<g id="node15" class="node">
<title>Node15</title>
<g id="a_node15"><a xlink:href="classgpuNUFFT_1_1GpuNUFFTOperator.html#a10d565529aa2c7778c15edb8a820b417" target="_top" xlink:title="Perform forward gridding operation on given kspaceData.">
<polygon fill="none" stroke="black" points="334,-278.5 334,-308.5 492,-308.5 492,-278.5 334,-278.5"/>
<text text-anchor="start" x="342" y="-296.5" font-family="FreeSans.ttf" font-size="10.00">gpuNUFFT::GpuNUFFTOperator</text>
<text text-anchor="middle" x="413" y="-285.5" font-family="FreeSans.ttf" font-size="10.00">::performForwardGpuNUFFT</text>
</a>
</g>
</g>
<!-- Node7&#45;&gt;Node15 -->
<g id="edge15" class="edge">
<title>Node7&#45;&gt;Node15</title>
<path fill="none" stroke="midnightblue" d="M236.66,-404.28C255.66,-382.36 293.65,-341.95 334,-318.5 337.67,-316.37 341.53,-314.4 345.51,-312.57"/>
<polygon fill="midnightblue" stroke="midnightblue" points="347.09,-315.7 354.94,-308.59 344.36,-309.26 347.09,-315.7"/>
</g>
<!-- Node16 -->
<g id="node16" class="node">
<title>Node16</title>
<g id="a_node16"><a xlink:href="python__utils_8hpp.html#aeb74d2cb99381f659a6890373021e833" target="_top" xlink:title=" ">
<polygon fill="none" stroke="black" points="368.5,-568 368.5,-587 457.5,-587 457.5,-568 368.5,-568"/>
<text text-anchor="middle" x="413" y="-575" font-family="FreeSans.ttf" font-size="10.00">readNumpyArray</text>
</a>
</g>
</g>
<!-- Node7&#45;&gt;Node16 -->
<g id="edge17" class="edge">
<title>Node7&#45;&gt;Node16</title>
<path fill="none" stroke="midnightblue" d="M285.03,-434.59C289.79,-437.35 294.2,-440.63 298,-444.5 335.19,-482.44 295.19,-522.21 334,-558.5 340.8,-564.86 349.37,-569.2 358.32,-572.13"/>
<polygon fill="midnightblue" stroke="midnightblue" points="357.54,-575.55 368.11,-574.79 359.37,-568.79 357.54,-575.55"/>
</g>
<!-- Node13 -->
<g id="node13" class="node">
<title>Node13</title>
<g id="a_node13"><a xlink:href="structgpuNUFFT_1_1Dimensions.html#a4c589934c5444910fbcd890d128229c9" target="_top" xlink:title="Compute total count of array length.">
<polygon fill="none" stroke="black" points="528,-259.5 528,-289.5 649,-289.5 649,-259.5 528,-259.5"/>
<text text-anchor="start" x="536" y="-277.5" font-family="FreeSans.ttf" font-size="10.00">gpuNUFFT::Dimensions</text>
<text text-anchor="middle" x="588.5" y="-266.5" font-family="FreeSans.ttf" font-size="10.00">::count</text>
</a>
</g>
</g>
<!-- Node12&#45;&gt;Node13 -->
<g id="edge13" class="edge">
<title>Node12&#45;&gt;Node13</title>
<path fill="none" stroke="midnightblue" d="M459.8,-327.91C470.48,-325.24 481.73,-322.08 492,-318.5 511.34,-311.76 532.08,-302.47 549.27,-294.17"/>
<polygon fill="midnightblue" stroke="midnightblue" points="550.99,-297.22 558.42,-289.68 547.9,-290.94 550.99,-297.22"/>
</g>
<!-- Node17&#45;&gt;Node4 -->
<g id="edge25" class="edge">
<title>Node17&#45;&gt;Node4</title>
<path fill="none" stroke="midnightblue" d="M228.87,-226.54C240.92,-261.38 275.45,-348.12 334,-394.5 336.3,-396.32 338.73,-398.01 341.27,-399.58"/>
<polygon fill="midnightblue" stroke="midnightblue" points="339.76,-402.74 350.21,-404.45 343.11,-396.59 339.76,-402.74"/>
</g>
<!-- Node17&#45;&gt;Node9 -->
<g id="edge20" class="edge">
<title>Node17&#45;&gt;Node9</title>
<path fill="none" stroke="midnightblue" d="M290.55,-224.95C311.51,-229.19 334.47,-233.83 354.73,-237.92"/>
<polygon fill="midnightblue" stroke="midnightblue" points="354.25,-241.4 364.75,-239.95 355.64,-234.54 354.25,-241.4"/>
</g>
<!-- Node17&#45;&gt;Node13 -->
<g id="edge22" class="edge">
<title>Node17&#45;&gt;Node13</title>
<path fill="none" stroke="midnightblue" d="M290.59,-209.63C345.47,-209.64 424.91,-213.28 492,-230.5 512.89,-235.86 534.83,-245.64 552.41,-254.62"/>
<polygon fill="midnightblue" stroke="midnightblue" points="551.21,-257.95 561.69,-259.5 554.47,-251.75 551.21,-257.95"/>
</g>
<!-- Node17&#45;&gt;Node15 -->
<g id="edge24" class="edge">
<title>Node17&#45;&gt;Node15</title>
<path fill="none" stroke="midnightblue" d="M250.08,-226.6C272,-238.9 304.41,-256.19 334,-268.5 339.47,-270.77 345.22,-272.97 351.02,-275.05"/>
<polygon fill="midnightblue" stroke="midnightblue" points="350.19,-278.47 360.78,-278.44 352.49,-271.86 350.19,-278.47"/>
</g>
<!-- Node18 -->
<g id="node18" class="node">
<title>Node18</title>
<g id="a_node18"><a xlink:href="python__utils_8hpp.html#a5732db3eeef010cc926583da8f91fcd6" target="_top" xlink:title=" ">
<polygon fill="none" stroke="black" points="351,-88 351,-107 475,-107 475,-88 351,-88"/>
<text text-anchor="middle" x="413" y="-95" font-family="FreeSans.ttf" font-size="10.00">allocate_pinned_memory</text>
</a>
</g>
</g>
<!-- Node17&#45;&gt;Node18 -->
<g id="edge19" class="edge">
<title>Node17&#45;&gt;Node18</title>
<path fill="none" stroke="midnightblue" d="M236.97,-196.5C256.07,-175.39 293.85,-137.18 334,-116.5 338.61,-114.13 343.52,-112.04 348.55,-110.21"/>
<polygon fill="midnightblue" stroke="midnightblue" points="349.92,-113.45 358.33,-107 347.74,-106.8 349.92,-113.45"/>
</g>
<!-- Node19 -->
<g id="node19" class="node">
<title>Node19</title>
<g id="a_node19"><a xlink:href="cuda__utils_8hpp.html#a1f04840b22a32448d0069e89cacd0950" target="_top" xlink:title="CUDA memcpy call to copy data from host to device.">
<polygon fill="none" stroke="black" points="360.5,-50 360.5,-69 465.5,-69 465.5,-50 360.5,-50"/>
<text text-anchor="middle" x="413" y="-57" font-family="FreeSans.ttf" font-size="10.00">copyToDeviceAsync</text>
</a>
</g>
</g>
<!-- Node17&#45;&gt;Node19 -->
<g id="edge21" class="edge">
<title>Node17&#45;&gt;Node19</title>
<path fill="none" stroke="midnightblue" d="M234.85,-196.06C257.33,-164.48 308.98,-94.16 334,-78.5 339.07,-75.33 344.63,-72.68 350.38,-70.48"/>
<polygon fill="midnightblue" stroke="midnightblue" points="351.82,-73.69 360.17,-67.17 349.58,-67.06 351.82,-73.69"/>
</g>
<!-- Node20 -->
<g id="node20" class="node">
<title>Node20</title>
<g id="a_node20"><a xlink:href="cuda__utils_8hpp.html#a6ffa821f98a8c2b391c12c01308ff1db" target="_top" xlink:title="Free of device memory.">
<polygon fill="none" stroke="black" points="370.5,-164 370.5,-183 455.5,-183 455.5,-164 370.5,-164"/>
<text text-anchor="middle" x="413" y="-171" font-family="FreeSans.ttf" font-size="10.00">freeDeviceMem</text>
</a>
</g>
</g>
<!-- Node17&#45;&gt;Node20 -->
<g id="edge23" class="edge">
<title>Node17&#45;&gt;Node20</title>
<path fill="none" stroke="midnightblue" d="M290.55,-198.05C313.53,-193.4 338.9,-188.27 360.49,-183.91"/>
<polygon fill="midnightblue" stroke="midnightblue" points="361.33,-187.31 370.44,-181.9 359.95,-180.45 361.33,-187.31"/>
</g>
<!-- Node21 -->
<g id="node21" class="node">
<title>Node21</title>
<g id="a_node21"><a xlink:href="gpuNUFFT__kernels_8hpp.html#aeef5d0634868e22a476b5cbb3f54f6a2" target="_top" xlink:title="Perform the Density compensation method.">
<polygon fill="none" stroke="black" points="343.5,-126 343.5,-145 482.5,-145 482.5,-126 343.5,-126"/>
<text text-anchor="middle" x="413" y="-133" font-family="FreeSans.ttf" font-size="10.00">performUpdateDensityComp</text>
</a>
</g>
</g>
<!-- Node17&#45;&gt;Node21 -->
<g id="edge26" class="edge">
<title>Node17&#45;&gt;Node21</title>
<path fill="none" stroke="midnightblue" d="M248.99,-196.35C270.78,-183.68 303.59,-165.9 334,-154.5 340.73,-151.98 347.91,-149.7 355.09,-147.67"/>
<polygon fill="midnightblue" stroke="midnightblue" points="356.09,-151.03 364.84,-145.06 354.28,-144.27 356.09,-151.03"/>
</g>
<!-- Node22&#45;&gt;Node3 -->
<g id="edge28" class="edge">
<title>Node22&#45;&gt;Node3</title>
<path fill="none" stroke="midnightblue" d="M282.39,-473.08C288.13,-475.77 293.48,-479.18 298,-483.5 336.09,-519.93 295.46,-560.55 334,-596.5 340.74,-602.78 349.19,-607.09 358.03,-610.02"/>
<polygon fill="midnightblue" stroke="midnightblue" points="357.14,-613.4 367.71,-612.69 359,-606.66 357.14,-613.4"/>
</g>
<!-- Node22&#45;&gt;Node15 -->
<g id="edge29" class="edge">
<title>Node22&#45;&gt;Node15</title>
<path fill="none" stroke="midnightblue" d="M284.67,-453.83C289.56,-451.36 294.1,-448.29 298,-444.5 339.73,-403.88 293.48,-360.33 334,-318.5 335.41,-317.04 336.9,-315.67 338.47,-314.38"/>
<polygon fill="midnightblue" stroke="midnightblue" points="340.62,-317.15 346.82,-308.57 336.62,-311.41 340.62,-317.15"/>
</g>
<!-- Node24 -->
<g id="node24" class="node">
<title>Node24</title>
<g id="a_node24"><a xlink:href="classgpuNUFFT_1_1GpuNUFFTOperator.html#adbc6f59fc4a4998a4ad5bb65c38b1f03" target="_top" xlink:title=" ">
<polygon fill="none" stroke="black" points="334,-0.5 334,-30.5 492,-30.5 492,-0.5 334,-0.5"/>
<text text-anchor="start" x="342" y="-18.5" font-family="FreeSans.ttf" font-size="10.00">gpuNUFFT::GpuNUFFTOperator</text>
<text text-anchor="middle" x="413" y="-7.5" font-family="FreeSans.ttf" font-size="10.00">::setSens</text>
</a>
</g>
</g>
<!-- Node23&#45;&gt;Node24 -->
<g id="edge31" class="edge">
<title>Node23&#45;&gt;Node24</title>
<path fill="none" stroke="midnightblue" d="M255.39,-74.42C277.19,-64.22 307.05,-50.79 334,-40.5 339.93,-38.24 346.16,-36 352.41,-33.86"/>
<polygon fill="midnightblue" stroke="midnightblue" points="353.84,-37.07 362.2,-30.57 351.61,-30.43 353.84,-37.07"/>
</g>
</g>
</svg>
