<?xml version="1.0" encoding="UTF-8" standalone="no"?>
<!DOCTYPE svg PUBLIC "-//W3C//DTD SVG 1.1//EN"
 "http://www.w3.org/Graphics/SVG/1.1/DTD/svg11.dtd">
<!-- Generated by graphviz version 2.49.3 (20211027.1534)
 -->
<!-- Title: PYBIND11_MODULE Pages: 1 -->
<svg width="657pt" height="721pt"
 viewBox="0.00 0.00 657.00 721.00" xmlns="http://www.w3.org/2000/svg" xmlns:xlink="http://www.w3.org/1999/xlink">
<g id="graph0" class="graph" transform="scale(1 1) rotate(0) translate(4 717)">
<title>PYBIND11_MODULE</title>
<!-- Node1 -->
<g id="node1" class="node">
<title>Node1</title>
<g id="a_node1"><a xlink:title=" ">
<polygon fill="#bfbfbf" stroke="black" points="0,-416 0,-435 112,-435 112,-416 0,-416"/>
<text text-anchor="middle" x="56" y="-423" font-family="FreeSans.ttf" font-size="10.00">PYBIND11_MODULE</text>
</a>
</g>
</g>
<!-- Node2 -->
<g id="node2" class="node">
<title>Node2</title>
<g id="a_node2"><a xlink:href="classGpuNUFFTPythonOperator.html#a9d5913daa75877d952160c6e126bbe07" target="_top" xlink:title="Adjoint operator (kspace to Image)">
<polygon fill="none" stroke="black" points="155.5,-498.5 155.5,-528.5 290.5,-528.5 290.5,-498.5 155.5,-498.5"/>
<text text-anchor="start" x="163.5" y="-516.5" font-family="FreeSans.ttf" font-size="10.00">GpuNUFFTPythonOperator</text>
<text text-anchor="middle" x="223" y="-505.5" font-family="FreeSans.ttf" font-size="10.00">::adj_op</text>
</a>
</g>
</g>
<!-- Node1&#45;&gt;Node2 -->
<g id="edge1" class="edge">
<title>Node1&#45;&gt;Node2</title>
<path fill="none" stroke="midnightblue" d="M68.68,-435.2C85.38,-448.68 117.44,-473.14 148,-488.5 152.32,-490.67 156.86,-492.72 161.5,-494.64"/>
<polygon fill="midnightblue" stroke="midnightblue" points="160.49,-498 171.07,-498.4 163.05,-491.49 160.49,-498"/>
</g>
<!-- Node5 -->
<g id="node5" class="node">
<title>Node5</title>
<g id="a_node5"><a xlink:href="classGpuNUFFTPythonOperator.html#aa955beb4fd74d6291151af08eab22f62" target="_top" xlink:title=" ">
<polygon fill="none" stroke="black" points="155.5,-614.5 155.5,-644.5 290.5,-644.5 290.5,-614.5 155.5,-614.5"/>
<text text-anchor="start" x="163.5" y="-632.5" font-family="FreeSans.ttf" font-size="10.00">GpuNUFFTPythonOperator</text>
<text text-anchor="middle" x="223" y="-621.5" font-family="FreeSans.ttf" font-size="10.00">::clean_memory</text>
</a>
</g>
</g>
<!-- Node1&#45;&gt;Node5 -->
<g id="edge4" class="edge">
<title>Node1&#45;&gt;Node5</title>
<path fill="none" stroke="midnightblue" d="M64.78,-435.19C80.48,-454.74 117.1,-500.32 148,-538.5 166.77,-561.7 188.3,-588.16 203.28,-606.54"/>
<polygon fill="midnightblue" stroke="midnightblue" points="200.64,-608.84 209.67,-614.38 206.07,-604.42 200.64,-608.84"/>
</g>
<!-- Node7 -->
<g id="node7" class="node">
<title>Node7</title>
<g id="a_node7"><a xlink:href="classGpuNUFFTPythonOperator.html#a564644dc7ea9b8306cd6296ea6f1fca6" target="_top" xlink:title=" ">
<polygon fill="none" stroke="black" points="155.5,-410.5 155.5,-440.5 290.5,-440.5 290.5,-410.5 155.5,-410.5"/>
<text text-anchor="start" x="163.5" y="-428.5" font-family="FreeSans.ttf" font-size="10.00">GpuNUFFTPythonOperator</text>
<text text-anchor="middle" x="223" y="-417.5" font-family="FreeSans.ttf" font-size="10.00">::data_consistency</text>
</a>
</g>
</g>
<!-- Node1&#45;&gt;Node7 -->
<g id="edge6" class="edge">
<title>Node1&#45;&gt;Node7</title>
<path fill="none" stroke="midnightblue" d="M112.4,-425.5C122.94,-425.5 134.14,-425.5 145.2,-425.5"/>
<polygon fill="midnightblue" stroke="midnightblue" points="145.3,-429 155.3,-425.5 145.3,-422 145.3,-429"/>
</g>
<!-- Node19 -->
<g id="node19" class="node">
<title>Node19</title>
<g id="a_node19"><a xlink:href="classGpuNUFFTPythonOperator.html#a47e427fafc08d705d834940e1229742f" target="_top" xlink:title="Estimate density Compensation array using gpu&#45;only functions.">
<polygon fill="none" stroke="black" points="155.5,-196.5 155.5,-226.5 290.5,-226.5 290.5,-196.5 155.5,-196.5"/>
<text text-anchor="start" x="163.5" y="-214.5" font-family="FreeSans.ttf" font-size="10.00">GpuNUFFTPythonOperator</text>
<text text-anchor="middle" x="223" y="-203.5" font-family="FreeSans.ttf" font-size="10.00">::estimate_density_comp</text>
</a>
</g>
</g>
<!-- Node1&#45;&gt;Node19 -->
<g id="edge20" class="edge">
<title>Node1&#45;&gt;Node19</title>
<path fill="none" stroke="midnightblue" d="M64.52,-415.75C89.21,-383.73 168.26,-281.19 204.07,-234.75"/>
<polygon fill="midnightblue" stroke="midnightblue" points="206.9,-236.82 210.23,-226.76 201.36,-232.54 206.9,-236.82"/>
</g>
<!-- Node23 -->
<g id="node23" class="node">
<title>Node23</title>
<g id="a_node23"><a xlink:href="classGpuNUFFTPythonOperator.html#a10bcd0d453fef0947c00cb4448398d3b" target="_top" xlink:title="Estimate the spectral radius using gpu&#45;only functions.">
<polygon fill="none" stroke="black" points="155.5,-322.5 155.5,-352.5 290.5,-352.5 290.5,-322.5 155.5,-322.5"/>
<text text-anchor="start" x="163.5" y="-340.5" font-family="FreeSans.ttf" font-size="10.00">GpuNUFFTPythonOperator</text>
<text text-anchor="middle" x="223" y="-329.5" font-family="FreeSans.ttf" font-size="10.00">::get_spectral_radius</text>
</a>
</g>
</g>
<!-- Node1&#45;&gt;Node23 -->
<g id="edge29" class="edge">
<title>Node1&#45;&gt;Node23</title>
<path fill="none" stroke="midnightblue" d="M74.97,-415.91C101.08,-401.99 150.12,-375.84 184.35,-357.58"/>
<polygon fill="midnightblue" stroke="midnightblue" points="186.41,-360.45 193.58,-352.66 183.11,-354.27 186.41,-360.45"/>
</g>
<!-- Node24 -->
<g id="node24" class="node">
<title>Node24</title>
<g id="a_node24"><a xlink:href="classGpuNUFFTPythonOperator.html#a790d6c1885f30c640064a26f618e64ea" target="_top" xlink:title="Forward operator (Image to kspace)">
<polygon fill="none" stroke="black" points="148,-460 148,-479 298,-479 298,-460 148,-460"/>
<text text-anchor="middle" x="223" y="-467" font-family="FreeSans.ttf" font-size="10.00">GpuNUFFTPythonOperator::op</text>
</a>
</g>
</g>
<!-- Node1&#45;&gt;Node24 -->
<g id="edge34" class="edge">
<title>Node1&#45;&gt;Node24</title>
<path fill="none" stroke="midnightblue" d="M91.1,-435.01C108.17,-439.74 129.16,-445.49 148,-450.5 156.57,-452.78 165.71,-455.16 174.54,-457.44"/>
<polygon fill="midnightblue" stroke="midnightblue" points="173.77,-460.85 184.32,-459.96 175.51,-454.08 173.77,-460.85"/>
</g>
<!-- Node25 -->
<g id="node25" class="node">
<title>Node25</title>
<g id="a_node25"><a xlink:href="classGpuNUFFTPythonOperator.html#aaf1b1ce70db899390b2236ee9c350433" target="_top" xlink:title=" ">
<polygon fill="none" stroke="black" points="155.5,-74.5 155.5,-104.5 290.5,-104.5 290.5,-74.5 155.5,-74.5"/>
<text text-anchor="start" x="163.5" y="-92.5" font-family="FreeSans.ttf" font-size="10.00">GpuNUFFTPythonOperator</text>
<text text-anchor="middle" x="223" y="-81.5" font-family="FreeSans.ttf" font-size="10.00">::set_smaps</text>
</a>
</g>
</g>
<!-- Node1&#45;&gt;Node25 -->
<g id="edge37" class="edge">
<title>Node1&#45;&gt;Node25</title>
<path fill="none" stroke="midnightblue" d="M59.56,-415.96C68.64,-382.84 101.37,-270.3 148,-186.5 163.16,-159.25 185.36,-131.27 201.48,-112.4"/>
<polygon fill="midnightblue" stroke="midnightblue" points="204.29,-114.5 208.2,-104.66 199,-109.92 204.29,-114.5"/>
</g>
<!-- Node3 -->
<g id="node3" class="node">
<title>Node3</title>
<g id="a_node3"><a xlink:href="python__utils_8hpp.html#a6fc45707d1f047d4232b16582576b2e6" target="_top" xlink:title=" ">
<polygon fill="none" stroke="black" points="368,-644 368,-663 458,-663 458,-644 368,-644"/>
<text text-anchor="middle" x="413" y="-651" font-family="FreeSans.ttf" font-size="10.00">copyNumpyArray</text>
</a>
</g>
</g>
<!-- Node2&#45;&gt;Node3 -->
<g id="edge2" class="edge">
<title>Node2&#45;&gt;Node3</title>
<path fill="none" stroke="midnightblue" d="M236.06,-528.88C259.36,-558.2 310.32,-620.44 334,-634.5 341.32,-638.85 349.59,-642.2 357.94,-644.79"/>
<polygon fill="midnightblue" stroke="midnightblue" points="357.15,-648.2 367.72,-647.49 359.01,-641.46 357.15,-648.2"/>
</g>
<!-- Node4 -->
<g id="node4" class="node">
<title>Node4</title>
<g id="a_node4"><a xlink:href="classgpuNUFFT_1_1GpuNUFFTOperator.html#a38a45507d840b8d3d97de7fc79b4fa8a" target="_top" xlink:title="Perform Adjoint gridding operation on given kspaceData.">
<polygon fill="none" stroke="black" points="334,-366.5 334,-396.5 492,-396.5 492,-366.5 334,-366.5"/>
<text text-anchor="start" x="342" y="-384.5" font-family="FreeSans.ttf" font-size="10.00">gpuNUFFT::GpuNUFFTOperator</text>
<text text-anchor="middle" x="413" y="-373.5" font-family="FreeSans.ttf" font-size="10.00">::performGpuNUFFTAdj</text>
</a>
</g>
</g>
<!-- Node2&#45;&gt;Node4 -->
<g id="edge3" class="edge">
<title>Node2&#45;&gt;Node4</title>
<path fill="none" stroke="midnightblue" d="M283.87,-498.36C288.99,-495.6 293.8,-492.35 298,-488.5 327.35,-461.62 304.44,-433.15 334,-406.5 335.76,-404.91 337.62,-403.43 339.56,-402.04"/>
<polygon fill="midnightblue" stroke="midnightblue" points="341.84,-404.74 348.52,-396.52 338.17,-398.78 341.84,-404.74"/>
</g>
<!-- Node6 -->
<g id="node6" class="node">
<title>Node6</title>
<g id="a_node6"><a xlink:href="classgpuNUFFT_1_1GpuNUFFTOperator.html#a11b569c99d639766b533f26ac19a09e2" target="_top" xlink:title=" ">
<polygon fill="none" stroke="black" points="334,-682.5 334,-712.5 492,-712.5 492,-682.5 334,-682.5"/>
<text text-anchor="start" x="342" y="-700.5" font-family="FreeSans.ttf" font-size="10.00">gpuNUFFT::GpuNUFFTOperator</text>
<text text-anchor="middle" x="413" y="-689.5" font-family="FreeSans.ttf" font-size="10.00">::clean_memory</text>
</a>
</g>
</g>
<!-- Node5&#45;&gt;Node6 -->
<g id="edge5" class="edge">
<title>Node5&#45;&gt;Node6</title>
<path fill="none" stroke="midnightblue" d="M260.7,-644.51C281.98,-653.05 309.37,-663.75 334,-672.5 340.39,-674.77 347.11,-677.06 353.81,-679.29"/>
<polygon fill="midnightblue" stroke="midnightblue" points="352.98,-682.7 363.58,-682.5 355.17,-676.05 352.98,-682.7"/>
</g>
<!-- Node7&#45;&gt;Node3 -->
<g id="edge10" class="edge">
<title>Node7&#45;&gt;Node3</title>
<path fill="none" stroke="midnightblue" d="M286.21,-440.58C290.59,-443.35 294.61,-446.62 298,-450.5 352.89,-513.2 276.44,-574.25 334,-634.5 340.5,-641.31 349.01,-645.85 358,-648.84"/>
<polygon fill="midnightblue" stroke="midnightblue" points="357.32,-652.28 367.89,-651.51 359.15,-645.52 357.32,-652.28"/>
</g>
<!-- Node7&#45;&gt;Node4 -->
<g id="edge18" class="edge">
<title>Node7&#45;&gt;Node4</title>
<path fill="none" stroke="midnightblue" d="M288.17,-410.48C304.12,-406.75 321.34,-402.72 337.72,-398.88"/>
<polygon fill="midnightblue" stroke="midnightblue" points="338.86,-402.21 347.8,-396.53 337.26,-395.4 338.86,-402.21"/>
</g>
<!-- Node8 -->
<g id="node8" class="node">
<title>Node8</title>
<g id="a_node8"><a xlink:href="cuda__utils_8hpp.html#a18413e749218eb97bc61578b50a57787" target="_top" xlink:title="CUDA memory allocation and memcpy call to copy data from host to device.">
<polygon fill="none" stroke="black" points="337,-606 337,-625 489,-625 489,-606 337,-606"/>
<text text-anchor="middle" x="413" y="-613" font-family="FreeSans.ttf" font-size="10.00">allocateAndCopyToDeviceMem</text>
</a>
</g>
</g>
<!-- Node7&#45;&gt;Node8 -->
<g id="edge7" class="edge">
<title>Node7&#45;&gt;Node8</title>
<path fill="none" stroke="midnightblue" d="M285.66,-440.54C290.21,-443.32 294.42,-446.61 298,-450.5 343.23,-499.7 286.68,-549.31 334,-596.5 335.44,-597.94 336.98,-599.28 338.58,-600.52"/>
<polygon fill="midnightblue" stroke="midnightblue" points="336.86,-603.57 347.18,-605.96 340.6,-597.65 336.86,-603.57"/>
</g>
<!-- Node9 -->
<g id="node9" class="node">
<title>Node9</title>
<g id="a_node9"><a xlink:href="cuda__utils_8hpp.html#a5fb34b1c5f091a495c7ac4237257d7b1" target="_top" xlink:title="Allocation of device memory of the given extent for the defined type.">
<polygon fill="none" stroke="black" points="362,-240 362,-259 464,-259 464,-240 362,-240"/>
<text text-anchor="middle" x="413" y="-247" font-family="FreeSans.ttf" font-size="10.00">allocateDeviceMem</text>
</a>
</g>
</g>
<!-- Node7&#45;&gt;Node9 -->
<g id="edge8" class="edge">
<title>Node7&#45;&gt;Node9</title>
<path fill="none" stroke="midnightblue" d="M247.41,-410.3C263.51,-398.82 284.36,-381.78 298,-362.5 323.83,-325.98 300.43,-298.07 334,-268.5 339.27,-263.86 345.49,-260.31 352.08,-257.6"/>
<polygon fill="midnightblue" stroke="midnightblue" points="353.61,-260.77 361.93,-254.2 351.33,-254.15 353.61,-260.77"/>
</g>
<!-- Node10 -->
<g id="node10" class="node">
<title>Node10</title>
<g id="a_node10"><a xlink:href="cuda__utils_8hpp.html#a0e734eacdc00ba553d77aa057e02059b" target="_top" xlink:title="Copy CUDA memory from device to host asynchronously.">
<polygon fill="none" stroke="black" points="355,-568 355,-587 471,-587 471,-568 355,-568"/>
<text text-anchor="middle" x="413" y="-575" font-family="FreeSans.ttf" font-size="10.00">copyFromDeviceAsync</text>
</a>
</g>
</g>
<!-- Node7&#45;&gt;Node10 -->
<g id="edge9" class="edge">
<title>Node7&#45;&gt;Node10</title>
<path fill="none" stroke="midnightblue" d="M284.97,-440.65C289.73,-443.4 294.17,-446.66 298,-450.5 333.7,-486.35 296.77,-524.23 334,-558.5 337.44,-561.67 341.31,-564.33 345.45,-566.56"/>
<polygon fill="midnightblue" stroke="midnightblue" points="344.32,-569.89 354.87,-570.81 347.19,-563.51 344.32,-569.89"/>
</g>
<!-- Node11 -->
<g id="node11" class="node">
<title>Node11</title>
<g id="a_node11"><a xlink:href="cuda__utils_8hpp.html#a52e9a7f2a2d5bed73e0e9e7d367b1198" target="_top" xlink:title="CUDA memcpy call to copy data from host to device.">
<polygon fill="none" stroke="black" points="374,-530 374,-549 452,-549 452,-530 374,-530"/>
<text text-anchor="middle" x="413" y="-537" font-family="FreeSans.ttf" font-size="10.00">copyToDevice</text>
</a>
</g>
</g>
<!-- Node7&#45;&gt;Node11 -->
<g id="edge11" class="edge">
<title>Node7&#45;&gt;Node11</title>
<path fill="none" stroke="midnightblue" d="M282.89,-440.53C288.32,-443.31 293.48,-446.61 298,-450.5 324.51,-473.32 306.52,-498.85 334,-520.5 342.63,-527.3 353.35,-531.72 364.05,-534.57"/>
<polygon fill="midnightblue" stroke="midnightblue" points="363.28,-537.98 373.8,-536.77 364.82,-531.16 363.28,-537.98"/>
</g>
<!-- Node12 -->
<g id="node12" class="node">
<title>Node12</title>
<g id="a_node12"><a xlink:href="structgpuNUFFT_1_1Array.html#af426f56b5d7e05b6143acbdd51bac188" target="_top" xlink:title=" ">
<polygon fill="none" stroke="black" points="352.5,-492 352.5,-511 473.5,-511 473.5,-492 352.5,-492"/>
<text text-anchor="middle" x="413" y="-499" font-family="FreeSans.ttf" font-size="10.00">gpuNUFFT::Array::count</text>
</a>
</g>
</g>
<!-- Node7&#45;&gt;Node12 -->
<g id="edge12" class="edge">
<title>Node7&#45;&gt;Node12</title>
<path fill="none" stroke="midnightblue" d="M277.29,-440.61C284.46,-443.46 291.55,-446.75 298,-450.5 316.51,-461.25 315.04,-472.56 334,-482.5 338.51,-484.87 343.33,-486.94 348.27,-488.77"/>
<polygon fill="midnightblue" stroke="midnightblue" points="347.28,-492.13 357.87,-491.97 349.49,-485.49 347.28,-492.13"/>
</g>
<!-- Node14 -->
<g id="node14" class="node">
<title>Node14</title>
<g id="a_node14"><a xlink:href="gpuNUFFT__kernels_8hpp.html#a7ea425f71e9b13006582e6280512f11c" target="_top" xlink:title="Perform data1 = data1 &#45; data2.">
<polygon fill="none" stroke="black" points="382,-454 382,-473 444,-473 444,-454 382,-454"/>
<text text-anchor="middle" x="413" y="-461" font-family="FreeSans.ttf" font-size="10.00">diffInPlace</text>
</a>
</g>
</g>
<!-- Node7&#45;&gt;Node14 -->
<g id="edge14" class="edge">
<title>Node7&#45;&gt;Node14</title>
<path fill="none" stroke="midnightblue" d="M290.55,-438.95C317.69,-444.44 348.18,-450.6 371.82,-455.38"/>
<polygon fill="midnightblue" stroke="midnightblue" points="371.34,-458.85 381.83,-457.4 372.73,-451.99 371.34,-458.85"/>
</g>
<!-- Node15 -->
<g id="node15" class="node">
<title>Node15</title>
<g id="a_node15"><a xlink:href="cuda__utils_8hpp.html#aaa83ead29bc50e65ae4298d9206a760b" target="_top" xlink:title="Free variable list of device pointers. Use NULL as stopping element.">
<polygon fill="none" stroke="black" points="353.5,-328 353.5,-347 472.5,-347 472.5,-328 353.5,-328"/>
<text text-anchor="middle" x="413" y="-335" font-family="FreeSans.ttf" font-size="10.00">freeTotalDeviceMemory</text>
</a>
</g>
</g>
<!-- Node7&#45;&gt;Node15 -->
<g id="edge15" class="edge">
<title>Node7&#45;&gt;Node15</title>
<path fill="none" stroke="midnightblue" d="M244.06,-410.49C265.37,-395.19 300.53,-371.74 334,-357.5 340.72,-354.64 347.95,-352.11 355.19,-349.91"/>
<polygon fill="midnightblue" stroke="midnightblue" points="356.39,-353.2 365.04,-347.09 354.46,-346.47 356.39,-353.2"/>
</g>
<!-- Node17 -->
<g id="node17" class="node">
<title>Node17</title>
<g id="a_node17"><a xlink:href="classgpuNUFFT_1_1GpuNUFFTOperator.html#a10d565529aa2c7778c15edb8a820b417" target="_top" xlink:title="Perform forward gridding operation on given kspaceData.">
<polygon fill="none" stroke="black" points="334,-278.5 334,-308.5 492,-308.5 492,-278.5 334,-278.5"/>
<text text-anchor="start" x="342" y="-296.5" font-family="FreeSans.ttf" font-size="10.00">gpuNUFFT::GpuNUFFTOperator</text>
<text text-anchor="middle" x="413" y="-285.5" font-family="FreeSans.ttf" font-size="10.00">::performForwardGpuNUFFT</text>
</a>
</g>
</g>
<!-- Node7&#45;&gt;Node17 -->
<g id="edge17" class="edge">
<title>Node7&#45;&gt;Node17</title>
<path fill="none" stroke="midnightblue" d="M243.69,-410.34C259.11,-398.11 280.75,-380.09 298,-362.5 315.69,-344.46 313.11,-332.72 334,-318.5 336.91,-316.52 339.99,-314.69 343.17,-313"/>
<polygon fill="midnightblue" stroke="midnightblue" points="344.87,-316.06 352.37,-308.59 341.84,-309.75 344.87,-316.06"/>
</g>
<!-- Node18 -->
<g id="node18" class="node">
<title>Node18</title>
<g id="a_node18"><a xlink:href="python__utils_8hpp.html#aeb74d2cb99381f659a6890373021e833" target="_top" xlink:title=" ">
<polygon fill="none" stroke="black" points="368.5,-416 368.5,-435 457.5,-435 457.5,-416 368.5,-416"/>
<text text-anchor="middle" x="413" y="-423" font-family="FreeSans.ttf" font-size="10.00">readNumpyArray</text>
</a>
</g>
</g>
<!-- Node7&#45;&gt;Node18 -->
<g id="edge19" class="edge">
<title>Node7&#45;&gt;Node18</title>
<path fill="none" stroke="midnightblue" d="M290.55,-425.5C312.79,-425.5 337.27,-425.5 358.4,-425.5"/>
<polygon fill="midnightblue" stroke="midnightblue" points="358.47,-429 368.47,-425.5 358.47,-422 358.47,-429"/>
</g>
<!-- Node13 -->
<g id="node13" class="node">
<title>Node13</title>
<g id="a_node13"><a xlink:href="structgpuNUFFT_1_1Dimensions.html#a4c589934c5444910fbcd890d128229c9" target="_top" xlink:title="Compute total count of array length.">
<polygon fill="none" stroke="black" points="528,-289.5 528,-319.5 649,-319.5 649,-289.5 528,-289.5"/>
<text text-anchor="start" x="536" y="-307.5" font-family="FreeSans.ttf" font-size="10.00">gpuNUFFT::Dimensions</text>
<text text-anchor="middle" x="588.5" y="-296.5" font-family="FreeSans.ttf" font-size="10.00">::count</text>
</a>
</g>
</g>
<!-- Node12&#45;&gt;Node13 -->
<g id="edge13" class="edge">
<title>Node12&#45;&gt;Node13</title>
<path fill="none" stroke="midnightblue" d="M473.53,-492.68C480.16,-490.09 486.49,-486.77 492,-482.5 542.95,-443.06 569.96,-368.55 581.15,-329.62"/>
<polygon fill="midnightblue" stroke="midnightblue" points="584.61,-330.21 583.89,-319.64 577.86,-328.36 584.61,-330.21"/>
</g>
<!-- Node16 -->
<g id="node16" class="node">
<title>Node16</title>
<g id="a_node16"><a xlink:href="cuda__utils_8hpp.html#a6ffa821f98a8c2b391c12c01308ff1db" target="_top" xlink:title="Free of device memory.">
<polygon fill="none" stroke="black" points="546,-235 546,-254 631,-254 631,-235 546,-235"/>
<text text-anchor="middle" x="588.5" y="-242" font-family="FreeSans.ttf" font-size="10.00">freeDeviceMem</text>
</a>
</g>
</g>
<!-- Node15&#45;&gt;Node16 -->
<g id="edge16" class="edge">
<title>Node15&#45;&gt;Node16</title>
<path fill="none" stroke="midnightblue" d="M470.53,-327.95C478.03,-325.48 485.39,-322.39 492,-318.5 512.33,-306.53 509.64,-294.31 528,-279.5 537.5,-271.84 548.86,-264.74 559.09,-258.96"/>
<polygon fill="midnightblue" stroke="midnightblue" points="560.99,-261.91 568.09,-254.05 557.63,-255.77 560.99,-261.91"/>
</g>
<!-- Node19&#45;&gt;Node4 -->
<g id="edge27" class="edge">
<title>Node19&#45;&gt;Node4</title>
<path fill="none" stroke="midnightblue" d="M234.69,-226.64C259.72,-261.91 320.94,-347.26 334,-356.5 336.73,-358.43 339.61,-360.22 342.6,-361.87"/>
<polygon fill="midnightblue" stroke="midnightblue" points="341.31,-365.14 351.83,-366.44 344.42,-358.87 341.31,-365.14"/>
</g>
<!-- Node19&#45;&gt;Node9 -->
<g id="edge22" class="edge">
<title>Node19&#45;&gt;Node9</title>
<path fill="none" stroke="midnightblue" d="M290.55,-224.95C311.51,-229.19 334.47,-233.83 354.73,-237.92"/>
<polygon fill="midnightblue" stroke="midnightblue" points="354.25,-241.4 364.75,-239.95 355.64,-234.54 354.25,-241.4"/>
</g>
<!-- Node19&#45;&gt;Node13 -->
<g id="edge24" class="edge">
<title>Node19&#45;&gt;Node13</title>
<path fill="none" stroke="midnightblue" d="M290.74,-204.35C346.77,-201.07 427.73,-202.84 492,-230.5 511.94,-239.08 511.02,-249.98 528,-263.5 536.7,-270.43 546.51,-277.48 555.62,-283.73"/>
<polygon fill="midnightblue" stroke="midnightblue" points="553.83,-286.75 564.08,-289.45 557.76,-280.95 553.83,-286.75"/>
</g>
<!-- Node19&#45;&gt;Node16 -->
<g id="edge25" class="edge">
<title>Node19&#45;&gt;Node16</title>
<path fill="none" stroke="midnightblue" d="M245.5,-196.37C266.82,-182.37 300.98,-162.55 334,-154.5 402.23,-137.87 426.73,-128.59 492,-154.5 528.48,-168.98 559.11,-204.73 575.24,-226.56"/>
<polygon fill="midnightblue" stroke="midnightblue" points="572.4,-228.6 581.06,-234.7 578.09,-224.53 572.4,-228.6"/>
</g>
<!-- Node19&#45;&gt;Node17 -->
<g id="edge26" class="edge">
<title>Node19&#45;&gt;Node17</title>
<path fill="none" stroke="midnightblue" d="M250.08,-226.6C272,-238.9 304.41,-256.19 334,-268.5 339.47,-270.77 345.22,-272.97 351.02,-275.05"/>
<polygon fill="midnightblue" stroke="midnightblue" points="350.19,-278.47 360.78,-278.44 352.49,-271.86 350.19,-278.47"/>
</g>
<!-- Node20 -->
<g id="node20" class="node">
<title>Node20</title>
<g id="a_node20"><a xlink:href="python__utils_8hpp.html#a5732db3eeef010cc926583da8f91fcd6" target="_top" xlink:title=" ">
<polygon fill="none" stroke="black" points="351,-88 351,-107 475,-107 475,-88 351,-88"/>
<text text-anchor="middle" x="413" y="-95" font-family="FreeSans.ttf" font-size="10.00">allocate_pinned_memory</text>
</a>
</g>
</g>
<!-- Node19&#45;&gt;Node20 -->
<g id="edge21" class="edge">
<title>Node19&#45;&gt;Node20</title>
<path fill="none" stroke="midnightblue" d="M238.64,-196.3C258.51,-176.47 295.94,-141.9 334,-121.5 342.25,-117.08 351.44,-113.34 360.54,-110.22"/>
<polygon fill="midnightblue" stroke="midnightblue" points="361.86,-113.47 370.32,-107.09 359.73,-106.81 361.86,-113.47"/>
</g>
<!-- Node21 -->
<g id="node21" class="node">
<title>Node21</title>
<g id="a_node21"><a xlink:href="cuda__utils_8hpp.html#a1f04840b22a32448d0069e89cacd0950" target="_top" xlink:title="CUDA memcpy call to copy data from host to device.">
<polygon fill="none" stroke="black" points="360.5,-50 360.5,-69 465.5,-69 465.5,-50 360.5,-50"/>
<text text-anchor="middle" x="413" y="-57" font-family="FreeSans.ttf" font-size="10.00">copyToDeviceAsync</text>
</a>
</g>
</g>
<!-- Node19&#45;&gt;Node21 -->
<g id="edge23" class="edge">
<title>Node19&#45;&gt;Node21</title>
<path fill="none" stroke="midnightblue" d="M234.85,-196.06C257.33,-164.48 308.98,-94.16 334,-78.5 339.07,-75.33 344.63,-72.68 350.38,-70.48"/>
<polygon fill="midnightblue" stroke="midnightblue" points="351.82,-73.69 360.17,-67.17 349.58,-67.06 351.82,-73.69"/>
</g>
<!-- Node22 -->
<g id="node22" class="node">
<title>Node22</title>
<g id="a_node22"><a xlink:href="gpuNUFFT__kernels_8hpp.html#aeef5d0634868e22a476b5cbb3f54f6a2" target="_top" xlink:title="Perform the Density compensation method.">
<polygon fill="none" stroke="black" points="343.5,-164 343.5,-183 482.5,-183 482.5,-164 343.5,-164"/>
<text text-anchor="middle" x="413" y="-171" font-family="FreeSans.ttf" font-size="10.00">performUpdateDensityComp</text>
</a>
</g>
</g>
<!-- Node19&#45;&gt;Node22 -->
<g id="edge28" class="edge">
<title>Node19&#45;&gt;Node22</title>
<path fill="none" stroke="midnightblue" d="M290.55,-198.05C311.51,-193.81 334.47,-189.17 354.73,-185.08"/>
<polygon fill="midnightblue" stroke="midnightblue" points="355.64,-188.46 364.75,-183.05 354.25,-181.6 355.64,-188.46"/>
</g>
<!-- Node23&#45;&gt;Node4 -->
<g id="edge33" class="edge">
<title>Node23&#45;&gt;Node4</title>
<path fill="none" stroke="midnightblue" d="M288.17,-352.52C304.12,-356.25 321.34,-360.28 337.72,-364.12"/>
<polygon fill="midnightblue" stroke="midnightblue" points="337.26,-367.6 347.8,-366.47 338.86,-360.79 337.26,-367.6"/>
</g>
<!-- Node23&#45;&gt;Node9 -->
<g id="edge30" class="edge">
<title>Node23&#45;&gt;Node9</title>
<path fill="none" stroke="midnightblue" d="M243.6,-322.46C264.81,-306.86 300.15,-282.8 334,-268.5 339.9,-266.01 346.19,-263.8 352.55,-261.85"/>
<polygon fill="midnightblue" stroke="midnightblue" points="353.88,-265.11 362.54,-259 351.96,-258.38 353.88,-265.11"/>
</g>
<!-- Node23&#45;&gt;Node15 -->
<g id="edge31" class="edge">
<title>Node23&#45;&gt;Node15</title>
<path fill="none" stroke="midnightblue" d="M290.55,-337.5C307.52,-337.5 325.79,-337.5 342.89,-337.5"/>
<polygon fill="midnightblue" stroke="midnightblue" points="343.36,-341 353.36,-337.5 343.36,-334 343.36,-341"/>
</g>
<!-- Node23&#45;&gt;Node17 -->
<g id="edge32" class="edge">
<title>Node23&#45;&gt;Node17</title>
<path fill="none" stroke="midnightblue" d="M288.17,-322.48C304.12,-318.75 321.34,-314.72 337.72,-310.88"/>
<polygon fill="midnightblue" stroke="midnightblue" points="338.86,-314.21 347.8,-308.53 337.26,-307.4 338.86,-314.21"/>
</g>
<!-- Node24&#45;&gt;Node3 -->
<g id="edge35" class="edge">
<title>Node24&#45;&gt;Node3</title>
<path fill="none" stroke="midnightblue" d="M283.4,-479.14C288.81,-481.83 293.81,-485.22 298,-489.5 344.47,-536.93 286.94,-587.65 334,-634.5 340.6,-641.07 349.07,-645.51 357.98,-648.47"/>
<polygon fill="midnightblue" stroke="midnightblue" points="357.19,-651.89 367.76,-651.15 359.04,-645.13 357.19,-651.89"/>
</g>
<!-- Node24&#45;&gt;Node17 -->
<g id="edge36" class="edge">
<title>Node24&#45;&gt;Node17</title>
<path fill="none" stroke="midnightblue" d="M284.72,-459.88C289.59,-457.4 294.13,-454.32 298,-450.5 341.32,-407.82 291.96,-362.43 334,-318.5 335.4,-317.04 336.89,-315.66 338.45,-314.36"/>
<polygon fill="midnightblue" stroke="midnightblue" points="340.6,-317.13 346.77,-308.52 336.58,-311.4 340.6,-317.13"/>
</g>
<!-- Node26 -->
<g id="node26" class="node">
<title>Node26</title>
<g id="a_node26"><a xlink:href="classgpuNUFFT_1_1GpuNUFFTOperator.html#adbc6f59fc4a4998a4ad5bb65c38b1f03" target="_top" xlink:title=" ">
<polygon fill="none" stroke="black" points="334,-0.5 334,-30.5 492,-30.5 492,-0.5 334,-0.5"/>
<text text-anchor="start" x="342" y="-18.5" font-family="FreeSans.ttf" font-size="10.00">gpuNUFFT::GpuNUFFTOperator</text>
<text text-anchor="middle" x="413" y="-7.5" font-family="FreeSans.ttf" font-size="10.00">::setSens</text>
</a>
</g>
</g>
<!-- Node25&#45;&gt;Node26 -->
<g id="edge38" class="edge">
<title>Node25&#45;&gt;Node26</title>
<path fill="none" stroke="midnightblue" d="M255.39,-74.42C277.19,-64.22 307.05,-50.79 334,-40.5 339.93,-38.24 346.16,-36 352.41,-33.86"/>
<polygon fill="midnightblue" stroke="midnightblue" points="353.84,-37.07 362.2,-30.57 351.61,-30.43 353.84,-37.07"/>
</g>
</g>
</svg>
