<?xml version="1.0" encoding="UTF-8" standalone="no"?>
<!DOCTYPE svg PUBLIC "-//W3C//DTD SVG 1.1//EN"
 "http://www.w3.org/Graphics/SVG/1.1/DTD/svg11.dtd">
<!-- Generated by graphviz version 2.49.3 (20211027.1534)
 -->
<!-- Title: PYBIND11_MODULE Pages: 1 -->
<svg width="845pt" height="277pt"
 viewBox="0.00 0.00 845.00 276.50" xmlns="http://www.w3.org/2000/svg" xmlns:xlink="http://www.w3.org/1999/xlink">
<g id="graph0" class="graph" transform="scale(1 1) rotate(0) translate(4 272.5)">
<title>PYBIND11_MODULE</title>
<!-- Node1 -->
<g id="node1" class="node">
<title>Node1</title>
<g id="a_node1"><a xlink:title=" ">
<polygon fill="#bfbfbf" stroke="black" points="0,-106.5 0,-125.5 112,-125.5 112,-106.5 0,-106.5"/>
<text text-anchor="middle" x="56" y="-113.5" font-family="FreeSans.ttf" font-size="10.00">PYBIND11_MODULE</text>
</a>
</g>
</g>
<!-- Node2 -->
<g id="node2" class="node">
<title>Node2</title>
<g id="a_node2"><a xlink:href="classGpuNUFFTPythonOperator.html#a9d5913daa75877d952160c6e126bbe07" target="_top" xlink:title=" ">
<polygon fill="none" stroke="black" points="155.5,-145 155.5,-175 290.5,-175 290.5,-145 155.5,-145"/>
<text text-anchor="start" x="163.5" y="-163" font-family="FreeSans.ttf" font-size="10.00">GpuNUFFTPythonOperator</text>
<text text-anchor="middle" x="223" y="-152" font-family="FreeSans.ttf" font-size="10.00">::adj_op</text>
</a>
</g>
</g>
<!-- Node1&#45;&gt;Node2 -->
<g id="edge1" class="edge">
<title>Node1&#45;&gt;Node2</title>
<path fill="none" stroke="midnightblue" d="M92.8,-125.55C111.21,-130.46 134.25,-136.6 155.75,-142.33"/>
<polygon fill="midnightblue" stroke="midnightblue" points="154.94,-145.74 165.5,-144.93 156.74,-138.98 154.94,-145.74"/>
</g>
<!-- Node5 -->
<g id="node5" class="node">
<title>Node5</title>
<g id="a_node5"><a xlink:href="classGpuNUFFTPythonOperator.html#aa955beb4fd74d6291151af08eab22f62" target="_top" xlink:title=" ">
<polygon fill="none" stroke="black" points="155.5,-216 155.5,-246 290.5,-246 290.5,-216 155.5,-216"/>
<text text-anchor="start" x="163.5" y="-234" font-family="FreeSans.ttf" font-size="10.00">GpuNUFFTPythonOperator</text>
<text text-anchor="middle" x="223" y="-223" font-family="FreeSans.ttf" font-size="10.00">::clean_memory</text>
</a>
</g>
</g>
<!-- Node1&#45;&gt;Node5 -->
<g id="edge4" class="edge">
<title>Node1&#45;&gt;Node5</title>
<path fill="none" stroke="midnightblue" d="M68.81,-125.51C85.92,-139.17 118.76,-164.89 148,-185 160.64,-193.69 174.87,-202.71 187.46,-210.44"/>
<polygon fill="midnightblue" stroke="midnightblue" points="185.92,-213.6 196.28,-215.82 189.56,-207.63 185.92,-213.6"/>
</g>
<!-- Node7 -->
<g id="node7" class="node">
<title>Node7</title>
<g id="a_node7"><a xlink:href="classGpuNUFFTPythonOperator.html#a47e427fafc08d705d834940e1229742f" target="_top" xlink:title=" ">
<polygon fill="none" stroke="black" points="155.5,-56 155.5,-86 290.5,-86 290.5,-56 155.5,-56"/>
<text text-anchor="start" x="163.5" y="-74" font-family="FreeSans.ttf" font-size="10.00">GpuNUFFTPythonOperator</text>
<text text-anchor="middle" x="223" y="-63" font-family="FreeSans.ttf" font-size="10.00">::estimate_density_comp</text>
</a>
</g>
</g>
<!-- Node1&#45;&gt;Node7 -->
<g id="edge6" class="edge">
<title>Node1&#45;&gt;Node7</title>
<path fill="none" stroke="midnightblue" d="M91.99,-106.46C110.95,-101.29 134.97,-94.73 157.2,-88.67"/>
<polygon fill="midnightblue" stroke="midnightblue" points="158.2,-92.03 166.93,-86.02 156.36,-85.27 158.2,-92.03"/>
</g>
<!-- Node14 -->
<g id="node14" class="node">
<title>Node14</title>
<g id="a_node14"><a xlink:href="classGpuNUFFTPythonOperator.html#a790d6c1885f30c640064a26f618e64ea" target="_top" xlink:title=" ">
<polygon fill="none" stroke="black" points="148,-106.5 148,-125.5 298,-125.5 298,-106.5 148,-106.5"/>
<text text-anchor="middle" x="223" y="-113.5" font-family="FreeSans.ttf" font-size="10.00">GpuNUFFTPythonOperator::op</text>
</a>
</g>
</g>
<!-- Node1&#45;&gt;Node14 -->
<g id="edge13" class="edge">
<title>Node1&#45;&gt;Node14</title>
<path fill="none" stroke="midnightblue" d="M112.4,-116C120.61,-116 129.22,-116 137.86,-116"/>
<polygon fill="midnightblue" stroke="midnightblue" points="137.99,-119.5 147.99,-116 137.99,-112.5 137.99,-119.5"/>
</g>
<!-- Node16 -->
<g id="node16" class="node">
<title>Node16</title>
<g id="a_node16"><a xlink:href="classGpuNUFFTPythonOperator.html#aaf1b1ce70db899390b2236ee9c350433" target="_top" xlink:title=" ">
<polygon fill="none" stroke="black" points="155.5,-5 155.5,-35 290.5,-35 290.5,-5 155.5,-5"/>
<text text-anchor="start" x="163.5" y="-23" font-family="FreeSans.ttf" font-size="10.00">GpuNUFFTPythonOperator</text>
<text text-anchor="middle" x="223" y="-12" font-family="FreeSans.ttf" font-size="10.00">::set_smaps</text>
</a>
</g>
</g>
<!-- Node1&#45;&gt;Node16 -->
<g id="edge16" class="edge">
<title>Node1&#45;&gt;Node16</title>
<path fill="none" stroke="midnightblue" d="M67.16,-106.41C83.21,-91.68 115.93,-63.38 148,-46 152.6,-43.51 157.48,-41.18 162.46,-39.02"/>
<polygon fill="midnightblue" stroke="midnightblue" points="164.17,-42.1 172.1,-35.08 161.52,-35.62 164.17,-42.1"/>
</g>
<!-- Node3 -->
<g id="node3" class="node">
<title>Node3</title>
<g id="a_node3"><a xlink:href="python__utils_8hpp.html#a6fc45707d1f047d4232b16582576b2e6" target="_top" xlink:title=" ">
<polygon fill="none" stroke="black" points="368,-150.5 368,-169.5 458,-169.5 458,-150.5 368,-150.5"/>
<text text-anchor="middle" x="413" y="-157.5" font-family="FreeSans.ttf" font-size="10.00">copyNumpyArray</text>
</a>
</g>
</g>
<!-- Node2&#45;&gt;Node3 -->
<g id="edge2" class="edge">
<title>Node2&#45;&gt;Node3</title>
<path fill="none" stroke="midnightblue" d="M290.55,-160C312.6,-160 336.87,-160 357.88,-160"/>
<polygon fill="midnightblue" stroke="midnightblue" points="357.91,-163.5 367.91,-160 357.91,-156.5 357.91,-163.5"/>
</g>
<!-- Node4 -->
<g id="node4" class="node">
<title>Node4</title>
<g id="a_node4"><a xlink:href="classgpuNUFFT_1_1GpuNUFFTOperator.html#a38a45507d840b8d3d97de7fc79b4fa8a" target="_top" xlink:title="Perform Adjoint gridding operation on given kspaceData.">
<polygon fill="none" stroke="black" points="334,-189 334,-219 492,-219 492,-189 334,-189"/>
<text text-anchor="start" x="342" y="-207" font-family="FreeSans.ttf" font-size="10.00">gpuNUFFT::GpuNUFFTOperator</text>
<text text-anchor="middle" x="413" y="-196" font-family="FreeSans.ttf" font-size="10.00">::performGpuNUFFTAdj</text>
</a>
</g>
</g>
<!-- Node2&#45;&gt;Node4 -->
<g id="edge3" class="edge">
<title>Node2&#45;&gt;Node4</title>
<path fill="none" stroke="midnightblue" d="M288.17,-175.02C304.12,-178.75 321.34,-182.78 337.72,-186.62"/>
<polygon fill="midnightblue" stroke="midnightblue" points="337.26,-190.1 347.8,-188.97 338.86,-183.29 337.26,-190.1"/>
</g>
<!-- Node6 -->
<g id="node6" class="node">
<title>Node6</title>
<g id="a_node6"><a xlink:href="classgpuNUFFT_1_1GpuNUFFTOperator.html#a11b569c99d639766b533f26ac19a09e2" target="_top" xlink:title=" ">
<polygon fill="none" stroke="black" points="334,-238 334,-268 492,-268 492,-238 334,-238"/>
<text text-anchor="start" x="342" y="-256" font-family="FreeSans.ttf" font-size="10.00">gpuNUFFT::GpuNUFFTOperator</text>
<text text-anchor="middle" x="413" y="-245" font-family="FreeSans.ttf" font-size="10.00">::clean_memory</text>
</a>
</g>
</g>
<!-- Node5&#45;&gt;Node6 -->
<g id="edge5" class="edge">
<title>Node5&#45;&gt;Node6</title>
<path fill="none" stroke="midnightblue" d="M290.55,-238.79C301.3,-240.05 312.58,-241.37 323.76,-242.67"/>
<polygon fill="midnightblue" stroke="midnightblue" points="323.63,-246.18 333.97,-243.87 324.44,-239.23 323.63,-246.18"/>
</g>
<!-- Node8 -->
<g id="node8" class="node">
<title>Node8</title>
<g id="a_node8"><a xlink:href="classgpuNUFFT_1_1GpuNUFFTOperator.html#a7ac11881773486cdca07845299688268" target="_top" xlink:title=" ">
<polygon fill="none" stroke="black" points="334,-52 334,-82 492,-82 492,-52 334,-52"/>
<text text-anchor="start" x="342" y="-70" font-family="FreeSans.ttf" font-size="10.00">gpuNUFFT::GpuNUFFTOperator</text>
<text text-anchor="middle" x="413" y="-59" font-family="FreeSans.ttf" font-size="10.00">::estimate_density_comp</text>
</a>
</g>
</g>
<!-- Node7&#45;&gt;Node8 -->
<g id="edge7" class="edge">
<title>Node7&#45;&gt;Node8</title>
<path fill="none" stroke="midnightblue" d="M290.55,-69.58C301.3,-69.36 312.58,-69.12 323.76,-68.88"/>
<polygon fill="midnightblue" stroke="midnightblue" points="324.05,-72.37 333.97,-68.66 323.9,-65.37 324.05,-72.37"/>
</g>
<!-- Node9 -->
<g id="node9" class="node">
<title>Node9</title>
<g id="a_node9"><a xlink:href="cuda__utils_8hpp.html#a18413e749218eb97bc61578b50a57787" target="_top" xlink:title="CUDA memory allocation and memcpy call to copy data from host to device.">
<polygon fill="none" stroke="black" points="528,-114.5 528,-133.5 680,-133.5 680,-114.5 528,-114.5"/>
<text text-anchor="middle" x="604" y="-121.5" font-family="FreeSans.ttf" font-size="10.00">allocateAndCopyToDeviceMem</text>
</a>
</g>
</g>
<!-- Node8&#45;&gt;Node9 -->
<g id="edge8" class="edge">
<title>Node8&#45;&gt;Node9</title>
<path fill="none" stroke="midnightblue" d="M461.94,-82.06C471.9,-85.28 482.31,-88.7 492,-92 508.1,-97.49 511.74,-100.02 528,-105 535.85,-107.41 544.23,-109.75 552.44,-111.92"/>
<polygon fill="midnightblue" stroke="midnightblue" points="551.76,-115.35 562.32,-114.47 553.51,-108.58 551.76,-115.35"/>
</g>
<!-- Node10 -->
<g id="node10" class="node">
<title>Node10</title>
<g id="a_node10"><a xlink:href="cuda__utils_8hpp.html#a5fb34b1c5f091a495c7ac4237257d7b1" target="_top" xlink:title="Allocation of device memory of the given extent for the defined type.">
<polygon fill="none" stroke="black" points="553,-76.5 553,-95.5 655,-95.5 655,-76.5 553,-76.5"/>
<text text-anchor="middle" x="604" y="-83.5" font-family="FreeSans.ttf" font-size="10.00">allocateDeviceMem</text>
</a>
</g>
</g>
<!-- Node8&#45;&gt;Node10 -->
<g id="edge9" class="edge">
<title>Node8&#45;&gt;Node10</title>
<path fill="none" stroke="midnightblue" d="M492.24,-74.87C509.07,-76.56 526.6,-78.32 542.63,-79.93"/>
<polygon fill="midnightblue" stroke="midnightblue" points="542.62,-83.45 552.92,-80.97 543.32,-76.48 542.62,-83.45"/>
</g>
<!-- Node11 -->
<g id="node11" class="node">
<title>Node11</title>
<g id="a_node11"><a xlink:href="structgpuNUFFT_1_1Array.html#af426f56b5d7e05b6143acbdd51bac188" target="_top" xlink:title=" ">
<polygon fill="none" stroke="black" points="543.5,-38.5 543.5,-57.5 664.5,-57.5 664.5,-38.5 543.5,-38.5"/>
<text text-anchor="middle" x="604" y="-45.5" font-family="FreeSans.ttf" font-size="10.00">gpuNUFFT::Array::count</text>
</a>
</g>
</g>
<!-- Node8&#45;&gt;Node11 -->
<g id="edge10" class="edge">
<title>Node8&#45;&gt;Node11</title>
<path fill="none" stroke="midnightblue" d="M492.24,-59.13C505.83,-57.77 519.89,-56.35 533.24,-55.01"/>
<polygon fill="midnightblue" stroke="midnightblue" points="533.69,-58.49 543.29,-54 532.99,-51.52 533.69,-58.49"/>
</g>
<!-- Node13 -->
<g id="node13" class="node">
<title>Node13</title>
<g id="a_node13"><a xlink:href="gpuNUFFT__kernels_8hpp.html#a8431363d47100f4911c3dfd4c8cd833f" target="_top" xlink:title="Perform the Density compensation method.">
<polygon fill="none" stroke="black" points="534.5,-0.5 534.5,-19.5 673.5,-19.5 673.5,-0.5 534.5,-0.5"/>
<text text-anchor="middle" x="604" y="-7.5" font-family="FreeSans.ttf" font-size="10.00">performUpdateDensityComp</text>
</a>
</g>
</g>
<!-- Node8&#45;&gt;Node13 -->
<g id="edge12" class="edge">
<title>Node8&#45;&gt;Node13</title>
<path fill="none" stroke="midnightblue" d="M461.94,-51.94C471.9,-48.72 482.31,-45.3 492,-42 508.1,-36.51 511.74,-33.98 528,-29 535.85,-26.59 544.23,-24.25 552.44,-22.08"/>
<polygon fill="midnightblue" stroke="midnightblue" points="553.51,-25.42 562.32,-19.53 551.76,-18.65 553.51,-25.42"/>
</g>
<!-- Node12 -->
<g id="node12" class="node">
<title>Node12</title>
<g id="a_node12"><a xlink:href="structgpuNUFFT_1_1Dimensions.html#a4c589934c5444910fbcd890d128229c9" target="_top" xlink:title="Compute total count of array length.">
<polygon fill="none" stroke="black" points="716,-33 716,-63 837,-63 837,-33 716,-33"/>
<text text-anchor="start" x="724" y="-51" font-family="FreeSans.ttf" font-size="10.00">gpuNUFFT::Dimensions</text>
<text text-anchor="middle" x="776.5" y="-40" font-family="FreeSans.ttf" font-size="10.00">::count</text>
</a>
</g>
</g>
<!-- Node11&#45;&gt;Node12 -->
<g id="edge11" class="edge">
<title>Node11&#45;&gt;Node12</title>
<path fill="none" stroke="midnightblue" d="M664.63,-48C677.87,-48 692.02,-48 705.63,-48"/>
<polygon fill="midnightblue" stroke="midnightblue" points="705.9,-51.5 715.9,-48 705.9,-44.5 705.9,-51.5"/>
</g>
<!-- Node14&#45;&gt;Node3 -->
<g id="edge14" class="edge">
<title>Node14&#45;&gt;Node3</title>
<path fill="none" stroke="midnightblue" d="M264.79,-125.55C293.12,-132.18 331.07,-141.06 361.34,-148.14"/>
<polygon fill="midnightblue" stroke="midnightblue" points="360.75,-151.6 371.29,-150.47 362.35,-144.78 360.75,-151.6"/>
</g>
<!-- Node15 -->
<g id="node15" class="node">
<title>Node15</title>
<g id="a_node15"><a xlink:href="classgpuNUFFT_1_1GpuNUFFTOperator.html#a10d565529aa2c7778c15edb8a820b417" target="_top" xlink:title="Perform forward gridding operation on given kspaceData.">
<polygon fill="none" stroke="black" points="334,-101 334,-131 492,-131 492,-101 334,-101"/>
<text text-anchor="start" x="342" y="-119" font-family="FreeSans.ttf" font-size="10.00">gpuNUFFT::GpuNUFFTOperator</text>
<text text-anchor="middle" x="413" y="-108" font-family="FreeSans.ttf" font-size="10.00">::performForwardGpuNUFFT</text>
</a>
</g>
</g>
<!-- Node14&#45;&gt;Node15 -->
<g id="edge15" class="edge">
<title>Node14&#45;&gt;Node15</title>
<path fill="none" stroke="midnightblue" d="M298.03,-116C306.45,-116 315.1,-116 323.68,-116"/>
<polygon fill="midnightblue" stroke="midnightblue" points="323.7,-119.5 333.7,-116 323.7,-112.5 323.7,-119.5"/>
</g>
<!-- Node17 -->
<g id="node17" class="node">
<title>Node17</title>
<g id="a_node17"><a xlink:href="classgpuNUFFT_1_1GpuNUFFTOperator.html#adbc6f59fc4a4998a4ad5bb65c38b1f03" target="_top" xlink:title=" ">
<polygon fill="none" stroke="black" points="334,-3 334,-33 492,-33 492,-3 334,-3"/>
<text text-anchor="start" x="342" y="-21" font-family="FreeSans.ttf" font-size="10.00">gpuNUFFT::GpuNUFFTOperator</text>
<text text-anchor="middle" x="413" y="-10" font-family="FreeSans.ttf" font-size="10.00">::setSens</text>
</a>
</g>
</g>
<!-- Node16&#45;&gt;Node17 -->
<g id="edge17" class="edge">
<title>Node16&#45;&gt;Node17</title>
<path fill="none" stroke="midnightblue" d="M290.55,-19.29C301.3,-19.18 312.58,-19.06 323.76,-18.94"/>
<polygon fill="midnightblue" stroke="midnightblue" points="324.01,-22.44 333.97,-18.83 323.93,-15.44 324.01,-22.44"/>
</g>
</g>
</svg>
