<?xml version="1.0" encoding="UTF-8" standalone="no"?>
<!DOCTYPE svg PUBLIC "-//W3C//DTD SVG 1.1//EN"
 "http://www.w3.org/Graphics/SVG/1.1/DTD/svg11.dtd">
<!-- Generated by graphviz version 2.49.3 (20211027.1534)
 -->
<!-- Title: python/inc/python_utils.hpp Pages: 1 -->
<svg width="1415pt" height="487pt"
 viewBox="0.00 0.00 1415.00 487.00" xmlns="http://www.w3.org/2000/svg" xmlns:xlink="http://www.w3.org/1999/xlink">
<g id="graph0" class="graph" transform="scale(1 1) rotate(0) translate(4 483)">
<title>python/inc/python_utils.hpp</title>
<!-- Node1 -->
<g id="node1" class="node">
<title>Node1</title>
<g id="a_node1"><a xlink:title=" ">
<polygon fill="#bfbfbf" stroke="black" points="257,-459.5 257,-478.5 391,-478.5 391,-459.5 257,-459.5"/>
<text text-anchor="middle" x="324" y="-466.5" font-family="FreeSans.ttf" font-size="10.00">python/inc/python_utils.hpp</text>
</a>
</g>
</g>
<!-- Node2 -->
<g id="node2" class="node">
<title>Node2</title>
<g id="a_node2"><a xlink:title=" ">
<polygon fill="none" stroke="#bfbfbf" points="0,-403.5 0,-422.5 104,-422.5 104,-403.5 0,-403.5"/>
<text text-anchor="middle" x="52" y="-410.5" font-family="FreeSans.ttf" font-size="10.00">pybind11/pybind11.h</text>
</a>
</g>
</g>
<!-- Node1&#45;&gt;Node2 -->
<g id="edge1" class="edge">
<title>Node1&#45;&gt;Node2</title>
<path fill="none" stroke="midnightblue" d="M280.9,-459.44C233.15,-449.96 156.14,-434.67 104.81,-424.48"/>
<polygon fill="midnightblue" stroke="midnightblue" points="105.39,-421.03 94.9,-422.52 104.02,-427.9 105.39,-421.03"/>
</g>
<!-- Node3 -->
<g id="node3" class="node">
<title>Node3</title>
<g id="a_node3"><a xlink:title=" ">
<polygon fill="none" stroke="#bfbfbf" points="122,-403.5 122,-422.5 216,-422.5 216,-403.5 122,-403.5"/>
<text text-anchor="middle" x="169" y="-410.5" font-family="FreeSans.ttf" font-size="10.00">pybind11/numpy.h</text>
</a>
</g>
</g>
<!-- Node1&#45;&gt;Node3 -->
<g id="edge2" class="edge">
<title>Node1&#45;&gt;Node3</title>
<path fill="none" stroke="midnightblue" d="M299.44,-459.44C273.48,-450.4 232.33,-436.06 203.2,-425.92"/>
<polygon fill="midnightblue" stroke="midnightblue" points="204.04,-422.5 193.45,-422.52 201.74,-429.11 204.04,-422.5"/>
</g>
<!-- Node4 -->
<g id="node4" class="node">
<title>Node4</title>
<g id="a_node4"><a xlink:title=" ">
<polygon fill="none" stroke="#bfbfbf" points="234.5,-403.5 234.5,-422.5 335.5,-422.5 335.5,-403.5 234.5,-403.5"/>
<text text-anchor="middle" x="285" y="-410.5" font-family="FreeSans.ttf" font-size="10.00">pybind11/complex.h</text>
</a>
</g>
</g>
<!-- Node1&#45;&gt;Node4 -->
<g id="edge3" class="edge">
<title>Node1&#45;&gt;Node4</title>
<path fill="none" stroke="midnightblue" d="M317.56,-459.08C312.05,-451.46 303.97,-440.26 297.24,-430.94"/>
<polygon fill="midnightblue" stroke="midnightblue" points="300.01,-428.81 291.32,-422.75 294.34,-432.91 300.01,-428.81"/>
</g>
<!-- Node5 -->
<g id="node5" class="node">
<title>Node5</title>
<g id="a_node5"><a xlink:title=" ">
<polygon fill="none" stroke="#bfbfbf" points="364.5,-0.5 364.5,-19.5 409.5,-19.5 409.5,-0.5 364.5,-0.5"/>
<text text-anchor="middle" x="387" y="-7.5" font-family="FreeSans.ttf" font-size="10.00">cuda.h</text>
</a>
</g>
</g>
<!-- Node1&#45;&gt;Node5 -->
<g id="edge4" class="edge">
<title>Node1&#45;&gt;Node5</title>
<path fill="none" stroke="midnightblue" d="M329.23,-459.37C340.07,-440.63 364,-394.52 364,-352.5 364,-352.5 364,-352.5 364,-121 364,-88.12 373.97,-50.86 380.78,-29.24"/>
<polygon fill="midnightblue" stroke="midnightblue" points="384.11,-30.3 383.9,-19.71 377.46,-28.12 384.11,-30.3"/>
</g>
<!-- Node6 -->
<g id="node6" class="node">
<title>Node6</title>
<g id="a_node6"><a xlink:title=" ">
<polygon fill="none" stroke="#bfbfbf" points="1093,-0.5 1093,-19.5 1153,-19.5 1153,-0.5 1093,-0.5"/>
<text text-anchor="middle" x="1123" y="-7.5" font-family="FreeSans.ttf" font-size="10.00">config.hpp</text>
</a>
</g>
</g>
<!-- Node1&#45;&gt;Node6 -->
<g id="edge5" class="edge">
<title>Node1&#45;&gt;Node6</title>
<path fill="none" stroke="midnightblue" d="M391.34,-467.92C627.94,-466.76 1407,-455.14 1407,-352.5 1407,-352.5 1407,-352.5 1407,-121 1407,-85.09 1389.4,-75.12 1359,-56 1326.94,-35.83 1221.61,-21.63 1163.09,-15.08"/>
<polygon fill="midnightblue" stroke="midnightblue" points="1163.41,-11.6 1153.09,-13.99 1162.64,-18.56 1163.41,-11.6"/>
</g>
<!-- Node7 -->
<g id="node7" class="node">
<title>Node7</title>
<g id="a_node7"><a xlink:href="gpuNUFFT__operator__factory_8hpp.html" target="_top" xlink:title=" ">
<polygon fill="none" stroke="black" points="860,-403.5 860,-422.5 1018,-422.5 1018,-403.5 860,-403.5"/>
<text text-anchor="middle" x="939" y="-410.5" font-family="FreeSans.ttf" font-size="10.00">gpuNUFFT_operator_factory.hpp</text>
</a>
</g>
</g>
<!-- Node1&#45;&gt;Node7 -->
<g id="edge6" class="edge">
<title>Node1&#45;&gt;Node7</title>
<path fill="none" stroke="midnightblue" d="M391.28,-462.09C502.54,-452.32 724.9,-432.8 849.36,-421.87"/>
<polygon fill="midnightblue" stroke="midnightblue" points="849.96,-425.33 859.62,-420.97 849.35,-418.36 849.96,-425.33"/>
</g>
<!-- Node7&#45;&gt;Node6 -->
<g id="edge7" class="edge">
<title>Node7&#45;&gt;Node6</title>
<path fill="none" stroke="midnightblue" d="M1018.35,-407.89C1129.65,-401.43 1321.37,-387.48 1346,-367 1373.14,-344.44 1369,-326.29 1369,-291 1369,-291 1369,-291 1369,-121 1369,-32 1233.16,-14.53 1163.36,-11.43"/>
<polygon fill="midnightblue" stroke="midnightblue" points="1163.29,-7.92 1153.16,-11.06 1163.03,-14.92 1163.29,-7.92"/>
</g>
<!-- Node8 -->
<g id="node8" class="node">
<title>Node8</title>
<g id="a_node8"><a xlink:href="gpuNUFFT__operator_8hpp.html" target="_top" xlink:title=" ">
<polygon fill="none" stroke="black" points="825,-224.5 825,-243.5 949,-243.5 949,-224.5 825,-224.5"/>
<text text-anchor="middle" x="887" y="-231.5" font-family="FreeSans.ttf" font-size="10.00">gpuNUFFT_operator.hpp</text>
</a>
</g>
</g>
<!-- Node7&#45;&gt;Node8 -->
<g id="edge8" class="edge">
<title>Node7&#45;&gt;Node8</title>
<path fill="none" stroke="midnightblue" d="M934.22,-403.33C924.33,-384.94 901.76,-340.38 892,-300 888.3,-284.68 887.15,-266.8 886.86,-253.68"/>
<polygon fill="midnightblue" stroke="midnightblue" points="890.36,-253.53 886.8,-243.55 883.36,-253.57 890.36,-253.53"/>
</g>
<!-- Node13 -->
<g id="node13" class="node">
<title>Node13</title>
<g id="a_node13"><a xlink:href="cuda__utils_8hpp.html" target="_top" xlink:title="Util functions for CUDA memory and texture management.">
<polygon fill="none" stroke="black" points="485.5,-112.5 485.5,-131.5 564.5,-131.5 564.5,-112.5 485.5,-112.5"/>
<text text-anchor="middle" x="525" y="-119.5" font-family="FreeSans.ttf" font-size="10.00">cuda_utils.hpp</text>
</a>
</g>
</g>
<!-- Node7&#45;&gt;Node13 -->
<g id="edge53" class="edge">
<title>Node7&#45;&gt;Node13</title>
<path fill="none" stroke="midnightblue" d="M859.92,-407.15C729.85,-396.99 485,-367.68 485,-291 485,-291 485,-291 485,-233 485,-198.62 502.47,-161.63 514.32,-140.5"/>
<polygon fill="midnightblue" stroke="midnightblue" points="517.42,-142.13 519.44,-131.73 511.38,-138.61 517.42,-142.13"/>
</g>
<!-- Node19 -->
<g id="node19" class="node">
<title>Node19</title>
<g id="a_node19"><a xlink:title=" ">
<polygon fill="none" stroke="#bfbfbf" points="791,-0.5 791,-19.5 835,-19.5 835,-0.5 791,-0.5"/>
<text text-anchor="middle" x="813" y="-7.5" font-family="FreeSans.ttf" font-size="10.00">cmath</text>
</a>
</g>
</g>
<!-- Node7&#45;&gt;Node19 -->
<g id="edge52" class="edge">
<title>Node7&#45;&gt;Node19</title>
<path fill="none" stroke="midnightblue" d="M929.3,-403.41C904.33,-380.54 838.24,-315.07 816,-244 792.09,-167.58 803.36,-70.05 809.7,-29.73"/>
<polygon fill="midnightblue" stroke="midnightblue" points="813.18,-30.18 811.36,-19.74 806.27,-29.03 813.18,-30.18"/>
</g>
<!-- Node24 -->
<g id="node24" class="node">
<title>Node24</title>
<g id="a_node24"><a xlink:href="balanced__gpuNUFFT__operator_8hpp.html" target="_top" xlink:title=" ">
<polygon fill="none" stroke="black" points="1077,-280.5 1077,-299.5 1245,-299.5 1245,-280.5 1077,-280.5"/>
<text text-anchor="middle" x="1161" y="-287.5" font-family="FreeSans.ttf" font-size="10.00">balanced_gpuNUFFT_operator.hpp</text>
</a>
</g>
</g>
<!-- Node7&#45;&gt;Node24 -->
<g id="edge35" class="edge">
<title>Node7&#45;&gt;Node24</title>
<path fill="none" stroke="midnightblue" d="M1018.29,-408.47C1054.51,-403.23 1095.94,-391.69 1126,-367 1143.68,-352.48 1152.85,-327.06 1157.29,-309.65"/>
<polygon fill="midnightblue" stroke="midnightblue" points="1160.78,-310.08 1159.57,-299.56 1153.96,-308.54 1160.78,-310.08"/>
</g>
<!-- Node26 -->
<g id="node26" class="node">
<title>Node26</title>
<g id="a_node26"><a xlink:href="texture__gpuNUFFT__operator_8hpp.html" target="_top" xlink:title=" ">
<polygon fill="none" stroke="black" points="901,-280.5 901,-299.5 1059,-299.5 1059,-280.5 901,-280.5"/>
<text text-anchor="middle" x="980" y="-287.5" font-family="FreeSans.ttf" font-size="10.00">texture_gpuNUFFT_operator.hpp</text>
</a>
</g>
</g>
<!-- Node7&#45;&gt;Node26 -->
<g id="edge40" class="edge">
<title>Node7&#45;&gt;Node26</title>
<path fill="none" stroke="midnightblue" d="M935.09,-403.12C929.25,-388.47 919.95,-358.58 930,-336 935.57,-323.5 946.52,-313.01 956.75,-305.32"/>
<polygon fill="midnightblue" stroke="midnightblue" points="958.85,-308.12 965.05,-299.53 954.84,-302.38 958.85,-308.12"/>
</g>
<!-- Node29 -->
<g id="node29" class="node">
<title>Node29</title>
<g id="a_node29"><a xlink:href="balanced__texture__gpuNUFFT__operator_8hpp.html" target="_top" xlink:title=" ">
<polygon fill="none" stroke="black" points="1193,-336.5 1193,-366.5 1337,-366.5 1337,-336.5 1193,-336.5"/>
<text text-anchor="start" x="1201" y="-354.5" font-family="FreeSans.ttf" font-size="10.00">balanced_texture_gpuNUFFT</text>
<text text-anchor="middle" x="1265" y="-343.5" font-family="FreeSans.ttf" font-size="10.00">_operator.hpp</text>
</a>
</g>
</g>
<!-- Node7&#45;&gt;Node29 -->
<g id="edge45" class="edge">
<title>Node7&#45;&gt;Node29</title>
<path fill="none" stroke="midnightblue" d="M985.71,-403.48C1036.99,-394.12 1120.32,-378.91 1182.63,-367.53"/>
<polygon fill="midnightblue" stroke="midnightblue" points="1183.63,-370.91 1192.83,-365.67 1182.37,-364.02 1183.63,-370.91"/>
</g>
<!-- Node30 -->
<g id="node30" class="node">
<title>Node30</title>
<g id="a_node30"><a xlink:title=" ">
<polygon fill="none" stroke="#bfbfbf" points="939,-342 939,-361 995,-361 995,-342 939,-342"/>
<text text-anchor="middle" x="967" y="-349" font-family="FreeSans.ttf" font-size="10.00">algorithm</text>
</a>
</g>
</g>
<!-- Node7&#45;&gt;Node30 -->
<g id="edge49" class="edge">
<title>Node7&#45;&gt;Node30</title>
<path fill="none" stroke="midnightblue" d="M943.01,-403.48C947.09,-394.82 953.52,-381.15 958.7,-370.15"/>
<polygon fill="midnightblue" stroke="midnightblue" points="961.9,-371.55 963,-361.01 955.57,-368.57 961.9,-371.55"/>
</g>
<!-- Node31 -->
<g id="node31" class="node">
<title>Node31</title>
<g id="a_node31"><a xlink:title=" ">
<polygon fill="none" stroke="#bfbfbf" points="1013,-342 1013,-361 1057,-361 1057,-342 1013,-342"/>
<text text-anchor="middle" x="1035" y="-349" font-family="FreeSans.ttf" font-size="10.00">vector</text>
</a>
</g>
</g>
<!-- Node7&#45;&gt;Node31 -->
<g id="edge50" class="edge">
<title>Node7&#45;&gt;Node31</title>
<path fill="none" stroke="midnightblue" d="M952.75,-403.48C968.37,-393.8 994.06,-377.87 1012.58,-366.39"/>
<polygon fill="midnightblue" stroke="midnightblue" points="1014.62,-369.25 1021.27,-361.01 1010.93,-363.3 1014.62,-369.25"/>
</g>
<!-- Node32 -->
<g id="node32" class="node">
<title>Node32</title>
<g id="a_node32"><a xlink:title=" ">
<polygon fill="none" stroke="#bfbfbf" points="1075.5,-342 1075.5,-361 1116.5,-361 1116.5,-342 1075.5,-342"/>
<text text-anchor="middle" x="1096" y="-349" font-family="FreeSans.ttf" font-size="10.00">string</text>
</a>
</g>
</g>
<!-- Node7&#45;&gt;Node32 -->
<g id="edge51" class="edge">
<title>Node7&#45;&gt;Node32</title>
<path fill="none" stroke="midnightblue" d="M966.08,-403.36C992.02,-394.87 1032.11,-381.14 1066,-367 1067.2,-366.5 1068.42,-365.97 1069.65,-365.43"/>
<polygon fill="midnightblue" stroke="midnightblue" points="1071.4,-368.48 1079.01,-361.11 1068.47,-362.12 1071.4,-368.48"/>
</g>
<!-- Node33 -->
<g id="node33" class="node">
<title>Node33</title>
<g id="a_node33"><a xlink:href="precomp__utils_8hpp.html" target="_top" xlink:title="UTIL functions for precomputation.">
<polygon fill="none" stroke="black" points="673.5,-280.5 673.5,-299.5 768.5,-299.5 768.5,-280.5 673.5,-280.5"/>
<text text-anchor="middle" x="721" y="-287.5" font-family="FreeSans.ttf" font-size="10.00">precomp_utils.hpp</text>
</a>
</g>
</g>
<!-- Node7&#45;&gt;Node33 -->
<g id="edge54" class="edge">
<title>Node7&#45;&gt;Node33</title>
<path fill="none" stroke="midnightblue" d="M879.11,-403.5C848.47,-397.06 811.7,-385.95 783,-367 760.31,-352.02 741.81,-326.16 731.09,-308.82"/>
<polygon fill="midnightblue" stroke="midnightblue" points="733.82,-306.56 725.71,-299.74 727.8,-310.13 733.82,-306.56"/>
</g>
<!-- Node8&#45;&gt;Node6 -->
<g id="edge31" class="edge">
<title>Node8&#45;&gt;Node6</title>
<path fill="none" stroke="midnightblue" d="M895.69,-224.17C904.04,-215.43 916.72,-201.44 926,-188 947.81,-156.42 940.97,-140.2 967,-112 1004.15,-71.76 1060.62,-40.48 1094.46,-23.97"/>
<polygon fill="midnightblue" stroke="midnightblue" points="1096.26,-26.98 1103.77,-19.51 1093.24,-20.67 1096.26,-26.98"/>
</g>
<!-- Node9 -->
<g id="node9" class="node">
<title>Node9</title>
<g id="a_node9"><a xlink:href="gpuNUFFT__types_8hpp.html" target="_top" xlink:title="Definition of gpuNUFFT defined types.">
<polygon fill="none" stroke="black" points="1067,-168.5 1067,-187.5 1179,-187.5 1179,-168.5 1067,-168.5"/>
<text text-anchor="middle" x="1123" y="-175.5" font-family="FreeSans.ttf" font-size="10.00">gpuNUFFT_types.hpp</text>
</a>
</g>
</g>
<!-- Node8&#45;&gt;Node9 -->
<g id="edge9" class="edge">
<title>Node8&#45;&gt;Node9</title>
<path fill="none" stroke="midnightblue" d="M924.39,-224.44C965.39,-215.06 1031.25,-199.99 1075.78,-189.8"/>
<polygon fill="midnightblue" stroke="midnightblue" points="1076.81,-193.16 1085.78,-187.52 1075.25,-186.34 1076.81,-193.16"/>
</g>
<!-- Node10 -->
<g id="node10" class="node">
<title>Node10</title>
<g id="a_node10"><a xlink:title=" ">
<polygon fill="none" stroke="#bfbfbf" points="1049.5,-112.5 1049.5,-131.5 1094.5,-131.5 1094.5,-112.5 1049.5,-112.5"/>
<text text-anchor="middle" x="1072" y="-119.5" font-family="FreeSans.ttf" font-size="10.00">cstdlib</text>
</a>
</g>
</g>
<!-- Node8&#45;&gt;Node10 -->
<g id="edge32" class="edge">
<title>Node8&#45;&gt;Node10</title>
<path fill="none" stroke="midnightblue" d="M907.94,-224.4C927.58,-216.03 957.49,-202.49 982,-188 1007.95,-172.66 1035.79,-151.8 1053.52,-137.89"/>
<polygon fill="midnightblue" stroke="midnightblue" points="1055.69,-140.63 1061.36,-131.68 1051.35,-135.15 1055.69,-140.63"/>
</g>
<!-- Node11 -->
<g id="node11" class="node">
<title>Node11</title>
<g id="a_node11"><a xlink:title=" ">
<polygon fill="none" stroke="#bfbfbf" points="976,-112.5 976,-131.5 1030,-131.5 1030,-112.5 976,-112.5"/>
<text text-anchor="middle" x="1003" y="-119.5" font-family="FreeSans.ttf" font-size="10.00">iostream</text>
</a>
</g>
</g>
<!-- Node8&#45;&gt;Node11 -->
<g id="edge33" class="edge">
<title>Node8&#45;&gt;Node11</title>
<path fill="none" stroke="midnightblue" d="M905.62,-224.39C921.35,-216.49 943.85,-203.64 960,-188 974.23,-174.21 986.26,-154.93 993.94,-140.95"/>
<polygon fill="midnightblue" stroke="midnightblue" points="997.16,-142.34 998.73,-131.86 990.97,-139.07 997.16,-142.34"/>
</g>
<!-- Node12 -->
<g id="node12" class="node">
<title>Node12</title>
<g id="a_node12"><a xlink:href="gpuNUFFT__kernels_8hpp.html" target="_top" xlink:title="gpuNUFFT CUDA function prototypes">
<polygon fill="none" stroke="black" points="627,-168.5 627,-187.5 747,-187.5 747,-168.5 627,-168.5"/>
<text text-anchor="middle" x="687" y="-175.5" font-family="FreeSans.ttf" font-size="10.00">gpuNUFFT_kernels.hpp</text>
</a>
</g>
</g>
<!-- Node8&#45;&gt;Node12 -->
<g id="edge13" class="edge">
<title>Node8&#45;&gt;Node12</title>
<path fill="none" stroke="midnightblue" d="M855.31,-224.44C820.93,-215.16 765.92,-200.31 728.21,-190.13"/>
<polygon fill="midnightblue" stroke="midnightblue" points="729.11,-186.74 718.54,-187.52 727.28,-193.5 729.11,-186.74"/>
</g>
<!-- Node23 -->
<g id="node23" class="node">
<title>Node23</title>
<g id="a_node23"><a xlink:title=" ">
<polygon fill="none" stroke="#bfbfbf" points="857.5,-168.5 857.5,-187.5 916.5,-187.5 916.5,-168.5 857.5,-168.5"/>
<text text-anchor="middle" x="887" y="-175.5" font-family="FreeSans.ttf" font-size="10.00">functional</text>
</a>
</g>
</g>
<!-- Node8&#45;&gt;Node23 -->
<g id="edge34" class="edge">
<title>Node8&#45;&gt;Node23</title>
<path fill="none" stroke="midnightblue" d="M887,-224.08C887,-217.01 887,-206.86 887,-197.99"/>
<polygon fill="midnightblue" stroke="midnightblue" points="890.5,-197.75 887,-187.75 883.5,-197.75 890.5,-197.75"/>
</g>
<!-- Node9&#45;&gt;Node6 -->
<g id="edge12" class="edge">
<title>Node9&#45;&gt;Node6</title>
<path fill="none" stroke="midnightblue" d="M1123,-168.08C1123,-141.95 1123,-65.21 1123,-29.58"/>
<polygon fill="midnightblue" stroke="midnightblue" points="1126.5,-29.57 1123,-19.57 1119.5,-29.57 1126.5,-29.57"/>
</g>
<!-- Node9&#45;&gt;Node10 -->
<g id="edge10" class="edge">
<title>Node9&#45;&gt;Node10</title>
<path fill="none" stroke="midnightblue" d="M1114.58,-168.08C1107.15,-160.22 1096.15,-148.57 1087.19,-139.08"/>
<polygon fill="midnightblue" stroke="midnightblue" points="1089.68,-136.62 1080.26,-131.75 1084.59,-141.42 1089.68,-136.62"/>
</g>
<!-- Node9&#45;&gt;Node11 -->
<g id="edge11" class="edge">
<title>Node9&#45;&gt;Node11</title>
<path fill="none" stroke="midnightblue" d="M1103.99,-168.44C1084.41,-159.64 1053.69,-145.81 1031.27,-135.72"/>
<polygon fill="midnightblue" stroke="midnightblue" points="1032.48,-132.43 1021.93,-131.52 1029.61,-138.81 1032.48,-132.43"/>
</g>
<!-- Node12&#45;&gt;Node13 -->
<g id="edge14" class="edge">
<title>Node12&#45;&gt;Node13</title>
<path fill="none" stroke="midnightblue" d="M661.33,-168.44C634.08,-159.36 590.82,-144.94 560.35,-134.78"/>
<polygon fill="midnightblue" stroke="midnightblue" points="561.14,-131.36 550.55,-131.52 558.93,-138 561.14,-131.36"/>
</g>
<!-- Node17 -->
<g id="node17" class="node">
<title>Node17</title>
<g id="a_node17"><a xlink:href="gpuNUFFT__utils_8hpp.html" target="_top" xlink:title="Definition of util functions used in gridding operations.">
<polygon fill="none" stroke="black" points="636.5,-56.5 636.5,-75.5 743.5,-75.5 743.5,-56.5 636.5,-56.5"/>
<text text-anchor="middle" x="690" y="-63.5" font-family="FreeSans.ttf" font-size="10.00">gpuNUFFT_utils.hpp</text>
</a>
</g>
</g>
<!-- Node12&#45;&gt;Node17 -->
<g id="edge30" class="edge">
<title>Node12&#45;&gt;Node17</title>
<path fill="none" stroke="midnightblue" d="M687.24,-168.37C687.72,-150.62 688.84,-109.67 689.49,-85.6"/>
<polygon fill="midnightblue" stroke="midnightblue" points="692.99,-85.68 689.77,-75.59 685.99,-85.49 692.99,-85.68"/>
</g>
<!-- Node13&#45;&gt;Node5 -->
<g id="edge15" class="edge">
<title>Node13&#45;&gt;Node5</title>
<path fill="none" stroke="midnightblue" d="M514.17,-112.37C490.69,-93.65 434.86,-49.15 405.61,-25.83"/>
<polygon fill="midnightblue" stroke="midnightblue" points="407.78,-23.09 397.78,-19.59 403.42,-28.56 407.78,-23.09"/>
</g>
<!-- Node13&#45;&gt;Node8 -->
<g id="edge28" class="edge">
<title>Node13&#45;&gt;Node8</title>
<path fill="none" stroke="midnightblue" d="M534.19,-131.58C549.99,-145.81 583.9,-174.07 618,-188 681.44,-213.92 759.14,-224.92 814.69,-229.58"/>
<polygon fill="midnightblue" stroke="midnightblue" points="814.55,-233.08 824.79,-230.38 815.1,-226.1 814.55,-233.08"/>
</g>
<!-- Node14 -->
<g id="node14" class="node">
<title>Node14</title>
<g id="a_node14"><a xlink:title=" ">
<polygon fill="none" stroke="#bfbfbf" points="427.5,-0.5 427.5,-19.5 510.5,-19.5 510.5,-0.5 427.5,-0.5"/>
<text text-anchor="middle" x="469" y="-7.5" font-family="FreeSans.ttf" font-size="10.00">cuda_runtime.h</text>
</a>
</g>
</g>
<!-- Node13&#45;&gt;Node14 -->
<g id="edge16" class="edge">
<title>Node13&#45;&gt;Node14</title>
<path fill="none" stroke="midnightblue" d="M517.05,-112.28C509.49,-103.61 498.24,-89.67 491,-76 483.16,-61.19 477.3,-43.04 473.6,-29.68"/>
<polygon fill="midnightblue" stroke="midnightblue" points="476.93,-28.56 471.01,-19.77 470.16,-30.33 476.93,-28.56"/>
</g>
<!-- Node15 -->
<g id="node15" class="node">
<title>Node15</title>
<g id="a_node15"><a xlink:title=" ">
<polygon fill="none" stroke="#bfbfbf" points="528.5,-0.5 528.5,-19.5 573.5,-19.5 573.5,-0.5 528.5,-0.5"/>
<text text-anchor="middle" x="551" y="-7.5" font-family="FreeSans.ttf" font-size="10.00">stdio.h</text>
</a>
</g>
</g>
<!-- Node13&#45;&gt;Node15 -->
<g id="edge17" class="edge">
<title>Node13&#45;&gt;Node15</title>
<path fill="none" stroke="midnightblue" d="M516.83,-112.49C505.86,-99.99 488.76,-75.96 498,-56 503.92,-43.21 515.47,-32.72 526.28,-25.1"/>
<polygon fill="midnightblue" stroke="midnightblue" points="528.21,-28.02 534.67,-19.61 524.38,-22.16 528.21,-28.02"/>
</g>
<!-- Node16 -->
<g id="node16" class="node">
<title>Node16</title>
<g id="a_node16"><a xlink:title=" ">
<polygon fill="none" stroke="#bfbfbf" points="506.5,-56.5 506.5,-75.5 549.5,-75.5 549.5,-56.5 506.5,-56.5"/>
<text text-anchor="middle" x="528" y="-63.5" font-family="FreeSans.ttf" font-size="10.00">cufft.h</text>
</a>
</g>
</g>
<!-- Node13&#45;&gt;Node16 -->
<g id="edge18" class="edge">
<title>Node13&#45;&gt;Node16</title>
<path fill="none" stroke="midnightblue" d="M525.5,-112.08C525.89,-105.01 526.45,-94.86 526.95,-85.99"/>
<polygon fill="midnightblue" stroke="midnightblue" points="530.45,-85.93 527.51,-75.75 523.46,-85.54 530.45,-85.93"/>
</g>
<!-- Node13&#45;&gt;Node17 -->
<g id="edge19" class="edge">
<title>Node13&#45;&gt;Node17</title>
<path fill="none" stroke="midnightblue" d="M551.14,-112.44C579.02,-103.32 623.35,-88.81 654.4,-78.65"/>
<polygon fill="midnightblue" stroke="midnightblue" points="655.56,-81.95 663.98,-75.52 653.38,-75.3 655.56,-81.95"/>
</g>
<!-- Node22 -->
<g id="node22" class="node">
<title>Node22</title>
<g id="a_node22"><a xlink:title=" ">
<polygon fill="none" stroke="#bfbfbf" points="567.5,-56.5 567.5,-75.5 618.5,-75.5 618.5,-56.5 567.5,-56.5"/>
<text text-anchor="middle" x="593" y="-63.5" font-family="FreeSans.ttf" font-size="10.00">stdarg.h</text>
</a>
</g>
</g>
<!-- Node13&#45;&gt;Node22 -->
<g id="edge29" class="edge">
<title>Node13&#45;&gt;Node22</title>
<path fill="none" stroke="midnightblue" d="M535.93,-112.32C546.17,-104.18 561.72,-91.84 574,-82.09"/>
<polygon fill="midnightblue" stroke="midnightblue" points="576.22,-84.79 581.88,-75.83 571.87,-79.31 576.22,-84.79"/>
</g>
<!-- Node17&#45;&gt;Node5 -->
<g id="edge22" class="edge">
<title>Node17&#45;&gt;Node5</title>
<path fill="none" stroke="midnightblue" d="M636.29,-56.8C573.68,-47.12 472.98,-31.16 419.66,-19.89"/>
<polygon fill="midnightblue" stroke="midnightblue" points="420.16,-16.42 409.65,-17.7 418.67,-23.26 420.16,-16.42"/>
</g>
<!-- Node17&#45;&gt;Node6 -->
<g id="edge24" class="edge">
<title>Node17&#45;&gt;Node6</title>
<path fill="none" stroke="midnightblue" d="M743.53,-58.32C831.45,-47.36 1004.47,-25.78 1082.79,-16.01"/>
<polygon fill="midnightblue" stroke="midnightblue" points="1083.26,-19.48 1092.75,-14.77 1082.4,-12.54 1083.26,-19.48"/>
</g>
<!-- Node17&#45;&gt;Node14 -->
<g id="edge23" class="edge">
<title>Node17&#45;&gt;Node14</title>
<path fill="none" stroke="midnightblue" d="M654.98,-56.44C616.75,-47.1 555.43,-32.12 513.74,-21.93"/>
<polygon fill="midnightblue" stroke="midnightblue" points="514.4,-18.49 503.85,-19.52 512.74,-25.29 514.4,-18.49"/>
</g>
<!-- Node17&#45;&gt;Node15 -->
<g id="edge21" class="edge">
<title>Node17&#45;&gt;Node15</title>
<path fill="none" stroke="midnightblue" d="M667.98,-56.44C644.9,-47.48 608.44,-33.31 582.36,-23.18"/>
<polygon fill="midnightblue" stroke="midnightblue" points="583.51,-19.88 572.92,-19.52 580.98,-26.4 583.51,-19.88"/>
</g>
<!-- Node18 -->
<g id="node18" class="node">
<title>Node18</title>
<g id="a_node18"><a xlink:title=" ">
<polygon fill="none" stroke="#bfbfbf" points="725.5,-0.5 725.5,-19.5 772.5,-19.5 772.5,-0.5 725.5,-0.5"/>
<text text-anchor="middle" x="749" y="-7.5" font-family="FreeSans.ttf" font-size="10.00">stdlib.h</text>
</a>
</g>
</g>
<!-- Node17&#45;&gt;Node18 -->
<g id="edge20" class="edge">
<title>Node17&#45;&gt;Node18</title>
<path fill="none" stroke="midnightblue" d="M699.48,-56.32C708.2,-48.34 721.34,-36.31 731.9,-26.65"/>
<polygon fill="midnightblue" stroke="midnightblue" points="734.33,-29.17 739.35,-19.83 729.61,-24 734.33,-29.17"/>
</g>
<!-- Node17&#45;&gt;Node19 -->
<g id="edge25" class="edge">
<title>Node17&#45;&gt;Node19</title>
<path fill="none" stroke="midnightblue" d="M709.49,-56.44C729.64,-47.6 761.32,-33.69 784.33,-23.59"/>
<polygon fill="midnightblue" stroke="midnightblue" points="785.85,-26.74 793.6,-19.52 783.04,-20.33 785.85,-26.74"/>
</g>
<!-- Node20 -->
<g id="node20" class="node">
<title>Node20</title>
<g id="a_node20"><a xlink:title=" ">
<polygon fill="none" stroke="#bfbfbf" points="592,-0.5 592,-19.5 638,-19.5 638,-0.5 592,-0.5"/>
<text text-anchor="middle" x="615" y="-7.5" font-family="FreeSans.ttf" font-size="10.00">math.h</text>
</a>
</g>
</g>
<!-- Node17&#45;&gt;Node20 -->
<g id="edge26" class="edge">
<title>Node17&#45;&gt;Node20</title>
<path fill="none" stroke="midnightblue" d="M677.95,-56.32C666.54,-48.11 649.17,-35.6 635.57,-25.81"/>
<polygon fill="midnightblue" stroke="midnightblue" points="637.43,-22.84 627.27,-19.83 633.34,-28.52 637.43,-22.84"/>
</g>
<!-- Node21 -->
<g id="node21" class="node">
<title>Node21</title>
<g id="a_node21"><a xlink:title=" ">
<polygon fill="none" stroke="#bfbfbf" points="656.5,-0.5 656.5,-19.5 707.5,-19.5 707.5,-0.5 656.5,-0.5"/>
<text text-anchor="middle" x="682" y="-7.5" font-family="FreeSans.ttf" font-size="10.00">assert.h</text>
</a>
</g>
</g>
<!-- Node17&#45;&gt;Node21 -->
<g id="edge27" class="edge">
<title>Node17&#45;&gt;Node21</title>
<path fill="none" stroke="midnightblue" d="M688.68,-56.08C687.62,-48.93 686.09,-38.64 684.77,-29.69"/>
<polygon fill="midnightblue" stroke="midnightblue" points="688.22,-29.13 683.3,-19.75 681.3,-30.16 688.22,-29.13"/>
</g>
<!-- Node24&#45;&gt;Node8 -->
<g id="edge37" class="edge">
<title>Node24&#45;&gt;Node8</title>
<path fill="none" stroke="midnightblue" d="M1117.58,-280.44C1069.48,-270.96 991.91,-255.67 940.19,-245.48"/>
<polygon fill="midnightblue" stroke="midnightblue" points="940.7,-242.02 930.21,-243.52 939.35,-248.88 940.7,-242.02"/>
</g>
<!-- Node24&#45;&gt;Node9 -->
<g id="edge36" class="edge">
<title>Node24&#45;&gt;Node9</title>
<path fill="none" stroke="midnightblue" d="M1158.02,-280.37C1151.86,-262.54 1137.61,-221.3 1129.31,-197.27"/>
<polygon fill="midnightblue" stroke="midnightblue" points="1132.54,-195.9 1125.97,-187.59 1125.93,-198.19 1132.54,-195.9"/>
</g>
<!-- Node25 -->
<g id="node25" class="node">
<title>Node25</title>
<g id="a_node25"><a xlink:href="balanced__operator_8hpp.html" target="_top" xlink:title=" ">
<polygon fill="none" stroke="black" points="1189,-224.5 1189,-243.5 1303,-243.5 1303,-224.5 1189,-224.5"/>
<text text-anchor="middle" x="1246" y="-231.5" font-family="FreeSans.ttf" font-size="10.00">balanced_operator.hpp</text>
</a>
</g>
</g>
<!-- Node24&#45;&gt;Node25 -->
<g id="edge38" class="edge">
<title>Node24&#45;&gt;Node25</title>
<path fill="none" stroke="midnightblue" d="M1174.66,-280.32C1187.92,-271.9 1208.27,-258.97 1223.85,-249.07"/>
<polygon fill="midnightblue" stroke="midnightblue" points="1225.81,-251.97 1232.38,-243.65 1222.06,-246.06 1225.81,-251.97"/>
</g>
<!-- Node25&#45;&gt;Node9 -->
<g id="edge39" class="edge">
<title>Node25&#45;&gt;Node9</title>
<path fill="none" stroke="midnightblue" d="M1226.51,-224.44C1206.36,-215.6 1174.68,-201.69 1151.67,-191.59"/>
<polygon fill="midnightblue" stroke="midnightblue" points="1152.96,-188.33 1142.4,-187.52 1150.15,-194.74 1152.96,-188.33"/>
</g>
<!-- Node26&#45;&gt;Node8 -->
<g id="edge44" class="edge">
<title>Node26&#45;&gt;Node8</title>
<path fill="none" stroke="midnightblue" d="M965.06,-280.32C950.41,-271.82 927.87,-258.73 910.76,-248.8"/>
<polygon fill="midnightblue" stroke="midnightblue" points="912.31,-245.65 901.9,-243.65 908.8,-251.7 912.31,-245.65"/>
</g>
<!-- Node26&#45;&gt;Node9 -->
<g id="edge43" class="edge">
<title>Node26&#45;&gt;Node9</title>
<path fill="none" stroke="midnightblue" d="M1035.33,-280.48C1059.36,-274.14 1086.06,-263.12 1104,-244 1115.68,-231.55 1120.22,-212.32 1121.97,-198"/>
<polygon fill="midnightblue" stroke="midnightblue" points="1125.47,-198.05 1122.85,-187.79 1118.5,-197.45 1125.47,-198.05"/>
</g>
<!-- Node27 -->
<g id="node27" class="node">
<title>Node27</title>
<g id="a_node27"><a xlink:title=" ">
<polygon fill="none" stroke="#bfbfbf" points="967,-224.5 967,-243.5 1017,-243.5 1017,-224.5 967,-224.5"/>
<text text-anchor="middle" x="992" y="-231.5" font-family="FreeSans.ttf" font-size="10.00">typeinfo</text>
</a>
</g>
</g>
<!-- Node26&#45;&gt;Node27 -->
<g id="edge41" class="edge">
<title>Node26&#45;&gt;Node27</title>
<path fill="none" stroke="midnightblue" d="M981.98,-280.08C983.57,-272.93 985.86,-262.64 987.85,-253.69"/>
<polygon fill="midnightblue" stroke="midnightblue" points="991.3,-254.27 990.06,-243.75 984.47,-252.75 991.3,-254.27"/>
</g>
<!-- Node28 -->
<g id="node28" class="node">
<title>Node28</title>
<g id="a_node28"><a xlink:title=" ">
<polygon fill="none" stroke="#bfbfbf" points="1035.5,-224.5 1035.5,-243.5 1094.5,-243.5 1094.5,-224.5 1035.5,-224.5"/>
<text text-anchor="middle" x="1065" y="-231.5" font-family="FreeSans.ttf" font-size="10.00">stdexcept</text>
</a>
</g>
</g>
<!-- Node26&#45;&gt;Node28 -->
<g id="edge42" class="edge">
<title>Node26&#45;&gt;Node28</title>
<path fill="none" stroke="midnightblue" d="M993.66,-280.32C1006.92,-271.9 1027.27,-258.97 1042.85,-249.07"/>
<polygon fill="midnightblue" stroke="midnightblue" points="1044.81,-251.97 1051.38,-243.65 1041.06,-246.06 1044.81,-251.97"/>
</g>
<!-- Node29&#45;&gt;Node9 -->
<g id="edge46" class="edge">
<title>Node29&#45;&gt;Node9</title>
<path fill="none" stroke="midnightblue" d="M1278.61,-336.18C1300.75,-311.14 1339.45,-258.75 1312,-224 1296.73,-204.66 1237.32,-192.74 1189.14,-186.07"/>
<polygon fill="midnightblue" stroke="midnightblue" points="1189.42,-182.57 1179.05,-184.72 1188.5,-189.51 1189.42,-182.57"/>
</g>
<!-- Node29&#45;&gt;Node25 -->
<g id="edge48" class="edge">
<title>Node29&#45;&gt;Node25</title>
<path fill="none" stroke="midnightblue" d="M1262.9,-336.44C1260.74,-322.2 1257.26,-299.55 1254,-280 1252.55,-271.28 1250.84,-261.63 1249.38,-253.51"/>
<polygon fill="midnightblue" stroke="midnightblue" points="1252.82,-252.83 1247.59,-243.62 1245.93,-254.08 1252.82,-252.83"/>
</g>
<!-- Node29&#45;&gt;Node26 -->
<g id="edge47" class="edge">
<title>Node29&#45;&gt;Node26</title>
<path fill="none" stroke="midnightblue" d="M1197.82,-336.47C1146.61,-325.78 1077.19,-311.29 1030.61,-301.57"/>
<polygon fill="midnightblue" stroke="midnightblue" points="1031.25,-298.12 1020.74,-299.51 1029.82,-304.98 1031.25,-298.12"/>
</g>
<!-- Node33&#45;&gt;Node8 -->
<g id="edge56" class="edge">
<title>Node33&#45;&gt;Node8</title>
<path fill="none" stroke="midnightblue" d="M747.3,-280.44C775.35,-271.32 819.94,-256.81 851.18,-246.65"/>
<polygon fill="midnightblue" stroke="midnightblue" points="852.39,-249.94 860.82,-243.52 850.23,-243.28 852.39,-249.94"/>
</g>
<!-- Node33&#45;&gt;Node13 -->
<g id="edge55" class="edge">
<title>Node33&#45;&gt;Node13</title>
<path fill="none" stroke="midnightblue" d="M673.31,-282.64C644.9,-276.73 609.69,-265.44 585,-244 553.24,-216.43 536.53,-168.09 529.37,-141.62"/>
<polygon fill="midnightblue" stroke="midnightblue" points="532.72,-140.58 526.87,-131.74 525.93,-142.29 532.72,-140.58"/>
</g>
<!-- Node33&#45;&gt;Node17 -->
<g id="edge57" class="edge">
<title>Node33&#45;&gt;Node17</title>
<path fill="none" stroke="midnightblue" d="M706.54,-280.35C682.73,-265.17 636.13,-231.18 618,-188 601,-147.53 643.28,-104.3 670.03,-82.1"/>
<polygon fill="midnightblue" stroke="midnightblue" points="672.46,-84.64 678.08,-75.65 668.09,-79.17 672.46,-84.64"/>
</g>
<!-- Node33&#45;&gt;Node19 -->
<g id="edge58" class="edge">
<title>Node33&#45;&gt;Node19</title>
<path fill="none" stroke="midnightblue" d="M724.06,-280.38C730.23,-262.96 744.53,-222.32 756,-188 775.22,-130.48 796.93,-62.07 807.12,-29.72"/>
<polygon fill="midnightblue" stroke="midnightblue" points="810.56,-30.45 810.22,-19.86 803.88,-28.35 810.56,-30.45"/>
</g>
</g>
</svg>
