<?xml version="1.0" encoding="UTF-8" standalone="no"?>
<!DOCTYPE svg PUBLIC "-//W3C//DTD SVG 1.1//EN"
 "http://www.w3.org/Graphics/SVG/1.1/DTD/svg11.dtd">
<!-- Generated by graphviz version 2.49.3 (20211027.1534)
 -->
<!-- Title: python/inc/python_factory.hpp Pages: 1 -->
<svg width="1198pt" height="487pt"
 viewBox="0.00 0.00 1198.00 487.00" xmlns="http://www.w3.org/2000/svg" xmlns:xlink="http://www.w3.org/1999/xlink">
<g id="graph0" class="graph" transform="scale(1 1) rotate(0) translate(4 483)">
<title>python/inc/python_factory.hpp</title>
<!-- Node1 -->
<g id="node1" class="node">
<title>Node1</title>
<g id="a_node1"><a xlink:title=" ">
<polygon fill="#bfbfbf" stroke="black" points="212.5,-459.5 212.5,-478.5 357.5,-478.5 357.5,-459.5 212.5,-459.5"/>
<text text-anchor="middle" x="285" y="-466.5" font-family="FreeSans.ttf" font-size="10.00">python/inc/python_factory.hpp</text>
</a>
</g>
</g>
<!-- Node2 -->
<g id="node2" class="node">
<title>Node2</title>
<g id="a_node2"><a xlink:title=" ">
<polygon fill="none" stroke="#bfbfbf" points="0,-403.5 0,-422.5 104,-422.5 104,-403.5 0,-403.5"/>
<text text-anchor="middle" x="52" y="-410.5" font-family="FreeSans.ttf" font-size="10.00">pybind11/pybind11.h</text>
</a>
</g>
</g>
<!-- Node1&#45;&gt;Node2 -->
<g id="edge1" class="edge">
<title>Node1&#45;&gt;Node2</title>
<path fill="none" stroke="midnightblue" d="M248.08,-459.44C207.6,-450.06 142.58,-434.99 98.62,-424.8"/>
<polygon fill="midnightblue" stroke="midnightblue" points="99.28,-421.36 88.75,-422.52 97.7,-428.18 99.28,-421.36"/>
</g>
<!-- Node3 -->
<g id="node3" class="node">
<title>Node3</title>
<g id="a_node3"><a xlink:title=" ">
<polygon fill="none" stroke="#bfbfbf" points="122,-403.5 122,-422.5 216,-422.5 216,-403.5 122,-403.5"/>
<text text-anchor="middle" x="169" y="-410.5" font-family="FreeSans.ttf" font-size="10.00">pybind11/numpy.h</text>
</a>
</g>
</g>
<!-- Node1&#45;&gt;Node3 -->
<g id="edge2" class="edge">
<title>Node1&#45;&gt;Node3</title>
<path fill="none" stroke="midnightblue" d="M266.62,-459.44C247.78,-450.68 218.27,-436.94 196.62,-426.86"/>
<polygon fill="midnightblue" stroke="midnightblue" points="197.84,-423.56 187.29,-422.52 194.88,-429.91 197.84,-423.56"/>
</g>
<!-- Node4 -->
<g id="node4" class="node">
<title>Node4</title>
<g id="a_node4"><a xlink:title=" ">
<polygon fill="none" stroke="#bfbfbf" points="234.5,-403.5 234.5,-422.5 335.5,-422.5 335.5,-403.5 234.5,-403.5"/>
<text text-anchor="middle" x="285" y="-410.5" font-family="FreeSans.ttf" font-size="10.00">pybind11/complex.h</text>
</a>
</g>
</g>
<!-- Node1&#45;&gt;Node4 -->
<g id="edge3" class="edge">
<title>Node1&#45;&gt;Node4</title>
<path fill="none" stroke="midnightblue" d="M285,-459.08C285,-452.01 285,-441.86 285,-432.99"/>
<polygon fill="midnightblue" stroke="midnightblue" points="288.5,-432.75 285,-422.75 281.5,-432.75 288.5,-432.75"/>
</g>
<!-- Node5 -->
<g id="node5" class="node">
<title>Node5</title>
<g id="a_node5"><a xlink:title=" ">
<polygon fill="none" stroke="#bfbfbf" points="491,-0.5 491,-19.5 551,-19.5 551,-0.5 491,-0.5"/>
<text text-anchor="middle" x="521" y="-7.5" font-family="FreeSans.ttf" font-size="10.00">config.hpp</text>
</a>
</g>
</g>
<!-- Node1&#45;&gt;Node5 -->
<g id="edge4" class="edge">
<title>Node1&#45;&gt;Node5</title>
<path fill="none" stroke="midnightblue" d="M301.38,-459.46C314.74,-451.68 333.12,-438.97 344,-423 362.33,-396.08 364,-385.07 364,-352.5 364,-352.5 364,-352.5 364,-121 364,-63.95 434.4,-33.98 480.91,-20.4"/>
<polygon fill="midnightblue" stroke="midnightblue" points="482.03,-23.73 490.73,-17.68 480.16,-16.98 482.03,-23.73"/>
</g>
<!-- Node6 -->
<g id="node6" class="node">
<title>Node6</title>
<g id="a_node6"><a xlink:href="gpuNUFFT__operator__factory_8hpp.html" target="_top" xlink:title=" ">
<polygon fill="none" stroke="black" points="820,-403.5 820,-422.5 978,-422.5 978,-403.5 820,-403.5"/>
<text text-anchor="middle" x="899" y="-410.5" font-family="FreeSans.ttf" font-size="10.00">gpuNUFFT_operator_factory.hpp</text>
</a>
</g>
</g>
<!-- Node1&#45;&gt;Node6 -->
<g id="edge5" class="edge">
<title>Node1&#45;&gt;Node6</title>
<path fill="none" stroke="midnightblue" d="M357.54,-461.62C470.36,-451.7 687.55,-432.6 809.79,-421.85"/>
<polygon fill="midnightblue" stroke="midnightblue" points="810.21,-425.32 819.87,-420.96 809.6,-418.35 810.21,-425.32"/>
</g>
<!-- Node6&#45;&gt;Node5 -->
<g id="edge6" class="edge">
<title>Node6&#45;&gt;Node5</title>
<path fill="none" stroke="midnightblue" d="M819.97,-409.01C679.75,-401.52 402,-375.98 402,-291 402,-291 402,-291 402,-121 402,-73.3 454.2,-40.53 489.46,-23.84"/>
<polygon fill="midnightblue" stroke="midnightblue" points="491.23,-26.88 498.9,-19.56 488.34,-20.5 491.23,-26.88"/>
</g>
<!-- Node7 -->
<g id="node7" class="node">
<title>Node7</title>
<g id="a_node7"><a xlink:href="gpuNUFFT__operator_8hpp.html" target="_top" xlink:title=" ">
<polygon fill="none" stroke="black" points="822,-224.5 822,-243.5 946,-243.5 946,-224.5 822,-224.5"/>
<text text-anchor="middle" x="884" y="-231.5" font-family="FreeSans.ttf" font-size="10.00">gpuNUFFT_operator.hpp</text>
</a>
</g>
</g>
<!-- Node6&#45;&gt;Node7 -->
<g id="edge7" class="edge">
<title>Node6&#45;&gt;Node7</title>
<path fill="none" stroke="midnightblue" d="M898.28,-403.46C895.99,-376.43 888.85,-292.24 885.62,-254.11"/>
<polygon fill="midnightblue" stroke="midnightblue" points="889.08,-253.54 884.75,-243.87 882.11,-254.13 889.08,-253.54"/>
</g>
<!-- Node12 -->
<g id="node12" class="node">
<title>Node12</title>
<g id="a_node12"><a xlink:href="cuda__utils_8hpp.html" target="_top" xlink:title="Util functions for CUDA memory and texture management.">
<polygon fill="none" stroke="black" points="985.5,-112.5 985.5,-131.5 1064.5,-131.5 1064.5,-112.5 985.5,-112.5"/>
<text text-anchor="middle" x="1025" y="-119.5" font-family="FreeSans.ttf" font-size="10.00">cuda_utils.hpp</text>
</a>
</g>
</g>
<!-- Node6&#45;&gt;Node12 -->
<g id="edge52" class="edge">
<title>Node6&#45;&gt;Node12</title>
<path fill="none" stroke="midnightblue" d="M978.02,-405.69C1036.59,-399.41 1109.93,-387.65 1132,-367 1157.51,-343.14 1152,-325.93 1152,-291 1152,-291 1152,-291 1152,-233 1152,-183.87 1097.01,-151.77 1059.4,-135.56"/>
<polygon fill="midnightblue" stroke="midnightblue" points="1060.37,-132.17 1049.79,-131.59 1057.7,-138.64 1060.37,-132.17"/>
</g>
<!-- Node19 -->
<g id="node19" class="node">
<title>Node19</title>
<g id="a_node19"><a xlink:title=" ">
<polygon fill="none" stroke="#bfbfbf" points="1123,-0.5 1123,-19.5 1167,-19.5 1167,-0.5 1123,-0.5"/>
<text text-anchor="middle" x="1145" y="-7.5" font-family="FreeSans.ttf" font-size="10.00">cmath</text>
</a>
</g>
</g>
<!-- Node6&#45;&gt;Node19 -->
<g id="edge51" class="edge">
<title>Node6&#45;&gt;Node19</title>
<path fill="none" stroke="midnightblue" d="M978.29,-406.09C1042.96,-399.83 1127.88,-387.9 1155,-367 1184.45,-344.3 1190,-328.19 1190,-291 1190,-291 1190,-291 1190,-121 1190,-85.93 1170.16,-48.94 1156.83,-28.04"/>
<polygon fill="midnightblue" stroke="midnightblue" points="1159.7,-26.03 1151.26,-19.63 1153.87,-29.9 1159.7,-26.03"/>
</g>
<!-- Node24 -->
<g id="node24" class="node">
<title>Node24</title>
<g id="a_node24"><a xlink:href="balanced__gpuNUFFT__operator_8hpp.html" target="_top" xlink:title=" ">
<polygon fill="none" stroke="black" points="470,-280.5 470,-299.5 638,-299.5 638,-280.5 470,-280.5"/>
<text text-anchor="middle" x="554" y="-287.5" font-family="FreeSans.ttf" font-size="10.00">balanced_gpuNUFFT_operator.hpp</text>
</a>
</g>
</g>
<!-- Node6&#45;&gt;Node24 -->
<g id="edge34" class="edge">
<title>Node6&#45;&gt;Node24</title>
<path fill="none" stroke="midnightblue" d="M819.74,-409.11C739.86,-404.71 623.48,-393.8 588,-367 569.75,-353.21 561.07,-327.43 557.1,-309.75"/>
<polygon fill="midnightblue" stroke="midnightblue" points="560.5,-308.89 555.16,-299.74 553.63,-310.22 560.5,-308.89"/>
</g>
<!-- Node26 -->
<g id="node26" class="node">
<title>Node26</title>
<g id="a_node26"><a xlink:href="texture__gpuNUFFT__operator_8hpp.html" target="_top" xlink:title=" ">
<polygon fill="none" stroke="black" points="694,-280.5 694,-299.5 852,-299.5 852,-280.5 694,-280.5"/>
<text text-anchor="middle" x="773" y="-287.5" font-family="FreeSans.ttf" font-size="10.00">texture_gpuNUFFT_operator.hpp</text>
</a>
</g>
</g>
<!-- Node6&#45;&gt;Node26 -->
<g id="edge39" class="edge">
<title>Node6&#45;&gt;Node26</title>
<path fill="none" stroke="midnightblue" d="M889.94,-403.3C868.87,-383.07 816.34,-332.62 789.44,-306.79"/>
<polygon fill="midnightblue" stroke="midnightblue" points="791.62,-304.03 781.98,-299.62 786.77,-309.07 791.62,-304.03"/>
</g>
<!-- Node29 -->
<g id="node29" class="node">
<title>Node29</title>
<g id="a_node29"><a xlink:href="balanced__texture__gpuNUFFT__operator_8hpp.html" target="_top" xlink:title=" ">
<polygon fill="none" stroke="black" points="597,-336.5 597,-366.5 741,-366.5 741,-336.5 597,-336.5"/>
<text text-anchor="start" x="605" y="-354.5" font-family="FreeSans.ttf" font-size="10.00">balanced_texture_gpuNUFFT</text>
<text text-anchor="middle" x="669" y="-343.5" font-family="FreeSans.ttf" font-size="10.00">_operator.hpp</text>
</a>
</g>
</g>
<!-- Node6&#45;&gt;Node29 -->
<g id="edge44" class="edge">
<title>Node6&#45;&gt;Node29</title>
<path fill="none" stroke="midnightblue" d="M866.05,-403.48C831.48,-394.53 776.26,-380.25 733.07,-369.07"/>
<polygon fill="midnightblue" stroke="midnightblue" points="733.76,-365.64 723.21,-366.52 732.01,-372.42 733.76,-365.64"/>
</g>
<!-- Node30 -->
<g id="node30" class="node">
<title>Node30</title>
<g id="a_node30"><a xlink:title=" ">
<polygon fill="none" stroke="#bfbfbf" points="946,-342 946,-361 1002,-361 1002,-342 946,-342"/>
<text text-anchor="middle" x="974" y="-349" font-family="FreeSans.ttf" font-size="10.00">algorithm</text>
</a>
</g>
</g>
<!-- Node6&#45;&gt;Node30 -->
<g id="edge48" class="edge">
<title>Node6&#45;&gt;Node30</title>
<path fill="none" stroke="midnightblue" d="M909.75,-403.48C921.55,-394.11 940.74,-378.88 955.08,-367.51"/>
<polygon fill="midnightblue" stroke="midnightblue" points="957.62,-369.97 963.27,-361.01 953.26,-364.48 957.62,-369.97"/>
</g>
<!-- Node31 -->
<g id="node31" class="node">
<title>Node31</title>
<g id="a_node31"><a xlink:title=" ">
<polygon fill="none" stroke="#bfbfbf" points="1020,-342 1020,-361 1064,-361 1064,-342 1020,-342"/>
<text text-anchor="middle" x="1042" y="-349" font-family="FreeSans.ttf" font-size="10.00">vector</text>
</a>
</g>
</g>
<!-- Node6&#45;&gt;Node31 -->
<g id="edge49" class="edge">
<title>Node6&#45;&gt;Node31</title>
<path fill="none" stroke="midnightblue" d="M921.46,-403.4C944.19,-394.6 980.25,-380.36 1011,-367 1012.2,-366.48 1013.41,-365.94 1014.64,-365.4"/>
<polygon fill="midnightblue" stroke="midnightblue" points="1016.4,-368.44 1024.05,-361.1 1013.49,-362.07 1016.4,-368.44"/>
</g>
<!-- Node32 -->
<g id="node32" class="node">
<title>Node32</title>
<g id="a_node32"><a xlink:title=" ">
<polygon fill="none" stroke="#bfbfbf" points="1082.5,-342 1082.5,-361 1123.5,-361 1123.5,-342 1082.5,-342"/>
<text text-anchor="middle" x="1103" y="-349" font-family="FreeSans.ttf" font-size="10.00">string</text>
</a>
</g>
</g>
<!-- Node6&#45;&gt;Node32 -->
<g id="edge50" class="edge">
<title>Node6&#45;&gt;Node32</title>
<path fill="none" stroke="midnightblue" d="M941.55,-403.46C977.22,-395.72 1029.21,-383.07 1073,-367 1074.43,-366.48 1075.87,-365.91 1077.33,-365.31"/>
<polygon fill="midnightblue" stroke="midnightblue" points="1079.06,-368.37 1086.75,-361.07 1076.19,-361.98 1079.06,-368.37"/>
</g>
<!-- Node33 -->
<g id="node33" class="node">
<title>Node33</title>
<g id="a_node33"><a xlink:href="precomp__utils_8hpp.html" target="_top" xlink:title="UTIL functions for precomputation.">
<polygon fill="none" stroke="black" points="939.5,-280.5 939.5,-299.5 1034.5,-299.5 1034.5,-280.5 939.5,-280.5"/>
<text text-anchor="middle" x="987" y="-287.5" font-family="FreeSans.ttf" font-size="10.00">precomp_utils.hpp</text>
</a>
</g>
</g>
<!-- Node6&#45;&gt;Node33 -->
<g id="edge53" class="edge">
<title>Node6&#45;&gt;Node33</title>
<path fill="none" stroke="midnightblue" d="M902.06,-403.43C907.58,-388.71 920.2,-358.06 937,-336 945.54,-324.79 957.13,-314.15 967.01,-306.03"/>
<polygon fill="midnightblue" stroke="midnightblue" points="969.46,-308.56 975.12,-299.6 965.11,-303.07 969.46,-308.56"/>
</g>
<!-- Node7&#45;&gt;Node5 -->
<g id="edge30" class="edge">
<title>Node7&#45;&gt;Node5</title>
<path fill="none" stroke="midnightblue" d="M834.07,-224.49C790.8,-216.28 732.35,-202.93 714,-188 684.71,-164.17 701.14,-140.18 676,-112 639.8,-71.43 583.7,-40.35 549.84,-23.95"/>
<polygon fill="midnightblue" stroke="midnightblue" points="551.04,-20.64 540.51,-19.53 548.05,-26.97 551.04,-20.64"/>
</g>
<!-- Node8 -->
<g id="node8" class="node">
<title>Node8</title>
<g id="a_node8"><a xlink:href="gpuNUFFT__types_8hpp.html" target="_top" xlink:title="Definition of gpuNUFFT defined types.">
<polygon fill="none" stroke="black" points="479,-168.5 479,-187.5 591,-187.5 591,-168.5 479,-168.5"/>
<text text-anchor="middle" x="535" y="-175.5" font-family="FreeSans.ttf" font-size="10.00">gpuNUFFT_types.hpp</text>
</a>
</g>
</g>
<!-- Node7&#45;&gt;Node8 -->
<g id="edge8" class="edge">
<title>Node7&#45;&gt;Node8</title>
<path fill="none" stroke="midnightblue" d="M828.7,-224.44C766.67,-214.85 666.14,-199.29 600.3,-189.1"/>
<polygon fill="midnightblue" stroke="midnightblue" points="600.46,-185.59 590.04,-187.52 599.39,-192.5 600.46,-185.59"/>
</g>
<!-- Node9 -->
<g id="node9" class="node">
<title>Node9</title>
<g id="a_node9"><a xlink:title=" ">
<polygon fill="none" stroke="#bfbfbf" points="549.5,-112.5 549.5,-131.5 594.5,-131.5 594.5,-112.5 549.5,-112.5"/>
<text text-anchor="middle" x="572" y="-119.5" font-family="FreeSans.ttf" font-size="10.00">cstdlib</text>
</a>
</g>
</g>
<!-- Node7&#45;&gt;Node9 -->
<g id="edge31" class="edge">
<title>Node7&#45;&gt;Node9</title>
<path fill="none" stroke="midnightblue" d="M826.67,-224.49C770.24,-215.58 688.38,-201.1 659,-188 631.73,-175.84 604.9,-153.84 588.4,-138.84"/>
<polygon fill="midnightblue" stroke="midnightblue" points="590.47,-135.98 580.77,-131.72 585.7,-141.1 590.47,-135.98"/>
</g>
<!-- Node10 -->
<g id="node10" class="node">
<title>Node10</title>
<g id="a_node10"><a xlink:title=" ">
<polygon fill="none" stroke="#bfbfbf" points="613,-112.5 613,-131.5 667,-131.5 667,-112.5 613,-112.5"/>
<text text-anchor="middle" x="640" y="-119.5" font-family="FreeSans.ttf" font-size="10.00">iostream</text>
</a>
</g>
</g>
<!-- Node7&#45;&gt;Node10 -->
<g id="edge32" class="edge">
<title>Node7&#45;&gt;Node10</title>
<path fill="none" stroke="midnightblue" d="M821.82,-224.57C770.8,-216.69 703.44,-203.79 681,-188 664.67,-176.51 653.42,-156.24 646.89,-141.38"/>
<polygon fill="midnightblue" stroke="midnightblue" points="649.97,-139.67 642.97,-131.72 643.49,-142.3 649.97,-139.67"/>
</g>
<!-- Node11 -->
<g id="node11" class="node">
<title>Node11</title>
<g id="a_node11"><a xlink:href="gpuNUFFT__kernels_8hpp.html" target="_top" xlink:title="gpuNUFFT CUDA function prototypes">
<polygon fill="none" stroke="black" points="801,-168.5 801,-187.5 921,-187.5 921,-168.5 801,-168.5"/>
<text text-anchor="middle" x="861" y="-175.5" font-family="FreeSans.ttf" font-size="10.00">gpuNUFFT_kernels.hpp</text>
</a>
</g>
</g>
<!-- Node7&#45;&gt;Node11 -->
<g id="edge12" class="edge">
<title>Node7&#45;&gt;Node11</title>
<path fill="none" stroke="midnightblue" d="M880.2,-224.08C877.09,-216.77 872.58,-206.18 868.71,-197.1"/>
<polygon fill="midnightblue" stroke="midnightblue" points="871.87,-195.58 864.73,-187.75 865.43,-198.32 871.87,-195.58"/>
</g>
<!-- Node23 -->
<g id="node23" class="node">
<title>Node23</title>
<g id="a_node23"><a xlink:title=" ">
<polygon fill="none" stroke="#bfbfbf" points="723.5,-168.5 723.5,-187.5 782.5,-187.5 782.5,-168.5 723.5,-168.5"/>
<text text-anchor="middle" x="753" y="-175.5" font-family="FreeSans.ttf" font-size="10.00">functional</text>
</a>
</g>
</g>
<!-- Node7&#45;&gt;Node23 -->
<g id="edge33" class="edge">
<title>Node7&#45;&gt;Node23</title>
<path fill="none" stroke="midnightblue" d="M863.24,-224.44C841.68,-215.56 807.74,-201.56 783.21,-191.45"/>
<polygon fill="midnightblue" stroke="midnightblue" points="784.24,-188.09 773.66,-187.52 781.57,-194.56 784.24,-188.09"/>
</g>
<!-- Node8&#45;&gt;Node5 -->
<g id="edge11" class="edge">
<title>Node8&#45;&gt;Node5</title>
<path fill="none" stroke="midnightblue" d="M534.25,-168.08C532.04,-141.95 525.57,-65.21 522.57,-29.58"/>
<polygon fill="midnightblue" stroke="midnightblue" points="526.05,-29.24 521.72,-19.57 519.08,-29.83 526.05,-29.24"/>
</g>
<!-- Node8&#45;&gt;Node9 -->
<g id="edge9" class="edge">
<title>Node8&#45;&gt;Node9</title>
<path fill="none" stroke="midnightblue" d="M541.11,-168.08C546.28,-160.53 553.85,-149.49 560.19,-140.23"/>
<polygon fill="midnightblue" stroke="midnightblue" points="563.24,-141.98 566,-131.75 557.46,-138.02 563.24,-141.98"/>
</g>
<!-- Node8&#45;&gt;Node10 -->
<g id="edge10" class="edge">
<title>Node8&#45;&gt;Node10</title>
<path fill="none" stroke="midnightblue" d="M551.87,-168.32C568.71,-159.66 594.81,-146.24 614.24,-136.25"/>
<polygon fill="midnightblue" stroke="midnightblue" points="615.88,-139.34 623.17,-131.65 612.68,-133.12 615.88,-139.34"/>
</g>
<!-- Node11&#45;&gt;Node12 -->
<g id="edge13" class="edge">
<title>Node11&#45;&gt;Node12</title>
<path fill="none" stroke="midnightblue" d="M886.99,-168.44C914.7,-159.32 958.75,-144.81 989.62,-134.65"/>
<polygon fill="midnightblue" stroke="midnightblue" points="990.73,-137.97 999.14,-131.52 988.54,-131.32 990.73,-137.97"/>
</g>
<!-- Node17 -->
<g id="node17" class="node">
<title>Node17</title>
<g id="a_node17"><a xlink:href="gpuNUFFT__utils_8hpp.html" target="_top" xlink:title="Definition of util functions used in gridding operations.">
<polygon fill="none" stroke="black" points="753.5,-56.5 753.5,-75.5 860.5,-75.5 860.5,-56.5 753.5,-56.5"/>
<text text-anchor="middle" x="807" y="-63.5" font-family="FreeSans.ttf" font-size="10.00">gpuNUFFT_utils.hpp</text>
</a>
</g>
</g>
<!-- Node11&#45;&gt;Node17 -->
<g id="edge29" class="edge">
<title>Node11&#45;&gt;Node17</title>
<path fill="none" stroke="midnightblue" d="M856.76,-168.37C847.93,-150.38 827.4,-108.55 815.65,-84.63"/>
<polygon fill="midnightblue" stroke="midnightblue" points="818.77,-83.03 811.22,-75.59 812.48,-86.11 818.77,-83.03"/>
</g>
<!-- Node12&#45;&gt;Node7 -->
<g id="edge27" class="edge">
<title>Node12&#45;&gt;Node7</title>
<path fill="none" stroke="midnightblue" d="M1013.99,-131.59C990.04,-150.27 933.01,-194.77 903.08,-218.12"/>
<polygon fill="midnightblue" stroke="midnightblue" points="900.8,-215.46 895.06,-224.37 905.1,-220.98 900.8,-215.46"/>
</g>
<!-- Node13 -->
<g id="node13" class="node">
<title>Node13</title>
<g id="a_node13"><a xlink:title=" ">
<polygon fill="none" stroke="#bfbfbf" points="895.5,-0.5 895.5,-19.5 940.5,-19.5 940.5,-0.5 895.5,-0.5"/>
<text text-anchor="middle" x="918" y="-7.5" font-family="FreeSans.ttf" font-size="10.00">cuda.h</text>
</a>
</g>
</g>
<!-- Node12&#45;&gt;Node13 -->
<g id="edge14" class="edge">
<title>Node12&#45;&gt;Node13</title>
<path fill="none" stroke="midnightblue" d="M1023.49,-112.45C1020.75,-99.02 1013.78,-72.78 999,-56 985.85,-41.06 966.49,-30.06 949.99,-22.67"/>
<polygon fill="midnightblue" stroke="midnightblue" points="951.26,-19.4 940.68,-18.73 948.53,-25.85 951.26,-19.4"/>
</g>
<!-- Node14 -->
<g id="node14" class="node">
<title>Node14</title>
<g id="a_node14"><a xlink:title=" ">
<polygon fill="none" stroke="#bfbfbf" points="958.5,-0.5 958.5,-19.5 1041.5,-19.5 1041.5,-0.5 958.5,-0.5"/>
<text text-anchor="middle" x="1000" y="-7.5" font-family="FreeSans.ttf" font-size="10.00">cuda_runtime.h</text>
</a>
</g>
</g>
<!-- Node12&#45;&gt;Node14 -->
<g id="edge15" class="edge">
<title>Node12&#45;&gt;Node14</title>
<path fill="none" stroke="midnightblue" d="M1028.38,-112.36C1032.83,-99.68 1039.37,-75.45 1033,-56 1029.51,-45.34 1022.43,-35.12 1015.71,-27.12"/>
<polygon fill="midnightblue" stroke="midnightblue" points="1018.3,-24.76 1009.02,-19.66 1013.1,-29.44 1018.3,-24.76"/>
</g>
<!-- Node15 -->
<g id="node15" class="node">
<title>Node15</title>
<g id="a_node15"><a xlink:title=" ">
<polygon fill="none" stroke="#bfbfbf" points="1059.5,-0.5 1059.5,-19.5 1104.5,-19.5 1104.5,-0.5 1059.5,-0.5"/>
<text text-anchor="middle" x="1082" y="-7.5" font-family="FreeSans.ttf" font-size="10.00">stdio.h</text>
</a>
</g>
</g>
<!-- Node12&#45;&gt;Node15 -->
<g id="edge16" class="edge">
<title>Node12&#45;&gt;Node15</title>
<path fill="none" stroke="midnightblue" d="M1029.65,-112.4C1034.53,-103.36 1042.38,-88.72 1049,-76 1057.21,-60.23 1066.34,-42.2 1072.92,-29.14"/>
<polygon fill="midnightblue" stroke="midnightblue" points="1076.21,-30.37 1077.57,-19.86 1069.96,-27.23 1076.21,-30.37"/>
</g>
<!-- Node16 -->
<g id="node16" class="node">
<title>Node16</title>
<g id="a_node16"><a xlink:title=" ">
<polygon fill="none" stroke="#bfbfbf" points="947.5,-56.5 947.5,-75.5 990.5,-75.5 990.5,-56.5 947.5,-56.5"/>
<text text-anchor="middle" x="969" y="-63.5" font-family="FreeSans.ttf" font-size="10.00">cufft.h</text>
</a>
</g>
</g>
<!-- Node12&#45;&gt;Node16 -->
<g id="edge17" class="edge">
<title>Node12&#45;&gt;Node16</title>
<path fill="none" stroke="midnightblue" d="M1016,-112.32C1007.81,-104.42 995.49,-92.55 985.53,-82.94"/>
<polygon fill="midnightblue" stroke="midnightblue" points="987.79,-80.26 978.16,-75.83 982.93,-85.29 987.79,-80.26"/>
</g>
<!-- Node12&#45;&gt;Node17 -->
<g id="edge18" class="edge">
<title>Node12&#45;&gt;Node17</title>
<path fill="none" stroke="midnightblue" d="M990.46,-112.44C952.75,-103.1 892.26,-88.12 851.14,-77.93"/>
<polygon fill="midnightblue" stroke="midnightblue" points="851.93,-74.52 841.38,-75.52 850.25,-81.32 851.93,-74.52"/>
</g>
<!-- Node22 -->
<g id="node22" class="node">
<title>Node22</title>
<g id="a_node22"><a xlink:title=" ">
<polygon fill="none" stroke="#bfbfbf" points="878.5,-56.5 878.5,-75.5 929.5,-75.5 929.5,-56.5 878.5,-56.5"/>
<text text-anchor="middle" x="904" y="-63.5" font-family="FreeSans.ttf" font-size="10.00">stdarg.h</text>
</a>
</g>
</g>
<!-- Node12&#45;&gt;Node22 -->
<g id="edge28" class="edge">
<title>Node12&#45;&gt;Node22</title>
<path fill="none" stroke="midnightblue" d="M1005.83,-112.44C986.09,-103.64 955.11,-89.81 932.51,-79.72"/>
<polygon fill="midnightblue" stroke="midnightblue" points="933.64,-76.4 923.08,-75.52 930.79,-82.79 933.64,-76.4"/>
</g>
<!-- Node17&#45;&gt;Node5 -->
<g id="edge23" class="edge">
<title>Node17&#45;&gt;Node5</title>
<path fill="none" stroke="midnightblue" d="M761.68,-56.44C706.46,-46.02 614,-28.56 561.2,-18.59"/>
<polygon fill="midnightblue" stroke="midnightblue" points="561.67,-15.12 551.19,-16.7 560.37,-21.99 561.67,-15.12"/>
</g>
<!-- Node17&#45;&gt;Node13 -->
<g id="edge21" class="edge">
<title>Node17&#45;&gt;Node13</title>
<path fill="none" stroke="midnightblue" d="M824.83,-56.32C842.72,-47.62 870.48,-34.12 891.05,-24.11"/>
<polygon fill="midnightblue" stroke="midnightblue" points="892.75,-27.18 900.21,-19.65 889.69,-20.88 892.75,-27.18"/>
</g>
<!-- Node17&#45;&gt;Node14 -->
<g id="edge22" class="edge">
<title>Node17&#45;&gt;Node14</title>
<path fill="none" stroke="midnightblue" d="M837.58,-56.44C870.61,-47.2 923.39,-32.44 959.77,-22.26"/>
<polygon fill="midnightblue" stroke="midnightblue" points="960.87,-25.58 969.56,-19.52 958.99,-18.84 960.87,-25.58"/>
</g>
<!-- Node17&#45;&gt;Node15 -->
<g id="edge20" class="edge">
<title>Node17&#45;&gt;Node15</title>
<path fill="none" stroke="midnightblue" d="M860.86,-56.47C908.07,-48.67 978.74,-36.21 1049.38,-19.97"/>
<polygon fill="midnightblue" stroke="midnightblue" points="1050.39,-23.32 1059.34,-17.65 1048.81,-16.5 1050.39,-23.32"/>
</g>
<!-- Node18 -->
<g id="node18" class="node">
<title>Node18</title>
<g id="a_node18"><a xlink:title=" ">
<polygon fill="none" stroke="#bfbfbf" points="696.5,-0.5 696.5,-19.5 743.5,-19.5 743.5,-0.5 696.5,-0.5"/>
<text text-anchor="middle" x="720" y="-7.5" font-family="FreeSans.ttf" font-size="10.00">stdlib.h</text>
</a>
</g>
</g>
<!-- Node17&#45;&gt;Node18 -->
<g id="edge19" class="edge">
<title>Node17&#45;&gt;Node18</title>
<path fill="none" stroke="midnightblue" d="M793.02,-56.32C779.45,-47.9 758.62,-34.97 742.68,-25.07"/>
<polygon fill="midnightblue" stroke="midnightblue" points="744.29,-21.95 733.94,-19.65 740.59,-27.9 744.29,-21.95"/>
</g>
<!-- Node17&#45;&gt;Node19 -->
<g id="edge24" class="edge">
<title>Node17&#45;&gt;Node19</title>
<path fill="none" stroke="midnightblue" d="M860.71,-57.19C937.42,-46.03 1072.75,-26.28 1112.62,-19.53"/>
<polygon fill="midnightblue" stroke="midnightblue" points="1113.51,-22.92 1122.71,-17.66 1112.24,-16.04 1113.51,-22.92"/>
</g>
<!-- Node20 -->
<g id="node20" class="node">
<title>Node20</title>
<g id="a_node20"><a xlink:title=" ">
<polygon fill="none" stroke="#bfbfbf" points="762,-0.5 762,-19.5 808,-19.5 808,-0.5 762,-0.5"/>
<text text-anchor="middle" x="785" y="-7.5" font-family="FreeSans.ttf" font-size="10.00">math.h</text>
</a>
</g>
</g>
<!-- Node17&#45;&gt;Node20 -->
<g id="edge25" class="edge">
<title>Node17&#45;&gt;Node20</title>
<path fill="none" stroke="midnightblue" d="M803.37,-56.08C800.39,-48.77 796.07,-38.18 792.38,-29.1"/>
<polygon fill="midnightblue" stroke="midnightblue" points="795.58,-27.69 788.57,-19.75 789.1,-30.33 795.58,-27.69"/>
</g>
<!-- Node21 -->
<g id="node21" class="node">
<title>Node21</title>
<g id="a_node21"><a xlink:title=" ">
<polygon fill="none" stroke="#bfbfbf" points="826.5,-0.5 826.5,-19.5 877.5,-19.5 877.5,-0.5 826.5,-0.5"/>
<text text-anchor="middle" x="852" y="-7.5" font-family="FreeSans.ttf" font-size="10.00">assert.h</text>
</a>
</g>
</g>
<!-- Node17&#45;&gt;Node21 -->
<g id="edge26" class="edge">
<title>Node17&#45;&gt;Node21</title>
<path fill="none" stroke="midnightblue" d="M814.43,-56.08C820.85,-48.38 830.31,-37.03 838.12,-27.65"/>
<polygon fill="midnightblue" stroke="midnightblue" points="840.99,-29.67 844.71,-19.75 835.62,-25.19 840.99,-29.67"/>
</g>
<!-- Node24&#45;&gt;Node7 -->
<g id="edge36" class="edge">
<title>Node24&#45;&gt;Node7</title>
<path fill="none" stroke="midnightblue" d="M606.29,-280.44C664.82,-270.87 759.6,-255.36 821.87,-245.17"/>
<polygon fill="midnightblue" stroke="midnightblue" points="822.65,-248.59 831.96,-243.52 821.52,-241.68 822.65,-248.59"/>
</g>
<!-- Node24&#45;&gt;Node8 -->
<g id="edge35" class="edge">
<title>Node24&#45;&gt;Node8</title>
<path fill="none" stroke="midnightblue" d="M535.92,-280.39C522.44,-272.87 505.03,-260.57 497,-244 488.52,-226.5 502.73,-207.38 516.13,-194.44"/>
<polygon fill="midnightblue" stroke="midnightblue" points="518.65,-196.88 523.74,-187.59 513.96,-191.68 518.65,-196.88"/>
</g>
<!-- Node25 -->
<g id="node25" class="node">
<title>Node25</title>
<g id="a_node25"><a xlink:href="balanced__operator_8hpp.html" target="_top" xlink:title=" ">
<polygon fill="none" stroke="black" points="506,-224.5 506,-243.5 620,-243.5 620,-224.5 506,-224.5"/>
<text text-anchor="middle" x="563" y="-231.5" font-family="FreeSans.ttf" font-size="10.00">balanced_operator.hpp</text>
</a>
</g>
</g>
<!-- Node24&#45;&gt;Node25 -->
<g id="edge37" class="edge">
<title>Node24&#45;&gt;Node25</title>
<path fill="none" stroke="midnightblue" d="M555.49,-280.08C556.68,-272.93 558.39,-262.64 559.88,-253.69"/>
<polygon fill="midnightblue" stroke="midnightblue" points="563.35,-254.19 561.54,-243.75 556.45,-253.04 563.35,-254.19"/>
</g>
<!-- Node25&#45;&gt;Node8 -->
<g id="edge38" class="edge">
<title>Node25&#45;&gt;Node8</title>
<path fill="none" stroke="midnightblue" d="M558.38,-224.08C554.54,-216.69 548.98,-205.95 544.24,-196.81"/>
<polygon fill="midnightblue" stroke="midnightblue" points="547.25,-195.02 539.54,-187.75 541.03,-198.24 547.25,-195.02"/>
</g>
<!-- Node26&#45;&gt;Node7 -->
<g id="edge43" class="edge">
<title>Node26&#45;&gt;Node7</title>
<path fill="none" stroke="midnightblue" d="M790.83,-280.32C808.72,-271.62 836.48,-258.12 857.05,-248.11"/>
<polygon fill="midnightblue" stroke="midnightblue" points="858.75,-251.18 866.21,-243.65 855.69,-244.88 858.75,-251.18"/>
</g>
<!-- Node26&#45;&gt;Node8 -->
<g id="edge42" class="edge">
<title>Node26&#45;&gt;Node8</title>
<path fill="none" stroke="midnightblue" d="M751.25,-280.38C729.65,-271.68 695.72,-257.63 667,-244 649.76,-235.82 646.05,-232.57 629,-224 606.83,-212.87 581.45,-200.75 562.65,-191.9"/>
<polygon fill="midnightblue" stroke="midnightblue" points="564.01,-188.67 553.47,-187.59 561.04,-195.01 564.01,-188.67"/>
</g>
<!-- Node27 -->
<g id="node27" class="node">
<title>Node27</title>
<g id="a_node27"><a xlink:title=" ">
<polygon fill="none" stroke="#bfbfbf" points="676,-224.5 676,-243.5 726,-243.5 726,-224.5 676,-224.5"/>
<text text-anchor="middle" x="701" y="-231.5" font-family="FreeSans.ttf" font-size="10.00">typeinfo</text>
</a>
</g>
</g>
<!-- Node26&#45;&gt;Node27 -->
<g id="edge40" class="edge">
<title>Node26&#45;&gt;Node27</title>
<path fill="none" stroke="midnightblue" d="M761.43,-280.32C750.58,-272.18 734.12,-259.84 721.12,-250.09"/>
<polygon fill="midnightblue" stroke="midnightblue" points="722.88,-247.03 712.78,-243.83 718.68,-252.63 722.88,-247.03"/>
</g>
<!-- Node28 -->
<g id="node28" class="node">
<title>Node28</title>
<g id="a_node28"><a xlink:title=" ">
<polygon fill="none" stroke="#bfbfbf" points="744.5,-224.5 744.5,-243.5 803.5,-243.5 803.5,-224.5 744.5,-224.5"/>
<text text-anchor="middle" x="774" y="-231.5" font-family="FreeSans.ttf" font-size="10.00">stdexcept</text>
</a>
</g>
</g>
<!-- Node26&#45;&gt;Node28 -->
<g id="edge41" class="edge">
<title>Node26&#45;&gt;Node28</title>
<path fill="none" stroke="midnightblue" d="M773.17,-280.08C773.3,-273.01 773.48,-262.86 773.65,-253.99"/>
<polygon fill="midnightblue" stroke="midnightblue" points="777.15,-253.81 773.84,-243.75 770.15,-253.68 777.15,-253.81"/>
</g>
<!-- Node29&#45;&gt;Node8 -->
<g id="edge45" class="edge">
<title>Node29&#45;&gt;Node8</title>
<path fill="none" stroke="midnightblue" d="M596.9,-342.47C543.73,-334.89 477.85,-321.43 461,-300 433.02,-264.41 483.39,-217.53 514.01,-193.94"/>
<polygon fill="midnightblue" stroke="midnightblue" points="516.49,-196.45 522.41,-187.66 512.3,-190.84 516.49,-196.45"/>
</g>
<!-- Node29&#45;&gt;Node25 -->
<g id="edge47" class="edge">
<title>Node29&#45;&gt;Node25</title>
<path fill="none" stroke="midnightblue" d="M667.75,-336.29C665.72,-320.88 660.48,-296.31 647,-280 634.84,-265.29 616.58,-254.7 600.19,-247.5"/>
<polygon fill="midnightblue" stroke="midnightblue" points="601.4,-244.21 590.82,-243.65 598.74,-250.69 601.4,-244.21"/>
</g>
<!-- Node29&#45;&gt;Node26 -->
<g id="edge46" class="edge">
<title>Node29&#45;&gt;Node26</title>
<path fill="none" stroke="midnightblue" d="M693.65,-336.4C710.32,-326.86 732.23,-314.32 748.81,-304.84"/>
<polygon fill="midnightblue" stroke="midnightblue" points="750.93,-307.66 757.87,-299.66 747.45,-301.59 750.93,-307.66"/>
</g>
<!-- Node33&#45;&gt;Node7 -->
<g id="edge55" class="edge">
<title>Node33&#45;&gt;Node7</title>
<path fill="none" stroke="midnightblue" d="M970.45,-280.32C954.01,-271.7 928.57,-258.36 909.53,-248.39"/>
<polygon fill="midnightblue" stroke="midnightblue" points="910.99,-245.2 900.51,-243.65 907.74,-251.4 910.99,-245.2"/>
</g>
<!-- Node33&#45;&gt;Node12 -->
<g id="edge54" class="edge">
<title>Node33&#45;&gt;Node12</title>
<path fill="none" stroke="midnightblue" d="M989.96,-280.45C993,-271.45 997.74,-256.85 1001,-244 1010.11,-208.15 1017.85,-165.59 1021.92,-141.7"/>
<polygon fill="midnightblue" stroke="midnightblue" points="1025.42,-142.02 1023.62,-131.58 1018.52,-140.86 1025.42,-142.02"/>
</g>
<!-- Node33&#45;&gt;Node17 -->
<g id="edge56" class="edge">
<title>Node33&#45;&gt;Node17</title>
<path fill="none" stroke="midnightblue" d="M984.41,-280.37C977.84,-259.48 958.97,-205.19 930,-168 901.29,-131.15 856.86,-98.92 829.99,-81.28"/>
<polygon fill="midnightblue" stroke="midnightblue" points="831.57,-78.14 821.27,-75.67 827.78,-84.02 831.57,-78.14"/>
</g>
<!-- Node33&#45;&gt;Node19 -->
<g id="edge57" class="edge">
<title>Node33&#45;&gt;Node19</title>
<path fill="none" stroke="midnightblue" d="M993.46,-280.22C999.93,-271.28 1010.05,-256.93 1018,-244 1066.06,-165.82 1116.22,-68.23 1136.12,-28.77"/>
<polygon fill="midnightblue" stroke="midnightblue" points="1139.34,-30.15 1140.7,-19.65 1133.08,-27.01 1139.34,-30.15"/>
</g>
</g>
</svg>
