<?xml version="1.0" encoding="UTF-8" standalone="no"?>
<!DOCTYPE svg PUBLIC "-//W3C//DTD SVG 1.1//EN"
 "http://www.w3.org/Graphics/SVG/1.1/DTD/svg11.dtd">
<!-- Generated by graphviz version 2.49.3 (20211027.1534)
 -->
<!-- Title: python/src/python_factory.cpp Pages: 1 -->
<svg width="1662pt" height="543pt"
 viewBox="0.00 0.00 1661.50 543.00" xmlns="http://www.w3.org/2000/svg" xmlns:xlink="http://www.w3.org/1999/xlink">
<g id="graph0" class="graph" transform="scale(1 1) rotate(0) translate(4 539)">
<title>python/src/python_factory.cpp</title>
<!-- Node1 -->
<g id="node1" class="node">
<title>Node1</title>
<g id="a_node1"><a xlink:title=" ">
<polygon fill="#bfbfbf" stroke="black" points="1004,-515.5 1004,-534.5 1150,-534.5 1150,-515.5 1004,-515.5"/>
<text text-anchor="middle" x="1077" y="-522.5" font-family="FreeSans.ttf" font-size="10.00">python/src/python_factory.cpp</text>
</a>
</g>
</g>
<!-- Node2 -->
<g id="node2" class="node">
<title>Node2</title>
<g id="a_node2"><a xlink:href="python__factory_8hpp.html" target="_top" xlink:title=" ">
<polygon fill="none" stroke="black" points="225,-459.5 225,-478.5 323,-478.5 323,-459.5 225,-459.5"/>
<text text-anchor="middle" x="274" y="-466.5" font-family="FreeSans.ttf" font-size="10.00">python_factory.hpp</text>
</a>
</g>
</g>
<!-- Node1&#45;&gt;Node2 -->
<g id="edge1" class="edge">
<title>Node1&#45;&gt;Node2</title>
<path fill="none" stroke="midnightblue" d="M1003.84,-521.52C870.83,-516.58 580.61,-503.77 337,-479 335.73,-478.87 334.45,-478.74 333.16,-478.59"/>
<polygon fill="midnightblue" stroke="midnightblue" points="333.47,-475.11 323.13,-477.41 332.65,-482.06 333.47,-475.11"/>
</g>
<!-- Node3 -->
<g id="node3" class="node">
<title>Node3</title>
<g id="a_node3"><a xlink:title=" ">
<polygon fill="none" stroke="#bfbfbf" points="28,-403.5 28,-422.5 132,-422.5 132,-403.5 28,-403.5"/>
<text text-anchor="middle" x="80" y="-410.5" font-family="FreeSans.ttf" font-size="10.00">pybind11/pybind11.h</text>
</a>
</g>
</g>
<!-- Node1&#45;&gt;Node3 -->
<g id="edge79" class="edge">
<title>Node1&#45;&gt;Node3</title>
<path fill="none" stroke="midnightblue" d="M1003.94,-524.42C821.42,-524.81 349.45,-521.54 199,-479 161.37,-468.36 122.47,-444.16 99.79,-428.48"/>
<polygon fill="midnightblue" stroke="midnightblue" points="101.58,-425.45 91.39,-422.54 97.54,-431.17 101.58,-425.45"/>
</g>
<!-- Node4 -->
<g id="node4" class="node">
<title>Node4</title>
<g id="a_node4"><a xlink:title=" ">
<polygon fill="none" stroke="#bfbfbf" points="150,-403.5 150,-422.5 244,-422.5 244,-403.5 150,-403.5"/>
<text text-anchor="middle" x="197" y="-410.5" font-family="FreeSans.ttf" font-size="10.00">pybind11/numpy.h</text>
</a>
</g>
</g>
<!-- Node1&#45;&gt;Node4 -->
<g id="edge78" class="edge">
<title>Node1&#45;&gt;Node4</title>
<path fill="none" stroke="midnightblue" d="M1003.69,-522.46C801.13,-517.9 246.67,-503.26 216,-479 202.33,-468.19 198.12,-448.11 197,-433.11"/>
<polygon fill="midnightblue" stroke="midnightblue" points="200.49,-432.75 196.64,-422.88 193.49,-433 200.49,-432.75"/>
</g>
<!-- Node5 -->
<g id="node5" class="node">
<title>Node5</title>
<g id="a_node5"><a xlink:title=" ">
<polygon fill="none" stroke="#bfbfbf" points="300.5,-403.5 300.5,-422.5 401.5,-422.5 401.5,-403.5 300.5,-403.5"/>
<text text-anchor="middle" x="351" y="-410.5" font-family="FreeSans.ttf" font-size="10.00">pybind11/complex.h</text>
</a>
</g>
</g>
<!-- Node1&#45;&gt;Node5 -->
<g id="edge77" class="edge">
<title>Node1&#45;&gt;Node5</title>
<path fill="none" stroke="midnightblue" d="M1003.96,-524.02C833.2,-523.43 418.64,-517.93 370,-479 356.4,-468.11 352.18,-448.04 351.03,-433.07"/>
<polygon fill="midnightblue" stroke="midnightblue" points="354.52,-432.72 350.66,-422.86 347.53,-432.98 354.52,-432.72"/>
</g>
<!-- Node6 -->
<g id="node6" class="node">
<title>Node6</title>
<g id="a_node6"><a xlink:title=" ">
<polygon fill="none" stroke="#bfbfbf" points="356,-0.5 356,-19.5 416,-19.5 416,-0.5 356,-0.5"/>
<text text-anchor="middle" x="386" y="-7.5" font-family="FreeSans.ttf" font-size="10.00">config.hpp</text>
</a>
</g>
</g>
<!-- Node1&#45;&gt;Node6 -->
<g id="edge59" class="edge">
<title>Node1&#45;&gt;Node6</title>
<path fill="none" stroke="midnightblue" d="M1003.67,-523.87C813.74,-523 309.29,-517.07 147,-479 77.45,-462.69 0,-485.44 0,-414 0,-414 0,-414 0,-121 0,-49.73 246.43,-22.13 345.49,-13.91"/>
<polygon fill="midnightblue" stroke="midnightblue" points="346.02,-17.38 355.71,-13.09 345.46,-10.4 346.02,-17.38"/>
</g>
<!-- Node7 -->
<g id="node7" class="node">
<title>Node7</title>
<g id="a_node7"><a xlink:href="gpuNUFFT__operator__factory_8hpp.html" target="_top" xlink:title=" ">
<polygon fill="none" stroke="black" points="779,-403.5 779,-422.5 937,-422.5 937,-403.5 779,-403.5"/>
<text text-anchor="middle" x="858" y="-410.5" font-family="FreeSans.ttf" font-size="10.00">gpuNUFFT_operator_factory.hpp</text>
</a>
</g>
</g>
<!-- Node1&#45;&gt;Node7 -->
<g id="edge63" class="edge">
<title>Node1&#45;&gt;Node7</title>
<path fill="none" stroke="midnightblue" d="M1059.82,-515.37C1021.68,-496.21 929.74,-450.04 884.31,-427.22"/>
<polygon fill="midnightblue" stroke="midnightblue" points="885.61,-423.95 875.1,-422.59 882.47,-430.21 885.61,-423.95"/>
</g>
<!-- Node9 -->
<g id="node9" class="node">
<title>Node9</title>
<g id="a_node9"><a xlink:href="gpuNUFFT__types_8hpp.html" target="_top" xlink:title="Definition of gpuNUFFT defined types.">
<polygon fill="none" stroke="black" points="476,-168.5 476,-187.5 588,-187.5 588,-168.5 476,-168.5"/>
<text text-anchor="middle" x="532" y="-175.5" font-family="FreeSans.ttf" font-size="10.00">gpuNUFFT_types.hpp</text>
</a>
</g>
</g>
<!-- Node1&#45;&gt;Node9 -->
<g id="edge64" class="edge">
<title>Node1&#45;&gt;Node9</title>
<path fill="none" stroke="midnightblue" d="M1020.02,-515.46C859.6,-490.85 413.11,-418.27 372,-367 318.29,-300.01 446.64,-222.73 504.99,-192.29"/>
<polygon fill="midnightblue" stroke="midnightblue" points="506.73,-195.33 514.04,-187.66 503.54,-189.1 506.73,-195.33"/>
</g>
<!-- Node13 -->
<g id="node13" class="node">
<title>Node13</title>
<g id="a_node13"><a xlink:href="cuda__utils_8hpp.html" target="_top" xlink:title="Util functions for CUDA memory and texture management.">
<polygon fill="none" stroke="black" points="1085.5,-112.5 1085.5,-131.5 1164.5,-131.5 1164.5,-112.5 1085.5,-112.5"/>
<text text-anchor="middle" x="1125" y="-119.5" font-family="FreeSans.ttf" font-size="10.00">cuda_utils.hpp</text>
</a>
</g>
</g>
<!-- Node1&#45;&gt;Node13 -->
<g id="edge61" class="edge">
<title>Node1&#45;&gt;Node13</title>
<path fill="none" stroke="midnightblue" d="M1096.41,-515.46C1127.99,-500.11 1187,-464.64 1187,-414 1187,-414 1187,-414 1187,-233 1187,-195.62 1159.5,-159.24 1141.13,-139.1"/>
<polygon fill="midnightblue" stroke="midnightblue" points="1143.57,-136.59 1134.15,-131.75 1138.49,-141.41 1143.57,-136.59"/>
</g>
<!-- Node14 -->
<g id="node14" class="node">
<title>Node14</title>
<g id="a_node14"><a xlink:title=" ">
<polygon fill="none" stroke="#bfbfbf" points="1226.5,-0.5 1226.5,-19.5 1271.5,-19.5 1271.5,-0.5 1226.5,-0.5"/>
<text text-anchor="middle" x="1249" y="-7.5" font-family="FreeSans.ttf" font-size="10.00">cuda.h</text>
</a>
</g>
</g>
<!-- Node1&#45;&gt;Node14 -->
<g id="edge75" class="edge">
<title>Node1&#45;&gt;Node14</title>
<path fill="none" stroke="midnightblue" d="M1150.33,-523.21C1227.84,-518.03 1339,-496.26 1339,-414 1339,-414 1339,-414 1339,-121 1339,-78.66 1298.56,-43.66 1271.9,-25.18"/>
<polygon fill="midnightblue" stroke="midnightblue" points="1273.72,-22.19 1263.46,-19.56 1269.84,-28.02 1273.72,-22.19"/>
</g>
<!-- Node15 -->
<g id="node15" class="node">
<title>Node15</title>
<g id="a_node15"><a xlink:title=" ">
<polygon fill="none" stroke="#bfbfbf" points="1109.5,-0.5 1109.5,-19.5 1192.5,-19.5 1192.5,-0.5 1109.5,-0.5"/>
<text text-anchor="middle" x="1151" y="-7.5" font-family="FreeSans.ttf" font-size="10.00">cuda_runtime.h</text>
</a>
</g>
</g>
<!-- Node1&#45;&gt;Node15 -->
<g id="edge60" class="edge">
<title>Node1&#45;&gt;Node15</title>
<path fill="none" stroke="midnightblue" d="M1150.04,-518.12C1215.4,-508.39 1301,-482.56 1301,-414 1301,-414 1301,-414 1301,-121 1301,-67.71 1238.67,-37.41 1194.37,-22.61"/>
<polygon fill="midnightblue" stroke="midnightblue" points="1195.25,-19.22 1184.66,-19.52 1193.13,-25.89 1195.25,-19.22"/>
</g>
<!-- Node17 -->
<g id="node17" class="node">
<title>Node17</title>
<g id="a_node17"><a xlink:title=" ">
<polygon fill="none" stroke="#bfbfbf" points="1191.5,-56.5 1191.5,-75.5 1234.5,-75.5 1234.5,-56.5 1191.5,-56.5"/>
<text text-anchor="middle" x="1213" y="-63.5" font-family="FreeSans.ttf" font-size="10.00">cufft.h</text>
</a>
</g>
</g>
<!-- Node1&#45;&gt;Node17 -->
<g id="edge62" class="edge">
<title>Node1&#45;&gt;Node17</title>
<path fill="none" stroke="midnightblue" d="M1110.07,-515.38C1130.94,-508.5 1157.22,-496.97 1175,-479 1235.81,-417.54 1225,-377.46 1225,-291 1225,-291 1225,-291 1225,-177 1225,-144.76 1219.84,-107.51 1216.29,-85.68"/>
<polygon fill="midnightblue" stroke="midnightblue" points="1219.69,-84.8 1214.57,-75.52 1212.79,-85.97 1219.69,-84.8"/>
</g>
<!-- Node31 -->
<g id="node31" class="node">
<title>Node31</title>
<g id="a_node31"><a xlink:title=" ">
<polygon fill="none" stroke="#bfbfbf" points="981,-342 981,-361 1037,-361 1037,-342 981,-342"/>
<text text-anchor="middle" x="1009" y="-349" font-family="FreeSans.ttf" font-size="10.00">algorithm</text>
</a>
</g>
</g>
<!-- Node1&#45;&gt;Node31 -->
<g id="edge72" class="edge">
<title>Node1&#45;&gt;Node31</title>
<path fill="none" stroke="midnightblue" d="M1073.53,-515.26C1062.89,-488.42 1030.54,-406.82 1016.09,-370.39"/>
<polygon fill="midnightblue" stroke="midnightblue" points="1019.32,-369.03 1012.38,-361.02 1012.81,-371.61 1019.32,-369.03"/>
</g>
<!-- Node32 -->
<g id="node32" class="node">
<title>Node32</title>
<g id="a_node32"><a xlink:title=" ">
<polygon fill="none" stroke="#bfbfbf" points="1055,-342 1055,-361 1099,-361 1099,-342 1055,-342"/>
<text text-anchor="middle" x="1077" y="-349" font-family="FreeSans.ttf" font-size="10.00">vector</text>
</a>
</g>
</g>
<!-- Node1&#45;&gt;Node32 -->
<g id="edge82" class="edge">
<title>Node1&#45;&gt;Node32</title>
<path fill="none" stroke="midnightblue" d="M1077,-515.26C1077,-488.65 1077,-408.21 1077,-371.34"/>
<polygon fill="midnightblue" stroke="midnightblue" points="1080.5,-371.02 1077,-361.02 1073.5,-371.02 1080.5,-371.02"/>
</g>
<!-- Node33 -->
<g id="node33" class="node">
<title>Node33</title>
<g id="a_node33"><a xlink:title=" ">
<polygon fill="none" stroke="#bfbfbf" points="1117.5,-342 1117.5,-361 1158.5,-361 1158.5,-342 1117.5,-342"/>
<text text-anchor="middle" x="1138" y="-349" font-family="FreeSans.ttf" font-size="10.00">string</text>
</a>
</g>
</g>
<!-- Node1&#45;&gt;Node33 -->
<g id="edge80" class="edge">
<title>Node1&#45;&gt;Node33</title>
<path fill="none" stroke="midnightblue" d="M1080.11,-515.26C1089.61,-488.54 1118.43,-407.52 1131.47,-370.86"/>
<polygon fill="midnightblue" stroke="midnightblue" points="1134.92,-371.61 1134.97,-361.02 1128.32,-369.27 1134.92,-371.61"/>
</g>
<!-- Node35 -->
<g id="node35" class="node">
<title>Node35</title>
<g id="a_node35"><a xlink:href="python__utils_8hpp.html" target="_top" xlink:title=" ">
<polygon fill="none" stroke="black" points="379,-459.5 379,-478.5 465,-478.5 465,-459.5 379,-459.5"/>
<text text-anchor="middle" x="422" y="-466.5" font-family="FreeSans.ttf" font-size="10.00">python_utils.hpp</text>
</a>
</g>
</g>
<!-- Node1&#45;&gt;Node35 -->
<g id="edge65" class="edge">
<title>Node1&#45;&gt;Node35</title>
<path fill="none" stroke="midnightblue" d="M1003.63,-520.41C890.67,-514.44 667.47,-500.93 479,-479 477.74,-478.85 476.47,-478.7 475.18,-478.54"/>
<polygon fill="midnightblue" stroke="midnightblue" points="475.59,-475.06 465.21,-477.2 474.66,-482 475.59,-475.06"/>
</g>
<!-- Node36 -->
<g id="node36" class="node">
<title>Node36</title>
<g id="a_node36"><a xlink:title=" ">
<polygon fill="none" stroke="#bfbfbf" points="1367,-459.5 1367,-478.5 1413,-478.5 1413,-459.5 1367,-459.5"/>
<text text-anchor="middle" x="1390" y="-466.5" font-family="FreeSans.ttf" font-size="10.00">cstdint</text>
</a>
</g>
</g>
<!-- Node1&#45;&gt;Node36 -->
<g id="edge73" class="edge">
<title>Node1&#45;&gt;Node36</title>
<path fill="none" stroke="midnightblue" d="M1137.54,-515.5C1193.63,-507.3 1279.25,-493.96 1353,-479 1354.28,-478.74 1355.57,-478.47 1356.88,-478.19"/>
<polygon fill="midnightblue" stroke="midnightblue" points="1357.99,-481.52 1366.97,-475.89 1356.44,-474.7 1357.99,-481.52"/>
</g>
<!-- Node37 -->
<g id="node37" class="node">
<title>Node37</title>
<g id="a_node37"><a xlink:title=" ">
<polygon fill="none" stroke="#bfbfbf" points="1431,-459.5 1431,-478.5 1499,-478.5 1499,-459.5 1431,-459.5"/>
<text text-anchor="middle" x="1465" y="-466.5" font-family="FreeSans.ttf" font-size="10.00">cublas_v2.h</text>
</a>
</g>
</g>
<!-- Node1&#45;&gt;Node37 -->
<g id="edge74" class="edge">
<title>Node1&#45;&gt;Node37</title>
<path fill="none" stroke="midnightblue" d="M1150.27,-516.09C1218.02,-508.4 1321.71,-495.69 1420.89,-479.08"/>
<polygon fill="midnightblue" stroke="midnightblue" points="1421.5,-482.53 1430.78,-477.41 1420.33,-475.62 1421.5,-482.53"/>
</g>
<!-- Node38 -->
<g id="node38" class="node">
<title>Node38</title>
<g id="a_node38"><a xlink:title=" ">
<polygon fill="none" stroke="#bfbfbf" points="1517.5,-459.5 1517.5,-478.5 1570.5,-478.5 1570.5,-459.5 1517.5,-459.5"/>
<text text-anchor="middle" x="1544" y="-466.5" font-family="FreeSans.ttf" font-size="10.00">curand.h</text>
</a>
</g>
</g>
<!-- Node1&#45;&gt;Node38 -->
<g id="edge76" class="edge">
<title>Node1&#45;&gt;Node38</title>
<path fill="none" stroke="midnightblue" d="M1150.26,-519.51C1234.19,-513.66 1375.92,-501.61 1507.12,-478.9"/>
<polygon fill="midnightblue" stroke="midnightblue" points="1508.11,-482.28 1517.35,-477.11 1506.9,-475.39 1508.11,-482.28"/>
</g>
<!-- Node39 -->
<g id="node39" class="node">
<title>Node39</title>
<g id="a_node39"><a xlink:title=" ">
<polygon fill="none" stroke="#bfbfbf" points="1588.5,-459.5 1588.5,-478.5 1653.5,-478.5 1653.5,-459.5 1588.5,-459.5"/>
<text text-anchor="middle" x="1621" y="-466.5" font-family="FreeSans.ttf" font-size="10.00">sys/types.h</text>
</a>
</g>
</g>
<!-- Node1&#45;&gt;Node39 -->
<g id="edge81" class="edge">
<title>Node1&#45;&gt;Node39</title>
<path fill="none" stroke="midnightblue" d="M1150.24,-520.37C1246.36,-514.95 1420.45,-502.9 1578.04,-479.13"/>
<polygon fill="midnightblue" stroke="midnightblue" points="1579.04,-482.52 1588.4,-477.55 1577.98,-475.6 1579.04,-482.52"/>
</g>
<!-- Node2&#45;&gt;Node3 -->
<g id="edge2" class="edge">
<title>Node2&#45;&gt;Node3</title>
<path fill="none" stroke="midnightblue" d="M243.26,-459.44C210.06,-450.2 157.01,-435.44 120.44,-425.26"/>
<polygon fill="midnightblue" stroke="midnightblue" points="121.17,-421.83 110.6,-422.52 119.29,-428.57 121.17,-421.83"/>
</g>
<!-- Node2&#45;&gt;Node4 -->
<g id="edge3" class="edge">
<title>Node2&#45;&gt;Node4</title>
<path fill="none" stroke="midnightblue" d="M261.63,-459.32C249.84,-451.06 231.87,-438.45 217.86,-428.63"/>
<polygon fill="midnightblue" stroke="midnightblue" points="219.54,-425.53 209.34,-422.65 215.52,-431.26 219.54,-425.53"/>
</g>
<!-- Node2&#45;&gt;Node5 -->
<g id="edge4" class="edge">
<title>Node2&#45;&gt;Node5</title>
<path fill="none" stroke="midnightblue" d="M286.37,-459.32C298.16,-451.06 316.13,-438.45 330.14,-428.63"/>
<polygon fill="midnightblue" stroke="midnightblue" points="332.48,-431.26 338.66,-422.65 328.46,-425.53 332.48,-431.26"/>
</g>
<!-- Node2&#45;&gt;Node6 -->
<g id="edge5" class="edge">
<title>Node2&#45;&gt;Node6</title>
<path fill="none" stroke="midnightblue" d="M273.75,-459.31C273.21,-440.06 272,-392.41 272,-352.5 272,-352.5 272,-352.5 272,-121 272,-74.11 322.55,-40.89 356.33,-23.93"/>
<polygon fill="midnightblue" stroke="midnightblue" points="357.87,-27.07 365.36,-19.58 354.83,-20.77 357.87,-27.07"/>
</g>
<!-- Node2&#45;&gt;Node7 -->
<g id="edge6" class="edge">
<title>Node2&#45;&gt;Node7</title>
<path fill="none" stroke="midnightblue" d="M323.33,-463.36C338.32,-461.96 354.83,-460.41 370,-459 509.3,-446.05 670.98,-431.17 768.82,-422.18"/>
<polygon fill="midnightblue" stroke="midnightblue" points="769.33,-425.65 778.97,-421.25 768.69,-418.68 769.33,-425.65"/>
</g>
<!-- Node7&#45;&gt;Node6 -->
<g id="edge7" class="edge">
<title>Node7&#45;&gt;Node6</title>
<path fill="none" stroke="midnightblue" d="M778.62,-408.03C683.02,-402.31 528.69,-389.85 476,-367 427.97,-346.17 386,-343.35 386,-291 386,-291 386,-291 386,-121 386,-88.95 386,-51.64 386,-29.75"/>
<polygon fill="midnightblue" stroke="midnightblue" points="389.5,-29.56 386,-19.56 382.5,-29.56 389.5,-29.56"/>
</g>
<!-- Node8 -->
<g id="node8" class="node">
<title>Node8</title>
<g id="a_node8"><a xlink:href="gpuNUFFT__operator_8hpp.html" target="_top" xlink:title=" ">
<polygon fill="none" stroke="black" points="806,-224.5 806,-243.5 930,-243.5 930,-224.5 806,-224.5"/>
<text text-anchor="middle" x="868" y="-231.5" font-family="FreeSans.ttf" font-size="10.00">gpuNUFFT_operator.hpp</text>
</a>
</g>
</g>
<!-- Node7&#45;&gt;Node8 -->
<g id="edge8" class="edge">
<title>Node7&#45;&gt;Node8</title>
<path fill="none" stroke="midnightblue" d="M858.48,-403.46C860.01,-376.43 864.77,-292.24 866.92,-254.11"/>
<polygon fill="midnightblue" stroke="midnightblue" points="870.43,-254.05 867.5,-243.87 863.44,-253.65 870.43,-254.05"/>
</g>
<!-- Node7&#45;&gt;Node13 -->
<g id="edge53" class="edge">
<title>Node7&#45;&gt;Node13</title>
<path fill="none" stroke="midnightblue" d="M875.27,-403.49C891.7,-395.08 916.85,-381.43 937,-367 953.9,-354.9 954.52,-347.24 972,-336 1005.13,-314.69 1022.33,-324.73 1053,-300 1098.52,-263.3 1107.26,-244.58 1122,-188 1125.97,-172.78 1126.51,-154.89 1126.17,-141.74"/>
<polygon fill="midnightblue" stroke="midnightblue" points="1129.66,-141.42 1125.72,-131.58 1122.67,-141.73 1129.66,-141.42"/>
</g>
<!-- Node20 -->
<g id="node20" class="node">
<title>Node20</title>
<g id="a_node20"><a xlink:title=" ">
<polygon fill="none" stroke="#bfbfbf" points="786,-0.5 786,-19.5 830,-19.5 830,-0.5 786,-0.5"/>
<text text-anchor="middle" x="808" y="-7.5" font-family="FreeSans.ttf" font-size="10.00">cmath</text>
</a>
</g>
</g>
<!-- Node7&#45;&gt;Node20 -->
<g id="edge52" class="edge">
<title>Node7&#45;&gt;Node20</title>
<path fill="none" stroke="midnightblue" d="M862.74,-403.47C878.9,-374.26 931.21,-278.09 939,-244 940.98,-235.33 943.89,-231.42 939,-224 916.64,-190.09 882.34,-218.04 855,-188 813.85,-142.79 808,-65.65 807.64,-30.04"/>
<polygon fill="midnightblue" stroke="midnightblue" points="811.14,-29.68 807.68,-19.67 804.14,-29.65 811.14,-29.68"/>
</g>
<!-- Node25 -->
<g id="node25" class="node">
<title>Node25</title>
<g id="a_node25"><a xlink:href="balanced__gpuNUFFT__operator_8hpp.html" target="_top" xlink:title=" ">
<polygon fill="none" stroke="black" points="672,-280.5 672,-299.5 840,-299.5 840,-280.5 672,-280.5"/>
<text text-anchor="middle" x="756" y="-287.5" font-family="FreeSans.ttf" font-size="10.00">balanced_gpuNUFFT_operator.hpp</text>
</a>
</g>
</g>
<!-- Node7&#45;&gt;Node25 -->
<g id="edge35" class="edge">
<title>Node7&#45;&gt;Node25</title>
<path fill="none" stroke="midnightblue" d="M850.66,-403.3C833.76,-383.24 791.82,-333.49 769.88,-307.46"/>
<polygon fill="midnightblue" stroke="midnightblue" points="772.39,-305.01 763.27,-299.62 767.04,-309.52 772.39,-305.01"/>
</g>
<!-- Node27 -->
<g id="node27" class="node">
<title>Node27</title>
<g id="a_node27"><a xlink:href="texture__gpuNUFFT__operator_8hpp.html" target="_top" xlink:title=" ">
<polygon fill="none" stroke="black" points="458,-280.5 458,-299.5 616,-299.5 616,-280.5 458,-280.5"/>
<text text-anchor="middle" x="537" y="-287.5" font-family="FreeSans.ttf" font-size="10.00">texture_gpuNUFFT_operator.hpp</text>
</a>
</g>
</g>
<!-- Node7&#45;&gt;Node27 -->
<g id="edge40" class="edge">
<title>Node7&#45;&gt;Node27</title>
<path fill="none" stroke="midnightblue" d="M835.43,-403.49C779.5,-382.41 634.36,-327.7 569.33,-303.19"/>
<polygon fill="midnightblue" stroke="midnightblue" points="570.57,-299.91 559.98,-299.66 568.1,-306.46 570.57,-299.91"/>
</g>
<!-- Node30 -->
<g id="node30" class="node">
<title>Node30</title>
<g id="a_node30"><a xlink:href="balanced__texture__gpuNUFFT__operator_8hpp.html" target="_top" xlink:title=" ">
<polygon fill="none" stroke="black" points="485,-336.5 485,-366.5 629,-366.5 629,-336.5 485,-336.5"/>
<text text-anchor="start" x="493" y="-354.5" font-family="FreeSans.ttf" font-size="10.00">balanced_texture_gpuNUFFT</text>
<text text-anchor="middle" x="557" y="-343.5" font-family="FreeSans.ttf" font-size="10.00">_operator.hpp</text>
</a>
</g>
</g>
<!-- Node7&#45;&gt;Node30 -->
<g id="edge45" class="edge">
<title>Node7&#45;&gt;Node30</title>
<path fill="none" stroke="midnightblue" d="M814.87,-403.48C768.87,-394.38 694.93,-379.77 638,-368.51"/>
<polygon fill="midnightblue" stroke="midnightblue" points="638.43,-365.03 627.94,-366.52 637.07,-371.9 638.43,-365.03"/>
</g>
<!-- Node7&#45;&gt;Node31 -->
<g id="edge49" class="edge">
<title>Node7&#45;&gt;Node31</title>
<path fill="none" stroke="midnightblue" d="M879.63,-403.48C905.42,-393.31 948.71,-376.26 978.04,-364.7"/>
<polygon fill="midnightblue" stroke="midnightblue" points="979.38,-367.93 987.41,-361.01 976.82,-361.42 979.38,-367.93"/>
</g>
<!-- Node7&#45;&gt;Node32 -->
<g id="edge50" class="edge">
<title>Node7&#45;&gt;Node32</title>
<path fill="none" stroke="midnightblue" d="M905.11,-403.48C943.6,-395.87 999.11,-383.39 1046,-367 1047.62,-366.43 1049.27,-365.81 1050.92,-365.15"/>
<polygon fill="midnightblue" stroke="midnightblue" points="1052.43,-368.31 1060.2,-361.11 1049.64,-361.89 1052.43,-368.31"/>
</g>
<!-- Node7&#45;&gt;Node33 -->
<g id="edge51" class="edge">
<title>Node7&#45;&gt;Node33</title>
<path fill="none" stroke="midnightblue" d="M936.2,-403.48C986.18,-396.69 1051.9,-385.23 1108,-367 1109.66,-366.46 1111.35,-365.84 1113.04,-365.18"/>
<polygon fill="midnightblue" stroke="midnightblue" points="1114.73,-368.26 1122.45,-361.01 1111.89,-361.86 1114.73,-368.26"/>
</g>
<!-- Node34 -->
<g id="node34" class="node">
<title>Node34</title>
<g id="a_node34"><a xlink:href="precomp__utils_8hpp.html" target="_top" xlink:title="UTIL functions for precomputation.">
<polygon fill="none" stroke="black" points="948.5,-280.5 948.5,-299.5 1043.5,-299.5 1043.5,-280.5 948.5,-280.5"/>
<text text-anchor="middle" x="996" y="-287.5" font-family="FreeSans.ttf" font-size="10.00">precomp_utils.hpp</text>
</a>
</g>
</g>
<!-- Node7&#45;&gt;Node34 -->
<g id="edge54" class="edge">
<title>Node7&#45;&gt;Node34</title>
<path fill="none" stroke="midnightblue" d="M866.76,-403.31C881.38,-388.92 911.82,-359.4 939,-336 951.06,-325.61 965.09,-314.53 976.21,-305.96"/>
<polygon fill="midnightblue" stroke="midnightblue" points="978.6,-308.54 984.41,-299.68 974.34,-302.98 978.6,-308.54"/>
</g>
<!-- Node8&#45;&gt;Node6 -->
<g id="edge31" class="edge">
<title>Node8&#45;&gt;Node6</title>
<path fill="none" stroke="midnightblue" d="M805.89,-225.93C774.92,-219.9 738.35,-208.71 711,-188 679.34,-164.03 694.81,-137.06 664,-112 592.4,-53.78 484.33,-27.53 426.28,-17.05"/>
<polygon fill="midnightblue" stroke="midnightblue" points="426.83,-13.6 416.38,-15.33 425.63,-20.49 426.83,-13.6"/>
</g>
<!-- Node8&#45;&gt;Node9 -->
<g id="edge9" class="edge">
<title>Node8&#45;&gt;Node9</title>
<path fill="none" stroke="midnightblue" d="M814.76,-224.44C755.04,-214.85 658.26,-199.29 594.87,-189.1"/>
<polygon fill="midnightblue" stroke="midnightblue" points="595.42,-185.65 584.99,-187.52 594.31,-192.56 595.42,-185.65"/>
</g>
<!-- Node10 -->
<g id="node10" class="node">
<title>Node10</title>
<g id="a_node10"><a xlink:title=" ">
<polygon fill="none" stroke="#bfbfbf" points="519.5,-112.5 519.5,-131.5 564.5,-131.5 564.5,-112.5 519.5,-112.5"/>
<text text-anchor="middle" x="542" y="-119.5" font-family="FreeSans.ttf" font-size="10.00">cstdlib</text>
</a>
</g>
</g>
<!-- Node8&#45;&gt;Node10 -->
<g id="edge32" class="edge">
<title>Node8&#45;&gt;Node10</title>
<path fill="none" stroke="midnightblue" d="M805.79,-225.42C762.02,-218.78 702.64,-207.14 653,-188 619.09,-174.92 583.43,-152.2 561.96,-137.39"/>
<polygon fill="midnightblue" stroke="midnightblue" points="563.86,-134.45 553.67,-131.57 559.84,-140.18 563.86,-134.45"/>
</g>
<!-- Node11 -->
<g id="node11" class="node">
<title>Node11</title>
<g id="a_node11"><a xlink:title=" ">
<polygon fill="none" stroke="#bfbfbf" points="601,-112.5 601,-131.5 655,-131.5 655,-112.5 601,-112.5"/>
<text text-anchor="middle" x="628" y="-119.5" font-family="FreeSans.ttf" font-size="10.00">iostream</text>
</a>
</g>
</g>
<!-- Node8&#45;&gt;Node11 -->
<g id="edge33" class="edge">
<title>Node8&#45;&gt;Node11</title>
<path fill="none" stroke="midnightblue" d="M814.76,-224.5C766.75,-216.1 700.35,-202.45 678,-188 659.93,-176.32 645.77,-155.78 637.2,-140.91"/>
<polygon fill="midnightblue" stroke="midnightblue" points="640.04,-138.8 632.18,-131.7 633.89,-142.15 640.04,-138.8"/>
</g>
<!-- Node12 -->
<g id="node12" class="node">
<title>Node12</title>
<g id="a_node12"><a xlink:href="gpuNUFFT__kernels_8hpp.html" target="_top" xlink:title="gpuNUFFT CUDA function prototypes">
<polygon fill="none" stroke="black" points="874,-168.5 874,-187.5 994,-187.5 994,-168.5 874,-168.5"/>
<text text-anchor="middle" x="934" y="-175.5" font-family="FreeSans.ttf" font-size="10.00">gpuNUFFT_kernels.hpp</text>
</a>
</g>
</g>
<!-- Node8&#45;&gt;Node12 -->
<g id="edge13" class="edge">
<title>Node8&#45;&gt;Node12</title>
<path fill="none" stroke="midnightblue" d="M878.6,-224.32C888.46,-216.26 903.35,-204.08 915.22,-194.37"/>
<polygon fill="midnightblue" stroke="midnightblue" points="917.68,-196.88 923.2,-187.83 913.25,-191.46 917.68,-196.88"/>
</g>
<!-- Node24 -->
<g id="node24" class="node">
<title>Node24</title>
<g id="a_node24"><a xlink:title=" ">
<polygon fill="none" stroke="#bfbfbf" points="720.5,-168.5 720.5,-187.5 779.5,-187.5 779.5,-168.5 720.5,-168.5"/>
<text text-anchor="middle" x="750" y="-175.5" font-family="FreeSans.ttf" font-size="10.00">functional</text>
</a>
</g>
</g>
<!-- Node8&#45;&gt;Node24 -->
<g id="edge34" class="edge">
<title>Node8&#45;&gt;Node24</title>
<path fill="none" stroke="midnightblue" d="M849.3,-224.44C830.06,-215.64 799.85,-201.81 777.8,-191.72"/>
<polygon fill="midnightblue" stroke="midnightblue" points="779.16,-188.5 768.61,-187.52 776.25,-194.86 779.16,-188.5"/>
</g>
<!-- Node9&#45;&gt;Node6 -->
<g id="edge12" class="edge">
<title>Node9&#45;&gt;Node6</title>
<path fill="none" stroke="midnightblue" d="M524.15,-168.08C500.67,-141.38 430.74,-61.87 400.36,-27.32"/>
<polygon fill="midnightblue" stroke="midnightblue" points="402.77,-24.77 393.54,-19.57 397.51,-29.39 402.77,-24.77"/>
</g>
<!-- Node9&#45;&gt;Node10 -->
<g id="edge10" class="edge">
<title>Node9&#45;&gt;Node10</title>
<path fill="none" stroke="midnightblue" d="M533.65,-168.08C534.98,-160.93 536.88,-150.64 538.54,-141.69"/>
<polygon fill="midnightblue" stroke="midnightblue" points="542,-142.22 540.38,-131.75 535.12,-140.95 542,-142.22"/>
</g>
<!-- Node9&#45;&gt;Node11 -->
<g id="edge11" class="edge">
<title>Node9&#45;&gt;Node11</title>
<path fill="none" stroke="midnightblue" d="M547.42,-168.32C562.54,-159.82 585.82,-146.73 603.47,-136.8"/>
<polygon fill="midnightblue" stroke="midnightblue" points="605.61,-139.61 612.61,-131.65 602.18,-133.51 605.61,-139.61"/>
</g>
<!-- Node12&#45;&gt;Node13 -->
<g id="edge14" class="edge">
<title>Node12&#45;&gt;Node13</title>
<path fill="none" stroke="midnightblue" d="M964.26,-168.44C996.96,-159.2 1049.18,-144.44 1085.18,-134.26"/>
<polygon fill="midnightblue" stroke="midnightblue" points="1086.21,-137.61 1094.88,-131.52 1084.3,-130.87 1086.21,-137.61"/>
</g>
<!-- Node18 -->
<g id="node18" class="node">
<title>Node18</title>
<g id="a_node18"><a xlink:href="gpuNUFFT__utils_8hpp.html" target="_top" xlink:title="Definition of util functions used in gridding operations.">
<polygon fill="none" stroke="black" points="882.5,-56.5 882.5,-75.5 989.5,-75.5 989.5,-56.5 882.5,-56.5"/>
<text text-anchor="middle" x="936" y="-63.5" font-family="FreeSans.ttf" font-size="10.00">gpuNUFFT_utils.hpp</text>
</a>
</g>
</g>
<!-- Node12&#45;&gt;Node18 -->
<g id="edge30" class="edge">
<title>Node12&#45;&gt;Node18</title>
<path fill="none" stroke="midnightblue" d="M934.16,-168.37C934.48,-150.62 935.22,-109.67 935.66,-85.6"/>
<polygon fill="midnightblue" stroke="midnightblue" points="939.16,-85.65 935.84,-75.59 932.16,-85.53 939.16,-85.65"/>
</g>
<!-- Node13&#45;&gt;Node8 -->
<g id="edge28" class="edge">
<title>Node13&#45;&gt;Node8</title>
<path fill="none" stroke="midnightblue" d="M1110.74,-131.61C1088.36,-144.9 1043.35,-170.67 1003,-188 971.9,-201.36 935.43,-213.3 908.23,-221.53"/>
<polygon fill="midnightblue" stroke="midnightblue" points="906.88,-218.28 898.3,-224.49 908.88,-224.99 906.88,-218.28"/>
</g>
<!-- Node13&#45;&gt;Node14 -->
<g id="edge15" class="edge">
<title>Node13&#45;&gt;Node14</title>
<path fill="none" stroke="midnightblue" d="M1131.55,-112.4C1141.72,-99.35 1162.31,-74.16 1183,-56 1196.17,-44.44 1212.41,-33.33 1225.49,-25.04"/>
<polygon fill="midnightblue" stroke="midnightblue" points="1227.71,-27.79 1234.36,-19.54 1224.02,-21.84 1227.71,-27.79"/>
</g>
<!-- Node13&#45;&gt;Node15 -->
<g id="edge16" class="edge">
<title>Node13&#45;&gt;Node15</title>
<path fill="none" stroke="midnightblue" d="M1127.04,-112.37C1131.24,-94.62 1140.92,-53.67 1146.6,-29.6"/>
<polygon fill="midnightblue" stroke="midnightblue" points="1150.08,-30.13 1148.97,-19.59 1143.26,-28.52 1150.08,-30.13"/>
</g>
<!-- Node16 -->
<g id="node16" class="node">
<title>Node16</title>
<g id="a_node16"><a xlink:title=" ">
<polygon fill="none" stroke="#bfbfbf" points="1046.5,-0.5 1046.5,-19.5 1091.5,-19.5 1091.5,-0.5 1046.5,-0.5"/>
<text text-anchor="middle" x="1069" y="-7.5" font-family="FreeSans.ttf" font-size="10.00">stdio.h</text>
</a>
</g>
</g>
<!-- Node13&#45;&gt;Node16 -->
<g id="edge17" class="edge">
<title>Node13&#45;&gt;Node16</title>
<path fill="none" stroke="midnightblue" d="M1120.61,-112.37C1111.45,-94.38 1090.15,-52.55 1077.97,-28.63"/>
<polygon fill="midnightblue" stroke="midnightblue" points="1081.03,-26.92 1073.37,-19.59 1074.79,-30.09 1081.03,-26.92"/>
</g>
<!-- Node13&#45;&gt;Node17 -->
<g id="edge18" class="edge">
<title>Node13&#45;&gt;Node17</title>
<path fill="none" stroke="midnightblue" d="M1139.14,-112.32C1152.87,-103.9 1173.94,-90.97 1190.06,-81.07"/>
<polygon fill="midnightblue" stroke="midnightblue" points="1192.2,-83.87 1198.9,-75.65 1188.54,-77.9 1192.2,-83.87"/>
</g>
<!-- Node13&#45;&gt;Node18 -->
<g id="edge19" class="edge">
<title>Node13&#45;&gt;Node18</title>
<path fill="none" stroke="midnightblue" d="M1095.05,-112.44C1062.84,-103.24 1011.47,-88.56 975.86,-78.39"/>
<polygon fill="midnightblue" stroke="midnightblue" points="976.38,-74.9 965.81,-75.52 974.46,-81.63 976.38,-74.9"/>
</g>
<!-- Node23 -->
<g id="node23" class="node">
<title>Node23</title>
<g id="a_node23"><a xlink:title=" ">
<polygon fill="none" stroke="#bfbfbf" points="1007.5,-56.5 1007.5,-75.5 1058.5,-75.5 1058.5,-56.5 1007.5,-56.5"/>
<text text-anchor="middle" x="1033" y="-63.5" font-family="FreeSans.ttf" font-size="10.00">stdarg.h</text>
</a>
</g>
</g>
<!-- Node13&#45;&gt;Node23 -->
<g id="edge29" class="edge">
<title>Node13&#45;&gt;Node23</title>
<path fill="none" stroke="midnightblue" d="M1110.22,-112.32C1095.73,-103.82 1073.43,-90.73 1056.51,-80.8"/>
<polygon fill="midnightblue" stroke="midnightblue" points="1058.14,-77.7 1047.74,-75.65 1054.6,-83.74 1058.14,-77.7"/>
</g>
<!-- Node18&#45;&gt;Node6 -->
<g id="edge24" class="edge">
<title>Node18&#45;&gt;Node6</title>
<path fill="none" stroke="midnightblue" d="M882.26,-59.72C772.21,-48.92 523.35,-24.49 426.06,-14.93"/>
<polygon fill="midnightblue" stroke="midnightblue" points="426.33,-11.44 416.04,-13.95 425.65,-18.41 426.33,-11.44"/>
</g>
<!-- Node18&#45;&gt;Node14 -->
<g id="edge22" class="edge">
<title>Node18&#45;&gt;Node14</title>
<path fill="none" stroke="midnightblue" d="M988.3,-56.5C1041.98,-47.69 1127.9,-33.36 1202,-20 1206.54,-19.18 1211.32,-18.3 1216.02,-17.41"/>
<polygon fill="midnightblue" stroke="midnightblue" points="1216.9,-20.8 1226.07,-15.49 1215.59,-13.93 1216.9,-20.8"/>
</g>
<!-- Node18&#45;&gt;Node15 -->
<g id="edge23" class="edge">
<title>Node18&#45;&gt;Node15</title>
<path fill="none" stroke="midnightblue" d="M970.07,-56.44C1007.18,-47.12 1066.66,-32.18 1107.21,-22"/>
<polygon fill="midnightblue" stroke="midnightblue" points="1108.25,-25.35 1117.09,-19.52 1106.54,-18.56 1108.25,-25.35"/>
</g>
<!-- Node18&#45;&gt;Node16 -->
<g id="edge21" class="edge">
<title>Node18&#45;&gt;Node16</title>
<path fill="none" stroke="midnightblue" d="M957.07,-56.44C979.06,-47.52 1013.73,-33.44 1038.66,-23.32"/>
<polygon fill="midnightblue" stroke="midnightblue" points="1040.08,-26.52 1048.02,-19.52 1037.44,-20.04 1040.08,-26.52"/>
</g>
<!-- Node19 -->
<g id="node19" class="node">
<title>Node19</title>
<g id="a_node19"><a xlink:title=" ">
<polygon fill="none" stroke="#bfbfbf" points="981.5,-0.5 981.5,-19.5 1028.5,-19.5 1028.5,-0.5 981.5,-0.5"/>
<text text-anchor="middle" x="1005" y="-7.5" font-family="FreeSans.ttf" font-size="10.00">stdlib.h</text>
</a>
</g>
</g>
<!-- Node18&#45;&gt;Node19 -->
<g id="edge20" class="edge">
<title>Node18&#45;&gt;Node19</title>
<path fill="none" stroke="midnightblue" d="M947.09,-56.32C957.49,-48.18 973.26,-35.84 985.72,-26.09"/>
<polygon fill="midnightblue" stroke="midnightblue" points="987.99,-28.75 993.71,-19.83 983.68,-23.24 987.99,-28.75"/>
</g>
<!-- Node18&#45;&gt;Node20 -->
<g id="edge25" class="edge">
<title>Node18&#45;&gt;Node20</title>
<path fill="none" stroke="midnightblue" d="M915.72,-56.44C894.65,-47.56 861.48,-33.56 837.51,-23.45"/>
<polygon fill="midnightblue" stroke="midnightblue" points="838.76,-20.18 828.19,-19.52 836.04,-26.63 838.76,-20.18"/>
</g>
<!-- Node21 -->
<g id="node21" class="node">
<title>Node21</title>
<g id="a_node21"><a xlink:title=" ">
<polygon fill="none" stroke="#bfbfbf" points="848,-0.5 848,-19.5 894,-19.5 894,-0.5 848,-0.5"/>
<text text-anchor="middle" x="871" y="-7.5" font-family="FreeSans.ttf" font-size="10.00">math.h</text>
</a>
</g>
</g>
<!-- Node18&#45;&gt;Node21 -->
<g id="edge26" class="edge">
<title>Node18&#45;&gt;Node21</title>
<path fill="none" stroke="midnightblue" d="M925.56,-56.32C915.85,-48.26 901.18,-36.08 889.5,-26.37"/>
<polygon fill="midnightblue" stroke="midnightblue" points="891.56,-23.53 881.63,-19.83 887.09,-28.92 891.56,-23.53"/>
</g>
<!-- Node22 -->
<g id="node22" class="node">
<title>Node22</title>
<g id="a_node22"><a xlink:title=" ">
<polygon fill="none" stroke="#bfbfbf" points="912.5,-0.5 912.5,-19.5 963.5,-19.5 963.5,-0.5 912.5,-0.5"/>
<text text-anchor="middle" x="938" y="-7.5" font-family="FreeSans.ttf" font-size="10.00">assert.h</text>
</a>
</g>
</g>
<!-- Node18&#45;&gt;Node22 -->
<g id="edge27" class="edge">
<title>Node18&#45;&gt;Node22</title>
<path fill="none" stroke="midnightblue" d="M936.33,-56.08C936.59,-49.01 936.97,-38.86 937.3,-29.99"/>
<polygon fill="midnightblue" stroke="midnightblue" points="940.8,-29.87 937.68,-19.75 933.81,-29.61 940.8,-29.87"/>
</g>
<!-- Node25&#45;&gt;Node8 -->
<g id="edge37" class="edge">
<title>Node25&#45;&gt;Node8</title>
<path fill="none" stroke="midnightblue" d="M773.99,-280.32C792.04,-271.62 820.05,-258.12 840.8,-248.11"/>
<polygon fill="midnightblue" stroke="midnightblue" points="842.56,-251.15 850.05,-243.65 839.52,-244.84 842.56,-251.15"/>
</g>
<!-- Node25&#45;&gt;Node9 -->
<g id="edge36" class="edge">
<title>Node25&#45;&gt;Node9</title>
<path fill="none" stroke="midnightblue" d="M759.71,-280.28C764.87,-266.61 772.19,-240.06 759,-224 748.73,-211.49 661.46,-196.9 598.19,-187.81"/>
<polygon fill="midnightblue" stroke="midnightblue" points="598.65,-184.34 588.25,-186.4 597.66,-191.27 598.65,-184.34"/>
</g>
<!-- Node26 -->
<g id="node26" class="node">
<title>Node26</title>
<g id="a_node26"><a xlink:href="balanced__operator_8hpp.html" target="_top" xlink:title=" ">
<polygon fill="none" stroke="black" points="636,-224.5 636,-243.5 750,-243.5 750,-224.5 636,-224.5"/>
<text text-anchor="middle" x="693" y="-231.5" font-family="FreeSans.ttf" font-size="10.00">balanced_operator.hpp</text>
</a>
</g>
</g>
<!-- Node25&#45;&gt;Node26 -->
<g id="edge38" class="edge">
<title>Node25&#45;&gt;Node26</title>
<path fill="none" stroke="midnightblue" d="M745.88,-280.32C736.47,-272.26 722.26,-260.08 710.93,-250.37"/>
<polygon fill="midnightblue" stroke="midnightblue" points="713.18,-247.68 703.31,-243.83 708.62,-253 713.18,-247.68"/>
</g>
<!-- Node26&#45;&gt;Node9 -->
<g id="edge39" class="edge">
<title>Node26&#45;&gt;Node9</title>
<path fill="none" stroke="midnightblue" d="M667.49,-224.44C640.4,-215.36 597.41,-200.94 567.13,-190.78"/>
<polygon fill="midnightblue" stroke="midnightblue" points="567.99,-187.38 557.39,-187.52 565.76,-194.01 567.99,-187.38"/>
</g>
<!-- Node27&#45;&gt;Node8 -->
<g id="edge44" class="edge">
<title>Node27&#45;&gt;Node8</title>
<path fill="none" stroke="midnightblue" d="M589.45,-280.44C648.16,-270.87 743.23,-255.36 805.68,-245.17"/>
<polygon fill="midnightblue" stroke="midnightblue" points="806.49,-248.58 815.8,-243.52 805.36,-241.67 806.49,-248.58"/>
</g>
<!-- Node27&#45;&gt;Node9 -->
<g id="edge43" class="edge">
<title>Node27&#45;&gt;Node9</title>
<path fill="none" stroke="midnightblue" d="M519.5,-280.46C506.21,-272.92 488.92,-260.53 481,-244 471.76,-224.72 490.56,-205.86 507.89,-193.47"/>
<polygon fill="midnightblue" stroke="midnightblue" points="510.29,-196.07 516.66,-187.61 506.4,-190.25 510.29,-196.07"/>
</g>
<!-- Node28 -->
<g id="node28" class="node">
<title>Node28</title>
<g id="a_node28"><a xlink:title=" ">
<polygon fill="none" stroke="#bfbfbf" points="490,-224.5 490,-243.5 540,-243.5 540,-224.5 490,-224.5"/>
<text text-anchor="middle" x="515" y="-231.5" font-family="FreeSans.ttf" font-size="10.00">typeinfo</text>
</a>
</g>
</g>
<!-- Node27&#45;&gt;Node28 -->
<g id="edge41" class="edge">
<title>Node27&#45;&gt;Node28</title>
<path fill="none" stroke="midnightblue" d="M533.37,-280.08C530.39,-272.77 526.07,-262.18 522.38,-253.1"/>
<polygon fill="midnightblue" stroke="midnightblue" points="525.58,-251.69 518.57,-243.75 519.1,-254.33 525.58,-251.69"/>
</g>
<!-- Node29 -->
<g id="node29" class="node">
<title>Node29</title>
<g id="a_node29"><a xlink:title=" ">
<polygon fill="none" stroke="#bfbfbf" points="558.5,-224.5 558.5,-243.5 617.5,-243.5 617.5,-224.5 558.5,-224.5"/>
<text text-anchor="middle" x="588" y="-231.5" font-family="FreeSans.ttf" font-size="10.00">stdexcept</text>
</a>
</g>
</g>
<!-- Node27&#45;&gt;Node29 -->
<g id="edge42" class="edge">
<title>Node27&#45;&gt;Node29</title>
<path fill="none" stroke="midnightblue" d="M545.42,-280.08C552.85,-272.22 563.85,-260.57 572.81,-251.08"/>
<polygon fill="midnightblue" stroke="midnightblue" points="575.41,-253.42 579.74,-243.75 570.32,-248.62 575.41,-253.42"/>
</g>
<!-- Node30&#45;&gt;Node9 -->
<g id="edge46" class="edge">
<title>Node30&#45;&gt;Node9</title>
<path fill="none" stroke="midnightblue" d="M497.66,-336.44C478.83,-328.87 460.06,-317.38 449,-300 424,-260.71 477.03,-215.83 509.4,-193.38"/>
<polygon fill="midnightblue" stroke="midnightblue" points="511.55,-196.15 517.9,-187.67 507.64,-190.34 511.55,-196.15"/>
</g>
<!-- Node30&#45;&gt;Node26 -->
<g id="edge48" class="edge">
<title>Node30&#45;&gt;Node26</title>
<path fill="none" stroke="midnightblue" d="M577.44,-336.33C591.21,-326.54 609.6,-312.99 625,-300 643.78,-284.15 663.98,-264.48 677.44,-250.95"/>
<polygon fill="midnightblue" stroke="midnightblue" points="679.99,-253.35 684.52,-243.77 675,-248.43 679.99,-253.35"/>
</g>
<!-- Node30&#45;&gt;Node27 -->
<g id="edge47" class="edge">
<title>Node30&#45;&gt;Node27</title>
<path fill="none" stroke="midnightblue" d="M552.26,-336.4C549.53,-328.29 546.08,-318.01 543.14,-309.28"/>
<polygon fill="midnightblue" stroke="midnightblue" points="546.41,-308.02 539.91,-299.66 539.78,-310.25 546.41,-308.02"/>
</g>
<!-- Node34&#45;&gt;Node8 -->
<g id="edge56" class="edge">
<title>Node34&#45;&gt;Node8</title>
<path fill="none" stroke="midnightblue" d="M975.72,-280.44C954.65,-271.56 921.48,-257.56 897.51,-247.45"/>
<polygon fill="midnightblue" stroke="midnightblue" points="898.76,-244.18 888.19,-243.52 896.04,-250.63 898.76,-244.18"/>
</g>
<!-- Node34&#45;&gt;Node13 -->
<g id="edge55" class="edge">
<title>Node34&#45;&gt;Node13</title>
<path fill="none" stroke="midnightblue" d="M1019.17,-280.39C1036.28,-273.01 1059.1,-260.88 1074,-244 1100.81,-213.63 1114.97,-167.12 1121.13,-141.51"/>
<polygon fill="midnightblue" stroke="midnightblue" points="1124.57,-142.16 1123.35,-131.63 1117.74,-140.62 1124.57,-142.16"/>
</g>
<!-- Node34&#45;&gt;Node18 -->
<g id="edge57" class="edge">
<title>Node34&#45;&gt;Node18</title>
<path fill="none" stroke="midnightblue" d="M999.6,-280.22C1003.06,-271.28 1008.03,-256.94 1010,-244 1015.1,-210.46 1014.79,-199.81 1003,-168 990.82,-135.15 966.14,-102.31 950.38,-83.36"/>
<polygon fill="midnightblue" stroke="midnightblue" points="952.98,-81.02 943.84,-75.68 947.66,-85.56 952.98,-81.02"/>
</g>
<!-- Node34&#45;&gt;Node20 -->
<g id="edge58" class="edge">
<title>Node34&#45;&gt;Node20</title>
<path fill="none" stroke="midnightblue" d="M995.14,-280.13C993.33,-266.25 987.88,-239.42 972,-224 936.01,-189.04 900.25,-223.71 865,-188 863.55,-186.53 828.16,-74.83 813.89,-29.65"/>
<polygon fill="midnightblue" stroke="midnightblue" points="817.17,-28.41 810.82,-19.93 810.49,-30.52 817.17,-28.41"/>
</g>
<!-- Node35&#45;&gt;Node3 -->
<g id="edge66" class="edge">
<title>Node35&#45;&gt;Node3</title>
<path fill="none" stroke="midnightblue" d="M378.69,-461.16C318.93,-451.73 210.86,-434.66 142.4,-423.85"/>
<polygon fill="midnightblue" stroke="midnightblue" points="142.6,-420.34 132.18,-422.24 141.51,-427.26 142.6,-420.34"/>
</g>
<!-- Node35&#45;&gt;Node4 -->
<g id="edge67" class="edge">
<title>Node35&#45;&gt;Node4</title>
<path fill="none" stroke="midnightblue" d="M386.35,-459.44C347.34,-450.08 284.73,-435.06 242.28,-424.87"/>
<polygon fill="midnightblue" stroke="midnightblue" points="243.03,-421.45 232.49,-422.52 241.39,-428.25 243.03,-421.45"/>
</g>
<!-- Node35&#45;&gt;Node5 -->
<g id="edge68" class="edge">
<title>Node35&#45;&gt;Node5</title>
<path fill="none" stroke="midnightblue" d="M410.59,-459.32C399.89,-451.18 383.66,-438.84 370.84,-429.09"/>
<polygon fill="midnightblue" stroke="midnightblue" points="372.69,-426.1 362.61,-422.83 368.46,-431.67 372.69,-426.1"/>
</g>
<!-- Node35&#45;&gt;Node6 -->
<g id="edge70" class="edge">
<title>Node35&#45;&gt;Node6</title>
<path fill="none" stroke="midnightblue" d="M422.45,-459.22C422.71,-445.94 421.49,-420.44 410,-403 394.13,-378.92 375.95,-387.84 356,-367 328.7,-338.48 310,-330.48 310,-291 310,-291 310,-291 310,-121 310,-81.28 343.96,-45.5 366.48,-26.15"/>
<polygon fill="midnightblue" stroke="midnightblue" points="368.98,-28.63 374.46,-19.57 364.52,-23.24 368.98,-28.63"/>
</g>
<!-- Node35&#45;&gt;Node7 -->
<g id="edge71" class="edge">
<title>Node35&#45;&gt;Node7</title>
<path fill="none" stroke="midnightblue" d="M465.4,-462.62C538.48,-453.57 687.1,-435.17 779.06,-423.78"/>
<polygon fill="midnightblue" stroke="midnightblue" points="779.66,-427.23 789.16,-422.53 778.8,-420.28 779.66,-427.23"/>
</g>
<!-- Node35&#45;&gt;Node14 -->
<g id="edge69" class="edge">
<title>Node35&#45;&gt;Node14</title>
<path fill="none" stroke="midnightblue" d="M465.15,-468.22C636.95,-467.98 1263,-455.78 1263,-291 1263,-291 1263,-291 1263,-121 1263,-88.54 1256.93,-51.12 1252.78,-29.36"/>
<polygon fill="midnightblue" stroke="midnightblue" points="1256.21,-28.64 1250.83,-19.51 1249.34,-30 1256.21,-28.64"/>
</g>
</g>
</svg>
