<?xml version="1.0" encoding="UTF-8" standalone="no"?>
<!DOCTYPE svg PUBLIC "-//W3C//DTD SVG 1.1//EN"
 "http://www.w3.org/Graphics/SVG/1.1/DTD/svg11.dtd">
<!-- Generated by graphviz version 2.49.3 (20211027.1534)
 -->
<!-- Title: python/src/python_factory.cpp Pages: 1 -->
<svg width="1499pt" height="487pt"
 viewBox="0.00 0.00 1499.00 487.00" xmlns="http://www.w3.org/2000/svg" xmlns:xlink="http://www.w3.org/1999/xlink">
<g id="graph0" class="graph" transform="scale(1 1) rotate(0) translate(4 483)">
<title>python/src/python_factory.cpp</title>
<!-- Node1 -->
<g id="node1" class="node">
<title>Node1</title>
<g id="a_node1"><a xlink:title=" ">
<polygon fill="#bfbfbf" stroke="black" points="815,-459.5 815,-478.5 961,-478.5 961,-459.5 815,-459.5"/>
<text text-anchor="middle" x="888" y="-466.5" font-family="FreeSans.ttf" font-size="10.00">python/src/python_factory.cpp</text>
</a>
</g>
</g>
<!-- Node2 -->
<g id="node2" class="node">
<title>Node2</title>
<g id="a_node2"><a xlink:title=" ">
<polygon fill="none" stroke="#bfbfbf" points="247,-286 247,-305 303,-305 303,-286 247,-286"/>
<text text-anchor="middle" x="275" y="-293" font-family="FreeSans.ttf" font-size="10.00">algorithm</text>
</a>
</g>
</g>
<!-- Node1&#45;&gt;Node2 -->
<g id="edge1" class="edge">
<title>Node1&#45;&gt;Node2</title>
<path fill="none" stroke="midnightblue" d="M814.96,-461.6C754.46,-455.18 666.61,-443.27 592,-423 480.57,-392.73 355.1,-335.24 301.53,-309.52"/>
<polygon fill="midnightblue" stroke="midnightblue" points="302.91,-306.3 292.39,-305.09 299.87,-312.6 302.91,-306.3"/>
</g>
<!-- Node3 -->
<g id="node3" class="node">
<title>Node3</title>
<g id="a_node3"><a xlink:title=" ">
<polygon fill="none" stroke="#bfbfbf" points="1204,-403.5 1204,-422.5 1250,-422.5 1250,-403.5 1204,-403.5"/>
<text text-anchor="middle" x="1227" y="-410.5" font-family="FreeSans.ttf" font-size="10.00">cstdint</text>
</a>
</g>
</g>
<!-- Node1&#45;&gt;Node3 -->
<g id="edge2" class="edge">
<title>Node1&#45;&gt;Node3</title>
<path fill="none" stroke="midnightblue" d="M957.27,-459.49C1018.68,-451.52 1110.67,-438.53 1190,-423 1191.28,-422.75 1192.58,-422.49 1193.89,-422.21"/>
<polygon fill="midnightblue" stroke="midnightblue" points="1194.99,-425.55 1203.98,-419.94 1193.45,-418.72 1194.99,-425.55"/>
</g>
<!-- Node4 -->
<g id="node4" class="node">
<title>Node4</title>
<g id="a_node4"><a xlink:title=" ">
<polygon fill="none" stroke="#bfbfbf" points="1268.5,-403.5 1268.5,-422.5 1333.5,-422.5 1333.5,-403.5 1268.5,-403.5"/>
<text text-anchor="middle" x="1301" y="-410.5" font-family="FreeSans.ttf" font-size="10.00">sys/types.h</text>
</a>
</g>
</g>
<!-- Node1&#45;&gt;Node4 -->
<g id="edge3" class="edge">
<title>Node1&#45;&gt;Node4</title>
<path fill="none" stroke="midnightblue" d="M961.14,-461.1C1033.97,-453.78 1149.14,-441 1258.6,-422.92"/>
<polygon fill="midnightblue" stroke="midnightblue" points="1259.21,-426.37 1268.5,-421.27 1258.06,-419.46 1259.21,-426.37"/>
</g>
<!-- Node5 -->
<g id="node5" class="node">
<title>Node5</title>
<g id="a_node5"><a xlink:title=" ">
<polygon fill="none" stroke="#bfbfbf" points="321,-286 321,-305 365,-305 365,-286 321,-286"/>
<text text-anchor="middle" x="343" y="-293" font-family="FreeSans.ttf" font-size="10.00">vector</text>
</a>
</g>
</g>
<!-- Node1&#45;&gt;Node5 -->
<g id="edge4" class="edge">
<title>Node1&#45;&gt;Node5</title>
<path fill="none" stroke="midnightblue" d="M832.63,-459.49C786.11,-451.77 718.12,-439.13 660,-423 589.42,-403.41 573.15,-393.85 505,-367 446.09,-343.79 431.8,-336.86 374,-311 372.81,-310.47 371.6,-309.92 370.37,-309.36"/>
<polygon fill="midnightblue" stroke="midnightblue" points="371.53,-306.04 360.98,-305.04 368.6,-312.4 371.53,-306.04"/>
</g>
<!-- Node6 -->
<g id="node6" class="node">
<title>Node6</title>
<g id="a_node6"><a xlink:title=" ">
<polygon fill="none" stroke="#bfbfbf" points="383.5,-286 383.5,-305 424.5,-305 424.5,-286 383.5,-286"/>
<text text-anchor="middle" x="404" y="-293" font-family="FreeSans.ttf" font-size="10.00">string</text>
</a>
</g>
</g>
<!-- Node1&#45;&gt;Node6 -->
<g id="edge5" class="edge">
<title>Node1&#45;&gt;Node6</title>
<path fill="none" stroke="midnightblue" d="M853.93,-459.43C820.98,-450.93 769.74,-437.16 726,-423 591.78,-379.56 556.28,-371.84 429,-311 428.3,-310.67 427.6,-310.32 426.9,-309.97"/>
<polygon fill="midnightblue" stroke="midnightblue" points="428.26,-306.73 417.8,-305.03 424.92,-312.88 428.26,-306.73"/>
</g>
<!-- Node7 -->
<g id="node7" class="node">
<title>Node7</title>
<g id="a_node7"><a xlink:title=" ">
<polygon fill="none" stroke="#bfbfbf" points="826,-347.5 826,-366.5 930,-366.5 930,-347.5 826,-347.5"/>
<text text-anchor="middle" x="878" y="-354.5" font-family="FreeSans.ttf" font-size="10.00">pybind11/pybind11.h</text>
</a>
</g>
</g>
<!-- Node1&#45;&gt;Node7 -->
<g id="edge6" class="edge">
<title>Node1&#45;&gt;Node7</title>
<path fill="none" stroke="midnightblue" d="M887.22,-459.37C885.6,-441.62 881.88,-400.67 879.69,-376.6"/>
<polygon fill="midnightblue" stroke="midnightblue" points="883.17,-376.23 878.78,-366.59 876.2,-376.87 883.17,-376.23"/>
</g>
<!-- Node8 -->
<g id="node8" class="node">
<title>Node8</title>
<g id="a_node8"><a xlink:title=" ">
<polygon fill="none" stroke="#bfbfbf" points="986,-347.5 986,-366.5 1080,-366.5 1080,-347.5 986,-347.5"/>
<text text-anchor="middle" x="1033" y="-354.5" font-family="FreeSans.ttf" font-size="10.00">pybind11/numpy.h</text>
</a>
</g>
</g>
<!-- Node1&#45;&gt;Node8 -->
<g id="edge7" class="edge">
<title>Node1&#45;&gt;Node8</title>
<path fill="none" stroke="midnightblue" d="M961.23,-460.35C1009.31,-453.64 1065.97,-441.93 1081,-423 1094.49,-406 1074.15,-385.81 1055.94,-372.5"/>
<polygon fill="midnightblue" stroke="midnightblue" points="1057.55,-369.35 1047.33,-366.56 1053.57,-375.12 1057.55,-369.35"/>
</g>
<!-- Node9 -->
<g id="node9" class="node">
<title>Node9</title>
<g id="a_node9"><a xlink:title=" ">
<polygon fill="none" stroke="#bfbfbf" points="1098.5,-347.5 1098.5,-366.5 1199.5,-366.5 1199.5,-347.5 1098.5,-347.5"/>
<text text-anchor="middle" x="1149" y="-354.5" font-family="FreeSans.ttf" font-size="10.00">pybind11/complex.h</text>
</a>
</g>
</g>
<!-- Node1&#45;&gt;Node9 -->
<g id="edge8" class="edge">
<title>Node1&#45;&gt;Node9</title>
<path fill="none" stroke="midnightblue" d="M961.21,-464.36C1003.53,-459.42 1056.28,-448.19 1097,-423 1115.75,-411.4 1130.62,-390.54 1139.58,-375.57"/>
<polygon fill="midnightblue" stroke="midnightblue" points="1142.69,-377.17 1144.59,-366.75 1136.61,-373.72 1142.69,-377.17"/>
</g>
<!-- Node10 -->
<g id="node10" class="node">
<title>Node10</title>
<g id="a_node10"><a xlink:title=" ">
<polygon fill="none" stroke="#bfbfbf" points="104.5,-168.5 104.5,-187.5 147.5,-187.5 147.5,-168.5 104.5,-168.5"/>
<text text-anchor="middle" x="126" y="-175.5" font-family="FreeSans.ttf" font-size="10.00">cufft.h</text>
</a>
</g>
</g>
<!-- Node1&#45;&gt;Node10 -->
<g id="edge9" class="edge">
<title>Node1&#45;&gt;Node10</title>
<path fill="none" stroke="midnightblue" d="M814.8,-466.33C629.06,-461.73 152.45,-447.58 129,-423 69.29,-360.42 102.91,-242.46 118.98,-197.26"/>
<polygon fill="midnightblue" stroke="midnightblue" points="122.35,-198.23 122.53,-187.64 115.78,-195.81 122.35,-198.23"/>
</g>
<!-- Node11 -->
<g id="node11" class="node">
<title>Node11</title>
<g id="a_node11"><a xlink:title=" ">
<polygon fill="none" stroke="#bfbfbf" points="128.5,-0.5 128.5,-19.5 211.5,-19.5 211.5,-0.5 128.5,-0.5"/>
<text text-anchor="middle" x="170" y="-7.5" font-family="FreeSans.ttf" font-size="10.00">cuda_runtime.h</text>
</a>
</g>
</g>
<!-- Node1&#45;&gt;Node11 -->
<g id="edge10" class="edge">
<title>Node1&#45;&gt;Node11</title>
<path fill="none" stroke="midnightblue" d="M814.6,-468.22C717.75,-466.94 542.62,-459.17 398,-423 335.78,-407.44 318.27,-402.72 265,-367 166.59,-301.02 76,-297.48 76,-179 76,-179 76,-179 76,-121 76,-77.93 118.16,-43.21 146.01,-24.98"/>
<polygon fill="midnightblue" stroke="midnightblue" points="147.88,-27.94 154.48,-19.65 144.15,-22.01 147.88,-27.94"/>
</g>
<!-- Node12 -->
<g id="node12" class="node">
<title>Node12</title>
<g id="a_node12"><a xlink:title=" ">
<polygon fill="none" stroke="#bfbfbf" points="40.5,-0.5 40.5,-19.5 85.5,-19.5 85.5,-0.5 40.5,-0.5"/>
<text text-anchor="middle" x="63" y="-7.5" font-family="FreeSans.ttf" font-size="10.00">cuda.h</text>
</a>
</g>
</g>
<!-- Node1&#45;&gt;Node12 -->
<g id="edge11" class="edge">
<title>Node1&#45;&gt;Node12</title>
<path fill="none" stroke="midnightblue" d="M814.75,-468.11C647.36,-467.66 241.22,-462.4 111,-423 56.28,-406.44 0,-415.17 0,-358 0,-358 0,-358 0,-121 0,-83.48 27.95,-47.14 46.61,-27.05"/>
<polygon fill="midnightblue" stroke="midnightblue" points="49.27,-29.34 53.7,-19.72 44.24,-24.48 49.27,-29.34"/>
</g>
<!-- Node13 -->
<g id="node13" class="node">
<title>Node13</title>
<g id="a_node13"><a xlink:title=" ">
<polygon fill="none" stroke="#bfbfbf" points="1351.5,-403.5 1351.5,-422.5 1404.5,-422.5 1404.5,-403.5 1351.5,-403.5"/>
<text text-anchor="middle" x="1378" y="-410.5" font-family="FreeSans.ttf" font-size="10.00">curand.h</text>
</a>
</g>
</g>
<!-- Node1&#45;&gt;Node13 -->
<g id="edge12" class="edge">
<title>Node1&#45;&gt;Node13</title>
<path fill="none" stroke="midnightblue" d="M961.36,-464.21C1049.57,-458.88 1202.17,-447.18 1341.34,-423.06"/>
<polygon fill="midnightblue" stroke="midnightblue" points="1342.1,-426.48 1351.34,-421.3 1340.88,-419.59 1342.1,-426.48"/>
</g>
<!-- Node14 -->
<g id="node14" class="node">
<title>Node14</title>
<g id="a_node14"><a xlink:href="cuda__utils_8hpp.html" target="_top" xlink:title="Util functions for CUDA memory and texture management.">
<polygon fill="none" stroke="black" points="250.5,-224.5 250.5,-243.5 329.5,-243.5 329.5,-224.5 250.5,-224.5"/>
<text text-anchor="middle" x="290" y="-231.5" font-family="FreeSans.ttf" font-size="10.00">cuda_utils.hpp</text>
</a>
</g>
</g>
<!-- Node1&#45;&gt;Node14 -->
<g id="edge13" class="edge">
<title>Node1&#45;&gt;Node14</title>
<path fill="none" stroke="midnightblue" d="M814.85,-464.29C740.65,-459.29 622.94,-447.94 524,-423 391.63,-389.63 314.81,-423.85 238,-311 230.25,-299.61 232.27,-292.53 238,-280 243.78,-267.36 255.05,-256.91 265.63,-249.27"/>
<polygon fill="midnightblue" stroke="midnightblue" points="267.85,-252 274.22,-243.53 263.96,-246.18 267.85,-252"/>
</g>
<!-- Node18 -->
<g id="node18" class="node">
<title>Node18</title>
<g id="a_node18"><a xlink:title=" ">
<polygon fill="none" stroke="#bfbfbf" points="1122,-0.5 1122,-19.5 1182,-19.5 1182,-0.5 1122,-0.5"/>
<text text-anchor="middle" x="1152" y="-7.5" font-family="FreeSans.ttf" font-size="10.00">config.hpp</text>
</a>
</g>
</g>
<!-- Node1&#45;&gt;Node18 -->
<g id="edge41" class="edge">
<title>Node1&#45;&gt;Node18</title>
<path fill="none" stroke="midnightblue" d="M961.03,-466.15C1038.2,-460.21 1158.43,-439.02 1230,-367 1254.8,-342.05 1266,-331.68 1266,-296.5 1266,-296.5 1266,-296.5 1266,-121 1266,-74.11 1215.45,-40.89 1181.67,-23.93"/>
<polygon fill="midnightblue" stroke="midnightblue" points="1183.17,-20.77 1172.64,-19.58 1180.13,-27.07 1183.17,-20.77"/>
</g>
<!-- Node23 -->
<g id="node23" class="node">
<title>Node23</title>
<g id="a_node23"><a xlink:href="gpuNUFFT__types_8hpp.html" target="_top" xlink:title="Definition of gpuNUFFT defined types.">
<polygon fill="none" stroke="black" points="850,-112.5 850,-131.5 962,-131.5 962,-112.5 850,-112.5"/>
<text text-anchor="middle" x="906" y="-119.5" font-family="FreeSans.ttf" font-size="10.00">gpuNUFFT_types.hpp</text>
</a>
</g>
</g>
<!-- Node1&#45;&gt;Node23 -->
<g id="edge69" class="edge">
<title>Node1&#45;&gt;Node23</title>
<path fill="none" stroke="midnightblue" d="M892.9,-459.25C905.06,-438.09 938.41,-383.24 977,-347 998.57,-326.75 1014.84,-334.36 1033,-311 1068.36,-265.5 1064.77,-244.88 1074,-188 1075.42,-179.23 1079.41,-175.05 1074,-168 1061.35,-151.51 1013.73,-139.75 972.41,-132.39"/>
<polygon fill="midnightblue" stroke="midnightblue" points="972.78,-128.9 962.34,-130.66 971.6,-135.8 972.78,-128.9"/>
</g>
<!-- Node29 -->
<g id="node29" class="node">
<title>Node29</title>
<g id="a_node29"><a xlink:title=" ">
<polygon fill="none" stroke="#bfbfbf" points="1423,-403.5 1423,-422.5 1491,-422.5 1491,-403.5 1423,-403.5"/>
<text text-anchor="middle" x="1457" y="-410.5" font-family="FreeSans.ttf" font-size="10.00">cublas_v2.h</text>
</a>
</g>
</g>
<!-- Node1&#45;&gt;Node29 -->
<g id="edge40" class="edge">
<title>Node1&#45;&gt;Node29</title>
<path fill="none" stroke="midnightblue" d="M961.07,-464.55C1060.96,-459.2 1245.87,-447.09 1412.84,-423"/>
<polygon fill="midnightblue" stroke="midnightblue" points="1413.41,-426.46 1422.8,-421.55 1412.4,-419.53 1413.41,-426.46"/>
</g>
<!-- Node30 -->
<g id="node30" class="node">
<title>Node30</title>
<g id="a_node30"><a xlink:href="gpuNUFFT__operator__factory_8hpp.html" target="_top" xlink:title=" ">
<polygon fill="none" stroke="black" points="584,-347.5 584,-366.5 742,-366.5 742,-347.5 584,-347.5"/>
<text text-anchor="middle" x="663" y="-354.5" font-family="FreeSans.ttf" font-size="10.00">gpuNUFFT_operator_factory.hpp</text>
</a>
</g>
</g>
<!-- Node1&#45;&gt;Node30 -->
<g id="edge42" class="edge">
<title>Node1&#45;&gt;Node30</title>
<path fill="none" stroke="midnightblue" d="M859.43,-459.49C834.03,-451.48 796.19,-438.42 765,-423 735.13,-408.23 703.09,-386.8 683.06,-372.63"/>
<polygon fill="midnightblue" stroke="midnightblue" points="684.92,-369.66 674.75,-366.69 680.84,-375.35 684.92,-369.66"/>
</g>
<!-- Node38 -->
<g id="node38" class="node">
<title>Node38</title>
<g id="a_node38"><a xlink:href="python__factory_8hpp.html" target="_top" xlink:title=" ">
<polygon fill="none" stroke="black" points="974,-403.5 974,-422.5 1072,-422.5 1072,-403.5 974,-403.5"/>
<text text-anchor="middle" x="1023" y="-410.5" font-family="FreeSans.ttf" font-size="10.00">python_factory.hpp</text>
</a>
</g>
</g>
<!-- Node1&#45;&gt;Node38 -->
<g id="edge70" class="edge">
<title>Node1&#45;&gt;Node38</title>
<path fill="none" stroke="midnightblue" d="M909.39,-459.44C931.71,-450.52 966.9,-436.44 992.21,-426.32"/>
<polygon fill="midnightblue" stroke="midnightblue" points="993.72,-429.48 1001.71,-422.52 991.12,-422.98 993.72,-429.48"/>
</g>
<!-- Node39 -->
<g id="node39" class="node">
<title>Node39</title>
<g id="a_node39"><a xlink:href="python__utils_8hpp.html" target="_top" xlink:title=" ">
<polygon fill="none" stroke="black" points="774,-403.5 774,-422.5 860,-422.5 860,-403.5 774,-403.5"/>
<text text-anchor="middle" x="817" y="-410.5" font-family="FreeSans.ttf" font-size="10.00">python_utils.hpp</text>
</a>
</g>
</g>
<!-- Node1&#45;&gt;Node39 -->
<g id="edge76" class="edge">
<title>Node1&#45;&gt;Node39</title>
<path fill="none" stroke="midnightblue" d="M876.59,-459.32C865.89,-451.18 849.66,-438.84 836.84,-429.09"/>
<polygon fill="midnightblue" stroke="midnightblue" points="838.69,-426.1 828.61,-422.83 834.46,-431.67 838.69,-426.1"/>
</g>
<!-- Node14&#45;&gt;Node10 -->
<g id="edge17" class="edge">
<title>Node14&#45;&gt;Node10</title>
<path fill="none" stroke="midnightblue" d="M264.01,-224.44C235.13,-214.93 188.47,-199.57 157.52,-189.38"/>
<polygon fill="midnightblue" stroke="midnightblue" points="158.27,-185.94 147.67,-186.14 156.08,-192.59 158.27,-185.94"/>
</g>
<!-- Node14&#45;&gt;Node11 -->
<g id="edge15" class="edge">
<title>Node14&#45;&gt;Node11</title>
<path fill="none" stroke="midnightblue" d="M285.3,-224.3C267.49,-191.36 204,-73.9 179.62,-28.81"/>
<polygon fill="midnightblue" stroke="midnightblue" points="182.64,-27.02 174.8,-19.88 176.48,-30.35 182.64,-27.02"/>
</g>
<!-- Node14&#45;&gt;Node12 -->
<g id="edge14" class="edge">
<title>Node14&#45;&gt;Node12</title>
<path fill="none" stroke="midnightblue" d="M281.1,-224.3C246.99,-190.94 124.27,-70.92 79.5,-27.13"/>
<polygon fill="midnightblue" stroke="midnightblue" points="81.68,-24.37 72.08,-19.88 76.79,-29.38 81.68,-24.37"/>
</g>
<!-- Node15 -->
<g id="node15" class="node">
<title>Node15</title>
<g id="a_node15"><a xlink:title=" ">
<polygon fill="none" stroke="#bfbfbf" points="229.5,-0.5 229.5,-19.5 274.5,-19.5 274.5,-0.5 229.5,-0.5"/>
<text text-anchor="middle" x="252" y="-7.5" font-family="FreeSans.ttf" font-size="10.00">stdio.h</text>
</a>
</g>
</g>
<!-- Node14&#45;&gt;Node15 -->
<g id="edge16" class="edge">
<title>Node14&#45;&gt;Node15</title>
<path fill="none" stroke="midnightblue" d="M288.51,-224.3C282.92,-191.63 263.1,-75.87 255.24,-29.96"/>
<polygon fill="midnightblue" stroke="midnightblue" points="258.66,-29.15 253.52,-19.88 251.76,-30.33 258.66,-29.15"/>
</g>
<!-- Node16 -->
<g id="node16" class="node">
<title>Node16</title>
<g id="a_node16"><a xlink:href="gpuNUFFT__utils_8hpp.html" target="_top" xlink:title="Definition of util functions used in gridding operations.">
<polygon fill="none" stroke="black" points="324.5,-56.5 324.5,-75.5 431.5,-75.5 431.5,-56.5 324.5,-56.5"/>
<text text-anchor="middle" x="378" y="-63.5" font-family="FreeSans.ttf" font-size="10.00">gpuNUFFT_utils.hpp</text>
</a>
</g>
</g>
<!-- Node14&#45;&gt;Node16 -->
<g id="edge18" class="edge">
<title>Node14&#45;&gt;Node16</title>
<path fill="none" stroke="midnightblue" d="M289.09,-224.25C287.34,-203.09 285.55,-148.24 309,-112 318.03,-98.05 333.07,-87.49 346.82,-80.12"/>
<polygon fill="midnightblue" stroke="midnightblue" points="348.64,-83.12 356.03,-75.53 345.52,-76.86 348.64,-83.12"/>
</g>
<!-- Node22 -->
<g id="node22" class="node">
<title>Node22</title>
<g id="a_node22"><a xlink:href="gpuNUFFT__operator_8hpp.html" target="_top" xlink:title=" ">
<polygon fill="none" stroke="black" points="570,-168.5 570,-187.5 694,-187.5 694,-168.5 570,-168.5"/>
<text text-anchor="middle" x="632" y="-175.5" font-family="FreeSans.ttf" font-size="10.00">gpuNUFFT_operator.hpp</text>
</a>
</g>
</g>
<!-- Node14&#45;&gt;Node22 -->
<g id="edge27" class="edge">
<title>Node14&#45;&gt;Node22</title>
<path fill="none" stroke="midnightblue" d="M329.57,-226.75C387.97,-217.53 497.88,-200.18 567.89,-189.12"/>
<polygon fill="midnightblue" stroke="midnightblue" points="568.59,-192.56 577.92,-187.54 567.5,-185.64 568.59,-192.56"/>
</g>
<!-- Node28 -->
<g id="node28" class="node">
<title>Node28</title>
<g id="a_node28"><a xlink:title=" ">
<polygon fill="none" stroke="#bfbfbf" points="318.5,-168.5 318.5,-187.5 369.5,-187.5 369.5,-168.5 318.5,-168.5"/>
<text text-anchor="middle" x="344" y="-175.5" font-family="FreeSans.ttf" font-size="10.00">stdarg.h</text>
</a>
</g>
</g>
<!-- Node14&#45;&gt;Node28 -->
<g id="edge39" class="edge">
<title>Node14&#45;&gt;Node28</title>
<path fill="none" stroke="midnightblue" d="M298.92,-224.08C306.78,-216.22 318.43,-204.57 327.92,-195.08"/>
<polygon fill="midnightblue" stroke="midnightblue" points="330.65,-197.3 335.25,-187.75 325.7,-192.35 330.65,-197.3"/>
</g>
<!-- Node16&#45;&gt;Node11 -->
<g id="edge22" class="edge">
<title>Node16&#45;&gt;Node11</title>
<path fill="none" stroke="midnightblue" d="M345.04,-56.44C309.21,-47.14 251.84,-32.25 212.61,-22.06"/>
<polygon fill="midnightblue" stroke="midnightblue" points="213.36,-18.64 202.8,-19.52 211.6,-25.42 213.36,-18.64"/>
</g>
<!-- Node16&#45;&gt;Node12 -->
<g id="edge21" class="edge">
<title>Node16&#45;&gt;Node12</title>
<path fill="none" stroke="midnightblue" d="M328.09,-56.44C262.9,-45.27 150.6,-26.02 95.46,-16.57"/>
<polygon fill="midnightblue" stroke="midnightblue" points="95.99,-13.1 85.54,-14.86 94.81,-20 95.99,-13.1"/>
</g>
<!-- Node16&#45;&gt;Node15 -->
<g id="edge20" class="edge">
<title>Node16&#45;&gt;Node15</title>
<path fill="none" stroke="midnightblue" d="M358.03,-56.44C337.39,-47.6 304.94,-33.69 281.37,-23.59"/>
<polygon fill="midnightblue" stroke="midnightblue" points="282.44,-20.24 271.87,-19.52 279.68,-26.67 282.44,-20.24"/>
</g>
<!-- Node17 -->
<g id="node17" class="node">
<title>Node17</title>
<g id="a_node17"><a xlink:title=" ">
<polygon fill="none" stroke="#bfbfbf" points="361.5,-0.5 361.5,-19.5 408.5,-19.5 408.5,-0.5 361.5,-0.5"/>
<text text-anchor="middle" x="385" y="-7.5" font-family="FreeSans.ttf" font-size="10.00">stdlib.h</text>
</a>
</g>
</g>
<!-- Node16&#45;&gt;Node17 -->
<g id="edge19" class="edge">
<title>Node16&#45;&gt;Node17</title>
<path fill="none" stroke="midnightblue" d="M379.16,-56.08C380.08,-48.93 381.42,-38.64 382.58,-29.69"/>
<polygon fill="midnightblue" stroke="midnightblue" points="386.05,-30.12 383.87,-19.75 379.11,-29.22 386.05,-30.12"/>
</g>
<!-- Node16&#45;&gt;Node18 -->
<g id="edge23" class="edge">
<title>Node16&#45;&gt;Node18</title>
<path fill="none" stroke="midnightblue" d="M431.51,-61.27C577.78,-51.06 982.06,-22.86 1111.54,-13.82"/>
<polygon fill="midnightblue" stroke="midnightblue" points="1112.07,-17.29 1121.8,-13.11 1111.58,-10.31 1112.07,-17.29"/>
</g>
<!-- Node19 -->
<g id="node19" class="node">
<title>Node19</title>
<g id="a_node19"><a xlink:title=" ">
<polygon fill="none" stroke="#bfbfbf" points="491,-0.5 491,-19.5 535,-19.5 535,-0.5 491,-0.5"/>
<text text-anchor="middle" x="513" y="-7.5" font-family="FreeSans.ttf" font-size="10.00">cmath</text>
</a>
</g>
</g>
<!-- Node16&#45;&gt;Node19 -->
<g id="edge24" class="edge">
<title>Node16&#45;&gt;Node19</title>
<path fill="none" stroke="midnightblue" d="M399.39,-56.44C421.71,-47.52 456.9,-33.44 482.21,-23.32"/>
<polygon fill="midnightblue" stroke="midnightblue" points="483.72,-26.48 491.71,-19.52 481.12,-19.98 483.72,-26.48"/>
</g>
<!-- Node20 -->
<g id="node20" class="node">
<title>Node20</title>
<g id="a_node20"><a xlink:title=" ">
<polygon fill="none" stroke="#bfbfbf" points="427,-0.5 427,-19.5 473,-19.5 473,-0.5 427,-0.5"/>
<text text-anchor="middle" x="450" y="-7.5" font-family="FreeSans.ttf" font-size="10.00">math.h</text>
</a>
</g>
</g>
<!-- Node16&#45;&gt;Node20 -->
<g id="edge25" class="edge">
<title>Node16&#45;&gt;Node20</title>
<path fill="none" stroke="midnightblue" d="M389.57,-56.32C400.42,-48.18 416.88,-35.84 429.88,-26.09"/>
<polygon fill="midnightblue" stroke="midnightblue" points="432.32,-28.63 438.22,-19.83 428.12,-23.03 432.32,-28.63"/>
</g>
<!-- Node21 -->
<g id="node21" class="node">
<title>Node21</title>
<g id="a_node21"><a xlink:title=" ">
<polygon fill="none" stroke="#bfbfbf" points="292.5,-0.5 292.5,-19.5 343.5,-19.5 343.5,-0.5 292.5,-0.5"/>
<text text-anchor="middle" x="318" y="-7.5" font-family="FreeSans.ttf" font-size="10.00">assert.h</text>
</a>
</g>
</g>
<!-- Node16&#45;&gt;Node21 -->
<g id="edge26" class="edge">
<title>Node16&#45;&gt;Node21</title>
<path fill="none" stroke="midnightblue" d="M368.36,-56.32C359.49,-48.34 346.13,-36.31 335.39,-26.65"/>
<polygon fill="midnightblue" stroke="midnightblue" points="337.59,-23.92 327.82,-19.83 332.91,-29.13 337.59,-23.92"/>
</g>
<!-- Node22&#45;&gt;Node18 -->
<g id="edge35" class="edge">
<title>Node22&#45;&gt;Node18</title>
<path fill="none" stroke="midnightblue" d="M639.77,-168.2C663.88,-140.92 736.23,-59.43 743,-56 806.9,-23.62 1021.71,-14.36 1111.75,-11.86"/>
<polygon fill="midnightblue" stroke="midnightblue" points="1111.94,-15.36 1121.84,-11.6 1111.76,-8.36 1111.94,-15.36"/>
</g>
<!-- Node22&#45;&gt;Node23 -->
<g id="edge28" class="edge">
<title>Node22&#45;&gt;Node23</title>
<path fill="none" stroke="midnightblue" d="M675.42,-168.44C723.52,-158.96 801.09,-143.67 852.81,-133.48"/>
<polygon fill="midnightblue" stroke="midnightblue" points="853.65,-136.88 862.79,-131.52 852.3,-130.02 853.65,-136.88"/>
</g>
<!-- Node24 -->
<g id="node24" class="node">
<title>Node24</title>
<g id="a_node24"><a xlink:title=" ">
<polygon fill="none" stroke="#bfbfbf" points="844.5,-56.5 844.5,-75.5 889.5,-75.5 889.5,-56.5 844.5,-56.5"/>
<text text-anchor="middle" x="867" y="-63.5" font-family="FreeSans.ttf" font-size="10.00">cstdlib</text>
</a>
</g>
</g>
<!-- Node22&#45;&gt;Node24 -->
<g id="edge36" class="edge">
<title>Node22&#45;&gt;Node24</title>
<path fill="none" stroke="midnightblue" d="M652.86,-168.35C673.96,-159.52 707.45,-145.25 736,-132 772.92,-114.87 814.97,-93.7 841.25,-80.27"/>
<polygon fill="midnightblue" stroke="midnightblue" points="842.88,-83.37 850.18,-75.7 839.68,-77.14 842.88,-83.37"/>
</g>
<!-- Node25 -->
<g id="node25" class="node">
<title>Node25</title>
<g id="a_node25"><a xlink:title=" ">
<polygon fill="none" stroke="#bfbfbf" points="752,-56.5 752,-75.5 806,-75.5 806,-56.5 752,-56.5"/>
<text text-anchor="middle" x="779" y="-63.5" font-family="FreeSans.ttf" font-size="10.00">iostream</text>
</a>
</g>
</g>
<!-- Node22&#45;&gt;Node25 -->
<g id="edge37" class="edge">
<title>Node22&#45;&gt;Node25</title>
<path fill="none" stroke="midnightblue" d="M649.71,-168.5C666.24,-160.2 691.25,-146.71 711,-132 730.92,-117.16 751.18,-97 764.34,-83.08"/>
<polygon fill="midnightblue" stroke="midnightblue" points="766.96,-85.41 771.21,-75.7 761.84,-80.64 766.96,-85.41"/>
</g>
<!-- Node26 -->
<g id="node26" class="node">
<title>Node26</title>
<g id="a_node26"><a xlink:href="gpuNUFFT__kernels_8hpp.html" target="_top" xlink:title="gpuNUFFT CUDA function prototypes">
<polygon fill="none" stroke="black" points="318,-112.5 318,-131.5 438,-131.5 438,-112.5 318,-112.5"/>
<text text-anchor="middle" x="378" y="-119.5" font-family="FreeSans.ttf" font-size="10.00">gpuNUFFT_kernels.hpp</text>
</a>
</g>
</g>
<!-- Node22&#45;&gt;Node26 -->
<g id="edge32" class="edge">
<title>Node22&#45;&gt;Node26</title>
<path fill="none" stroke="midnightblue" d="M591.75,-168.44C547.35,-159 475.85,-143.8 427.91,-133.61"/>
<polygon fill="midnightblue" stroke="midnightblue" points="428.57,-130.17 418.06,-131.52 427.11,-137.02 428.57,-130.17"/>
</g>
<!-- Node27 -->
<g id="node27" class="node">
<title>Node27</title>
<g id="a_node27"><a xlink:title=" ">
<polygon fill="none" stroke="#bfbfbf" points="602.5,-112.5 602.5,-131.5 661.5,-131.5 661.5,-112.5 602.5,-112.5"/>
<text text-anchor="middle" x="632" y="-119.5" font-family="FreeSans.ttf" font-size="10.00">functional</text>
</a>
</g>
</g>
<!-- Node22&#45;&gt;Node27 -->
<g id="edge38" class="edge">
<title>Node22&#45;&gt;Node27</title>
<path fill="none" stroke="midnightblue" d="M632,-168.08C632,-161.01 632,-150.86 632,-141.99"/>
<polygon fill="midnightblue" stroke="midnightblue" points="635.5,-141.75 632,-131.75 628.5,-141.75 635.5,-141.75"/>
</g>
<!-- Node23&#45;&gt;Node18 -->
<g id="edge31" class="edge">
<title>Node23&#45;&gt;Node18</title>
<path fill="none" stroke="midnightblue" d="M925.3,-112.37C968.42,-93.09 1072.71,-46.45 1123.4,-23.79"/>
<polygon fill="midnightblue" stroke="midnightblue" points="1125.09,-26.87 1132.79,-19.59 1122.23,-20.48 1125.09,-26.87"/>
</g>
<!-- Node23&#45;&gt;Node24 -->
<g id="edge29" class="edge">
<title>Node23&#45;&gt;Node24</title>
<path fill="none" stroke="midnightblue" d="M899.56,-112.08C894.05,-104.46 885.97,-93.26 879.24,-83.94"/>
<polygon fill="midnightblue" stroke="midnightblue" points="882.01,-81.81 873.32,-75.75 876.34,-85.91 882.01,-81.81"/>
</g>
<!-- Node23&#45;&gt;Node25 -->
<g id="edge30" class="edge">
<title>Node23&#45;&gt;Node25</title>
<path fill="none" stroke="midnightblue" d="M885.88,-112.44C864.98,-103.56 832.07,-89.56 808.28,-79.45"/>
<polygon fill="midnightblue" stroke="midnightblue" points="809.6,-76.21 799.03,-75.52 806.86,-82.65 809.6,-76.21"/>
</g>
<!-- Node26&#45;&gt;Node14 -->
<g id="edge34" class="edge">
<title>Node26&#45;&gt;Node14</title>
<path fill="none" stroke="midnightblue" d="M380.69,-131.76C384.2,-145.02 388.72,-170.48 378,-188 368.49,-203.54 351.74,-213.93 335.38,-220.77"/>
<polygon fill="midnightblue" stroke="midnightblue" points="333.95,-217.57 325.85,-224.4 336.44,-224.11 333.95,-217.57"/>
</g>
<!-- Node26&#45;&gt;Node16 -->
<g id="edge33" class="edge">
<title>Node26&#45;&gt;Node16</title>
<path fill="none" stroke="midnightblue" d="M378,-112.08C378,-105.01 378,-94.86 378,-85.99"/>
<polygon fill="midnightblue" stroke="midnightblue" points="381.5,-85.75 378,-75.75 374.5,-85.75 381.5,-85.75"/>
</g>
<!-- Node30&#45;&gt;Node2 -->
<g id="edge59" class="edge">
<title>Node30&#45;&gt;Node2</title>
<path fill="none" stroke="midnightblue" d="M583.89,-351.43C512.06,-345.97 403.66,-334.45 312,-311 309.33,-310.32 306.6,-309.5 303.89,-308.6"/>
<polygon fill="midnightblue" stroke="midnightblue" points="304.88,-305.23 294.29,-305.09 302.48,-311.81 304.88,-305.23"/>
</g>
<!-- Node30&#45;&gt;Node5 -->
<g id="edge60" class="edge">
<title>Node30&#45;&gt;Node5</title>
<path fill="none" stroke="midnightblue" d="M583.76,-349.75C524.92,-343.66 443.21,-332.11 374,-311 372.12,-310.43 370.22,-309.76 368.32,-309.04"/>
<polygon fill="midnightblue" stroke="midnightblue" points="369.64,-305.79 359.07,-305.07 366.88,-312.23 369.64,-305.79"/>
</g>
<!-- Node30&#45;&gt;Node6 -->
<g id="edge61" class="edge">
<title>Node30&#45;&gt;Node6</title>
<path fill="none" stroke="midnightblue" d="M604.69,-347.48C559.02,-340.05 494.21,-327.81 439,-311 436.72,-310.31 434.38,-309.52 432.05,-308.67"/>
<polygon fill="midnightblue" stroke="midnightblue" points="433.23,-305.38 422.65,-305.01 430.69,-311.9 433.23,-305.38"/>
</g>
<!-- Node30&#45;&gt;Node14 -->
<g id="edge63" class="edge">
<title>Node30&#45;&gt;Node14</title>
<path fill="none" stroke="midnightblue" d="M595.14,-347.46C557.5,-340.92 510.62,-329.73 472,-311 452.08,-301.34 452.55,-290.39 433,-280 403.6,-264.38 367.87,-253.14 339.49,-245.79"/>
<polygon fill="midnightblue" stroke="midnightblue" points="340.33,-242.4 329.78,-243.36 338.62,-249.19 340.33,-242.4"/>
</g>
<!-- Node30&#45;&gt;Node18 -->
<g id="edge43" class="edge">
<title>Node30&#45;&gt;Node18</title>
<path fill="none" stroke="midnightblue" d="M742.27,-349.33C843.26,-340.38 1007.81,-324.09 1033,-311 1103.09,-274.59 1152,-257.99 1152,-179 1152,-179 1152,-179 1152,-121 1152,-88.95 1152,-51.64 1152,-29.75"/>
<polygon fill="midnightblue" stroke="midnightblue" points="1155.5,-29.56 1152,-19.56 1148.5,-29.56 1155.5,-29.56"/>
</g>
<!-- Node30&#45;&gt;Node19 -->
<g id="edge62" class="edge">
<title>Node30&#45;&gt;Node19</title>
<path fill="none" stroke="midnightblue" d="M656.54,-347.38C638.83,-323.37 588.98,-253.22 561,-188 537.31,-132.77 522.46,-62.77 516.29,-29.79"/>
<polygon fill="midnightblue" stroke="midnightblue" points="519.7,-28.98 514.47,-19.76 512.81,-30.23 519.7,-28.98"/>
</g>
<!-- Node30&#45;&gt;Node22 -->
<g id="edge44" class="edge">
<title>Node30&#45;&gt;Node22</title>
<path fill="none" stroke="midnightblue" d="M661.5,-347.46C656.77,-320.43 642.02,-236.24 635.35,-198.11"/>
<polygon fill="midnightblue" stroke="midnightblue" points="638.73,-197.11 633.55,-187.87 631.83,-198.32 638.73,-197.11"/>
</g>
<!-- Node31 -->
<g id="node31" class="node">
<title>Node31</title>
<g id="a_node31"><a xlink:href="balanced__gpuNUFFT__operator_8hpp.html" target="_top" xlink:title=" ">
<polygon fill="none" stroke="black" points="839,-224.5 839,-243.5 1007,-243.5 1007,-224.5 839,-224.5"/>
<text text-anchor="middle" x="923" y="-231.5" font-family="FreeSans.ttf" font-size="10.00">balanced_gpuNUFFT_operator.hpp</text>
</a>
</g>
</g>
<!-- Node30&#45;&gt;Node31 -->
<g id="edge45" class="edge">
<title>Node30&#45;&gt;Node31</title>
<path fill="none" stroke="midnightblue" d="M681.28,-347.49C726.11,-326.63 841.74,-272.82 895.17,-247.95"/>
<polygon fill="midnightblue" stroke="midnightblue" points="896.8,-251.05 904.39,-243.66 893.85,-244.71 896.8,-251.05"/>
</g>
<!-- Node33 -->
<g id="node33" class="node">
<title>Node33</title>
<g id="a_node33"><a xlink:href="texture__gpuNUFFT__operator_8hpp.html" target="_top" xlink:title=" ">
<polygon fill="none" stroke="black" points="663,-224.5 663,-243.5 821,-243.5 821,-224.5 663,-224.5"/>
<text text-anchor="middle" x="742" y="-231.5" font-family="FreeSans.ttf" font-size="10.00">texture_gpuNUFFT_operator.hpp</text>
</a>
</g>
</g>
<!-- Node30&#45;&gt;Node33 -->
<g id="edge50" class="edge">
<title>Node30&#45;&gt;Node33</title>
<path fill="none" stroke="midnightblue" d="M668.68,-347.3C681.66,-327.41 713.7,-278.35 730.8,-252.15"/>
<polygon fill="midnightblue" stroke="midnightblue" points="733.83,-253.91 736.37,-243.62 727.97,-250.08 733.83,-253.91"/>
</g>
<!-- Node36 -->
<g id="node36" class="node">
<title>Node36</title>
<g id="a_node36"><a xlink:href="balanced__texture__gpuNUFFT__operator_8hpp.html" target="_top" xlink:title=" ">
<polygon fill="none" stroke="black" points="880,-280.5 880,-310.5 1024,-310.5 1024,-280.5 880,-280.5"/>
<text text-anchor="start" x="888" y="-298.5" font-family="FreeSans.ttf" font-size="10.00">balanced_texture_gpuNUFFT</text>
<text text-anchor="middle" x="952" y="-287.5" font-family="FreeSans.ttf" font-size="10.00">_operator.hpp</text>
</a>
</g>
</g>
<!-- Node30&#45;&gt;Node36 -->
<g id="edge55" class="edge">
<title>Node30&#45;&gt;Node36</title>
<path fill="none" stroke="midnightblue" d="M704.41,-347.48C748.49,-338.4 819.27,-323.83 873.89,-312.58"/>
<polygon fill="midnightblue" stroke="midnightblue" points="874.8,-315.97 883.89,-310.52 873.39,-309.11 874.8,-315.97"/>
</g>
<!-- Node37 -->
<g id="node37" class="node">
<title>Node37</title>
<g id="a_node37"><a xlink:href="precomp__utils_8hpp.html" target="_top" xlink:title="UTIL functions for precomputation.">
<polygon fill="none" stroke="black" points="481.5,-286 481.5,-305 576.5,-305 576.5,-286 481.5,-286"/>
<text text-anchor="middle" x="529" y="-293" font-family="FreeSans.ttf" font-size="10.00">precomp_utils.hpp</text>
</a>
</g>
</g>
<!-- Node30&#45;&gt;Node37 -->
<g id="edge64" class="edge">
<title>Node30&#45;&gt;Node37</title>
<path fill="none" stroke="midnightblue" d="M643.8,-347.48C621.21,-337.45 583.5,-320.7 557.5,-309.15"/>
<polygon fill="midnightblue" stroke="midnightblue" points="558.72,-305.87 548.16,-305.01 555.88,-312.27 558.72,-305.87"/>
</g>
<!-- Node31&#45;&gt;Node22 -->
<g id="edge47" class="edge">
<title>Node31&#45;&gt;Node22</title>
<path fill="none" stroke="midnightblue" d="M876.89,-224.44C825.59,-214.92 742.73,-199.55 687.81,-189.36"/>
<polygon fill="midnightblue" stroke="midnightblue" points="688.36,-185.9 677.89,-187.52 687.09,-192.78 688.36,-185.9"/>
</g>
<!-- Node31&#45;&gt;Node23 -->
<g id="edge46" class="edge">
<title>Node31&#45;&gt;Node23</title>
<path fill="none" stroke="midnightblue" d="M921.67,-224.37C918.92,-206.62 912.59,-165.67 908.87,-141.6"/>
<polygon fill="midnightblue" stroke="midnightblue" points="912.31,-140.94 907.33,-131.59 905.4,-142.01 912.31,-140.94"/>
</g>
<!-- Node32 -->
<g id="node32" class="node">
<title>Node32</title>
<g id="a_node32"><a xlink:href="balanced__operator_8hpp.html" target="_top" xlink:title=" ">
<polygon fill="none" stroke="black" points="934,-168.5 934,-187.5 1048,-187.5 1048,-168.5 934,-168.5"/>
<text text-anchor="middle" x="991" y="-175.5" font-family="FreeSans.ttf" font-size="10.00">balanced_operator.hpp</text>
</a>
</g>
</g>
<!-- Node31&#45;&gt;Node32 -->
<g id="edge48" class="edge">
<title>Node31&#45;&gt;Node32</title>
<path fill="none" stroke="midnightblue" d="M933.93,-224.32C944.17,-216.18 959.72,-203.84 972,-194.09"/>
<polygon fill="midnightblue" stroke="midnightblue" points="974.22,-196.79 979.88,-187.83 969.87,-191.31 974.22,-196.79"/>
</g>
<!-- Node32&#45;&gt;Node23 -->
<g id="edge49" class="edge">
<title>Node32&#45;&gt;Node23</title>
<path fill="none" stroke="midnightblue" d="M977.34,-168.32C964.08,-159.9 943.73,-146.97 928.15,-137.07"/>
<polygon fill="midnightblue" stroke="midnightblue" points="929.94,-134.06 919.62,-131.65 926.19,-139.97 929.94,-134.06"/>
</g>
<!-- Node33&#45;&gt;Node22 -->
<g id="edge54" class="edge">
<title>Node33&#45;&gt;Node22</title>
<path fill="none" stroke="midnightblue" d="M724.33,-224.32C706.61,-215.62 679.1,-202.12 658.71,-192.11"/>
<polygon fill="midnightblue" stroke="midnightblue" points="660.15,-188.92 649.63,-187.65 657.06,-195.2 660.15,-188.92"/>
</g>
<!-- Node33&#45;&gt;Node23 -->
<g id="edge53" class="edge">
<title>Node33&#45;&gt;Node23</title>
<path fill="none" stroke="midnightblue" d="M772,-224.44C794.55,-217.08 825.46,-204.97 849,-188 867.38,-174.75 883.9,-154.53 894.37,-140.16"/>
<polygon fill="midnightblue" stroke="midnightblue" points="897.43,-141.89 900.33,-131.7 891.71,-137.86 897.43,-141.89"/>
</g>
<!-- Node34 -->
<g id="node34" class="node">
<title>Node34</title>
<g id="a_node34"><a xlink:title=" ">
<polygon fill="none" stroke="#bfbfbf" points="790,-168.5 790,-187.5 840,-187.5 840,-168.5 790,-168.5"/>
<text text-anchor="middle" x="815" y="-175.5" font-family="FreeSans.ttf" font-size="10.00">typeinfo</text>
</a>
</g>
</g>
<!-- Node33&#45;&gt;Node34 -->
<g id="edge51" class="edge">
<title>Node33&#45;&gt;Node34</title>
<path fill="none" stroke="midnightblue" d="M753.73,-224.32C764.84,-216.11 781.74,-203.6 794.98,-193.81"/>
<polygon fill="midnightblue" stroke="midnightblue" points="797.1,-196.59 803.06,-187.83 792.94,-190.97 797.1,-196.59"/>
</g>
<!-- Node35 -->
<g id="node35" class="node">
<title>Node35</title>
<g id="a_node35"><a xlink:title=" ">
<polygon fill="none" stroke="#bfbfbf" points="712.5,-168.5 712.5,-187.5 771.5,-187.5 771.5,-168.5 712.5,-168.5"/>
<text text-anchor="middle" x="742" y="-175.5" font-family="FreeSans.ttf" font-size="10.00">stdexcept</text>
</a>
</g>
</g>
<!-- Node33&#45;&gt;Node35 -->
<g id="edge52" class="edge">
<title>Node33&#45;&gt;Node35</title>
<path fill="none" stroke="midnightblue" d="M742,-224.08C742,-217.01 742,-206.86 742,-197.99"/>
<polygon fill="midnightblue" stroke="midnightblue" points="745.5,-197.75 742,-187.75 738.5,-197.75 745.5,-197.75"/>
</g>
<!-- Node36&#45;&gt;Node23 -->
<g id="edge56" class="edge">
<title>Node36&#45;&gt;Node23</title>
<path fill="none" stroke="midnightblue" d="M979.03,-280.48C1019.67,-257.54 1088.56,-210.33 1057,-168 1037.38,-141.68 1002.97,-130.15 971.95,-125.32"/>
<polygon fill="midnightblue" stroke="midnightblue" points="972.4,-121.85 962.02,-123.98 971.46,-128.79 972.4,-121.85"/>
</g>
<!-- Node36&#45;&gt;Node32 -->
<g id="edge58" class="edge">
<title>Node36&#45;&gt;Node32</title>
<path fill="none" stroke="midnightblue" d="M979.72,-280.46C993.34,-271.94 1008.41,-259.67 1016,-244 1023.71,-228.09 1014.45,-209.14 1005.1,-195.82"/>
<polygon fill="midnightblue" stroke="midnightblue" points="1007.67,-193.42 998.81,-187.61 1002.11,-197.68 1007.67,-193.42"/>
</g>
<!-- Node36&#45;&gt;Node33 -->
<g id="edge57" class="edge">
<title>Node36&#45;&gt;Node33</title>
<path fill="none" stroke="midnightblue" d="M902.5,-280.47C865.64,-270.03 815.97,-255.96 781.69,-246.25"/>
<polygon fill="midnightblue" stroke="midnightblue" points="782.6,-242.87 772.02,-243.51 780.69,-249.6 782.6,-242.87"/>
</g>
<!-- Node37&#45;&gt;Node14 -->
<g id="edge65" class="edge">
<title>Node37&#45;&gt;Node14</title>
<path fill="none" stroke="midnightblue" d="M494.76,-285.98C452.43,-275.44 380.32,-257.49 333.95,-245.94"/>
<polygon fill="midnightblue" stroke="midnightblue" points="334.73,-242.53 324.18,-243.51 333.04,-249.32 334.73,-242.53"/>
</g>
<!-- Node37&#45;&gt;Node16 -->
<g id="edge67" class="edge">
<title>Node37&#45;&gt;Node16</title>
<path fill="none" stroke="midnightblue" d="M520.8,-285.84C512.11,-276.27 498.49,-260.06 490,-244 461.17,-189.45 484.53,-160.97 447,-112 436.68,-98.53 421.11,-87.89 407.37,-80.33"/>
<polygon fill="midnightblue" stroke="midnightblue" points="408.72,-77.1 398.24,-75.61 405.51,-83.31 408.72,-77.1"/>
</g>
<!-- Node37&#45;&gt;Node19 -->
<g id="edge68" class="edge">
<title>Node37&#45;&gt;Node19</title>
<path fill="none" stroke="midnightblue" d="M525.83,-285.94C519.11,-266.97 504,-219.83 504,-179 504,-179 504,-179 504,-121 504,-88.84 507.87,-51.57 510.53,-29.71"/>
<polygon fill="midnightblue" stroke="midnightblue" points="514.04,-29.9 511.82,-19.54 507.09,-29.02 514.04,-29.9"/>
</g>
<!-- Node37&#45;&gt;Node22 -->
<g id="edge66" class="edge">
<title>Node37&#45;&gt;Node22</title>
<path fill="none" stroke="midnightblue" d="M536.74,-285.82C553.89,-266.59 595.31,-220.14 617.46,-195.31"/>
<polygon fill="midnightblue" stroke="midnightblue" points="620.12,-197.57 624.17,-187.78 614.9,-192.92 620.12,-197.57"/>
</g>
<!-- Node38&#45;&gt;Node7 -->
<g id="edge71" class="edge">
<title>Node38&#45;&gt;Node7</title>
<path fill="none" stroke="midnightblue" d="M1000.02,-403.44C975.84,-394.44 937.58,-380.19 910.35,-370.05"/>
<polygon fill="midnightblue" stroke="midnightblue" points="911.46,-366.73 900.87,-366.52 909.02,-373.29 911.46,-366.73"/>
</g>
<!-- Node38&#45;&gt;Node8 -->
<g id="edge72" class="edge">
<title>Node38&#45;&gt;Node8</title>
<path fill="none" stroke="midnightblue" d="M1024.65,-403.08C1025.98,-395.93 1027.88,-385.64 1029.54,-376.69"/>
<polygon fill="midnightblue" stroke="midnightblue" points="1033,-377.22 1031.38,-366.75 1026.12,-375.95 1033,-377.22"/>
</g>
<!-- Node38&#45;&gt;Node9 -->
<g id="edge73" class="edge">
<title>Node38&#45;&gt;Node9</title>
<path fill="none" stroke="midnightblue" d="M1042.97,-403.44C1063.61,-394.6 1096.06,-380.69 1119.63,-370.59"/>
<polygon fill="midnightblue" stroke="midnightblue" points="1121.32,-373.67 1129.13,-366.52 1118.56,-367.24 1121.32,-373.67"/>
</g>
<!-- Node38&#45;&gt;Node18 -->
<g id="edge74" class="edge">
<title>Node38&#45;&gt;Node18</title>
<path fill="none" stroke="midnightblue" d="M1072.02,-405.85C1120.36,-398.81 1189.73,-385.78 1209,-367 1232.24,-344.35 1228,-328.95 1228,-296.5 1228,-296.5 1228,-296.5 1228,-121 1228,-90.2 1221.53,-81.32 1204,-56 1195.82,-44.19 1183.85,-33.54 1173.45,-25.57"/>
<polygon fill="midnightblue" stroke="midnightblue" points="1175.34,-22.62 1165.2,-19.54 1171.21,-28.27 1175.34,-22.62"/>
</g>
<!-- Node38&#45;&gt;Node30 -->
<g id="edge75" class="edge">
<title>Node38&#45;&gt;Node30</title>
<path fill="none" stroke="midnightblue" d="M973.7,-404.6C910.47,-395.12 800.55,-378.63 729.84,-368.03"/>
<polygon fill="midnightblue" stroke="midnightblue" points="730.11,-364.53 719.7,-366.51 729.07,-371.45 730.11,-364.53"/>
</g>
<!-- Node39&#45;&gt;Node7 -->
<g id="edge77" class="edge">
<title>Node39&#45;&gt;Node7</title>
<path fill="none" stroke="midnightblue" d="M826.8,-403.32C835.82,-395.34 849.41,-383.31 860.32,-373.65"/>
<polygon fill="midnightblue" stroke="midnightblue" points="862.85,-376.08 868.02,-366.83 858.21,-370.84 862.85,-376.08"/>
</g>
<!-- Node39&#45;&gt;Node8 -->
<g id="edge78" class="edge">
<title>Node39&#45;&gt;Node8</title>
<path fill="none" stroke="midnightblue" d="M851.23,-403.44C888.51,-394.12 948.27,-379.18 989.01,-369"/>
<polygon fill="midnightblue" stroke="midnightblue" points="990.08,-372.34 998.93,-366.52 988.38,-365.55 990.08,-372.34"/>
</g>
<!-- Node39&#45;&gt;Node9 -->
<g id="edge79" class="edge">
<title>Node39&#45;&gt;Node9</title>
<path fill="none" stroke="midnightblue" d="M860.06,-405C918.19,-395.54 1022.06,-378.65 1088.14,-367.9"/>
<polygon fill="midnightblue" stroke="midnightblue" points="1089.1,-371.29 1098.41,-366.23 1087.98,-364.38 1089.1,-371.29"/>
</g>
<!-- Node39&#45;&gt;Node12 -->
<g id="edge80" class="edge">
<title>Node39&#45;&gt;Node12</title>
<path fill="none" stroke="midnightblue" d="M773.73,-408.57C610.05,-394.4 38,-333.84 38,-179 38,-179 38,-179 38,-121 38,-88 48.83,-50.77 56.24,-29.19"/>
<polygon fill="midnightblue" stroke="midnightblue" points="59.57,-30.28 59.63,-19.69 52.97,-27.93 59.57,-30.28"/>
</g>
<!-- Node39&#45;&gt;Node18 -->
<g id="edge81" class="edge">
<title>Node39&#45;&gt;Node18</title>
<path fill="none" stroke="midnightblue" d="M813.77,-403.18C809.33,-389.39 803.37,-362.66 817,-347 855,-303.33 1022.24,-334.82 1075,-311 1145.91,-278.98 1190,-256.81 1190,-179 1190,-179 1190,-179 1190,-121 1190,-86.81 1173.4,-49.76 1162.14,-28.57"/>
<polygon fill="midnightblue" stroke="midnightblue" points="1165.18,-26.83 1157.28,-19.77 1159.05,-30.22 1165.18,-26.83"/>
</g>
<!-- Node39&#45;&gt;Node30 -->
<g id="edge82" class="edge">
<title>Node39&#45;&gt;Node30</title>
<path fill="none" stroke="midnightblue" d="M792.6,-403.44C766.8,-394.4 725.92,-380.06 696.98,-369.92"/>
<polygon fill="midnightblue" stroke="midnightblue" points="697.88,-366.52 687.29,-366.52 695.57,-373.13 697.88,-366.52"/>
</g>
</g>
</svg>
