<?xml version="1.0" encoding="UTF-8" standalone="no"?>
<!DOCTYPE svg PUBLIC "-//W3C//DTD SVG 1.1//EN"
 "http://www.w3.org/Graphics/SVG/1.1/DTD/svg11.dtd">
<!-- Generated by graphviz version 2.49.3 (20211027.1534)
 -->
<!-- Title: copyNumpyArray Pages: 1 -->
<svg width="432pt" height="176pt"
 viewBox="0.00 0.00 432.00 175.50" xmlns="http://www.w3.org/2000/svg" xmlns:xlink="http://www.w3.org/1999/xlink">
<g id="graph0" class="graph" transform="scale(1 1) rotate(0) translate(4 171.5)">
<title>copyNumpyArray</title>
<!-- Node1 -->
<g id="node1" class="node">
<title>Node1</title>
<g id="a_node1"><a xlink:title=" ">
<polygon fill="#bfbfbf" stroke="black" points="334,-68.5 334,-87.5 424,-87.5 424,-68.5 334,-68.5"/>
<text text-anchor="middle" x="379" y="-75.5" font-family="FreeSans.ttf" font-size="10.00">copyNumpyArray</text>
</a>
</g>
</g>
<!-- Node2 -->
<g id="node2" class="node">
<title>Node2</title>
<g id="a_node2"><a xlink:href="classGpuNUFFTPythonOperator.html#a9d5913daa75877d952160c6e126bbe07" target="_top" xlink:title="Adjoint operator (kspace to Image)">
<polygon fill="none" stroke="black" points="155.5,-137 155.5,-167 290.5,-167 290.5,-137 155.5,-137"/>
<text text-anchor="start" x="163.5" y="-155" font-family="FreeSans.ttf" font-size="10.00">GpuNUFFTPythonOperator</text>
<text text-anchor="middle" x="223" y="-144" font-family="FreeSans.ttf" font-size="10.00">::adj_op</text>
</a>
</g>
</g>
<!-- Node1&#45;&gt;Node2 -->
<g id="edge1" class="edge">
<title>Node1&#45;&gt;Node2</title>
<path fill="none" stroke="midnightblue" d="M356.56,-93.43C340.9,-104.18 318.85,-118.28 298,-128 291.02,-131.25 283.48,-134.25 275.98,-136.93"/>
<polygon fill="midnightblue" stroke="midnightblue" points="358.79,-96.14 364.98,-87.54 354.78,-90.4 358.79,-96.14"/>
</g>
<!-- Node4 -->
<g id="node4" class="node">
<title>Node4</title>
<g id="a_node4"><a xlink:href="classGpuNUFFTPythonOperator.html#a564644dc7ea9b8306cd6296ea6f1fca6" target="_top" xlink:title=" ">
<polygon fill="none" stroke="black" points="155.5,-88 155.5,-118 290.5,-118 290.5,-88 155.5,-88"/>
<text text-anchor="start" x="163.5" y="-106" font-family="FreeSans.ttf" font-size="10.00">GpuNUFFTPythonOperator</text>
<text text-anchor="middle" x="223" y="-95" font-family="FreeSans.ttf" font-size="10.00">::data_consistency</text>
</a>
</g>
</g>
<!-- Node1&#45;&gt;Node4 -->
<g id="edge3" class="edge">
<title>Node1&#45;&gt;Node4</title>
<path fill="none" stroke="midnightblue" d="M323.79,-86.8C313.04,-88.55 301.64,-90.4 290.53,-92.2"/>
<polygon fill="midnightblue" stroke="midnightblue" points="324.56,-90.22 333.87,-85.16 323.44,-83.31 324.56,-90.22"/>
</g>
<!-- Node5 -->
<g id="node5" class="node">
<title>Node5</title>
<g id="a_node5"><a xlink:href="classGpuNUFFTPythonOperator.html#ad9168e25f62f4e47aefb50f2ea279b0d" target="_top" xlink:title="Constructor.">
<polygon fill="none" stroke="black" points="153,-39 153,-69 293,-69 293,-39 153,-39"/>
<text text-anchor="start" x="161" y="-57" font-family="FreeSans.ttf" font-size="10.00">GpuNUFFTPythonOperator</text>
<text text-anchor="middle" x="223" y="-46" font-family="FreeSans.ttf" font-size="10.00">::GpuNUFFTPythonOperator</text>
</a>
</g>
</g>
<!-- Node1&#45;&gt;Node5 -->
<g id="edge5" class="edge">
<title>Node1&#45;&gt;Node5</title>
<path fill="none" stroke="midnightblue" d="M323.78,-69.55C313.87,-68.01 303.41,-66.38 293.14,-64.78"/>
<polygon fill="midnightblue" stroke="midnightblue" points="323.45,-73.04 333.87,-71.12 324.53,-66.12 323.45,-73.04"/>
</g>
<!-- Node6 -->
<g id="node6" class="node">
<title>Node6</title>
<g id="a_node6"><a xlink:href="classGpuNUFFTPythonOperator.html#a790d6c1885f30c640064a26f618e64ea" target="_top" xlink:title="Forward operator (Image to kspace)">
<polygon fill="none" stroke="black" points="148,-0.5 148,-19.5 298,-19.5 298,-0.5 148,-0.5"/>
<text text-anchor="middle" x="223" y="-7.5" font-family="FreeSans.ttf" font-size="10.00">GpuNUFFTPythonOperator::op</text>
</a>
</g>
</g>
<!-- Node1&#45;&gt;Node6 -->
<g id="edge6" class="edge">
<title>Node1&#45;&gt;Node6</title>
<path fill="none" stroke="midnightblue" d="M356.33,-62.74C340.71,-52.32 318.81,-38.85 298,-30 288.33,-25.88 277.57,-22.4 267.33,-19.56"/>
<polygon fill="midnightblue" stroke="midnightblue" points="354.5,-65.74 364.74,-68.47 358.44,-59.95 354.5,-65.74"/>
</g>
<!-- Node3 -->
<g id="node3" class="node">
<title>Node3</title>
<g id="a_node3"><a xlink:href="python__bindings_8cpp.html#ad1a7eaf0d60c015a4df3da44ddf58e27" target="_top" xlink:title=" ">
<polygon fill="none" stroke="black" points="0,-93.5 0,-112.5 112,-112.5 112,-93.5 0,-93.5"/>
<text text-anchor="middle" x="56" y="-100.5" font-family="FreeSans.ttf" font-size="10.00">PYBIND11_MODULE</text>
</a>
</g>
</g>
<!-- Node2&#45;&gt;Node3 -->
<g id="edge2" class="edge">
<title>Node2&#45;&gt;Node3</title>
<path fill="none" stroke="midnightblue" d="M161.24,-133.96C136.84,-126.71 109.71,-118.65 89.24,-112.58"/>
<polygon fill="midnightblue" stroke="midnightblue" points="160.57,-137.41 171.15,-136.9 162.56,-130.7 160.57,-137.41"/>
</g>
<!-- Node4&#45;&gt;Node3 -->
<g id="edge4" class="edge">
<title>Node4&#45;&gt;Node3</title>
<path fill="none" stroke="midnightblue" d="M145.22,-103C134.1,-103 122.84,-103 112.26,-103"/>
<polygon fill="midnightblue" stroke="midnightblue" points="145.36,-106.5 155.36,-103 145.36,-99.5 145.36,-106.5"/>
</g>
<!-- Node6&#45;&gt;Node3 -->
<g id="edge7" class="edge">
<title>Node6&#45;&gt;Node3</title>
<path fill="none" stroke="midnightblue" d="M165.56,-22.62C159.5,-24.74 153.53,-27.19 148,-30 114.41,-47.06 81.59,-77.87 66.16,-93.44"/>
<polygon fill="midnightblue" stroke="midnightblue" points="166.67,-25.93 175.12,-19.53 164.53,-19.27 166.67,-25.93"/>
</g>
</g>
</svg>
