<?xml version="1.0" encoding="UTF-8" standalone="no"?>
<!DOCTYPE svg PUBLIC "-//W3C//DTD SVG 1.1//EN"
 "http://www.w3.org/Graphics/SVG/1.1/DTD/svg11.dtd">
<!-- Generated by graphviz version 2.49.3 (20211027.1534)
 -->
<!-- Title: PYBIND11_MODULE Pages: 1 -->
<svg width="657pt" height="645pt"
 viewBox="0.00 0.00 657.00 645.00" xmlns="http://www.w3.org/2000/svg" xmlns:xlink="http://www.w3.org/1999/xlink">
<g id="graph0" class="graph" transform="scale(1 1) rotate(0) translate(4 641)">
<title>PYBIND11_MODULE</title>
<!-- Node1 -->
<g id="node1" class="node">
<title>Node1</title>
<g id="a_node1"><a xlink:title=" ">
<polygon fill="#bfbfbf" stroke="black" points="0,-374 0,-393 112,-393 112,-374 0,-374"/>
<text text-anchor="middle" x="56" y="-381" font-family="FreeSans.ttf" font-size="10.00">PYBIND11_MODULE</text>
</a>
</g>
</g>
<!-- Node2 -->
<g id="node2" class="node">
<title>Node2</title>
<g id="a_node2"><a xlink:href="classGpuNUFFTPythonOperator.html#a9d5913daa75877d952160c6e126bbe07" target="_top" xlink:title="Adjoint operator (kspace to Image)">
<polygon fill="none" stroke="black" points="155.5,-456.5 155.5,-486.5 290.5,-486.5 290.5,-456.5 155.5,-456.5"/>
<text text-anchor="start" x="163.5" y="-474.5" font-family="FreeSans.ttf" font-size="10.00">GpuNUFFTPythonOperator</text>
<text text-anchor="middle" x="223" y="-463.5" font-family="FreeSans.ttf" font-size="10.00">::adj_op</text>
</a>
</g>
</g>
<!-- Node1&#45;&gt;Node2 -->
<g id="edge1" class="edge">
<title>Node1&#45;&gt;Node2</title>
<path fill="none" stroke="midnightblue" d="M68.68,-393.2C85.38,-406.68 117.44,-431.14 148,-446.5 152.32,-448.67 156.86,-450.72 161.5,-452.64"/>
<polygon fill="midnightblue" stroke="midnightblue" points="160.49,-456 171.07,-456.4 163.05,-449.49 160.49,-456"/>
</g>
<!-- Node5 -->
<g id="node5" class="node">
<title>Node5</title>
<g id="a_node5"><a xlink:href="classGpuNUFFTPythonOperator.html#aa955beb4fd74d6291151af08eab22f62" target="_top" xlink:title=" ">
<polygon fill="none" stroke="black" points="155.5,-556.5 155.5,-586.5 290.5,-586.5 290.5,-556.5 155.5,-556.5"/>
<text text-anchor="start" x="163.5" y="-574.5" font-family="FreeSans.ttf" font-size="10.00">GpuNUFFTPythonOperator</text>
<text text-anchor="middle" x="223" y="-563.5" font-family="FreeSans.ttf" font-size="10.00">::clean_memory</text>
</a>
</g>
</g>
<!-- Node1&#45;&gt;Node5 -->
<g id="edge4" class="edge">
<title>Node1&#45;&gt;Node5</title>
<path fill="none" stroke="midnightblue" d="M64.24,-393.14C79.25,-412.99 115.14,-459.66 148,-496.5 164.38,-514.87 183.98,-534.64 198.9,-549.28"/>
<polygon fill="midnightblue" stroke="midnightblue" points="196.62,-551.95 206.23,-556.42 201.51,-546.94 196.62,-551.95"/>
</g>
<!-- Node7 -->
<g id="node7" class="node">
<title>Node7</title>
<g id="a_node7"><a xlink:href="classGpuNUFFTPythonOperator.html#a564644dc7ea9b8306cd6296ea6f1fca6" target="_top" xlink:title=" ">
<polygon fill="none" stroke="black" points="155.5,-368.5 155.5,-398.5 290.5,-398.5 290.5,-368.5 155.5,-368.5"/>
<text text-anchor="start" x="163.5" y="-386.5" font-family="FreeSans.ttf" font-size="10.00">GpuNUFFTPythonOperator</text>
<text text-anchor="middle" x="223" y="-375.5" font-family="FreeSans.ttf" font-size="10.00">::data_consistency</text>
</a>
</g>
</g>
<!-- Node1&#45;&gt;Node7 -->
<g id="edge6" class="edge">
<title>Node1&#45;&gt;Node7</title>
<path fill="none" stroke="midnightblue" d="M112.4,-383.5C122.94,-383.5 134.14,-383.5 145.2,-383.5"/>
<polygon fill="midnightblue" stroke="midnightblue" points="145.3,-387 155.3,-383.5 145.3,-380 145.3,-387"/>
</g>
<!-- Node17 -->
<g id="node17" class="node">
<title>Node17</title>
<g id="a_node17"><a xlink:href="classGpuNUFFTPythonOperator.html#a47e427fafc08d705d834940e1229742f" target="_top" xlink:title="Estimate density Compensation array using gpu&#45;only functions.">
<polygon fill="none" stroke="black" points="155.5,-196.5 155.5,-226.5 290.5,-226.5 290.5,-196.5 155.5,-196.5"/>
<text text-anchor="start" x="163.5" y="-214.5" font-family="FreeSans.ttf" font-size="10.00">GpuNUFFTPythonOperator</text>
<text text-anchor="middle" x="223" y="-203.5" font-family="FreeSans.ttf" font-size="10.00">::estimate_density_comp</text>
</a>
</g>
</g>
<!-- Node1&#45;&gt;Node17 -->
<g id="edge18" class="edge">
<title>Node1&#45;&gt;Node17</title>
<path fill="none" stroke="midnightblue" d="M66.34,-373.76C91.99,-347.02 164,-271.96 200.38,-234.04"/>
<polygon fill="midnightblue" stroke="midnightblue" points="203.18,-236.18 207.58,-226.54 198.13,-231.33 203.18,-236.18"/>
</g>
<!-- Node21 -->
<g id="node21" class="node">
<title>Node21</title>
<g id="a_node21"><a xlink:href="classGpuNUFFTPythonOperator.html#a10bcd0d453fef0947c00cb4448398d3b" target="_top" xlink:title="Estimate the spectral radius using gpu&#45;only functions.">
<polygon fill="none" stroke="black" points="155.5,-319.5 155.5,-349.5 290.5,-349.5 290.5,-319.5 155.5,-319.5"/>
<text text-anchor="start" x="163.5" y="-337.5" font-family="FreeSans.ttf" font-size="10.00">GpuNUFFTPythonOperator</text>
<text text-anchor="middle" x="223" y="-326.5" font-family="FreeSans.ttf" font-size="10.00">::get_spectral_radius</text>
</a>
</g>
</g>
<!-- Node1&#45;&gt;Node21 -->
<g id="edge27" class="edge">
<title>Node1&#45;&gt;Node21</title>
<path fill="none" stroke="midnightblue" d="M89.21,-373.94C109.82,-367.81 137.21,-359.68 161.76,-352.39"/>
<polygon fill="midnightblue" stroke="midnightblue" points="162.78,-355.74 171.37,-349.54 160.78,-349.03 162.78,-355.74"/>
</g>
<!-- Node22 -->
<g id="node22" class="node">
<title>Node22</title>
<g id="a_node22"><a xlink:href="classGpuNUFFTPythonOperator.html#a790d6c1885f30c640064a26f618e64ea" target="_top" xlink:title="Forward operator (Image to kspace)">
<polygon fill="none" stroke="black" points="148,-418 148,-437 298,-437 298,-418 148,-418"/>
<text text-anchor="middle" x="223" y="-425" font-family="FreeSans.ttf" font-size="10.00">GpuNUFFTPythonOperator::op</text>
</a>
</g>
</g>
<!-- Node1&#45;&gt;Node22 -->
<g id="edge32" class="edge">
<title>Node1&#45;&gt;Node22</title>
<path fill="none" stroke="midnightblue" d="M91.1,-393.01C108.17,-397.74 129.16,-403.49 148,-408.5 156.57,-410.78 165.71,-413.16 174.54,-415.44"/>
<polygon fill="midnightblue" stroke="midnightblue" points="173.77,-418.85 184.32,-417.96 175.51,-412.08 173.77,-418.85"/>
</g>
<!-- Node23 -->
<g id="node23" class="node">
<title>Node23</title>
<g id="a_node23"><a xlink:href="classGpuNUFFTPythonOperator.html#aaf1b1ce70db899390b2236ee9c350433" target="_top" xlink:title=" ">
<polygon fill="none" stroke="black" points="155.5,-74.5 155.5,-104.5 290.5,-104.5 290.5,-74.5 155.5,-74.5"/>
<text text-anchor="start" x="163.5" y="-92.5" font-family="FreeSans.ttf" font-size="10.00">GpuNUFFTPythonOperator</text>
<text text-anchor="middle" x="223" y="-81.5" font-family="FreeSans.ttf" font-size="10.00">::set_smaps</text>
</a>
</g>
</g>
<!-- Node1&#45;&gt;Node23 -->
<g id="edge35" class="edge">
<title>Node1&#45;&gt;Node23</title>
<path fill="none" stroke="midnightblue" d="M60.64,-373.69C71.76,-344.27 106.98,-254.59 148,-186.5 164.19,-159.63 186.41,-131.39 202.27,-112.35"/>
<polygon fill="midnightblue" stroke="midnightblue" points="205.08,-114.45 208.85,-104.54 199.73,-109.94 205.08,-114.45"/>
</g>
<!-- Node3 -->
<g id="node3" class="node">
<title>Node3</title>
<g id="a_node3"><a xlink:href="python__utils_8hpp.html#a6fc45707d1f047d4232b16582576b2e6" target="_top" xlink:title=" ">
<polygon fill="none" stroke="black" points="368,-568 368,-587 458,-587 458,-568 368,-568"/>
<text text-anchor="middle" x="413" y="-575" font-family="FreeSans.ttf" font-size="10.00">copyNumpyArray</text>
</a>
</g>
</g>
<!-- Node2&#45;&gt;Node3 -->
<g id="edge2" class="edge">
<title>Node2&#45;&gt;Node3</title>
<path fill="none" stroke="midnightblue" d="M238.57,-486.5C258.37,-506.02 295.71,-539.81 334,-558.5 341.56,-562.19 349.9,-565.2 358.22,-567.64"/>
<polygon fill="midnightblue" stroke="midnightblue" points="357.37,-571.03 367.93,-570.25 359.18,-564.27 357.37,-571.03"/>
</g>
<!-- Node4 -->
<g id="node4" class="node">
<title>Node4</title>
<g id="a_node4"><a xlink:href="classgpuNUFFT_1_1GpuNUFFTOperator.html#a38a45507d840b8d3d97de7fc79b4fa8a" target="_top" xlink:title="Perform Adjoint gridding operation on given kspaceData.">
<polygon fill="none" stroke="black" points="334,-366.5 334,-396.5 492,-396.5 492,-366.5 334,-366.5"/>
<text text-anchor="start" x="342" y="-384.5" font-family="FreeSans.ttf" font-size="10.00">gpuNUFFT::GpuNUFFTOperator</text>
<text text-anchor="middle" x="413" y="-373.5" font-family="FreeSans.ttf" font-size="10.00">::performGpuNUFFTAdj</text>
</a>
</g>
</g>
<!-- Node2&#45;&gt;Node4 -->
<g id="edge3" class="edge">
<title>Node2&#45;&gt;Node4</title>
<path fill="none" stroke="midnightblue" d="M279.24,-456.39C285.81,-453.58 292.22,-450.3 298,-446.5 317.98,-433.35 313.92,-419.49 334,-406.5 337.17,-404.45 340.53,-402.55 343.99,-400.81"/>
<polygon fill="midnightblue" stroke="midnightblue" points="345.73,-403.86 353.36,-396.51 342.81,-397.49 345.73,-403.86"/>
</g>
<!-- Node6 -->
<g id="node6" class="node">
<title>Node6</title>
<g id="a_node6"><a xlink:href="classgpuNUFFT_1_1GpuNUFFTOperator.html#a11b569c99d639766b533f26ac19a09e2" target="_top" xlink:title=" ">
<polygon fill="none" stroke="black" points="334,-606.5 334,-636.5 492,-636.5 492,-606.5 334,-606.5"/>
<text text-anchor="start" x="342" y="-624.5" font-family="FreeSans.ttf" font-size="10.00">gpuNUFFT::GpuNUFFTOperator</text>
<text text-anchor="middle" x="413" y="-613.5" font-family="FreeSans.ttf" font-size="10.00">::clean_memory</text>
</a>
</g>
</g>
<!-- Node5&#45;&gt;Node6 -->
<g id="edge5" class="edge">
<title>Node5&#45;&gt;Node6</title>
<path fill="none" stroke="midnightblue" d="M280.41,-586.5C300.85,-591.94 324.14,-598.13 345.39,-603.78"/>
<polygon fill="midnightblue" stroke="midnightblue" points="344.75,-607.23 355.31,-606.42 346.54,-600.47 344.75,-607.23"/>
</g>
<!-- Node7&#45;&gt;Node3 -->
<g id="edge9" class="edge">
<title>Node7&#45;&gt;Node3</title>
<path fill="none" stroke="midnightblue" d="M285.68,-398.52C290.24,-401.3 294.43,-404.6 298,-408.5 344.24,-459.12 285.6,-509.94 334,-558.5 340.57,-565.1 349.03,-569.55 357.94,-572.52"/>
<polygon fill="midnightblue" stroke="midnightblue" points="357.15,-575.93 367.72,-575.19 359,-569.18 357.15,-575.93"/>
</g>
<!-- Node7&#45;&gt;Node4 -->
<g id="edge17" class="edge">
<title>Node7&#45;&gt;Node4</title>
<path fill="none" stroke="midnightblue" d="M290.55,-382.79C301.3,-382.68 312.58,-382.56 323.76,-382.44"/>
<polygon fill="midnightblue" stroke="midnightblue" points="324.01,-385.94 333.97,-382.33 323.93,-378.94 324.01,-385.94"/>
</g>
<!-- Node8 -->
<g id="node8" class="node">
<title>Node8</title>
<g id="a_node8"><a xlink:href="cuda__utils_8hpp.html#a5fb34b1c5f091a495c7ac4237257d7b1" target="_top" xlink:title="Allocation of device memory of the given extent for the defined type.">
<polygon fill="none" stroke="black" points="362,-240 362,-259 464,-259 464,-240 362,-240"/>
<text text-anchor="middle" x="413" y="-247" font-family="FreeSans.ttf" font-size="10.00">allocateDeviceMem</text>
</a>
</g>
</g>
<!-- Node7&#45;&gt;Node8 -->
<g id="edge7" class="edge">
<title>Node7&#45;&gt;Node8</title>
<path fill="none" stroke="midnightblue" d="M285.81,-368.37C290.22,-365.85 294.36,-362.92 298,-359.5 329.71,-329.73 301.2,-297.07 334,-268.5 339.3,-263.89 345.53,-260.35 352.13,-257.66"/>
<polygon fill="midnightblue" stroke="midnightblue" points="353.66,-260.83 361.98,-254.27 351.39,-254.21 353.66,-260.83"/>
</g>
<!-- Node9 -->
<g id="node9" class="node">
<title>Node9</title>
<g id="a_node9"><a xlink:href="cuda__utils_8hpp.html#a0e734eacdc00ba553d77aa057e02059b" target="_top" xlink:title="Copy CUDA memory from device to host asynchronously.">
<polygon fill="none" stroke="black" points="355,-530 355,-549 471,-549 471,-530 355,-530"/>
<text text-anchor="middle" x="413" y="-537" font-family="FreeSans.ttf" font-size="10.00">copyFromDeviceAsync</text>
</a>
</g>
</g>
<!-- Node7&#45;&gt;Node9 -->
<g id="edge8" class="edge">
<title>Node7&#45;&gt;Node9</title>
<path fill="none" stroke="midnightblue" d="M285.01,-398.61C289.77,-401.37 294.19,-404.64 298,-408.5 334.7,-445.74 295.72,-484.88 334,-520.5 337.42,-523.68 341.28,-526.36 345.42,-528.6"/>
<polygon fill="midnightblue" stroke="midnightblue" points="344.27,-531.93 354.82,-532.87 347.15,-525.55 344.27,-531.93"/>
</g>
<!-- Node10 -->
<g id="node10" class="node">
<title>Node10</title>
<g id="a_node10"><a xlink:href="cuda__utils_8hpp.html#a52e9a7f2a2d5bed73e0e9e7d367b1198" target="_top" xlink:title="CUDA memcpy call to copy data from host to device.">
<polygon fill="none" stroke="black" points="374,-492 374,-511 452,-511 452,-492 374,-492"/>
<text text-anchor="middle" x="413" y="-499" font-family="FreeSans.ttf" font-size="10.00">copyToDevice</text>
</a>
</g>
</g>
<!-- Node7&#45;&gt;Node10 -->
<g id="edge10" class="edge">
<title>Node7&#45;&gt;Node10</title>
<path fill="none" stroke="midnightblue" d="M283.35,-398.62C288.63,-401.38 293.62,-404.65 298,-408.5 325.45,-432.67 305.53,-459.55 334,-482.5 342.56,-489.4 353.24,-493.85 363.94,-496.71"/>
<polygon fill="midnightblue" stroke="midnightblue" points="363.17,-500.12 373.7,-498.91 364.71,-493.29 363.17,-500.12"/>
</g>
<!-- Node11 -->
<g id="node11" class="node">
<title>Node11</title>
<g id="a_node11"><a xlink:href="structgpuNUFFT_1_1Array.html#af426f56b5d7e05b6143acbdd51bac188" target="_top" xlink:title=" ">
<polygon fill="none" stroke="black" points="352.5,-454 352.5,-473 473.5,-473 473.5,-454 352.5,-454"/>
<text text-anchor="middle" x="413" y="-461" font-family="FreeSans.ttf" font-size="10.00">gpuNUFFT::Array::count</text>
</a>
</g>
</g>
<!-- Node7&#45;&gt;Node11 -->
<g id="edge11" class="edge">
<title>Node7&#45;&gt;Node11</title>
<path fill="none" stroke="midnightblue" d="M278.28,-398.58C285.14,-401.42 291.89,-404.71 298,-408.5 317.22,-420.43 314.28,-433.41 334,-444.5 338,-446.75 342.27,-448.74 346.66,-450.49"/>
<polygon fill="midnightblue" stroke="midnightblue" points="345.84,-453.91 356.43,-453.96 348.18,-447.32 345.84,-453.91"/>
</g>
<!-- Node13 -->
<g id="node13" class="node">
<title>Node13</title>
<g id="a_node13"><a xlink:href="gpuNUFFT__kernels_8hpp.html#a7ea425f71e9b13006582e6280512f11c" target="_top" xlink:title="Perform data1 = data1 &#45; data2.">
<polygon fill="none" stroke="black" points="382,-416 382,-435 444,-435 444,-416 382,-416"/>
<text text-anchor="middle" x="413" y="-423" font-family="FreeSans.ttf" font-size="10.00">diffInPlace</text>
</a>
</g>
</g>
<!-- Node7&#45;&gt;Node13 -->
<g id="edge13" class="edge">
<title>Node7&#45;&gt;Node13</title>
<path fill="none" stroke="midnightblue" d="M290.55,-398.37C317.69,-404.43 348.18,-411.24 371.82,-416.52"/>
<polygon fill="midnightblue" stroke="midnightblue" points="371.31,-420 381.83,-418.76 372.84,-413.16 371.31,-420"/>
</g>
<!-- Node14 -->
<g id="node14" class="node">
<title>Node14</title>
<g id="a_node14"><a xlink:href="cuda__utils_8hpp.html#aaa83ead29bc50e65ae4298d9206a760b" target="_top" xlink:title="Free variable list of device pointers. Use NULL as stopping element.">
<polygon fill="none" stroke="black" points="353.5,-328 353.5,-347 472.5,-347 472.5,-328 353.5,-328"/>
<text text-anchor="middle" x="413" y="-335" font-family="FreeSans.ttf" font-size="10.00">freeTotalDeviceMemory</text>
</a>
</g>
</g>
<!-- Node7&#45;&gt;Node14 -->
<g id="edge14" class="edge">
<title>Node7&#45;&gt;Node14</title>
<path fill="none" stroke="midnightblue" d="M285.56,-368.44C310.76,-362.27 339.52,-355.24 363.23,-349.43"/>
<polygon fill="midnightblue" stroke="midnightblue" points="364.18,-352.81 373.06,-347.03 362.51,-346.01 364.18,-352.81"/>
</g>
<!-- Node16 -->
<g id="node16" class="node">
<title>Node16</title>
<g id="a_node16"><a xlink:href="classgpuNUFFT_1_1GpuNUFFTOperator.html#a10d565529aa2c7778c15edb8a820b417" target="_top" xlink:title="Perform forward gridding operation on given kspaceData.">
<polygon fill="none" stroke="black" points="334,-278.5 334,-308.5 492,-308.5 492,-278.5 334,-278.5"/>
<text text-anchor="start" x="342" y="-296.5" font-family="FreeSans.ttf" font-size="10.00">gpuNUFFT::GpuNUFFTOperator</text>
<text text-anchor="middle" x="413" y="-285.5" font-family="FreeSans.ttf" font-size="10.00">::performForwardGpuNUFFT</text>
</a>
</g>
</g>
<!-- Node7&#45;&gt;Node16 -->
<g id="edge16" class="edge">
<title>Node7&#45;&gt;Node16</title>
<path fill="none" stroke="midnightblue" d="M281.21,-368.44C287.1,-365.88 292.81,-362.91 298,-359.5 318.26,-346.17 313.72,-331.79 334,-318.5 337.1,-316.47 340.37,-314.6 343.75,-312.86"/>
<polygon fill="midnightblue" stroke="midnightblue" points="345.31,-316 352.91,-308.61 342.37,-309.65 345.31,-316"/>
</g>
<!-- Node12 -->
<g id="node12" class="node">
<title>Node12</title>
<g id="a_node12"><a xlink:href="structgpuNUFFT_1_1Dimensions.html#a4c589934c5444910fbcd890d128229c9" target="_top" xlink:title="Compute total count of array length.">
<polygon fill="none" stroke="black" points="528,-289.5 528,-319.5 649,-319.5 649,-289.5 528,-289.5"/>
<text text-anchor="start" x="536" y="-307.5" font-family="FreeSans.ttf" font-size="10.00">gpuNUFFT::Dimensions</text>
<text text-anchor="middle" x="588.5" y="-296.5" font-family="FreeSans.ttf" font-size="10.00">::count</text>
</a>
</g>
</g>
<!-- Node11&#45;&gt;Node12 -->
<g id="edge12" class="edge">
<title>Node11&#45;&gt;Node12</title>
<path fill="none" stroke="midnightblue" d="M473.51,-453.95C480.06,-451.48 486.38,-448.39 492,-444.5 534.13,-415.33 563.13,-361.06 577.38,-329.34"/>
<polygon fill="midnightblue" stroke="midnightblue" points="580.7,-330.46 581.48,-319.89 574.28,-327.67 580.7,-330.46"/>
</g>
<!-- Node15 -->
<g id="node15" class="node">
<title>Node15</title>
<g id="a_node15"><a xlink:href="cuda__utils_8hpp.html#a6ffa821f98a8c2b391c12c01308ff1db" target="_top" xlink:title="Free of device memory.">
<polygon fill="none" stroke="black" points="546,-235 546,-254 631,-254 631,-235 546,-235"/>
<text text-anchor="middle" x="588.5" y="-242" font-family="FreeSans.ttf" font-size="10.00">freeDeviceMem</text>
</a>
</g>
</g>
<!-- Node14&#45;&gt;Node15 -->
<g id="edge15" class="edge">
<title>Node14&#45;&gt;Node15</title>
<path fill="none" stroke="midnightblue" d="M470.53,-327.95C478.03,-325.48 485.39,-322.39 492,-318.5 512.33,-306.53 509.64,-294.31 528,-279.5 537.5,-271.84 548.86,-264.74 559.09,-258.96"/>
<polygon fill="midnightblue" stroke="midnightblue" points="560.99,-261.91 568.09,-254.05 557.63,-255.77 560.99,-261.91"/>
</g>
<!-- Node17&#45;&gt;Node4 -->
<g id="edge25" class="edge">
<title>Node17&#45;&gt;Node4</title>
<path fill="none" stroke="midnightblue" d="M235.36,-226.73C262.81,-263.48 330.71,-354.17 334,-356.5 336.73,-358.43 339.61,-360.22 342.6,-361.87"/>
<polygon fill="midnightblue" stroke="midnightblue" points="341.31,-365.14 351.83,-366.44 344.42,-358.87 341.31,-365.14"/>
</g>
<!-- Node17&#45;&gt;Node8 -->
<g id="edge20" class="edge">
<title>Node17&#45;&gt;Node8</title>
<path fill="none" stroke="midnightblue" d="M290.55,-224.95C311.51,-229.19 334.47,-233.83 354.73,-237.92"/>
<polygon fill="midnightblue" stroke="midnightblue" points="354.25,-241.4 364.75,-239.95 355.64,-234.54 354.25,-241.4"/>
</g>
<!-- Node17&#45;&gt;Node12 -->
<g id="edge22" class="edge">
<title>Node17&#45;&gt;Node12</title>
<path fill="none" stroke="midnightblue" d="M290.74,-204.35C346.77,-201.07 427.73,-202.84 492,-230.5 511.94,-239.08 511.02,-249.98 528,-263.5 536.7,-270.43 546.51,-277.48 555.62,-283.73"/>
<polygon fill="midnightblue" stroke="midnightblue" points="553.83,-286.75 564.08,-289.45 557.76,-280.95 553.83,-286.75"/>
</g>
<!-- Node17&#45;&gt;Node15 -->
<g id="edge23" class="edge">
<title>Node17&#45;&gt;Node15</title>
<path fill="none" stroke="midnightblue" d="M245.5,-196.37C266.82,-182.37 300.98,-162.55 334,-154.5 402.23,-137.87 426.73,-128.59 492,-154.5 528.48,-168.98 559.11,-204.73 575.24,-226.56"/>
<polygon fill="midnightblue" stroke="midnightblue" points="572.4,-228.6 581.06,-234.7 578.09,-224.53 572.4,-228.6"/>
</g>
<!-- Node17&#45;&gt;Node16 -->
<g id="edge24" class="edge">
<title>Node17&#45;&gt;Node16</title>
<path fill="none" stroke="midnightblue" d="M250.08,-226.6C272,-238.9 304.41,-256.19 334,-268.5 339.47,-270.77 345.22,-272.97 351.02,-275.05"/>
<polygon fill="midnightblue" stroke="midnightblue" points="350.19,-278.47 360.78,-278.44 352.49,-271.86 350.19,-278.47"/>
</g>
<!-- Node18 -->
<g id="node18" class="node">
<title>Node18</title>
<g id="a_node18"><a xlink:href="python__utils_8hpp.html#a5732db3eeef010cc926583da8f91fcd6" target="_top" xlink:title=" ">
<polygon fill="none" stroke="black" points="351,-164 351,-183 475,-183 475,-164 351,-164"/>
<text text-anchor="middle" x="413" y="-171" font-family="FreeSans.ttf" font-size="10.00">allocate_pinned_memory</text>
</a>
</g>
</g>
<!-- Node17&#45;&gt;Node18 -->
<g id="edge19" class="edge">
<title>Node17&#45;&gt;Node18</title>
<path fill="none" stroke="midnightblue" d="M290.55,-198.05C311.51,-193.81 334.47,-189.17 354.73,-185.08"/>
<polygon fill="midnightblue" stroke="midnightblue" points="355.64,-188.46 364.75,-183.05 354.25,-181.6 355.64,-188.46"/>
</g>
<!-- Node19 -->
<g id="node19" class="node">
<title>Node19</title>
<g id="a_node19"><a xlink:href="cuda__utils_8hpp.html#a1f04840b22a32448d0069e89cacd0950" target="_top" xlink:title="CUDA memcpy call to copy data from host to device.">
<polygon fill="none" stroke="black" points="360.5,-88 360.5,-107 465.5,-107 465.5,-88 360.5,-88"/>
<text text-anchor="middle" x="413" y="-95" font-family="FreeSans.ttf" font-size="10.00">copyToDeviceAsync</text>
</a>
</g>
</g>
<!-- Node17&#45;&gt;Node19 -->
<g id="edge21" class="edge">
<title>Node17&#45;&gt;Node19</title>
<path fill="none" stroke="midnightblue" d="M238.64,-196.3C258.51,-176.47 295.94,-141.9 334,-121.5 342.25,-117.08 351.44,-113.34 360.54,-110.22"/>
<polygon fill="midnightblue" stroke="midnightblue" points="361.86,-113.47 370.32,-107.09 359.73,-106.81 361.86,-113.47"/>
</g>
<!-- Node20 -->
<g id="node20" class="node">
<title>Node20</title>
<g id="a_node20"><a xlink:href="gpuNUFFT__kernels_8hpp.html#aeef5d0634868e22a476b5cbb3f54f6a2" target="_top" xlink:title="Perform the Density compensation method.">
<polygon fill="none" stroke="black" points="343.5,-50 343.5,-69 482.5,-69 482.5,-50 343.5,-50"/>
<text text-anchor="middle" x="413" y="-57" font-family="FreeSans.ttf" font-size="10.00">performUpdateDensityComp</text>
</a>
</g>
</g>
<!-- Node17&#45;&gt;Node20 -->
<g id="edge26" class="edge">
<title>Node17&#45;&gt;Node20</title>
<path fill="none" stroke="midnightblue" d="M234.85,-196.06C257.33,-164.48 308.98,-94.16 334,-78.5 337.36,-76.4 340.94,-74.53 344.64,-72.86"/>
<polygon fill="midnightblue" stroke="midnightblue" points="346.04,-76.07 354.05,-69.14 343.46,-69.56 346.04,-76.07"/>
</g>
<!-- Node21&#45;&gt;Node4 -->
<g id="edge31" class="edge">
<title>Node21&#45;&gt;Node4</title>
<path fill="none" stroke="midnightblue" d="M284,-349.5C302.49,-354.12 323,-359.25 342.09,-364.02"/>
<polygon fill="midnightblue" stroke="midnightblue" points="341.37,-367.45 351.92,-366.48 343.07,-360.66 341.37,-367.45"/>
</g>
<!-- Node21&#45;&gt;Node8 -->
<g id="edge28" class="edge">
<title>Node21&#45;&gt;Node8</title>
<path fill="none" stroke="midnightblue" d="M244.9,-319.33C266.31,-304.43 301.04,-282.04 334,-268.5 340.15,-265.97 346.72,-263.73 353.33,-261.75"/>
<polygon fill="midnightblue" stroke="midnightblue" points="354.33,-265.11 363.01,-259.04 352.44,-258.37 354.33,-265.11"/>
</g>
<!-- Node21&#45;&gt;Node14 -->
<g id="edge29" class="edge">
<title>Node21&#45;&gt;Node14</title>
<path fill="none" stroke="midnightblue" d="M290.55,-335.56C307.52,-335.83 325.79,-336.12 342.89,-336.4"/>
<polygon fill="midnightblue" stroke="midnightblue" points="343.3,-339.9 353.36,-336.56 343.42,-332.91 343.3,-339.9"/>
</g>
<!-- Node21&#45;&gt;Node16 -->
<g id="edge30" class="edge">
<title>Node21&#45;&gt;Node16</title>
<path fill="none" stroke="midnightblue" d="M290.55,-319.99C304.23,-317 318.77,-313.83 332.85,-310.76"/>
<polygon fill="midnightblue" stroke="midnightblue" points="333.97,-314.1 343,-308.55 332.48,-307.26 333.97,-314.1"/>
</g>
<!-- Node22&#45;&gt;Node3 -->
<g id="edge33" class="edge">
<title>Node22&#45;&gt;Node3</title>
<path fill="none" stroke="midnightblue" d="M282.37,-437.1C288.11,-439.79 293.47,-443.19 298,-447.5 335.57,-483.25 295.98,-523.22 334,-558.5 340.75,-564.77 349.22,-569.06 358.06,-571.99"/>
<polygon fill="midnightblue" stroke="midnightblue" points="357.17,-575.38 367.74,-574.66 359.03,-568.63 357.17,-575.38"/>
</g>
<!-- Node22&#45;&gt;Node16 -->
<g id="edge34" class="edge">
<title>Node22&#45;&gt;Node16</title>
<path fill="none" stroke="midnightblue" d="M283.17,-417.92C288.55,-415.44 293.62,-412.35 298,-408.5 330.37,-380.07 302.48,-347.87 334,-318.5 335.69,-316.92 337.48,-315.45 339.35,-314.07"/>
<polygon fill="midnightblue" stroke="midnightblue" points="341.43,-316.89 348,-308.58 337.69,-310.98 341.43,-316.89"/>
</g>
<!-- Node24 -->
<g id="node24" class="node">
<title>Node24</title>
<g id="a_node24"><a xlink:href="classgpuNUFFT_1_1GpuNUFFTOperator.html#adbc6f59fc4a4998a4ad5bb65c38b1f03" target="_top" xlink:title=" ">
<polygon fill="none" stroke="black" points="334,-0.5 334,-30.5 492,-30.5 492,-0.5 334,-0.5"/>
<text text-anchor="start" x="342" y="-18.5" font-family="FreeSans.ttf" font-size="10.00">gpuNUFFT::GpuNUFFTOperator</text>
<text text-anchor="middle" x="413" y="-7.5" font-family="FreeSans.ttf" font-size="10.00">::setSens</text>
</a>
</g>
</g>
<!-- Node23&#45;&gt;Node24 -->
<g id="edge36" class="edge">
<title>Node23&#45;&gt;Node24</title>
<path fill="none" stroke="midnightblue" d="M255.39,-74.42C277.19,-64.22 307.05,-50.79 334,-40.5 339.93,-38.24 346.16,-36 352.41,-33.86"/>
<polygon fill="midnightblue" stroke="midnightblue" points="353.84,-37.07 362.2,-30.57 351.61,-30.43 353.84,-37.07"/>
</g>
</g>
</svg>
