<?xml version="1.0" encoding="UTF-8" standalone="no"?>
<!DOCTYPE svg PUBLIC "-//W3C//DTD SVG 1.1//EN"
 "http://www.w3.org/Graphics/SVG/1.1/DTD/svg11.dtd">
<!-- Generated by graphviz version 2.49.3 (20211027.1534)
 -->
<!-- Title: python/src/python_factory.cpp Pages: 1 -->
<svg width="1246pt" height="487pt"
 viewBox="0.00 0.00 1246.00 487.00" xmlns="http://www.w3.org/2000/svg" xmlns:xlink="http://www.w3.org/1999/xlink">
<g id="graph0" class="graph" transform="scale(1 1) rotate(0) translate(4 483)">
<title>python/src/python_factory.cpp</title>
<!-- Node1 -->
<g id="node1" class="node">
<title>Node1</title>
<g id="a_node1"><a xlink:title=" ">
<polygon fill="#bfbfbf" stroke="black" points="475,-459.5 475,-478.5 621,-478.5 621,-459.5 475,-459.5"/>
<text text-anchor="middle" x="548" y="-466.5" font-family="FreeSans.ttf" font-size="10.00">python/src/python_factory.cpp</text>
</a>
</g>
</g>
<!-- Node2 -->
<g id="node2" class="node">
<title>Node2</title>
<g id="a_node2"><a xlink:title=" ">
<polygon fill="none" stroke="#bfbfbf" points="260,-286 260,-305 316,-305 316,-286 260,-286"/>
<text text-anchor="middle" x="288" y="-293" font-family="FreeSans.ttf" font-size="10.00">algorithm</text>
</a>
</g>
</g>
<!-- Node1&#45;&gt;Node2 -->
<g id="edge1" class="edge">
<title>Node1&#45;&gt;Node2</title>
<path fill="none" stroke="midnightblue" d="M532.01,-459.46C515.87,-450.7 490.35,-436.5 469,-423 408.88,-384.98 340.82,-335.62 307.92,-311.33"/>
<polygon fill="midnightblue" stroke="midnightblue" points="309.72,-308.31 299.6,-305.17 305.56,-313.94 309.72,-308.31"/>
</g>
<!-- Node3 -->
<g id="node3" class="node">
<title>Node3</title>
<g id="a_node3"><a xlink:title=" ">
<polygon fill="none" stroke="#bfbfbf" points="910,-403.5 910,-422.5 956,-422.5 956,-403.5 910,-403.5"/>
<text text-anchor="middle" x="933" y="-410.5" font-family="FreeSans.ttf" font-size="10.00">cstdint</text>
</a>
</g>
</g>
<!-- Node1&#45;&gt;Node3 -->
<g id="edge2" class="edge">
<title>Node1&#45;&gt;Node3</title>
<path fill="none" stroke="midnightblue" d="M621.01,-460.92C691.68,-453.51 801.66,-440.52 896,-423 897.28,-422.76 898.58,-422.51 899.89,-422.24"/>
<polygon fill="midnightblue" stroke="midnightblue" points="900.98,-425.59 909.99,-420.01 899.47,-418.75 900.98,-425.59"/>
</g>
<!-- Node4 -->
<g id="node4" class="node">
<title>Node4</title>
<g id="a_node4"><a xlink:title=" ">
<polygon fill="none" stroke="#bfbfbf" points="974.5,-403.5 974.5,-422.5 1039.5,-422.5 1039.5,-403.5 974.5,-403.5"/>
<text text-anchor="middle" x="1007" y="-410.5" font-family="FreeSans.ttf" font-size="10.00">sys/types.h</text>
</a>
</g>
</g>
<!-- Node1&#45;&gt;Node4 -->
<g id="edge3" class="edge">
<title>Node1&#45;&gt;Node4</title>
<path fill="none" stroke="midnightblue" d="M621.37,-462.4C702.7,-455.66 837.93,-442.93 963.84,-423.03"/>
<polygon fill="midnightblue" stroke="midnightblue" points="964.72,-426.43 974.05,-421.4 963.62,-419.52 964.72,-426.43"/>
</g>
<!-- Node5 -->
<g id="node5" class="node">
<title>Node5</title>
<g id="a_node5"><a xlink:title=" ">
<polygon fill="none" stroke="#bfbfbf" points="334,-286 334,-305 378,-305 378,-286 334,-286"/>
<text text-anchor="middle" x="356" y="-293" font-family="FreeSans.ttf" font-size="10.00">vector</text>
</a>
</g>
</g>
<!-- Node1&#45;&gt;Node5 -->
<g id="edge4" class="edge">
<title>Node1&#45;&gt;Node5</title>
<path fill="none" stroke="midnightblue" d="M537.75,-459.48C527.01,-450.5 509.69,-435.91 495,-423 450.33,-383.73 398.81,-336.25 372.83,-312.16"/>
<polygon fill="midnightblue" stroke="midnightblue" points="375.05,-309.44 365.34,-305.2 370.28,-314.57 375.05,-309.44"/>
</g>
<!-- Node6 -->
<g id="node6" class="node">
<title>Node6</title>
<g id="a_node6"><a xlink:title=" ">
<polygon fill="none" stroke="#bfbfbf" points="396.5,-286 396.5,-305 437.5,-305 437.5,-286 396.5,-286"/>
<text text-anchor="middle" x="417" y="-293" font-family="FreeSans.ttf" font-size="10.00">string</text>
</a>
</g>
</g>
<!-- Node1&#45;&gt;Node6 -->
<g id="edge5" class="edge">
<title>Node1&#45;&gt;Node6</title>
<path fill="none" stroke="midnightblue" d="M541.32,-459.26C520.56,-432.08 456.88,-348.71 429.61,-313.01"/>
<polygon fill="midnightblue" stroke="midnightblue" points="432.36,-310.84 423.51,-305.02 426.8,-315.09 432.36,-310.84"/>
</g>
<!-- Node7 -->
<g id="node7" class="node">
<title>Node7</title>
<g id="a_node7"><a xlink:title=" ">
<polygon fill="none" stroke="#bfbfbf" points="715,-347.5 715,-366.5 819,-366.5 819,-347.5 715,-347.5"/>
<text text-anchor="middle" x="767" y="-354.5" font-family="FreeSans.ttf" font-size="10.00">pybind11/pybind11.h</text>
</a>
</g>
</g>
<!-- Node1&#45;&gt;Node7 -->
<g id="edge6" class="edge">
<title>Node1&#45;&gt;Node7</title>
<path fill="none" stroke="midnightblue" d="M577.42,-459.47C602.89,-451.57 640.33,-438.69 671,-423 699.46,-408.44 729.56,-386.92 748.31,-372.69"/>
<polygon fill="midnightblue" stroke="midnightblue" points="750.52,-375.4 756.31,-366.53 746.25,-369.85 750.52,-375.4"/>
</g>
<!-- Node8 -->
<g id="node8" class="node">
<title>Node8</title>
<g id="a_node8"><a xlink:title=" ">
<polygon fill="none" stroke="#bfbfbf" points="1144,-347.5 1144,-366.5 1238,-366.5 1238,-347.5 1144,-347.5"/>
<text text-anchor="middle" x="1191" y="-354.5" font-family="FreeSans.ttf" font-size="10.00">pybind11/numpy.h</text>
</a>
</g>
</g>
<!-- Node1&#45;&gt;Node8 -->
<g id="edge7" class="edge">
<title>Node1&#45;&gt;Node8</title>
<path fill="none" stroke="midnightblue" d="M621.22,-461.95C683.2,-455.69 773.99,-443.81 851,-423 874.11,-416.76 877.92,-409.32 901,-403 912.12,-399.96 1052.5,-378.72 1133.79,-366.54"/>
<polygon fill="midnightblue" stroke="midnightblue" points="1134.51,-369.97 1143.88,-365.03 1133.47,-363.05 1134.51,-369.97"/>
</g>
<!-- Node9 -->
<g id="node9" class="node">
<title>Node9</title>
<g id="a_node9"><a xlink:title=" ">
<polygon fill="none" stroke="#bfbfbf" points="837.5,-347.5 837.5,-366.5 938.5,-366.5 938.5,-347.5 837.5,-347.5"/>
<text text-anchor="middle" x="888" y="-354.5" font-family="FreeSans.ttf" font-size="10.00">pybind11/complex.h</text>
</a>
</g>
</g>
<!-- Node1&#45;&gt;Node9 -->
<g id="edge8" class="edge">
<title>Node1&#45;&gt;Node9</title>
<path fill="none" stroke="midnightblue" d="M621.07,-461.37C690.88,-454.1 790.45,-441.03 825,-423 846.46,-411.8 864.9,-390.55 876.19,-375.39"/>
<polygon fill="midnightblue" stroke="midnightblue" points="879.3,-377.06 882.26,-366.89 873.6,-373 879.3,-377.06"/>
</g>
<!-- Node10 -->
<g id="node10" class="node">
<title>Node10</title>
<g id="a_node10"><a xlink:title=" ">
<polygon fill="none" stroke="#bfbfbf" points="104.5,-168.5 104.5,-187.5 147.5,-187.5 147.5,-168.5 104.5,-168.5"/>
<text text-anchor="middle" x="126" y="-175.5" font-family="FreeSans.ttf" font-size="10.00">cufft.h</text>
</a>
</g>
</g>
<!-- Node1&#45;&gt;Node10 -->
<g id="edge9" class="edge">
<title>Node1&#45;&gt;Node10</title>
<path fill="none" stroke="midnightblue" d="M474.64,-467.81C376.83,-466.16 210.41,-458.09 162,-423 136.24,-404.33 132,-389.82 132,-358 132,-358 132,-358 132,-294.5 132,-260.32 129.35,-220.52 127.57,-197.69"/>
<polygon fill="midnightblue" stroke="midnightblue" points="131.05,-197.37 126.76,-187.69 124.08,-197.93 131.05,-197.37"/>
</g>
<!-- Node11 -->
<g id="node11" class="node">
<title>Node11</title>
<g id="a_node11"><a xlink:title=" ">
<polygon fill="none" stroke="#bfbfbf" points="166.5,-0.5 166.5,-19.5 249.5,-19.5 249.5,-0.5 166.5,-0.5"/>
<text text-anchor="middle" x="208" y="-7.5" font-family="FreeSans.ttf" font-size="10.00">cuda_runtime.h</text>
</a>
</g>
</g>
<!-- Node1&#45;&gt;Node11 -->
<g id="edge10" class="edge">
<title>Node1&#45;&gt;Node11</title>
<path fill="none" stroke="midnightblue" d="M474.93,-467.28C333.91,-463.91 38,-446.31 38,-358 38,-358 38,-358 38,-233 38,-136.97 139.5,-56.8 185.64,-25.31"/>
<polygon fill="midnightblue" stroke="midnightblue" points="187.72,-28.14 194.09,-19.67 183.83,-22.31 187.72,-28.14"/>
</g>
<!-- Node12 -->
<g id="node12" class="node">
<title>Node12</title>
<g id="a_node12"><a xlink:title=" ">
<polygon fill="none" stroke="#bfbfbf" points="78.5,-0.5 78.5,-19.5 123.5,-19.5 123.5,-0.5 78.5,-0.5"/>
<text text-anchor="middle" x="101" y="-7.5" font-family="FreeSans.ttf" font-size="10.00">cuda.h</text>
</a>
</g>
</g>
<!-- Node1&#45;&gt;Node12 -->
<g id="edge11" class="edge">
<title>Node1&#45;&gt;Node12</title>
<path fill="none" stroke="midnightblue" d="M474.62,-466.89C358.79,-464.18 139.5,-454.87 69,-423 30.61,-405.64 0,-400.13 0,-358 0,-358 0,-358 0,-121 0,-76.59 45.21,-42.37 75.14,-24.58"/>
<polygon fill="midnightblue" stroke="midnightblue" points="76.92,-27.59 83.87,-19.59 73.45,-21.51 76.92,-27.59"/>
</g>
<!-- Node13 -->
<g id="node13" class="node">
<title>Node13</title>
<g id="a_node13"><a xlink:href="cuda__utils_8hpp.html" target="_top" xlink:title="Util functions for CUDA memory and texture management.">
<polygon fill="none" stroke="black" points="304.5,-224.5 304.5,-243.5 383.5,-243.5 383.5,-224.5 304.5,-224.5"/>
<text text-anchor="middle" x="344" y="-231.5" font-family="FreeSans.ttf" font-size="10.00">cuda_utils.hpp</text>
</a>
</g>
</g>
<!-- Node1&#45;&gt;Node13 -->
<g id="edge12" class="edge">
<title>Node1&#45;&gt;Node13</title>
<path fill="none" stroke="midnightblue" d="M501.25,-459.47C431.6,-443.93 303.19,-403.6 251,-311 244.24,-299 243.68,-291.67 251,-280 260.88,-264.25 278,-253.87 294.89,-247.11"/>
<polygon fill="midnightblue" stroke="midnightblue" points="296.54,-250.23 304.75,-243.52 294.15,-243.65 296.54,-250.23"/>
</g>
<!-- Node17 -->
<g id="node17" class="node">
<title>Node17</title>
<g id="a_node17"><a xlink:title=" ">
<polygon fill="none" stroke="#bfbfbf" points="826,-0.5 826,-19.5 886,-19.5 886,-0.5 826,-0.5"/>
<text text-anchor="middle" x="856" y="-7.5" font-family="FreeSans.ttf" font-size="10.00">config.hpp</text>
</a>
</g>
</g>
<!-- Node1&#45;&gt;Node17 -->
<g id="edge40" class="edge">
<title>Node1&#45;&gt;Node17</title>
<path fill="none" stroke="midnightblue" d="M474.95,-461.35C366.61,-449.44 176,-419.71 176,-358 176,-358 176,-358 176,-177 176,-95.69 268.85,-134.44 347,-112 518.41,-62.79 729.08,-29.29 815.8,-16.63"/>
<polygon fill="midnightblue" stroke="midnightblue" points="816.35,-20.09 825.75,-15.19 815.35,-13.16 816.35,-20.09"/>
</g>
<!-- Node28 -->
<g id="node28" class="node">
<title>Node28</title>
<g id="a_node28"><a xlink:title=" ">
<polygon fill="none" stroke="#bfbfbf" points="1057.5,-403.5 1057.5,-422.5 1110.5,-422.5 1110.5,-403.5 1057.5,-403.5"/>
<text text-anchor="middle" x="1084" y="-410.5" font-family="FreeSans.ttf" font-size="10.00">cublas.h</text>
</a>
</g>
</g>
<!-- Node1&#45;&gt;Node28 -->
<g id="edge39" class="edge">
<title>Node1&#45;&gt;Node28</title>
<path fill="none" stroke="midnightblue" d="M621.08,-465.15C716.96,-460.58 890.52,-449.48 1047.06,-423.09"/>
<polygon fill="midnightblue" stroke="midnightblue" points="1048.08,-426.47 1057.34,-421.33 1046.9,-419.57 1048.08,-426.47"/>
</g>
<!-- Node29 -->
<g id="node29" class="node">
<title>Node29</title>
<g id="a_node29"><a xlink:href="gpuNUFFT__operator__factory_8hpp.html" target="_top" xlink:title=" ">
<polygon fill="none" stroke="black" points="501,-347.5 501,-366.5 659,-366.5 659,-347.5 501,-347.5"/>
<text text-anchor="middle" x="580" y="-354.5" font-family="FreeSans.ttf" font-size="10.00">gpuNUFFT_operator_factory.hpp</text>
</a>
</g>
</g>
<!-- Node1&#45;&gt;Node29 -->
<g id="edge41" class="edge">
<title>Node1&#45;&gt;Node29</title>
<path fill="none" stroke="midnightblue" d="M550.51,-459.37C555.7,-441.54 567.7,-400.3 574.68,-376.27"/>
<polygon fill="midnightblue" stroke="midnightblue" points="578.07,-377.17 577.5,-366.59 571.35,-375.22 578.07,-377.17"/>
</g>
<!-- Node37 -->
<g id="node37" class="node">
<title>Node37</title>
<g id="a_node37"><a xlink:href="python__factory_8hpp.html" target="_top" xlink:title=" ">
<polygon fill="none" stroke="black" points="718,-403.5 718,-422.5 816,-422.5 816,-403.5 718,-403.5"/>
<text text-anchor="middle" x="767" y="-410.5" font-family="FreeSans.ttf" font-size="10.00">python_factory.hpp</text>
</a>
</g>
</g>
<!-- Node1&#45;&gt;Node37 -->
<g id="edge68" class="edge">
<title>Node1&#45;&gt;Node37</title>
<path fill="none" stroke="midnightblue" d="M582.7,-459.44C620.58,-450.1 681.35,-435.12 722.66,-424.93"/>
<polygon fill="midnightblue" stroke="midnightblue" points="723.59,-428.31 732.46,-422.52 721.91,-421.51 723.59,-428.31"/>
</g>
<!-- Node38 -->
<g id="node38" class="node">
<title>Node38</title>
<g id="a_node38"><a xlink:href="python__utils_8hpp.html" target="_top" xlink:title=" ">
<polygon fill="none" stroke="black" points="576,-403.5 576,-422.5 662,-422.5 662,-403.5 576,-403.5"/>
<text text-anchor="middle" x="619" y="-410.5" font-family="FreeSans.ttf" font-size="10.00">python_utils.hpp</text>
</a>
</g>
</g>
<!-- Node1&#45;&gt;Node38 -->
<g id="edge74" class="edge">
<title>Node1&#45;&gt;Node38</title>
<path fill="none" stroke="midnightblue" d="M559.41,-459.32C570.11,-451.18 586.34,-438.84 599.16,-429.09"/>
<polygon fill="midnightblue" stroke="midnightblue" points="601.54,-431.67 607.39,-422.83 597.31,-426.1 601.54,-431.67"/>
</g>
<!-- Node13&#45;&gt;Node10 -->
<g id="edge16" class="edge">
<title>Node13&#45;&gt;Node10</title>
<path fill="none" stroke="midnightblue" d="M309.46,-224.44C267.71,-214.1 198.05,-196.85 157.64,-186.84"/>
<polygon fill="midnightblue" stroke="midnightblue" points="158.34,-183.41 147.8,-184.4 156.66,-190.2 158.34,-183.41"/>
</g>
<!-- Node13&#45;&gt;Node11 -->
<g id="edge14" class="edge">
<title>Node13&#45;&gt;Node11</title>
<path fill="none" stroke="midnightblue" d="M333.79,-224.47C324.02,-215.94 309.29,-202.1 299,-188 260.05,-134.6 228.5,-62.17 215.04,-28.97"/>
<polygon fill="midnightblue" stroke="midnightblue" points="218.27,-27.63 211.32,-19.64 211.77,-30.23 218.27,-27.63"/>
</g>
<!-- Node13&#45;&gt;Node12 -->
<g id="edge13" class="edge">
<title>Node13&#45;&gt;Node12</title>
<path fill="none" stroke="midnightblue" d="M330.76,-224.22C317.91,-215.52 298.06,-201.55 282,-188 216.64,-132.83 146.05,-59.25 115.96,-27.14"/>
<polygon fill="midnightblue" stroke="midnightblue" points="118.27,-24.49 108.89,-19.56 113.15,-29.26 118.27,-24.49"/>
</g>
<!-- Node14 -->
<g id="node14" class="node">
<title>Node14</title>
<g id="a_node14"><a xlink:title=" ">
<polygon fill="none" stroke="#bfbfbf" points="267.5,-0.5 267.5,-19.5 312.5,-19.5 312.5,-0.5 267.5,-0.5"/>
<text text-anchor="middle" x="290" y="-7.5" font-family="FreeSans.ttf" font-size="10.00">stdio.h</text>
</a>
</g>
</g>
<!-- Node13&#45;&gt;Node14 -->
<g id="edge15" class="edge">
<title>Node13&#45;&gt;Node14</title>
<path fill="none" stroke="midnightblue" d="M334.8,-224.32C326.52,-215.89 314.78,-202.32 309,-188 287.04,-133.66 287.19,-62.7 288.74,-29.56"/>
<polygon fill="midnightblue" stroke="midnightblue" points="292.24,-29.69 289.32,-19.51 285.25,-29.29 292.24,-29.69"/>
</g>
<!-- Node15 -->
<g id="node15" class="node">
<title>Node15</title>
<g id="a_node15"><a xlink:href="gpuNUFFT__utils_8hpp.html" target="_top" xlink:title="Definition of util functions used in gridding operations.">
<polygon fill="none" stroke="black" points="362.5,-56.5 362.5,-75.5 469.5,-75.5 469.5,-56.5 362.5,-56.5"/>
<text text-anchor="middle" x="416" y="-63.5" font-family="FreeSans.ttf" font-size="10.00">gpuNUFFT_utils.hpp</text>
</a>
</g>
</g>
<!-- Node13&#45;&gt;Node15 -->
<g id="edge17" class="edge">
<title>Node13&#45;&gt;Node15</title>
<path fill="none" stroke="midnightblue" d="M353.29,-224.39C361.58,-216.02 373.14,-202.48 378,-188 380.83,-179.57 381.09,-176.33 378,-168 370.65,-148.21 354.35,-151.79 347,-132 343.91,-123.67 342.77,-119.82 347,-112 354.75,-97.7 369.23,-87.22 382.94,-79.99"/>
<polygon fill="midnightblue" stroke="midnightblue" points="384.74,-83.01 392.21,-75.5 381.69,-76.71 384.74,-83.01"/>
</g>
<!-- Node21 -->
<g id="node21" class="node">
<title>Node21</title>
<g id="a_node21"><a xlink:href="gpuNUFFT__operator_8hpp.html" target="_top" xlink:title=" ">
<polygon fill="none" stroke="black" points="608,-168.5 608,-187.5 732,-187.5 732,-168.5 608,-168.5"/>
<text text-anchor="middle" x="670" y="-175.5" font-family="FreeSans.ttf" font-size="10.00">gpuNUFFT_operator.hpp</text>
</a>
</g>
</g>
<!-- Node13&#45;&gt;Node21 -->
<g id="edge26" class="edge">
<title>Node13&#45;&gt;Node21</title>
<path fill="none" stroke="midnightblue" d="M383.65,-226.43C439.62,-217.16 542.32,-200.15 608.31,-189.22"/>
<polygon fill="midnightblue" stroke="midnightblue" points="609.28,-192.61 618.58,-187.52 608.14,-185.7 609.28,-192.61"/>
</g>
<!-- Node27 -->
<g id="node27" class="node">
<title>Node27</title>
<g id="a_node27"><a xlink:title=" ">
<polygon fill="none" stroke="#bfbfbf" points="318.5,-168.5 318.5,-187.5 369.5,-187.5 369.5,-168.5 318.5,-168.5"/>
<text text-anchor="middle" x="344" y="-175.5" font-family="FreeSans.ttf" font-size="10.00">stdarg.h</text>
</a>
</g>
</g>
<!-- Node13&#45;&gt;Node27 -->
<g id="edge38" class="edge">
<title>Node13&#45;&gt;Node27</title>
<path fill="none" stroke="midnightblue" d="M344,-224.08C344,-217.01 344,-206.86 344,-197.99"/>
<polygon fill="midnightblue" stroke="midnightblue" points="347.5,-197.75 344,-187.75 340.5,-197.75 347.5,-197.75"/>
</g>
<!-- Node15&#45;&gt;Node11 -->
<g id="edge21" class="edge">
<title>Node15&#45;&gt;Node11</title>
<path fill="none" stroke="midnightblue" d="M383.04,-56.44C347.21,-47.14 289.84,-32.25 250.61,-22.06"/>
<polygon fill="midnightblue" stroke="midnightblue" points="251.36,-18.64 240.8,-19.52 249.6,-25.42 251.36,-18.64"/>
</g>
<!-- Node15&#45;&gt;Node12 -->
<g id="edge20" class="edge">
<title>Node15&#45;&gt;Node12</title>
<path fill="none" stroke="midnightblue" d="M366.09,-56.44C300.9,-45.27 188.6,-26.02 133.46,-16.57"/>
<polygon fill="midnightblue" stroke="midnightblue" points="133.99,-13.1 123.54,-14.86 132.81,-20 133.99,-13.1"/>
</g>
<!-- Node15&#45;&gt;Node14 -->
<g id="edge19" class="edge">
<title>Node15&#45;&gt;Node14</title>
<path fill="none" stroke="midnightblue" d="M396.03,-56.44C375.39,-47.6 342.94,-33.69 319.37,-23.59"/>
<polygon fill="midnightblue" stroke="midnightblue" points="320.44,-20.24 309.87,-19.52 317.68,-26.67 320.44,-20.24"/>
</g>
<!-- Node16 -->
<g id="node16" class="node">
<title>Node16</title>
<g id="a_node16"><a xlink:title=" ">
<polygon fill="none" stroke="#bfbfbf" points="464.5,-0.5 464.5,-19.5 511.5,-19.5 511.5,-0.5 464.5,-0.5"/>
<text text-anchor="middle" x="488" y="-7.5" font-family="FreeSans.ttf" font-size="10.00">stdlib.h</text>
</a>
</g>
</g>
<!-- Node15&#45;&gt;Node16 -->
<g id="edge18" class="edge">
<title>Node15&#45;&gt;Node16</title>
<path fill="none" stroke="midnightblue" d="M427.57,-56.32C438.42,-48.18 454.88,-35.84 467.88,-26.09"/>
<polygon fill="midnightblue" stroke="midnightblue" points="470.32,-28.63 476.22,-19.83 466.12,-23.03 470.32,-28.63"/>
</g>
<!-- Node15&#45;&gt;Node17 -->
<g id="edge22" class="edge">
<title>Node15&#45;&gt;Node17</title>
<path fill="none" stroke="midnightblue" d="M469.51,-58.43C558.83,-47.47 736.32,-25.69 815.83,-15.93"/>
<polygon fill="midnightblue" stroke="midnightblue" points="816.44,-19.38 825.94,-14.69 815.58,-12.43 816.44,-19.38"/>
</g>
<!-- Node18 -->
<g id="node18" class="node">
<title>Node18</title>
<g id="a_node18"><a xlink:title=" ">
<polygon fill="none" stroke="#bfbfbf" points="530,-0.5 530,-19.5 574,-19.5 574,-0.5 530,-0.5"/>
<text text-anchor="middle" x="552" y="-7.5" font-family="FreeSans.ttf" font-size="10.00">cmath</text>
</a>
</g>
</g>
<!-- Node15&#45;&gt;Node18 -->
<g id="edge23" class="edge">
<title>Node15&#45;&gt;Node18</title>
<path fill="none" stroke="midnightblue" d="M437.55,-56.44C460.03,-47.52 495.49,-33.44 520.98,-23.32"/>
<polygon fill="midnightblue" stroke="midnightblue" points="522.55,-26.46 530.55,-19.52 519.97,-19.95 522.55,-26.46"/>
</g>
<!-- Node19 -->
<g id="node19" class="node">
<title>Node19</title>
<g id="a_node19"><a xlink:title=" ">
<polygon fill="none" stroke="#bfbfbf" points="331,-0.5 331,-19.5 377,-19.5 377,-0.5 331,-0.5"/>
<text text-anchor="middle" x="354" y="-7.5" font-family="FreeSans.ttf" font-size="10.00">math.h</text>
</a>
</g>
</g>
<!-- Node15&#45;&gt;Node19 -->
<g id="edge24" class="edge">
<title>Node15&#45;&gt;Node19</title>
<path fill="none" stroke="midnightblue" d="M406.04,-56.32C396.87,-48.34 383.06,-36.31 371.97,-26.65"/>
<polygon fill="midnightblue" stroke="midnightblue" points="373.98,-23.76 364.14,-19.83 369.38,-29.04 373.98,-23.76"/>
</g>
<!-- Node20 -->
<g id="node20" class="node">
<title>Node20</title>
<g id="a_node20"><a xlink:title=" ">
<polygon fill="none" stroke="#bfbfbf" points="395.5,-0.5 395.5,-19.5 446.5,-19.5 446.5,-0.5 395.5,-0.5"/>
<text text-anchor="middle" x="421" y="-7.5" font-family="FreeSans.ttf" font-size="10.00">assert.h</text>
</a>
</g>
</g>
<!-- Node15&#45;&gt;Node20 -->
<g id="edge25" class="edge">
<title>Node15&#45;&gt;Node20</title>
<path fill="none" stroke="midnightblue" d="M416.83,-56.08C417.48,-49.01 418.42,-38.86 419.24,-29.99"/>
<polygon fill="midnightblue" stroke="midnightblue" points="422.75,-30.03 420.19,-19.75 415.78,-29.39 422.75,-30.03"/>
</g>
<!-- Node21&#45;&gt;Node17 -->
<g id="edge34" class="edge">
<title>Node21&#45;&gt;Node17</title>
<path fill="none" stroke="midnightblue" d="M680.06,-168.35C689.72,-159.74 704.36,-145.84 715,-132 738.78,-101.05 730.18,-82.32 759,-56 775.34,-41.07 797.5,-30.29 816.51,-23.03"/>
<polygon fill="midnightblue" stroke="midnightblue" points="817.91,-26.24 826.12,-19.55 815.53,-19.66 817.91,-26.24"/>
</g>
<!-- Node22 -->
<g id="node22" class="node">
<title>Node22</title>
<g id="a_node22"><a xlink:href="gpuNUFFT__types_8hpp.html" target="_top" xlink:title="Definition of gpuNUFFT defined types.">
<polygon fill="none" stroke="black" points="800,-112.5 800,-131.5 912,-131.5 912,-112.5 800,-112.5"/>
<text text-anchor="middle" x="856" y="-119.5" font-family="FreeSans.ttf" font-size="10.00">gpuNUFFT_types.hpp</text>
</a>
</g>
</g>
<!-- Node21&#45;&gt;Node22 -->
<g id="edge27" class="edge">
<title>Node21&#45;&gt;Node22</title>
<path fill="none" stroke="midnightblue" d="M699.47,-168.44C731.17,-159.24 781.73,-144.56 816.77,-134.39"/>
<polygon fill="midnightblue" stroke="midnightblue" points="818.04,-137.67 826.67,-131.52 816.09,-130.94 818.04,-137.67"/>
</g>
<!-- Node23 -->
<g id="node23" class="node">
<title>Node23</title>
<g id="a_node23"><a xlink:title=" ">
<polygon fill="none" stroke="#bfbfbf" points="653.5,-56.5 653.5,-75.5 698.5,-75.5 698.5,-56.5 653.5,-56.5"/>
<text text-anchor="middle" x="676" y="-63.5" font-family="FreeSans.ttf" font-size="10.00">cstdlib</text>
</a>
</g>
</g>
<!-- Node21&#45;&gt;Node23 -->
<g id="edge35" class="edge">
<title>Node21&#45;&gt;Node23</title>
<path fill="none" stroke="midnightblue" d="M660.76,-168.43C648.78,-156.24 630.31,-133.03 638,-112 642.06,-100.91 650.19,-90.67 657.89,-82.76"/>
<polygon fill="midnightblue" stroke="midnightblue" points="660.47,-85.14 665.29,-75.7 655.64,-80.07 660.47,-85.14"/>
</g>
<!-- Node24 -->
<g id="node24" class="node">
<title>Node24</title>
<g id="a_node24"><a xlink:title=" ">
<polygon fill="none" stroke="#bfbfbf" points="768,-56.5 768,-75.5 822,-75.5 822,-56.5 768,-56.5"/>
<text text-anchor="middle" x="795" y="-63.5" font-family="FreeSans.ttf" font-size="10.00">iostream</text>
</a>
</g>
</g>
<!-- Node21&#45;&gt;Node24 -->
<g id="edge36" class="edge">
<title>Node21&#45;&gt;Node24</title>
<path fill="none" stroke="midnightblue" d="M689.76,-168.48C706.48,-160.63 730.47,-147.81 748,-132 763.29,-118.21 776.6,-98.66 785.11,-84.61"/>
<polygon fill="midnightblue" stroke="midnightblue" points="788.18,-86.3 790.21,-75.9 782.14,-82.76 788.18,-86.3"/>
</g>
<!-- Node25 -->
<g id="node25" class="node">
<title>Node25</title>
<g id="a_node25"><a xlink:href="gpuNUFFT__kernels_8hpp.html" target="_top" xlink:title="gpuNUFFT CUDA function prototypes">
<polygon fill="none" stroke="black" points="356,-112.5 356,-131.5 476,-131.5 476,-112.5 356,-112.5"/>
<text text-anchor="middle" x="416" y="-119.5" font-family="FreeSans.ttf" font-size="10.00">gpuNUFFT_kernels.hpp</text>
</a>
</g>
</g>
<!-- Node21&#45;&gt;Node25 -->
<g id="edge31" class="edge">
<title>Node21&#45;&gt;Node25</title>
<path fill="none" stroke="midnightblue" d="M629.75,-168.44C585.35,-159 513.85,-143.8 465.91,-133.61"/>
<polygon fill="midnightblue" stroke="midnightblue" points="466.57,-130.17 456.06,-131.52 465.11,-137.02 466.57,-130.17"/>
</g>
<!-- Node26 -->
<g id="node26" class="node">
<title>Node26</title>
<g id="a_node26"><a xlink:title=" ">
<polygon fill="none" stroke="#bfbfbf" points="646.5,-112.5 646.5,-131.5 705.5,-131.5 705.5,-112.5 646.5,-112.5"/>
<text text-anchor="middle" x="676" y="-119.5" font-family="FreeSans.ttf" font-size="10.00">functional</text>
</a>
</g>
</g>
<!-- Node21&#45;&gt;Node26 -->
<g id="edge37" class="edge">
<title>Node21&#45;&gt;Node26</title>
<path fill="none" stroke="midnightblue" d="M670.99,-168.08C671.79,-160.93 672.93,-150.64 673.92,-141.69"/>
<polygon fill="midnightblue" stroke="midnightblue" points="677.4,-142.08 675.03,-131.75 670.44,-141.3 677.4,-142.08"/>
</g>
<!-- Node22&#45;&gt;Node17 -->
<g id="edge30" class="edge">
<title>Node22&#45;&gt;Node17</title>
<path fill="none" stroke="midnightblue" d="M856,-112.37C856,-94.62 856,-53.67 856,-29.6"/>
<polygon fill="midnightblue" stroke="midnightblue" points="859.5,-29.59 856,-19.59 852.5,-29.59 859.5,-29.59"/>
</g>
<!-- Node22&#45;&gt;Node23 -->
<g id="edge28" class="edge">
<title>Node22&#45;&gt;Node23</title>
<path fill="none" stroke="midnightblue" d="M827.48,-112.44C795.14,-102.74 742.51,-86.95 708.58,-76.77"/>
<polygon fill="midnightblue" stroke="midnightblue" points="709.27,-73.33 698.69,-73.81 707.26,-80.03 709.27,-73.33"/>
</g>
<!-- Node22&#45;&gt;Node24 -->
<g id="edge29" class="edge">
<title>Node22&#45;&gt;Node24</title>
<path fill="none" stroke="midnightblue" d="M846.2,-112.32C837.18,-104.34 823.59,-92.31 812.68,-82.65"/>
<polygon fill="midnightblue" stroke="midnightblue" points="814.79,-79.84 804.98,-75.83 810.15,-85.08 814.79,-79.84"/>
</g>
<!-- Node25&#45;&gt;Node13 -->
<g id="edge33" class="edge">
<title>Node25&#45;&gt;Node13</title>
<path fill="none" stroke="midnightblue" d="M417.77,-131.69C419.97,-144.85 422.29,-170.18 412,-188 403.89,-202.04 389.42,-212.53 375.91,-219.83"/>
<polygon fill="midnightblue" stroke="midnightblue" points="374.18,-216.78 366.79,-224.38 377.3,-223.04 374.18,-216.78"/>
</g>
<!-- Node25&#45;&gt;Node15 -->
<g id="edge32" class="edge">
<title>Node25&#45;&gt;Node15</title>
<path fill="none" stroke="midnightblue" d="M416,-112.08C416,-105.01 416,-94.86 416,-85.99"/>
<polygon fill="midnightblue" stroke="midnightblue" points="419.5,-85.75 416,-75.75 412.5,-85.75 419.5,-85.75"/>
</g>
<!-- Node29&#45;&gt;Node2 -->
<g id="edge58" class="edge">
<title>Node29&#45;&gt;Node2</title>
<path fill="none" stroke="midnightblue" d="M510.17,-347.49C458.44,-340.28 386.56,-328.31 325,-311 322.41,-310.27 319.75,-309.43 317.11,-308.53"/>
<polygon fill="midnightblue" stroke="midnightblue" points="318.32,-305.24 307.72,-305.07 315.89,-311.81 318.32,-305.24"/>
</g>
<!-- Node29&#45;&gt;Node5 -->
<g id="edge59" class="edge">
<title>Node29&#45;&gt;Node5</title>
<path fill="none" stroke="midnightblue" d="M530.82,-347.47C491.34,-339.93 434.79,-327.55 387,-311 385.38,-310.44 383.73,-309.82 382.08,-309.16"/>
<polygon fill="midnightblue" stroke="midnightblue" points="383.36,-305.9 372.79,-305.13 380.57,-312.32 383.36,-305.9"/>
</g>
<!-- Node29&#45;&gt;Node6 -->
<g id="edge60" class="edge">
<title>Node29&#45;&gt;Node6</title>
<path fill="none" stroke="midnightblue" d="M554.35,-347.44C528.4,-338.68 487.2,-324.47 452,-311 450.35,-310.37 448.67,-309.71 446.97,-309.04"/>
<polygon fill="midnightblue" stroke="midnightblue" points="447.87,-305.63 437.28,-305.12 445.24,-312.12 447.87,-305.63"/>
</g>
<!-- Node29&#45;&gt;Node13 -->
<g id="edge62" class="edge">
<title>Node29&#45;&gt;Node13</title>
<path fill="none" stroke="midnightblue" d="M558.75,-347.46C539.22,-339.23 509.77,-325.87 486,-311 467.23,-299.26 465.97,-291.42 447,-280 425.02,-266.77 398.44,-255.26 377.8,-247.19"/>
<polygon fill="midnightblue" stroke="midnightblue" points="378.77,-243.82 368.18,-243.52 376.27,-250.36 378.77,-243.82"/>
</g>
<!-- Node29&#45;&gt;Node17 -->
<g id="edge42" class="edge">
<title>Node29&#45;&gt;Node17</title>
<path fill="none" stroke="midnightblue" d="M659.07,-348.25C782.44,-336.09 1007.59,-313.66 1016,-311 1082.02,-290.13 1152,-304.24 1152,-235 1152,-235 1152,-235 1152,-121 1152,-67.09 977.3,-31.09 896.33,-17.3"/>
<polygon fill="midnightblue" stroke="midnightblue" points="896.45,-13.77 886.01,-15.58 895.3,-20.68 896.45,-13.77"/>
</g>
<!-- Node29&#45;&gt;Node18 -->
<g id="edge61" class="edge">
<title>Node29&#45;&gt;Node18</title>
<path fill="none" stroke="midnightblue" d="M584.88,-347.37C589.56,-338.55 596.31,-324.3 599,-311 607.41,-269.46 580,-181.54 580,-179 580,-179 580,-179 580,-121 580,-87.79 567.87,-50.63 559.57,-29.12"/>
<polygon fill="midnightblue" stroke="midnightblue" points="562.75,-27.63 555.78,-19.65 556.25,-30.23 562.75,-27.63"/>
</g>
<!-- Node29&#45;&gt;Node21 -->
<g id="edge43" class="edge">
<title>Node29&#45;&gt;Node21</title>
<path fill="none" stroke="midnightblue" d="M593.93,-347.32C605.73,-339.29 622.22,-326.29 632,-311 655.04,-274.96 664.45,-224.62 668.02,-197.71"/>
<polygon fill="midnightblue" stroke="midnightblue" points="671.5,-198.07 669.21,-187.73 664.55,-197.24 671.5,-198.07"/>
</g>
<!-- Node30 -->
<g id="node30" class="node">
<title>Node30</title>
<g id="a_node30"><a xlink:href="balanced__gpuNUFFT__operator_8hpp.html" target="_top" xlink:title=" ">
<polygon fill="none" stroke="black" points="684,-224.5 684,-243.5 852,-243.5 852,-224.5 684,-224.5"/>
<text text-anchor="middle" x="768" y="-231.5" font-family="FreeSans.ttf" font-size="10.00">balanced_gpuNUFFT_operator.hpp</text>
</a>
</g>
</g>
<!-- Node29&#45;&gt;Node30 -->
<g id="edge44" class="edge">
<title>Node29&#45;&gt;Node30</title>
<path fill="none" stroke="midnightblue" d="M599.91,-347.41C618.56,-339.05 646.93,-325.51 670,-311 699.71,-292.31 731.32,-266.6 750.37,-250.39"/>
<polygon fill="midnightblue" stroke="midnightblue" points="752.88,-252.85 758.18,-243.68 748.32,-247.54 752.88,-252.85"/>
</g>
<!-- Node32 -->
<g id="node32" class="node">
<title>Node32</title>
<g id="a_node32"><a xlink:href="texture__gpuNUFFT__operator_8hpp.html" target="_top" xlink:title=" ">
<polygon fill="none" stroke="black" points="958,-224.5 958,-243.5 1116,-243.5 1116,-224.5 958,-224.5"/>
<text text-anchor="middle" x="1037" y="-231.5" font-family="FreeSans.ttf" font-size="10.00">texture_gpuNUFFT_operator.hpp</text>
</a>
</g>
</g>
<!-- Node29&#45;&gt;Node32 -->
<g id="edge49" class="edge">
<title>Node29&#45;&gt;Node32</title>
<path fill="none" stroke="midnightblue" d="M659.12,-348.17C776.05,-336.46 982.07,-315.33 989,-311 1010.24,-297.73 1023.72,-271.22 1030.81,-253.3"/>
<polygon fill="midnightblue" stroke="midnightblue" points="1034.1,-254.49 1034.26,-243.9 1027.53,-252.08 1034.1,-254.49"/>
</g>
<!-- Node35 -->
<g id="node35" class="node">
<title>Node35</title>
<g id="a_node35"><a xlink:href="balanced__texture__gpuNUFFT__operator_8hpp.html" target="_top" xlink:title=" ">
<polygon fill="none" stroke="black" points="836,-280.5 836,-310.5 980,-310.5 980,-280.5 836,-280.5"/>
<text text-anchor="start" x="844" y="-298.5" font-family="FreeSans.ttf" font-size="10.00">balanced_texture_gpuNUFFT</text>
<text text-anchor="middle" x="908" y="-287.5" font-family="FreeSans.ttf" font-size="10.00">_operator.hpp</text>
</a>
</g>
</g>
<!-- Node29&#45;&gt;Node35 -->
<g id="edge54" class="edge">
<title>Node29&#45;&gt;Node35</title>
<path fill="none" stroke="midnightblue" d="M626.99,-347.48C678.78,-338.08 763.05,-322.79 825.82,-311.41"/>
<polygon fill="midnightblue" stroke="midnightblue" points="826.49,-314.84 835.7,-309.62 825.24,-307.96 826.49,-314.84"/>
</g>
<!-- Node36 -->
<g id="node36" class="node">
<title>Node36</title>
<g id="a_node36"><a xlink:href="precomp__utils_8hpp.html" target="_top" xlink:title="UTIL functions for precomputation.">
<polygon fill="none" stroke="black" points="494.5,-286 494.5,-305 589.5,-305 589.5,-286 494.5,-286"/>
<text text-anchor="middle" x="542" y="-293" font-family="FreeSans.ttf" font-size="10.00">precomp_utils.hpp</text>
</a>
</g>
</g>
<!-- Node29&#45;&gt;Node36 -->
<g id="edge63" class="edge">
<title>Node29&#45;&gt;Node36</title>
<path fill="none" stroke="midnightblue" d="M574.56,-347.48C568.91,-338.64 559.94,-324.59 552.84,-313.48"/>
<polygon fill="midnightblue" stroke="midnightblue" points="555.77,-311.55 547.43,-305.01 549.87,-315.32 555.77,-311.55"/>
</g>
<!-- Node30&#45;&gt;Node21 -->
<g id="edge46" class="edge">
<title>Node30&#45;&gt;Node21</title>
<path fill="none" stroke="midnightblue" d="M752.25,-224.32C736.68,-215.74 712.62,-202.49 694.54,-192.52"/>
<polygon fill="midnightblue" stroke="midnightblue" points="696.15,-189.42 685.71,-187.65 692.78,-195.55 696.15,-189.42"/>
</g>
<!-- Node30&#45;&gt;Node22 -->
<g id="edge45" class="edge">
<title>Node30&#45;&gt;Node22</title>
<path fill="none" stroke="midnightblue" d="M767.26,-224.14C766.59,-210.76 767.16,-185.14 779,-168 789.13,-153.34 805.72,-142.76 820.91,-135.56"/>
<polygon fill="midnightblue" stroke="midnightblue" points="822.38,-138.74 830.12,-131.51 819.56,-132.34 822.38,-138.74"/>
</g>
<!-- Node31 -->
<g id="node31" class="node">
<title>Node31</title>
<g id="a_node31"><a xlink:href="balanced__operator_8hpp.html" target="_top" xlink:title=" ">
<polygon fill="none" stroke="black" points="788,-168.5 788,-187.5 902,-187.5 902,-168.5 788,-168.5"/>
<text text-anchor="middle" x="845" y="-175.5" font-family="FreeSans.ttf" font-size="10.00">balanced_operator.hpp</text>
</a>
</g>
</g>
<!-- Node30&#45;&gt;Node31 -->
<g id="edge47" class="edge">
<title>Node30&#45;&gt;Node31</title>
<path fill="none" stroke="midnightblue" d="M780.37,-224.32C792.16,-216.06 810.13,-203.45 824.14,-193.63"/>
<polygon fill="midnightblue" stroke="midnightblue" points="826.48,-196.26 832.66,-187.65 822.46,-190.53 826.48,-196.26"/>
</g>
<!-- Node31&#45;&gt;Node22 -->
<g id="edge48" class="edge">
<title>Node31&#45;&gt;Node22</title>
<path fill="none" stroke="midnightblue" d="M846.82,-168.08C848.27,-160.93 850.37,-150.64 852.19,-141.69"/>
<polygon fill="midnightblue" stroke="midnightblue" points="855.65,-142.25 854.22,-131.75 848.79,-140.85 855.65,-142.25"/>
</g>
<!-- Node32&#45;&gt;Node21 -->
<g id="edge53" class="edge">
<title>Node32&#45;&gt;Node21</title>
<path fill="none" stroke="midnightblue" d="M978.85,-224.44C913.35,-214.81 807.04,-199.16 737.81,-188.98"/>
<polygon fill="midnightblue" stroke="midnightblue" points="738.28,-185.51 727.88,-187.52 737.26,-192.43 738.28,-185.51"/>
</g>
<!-- Node32&#45;&gt;Node22 -->
<g id="edge52" class="edge">
<title>Node32&#45;&gt;Node22</title>
<path fill="none" stroke="midnightblue" d="M1054.66,-224.35C1077.43,-212.05 1112.18,-188.72 1095,-168 1073.43,-141.99 985.37,-130.91 922.42,-126.26"/>
<polygon fill="midnightblue" stroke="midnightblue" points="922.38,-122.75 912.16,-125.54 921.89,-129.73 922.38,-122.75"/>
</g>
<!-- Node33 -->
<g id="node33" class="node">
<title>Node33</title>
<g id="a_node33"><a xlink:title=" ">
<polygon fill="none" stroke="#bfbfbf" points="1036,-168.5 1036,-187.5 1086,-187.5 1086,-168.5 1036,-168.5"/>
<text text-anchor="middle" x="1061" y="-175.5" font-family="FreeSans.ttf" font-size="10.00">typeinfo</text>
</a>
</g>
</g>
<!-- Node32&#45;&gt;Node33 -->
<g id="edge50" class="edge">
<title>Node32&#45;&gt;Node33</title>
<path fill="none" stroke="midnightblue" d="M1040.96,-224.08C1044.21,-216.77 1048.92,-206.18 1052.95,-197.1"/>
<polygon fill="midnightblue" stroke="midnightblue" points="1056.25,-198.31 1057.11,-187.75 1049.85,-195.47 1056.25,-198.31"/>
</g>
<!-- Node34 -->
<g id="node34" class="node">
<title>Node34</title>
<g id="a_node34"><a xlink:title=" ">
<polygon fill="none" stroke="#bfbfbf" points="958.5,-168.5 958.5,-187.5 1017.5,-187.5 1017.5,-168.5 958.5,-168.5"/>
<text text-anchor="middle" x="988" y="-175.5" font-family="FreeSans.ttf" font-size="10.00">stdexcept</text>
</a>
</g>
</g>
<!-- Node32&#45;&gt;Node34 -->
<g id="edge51" class="edge">
<title>Node32&#45;&gt;Node34</title>
<path fill="none" stroke="midnightblue" d="M1028.91,-224.08C1021.84,-216.3 1011.41,-204.8 1002.85,-195.37"/>
<polygon fill="midnightblue" stroke="midnightblue" points="1005.25,-192.8 995.94,-187.75 1000.07,-197.51 1005.25,-192.8"/>
</g>
<!-- Node35&#45;&gt;Node22 -->
<g id="edge55" class="edge">
<title>Node35&#45;&gt;Node22</title>
<path fill="none" stroke="midnightblue" d="M912.27,-280.37C918.78,-256.05 928.69,-205.32 911,-168 904.87,-155.07 893.01,-144.62 881.86,-137.05"/>
<polygon fill="midnightblue" stroke="midnightblue" points="883.53,-133.97 873.2,-131.61 879.81,-139.9 883.53,-133.97"/>
</g>
<!-- Node35&#45;&gt;Node31 -->
<g id="edge57" class="edge">
<title>Node35&#45;&gt;Node31</title>
<path fill="none" stroke="midnightblue" d="M900.27,-280.34C888.77,-259.24 867.15,-219.6 854.63,-196.65"/>
<polygon fill="midnightblue" stroke="midnightblue" points="857.59,-194.77 849.73,-187.67 851.44,-198.12 857.59,-194.77"/>
</g>
<!-- Node35&#45;&gt;Node32 -->
<g id="edge56" class="edge">
<title>Node35&#45;&gt;Node32</title>
<path fill="none" stroke="midnightblue" d="M938.57,-280.4C959.93,-270.55 988.22,-257.5 1008.98,-247.92"/>
<polygon fill="midnightblue" stroke="midnightblue" points="1010.61,-251.02 1018.23,-243.66 1007.68,-244.67 1010.61,-251.02"/>
</g>
<!-- Node36&#45;&gt;Node13 -->
<g id="edge64" class="edge">
<title>Node36&#45;&gt;Node13</title>
<path fill="none" stroke="midnightblue" d="M513.63,-285.98C479.08,-275.59 420.58,-258.01 382.12,-246.45"/>
<polygon fill="midnightblue" stroke="midnightblue" points="382.9,-243.04 372.32,-243.51 380.89,-249.74 382.9,-243.04"/>
</g>
<!-- Node36&#45;&gt;Node15 -->
<g id="edge66" class="edge">
<title>Node36&#45;&gt;Node15</title>
<path fill="none" stroke="midnightblue" d="M539.41,-285.61C528.99,-250.01 490.53,-119.31 485,-112 474.76,-98.47 459.2,-87.82 445.44,-80.28"/>
<polygon fill="midnightblue" stroke="midnightblue" points="446.78,-77.04 436.29,-75.56 443.57,-83.26 446.78,-77.04"/>
</g>
<!-- Node36&#45;&gt;Node18 -->
<g id="edge67" class="edge">
<title>Node36&#45;&gt;Node18</title>
<path fill="none" stroke="midnightblue" d="M542,-285.81C542,-266.56 542,-218.9 542,-179 542,-179 542,-179 542,-121 542,-88.82 546.3,-51.55 549.26,-29.7"/>
<polygon fill="midnightblue" stroke="midnightblue" points="552.76,-29.92 550.69,-19.53 545.83,-28.95 552.76,-29.92"/>
</g>
<!-- Node36&#45;&gt;Node21 -->
<g id="edge65" class="edge">
<title>Node36&#45;&gt;Node21</title>
<path fill="none" stroke="midnightblue" d="M551.62,-285.82C573.12,-266.42 625.3,-219.33 652.64,-194.66"/>
<polygon fill="midnightblue" stroke="midnightblue" points="655.19,-197.08 660.27,-187.78 650.5,-191.88 655.19,-197.08"/>
</g>
<!-- Node37&#45;&gt;Node7 -->
<g id="edge69" class="edge">
<title>Node37&#45;&gt;Node7</title>
<path fill="none" stroke="midnightblue" d="M767,-403.08C767,-396.01 767,-385.86 767,-376.99"/>
<polygon fill="midnightblue" stroke="midnightblue" points="770.5,-376.75 767,-366.75 763.5,-376.75 770.5,-376.75"/>
</g>
<!-- Node37&#45;&gt;Node8 -->
<g id="edge70" class="edge">
<title>Node37&#45;&gt;Node8</title>
<path fill="none" stroke="midnightblue" d="M816.07,-406.28C885.88,-398.06 1017.83,-382.22 1130,-367 1131.25,-366.83 1132.52,-366.66 1133.8,-366.48"/>
<polygon fill="midnightblue" stroke="midnightblue" points="1134.31,-369.94 1143.73,-365.09 1133.34,-363.01 1134.31,-369.94"/>
</g>
<!-- Node37&#45;&gt;Node9 -->
<g id="edge71" class="edge">
<title>Node37&#45;&gt;Node9</title>
<path fill="none" stroke="midnightblue" d="M786.17,-403.44C805.91,-394.64 836.89,-380.81 859.49,-370.72"/>
<polygon fill="midnightblue" stroke="midnightblue" points="861.21,-373.79 868.92,-366.52 858.36,-367.4 861.21,-373.79"/>
</g>
<!-- Node37&#45;&gt;Node17 -->
<g id="edge72" class="edge">
<title>Node37&#45;&gt;Node17</title>
<path fill="none" stroke="midnightblue" d="M816.07,-403.48C924.14,-384.32 1175.37,-337.46 1204,-311 1230.01,-286.96 1228,-270.42 1228,-235 1228,-235 1228,-235 1228,-121 1228,-90.2 1228.08,-75.19 1204,-56 1157.26,-18.76 977.77,-12.17 896.46,-11.12"/>
<polygon fill="midnightblue" stroke="midnightblue" points="896.15,-7.62 886.12,-11.01 896.08,-14.62 896.15,-7.62"/>
</g>
<!-- Node37&#45;&gt;Node29 -->
<g id="edge73" class="edge">
<title>Node37&#45;&gt;Node29</title>
<path fill="none" stroke="midnightblue" d="M737.37,-403.44C705.5,-394.24 654.67,-379.56 619.44,-369.39"/>
<polygon fill="midnightblue" stroke="midnightblue" points="620.07,-365.93 609.49,-366.52 618.13,-372.65 620.07,-365.93"/>
</g>
<!-- Node38&#45;&gt;Node7 -->
<g id="edge75" class="edge">
<title>Node38&#45;&gt;Node7</title>
<path fill="none" stroke="midnightblue" d="M642.45,-403.44C667.13,-394.44 706.19,-380.19 733.98,-370.05"/>
<polygon fill="midnightblue" stroke="midnightblue" points="735.46,-373.23 743.66,-366.52 733.06,-366.66 735.46,-373.23"/>
</g>
<!-- Node38&#45;&gt;Node8 -->
<g id="edge76" class="edge">
<title>Node38&#45;&gt;Node8</title>
<path fill="none" stroke="midnightblue" d="M662.03,-407.64C676.9,-406.15 693.68,-404.48 709,-403 862.45,-388.16 1043.46,-371.49 1133.75,-363.22"/>
<polygon fill="midnightblue" stroke="midnightblue" points="1134.14,-366.7 1143.78,-362.3 1133.51,-359.73 1134.14,-366.7"/>
</g>
<!-- Node38&#45;&gt;Node9 -->
<g id="edge77" class="edge">
<title>Node38&#45;&gt;Node9</title>
<path fill="none" stroke="midnightblue" d="M661.62,-403.44C708.75,-393.98 784.69,-378.74 835.46,-368.55"/>
<polygon fill="midnightblue" stroke="midnightblue" points="836.46,-371.92 845.58,-366.52 835.08,-365.05 836.46,-371.92"/>
</g>
<!-- Node38&#45;&gt;Node12 -->
<g id="edge78" class="edge">
<title>Node38&#45;&gt;Node12</title>
<path fill="none" stroke="midnightblue" d="M575.89,-405.89C505.03,-394.63 360.84,-366.49 251,-311 172.19,-271.19 133.53,-267.44 95,-188 69.44,-135.31 85.24,-63.04 95,-29.5"/>
<polygon fill="midnightblue" stroke="midnightblue" points="98.42,-30.28 98.01,-19.69 91.73,-28.22 98.42,-30.28"/>
</g>
<!-- Node38&#45;&gt;Node17 -->
<g id="edge79" class="edge">
<title>Node38&#45;&gt;Node17</title>
<path fill="none" stroke="midnightblue" d="M627.15,-403.38C641.51,-388.83 672.93,-359.75 706,-347 912.02,-267.58 1190,-455.8 1190,-235 1190,-235 1190,-235 1190,-121 1190,-71.66 1145.37,-75.39 1100,-56 1032.14,-27 945.84,-16.66 896.16,-12.99"/>
<polygon fill="midnightblue" stroke="midnightblue" points="896.35,-9.5 886.14,-12.31 895.87,-16.48 896.35,-9.5"/>
</g>
<!-- Node38&#45;&gt;Node29 -->
<g id="edge80" class="edge">
<title>Node38&#45;&gt;Node29</title>
<path fill="none" stroke="midnightblue" d="M612.56,-403.08C607.05,-395.46 598.97,-384.26 592.24,-374.94"/>
<polygon fill="midnightblue" stroke="midnightblue" points="595.01,-372.81 586.32,-366.75 589.34,-376.91 595.01,-372.81"/>
</g>
</g>
</svg>
