<?xml version="1.0" encoding="UTF-8" standalone="no"?>
<!DOCTYPE svg PUBLIC "-//W3C//DTD SVG 1.1//EN"
 "http://www.w3.org/Graphics/SVG/1.1/DTD/svg11.dtd">
<!-- Generated by graphviz version 2.49.3 (20211027.1534)
 -->
<!-- Title: python/src/python_factory.cpp Pages: 1 -->
<svg width="1557pt" height="543pt"
 viewBox="0.00 0.00 1556.50 543.00" xmlns="http://www.w3.org/2000/svg" xmlns:xlink="http://www.w3.org/1999/xlink">
<g id="graph0" class="graph" transform="scale(1 1) rotate(0) translate(4 539)">
<title>python/src/python_factory.cpp</title>
<!-- Node1 -->
<g id="node1" class="node">
<title>Node1</title>
<g id="a_node1"><a xlink:title=" ">
<polygon fill="#bfbfbf" stroke="black" points="937,-515.5 937,-534.5 1083,-534.5 1083,-515.5 937,-515.5"/>
<text text-anchor="middle" x="1010" y="-522.5" font-family="FreeSans.ttf" font-size="10.00">python/src/python_factory.cpp</text>
</a>
</g>
</g>
<!-- Node2 -->
<g id="node2" class="node">
<title>Node2</title>
<g id="a_node2"><a xlink:href="python__factory_8hpp.html" target="_top" xlink:title=" ">
<polygon fill="none" stroke="black" points="229,-459.5 229,-478.5 327,-478.5 327,-459.5 229,-459.5"/>
<text text-anchor="middle" x="278" y="-466.5" font-family="FreeSans.ttf" font-size="10.00">python_factory.hpp</text>
</a>
</g>
</g>
<!-- Node1&#45;&gt;Node2 -->
<g id="edge1" class="edge">
<title>Node1&#45;&gt;Node2</title>
<path fill="none" stroke="midnightblue" d="M936.59,-520.86C813.3,-515.18 556.92,-501.65 341,-479 339.73,-478.87 338.45,-478.73 337.16,-478.58"/>
<polygon fill="midnightblue" stroke="midnightblue" points="337.48,-475.1 327.14,-477.38 336.65,-482.05 337.48,-475.1"/>
</g>
<!-- Node3 -->
<g id="node3" class="node">
<title>Node3</title>
<g id="a_node3"><a xlink:title=" ">
<polygon fill="none" stroke="#bfbfbf" points="28,-403.5 28,-422.5 132,-422.5 132,-403.5 28,-403.5"/>
<text text-anchor="middle" x="80" y="-410.5" font-family="FreeSans.ttf" font-size="10.00">pybind11/pybind11.h</text>
</a>
</g>
</g>
<!-- Node1&#45;&gt;Node3 -->
<g id="edge79" class="edge">
<title>Node1&#45;&gt;Node3</title>
<path fill="none" stroke="midnightblue" d="M936.99,-523.66C766.42,-522.27 345.95,-515.15 210,-479 169.13,-468.13 126.06,-443.64 101.18,-428.01"/>
<polygon fill="midnightblue" stroke="midnightblue" points="102.89,-424.95 92.58,-422.51 99.12,-430.85 102.89,-424.95"/>
</g>
<!-- Node4 -->
<g id="node4" class="node">
<title>Node4</title>
<g id="a_node4"><a xlink:title=" ">
<polygon fill="none" stroke="#bfbfbf" points="188,-403.5 188,-422.5 282,-422.5 282,-403.5 188,-403.5"/>
<text text-anchor="middle" x="235" y="-410.5" font-family="FreeSans.ttf" font-size="10.00">pybind11/numpy.h</text>
</a>
</g>
</g>
<!-- Node1&#45;&gt;Node4 -->
<g id="edge78" class="edge">
<title>Node1&#45;&gt;Node4</title>
<path fill="none" stroke="midnightblue" d="M936.93,-522.53C745.87,-518.31 244.41,-504.84 220,-479 208,-466.29 215.36,-445.97 223.43,-431.44"/>
<polygon fill="midnightblue" stroke="midnightblue" points="226.44,-433.22 228.64,-422.86 220.46,-429.59 226.44,-433.22"/>
</g>
<!-- Node5 -->
<g id="node5" class="node">
<title>Node5</title>
<g id="a_node5"><a xlink:title=" ">
<polygon fill="none" stroke="#bfbfbf" points="300.5,-403.5 300.5,-422.5 401.5,-422.5 401.5,-403.5 300.5,-403.5"/>
<text text-anchor="middle" x="351" y="-410.5" font-family="FreeSans.ttf" font-size="10.00">pybind11/complex.h</text>
</a>
</g>
</g>
<!-- Node1&#45;&gt;Node5 -->
<g id="edge77" class="edge">
<title>Node1&#45;&gt;Node5</title>
<path fill="none" stroke="midnightblue" d="M936.86,-523.27C779.18,-521.08 417.9,-512.42 374,-479 359.88,-468.25 354.4,-448.16 352.29,-433.15"/>
<polygon fill="midnightblue" stroke="midnightblue" points="355.74,-432.49 351.24,-422.9 348.78,-433.2 355.74,-432.49"/>
</g>
<!-- Node6 -->
<g id="node6" class="node">
<title>Node6</title>
<g id="a_node6"><a xlink:title=" ">
<polygon fill="none" stroke="#bfbfbf" points="206,-0.5 206,-19.5 266,-19.5 266,-0.5 206,-0.5"/>
<text text-anchor="middle" x="236" y="-7.5" font-family="FreeSans.ttf" font-size="10.00">config.hpp</text>
</a>
</g>
</g>
<!-- Node1&#45;&gt;Node6 -->
<g id="edge59" class="edge">
<title>Node1&#45;&gt;Node6</title>
<path fill="none" stroke="midnightblue" d="M936.72,-523.34C757.71,-521.21 302.04,-512.55 154,-479 81.55,-462.58 0,-488.29 0,-414 0,-414 0,-414 0,-121 0,-35.83 127.85,-16.44 195.34,-12.14"/>
<polygon fill="midnightblue" stroke="midnightblue" points="195.84,-15.62 205.63,-11.57 195.45,-8.63 195.84,-15.62"/>
</g>
<!-- Node7 -->
<g id="node7" class="node">
<title>Node7</title>
<g id="a_node7"><a xlink:href="gpuNUFFT__operator__factory_8hpp.html" target="_top" xlink:title=" ">
<polygon fill="none" stroke="black" points="674,-403.5 674,-422.5 832,-422.5 832,-403.5 674,-403.5"/>
<text text-anchor="middle" x="753" y="-410.5" font-family="FreeSans.ttf" font-size="10.00">gpuNUFFT_operator_factory.hpp</text>
</a>
</g>
</g>
<!-- Node1&#45;&gt;Node7 -->
<g id="edge63" class="edge">
<title>Node1&#45;&gt;Node7</title>
<path fill="none" stroke="midnightblue" d="M989.83,-515.37C944.7,-496.05 835.38,-449.26 782.55,-426.65"/>
<polygon fill="midnightblue" stroke="midnightblue" points="783.64,-423.31 773.07,-422.59 780.89,-429.74 783.64,-423.31"/>
</g>
<!-- Node9 -->
<g id="node9" class="node">
<title>Node9</title>
<g id="a_node9"><a xlink:href="gpuNUFFT__types_8hpp.html" target="_top" xlink:title="Definition of gpuNUFFT defined types.">
<polygon fill="none" stroke="black" points="377,-168.5 377,-187.5 489,-187.5 489,-168.5 377,-168.5"/>
<text text-anchor="middle" x="433" y="-175.5" font-family="FreeSans.ttf" font-size="10.00">gpuNUFFT_types.hpp</text>
</a>
</g>
</g>
<!-- Node1&#45;&gt;Node9 -->
<g id="edge64" class="edge">
<title>Node1&#45;&gt;Node9</title>
<path fill="none" stroke="midnightblue" d="M955.61,-515.48C805.83,-490.69 394.23,-413.09 331,-300 306.53,-256.23 368.81,-213.36 406.57,-192.36"/>
<polygon fill="midnightblue" stroke="midnightblue" points="408.44,-195.33 415.58,-187.51 405.11,-189.17 408.44,-195.33"/>
</g>
<!-- Node16 -->
<g id="node16" class="node">
<title>Node16</title>
<g id="a_node16"><a xlink:title=" ">
<polygon fill="none" stroke="#bfbfbf" points="1011.5,-0.5 1011.5,-19.5 1056.5,-19.5 1056.5,-0.5 1011.5,-0.5"/>
<text text-anchor="middle" x="1034" y="-7.5" font-family="FreeSans.ttf" font-size="10.00">cuda.h</text>
</a>
</g>
</g>
<!-- Node1&#45;&gt;Node16 -->
<g id="edge75" class="edge">
<title>Node1&#45;&gt;Node16</title>
<path fill="none" stroke="midnightblue" d="M1064.55,-515.48C1119.43,-503.45 1196,-475.62 1196,-414 1196,-414 1196,-414 1196,-121 1196,-87.76 1184.44,-77.4 1159,-56 1151.65,-49.82 1100.95,-32.63 1066.42,-21.38"/>
<polygon fill="midnightblue" stroke="midnightblue" points="1067.32,-17.99 1056.73,-18.23 1065.16,-24.65 1067.32,-17.99"/>
</g>
<!-- Node17 -->
<g id="node17" class="node">
<title>Node17</title>
<g id="a_node17"><a xlink:title=" ">
<polygon fill="none" stroke="#bfbfbf" points="1074.5,-0.5 1074.5,-19.5 1157.5,-19.5 1157.5,-0.5 1074.5,-0.5"/>
<text text-anchor="middle" x="1116" y="-7.5" font-family="FreeSans.ttf" font-size="10.00">cuda_runtime.h</text>
</a>
</g>
</g>
<!-- Node1&#45;&gt;Node17 -->
<g id="edge60" class="edge">
<title>Node1&#45;&gt;Node17</title>
<path fill="none" stroke="midnightblue" d="M1083.04,-518.12C1148.4,-508.39 1234,-482.56 1234,-414 1234,-414 1234,-414 1234,-121 1234,-73.51 1182.23,-40.67 1147.28,-23.91"/>
<polygon fill="midnightblue" stroke="midnightblue" points="1148.47,-20.61 1137.92,-19.61 1145.54,-26.97 1148.47,-20.61"/>
</g>
<!-- Node21 -->
<g id="node21" class="node">
<title>Node21</title>
<g id="a_node21"><a xlink:href="cuda__utils_8hpp.html" target="_top" xlink:title="Util functions for CUDA memory and texture management.">
<polygon fill="none" stroke="black" points="959.5,-112.5 959.5,-131.5 1038.5,-131.5 1038.5,-112.5 959.5,-112.5"/>
<text text-anchor="middle" x="999" y="-119.5" font-family="FreeSans.ttf" font-size="10.00">cuda_utils.hpp</text>
</a>
</g>
</g>
<!-- Node1&#45;&gt;Node21 -->
<g id="edge61" class="edge">
<title>Node1&#45;&gt;Node21</title>
<path fill="none" stroke="midnightblue" d="M1019.39,-515.16C1045.83,-489.19 1117.86,-410.26 1101,-336 1083.32,-258.16 1033.54,-175.52 1010.71,-140.4"/>
<polygon fill="midnightblue" stroke="midnightblue" points="1013.46,-138.22 1005.03,-131.8 1007.62,-142.08 1013.46,-138.22"/>
</g>
<!-- Node22 -->
<g id="node22" class="node">
<title>Node22</title>
<g id="a_node22"><a xlink:title=" ">
<polygon fill="none" stroke="#bfbfbf" points="1086.5,-56.5 1086.5,-75.5 1129.5,-75.5 1129.5,-56.5 1086.5,-56.5"/>
<text text-anchor="middle" x="1108" y="-63.5" font-family="FreeSans.ttf" font-size="10.00">cufft.h</text>
</a>
</g>
</g>
<!-- Node1&#45;&gt;Node22 -->
<g id="edge62" class="edge">
<title>Node1&#45;&gt;Node22</title>
<path fill="none" stroke="midnightblue" d="M1042.85,-515.46C1086.45,-501.91 1158,-470.99 1158,-414 1158,-414 1158,-414 1158,-350.5 1158,-249.14 1126.62,-130.45 1113.58,-85.5"/>
<polygon fill="midnightblue" stroke="midnightblue" points="1116.88,-84.32 1110.69,-75.72 1110.16,-86.3 1116.88,-84.32"/>
</g>
<!-- Node31 -->
<g id="node31" class="node">
<title>Node31</title>
<g id="a_node31"><a xlink:title=" ">
<polygon fill="none" stroke="#bfbfbf" points="914,-342 914,-361 970,-361 970,-342 914,-342"/>
<text text-anchor="middle" x="942" y="-349" font-family="FreeSans.ttf" font-size="10.00">algorithm</text>
</a>
</g>
</g>
<!-- Node1&#45;&gt;Node31 -->
<g id="edge72" class="edge">
<title>Node1&#45;&gt;Node31</title>
<path fill="none" stroke="midnightblue" d="M1006.53,-515.26C995.89,-488.42 963.54,-406.82 949.09,-370.39"/>
<polygon fill="midnightblue" stroke="midnightblue" points="952.32,-369.03 945.38,-361.02 945.81,-371.61 952.32,-369.03"/>
</g>
<!-- Node32 -->
<g id="node32" class="node">
<title>Node32</title>
<g id="a_node32"><a xlink:title=" ">
<polygon fill="none" stroke="#bfbfbf" points="988,-342 988,-361 1032,-361 1032,-342 988,-342"/>
<text text-anchor="middle" x="1010" y="-349" font-family="FreeSans.ttf" font-size="10.00">vector</text>
</a>
</g>
</g>
<!-- Node1&#45;&gt;Node32 -->
<g id="edge82" class="edge">
<title>Node1&#45;&gt;Node32</title>
<path fill="none" stroke="midnightblue" d="M1010,-515.26C1010,-488.65 1010,-408.21 1010,-371.34"/>
<polygon fill="midnightblue" stroke="midnightblue" points="1013.5,-371.02 1010,-361.02 1006.5,-371.02 1013.5,-371.02"/>
</g>
<!-- Node33 -->
<g id="node33" class="node">
<title>Node33</title>
<g id="a_node33"><a xlink:title=" ">
<polygon fill="none" stroke="#bfbfbf" points="1050.5,-342 1050.5,-361 1091.5,-361 1091.5,-342 1050.5,-342"/>
<text text-anchor="middle" x="1071" y="-349" font-family="FreeSans.ttf" font-size="10.00">string</text>
</a>
</g>
</g>
<!-- Node1&#45;&gt;Node33 -->
<g id="edge80" class="edge">
<title>Node1&#45;&gt;Node33</title>
<path fill="none" stroke="midnightblue" d="M1013.11,-515.26C1022.61,-488.54 1051.43,-407.52 1064.47,-370.86"/>
<polygon fill="midnightblue" stroke="midnightblue" points="1067.92,-371.61 1067.97,-361.02 1061.32,-369.27 1067.92,-371.61"/>
</g>
<!-- Node35 -->
<g id="node35" class="node">
<title>Node35</title>
<g id="a_node35"><a xlink:href="python__utils_8hpp.html" target="_top" xlink:title=" ">
<polygon fill="none" stroke="black" points="383,-459.5 383,-478.5 469,-478.5 469,-459.5 383,-459.5"/>
<text text-anchor="middle" x="426" y="-466.5" font-family="FreeSans.ttf" font-size="10.00">python_utils.hpp</text>
</a>
</g>
</g>
<!-- Node1&#45;&gt;Node35 -->
<g id="edge65" class="edge">
<title>Node1&#45;&gt;Node35</title>
<path fill="none" stroke="midnightblue" d="M936.94,-519.42C835.05,-512.65 644.57,-498.63 483,-479 481.74,-478.85 480.47,-478.69 479.18,-478.52"/>
<polygon fill="midnightblue" stroke="midnightblue" points="479.6,-475.05 469.21,-477.16 478.65,-481.98 479.6,-475.05"/>
</g>
<!-- Node36 -->
<g id="node36" class="node">
<title>Node36</title>
<g id="a_node36"><a xlink:title=" ">
<polygon fill="none" stroke="#bfbfbf" points="1262,-459.5 1262,-478.5 1308,-478.5 1308,-459.5 1262,-459.5"/>
<text text-anchor="middle" x="1285" y="-466.5" font-family="FreeSans.ttf" font-size="10.00">cstdint</text>
</a>
</g>
</g>
<!-- Node1&#45;&gt;Node36 -->
<g id="edge73" class="edge">
<title>Node1&#45;&gt;Node36</title>
<path fill="none" stroke="midnightblue" d="M1059.38,-515.43C1107.62,-506.88 1183.06,-493.03 1248,-479 1249.27,-478.73 1250.57,-478.44 1251.87,-478.15"/>
<polygon fill="midnightblue" stroke="midnightblue" points="1253,-481.48 1261.95,-475.8 1251.42,-474.66 1253,-481.48"/>
</g>
<!-- Node37 -->
<g id="node37" class="node">
<title>Node37</title>
<g id="a_node37"><a xlink:title=" ">
<polygon fill="none" stroke="#bfbfbf" points="1326,-459.5 1326,-478.5 1394,-478.5 1394,-459.5 1326,-459.5"/>
<text text-anchor="middle" x="1360" y="-466.5" font-family="FreeSans.ttf" font-size="10.00">cublas_v2.h</text>
</a>
</g>
</g>
<!-- Node1&#45;&gt;Node37 -->
<g id="edge74" class="edge">
<title>Node1&#45;&gt;Node37</title>
<path fill="none" stroke="midnightblue" d="M1076.06,-515.5C1136.11,-507.5 1227.38,-494.68 1315.83,-479.12"/>
<polygon fill="midnightblue" stroke="midnightblue" points="1316.53,-482.55 1325.77,-477.36 1315.31,-475.66 1316.53,-482.55"/>
</g>
<!-- Node38 -->
<g id="node38" class="node">
<title>Node38</title>
<g id="a_node38"><a xlink:title=" ">
<polygon fill="none" stroke="#bfbfbf" points="1412.5,-459.5 1412.5,-478.5 1465.5,-478.5 1465.5,-459.5 1412.5,-459.5"/>
<text text-anchor="middle" x="1439" y="-466.5" font-family="FreeSans.ttf" font-size="10.00">curand.h</text>
</a>
</g>
</g>
<!-- Node1&#45;&gt;Node38 -->
<g id="edge76" class="edge">
<title>Node1&#45;&gt;Node38</title>
<path fill="none" stroke="midnightblue" d="M1083.21,-518.5C1160.29,-512.06 1285.29,-499.77 1402.48,-478.86"/>
<polygon fill="midnightblue" stroke="midnightblue" points="1403.13,-482.3 1412.35,-477.08 1401.88,-475.41 1403.13,-482.3"/>
</g>
<!-- Node39 -->
<g id="node39" class="node">
<title>Node39</title>
<g id="a_node39"><a xlink:title=" ">
<polygon fill="none" stroke="#bfbfbf" points="1483.5,-459.5 1483.5,-478.5 1548.5,-478.5 1548.5,-459.5 1483.5,-459.5"/>
<text text-anchor="middle" x="1516" y="-466.5" font-family="FreeSans.ttf" font-size="10.00">sys/types.h</text>
</a>
</g>
</g>
<!-- Node1&#45;&gt;Node39 -->
<g id="edge81" class="edge">
<title>Node1&#45;&gt;Node39</title>
<path fill="none" stroke="midnightblue" d="M1083.23,-519.63C1172.98,-513.67 1329.83,-501.28 1473.1,-479.14"/>
<polygon fill="midnightblue" stroke="midnightblue" points="1474.05,-482.53 1483.39,-477.53 1472.97,-475.62 1474.05,-482.53"/>
</g>
<!-- Node2&#45;&gt;Node3 -->
<g id="edge2" class="edge">
<title>Node2&#45;&gt;Node3</title>
<path fill="none" stroke="midnightblue" d="M246.63,-459.44C212.74,-450.2 158.6,-435.44 121.28,-425.26"/>
<polygon fill="midnightblue" stroke="midnightblue" points="121.8,-421.77 111.23,-422.52 119.95,-428.52 121.8,-421.77"/>
</g>
<!-- Node2&#45;&gt;Node4 -->
<g id="edge3" class="edge">
<title>Node2&#45;&gt;Node4</title>
<path fill="none" stroke="midnightblue" d="M270.9,-459.08C264.76,-451.38 255.73,-440.03 248.26,-430.65"/>
<polygon fill="midnightblue" stroke="midnightblue" points="250.94,-428.39 241.97,-422.75 245.46,-432.75 250.94,-428.39"/>
</g>
<!-- Node2&#45;&gt;Node5 -->
<g id="edge4" class="edge">
<title>Node2&#45;&gt;Node5</title>
<path fill="none" stroke="midnightblue" d="M289.73,-459.32C300.84,-451.11 317.74,-438.6 330.98,-428.81"/>
<polygon fill="midnightblue" stroke="midnightblue" points="333.1,-431.59 339.06,-422.83 328.94,-425.97 333.1,-431.59"/>
</g>
<!-- Node2&#45;&gt;Node6 -->
<g id="edge5" class="edge">
<title>Node2&#45;&gt;Node6</title>
<path fill="none" stroke="midnightblue" d="M240.72,-459.47C219.77,-452.85 194.76,-441.57 179,-423 158,-398.26 160,-384.95 160,-352.5 160,-352.5 160,-352.5 160,-121 160,-90.2 166.47,-81.32 184,-56 192.18,-44.19 204.15,-33.54 214.55,-25.57"/>
<polygon fill="midnightblue" stroke="midnightblue" points="216.79,-28.27 222.8,-19.54 212.66,-22.62 216.79,-28.27"/>
</g>
<!-- Node2&#45;&gt;Node7 -->
<g id="edge6" class="edge">
<title>Node2&#45;&gt;Node7</title>
<path fill="none" stroke="midnightblue" d="M327.04,-462.42C407.48,-453.28 568.41,-434.99 667.8,-423.69"/>
<polygon fill="midnightblue" stroke="midnightblue" points="668.27,-427.15 677.81,-422.55 667.48,-420.2 668.27,-427.15"/>
</g>
<!-- Node7&#45;&gt;Node6 -->
<g id="edge7" class="edge">
<title>Node7&#45;&gt;Node6</title>
<path fill="none" stroke="midnightblue" d="M673.92,-409.76C529.09,-403.5 236,-379.84 236,-291 236,-291 236,-291 236,-121 236,-88.95 236,-51.64 236,-29.75"/>
<polygon fill="midnightblue" stroke="midnightblue" points="239.5,-29.56 236,-19.56 232.5,-29.56 239.5,-29.56"/>
</g>
<!-- Node8 -->
<g id="node8" class="node">
<title>Node8</title>
<g id="a_node8"><a xlink:href="gpuNUFFT__operator_8hpp.html" target="_top" xlink:title=" ">
<polygon fill="none" stroke="black" points="694,-224.5 694,-243.5 818,-243.5 818,-224.5 694,-224.5"/>
<text text-anchor="middle" x="756" y="-231.5" font-family="FreeSans.ttf" font-size="10.00">gpuNUFFT_operator.hpp</text>
</a>
</g>
</g>
<!-- Node7&#45;&gt;Node8 -->
<g id="edge8" class="edge">
<title>Node7&#45;&gt;Node8</title>
<path fill="none" stroke="midnightblue" d="M753.14,-403.46C753.6,-376.43 755.03,-292.24 755.68,-254.11"/>
<polygon fill="midnightblue" stroke="midnightblue" points="759.18,-253.93 755.85,-243.87 752.18,-253.81 759.18,-253.93"/>
</g>
<!-- Node18 -->
<g id="node18" class="node">
<title>Node18</title>
<g id="a_node18"><a xlink:title=" ">
<polygon fill="none" stroke="#bfbfbf" points="687,-0.5 687,-19.5 731,-19.5 731,-0.5 687,-0.5"/>
<text text-anchor="middle" x="709" y="-7.5" font-family="FreeSans.ttf" font-size="10.00">cmath</text>
</a>
</g>
</g>
<!-- Node7&#45;&gt;Node18 -->
<g id="edge52" class="edge">
<title>Node7&#45;&gt;Node18</title>
<path fill="none" stroke="midnightblue" d="M758.45,-403.4C778.66,-371.04 847.1,-256.73 827,-224 808.48,-193.85 778.96,-214.92 756,-188 716.33,-141.49 709.74,-65.01 708.91,-29.8"/>
<polygon fill="midnightblue" stroke="midnightblue" points="712.41,-29.52 708.81,-19.55 705.41,-29.58 712.41,-29.52"/>
</g>
<!-- Node7&#45;&gt;Node21 -->
<g id="edge53" class="edge">
<title>Node7&#45;&gt;Node21</title>
<path fill="none" stroke="midnightblue" d="M770.01,-403.44C786.53,-394.9 812.11,-381.05 833,-367 851.37,-354.64 853.43,-348.06 872,-336 901,-317.15 917.49,-325.37 941,-300 983.26,-254.4 994.76,-177.46 997.86,-141.97"/>
<polygon fill="midnightblue" stroke="midnightblue" points="1001.38,-141.86 998.63,-131.63 994.4,-141.35 1001.38,-141.86"/>
</g>
<!-- Node25 -->
<g id="node25" class="node">
<title>Node25</title>
<g id="a_node25"><a xlink:href="balanced__gpuNUFFT__operator_8hpp.html" target="_top" xlink:title=" ">
<polygon fill="none" stroke="black" points="340,-280.5 340,-299.5 508,-299.5 508,-280.5 340,-280.5"/>
<text text-anchor="middle" x="424" y="-287.5" font-family="FreeSans.ttf" font-size="10.00">balanced_gpuNUFFT_operator.hpp</text>
</a>
</g>
</g>
<!-- Node7&#45;&gt;Node25 -->
<g id="edge35" class="edge">
<title>Node7&#45;&gt;Node25</title>
<path fill="none" stroke="midnightblue" d="M673.97,-406.72C602.43,-400.65 503.44,-388.61 471,-367 450.47,-353.33 437.31,-327.32 430.29,-309.58"/>
<polygon fill="midnightblue" stroke="midnightblue" points="433.42,-307.96 426.7,-299.78 426.85,-310.37 433.42,-307.96"/>
</g>
<!-- Node27 -->
<g id="node27" class="node">
<title>Node27</title>
<g id="a_node27"><a xlink:href="texture__gpuNUFFT__operator_8hpp.html" target="_top" xlink:title=" ">
<polygon fill="none" stroke="black" points="564,-280.5 564,-299.5 722,-299.5 722,-280.5 564,-280.5"/>
<text text-anchor="middle" x="643" y="-287.5" font-family="FreeSans.ttf" font-size="10.00">texture_gpuNUFFT_operator.hpp</text>
</a>
</g>
</g>
<!-- Node7&#45;&gt;Node27 -->
<g id="edge40" class="edge">
<title>Node7&#45;&gt;Node27</title>
<path fill="none" stroke="midnightblue" d="M745.09,-403.3C726.78,-383.15 681.23,-333.06 657.66,-307.12"/>
<polygon fill="midnightblue" stroke="midnightblue" points="660.16,-304.67 650.84,-299.62 654.98,-309.38 660.16,-304.67"/>
</g>
<!-- Node30 -->
<g id="node30" class="node">
<title>Node30</title>
<g id="a_node30"><a xlink:href="balanced__texture__gpuNUFFT__operator_8hpp.html" target="_top" xlink:title=" ">
<polygon fill="none" stroke="black" points="480,-336.5 480,-366.5 624,-366.5 624,-336.5 480,-336.5"/>
<text text-anchor="start" x="488" y="-354.5" font-family="FreeSans.ttf" font-size="10.00">balanced_texture_gpuNUFFT</text>
<text text-anchor="middle" x="552" y="-343.5" font-family="FreeSans.ttf" font-size="10.00">_operator.hpp</text>
</a>
</g>
</g>
<!-- Node7&#45;&gt;Node30 -->
<g id="edge45" class="edge">
<title>Node7&#45;&gt;Node30</title>
<path fill="none" stroke="midnightblue" d="M724.2,-403.48C694.31,-394.63 646.75,-380.55 609.18,-369.43"/>
<polygon fill="midnightblue" stroke="midnightblue" points="609.95,-366.01 599.37,-366.52 607.97,-372.72 609.95,-366.01"/>
</g>
<!-- Node7&#45;&gt;Node31 -->
<g id="edge49" class="edge">
<title>Node7&#45;&gt;Node31</title>
<path fill="none" stroke="midnightblue" d="M780.08,-403.48C812.92,-393.14 868.43,-375.66 905.15,-364.1"/>
<polygon fill="midnightblue" stroke="midnightblue" points="906.48,-367.35 914.97,-361.01 904.38,-360.67 906.48,-367.35"/>
</g>
<!-- Node7&#45;&gt;Node32 -->
<g id="edge50" class="edge">
<title>Node7&#45;&gt;Node32</title>
<path fill="none" stroke="midnightblue" d="M816.89,-403.49C862.73,-396.37 925.59,-384.52 979,-367 980.67,-366.45 982.37,-365.84 984.06,-365.18"/>
<polygon fill="midnightblue" stroke="midnightblue" points="985.77,-368.25 993.57,-361.08 983,-361.83 985.77,-368.25"/>
</g>
<!-- Node7&#45;&gt;Node33 -->
<g id="edge51" class="edge">
<title>Node7&#45;&gt;Node33</title>
<path fill="none" stroke="midnightblue" d="M832.04,-405.98C890.72,-400 972.16,-388.49 1041,-367 1042.67,-366.48 1044.36,-365.88 1046.05,-365.22"/>
<polygon fill="midnightblue" stroke="midnightblue" points="1047.73,-368.31 1055.48,-361.08 1044.91,-361.9 1047.73,-368.31"/>
</g>
<!-- Node34 -->
<g id="node34" class="node">
<title>Node34</title>
<g id="a_node34"><a xlink:href="precomp__utils_8hpp.html" target="_top" xlink:title="UTIL functions for precomputation.">
<polygon fill="none" stroke="black" points="836.5,-280.5 836.5,-299.5 931.5,-299.5 931.5,-280.5 836.5,-280.5"/>
<text text-anchor="middle" x="884" y="-287.5" font-family="FreeSans.ttf" font-size="10.00">precomp_utils.hpp</text>
</a>
</g>
</g>
<!-- Node7&#45;&gt;Node34 -->
<g id="edge54" class="edge">
<title>Node7&#45;&gt;Node34</title>
<path fill="none" stroke="midnightblue" d="M762.42,-403.04C777.46,-388.77 807.87,-360.01 834,-336 844.77,-326.1 856.98,-315.11 866.63,-306.47"/>
<polygon fill="midnightblue" stroke="midnightblue" points="869.23,-308.84 874.36,-299.57 864.57,-303.62 869.23,-308.84"/>
</g>
<!-- Node8&#45;&gt;Node6 -->
<g id="edge31" class="edge">
<title>Node8&#45;&gt;Node6</title>
<path fill="none" stroke="midnightblue" d="M708.75,-224.49C662.76,-215.64 596.6,-201.27 574,-188 534.14,-164.6 541.4,-137.74 503,-112 430.29,-63.26 330.82,-33.7 276.12,-20.05"/>
<polygon fill="midnightblue" stroke="midnightblue" points="276.67,-16.58 266.13,-17.61 275.01,-23.38 276.67,-16.58"/>
</g>
<!-- Node8&#45;&gt;Node9 -->
<g id="edge9" class="edge">
<title>Node8&#45;&gt;Node9</title>
<path fill="none" stroke="midnightblue" d="M704.82,-224.44C647.53,-214.87 554.76,-199.36 493.81,-189.17"/>
<polygon fill="midnightblue" stroke="midnightblue" points="494.38,-185.71 483.94,-187.52 493.23,-192.62 494.38,-185.71"/>
</g>
<!-- Node10 -->
<g id="node10" class="node">
<title>Node10</title>
<g id="a_node10"><a xlink:title=" ">
<polygon fill="none" stroke="#bfbfbf" points="609.5,-112.5 609.5,-131.5 654.5,-131.5 654.5,-112.5 609.5,-112.5"/>
<text text-anchor="middle" x="632" y="-119.5" font-family="FreeSans.ttf" font-size="10.00">cstdlib</text>
</a>
</g>
</g>
<!-- Node8&#45;&gt;Node10 -->
<g id="edge32" class="edge">
<title>Node8&#45;&gt;Node10</title>
<path fill="none" stroke="midnightblue" d="M742.91,-224.28C730.22,-215.62 710.66,-201.68 695,-188 677.36,-172.58 658.9,-153.08 646.56,-139.48"/>
<polygon fill="midnightblue" stroke="midnightblue" points="649.01,-136.97 639.73,-131.86 643.8,-141.64 649.01,-136.97"/>
</g>
<!-- Node11 -->
<g id="node11" class="node">
<title>Node11</title>
<g id="a_node11"><a xlink:title=" ">
<polygon fill="none" stroke="#bfbfbf" points="440,-112.5 440,-131.5 494,-131.5 494,-112.5 440,-112.5"/>
<text text-anchor="middle" x="467" y="-119.5" font-family="FreeSans.ttf" font-size="10.00">iostream</text>
</a>
</g>
</g>
<!-- Node8&#45;&gt;Node11 -->
<g id="edge33" class="edge">
<title>Node8&#45;&gt;Node11</title>
<path fill="none" stroke="midnightblue" d="M699.23,-224.48C645.21,-215.76 568.25,-201.62 541,-188 517,-176 494.61,-154.29 480.88,-139.28"/>
<polygon fill="midnightblue" stroke="midnightblue" points="483.45,-136.89 474.19,-131.73 478.21,-141.54 483.45,-136.89"/>
</g>
<!-- Node12 -->
<g id="node12" class="node">
<title>Node12</title>
<g id="a_node12"><a xlink:href="gpuNUFFT__kernels_8hpp.html" target="_top" xlink:title="gpuNUFFT CUDA function prototypes">
<polygon fill="none" stroke="black" points="775,-168.5 775,-187.5 895,-187.5 895,-168.5 775,-168.5"/>
<text text-anchor="middle" x="835" y="-175.5" font-family="FreeSans.ttf" font-size="10.00">gpuNUFFT_kernels.hpp</text>
</a>
</g>
</g>
<!-- Node8&#45;&gt;Node12 -->
<g id="edge13" class="edge">
<title>Node8&#45;&gt;Node12</title>
<path fill="none" stroke="midnightblue" d="M768.69,-224.32C780.9,-215.98 799.58,-203.21 814,-193.35"/>
<polygon fill="midnightblue" stroke="midnightblue" points="816.06,-196.19 822.34,-187.65 812.11,-190.41 816.06,-196.19"/>
</g>
<!-- Node24 -->
<g id="node24" class="node">
<title>Node24</title>
<g id="a_node24"><a xlink:title=" ">
<polygon fill="none" stroke="#bfbfbf" points="583.5,-168.5 583.5,-187.5 642.5,-187.5 642.5,-168.5 583.5,-168.5"/>
<text text-anchor="middle" x="613" y="-175.5" font-family="FreeSans.ttf" font-size="10.00">functional</text>
</a>
</g>
</g>
<!-- Node8&#45;&gt;Node24 -->
<g id="edge34" class="edge">
<title>Node8&#45;&gt;Node24</title>
<path fill="none" stroke="midnightblue" d="M733.34,-224.44C709.6,-215.48 672.09,-201.31 645.26,-191.18"/>
<polygon fill="midnightblue" stroke="midnightblue" points="646.14,-187.77 635.55,-187.52 643.67,-194.32 646.14,-187.77"/>
</g>
<!-- Node9&#45;&gt;Node6 -->
<g id="edge12" class="edge">
<title>Node9&#45;&gt;Node6</title>
<path fill="none" stroke="midnightblue" d="M422.69,-168.31C390.9,-141.53 294.19,-60.03 253.91,-26.09"/>
<polygon fill="midnightblue" stroke="midnightblue" points="256.11,-23.37 246.21,-19.61 251.6,-28.73 256.11,-23.37"/>
</g>
<!-- Node9&#45;&gt;Node10 -->
<g id="edge10" class="edge">
<title>Node9&#45;&gt;Node10</title>
<path fill="none" stroke="midnightblue" d="M464.53,-168.44C501.4,-158.44 562.11,-141.97 599.42,-131.84"/>
<polygon fill="midnightblue" stroke="midnightblue" points="600.55,-135.16 609.28,-129.16 598.71,-128.41 600.55,-135.16"/>
</g>
<!-- Node9&#45;&gt;Node11 -->
<g id="edge11" class="edge">
<title>Node9&#45;&gt;Node11</title>
<path fill="none" stroke="midnightblue" d="M438.61,-168.08C443.37,-160.53 450.32,-149.49 456.15,-140.23"/>
<polygon fill="midnightblue" stroke="midnightblue" points="459.12,-142.08 461.49,-131.75 453.2,-138.35 459.12,-142.08"/>
</g>
<!-- Node13 -->
<g id="node13" class="node">
<title>Node13</title>
<g id="a_node13"><a xlink:href="gpuNUFFT__utils_8hpp.html" target="_top" xlink:title="Definition of util functions used in gridding operations.">
<polygon fill="none" stroke="black" points="777.5,-56.5 777.5,-75.5 884.5,-75.5 884.5,-56.5 777.5,-56.5"/>
<text text-anchor="middle" x="831" y="-63.5" font-family="FreeSans.ttf" font-size="10.00">gpuNUFFT_utils.hpp</text>
</a>
</g>
</g>
<!-- Node12&#45;&gt;Node13 -->
<g id="edge14" class="edge">
<title>Node12&#45;&gt;Node13</title>
<path fill="none" stroke="midnightblue" d="M834.69,-168.37C834.04,-150.62 832.55,-109.67 831.68,-85.6"/>
<polygon fill="midnightblue" stroke="midnightblue" points="835.17,-85.46 831.31,-75.59 828.18,-85.71 835.17,-85.46"/>
</g>
<!-- Node12&#45;&gt;Node21 -->
<g id="edge23" class="edge">
<title>Node12&#45;&gt;Node21</title>
<path fill="none" stroke="midnightblue" d="M860.99,-168.44C888.7,-159.32 932.75,-144.81 963.62,-134.65"/>
<polygon fill="midnightblue" stroke="midnightblue" points="964.73,-137.97 973.14,-131.52 962.54,-131.32 964.73,-137.97"/>
</g>
<!-- Node13&#45;&gt;Node6 -->
<g id="edge19" class="edge">
<title>Node13&#45;&gt;Node6</title>
<path fill="none" stroke="midnightblue" d="M777.41,-60.14C659.63,-49.45 380.4,-24.11 276.17,-14.65"/>
<polygon fill="midnightblue" stroke="midnightblue" points="276.33,-11.15 266.06,-13.73 275.7,-18.12 276.33,-11.15"/>
</g>
<!-- Node14 -->
<g id="node14" class="node">
<title>Node14</title>
<g id="a_node14"><a xlink:title=" ">
<polygon fill="none" stroke="#bfbfbf" points="749.5,-0.5 749.5,-19.5 796.5,-19.5 796.5,-0.5 749.5,-0.5"/>
<text text-anchor="middle" x="773" y="-7.5" font-family="FreeSans.ttf" font-size="10.00">stdlib.h</text>
</a>
</g>
</g>
<!-- Node13&#45;&gt;Node14 -->
<g id="edge15" class="edge">
<title>Node13&#45;&gt;Node14</title>
<path fill="none" stroke="midnightblue" d="M821.68,-56.32C813.11,-48.34 800.19,-36.31 789.81,-26.65"/>
<polygon fill="midnightblue" stroke="midnightblue" points="792.19,-24.09 782.49,-19.83 787.42,-29.21 792.19,-24.09"/>
</g>
<!-- Node15 -->
<g id="node15" class="node">
<title>Node15</title>
<g id="a_node15"><a xlink:title=" ">
<polygon fill="none" stroke="#bfbfbf" points="948.5,-0.5 948.5,-19.5 993.5,-19.5 993.5,-0.5 948.5,-0.5"/>
<text text-anchor="middle" x="971" y="-7.5" font-family="FreeSans.ttf" font-size="10.00">stdio.h</text>
</a>
</g>
</g>
<!-- Node13&#45;&gt;Node15 -->
<g id="edge16" class="edge">
<title>Node13&#45;&gt;Node15</title>
<path fill="none" stroke="midnightblue" d="M853.18,-56.44C876.43,-47.48 913.15,-33.31 939.42,-23.18"/>
<polygon fill="midnightblue" stroke="midnightblue" points="940.85,-26.38 948.92,-19.52 938.33,-19.85 940.85,-26.38"/>
</g>
<!-- Node13&#45;&gt;Node16 -->
<g id="edge17" class="edge">
<title>Node13&#45;&gt;Node16</title>
<path fill="none" stroke="midnightblue" d="M864.69,-56.47C897.38,-48.13 948.64,-34.89 1001.46,-20.38"/>
<polygon fill="midnightblue" stroke="midnightblue" points="1002.62,-23.69 1011.33,-17.66 1000.76,-16.94 1002.62,-23.69"/>
</g>
<!-- Node13&#45;&gt;Node17 -->
<g id="edge18" class="edge">
<title>Node13&#45;&gt;Node17</title>
<path fill="none" stroke="midnightblue" d="M876.16,-56.44C927.33,-46.75 1010.57,-30.98 1064.29,-20.8"/>
<polygon fill="midnightblue" stroke="midnightblue" points="1065.12,-24.2 1074.3,-18.9 1063.82,-17.32 1065.12,-24.2"/>
</g>
<!-- Node13&#45;&gt;Node18 -->
<g id="edge20" class="edge">
<title>Node13&#45;&gt;Node18</title>
<path fill="none" stroke="midnightblue" d="M811.67,-56.44C791.68,-47.6 760.26,-33.69 737.44,-23.59"/>
<polygon fill="midnightblue" stroke="midnightblue" points="738.8,-20.36 728.24,-19.52 735.97,-26.76 738.8,-20.36"/>
</g>
<!-- Node19 -->
<g id="node19" class="node">
<title>Node19</title>
<g id="a_node19"><a xlink:title=" ">
<polygon fill="none" stroke="#bfbfbf" points="815,-0.5 815,-19.5 861,-19.5 861,-0.5 815,-0.5"/>
<text text-anchor="middle" x="838" y="-7.5" font-family="FreeSans.ttf" font-size="10.00">math.h</text>
</a>
</g>
</g>
<!-- Node13&#45;&gt;Node19 -->
<g id="edge21" class="edge">
<title>Node13&#45;&gt;Node19</title>
<path fill="none" stroke="midnightblue" d="M832.16,-56.08C833.08,-48.93 834.42,-38.64 835.58,-29.69"/>
<polygon fill="midnightblue" stroke="midnightblue" points="839.05,-30.12 836.87,-19.75 832.11,-29.22 839.05,-30.12"/>
</g>
<!-- Node20 -->
<g id="node20" class="node">
<title>Node20</title>
<g id="a_node20"><a xlink:title=" ">
<polygon fill="none" stroke="#bfbfbf" points="879.5,-0.5 879.5,-19.5 930.5,-19.5 930.5,-0.5 879.5,-0.5"/>
<text text-anchor="middle" x="905" y="-7.5" font-family="FreeSans.ttf" font-size="10.00">assert.h</text>
</a>
</g>
</g>
<!-- Node13&#45;&gt;Node20 -->
<g id="edge22" class="edge">
<title>Node13&#45;&gt;Node20</title>
<path fill="none" stroke="midnightblue" d="M842.89,-56.32C854.15,-48.11 871.29,-35.6 884.71,-25.81"/>
<polygon fill="midnightblue" stroke="midnightblue" points="886.88,-28.56 892.89,-19.83 882.75,-22.9 886.88,-28.56"/>
</g>
<!-- Node21&#45;&gt;Node8 -->
<g id="edge29" class="edge">
<title>Node21&#45;&gt;Node8</title>
<path fill="none" stroke="midnightblue" d="M988.82,-131.53C972.1,-145.18 937.33,-172 904,-188 872.6,-203.08 835.02,-214.43 805.59,-221.96"/>
<polygon fill="midnightblue" stroke="midnightblue" points="804.4,-218.65 795.55,-224.46 806.09,-225.44 804.4,-218.65"/>
</g>
<!-- Node21&#45;&gt;Node13 -->
<g id="edge28" class="edge">
<title>Node21&#45;&gt;Node13</title>
<path fill="none" stroke="midnightblue" d="M972.38,-112.44C943.99,-103.32 898.86,-88.81 867.25,-78.65"/>
<polygon fill="midnightblue" stroke="midnightblue" points="868.09,-75.24 857.5,-75.52 865.94,-81.91 868.09,-75.24"/>
</g>
<!-- Node21&#45;&gt;Node15 -->
<g id="edge26" class="edge">
<title>Node21&#45;&gt;Node15</title>
<path fill="none" stroke="midnightblue" d="M996.8,-112.37C992.28,-94.62 981.86,-53.67 975.73,-29.6"/>
<polygon fill="midnightblue" stroke="midnightblue" points="979.05,-28.42 973.19,-19.59 972.26,-30.15 979.05,-28.42"/>
</g>
<!-- Node21&#45;&gt;Node16 -->
<g id="edge24" class="edge">
<title>Node21&#45;&gt;Node16</title>
<path fill="none" stroke="midnightblue" d="M1001.75,-112.37C1007.42,-94.54 1020.54,-53.3 1028.19,-29.27"/>
<polygon fill="midnightblue" stroke="midnightblue" points="1031.57,-30.18 1031.27,-19.59 1024.9,-28.06 1031.57,-30.18"/>
</g>
<!-- Node21&#45;&gt;Node17 -->
<g id="edge25" class="edge">
<title>Node21&#45;&gt;Node17</title>
<path fill="none" stroke="midnightblue" d="M1008.18,-112.37C1027.83,-93.89 1074.21,-50.29 1099.25,-26.74"/>
<polygon fill="midnightblue" stroke="midnightblue" points="1101.97,-28.99 1106.86,-19.59 1097.18,-23.89 1101.97,-28.99"/>
</g>
<!-- Node21&#45;&gt;Node22 -->
<g id="edge27" class="edge">
<title>Node21&#45;&gt;Node22</title>
<path fill="none" stroke="midnightblue" d="M1016.51,-112.32C1034.07,-103.62 1061.33,-90.12 1081.53,-80.11"/>
<polygon fill="midnightblue" stroke="midnightblue" points="1083.12,-83.23 1090.53,-75.65 1080.02,-76.96 1083.12,-83.23"/>
</g>
<!-- Node23 -->
<g id="node23" class="node">
<title>Node23</title>
<g id="a_node23"><a xlink:title=" ">
<polygon fill="none" stroke="#bfbfbf" points="902.5,-56.5 902.5,-75.5 953.5,-75.5 953.5,-56.5 902.5,-56.5"/>
<text text-anchor="middle" x="928" y="-63.5" font-family="FreeSans.ttf" font-size="10.00">stdarg.h</text>
</a>
</g>
</g>
<!-- Node21&#45;&gt;Node23 -->
<g id="edge30" class="edge">
<title>Node21&#45;&gt;Node23</title>
<path fill="none" stroke="midnightblue" d="M987.59,-112.32C976.89,-104.18 960.66,-91.84 947.84,-82.09"/>
<polygon fill="midnightblue" stroke="midnightblue" points="949.69,-79.1 939.61,-75.83 945.46,-84.67 949.69,-79.1"/>
</g>
<!-- Node25&#45;&gt;Node8 -->
<g id="edge37" class="edge">
<title>Node25&#45;&gt;Node8</title>
<path fill="none" stroke="midnightblue" d="M476.61,-280.44C535.49,-270.87 630.85,-255.36 693.49,-245.17"/>
<polygon fill="midnightblue" stroke="midnightblue" points="694.33,-248.58 703.64,-243.52 693.21,-241.67 694.33,-248.58"/>
</g>
<!-- Node25&#45;&gt;Node9 -->
<g id="edge36" class="edge">
<title>Node25&#45;&gt;Node9</title>
<path fill="none" stroke="midnightblue" d="M407.38,-280.49C387.16,-268.9 357.08,-246.96 369,-224 376.15,-210.23 389.67,-199.78 402.45,-192.44"/>
<polygon fill="midnightblue" stroke="midnightblue" points="404.32,-195.41 411.52,-187.64 401.04,-189.23 404.32,-195.41"/>
</g>
<!-- Node26 -->
<g id="node26" class="node">
<title>Node26</title>
<g id="a_node26"><a xlink:href="balanced__operator_8hpp.html" target="_top" xlink:title=" ">
<polygon fill="none" stroke="black" points="378,-224.5 378,-243.5 492,-243.5 492,-224.5 378,-224.5"/>
<text text-anchor="middle" x="435" y="-231.5" font-family="FreeSans.ttf" font-size="10.00">balanced_operator.hpp</text>
</a>
</g>
</g>
<!-- Node25&#45;&gt;Node26 -->
<g id="edge38" class="edge">
<title>Node25&#45;&gt;Node26</title>
<path fill="none" stroke="midnightblue" d="M425.82,-280.08C427.27,-272.93 429.37,-262.64 431.19,-253.69"/>
<polygon fill="midnightblue" stroke="midnightblue" points="434.65,-254.25 433.22,-243.75 427.79,-252.85 434.65,-254.25"/>
</g>
<!-- Node26&#45;&gt;Node9 -->
<g id="edge39" class="edge">
<title>Node26&#45;&gt;Node9</title>
<path fill="none" stroke="midnightblue" d="M434.67,-224.08C434.41,-217.01 434.03,-206.86 433.7,-197.99"/>
<polygon fill="midnightblue" stroke="midnightblue" points="437.19,-197.61 433.32,-187.75 430.2,-197.87 437.19,-197.61"/>
</g>
<!-- Node27&#45;&gt;Node8 -->
<g id="edge44" class="edge">
<title>Node27&#45;&gt;Node8</title>
<path fill="none" stroke="midnightblue" d="M660.91,-280.44C679.25,-271.68 708.01,-257.94 729.09,-247.86"/>
<polygon fill="midnightblue" stroke="midnightblue" points="730.67,-250.99 738.18,-243.52 727.65,-244.67 730.67,-250.99"/>
</g>
<!-- Node27&#45;&gt;Node9 -->
<g id="edge43" class="edge">
<title>Node27&#45;&gt;Node9</title>
<path fill="none" stroke="midnightblue" d="M620.67,-280.41C599.31,-271.94 566.41,-258.24 539,-244 508.63,-228.22 475.22,-207.06 454.19,-193.23"/>
<polygon fill="midnightblue" stroke="midnightblue" points="455.98,-190.22 445.71,-187.61 452.11,-196.05 455.98,-190.22"/>
</g>
<!-- Node28 -->
<g id="node28" class="node">
<title>Node28</title>
<g id="a_node28"><a xlink:title=" ">
<polygon fill="none" stroke="#bfbfbf" points="548,-224.5 548,-243.5 598,-243.5 598,-224.5 548,-224.5"/>
<text text-anchor="middle" x="573" y="-231.5" font-family="FreeSans.ttf" font-size="10.00">typeinfo</text>
</a>
</g>
</g>
<!-- Node27&#45;&gt;Node28 -->
<g id="edge41" class="edge">
<title>Node27&#45;&gt;Node28</title>
<path fill="none" stroke="midnightblue" d="M631.75,-280.32C621.2,-272.18 605.2,-259.84 592.56,-250.09"/>
<polygon fill="midnightblue" stroke="midnightblue" points="594.51,-247.17 584.45,-243.83 590.23,-252.71 594.51,-247.17"/>
</g>
<!-- Node29 -->
<g id="node29" class="node">
<title>Node29</title>
<g id="a_node29"><a xlink:title=" ">
<polygon fill="none" stroke="#bfbfbf" points="616.5,-224.5 616.5,-243.5 675.5,-243.5 675.5,-224.5 616.5,-224.5"/>
<text text-anchor="middle" x="646" y="-231.5" font-family="FreeSans.ttf" font-size="10.00">stdexcept</text>
</a>
</g>
</g>
<!-- Node27&#45;&gt;Node29 -->
<g id="edge42" class="edge">
<title>Node27&#45;&gt;Node29</title>
<path fill="none" stroke="midnightblue" d="M643.5,-280.08C643.89,-273.01 644.45,-262.86 644.95,-253.99"/>
<polygon fill="midnightblue" stroke="midnightblue" points="648.45,-253.93 645.51,-243.75 641.46,-253.54 648.45,-253.93"/>
</g>
<!-- Node30&#45;&gt;Node9 -->
<g id="edge46" class="edge">
<title>Node30&#45;&gt;Node9</title>
<path fill="none" stroke="midnightblue" d="M479.74,-343.64C422.6,-336.54 349.46,-323.16 331,-300 299.21,-260.12 367.14,-214.46 406.9,-192.37"/>
<polygon fill="midnightblue" stroke="midnightblue" points="408.72,-195.36 415.85,-187.52 405.39,-189.2 408.72,-195.36"/>
</g>
<!-- Node30&#45;&gt;Node26 -->
<g id="edge48" class="edge">
<title>Node30&#45;&gt;Node26</title>
<path fill="none" stroke="midnightblue" d="M547.79,-336.28C542.64,-320.85 532.61,-296.27 517,-280 503.46,-265.9 484.53,-255.11 468.26,-247.63"/>
<polygon fill="midnightblue" stroke="midnightblue" points="469.62,-244.41 459.05,-243.62 466.82,-250.82 469.62,-244.41"/>
</g>
<!-- Node30&#45;&gt;Node27 -->
<g id="edge47" class="edge">
<title>Node30&#45;&gt;Node27</title>
<path fill="none" stroke="midnightblue" d="M573.57,-336.4C587.88,-327.04 606.61,-314.79 621.01,-305.38"/>
<polygon fill="midnightblue" stroke="midnightblue" points="623.3,-308.06 629.76,-299.66 619.47,-302.2 623.3,-308.06"/>
</g>
<!-- Node34&#45;&gt;Node8 -->
<g id="edge56" class="edge">
<title>Node34&#45;&gt;Node8</title>
<path fill="none" stroke="midnightblue" d="M863.72,-280.44C842.65,-271.56 809.48,-257.56 785.51,-247.45"/>
<polygon fill="midnightblue" stroke="midnightblue" points="786.76,-244.18 776.19,-243.52 784.04,-250.63 786.76,-244.18"/>
</g>
<!-- Node34&#45;&gt;Node13 -->
<g id="edge57" class="edge">
<title>Node34&#45;&gt;Node13</title>
<path fill="none" stroke="midnightblue" d="M888.2,-280.28C897.33,-260.09 917.17,-208.72 904,-168 892.92,-133.75 865.41,-101.36 847.5,-82.88"/>
<polygon fill="midnightblue" stroke="midnightblue" points="849.81,-80.23 840.27,-75.62 844.85,-85.18 849.81,-80.23"/>
</g>
<!-- Node34&#45;&gt;Node18 -->
<g id="edge58" class="edge">
<title>Node34&#45;&gt;Node18</title>
<path fill="none" stroke="midnightblue" d="M883.06,-280.2C881.15,-266.44 875.56,-239.75 860,-224 828.56,-192.18 796.76,-220.48 766,-188 764.58,-186.5 729.17,-74.81 714.89,-29.65"/>
<polygon fill="midnightblue" stroke="midnightblue" points="718.17,-28.41 711.82,-19.93 711.5,-30.52 718.17,-28.41"/>
</g>
<!-- Node34&#45;&gt;Node21 -->
<g id="edge55" class="edge">
<title>Node34&#45;&gt;Node21</title>
<path fill="none" stroke="midnightblue" d="M897.04,-280.2C908.62,-271.89 925.45,-258.57 937,-244 962.93,-211.29 982.62,-166.03 992.32,-141.17"/>
<polygon fill="midnightblue" stroke="midnightblue" points="995.68,-142.17 995.96,-131.58 989.14,-139.69 995.68,-142.17"/>
</g>
<!-- Node35&#45;&gt;Node3 -->
<g id="edge66" class="edge">
<title>Node35&#45;&gt;Node3</title>
<path fill="none" stroke="midnightblue" d="M382.88,-461.27C322.27,-451.81 211.56,-434.53 142.09,-423.69"/>
<polygon fill="midnightblue" stroke="midnightblue" points="142.57,-420.22 132.15,-422.14 141.49,-427.14 142.57,-420.22"/>
</g>
<!-- Node35&#45;&gt;Node4 -->
<g id="edge67" class="edge">
<title>Node35&#45;&gt;Node4</title>
<path fill="none" stroke="midnightblue" d="M395.74,-459.44C363.04,-450.2 310.82,-435.44 274.82,-425.26"/>
<polygon fill="midnightblue" stroke="midnightblue" points="275.7,-421.87 265.12,-422.52 273.79,-428.61 275.7,-421.87"/>
</g>
<!-- Node35&#45;&gt;Node5 -->
<g id="edge68" class="edge">
<title>Node35&#45;&gt;Node5</title>
<path fill="none" stroke="midnightblue" d="M413.95,-459.32C402.54,-451.11 385.17,-438.6 371.57,-428.81"/>
<polygon fill="midnightblue" stroke="midnightblue" points="373.43,-425.84 363.27,-422.83 369.34,-431.52 373.43,-425.84"/>
</g>
<!-- Node35&#45;&gt;Node6 -->
<g id="edge70" class="edge">
<title>Node35&#45;&gt;Node6</title>
<path fill="none" stroke="midnightblue" d="M426.49,-459.07C426.74,-445.11 425.07,-418.17 410,-403 364.12,-356.8 323.93,-400.33 268,-367 228.55,-343.49 198,-336.92 198,-291 198,-291 198,-291 198,-121 198,-86.81 214.6,-49.76 225.86,-28.57"/>
<polygon fill="midnightblue" stroke="midnightblue" points="228.95,-30.22 230.72,-19.77 222.82,-26.83 228.95,-30.22"/>
</g>
<!-- Node35&#45;&gt;Node7 -->
<g id="edge71" class="edge">
<title>Node35&#45;&gt;Node7</title>
<path fill="none" stroke="midnightblue" d="M469.09,-460.88C525.96,-451.49 626.46,-434.9 691.37,-424.18"/>
<polygon fill="midnightblue" stroke="midnightblue" points="692.17,-427.59 701.46,-422.51 691.03,-420.69 692.17,-427.59"/>
</g>
<!-- Node35&#45;&gt;Node16 -->
<g id="edge69" class="edge">
<title>Node35&#45;&gt;Node16</title>
<path fill="none" stroke="midnightblue" d="M469.27,-467.65C562.4,-466.21 778.5,-458.97 841,-423 882.6,-399.05 869.75,-368.58 905,-336 1002.19,-246.19 1158,-311.34 1158,-179 1158,-179 1158,-179 1158,-121 1158,-90.9 1158.96,-78.53 1139,-56 1128.92,-44.63 1093.31,-30.76 1066.33,-21.44"/>
<polygon fill="midnightblue" stroke="midnightblue" points="1067.44,-18.12 1056.84,-18.23 1065.19,-24.75 1067.44,-18.12"/>
</g>
</g>
</svg>
