<?xml version="1.0" encoding="UTF-8" standalone="no"?>
<!DOCTYPE svg PUBLIC "-//W3C//DTD SVG 1.1//EN"
 "http://www.w3.org/Graphics/SVG/1.1/DTD/svg11.dtd">
<!-- Generated by graphviz version 2.49.3 (20211027.1534)
 -->
<!-- Title: python/src/python_bindings.cpp Pages: 1 -->
<svg width="1105pt" height="543pt"
 viewBox="0.00 0.00 1104.50 543.00" xmlns="http://www.w3.org/2000/svg" xmlns:xlink="http://www.w3.org/1999/xlink">
<g id="graph0" class="graph" transform="scale(1 1) rotate(0) translate(4 539)">
<title>python/src/python_bindings.cpp</title>
<!-- Node1 -->
<g id="node1" class="node">
<title>Node1</title>
<g id="a_node1"><a xlink:title=" ">
<polygon fill="#bfbfbf" stroke="black" points="631.5,-515.5 631.5,-534.5 783.5,-534.5 783.5,-515.5 631.5,-515.5"/>
<text text-anchor="middle" x="707.5" y="-522.5" font-family="FreeSans.ttf" font-size="10.00">python/src/python_bindings.cpp</text>
</a>
</g>
</g>
<!-- Node2 -->
<g id="node2" class="node">
<title>Node2</title>
<g id="a_node2"><a xlink:title=" ">
<polygon fill="none" stroke="#bfbfbf" points="161.5,-403.5 161.5,-422.5 265.5,-422.5 265.5,-403.5 161.5,-403.5"/>
<text text-anchor="middle" x="213.5" y="-410.5" font-family="FreeSans.ttf" font-size="10.00">pybind11/pybind11.h</text>
</a>
</g>
</g>
<!-- Node1&#45;&gt;Node2 -->
<g id="edge1" class="edge">
<title>Node1&#45;&gt;Node2</title>
<path fill="none" stroke="midnightblue" d="M669.15,-515.46C580.15,-495.64 359.72,-446.56 261.76,-424.75"/>
<polygon fill="midnightblue" stroke="midnightblue" points="262.35,-421.29 251.83,-422.53 260.83,-428.12 262.35,-421.29"/>
</g>
<!-- Node3 -->
<g id="node3" class="node">
<title>Node3</title>
<g id="a_node3"><a xlink:title=" ">
<polygon fill="none" stroke="#bfbfbf" points="727.5,-403.5 727.5,-422.5 821.5,-422.5 821.5,-403.5 727.5,-403.5"/>
<text text-anchor="middle" x="774.5" y="-410.5" font-family="FreeSans.ttf" font-size="10.00">pybind11/numpy.h</text>
</a>
</g>
</g>
<!-- Node1&#45;&gt;Node3 -->
<g id="edge2" class="edge">
<title>Node1&#45;&gt;Node3</title>
<path fill="none" stroke="midnightblue" d="M708.54,-515.42C710.42,-502.39 715.3,-477.23 726.5,-459 733.62,-447.41 744.51,-436.86 754.11,-428.9"/>
<polygon fill="midnightblue" stroke="midnightblue" points="756.41,-431.54 762.1,-422.6 752.08,-426.04 756.41,-431.54"/>
</g>
<!-- Node4 -->
<g id="node4" class="node">
<title>Node4</title>
<g id="a_node4"><a xlink:title=" ">
<polygon fill="none" stroke="#bfbfbf" points="840,-403.5 840,-422.5 941,-422.5 941,-403.5 840,-403.5"/>
<text text-anchor="middle" x="890.5" y="-410.5" font-family="FreeSans.ttf" font-size="10.00">pybind11/complex.h</text>
</a>
</g>
</g>
<!-- Node1&#45;&gt;Node4 -->
<g id="edge3" class="edge">
<title>Node1&#45;&gt;Node4</title>
<path fill="none" stroke="midnightblue" d="M755.81,-515.44C783.17,-508.84 816.92,-497.59 842.5,-479 859.47,-466.67 872.99,-446.58 881.3,-431.99"/>
<polygon fill="midnightblue" stroke="midnightblue" points="884.52,-433.39 886.2,-422.93 878.36,-430.06 884.52,-433.39"/>
</g>
<!-- Node5 -->
<g id="node5" class="node">
<title>Node5</title>
<g id="a_node5"><a xlink:href="python__utils_8hpp.html" target="_top" xlink:title=" ">
<polygon fill="none" stroke="black" points="593.5,-459.5 593.5,-478.5 679.5,-478.5 679.5,-459.5 593.5,-459.5"/>
<text text-anchor="middle" x="636.5" y="-466.5" font-family="FreeSans.ttf" font-size="10.00">python_utils.hpp</text>
</a>
</g>
</g>
<!-- Node1&#45;&gt;Node5 -->
<g id="edge4" class="edge">
<title>Node1&#45;&gt;Node5</title>
<path fill="none" stroke="midnightblue" d="M696.09,-515.32C685.39,-507.18 669.16,-494.84 656.34,-485.09"/>
<polygon fill="midnightblue" stroke="midnightblue" points="658.19,-482.1 648.11,-478.83 653.96,-487.67 658.19,-482.1"/>
</g>
<!-- Node35 -->
<g id="node35" class="node">
<title>Node35</title>
<g id="a_node35"><a xlink:href="python__factory_8hpp.html" target="_top" xlink:title=" ">
<polygon fill="none" stroke="black" points="735.5,-459.5 735.5,-478.5 833.5,-478.5 833.5,-459.5 735.5,-459.5"/>
<text text-anchor="middle" x="784.5" y="-466.5" font-family="FreeSans.ttf" font-size="10.00">python_factory.hpp</text>
</a>
</g>
</g>
<!-- Node1&#45;&gt;Node35 -->
<g id="edge63" class="edge">
<title>Node1&#45;&gt;Node35</title>
<path fill="none" stroke="midnightblue" d="M719.87,-515.32C731.66,-507.06 749.63,-494.45 763.64,-484.63"/>
<polygon fill="midnightblue" stroke="midnightblue" points="765.98,-487.26 772.16,-478.65 761.96,-481.53 765.98,-487.26"/>
</g>
<!-- Node5&#45;&gt;Node2 -->
<g id="edge5" class="edge">
<title>Node5&#45;&gt;Node2</title>
<path fill="none" stroke="midnightblue" d="M593.34,-462.7C526.21,-454.43 392.69,-437.85 279.5,-423 278.24,-422.83 276.97,-422.67 275.69,-422.5"/>
<polygon fill="midnightblue" stroke="midnightblue" points="276.11,-419.02 265.73,-421.17 275.18,-425.96 276.11,-419.02"/>
</g>
<!-- Node5&#45;&gt;Node3 -->
<g id="edge6" class="edge">
<title>Node5&#45;&gt;Node3</title>
<path fill="none" stroke="midnightblue" d="M658.37,-459.44C681.28,-450.48 717.48,-436.31 743.37,-426.18"/>
<polygon fill="midnightblue" stroke="midnightblue" points="744.7,-429.42 752.74,-422.52 742.15,-422.9 744.7,-429.42"/>
</g>
<!-- Node5&#45;&gt;Node4 -->
<g id="edge7" class="edge">
<title>Node5&#45;&gt;Node4</title>
<path fill="none" stroke="midnightblue" d="M676.75,-459.44C721.15,-450 792.65,-434.8 840.59,-424.61"/>
<polygon fill="midnightblue" stroke="midnightblue" points="841.39,-428.02 850.44,-422.52 839.93,-421.17 841.39,-428.02"/>
</g>
<!-- Node6 -->
<g id="node6" class="node">
<title>Node6</title>
<g id="a_node6"><a xlink:title=" ">
<polygon fill="none" stroke="#bfbfbf" points="0,-0.5 0,-19.5 45,-19.5 45,-0.5 0,-0.5"/>
<text text-anchor="middle" x="22.5" y="-7.5" font-family="FreeSans.ttf" font-size="10.00">cuda.h</text>
</a>
</g>
</g>
<!-- Node5&#45;&gt;Node6 -->
<g id="edge8" class="edge">
<title>Node5&#45;&gt;Node6</title>
<path fill="none" stroke="midnightblue" d="M593.32,-460.9C482.33,-442.38 193.3,-392.27 157.5,-367 41.84,-285.34 25.22,-91.11 22.87,-29.85"/>
<polygon fill="midnightblue" stroke="midnightblue" points="26.37,-29.62 22.57,-19.73 19.37,-29.82 26.37,-29.62"/>
</g>
<!-- Node7 -->
<g id="node7" class="node">
<title>Node7</title>
<g id="a_node7"><a xlink:title=" ">
<polygon fill="none" stroke="#bfbfbf" points="946.5,-0.5 946.5,-19.5 1006.5,-19.5 1006.5,-0.5 946.5,-0.5"/>
<text text-anchor="middle" x="976.5" y="-7.5" font-family="FreeSans.ttf" font-size="10.00">config.hpp</text>
</a>
</g>
</g>
<!-- Node5&#45;&gt;Node7 -->
<g id="edge9" class="edge">
<title>Node5&#45;&gt;Node7</title>
<path fill="none" stroke="midnightblue" d="M644.59,-459.1C658.26,-444.67 687.51,-416.46 718.5,-403 864.44,-339.64 1058.5,-450.1 1058.5,-291 1058.5,-291 1058.5,-291 1058.5,-121 1058.5,-80.27 1021.91,-44.87 997.62,-25.86"/>
<polygon fill="midnightblue" stroke="midnightblue" points="999.41,-22.82 989.31,-19.61 995.2,-28.42 999.41,-22.82"/>
</g>
<!-- Node8 -->
<g id="node8" class="node">
<title>Node8</title>
<g id="a_node8"><a xlink:href="gpuNUFFT__operator__factory_8hpp.html" target="_top" xlink:title=" ">
<polygon fill="none" stroke="black" points="513.5,-403.5 513.5,-422.5 671.5,-422.5 671.5,-403.5 513.5,-403.5"/>
<text text-anchor="middle" x="592.5" y="-410.5" font-family="FreeSans.ttf" font-size="10.00">gpuNUFFT_operator_factory.hpp</text>
</a>
</g>
</g>
<!-- Node5&#45;&gt;Node8 -->
<g id="edge10" class="edge">
<title>Node5&#45;&gt;Node8</title>
<path fill="none" stroke="midnightblue" d="M629.23,-459.08C622.96,-451.38 613.71,-440.03 606.07,-430.65"/>
<polygon fill="midnightblue" stroke="midnightblue" points="608.66,-428.29 599.63,-422.75 603.23,-432.71 608.66,-428.29"/>
</g>
<!-- Node8&#45;&gt;Node7 -->
<g id="edge11" class="edge">
<title>Node8&#45;&gt;Node7</title>
<path fill="none" stroke="midnightblue" d="M671.81,-403.52C746.35,-394.93 852.17,-380.95 891.5,-367 954.21,-344.75 1020.5,-357.54 1020.5,-291 1020.5,-291 1020.5,-291 1020.5,-121 1020.5,-86.04 1001.1,-49.01 988.07,-28.07"/>
<polygon fill="midnightblue" stroke="midnightblue" points="990.99,-26.15 982.62,-19.65 985.11,-29.95 990.99,-26.15"/>
</g>
<!-- Node9 -->
<g id="node9" class="node">
<title>Node9</title>
<g id="a_node9"><a xlink:href="gpuNUFFT__operator_8hpp.html" target="_top" xlink:title=" ">
<polygon fill="none" stroke="black" points="622.5,-224.5 622.5,-243.5 746.5,-243.5 746.5,-224.5 622.5,-224.5"/>
<text text-anchor="middle" x="684.5" y="-231.5" font-family="FreeSans.ttf" font-size="10.00">gpuNUFFT_operator.hpp</text>
</a>
</g>
</g>
<!-- Node8&#45;&gt;Node9 -->
<g id="edge12" class="edge">
<title>Node8&#45;&gt;Node9</title>
<path fill="none" stroke="midnightblue" d="M599.15,-403.48C613.02,-385.36 645.31,-341.3 664.5,-300 671.5,-284.94 676.84,-266.81 680.24,-253.53"/>
<polygon fill="midnightblue" stroke="midnightblue" points="683.67,-254.23 682.63,-243.69 676.87,-252.58 683.67,-254.23"/>
</g>
<!-- Node18 -->
<g id="node18" class="node">
<title>Node18</title>
<g id="a_node18"><a xlink:title=" ">
<polygon fill="none" stroke="#bfbfbf" points="426.5,-0.5 426.5,-19.5 470.5,-19.5 470.5,-0.5 426.5,-0.5"/>
<text text-anchor="middle" x="448.5" y="-7.5" font-family="FreeSans.ttf" font-size="10.00">cmath</text>
</a>
</g>
</g>
<!-- Node8&#45;&gt;Node18 -->
<g id="edge56" class="edge">
<title>Node8&#45;&gt;Node18</title>
<path fill="none" stroke="midnightblue" d="M590.11,-403.47C585.47,-388.26 573.96,-356.17 554.5,-336 531.3,-311.96 510.41,-325.23 488.5,-300 451.36,-257.24 448.5,-235.64 448.5,-179 448.5,-179 448.5,-179 448.5,-121 448.5,-88.95 448.5,-51.64 448.5,-29.75"/>
<polygon fill="midnightblue" stroke="midnightblue" points="452,-29.56 448.5,-19.56 445,-29.56 452,-29.56"/>
</g>
<!-- Node21 -->
<g id="node21" class="node">
<title>Node21</title>
<g id="a_node21"><a xlink:href="cuda__utils_8hpp.html" target="_top" xlink:title="Util functions for CUDA memory and texture management.">
<polygon fill="none" stroke="black" points="125,-112.5 125,-131.5 204,-131.5 204,-112.5 125,-112.5"/>
<text text-anchor="middle" x="164.5" y="-119.5" font-family="FreeSans.ttf" font-size="10.00">cuda_utils.hpp</text>
</a>
</g>
</g>
<!-- Node8&#45;&gt;Node21 -->
<g id="edge57" class="edge">
<title>Node8&#45;&gt;Node21</title>
<path fill="none" stroke="midnightblue" d="M513.5,-407.97C379.13,-398.94 120.5,-371.15 120.5,-291 120.5,-291 120.5,-291 120.5,-233 120.5,-198.04 139.9,-161.01 152.93,-140.07"/>
<polygon fill="midnightblue" stroke="midnightblue" points="155.89,-141.95 158.38,-131.65 150.01,-138.15 155.89,-141.95"/>
</g>
<!-- Node25 -->
<g id="node25" class="node">
<title>Node25</title>
<g id="a_node25"><a xlink:href="balanced__gpuNUFFT__operator_8hpp.html" target="_top" xlink:title=" ">
<polygon fill="none" stroke="black" points="824.5,-280.5 824.5,-299.5 992.5,-299.5 992.5,-280.5 824.5,-280.5"/>
<text text-anchor="middle" x="908.5" y="-287.5" font-family="FreeSans.ttf" font-size="10.00">balanced_gpuNUFFT_operator.hpp</text>
</a>
</g>
</g>
<!-- Node8&#45;&gt;Node25 -->
<g id="edge39" class="edge">
<title>Node8&#45;&gt;Node25</title>
<path fill="none" stroke="midnightblue" d="M663.32,-403.46C738.31,-393.91 848.14,-378.31 864.5,-367 884.44,-353.21 896.58,-327.23 902.92,-309.53"/>
<polygon fill="midnightblue" stroke="midnightblue" points="906.34,-310.35 906.14,-299.75 899.69,-308.16 906.34,-310.35"/>
</g>
<!-- Node27 -->
<g id="node27" class="node">
<title>Node27</title>
<g id="a_node27"><a xlink:href="texture__gpuNUFFT__operator_8hpp.html" target="_top" xlink:title=" ">
<polygon fill="none" stroke="black" points="497.5,-280.5 497.5,-299.5 655.5,-299.5 655.5,-280.5 497.5,-280.5"/>
<text text-anchor="middle" x="576.5" y="-287.5" font-family="FreeSans.ttf" font-size="10.00">texture_gpuNUFFT_operator.hpp</text>
</a>
</g>
</g>
<!-- Node8&#45;&gt;Node27 -->
<g id="edge44" class="edge">
<title>Node8&#45;&gt;Node27</title>
<path fill="none" stroke="midnightblue" d="M592.41,-403.05C592.16,-388.79 591.2,-360.05 587.5,-336 586.14,-327.15 583.88,-317.48 581.76,-309.38"/>
<polygon fill="midnightblue" stroke="midnightblue" points="585.08,-308.25 579.06,-299.54 578.33,-310.11 585.08,-308.25"/>
</g>
<!-- Node30 -->
<g id="node30" class="node">
<title>Node30</title>
<g id="a_node30"><a xlink:href="balanced__texture__gpuNUFFT__operator_8hpp.html" target="_top" xlink:title=" ">
<polygon fill="none" stroke="black" points="711.5,-336.5 711.5,-366.5 855.5,-366.5 855.5,-336.5 711.5,-336.5"/>
<text text-anchor="start" x="719.5" y="-354.5" font-family="FreeSans.ttf" font-size="10.00">balanced_texture_gpuNUFFT</text>
<text text-anchor="middle" x="783.5" y="-343.5" font-family="FreeSans.ttf" font-size="10.00">_operator.hpp</text>
</a>
</g>
</g>
<!-- Node8&#45;&gt;Node30 -->
<g id="edge49" class="edge">
<title>Node8&#45;&gt;Node30</title>
<path fill="none" stroke="midnightblue" d="M619.87,-403.48C648.15,-394.66 693.08,-380.67 728.7,-369.57"/>
<polygon fill="midnightblue" stroke="midnightblue" points="729.98,-372.84 738.49,-366.52 727.9,-366.16 729.98,-372.84"/>
</g>
<!-- Node31 -->
<g id="node31" class="node">
<title>Node31</title>
<g id="a_node31"><a xlink:title=" ">
<polygon fill="none" stroke="#bfbfbf" points="367.5,-342 367.5,-361 423.5,-361 423.5,-342 367.5,-342"/>
<text text-anchor="middle" x="395.5" y="-349" font-family="FreeSans.ttf" font-size="10.00">algorithm</text>
</a>
</g>
</g>
<!-- Node8&#45;&gt;Node31 -->
<g id="edge53" class="edge">
<title>Node8&#45;&gt;Node31</title>
<path fill="none" stroke="midnightblue" d="M558.49,-403.48C525.9,-395.07 475.45,-381.42 432.5,-367 430.37,-366.29 428.19,-365.52 426,-364.73"/>
<polygon fill="midnightblue" stroke="midnightblue" points="427.09,-361.4 416.5,-361.15 424.62,-367.95 427.09,-361.4"/>
</g>
<!-- Node32 -->
<g id="node32" class="node">
<title>Node32</title>
<g id="a_node32"><a xlink:title=" ">
<polygon fill="none" stroke="#bfbfbf" points="441.5,-342 441.5,-361 485.5,-361 485.5,-342 441.5,-342"/>
<text text-anchor="middle" x="463.5" y="-349" font-family="FreeSans.ttf" font-size="10.00">vector</text>
</a>
</g>
</g>
<!-- Node8&#45;&gt;Node32 -->
<g id="edge54" class="edge">
<title>Node8&#45;&gt;Node32</title>
<path fill="none" stroke="midnightblue" d="M574.02,-403.48C552.37,-393.49 516.29,-376.85 491.27,-365.31"/>
<polygon fill="midnightblue" stroke="midnightblue" points="492.49,-362.02 481.95,-361.01 489.56,-368.38 492.49,-362.02"/>
</g>
<!-- Node33 -->
<g id="node33" class="node">
<title>Node33</title>
<g id="a_node33"><a xlink:title=" ">
<polygon fill="none" stroke="#bfbfbf" points="504,-342 504,-361 545,-361 545,-342 504,-342"/>
<text text-anchor="middle" x="524.5" y="-349" font-family="FreeSans.ttf" font-size="10.00">string</text>
</a>
</g>
</g>
<!-- Node8&#45;&gt;Node33 -->
<g id="edge55" class="edge">
<title>Node8&#45;&gt;Node33</title>
<path fill="none" stroke="midnightblue" d="M582.76,-403.48C572.15,-394.2 554.98,-379.17 542.02,-367.83"/>
<polygon fill="midnightblue" stroke="midnightblue" points="544.06,-364.96 534.22,-361.01 539.45,-370.23 544.06,-364.96"/>
</g>
<!-- Node34 -->
<g id="node34" class="node">
<title>Node34</title>
<g id="a_node34"><a xlink:href="precomp__utils_8hpp.html" target="_top" xlink:title="UTIL functions for precomputation.">
<polygon fill="none" stroke="black" points="325,-280.5 325,-299.5 420,-299.5 420,-280.5 325,-280.5"/>
<text text-anchor="middle" x="372.5" y="-287.5" font-family="FreeSans.ttf" font-size="10.00">precomp_utils.hpp</text>
</a>
</g>
</g>
<!-- Node8&#45;&gt;Node34 -->
<g id="edge58" class="edge">
<title>Node8&#45;&gt;Node34</title>
<path fill="none" stroke="midnightblue" d="M513.41,-407.36C453.41,-401.99 378.03,-390.64 358.5,-367 344.93,-350.57 353.59,-325.27 362.11,-308.44"/>
<polygon fill="midnightblue" stroke="midnightblue" points="365.2,-310.08 366.95,-299.63 359.07,-306.71 365.2,-310.08"/>
</g>
<!-- Node9&#45;&gt;Node7 -->
<g id="edge35" class="edge">
<title>Node9&#45;&gt;Node7</title>
<path fill="none" stroke="midnightblue" d="M684.68,-224.45C685.61,-202.78 690.96,-145.1 721.5,-112 779.11,-49.57 880.26,-25.1 936.29,-16.01"/>
<polygon fill="midnightblue" stroke="midnightblue" points="936.85,-19.46 946.21,-14.48 935.79,-12.54 936.85,-19.46"/>
</g>
<!-- Node10 -->
<g id="node10" class="node">
<title>Node10</title>
<g id="a_node10"><a xlink:href="gpuNUFFT__types_8hpp.html" target="_top" xlink:title="Definition of gpuNUFFT defined types.">
<polygon fill="none" stroke="black" points="788.5,-168.5 788.5,-187.5 900.5,-187.5 900.5,-168.5 788.5,-168.5"/>
<text text-anchor="middle" x="844.5" y="-175.5" font-family="FreeSans.ttf" font-size="10.00">gpuNUFFT_types.hpp</text>
</a>
</g>
</g>
<!-- Node9&#45;&gt;Node10 -->
<g id="edge13" class="edge">
<title>Node9&#45;&gt;Node10</title>
<path fill="none" stroke="midnightblue" d="M709.85,-224.44C736.77,-215.36 779.5,-200.94 809.59,-190.78"/>
<polygon fill="midnightblue" stroke="midnightblue" points="810.91,-194.03 819.27,-187.52 808.67,-187.4 810.91,-194.03"/>
</g>
<!-- Node11 -->
<g id="node11" class="node">
<title>Node11</title>
<g id="a_node11"><a xlink:title=" ">
<polygon fill="none" stroke="#bfbfbf" points="812,-112.5 812,-131.5 857,-131.5 857,-112.5 812,-112.5"/>
<text text-anchor="middle" x="834.5" y="-119.5" font-family="FreeSans.ttf" font-size="10.00">cstdlib</text>
</a>
</g>
</g>
<!-- Node9&#45;&gt;Node11 -->
<g id="edge36" class="edge">
<title>Node9&#45;&gt;Node11</title>
<path fill="none" stroke="midnightblue" d="M696.27,-224.37C721.9,-205.57 783,-160.77 814.68,-137.53"/>
<polygon fill="midnightblue" stroke="midnightblue" points="816.79,-140.33 822.78,-131.59 812.65,-134.68 816.79,-140.33"/>
</g>
<!-- Node12 -->
<g id="node12" class="node">
<title>Node12</title>
<g id="a_node12"><a xlink:title=" ">
<polygon fill="none" stroke="#bfbfbf" points="730.5,-112.5 730.5,-131.5 784.5,-131.5 784.5,-112.5 730.5,-112.5"/>
<text text-anchor="middle" x="757.5" y="-119.5" font-family="FreeSans.ttf" font-size="10.00">iostream</text>
</a>
</g>
</g>
<!-- Node9&#45;&gt;Node12 -->
<g id="edge37" class="edge">
<title>Node9&#45;&gt;Node12</title>
<path fill="none" stroke="midnightblue" d="M690.23,-224.37C702.28,-206.22 730.42,-163.8 746.22,-139.99"/>
<polygon fill="midnightblue" stroke="midnightblue" points="749.19,-141.86 751.8,-131.59 743.35,-137.99 749.19,-141.86"/>
</g>
<!-- Node13 -->
<g id="node13" class="node">
<title>Node13</title>
<g id="a_node13"><a xlink:href="gpuNUFFT__kernels_8hpp.html" target="_top" xlink:title="gpuNUFFT CUDA function prototypes">
<polygon fill="none" stroke="black" points="224.5,-168.5 224.5,-187.5 344.5,-187.5 344.5,-168.5 224.5,-168.5"/>
<text text-anchor="middle" x="284.5" y="-175.5" font-family="FreeSans.ttf" font-size="10.00">gpuNUFFT_kernels.hpp</text>
</a>
</g>
</g>
<!-- Node9&#45;&gt;Node13 -->
<g id="edge17" class="edge">
<title>Node9&#45;&gt;Node13</title>
<path fill="none" stroke="midnightblue" d="M622.44,-224.62C549.99,-214.84 430.44,-198.7 354.67,-188.47"/>
<polygon fill="midnightblue" stroke="midnightblue" points="355.12,-185 344.74,-187.13 354.18,-191.94 355.12,-185"/>
</g>
<!-- Node24 -->
<g id="node24" class="node">
<title>Node24</title>
<g id="a_node24"><a xlink:title=" ">
<polygon fill="none" stroke="#bfbfbf" points="597,-168.5 597,-187.5 656,-187.5 656,-168.5 597,-168.5"/>
<text text-anchor="middle" x="626.5" y="-175.5" font-family="FreeSans.ttf" font-size="10.00">functional</text>
</a>
</g>
</g>
<!-- Node9&#45;&gt;Node24 -->
<g id="edge38" class="edge">
<title>Node9&#45;&gt;Node24</title>
<path fill="none" stroke="midnightblue" d="M675.18,-224.32C666.61,-216.34 653.69,-204.31 643.31,-194.65"/>
<polygon fill="midnightblue" stroke="midnightblue" points="645.69,-192.09 635.99,-187.83 640.92,-197.21 645.69,-192.09"/>
</g>
<!-- Node10&#45;&gt;Node7 -->
<g id="edge16" class="edge">
<title>Node10&#45;&gt;Node7</title>
<path fill="none" stroke="midnightblue" d="M851.6,-168.08C872.73,-141.49 935.52,-62.54 963.17,-27.76"/>
<polygon fill="midnightblue" stroke="midnightblue" points="966.2,-29.57 969.69,-19.57 960.72,-25.22 966.2,-29.57"/>
</g>
<!-- Node10&#45;&gt;Node11 -->
<g id="edge14" class="edge">
<title>Node10&#45;&gt;Node11</title>
<path fill="none" stroke="midnightblue" d="M842.85,-168.08C841.52,-160.93 839.62,-150.64 837.96,-141.69"/>
<polygon fill="midnightblue" stroke="midnightblue" points="841.38,-140.95 836.12,-131.75 834.5,-142.22 841.38,-140.95"/>
</g>
<!-- Node10&#45;&gt;Node12 -->
<g id="edge15" class="edge">
<title>Node10&#45;&gt;Node12</title>
<path fill="none" stroke="midnightblue" d="M830.52,-168.32C816.95,-159.9 796.12,-146.97 780.18,-137.07"/>
<polygon fill="midnightblue" stroke="midnightblue" points="781.79,-133.95 771.44,-131.65 778.09,-139.9 781.79,-133.95"/>
</g>
<!-- Node14 -->
<g id="node14" class="node">
<title>Node14</title>
<g id="a_node14"><a xlink:href="gpuNUFFT__utils_8hpp.html" target="_top" xlink:title="Definition of util functions used in gridding operations.">
<polygon fill="none" stroke="black" points="275,-56.5 275,-75.5 382,-75.5 382,-56.5 275,-56.5"/>
<text text-anchor="middle" x="328.5" y="-63.5" font-family="FreeSans.ttf" font-size="10.00">gpuNUFFT_utils.hpp</text>
</a>
</g>
</g>
<!-- Node13&#45;&gt;Node14 -->
<g id="edge18" class="edge">
<title>Node13&#45;&gt;Node14</title>
<path fill="none" stroke="midnightblue" d="M287.95,-168.37C295.12,-150.46 311.73,-108.92 321.32,-84.95"/>
<polygon fill="midnightblue" stroke="midnightblue" points="324.6,-86.18 325.06,-75.59 318.1,-83.58 324.6,-86.18"/>
</g>
<!-- Node13&#45;&gt;Node21 -->
<g id="edge27" class="edge">
<title>Node13&#45;&gt;Node21</title>
<path fill="none" stroke="midnightblue" d="M265.49,-168.44C245.91,-159.64 215.19,-145.81 192.77,-135.72"/>
<polygon fill="midnightblue" stroke="midnightblue" points="193.98,-132.43 183.43,-131.52 191.11,-138.81 193.98,-132.43"/>
</g>
<!-- Node14&#45;&gt;Node6 -->
<g id="edge21" class="edge">
<title>Node14&#45;&gt;Node6</title>
<path fill="none" stroke="midnightblue" d="M274.86,-57.01C211.4,-47.42 108.51,-31.45 55.1,-20.11"/>
<polygon fill="midnightblue" stroke="midnightblue" points="55.62,-16.64 45.11,-17.9 54.12,-23.48 55.62,-16.64"/>
</g>
<!-- Node14&#45;&gt;Node7 -->
<g id="edge23" class="edge">
<title>Node14&#45;&gt;Node7</title>
<path fill="none" stroke="midnightblue" d="M382.08,-60.54C508.69,-49.98 824.1,-23.7 936.19,-14.36"/>
<polygon fill="midnightblue" stroke="midnightblue" points="936.71,-17.83 946.39,-13.51 936.13,-10.85 936.71,-17.83"/>
</g>
<!-- Node15 -->
<g id="node15" class="node">
<title>Node15</title>
<g id="a_node15"><a xlink:title=" ">
<polygon fill="none" stroke="#bfbfbf" points="227,-0.5 227,-19.5 274,-19.5 274,-0.5 227,-0.5"/>
<text text-anchor="middle" x="250.5" y="-7.5" font-family="FreeSans.ttf" font-size="10.00">stdlib.h</text>
</a>
</g>
</g>
<!-- Node14&#45;&gt;Node15 -->
<g id="edge19" class="edge">
<title>Node14&#45;&gt;Node15</title>
<path fill="none" stroke="midnightblue" d="M315.97,-56.32C303.91,-47.98 285.47,-35.21 271.23,-25.35"/>
<polygon fill="midnightblue" stroke="midnightblue" points="273.22,-22.47 263,-19.65 269.23,-28.22 273.22,-22.47"/>
</g>
<!-- Node16 -->
<g id="node16" class="node">
<title>Node16</title>
<g id="a_node16"><a xlink:title=" ">
<polygon fill="none" stroke="#bfbfbf" points="63,-0.5 63,-19.5 108,-19.5 108,-0.5 63,-0.5"/>
<text text-anchor="middle" x="85.5" y="-7.5" font-family="FreeSans.ttf" font-size="10.00">stdio.h</text>
</a>
</g>
</g>
<!-- Node14&#45;&gt;Node16 -->
<g id="edge20" class="edge">
<title>Node14&#45;&gt;Node16</title>
<path fill="none" stroke="midnightblue" d="M283.61,-56.47C242.74,-48.47 180.51,-35.75 118.14,-20.28"/>
<polygon fill="midnightblue" stroke="midnightblue" points="118.69,-16.81 108.13,-17.78 116.99,-23.6 118.69,-16.81"/>
</g>
<!-- Node17 -->
<g id="node17" class="node">
<title>Node17</title>
<g id="a_node17"><a xlink:title=" ">
<polygon fill="none" stroke="#bfbfbf" points="126,-0.5 126,-19.5 209,-19.5 209,-0.5 126,-0.5"/>
<text text-anchor="middle" x="167.5" y="-7.5" font-family="FreeSans.ttf" font-size="10.00">cuda_runtime.h</text>
</a>
</g>
</g>
<!-- Node14&#45;&gt;Node17 -->
<g id="edge22" class="edge">
<title>Node14&#45;&gt;Node17</title>
<path fill="none" stroke="midnightblue" d="M302.99,-56.44C275.9,-47.36 232.91,-32.94 202.63,-22.78"/>
<polygon fill="midnightblue" stroke="midnightblue" points="203.49,-19.38 192.89,-19.52 201.26,-26.01 203.49,-19.38"/>
</g>
<!-- Node14&#45;&gt;Node18 -->
<g id="edge24" class="edge">
<title>Node14&#45;&gt;Node18</title>
<path fill="none" stroke="midnightblue" d="M347.51,-56.44C367.09,-47.64 397.81,-33.81 420.23,-23.72"/>
<polygon fill="midnightblue" stroke="midnightblue" points="421.89,-26.81 429.57,-19.52 419.02,-20.43 421.89,-26.81"/>
</g>
<!-- Node19 -->
<g id="node19" class="node">
<title>Node19</title>
<g id="a_node19"><a xlink:title=" ">
<polygon fill="none" stroke="#bfbfbf" points="292.5,-0.5 292.5,-19.5 338.5,-19.5 338.5,-0.5 292.5,-0.5"/>
<text text-anchor="middle" x="315.5" y="-7.5" font-family="FreeSans.ttf" font-size="10.00">math.h</text>
</a>
</g>
</g>
<!-- Node14&#45;&gt;Node19 -->
<g id="edge25" class="edge">
<title>Node14&#45;&gt;Node19</title>
<path fill="none" stroke="midnightblue" d="M326.35,-56.08C324.63,-48.93 322.15,-38.64 320,-29.69"/>
<polygon fill="midnightblue" stroke="midnightblue" points="323.35,-28.65 317.61,-19.75 316.54,-30.29 323.35,-28.65"/>
</g>
<!-- Node20 -->
<g id="node20" class="node">
<title>Node20</title>
<g id="a_node20"><a xlink:title=" ">
<polygon fill="none" stroke="#bfbfbf" points="357,-0.5 357,-19.5 408,-19.5 408,-0.5 357,-0.5"/>
<text text-anchor="middle" x="382.5" y="-7.5" font-family="FreeSans.ttf" font-size="10.00">assert.h</text>
</a>
</g>
</g>
<!-- Node14&#45;&gt;Node20 -->
<g id="edge26" class="edge">
<title>Node14&#45;&gt;Node20</title>
<path fill="none" stroke="midnightblue" d="M337.42,-56.08C345.28,-48.22 356.93,-36.57 366.42,-27.08"/>
<polygon fill="midnightblue" stroke="midnightblue" points="369.15,-29.3 373.75,-19.75 364.2,-24.35 369.15,-29.3"/>
</g>
<!-- Node21&#45;&gt;Node6 -->
<g id="edge28" class="edge">
<title>Node21&#45;&gt;Node6</title>
<path fill="none" stroke="midnightblue" d="M153.36,-112.37C129.2,-93.65 71.75,-49.15 41.65,-25.83"/>
<polygon fill="midnightblue" stroke="midnightblue" points="43.64,-22.95 33.59,-19.59 39.35,-28.48 43.64,-22.95"/>
</g>
<!-- Node21&#45;&gt;Node9 -->
<g id="edge33" class="edge">
<title>Node21&#45;&gt;Node9</title>
<path fill="none" stroke="midnightblue" d="M168.37,-131.6C175.41,-146.1 191.81,-175.12 215.5,-188 290.93,-229 510,-215.41 612.08,-224"/>
<polygon fill="midnightblue" stroke="midnightblue" points="611.89,-227.5 622.18,-224.97 612.56,-220.53 611.89,-227.5"/>
</g>
<!-- Node21&#45;&gt;Node14 -->
<g id="edge32" class="edge">
<title>Node21&#45;&gt;Node14</title>
<path fill="none" stroke="midnightblue" d="M190.49,-112.44C218.2,-103.32 262.25,-88.81 293.12,-78.65"/>
<polygon fill="midnightblue" stroke="midnightblue" points="294.23,-81.97 302.64,-75.52 292.04,-75.32 294.23,-81.97"/>
</g>
<!-- Node21&#45;&gt;Node16 -->
<g id="edge30" class="edge">
<title>Node21&#45;&gt;Node16</title>
<path fill="none" stroke="midnightblue" d="M157.87,-112.45C150.94,-103.46 139.8,-88.85 130.5,-76 118.98,-60.07 106.26,-41.62 97.29,-28.45"/>
<polygon fill="midnightblue" stroke="midnightblue" points="100.01,-26.22 91.5,-19.91 94.22,-30.15 100.01,-26.22"/>
</g>
<!-- Node21&#45;&gt;Node17 -->
<g id="edge29" class="edge">
<title>Node21&#45;&gt;Node17</title>
<path fill="none" stroke="midnightblue" d="M156.2,-112.41C145.44,-100.19 128.81,-76.95 135.5,-56 138.84,-45.54 145.6,-35.43 152.05,-27.45"/>
<polygon fill="midnightblue" stroke="midnightblue" points="154.85,-29.56 158.75,-19.71 149.56,-24.98 154.85,-29.56"/>
</g>
<!-- Node22 -->
<g id="node22" class="node">
<title>Node22</title>
<g id="a_node22"><a xlink:title=" ">
<polygon fill="none" stroke="#bfbfbf" points="214,-56.5 214,-75.5 257,-75.5 257,-56.5 214,-56.5"/>
<text text-anchor="middle" x="235.5" y="-63.5" font-family="FreeSans.ttf" font-size="10.00">cufft.h</text>
</a>
</g>
</g>
<!-- Node21&#45;&gt;Node22 -->
<g id="edge31" class="edge">
<title>Node21&#45;&gt;Node22</title>
<path fill="none" stroke="midnightblue" d="M175.91,-112.32C186.61,-104.18 202.84,-91.84 215.66,-82.09"/>
<polygon fill="midnightblue" stroke="midnightblue" points="218.04,-84.67 223.89,-75.83 213.81,-79.1 218.04,-84.67"/>
</g>
<!-- Node23 -->
<g id="node23" class="node">
<title>Node23</title>
<g id="a_node23"><a xlink:title=" ">
<polygon fill="none" stroke="#bfbfbf" points="145,-56.5 145,-75.5 196,-75.5 196,-56.5 145,-56.5"/>
<text text-anchor="middle" x="170.5" y="-63.5" font-family="FreeSans.ttf" font-size="10.00">stdarg.h</text>
</a>
</g>
</g>
<!-- Node21&#45;&gt;Node23 -->
<g id="edge34" class="edge">
<title>Node21&#45;&gt;Node23</title>
<path fill="none" stroke="midnightblue" d="M165.49,-112.08C166.29,-104.93 167.43,-94.64 168.42,-85.69"/>
<polygon fill="midnightblue" stroke="midnightblue" points="171.9,-86.08 169.53,-75.75 164.94,-85.3 171.9,-86.08"/>
</g>
<!-- Node25&#45;&gt;Node9 -->
<g id="edge41" class="edge">
<title>Node25&#45;&gt;Node9</title>
<path fill="none" stroke="midnightblue" d="M873.01,-280.44C834.18,-271.08 771.84,-256.06 729.58,-245.87"/>
<polygon fill="midnightblue" stroke="midnightblue" points="730.37,-242.46 719.83,-243.52 728.73,-249.26 730.37,-242.46"/>
</g>
<!-- Node25&#45;&gt;Node10 -->
<g id="edge40" class="edge">
<title>Node25&#45;&gt;Node10</title>
<path fill="none" stroke="midnightblue" d="M925.23,-280.4C946.39,-268.36 978.37,-245.53 963.5,-224 951.14,-206.12 930.7,-195.33 910.21,-188.83"/>
<polygon fill="midnightblue" stroke="midnightblue" points="911.09,-185.44 900.51,-186.06 909.16,-192.17 911.09,-185.44"/>
</g>
<!-- Node26 -->
<g id="node26" class="node">
<title>Node26</title>
<g id="a_node26"><a xlink:href="balanced__operator_8hpp.html" target="_top" xlink:title=" ">
<polygon fill="none" stroke="black" points="840.5,-224.5 840.5,-243.5 954.5,-243.5 954.5,-224.5 840.5,-224.5"/>
<text text-anchor="middle" x="897.5" y="-231.5" font-family="FreeSans.ttf" font-size="10.00">balanced_operator.hpp</text>
</a>
</g>
</g>
<!-- Node25&#45;&gt;Node26 -->
<g id="edge42" class="edge">
<title>Node25&#45;&gt;Node26</title>
<path fill="none" stroke="midnightblue" d="M906.68,-280.08C905.23,-272.93 903.13,-262.64 901.31,-253.69"/>
<polygon fill="midnightblue" stroke="midnightblue" points="904.71,-252.85 899.28,-243.75 897.85,-254.25 904.71,-252.85"/>
</g>
<!-- Node26&#45;&gt;Node10 -->
<g id="edge43" class="edge">
<title>Node26&#45;&gt;Node10</title>
<path fill="none" stroke="midnightblue" d="M888.75,-224.08C881.03,-216.22 869.6,-204.57 860.28,-195.08"/>
<polygon fill="midnightblue" stroke="midnightblue" points="862.59,-192.44 853.09,-187.75 857.6,-197.34 862.59,-192.44"/>
</g>
<!-- Node27&#45;&gt;Node9 -->
<g id="edge48" class="edge">
<title>Node27&#45;&gt;Node9</title>
<path fill="none" stroke="midnightblue" d="M593.85,-280.32C611.17,-271.66 638.02,-258.24 658,-248.25"/>
<polygon fill="midnightblue" stroke="midnightblue" points="659.81,-251.26 667.19,-243.65 656.68,-245 659.81,-251.26"/>
</g>
<!-- Node27&#45;&gt;Node10 -->
<g id="edge47" class="edge">
<title>Node27&#45;&gt;Node10</title>
<path fill="none" stroke="midnightblue" d="M633.63,-280.43C669.76,-273.62 716.77,-262.16 755.5,-244 782.94,-231.13 810.49,-209.3 827.52,-194.53"/>
<polygon fill="midnightblue" stroke="midnightblue" points="830.25,-196.79 835.4,-187.53 825.6,-191.55 830.25,-196.79"/>
</g>
<!-- Node28 -->
<g id="node28" class="node">
<title>Node28</title>
<g id="a_node28"><a xlink:title=" ">
<polygon fill="none" stroke="#bfbfbf" points="476.5,-224.5 476.5,-243.5 526.5,-243.5 526.5,-224.5 476.5,-224.5"/>
<text text-anchor="middle" x="501.5" y="-231.5" font-family="FreeSans.ttf" font-size="10.00">typeinfo</text>
</a>
</g>
</g>
<!-- Node27&#45;&gt;Node28 -->
<g id="edge45" class="edge">
<title>Node27&#45;&gt;Node28</title>
<path fill="none" stroke="midnightblue" d="M564.45,-280.32C553.04,-272.11 535.67,-259.6 522.07,-249.81"/>
<polygon fill="midnightblue" stroke="midnightblue" points="523.93,-246.84 513.77,-243.83 519.84,-252.52 523.93,-246.84"/>
</g>
<!-- Node29 -->
<g id="node29" class="node">
<title>Node29</title>
<g id="a_node29"><a xlink:title=" ">
<polygon fill="none" stroke="#bfbfbf" points="545,-224.5 545,-243.5 604,-243.5 604,-224.5 545,-224.5"/>
<text text-anchor="middle" x="574.5" y="-231.5" font-family="FreeSans.ttf" font-size="10.00">stdexcept</text>
</a>
</g>
</g>
<!-- Node27&#45;&gt;Node29 -->
<g id="edge46" class="edge">
<title>Node27&#45;&gt;Node29</title>
<path fill="none" stroke="midnightblue" d="M576.17,-280.08C575.91,-273.01 575.53,-262.86 575.2,-253.99"/>
<polygon fill="midnightblue" stroke="midnightblue" points="578.69,-253.61 574.82,-243.75 571.7,-253.87 578.69,-253.61"/>
</g>
<!-- Node30&#45;&gt;Node10 -->
<g id="edge50" class="edge">
<title>Node30&#45;&gt;Node10</title>
<path fill="none" stroke="midnightblue" d="M785.28,-336.47C787.33,-322.06 791.26,-299.1 797.5,-280 807.42,-249.63 824.11,-216.4 834.7,-196.64"/>
<polygon fill="midnightblue" stroke="midnightblue" points="837.9,-198.08 839.62,-187.63 831.76,-194.73 837.9,-198.08"/>
</g>
<!-- Node30&#45;&gt;Node26 -->
<g id="edge52" class="edge">
<title>Node30&#45;&gt;Node26</title>
<path fill="none" stroke="midnightblue" d="M787.04,-336.27C791.49,-320.85 800.42,-296.27 815.5,-280 828.7,-265.76 847.45,-255.01 863.69,-247.59"/>
<polygon fill="midnightblue" stroke="midnightblue" points="865.11,-250.79 872.9,-243.61 862.33,-244.37 865.11,-250.79"/>
</g>
<!-- Node30&#45;&gt;Node27 -->
<g id="edge51" class="edge">
<title>Node30&#45;&gt;Node27</title>
<path fill="none" stroke="midnightblue" d="M734.71,-336.47C698.53,-326.08 649.83,-312.08 616.06,-302.37"/>
<polygon fill="midnightblue" stroke="midnightblue" points="616.67,-298.91 606.09,-299.51 614.74,-305.63 616.67,-298.91"/>
</g>
<!-- Node34&#45;&gt;Node9 -->
<g id="edge60" class="edge">
<title>Node34&#45;&gt;Node9</title>
<path fill="none" stroke="midnightblue" d="M420.23,-280.74C475.25,-271.22 565.75,-255.55 625.23,-245.26"/>
<polygon fill="midnightblue" stroke="midnightblue" points="625.98,-248.68 635.23,-243.53 624.78,-241.78 625.98,-248.68"/>
</g>
<!-- Node34&#45;&gt;Node14 -->
<g id="edge61" class="edge">
<title>Node34&#45;&gt;Node14</title>
<path fill="none" stroke="midnightblue" d="M371.42,-280.45C368.85,-260.6 361.96,-209.9 353.5,-168 347.62,-138.87 338.97,-105.46 333.54,-85.31"/>
<polygon fill="midnightblue" stroke="midnightblue" points="336.9,-84.32 330.89,-75.59 330.14,-86.16 336.9,-84.32"/>
</g>
<!-- Node34&#45;&gt;Node18 -->
<g id="edge62" class="edge">
<title>Node34&#45;&gt;Node18</title>
<path fill="none" stroke="midnightblue" d="M377.78,-280.23C388.23,-262.04 410.5,-218.6 410.5,-179 410.5,-179 410.5,-179 410.5,-121 410.5,-86.81 427.1,-49.76 438.36,-28.57"/>
<polygon fill="midnightblue" stroke="midnightblue" points="441.45,-30.22 443.22,-19.77 435.32,-26.83 441.45,-30.22"/>
</g>
<!-- Node34&#45;&gt;Node21 -->
<g id="edge59" class="edge">
<title>Node34&#45;&gt;Node21</title>
<path fill="none" stroke="midnightblue" d="M344.71,-280.49C305.05,-267 232.3,-237.11 189.5,-188 177.97,-174.77 171.47,-155.64 168.01,-141.55"/>
<polygon fill="midnightblue" stroke="midnightblue" points="171.39,-140.59 165.85,-131.55 164.54,-142.07 171.39,-140.59"/>
</g>
<!-- Node35&#45;&gt;Node2 -->
<g id="edge64" class="edge">
<title>Node35&#45;&gt;Node2</title>
<path fill="none" stroke="midnightblue" d="M735.32,-463.35C631.47,-453.53 389.97,-430.69 275.64,-419.88"/>
<polygon fill="midnightblue" stroke="midnightblue" points="275.92,-416.39 265.64,-418.93 275.26,-423.36 275.92,-416.39"/>
</g>
<!-- Node35&#45;&gt;Node3 -->
<g id="edge65" class="edge">
<title>Node35&#45;&gt;Node3</title>
<path fill="none" stroke="midnightblue" d="M782.85,-459.08C781.52,-451.93 779.62,-441.64 777.96,-432.69"/>
<polygon fill="midnightblue" stroke="midnightblue" points="781.38,-431.95 776.12,-422.75 774.5,-433.22 781.38,-431.95"/>
</g>
<!-- Node35&#45;&gt;Node4 -->
<g id="edge66" class="edge">
<title>Node35&#45;&gt;Node4</title>
<path fill="none" stroke="midnightblue" d="M801.53,-459.32C818.53,-450.66 844.88,-437.24 864.49,-427.25"/>
<polygon fill="midnightblue" stroke="midnightblue" points="866.19,-430.31 873.51,-422.65 863.01,-424.08 866.19,-430.31"/>
</g>
<!-- Node35&#45;&gt;Node7 -->
<g id="edge67" class="edge">
<title>Node35&#45;&gt;Node7</title>
<path fill="none" stroke="midnightblue" d="M833.59,-460.29C921.46,-445.1 1096.5,-407.88 1096.5,-352.5 1096.5,-352.5 1096.5,-352.5 1096.5,-121 1096.5,-90.2 1093.33,-78.68 1072.5,-56 1057.55,-39.72 1035.5,-28.82 1016.31,-21.82"/>
<polygon fill="midnightblue" stroke="midnightblue" points="1017.18,-18.42 1006.58,-18.51 1014.92,-25.05 1017.18,-18.42"/>
</g>
<!-- Node35&#45;&gt;Node8 -->
<g id="edge68" class="edge">
<title>Node35&#45;&gt;Node8</title>
<path fill="none" stroke="midnightblue" d="M754.08,-459.44C721.22,-450.2 668.72,-435.44 632.53,-425.26"/>
<polygon fill="midnightblue" stroke="midnightblue" points="633.35,-421.85 622.78,-422.52 631.46,-428.59 633.35,-421.85"/>
</g>
</g>
</svg>
