<?xml version="1.0" encoding="UTF-8" standalone="no"?>
<!DOCTYPE svg PUBLIC "-//W3C//DTD SVG 1.1//EN"
 "http://www.w3.org/Graphics/SVG/1.1/DTD/svg11.dtd">
<!-- Generated by graphviz version 2.49.3 (20211027.1534)
 -->
<!-- Title: PYBIND11_MODULE Pages: 1 -->
<svg width="500pt" height="225pt"
 viewBox="0.00 0.00 500.00 225.00" xmlns="http://www.w3.org/2000/svg" xmlns:xlink="http://www.w3.org/1999/xlink">
<g id="graph0" class="graph" transform="scale(1 1) rotate(0) translate(4 221)">
<title>PYBIND11_MODULE</title>
<!-- Node1 -->
<g id="node1" class="node">
<title>Node1</title>
<g id="a_node1"><a xlink:title=" ">
<polygon fill="#bfbfbf" stroke="black" points="0,-88 0,-107 112,-107 112,-88 0,-88"/>
<text text-anchor="middle" x="56" y="-95" font-family="FreeSans.ttf" font-size="10.00">PYBIND11_MODULE</text>
</a>
</g>
</g>
<!-- Node2 -->
<g id="node2" class="node">
<title>Node2</title>
<g id="a_node2"><a xlink:href="classGpuNUFFTPythonOperator.html#a9d5913daa75877d952160c6e126bbe07" target="_top" xlink:title=" ">
<polygon fill="none" stroke="black" points="155.5,-104.5 155.5,-134.5 290.5,-134.5 290.5,-104.5 155.5,-104.5"/>
<text text-anchor="start" x="163.5" y="-122.5" font-family="FreeSans.ttf" font-size="10.00">GpuNUFFTPythonOperator</text>
<text text-anchor="middle" x="223" y="-111.5" font-family="FreeSans.ttf" font-size="10.00">::adj_op</text>
</a>
</g>
</g>
<!-- Node1&#45;&gt;Node2 -->
<g id="edge1" class="edge">
<title>Node1&#45;&gt;Node2</title>
<path fill="none" stroke="midnightblue" d="M112.4,-104.89C122.94,-106.29 134.14,-107.79 145.2,-109.26"/>
<polygon fill="midnightblue" stroke="midnightblue" points="144.92,-112.75 155.3,-110.61 145.85,-105.82 144.92,-112.75"/>
</g>
<!-- Node5 -->
<g id="node5" class="node">
<title>Node5</title>
<g id="a_node5"><a xlink:href="classGpuNUFFTPythonOperator.html#aa955beb4fd74d6291151af08eab22f62" target="_top" xlink:title=" ">
<polygon fill="none" stroke="black" points="155.5,-175.5 155.5,-205.5 290.5,-205.5 290.5,-175.5 155.5,-175.5"/>
<text text-anchor="start" x="163.5" y="-193.5" font-family="FreeSans.ttf" font-size="10.00">GpuNUFFTPythonOperator</text>
<text text-anchor="middle" x="223" y="-182.5" font-family="FreeSans.ttf" font-size="10.00">::clean_memory</text>
</a>
</g>
</g>
<!-- Node1&#45;&gt;Node5 -->
<g id="edge4" class="edge">
<title>Node1&#45;&gt;Node5</title>
<path fill="none" stroke="midnightblue" d="M74.04,-107.1C100.42,-121.97 151.71,-150.88 186.42,-170.45"/>
<polygon fill="midnightblue" stroke="midnightblue" points="184.87,-173.59 195.3,-175.45 188.3,-167.49 184.87,-173.59"/>
</g>
<!-- Node7 -->
<g id="node7" class="node">
<title>Node7</title>
<g id="a_node7"><a xlink:href="classGpuNUFFTPythonOperator.html#a790d6c1885f30c640064a26f618e64ea" target="_top" xlink:title=" ">
<polygon fill="none" stroke="black" points="148,-66 148,-85 298,-85 298,-66 148,-66"/>
<text text-anchor="middle" x="223" y="-73" font-family="FreeSans.ttf" font-size="10.00">GpuNUFFTPythonOperator::op</text>
</a>
</g>
</g>
<!-- Node1&#45;&gt;Node7 -->
<g id="edge6" class="edge">
<title>Node1&#45;&gt;Node7</title>
<path fill="none" stroke="midnightblue" d="M112.4,-90.11C121.5,-88.9 131.1,-87.62 140.68,-86.34"/>
<polygon fill="midnightblue" stroke="midnightblue" points="141.18,-89.81 150.63,-85.02 140.25,-82.87 141.18,-89.81"/>
</g>
<!-- Node9 -->
<g id="node9" class="node">
<title>Node9</title>
<g id="a_node9"><a xlink:href="classGpuNUFFTPythonOperator.html#aaf1b1ce70db899390b2236ee9c350433" target="_top" xlink:title=" ">
<polygon fill="none" stroke="black" points="155.5,-14.5 155.5,-44.5 290.5,-44.5 290.5,-14.5 155.5,-14.5"/>
<text text-anchor="start" x="163.5" y="-32.5" font-family="FreeSans.ttf" font-size="10.00">GpuNUFFTPythonOperator</text>
<text text-anchor="middle" x="223" y="-21.5" font-family="FreeSans.ttf" font-size="10.00">::set_smaps</text>
</a>
</g>
</g>
<!-- Node1&#45;&gt;Node9 -->
<g id="edge9" class="edge">
<title>Node1&#45;&gt;Node9</title>
<path fill="none" stroke="midnightblue" d="M77.06,-87.95C95.37,-79.35 123.28,-66.56 148,-56.5 154.88,-53.7 162.17,-50.87 169.39,-48.16"/>
<polygon fill="midnightblue" stroke="midnightblue" points="170.99,-51.3 179.14,-44.53 168.55,-44.73 170.99,-51.3"/>
</g>
<!-- Node3 -->
<g id="node3" class="node">
<title>Node3</title>
<g id="a_node3"><a xlink:href="python__utils_8hpp.html#a6fc45707d1f047d4232b16582576b2e6" target="_top" xlink:title=" ">
<polygon fill="none" stroke="black" points="368,-99 368,-118 458,-118 458,-99 368,-99"/>
<text text-anchor="middle" x="413" y="-106" font-family="FreeSans.ttf" font-size="10.00">copyNumpyArray</text>
</a>
</g>
</g>
<!-- Node2&#45;&gt;Node3 -->
<g id="edge2" class="edge">
<title>Node2&#45;&gt;Node3</title>
<path fill="none" stroke="midnightblue" d="M290.55,-115.61C312.6,-114.32 336.87,-112.9 357.88,-111.67"/>
<polygon fill="midnightblue" stroke="midnightblue" points="358.13,-115.16 367.91,-111.08 357.72,-108.17 358.13,-115.16"/>
</g>
<!-- Node4 -->
<g id="node4" class="node">
<title>Node4</title>
<g id="a_node4"><a xlink:href="classgpuNUFFT_1_1GpuNUFFTOperator.html#a38a45507d840b8d3d97de7fc79b4fa8a" target="_top" xlink:title="Perform Adjoint gridding operation on given kspaceData.">
<polygon fill="none" stroke="black" points="334,-137.5 334,-167.5 492,-167.5 492,-137.5 334,-137.5"/>
<text text-anchor="start" x="342" y="-155.5" font-family="FreeSans.ttf" font-size="10.00">gpuNUFFT::GpuNUFFTOperator</text>
<text text-anchor="middle" x="413" y="-144.5" font-family="FreeSans.ttf" font-size="10.00">::performGpuNUFFTAdj</text>
</a>
</g>
</g>
<!-- Node2&#45;&gt;Node4 -->
<g id="edge3" class="edge">
<title>Node2&#45;&gt;Node4</title>
<path fill="none" stroke="midnightblue" d="M290.55,-131.18C301.41,-133.09 312.81,-135.09 324.1,-137.07"/>
<polygon fill="midnightblue" stroke="midnightblue" points="323.51,-140.52 333.97,-138.8 324.72,-133.63 323.51,-140.52"/>
</g>
<!-- Node6 -->
<g id="node6" class="node">
<title>Node6</title>
<g id="a_node6"><a xlink:href="classgpuNUFFT_1_1GpuNUFFTOperator.html#a11b569c99d639766b533f26ac19a09e2" target="_top" xlink:title=" ">
<polygon fill="none" stroke="black" points="334,-186.5 334,-216.5 492,-216.5 492,-186.5 334,-186.5"/>
<text text-anchor="start" x="342" y="-204.5" font-family="FreeSans.ttf" font-size="10.00">gpuNUFFT::GpuNUFFTOperator</text>
<text text-anchor="middle" x="413" y="-193.5" font-family="FreeSans.ttf" font-size="10.00">::clean_memory</text>
</a>
</g>
</g>
<!-- Node5&#45;&gt;Node6 -->
<g id="edge5" class="edge">
<title>Node5&#45;&gt;Node6</title>
<path fill="none" stroke="midnightblue" d="M290.55,-194.39C301.3,-195.02 312.58,-195.68 323.76,-196.34"/>
<polygon fill="midnightblue" stroke="midnightblue" points="323.78,-199.84 333.97,-196.93 324.19,-192.86 323.78,-199.84"/>
</g>
<!-- Node7&#45;&gt;Node3 -->
<g id="edge7" class="edge">
<title>Node7&#45;&gt;Node3</title>
<path fill="none" stroke="midnightblue" d="M278.13,-85C303.1,-89.39 332.69,-94.58 357.69,-98.97"/>
<polygon fill="midnightblue" stroke="midnightblue" points="357.29,-102.45 367.74,-100.73 358.5,-95.56 357.29,-102.45"/>
</g>
<!-- Node8 -->
<g id="node8" class="node">
<title>Node8</title>
<g id="a_node8"><a xlink:href="classgpuNUFFT_1_1GpuNUFFTOperator.html#a10d565529aa2c7778c15edb8a820b417" target="_top" xlink:title="Perform forward gridding operation on given kspaceData.">
<polygon fill="none" stroke="black" points="334,-49.5 334,-79.5 492,-79.5 492,-49.5 334,-49.5"/>
<text text-anchor="start" x="342" y="-67.5" font-family="FreeSans.ttf" font-size="10.00">gpuNUFFT::GpuNUFFTOperator</text>
<text text-anchor="middle" x="413" y="-56.5" font-family="FreeSans.ttf" font-size="10.00">::performForwardGpuNUFFT</text>
</a>
</g>
</g>
<!-- Node7&#45;&gt;Node8 -->
<g id="edge8" class="edge">
<title>Node7&#45;&gt;Node8</title>
<path fill="none" stroke="midnightblue" d="M298.03,-71.17C306.45,-70.68 315.1,-70.17 323.68,-69.67"/>
<polygon fill="midnightblue" stroke="midnightblue" points="323.92,-73.16 333.7,-69.08 323.51,-66.17 323.92,-73.16"/>
</g>
<!-- Node10 -->
<g id="node10" class="node">
<title>Node10</title>
<g id="a_node10"><a xlink:href="classgpuNUFFT_1_1GpuNUFFTOperator.html#adbc6f59fc4a4998a4ad5bb65c38b1f03" target="_top" xlink:title=" ">
<polygon fill="none" stroke="black" points="334,-0.5 334,-30.5 492,-30.5 492,-0.5 334,-0.5"/>
<text text-anchor="start" x="342" y="-18.5" font-family="FreeSans.ttf" font-size="10.00">gpuNUFFT::GpuNUFFTOperator</text>
<text text-anchor="middle" x="413" y="-7.5" font-family="FreeSans.ttf" font-size="10.00">::setSens</text>
</a>
</g>
</g>
<!-- Node9&#45;&gt;Node10 -->
<g id="edge10" class="edge">
<title>Node9&#45;&gt;Node10</title>
<path fill="none" stroke="midnightblue" d="M290.55,-24.54C301.3,-23.74 312.58,-22.9 323.76,-22.07"/>
<polygon fill="midnightblue" stroke="midnightblue" points="324.26,-25.54 333.97,-21.31 323.74,-18.56 324.26,-25.54"/>
</g>
</g>
</svg>
