<?xml version="1.0" encoding="UTF-8" standalone="no"?>
<!DOCTYPE svg PUBLIC "-//W3C//DTD SVG 1.1//EN"
 "http://www.w3.org/Graphics/SVG/1.1/DTD/svg11.dtd">
<!-- Generated by graphviz version 2.49.3 (20211027.1534)
 -->
<!-- Title: PYBIND11_MODULE Pages: 1 -->
<svg width="657pt" height="720pt"
 viewBox="0.00 0.00 657.00 720.00" xmlns="http://www.w3.org/2000/svg" xmlns:xlink="http://www.w3.org/1999/xlink">
<g id="graph0" class="graph" transform="scale(1 1) rotate(0) translate(4 716)">
<title>PYBIND11_MODULE</title>
<!-- Node1 -->
<g id="node1" class="node">
<title>Node1</title>
<g id="a_node1"><a xlink:title=" ">
<polygon fill="#bfbfbf" stroke="black" points="0,-434 0,-453 112,-453 112,-434 0,-434"/>
<text text-anchor="middle" x="56" y="-441" font-family="FreeSans.ttf" font-size="10.00">PYBIND11_MODULE</text>
</a>
</g>
</g>
<!-- Node2 -->
<g id="node2" class="node">
<title>Node2</title>
<g id="a_node2"><a xlink:href="classGpuNUFFTPythonOperator.html#a9d5913daa75877d952160c6e126bbe07" target="_top" xlink:title="Adjoint operator (kspace to Image)">
<polygon fill="none" stroke="black" points="155.5,-516.5 155.5,-546.5 290.5,-546.5 290.5,-516.5 155.5,-516.5"/>
<text text-anchor="start" x="163.5" y="-534.5" font-family="FreeSans.ttf" font-size="10.00">GpuNUFFTPythonOperator</text>
<text text-anchor="middle" x="223" y="-523.5" font-family="FreeSans.ttf" font-size="10.00">::adj_op</text>
</a>
</g>
</g>
<!-- Node1&#45;&gt;Node2 -->
<g id="edge1" class="edge">
<title>Node1&#45;&gt;Node2</title>
<path fill="none" stroke="midnightblue" d="M68.68,-453.2C85.38,-466.68 117.44,-491.14 148,-506.5 152.32,-508.67 156.86,-510.72 161.5,-512.64"/>
<polygon fill="midnightblue" stroke="midnightblue" points="160.49,-516 171.07,-516.4 163.05,-509.49 160.49,-516"/>
</g>
<!-- Node5 -->
<g id="node5" class="node">
<title>Node5</title>
<g id="a_node5"><a xlink:href="classGpuNUFFTPythonOperator.html#aa955beb4fd74d6291151af08eab22f62" target="_top" xlink:title=" ">
<polygon fill="none" stroke="black" points="155.5,-632.5 155.5,-662.5 290.5,-662.5 290.5,-632.5 155.5,-632.5"/>
<text text-anchor="start" x="163.5" y="-650.5" font-family="FreeSans.ttf" font-size="10.00">GpuNUFFTPythonOperator</text>
<text text-anchor="middle" x="223" y="-639.5" font-family="FreeSans.ttf" font-size="10.00">::clean_memory</text>
</a>
</g>
</g>
<!-- Node1&#45;&gt;Node5 -->
<g id="edge4" class="edge">
<title>Node1&#45;&gt;Node5</title>
<path fill="none" stroke="midnightblue" d="M64.78,-453.19C80.48,-472.74 117.1,-518.32 148,-556.5 166.77,-579.7 188.3,-606.16 203.28,-624.54"/>
<polygon fill="midnightblue" stroke="midnightblue" points="200.64,-626.84 209.67,-632.38 206.07,-622.42 200.64,-626.84"/>
</g>
<!-- Node7 -->
<g id="node7" class="node">
<title>Node7</title>
<g id="a_node7"><a xlink:href="classGpuNUFFTPythonOperator.html#a564644dc7ea9b8306cd6296ea6f1fca6" target="_top" xlink:title=" ">
<polygon fill="none" stroke="black" points="155.5,-428.5 155.5,-458.5 290.5,-458.5 290.5,-428.5 155.5,-428.5"/>
<text text-anchor="start" x="163.5" y="-446.5" font-family="FreeSans.ttf" font-size="10.00">GpuNUFFTPythonOperator</text>
<text text-anchor="middle" x="223" y="-435.5" font-family="FreeSans.ttf" font-size="10.00">::data_consistency</text>
</a>
</g>
</g>
<!-- Node1&#45;&gt;Node7 -->
<g id="edge6" class="edge">
<title>Node1&#45;&gt;Node7</title>
<path fill="none" stroke="midnightblue" d="M112.4,-443.5C122.94,-443.5 134.14,-443.5 145.2,-443.5"/>
<polygon fill="midnightblue" stroke="midnightblue" points="145.3,-447 155.3,-443.5 145.3,-440 145.3,-447"/>
</g>
<!-- Node17 -->
<g id="node17" class="node">
<title>Node17</title>
<g id="a_node17"><a xlink:href="classGpuNUFFTPythonOperator.html#a47e427fafc08d705d834940e1229742f" target="_top" xlink:title="Estimate density Compensation array using gpu&#45;only functions.">
<polygon fill="none" stroke="black" points="155.5,-196.5 155.5,-226.5 290.5,-226.5 290.5,-196.5 155.5,-196.5"/>
<text text-anchor="start" x="163.5" y="-214.5" font-family="FreeSans.ttf" font-size="10.00">GpuNUFFTPythonOperator</text>
<text text-anchor="middle" x="223" y="-203.5" font-family="FreeSans.ttf" font-size="10.00">::estimate_density_comp</text>
</a>
</g>
</g>
<!-- Node1&#45;&gt;Node17 -->
<g id="edge18" class="edge">
<title>Node1&#45;&gt;Node17</title>
<path fill="none" stroke="midnightblue" d="M63.18,-433.79C77.58,-411.26 114.67,-353.87 148,-307.5 166.29,-282.05 188.35,-253.71 203.6,-234.47"/>
<polygon fill="midnightblue" stroke="midnightblue" points="206.41,-236.56 209.89,-226.56 200.93,-232.21 206.41,-236.56"/>
</g>
<!-- Node22 -->
<g id="node22" class="node">
<title>Node22</title>
<g id="a_node22"><a xlink:href="classGpuNUFFTPythonOperator.html#aff247734503217d39bc2a2144032324f" target="_top" xlink:title="Estimate the spectral radius using gpu&#45;only functions.">
<polygon fill="none" stroke="black" points="155.5,-316.5 155.5,-346.5 290.5,-346.5 290.5,-316.5 155.5,-316.5"/>
<text text-anchor="start" x="163.5" y="-334.5" font-family="FreeSans.ttf" font-size="10.00">GpuNUFFTPythonOperator</text>
<text text-anchor="middle" x="223" y="-323.5" font-family="FreeSans.ttf" font-size="10.00">::get_spectral_radius</text>
</a>
</g>
</g>
<!-- Node1&#45;&gt;Node22 -->
<g id="edge27" class="edge">
<title>Node1&#45;&gt;Node22</title>
<path fill="none" stroke="midnightblue" d="M71.07,-433.95C97.51,-416 155.17,-376.86 191.08,-352.49"/>
<polygon fill="midnightblue" stroke="midnightblue" points="193.4,-355.15 199.7,-346.63 189.46,-349.35 193.4,-355.15"/>
</g>
<!-- Node24 -->
<g id="node24" class="node">
<title>Node24</title>
<g id="a_node24"><a xlink:href="classGpuNUFFTPythonOperator.html#a790d6c1885f30c640064a26f618e64ea" target="_top" xlink:title="Forward operator (Image to kspace)">
<polygon fill="none" stroke="black" points="148,-478 148,-497 298,-497 298,-478 148,-478"/>
<text text-anchor="middle" x="223" y="-485" font-family="FreeSans.ttf" font-size="10.00">GpuNUFFTPythonOperator::op</text>
</a>
</g>
</g>
<!-- Node1&#45;&gt;Node24 -->
<g id="edge32" class="edge">
<title>Node1&#45;&gt;Node24</title>
<path fill="none" stroke="midnightblue" d="M91.1,-453.01C108.17,-457.74 129.16,-463.49 148,-468.5 156.57,-470.78 165.71,-473.16 174.54,-475.44"/>
<polygon fill="midnightblue" stroke="midnightblue" points="173.77,-478.85 184.32,-477.96 175.51,-472.08 173.77,-478.85"/>
</g>
<!-- Node25 -->
<g id="node25" class="node">
<title>Node25</title>
<g id="a_node25"><a xlink:href="classGpuNUFFTPythonOperator.html#aaf1b1ce70db899390b2236ee9c350433" target="_top" xlink:title=" ">
<polygon fill="none" stroke="black" points="155.5,-74.5 155.5,-104.5 290.5,-104.5 290.5,-74.5 155.5,-74.5"/>
<text text-anchor="start" x="163.5" y="-92.5" font-family="FreeSans.ttf" font-size="10.00">GpuNUFFTPythonOperator</text>
<text text-anchor="middle" x="223" y="-81.5" font-family="FreeSans.ttf" font-size="10.00">::set_smaps</text>
</a>
</g>
</g>
<!-- Node1&#45;&gt;Node25 -->
<g id="edge35" class="edge">
<title>Node1&#45;&gt;Node25</title>
<path fill="none" stroke="midnightblue" d="M59.29,-433.71C67.72,-398.68 99.12,-276.83 148,-186.5 162.84,-159.08 185.08,-131.12 201.31,-112.3"/>
<polygon fill="midnightblue" stroke="midnightblue" points="204.11,-114.41 208.07,-104.59 198.85,-109.8 204.11,-114.41"/>
</g>
<!-- Node3 -->
<g id="node3" class="node">
<title>Node3</title>
<g id="a_node3"><a xlink:href="python__utils_8hpp.html#a6fc45707d1f047d4232b16582576b2e6" target="_top" xlink:title=" ">
<polygon fill="none" stroke="black" points="368,-643 368,-662 458,-662 458,-643 368,-643"/>
<text text-anchor="middle" x="413" y="-650" font-family="FreeSans.ttf" font-size="10.00">copyNumpyArray</text>
</a>
</g>
</g>
<!-- Node2&#45;&gt;Node3 -->
<g id="edge2" class="edge">
<title>Node2&#45;&gt;Node3</title>
<path fill="none" stroke="midnightblue" d="M235.79,-546.51C254.27,-568.97 292.25,-611.05 334,-633.5 341.41,-637.48 349.67,-640.65 357.95,-643.15"/>
<polygon fill="midnightblue" stroke="midnightblue" points="357.08,-646.54 367.65,-645.8 358.92,-639.79 357.08,-646.54"/>
</g>
<!-- Node4 -->
<g id="node4" class="node">
<title>Node4</title>
<g id="a_node4"><a xlink:href="classgpuNUFFT_1_1GpuNUFFTOperator.html#a38a45507d840b8d3d97de7fc79b4fa8a" target="_top" xlink:title="Perform Adjoint gridding operation on given kspaceData.">
<polygon fill="none" stroke="black" points="334,-365.5 334,-395.5 492,-395.5 492,-365.5 334,-365.5"/>
<text text-anchor="start" x="342" y="-383.5" font-family="FreeSans.ttf" font-size="10.00">gpuNUFFT::GpuNUFFTOperator</text>
<text text-anchor="middle" x="413" y="-372.5" font-family="FreeSans.ttf" font-size="10.00">::performGpuNUFFTAdj</text>
</a>
</g>
</g>
<!-- Node2&#45;&gt;Node4 -->
<g id="edge3" class="edge">
<title>Node2&#45;&gt;Node4</title>
<path fill="none" stroke="midnightblue" d="M284.53,-516.47C289.44,-513.69 294.04,-510.4 298,-506.5 331.98,-473.08 299.76,-438.65 334,-405.5 335.49,-404.05 337.07,-402.69 338.72,-401.41"/>
<polygon fill="midnightblue" stroke="midnightblue" points="341.06,-404.06 347.47,-395.62 337.2,-398.22 341.06,-404.06"/>
</g>
<!-- Node6 -->
<g id="node6" class="node">
<title>Node6</title>
<g id="a_node6"><a xlink:href="classgpuNUFFT_1_1GpuNUFFTOperator.html#a11b569c99d639766b533f26ac19a09e2" target="_top" xlink:title=" ">
<polygon fill="none" stroke="black" points="334,-681.5 334,-711.5 492,-711.5 492,-681.5 334,-681.5"/>
<text text-anchor="start" x="342" y="-699.5" font-family="FreeSans.ttf" font-size="10.00">gpuNUFFT::GpuNUFFTOperator</text>
<text text-anchor="middle" x="413" y="-688.5" font-family="FreeSans.ttf" font-size="10.00">::clean_memory</text>
</a>
</g>
</g>
<!-- Node5&#45;&gt;Node6 -->
<g id="edge5" class="edge">
<title>Node5&#45;&gt;Node6</title>
<path fill="none" stroke="midnightblue" d="M281.68,-662.53C301.53,-667.71 323.94,-673.55 344.5,-678.91"/>
<polygon fill="midnightblue" stroke="midnightblue" points="343.87,-682.36 354.43,-681.49 345.63,-675.58 343.87,-682.36"/>
</g>
<!-- Node7&#45;&gt;Node3 -->
<g id="edge10" class="edge">
<title>Node7&#45;&gt;Node3</title>
<path fill="none" stroke="midnightblue" d="M286.12,-458.66C290.52,-461.41 294.56,-464.66 298,-468.5 348.05,-524.44 281.57,-579.79 334,-633.5 340.51,-640.17 348.93,-644.65 357.83,-647.63"/>
<polygon fill="midnightblue" stroke="midnightblue" points="357.03,-651.04 367.6,-650.31 358.88,-644.29 357.03,-651.04"/>
</g>
<!-- Node7&#45;&gt;Node4 -->
<g id="edge16" class="edge">
<title>Node7&#45;&gt;Node4</title>
<path fill="none" stroke="midnightblue" d="M266.76,-428.48C287.09,-421.4 311.76,-412.9 334,-405.5 340.77,-403.25 347.89,-400.91 354.95,-398.62"/>
<polygon fill="midnightblue" stroke="midnightblue" points="356.07,-401.94 364.51,-395.53 353.92,-395.28 356.07,-401.94"/>
</g>
<!-- Node8 -->
<g id="node8" class="node">
<title>Node8</title>
<g id="a_node8"><a xlink:href="cuda__utils_8hpp.html#a18413e749218eb97bc61578b50a57787" target="_top" xlink:title="CUDA memory allocation and memcpy call to copy data from host to device.">
<polygon fill="none" stroke="black" points="337,-605 337,-624 489,-624 489,-605 337,-605"/>
<text text-anchor="middle" x="413" y="-612" font-family="FreeSans.ttf" font-size="10.00">allocateAndCopyToDeviceMem</text>
</a>
</g>
</g>
<!-- Node7&#45;&gt;Node8 -->
<g id="edge7" class="edge">
<title>Node7&#45;&gt;Node8</title>
<path fill="none" stroke="midnightblue" d="M285.51,-458.68C290.1,-461.42 294.35,-464.67 298,-468.5 338.44,-511 291.75,-554.8 334,-595.5 335.47,-596.91 337.02,-598.23 338.65,-599.45"/>
<polygon fill="midnightblue" stroke="midnightblue" points="336.97,-602.53 347.32,-604.82 340.66,-596.58 336.97,-602.53"/>
</g>
<!-- Node9 -->
<g id="node9" class="node">
<title>Node9</title>
<g id="a_node9"><a xlink:href="cuda__utils_8hpp.html#a5fb34b1c5f091a495c7ac4237257d7b1" target="_top" xlink:title="Allocation of device memory of the given extent for the defined type.">
<polygon fill="none" stroke="black" points="362,-240 362,-259 464,-259 464,-240 362,-240"/>
<text text-anchor="middle" x="413" y="-247" font-family="FreeSans.ttf" font-size="10.00">allocateDeviceMem</text>
</a>
</g>
</g>
<!-- Node7&#45;&gt;Node9 -->
<g id="edge8" class="edge">
<title>Node7&#45;&gt;Node9</title>
<path fill="none" stroke="midnightblue" d="M239.55,-428.33C255.79,-411.83 281.2,-384.11 298,-356.5 319.96,-320.4 301.97,-296.07 334,-268.5 339.25,-263.98 345.41,-260.5 351.91,-257.82"/>
<polygon fill="midnightblue" stroke="midnightblue" points="353.33,-261.03 361.64,-254.45 351.04,-254.42 353.33,-261.03"/>
</g>
<!-- Node10 -->
<g id="node10" class="node">
<title>Node10</title>
<g id="a_node10"><a xlink:href="cuda__utils_8hpp.html#a0e734eacdc00ba553d77aa057e02059b" target="_top" xlink:title="Copy CUDA memory from device to host asynchronously.">
<polygon fill="none" stroke="black" points="355,-567 355,-586 471,-586 471,-567 355,-567"/>
<text text-anchor="middle" x="413" y="-574" font-family="FreeSans.ttf" font-size="10.00">copyFromDeviceAsync</text>
</a>
</g>
</g>
<!-- Node7&#45;&gt;Node10 -->
<g id="edge9" class="edge">
<title>Node7&#45;&gt;Node10</title>
<path fill="none" stroke="midnightblue" d="M283.99,-458.51C289.08,-461.29 293.86,-464.59 298,-468.5 329.04,-497.78 301.72,-529.6 334,-557.5 337.48,-560.5 341.35,-563.05 345.46,-565.2"/>
<polygon fill="midnightblue" stroke="midnightblue" points="344.21,-568.48 354.78,-569.32 347.05,-562.08 344.21,-568.48"/>
</g>
<!-- Node11 -->
<g id="node11" class="node">
<title>Node11</title>
<g id="a_node11"><a xlink:href="cuda__utils_8hpp.html#a52e9a7f2a2d5bed73e0e9e7d367b1198" target="_top" xlink:title="CUDA memcpy call to copy data from host to device.">
<polygon fill="none" stroke="black" points="374,-529 374,-548 452,-548 452,-529 374,-529"/>
<text text-anchor="middle" x="413" y="-536" font-family="FreeSans.ttf" font-size="10.00">copyToDevice</text>
</a>
</g>
</g>
<!-- Node7&#45;&gt;Node11 -->
<g id="edge11" class="edge">
<title>Node7&#45;&gt;Node11</title>
<path fill="none" stroke="midnightblue" d="M281.22,-458.66C287.16,-461.43 292.89,-464.69 298,-468.5 320.24,-485.09 311.06,-503.89 334,-519.5 342.82,-525.5 353.34,-529.61 363.75,-532.43"/>
<polygon fill="midnightblue" stroke="midnightblue" points="363.11,-535.87 373.64,-534.75 364.71,-529.06 363.11,-535.87"/>
</g>
<!-- Node12 -->
<g id="node12" class="node">
<title>Node12</title>
<g id="a_node12"><a xlink:href="structgpuNUFFT_1_1Array.html#af426f56b5d7e05b6143acbdd51bac188" target="_top" xlink:title=" ">
<polygon fill="none" stroke="black" points="352.5,-491 352.5,-510 473.5,-510 473.5,-491 352.5,-491"/>
<text text-anchor="middle" x="413" y="-498" font-family="FreeSans.ttf" font-size="10.00">gpuNUFFT::Array::count</text>
</a>
</g>
</g>
<!-- Node7&#45;&gt;Node12 -->
<g id="edge12" class="edge">
<title>Node7&#45;&gt;Node12</title>
<path fill="none" stroke="midnightblue" d="M269.05,-458.55C278.62,-461.8 288.65,-465.23 298,-468.5 314.06,-474.11 317.71,-476.59 334,-481.5 342.15,-483.96 350.86,-486.32 359.38,-488.5"/>
<polygon fill="midnightblue" stroke="midnightblue" points="358.72,-491.94 369.27,-490.97 360.41,-485.15 358.72,-491.94"/>
</g>
<!-- Node14 -->
<g id="node14" class="node">
<title>Node14</title>
<g id="a_node14"><a xlink:href="gpuNUFFT__kernels_8hpp.html#a7ea425f71e9b13006582e6280512f11c" target="_top" xlink:title="Perform data1 = data1 &#45; data2.">
<polygon fill="none" stroke="black" points="382,-453 382,-472 444,-472 444,-453 382,-453"/>
<text text-anchor="middle" x="413" y="-460" font-family="FreeSans.ttf" font-size="10.00">diffInPlace</text>
</a>
</g>
</g>
<!-- Node7&#45;&gt;Node14 -->
<g id="edge14" class="edge">
<title>Node7&#45;&gt;Node14</title>
<path fill="none" stroke="midnightblue" d="M290.55,-450.23C317.69,-452.97 348.18,-456.05 371.82,-458.44"/>
<polygon fill="midnightblue" stroke="midnightblue" points="371.53,-461.93 381.83,-459.45 372.24,-454.96 371.53,-461.93"/>
</g>
<!-- Node15 -->
<g id="node15" class="node">
<title>Node15</title>
<g id="a_node15"><a xlink:href="classgpuNUFFT_1_1GpuNUFFTOperator.html#a10d565529aa2c7778c15edb8a820b417" target="_top" xlink:title="Perform forward gridding operation on given kspaceData.">
<polygon fill="none" stroke="black" points="334,-316.5 334,-346.5 492,-346.5 492,-316.5 334,-316.5"/>
<text text-anchor="start" x="342" y="-334.5" font-family="FreeSans.ttf" font-size="10.00">gpuNUFFT::GpuNUFFTOperator</text>
<text text-anchor="middle" x="413" y="-323.5" font-family="FreeSans.ttf" font-size="10.00">::performForwardGpuNUFFT</text>
</a>
</g>
</g>
<!-- Node7&#45;&gt;Node15 -->
<g id="edge15" class="edge">
<title>Node7&#45;&gt;Node15</title>
<path fill="none" stroke="midnightblue" d="M239.47,-428.24C259.66,-409.08 296.83,-376.31 334,-356.5 338.17,-354.28 342.58,-352.21 347.08,-350.29"/>
<polygon fill="midnightblue" stroke="midnightblue" points="348.43,-353.52 356.43,-346.58 345.85,-347.02 348.43,-353.52"/>
</g>
<!-- Node16 -->
<g id="node16" class="node">
<title>Node16</title>
<g id="a_node16"><a xlink:href="python__utils_8hpp.html#aeb74d2cb99381f659a6890373021e833" target="_top" xlink:title=" ">
<polygon fill="none" stroke="black" points="368.5,-415 368.5,-434 457.5,-434 457.5,-415 368.5,-415"/>
<text text-anchor="middle" x="413" y="-422" font-family="FreeSans.ttf" font-size="10.00">readNumpyArray</text>
</a>
</g>
</g>
<!-- Node7&#45;&gt;Node16 -->
<g id="edge17" class="edge">
<title>Node7&#45;&gt;Node16</title>
<path fill="none" stroke="midnightblue" d="M290.55,-436.77C312.79,-434.53 337.27,-432.05 358.4,-429.92"/>
<polygon fill="midnightblue" stroke="midnightblue" points="358.88,-433.39 368.47,-428.9 358.17,-426.42 358.88,-433.39"/>
</g>
<!-- Node13 -->
<g id="node13" class="node">
<title>Node13</title>
<g id="a_node13"><a xlink:href="structgpuNUFFT_1_1Dimensions.html#a4c589934c5444910fbcd890d128229c9" target="_top" xlink:title="Compute total count of array length.">
<polygon fill="none" stroke="black" points="528,-264.5 528,-294.5 649,-294.5 649,-264.5 528,-264.5"/>
<text text-anchor="start" x="536" y="-282.5" font-family="FreeSans.ttf" font-size="10.00">gpuNUFFT::Dimensions</text>
<text text-anchor="middle" x="588.5" y="-271.5" font-family="FreeSans.ttf" font-size="10.00">::count</text>
</a>
</g>
</g>
<!-- Node12&#45;&gt;Node13 -->
<g id="edge13" class="edge">
<title>Node12&#45;&gt;Node13</title>
<path fill="none" stroke="midnightblue" d="M473.74,-491.95C480.33,-489.31 486.6,-485.9 492,-481.5 548.68,-435.29 573.67,-347.59 582.91,-304.57"/>
<polygon fill="midnightblue" stroke="midnightblue" points="586.36,-305.15 584.92,-294.65 579.5,-303.75 586.36,-305.15"/>
</g>
<!-- Node17&#45;&gt;Node4 -->
<g id="edge25" class="edge">
<title>Node17&#45;&gt;Node4</title>
<path fill="none" stroke="midnightblue" d="M235.9,-226.71C250.61,-245.57 276.36,-278.75 298,-307.5 314.25,-329.09 311.97,-340.85 334,-356.5 336.12,-358.01 338.34,-359.42 340.63,-360.75"/>
<polygon fill="midnightblue" stroke="midnightblue" points="339.28,-363.99 349.78,-365.45 342.48,-357.77 339.28,-363.99"/>
</g>
<!-- Node17&#45;&gt;Node9 -->
<g id="edge20" class="edge">
<title>Node17&#45;&gt;Node9</title>
<path fill="none" stroke="midnightblue" d="M290.55,-224.95C311.51,-229.19 334.47,-233.83 354.73,-237.92"/>
<polygon fill="midnightblue" stroke="midnightblue" points="354.25,-241.4 364.75,-239.95 355.64,-234.54 354.25,-241.4"/>
</g>
<!-- Node17&#45;&gt;Node13 -->
<g id="edge22" class="edge">
<title>Node17&#45;&gt;Node13</title>
<path fill="none" stroke="midnightblue" d="M235.54,-196.11C260.93,-162.47 320.44,-84.88 334,-78.5 397.54,-48.6 432.64,-40.98 492,-78.5 554.15,-117.78 576.67,-209.74 584.14,-254.35"/>
<polygon fill="midnightblue" stroke="midnightblue" points="580.7,-255.01 585.69,-264.36 587.62,-253.94 580.7,-255.01"/>
</g>
<!-- Node17&#45;&gt;Node15 -->
<g id="edge24" class="edge">
<title>Node17&#45;&gt;Node15</title>
<path fill="none" stroke="midnightblue" d="M237.83,-226.81C257.37,-247.6 295.05,-284.65 334,-306.5 337.87,-308.67 341.96,-310.69 346.15,-312.55"/>
<polygon fill="midnightblue" stroke="midnightblue" points="344.88,-315.81 355.46,-316.39 347.55,-309.34 344.88,-315.81"/>
</g>
<!-- Node18 -->
<g id="node18" class="node">
<title>Node18</title>
<g id="a_node18"><a xlink:href="python__utils_8hpp.html#a5732db3eeef010cc926583da8f91fcd6" target="_top" xlink:title=" ">
<polygon fill="none" stroke="black" points="351,-202 351,-221 475,-221 475,-202 351,-202"/>
<text text-anchor="middle" x="413" y="-209" font-family="FreeSans.ttf" font-size="10.00">allocate_pinned_memory</text>
</a>
</g>
</g>
<!-- Node17&#45;&gt;Node18 -->
<g id="edge19" class="edge">
<title>Node17&#45;&gt;Node18</title>
<path fill="none" stroke="midnightblue" d="M290.55,-211.5C306.82,-211.5 324.29,-211.5 340.77,-211.5"/>
<polygon fill="midnightblue" stroke="midnightblue" points="340.88,-215 350.88,-211.5 340.88,-208 340.88,-215"/>
</g>
<!-- Node19 -->
<g id="node19" class="node">
<title>Node19</title>
<g id="a_node19"><a xlink:href="cuda__utils_8hpp.html#a1f04840b22a32448d0069e89cacd0950" target="_top" xlink:title="CUDA memcpy call to copy data from host to device.">
<polygon fill="none" stroke="black" points="360.5,-164 360.5,-183 465.5,-183 465.5,-164 360.5,-164"/>
<text text-anchor="middle" x="413" y="-171" font-family="FreeSans.ttf" font-size="10.00">copyToDeviceAsync</text>
</a>
</g>
</g>
<!-- Node17&#45;&gt;Node19 -->
<g id="edge21" class="edge">
<title>Node17&#45;&gt;Node19</title>
<path fill="none" stroke="midnightblue" d="M290.55,-198.05C311.51,-193.81 334.47,-189.17 354.73,-185.08"/>
<polygon fill="midnightblue" stroke="midnightblue" points="355.64,-188.46 364.75,-183.05 354.25,-181.6 355.64,-188.46"/>
</g>
<!-- Node20 -->
<g id="node20" class="node">
<title>Node20</title>
<g id="a_node20"><a xlink:href="cuda__utils_8hpp.html#a6ffa821f98a8c2b391c12c01308ff1db" target="_top" xlink:title="Free of device memory.">
<polygon fill="none" stroke="black" points="370.5,-126 370.5,-145 455.5,-145 455.5,-126 370.5,-126"/>
<text text-anchor="middle" x="413" y="-133" font-family="FreeSans.ttf" font-size="10.00">freeDeviceMem</text>
</a>
</g>
</g>
<!-- Node17&#45;&gt;Node20 -->
<g id="edge23" class="edge">
<title>Node17&#45;&gt;Node20</title>
<path fill="none" stroke="midnightblue" d="M248.99,-196.35C270.78,-183.68 303.59,-165.9 334,-154.5 342.34,-151.37 351.39,-148.62 360.26,-146.26"/>
<polygon fill="midnightblue" stroke="midnightblue" points="361.32,-149.6 370.15,-143.75 359.6,-142.81 361.32,-149.6"/>
</g>
<!-- Node21 -->
<g id="node21" class="node">
<title>Node21</title>
<g id="a_node21"><a xlink:href="gpuNUFFT__kernels_8hpp.html#aeef5d0634868e22a476b5cbb3f54f6a2" target="_top" xlink:title="Perform the Density compensation method.">
<polygon fill="none" stroke="black" points="343.5,-88 343.5,-107 482.5,-107 482.5,-88 343.5,-88"/>
<text text-anchor="middle" x="413" y="-95" font-family="FreeSans.ttf" font-size="10.00">performUpdateDensityComp</text>
</a>
</g>
</g>
<!-- Node17&#45;&gt;Node21 -->
<g id="edge26" class="edge">
<title>Node17&#45;&gt;Node21</title>
<path fill="none" stroke="midnightblue" d="M236.97,-196.5C256.07,-175.39 293.85,-137.18 334,-116.5 338.61,-114.13 343.52,-112.04 348.55,-110.21"/>
<polygon fill="midnightblue" stroke="midnightblue" points="349.92,-113.45 358.33,-107 347.74,-106.8 349.92,-113.45"/>
</g>
<!-- Node22&#45;&gt;Node4 -->
<g id="edge31" class="edge">
<title>Node22&#45;&gt;Node4</title>
<path fill="none" stroke="midnightblue" d="M281.68,-346.53C301.53,-351.71 323.94,-357.55 344.5,-362.91"/>
<polygon fill="midnightblue" stroke="midnightblue" points="343.87,-366.36 354.43,-365.49 345.63,-359.58 343.87,-366.36"/>
</g>
<!-- Node22&#45;&gt;Node9 -->
<g id="edge28" class="edge">
<title>Node22&#45;&gt;Node9</title>
<path fill="none" stroke="midnightblue" d="M246.23,-316.27C267.81,-302.1 301.91,-281.3 334,-268.5 340.26,-266 346.94,-263.77 353.66,-261.79"/>
<polygon fill="midnightblue" stroke="midnightblue" points="354.78,-265.11 363.48,-259.07 352.91,-258.37 354.78,-265.11"/>
</g>
<!-- Node22&#45;&gt;Node15 -->
<g id="edge30" class="edge">
<title>Node22&#45;&gt;Node15</title>
<path fill="none" stroke="midnightblue" d="M290.55,-331.5C301.3,-331.5 312.58,-331.5 323.76,-331.5"/>
<polygon fill="midnightblue" stroke="midnightblue" points="323.97,-335 333.97,-331.5 323.97,-328 323.97,-335"/>
</g>
<!-- Node23 -->
<g id="node23" class="node">
<title>Node23</title>
<g id="a_node23"><a xlink:href="cuda__utils_8hpp.html#a130580818f5be50503003961ad9f8852" target="_top" xlink:title="CUDA memcpy call to copy data from device ptr to device ptr.">
<polygon fill="none" stroke="black" points="359,-278 359,-297 467,-297 467,-278 359,-278"/>
<text text-anchor="middle" x="413" y="-285" font-family="FreeSans.ttf" font-size="10.00">copyDeviceToDevice</text>
</a>
</g>
</g>
<!-- Node22&#45;&gt;Node23 -->
<g id="edge29" class="edge">
<title>Node22&#45;&gt;Node23</title>
<path fill="none" stroke="midnightblue" d="M288.17,-316.48C312.06,-310.89 338.82,-304.63 361.34,-299.36"/>
<polygon fill="midnightblue" stroke="midnightblue" points="362.42,-302.7 371.36,-297.01 360.82,-295.88 362.42,-302.7"/>
</g>
<!-- Node24&#45;&gt;Node3 -->
<g id="edge33" class="edge">
<title>Node24&#45;&gt;Node3</title>
<path fill="none" stroke="midnightblue" d="M282.89,-497.12C288.46,-499.8 293.64,-503.2 298,-507.5 339.48,-548.39 292.01,-593.14 334,-633.5 340.71,-639.96 349.24,-644.34 358.17,-647.28"/>
<polygon fill="midnightblue" stroke="midnightblue" points="357.39,-650.7 367.96,-649.95 359.23,-643.94 357.39,-650.7"/>
</g>
<!-- Node24&#45;&gt;Node15 -->
<g id="edge34" class="edge">
<title>Node24&#45;&gt;Node15</title>
<path fill="none" stroke="midnightblue" d="M284.18,-477.87C289.23,-475.4 293.95,-472.32 298,-468.5 336.06,-432.65 297.01,-393.46 334,-356.5 335.43,-355.07 336.95,-353.72 338.53,-352.44"/>
<polygon fill="midnightblue" stroke="midnightblue" points="340.67,-355.23 346.96,-346.7 336.73,-349.44 340.67,-355.23"/>
</g>
<!-- Node26 -->
<g id="node26" class="node">
<title>Node26</title>
<g id="a_node26"><a xlink:href="classgpuNUFFT_1_1GpuNUFFTOperator.html#adbc6f59fc4a4998a4ad5bb65c38b1f03" target="_top" xlink:title=" ">
<polygon fill="none" stroke="black" points="334,-0.5 334,-30.5 492,-30.5 492,-0.5 334,-0.5"/>
<text text-anchor="start" x="342" y="-18.5" font-family="FreeSans.ttf" font-size="10.00">gpuNUFFT::GpuNUFFTOperator</text>
<text text-anchor="middle" x="413" y="-7.5" font-family="FreeSans.ttf" font-size="10.00">::setSens</text>
</a>
</g>
</g>
<!-- Node25&#45;&gt;Node26 -->
<g id="edge36" class="edge">
<title>Node25&#45;&gt;Node26</title>
<path fill="none" stroke="midnightblue" d="M261.37,-74.41C282.64,-65.86 309.78,-55 334,-45.5 343.42,-41.8 353.5,-37.9 363.18,-34.16"/>
<polygon fill="midnightblue" stroke="midnightblue" points="364.6,-37.36 372.68,-30.51 362.09,-30.83 364.6,-37.36"/>
</g>
</g>
</svg>
