<?xml version="1.0" encoding="UTF-8" standalone="no"?>
<!DOCTYPE svg PUBLIC "-//W3C//DTD SVG 1.1//EN"
 "http://www.w3.org/Graphics/SVG/1.1/DTD/svg11.dtd">
<!-- Generated by graphviz version 2.49.3 (20211027.1534)
 -->
<!-- Title: python/src/python_bindings.cpp Pages: 1 -->
<svg width="1138pt" height="543pt"
 viewBox="0.00 0.00 1137.50 543.00" xmlns="http://www.w3.org/2000/svg" xmlns:xlink="http://www.w3.org/1999/xlink">
<g id="graph0" class="graph" transform="scale(1 1) rotate(0) translate(4 539)">
<title>python/src/python_bindings.cpp</title>
<!-- Node1 -->
<g id="node1" class="node">
<title>Node1</title>
<g id="a_node1"><a xlink:title=" ">
<polygon fill="#bfbfbf" stroke="black" points="210,-515.5 210,-534.5 362,-534.5 362,-515.5 210,-515.5"/>
<text text-anchor="middle" x="286" y="-522.5" font-family="FreeSans.ttf" font-size="10.00">python/src/python_bindings.cpp</text>
</a>
</g>
</g>
<!-- Node2 -->
<g id="node2" class="node">
<title>Node2</title>
<g id="a_node2"><a xlink:title=" ">
<polygon fill="none" stroke="#bfbfbf" points="0,-403.5 0,-422.5 104,-422.5 104,-403.5 0,-403.5"/>
<text text-anchor="middle" x="52" y="-410.5" font-family="FreeSans.ttf" font-size="10.00">pybind11/pybind11.h</text>
</a>
</g>
</g>
<!-- Node1&#45;&gt;Node2 -->
<g id="edge1" class="edge">
<title>Node1&#45;&gt;Node2</title>
<path fill="none" stroke="midnightblue" d="M267.64,-515.37C226.71,-496.13 127.83,-449.65 79.51,-426.93"/>
<polygon fill="midnightblue" stroke="midnightblue" points="80.82,-423.68 70.28,-422.59 77.84,-430.01 80.82,-423.68"/>
</g>
<!-- Node3 -->
<g id="node3" class="node">
<title>Node3</title>
<g id="a_node3"><a xlink:title=" ">
<polygon fill="none" stroke="#bfbfbf" points="186,-403.5 186,-422.5 280,-422.5 280,-403.5 186,-403.5"/>
<text text-anchor="middle" x="233" y="-410.5" font-family="FreeSans.ttf" font-size="10.00">pybind11/numpy.h</text>
</a>
</g>
</g>
<!-- Node1&#45;&gt;Node3 -->
<g id="edge2" class="edge">
<title>Node1&#45;&gt;Node3</title>
<path fill="none" stroke="midnightblue" d="M267.61,-515.47C253.9,-508 236.19,-495.71 228,-479 220.85,-464.4 223.3,-445.73 226.82,-432.14"/>
<polygon fill="midnightblue" stroke="midnightblue" points="230.19,-433.1 229.72,-422.52 223.48,-431.08 230.19,-433.1"/>
</g>
<!-- Node4 -->
<g id="node4" class="node">
<title>Node4</title>
<g id="a_node4"><a xlink:title=" ">
<polygon fill="none" stroke="#bfbfbf" points="474.5,-403.5 474.5,-422.5 575.5,-422.5 575.5,-403.5 474.5,-403.5"/>
<text text-anchor="middle" x="525" y="-410.5" font-family="FreeSans.ttf" font-size="10.00">pybind11/complex.h</text>
</a>
</g>
</g>
<!-- Node1&#45;&gt;Node4 -->
<g id="edge3" class="edge">
<title>Node1&#45;&gt;Node4</title>
<path fill="none" stroke="midnightblue" d="M338.11,-515.45C370.97,-508.66 413.54,-497.2 448,-479 472.28,-466.18 495.73,-444.65 510.24,-429.91"/>
<polygon fill="midnightblue" stroke="midnightblue" points="512.93,-432.15 517.33,-422.51 507.88,-427.31 512.93,-432.15"/>
</g>
<!-- Node5 -->
<g id="node5" class="node">
<title>Node5</title>
<g id="a_node5"><a xlink:href="python__utils_8hpp.html" target="_top" xlink:title=" ">
<polygon fill="none" stroke="black" points="353,-459.5 353,-478.5 439,-478.5 439,-459.5 353,-459.5"/>
<text text-anchor="middle" x="396" y="-466.5" font-family="FreeSans.ttf" font-size="10.00">python_utils.hpp</text>
</a>
</g>
</g>
<!-- Node1&#45;&gt;Node5 -->
<g id="edge4" class="edge">
<title>Node1&#45;&gt;Node5</title>
<path fill="none" stroke="midnightblue" d="M303.67,-515.32C321.39,-506.62 348.9,-493.12 369.29,-483.11"/>
<polygon fill="midnightblue" stroke="midnightblue" points="370.94,-486.2 378.37,-478.65 367.85,-479.92 370.94,-486.2"/>
</g>
<!-- Node35 -->
<g id="node35" class="node">
<title>Node35</title>
<g id="a_node35"><a xlink:href="python__factory_8hpp.html" target="_top" xlink:title=" ">
<polygon fill="none" stroke="black" points="237,-459.5 237,-478.5 335,-478.5 335,-459.5 237,-459.5"/>
<text text-anchor="middle" x="286" y="-466.5" font-family="FreeSans.ttf" font-size="10.00">python_factory.hpp</text>
</a>
</g>
</g>
<!-- Node1&#45;&gt;Node35 -->
<g id="edge63" class="edge">
<title>Node1&#45;&gt;Node35</title>
<path fill="none" stroke="midnightblue" d="M286,-515.08C286,-508.01 286,-497.86 286,-488.99"/>
<polygon fill="midnightblue" stroke="midnightblue" points="289.5,-488.75 286,-478.75 282.5,-488.75 289.5,-488.75"/>
</g>
<!-- Node5&#45;&gt;Node2 -->
<g id="edge5" class="edge">
<title>Node5&#45;&gt;Node2</title>
<path fill="none" stroke="midnightblue" d="M352.88,-460.47C349.88,-459.97 346.89,-459.47 344,-459 264.69,-446.03 173.07,-432.08 113.93,-423.21"/>
<polygon fill="midnightblue" stroke="midnightblue" points="114.41,-419.74 104,-421.72 113.37,-426.66 114.41,-419.74"/>
</g>
<!-- Node5&#45;&gt;Node3 -->
<g id="edge6" class="edge">
<title>Node5&#45;&gt;Node3</title>
<path fill="none" stroke="midnightblue" d="M370.17,-459.44C342.75,-450.36 299.22,-435.94 268.57,-425.78"/>
<polygon fill="midnightblue" stroke="midnightblue" points="269.3,-422.34 258.71,-422.52 267.1,-428.98 269.3,-422.34"/>
</g>
<!-- Node5&#45;&gt;Node4 -->
<g id="edge7" class="edge">
<title>Node5&#45;&gt;Node4</title>
<path fill="none" stroke="midnightblue" d="M416.44,-459.44C437.67,-450.56 471.1,-436.56 495.25,-426.45"/>
<polygon fill="midnightblue" stroke="midnightblue" points="496.78,-429.61 504.66,-422.52 494.08,-423.15 496.78,-429.61"/>
</g>
<!-- Node6 -->
<g id="node6" class="node">
<title>Node6</title>
<g id="a_node6"><a xlink:title=" ">
<polygon fill="none" stroke="#bfbfbf" points="1084.5,-0.5 1084.5,-19.5 1129.5,-19.5 1129.5,-0.5 1084.5,-0.5"/>
<text text-anchor="middle" x="1107" y="-7.5" font-family="FreeSans.ttf" font-size="10.00">cuda.h</text>
</a>
</g>
</g>
<!-- Node5&#45;&gt;Node6 -->
<g id="edge8" class="edge">
<title>Node5&#45;&gt;Node6</title>
<path fill="none" stroke="midnightblue" d="M439.14,-465.58C593.18,-456.37 1107,-420.54 1107,-352.5 1107,-352.5 1107,-352.5 1107,-121 1107,-88.95 1107,-51.64 1107,-29.75"/>
<polygon fill="midnightblue" stroke="midnightblue" points="1110.5,-29.56 1107,-19.56 1103.5,-29.56 1110.5,-29.56"/>
</g>
<!-- Node7 -->
<g id="node7" class="node">
<title>Node7</title>
<g id="a_node7"><a xlink:title=" ">
<polygon fill="none" stroke="#bfbfbf" points="444,-0.5 444,-19.5 504,-19.5 504,-0.5 444,-0.5"/>
<text text-anchor="middle" x="474" y="-7.5" font-family="FreeSans.ttf" font-size="10.00">config.hpp</text>
</a>
</g>
</g>
<!-- Node5&#45;&gt;Node7 -->
<g id="edge9" class="edge">
<title>Node5&#45;&gt;Node7</title>
<path fill="none" stroke="midnightblue" d="M439.02,-466.84C479.81,-463.78 541.08,-453.86 584,-423 660.2,-368.22 670.11,-334.2 696,-244 727,-136 572.29,-53.89 504.52,-23.65"/>
<polygon fill="midnightblue" stroke="midnightblue" points="505.75,-20.36 495.18,-19.56 502.94,-26.78 505.75,-20.36"/>
</g>
<!-- Node8 -->
<g id="node8" class="node">
<title>Node8</title>
<g id="a_node8"><a xlink:href="gpuNUFFT__operator__factory_8hpp.html" target="_top" xlink:title=" ">
<polygon fill="none" stroke="black" points="298,-403.5 298,-422.5 456,-422.5 456,-403.5 298,-403.5"/>
<text text-anchor="middle" x="377" y="-410.5" font-family="FreeSans.ttf" font-size="10.00">gpuNUFFT_operator_factory.hpp</text>
</a>
</g>
</g>
<!-- Node5&#45;&gt;Node8 -->
<g id="edge10" class="edge">
<title>Node5&#45;&gt;Node8</title>
<path fill="none" stroke="midnightblue" d="M392.86,-459.08C390.32,-451.85 386.64,-441.41 383.47,-432.4"/>
<polygon fill="midnightblue" stroke="midnightblue" points="386.7,-431.02 380.08,-422.75 380.1,-433.35 386.7,-431.02"/>
</g>
<!-- Node8&#45;&gt;Node7 -->
<g id="edge11" class="edge">
<title>Node8&#45;&gt;Node7</title>
<path fill="none" stroke="midnightblue" d="M321.27,-403.47C261.47,-393.83 173.47,-378.04 162,-367 136.91,-342.86 143,-325.82 143,-291 143,-291 143,-291 143,-121 143,-60.41 345.26,-27.33 433.57,-15.78"/>
<polygon fill="midnightblue" stroke="midnightblue" points="434.27,-19.21 443.75,-14.47 433.39,-12.27 434.27,-19.21"/>
</g>
<!-- Node9 -->
<g id="node9" class="node">
<title>Node9</title>
<g id="a_node9"><a xlink:href="gpuNUFFT__operator_8hpp.html" target="_top" xlink:title=" ">
<polygon fill="none" stroke="black" points="563,-224.5 563,-243.5 687,-243.5 687,-224.5 563,-224.5"/>
<text text-anchor="middle" x="625" y="-231.5" font-family="FreeSans.ttf" font-size="10.00">gpuNUFFT_operator.hpp</text>
</a>
</g>
</g>
<!-- Node8&#45;&gt;Node9 -->
<g id="edge12" class="edge">
<title>Node8&#45;&gt;Node9</title>
<path fill="none" stroke="midnightblue" d="M430.48,-403.45C480.63,-394.8 551.44,-380.78 576,-367 612.18,-346.69 625.41,-338.45 641,-300 647.26,-284.55 641.48,-266.01 635.19,-252.69"/>
<polygon fill="midnightblue" stroke="midnightblue" points="638.21,-250.9 630.47,-243.66 632,-254.14 638.21,-250.9"/>
</g>
<!-- Node14 -->
<g id="node14" class="node">
<title>Node14</title>
<g id="a_node14"><a xlink:href="cuda__utils_8hpp.html" target="_top" xlink:title="Util functions for CUDA memory and texture management.">
<polygon fill="none" stroke="black" points="751.5,-112.5 751.5,-131.5 830.5,-131.5 830.5,-112.5 751.5,-112.5"/>
<text text-anchor="middle" x="791" y="-119.5" font-family="FreeSans.ttf" font-size="10.00">cuda_utils.hpp</text>
</a>
</g>
</g>
<!-- Node8&#45;&gt;Node14 -->
<g id="edge57" class="edge">
<title>Node8&#45;&gt;Node14</title>
<path fill="none" stroke="midnightblue" d="M454.24,-403.47C512.62,-395.89 587.01,-383.46 613,-367 703.83,-309.49 763.34,-187.59 783.44,-141.33"/>
<polygon fill="midnightblue" stroke="midnightblue" points="786.73,-142.53 787.42,-131.96 780.29,-139.8 786.73,-142.53"/>
</g>
<!-- Node20 -->
<g id="node20" class="node">
<title>Node20</title>
<g id="a_node20"><a xlink:title=" ">
<polygon fill="none" stroke="#bfbfbf" points="1022,-0.5 1022,-19.5 1066,-19.5 1066,-0.5 1022,-0.5"/>
<text text-anchor="middle" x="1044" y="-7.5" font-family="FreeSans.ttf" font-size="10.00">cmath</text>
</a>
</g>
</g>
<!-- Node8&#45;&gt;Node20 -->
<g id="edge56" class="edge">
<title>Node8&#45;&gt;Node20</title>
<path fill="none" stroke="midnightblue" d="M456.25,-403.71C566.49,-392.05 754.33,-371.73 769,-367 827.14,-348.26 839.5,-335.79 889,-300 966.18,-244.21 983.93,-219.29 1022,-132 1032.63,-107.63 1038.06,-102.12 1043,-76 1045.92,-60.56 1045.96,-42.69 1045.39,-29.6"/>
<polygon fill="midnightblue" stroke="midnightblue" points="1048.88,-29.28 1044.79,-19.51 1041.89,-29.7 1048.88,-29.28"/>
</g>
<!-- Node25 -->
<g id="node25" class="node">
<title>Node25</title>
<g id="a_node25"><a xlink:href="balanced__gpuNUFFT__operator_8hpp.html" target="_top" xlink:title=" ">
<polygon fill="none" stroke="black" points="464,-280.5 464,-299.5 632,-299.5 632,-280.5 464,-280.5"/>
<text text-anchor="middle" x="548" y="-287.5" font-family="FreeSans.ttf" font-size="10.00">balanced_gpuNUFFT_operator.hpp</text>
</a>
</g>
</g>
<!-- Node8&#45;&gt;Node25 -->
<g id="edge39" class="edge">
<title>Node8&#45;&gt;Node25</title>
<path fill="none" stroke="midnightblue" d="M447.66,-403.43C492.34,-396.39 544.19,-384.67 558,-367 570.9,-350.5 564.16,-325.58 557.06,-308.81"/>
<polygon fill="midnightblue" stroke="midnightblue" points="560.15,-307.17 552.76,-299.58 553.81,-310.12 560.15,-307.17"/>
</g>
<!-- Node27 -->
<g id="node27" class="node">
<title>Node27</title>
<g id="a_node27"><a xlink:href="texture__gpuNUFFT__operator_8hpp.html" target="_top" xlink:title=" ">
<polygon fill="none" stroke="black" points="195,-280.5 195,-299.5 353,-299.5 353,-280.5 195,-280.5"/>
<text text-anchor="middle" x="274" y="-287.5" font-family="FreeSans.ttf" font-size="10.00">texture_gpuNUFFT_operator.hpp</text>
</a>
</g>
</g>
<!-- Node8&#45;&gt;Node27 -->
<g id="edge44" class="edge">
<title>Node8&#45;&gt;Node27</title>
<path fill="none" stroke="midnightblue" d="M376.87,-403.03C376.2,-387.7 372.84,-356.17 357,-336 345.32,-321.13 327.32,-310.52 311.05,-303.36"/>
<polygon fill="midnightblue" stroke="midnightblue" points="312.32,-300.09 301.74,-299.53 309.66,-306.57 312.32,-300.09"/>
</g>
<!-- Node30 -->
<g id="node30" class="node">
<title>Node30</title>
<g id="a_node30"><a xlink:href="balanced__texture__gpuNUFFT__operator_8hpp.html" target="_top" xlink:title=" ">
<polygon fill="none" stroke="black" points="405,-336.5 405,-366.5 549,-366.5 549,-336.5 405,-336.5"/>
<text text-anchor="start" x="413" y="-354.5" font-family="FreeSans.ttf" font-size="10.00">balanced_texture_gpuNUFFT</text>
<text text-anchor="middle" x="477" y="-343.5" font-family="FreeSans.ttf" font-size="10.00">_operator.hpp</text>
</a>
</g>
</g>
<!-- Node8&#45;&gt;Node30 -->
<g id="edge49" class="edge">
<title>Node8&#45;&gt;Node30</title>
<path fill="none" stroke="midnightblue" d="M391.33,-403.48C405.12,-395.27 426.48,-382.56 444.42,-371.88"/>
<polygon fill="midnightblue" stroke="midnightblue" points="446.63,-374.64 453.43,-366.52 443.05,-368.63 446.63,-374.64"/>
</g>
<!-- Node31 -->
<g id="node31" class="node">
<title>Node31</title>
<g id="a_node31"><a xlink:title=" ">
<polygon fill="none" stroke="#bfbfbf" points="171,-342 171,-361 227,-361 227,-342 171,-342"/>
<text text-anchor="middle" x="199" y="-349" font-family="FreeSans.ttf" font-size="10.00">algorithm</text>
</a>
</g>
</g>
<!-- Node8&#45;&gt;Node31 -->
<g id="edge53" class="edge">
<title>Node8&#45;&gt;Node31</title>
<path fill="none" stroke="midnightblue" d="M348.46,-403.48C319.85,-394.81 274.62,-380.71 236,-367 233.89,-366.25 231.71,-365.46 229.53,-364.64"/>
<polygon fill="midnightblue" stroke="midnightblue" points="230.63,-361.32 220.04,-361.02 228.14,-367.86 230.63,-361.32"/>
</g>
<!-- Node32 -->
<g id="node32" class="node">
<title>Node32</title>
<g id="a_node32"><a xlink:title=" ">
<polygon fill="none" stroke="#bfbfbf" points="245,-342 245,-361 289,-361 289,-342 245,-342"/>
<text text-anchor="middle" x="267" y="-349" font-family="FreeSans.ttf" font-size="10.00">vector</text>
</a>
</g>
</g>
<!-- Node8&#45;&gt;Node32 -->
<g id="edge54" class="edge">
<title>Node8&#45;&gt;Node32</title>
<path fill="none" stroke="midnightblue" d="M361.24,-403.48C343.02,-393.62 312.83,-377.29 291.53,-365.77"/>
<polygon fill="midnightblue" stroke="midnightblue" points="293.19,-362.69 282.73,-361.01 289.86,-368.85 293.19,-362.69"/>
</g>
<!-- Node33 -->
<g id="node33" class="node">
<title>Node33</title>
<g id="a_node33"><a xlink:title=" ">
<polygon fill="none" stroke="#bfbfbf" points="307.5,-342 307.5,-361 348.5,-361 348.5,-342 307.5,-342"/>
<text text-anchor="middle" x="328" y="-349" font-family="FreeSans.ttf" font-size="10.00">string</text>
</a>
</g>
</g>
<!-- Node8&#45;&gt;Node33 -->
<g id="edge55" class="edge">
<title>Node8&#45;&gt;Node33</title>
<path fill="none" stroke="midnightblue" d="M369.98,-403.48C362.56,-394.46 350.67,-380.02 341.43,-368.81"/>
<polygon fill="midnightblue" stroke="midnightblue" points="344.07,-366.5 335.01,-361.01 338.66,-370.95 344.07,-366.5"/>
</g>
<!-- Node34 -->
<g id="node34" class="node">
<title>Node34</title>
<g id="a_node34"><a xlink:href="precomp__utils_8hpp.html" target="_top" xlink:title="UTIL functions for precomputation.">
<polygon fill="none" stroke="black" points="785.5,-280.5 785.5,-299.5 880.5,-299.5 880.5,-280.5 785.5,-280.5"/>
<text text-anchor="middle" x="833" y="-287.5" font-family="FreeSans.ttf" font-size="10.00">precomp_utils.hpp</text>
</a>
</g>
</g>
<!-- Node8&#45;&gt;Node34 -->
<g id="edge58" class="edge">
<title>Node8&#45;&gt;Node34</title>
<path fill="none" stroke="midnightblue" d="M452.43,-403.47C553.07,-391.95 720.17,-372.24 733,-367 750.8,-359.73 791.53,-326.41 815.15,-306.38"/>
<polygon fill="midnightblue" stroke="midnightblue" points="817.67,-308.83 823,-299.68 813.13,-303.51 817.67,-308.83"/>
</g>
<!-- Node9&#45;&gt;Node7 -->
<g id="edge35" class="edge">
<title>Node9&#45;&gt;Node7</title>
<path fill="none" stroke="midnightblue" d="M614.75,-224.49C604.96,-215.98 590.21,-202.16 580,-188 557.92,-157.36 561.03,-144.62 542,-112 524.16,-81.42 500.56,-47.63 486.37,-27.91"/>
<polygon fill="midnightblue" stroke="midnightblue" points="489.1,-25.71 480.4,-19.67 483.43,-29.82 489.1,-25.71"/>
</g>
<!-- Node10 -->
<g id="node10" class="node">
<title>Node10</title>
<g id="a_node10"><a xlink:href="gpuNUFFT__types_8hpp.html" target="_top" xlink:title="Definition of gpuNUFFT defined types.">
<polygon fill="none" stroke="black" points="345,-168.5 345,-187.5 457,-187.5 457,-168.5 345,-168.5"/>
<text text-anchor="middle" x="401" y="-175.5" font-family="FreeSans.ttf" font-size="10.00">gpuNUFFT_types.hpp</text>
</a>
</g>
</g>
<!-- Node9&#45;&gt;Node10 -->
<g id="edge13" class="edge">
<title>Node9&#45;&gt;Node10</title>
<path fill="none" stroke="midnightblue" d="M589.51,-224.44C550.68,-215.08 488.34,-200.06 446.08,-189.87"/>
<polygon fill="midnightblue" stroke="midnightblue" points="446.87,-186.46 436.33,-187.52 445.23,-193.26 446.87,-186.46"/>
</g>
<!-- Node11 -->
<g id="node11" class="node">
<title>Node11</title>
<g id="a_node11"><a xlink:title=" ">
<polygon fill="none" stroke="#bfbfbf" points="415.5,-112.5 415.5,-131.5 460.5,-131.5 460.5,-112.5 415.5,-112.5"/>
<text text-anchor="middle" x="438" y="-119.5" font-family="FreeSans.ttf" font-size="10.00">cstdlib</text>
</a>
</g>
</g>
<!-- Node9&#45;&gt;Node11 -->
<g id="edge36" class="edge">
<title>Node9&#45;&gt;Node11</title>
<path fill="none" stroke="midnightblue" d="M602.96,-224.37C582.68,-216.08 552.03,-202.69 527,-188 501.28,-172.91 473.9,-152.11 456.4,-138.14"/>
<polygon fill="midnightblue" stroke="midnightblue" points="458.19,-135.08 448.22,-131.52 453.79,-140.53 458.19,-135.08"/>
</g>
<!-- Node12 -->
<g id="node12" class="node">
<title>Node12</title>
<g id="a_node12"><a xlink:title=" ">
<polygon fill="none" stroke="#bfbfbf" points="479,-112.5 479,-131.5 533,-131.5 533,-112.5 479,-112.5"/>
<text text-anchor="middle" x="506" y="-119.5" font-family="FreeSans.ttf" font-size="10.00">iostream</text>
</a>
</g>
</g>
<!-- Node9&#45;&gt;Node12 -->
<g id="edge37" class="edge">
<title>Node9&#45;&gt;Node12</title>
<path fill="none" stroke="midnightblue" d="M604.31,-224.45C587.46,-216.74 563.79,-204.14 547,-188 532.91,-174.46 521.53,-155.14 514.36,-141.08"/>
<polygon fill="midnightblue" stroke="midnightblue" points="517.43,-139.4 509.91,-131.94 511.14,-142.46 517.43,-139.4"/>
</g>
<!-- Node13 -->
<g id="node13" class="node">
<title>Node13</title>
<g id="a_node13"><a xlink:href="gpuNUFFT__kernels_8hpp.html" target="_top" xlink:title="gpuNUFFT CUDA function prototypes">
<polygon fill="none" stroke="black" points="819,-168.5 819,-187.5 939,-187.5 939,-168.5 819,-168.5"/>
<text text-anchor="middle" x="879" y="-175.5" font-family="FreeSans.ttf" font-size="10.00">gpuNUFFT_kernels.hpp</text>
</a>
</g>
</g>
<!-- Node9&#45;&gt;Node13 -->
<g id="edge17" class="edge">
<title>Node9&#45;&gt;Node13</title>
<path fill="none" stroke="midnightblue" d="M665.25,-224.44C709.65,-215 781.15,-199.8 829.09,-189.61"/>
<polygon fill="midnightblue" stroke="midnightblue" points="829.89,-193.02 838.94,-187.52 828.43,-186.17 829.89,-193.02"/>
</g>
<!-- Node24 -->
<g id="node24" class="node">
<title>Node24</title>
<g id="a_node24"><a xlink:title=" ">
<polygon fill="none" stroke="#bfbfbf" points="589.5,-168.5 589.5,-187.5 648.5,-187.5 648.5,-168.5 589.5,-168.5"/>
<text text-anchor="middle" x="619" y="-175.5" font-family="FreeSans.ttf" font-size="10.00">functional</text>
</a>
</g>
</g>
<!-- Node9&#45;&gt;Node24 -->
<g id="edge38" class="edge">
<title>Node9&#45;&gt;Node24</title>
<path fill="none" stroke="midnightblue" d="M624.01,-224.08C623.21,-216.93 622.07,-206.64 621.08,-197.69"/>
<polygon fill="midnightblue" stroke="midnightblue" points="624.56,-197.3 619.97,-187.75 617.6,-198.08 624.56,-197.3"/>
</g>
<!-- Node10&#45;&gt;Node7 -->
<g id="edge16" class="edge">
<title>Node10&#45;&gt;Node7</title>
<path fill="none" stroke="midnightblue" d="M400.29,-168.3C399.56,-155.56 399.31,-131.24 406,-112 417.56,-78.76 442.85,-46.03 459.12,-27.21"/>
<polygon fill="midnightblue" stroke="midnightblue" points="461.86,-29.4 465.87,-19.59 456.62,-24.75 461.86,-29.4"/>
</g>
<!-- Node10&#45;&gt;Node11 -->
<g id="edge14" class="edge">
<title>Node10&#45;&gt;Node11</title>
<path fill="none" stroke="midnightblue" d="M407.11,-168.08C412.28,-160.53 419.85,-149.49 426.19,-140.23"/>
<polygon fill="midnightblue" stroke="midnightblue" points="429.24,-141.98 432,-131.75 423.46,-138.02 429.24,-141.98"/>
</g>
<!-- Node10&#45;&gt;Node12 -->
<g id="edge15" class="edge">
<title>Node10&#45;&gt;Node12</title>
<path fill="none" stroke="midnightblue" d="M417.87,-168.32C434.71,-159.66 460.81,-146.24 480.24,-136.25"/>
<polygon fill="midnightblue" stroke="midnightblue" points="481.88,-139.34 489.17,-131.65 478.68,-133.12 481.88,-139.34"/>
</g>
<!-- Node13&#45;&gt;Node14 -->
<g id="edge18" class="edge">
<title>Node13&#45;&gt;Node14</title>
<path fill="none" stroke="midnightblue" d="M864.86,-168.32C851.13,-159.9 830.06,-146.97 813.94,-137.07"/>
<polygon fill="midnightblue" stroke="midnightblue" points="815.46,-133.9 805.1,-131.65 811.8,-139.87 815.46,-133.9"/>
</g>
<!-- Node18 -->
<g id="node18" class="node">
<title>Node18</title>
<g id="a_node18"><a xlink:href="gpuNUFFT__utils_8hpp.html" target="_top" xlink:title="Definition of util functions used in gridding operations.">
<polygon fill="none" stroke="black" points="857.5,-56.5 857.5,-75.5 964.5,-75.5 964.5,-56.5 857.5,-56.5"/>
<text text-anchor="middle" x="911" y="-63.5" font-family="FreeSans.ttf" font-size="10.00">gpuNUFFT_utils.hpp</text>
</a>
</g>
</g>
<!-- Node13&#45;&gt;Node18 -->
<g id="edge34" class="edge">
<title>Node13&#45;&gt;Node18</title>
<path fill="none" stroke="midnightblue" d="M881.51,-168.37C886.7,-150.54 898.7,-109.3 905.68,-85.27"/>
<polygon fill="midnightblue" stroke="midnightblue" points="909.07,-86.17 908.5,-75.59 902.35,-84.22 909.07,-86.17"/>
</g>
<!-- Node14&#45;&gt;Node6 -->
<g id="edge19" class="edge">
<title>Node14&#45;&gt;Node6</title>
<path fill="none" stroke="midnightblue" d="M830.63,-113.8C868.19,-106.39 925.86,-93.45 974,-76 1013.59,-61.64 1057,-39.03 1083.11,-24.62"/>
<polygon fill="midnightblue" stroke="midnightblue" points="1084.88,-27.64 1091.91,-19.71 1081.47,-21.52 1084.88,-27.64"/>
</g>
<!-- Node14&#45;&gt;Node9 -->
<g id="edge32" class="edge">
<title>Node14&#45;&gt;Node9</title>
<path fill="none" stroke="midnightblue" d="M778.03,-131.59C749.61,-150.43 681.54,-195.53 646.56,-218.71"/>
<polygon fill="midnightblue" stroke="midnightblue" points="644.43,-215.93 638.03,-224.37 648.3,-221.76 644.43,-215.93"/>
</g>
<!-- Node15 -->
<g id="node15" class="node">
<title>Node15</title>
<g id="a_node15"><a xlink:title=" ">
<polygon fill="none" stroke="#bfbfbf" points="721.5,-0.5 721.5,-19.5 804.5,-19.5 804.5,-0.5 721.5,-0.5"/>
<text text-anchor="middle" x="763" y="-7.5" font-family="FreeSans.ttf" font-size="10.00">cuda_runtime.h</text>
</a>
</g>
</g>
<!-- Node14&#45;&gt;Node15 -->
<g id="edge20" class="edge">
<title>Node14&#45;&gt;Node15</title>
<path fill="none" stroke="midnightblue" d="M795.98,-112.33C802.6,-99.61 812.62,-75.33 805,-56 800.49,-44.55 791.53,-34.29 783.05,-26.47"/>
<polygon fill="midnightblue" stroke="midnightblue" points="785.09,-23.61 775.21,-19.76 780.53,-28.93 785.09,-23.61"/>
</g>
<!-- Node16 -->
<g id="node16" class="node">
<title>Node16</title>
<g id="a_node16"><a xlink:title=" ">
<polygon fill="none" stroke="#bfbfbf" points="658.5,-0.5 658.5,-19.5 703.5,-19.5 703.5,-0.5 658.5,-0.5"/>
<text text-anchor="middle" x="681" y="-7.5" font-family="FreeSans.ttf" font-size="10.00">stdio.h</text>
</a>
</g>
</g>
<!-- Node14&#45;&gt;Node16 -->
<g id="edge21" class="edge">
<title>Node14&#45;&gt;Node16</title>
<path fill="none" stroke="midnightblue" d="M790.48,-112.4C789.23,-98.9 785.04,-72.58 771,-56 762.8,-46.32 734.93,-33.14 712.35,-23.54"/>
<polygon fill="midnightblue" stroke="midnightblue" points="713.65,-20.29 703.07,-19.67 710.96,-26.75 713.65,-20.29"/>
</g>
<!-- Node17 -->
<g id="node17" class="node">
<title>Node17</title>
<g id="a_node17"><a xlink:title=" ">
<polygon fill="none" stroke="#bfbfbf" points="719.5,-56.5 719.5,-75.5 762.5,-75.5 762.5,-56.5 719.5,-56.5"/>
<text text-anchor="middle" x="741" y="-63.5" font-family="FreeSans.ttf" font-size="10.00">cufft.h</text>
</a>
</g>
</g>
<!-- Node14&#45;&gt;Node17 -->
<g id="edge22" class="edge">
<title>Node14&#45;&gt;Node17</title>
<path fill="none" stroke="midnightblue" d="M782.74,-112.08C775.54,-104.3 764.89,-92.8 756.15,-83.37"/>
<polygon fill="midnightblue" stroke="midnightblue" points="758.47,-80.71 749.1,-75.75 753.33,-85.47 758.47,-80.71"/>
</g>
<!-- Node14&#45;&gt;Node18 -->
<g id="edge23" class="edge">
<title>Node14&#45;&gt;Node18</title>
<path fill="none" stroke="midnightblue" d="M810.01,-112.44C829.59,-103.64 860.31,-89.81 882.73,-79.72"/>
<polygon fill="midnightblue" stroke="midnightblue" points="884.39,-82.81 892.07,-75.52 881.52,-76.43 884.39,-82.81"/>
</g>
<!-- Node23 -->
<g id="node23" class="node">
<title>Node23</title>
<g id="a_node23"><a xlink:title=" ">
<polygon fill="none" stroke="#bfbfbf" points="650.5,-56.5 650.5,-75.5 701.5,-75.5 701.5,-56.5 650.5,-56.5"/>
<text text-anchor="middle" x="676" y="-63.5" font-family="FreeSans.ttf" font-size="10.00">stdarg.h</text>
</a>
</g>
</g>
<!-- Node14&#45;&gt;Node23 -->
<g id="edge33" class="edge">
<title>Node14&#45;&gt;Node23</title>
<path fill="none" stroke="midnightblue" d="M772.78,-112.44C754.1,-103.68 724.84,-89.94 703.38,-79.86"/>
<polygon fill="midnightblue" stroke="midnightblue" points="704.68,-76.6 694.14,-75.52 701.7,-82.93 704.68,-76.6"/>
</g>
<!-- Node18&#45;&gt;Node6 -->
<g id="edge26" class="edge">
<title>Node18&#45;&gt;Node6</title>
<path fill="none" stroke="midnightblue" d="M942.46,-56.43C973.55,-47.95 1022.72,-34.5 1074.57,-20.11"/>
<polygon fill="midnightblue" stroke="midnightblue" points="1075.58,-23.46 1084.28,-17.41 1073.71,-16.71 1075.58,-23.46"/>
</g>
<!-- Node18&#45;&gt;Node7 -->
<g id="edge28" class="edge">
<title>Node18&#45;&gt;Node7</title>
<path fill="none" stroke="midnightblue" d="M857.42,-58.38C768.64,-47.41 593.03,-25.71 514.09,-15.95"/>
<polygon fill="midnightblue" stroke="midnightblue" points="514.41,-12.47 504.06,-14.71 513.55,-19.41 514.41,-12.47"/>
</g>
<!-- Node18&#45;&gt;Node15 -->
<g id="edge27" class="edge">
<title>Node18&#45;&gt;Node15</title>
<path fill="none" stroke="midnightblue" d="M887.55,-56.44C862.87,-47.44 823.81,-33.19 796.02,-23.05"/>
<polygon fill="midnightblue" stroke="midnightblue" points="796.94,-19.66 786.34,-19.52 794.54,-26.23 796.94,-19.66"/>
</g>
<!-- Node18&#45;&gt;Node16 -->
<g id="edge25" class="edge">
<title>Node18&#45;&gt;Node16</title>
<path fill="none" stroke="midnightblue" d="M870.05,-56.49C831.82,-48.38 772.98,-35.48 713.57,-20.3"/>
<polygon fill="midnightblue" stroke="midnightblue" points="714.2,-16.85 703.64,-17.74 712.45,-23.63 714.2,-16.85"/>
</g>
<!-- Node19 -->
<g id="node19" class="node">
<title>Node19</title>
<g id="a_node19"><a xlink:title=" ">
<polygon fill="none" stroke="#bfbfbf" points="822.5,-0.5 822.5,-19.5 869.5,-19.5 869.5,-0.5 822.5,-0.5"/>
<text text-anchor="middle" x="846" y="-7.5" font-family="FreeSans.ttf" font-size="10.00">stdlib.h</text>
</a>
</g>
</g>
<!-- Node18&#45;&gt;Node19 -->
<g id="edge24" class="edge">
<title>Node18&#45;&gt;Node19</title>
<path fill="none" stroke="midnightblue" d="M900.56,-56.32C890.85,-48.26 876.18,-36.08 864.5,-26.37"/>
<polygon fill="midnightblue" stroke="midnightblue" points="866.56,-23.53 856.63,-19.83 862.09,-28.92 866.56,-23.53"/>
</g>
<!-- Node18&#45;&gt;Node20 -->
<g id="edge29" class="edge">
<title>Node18&#45;&gt;Node20</title>
<path fill="none" stroke="midnightblue" d="M932.07,-56.44C954.06,-47.52 988.73,-33.44 1013.66,-23.32"/>
<polygon fill="midnightblue" stroke="midnightblue" points="1015.08,-26.52 1023.02,-19.52 1012.44,-20.04 1015.08,-26.52"/>
</g>
<!-- Node21 -->
<g id="node21" class="node">
<title>Node21</title>
<g id="a_node21"><a xlink:title=" ">
<polygon fill="none" stroke="#bfbfbf" points="888,-0.5 888,-19.5 934,-19.5 934,-0.5 888,-0.5"/>
<text text-anchor="middle" x="911" y="-7.5" font-family="FreeSans.ttf" font-size="10.00">math.h</text>
</a>
</g>
</g>
<!-- Node18&#45;&gt;Node21 -->
<g id="edge30" class="edge">
<title>Node18&#45;&gt;Node21</title>
<path fill="none" stroke="midnightblue" d="M911,-56.08C911,-49.01 911,-38.86 911,-29.99"/>
<polygon fill="midnightblue" stroke="midnightblue" points="914.5,-29.75 911,-19.75 907.5,-29.75 914.5,-29.75"/>
</g>
<!-- Node22 -->
<g id="node22" class="node">
<title>Node22</title>
<g id="a_node22"><a xlink:title=" ">
<polygon fill="none" stroke="#bfbfbf" points="952.5,-0.5 952.5,-19.5 1003.5,-19.5 1003.5,-0.5 952.5,-0.5"/>
<text text-anchor="middle" x="978" y="-7.5" font-family="FreeSans.ttf" font-size="10.00">assert.h</text>
</a>
</g>
</g>
<!-- Node18&#45;&gt;Node22 -->
<g id="edge31" class="edge">
<title>Node18&#45;&gt;Node22</title>
<path fill="none" stroke="midnightblue" d="M921.76,-56.32C931.77,-48.26 946.89,-36.08 958.93,-26.37"/>
<polygon fill="midnightblue" stroke="midnightblue" points="961.45,-28.83 967.04,-19.83 957.06,-23.38 961.45,-28.83"/>
</g>
<!-- Node25&#45;&gt;Node9 -->
<g id="edge41" class="edge">
<title>Node25&#45;&gt;Node9</title>
<path fill="none" stroke="midnightblue" d="M560.37,-280.32C572.16,-272.06 590.13,-259.45 604.14,-249.63"/>
<polygon fill="midnightblue" stroke="midnightblue" points="606.48,-252.26 612.66,-243.65 602.46,-246.53 606.48,-252.26"/>
</g>
<!-- Node25&#45;&gt;Node10 -->
<g id="edge40" class="edge">
<title>Node25&#45;&gt;Node10</title>
<path fill="none" stroke="midnightblue" d="M545.87,-280.18C542.12,-266.39 533.04,-239.66 516,-224 498.48,-207.9 474.53,-197.3 453.02,-190.46"/>
<polygon fill="midnightblue" stroke="midnightblue" points="453.93,-187.08 443.34,-187.57 451.93,-193.78 453.93,-187.08"/>
</g>
<!-- Node26 -->
<g id="node26" class="node">
<title>Node26</title>
<g id="a_node26"><a xlink:href="balanced__operator_8hpp.html" target="_top" xlink:title=" ">
<polygon fill="none" stroke="black" points="393,-224.5 393,-243.5 507,-243.5 507,-224.5 393,-224.5"/>
<text text-anchor="middle" x="450" y="-231.5" font-family="FreeSans.ttf" font-size="10.00">balanced_operator.hpp</text>
</a>
</g>
</g>
<!-- Node25&#45;&gt;Node26 -->
<g id="edge42" class="edge">
<title>Node25&#45;&gt;Node26</title>
<path fill="none" stroke="midnightblue" d="M532.25,-280.32C516.68,-271.74 492.62,-258.49 474.54,-248.52"/>
<polygon fill="midnightblue" stroke="midnightblue" points="476.15,-245.42 465.71,-243.65 472.78,-251.55 476.15,-245.42"/>
</g>
<!-- Node26&#45;&gt;Node10 -->
<g id="edge43" class="edge">
<title>Node26&#45;&gt;Node10</title>
<path fill="none" stroke="midnightblue" d="M441.91,-224.08C434.84,-216.3 424.41,-204.8 415.85,-195.37"/>
<polygon fill="midnightblue" stroke="midnightblue" points="418.25,-192.8 408.94,-187.75 413.07,-197.51 418.25,-192.8"/>
</g>
<!-- Node27&#45;&gt;Node9 -->
<g id="edge48" class="edge">
<title>Node27&#45;&gt;Node9</title>
<path fill="none" stroke="midnightblue" d="M329.62,-280.44C392.13,-270.83 493.52,-255.23 559.73,-245.04"/>
<polygon fill="midnightblue" stroke="midnightblue" points="560.29,-248.5 569.64,-243.52 559.23,-241.58 560.29,-248.5"/>
</g>
<!-- Node27&#45;&gt;Node10 -->
<g id="edge47" class="edge">
<title>Node27&#45;&gt;Node10</title>
<path fill="none" stroke="midnightblue" d="M283.97,-280.37C305.39,-261.81 356.07,-217.91 383.18,-194.44"/>
<polygon fill="midnightblue" stroke="midnightblue" points="385.81,-196.78 391.08,-187.59 381.23,-191.49 385.81,-196.78"/>
</g>
<!-- Node28 -->
<g id="node28" class="node">
<title>Node28</title>
<g id="a_node28"><a xlink:title=" ">
<polygon fill="none" stroke="#bfbfbf" points="249,-224.5 249,-243.5 299,-243.5 299,-224.5 249,-224.5"/>
<text text-anchor="middle" x="274" y="-231.5" font-family="FreeSans.ttf" font-size="10.00">typeinfo</text>
</a>
</g>
</g>
<!-- Node27&#45;&gt;Node28 -->
<g id="edge45" class="edge">
<title>Node27&#45;&gt;Node28</title>
<path fill="none" stroke="midnightblue" d="M274,-280.08C274,-273.01 274,-262.86 274,-253.99"/>
<polygon fill="midnightblue" stroke="midnightblue" points="277.5,-253.75 274,-243.75 270.5,-253.75 277.5,-253.75"/>
</g>
<!-- Node29 -->
<g id="node29" class="node">
<title>Node29</title>
<g id="a_node29"><a xlink:title=" ">
<polygon fill="none" stroke="#bfbfbf" points="171.5,-224.5 171.5,-243.5 230.5,-243.5 230.5,-224.5 171.5,-224.5"/>
<text text-anchor="middle" x="201" y="-231.5" font-family="FreeSans.ttf" font-size="10.00">stdexcept</text>
</a>
</g>
</g>
<!-- Node27&#45;&gt;Node29 -->
<g id="edge46" class="edge">
<title>Node27&#45;&gt;Node29</title>
<path fill="none" stroke="midnightblue" d="M262.27,-280.32C251.16,-272.11 234.26,-259.6 221.02,-249.81"/>
<polygon fill="midnightblue" stroke="midnightblue" points="223.06,-246.97 212.94,-243.83 218.9,-252.59 223.06,-246.97"/>
</g>
<!-- Node30&#45;&gt;Node10 -->
<g id="edge50" class="edge">
<title>Node30&#45;&gt;Node10</title>
<path fill="none" stroke="midnightblue" d="M458.32,-336.39C435.71,-318.02 398.83,-283.53 384,-244 378.12,-228.34 384.17,-209.82 390.62,-196.56"/>
<polygon fill="midnightblue" stroke="midnightblue" points="393.79,-198.05 395.44,-187.59 387.63,-194.74 393.79,-198.05"/>
</g>
<!-- Node30&#45;&gt;Node26 -->
<g id="edge52" class="edge">
<title>Node30&#45;&gt;Node26</title>
<path fill="none" stroke="midnightblue" d="M469.32,-336.37C464.33,-326.48 458.19,-312.81 455,-300 451.2,-284.71 450.05,-266.83 449.8,-253.69"/>
<polygon fill="midnightblue" stroke="midnightblue" points="453.3,-253.54 449.76,-243.56 446.3,-253.57 453.3,-253.54"/>
</g>
<!-- Node30&#45;&gt;Node27 -->
<g id="edge51" class="edge">
<title>Node30&#45;&gt;Node27</title>
<path fill="none" stroke="midnightblue" d="M429.15,-336.47C393.67,-326.08 345.91,-312.08 312.8,-302.37"/>
<polygon fill="midnightblue" stroke="midnightblue" points="313.6,-298.96 303.02,-299.51 311.63,-305.68 313.6,-298.96"/>
</g>
<!-- Node34&#45;&gt;Node9 -->
<g id="edge60" class="edge">
<title>Node34&#45;&gt;Node9</title>
<path fill="none" stroke="midnightblue" d="M800.04,-280.44C764.21,-271.14 706.84,-256.25 667.61,-246.06"/>
<polygon fill="midnightblue" stroke="midnightblue" points="668.36,-242.64 657.8,-243.52 666.6,-249.42 668.36,-242.64"/>
</g>
<!-- Node34&#45;&gt;Node14 -->
<g id="edge59" class="edge">
<title>Node34&#45;&gt;Node14</title>
<path fill="none" stroke="midnightblue" d="M830.74,-280.08C824.13,-253.95 804.72,-177.21 795.7,-141.58"/>
<polygon fill="midnightblue" stroke="midnightblue" points="799.01,-140.4 793.17,-131.57 792.23,-142.12 799.01,-140.4"/>
</g>
<!-- Node34&#45;&gt;Node18 -->
<g id="edge61" class="edge">
<title>Node34&#45;&gt;Node18</title>
<path fill="none" stroke="midnightblue" d="M849.95,-280.34C876.7,-265.59 927.73,-232.78 948,-188 964.07,-152.49 940.09,-108.07 923.85,-84.16"/>
<polygon fill="midnightblue" stroke="midnightblue" points="926.55,-81.91 917.91,-75.79 920.85,-85.97 926.55,-81.91"/>
</g>
<!-- Node34&#45;&gt;Node20 -->
<g id="edge62" class="edge">
<title>Node34&#45;&gt;Node20</title>
<path fill="none" stroke="midnightblue" d="M860.37,-280.37C880.45,-273.05 907.49,-261 927,-244 996.07,-183.82 1029.06,-73.17 1039.84,-29.46"/>
<polygon fill="midnightblue" stroke="midnightblue" points="1043.27,-30.18 1042.16,-19.65 1036.46,-28.57 1043.27,-30.18"/>
</g>
<!-- Node35&#45;&gt;Node2 -->
<g id="edge64" class="edge">
<title>Node35&#45;&gt;Node2</title>
<path fill="none" stroke="midnightblue" d="M248.92,-459.44C208.27,-450.06 142.97,-434.99 98.82,-424.8"/>
<polygon fill="midnightblue" stroke="midnightblue" points="99.44,-421.35 88.9,-422.52 97.86,-428.18 99.44,-421.35"/>
</g>
<!-- Node35&#45;&gt;Node3 -->
<g id="edge65" class="edge">
<title>Node35&#45;&gt;Node3</title>
<path fill="none" stroke="midnightblue" d="M277.25,-459.08C269.53,-451.22 258.1,-439.57 248.78,-430.08"/>
<polygon fill="midnightblue" stroke="midnightblue" points="251.09,-427.44 241.59,-422.75 246.1,-432.34 251.09,-427.44"/>
</g>
<!-- Node35&#45;&gt;Node4 -->
<g id="edge66" class="edge">
<title>Node35&#45;&gt;Node4</title>
<path fill="none" stroke="midnightblue" d="M323.87,-459.44C365.48,-450.04 432.37,-434.93 477.47,-424.74"/>
<polygon fill="midnightblue" stroke="midnightblue" points="478.32,-428.13 487.31,-422.52 476.78,-421.31 478.32,-428.13"/>
</g>
<!-- Node35&#45;&gt;Node7 -->
<g id="edge67" class="edge">
<title>Node35&#45;&gt;Node7</title>
<path fill="none" stroke="midnightblue" d="M251.27,-459.43C228.34,-452.47 198.65,-440.84 177,-423 125.43,-380.5 105,-357.83 105,-291 105,-291 105,-291 105,-121 105,-74.15 145.03,-74.69 188,-56 270.23,-20.24 376.74,-12.47 433.76,-11.04"/>
<polygon fill="midnightblue" stroke="midnightblue" points="433.88,-14.54 443.81,-10.84 433.75,-7.54 433.88,-14.54"/>
</g>
<!-- Node35&#45;&gt;Node8 -->
<g id="edge68" class="edge">
<title>Node35&#45;&gt;Node8</title>
<path fill="none" stroke="midnightblue" d="M300.62,-459.32C314.95,-450.82 337.01,-437.73 353.75,-427.8"/>
<polygon fill="midnightblue" stroke="midnightblue" points="355.6,-430.77 362.42,-422.65 352.03,-424.75 355.6,-430.77"/>
</g>
</g>
</svg>
