<?xml version="1.0" encoding="UTF-8" standalone="no"?>
<!DOCTYPE svg PUBLIC "-//W3C//DTD SVG 1.1//EN"
 "http://www.w3.org/Graphics/SVG/1.1/DTD/svg11.dtd">
<!-- Generated by graphviz version 2.49.3 (20211027.1534)
 -->
<!-- Title: python/inc/python_utils.hpp Pages: 1 -->
<svg width="1259pt" height="487pt"
 viewBox="0.00 0.00 1259.00 487.00" xmlns="http://www.w3.org/2000/svg" xmlns:xlink="http://www.w3.org/1999/xlink">
<g id="graph0" class="graph" transform="scale(1 1) rotate(0) translate(4 483)">
<title>python/inc/python_utils.hpp</title>
<!-- Node1 -->
<g id="node1" class="node">
<title>Node1</title>
<g id="a_node1"><a xlink:title=" ">
<polygon fill="#bfbfbf" stroke="black" points="257,-459.5 257,-478.5 391,-478.5 391,-459.5 257,-459.5"/>
<text text-anchor="middle" x="324" y="-466.5" font-family="FreeSans.ttf" font-size="10.00">python/inc/python_utils.hpp</text>
</a>
</g>
</g>
<!-- Node2 -->
<g id="node2" class="node">
<title>Node2</title>
<g id="a_node2"><a xlink:title=" ">
<polygon fill="none" stroke="#bfbfbf" points="0,-403.5 0,-422.5 104,-422.5 104,-403.5 0,-403.5"/>
<text text-anchor="middle" x="52" y="-410.5" font-family="FreeSans.ttf" font-size="10.00">pybind11/pybind11.h</text>
</a>
</g>
</g>
<!-- Node1&#45;&gt;Node2 -->
<g id="edge1" class="edge">
<title>Node1&#45;&gt;Node2</title>
<path fill="none" stroke="midnightblue" d="M280.9,-459.44C233.15,-449.96 156.14,-434.67 104.81,-424.48"/>
<polygon fill="midnightblue" stroke="midnightblue" points="105.39,-421.03 94.9,-422.52 104.02,-427.9 105.39,-421.03"/>
</g>
<!-- Node3 -->
<g id="node3" class="node">
<title>Node3</title>
<g id="a_node3"><a xlink:title=" ">
<polygon fill="none" stroke="#bfbfbf" points="122,-403.5 122,-422.5 216,-422.5 216,-403.5 122,-403.5"/>
<text text-anchor="middle" x="169" y="-410.5" font-family="FreeSans.ttf" font-size="10.00">pybind11/numpy.h</text>
</a>
</g>
</g>
<!-- Node1&#45;&gt;Node3 -->
<g id="edge2" class="edge">
<title>Node1&#45;&gt;Node3</title>
<path fill="none" stroke="midnightblue" d="M299.44,-459.44C273.48,-450.4 232.33,-436.06 203.2,-425.92"/>
<polygon fill="midnightblue" stroke="midnightblue" points="204.04,-422.5 193.45,-422.52 201.74,-429.11 204.04,-422.5"/>
</g>
<!-- Node4 -->
<g id="node4" class="node">
<title>Node4</title>
<g id="a_node4"><a xlink:title=" ">
<polygon fill="none" stroke="#bfbfbf" points="234.5,-403.5 234.5,-422.5 335.5,-422.5 335.5,-403.5 234.5,-403.5"/>
<text text-anchor="middle" x="285" y="-410.5" font-family="FreeSans.ttf" font-size="10.00">pybind11/complex.h</text>
</a>
</g>
</g>
<!-- Node1&#45;&gt;Node4 -->
<g id="edge3" class="edge">
<title>Node1&#45;&gt;Node4</title>
<path fill="none" stroke="midnightblue" d="M317.56,-459.08C312.05,-451.46 303.97,-440.26 297.24,-430.94"/>
<polygon fill="midnightblue" stroke="midnightblue" points="300.01,-428.81 291.32,-422.75 294.34,-432.91 300.01,-428.81"/>
</g>
<!-- Node5 -->
<g id="node5" class="node">
<title>Node5</title>
<g id="a_node5"><a xlink:title=" ">
<polygon fill="none" stroke="#bfbfbf" points="458.5,-0.5 458.5,-19.5 503.5,-19.5 503.5,-0.5 458.5,-0.5"/>
<text text-anchor="middle" x="481" y="-7.5" font-family="FreeSans.ttf" font-size="10.00">cuda.h</text>
</a>
</g>
</g>
<!-- Node1&#45;&gt;Node5 -->
<g id="edge4" class="edge">
<title>Node1&#45;&gt;Node5</title>
<path fill="none" stroke="midnightblue" d="M329.23,-459.37C340.07,-440.63 364,-394.52 364,-352.5 364,-352.5 364,-352.5 364,-121 364,-73.6 415.6,-40.64 450.27,-23.85"/>
<polygon fill="midnightblue" stroke="midnightblue" points="451.95,-26.93 459.54,-19.54 449,-20.58 451.95,-26.93"/>
</g>
<!-- Node6 -->
<g id="node6" class="node">
<title>Node6</title>
<g id="a_node6"><a xlink:title=" ">
<polygon fill="none" stroke="#bfbfbf" points="976,-0.5 976,-19.5 1036,-19.5 1036,-0.5 976,-0.5"/>
<text text-anchor="middle" x="1006" y="-7.5" font-family="FreeSans.ttf" font-size="10.00">config.hpp</text>
</a>
</g>
</g>
<!-- Node1&#45;&gt;Node6 -->
<g id="edge5" class="edge">
<title>Node1&#45;&gt;Node6</title>
<path fill="none" stroke="midnightblue" d="M391.04,-466.69C603.98,-461.65 1251,-439.22 1251,-352.5 1251,-352.5 1251,-352.5 1251,-121 1251,-32.3 1115.71,-14.69 1046.2,-11.49"/>
<polygon fill="midnightblue" stroke="midnightblue" points="1046.17,-7.98 1036.04,-11.1 1045.9,-14.98 1046.17,-7.98"/>
</g>
<!-- Node7 -->
<g id="node7" class="node">
<title>Node7</title>
<g id="a_node7"><a xlink:href="gpuNUFFT__operator__factory_8hpp.html" target="_top" xlink:title=" ">
<polygon fill="none" stroke="black" points="740,-403.5 740,-422.5 898,-422.5 898,-403.5 740,-403.5"/>
<text text-anchor="middle" x="819" y="-410.5" font-family="FreeSans.ttf" font-size="10.00">gpuNUFFT_operator_factory.hpp</text>
</a>
</g>
</g>
<!-- Node1&#45;&gt;Node7 -->
<g id="edge6" class="edge">
<title>Node1&#45;&gt;Node7</title>
<path fill="none" stroke="midnightblue" d="M391.02,-460.69C478.89,-451.1 633.3,-434.26 730.65,-423.64"/>
<polygon fill="midnightblue" stroke="midnightblue" points="731.21,-427.1 740.77,-422.53 730.45,-420.14 731.21,-427.1"/>
</g>
<!-- Node7&#45;&gt;Node6 -->
<g id="edge7" class="edge">
<title>Node7&#45;&gt;Node6</title>
<path fill="none" stroke="midnightblue" d="M898.37,-411.55C992.17,-409.46 1140.96,-400.71 1184,-367 1212.46,-344.71 1213,-327.15 1213,-291 1213,-291 1213,-291 1213,-121 1213,-46.17 1106.22,-22.09 1046.05,-14.46"/>
<polygon fill="midnightblue" stroke="midnightblue" points="1046.44,-10.98 1036.1,-13.29 1045.62,-17.93 1046.44,-10.98"/>
</g>
<!-- Node8 -->
<g id="node8" class="node">
<title>Node8</title>
<g id="a_node8"><a xlink:href="gpuNUFFT__operator_8hpp.html" target="_top" xlink:title=" ">
<polygon fill="none" stroke="black" points="669,-224.5 669,-243.5 793,-243.5 793,-224.5 669,-224.5"/>
<text text-anchor="middle" x="731" y="-231.5" font-family="FreeSans.ttf" font-size="10.00">gpuNUFFT_operator.hpp</text>
</a>
</g>
</g>
<!-- Node7&#45;&gt;Node8 -->
<g id="edge8" class="edge">
<title>Node7&#45;&gt;Node8</title>
<path fill="none" stroke="midnightblue" d="M809.89,-403.44C801.24,-394.9 788.34,-381.05 780,-367 757.73,-329.48 742.69,-280.11 735.63,-253.65"/>
<polygon fill="midnightblue" stroke="midnightblue" points="738.98,-252.63 733.09,-243.82 732.2,-254.38 738.98,-252.63"/>
</g>
<!-- Node17 -->
<g id="node17" class="node">
<title>Node17</title>
<g id="a_node17"><a xlink:title=" ">
<polygon fill="none" stroke="#bfbfbf" points="396,-0.5 396,-19.5 440,-19.5 440,-0.5 396,-0.5"/>
<text text-anchor="middle" x="418" y="-7.5" font-family="FreeSans.ttf" font-size="10.00">cmath</text>
</a>
</g>
</g>
<!-- Node7&#45;&gt;Node17 -->
<g id="edge52" class="edge">
<title>Node7&#45;&gt;Node17</title>
<path fill="none" stroke="midnightblue" d="M743.67,-403.45C633.14,-388.78 440,-354.11 440,-291 440,-291 440,-291 440,-121 440,-88.33 430.55,-51.24 424.04,-29.55"/>
<polygon fill="midnightblue" stroke="midnightblue" points="427.29,-28.22 420.97,-19.72 420.61,-30.31 427.29,-28.22"/>
</g>
<!-- Node20 -->
<g id="node20" class="node">
<title>Node20</title>
<g id="a_node20"><a xlink:href="cuda__utils_8hpp.html" target="_top" xlink:title="Util functions for CUDA memory and texture management.">
<polygon fill="none" stroke="black" points="640.5,-112.5 640.5,-131.5 719.5,-131.5 719.5,-112.5 640.5,-112.5"/>
<text text-anchor="middle" x="680" y="-119.5" font-family="FreeSans.ttf" font-size="10.00">cuda_utils.hpp</text>
</a>
</g>
</g>
<!-- Node7&#45;&gt;Node20 -->
<g id="edge53" class="edge">
<title>Node7&#45;&gt;Node20</title>
<path fill="none" stroke="midnightblue" d="M805.13,-403.42C771.69,-381.74 687.35,-321.01 660,-244 651.45,-219.92 667.25,-212.9 673,-188 676.55,-172.6 678.31,-154.73 679.18,-141.63"/>
<polygon fill="midnightblue" stroke="midnightblue" points="682.68,-141.7 679.73,-131.52 675.69,-141.32 682.68,-141.7"/>
</g>
<!-- Node24 -->
<g id="node24" class="node">
<title>Node24</title>
<g id="a_node24"><a xlink:href="balanced__gpuNUFFT__operator_8hpp.html" target="_top" xlink:title=" ">
<polygon fill="none" stroke="black" points="1017,-280.5 1017,-299.5 1185,-299.5 1185,-280.5 1017,-280.5"/>
<text text-anchor="middle" x="1101" y="-287.5" font-family="FreeSans.ttf" font-size="10.00">balanced_gpuNUFFT_operator.hpp</text>
</a>
</g>
</g>
<!-- Node7&#45;&gt;Node24 -->
<g id="edge35" class="edge">
<title>Node7&#45;&gt;Node24</title>
<path fill="none" stroke="midnightblue" d="M854.62,-403.44C881.81,-396.05 919.63,-383.89 950,-367 969.05,-356.41 969.21,-347.05 988,-336 1011.62,-322.11 1040.34,-310.73 1062.91,-302.9"/>
<polygon fill="midnightblue" stroke="midnightblue" points="1064.14,-306.17 1072.49,-299.65 1061.9,-299.54 1064.14,-306.17"/>
</g>
<!-- Node26 -->
<g id="node26" class="node">
<title>Node26</title>
<g id="a_node26"><a xlink:href="texture__gpuNUFFT__operator_8hpp.html" target="_top" xlink:title=" ">
<polygon fill="none" stroke="black" points="764,-280.5 764,-299.5 922,-299.5 922,-280.5 764,-280.5"/>
<text text-anchor="middle" x="843" y="-287.5" font-family="FreeSans.ttf" font-size="10.00">texture_gpuNUFFT_operator.hpp</text>
</a>
</g>
</g>
<!-- Node7&#45;&gt;Node26 -->
<g id="edge40" class="edge">
<title>Node7&#45;&gt;Node26</title>
<path fill="none" stroke="midnightblue" d="M810.77,-403.43C798.16,-389.22 776.65,-359.95 788,-336 794.13,-323.07 805.99,-312.62 817.14,-305.05"/>
<polygon fill="midnightblue" stroke="midnightblue" points="819.19,-307.9 825.8,-299.61 815.47,-301.97 819.19,-307.9"/>
</g>
<!-- Node29 -->
<g id="node29" class="node">
<title>Node29</title>
<g id="a_node29"><a xlink:href="balanced__texture__gpuNUFFT__operator_8hpp.html" target="_top" xlink:title=" ">
<polygon fill="none" stroke="black" points="797,-336.5 797,-366.5 941,-366.5 941,-336.5 797,-336.5"/>
<text text-anchor="start" x="805" y="-354.5" font-family="FreeSans.ttf" font-size="10.00">balanced_texture_gpuNUFFT</text>
<text text-anchor="middle" x="869" y="-343.5" font-family="FreeSans.ttf" font-size="10.00">_operator.hpp</text>
</a>
</g>
</g>
<!-- Node7&#45;&gt;Node29 -->
<g id="edge45" class="edge">
<title>Node7&#45;&gt;Node29</title>
<path fill="none" stroke="midnightblue" d="M826.16,-403.48C832.56,-395.87 842.19,-384.4 850.71,-374.26"/>
<polygon fill="midnightblue" stroke="midnightblue" points="853.46,-376.43 857.22,-366.52 848.1,-371.93 853.46,-376.43"/>
</g>
<!-- Node30 -->
<g id="node30" class="node">
<title>Node30</title>
<g id="a_node30"><a xlink:title=" ">
<polygon fill="none" stroke="#bfbfbf" points="997,-342 997,-361 1053,-361 1053,-342 997,-342"/>
<text text-anchor="middle" x="1025" y="-349" font-family="FreeSans.ttf" font-size="10.00">algorithm</text>
</a>
</g>
</g>
<!-- Node7&#45;&gt;Node30 -->
<g id="edge49" class="edge">
<title>Node7&#45;&gt;Node30</title>
<path fill="none" stroke="midnightblue" d="M852.48,-403.49C885.75,-394.88 938.15,-380.88 983,-367 985.76,-366.14 988.62,-365.23 991.48,-364.29"/>
<polygon fill="midnightblue" stroke="midnightblue" points="992.74,-367.56 1001.1,-361.05 990.51,-360.92 992.74,-367.56"/>
</g>
<!-- Node31 -->
<g id="node31" class="node">
<title>Node31</title>
<g id="a_node31"><a xlink:title=" ">
<polygon fill="none" stroke="#bfbfbf" points="1071,-342 1071,-361 1115,-361 1115,-342 1071,-342"/>
<text text-anchor="middle" x="1093" y="-349" font-family="FreeSans.ttf" font-size="10.00">vector</text>
</a>
</g>
</g>
<!-- Node7&#45;&gt;Node31 -->
<g id="edge50" class="edge">
<title>Node7&#45;&gt;Node31</title>
<path fill="none" stroke="midnightblue" d="M891.69,-403.47C940.61,-396.53 1006.13,-384.92 1062,-367 1063.67,-366.46 1065.37,-365.86 1067.07,-365.21"/>
<polygon fill="midnightblue" stroke="midnightblue" points="1068.77,-368.28 1076.58,-361.13 1066.01,-361.85 1068.77,-368.28"/>
</g>
<!-- Node32 -->
<g id="node32" class="node">
<title>Node32</title>
<g id="a_node32"><a xlink:title=" ">
<polygon fill="none" stroke="#bfbfbf" points="1133.5,-342 1133.5,-361 1174.5,-361 1174.5,-342 1133.5,-342"/>
<text text-anchor="middle" x="1154" y="-349" font-family="FreeSans.ttf" font-size="10.00">string</text>
</a>
</g>
</g>
<!-- Node7&#45;&gt;Node32 -->
<g id="edge51" class="edge">
<title>Node7&#45;&gt;Node32</title>
<path fill="none" stroke="midnightblue" d="M898.17,-406.94C960.61,-401.38 1049.31,-389.97 1124,-367 1125.67,-366.49 1127.37,-365.89 1129.06,-365.24"/>
<polygon fill="midnightblue" stroke="midnightblue" points="1130.73,-368.33 1138.48,-361.1 1127.92,-361.92 1130.73,-368.33"/>
</g>
<!-- Node33 -->
<g id="node33" class="node">
<title>Node33</title>
<g id="a_node33"><a xlink:href="precomp__utils_8hpp.html" target="_top" xlink:title="UTIL functions for precomputation.">
<polygon fill="none" stroke="black" points="468.5,-280.5 468.5,-299.5 563.5,-299.5 563.5,-280.5 468.5,-280.5"/>
<text text-anchor="middle" x="516" y="-287.5" font-family="FreeSans.ttf" font-size="10.00">precomp_utils.hpp</text>
</a>
</g>
</g>
<!-- Node7&#45;&gt;Node33 -->
<g id="edge54" class="edge">
<title>Node7&#45;&gt;Node33</title>
<path fill="none" stroke="midnightblue" d="M757.04,-403.46C718.48,-396.71 668.51,-385.3 627,-367 591.13,-351.18 554.57,-323.43 533.65,-306.2"/>
<polygon fill="midnightblue" stroke="midnightblue" points="535.85,-303.47 525.94,-299.73 531.36,-308.84 535.85,-303.47"/>
</g>
<!-- Node8&#45;&gt;Node6 -->
<g id="edge31" class="edge">
<title>Node8&#45;&gt;Node6</title>
<path fill="none" stroke="midnightblue" d="M783.65,-224.49C810.29,-218.05 841.81,-206.94 865,-188 895.23,-163.31 885.54,-143.19 909,-112 933.79,-79.05 968.32,-45.42 988.79,-26.48"/>
<polygon fill="midnightblue" stroke="midnightblue" points="991.38,-28.86 996.39,-19.53 986.65,-23.69 991.38,-28.86"/>
</g>
<!-- Node9 -->
<g id="node9" class="node">
<title>Node9</title>
<g id="a_node9"><a xlink:href="gpuNUFFT__types_8hpp.html" target="_top" xlink:title="Definition of gpuNUFFT defined types.">
<polygon fill="none" stroke="black" points="950,-168.5 950,-187.5 1062,-187.5 1062,-168.5 950,-168.5"/>
<text text-anchor="middle" x="1006" y="-175.5" font-family="FreeSans.ttf" font-size="10.00">gpuNUFFT_types.hpp</text>
</a>
</g>
</g>
<!-- Node8&#45;&gt;Node9 -->
<g id="edge9" class="edge">
<title>Node8&#45;&gt;Node9</title>
<path fill="none" stroke="midnightblue" d="M774.57,-224.44C822.85,-214.96 900.71,-199.67 952.61,-189.48"/>
<polygon fill="midnightblue" stroke="midnightblue" points="953.49,-192.88 962.63,-187.52 952.14,-186.01 953.49,-192.88"/>
</g>
<!-- Node10 -->
<g id="node10" class="node">
<title>Node10</title>
<g id="a_node10"><a xlink:title=" ">
<polygon fill="none" stroke="#bfbfbf" points="780.5,-112.5 780.5,-131.5 825.5,-131.5 825.5,-112.5 780.5,-112.5"/>
<text text-anchor="middle" x="803" y="-119.5" font-family="FreeSans.ttf" font-size="10.00">cstdlib</text>
</a>
</g>
</g>
<!-- Node8&#45;&gt;Node10 -->
<g id="edge32" class="edge">
<title>Node8&#45;&gt;Node10</title>
<path fill="none" stroke="midnightblue" d="M736.65,-224.37C748.53,-206.22 776.29,-163.8 791.88,-139.99"/>
<polygon fill="midnightblue" stroke="midnightblue" points="794.83,-141.88 797.38,-131.59 788.97,-138.04 794.83,-141.88"/>
</g>
<!-- Node11 -->
<g id="node11" class="node">
<title>Node11</title>
<g id="a_node11"><a xlink:title=" ">
<polygon fill="none" stroke="#bfbfbf" points="918,-112.5 918,-131.5 972,-131.5 972,-112.5 918,-112.5"/>
<text text-anchor="middle" x="945" y="-119.5" font-family="FreeSans.ttf" font-size="10.00">iostream</text>
</a>
</g>
</g>
<!-- Node8&#45;&gt;Node11 -->
<g id="edge33" class="edge">
<title>Node8&#45;&gt;Node11</title>
<path fill="none" stroke="midnightblue" d="M775.9,-224.44C818.31,-215.72 878.29,-201.6 898,-188 915.32,-176.05 928.57,-155.56 936.52,-140.77"/>
<polygon fill="midnightblue" stroke="midnightblue" points="939.76,-142.12 941.16,-131.62 933.52,-138.96 939.76,-142.12"/>
</g>
<!-- Node12 -->
<g id="node12" class="node">
<title>Node12</title>
<g id="a_node12"><a xlink:href="gpuNUFFT__kernels_8hpp.html" target="_top" xlink:title="gpuNUFFT CUDA function prototypes">
<polygon fill="none" stroke="black" points="544,-168.5 544,-187.5 664,-187.5 664,-168.5 544,-168.5"/>
<text text-anchor="middle" x="604" y="-175.5" font-family="FreeSans.ttf" font-size="10.00">gpuNUFFT_kernels.hpp</text>
</a>
</g>
</g>
<!-- Node8&#45;&gt;Node12 -->
<g id="edge13" class="edge">
<title>Node8&#45;&gt;Node12</title>
<path fill="none" stroke="midnightblue" d="M710.88,-224.44C689.98,-215.56 657.07,-201.56 633.28,-191.45"/>
<polygon fill="midnightblue" stroke="midnightblue" points="634.6,-188.21 624.03,-187.52 631.86,-194.65 634.6,-188.21"/>
</g>
<!-- Node23 -->
<g id="node23" class="node">
<title>Node23</title>
<g id="a_node23"><a xlink:title=" ">
<polygon fill="none" stroke="#bfbfbf" points="796.5,-168.5 796.5,-187.5 855.5,-187.5 855.5,-168.5 796.5,-168.5"/>
<text text-anchor="middle" x="826" y="-175.5" font-family="FreeSans.ttf" font-size="10.00">functional</text>
</a>
</g>
</g>
<!-- Node8&#45;&gt;Node23 -->
<g id="edge34" class="edge">
<title>Node8&#45;&gt;Node23</title>
<path fill="none" stroke="midnightblue" d="M746.26,-224.32C761.22,-215.82 784.25,-202.73 801.73,-192.8"/>
<polygon fill="midnightblue" stroke="midnightblue" points="803.81,-195.64 810.77,-187.65 800.35,-189.55 803.81,-195.64"/>
</g>
<!-- Node9&#45;&gt;Node6 -->
<g id="edge12" class="edge">
<title>Node9&#45;&gt;Node6</title>
<path fill="none" stroke="midnightblue" d="M1006,-168.08C1006,-141.95 1006,-65.21 1006,-29.58"/>
<polygon fill="midnightblue" stroke="midnightblue" points="1009.5,-29.57 1006,-19.57 1002.5,-29.57 1009.5,-29.57"/>
</g>
<!-- Node9&#45;&gt;Node10 -->
<g id="edge10" class="edge">
<title>Node9&#45;&gt;Node10</title>
<path fill="none" stroke="midnightblue" d="M973.83,-168.44C936.02,-158.39 873.62,-141.79 835.62,-131.68"/>
<polygon fill="midnightblue" stroke="midnightblue" points="836.15,-128.2 825.59,-129.01 834.35,-134.96 836.15,-128.2"/>
</g>
<!-- Node9&#45;&gt;Node11 -->
<g id="edge11" class="edge">
<title>Node9&#45;&gt;Node11</title>
<path fill="none" stroke="midnightblue" d="M996.2,-168.32C987.18,-160.34 973.59,-148.31 962.68,-138.65"/>
<polygon fill="midnightblue" stroke="midnightblue" points="964.79,-135.84 954.98,-131.83 960.15,-141.08 964.79,-135.84"/>
</g>
<!-- Node13 -->
<g id="node13" class="node">
<title>Node13</title>
<g id="a_node13"><a xlink:href="gpuNUFFT__utils_8hpp.html" target="_top" xlink:title="Definition of util functions used in gridding operations.">
<polygon fill="none" stroke="black" points="521.5,-56.5 521.5,-75.5 628.5,-75.5 628.5,-56.5 521.5,-56.5"/>
<text text-anchor="middle" x="575" y="-63.5" font-family="FreeSans.ttf" font-size="10.00">gpuNUFFT_utils.hpp</text>
</a>
</g>
</g>
<!-- Node12&#45;&gt;Node13 -->
<g id="edge14" class="edge">
<title>Node12&#45;&gt;Node13</title>
<path fill="none" stroke="midnightblue" d="M601.72,-168.37C597.02,-150.54 586.15,-109.3 579.82,-85.27"/>
<polygon fill="midnightblue" stroke="midnightblue" points="583.2,-84.37 577.27,-75.59 576.43,-86.15 583.2,-84.37"/>
</g>
<!-- Node12&#45;&gt;Node20 -->
<g id="edge23" class="edge">
<title>Node12&#45;&gt;Node20</title>
<path fill="none" stroke="midnightblue" d="M616.21,-168.32C627.78,-160.11 645.38,-147.6 659.16,-137.81"/>
<polygon fill="midnightblue" stroke="midnightblue" points="661.44,-140.48 667.57,-131.83 657.39,-134.77 661.44,-140.48"/>
</g>
<!-- Node13&#45;&gt;Node5 -->
<g id="edge17" class="edge">
<title>Node13&#45;&gt;Node5</title>
<path fill="none" stroke="midnightblue" d="M559.9,-56.32C545.1,-47.82 522.31,-34.73 505.02,-24.8"/>
<polygon fill="midnightblue" stroke="midnightblue" points="506.48,-21.6 496.07,-19.65 502.99,-27.67 506.48,-21.6"/>
</g>
<!-- Node13&#45;&gt;Node6 -->
<g id="edge19" class="edge">
<title>Node13&#45;&gt;Node6</title>
<path fill="none" stroke="midnightblue" d="M628.61,-57.27C631.78,-56.83 634.93,-56.41 638,-56 757.01,-40.22 897.96,-23.55 965.69,-15.66"/>
<polygon fill="midnightblue" stroke="midnightblue" points="966.39,-19.1 975.92,-14.47 965.58,-12.15 966.39,-19.1"/>
</g>
<!-- Node14 -->
<g id="node14" class="node">
<title>Node14</title>
<g id="a_node14"><a xlink:title=" ">
<polygon fill="none" stroke="#bfbfbf" points="521.5,-0.5 521.5,-19.5 568.5,-19.5 568.5,-0.5 521.5,-0.5"/>
<text text-anchor="middle" x="545" y="-7.5" font-family="FreeSans.ttf" font-size="10.00">stdlib.h</text>
</a>
</g>
</g>
<!-- Node13&#45;&gt;Node14 -->
<g id="edge15" class="edge">
<title>Node13&#45;&gt;Node14</title>
<path fill="none" stroke="midnightblue" d="M570.05,-56.08C565.9,-48.61 559.85,-37.72 554.73,-28.52"/>
<polygon fill="midnightblue" stroke="midnightblue" points="557.78,-26.79 549.86,-19.75 551.66,-30.19 557.78,-26.79"/>
</g>
<!-- Node15 -->
<g id="node15" class="node">
<title>Node15</title>
<g id="a_node15"><a xlink:title=" ">
<polygon fill="none" stroke="#bfbfbf" points="720.5,-0.5 720.5,-19.5 765.5,-19.5 765.5,-0.5 720.5,-0.5"/>
<text text-anchor="middle" x="743" y="-7.5" font-family="FreeSans.ttf" font-size="10.00">stdio.h</text>
</a>
</g>
</g>
<!-- Node13&#45;&gt;Node15 -->
<g id="edge16" class="edge">
<title>Node13&#45;&gt;Node15</title>
<path fill="none" stroke="midnightblue" d="M601.62,-56.44C631.17,-46.94 678.88,-31.61 710.59,-21.42"/>
<polygon fill="midnightblue" stroke="midnightblue" points="711.83,-24.7 720.28,-18.3 709.68,-18.03 711.83,-24.7"/>
</g>
<!-- Node16 -->
<g id="node16" class="node">
<title>Node16</title>
<g id="a_node16"><a xlink:title=" ">
<polygon fill="none" stroke="#bfbfbf" points="783.5,-0.5 783.5,-19.5 866.5,-19.5 866.5,-0.5 783.5,-0.5"/>
<text text-anchor="middle" x="825" y="-7.5" font-family="FreeSans.ttf" font-size="10.00">cuda_runtime.h</text>
</a>
</g>
</g>
<!-- Node13&#45;&gt;Node16 -->
<g id="edge18" class="edge">
<title>Node13&#45;&gt;Node16</title>
<path fill="none" stroke="midnightblue" d="M614.61,-56.44C658.23,-47.02 728.4,-31.87 775.58,-21.68"/>
<polygon fill="midnightblue" stroke="midnightblue" points="776.54,-25.05 785.57,-19.52 775.06,-18.21 776.54,-25.05"/>
</g>
<!-- Node13&#45;&gt;Node17 -->
<g id="edge20" class="edge">
<title>Node13&#45;&gt;Node17</title>
<path fill="none" stroke="midnightblue" d="M550.12,-56.44C522.93,-47.09 479.31,-32.09 449.69,-21.9"/>
<polygon fill="midnightblue" stroke="midnightblue" points="450.82,-18.59 440.22,-18.64 448.54,-25.21 450.82,-18.59"/>
</g>
<!-- Node18 -->
<g id="node18" class="node">
<title>Node18</title>
<g id="a_node18"><a xlink:title=" ">
<polygon fill="none" stroke="#bfbfbf" points="587,-0.5 587,-19.5 633,-19.5 633,-0.5 587,-0.5"/>
<text text-anchor="middle" x="610" y="-7.5" font-family="FreeSans.ttf" font-size="10.00">math.h</text>
</a>
</g>
</g>
<!-- Node13&#45;&gt;Node18 -->
<g id="edge21" class="edge">
<title>Node13&#45;&gt;Node18</title>
<path fill="none" stroke="midnightblue" d="M580.78,-56.08C585.67,-48.53 592.83,-37.49 598.83,-28.23"/>
<polygon fill="midnightblue" stroke="midnightblue" points="601.83,-30.05 604.33,-19.75 595.95,-26.24 601.83,-30.05"/>
</g>
<!-- Node19 -->
<g id="node19" class="node">
<title>Node19</title>
<g id="a_node19"><a xlink:title=" ">
<polygon fill="none" stroke="#bfbfbf" points="651.5,-0.5 651.5,-19.5 702.5,-19.5 702.5,-0.5 651.5,-0.5"/>
<text text-anchor="middle" x="677" y="-7.5" font-family="FreeSans.ttf" font-size="10.00">assert.h</text>
</a>
</g>
</g>
<!-- Node13&#45;&gt;Node19 -->
<g id="edge22" class="edge">
<title>Node13&#45;&gt;Node19</title>
<path fill="none" stroke="midnightblue" d="M591.39,-56.32C607.67,-47.7 632.87,-34.36 651.72,-24.39"/>
<polygon fill="midnightblue" stroke="midnightblue" points="653.45,-27.43 660.65,-19.65 650.18,-21.24 653.45,-27.43"/>
</g>
<!-- Node20&#45;&gt;Node5 -->
<g id="edge24" class="edge">
<title>Node20&#45;&gt;Node5</title>
<path fill="none" stroke="midnightblue" d="M640.38,-119.42C603.63,-116.02 549.29,-105.85 513,-76 498.6,-64.16 490.15,-44.24 485.58,-29.57"/>
<polygon fill="midnightblue" stroke="midnightblue" points="488.86,-28.29 482.82,-19.59 482.12,-30.16 488.86,-28.29"/>
</g>
<!-- Node20&#45;&gt;Node8 -->
<g id="edge29" class="edge">
<title>Node20&#45;&gt;Node8</title>
<path fill="none" stroke="midnightblue" d="M685.6,-131.74C691.18,-140.65 699.78,-154.97 706,-168 713.33,-183.34 720.15,-201.44 724.81,-214.64"/>
<polygon fill="midnightblue" stroke="midnightblue" points="721.61,-216.1 728.18,-224.41 728.22,-213.81 721.61,-216.1"/>
</g>
<!-- Node20&#45;&gt;Node13 -->
<g id="edge28" class="edge">
<title>Node20&#45;&gt;Node13</title>
<path fill="none" stroke="midnightblue" d="M663.13,-112.32C646.29,-103.66 620.19,-90.24 600.76,-80.25"/>
<polygon fill="midnightblue" stroke="midnightblue" points="602.32,-77.12 591.83,-75.65 599.12,-83.34 602.32,-77.12"/>
</g>
<!-- Node20&#45;&gt;Node15 -->
<g id="edge26" class="edge">
<title>Node20&#45;&gt;Node15</title>
<path fill="none" stroke="midnightblue" d="M715.85,-112.4C734.88,-105.81 756.63,-94.59 768,-76 777.32,-60.77 767.57,-41.49 757.65,-27.89"/>
<polygon fill="midnightblue" stroke="midnightblue" points="760.26,-25.54 751.3,-19.88 754.77,-29.89 760.26,-25.54"/>
</g>
<!-- Node20&#45;&gt;Node16 -->
<g id="edge25" class="edge">
<title>Node20&#45;&gt;Node16</title>
<path fill="none" stroke="midnightblue" d="M711.93,-112.4C733.74,-105.32 762.33,-93.57 783,-76 798.16,-63.12 809.83,-43.39 816.98,-29.05"/>
<polygon fill="midnightblue" stroke="midnightblue" points="820.27,-30.27 821.37,-19.73 813.94,-27.29 820.27,-30.27"/>
</g>
<!-- Node21 -->
<g id="node21" class="node">
<title>Node21</title>
<g id="a_node21"><a xlink:title=" ">
<polygon fill="none" stroke="#bfbfbf" points="715.5,-56.5 715.5,-75.5 758.5,-75.5 758.5,-56.5 715.5,-56.5"/>
<text text-anchor="middle" x="737" y="-63.5" font-family="FreeSans.ttf" font-size="10.00">cufft.h</text>
</a>
</g>
</g>
<!-- Node20&#45;&gt;Node21 -->
<g id="edge27" class="edge">
<title>Node20&#45;&gt;Node21</title>
<path fill="none" stroke="midnightblue" d="M689.16,-112.32C697.5,-104.42 710.03,-92.55 720.18,-82.94"/>
<polygon fill="midnightblue" stroke="midnightblue" points="722.82,-85.25 727.68,-75.83 718.01,-80.17 722.82,-85.25"/>
</g>
<!-- Node22 -->
<g id="node22" class="node">
<title>Node22</title>
<g id="a_node22"><a xlink:title=" ">
<polygon fill="none" stroke="#bfbfbf" points="646.5,-56.5 646.5,-75.5 697.5,-75.5 697.5,-56.5 646.5,-56.5"/>
<text text-anchor="middle" x="672" y="-63.5" font-family="FreeSans.ttf" font-size="10.00">stdarg.h</text>
</a>
</g>
</g>
<!-- Node20&#45;&gt;Node22 -->
<g id="edge30" class="edge">
<title>Node20&#45;&gt;Node22</title>
<path fill="none" stroke="midnightblue" d="M678.68,-112.08C677.62,-104.93 676.09,-94.64 674.77,-85.69"/>
<polygon fill="midnightblue" stroke="midnightblue" points="678.22,-85.13 673.3,-75.75 671.3,-86.16 678.22,-85.13"/>
</g>
<!-- Node24&#45;&gt;Node8 -->
<g id="edge37" class="edge">
<title>Node24&#45;&gt;Node8</title>
<path fill="none" stroke="midnightblue" d="M1042.37,-280.44C976.34,-270.81 869.16,-255.16 799.37,-244.98"/>
<polygon fill="midnightblue" stroke="midnightblue" points="799.75,-241.5 789.35,-243.52 798.74,-248.42 799.75,-241.5"/>
</g>
<!-- Node24&#45;&gt;Node9 -->
<g id="edge36" class="edge">
<title>Node24&#45;&gt;Node9</title>
<path fill="none" stroke="midnightblue" d="M1117.58,-280.45C1138.98,-268.29 1171.71,-245.11 1156,-224 1136.68,-198.03 1102.89,-186.49 1072.27,-181.56"/>
<polygon fill="midnightblue" stroke="midnightblue" points="1072.42,-178.05 1062.03,-180.13 1071.45,-184.98 1072.42,-178.05"/>
</g>
<!-- Node25 -->
<g id="node25" class="node">
<title>Node25</title>
<g id="a_node25"><a xlink:href="balanced__operator_8hpp.html" target="_top" xlink:title=" ">
<polygon fill="none" stroke="black" points="1033,-224.5 1033,-243.5 1147,-243.5 1147,-224.5 1033,-224.5"/>
<text text-anchor="middle" x="1090" y="-231.5" font-family="FreeSans.ttf" font-size="10.00">balanced_operator.hpp</text>
</a>
</g>
</g>
<!-- Node24&#45;&gt;Node25 -->
<g id="edge38" class="edge">
<title>Node24&#45;&gt;Node25</title>
<path fill="none" stroke="midnightblue" d="M1099.18,-280.08C1097.73,-272.93 1095.63,-262.64 1093.81,-253.69"/>
<polygon fill="midnightblue" stroke="midnightblue" points="1097.21,-252.85 1091.78,-243.75 1090.35,-254.25 1097.21,-252.85"/>
</g>
<!-- Node25&#45;&gt;Node9 -->
<g id="edge39" class="edge">
<title>Node25&#45;&gt;Node9</title>
<path fill="none" stroke="midnightblue" d="M1076.5,-224.32C1063.4,-215.9 1043.29,-202.97 1027.89,-193.07"/>
<polygon fill="midnightblue" stroke="midnightblue" points="1029.77,-190.12 1019.46,-187.65 1025.98,-196.01 1029.77,-190.12"/>
</g>
<!-- Node26&#45;&gt;Node8 -->
<g id="edge44" class="edge">
<title>Node26&#45;&gt;Node8</title>
<path fill="none" stroke="midnightblue" d="M825.01,-280.32C806.96,-271.62 778.95,-258.12 758.2,-248.11"/>
<polygon fill="midnightblue" stroke="midnightblue" points="759.48,-244.84 748.95,-243.65 756.44,-251.15 759.48,-244.84"/>
</g>
<!-- Node26&#45;&gt;Node9 -->
<g id="edge43" class="edge">
<title>Node26&#45;&gt;Node9</title>
<path fill="none" stroke="midnightblue" d="M871.94,-280.43C894.07,-273 924.65,-260.79 948,-244 966.53,-230.67 983.37,-210.46 994.08,-196.12"/>
<polygon fill="midnightblue" stroke="midnightblue" points="997.16,-197.83 1000.18,-187.68 991.48,-193.73 997.16,-197.83"/>
</g>
<!-- Node27 -->
<g id="node27" class="node">
<title>Node27</title>
<g id="a_node27"><a xlink:title=" ">
<polygon fill="none" stroke="#bfbfbf" points="889,-224.5 889,-243.5 939,-243.5 939,-224.5 889,-224.5"/>
<text text-anchor="middle" x="914" y="-231.5" font-family="FreeSans.ttf" font-size="10.00">typeinfo</text>
</a>
</g>
</g>
<!-- Node26&#45;&gt;Node27 -->
<g id="edge41" class="edge">
<title>Node26&#45;&gt;Node27</title>
<path fill="none" stroke="midnightblue" d="M854.41,-280.32C865.11,-272.18 881.34,-259.84 894.16,-250.09"/>
<polygon fill="midnightblue" stroke="midnightblue" points="896.54,-252.67 902.39,-243.83 892.31,-247.1 896.54,-252.67"/>
</g>
<!-- Node28 -->
<g id="node28" class="node">
<title>Node28</title>
<g id="a_node28"><a xlink:title=" ">
<polygon fill="none" stroke="#bfbfbf" points="811.5,-224.5 811.5,-243.5 870.5,-243.5 870.5,-224.5 811.5,-224.5"/>
<text text-anchor="middle" x="841" y="-231.5" font-family="FreeSans.ttf" font-size="10.00">stdexcept</text>
</a>
</g>
</g>
<!-- Node26&#45;&gt;Node28 -->
<g id="edge42" class="edge">
<title>Node26&#45;&gt;Node28</title>
<path fill="none" stroke="midnightblue" d="M842.67,-280.08C842.41,-273.01 842.03,-262.86 841.7,-253.99"/>
<polygon fill="midnightblue" stroke="midnightblue" points="845.19,-253.61 841.32,-243.75 838.2,-253.87 845.19,-253.61"/>
</g>
<!-- Node29&#45;&gt;Node9 -->
<g id="edge46" class="edge">
<title>Node29&#45;&gt;Node9</title>
<path fill="none" stroke="midnightblue" d="M888.81,-336.43C901.56,-326.89 918.09,-313.59 931,-300 961.37,-268.03 985.84,-221.85 997.88,-196.79"/>
<polygon fill="midnightblue" stroke="midnightblue" points="1001.05,-198.27 1002.13,-187.73 994.71,-195.3 1001.05,-198.27"/>
</g>
<!-- Node29&#45;&gt;Node25 -->
<g id="edge48" class="edge">
<title>Node29&#45;&gt;Node25</title>
<path fill="none" stroke="midnightblue" d="M896.1,-336.34C939.19,-313.82 1022.74,-270.15 1064.69,-248.23"/>
<polygon fill="midnightblue" stroke="midnightblue" points="1066.45,-251.26 1073.69,-243.52 1063.21,-245.05 1066.45,-251.26"/>
</g>
<!-- Node29&#45;&gt;Node26 -->
<g id="edge47" class="edge">
<title>Node29&#45;&gt;Node26</title>
<path fill="none" stroke="midnightblue" d="M862.84,-336.4C859.26,-328.2 854.7,-317.78 850.86,-308.99"/>
<polygon fill="midnightblue" stroke="midnightblue" points="853.99,-307.42 846.78,-299.66 847.58,-310.22 853.99,-307.42"/>
</g>
<!-- Node33&#45;&gt;Node8 -->
<g id="edge56" class="edge">
<title>Node33&#45;&gt;Node8</title>
<path fill="none" stroke="midnightblue" d="M550.07,-280.44C587.18,-271.12 646.66,-256.18 687.21,-246"/>
<polygon fill="midnightblue" stroke="midnightblue" points="688.25,-249.35 697.09,-243.52 686.54,-242.56 688.25,-249.35"/>
</g>
<!-- Node33&#45;&gt;Node13 -->
<g id="edge57" class="edge">
<title>Node33&#45;&gt;Node13</title>
<path fill="none" stroke="midnightblue" d="M513.73,-280.19C510.78,-267.71 506.21,-244.16 508,-224 510.23,-198.82 509.44,-191.79 518,-168 529.3,-136.58 549.89,-103.47 562.98,-84.06"/>
<polygon fill="midnightblue" stroke="midnightblue" points="565.95,-85.92 568.73,-75.7 560.18,-81.95 565.95,-85.92"/>
</g>
<!-- Node33&#45;&gt;Node17 -->
<g id="edge58" class="edge">
<title>Node33&#45;&gt;Node17</title>
<path fill="none" stroke="midnightblue" d="M495.36,-280.42C462.5,-265.23 402,-230.29 402,-179 402,-179 402,-179 402,-121 402,-88.63 408.87,-51.44 413.61,-29.66"/>
<polygon fill="midnightblue" stroke="midnightblue" points="417.05,-30.3 415.84,-19.78 410.22,-28.76 417.05,-30.3"/>
</g>
<!-- Node33&#45;&gt;Node20 -->
<g id="edge55" class="edge">
<title>Node33&#45;&gt;Node20</title>
<path fill="none" stroke="midnightblue" d="M514.57,-280.43C511.46,-258.73 506.49,-200.98 535,-168 558.56,-140.74 598.31,-129.76 630.24,-125.45"/>
<polygon fill="midnightblue" stroke="midnightblue" points="630.77,-128.91 640.3,-124.27 629.96,-121.96 630.77,-128.91"/>
</g>
</g>
</svg>
