<?xml version="1.0" encoding="UTF-8" standalone="no"?>
<!DOCTYPE svg PUBLIC "-//W3C//DTD SVG 1.1//EN"
 "http://www.w3.org/Graphics/SVG/1.1/DTD/svg11.dtd">
<!-- Generated by graphviz version 2.49.3 (20211027.1534)
 -->
<!-- Title: python/inc/python_factory.hpp Pages: 1 -->
<svg width="324pt" height="84pt"
 viewBox="0.00 0.00 324.00 84.00" xmlns="http://www.w3.org/2000/svg" xmlns:xlink="http://www.w3.org/1999/xlink">
<g id="graph0" class="graph" transform="scale(1 1) rotate(0) translate(4 80)">
<title>python/inc/python_factory.hpp</title>
<!-- Node1 -->
<g id="node1" class="node">
<title>Node1</title>
<g id="a_node1"><a xlink:title=" ">
<polygon fill="#bfbfbf" stroke="black" points="86.5,-56.5 86.5,-75.5 231.5,-75.5 231.5,-56.5 86.5,-56.5"/>
<text text-anchor="middle" x="159" y="-63.5" font-family="FreeSans.ttf" font-size="10.00">python/inc/python_factory.hpp</text>
</a>
</g>
</g>
<!-- Node2 -->
<g id="node2" class="node">
<title>Node2</title>
<g id="a_node2"><a xlink:href="python__bindings_8cpp.html" target="_top" xlink:title=" ">
<polygon fill="none" stroke="black" points="0,-0.5 0,-19.5 152,-19.5 152,-0.5 0,-0.5"/>
<text text-anchor="middle" x="76" y="-7.5" font-family="FreeSans.ttf" font-size="10.00">python/src/python_bindings.cpp</text>
</a>
</g>
</g>
<!-- Node1&#45;&gt;Node2 -->
<g id="edge1" class="edge">
<title>Node1&#45;&gt;Node2</title>
<path fill="none" stroke="midnightblue" d="M136.9,-50.62C121.74,-40.76 102.12,-27.99 89.3,-19.65"/>
<polygon fill="midnightblue" stroke="midnightblue" points="135.37,-53.8 145.66,-56.32 139.19,-47.94 135.37,-53.8"/>
</g>
<!-- Node3 -->
<g id="node3" class="node">
<title>Node3</title>
<g id="a_node3"><a xlink:href="python__factory_8cpp.html" target="_top" xlink:title=" ">
<polygon fill="none" stroke="black" points="170,-0.5 170,-19.5 316,-19.5 316,-0.5 170,-0.5"/>
<text text-anchor="middle" x="243" y="-7.5" font-family="FreeSans.ttf" font-size="10.00">python/src/python_factory.cpp</text>
</a>
</g>
</g>
<!-- Node1&#45;&gt;Node3 -->
<g id="edge2" class="edge">
<title>Node1&#45;&gt;Node3</title>
<path fill="none" stroke="midnightblue" d="M180.93,-50.9C196.34,-41 216.45,-28.07 229.54,-19.65"/>
<polygon fill="midnightblue" stroke="midnightblue" points="179.02,-47.97 172.5,-56.32 182.8,-53.86 179.02,-47.97"/>
</g>
</g>
</svg>
