<?xml version="1.0" encoding="UTF-8" standalone="no"?>
<!DOCTYPE svg PUBLIC "-//W3C//DTD SVG 1.1//EN"
 "http://www.w3.org/Graphics/SVG/1.1/DTD/svg11.dtd">
<!-- Generated by graphviz version 2.49.3 (20211027.1534)
 -->
<!-- Title: gpuNUFFT::Array::count Pages: 1 -->
<svg width="354pt" height="459pt"
 viewBox="0.00 0.00 354.00 458.50" xmlns="http://www.w3.org/2000/svg" xmlns:xlink="http://www.w3.org/1999/xlink">
<g id="graph0" class="graph" transform="scale(1 1) rotate(0) translate(4 454.5)">
<title>gpuNUFFT::Array::count</title>
<!-- Node1 -->
<g id="node1" class="node">
<title>Node1</title>
<g id="a_node1"><a xlink:title=" ">
<polygon fill="#bfbfbf" stroke="black" points="225,-204.5 225,-223.5 346,-223.5 346,-204.5 225,-204.5"/>
<text text-anchor="middle" x="285.5" y="-211.5" font-family="FreeSans.ttf" font-size="10.00">gpuNUFFT::Array::count</text>
</a>
</g>
</g>
<!-- Node2 -->
<g id="node2" class="node">
<title>Node2</title>
<g id="a_node2"><a xlink:href="classgpuNUFFT_1_1GpuNUFFTOperatorFactory.html#afa72b607029c78d61b6e01d45077998e" target="_top" xlink:title="Assign the samples on the k&#45;space trajectory to its corresponding sector.">
<polygon fill="none" stroke="black" points="15.5,-420 15.5,-450 173.5,-450 173.5,-420 15.5,-420"/>
<text text-anchor="start" x="23.5" y="-438" font-family="FreeSans.ttf" font-size="10.00">gpuNUFFT::GpuNUFFTOperator</text>
<text text-anchor="middle" x="94.5" y="-427" font-family="FreeSans.ttf" font-size="10.00">Factory::assignSectors</text>
</a>
</g>
</g>
<!-- Node1&#45;&gt;Node2 -->
<g id="edge1" class="edge">
<title>Node1&#45;&gt;Node2</title>
<path fill="none" stroke="midnightblue" d="M280.74,-233.56C272.04,-273.32 246.71,-363.82 189,-411 184.33,-414.82 179.12,-418.04 173.62,-420.75"/>
<polygon fill="midnightblue" stroke="midnightblue" points="284.21,-234.06 282.8,-223.56 277.35,-232.65 284.21,-234.06"/>
</g>
<!-- Node3 -->
<g id="node3" class="node">
<title>Node3</title>
<g id="a_node3"><a xlink:href="classgpuNUFFT_1_1GpuNUFFTOperatorFactory.html#a82e185db6eda1edb359df5a580be7b37" target="_top" xlink:title="Computation of the deapodization function.">
<polygon fill="none" stroke="black" points="0,-371 0,-401 189,-401 189,-371 0,-371"/>
<text text-anchor="start" x="8" y="-389" font-family="FreeSans.ttf" font-size="10.00">gpuNUFFT::GpuNUFFTOperator</text>
<text text-anchor="middle" x="94.5" y="-378" font-family="FreeSans.ttf" font-size="10.00">Factory::computeDeapodizationFunction</text>
</a>
</g>
</g>
<!-- Node1&#45;&gt;Node3 -->
<g id="edge2" class="edge">
<title>Node1&#45;&gt;Node3</title>
<path fill="none" stroke="midnightblue" d="M277.51,-233.24C264.92,-265.09 235.36,-328.59 189,-362 184.24,-365.43 179.04,-368.37 173.6,-370.89"/>
<polygon fill="midnightblue" stroke="midnightblue" points="280.84,-234.33 281.13,-223.74 274.3,-231.84 280.84,-234.33"/>
</g>
<!-- Node4 -->
<g id="node4" class="node">
<title>Node4</title>
<g id="a_node4"><a xlink:href="classgpuNUFFT_1_1GpuNUFFTOperatorFactory.html#ad951199a259576c45568997ccfac72dc" target="_top" xlink:title="Method to compute the sector processing order.">
<polygon fill="none" stroke="black" points="12.5,-322 12.5,-352 176.5,-352 176.5,-322 12.5,-322"/>
<text text-anchor="start" x="20.5" y="-340" font-family="FreeSans.ttf" font-size="10.00">gpuNUFFT::GpuNUFFTOperator</text>
<text text-anchor="middle" x="94.5" y="-329" font-family="FreeSans.ttf" font-size="10.00">Factory::computeProcessingOrder</text>
</a>
</g>
</g>
<!-- Node1&#45;&gt;Node4 -->
<g id="edge3" class="edge">
<title>Node1&#45;&gt;Node4</title>
<path fill="none" stroke="midnightblue" d="M272.19,-231.86C255.82,-254.24 224.73,-292.19 189,-313 183.06,-316.46 176.63,-319.42 170.01,-321.97"/>
<polygon fill="midnightblue" stroke="midnightblue" points="275.14,-233.75 278.1,-223.58 269.44,-229.69 275.14,-233.75"/>
</g>
<!-- Node5 -->
<g id="node5" class="node">
<title>Node5</title>
<g id="a_node5"><a xlink:href="classgpuNUFFT_1_1GpuNUFFTOperatorFactory.html#ad915537942d302c8d192b964e6114f28" target="_top" xlink:title="Compute the boundaries of the assigned dataIndices per sector element.">
<polygon fill="none" stroke="black" points="12,-273 12,-303 177,-303 177,-273 12,-273"/>
<text text-anchor="start" x="20" y="-291" font-family="FreeSans.ttf" font-size="10.00">gpuNUFFT::GpuNUFFTOperator</text>
<text text-anchor="middle" x="94.5" y="-280" font-family="FreeSans.ttf" font-size="10.00">Factory::computeSectorDataCount</text>
</a>
</g>
</g>
<!-- Node1&#45;&gt;Node5 -->
<g id="edge4" class="edge">
<title>Node1&#45;&gt;Node5</title>
<path fill="none" stroke="midnightblue" d="M259.99,-228.85C241.12,-239.78 214.11,-254.35 189,-264 180.4,-267.31 171.17,-270.3 161.99,-272.96"/>
<polygon fill="midnightblue" stroke="midnightblue" points="261.96,-231.75 268.81,-223.67 258.41,-225.72 261.96,-231.75"/>
</g>
<!-- Node6 -->
<g id="node6" class="node">
<title>Node6</title>
<g id="a_node6"><a xlink:href="classgpuNUFFT_1_1GpuNUFFTOperator.html#ada5bb598b923ca3e92e987982f3d0d5b" target="_top" xlink:title="Perform forward gridding operation on kspaceData already residing in GPU memory.">
<polygon fill="none" stroke="black" points="15.5,-224 15.5,-254 173.5,-254 173.5,-224 15.5,-224"/>
<text text-anchor="start" x="23.5" y="-242" font-family="FreeSans.ttf" font-size="10.00">gpuNUFFT::GpuNUFFTOperator</text>
<text text-anchor="middle" x="94.5" y="-231" font-family="FreeSans.ttf" font-size="10.00">::performForwardGpuNUFFT</text>
</a>
</g>
</g>
<!-- Node1&#45;&gt;Node6 -->
<g id="edge5" class="edge">
<title>Node1&#45;&gt;Node6</title>
<path fill="none" stroke="midnightblue" d="M214.89,-223.21C201.51,-224.98 187.42,-226.84 173.79,-228.64"/>
<polygon fill="midnightblue" stroke="midnightblue" points="215.5,-226.66 224.96,-221.88 214.59,-219.72 215.5,-226.66"/>
</g>
<!-- Node7 -->
<g id="node7" class="node">
<title>Node7</title>
<g id="a_node7"><a xlink:href="classgpuNUFFT_1_1GpuNUFFTOperator.html#a89e40ec1b777c8033bbc933c6535078c" target="_top" xlink:title="Perform Adjoint gridding operation on kspaceData already residing in GPU memory.">
<polygon fill="none" stroke="black" points="15.5,-175 15.5,-205 173.5,-205 173.5,-175 15.5,-175"/>
<text text-anchor="start" x="23.5" y="-193" font-family="FreeSans.ttf" font-size="10.00">gpuNUFFT::GpuNUFFTOperator</text>
<text text-anchor="middle" x="94.5" y="-182" font-family="FreeSans.ttf" font-size="10.00">::performGpuNUFFTAdj</text>
</a>
</g>
</g>
<!-- Node1&#45;&gt;Node7 -->
<g id="edge6" class="edge">
<title>Node1&#45;&gt;Node7</title>
<path fill="none" stroke="midnightblue" d="M214.89,-205.16C201.51,-203.46 187.42,-201.67 173.79,-199.94"/>
<polygon fill="midnightblue" stroke="midnightblue" points="214.6,-208.65 224.96,-206.44 215.48,-201.71 214.6,-208.65"/>
</g>
<!-- Node8 -->
<g id="node8" class="node">
<title>Node8</title>
<g id="a_node8"><a xlink:href="classgpuNUFFT_1_1GpuNUFFTOperator.html#a897f3ec26b76086e3cf174a4ce0c1c23" target="_top" xlink:title="Select data array in ordered manner.">
<polygon fill="none" stroke="black" points="15.5,-126 15.5,-156 173.5,-156 173.5,-126 15.5,-126"/>
<text text-anchor="start" x="23.5" y="-144" font-family="FreeSans.ttf" font-size="10.00">gpuNUFFT::GpuNUFFTOperator</text>
<text text-anchor="middle" x="94.5" y="-133" font-family="FreeSans.ttf" font-size="10.00">::selectOrdered</text>
</a>
</g>
</g>
<!-- Node1&#45;&gt;Node8 -->
<g id="edge7" class="edge">
<title>Node1&#45;&gt;Node8</title>
<path fill="none" stroke="midnightblue" d="M259.21,-199.5C240.32,-189.11 213.63,-175.37 189,-166 179.42,-162.36 169.1,-159.03 158.93,-156.07"/>
<polygon fill="midnightblue" stroke="midnightblue" points="257.63,-202.62 268.06,-204.43 261.03,-196.51 257.63,-202.62"/>
</g>
<!-- Node9 -->
<g id="node9" class="node">
<title>Node9</title>
<g id="a_node9"><a xlink:href="classgpuNUFFT_1_1GpuNUFFTOperatorFactory.html#aae7ea9905b763b7b8cc5c36533257163" target="_top" xlink:title=" ">
<polygon fill="none" stroke="black" points="15.5,-77 15.5,-107 173.5,-107 173.5,-77 15.5,-77"/>
<text text-anchor="start" x="23.5" y="-95" font-family="FreeSans.ttf" font-size="10.00">gpuNUFFT::GpuNUFFTOperator</text>
<text text-anchor="middle" x="94.5" y="-84" font-family="FreeSans.ttf" font-size="10.00">Factory::sortVector</text>
</a>
</g>
</g>
<!-- Node1&#45;&gt;Node9 -->
<g id="edge8" class="edge">
<title>Node1&#45;&gt;Node9</title>
<path fill="none" stroke="midnightblue" d="M271.82,-196.23C255.26,-174.32 224.18,-137.48 189,-117 182.32,-113.11 175.02,-109.81 167.54,-107.02"/>
<polygon fill="midnightblue" stroke="midnightblue" points="269.06,-198.38 277.82,-204.35 274.7,-194.23 269.06,-198.38"/>
</g>
<!-- Node10 -->
<g id="node10" class="node">
<title>Node10</title>
<g id="a_node10"><a xlink:href="gpuNUFFT__forward__tests_8cpp.html#a6e7e337161ef805951437dbf21112e43" target="_top" xlink:title=" ">
<polygon fill="none" stroke="black" points="74,-38.5 74,-57.5 115,-57.5 115,-38.5 74,-38.5"/>
<text text-anchor="middle" x="94.5" y="-45.5" font-family="FreeSans.ttf" font-size="10.00">TEST</text>
</a>
</g>
</g>
<!-- Node1&#45;&gt;Node10 -->
<g id="edge9" class="edge">
<title>Node1&#45;&gt;Node10</title>
<path fill="none" stroke="midnightblue" d="M277.58,-194.82C265.1,-163.09 235.68,-100.01 189,-68 166.82,-52.79 135.27,-48.82 115.09,-47.96"/>
<polygon fill="midnightblue" stroke="midnightblue" points="274.35,-196.17 281.17,-204.28 280.9,-193.69 274.35,-196.17"/>
</g>
<!-- Node11 -->
<g id="node11" class="node">
<title>Node11</title>
<g id="a_node11"><a xlink:href="gpuNUFFT__fft__tests_8cpp.html#a143d7141da78d4955eb9d9228cd5e65e" target="_top" xlink:title=" ">
<polygon fill="none" stroke="black" points="68,-0.5 68,-19.5 121,-19.5 121,-0.5 68,-0.5"/>
<text text-anchor="middle" x="94.5" y="-7.5" font-family="FreeSans.ttf" font-size="10.00">TEST_F</text>
</a>
</g>
</g>
<!-- Node1&#45;&gt;Node11 -->
<g id="edge10" class="edge">
<title>Node1&#45;&gt;Node11</title>
<path fill="none" stroke="midnightblue" d="M280.36,-194.6C271.14,-156.4 245.16,-71.46 189,-29 169.58,-14.31 141.63,-10.23 121.35,-9.41"/>
<polygon fill="midnightblue" stroke="midnightblue" points="276.98,-195.49 282.61,-204.46 283.8,-193.93 276.98,-195.49"/>
</g>
</g>
</svg>
