<?xml version="1.0" encoding="UTF-8" standalone="no"?>
<!DOCTYPE svg PUBLIC "-//W3C//DTD SVG 1.1//EN"
 "http://www.w3.org/Graphics/SVG/1.1/DTD/svg11.dtd">
<!-- Generated by graphviz version 2.49.3 (20211027.1534)
 -->
<!-- Title: gpuNUFFT::Dimensions::count Pages: 1 -->
<svg width="719pt" height="655pt"
 viewBox="0.00 0.00 719.00 654.50" xmlns="http://www.w3.org/2000/svg" xmlns:xlink="http://www.w3.org/1999/xlink">
<g id="graph0" class="graph" transform="scale(1 1) rotate(0) translate(4 650.5)">
<title>gpuNUFFT::Dimensions::count</title>
<!-- Node1 -->
<g id="node1" class="node">
<title>Node1</title>
<g id="a_node1"><a xlink:title="Compute total count of array length.">
<polygon fill="#bfbfbf" stroke="black" points="590,-275 590,-305 711,-305 711,-275 590,-275"/>
<text text-anchor="start" x="598" y="-293" font-family="FreeSans.ttf" font-size="10.00">gpuNUFFT::Dimensions</text>
<text text-anchor="middle" x="650.5" y="-282" font-family="FreeSans.ttf" font-size="10.00">::count</text>
</a>
</g>
</g>
<!-- Node2 -->
<g id="node2" class="node">
<title>Node2</title>
<g id="a_node2"><a xlink:href="classgpuNUFFT_1_1GpuNUFFTOperatorFactory.html#a4ad90751b7eff9bba51f2db5ffd425b6" target="_top" xlink:title="Function to check if the problem will fit into device memory.">
<polygon fill="none" stroke="black" points="383,-494 383,-524 554,-524 554,-494 383,-494"/>
<text text-anchor="start" x="391" y="-512" font-family="FreeSans.ttf" font-size="10.00">gpuNUFFT::GpuNUFFTOperator</text>
<text text-anchor="middle" x="468.5" y="-501" font-family="FreeSans.ttf" font-size="10.00">Factory::checkMemoryConsumption</text>
</a>
</g>
</g>
<!-- Node1&#45;&gt;Node2 -->
<g id="edge1" class="edge">
<title>Node1&#45;&gt;Node2</title>
<path fill="none" stroke="midnightblue" d="M643.39,-314.9C632.31,-355 605.16,-433.95 554,-479 547.11,-485.07 538.9,-489.94 530.36,-493.83"/>
<polygon fill="midnightblue" stroke="midnightblue" points="646.8,-315.69 645.98,-305.13 640.04,-313.9 646.8,-315.69"/>
</g>
<!-- Node3 -->
<g id="node3" class="node">
<title>Node3</title>
<g id="a_node3"><a xlink:href="classgpuNUFFT_1_1GpuNUFFTOperatorFactory.html#a82e185db6eda1edb359df5a580be7b37" target="_top" xlink:title="Computation of the deapodization function.">
<polygon fill="none" stroke="black" points="153,-616 153,-646 342,-646 342,-616 153,-616"/>
<text text-anchor="start" x="161" y="-634" font-family="FreeSans.ttf" font-size="10.00">gpuNUFFT::GpuNUFFTOperator</text>
<text text-anchor="middle" x="247.5" y="-623" font-family="FreeSans.ttf" font-size="10.00">Factory::computeDeapodizationFunction</text>
</a>
</g>
</g>
<!-- Node1&#45;&gt;Node3 -->
<g id="edge2" class="edge">
<title>Node1&#45;&gt;Node3</title>
<path fill="none" stroke="midnightblue" d="M641.37,-314.67C628.56,-349.57 600.25,-412.79 554,-446 490.69,-491.47 439.82,-431.63 383,-485 341.79,-523.7 387.92,-567.99 347,-607 343.43,-610.4 339.47,-613.34 335.23,-615.89"/>
<polygon fill="midnightblue" stroke="midnightblue" points="644.68,-315.82 644.72,-305.22 638.08,-313.48 644.68,-315.82"/>
</g>
<!-- Node4 -->
<g id="node4" class="node">
<title>Node4</title>
<g id="a_node4"><a xlink:href="classgpuNUFFT_1_1GpuNUFFTOperatorFactory.html#a62c51a180bf592a0fa82343ed7b4daed" target="_top" xlink:title="Compute sector centers array.">
<polygon fill="none" stroke="black" points="389.5,-406 389.5,-436 547.5,-436 547.5,-406 389.5,-406"/>
<text text-anchor="start" x="397.5" y="-424" font-family="FreeSans.ttf" font-size="10.00">gpuNUFFT::GpuNUFFTOperator</text>
<text text-anchor="middle" x="468.5" y="-413" font-family="FreeSans.ttf" font-size="10.00">Factory::computeSectorCenters</text>
</a>
</g>
</g>
<!-- Node1&#45;&gt;Node4 -->
<g id="edge3" class="edge">
<title>Node1&#45;&gt;Node4</title>
<path fill="none" stroke="midnightblue" d="M634.46,-313.58C617.7,-337.98 588.4,-375.46 554,-397 548.57,-400.4 542.65,-403.33 536.54,-405.85"/>
<polygon fill="midnightblue" stroke="midnightblue" points="637.39,-315.5 640.05,-305.24 631.58,-311.6 637.39,-315.5"/>
</g>
<!-- Node5 -->
<g id="node5" class="node">
<title>Node5</title>
<g id="a_node5"><a xlink:href="classgpuNUFFT_1_1GpuNUFFTOperatorFactory.html#a65d596418c34d74d383addd455469b5a" target="_top" xlink:title="Compute 2&#45;d sector centers array.">
<polygon fill="none" stroke="black" points="386,-357 386,-387 551,-387 551,-357 386,-357"/>
<text text-anchor="start" x="394" y="-375" font-family="FreeSans.ttf" font-size="10.00">gpuNUFFT::GpuNUFFTOperator</text>
<text text-anchor="middle" x="468.5" y="-364" font-family="FreeSans.ttf" font-size="10.00">Factory::computeSectorCenters2D</text>
</a>
</g>
</g>
<!-- Node1&#45;&gt;Node5 -->
<g id="edge4" class="edge">
<title>Node1&#45;&gt;Node5</title>
<path fill="none" stroke="midnightblue" d="M619.11,-310.81C600.85,-322.63 576.8,-337.01 554,-347 545.59,-350.68 536.48,-354.01 527.46,-356.95"/>
<polygon fill="midnightblue" stroke="midnightblue" points="621.15,-313.66 627.58,-305.25 617.31,-307.81 621.15,-313.66"/>
</g>
<!-- Node6 -->
<g id="node6" class="node">
<title>Node6</title>
<g id="a_node6"><a xlink:href="structgpuNUFFT_1_1Array.html#af426f56b5d7e05b6143acbdd51bac188" target="_top" xlink:title=" ">
<polygon fill="none" stroke="black" points="408,-318.5 408,-337.5 529,-337.5 529,-318.5 408,-318.5"/>
<text text-anchor="middle" x="468.5" y="-325.5" font-family="FreeSans.ttf" font-size="10.00">gpuNUFFT::Array::count</text>
</a>
</g>
</g>
<!-- Node1&#45;&gt;Node6 -->
<g id="edge5" class="edge">
<title>Node1&#45;&gt;Node6</title>
<path fill="none" stroke="midnightblue" d="M579.67,-304.74C557.83,-309.35 534.32,-314.32 514.65,-318.47"/>
<polygon fill="midnightblue" stroke="midnightblue" points="580.5,-308.14 589.56,-302.65 579.06,-301.29 580.5,-308.14"/>
</g>
<!-- Node17 -->
<g id="node17" class="node">
<title>Node17</title>
<g id="a_node17"><a xlink:href="gpuNUFFT__fft__tests_8cpp.html#a143d7141da78d4955eb9d9228cd5e65e" target="_top" xlink:title=" ">
<polygon fill="none" stroke="black" points="221,-147.5 221,-166.5 274,-166.5 274,-147.5 221,-147.5"/>
<text text-anchor="middle" x="247.5" y="-154.5" font-family="FreeSans.ttf" font-size="10.00">TEST_F</text>
</a>
</g>
</g>
<!-- Node1&#45;&gt;Node17 -->
<g id="edge26" class="edge">
<title>Node1&#45;&gt;Node17</title>
<path fill="none" stroke="midnightblue" d="M579.51,-304.22C521.22,-311.92 438.99,-312.67 383,-271 346.78,-244.04 381.55,-205.07 347,-176 326.75,-158.96 295.82,-155.45 274.03,-155.42"/>
<polygon fill="midnightblue" stroke="midnightblue" points="580.34,-307.64 589.74,-302.77 579.35,-300.71 580.34,-307.64"/>
</g>
<!-- Node18 -->
<g id="node18" class="node">
<title>Node18</title>
<g id="a_node18"><a xlink:href="classgpuNUFFT_1_1GpuNUFFTOperatorFactory.html#a0e941d590a7e5effed76f909dfa72bcc" target="_top" xlink:title="Create GpuNUFFT Operator.">
<polygon fill="none" stroke="black" points="384,-231 384,-261 553,-261 553,-231 384,-231"/>
<text text-anchor="start" x="392" y="-249" font-family="FreeSans.ttf" font-size="10.00">gpuNUFFT::GpuNUFFTOperator</text>
<text text-anchor="middle" x="468.5" y="-238" font-family="FreeSans.ttf" font-size="10.00">Factory::createGpuNUFFTOperator</text>
</a>
</g>
</g>
<!-- Node1&#45;&gt;Node18 -->
<g id="edge18" class="edge">
<title>Node1&#45;&gt;Node18</title>
<path fill="none" stroke="midnightblue" d="M579.7,-272.94C563.65,-269.01 546.69,-264.87 531.02,-261.04"/>
<polygon fill="midnightblue" stroke="midnightblue" points="579.02,-276.37 589.56,-275.35 580.68,-269.57 579.02,-276.37"/>
</g>
<!-- Node19 -->
<g id="node19" class="node">
<title>Node19</title>
<g id="a_node19"><a xlink:href="classGpuNUFFTPythonOperator.html#aee99f5b7d79d7a40c4a2475c9a439c59" target="_top" xlink:title=" ">
<polygon fill="none" stroke="black" points="401,-182 401,-212 536,-212 536,-182 401,-182"/>
<text text-anchor="start" x="409" y="-200" font-family="FreeSans.ttf" font-size="10.00">GpuNUFFTPythonOperator</text>
<text text-anchor="middle" x="468.5" y="-189" font-family="FreeSans.ttf" font-size="10.00">::estimate_density_comp</text>
</a>
</g>
</g>
<!-- Node1&#45;&gt;Node19 -->
<g id="edge19" class="edge">
<title>Node1&#45;&gt;Node19</title>
<path fill="none" stroke="midnightblue" d="M624.07,-268.33C605.63,-253.54 579.55,-234.44 554,-222 546.3,-218.25 537.92,-214.94 529.54,-212.07"/>
<polygon fill="midnightblue" stroke="midnightblue" points="622.02,-271.17 631.98,-274.78 626.45,-265.75 622.02,-271.17"/>
</g>
<!-- Node20 -->
<g id="node20" class="node">
<title>Node20</title>
<g id="a_node20"><a xlink:href="classGpuNUFFTPythonOperator.html#ad9168e25f62f4e47aefb50f2ea279b0d" target="_top" xlink:title=" ">
<polygon fill="none" stroke="black" points="398.5,-133 398.5,-163 538.5,-163 538.5,-133 398.5,-133"/>
<text text-anchor="start" x="406.5" y="-151" font-family="FreeSans.ttf" font-size="10.00">GpuNUFFTPythonOperator</text>
<text text-anchor="middle" x="468.5" y="-140" font-family="FreeSans.ttf" font-size="10.00">::GpuNUFFTPythonOperator</text>
</a>
</g>
</g>
<!-- Node1&#45;&gt;Node20 -->
<g id="edge21" class="edge">
<title>Node1&#45;&gt;Node20</title>
<path fill="none" stroke="midnightblue" d="M635.94,-265.91C619.77,-239.34 590.32,-197.16 554,-173 548.14,-169.1 541.66,-165.8 534.97,-163"/>
<polygon fill="midnightblue" stroke="midnightblue" points="632.98,-267.78 641.09,-274.6 639,-264.21 632.98,-267.78"/>
</g>
<!-- Node21 -->
<g id="node21" class="node">
<title>Node21</title>
<g id="a_node21"><a xlink:href="classgpuNUFFT_1_1GpuNUFFTOperator.html#a1d1ee62639349d3409ad96366b082c07" target="_top" xlink:title="Compute all neccessary meta information used in the gridding steps.">
<polygon fill="none" stroke="black" points="389.5,-68 389.5,-98 547.5,-98 547.5,-68 389.5,-68"/>
<text text-anchor="start" x="397.5" y="-86" font-family="FreeSans.ttf" font-size="10.00">gpuNUFFT::GpuNUFFTOperator</text>
<text text-anchor="middle" x="468.5" y="-75" font-family="FreeSans.ttf" font-size="10.00">::initGpuNUFFTInfo</text>
</a>
</g>
</g>
<!-- Node1&#45;&gt;Node21 -->
<g id="edge22" class="edge">
<title>Node1&#45;&gt;Node21</title>
<path fill="none" stroke="midnightblue" d="M640.66,-265.17C626.98,-229.79 597.61,-164.65 554,-124 542.31,-113.1 527.19,-104.54 512.97,-98.12"/>
<polygon fill="midnightblue" stroke="midnightblue" points="637.46,-266.6 644.26,-274.73 644.01,-264.14 637.46,-266.6"/>
</g>
<!-- Node24 -->
<g id="node24" class="node">
<title>Node24</title>
<g id="a_node24"><a xlink:href="gpuNUFFT__deapo__tests_8cpp.html#ab4a979b5876c35e61bdc8ef745674420" target="_top" xlink:title=" ">
<polygon fill="none" stroke="black" points="448,-29.5 448,-48.5 489,-48.5 489,-29.5 448,-29.5"/>
<text text-anchor="middle" x="468.5" y="-36.5" font-family="FreeSans.ttf" font-size="10.00">TEST</text>
</a>
</g>
</g>
<!-- Node1&#45;&gt;Node24 -->
<g id="edge25" class="edge">
<title>Node1&#45;&gt;Node24</title>
<path fill="none" stroke="midnightblue" d="M646.58,-264.76C639.65,-216.99 617.75,-113.3 554,-59 535.87,-43.55 507.93,-39.56 489.2,-38.76"/>
<polygon fill="midnightblue" stroke="midnightblue" points="643.13,-265.41 647.93,-274.86 650.07,-264.48 643.13,-265.41"/>
</g>
<!-- Node6&#45;&gt;Node3 -->
<g id="edge7" class="edge">
<title>Node6&#45;&gt;Node3</title>
<path fill="none" stroke="midnightblue" d="M398.27,-336.61C392.56,-339.52 387.33,-343.24 383,-348 304.79,-433.96 424.93,-520.78 347,-607 343.93,-610.39 340.47,-613.35 336.73,-615.91"/>
<polygon fill="midnightblue" stroke="midnightblue" points="399.73,-339.79 407.59,-332.68 397.01,-333.34 399.73,-339.79"/>
</g>
<!-- Node7 -->
<g id="node7" class="node">
<title>Node7</title>
<g id="a_node7"><a xlink:href="classgpuNUFFT_1_1GpuNUFFTOperatorFactory.html#afa72b607029c78d61b6e01d45077998e" target="_top" xlink:title="Assign the samples on the k&#45;space trajectory to its corresponding sector.">
<polygon fill="none" stroke="black" points="168.5,-567 168.5,-597 326.5,-597 326.5,-567 168.5,-567"/>
<text text-anchor="start" x="176.5" y="-585" font-family="FreeSans.ttf" font-size="10.00">gpuNUFFT::GpuNUFFTOperator</text>
<text text-anchor="middle" x="247.5" y="-574" font-family="FreeSans.ttf" font-size="10.00">Factory::assignSectors</text>
</a>
</g>
</g>
<!-- Node6&#45;&gt;Node7 -->
<g id="edge6" class="edge">
<title>Node6&#45;&gt;Node7</title>
<path fill="none" stroke="midnightblue" d="M398.43,-336.75C392.68,-339.63 387.4,-343.31 383,-348 318.17,-417.02 411.6,-488.76 347,-558 341.36,-564.05 334.46,-568.68 326.97,-572.22"/>
<polygon fill="midnightblue" stroke="midnightblue" points="399.89,-339.93 407.78,-332.86 397.2,-333.47 399.89,-339.93"/>
</g>
<!-- Node8 -->
<g id="node8" class="node">
<title>Node8</title>
<g id="a_node8"><a xlink:href="classgpuNUFFT_1_1GpuNUFFTOperatorFactory.html#ad951199a259576c45568997ccfac72dc" target="_top" xlink:title="Method to compute the sector processing order.">
<polygon fill="none" stroke="black" points="165.5,-518 165.5,-548 329.5,-548 329.5,-518 165.5,-518"/>
<text text-anchor="start" x="173.5" y="-536" font-family="FreeSans.ttf" font-size="10.00">gpuNUFFT::GpuNUFFTOperator</text>
<text text-anchor="middle" x="247.5" y="-525" font-family="FreeSans.ttf" font-size="10.00">Factory::computeProcessingOrder</text>
</a>
</g>
</g>
<!-- Node6&#45;&gt;Node8 -->
<g id="edge8" class="edge">
<title>Node6&#45;&gt;Node8</title>
<path fill="none" stroke="midnightblue" d="M398.4,-337.12C392.71,-339.93 387.45,-343.5 383,-348 331.48,-400.17 398.35,-456.66 347,-509 341.95,-514.15 335.98,-518.27 329.54,-521.55"/>
<polygon fill="midnightblue" stroke="midnightblue" points="399.74,-340.35 407.64,-333.29 397.07,-333.88 399.74,-340.35"/>
</g>
<!-- Node9 -->
<g id="node9" class="node">
<title>Node9</title>
<g id="a_node9"><a xlink:href="classgpuNUFFT_1_1GpuNUFFTOperatorFactory.html#ad915537942d302c8d192b964e6114f28" target="_top" xlink:title="Compute the boundaries of the assigned dataIndices per sector element.">
<polygon fill="none" stroke="black" points="165,-469 165,-499 330,-499 330,-469 165,-469"/>
<text text-anchor="start" x="173" y="-487" font-family="FreeSans.ttf" font-size="10.00">gpuNUFFT::GpuNUFFTOperator</text>
<text text-anchor="middle" x="247.5" y="-476" font-family="FreeSans.ttf" font-size="10.00">Factory::computeSectorDataCount</text>
</a>
</g>
</g>
<!-- Node6&#45;&gt;Node9 -->
<g id="edge9" class="edge">
<title>Node6&#45;&gt;Node9</title>
<path fill="none" stroke="midnightblue" d="M398.15,-337.87C392.63,-340.55 387.47,-343.87 383,-348 344.6,-383.49 385.28,-424.38 347,-460 341.97,-464.68 336.19,-468.48 330.01,-471.58"/>
<polygon fill="midnightblue" stroke="midnightblue" points="399.79,-340.99 407.73,-333.97 397.14,-334.5 399.79,-340.99"/>
</g>
<!-- Node10 -->
<g id="node10" class="node">
<title>Node10</title>
<g id="a_node10"><a xlink:href="classGpuNUFFTPythonOperator.html#a564644dc7ea9b8306cd6296ea6f1fca6" target="_top" xlink:title=" ">
<polygon fill="none" stroke="black" points="180,-420 180,-450 315,-450 315,-420 180,-420"/>
<text text-anchor="start" x="188" y="-438" font-family="FreeSans.ttf" font-size="10.00">GpuNUFFTPythonOperator</text>
<text text-anchor="middle" x="247.5" y="-427" font-family="FreeSans.ttf" font-size="10.00">::data_consistency</text>
</a>
</g>
</g>
<!-- Node6&#45;&gt;Node10 -->
<g id="edge10" class="edge">
<title>Node6&#45;&gt;Node10</title>
<path fill="none" stroke="midnightblue" d="M398.47,-339.15C392.96,-341.56 387.72,-344.47 383,-348 357.17,-367.31 372.76,-391.6 347,-411 337.65,-418.04 326.51,-423.04 315.14,-426.59"/>
<polygon fill="midnightblue" stroke="midnightblue" points="399.82,-342.37 407.93,-335.55 397.34,-335.83 399.82,-342.37"/>
</g>
<!-- Node12 -->
<g id="node12" class="node">
<title>Node12</title>
<g id="a_node12"><a xlink:href="classgpuNUFFT_1_1GpuNUFFTOperator.html#ada5bb598b923ca3e92e987982f3d0d5b" target="_top" xlink:title="Perform forward gridding operation on kspaceData already residing in GPU memory.">
<polygon fill="none" stroke="black" points="168.5,-371 168.5,-401 326.5,-401 326.5,-371 168.5,-371"/>
<text text-anchor="start" x="176.5" y="-389" font-family="FreeSans.ttf" font-size="10.00">gpuNUFFT::GpuNUFFTOperator</text>
<text text-anchor="middle" x="247.5" y="-378" font-family="FreeSans.ttf" font-size="10.00">::performForwardGpuNUFFT</text>
</a>
</g>
</g>
<!-- Node6&#45;&gt;Node12 -->
<g id="edge12" class="edge">
<title>Node6&#45;&gt;Node12</title>
<path fill="none" stroke="midnightblue" d="M412.01,-339.97C402.28,-342.4 392.29,-345.11 383,-348 366.61,-353.1 363.38,-356.85 347,-362 336.84,-365.2 325.98,-368.22 315.33,-370.98"/>
<polygon fill="midnightblue" stroke="midnightblue" points="413.12,-343.3 422.02,-337.55 411.47,-336.5 413.12,-343.3"/>
</g>
<!-- Node13 -->
<g id="node13" class="node">
<title>Node13</title>
<g id="a_node13"><a xlink:href="classgpuNUFFT_1_1GpuNUFFTOperator.html#a89e40ec1b777c8033bbc933c6535078c" target="_top" xlink:title="Perform Adjoint gridding operation on kspaceData already residing in GPU memory.">
<polygon fill="none" stroke="black" points="168.5,-322 168.5,-352 326.5,-352 326.5,-322 168.5,-322"/>
<text text-anchor="start" x="176.5" y="-340" font-family="FreeSans.ttf" font-size="10.00">gpuNUFFT::GpuNUFFTOperator</text>
<text text-anchor="middle" x="247.5" y="-329" font-family="FreeSans.ttf" font-size="10.00">::performGpuNUFFTAdj</text>
</a>
</g>
</g>
<!-- Node6&#45;&gt;Node13 -->
<g id="edge13" class="edge">
<title>Node6&#45;&gt;Node13</title>
<path fill="none" stroke="midnightblue" d="M397.74,-330.87C375.07,-331.8 349.78,-332.84 326.56,-333.79"/>
<polygon fill="midnightblue" stroke="midnightblue" points="398.1,-334.36 407.95,-330.45 397.81,-327.36 398.1,-334.36"/>
</g>
<!-- Node14 -->
<g id="node14" class="node">
<title>Node14</title>
<g id="a_node14"><a xlink:href="classgpuNUFFT_1_1GpuNUFFTOperator.html#a897f3ec26b76086e3cf174a4ce0c1c23" target="_top" xlink:title="Select data array in ordered manner.">
<polygon fill="none" stroke="black" points="168.5,-273 168.5,-303 326.5,-303 326.5,-273 168.5,-273"/>
<text text-anchor="start" x="176.5" y="-291" font-family="FreeSans.ttf" font-size="10.00">gpuNUFFT::GpuNUFFTOperator</text>
<text text-anchor="middle" x="247.5" y="-280" font-family="FreeSans.ttf" font-size="10.00">::selectOrdered</text>
</a>
</g>
</g>
<!-- Node6&#45;&gt;Node14 -->
<g id="edge14" class="edge">
<title>Node6&#45;&gt;Node14</title>
<path fill="none" stroke="midnightblue" d="M405.46,-316.67C381.02,-312.2 352.67,-307.03 326.84,-302.31"/>
<polygon fill="midnightblue" stroke="midnightblue" points="404.86,-320.12 415.32,-318.47 406.11,-313.23 404.86,-320.12"/>
</g>
<!-- Node15 -->
<g id="node15" class="node">
<title>Node15</title>
<g id="a_node15"><a xlink:href="classgpuNUFFT_1_1GpuNUFFTOperatorFactory.html#aae7ea9905b763b7b8cc5c36533257163" target="_top" xlink:title=" ">
<polygon fill="none" stroke="black" points="168.5,-224 168.5,-254 326.5,-254 326.5,-224 168.5,-224"/>
<text text-anchor="start" x="176.5" y="-242" font-family="FreeSans.ttf" font-size="10.00">gpuNUFFT::GpuNUFFTOperator</text>
<text text-anchor="middle" x="247.5" y="-231" font-family="FreeSans.ttf" font-size="10.00">Factory::sortVector</text>
</a>
</g>
</g>
<!-- Node6&#45;&gt;Node15 -->
<g id="edge15" class="edge">
<title>Node6&#45;&gt;Node15</title>
<path fill="none" stroke="midnightblue" d="M406.66,-315.22C398.39,-312.21 390.26,-308.52 383,-304 362.7,-291.35 367.47,-276.36 347,-264 340.58,-260.12 333.58,-256.85 326.36,-254.07"/>
<polygon fill="midnightblue" stroke="midnightblue" points="405.8,-318.63 416.39,-318.45 408,-311.98 405.8,-318.63"/>
</g>
<!-- Node16 -->
<g id="node16" class="node">
<title>Node16</title>
<g id="a_node16"><a xlink:href="gpuNUFFT__forward__tests_8cpp.html#a6e7e337161ef805951437dbf21112e43" target="_top" xlink:title=" ">
<polygon fill="none" stroke="black" points="227,-185.5 227,-204.5 268,-204.5 268,-185.5 227,-185.5"/>
<text text-anchor="middle" x="247.5" y="-192.5" font-family="FreeSans.ttf" font-size="10.00">TEST</text>
</a>
</g>
</g>
<!-- Node6&#45;&gt;Node16 -->
<g id="edge16" class="edge">
<title>Node6&#45;&gt;Node16</title>
<path fill="none" stroke="midnightblue" d="M398.12,-314.22C392.65,-311.42 387.51,-308.05 383,-304 351.25,-275.5 379.82,-242.27 347,-215 324.72,-196.49 289.92,-193.57 268.2,-193.81"/>
<polygon fill="midnightblue" stroke="midnightblue" points="397.03,-317.56 407.59,-318.42 399.87,-311.17 397.03,-317.56"/>
</g>
<!-- Node6&#45;&gt;Node17 -->
<g id="edge17" class="edge">
<title>Node6&#45;&gt;Node17</title>
<path fill="none" stroke="midnightblue" d="M398.56,-315.23C392.84,-312.23 387.52,-308.53 383,-304 341.27,-262.16 390.5,-216 347,-176 327.52,-158.08 296.44,-154.74 274.41,-154.99"/>
<polygon fill="midnightblue" stroke="midnightblue" points="397.28,-318.49 407.83,-319.41 400.15,-312.11 397.28,-318.49"/>
</g>
<!-- Node11 -->
<g id="node11" class="node">
<title>Node11</title>
<g id="a_node11"><a xlink:href="python__bindings_8cpp.html#ad1a7eaf0d60c015a4df3da44ddf58e27" target="_top" xlink:title=" ">
<polygon fill="none" stroke="black" points="0,-267.5 0,-286.5 112,-286.5 112,-267.5 0,-267.5"/>
<text text-anchor="middle" x="56" y="-274.5" font-family="FreeSans.ttf" font-size="10.00">PYBIND11_MODULE</text>
</a>
</g>
</g>
<!-- Node10&#45;&gt;Node11 -->
<g id="edge11" class="edge">
<title>Node10&#45;&gt;Node11</title>
<path fill="none" stroke="midnightblue" d="M170.11,-422.48C162.28,-419.44 154.73,-415.67 148,-411 100.41,-377.97 70.48,-311.33 60.61,-286.56"/>
<polygon fill="midnightblue" stroke="midnightblue" points="169.18,-425.86 179.78,-425.83 171.48,-419.24 169.18,-425.86"/>
</g>
<!-- Node19&#45;&gt;Node11 -->
<g id="edge20" class="edge">
<title>Node19&#45;&gt;Node11</title>
<path fill="none" stroke="midnightblue" d="M392.56,-177.95C389.27,-176.42 386.06,-174.77 383,-173 363.68,-161.83 367.68,-146.39 347,-138 265.05,-104.73 225.8,-95.94 148,-138 95.22,-166.53 68.13,-240.46 59.83,-267.18"/>
<polygon fill="midnightblue" stroke="midnightblue" points="391.45,-181.28 402.02,-181.96 394.18,-174.84 391.45,-181.28"/>
</g>
<!-- Node22 -->
<g id="node22" class="node">
<title>Node22</title>
<g id="a_node22"><a xlink:href="classgpuNUFFT_1_1BalancedGpuNUFFTOperator.html#aebed0b033d85b71c1e48132203b7caed" target="_top" xlink:title="Virtual method to perform precomputation of all neccessary meta information used in the gridding step...">
<polygon fill="none" stroke="black" points="148,-60 148,-90 347,-90 347,-60 148,-60"/>
<text text-anchor="start" x="156" y="-78" font-family="FreeSans.ttf" font-size="10.00">gpuNUFFT::BalancedGpuNUFFTOperator</text>
<text text-anchor="middle" x="247.5" y="-67" font-family="FreeSans.ttf" font-size="10.00">::initAndCopyGpuNUFFTInfo</text>
</a>
</g>
</g>
<!-- Node21&#45;&gt;Node22 -->
<g id="edge23" class="edge">
<title>Node21&#45;&gt;Node22</title>
<path fill="none" stroke="midnightblue" d="M379.35,-79.78C368.79,-79.39 357.97,-79 347.28,-78.61"/>
<polygon fill="midnightblue" stroke="midnightblue" points="379.24,-83.28 389.36,-80.15 379.5,-76.28 379.24,-83.28"/>
</g>
<!-- Node23 -->
<g id="node23" class="node">
<title>Node23</title>
<g id="a_node23"><a xlink:href="classgpuNUFFT_1_1BalancedTextureGpuNUFFTOperator.html#a4cfe8965eea8ee447fbffc138eefe588" target="_top" xlink:title="Virtual method to perform precomputation of all neccessary meta information used in the gridding step...">
<polygon fill="none" stroke="black" points="158,-0.5 158,-41.5 337,-41.5 337,-0.5 158,-0.5"/>
<text text-anchor="start" x="166" y="-29.5" font-family="FreeSans.ttf" font-size="10.00">gpuNUFFT::BalancedTexture</text>
<text text-anchor="start" x="166" y="-18.5" font-family="FreeSans.ttf" font-size="10.00">GpuNUFFTOperator::initAndCopyGpu</text>
<text text-anchor="middle" x="247.5" y="-7.5" font-family="FreeSans.ttf" font-size="10.00">NUFFTInfo</text>
</a>
</g>
</g>
<!-- Node21&#45;&gt;Node23 -->
<g id="edge24" class="edge">
<title>Node21&#45;&gt;Node23</title>
<path fill="none" stroke="midnightblue" d="M404.73,-65.23C378.69,-57.86 348.31,-49.26 321.3,-41.61"/>
<polygon fill="midnightblue" stroke="midnightblue" points="403.91,-68.64 414.49,-67.99 405.82,-61.9 403.91,-68.64"/>
</g>
</g>
</svg>
