<?xml version="1.0" encoding="UTF-8" standalone="no"?>
<!DOCTYPE svg PUBLIC "-//W3C//DTD SVG 1.1//EN"
 "http://www.w3.org/Graphics/SVG/1.1/DTD/svg11.dtd">
<!-- Generated by graphviz version 2.49.3 (20211027.1534)
 -->
<!-- Title: gpuNUFFT::GpuArray&lt; T &gt; Pages: 1 -->
<svg width="141pt" height="152pt"
 viewBox="0.00 0.00 141.00 152.00" xmlns="http://www.w3.org/2000/svg" xmlns:xlink="http://www.w3.org/1999/xlink">
<g id="graph0" class="graph" transform="scale(1 1) rotate(0) translate(4 148)">
<title>gpuNUFFT::GpuArray&lt; T &gt;</title>
<!-- Node1 -->
<g id="node1" class="node">
<title>Node1</title>
<g id="a_node1"><a xlink:title="Array container consisting of raw data, which is expected to be allocated on the GPU,...">
<polygon fill="#bfbfbf" stroke="black" points="0,-0.5 0,-19.5 133,-19.5 133,-0.5 0,-0.5"/>
<text text-anchor="middle" x="66.5" y="-7.5" font-family="FreeSans.ttf" font-size="10.00">gpuNUFFT::GpuArray&lt; T &gt;</text>
</a>
</g>
</g>
<!-- Node2 -->
<g id="node2" class="node">
<title>Node2</title>
<g id="a_node2"><a xlink:href="structgpuNUFFT_1_1Array.html" target="_top" xlink:title="Array container consisting of raw data and gpuNUFFT::Dimensions descriptor.">
<polygon fill="none" stroke="black" points="9,-57.5 9,-76.5 124,-76.5 124,-57.5 9,-57.5"/>
<text text-anchor="middle" x="66.5" y="-64.5" font-family="FreeSans.ttf" font-size="10.00">gpuNUFFT::Array&lt; T &gt;</text>
</a>
</g>
</g>
<!-- Node2&#45;&gt;Node1 -->
<g id="edge1" class="edge">
<title>Node2&#45;&gt;Node1</title>
<path fill="none" stroke="midnightblue" d="M66.5,-47.12C66.5,-37.82 66.5,-27.06 66.5,-19.71"/>
<polygon fill="midnightblue" stroke="midnightblue" points="63,-47.41 66.5,-57.41 70,-47.41 63,-47.41"/>
</g>
<!-- Node3 -->
<g id="node3" class="node">
<title>Node3</title>
<g id="a_node3"><a xlink:href="structgpuNUFFT_1_1Dimensions.html" target="_top" xlink:title="Data dimension struct.">
<polygon fill="none" stroke="black" points="6,-124.5 6,-143.5 127,-143.5 127,-124.5 6,-124.5"/>
<text text-anchor="middle" x="66.5" y="-131.5" font-family="FreeSans.ttf" font-size="10.00">gpuNUFFT::Dimensions</text>
</a>
</g>
</g>
<!-- Node3&#45;&gt;Node2 -->
<g id="edge2" class="edge">
<title>Node3&#45;&gt;Node2</title>
<path fill="none" stroke="#9a32cd" stroke-dasharray="5,2" d="M66.5,-114.04C66.5,-101.67 66.5,-86.12 66.5,-76.63"/>
<polygon fill="#9a32cd" stroke="#9a32cd" points="63,-114.23 66.5,-124.23 70,-114.23 63,-114.23"/>
<text text-anchor="middle" x="76" y="-98" font-family="FreeSans.ttf" font-size="10.00"> dim</text>
</g>
</g>
</svg>
