<?xml version="1.0" encoding="UTF-8" standalone="no"?>
<!DOCTYPE svg PUBLIC "-//W3C//DTD SVG 1.1//EN"
 "http://www.w3.org/Graphics/SVG/1.1/DTD/svg11.dtd">
<!-- Generated by graphviz version 2.49.3 (20211027.1534)
 -->
<!-- Title: gpuNUFFT::Dimensions::count Pages: 1 -->
<svg width="890pt" height="617pt"
 viewBox="0.00 0.00 890.00 616.50" xmlns="http://www.w3.org/2000/svg" xmlns:xlink="http://www.w3.org/1999/xlink">
<g id="graph0" class="graph" transform="scale(1 1) rotate(0) translate(4 612.5)">
<title>gpuNUFFT::Dimensions::count</title>
<!-- Node1 -->
<g id="node1" class="node">
<title>Node1</title>
<g id="a_node1"><a xlink:title="Compute total count of array length.">
<polygon fill="#bfbfbf" stroke="black" points="761,-265 761,-295 882,-295 882,-265 761,-265"/>
<text text-anchor="start" x="769" y="-283" font-family="FreeSans.ttf" font-size="10.00">gpuNUFFT::Dimensions</text>
<text text-anchor="middle" x="821.5" y="-272" font-family="FreeSans.ttf" font-size="10.00">::count</text>
</a>
</g>
</g>
<!-- Node2 -->
<g id="node2" class="node">
<title>Node2</title>
<g id="a_node2"><a xlink:href="classgpuNUFFT_1_1GpuNUFFTOperatorFactory.html#a4ad90751b7eff9bba51f2db5ffd425b6" target="_top" xlink:title="Function to check if the problem will fit into device memory.">
<polygon fill="none" stroke="black" points="554,-465 554,-495 725,-495 725,-465 554,-465"/>
<text text-anchor="start" x="562" y="-483" font-family="FreeSans.ttf" font-size="10.00">gpuNUFFT::GpuNUFFTOperator</text>
<text text-anchor="middle" x="639.5" y="-472" font-family="FreeSans.ttf" font-size="10.00">Factory::checkMemoryConsumption</text>
</a>
</g>
</g>
<!-- Node1&#45;&gt;Node2 -->
<g id="edge1" class="edge">
<title>Node1&#45;&gt;Node2</title>
<path fill="none" stroke="midnightblue" d="M812.8,-304.99C800.24,-341.8 771.89,-410.5 725,-450 717.74,-456.12 709.14,-461.02 700.25,-464.95"/>
<polygon fill="midnightblue" stroke="midnightblue" points="816.26,-305.67 816.07,-295.08 809.62,-303.48 816.26,-305.67"/>
</g>
<!-- Node3 -->
<g id="node3" class="node">
<title>Node3</title>
<g id="a_node3"><a xlink:href="classgpuNUFFT_1_1GpuNUFFTOperatorFactory.html#a82e185db6eda1edb359df5a580be7b37" target="_top" xlink:title="Computation of the deapodization function.">
<polygon fill="none" stroke="black" points="324,-578 324,-608 513,-608 513,-578 324,-578"/>
<text text-anchor="start" x="332" y="-596" font-family="FreeSans.ttf" font-size="10.00">gpuNUFFT::GpuNUFFTOperator</text>
<text text-anchor="middle" x="418.5" y="-585" font-family="FreeSans.ttf" font-size="10.00">Factory::computeDeapodizationFunction</text>
</a>
</g>
</g>
<!-- Node1&#45;&gt;Node3 -->
<g id="edge2" class="edge">
<title>Node1&#45;&gt;Node3</title>
<path fill="none" stroke="midnightblue" d="M810.3,-304.4C795.97,-335.55 766.87,-388.78 725,-417 660.36,-460.57 611.39,-403.25 554,-456 515.19,-491.67 556.54,-533.04 518,-569 514.4,-572.36 510.4,-575.28 506.15,-577.8"/>
<polygon fill="midnightblue" stroke="midnightblue" points="813.56,-305.68 814.43,-295.12 807.16,-302.84 813.56,-305.68"/>
</g>
<!-- Node4 -->
<g id="node4" class="node">
<title>Node4</title>
<g id="a_node4"><a xlink:href="classgpuNUFFT_1_1GpuNUFFTOperatorFactory.html#a62c51a180bf592a0fa82343ed7b4daed" target="_top" xlink:title="Compute sector centers array.">
<polygon fill="none" stroke="black" points="560.5,-377 560.5,-407 718.5,-407 718.5,-377 560.5,-377"/>
<text text-anchor="start" x="568.5" y="-395" font-family="FreeSans.ttf" font-size="10.00">gpuNUFFT::GpuNUFFTOperator</text>
<text text-anchor="middle" x="639.5" y="-384" font-family="FreeSans.ttf" font-size="10.00">Factory::computeSectorCenters</text>
</a>
</g>
</g>
<!-- Node1&#45;&gt;Node4 -->
<g id="edge3" class="edge">
<title>Node1&#45;&gt;Node4</title>
<path fill="none" stroke="midnightblue" d="M801.46,-302.77C783.63,-322.7 755.25,-351.05 725,-368 718.88,-371.43 712.23,-374.4 705.44,-376.97"/>
<polygon fill="midnightblue" stroke="midnightblue" points="804.25,-304.89 808.21,-295.06 798.99,-300.28 804.25,-304.89"/>
</g>
<!-- Node5 -->
<g id="node5" class="node">
<title>Node5</title>
<g id="a_node5"><a xlink:href="classgpuNUFFT_1_1GpuNUFFTOperatorFactory.html#a65d596418c34d74d383addd455469b5a" target="_top" xlink:title="Compute 2&#45;d sector centers array.">
<polygon fill="none" stroke="black" points="557,-328 557,-358 722,-358 722,-328 557,-328"/>
<text text-anchor="start" x="565" y="-346" font-family="FreeSans.ttf" font-size="10.00">gpuNUFFT::GpuNUFFTOperator</text>
<text text-anchor="middle" x="639.5" y="-335" font-family="FreeSans.ttf" font-size="10.00">Factory::computeSectorCenters2D</text>
</a>
</g>
</g>
<!-- Node1&#45;&gt;Node5 -->
<g id="edge4" class="edge">
<title>Node1&#45;&gt;Node5</title>
<path fill="none" stroke="midnightblue" d="M775.42,-298.92C759.59,-305.29 741.62,-312.25 725,-318 715.02,-321.45 704.29,-324.86 693.92,-328"/>
<polygon fill="midnightblue" stroke="midnightblue" points="777.02,-302.04 784.96,-295.03 774.38,-295.56 777.02,-302.04"/>
</g>
<!-- Node6 -->
<g id="node6" class="node">
<title>Node6</title>
<g id="a_node6"><a xlink:href="structgpuNUFFT_1_1Array.html#af426f56b5d7e05b6143acbdd51bac188" target="_top" xlink:title=" ">
<polygon fill="none" stroke="black" points="579,-289.5 579,-308.5 700,-308.5 700,-289.5 579,-289.5"/>
<text text-anchor="middle" x="639.5" y="-296.5" font-family="FreeSans.ttf" font-size="10.00">gpuNUFFT::Array::count</text>
</a>
</g>
</g>
<!-- Node1&#45;&gt;Node6 -->
<g id="edge5" class="edge">
<title>Node1&#45;&gt;Node6</title>
<path fill="none" stroke="midnightblue" d="M750.38,-287.4C733.79,-289.15 716.25,-291 700.18,-292.7"/>
<polygon fill="midnightblue" stroke="midnightblue" points="750.99,-290.86 760.56,-286.33 750.25,-283.9 750.99,-290.86"/>
</g>
<!-- Node18 -->
<g id="node18" class="node">
<title>Node18</title>
<g id="a_node18"><a xlink:href="gpuNUFFT__fft__tests_8cpp.html#a143d7141da78d4955eb9d9228cd5e65e" target="_top" xlink:title=" ">
<polygon fill="none" stroke="black" points="392,-109.5 392,-128.5 445,-128.5 445,-109.5 392,-109.5"/>
<text text-anchor="middle" x="418.5" y="-116.5" font-family="FreeSans.ttf" font-size="10.00">TEST_F</text>
</a>
</g>
</g>
<!-- Node1&#45;&gt;Node18 -->
<g id="edge25" class="edge">
<title>Node1&#45;&gt;Node18</title>
<path fill="none" stroke="midnightblue" d="M750.52,-278.12C681.8,-274.87 583.15,-266.04 554,-242 516.26,-210.88 554.96,-170.03 518,-138 497.99,-120.66 467.02,-117.22 445.16,-117.28"/>
<polygon fill="midnightblue" stroke="midnightblue" points="750.71,-281.63 760.86,-278.57 751.02,-274.63 750.71,-281.63"/>
</g>
<!-- Node19 -->
<g id="node19" class="node">
<title>Node19</title>
<g id="a_node19"><a xlink:href="classgpuNUFFT_1_1GpuNUFFTOperatorFactory.html#a0e941d590a7e5effed76f909dfa72bcc" target="_top" xlink:title="Create GpuNUFFT Operator.">
<polygon fill="none" stroke="black" points="555,-202 555,-232 724,-232 724,-202 555,-202"/>
<text text-anchor="start" x="563" y="-220" font-family="FreeSans.ttf" font-size="10.00">gpuNUFFT::GpuNUFFTOperator</text>
<text text-anchor="middle" x="639.5" y="-209" font-family="FreeSans.ttf" font-size="10.00">Factory::createGpuNUFFTOperator</text>
</a>
</g>
</g>
<!-- Node1&#45;&gt;Node19 -->
<g id="edge19" class="edge">
<title>Node1&#45;&gt;Node19</title>
<path fill="none" stroke="midnightblue" d="M767.78,-261.55C740.99,-252.17 708.86,-240.92 683.57,-232.08"/>
<polygon fill="midnightblue" stroke="midnightblue" points="766.79,-264.91 777.39,-264.91 769.1,-258.3 766.79,-264.91"/>
</g>
<!-- Node20 -->
<g id="node20" class="node">
<title>Node20</title>
<g id="a_node20"><a xlink:href="classGpuNUFFTPythonOperator.html#ad9168e25f62f4e47aefb50f2ea279b0d" target="_top" xlink:title=" ">
<polygon fill="none" stroke="black" points="569.5,-153 569.5,-183 709.5,-183 709.5,-153 569.5,-153"/>
<text text-anchor="start" x="577.5" y="-171" font-family="FreeSans.ttf" font-size="10.00">GpuNUFFTPythonOperator</text>
<text text-anchor="middle" x="639.5" y="-160" font-family="FreeSans.ttf" font-size="10.00">::GpuNUFFTPythonOperator</text>
</a>
</g>
</g>
<!-- Node1&#45;&gt;Node20 -->
<g id="edge20" class="edge">
<title>Node1&#45;&gt;Node20</title>
<path fill="none" stroke="midnightblue" d="M801.05,-257.24C783.14,-237.61 754.88,-209.84 725,-193 718.2,-189.17 710.76,-185.87 703.2,-183.05"/>
<polygon fill="midnightblue" stroke="midnightblue" points="798.57,-259.71 807.85,-264.84 803.79,-255.05 798.57,-259.71"/>
</g>
<!-- Node21 -->
<g id="node21" class="node">
<title>Node21</title>
<g id="a_node21"><a xlink:href="classgpuNUFFT_1_1GpuNUFFTOperator.html#a1d1ee62639349d3409ad96366b082c07" target="_top" xlink:title="Compute all neccessary meta information used in the gridding steps.">
<polygon fill="none" stroke="black" points="560.5,-82 560.5,-112 718.5,-112 718.5,-82 560.5,-82"/>
<text text-anchor="start" x="568.5" y="-100" font-family="FreeSans.ttf" font-size="10.00">gpuNUFFT::GpuNUFFTOperator</text>
<text text-anchor="middle" x="639.5" y="-89" font-family="FreeSans.ttf" font-size="10.00">::initGpuNUFFTInfo</text>
</a>
</g>
</g>
<!-- Node1&#45;&gt;Node21 -->
<g id="edge21" class="edge">
<title>Node1&#45;&gt;Node21</title>
<path fill="none" stroke="midnightblue" d="M807.95,-255.74C791.85,-226.43 761.6,-176.96 725,-144 710.53,-130.97 691.82,-120.1 675.69,-112.1"/>
<polygon fill="midnightblue" stroke="midnightblue" points="805.03,-257.71 812.85,-264.86 811.2,-254.39 805.03,-257.71"/>
</g>
<!-- Node24 -->
<g id="node24" class="node">
<title>Node24</title>
<g id="a_node24"><a xlink:href="gpuNUFFT__deapo__tests_8cpp.html#ab4a979b5876c35e61bdc8ef745674420" target="_top" xlink:title=" ">
<polygon fill="none" stroke="black" points="619,-43.5 619,-62.5 660,-62.5 660,-43.5 619,-43.5"/>
<text text-anchor="middle" x="639.5" y="-50.5" font-family="FreeSans.ttf" font-size="10.00">TEST</text>
</a>
</g>
</g>
<!-- Node1&#45;&gt;Node24 -->
<g id="edge24" class="edge">
<title>Node1&#45;&gt;Node24</title>
<path fill="none" stroke="midnightblue" d="M816.41,-255.02C807.82,-210.93 783.62,-119.48 725,-72 706.54,-57.05 678.68,-53.31 660.05,-52.65"/>
<polygon fill="midnightblue" stroke="midnightblue" points="812.98,-255.71 818.23,-264.91 819.86,-254.44 812.98,-255.71"/>
</g>
<!-- Node6&#45;&gt;Node3 -->
<g id="edge7" class="edge">
<title>Node6&#45;&gt;Node3</title>
<path fill="none" stroke="midnightblue" d="M569.3,-307.63C563.58,-310.53 558.34,-314.25 554,-319 478.25,-401.85 593.48,-485.91 518,-569 514.92,-572.39 511.46,-575.33 507.71,-577.9"/>
<polygon fill="midnightblue" stroke="midnightblue" points="570.76,-310.81 578.62,-303.71 568.04,-304.36 570.76,-310.81"/>
</g>
<!-- Node7 -->
<g id="node7" class="node">
<title>Node7</title>
<g id="a_node7"><a xlink:href="classgpuNUFFT_1_1GpuNUFFTOperatorFactory.html#afa72b607029c78d61b6e01d45077998e" target="_top" xlink:title="Assign the samples on the k&#45;space trajectory to its corresponding sector.">
<polygon fill="none" stroke="black" points="339.5,-529 339.5,-559 497.5,-559 497.5,-529 339.5,-529"/>
<text text-anchor="start" x="347.5" y="-547" font-family="FreeSans.ttf" font-size="10.00">gpuNUFFT::GpuNUFFTOperator</text>
<text text-anchor="middle" x="418.5" y="-536" font-family="FreeSans.ttf" font-size="10.00">Factory::assignSectors</text>
</a>
</g>
</g>
<!-- Node6&#45;&gt;Node7 -->
<g id="edge6" class="edge">
<title>Node6&#45;&gt;Node7</title>
<path fill="none" stroke="midnightblue" d="M569.47,-307.79C563.71,-310.66 558.42,-314.33 554,-319 491.62,-384.92 580.16,-453.88 518,-520 512.33,-526.03 505.43,-530.65 497.93,-534.18"/>
<polygon fill="midnightblue" stroke="midnightblue" points="570.93,-310.97 578.82,-303.9 568.25,-304.5 570.93,-310.97"/>
</g>
<!-- Node8 -->
<g id="node8" class="node">
<title>Node8</title>
<g id="a_node8"><a xlink:href="classgpuNUFFT_1_1GpuNUFFTOperatorFactory.html#ad951199a259576c45568997ccfac72dc" target="_top" xlink:title="Method to compute the sector processing order.">
<polygon fill="none" stroke="black" points="336.5,-480 336.5,-510 500.5,-510 500.5,-480 336.5,-480"/>
<text text-anchor="start" x="344.5" y="-498" font-family="FreeSans.ttf" font-size="10.00">gpuNUFFT::GpuNUFFTOperator</text>
<text text-anchor="middle" x="418.5" y="-487" font-family="FreeSans.ttf" font-size="10.00">Factory::computeProcessingOrder</text>
</a>
</g>
</g>
<!-- Node6&#45;&gt;Node8 -->
<g id="edge8" class="edge">
<title>Node6&#45;&gt;Node8</title>
<path fill="none" stroke="midnightblue" d="M569.46,-308.18C563.76,-310.98 558.48,-314.52 554,-319 504.91,-368.09 566.93,-421.75 518,-471 513.04,-475.99 507.22,-480.01 500.94,-483.24"/>
<polygon fill="midnightblue" stroke="midnightblue" points="570.8,-311.41 578.72,-304.36 568.14,-304.94 570.8,-311.41"/>
</g>
<!-- Node9 -->
<g id="node9" class="node">
<title>Node9</title>
<g id="a_node9"><a xlink:href="classgpuNUFFT_1_1GpuNUFFTOperatorFactory.html#ad915537942d302c8d192b964e6114f28" target="_top" xlink:title="Compute the boundaries of the assigned dataIndices per sector element.">
<polygon fill="none" stroke="black" points="336,-431 336,-461 501,-461 501,-431 336,-431"/>
<text text-anchor="start" x="344" y="-449" font-family="FreeSans.ttf" font-size="10.00">gpuNUFFT::GpuNUFFTOperator</text>
<text text-anchor="middle" x="418.5" y="-438" font-family="FreeSans.ttf" font-size="10.00">Factory::computeSectorDataCount</text>
</a>
</g>
</g>
<!-- Node6&#45;&gt;Node9 -->
<g id="edge9" class="edge">
<title>Node6&#45;&gt;Node9</title>
<path fill="none" stroke="midnightblue" d="M569.26,-308.99C563.71,-311.64 558.52,-314.93 554,-319 517.98,-351.46 553.92,-389.42 518,-422 513.05,-426.49 507.39,-430.18 501.36,-433.21"/>
<polygon fill="midnightblue" stroke="midnightblue" points="570.9,-312.11 578.86,-305.12 568.28,-305.62 570.9,-312.11"/>
</g>
<!-- Node10 -->
<g id="node10" class="node">
<title>Node10</title>
<g id="a_node10"><a xlink:href="classgpuNUFFT_1_1GpuNUFFTOperator.html#a7ac11881773486cdca07845299688268" target="_top" xlink:title=" ">
<polygon fill="none" stroke="black" points="339.5,-382 339.5,-412 497.5,-412 497.5,-382 339.5,-382"/>
<text text-anchor="start" x="347.5" y="-400" font-family="FreeSans.ttf" font-size="10.00">gpuNUFFT::GpuNUFFTOperator</text>
<text text-anchor="middle" x="418.5" y="-389" font-family="FreeSans.ttf" font-size="10.00">::estimate_density_comp</text>
</a>
</g>
</g>
<!-- Node6&#45;&gt;Node10 -->
<g id="edge10" class="edge">
<title>Node6&#45;&gt;Node10</title>
<path fill="none" stroke="midnightblue" d="M569.05,-310.78C563.74,-313.06 558.64,-315.77 554,-319 530.32,-335.47 541.63,-356.45 518,-373 511.8,-377.34 504.9,-380.9 497.72,-383.82"/>
<polygon fill="midnightblue" stroke="midnightblue" points="570.67,-313.92 578.81,-307.14 568.22,-307.36 570.67,-313.92"/>
</g>
<!-- Node13 -->
<g id="node13" class="node">
<title>Node13</title>
<g id="a_node13"><a xlink:href="classgpuNUFFT_1_1GpuNUFFTOperator.html#ada5bb598b923ca3e92e987982f3d0d5b" target="_top" xlink:title="Perform forward gridding operation on kspaceData already residing in GPU memory.">
<polygon fill="none" stroke="black" points="339.5,-333 339.5,-363 497.5,-363 497.5,-333 339.5,-333"/>
<text text-anchor="start" x="347.5" y="-351" font-family="FreeSans.ttf" font-size="10.00">gpuNUFFT::GpuNUFFTOperator</text>
<text text-anchor="middle" x="418.5" y="-340" font-family="FreeSans.ttf" font-size="10.00">::performForwardGpuNUFFT</text>
</a>
</g>
</g>
<!-- Node6&#45;&gt;Node13 -->
<g id="edge13" class="edge">
<title>Node6&#45;&gt;Node13</title>
<path fill="none" stroke="midnightblue" d="M586.24,-310.69C556.46,-317.36 518.83,-325.77 486.86,-332.93"/>
<polygon fill="midnightblue" stroke="midnightblue" points="587.02,-314.1 596.01,-308.51 585.49,-307.27 587.02,-314.1"/>
</g>
<!-- Node14 -->
<g id="node14" class="node">
<title>Node14</title>
<g id="a_node14"><a xlink:href="classgpuNUFFT_1_1GpuNUFFTOperator.html#a89e40ec1b777c8033bbc933c6535078c" target="_top" xlink:title="Perform Adjoint gridding operation on kspaceData already residing in GPU memory.">
<polygon fill="none" stroke="black" points="339.5,-284 339.5,-314 497.5,-314 497.5,-284 339.5,-284"/>
<text text-anchor="start" x="347.5" y="-302" font-family="FreeSans.ttf" font-size="10.00">gpuNUFFT::GpuNUFFTOperator</text>
<text text-anchor="middle" x="418.5" y="-291" font-family="FreeSans.ttf" font-size="10.00">::performGpuNUFFTAdj</text>
</a>
</g>
</g>
<!-- Node6&#45;&gt;Node14 -->
<g id="edge14" class="edge">
<title>Node6&#45;&gt;Node14</title>
<path fill="none" stroke="midnightblue" d="M568.74,-299C546.07,-299 520.78,-299 497.56,-299"/>
<polygon fill="midnightblue" stroke="midnightblue" points="568.95,-302.5 578.95,-299 568.95,-295.5 568.95,-302.5"/>
</g>
<!-- Node15 -->
<g id="node15" class="node">
<title>Node15</title>
<g id="a_node15"><a xlink:href="classgpuNUFFT_1_1GpuNUFFTOperator.html#a897f3ec26b76086e3cf174a4ce0c1c23" target="_top" xlink:title="Select data array in ordered manner.">
<polygon fill="none" stroke="black" points="339.5,-235 339.5,-265 497.5,-265 497.5,-235 339.5,-235"/>
<text text-anchor="start" x="347.5" y="-253" font-family="FreeSans.ttf" font-size="10.00">gpuNUFFT::GpuNUFFTOperator</text>
<text text-anchor="middle" x="418.5" y="-242" font-family="FreeSans.ttf" font-size="10.00">::selectOrdered</text>
</a>
</g>
</g>
<!-- Node6&#45;&gt;Node15 -->
<g id="edge15" class="edge">
<title>Node6&#45;&gt;Node15</title>
<path fill="none" stroke="midnightblue" d="M586.24,-287.31C556.46,-280.64 518.83,-272.23 486.86,-265.07"/>
<polygon fill="midnightblue" stroke="midnightblue" points="585.49,-290.73 596.01,-289.49 587.02,-283.9 585.49,-290.73"/>
</g>
<!-- Node16 -->
<g id="node16" class="node">
<title>Node16</title>
<g id="a_node16"><a xlink:href="classgpuNUFFT_1_1GpuNUFFTOperatorFactory.html#aae7ea9905b763b7b8cc5c36533257163" target="_top" xlink:title=" ">
<polygon fill="none" stroke="black" points="339.5,-186 339.5,-216 497.5,-216 497.5,-186 339.5,-186"/>
<text text-anchor="start" x="347.5" y="-204" font-family="FreeSans.ttf" font-size="10.00">gpuNUFFT::GpuNUFFTOperator</text>
<text text-anchor="middle" x="418.5" y="-193" font-family="FreeSans.ttf" font-size="10.00">Factory::sortVector</text>
</a>
</g>
</g>
<!-- Node6&#45;&gt;Node16 -->
<g id="edge16" class="edge">
<title>Node6&#45;&gt;Node16</title>
<path fill="none" stroke="midnightblue" d="M575.16,-286.07C567.68,-283.1 560.43,-279.46 554,-275 531.8,-259.59 540.41,-241.1 518,-226 511.71,-221.76 504.75,-218.24 497.53,-215.32"/>
<polygon fill="midnightblue" stroke="midnightblue" points="574.12,-289.41 584.71,-289.48 576.47,-282.82 574.12,-289.41"/>
</g>
<!-- Node17 -->
<g id="node17" class="node">
<title>Node17</title>
<g id="a_node17"><a xlink:href="gpuNUFFT__forward__tests_8cpp.html#a6e7e337161ef805951437dbf21112e43" target="_top" xlink:title=" ">
<polygon fill="none" stroke="black" points="398,-147.5 398,-166.5 439,-166.5 439,-147.5 398,-147.5"/>
<text text-anchor="middle" x="418.5" y="-154.5" font-family="FreeSans.ttf" font-size="10.00">TEST</text>
</a>
</g>
</g>
<!-- Node6&#45;&gt;Node17 -->
<g id="edge17" class="edge">
<title>Node6&#45;&gt;Node17</title>
<path fill="none" stroke="midnightblue" d="M569.65,-285.72C563.96,-282.82 558.62,-279.29 554,-275 519.98,-243.45 553.2,-207.23 518,-177 496.02,-158.13 461.13,-155.32 439.31,-155.68"/>
<polygon fill="midnightblue" stroke="midnightblue" points="568.28,-288.94 578.85,-289.78 571.12,-282.54 568.28,-288.94"/>
</g>
<!-- Node6&#45;&gt;Node18 -->
<g id="edge18" class="edge">
<title>Node6&#45;&gt;Node18</title>
<path fill="none" stroke="midnightblue" d="M569.48,-286.31C563.77,-283.29 558.48,-279.57 554,-275 509.93,-230.05 563.97,-181.01 518,-138 498.54,-119.79 467.16,-116.56 445.06,-116.91"/>
<polygon fill="midnightblue" stroke="midnightblue" points="568.18,-289.57 578.73,-290.51 571.07,-283.19 568.18,-289.57"/>
</g>
<!-- Node11 -->
<g id="node11" class="node">
<title>Node11</title>
<g id="a_node11"><a xlink:href="classGpuNUFFTPythonOperator.html#a47e427fafc08d705d834940e1229742f" target="_top" xlink:title=" ">
<polygon fill="none" stroke="black" points="148,-382 148,-412 283,-412 283,-382 148,-382"/>
<text text-anchor="start" x="156" y="-400" font-family="FreeSans.ttf" font-size="10.00">GpuNUFFTPythonOperator</text>
<text text-anchor="middle" x="215.5" y="-389" font-family="FreeSans.ttf" font-size="10.00">::estimate_density_comp</text>
</a>
</g>
</g>
<!-- Node10&#45;&gt;Node11 -->
<g id="edge11" class="edge">
<title>Node10&#45;&gt;Node11</title>
<path fill="none" stroke="midnightblue" d="M329.14,-397C313.71,-397 297.89,-397 283.17,-397"/>
<polygon fill="midnightblue" stroke="midnightblue" points="329.21,-400.5 339.21,-397 329.21,-393.5 329.21,-400.5"/>
</g>
<!-- Node12 -->
<g id="node12" class="node">
<title>Node12</title>
<g id="a_node12"><a xlink:href="python__bindings_8cpp.html#ad1a7eaf0d60c015a4df3da44ddf58e27" target="_top" xlink:title=" ">
<polygon fill="none" stroke="black" points="0,-387.5 0,-406.5 112,-406.5 112,-387.5 0,-387.5"/>
<text text-anchor="middle" x="56" y="-394.5" font-family="FreeSans.ttf" font-size="10.00">PYBIND11_MODULE</text>
</a>
</g>
</g>
<!-- Node11&#45;&gt;Node12 -->
<g id="edge12" class="edge">
<title>Node11&#45;&gt;Node12</title>
<path fill="none" stroke="midnightblue" d="M137.46,-397C129.03,-397 120.58,-397 112.48,-397"/>
<polygon fill="midnightblue" stroke="midnightblue" points="137.71,-400.5 147.71,-397 137.71,-393.5 137.71,-400.5"/>
</g>
<!-- Node22 -->
<g id="node22" class="node">
<title>Node22</title>
<g id="a_node22"><a xlink:href="classgpuNUFFT_1_1BalancedGpuNUFFTOperator.html#aebed0b033d85b71c1e48132203b7caed" target="_top" xlink:title="Virtual method to perform precomputation of all neccessary meta information used in the gridding step...">
<polygon fill="none" stroke="black" points="319,-60 319,-90 518,-90 518,-60 319,-60"/>
<text text-anchor="start" x="327" y="-78" font-family="FreeSans.ttf" font-size="10.00">gpuNUFFT::BalancedGpuNUFFTOperator</text>
<text text-anchor="middle" x="418.5" y="-67" font-family="FreeSans.ttf" font-size="10.00">::initAndCopyGpuNUFFTInfo</text>
</a>
</g>
</g>
<!-- Node21&#45;&gt;Node22 -->
<g id="edge22" class="edge">
<title>Node21&#45;&gt;Node22</title>
<path fill="none" stroke="midnightblue" d="M550.35,-88.14C539.79,-87.08 528.97,-86 518.28,-84.92"/>
<polygon fill="midnightblue" stroke="midnightblue" points="550.06,-91.63 560.36,-89.15 550.76,-84.67 550.06,-91.63"/>
</g>
<!-- Node23 -->
<g id="node23" class="node">
<title>Node23</title>
<g id="a_node23"><a xlink:href="classgpuNUFFT_1_1BalancedTextureGpuNUFFTOperator.html#a4cfe8965eea8ee447fbffc138eefe588" target="_top" xlink:title="Virtual method to perform precomputation of all neccessary meta information used in the gridding step...">
<polygon fill="none" stroke="black" points="329,-0.5 329,-41.5 508,-41.5 508,-0.5 329,-0.5"/>
<text text-anchor="start" x="337" y="-29.5" font-family="FreeSans.ttf" font-size="10.00">gpuNUFFT::BalancedTexture</text>
<text text-anchor="start" x="337" y="-18.5" font-family="FreeSans.ttf" font-size="10.00">GpuNUFFTOperator::initAndCopyGpu</text>
<text text-anchor="middle" x="418.5" y="-7.5" font-family="FreeSans.ttf" font-size="10.00">NUFFTInfo</text>
</a>
</g>
</g>
<!-- Node21&#45;&gt;Node23 -->
<g id="edge23" class="edge">
<title>Node21&#45;&gt;Node23</title>
<path fill="none" stroke="midnightblue" d="M570.5,-78.59C564.85,-76.55 559.28,-74.35 554,-72 536.86,-64.39 535.14,-57.6 518,-50 511.16,-46.96 503.91,-44.14 496.57,-41.55"/>
<polygon fill="midnightblue" stroke="midnightblue" points="569.46,-81.93 580.05,-81.88 571.74,-75.32 569.46,-81.93"/>
</g>
</g>
</svg>
