<?xml version="1.0" encoding="UTF-8" standalone="no"?>
<!DOCTYPE svg PUBLIC "-//W3C//DTD SVG 1.1//EN"
 "http://www.w3.org/Graphics/SVG/1.1/DTD/svg11.dtd">
<!-- Generated by graphviz version 2.49.3 (20211027.1534)
 -->
<!-- Title: gpuNUFFT::Dimensions::count Pages: 1 -->
<svg width="571pt" height="568pt"
 viewBox="0.00 0.00 571.00 567.50" xmlns="http://www.w3.org/2000/svg" xmlns:xlink="http://www.w3.org/1999/xlink">
<g id="graph0" class="graph" transform="scale(1 1) rotate(0) translate(4 563.5)">
<title>gpuNUFFT::Dimensions::count</title>
<!-- Node1 -->
<g id="node1" class="node">
<title>Node1</title>
<g id="a_node1"><a xlink:title="Compute total count of array length.">
<polygon fill="#bfbfbf" stroke="black" points="442,-254 442,-284 563,-284 563,-254 442,-254"/>
<text text-anchor="start" x="450" y="-272" font-family="FreeSans.ttf" font-size="10.00">gpuNUFFT::Dimensions</text>
<text text-anchor="middle" x="502.5" y="-261" font-family="FreeSans.ttf" font-size="10.00">::count</text>
</a>
</g>
</g>
<!-- Node2 -->
<g id="node2" class="node">
<title>Node2</title>
<g id="a_node2"><a xlink:href="classgpuNUFFT_1_1GpuNUFFTOperatorFactory.html#a4ad90751b7eff9bba51f2db5ffd425b6" target="_top" xlink:title="Function to check if the problem will fit into device memory.">
<polygon fill="none" stroke="black" points="235,-454 235,-484 406,-484 406,-454 235,-454"/>
<text text-anchor="start" x="243" y="-472" font-family="FreeSans.ttf" font-size="10.00">gpuNUFFT::GpuNUFFTOperator</text>
<text text-anchor="middle" x="320.5" y="-461" font-family="FreeSans.ttf" font-size="10.00">Factory::checkMemoryConsumption</text>
</a>
</g>
</g>
<!-- Node1&#45;&gt;Node2 -->
<g id="edge1" class="edge">
<title>Node1&#45;&gt;Node2</title>
<path fill="none" stroke="midnightblue" d="M493.8,-293.99C481.24,-330.8 452.89,-399.5 406,-439 398.74,-445.12 390.14,-450.02 381.25,-453.95"/>
<polygon fill="midnightblue" stroke="midnightblue" points="497.26,-294.67 497.07,-284.08 490.62,-292.48 497.26,-294.67"/>
</g>
<!-- Node3 -->
<g id="node3" class="node">
<title>Node3</title>
<g id="a_node3"><a xlink:href="classgpuNUFFT_1_1GpuNUFFTOperatorFactory.html#a82e185db6eda1edb359df5a580be7b37" target="_top" xlink:title="Computation of the deapodization function.">
<polygon fill="none" stroke="black" points="5,-529 5,-559 194,-559 194,-529 5,-529"/>
<text text-anchor="start" x="13" y="-547" font-family="FreeSans.ttf" font-size="10.00">gpuNUFFT::GpuNUFFTOperator</text>
<text text-anchor="middle" x="99.5" y="-536" font-family="FreeSans.ttf" font-size="10.00">Factory::computeDeapodizationFunction</text>
</a>
</g>
</g>
<!-- Node1&#45;&gt;Node3 -->
<g id="edge2" class="edge">
<title>Node1&#45;&gt;Node3</title>
<path fill="none" stroke="midnightblue" d="M491.3,-293.4C476.97,-324.55 447.87,-377.78 406,-406 341.36,-449.57 295.92,-396.36 235,-445 206.11,-468.07 227.72,-496.72 199,-520 194.76,-523.44 190.1,-526.39 185.19,-528.93"/>
<polygon fill="midnightblue" stroke="midnightblue" points="494.56,-294.68 495.43,-284.12 488.16,-291.84 494.56,-294.68"/>
</g>
<!-- Node4 -->
<g id="node4" class="node">
<title>Node4</title>
<g id="a_node4"><a xlink:href="classgpuNUFFT_1_1GpuNUFFTOperatorFactory.html#a62c51a180bf592a0fa82343ed7b4daed" target="_top" xlink:title="Compute sector centers array.">
<polygon fill="none" stroke="black" points="241.5,-366 241.5,-396 399.5,-396 399.5,-366 241.5,-366"/>
<text text-anchor="start" x="249.5" y="-384" font-family="FreeSans.ttf" font-size="10.00">gpuNUFFT::GpuNUFFTOperator</text>
<text text-anchor="middle" x="320.5" y="-373" font-family="FreeSans.ttf" font-size="10.00">Factory::computeSectorCenters</text>
</a>
</g>
</g>
<!-- Node1&#45;&gt;Node4 -->
<g id="edge3" class="edge">
<title>Node1&#45;&gt;Node4</title>
<path fill="none" stroke="midnightblue" d="M482.46,-291.77C464.63,-311.7 436.25,-340.05 406,-357 399.88,-360.43 393.23,-363.4 386.44,-365.97"/>
<polygon fill="midnightblue" stroke="midnightblue" points="485.25,-293.89 489.21,-284.06 479.99,-289.28 485.25,-293.89"/>
</g>
<!-- Node5 -->
<g id="node5" class="node">
<title>Node5</title>
<g id="a_node5"><a xlink:href="classgpuNUFFT_1_1GpuNUFFTOperatorFactory.html#a65d596418c34d74d383addd455469b5a" target="_top" xlink:title="Compute 2&#45;d sector centers array.">
<polygon fill="none" stroke="black" points="238,-317 238,-347 403,-347 403,-317 238,-317"/>
<text text-anchor="start" x="246" y="-335" font-family="FreeSans.ttf" font-size="10.00">gpuNUFFT::GpuNUFFTOperator</text>
<text text-anchor="middle" x="320.5" y="-324" font-family="FreeSans.ttf" font-size="10.00">Factory::computeSectorCenters2D</text>
</a>
</g>
</g>
<!-- Node1&#45;&gt;Node5 -->
<g id="edge4" class="edge">
<title>Node1&#45;&gt;Node5</title>
<path fill="none" stroke="midnightblue" d="M456.42,-287.92C440.59,-294.29 422.62,-301.25 406,-307 396.02,-310.45 385.29,-313.86 374.92,-317"/>
<polygon fill="midnightblue" stroke="midnightblue" points="458.02,-291.04 465.96,-284.03 455.38,-284.56 458.02,-291.04"/>
</g>
<!-- Node6 -->
<g id="node6" class="node">
<title>Node6</title>
<g id="a_node6"><a xlink:href="structgpuNUFFT_1_1Array.html#af426f56b5d7e05b6143acbdd51bac188" target="_top" xlink:title=" ">
<polygon fill="none" stroke="black" points="260,-278.5 260,-297.5 381,-297.5 381,-278.5 260,-278.5"/>
<text text-anchor="middle" x="320.5" y="-285.5" font-family="FreeSans.ttf" font-size="10.00">gpuNUFFT::Array::count</text>
</a>
</g>
</g>
<!-- Node1&#45;&gt;Node6 -->
<g id="edge5" class="edge">
<title>Node1&#45;&gt;Node6</title>
<path fill="none" stroke="midnightblue" d="M431.38,-276.4C414.79,-278.15 397.25,-280 381.18,-281.7"/>
<polygon fill="midnightblue" stroke="midnightblue" points="431.99,-279.86 441.56,-275.33 431.25,-272.9 431.99,-279.86"/>
</g>
<!-- Node15 -->
<g id="node15" class="node">
<title>Node15</title>
<g id="a_node15"><a xlink:href="gpuNUFFT__fft__tests_8cpp.html#a143d7141da78d4955eb9d9228cd5e65e" target="_top" xlink:title=" ">
<polygon fill="none" stroke="black" points="73,-109.5 73,-128.5 126,-128.5 126,-109.5 73,-109.5"/>
<text text-anchor="middle" x="99.5" y="-116.5" font-family="FreeSans.ttf" font-size="10.00">TEST_F</text>
</a>
</g>
</g>
<!-- Node1&#45;&gt;Node15 -->
<g id="edge22" class="edge">
<title>Node1&#45;&gt;Node15</title>
<path fill="none" stroke="midnightblue" d="M431.4,-266.89C362.83,-263.45 264.54,-254.48 235,-231 200.3,-203.42 233.01,-166.42 199,-138 178.69,-121.03 147.77,-117.51 126,-117.46"/>
<polygon fill="midnightblue" stroke="midnightblue" points="431.55,-270.4 441.71,-267.37 431.88,-263.4 431.55,-270.4"/>
</g>
<!-- Node16 -->
<g id="node16" class="node">
<title>Node16</title>
<g id="a_node16"><a xlink:href="classgpuNUFFT_1_1GpuNUFFTOperatorFactory.html#a0e941d590a7e5effed76f909dfa72bcc" target="_top" xlink:title="Create GpuNUFFT Operator.">
<polygon fill="none" stroke="black" points="236,-191 236,-221 405,-221 405,-191 236,-191"/>
<text text-anchor="start" x="244" y="-209" font-family="FreeSans.ttf" font-size="10.00">gpuNUFFT::GpuNUFFTOperator</text>
<text text-anchor="middle" x="320.5" y="-198" font-family="FreeSans.ttf" font-size="10.00">Factory::createGpuNUFFTOperator</text>
</a>
</g>
</g>
<!-- Node1&#45;&gt;Node16 -->
<g id="edge16" class="edge">
<title>Node1&#45;&gt;Node16</title>
<path fill="none" stroke="midnightblue" d="M448.78,-250.55C421.99,-241.17 389.86,-229.92 364.57,-221.08"/>
<polygon fill="midnightblue" stroke="midnightblue" points="447.79,-253.91 458.39,-253.91 450.1,-247.3 447.79,-253.91"/>
</g>
<!-- Node17 -->
<g id="node17" class="node">
<title>Node17</title>
<g id="a_node17"><a xlink:href="classGpuNUFFTPythonOperator.html#ad9168e25f62f4e47aefb50f2ea279b0d" target="_top" xlink:title=" ">
<polygon fill="none" stroke="black" points="250.5,-142 250.5,-172 390.5,-172 390.5,-142 250.5,-142"/>
<text text-anchor="start" x="258.5" y="-160" font-family="FreeSans.ttf" font-size="10.00">GpuNUFFTPythonOperator</text>
<text text-anchor="middle" x="320.5" y="-149" font-family="FreeSans.ttf" font-size="10.00">::GpuNUFFTPythonOperator</text>
</a>
</g>
</g>
<!-- Node1&#45;&gt;Node17 -->
<g id="edge17" class="edge">
<title>Node1&#45;&gt;Node17</title>
<path fill="none" stroke="midnightblue" d="M482.05,-246.24C464.14,-226.61 435.88,-198.84 406,-182 399.2,-178.17 391.76,-174.87 384.2,-172.05"/>
<polygon fill="midnightblue" stroke="midnightblue" points="479.57,-248.71 488.85,-253.84 484.79,-244.05 479.57,-248.71"/>
</g>
<!-- Node18 -->
<g id="node18" class="node">
<title>Node18</title>
<g id="a_node18"><a xlink:href="classgpuNUFFT_1_1GpuNUFFTOperator.html#a1d1ee62639349d3409ad96366b082c07" target="_top" xlink:title="Compute all neccessary meta information used in the gridding steps.">
<polygon fill="none" stroke="black" points="241.5,-71 241.5,-101 399.5,-101 399.5,-71 241.5,-71"/>
<text text-anchor="start" x="249.5" y="-89" font-family="FreeSans.ttf" font-size="10.00">gpuNUFFT::GpuNUFFTOperator</text>
<text text-anchor="middle" x="320.5" y="-78" font-family="FreeSans.ttf" font-size="10.00">::initGpuNUFFTInfo</text>
</a>
</g>
</g>
<!-- Node1&#45;&gt;Node18 -->
<g id="edge18" class="edge">
<title>Node1&#45;&gt;Node18</title>
<path fill="none" stroke="midnightblue" d="M488.95,-244.74C472.85,-215.43 442.6,-165.96 406,-133 391.53,-119.97 372.82,-109.1 356.69,-101.1"/>
<polygon fill="midnightblue" stroke="midnightblue" points="486.03,-246.71 493.85,-253.86 492.2,-243.39 486.03,-246.71"/>
</g>
<!-- Node21 -->
<g id="node21" class="node">
<title>Node21</title>
<g id="a_node21"><a xlink:href="gpuNUFFT__deapo__tests_8cpp.html#ab4a979b5876c35e61bdc8ef745674420" target="_top" xlink:title=" ">
<polygon fill="none" stroke="black" points="300,-32.5 300,-51.5 341,-51.5 341,-32.5 300,-32.5"/>
<text text-anchor="middle" x="320.5" y="-39.5" font-family="FreeSans.ttf" font-size="10.00">TEST</text>
</a>
</g>
</g>
<!-- Node1&#45;&gt;Node21 -->
<g id="edge21" class="edge">
<title>Node1&#45;&gt;Node21</title>
<path fill="none" stroke="midnightblue" d="M497.25,-243.88C488.46,-199.98 464.02,-109.45 406,-62 387.56,-46.92 359.69,-42.84 341.06,-41.92"/>
<polygon fill="midnightblue" stroke="midnightblue" points="493.82,-244.57 499.12,-253.74 500.7,-243.27 493.82,-244.57"/>
</g>
<!-- Node6&#45;&gt;Node3 -->
<g id="edge7" class="edge">
<title>Node6&#45;&gt;Node3</title>
<path fill="none" stroke="midnightblue" d="M250.42,-296.75C244.68,-299.63 239.4,-303.31 235,-308 169.62,-377.71 264.15,-450.07 199,-520 195.88,-523.35 192.38,-526.26 188.6,-528.8"/>
<polygon fill="midnightblue" stroke="midnightblue" points="251.89,-299.93 259.77,-292.85 249.19,-293.47 251.89,-299.93"/>
</g>
<!-- Node7 -->
<g id="node7" class="node">
<title>Node7</title>
<g id="a_node7"><a xlink:href="classgpuNUFFT_1_1GpuNUFFTOperatorFactory.html#afa72b607029c78d61b6e01d45077998e" target="_top" xlink:title="Assign the samples on the k&#45;space trajectory to its corresponding sector.">
<polygon fill="none" stroke="black" points="20.5,-480 20.5,-510 178.5,-510 178.5,-480 20.5,-480"/>
<text text-anchor="start" x="28.5" y="-498" font-family="FreeSans.ttf" font-size="10.00">gpuNUFFT::GpuNUFFTOperator</text>
<text text-anchor="middle" x="99.5" y="-487" font-family="FreeSans.ttf" font-size="10.00">Factory::assignSectors</text>
</a>
</g>
</g>
<!-- Node6&#45;&gt;Node7 -->
<g id="edge6" class="edge">
<title>Node6&#45;&gt;Node7</title>
<path fill="none" stroke="midnightblue" d="M249.99,-297.31C244.45,-300.09 239.34,-303.6 235,-308 182.94,-360.85 250.89,-417.98 199,-471 193.21,-476.91 186.23,-481.46 178.69,-484.95"/>
<polygon fill="midnightblue" stroke="midnightblue" points="251.75,-300.36 259.63,-293.28 249.05,-293.9 251.75,-300.36"/>
</g>
<!-- Node8 -->
<g id="node8" class="node">
<title>Node8</title>
<g id="a_node8"><a xlink:href="classgpuNUFFT_1_1GpuNUFFTOperatorFactory.html#ad951199a259576c45568997ccfac72dc" target="_top" xlink:title="Method to compute the sector processing order.">
<polygon fill="none" stroke="black" points="17.5,-431 17.5,-461 181.5,-461 181.5,-431 17.5,-431"/>
<text text-anchor="start" x="25.5" y="-449" font-family="FreeSans.ttf" font-size="10.00">gpuNUFFT::GpuNUFFTOperator</text>
<text text-anchor="middle" x="99.5" y="-438" font-family="FreeSans.ttf" font-size="10.00">Factory::computeProcessingOrder</text>
</a>
</g>
</g>
<!-- Node6&#45;&gt;Node8 -->
<g id="edge8" class="edge">
<title>Node6&#45;&gt;Node8</title>
<path fill="none" stroke="midnightblue" d="M250.13,-297.85C244.61,-300.53 239.46,-303.86 235,-308 196.07,-344.17 237.81,-385.71 199,-422 193.86,-426.81 187.92,-430.7 181.56,-433.85"/>
<polygon fill="midnightblue" stroke="midnightblue" points="251.76,-300.96 259.7,-293.94 249.12,-294.48 251.76,-300.96"/>
</g>
<!-- Node9 -->
<g id="node9" class="node">
<title>Node9</title>
<g id="a_node9"><a xlink:href="classgpuNUFFT_1_1GpuNUFFTOperatorFactory.html#ad915537942d302c8d192b964e6114f28" target="_top" xlink:title="Compute the boundaries of the assigned dataIndices per sector element.">
<polygon fill="none" stroke="black" points="17,-382 17,-412 182,-412 182,-382 17,-382"/>
<text text-anchor="start" x="25" y="-400" font-family="FreeSans.ttf" font-size="10.00">gpuNUFFT::GpuNUFFTOperator</text>
<text text-anchor="middle" x="99.5" y="-389" font-family="FreeSans.ttf" font-size="10.00">Factory::computeSectorDataCount</text>
</a>
</g>
</g>
<!-- Node6&#45;&gt;Node9 -->
<g id="edge9" class="edge">
<title>Node6&#45;&gt;Node9</title>
<path fill="none" stroke="midnightblue" d="M250.42,-299.08C244.92,-301.5 239.69,-304.44 235,-308 208.68,-327.95 225.25,-352.96 199,-373 193.82,-376.95 188.09,-380.26 182.06,-383.03"/>
<polygon fill="midnightblue" stroke="midnightblue" points="251.77,-302.31 259.86,-295.46 249.27,-295.77 251.77,-302.31"/>
</g>
<!-- Node10 -->
<g id="node10" class="node">
<title>Node10</title>
<g id="a_node10"><a xlink:href="classgpuNUFFT_1_1GpuNUFFTOperator.html#ada5bb598b923ca3e92e987982f3d0d5b" target="_top" xlink:title="Perform forward gridding operation on kspaceData already residing in GPU memory.">
<polygon fill="none" stroke="black" points="20.5,-333 20.5,-363 178.5,-363 178.5,-333 20.5,-333"/>
<text text-anchor="start" x="28.5" y="-351" font-family="FreeSans.ttf" font-size="10.00">gpuNUFFT::GpuNUFFTOperator</text>
<text text-anchor="middle" x="99.5" y="-340" font-family="FreeSans.ttf" font-size="10.00">::performForwardGpuNUFFT</text>
</a>
</g>
</g>
<!-- Node6&#45;&gt;Node10 -->
<g id="edge10" class="edge">
<title>Node6&#45;&gt;Node10</title>
<path fill="none" stroke="midnightblue" d="M262.25,-300.02C253.06,-302.39 243.71,-305.06 235,-308 218.41,-313.6 215.57,-318.35 199,-324 189.42,-327.27 179.18,-330.28 169.05,-332.98"/>
<polygon fill="midnightblue" stroke="midnightblue" points="263.27,-303.38 272.13,-297.58 261.58,-296.58 263.27,-303.38"/>
</g>
<!-- Node11 -->
<g id="node11" class="node">
<title>Node11</title>
<g id="a_node11"><a xlink:href="classgpuNUFFT_1_1GpuNUFFTOperator.html#a89e40ec1b777c8033bbc933c6535078c" target="_top" xlink:title="Perform Adjoint gridding operation on kspaceData already residing in GPU memory.">
<polygon fill="none" stroke="black" points="20.5,-284 20.5,-314 178.5,-314 178.5,-284 20.5,-284"/>
<text text-anchor="start" x="28.5" y="-302" font-family="FreeSans.ttf" font-size="10.00">gpuNUFFT::GpuNUFFTOperator</text>
<text text-anchor="middle" x="99.5" y="-291" font-family="FreeSans.ttf" font-size="10.00">::performGpuNUFFTAdj</text>
</a>
</g>
</g>
<!-- Node6&#45;&gt;Node11 -->
<g id="edge11" class="edge">
<title>Node6&#45;&gt;Node11</title>
<path fill="none" stroke="midnightblue" d="M249.74,-291.5C227.07,-292.64 201.78,-293.91 178.56,-295.08"/>
<polygon fill="midnightblue" stroke="midnightblue" points="250.13,-294.99 259.95,-290.99 249.78,-288 250.13,-294.99"/>
</g>
<!-- Node12 -->
<g id="node12" class="node">
<title>Node12</title>
<g id="a_node12"><a xlink:href="classgpuNUFFT_1_1GpuNUFFTOperator.html#a897f3ec26b76086e3cf174a4ce0c1c23" target="_top" xlink:title="Select data array in ordered manner.">
<polygon fill="none" stroke="black" points="20.5,-235 20.5,-265 178.5,-265 178.5,-235 20.5,-235"/>
<text text-anchor="start" x="28.5" y="-253" font-family="FreeSans.ttf" font-size="10.00">gpuNUFFT::GpuNUFFTOperator</text>
<text text-anchor="middle" x="99.5" y="-242" font-family="FreeSans.ttf" font-size="10.00">::selectOrdered</text>
</a>
</g>
</g>
<!-- Node6&#45;&gt;Node12 -->
<g id="edge12" class="edge">
<title>Node6&#45;&gt;Node12</title>
<path fill="none" stroke="midnightblue" d="M254.54,-276.73C230.73,-272.6 203.53,-267.88 178.68,-263.56"/>
<polygon fill="midnightblue" stroke="midnightblue" points="254.07,-280.2 264.52,-278.46 255.27,-273.3 254.07,-280.2"/>
</g>
<!-- Node13 -->
<g id="node13" class="node">
<title>Node13</title>
<g id="a_node13"><a xlink:href="classgpuNUFFT_1_1GpuNUFFTOperatorFactory.html#aae7ea9905b763b7b8cc5c36533257163" target="_top" xlink:title=" ">
<polygon fill="none" stroke="black" points="20.5,-186 20.5,-216 178.5,-216 178.5,-186 20.5,-186"/>
<text text-anchor="start" x="28.5" y="-204" font-family="FreeSans.ttf" font-size="10.00">gpuNUFFT::GpuNUFFTOperator</text>
<text text-anchor="middle" x="99.5" y="-193" font-family="FreeSans.ttf" font-size="10.00">Factory::sortVector</text>
</a>
</g>
</g>
<!-- Node6&#45;&gt;Node13 -->
<g id="edge13" class="edge">
<title>Node6&#45;&gt;Node13</title>
<path fill="none" stroke="midnightblue" d="M259.36,-275.27C250.86,-272.24 242.49,-268.53 235,-264 215.1,-251.95 219.07,-237.77 199,-226 192.38,-222.12 185.17,-218.83 177.75,-216.05"/>
<polygon fill="midnightblue" stroke="midnightblue" points="258.36,-278.62 268.95,-278.4 260.53,-271.97 258.36,-278.62"/>
</g>
<!-- Node14 -->
<g id="node14" class="node">
<title>Node14</title>
<g id="a_node14"><a xlink:href="gpuNUFFT__forward__tests_8cpp.html#a6e7e337161ef805951437dbf21112e43" target="_top" xlink:title=" ">
<polygon fill="none" stroke="black" points="79,-147.5 79,-166.5 120,-166.5 120,-147.5 79,-147.5"/>
<text text-anchor="middle" x="99.5" y="-154.5" font-family="FreeSans.ttf" font-size="10.00">TEST</text>
</a>
</g>
</g>
<!-- Node6&#45;&gt;Node14 -->
<g id="edge14" class="edge">
<title>Node6&#45;&gt;Node14</title>
<path fill="none" stroke="midnightblue" d="M250.16,-274.18C244.68,-271.38 239.52,-268.03 235,-264 203.75,-236.17 231.29,-203.62 199,-177 176.65,-158.58 141.87,-155.64 120.17,-155.85"/>
<polygon fill="midnightblue" stroke="midnightblue" points="249.07,-277.53 259.63,-278.38 251.91,-271.13 249.07,-277.53"/>
</g>
<!-- Node6&#45;&gt;Node15 -->
<g id="edge15" class="edge">
<title>Node6&#45;&gt;Node15</title>
<path fill="none" stroke="midnightblue" d="M250.58,-275.21C244.85,-272.21 239.53,-268.53 235,-264 193.79,-222.85 241.95,-177.34 199,-138 179.48,-120.12 148.41,-116.77 126.4,-117.01"/>
<polygon fill="midnightblue" stroke="midnightblue" points="249.3,-278.48 259.86,-279.39 252.17,-272.09 249.3,-278.48"/>
</g>
<!-- Node19 -->
<g id="node19" class="node">
<title>Node19</title>
<g id="a_node19"><a xlink:href="classgpuNUFFT_1_1BalancedGpuNUFFTOperator.html#aebed0b033d85b71c1e48132203b7caed" target="_top" xlink:title="Virtual method to perform precomputation of all neccessary meta information used in the gridding step...">
<polygon fill="none" stroke="black" points="0,-60 0,-90 199,-90 199,-60 0,-60"/>
<text text-anchor="start" x="8" y="-78" font-family="FreeSans.ttf" font-size="10.00">gpuNUFFT::BalancedGpuNUFFTOperator</text>
<text text-anchor="middle" x="99.5" y="-67" font-family="FreeSans.ttf" font-size="10.00">::initAndCopyGpuNUFFTInfo</text>
</a>
</g>
</g>
<!-- Node18&#45;&gt;Node19 -->
<g id="edge19" class="edge">
<title>Node18&#45;&gt;Node19</title>
<path fill="none" stroke="midnightblue" d="M231.35,-81.57C220.79,-81.04 209.97,-80.5 199.28,-79.96"/>
<polygon fill="midnightblue" stroke="midnightblue" points="231.2,-85.07 241.36,-82.08 231.55,-78.08 231.2,-85.07"/>
</g>
<!-- Node20 -->
<g id="node20" class="node">
<title>Node20</title>
<g id="a_node20"><a xlink:href="classgpuNUFFT_1_1BalancedTextureGpuNUFFTOperator.html#a4cfe8965eea8ee447fbffc138eefe588" target="_top" xlink:title="Virtual method to perform precomputation of all neccessary meta information used in the gridding step...">
<polygon fill="none" stroke="black" points="10,-0.5 10,-41.5 189,-41.5 189,-0.5 10,-0.5"/>
<text text-anchor="start" x="18" y="-29.5" font-family="FreeSans.ttf" font-size="10.00">gpuNUFFT::BalancedTexture</text>
<text text-anchor="start" x="18" y="-18.5" font-family="FreeSans.ttf" font-size="10.00">GpuNUFFTOperator::initAndCopyGpu</text>
<text text-anchor="middle" x="99.5" y="-7.5" font-family="FreeSans.ttf" font-size="10.00">NUFFTInfo</text>
</a>
</g>
</g>
<!-- Node18&#45;&gt;Node20 -->
<g id="edge20" class="edge">
<title>Node18&#45;&gt;Node20</title>
<path fill="none" stroke="midnightblue" d="M258.85,-68.07C250.83,-65.69 242.72,-63.29 235,-61 213.75,-54.7 190.61,-47.82 169.61,-41.57"/>
<polygon fill="midnightblue" stroke="midnightblue" points="257.97,-71.46 268.56,-70.94 259.96,-64.75 257.97,-71.46"/>
</g>
</g>
</svg>
