<?xml version="1.0" encoding="UTF-8" standalone="no"?>
<!DOCTYPE svg PUBLIC "-//W3C//DTD SVG 1.1//EN"
 "http://www.w3.org/Graphics/SVG/1.1/DTD/svg11.dtd">
<!-- Generated by graphviz version 2.49.3 (20211027.1534)
 -->
<!-- Title: gpuNUFFT::Array::count Pages: 1 -->
<svg width="502pt" height="508pt"
 viewBox="0.00 0.00 502.00 507.50" xmlns="http://www.w3.org/2000/svg" xmlns:xlink="http://www.w3.org/1999/xlink">
<g id="graph0" class="graph" transform="scale(1 1) rotate(0) translate(4 503.5)">
<title>gpuNUFFT::Array::count</title>
<!-- Node1 -->
<g id="node1" class="node">
<title>Node1</title>
<g id="a_node1"><a xlink:title=" ">
<polygon fill="#bfbfbf" stroke="black" points="373,-229.5 373,-248.5 494,-248.5 494,-229.5 373,-229.5"/>
<text text-anchor="middle" x="433.5" y="-236.5" font-family="FreeSans.ttf" font-size="10.00">gpuNUFFT::Array::count</text>
</a>
</g>
</g>
<!-- Node2 -->
<g id="node2" class="node">
<title>Node2</title>
<g id="a_node2"><a xlink:href="classgpuNUFFT_1_1GpuNUFFTOperatorFactory.html#afa72b607029c78d61b6e01d45077998e" target="_top" xlink:title="Assign the samples on the k&#45;space trajectory to its corresponding sector.">
<polygon fill="none" stroke="black" points="163.5,-469 163.5,-499 321.5,-499 321.5,-469 163.5,-469"/>
<text text-anchor="start" x="171.5" y="-487" font-family="FreeSans.ttf" font-size="10.00">gpuNUFFT::GpuNUFFTOperator</text>
<text text-anchor="middle" x="242.5" y="-476" font-family="FreeSans.ttf" font-size="10.00">Factory::assignSectors</text>
</a>
</g>
</g>
<!-- Node1&#45;&gt;Node2 -->
<g id="edge1" class="edge">
<title>Node1&#45;&gt;Node2</title>
<path fill="none" stroke="midnightblue" d="M429.83,-258.82C422.91,-302.19 400.3,-405.91 337,-460 332.41,-463.92 327.27,-467.21 321.81,-469.97"/>
<polygon fill="midnightblue" stroke="midnightblue" points="433.32,-259.13 431.33,-248.72 426.4,-258.1 433.32,-259.13"/>
</g>
<!-- Node3 -->
<g id="node3" class="node">
<title>Node3</title>
<g id="a_node3"><a xlink:href="classgpuNUFFT_1_1GpuNUFFTOperatorFactory.html#a82e185db6eda1edb359df5a580be7b37" target="_top" xlink:title="Computation of the deapodization function.">
<polygon fill="none" stroke="black" points="148,-420 148,-450 337,-450 337,-420 148,-420"/>
<text text-anchor="start" x="156" y="-438" font-family="FreeSans.ttf" font-size="10.00">gpuNUFFT::GpuNUFFTOperator</text>
<text text-anchor="middle" x="242.5" y="-427" font-family="FreeSans.ttf" font-size="10.00">Factory::computeDeapodizationFunction</text>
</a>
</g>
</g>
<!-- Node1&#45;&gt;Node3 -->
<g id="edge2" class="edge">
<title>Node1&#45;&gt;Node3</title>
<path fill="none" stroke="midnightblue" d="M427.33,-258.29C416.71,-294.11 388.94,-370.89 337,-411 332.62,-414.38 327.82,-417.29 322.78,-419.79"/>
<polygon fill="midnightblue" stroke="midnightblue" points="430.72,-259.15 430.09,-248.57 423.99,-257.24 430.72,-259.15"/>
</g>
<!-- Node4 -->
<g id="node4" class="node">
<title>Node4</title>
<g id="a_node4"><a xlink:href="classgpuNUFFT_1_1GpuNUFFTOperatorFactory.html#ad951199a259576c45568997ccfac72dc" target="_top" xlink:title="Method to compute the sector processing order.">
<polygon fill="none" stroke="black" points="160.5,-371 160.5,-401 324.5,-401 324.5,-371 160.5,-371"/>
<text text-anchor="start" x="168.5" y="-389" font-family="FreeSans.ttf" font-size="10.00">gpuNUFFT::GpuNUFFTOperator</text>
<text text-anchor="middle" x="242.5" y="-378" font-family="FreeSans.ttf" font-size="10.00">Factory::computeProcessingOrder</text>
</a>
</g>
</g>
<!-- Node1&#45;&gt;Node4 -->
<g id="edge3" class="edge">
<title>Node1&#45;&gt;Node4</title>
<path fill="none" stroke="midnightblue" d="M423.2,-257.66C408.64,-284.89 377.86,-335.18 337,-362 331.82,-365.4 326.18,-368.32 320.32,-370.83"/>
<polygon fill="midnightblue" stroke="midnightblue" points="426.32,-259.25 427.81,-248.76 420.1,-256.03 426.32,-259.25"/>
</g>
<!-- Node5 -->
<g id="node5" class="node">
<title>Node5</title>
<g id="a_node5"><a xlink:href="classgpuNUFFT_1_1GpuNUFFTOperatorFactory.html#ad915537942d302c8d192b964e6114f28" target="_top" xlink:title="Compute the boundaries of the assigned dataIndices per sector element.">
<polygon fill="none" stroke="black" points="160,-322 160,-352 325,-352 325,-322 160,-322"/>
<text text-anchor="start" x="168" y="-340" font-family="FreeSans.ttf" font-size="10.00">gpuNUFFT::GpuNUFFTOperator</text>
<text text-anchor="middle" x="242.5" y="-329" font-family="FreeSans.ttf" font-size="10.00">Factory::computeSectorDataCount</text>
</a>
</g>
</g>
<!-- Node1&#45;&gt;Node5 -->
<g id="edge4" class="edge">
<title>Node1&#45;&gt;Node5</title>
<path fill="none" stroke="midnightblue" d="M415.44,-255.78C397.39,-272.62 367.39,-298.12 337,-313 330.08,-316.39 322.62,-319.34 315.05,-321.89"/>
<polygon fill="midnightblue" stroke="midnightblue" points="418.02,-258.16 422.84,-248.73 413.19,-253.09 418.02,-258.16"/>
</g>
<!-- Node6 -->
<g id="node6" class="node">
<title>Node6</title>
<g id="a_node6"><a xlink:href="classGpuNUFFTPythonOperator.html#a564644dc7ea9b8306cd6296ea6f1fca6" target="_top" xlink:title=" ">
<polygon fill="none" stroke="black" points="175,-273 175,-303 310,-303 310,-273 175,-273"/>
<text text-anchor="start" x="183" y="-291" font-family="FreeSans.ttf" font-size="10.00">GpuNUFFTPythonOperator</text>
<text text-anchor="middle" x="242.5" y="-280" font-family="FreeSans.ttf" font-size="10.00">::data_consistency</text>
</a>
</g>
</g>
<!-- Node1&#45;&gt;Node6 -->
<g id="edge5" class="edge">
<title>Node1&#45;&gt;Node6</title>
<path fill="none" stroke="midnightblue" d="M386.27,-251.15C370.63,-255.25 353.06,-259.84 337,-264 325.81,-266.9 313.85,-269.98 302.37,-272.94"/>
<polygon fill="midnightblue" stroke="midnightblue" points="387.45,-254.46 396.23,-248.54 385.67,-247.69 387.45,-254.46"/>
</g>
<!-- Node8 -->
<g id="node8" class="node">
<title>Node8</title>
<g id="a_node8"><a xlink:href="classgpuNUFFT_1_1GpuNUFFTOperator.html#ada5bb598b923ca3e92e987982f3d0d5b" target="_top" xlink:title="Perform forward gridding operation on kspaceData already residing in GPU memory.">
<polygon fill="none" stroke="black" points="163.5,-224 163.5,-254 321.5,-254 321.5,-224 163.5,-224"/>
<text text-anchor="start" x="171.5" y="-242" font-family="FreeSans.ttf" font-size="10.00">gpuNUFFT::GpuNUFFTOperator</text>
<text text-anchor="middle" x="242.5" y="-231" font-family="FreeSans.ttf" font-size="10.00">::performForwardGpuNUFFT</text>
</a>
</g>
</g>
<!-- Node1&#45;&gt;Node8 -->
<g id="edge7" class="edge">
<title>Node1&#45;&gt;Node8</title>
<path fill="none" stroke="midnightblue" d="M362.89,-239C349.51,-239 335.42,-239 321.79,-239"/>
<polygon fill="midnightblue" stroke="midnightblue" points="362.96,-242.5 372.96,-239 362.96,-235.5 362.96,-242.5"/>
</g>
<!-- Node9 -->
<g id="node9" class="node">
<title>Node9</title>
<g id="a_node9"><a xlink:href="classgpuNUFFT_1_1GpuNUFFTOperator.html#a89e40ec1b777c8033bbc933c6535078c" target="_top" xlink:title="Perform Adjoint gridding operation on kspaceData already residing in GPU memory.">
<polygon fill="none" stroke="black" points="163.5,-175 163.5,-205 321.5,-205 321.5,-175 163.5,-175"/>
<text text-anchor="start" x="171.5" y="-193" font-family="FreeSans.ttf" font-size="10.00">gpuNUFFT::GpuNUFFTOperator</text>
<text text-anchor="middle" x="242.5" y="-182" font-family="FreeSans.ttf" font-size="10.00">::performGpuNUFFTAdj</text>
</a>
</g>
</g>
<!-- Node1&#45;&gt;Node9 -->
<g id="edge8" class="edge">
<title>Node1&#45;&gt;Node9</title>
<path fill="none" stroke="midnightblue" d="M385.82,-226.9C360.34,-220.29 328.56,-212.05 301.5,-205.04"/>
<polygon fill="midnightblue" stroke="midnightblue" points="385.05,-230.31 395.61,-229.44 386.81,-223.54 385.05,-230.31"/>
</g>
<!-- Node10 -->
<g id="node10" class="node">
<title>Node10</title>
<g id="a_node10"><a xlink:href="classgpuNUFFT_1_1GpuNUFFTOperator.html#a897f3ec26b76086e3cf174a4ce0c1c23" target="_top" xlink:title="Select data array in ordered manner.">
<polygon fill="none" stroke="black" points="163.5,-126 163.5,-156 321.5,-156 321.5,-126 163.5,-126"/>
<text text-anchor="start" x="171.5" y="-144" font-family="FreeSans.ttf" font-size="10.00">gpuNUFFT::GpuNUFFTOperator</text>
<text text-anchor="middle" x="242.5" y="-133" font-family="FreeSans.ttf" font-size="10.00">::selectOrdered</text>
</a>
</g>
</g>
<!-- Node1&#45;&gt;Node10 -->
<g id="edge9" class="edge">
<title>Node1&#45;&gt;Node10</title>
<path fill="none" stroke="midnightblue" d="M415.36,-222.52C397.26,-205.97 367.21,-180.85 337,-166 329.31,-162.22 320.97,-158.95 312.55,-156.14"/>
<polygon fill="midnightblue" stroke="midnightblue" points="413.1,-225.19 422.8,-229.45 417.87,-220.07 413.1,-225.19"/>
</g>
<!-- Node11 -->
<g id="node11" class="node">
<title>Node11</title>
<g id="a_node11"><a xlink:href="classgpuNUFFT_1_1GpuNUFFTOperatorFactory.html#aae7ea9905b763b7b8cc5c36533257163" target="_top" xlink:title=" ">
<polygon fill="none" stroke="black" points="163.5,-77 163.5,-107 321.5,-107 321.5,-77 163.5,-77"/>
<text text-anchor="start" x="171.5" y="-95" font-family="FreeSans.ttf" font-size="10.00">gpuNUFFT::GpuNUFFTOperator</text>
<text text-anchor="middle" x="242.5" y="-84" font-family="FreeSans.ttf" font-size="10.00">Factory::sortVector</text>
</a>
</g>
</g>
<!-- Node1&#45;&gt;Node11 -->
<g id="edge10" class="edge">
<title>Node1&#45;&gt;Node11</title>
<path fill="none" stroke="midnightblue" d="M422.93,-220.19C408.2,-193.17 377.39,-143.69 337,-117 331.11,-113.11 324.64,-109.82 317.93,-107.05"/>
<polygon fill="midnightblue" stroke="midnightblue" points="420,-222.14 427.77,-229.35 426.19,-218.87 420,-222.14"/>
</g>
<!-- Node12 -->
<g id="node12" class="node">
<title>Node12</title>
<g id="a_node12"><a xlink:href="gpuNUFFT__forward__tests_8cpp.html#a6e7e337161ef805951437dbf21112e43" target="_top" xlink:title=" ">
<polygon fill="none" stroke="black" points="222,-38.5 222,-57.5 263,-57.5 263,-38.5 222,-38.5"/>
<text text-anchor="middle" x="242.5" y="-45.5" font-family="FreeSans.ttf" font-size="10.00">TEST</text>
</a>
</g>
</g>
<!-- Node1&#45;&gt;Node12 -->
<g id="edge11" class="edge">
<title>Node1&#45;&gt;Node12</title>
<path fill="none" stroke="midnightblue" d="M427.45,-219.62C417.01,-183.68 389.55,-106.81 337,-68 315.37,-52.02 283.67,-48.26 263.31,-47.65"/>
<polygon fill="midnightblue" stroke="midnightblue" points="424.1,-220.67 430.15,-229.38 430.85,-218.81 424.1,-220.67"/>
</g>
<!-- Node13 -->
<g id="node13" class="node">
<title>Node13</title>
<g id="a_node13"><a xlink:href="gpuNUFFT__fft__tests_8cpp.html#a143d7141da78d4955eb9d9228cd5e65e" target="_top" xlink:title=" ">
<polygon fill="none" stroke="black" points="216,-0.5 216,-19.5 269,-19.5 269,-0.5 216,-0.5"/>
<text text-anchor="middle" x="242.5" y="-7.5" font-family="FreeSans.ttf" font-size="10.00">TEST_F</text>
</a>
</g>
</g>
<!-- Node1&#45;&gt;Node13 -->
<g id="edge12" class="edge">
<title>Node1&#45;&gt;Node13</title>
<path fill="none" stroke="midnightblue" d="M429.55,-219.06C422.21,-176.86 399,-78.35 337,-29 317.82,-13.73 289.57,-9.77 269.14,-9.14"/>
<polygon fill="midnightblue" stroke="midnightblue" points="426.14,-219.86 431.19,-229.17 433.05,-218.74 426.14,-219.86"/>
</g>
<!-- Node7 -->
<g id="node7" class="node">
<title>Node7</title>
<g id="a_node7"><a xlink:href="python__bindings_8cpp.html#ad1a7eaf0d60c015a4df3da44ddf58e27" target="_top" xlink:title=" ">
<polygon fill="none" stroke="black" points="0,-278.5 0,-297.5 112,-297.5 112,-278.5 0,-278.5"/>
<text text-anchor="middle" x="56" y="-285.5" font-family="FreeSans.ttf" font-size="10.00">PYBIND11_MODULE</text>
</a>
</g>
</g>
<!-- Node6&#45;&gt;Node7 -->
<g id="edge6" class="edge">
<title>Node6&#45;&gt;Node7</title>
<path fill="none" stroke="midnightblue" d="M164.65,-288C147.08,-288 128.74,-288 112.28,-288"/>
<polygon fill="midnightblue" stroke="midnightblue" points="164.89,-291.5 174.89,-288 164.89,-284.5 164.89,-291.5"/>
</g>
</g>
</svg>
