<?xml version="1.0" encoding="UTF-8" standalone="no"?>
<!DOCTYPE svg PUBLIC "-//W3C//DTD SVG 1.1//EN"
 "http://www.w3.org/Graphics/SVG/1.1/DTD/svg11.dtd">
<!-- Generated by graphviz version 2.49.3 (20211027.1534)
 -->
<!-- Title: gpuNUFFT::Array::count Pages: 1 -->
<svg width="673pt" height="508pt"
 viewBox="0.00 0.00 673.00 507.50" xmlns="http://www.w3.org/2000/svg" xmlns:xlink="http://www.w3.org/1999/xlink">
<g id="graph0" class="graph" transform="scale(1 1) rotate(0) translate(4 503.5)">
<title>gpuNUFFT::Array::count</title>
<!-- Node1 -->
<g id="node1" class="node">
<title>Node1</title>
<g id="a_node1"><a xlink:title=" ">
<polygon fill="#bfbfbf" stroke="black" points="544,-229.5 544,-248.5 665,-248.5 665,-229.5 544,-229.5"/>
<text text-anchor="middle" x="604.5" y="-236.5" font-family="FreeSans.ttf" font-size="10.00">gpuNUFFT::Array::count</text>
</a>
</g>
</g>
<!-- Node2 -->
<g id="node2" class="node">
<title>Node2</title>
<g id="a_node2"><a xlink:href="classgpuNUFFT_1_1GpuNUFFTOperatorFactory.html#afa72b607029c78d61b6e01d45077998e" target="_top" xlink:title="Assign the samples on the k&#45;space trajectory to its corresponding sector.">
<polygon fill="none" stroke="black" points="334.5,-469 334.5,-499 492.5,-499 492.5,-469 334.5,-469"/>
<text text-anchor="start" x="342.5" y="-487" font-family="FreeSans.ttf" font-size="10.00">gpuNUFFT::GpuNUFFTOperator</text>
<text text-anchor="middle" x="413.5" y="-476" font-family="FreeSans.ttf" font-size="10.00">Factory::assignSectors</text>
</a>
</g>
</g>
<!-- Node1&#45;&gt;Node2 -->
<g id="edge1" class="edge">
<title>Node1&#45;&gt;Node2</title>
<path fill="none" stroke="midnightblue" d="M600.83,-258.82C593.91,-302.19 571.3,-405.91 508,-460 503.41,-463.92 498.27,-467.21 492.81,-469.97"/>
<polygon fill="midnightblue" stroke="midnightblue" points="604.32,-259.13 602.33,-248.72 597.4,-258.1 604.32,-259.13"/>
</g>
<!-- Node3 -->
<g id="node3" class="node">
<title>Node3</title>
<g id="a_node3"><a xlink:href="classgpuNUFFT_1_1GpuNUFFTOperatorFactory.html#a82e185db6eda1edb359df5a580be7b37" target="_top" xlink:title="Computation of the deapodization function.">
<polygon fill="none" stroke="black" points="319,-420 319,-450 508,-450 508,-420 319,-420"/>
<text text-anchor="start" x="327" y="-438" font-family="FreeSans.ttf" font-size="10.00">gpuNUFFT::GpuNUFFTOperator</text>
<text text-anchor="middle" x="413.5" y="-427" font-family="FreeSans.ttf" font-size="10.00">Factory::computeDeapodizationFunction</text>
</a>
</g>
</g>
<!-- Node1&#45;&gt;Node3 -->
<g id="edge2" class="edge">
<title>Node1&#45;&gt;Node3</title>
<path fill="none" stroke="midnightblue" d="M598.33,-258.29C587.71,-294.11 559.94,-370.89 508,-411 503.62,-414.38 498.82,-417.29 493.78,-419.79"/>
<polygon fill="midnightblue" stroke="midnightblue" points="601.72,-259.15 601.09,-248.57 594.99,-257.24 601.72,-259.15"/>
</g>
<!-- Node4 -->
<g id="node4" class="node">
<title>Node4</title>
<g id="a_node4"><a xlink:href="classgpuNUFFT_1_1GpuNUFFTOperatorFactory.html#ad951199a259576c45568997ccfac72dc" target="_top" xlink:title="Method to compute the sector processing order.">
<polygon fill="none" stroke="black" points="331.5,-371 331.5,-401 495.5,-401 495.5,-371 331.5,-371"/>
<text text-anchor="start" x="339.5" y="-389" font-family="FreeSans.ttf" font-size="10.00">gpuNUFFT::GpuNUFFTOperator</text>
<text text-anchor="middle" x="413.5" y="-378" font-family="FreeSans.ttf" font-size="10.00">Factory::computeProcessingOrder</text>
</a>
</g>
</g>
<!-- Node1&#45;&gt;Node4 -->
<g id="edge3" class="edge">
<title>Node1&#45;&gt;Node4</title>
<path fill="none" stroke="midnightblue" d="M594.2,-257.66C579.64,-284.89 548.86,-335.18 508,-362 502.82,-365.4 497.18,-368.32 491.32,-370.83"/>
<polygon fill="midnightblue" stroke="midnightblue" points="597.32,-259.25 598.81,-248.76 591.1,-256.03 597.32,-259.25"/>
</g>
<!-- Node5 -->
<g id="node5" class="node">
<title>Node5</title>
<g id="a_node5"><a xlink:href="classgpuNUFFT_1_1GpuNUFFTOperatorFactory.html#ad915537942d302c8d192b964e6114f28" target="_top" xlink:title="Compute the boundaries of the assigned dataIndices per sector element.">
<polygon fill="none" stroke="black" points="331,-322 331,-352 496,-352 496,-322 331,-322"/>
<text text-anchor="start" x="339" y="-340" font-family="FreeSans.ttf" font-size="10.00">gpuNUFFT::GpuNUFFTOperator</text>
<text text-anchor="middle" x="413.5" y="-329" font-family="FreeSans.ttf" font-size="10.00">Factory::computeSectorDataCount</text>
</a>
</g>
</g>
<!-- Node1&#45;&gt;Node5 -->
<g id="edge4" class="edge">
<title>Node1&#45;&gt;Node5</title>
<path fill="none" stroke="midnightblue" d="M586.44,-255.78C568.39,-272.62 538.39,-298.12 508,-313 501.08,-316.39 493.62,-319.34 486.05,-321.89"/>
<polygon fill="midnightblue" stroke="midnightblue" points="589.02,-258.16 593.84,-248.73 584.19,-253.09 589.02,-258.16"/>
</g>
<!-- Node6 -->
<g id="node6" class="node">
<title>Node6</title>
<g id="a_node6"><a xlink:href="classgpuNUFFT_1_1GpuNUFFTOperator.html#a7ac11881773486cdca07845299688268" target="_top" xlink:title=" ">
<polygon fill="none" stroke="black" points="334.5,-273 334.5,-303 492.5,-303 492.5,-273 334.5,-273"/>
<text text-anchor="start" x="342.5" y="-291" font-family="FreeSans.ttf" font-size="10.00">gpuNUFFT::GpuNUFFTOperator</text>
<text text-anchor="middle" x="413.5" y="-280" font-family="FreeSans.ttf" font-size="10.00">::estimate_density_comp</text>
</a>
</g>
</g>
<!-- Node1&#45;&gt;Node6 -->
<g id="edge5" class="edge">
<title>Node1&#45;&gt;Node6</title>
<path fill="none" stroke="midnightblue" d="M557.27,-251.15C541.63,-255.25 524.06,-259.84 508,-264 496.81,-266.9 484.85,-269.98 473.37,-272.94"/>
<polygon fill="midnightblue" stroke="midnightblue" points="558.45,-254.46 567.23,-248.54 556.67,-247.69 558.45,-254.46"/>
</g>
<!-- Node9 -->
<g id="node9" class="node">
<title>Node9</title>
<g id="a_node9"><a xlink:href="classgpuNUFFT_1_1GpuNUFFTOperator.html#ada5bb598b923ca3e92e987982f3d0d5b" target="_top" xlink:title="Perform forward gridding operation on kspaceData already residing in GPU memory.">
<polygon fill="none" stroke="black" points="334.5,-224 334.5,-254 492.5,-254 492.5,-224 334.5,-224"/>
<text text-anchor="start" x="342.5" y="-242" font-family="FreeSans.ttf" font-size="10.00">gpuNUFFT::GpuNUFFTOperator</text>
<text text-anchor="middle" x="413.5" y="-231" font-family="FreeSans.ttf" font-size="10.00">::performForwardGpuNUFFT</text>
</a>
</g>
</g>
<!-- Node1&#45;&gt;Node9 -->
<g id="edge8" class="edge">
<title>Node1&#45;&gt;Node9</title>
<path fill="none" stroke="midnightblue" d="M533.89,-239C520.51,-239 506.42,-239 492.79,-239"/>
<polygon fill="midnightblue" stroke="midnightblue" points="533.96,-242.5 543.96,-239 533.96,-235.5 533.96,-242.5"/>
</g>
<!-- Node10 -->
<g id="node10" class="node">
<title>Node10</title>
<g id="a_node10"><a xlink:href="classgpuNUFFT_1_1GpuNUFFTOperator.html#a89e40ec1b777c8033bbc933c6535078c" target="_top" xlink:title="Perform Adjoint gridding operation on kspaceData already residing in GPU memory.">
<polygon fill="none" stroke="black" points="334.5,-175 334.5,-205 492.5,-205 492.5,-175 334.5,-175"/>
<text text-anchor="start" x="342.5" y="-193" font-family="FreeSans.ttf" font-size="10.00">gpuNUFFT::GpuNUFFTOperator</text>
<text text-anchor="middle" x="413.5" y="-182" font-family="FreeSans.ttf" font-size="10.00">::performGpuNUFFTAdj</text>
</a>
</g>
</g>
<!-- Node1&#45;&gt;Node10 -->
<g id="edge9" class="edge">
<title>Node1&#45;&gt;Node10</title>
<path fill="none" stroke="midnightblue" d="M556.82,-226.9C531.34,-220.29 499.56,-212.05 472.5,-205.04"/>
<polygon fill="midnightblue" stroke="midnightblue" points="556.05,-230.31 566.61,-229.44 557.81,-223.54 556.05,-230.31"/>
</g>
<!-- Node11 -->
<g id="node11" class="node">
<title>Node11</title>
<g id="a_node11"><a xlink:href="classgpuNUFFT_1_1GpuNUFFTOperator.html#a897f3ec26b76086e3cf174a4ce0c1c23" target="_top" xlink:title="Select data array in ordered manner.">
<polygon fill="none" stroke="black" points="334.5,-126 334.5,-156 492.5,-156 492.5,-126 334.5,-126"/>
<text text-anchor="start" x="342.5" y="-144" font-family="FreeSans.ttf" font-size="10.00">gpuNUFFT::GpuNUFFTOperator</text>
<text text-anchor="middle" x="413.5" y="-133" font-family="FreeSans.ttf" font-size="10.00">::selectOrdered</text>
</a>
</g>
</g>
<!-- Node1&#45;&gt;Node11 -->
<g id="edge10" class="edge">
<title>Node1&#45;&gt;Node11</title>
<path fill="none" stroke="midnightblue" d="M586.36,-222.52C568.26,-205.97 538.21,-180.85 508,-166 500.31,-162.22 491.97,-158.95 483.55,-156.14"/>
<polygon fill="midnightblue" stroke="midnightblue" points="584.1,-225.19 593.8,-229.45 588.87,-220.07 584.1,-225.19"/>
</g>
<!-- Node12 -->
<g id="node12" class="node">
<title>Node12</title>
<g id="a_node12"><a xlink:href="classgpuNUFFT_1_1GpuNUFFTOperatorFactory.html#aae7ea9905b763b7b8cc5c36533257163" target="_top" xlink:title=" ">
<polygon fill="none" stroke="black" points="334.5,-77 334.5,-107 492.5,-107 492.5,-77 334.5,-77"/>
<text text-anchor="start" x="342.5" y="-95" font-family="FreeSans.ttf" font-size="10.00">gpuNUFFT::GpuNUFFTOperator</text>
<text text-anchor="middle" x="413.5" y="-84" font-family="FreeSans.ttf" font-size="10.00">Factory::sortVector</text>
</a>
</g>
</g>
<!-- Node1&#45;&gt;Node12 -->
<g id="edge11" class="edge">
<title>Node1&#45;&gt;Node12</title>
<path fill="none" stroke="midnightblue" d="M593.93,-220.19C579.2,-193.17 548.39,-143.69 508,-117 502.11,-113.11 495.64,-109.82 488.93,-107.05"/>
<polygon fill="midnightblue" stroke="midnightblue" points="591,-222.14 598.77,-229.35 597.19,-218.87 591,-222.14"/>
</g>
<!-- Node13 -->
<g id="node13" class="node">
<title>Node13</title>
<g id="a_node13"><a xlink:href="gpuNUFFT__forward__tests_8cpp.html#a6e7e337161ef805951437dbf21112e43" target="_top" xlink:title=" ">
<polygon fill="none" stroke="black" points="393,-38.5 393,-57.5 434,-57.5 434,-38.5 393,-38.5"/>
<text text-anchor="middle" x="413.5" y="-45.5" font-family="FreeSans.ttf" font-size="10.00">TEST</text>
</a>
</g>
</g>
<!-- Node1&#45;&gt;Node13 -->
<g id="edge12" class="edge">
<title>Node1&#45;&gt;Node13</title>
<path fill="none" stroke="midnightblue" d="M598.45,-219.62C588.01,-183.68 560.55,-106.81 508,-68 486.37,-52.02 454.67,-48.26 434.31,-47.65"/>
<polygon fill="midnightblue" stroke="midnightblue" points="595.1,-220.67 601.15,-229.38 601.85,-218.81 595.1,-220.67"/>
</g>
<!-- Node14 -->
<g id="node14" class="node">
<title>Node14</title>
<g id="a_node14"><a xlink:href="gpuNUFFT__fft__tests_8cpp.html#a143d7141da78d4955eb9d9228cd5e65e" target="_top" xlink:title=" ">
<polygon fill="none" stroke="black" points="387,-0.5 387,-19.5 440,-19.5 440,-0.5 387,-0.5"/>
<text text-anchor="middle" x="413.5" y="-7.5" font-family="FreeSans.ttf" font-size="10.00">TEST_F</text>
</a>
</g>
</g>
<!-- Node1&#45;&gt;Node14 -->
<g id="edge13" class="edge">
<title>Node1&#45;&gt;Node14</title>
<path fill="none" stroke="midnightblue" d="M600.55,-219.06C593.21,-176.86 570,-78.35 508,-29 488.82,-13.73 460.57,-9.77 440.14,-9.14"/>
<polygon fill="midnightblue" stroke="midnightblue" points="597.14,-219.86 602.19,-229.17 604.05,-218.74 597.14,-219.86"/>
</g>
<!-- Node7 -->
<g id="node7" class="node">
<title>Node7</title>
<g id="a_node7"><a xlink:href="classGpuNUFFTPythonOperator.html#a47e427fafc08d705d834940e1229742f" target="_top" xlink:title=" ">
<polygon fill="none" stroke="black" points="148,-273 148,-303 283,-303 283,-273 148,-273"/>
<text text-anchor="start" x="156" y="-291" font-family="FreeSans.ttf" font-size="10.00">GpuNUFFTPythonOperator</text>
<text text-anchor="middle" x="215.5" y="-280" font-family="FreeSans.ttf" font-size="10.00">::estimate_density_comp</text>
</a>
</g>
</g>
<!-- Node6&#45;&gt;Node7 -->
<g id="edge6" class="edge">
<title>Node6&#45;&gt;Node7</title>
<path fill="none" stroke="midnightblue" d="M324.45,-288C310.59,-288 296.47,-288 283.2,-288"/>
<polygon fill="midnightblue" stroke="midnightblue" points="324.47,-291.5 334.47,-288 324.47,-284.5 324.47,-291.5"/>
</g>
<!-- Node8 -->
<g id="node8" class="node">
<title>Node8</title>
<g id="a_node8"><a xlink:href="python__bindings_8cpp.html#ad1a7eaf0d60c015a4df3da44ddf58e27" target="_top" xlink:title=" ">
<polygon fill="none" stroke="black" points="0,-278.5 0,-297.5 112,-297.5 112,-278.5 0,-278.5"/>
<text text-anchor="middle" x="56" y="-285.5" font-family="FreeSans.ttf" font-size="10.00">PYBIND11_MODULE</text>
</a>
</g>
</g>
<!-- Node7&#45;&gt;Node8 -->
<g id="edge7" class="edge">
<title>Node7&#45;&gt;Node8</title>
<path fill="none" stroke="midnightblue" d="M137.46,-288C129.03,-288 120.58,-288 112.48,-288"/>
<polygon fill="midnightblue" stroke="midnightblue" points="137.71,-291.5 147.71,-288 137.71,-284.5 137.71,-291.5"/>
</g>
</g>
</svg>
