<?xml version="1.0" encoding="UTF-8" standalone="no"?>
<!DOCTYPE svg PUBLIC "-//W3C//DTD SVG 1.1//EN"
 "http://www.w3.org/Graphics/SVG/1.1/DTD/svg11.dtd">
<!-- Generated by graphviz version 2.49.3 (20211027.1534)
 -->
<!-- Title: CUDA/src/texture_gpuNUFFT_operator.cpp Pages: 1 -->
<svg width="781pt" height="375pt"
 viewBox="0.00 0.00 780.50 375.00" xmlns="http://www.w3.org/2000/svg" xmlns:xlink="http://www.w3.org/1999/xlink">
<g id="graph0" class="graph" transform="scale(1 1) rotate(0) translate(4 371)">
<title>CUDA/src/texture_gpuNUFFT_operator.cpp</title>
<!-- Node1 -->
<g id="node1" class="node">
<title>Node1</title>
<g id="a_node1"><a xlink:title=" ">
<polygon fill="#bfbfbf" stroke="black" points="53.5,-336.5 53.5,-366.5 200.5,-366.5 200.5,-336.5 53.5,-336.5"/>
<text text-anchor="start" x="61.5" y="-354.5" font-family="FreeSans.ttf" font-size="10.00">CUDA/src/texture_gpuNUFFT</text>
<text text-anchor="middle" x="127" y="-343.5" font-family="FreeSans.ttf" font-size="10.00">_operator.cpp</text>
</a>
</g>
</g>
<!-- Node2 -->
<g id="node2" class="node">
<title>Node2</title>
<g id="a_node2"><a xlink:href="texture__gpuNUFFT__operator_8hpp.html" target="_top" xlink:title=" ">
<polygon fill="none" stroke="black" points="48,-280.5 48,-299.5 206,-299.5 206,-280.5 48,-280.5"/>
<text text-anchor="middle" x="127" y="-287.5" font-family="FreeSans.ttf" font-size="10.00">texture_gpuNUFFT_operator.hpp</text>
</a>
</g>
</g>
<!-- Node1&#45;&gt;Node2 -->
<g id="edge1" class="edge">
<title>Node1&#45;&gt;Node2</title>
<path fill="none" stroke="midnightblue" d="M127,-336.4C127,-328.47 127,-318.46 127,-309.86"/>
<polygon fill="midnightblue" stroke="midnightblue" points="130.5,-309.66 127,-299.66 123.5,-309.66 130.5,-309.66"/>
</g>
<!-- Node3 -->
<g id="node3" class="node">
<title>Node3</title>
<g id="a_node3"><a xlink:title=" ">
<polygon fill="none" stroke="#bfbfbf" points="0,-224.5 0,-243.5 50,-243.5 50,-224.5 0,-224.5"/>
<text text-anchor="middle" x="25" y="-231.5" font-family="FreeSans.ttf" font-size="10.00">typeinfo</text>
</a>
</g>
</g>
<!-- Node2&#45;&gt;Node3 -->
<g id="edge2" class="edge">
<title>Node2&#45;&gt;Node3</title>
<path fill="none" stroke="midnightblue" d="M110.61,-280.32C94.33,-271.7 69.13,-258.36 50.28,-248.39"/>
<polygon fill="midnightblue" stroke="midnightblue" points="51.82,-245.24 41.35,-243.65 48.55,-251.43 51.82,-245.24"/>
</g>
<!-- Node4 -->
<g id="node4" class="node">
<title>Node4</title>
<g id="a_node4"><a xlink:title=" ">
<polygon fill="none" stroke="#bfbfbf" points="68.5,-224.5 68.5,-243.5 127.5,-243.5 127.5,-224.5 68.5,-224.5"/>
<text text-anchor="middle" x="98" y="-231.5" font-family="FreeSans.ttf" font-size="10.00">stdexcept</text>
</a>
</g>
</g>
<!-- Node2&#45;&gt;Node4 -->
<g id="edge3" class="edge">
<title>Node2&#45;&gt;Node4</title>
<path fill="none" stroke="midnightblue" d="M122.21,-280.08C118.24,-272.69 112.47,-261.95 107.57,-252.81"/>
<polygon fill="midnightblue" stroke="midnightblue" points="110.51,-250.91 102.7,-243.75 104.35,-254.22 110.51,-250.91"/>
</g>
<!-- Node5 -->
<g id="node5" class="node">
<title>Node5</title>
<g id="a_node5"><a xlink:href="gpuNUFFT__types_8hpp.html" target="_top" xlink:title="Definition of gpuNUFFT defined types.">
<polygon fill="none" stroke="black" points="84,-168.5 84,-187.5 196,-187.5 196,-168.5 84,-168.5"/>
<text text-anchor="middle" x="140" y="-175.5" font-family="FreeSans.ttf" font-size="10.00">gpuNUFFT_types.hpp</text>
</a>
</g>
</g>
<!-- Node2&#45;&gt;Node5 -->
<g id="edge4" class="edge">
<title>Node2&#45;&gt;Node5</title>
<path fill="none" stroke="midnightblue" d="M129.08,-280.43C131.17,-271.42 134.33,-256.8 136,-244 138.01,-228.56 139.01,-210.93 139.51,-197.93"/>
<polygon fill="midnightblue" stroke="midnightblue" points="143.01,-197.97 139.84,-187.87 136.02,-197.75 143.01,-197.97"/>
</g>
<!-- Node9 -->
<g id="node9" class="node">
<title>Node9</title>
<g id="a_node9"><a xlink:href="gpuNUFFT__operator_8hpp.html" target="_top" xlink:title=" ">
<polygon fill="none" stroke="black" points="229,-224.5 229,-243.5 353,-243.5 353,-224.5 229,-224.5"/>
<text text-anchor="middle" x="291" y="-231.5" font-family="FreeSans.ttf" font-size="10.00">gpuNUFFT_operator.hpp</text>
</a>
</g>
</g>
<!-- Node2&#45;&gt;Node9 -->
<g id="edge8" class="edge">
<title>Node2&#45;&gt;Node9</title>
<path fill="none" stroke="midnightblue" d="M152.99,-280.44C180.7,-271.32 224.75,-256.81 255.62,-246.65"/>
<polygon fill="midnightblue" stroke="midnightblue" points="256.73,-249.97 265.14,-243.52 254.54,-243.32 256.73,-249.97"/>
</g>
<!-- Node6 -->
<g id="node6" class="node">
<title>Node6</title>
<g id="a_node6"><a xlink:title=" ">
<polygon fill="none" stroke="#bfbfbf" points="240.5,-112.5 240.5,-131.5 285.5,-131.5 285.5,-112.5 240.5,-112.5"/>
<text text-anchor="middle" x="263" y="-119.5" font-family="FreeSans.ttf" font-size="10.00">cstdlib</text>
</a>
</g>
</g>
<!-- Node5&#45;&gt;Node6 -->
<g id="edge5" class="edge">
<title>Node5&#45;&gt;Node6</title>
<path fill="none" stroke="midnightblue" d="M159.49,-168.44C179.64,-159.6 211.32,-145.69 234.33,-135.59"/>
<polygon fill="midnightblue" stroke="midnightblue" points="235.85,-138.74 243.6,-131.52 233.04,-132.33 235.85,-138.74"/>
</g>
<!-- Node7 -->
<g id="node7" class="node">
<title>Node7</title>
<g id="a_node7"><a xlink:title=" ">
<polygon fill="none" stroke="#bfbfbf" points="168,-112.5 168,-131.5 222,-131.5 222,-112.5 168,-112.5"/>
<text text-anchor="middle" x="195" y="-119.5" font-family="FreeSans.ttf" font-size="10.00">iostream</text>
</a>
</g>
</g>
<!-- Node5&#45;&gt;Node7 -->
<g id="edge6" class="edge">
<title>Node5&#45;&gt;Node7</title>
<path fill="none" stroke="midnightblue" d="M149.08,-168.08C157.17,-160.14 169.2,-148.34 178.91,-138.8"/>
<polygon fill="midnightblue" stroke="midnightblue" points="181.4,-141.25 186.09,-131.75 176.5,-136.26 181.4,-141.25"/>
</g>
<!-- Node8 -->
<g id="node8" class="node">
<title>Node8</title>
<g id="a_node8"><a xlink:title=" ">
<polygon fill="none" stroke="#bfbfbf" points="224,-0.5 224,-19.5 284,-19.5 284,-0.5 224,-0.5"/>
<text text-anchor="middle" x="254" y="-7.5" font-family="FreeSans.ttf" font-size="10.00">config.hpp</text>
</a>
</g>
</g>
<!-- Node5&#45;&gt;Node8 -->
<g id="edge7" class="edge">
<title>Node5&#45;&gt;Node8</title>
<path fill="none" stroke="midnightblue" d="M141.25,-168.07C143.37,-155.04 148.49,-130.37 159,-112 179.15,-76.77 213.97,-44.13 235.39,-25.95"/>
<polygon fill="midnightblue" stroke="midnightblue" points="237.7,-28.59 243.15,-19.51 233.22,-23.21 237.7,-28.59"/>
</g>
<!-- Node9&#45;&gt;Node5 -->
<g id="edge9" class="edge">
<title>Node9&#45;&gt;Node5</title>
<path fill="none" stroke="midnightblue" d="M267.07,-224.44C241.78,-215.4 201.7,-201.06 173.32,-190.92"/>
<polygon fill="midnightblue" stroke="midnightblue" points="174.41,-187.59 163.81,-187.52 172.05,-194.18 174.41,-187.59"/>
</g>
<!-- Node9&#45;&gt;Node6 -->
<g id="edge29" class="edge">
<title>Node9&#45;&gt;Node6</title>
<path fill="none" stroke="midnightblue" d="M288.8,-224.37C284.28,-206.62 273.86,-165.67 267.73,-141.6"/>
<polygon fill="midnightblue" stroke="midnightblue" points="271.05,-140.42 265.19,-131.59 264.26,-142.15 271.05,-140.42"/>
</g>
<!-- Node9&#45;&gt;Node7 -->
<g id="edge30" class="edge">
<title>Node9&#45;&gt;Node7</title>
<path fill="none" stroke="midnightblue" d="M283.47,-224.37C267.48,-206.05 229.95,-163.05 209.28,-139.36"/>
<polygon fill="midnightblue" stroke="midnightblue" points="211.71,-136.82 202.5,-131.59 206.44,-141.43 211.71,-136.82"/>
</g>
<!-- Node9&#45;&gt;Node8 -->
<g id="edge28" class="edge">
<title>Node9&#45;&gt;Node8</title>
<path fill="none" stroke="midnightblue" d="M313.79,-224.47C329.33,-217.32 348.71,-205.44 358,-188 362.18,-180.16 360.56,-176.51 358,-168 340.56,-110.09 294.02,-53.9 269.54,-27.17"/>
<polygon fill="midnightblue" stroke="midnightblue" points="271.82,-24.49 262.44,-19.57 266.71,-29.27 271.82,-24.49"/>
</g>
<!-- Node10 -->
<g id="node10" class="node">
<title>Node10</title>
<g id="a_node10"><a xlink:href="gpuNUFFT__kernels_8hpp.html" target="_top" xlink:title="gpuNUFFT CUDA function prototypes">
<polygon fill="none" stroke="black" points="406,-168.5 406,-187.5 526,-187.5 526,-168.5 406,-168.5"/>
<text text-anchor="middle" x="466" y="-175.5" font-family="FreeSans.ttf" font-size="10.00">gpuNUFFT_kernels.hpp</text>
</a>
</g>
</g>
<!-- Node9&#45;&gt;Node10 -->
<g id="edge10" class="edge">
<title>Node9&#45;&gt;Node10</title>
<path fill="none" stroke="midnightblue" d="M318.73,-224.44C348.43,-215.28 395.72,-200.69 428.67,-190.52"/>
<polygon fill="midnightblue" stroke="midnightblue" points="429.88,-193.81 438.4,-187.52 427.81,-187.12 429.88,-193.81"/>
</g>
<!-- Node22 -->
<g id="node22" class="node">
<title>Node22</title>
<g id="a_node22"><a xlink:title=" ">
<polygon fill="none" stroke="#bfbfbf" points="290.5,-168.5 290.5,-187.5 349.5,-187.5 349.5,-168.5 290.5,-168.5"/>
<text text-anchor="middle" x="320" y="-175.5" font-family="FreeSans.ttf" font-size="10.00">functional</text>
</a>
</g>
</g>
<!-- Node9&#45;&gt;Node22 -->
<g id="edge31" class="edge">
<title>Node9&#45;&gt;Node22</title>
<path fill="none" stroke="midnightblue" d="M295.79,-224.08C299.76,-216.69 305.53,-205.95 310.43,-196.81"/>
<polygon fill="midnightblue" stroke="midnightblue" points="313.65,-198.22 315.3,-187.75 307.49,-194.91 313.65,-198.22"/>
</g>
<!-- Node11 -->
<g id="node11" class="node">
<title>Node11</title>
<g id="a_node11"><a xlink:href="gpuNUFFT__utils_8hpp.html" target="_top" xlink:title="Definition of util functions used in gridding operations.">
<polygon fill="none" stroke="black" points="406.5,-56.5 406.5,-75.5 513.5,-75.5 513.5,-56.5 406.5,-56.5"/>
<text text-anchor="middle" x="460" y="-63.5" font-family="FreeSans.ttf" font-size="10.00">gpuNUFFT_utils.hpp</text>
</a>
</g>
</g>
<!-- Node10&#45;&gt;Node11 -->
<g id="edge11" class="edge">
<title>Node10&#45;&gt;Node11</title>
<path fill="none" stroke="midnightblue" d="M465.53,-168.37C464.56,-150.62 462.33,-109.67 461.01,-85.6"/>
<polygon fill="midnightblue" stroke="midnightblue" points="464.51,-85.39 460.47,-75.59 457.52,-85.77 464.51,-85.39"/>
</g>
<!-- Node19 -->
<g id="node19" class="node">
<title>Node19</title>
<g id="a_node19"><a xlink:href="cuda__utils_8hpp.html" target="_top" xlink:title="Util functions for CUDA memory and texture management.">
<polygon fill="none" stroke="black" points="557.5,-112.5 557.5,-131.5 636.5,-131.5 636.5,-112.5 557.5,-112.5"/>
<text text-anchor="middle" x="597" y="-119.5" font-family="FreeSans.ttf" font-size="10.00">cuda_utils.hpp</text>
</a>
</g>
</g>
<!-- Node10&#45;&gt;Node19 -->
<g id="edge20" class="edge">
<title>Node10&#45;&gt;Node19</title>
<path fill="none" stroke="midnightblue" d="M486.76,-168.44C508.32,-159.56 542.26,-145.56 566.79,-135.45"/>
<polygon fill="midnightblue" stroke="midnightblue" points="568.43,-138.56 576.34,-131.52 565.76,-132.09 568.43,-138.56"/>
</g>
<!-- Node11&#45;&gt;Node8 -->
<g id="edge16" class="edge">
<title>Node11&#45;&gt;Node8</title>
<path fill="none" stroke="midnightblue" d="M427.36,-56.44C391.22,-46.97 332.95,-31.7 294.07,-21.5"/>
<polygon fill="midnightblue" stroke="midnightblue" points="294.7,-18.05 284.14,-18.9 292.93,-24.82 294.7,-18.05"/>
</g>
<!-- Node12 -->
<g id="node12" class="node">
<title>Node12</title>
<g id="a_node12"><a xlink:title=" ">
<polygon fill="none" stroke="#bfbfbf" points="371.5,-0.5 371.5,-19.5 418.5,-19.5 418.5,-0.5 371.5,-0.5"/>
<text text-anchor="middle" x="395" y="-7.5" font-family="FreeSans.ttf" font-size="10.00">stdlib.h</text>
</a>
</g>
</g>
<!-- Node11&#45;&gt;Node12 -->
<g id="edge12" class="edge">
<title>Node11&#45;&gt;Node12</title>
<path fill="none" stroke="midnightblue" d="M449.56,-56.32C439.85,-48.26 425.18,-36.08 413.5,-26.37"/>
<polygon fill="midnightblue" stroke="midnightblue" points="415.56,-23.53 405.63,-19.83 411.09,-28.92 415.56,-23.53"/>
</g>
<!-- Node13 -->
<g id="node13" class="node">
<title>Node13</title>
<g id="a_node13"><a xlink:title=" ">
<polygon fill="none" stroke="#bfbfbf" points="563.5,-0.5 563.5,-19.5 608.5,-19.5 608.5,-0.5 563.5,-0.5"/>
<text text-anchor="middle" x="586" y="-7.5" font-family="FreeSans.ttf" font-size="10.00">stdio.h</text>
</a>
</g>
</g>
<!-- Node11&#45;&gt;Node13 -->
<g id="edge13" class="edge">
<title>Node11&#45;&gt;Node13</title>
<path fill="none" stroke="midnightblue" d="M479.97,-56.44C500.61,-47.6 533.06,-33.69 556.63,-23.59"/>
<polygon fill="midnightblue" stroke="midnightblue" points="558.32,-26.67 566.13,-19.52 555.56,-20.24 558.32,-26.67"/>
</g>
<!-- Node14 -->
<g id="node14" class="node">
<title>Node14</title>
<g id="a_node14"><a xlink:title=" ">
<polygon fill="none" stroke="#bfbfbf" points="626.5,-0.5 626.5,-19.5 671.5,-19.5 671.5,-0.5 626.5,-0.5"/>
<text text-anchor="middle" x="649" y="-7.5" font-family="FreeSans.ttf" font-size="10.00">cuda.h</text>
</a>
</g>
</g>
<!-- Node11&#45;&gt;Node14 -->
<g id="edge14" class="edge">
<title>Node11&#45;&gt;Node14</title>
<path fill="none" stroke="midnightblue" d="M490.3,-56.42C520.13,-47.96 567.24,-34.58 616.45,-20.44"/>
<polygon fill="midnightblue" stroke="midnightblue" points="617.67,-23.73 626.32,-17.6 615.74,-17 617.67,-23.73"/>
</g>
<!-- Node15 -->
<g id="node15" class="node">
<title>Node15</title>
<g id="a_node15"><a xlink:title=" ">
<polygon fill="none" stroke="#bfbfbf" points="689.5,-0.5 689.5,-19.5 772.5,-19.5 772.5,-0.5 689.5,-0.5"/>
<text text-anchor="middle" x="731" y="-7.5" font-family="FreeSans.ttf" font-size="10.00">cuda_runtime.h</text>
</a>
</g>
</g>
<!-- Node11&#45;&gt;Node15 -->
<g id="edge15" class="edge">
<title>Node11&#45;&gt;Node15</title>
<path fill="none" stroke="midnightblue" d="M502.94,-56.44C550.79,-46.91 628.15,-31.49 679.29,-21.3"/>
<polygon fill="midnightblue" stroke="midnightblue" points="680.03,-24.73 689.15,-19.34 678.66,-17.86 680.03,-24.73"/>
</g>
<!-- Node16 -->
<g id="node16" class="node">
<title>Node16</title>
<g id="a_node16"><a xlink:title=" ">
<polygon fill="none" stroke="#bfbfbf" points="437,-0.5 437,-19.5 481,-19.5 481,-0.5 437,-0.5"/>
<text text-anchor="middle" x="459" y="-7.5" font-family="FreeSans.ttf" font-size="10.00">cmath</text>
</a>
</g>
</g>
<!-- Node11&#45;&gt;Node16 -->
<g id="edge17" class="edge">
<title>Node11&#45;&gt;Node16</title>
<path fill="none" stroke="midnightblue" d="M459.83,-56.08C459.7,-49.01 459.52,-38.86 459.35,-29.99"/>
<polygon fill="midnightblue" stroke="midnightblue" points="462.85,-29.68 459.16,-19.75 455.85,-29.81 462.85,-29.68"/>
</g>
<!-- Node17 -->
<g id="node17" class="node">
<title>Node17</title>
<g id="a_node17"><a xlink:title=" ">
<polygon fill="none" stroke="#bfbfbf" points="499,-0.5 499,-19.5 545,-19.5 545,-0.5 499,-0.5"/>
<text text-anchor="middle" x="522" y="-7.5" font-family="FreeSans.ttf" font-size="10.00">math.h</text>
</a>
</g>
</g>
<!-- Node11&#45;&gt;Node17 -->
<g id="edge18" class="edge">
<title>Node11&#45;&gt;Node17</title>
<path fill="none" stroke="midnightblue" d="M469.96,-56.32C479.13,-48.34 492.94,-36.31 504.03,-26.65"/>
<polygon fill="midnightblue" stroke="midnightblue" points="506.62,-29.04 511.86,-19.83 502.02,-23.76 506.62,-29.04"/>
</g>
<!-- Node18 -->
<g id="node18" class="node">
<title>Node18</title>
<g id="a_node18"><a xlink:title=" ">
<polygon fill="none" stroke="#bfbfbf" points="302.5,-0.5 302.5,-19.5 353.5,-19.5 353.5,-0.5 302.5,-0.5"/>
<text text-anchor="middle" x="328" y="-7.5" font-family="FreeSans.ttf" font-size="10.00">assert.h</text>
</a>
</g>
</g>
<!-- Node11&#45;&gt;Node18 -->
<g id="edge19" class="edge">
<title>Node11&#45;&gt;Node18</title>
<path fill="none" stroke="midnightblue" d="M439.08,-56.44C417.26,-47.52 382.85,-33.44 358.11,-23.32"/>
<polygon fill="midnightblue" stroke="midnightblue" points="359.4,-20.06 348.82,-19.52 356.75,-26.54 359.4,-20.06"/>
</g>
<!-- Node19&#45;&gt;Node9 -->
<g id="edge26" class="edge">
<title>Node19&#45;&gt;Node9</title>
<path fill="none" stroke="midnightblue" d="M591.35,-131.83C581.68,-146.14 560.52,-174.2 535,-188 482,-216.66 414.08,-227.43 363.37,-231.31"/>
<polygon fill="midnightblue" stroke="midnightblue" points="362.87,-227.84 353.14,-232.02 363.36,-234.82 362.87,-227.84"/>
</g>
<!-- Node19&#45;&gt;Node11 -->
<g id="edge25" class="edge">
<title>Node19&#45;&gt;Node11</title>
<path fill="none" stroke="midnightblue" d="M575.29,-112.44C552.65,-103.52 516.93,-89.44 491.25,-79.32"/>
<polygon fill="midnightblue" stroke="midnightblue" points="492.19,-75.93 481.61,-75.52 489.63,-82.44 492.19,-75.93"/>
</g>
<!-- Node19&#45;&gt;Node13 -->
<g id="edge23" class="edge">
<title>Node19&#45;&gt;Node13</title>
<path fill="none" stroke="midnightblue" d="M596.48,-112.15C595.7,-99.63 594.1,-76.04 592,-56 591.09,-47.37 589.86,-37.84 588.74,-29.78"/>
<polygon fill="midnightblue" stroke="midnightblue" points="592.17,-29.02 587.29,-19.61 585.24,-30 592.17,-29.02"/>
</g>
<!-- Node19&#45;&gt;Node14 -->
<g id="edge21" class="edge">
<title>Node19&#45;&gt;Node14</title>
<path fill="none" stroke="midnightblue" d="M601.08,-112.37C609.55,-94.46 629.18,-52.92 640.52,-28.95"/>
<polygon fill="midnightblue" stroke="midnightblue" points="643.83,-30.13 644.94,-19.59 637.5,-27.14 643.83,-30.13"/>
</g>
<!-- Node19&#45;&gt;Node15 -->
<g id="edge22" class="edge">
<title>Node19&#45;&gt;Node15</title>
<path fill="none" stroke="midnightblue" d="M607.51,-112.37C630.22,-93.73 684.06,-49.53 712.56,-26.13"/>
<polygon fill="midnightblue" stroke="midnightblue" points="715.03,-28.64 720.53,-19.59 710.58,-23.23 715.03,-28.64"/>
</g>
<!-- Node20 -->
<g id="node20" class="node">
<title>Node20</title>
<g id="a_node20"><a xlink:title=" ">
<polygon fill="none" stroke="#bfbfbf" points="715.5,-56.5 715.5,-75.5 758.5,-75.5 758.5,-56.5 715.5,-56.5"/>
<text text-anchor="middle" x="737" y="-63.5" font-family="FreeSans.ttf" font-size="10.00">cufft.h</text>
</a>
</g>
</g>
<!-- Node19&#45;&gt;Node20 -->
<g id="edge24" class="edge">
<title>Node19&#45;&gt;Node20</title>
<path fill="none" stroke="midnightblue" d="M619.18,-112.44C642.57,-103.42 679.58,-89.15 705.88,-79"/>
<polygon fill="midnightblue" stroke="midnightblue" points="707.31,-82.2 715.38,-75.34 704.79,-75.67 707.31,-82.2"/>
</g>
<!-- Node21 -->
<g id="node21" class="node">
<title>Node21</title>
<g id="a_node21"><a xlink:title=" ">
<polygon fill="none" stroke="#bfbfbf" points="531.5,-56.5 531.5,-75.5 582.5,-75.5 582.5,-56.5 531.5,-56.5"/>
<text text-anchor="middle" x="557" y="-63.5" font-family="FreeSans.ttf" font-size="10.00">stdarg.h</text>
</a>
</g>
</g>
<!-- Node19&#45;&gt;Node21 -->
<g id="edge27" class="edge">
<title>Node19&#45;&gt;Node21</title>
<path fill="none" stroke="midnightblue" d="M590.39,-112.08C584.74,-104.46 576.46,-93.26 569.55,-83.94"/>
<polygon fill="midnightblue" stroke="midnightblue" points="572.25,-81.7 563.48,-75.75 566.62,-85.87 572.25,-81.7"/>
</g>
</g>
</svg>
